<?xml version="1.0" standalone="no"?>
<!DOCTYPE svg PUBLIC "-//W3C//DTD SVG 1.1//EN" "http://www.w3.org/Graphics/SVG/1.1/DTD/svg11.dtd" >
<svg xmlns="http://www.w3.org/2000/svg">
<metadata>
Created by FontPrep 20130207 at Thu Aug  4 12:51:49 2016
 By Olivia Cheng
Copyright (c) 2013 Schick Toikka. All rights reserved. Noe Display is a trademark of Schick Toikka. Unauthorised copying or modification of any of its data is illegal.
</metadata>
<defs>
<font id="d036bd1e88fce1e7d3097c62b9f7568c" horiz-adv-x='1024' >
  <font-face 
    font-family="NoeDisplay-Bold"
    font-weight="700"
    font-stretch="normal"
    units-per-em="2048"
    panose-1="2 10 8 0 9 4 0 0 0 2"
    ascent="1536"
    descent="-512"
    x-height="1014"
    cap-height="1440"
    bbox="-463 -532 2456 2034"
    underline-thickness="38"
    underline-position="-168"
    unicode-range="U+0020-FB02"
  />
<missing-glyph horiz-adv-x="1228" 
d="M178 1499l436 -942l437 942h-873zM614 467l-436 -942h875zM635 512l440 -946v1896zM594 512l-440 950v-1900zM1114 -512h-999v2048h999v-2048z" />
    <glyph glyph-name="fi" unicode="fi" horiz-adv-x="1294" 
d="M1153 147q0 -29 21 -49l100 -94v-4h-574v4l101 94q18 18 18 49v793q0 33 -33 33h-294v-823q0 -27 22 -48l117 -98v-4h-592v4l100 94q18 18 19 49v826h-109v41h109q10 221 144 334t368 112q182 0 385 -55l-129 -303h-4l-154 293q-16 27 -49 26h-31q-197 0 -196 -311v-96
h661v-867z" />
    <glyph glyph-name="fl" unicode="fl" horiz-adv-x="1316" 
d="M1180 147q0 -29 18 -49l100 -94v-4h-571v4l98 94q18 16 19 49v1190q0 27 -19 39q-68 41 -143 41q-190 0 -190 -297v-106h249v-41h-249v-813q0 -29 30 -51l152 -105v-4h-635v4l100 94q18 18 19 49v826h-109v41h109q8 221 134 334t333 112q123 0 225 -53l330 86v-1346z" />
    <glyph glyph-name="f_b" unicode="fb" horiz-adv-x="1898" 
d="M1300 866q-90 0 -153 -88v-661q45 -45 119 -45q231 0 231 434q0 360 -197 360zM813 -16v1353q0 27 -20 39q-72 41 -148 41q-76 1 -115 -67t-38 -230v-106h249v-41h-249v-813q0 -29 30 -51l152 -105v-4h-635v4l100 94q18 18 19 49v826h-109v41h109q8 221 130 334t316 112
q117 0 213 -53l330 86v-688q102 225 319 225q176 0 280 -140t105 -375q0 -235 -127 -383t-315 -148t-270 108l-322 -108h-4z" />
    <glyph glyph-name="f_h" unicode="fh" horiz-adv-x="1939" 
d="M1328 860q-89 0 -152 -92v-621q0 -31 18 -49l102 -94v-4h-573v4l98 94q20 18 21 49v1190q0 27 -21 39q-66 41 -139 41q-190 0 -190 -297v-106h249v-41h-249v-813q0 -29 30 -51l152 -105v-4h-635v4l100 94q18 18 19 49v826h-109v41h109q8 221 133 334t332 112
q127 0 223 -53l330 86v-702q80 240 325 239q156 0 238 -110t82 -322l-6 -451q0 -31 20 -49l100 -94v-4h-573v4l96 94q20 20 21 47l6 406q0 153 -34 231t-123 78z" />
    <glyph glyph-name="f_j" unicode="fj" horiz-adv-x="1255" 
d="M813 -39v979q0 20 -5 26t-22 7h-294v-823q0 -27 22 -48l117 -98v-4h-592v4l100 94q18 18 19 49v826h-109v41h109q10 221 142 334t366 112q180 0 387 -55l-129 -303h-4l-156 293q-12 25 -43 24q-8 2 -37 2q-193 0 -192 -311v-96h655v-938q0 -254 -128 -395t-366 -146
l-49 2v4q209 41 209 420z" />
    <glyph glyph-name="f_k" unicode="fk" horiz-adv-x="1873" 
d="M1894 0h-432l-227 483q-9 25 -29 25t-30 -8v-353q0 -31 18 -49l102 -94v-4h-573v4l98 94q20 18 21 49v1190q0 25 -21 39q-61 41 -139 41q-190 0 -190 -297v-106h249v-41h-249v-813q0 -29 30 -51l152 -105v-4h-635v4l100 94q18 18 19 49v826h-109v41h109q8 221 133 334
t336 112q119 0 219 -53l330 86v-971l329 248q23 16 6 41l-139 199v4h502v-4l-375 -285q-20 -16 -12 -37l276 -541q18 -35 47 -63l84 -80v-4z" />
    <glyph glyph-name=".notdef" horiz-adv-x="1228" 
d="M178 1499l436 -942l437 942h-873zM614 467l-436 -942h875zM635 512l440 -946v1896zM594 512l-440 950v-1900zM1114 -512h-999v2048h999v-2048z" />
    <glyph glyph-name=".null" horiz-adv-x="0" 
 />
    <glyph glyph-name="nonmarkingreturn" horiz-adv-x="681" 
 />
    <glyph glyph-name="space" unicode=" " horiz-adv-x="403" 
 />
    <glyph glyph-name="exclam" unicode="!" horiz-adv-x="634" 
d="M481 141q0 -69 -48 -113t-117 -44q-68 0 -116 44t-48 112q0 69 48 115t116 46t117 -45q48 -45 48 -115zM559 1440l-242 -991h-4l-237 991h483z" />
    <glyph glyph-name="quotedbl" unicode="&#x22;" horiz-adv-x="741" 
d="M422 1340q0 48 33 84t95 36t94 -36t32 -83t-12 -88l-113 -319h-4l-111 319q-14 39 -14 87zM66 1340q0 48 32 84t94 36t95 -36q54 -59 18 -171l-110 -319h-5l-110 319q-14 39 -14 87z" />
    <glyph glyph-name="numbersign" unicode="#" horiz-adv-x="1204" 
d="M502 895l-119 -416h317l119 416h-317zM1006 440h-275l-110 -387l-37 13l106 374h-319l-111 -387l-37 13l107 374h-258v39h268l119 416h-258v39h270l115 403l41 -12l-113 -391h317l115 403l41 -12l-113 -391h259v-39h-271l-119 -416h263v-39z" />
    <glyph glyph-name="dollar" unicode="$" horiz-adv-x="1165" 
d="M379 1202q0 -86 47 -137t147 -104v456q-90 -13 -142 -71t-52 -144zM805 248q0 86 -46 140t-147 108v-469q90 18 142 76q51 59 51 145zM541 -20q-223 0 -420 57v489h4l270 -467q18 -31 49 -35q73 -11 129 -4v496l-114 55q-279 133 -349 295q-32 74 -32 166q0 186 134 301
t361 125v166h39v-164q197 0 392 -47v-467h-5l-276 443q-21 29 -41 31t-59 1h-11v-481l103 -49q249 -121 325 -219q76 -97 74 -226q0 -194 -136 -320t-366 -142v-197h-39v193h-32z" />
    <glyph glyph-name="percent" unicode="%" horiz-adv-x="1396" 
d="M1229 1436l-1030 -1456l-33 26l1030 1454zM988 594q148 0 220 -81t72 -225t-73 -226t-220 -80q-147 0 -220 82t-73 224t73 224t221 82zM985 563q-53 0 -69 -60t-15 -214q0 -154 15 -215q14 -62 68 -62t72 62t17 214q0 153 -17 214q-18 61 -71 61zM404 1460q148 0 220 -81
t72 -225t-72 -225t-220 -81t-221 82t-73 224t73 224t221 82zM401 1430q-53 0 -68 -60t-15 -215q0 -154 14 -215q16 -61 69 -61t71 61q17 61 17 214q1 152 -17 214t-71 62z" />
    <glyph glyph-name="ampersand" unicode="&#x26;" horiz-adv-x="1579" 
d="M485 1229q0 -88 42 -168t151 -197q133 123 133 301q0 129 -47 195t-119 66t-116 -55q-44 -54 -44 -142zM322 432q0 -136 99 -231t226 -95t217 74q-53 51 -131 135l-315 349q-96 -96 -96 -232zM461 -20q-180 0 -293 92t-113 234q1 142 95 228t253 148q-94 104 -138 194
t-44 193q0 170 116 281q116 110 305 110t297 -76t108 -210q0 -225 -353 -328l316 -342q63 -68 90 -92q98 129 110 182q6 25 -32 76l-158 200v4h508v-4l-207 -211q-39 -41 -93 -125t-104 -147q90 -84 148 -115q120 -65 214 8q48 38 70 111h5q4 -29 4 -67q0 -158 -87 -251
t-233 -93q-92 0 -174 42t-184 136q-205 -178 -426 -178z" />
    <glyph glyph-name="quotesingle" unicode="'" horiz-adv-x="385" 
d="M66 1344q0 44 32 80t94 36t95 -36q52 -57 18 -171l-110 -319h-5l-110 319q-14 47 -14 91z" />
    <glyph glyph-name="parenleft" unicode="(" horiz-adv-x="696" 
d="M111 598q0 489 295 766q111 104 268 147l2 -4q-102 -84 -168 -219q-143 -293 -143 -690t143 -690q66 -135 168 -219l-2 -4q-158 43 -268 147q-295 277 -295 766z" />
    <glyph glyph-name="parenright" unicode=")" horiz-adv-x="696" 
d="M586 598q0 -500 -293 -766q-113 -104 -270 -147l-3 4q102 84 168 219q143 293 144 690q0 397 -144 690q-66 135 -168 219l3 4q158 -43 270 -147q293 -266 293 -766z" />
    <glyph glyph-name="asterisk" unicode="*" horiz-adv-x="866" 
d="M813 1065l-377 16l309 -209l-215 -155l-102 356l-102 -354l-215 155l309 207l-367 -14l82 254l287 -229l-121 348h266l-133 -348l295 227z" />
    <glyph glyph-name="plus" unicode="+" horiz-adv-x="1105" 
d="M104 643v39h428v432h41v-432h431v-39h-431v-430h-41v430h-428z" />
    <glyph glyph-name="comma" unicode="," horiz-adv-x="497" 
d="M242 -14q0 25 -31 30q-57 8 -91 48t-34 101q0 60 42 103t113 43t117 -51t45 -141q0 -133 -92 -247t-227 -142l-2 4q74 38 117 110t43 142z" />
    <glyph glyph-name="hyphen" unicode="-" horiz-adv-x="718" 
d="M94 485v41h533v-41h-533z" />
    <glyph glyph-name="period" unicode="." horiz-adv-x="497" 
d="M414 141q0 -69 -48 -113t-117 -44t-117 44t-48 112q0 69 48 115t117 46t117 -45t48 -115z" />
    <glyph glyph-name="slash" unicode="/" horiz-adv-x="778" 
d="M713 1499l-609 -1814l-38 12l608 1814z" />
    <glyph glyph-name="zero" unicode="0" horiz-adv-x="1394" 
d="M696 1460q293 0 454 -184t161 -557t-161 -556t-454 -183q-294 0 -454 184t-160 557t160 556t454 183zM696 18q119 0 181 161q61 161 61 543t-61 541t-181 159t-179 -160q-60 -158 -60 -541t60 -543t179 -160z" />
    <glyph glyph-name="one" unicode="1" horiz-adv-x="831" 
d="M608 186q0 -33 23 -49l162 -133v-4h-707v4l164 133q20 16 20 49v951q0 35 -20 41l-191 69v4l549 226v-1291z" />
    <glyph glyph-name="two" unicode="2" horiz-adv-x="1155" 
d="M1059 1071q0 -235 -265 -457q-134 -112 -386 -274l-91 -59h531q41 0 54 6t38 30l135 148h4l-71 -465h-965v4l256 307q263 320 342 524q45 116 45 265t-53 234t-148 85q-31 0 -52 -5t-32 -30l-174 -411h-4l-160 370q242 117 492 117t377 -106t127 -283z" />
    <glyph glyph-name="three" unicode="3" horiz-adv-x="1179" 
d="M1114 401q0 -193 -161 -307t-466 -114q-233 0 -430 69l164 410h4l152 -406q14 -35 51 -35h45q117 0 193 100t76 260q0 159 -77 249t-251 112v4q285 61 284 377q0 135 -56 217t-146 82q-30 0 -50 -3t-34 -34l-174 -409h-5l-159 370q232 117 476 117t378 -95t133 -249
q0 -154 -89 -238q-89 -83 -259 -118v-4q185 -18 293 -113t108 -242z" />
    <glyph glyph-name="four" unicode="4" horiz-adv-x="1234" 
d="M557 408v862l-481 -862h481zM893 1440v-1032h43q23 0 32 5t21 23l211 363h4l-39 -432h-272v-183q0 -25 22 -47l146 -133v-4h-676v4l147 131q25 20 25 49v183h-549v2l590 1071h295z" />
    <glyph glyph-name="five" unicode="5" horiz-adv-x="1175" 
d="M1112 455q0 -236 -166 -356q-166 -119 -428 -119t-452 67l155 408h4l158 -402q14 -35 49 -35h47q115 0 190 104t75 275t-85 265q-84 94 -247 94q-121 0 -238 -68l-4 2l35 754l409 -17q94 -4 134 -4q166 0 237 66l59 55h5l-23 -198q-14 -123 -84 -165t-190 -42t-164 2
l-357 14l-18 -412q215 139 432 139t342 -118q125 -119 125 -309z" />
    <glyph glyph-name="six" unicode="6" horiz-adv-x="1294" 
d="M643 811q-98 0 -188 -78v-22q0 -692 221 -693q92 0 151 108t59 290t-58 288q-60 106 -185 107zM815 905q186 -1 299 -111t113 -326q-1 -216 -149 -352t-398 -136q-290 0 -444 191t-154 549t170 549t504 191q211 0 418 -71l-162 -355h-4l-195 359q-10 18 -19 23t-34 5h-27
q-145 1 -211 -155t-67 -508q137 147 360 147z" />
    <glyph glyph-name="seven" unicode="7" horiz-adv-x="1075" 
d="M213 1157q-25 0 -34 -5t-25 -24l-113 -133h-4l47 445h1001v-4l-155 -242q-25 -39 -45 -98q-123 -381 -246 -1096h-430q143 315 331 641q187 326 326 516h-653z" />
    <glyph glyph-name="eight" unicode="8" horiz-adv-x="1222" 
d="M608 1421q-104 0 -164 -55t-61 -144q0 -89 55 -154t178 -132l144 -80q86 88 86 238t-67 239q-67 88 -171 88zM883 228q0 92 -50 148t-163 116l-232 129q-111 -86 -110 -287q0 -129 89 -221q89 -93 209 -93t188 58t69 150zM625 -20q-247 0 -397 97t-150 249q0 122 91 198
t253 105q-155 104 -232 197q-76 93 -75 227q0 184 139 296q139 111 344 111t346 -90t141 -242q0 -116 -83 -186t-224 -94l80 -43q158 -86 234 -178t75 -230q0 -176 -147 -297q-148 -120 -395 -120z" />
    <glyph glyph-name="nine" unicode="9" horiz-adv-x="1294" 
d="M657 625q88 0 183 84v18q0 375 -56 535t-166 159q-92 -1 -152 -109t-60 -290t61 -290t190 -107zM494 535q-174 -1 -301 113t-127 328t149 349q150 135 399 135q293 0 445 -188q151 -188 151 -540t-172 -552q-172 -201 -491 -200q-217 0 -428 75l153 363h4l201 -371
q11 -18 19 -22t34 -7h33q143 0 208 156t69 506q-133 -145 -346 -145z" />
    <glyph glyph-name="colon" unicode=":" horiz-adv-x="497" 
d="M84 816q0 69 48 115t117 46t117 -45t48 -115t-48 -114t-117 -44t-117 44t-48 113zM414 141q0 -69 -48 -113t-117 -44t-117 44t-48 112q0 69 48 115t117 46t117 -45t48 -115z" />
    <glyph glyph-name="semicolon" unicode=";" horiz-adv-x="497" 
d="M84 816q0 69 48 115t117 46t117 -45t48 -115t-48 -114t-117 -44t-117 44t-48 113zM242 -14q0 25 -31 30q-57 8 -91 48t-34 101q0 60 42 103t113 43t117 -51t45 -141q0 -133 -92 -247t-227 -142l-2 4q74 38 117 110t43 142z" />
    <glyph glyph-name="less" unicode="&#x3c;" horiz-adv-x="1105" 
d="M119 664l799 366l14 -39l-723 -329l723 -330l-14 -39l-799 366v5z" />
    <glyph glyph-name="equal" unicode="=" horiz-adv-x="1105" 
d="M102 461v39h902v-39h-902zM102 827v39h902v-39h-902z" />
    <glyph glyph-name="greater" unicode="&#x3e;" horiz-adv-x="1105" 
d="M188 1030l799 -366v-5l-799 -366l-14 39l721 330l-721 329z" />
    <glyph glyph-name="question" unicode="?" horiz-adv-x="937" 
d="M596 141q0 -69 -48 -113t-117 -44t-116 44t-47 113q0 70 47 115t116 45t117 -45t48 -115zM944 1129q0 -153 -162 -283q-30 -24 -120 -90t-128 -96t-56 -71q-18 -40 -15 -114l-4 -2q-180 59 -180 205q0 101 141 232q57 55 86 87q90 99 90 201t-52 162t-126 59h-27
q-43 0 -57 -33l-176 -413h-4l-160 370q252 117 481 117t349 -89t120 -242z" />
    <glyph glyph-name="at" unicode="@" horiz-adv-x="2056" 
d="M842 269q0 -120 71 -119q81 -1 181 241q10 25 74 253q65 228 75 274q-20 29 -69 28q-190 0 -296 -416q-36 -142 -36 -261zM1954 662q0 -276 -156 -478t-391 -200q-135 0 -223 72t-88 204q0 35 6 72l-6 2q-56 -164 -142 -257t-190 -93t-175 82t-71 233q0 285 161 508
t372 223q141 0 204 -92l320 94l4 -4l-166 -659q-27 -113 -27 -174q0 -150 117 -150q141 0 277 181q135 181 135 440q0 319 -222 526t-577 207q-408 0 -690 -288t-283 -718q0 -258 124 -447q124 -190 318 -280q195 -90 439 -90t500 156l18 -33q-252 -162 -538 -162
q-359 0 -620 208q-128 101 -205 269t-77 379q0 449 296 747t722 298q374 0 604 -221t230 -555z" />
    <glyph glyph-name="A" unicode="A" horiz-adv-x="1343" 
d="M528 1206l-215 -663h422zM446 0h-485v4l197 262q33 43 47 86l284 873q10 29 9 40q-2 11 -21 31l-121 140v4h482l383 -1215q10 -35 41 -84l86 -137v-4h-607v4l99 137q14 20 4 56l-96 305h-447l-53 -164q-8 -25 -5 -35t21 -37l182 -262v-4z" />
    <glyph glyph-name="B" unicode="B" horiz-adv-x="1380" 
d="M557 1358v-588h98q115 0 176 85t61 231t-58 230q-59 83 -170 83h-70q-23 0 -30 -7t-7 -34zM657 729h-100v-647q0 -29 8 -35t41 -6h58q264 0 264 350q0 168 -65 253t-206 85zM31 1440h733q246 0 381 -82t135 -242t-114 -250t-310 -106v-4q211 -4 340 -96t129 -270
t-141 -284t-385 -106h-768v4l137 129q18 18 18 49v1075q0 31 -18 50l-137 129v4z" />
    <glyph glyph-name="C" unicode="C" horiz-adv-x="1296" 
d="M1200 918h-4l-311 471q-20 33 -68 32h-29q-311 0 -311 -701t316 -702h22q47 0 68 29l313 483h4v-514q-201 -37 -436 -36q-356 0 -533 195q-176 196 -176 541q1 345 183 545t518 199q229 0 444 -39v-503z" />
    <glyph glyph-name="D" unicode="D" horiz-adv-x="1474" 
d="M600 41h43q195 0 278 169t83 511t-81 510t-266 168h-65q-23 0 -29 -7t-6 -32v-1278q0 -29 7 -35t36 -6zM31 0v4l137 129q18 18 18 49v1075q0 31 -18 50l-137 129v4h684q348 0 528 -184t180 -522q1 -338 -195 -536t-552 -198h-645z" />
    <glyph glyph-name="E" unicode="E" horiz-adv-x="1243" 
d="M1128 1440v-496h-4l-264 422q-20 33 -57 33h-211q-23 0 -29 -7t-6 -34v-617h139q31 2 54 29l184 213h4v-522h-4l-184 213q-25 27 -56 26h-137v-618q0 -27 6 -34t29 -7h235q45 0 62 29l254 434h4v-504h-1116v4l137 129q18 18 18 49v1075q0 31 -18 50l-137 129v4h1097z" />
    <glyph glyph-name="F" unicode="F" horiz-adv-x="1177" 
d="M1128 1440v-496h-4l-264 422q-20 33 -57 33h-211q-23 0 -29 -7t-6 -32v-619h139q31 2 54 29l184 213h4v-522h-4l-184 213q-25 27 -56 26h-137v-505q0 -29 23 -48l188 -143v-4h-737v4l137 129q18 18 18 49v1075q0 31 -18 50l-137 129v4h1097z" />
    <glyph glyph-name="G" unicode="G" horiz-adv-x="1417" 
d="M774 29q121 0 121 51v364q0 35 -18 58l-115 131v4h637v-4l-115 -131q-18 -23 -18 -58v-464l-312 55q-131 -55 -268 -55q-291 0 -462 198t-171 539q-1 342 187 543t528 200q254 0 469 -47v-502h-4l-320 478q-20 33 -63 32h-35q-338 0 -338 -680q0 -385 72 -549t225 -163z
" />
    <glyph glyph-name="H" unicode="H" horiz-adv-x="1589" 
d="M1403 1257v-1075q0 -31 18 -49l135 -129v-4h-679v4l135 129q20 20 20 49v535h-475v-535q0 -31 21 -49l135 -129v-4h-682v4l137 129q18 18 18 49v1075q0 31 -18 50l-137 129v4h682v-4l-135 -129q-20 -18 -21 -50v-499h475v499q0 31 -20 50l-135 129v4h679v-4l-135 -129
q-18 -19 -18 -50z" />
    <glyph glyph-name="I" unicode="I" horiz-adv-x="745" 
d="M557 182q0 -31 21 -49l135 -129v-4h-682v4l137 129q18 18 18 49v1075q0 31 -18 50l-137 129v4h682v-4l-135 -129q-20 -18 -21 -50v-1075z" />
    <glyph glyph-name="J" unicode="J" horiz-adv-x="686" 
d="M158 121v1136q0 31 -21 50l-135 129v4h682v-4l-135 -129q-20 -18 -21 -50v-1015q0 -308 -166 -486t-479 -188l-2 4q277 141 277 549z" />
    <glyph glyph-name="K" unicode="K" horiz-adv-x="1454" 
d="M1489 0h-490l-426 702l428 465q17 17 17 27t-17 33l-155 209v4h635v-4l-340 -213q-63 -39 -105 -82l-188 -199l461 -747q27 -45 61 -76l119 -115v-4zM557 1257v-1075q0 -31 21 -49l135 -129v-4h-682v4l137 129q18 18 18 49v1075q0 31 -18 50l-137 129v4h682v-4l-135 -129
q-21 -19 -21 -50z" />
    <glyph glyph-name="L" unicode="L" horiz-adv-x="1189" 
d="M186 182v1075q0 31 -18 50l-137 129v4h682v-4l-135 -129q-20 -18 -21 -50v-1175q0 -27 6 -34t29 -7h192q41 0 60 29l284 462h5v-532h-1102v4l137 129q18 18 18 49z" />
    <glyph glyph-name="M" unicode="M" horiz-adv-x="1820" 
d="M1632 182q0 -31 21 -49l135 -129v-4h-682v4l137 129q18 18 19 49v824q0 61 6 122l-463 -1144h-4l-479 1052q-31 63 -39 90v-782q0 -31 26 -68l207 -272v-4h-510v4l207 272q27 37 27 68v811q0 37 -19 59l-168 222v4h490l428 -934l377 934h440v-4l-135 -150
q-20 -20 -21 -51v-1053z" />
    <glyph glyph-name="N" unicode="N" horiz-adv-x="1447" 
d="M1243 0h-250l-706 1094v-750q0 -31 24 -63l211 -277v-4h-510v4l205 275q27 35 27 65v774q0 41 -19 66l-205 252v4h484l696 -1082v738q0 35 -24 65l-209 275v4h510v-4l-207 -275q-27 -37 -27 -65v-1096z" />
    <glyph glyph-name="O" unicode="O" horiz-adv-x="1499" 
d="M750 1460q330 0 512 -189t182 -551t-182 -550q-182 -190 -512 -190t-512 189t-182 551t182 550q182 190 512 190zM750 18q136 0 204 166t68 537t-69 535t-203 165q-134 0 -204 -165q-69 -166 -69 -536t69 -536t204 -166z" />
    <glyph glyph-name="P" unicode="P" horiz-adv-x="1333" 
d="M557 1360v-785h94q123 0 194 113t71 302t-65 299t-179 110h-78q-25 0 -31 -7t-6 -32zM690 535h-133v-338q0 -33 23 -52l192 -141v-4h-741v4l137 129q18 18 18 49v1075q0 31 -18 50l-137 129v4h710q225 0 387 -93q82 -47 128 -135t47 -206q0 -233 -165 -352t-448 -119z
" />
    <glyph glyph-name="Q" unicode="Q" horiz-adv-x="1499" 
d="M750 18q136 0 204 166t68 537t-69 535t-203 165q-134 0 -204 -165q-69 -166 -69 -536t69 -536t204 -166zM1094 -483q-123 0 -293 51l-412 123q-120 38 -221 26l-2 4l326 293q-211 62 -324 242t-113 463q1 361 183 551t512 190t512 -189t182 -551t-182 -550
q-182 -190 -512 -190q-117 0 -215 24l-72 -63l459 -123q150 -41 266 -41t219 51l90 45l4 -2l-92 -164q-108 -190 -315 -190z" />
    <glyph glyph-name="R" unicode="R" horiz-adv-x="1425" 
d="M557 1360v-647h107q238 0 238 343t-230 343h-78q-25 0 -31 -7t-6 -32zM664 672h-107v-492q0 -31 21 -49l137 -127v-4h-684v4l137 129q18 18 18 49v1075q0 31 -18 50l-137 129v4h790q207 0 341 -90t134 -266t-118 -274q-118 -97 -330 -114v-4l264 -78l186 -442
q14 -37 56 -78l88 -90v-4h-479l-254 647q-12 25 -45 25z" />
    <glyph glyph-name="S" unicode="S" horiz-adv-x="1159" 
d="M1114 446q0 -210 -158 -338t-398 -128t-437 57v489h4l270 -467q18 -33 47 -37t84 -4q127 0 203 62t76 166q1 104 -63 162t-220 133l-63 30q-156 74 -257 165q-124 112 -124 301q0 191 145 307t365 116t416 -47v-467h-5l-276 443q-16 25 -40 29t-60 3q-111 0 -178 -59
q-67 -60 -67 -158t61 -153q60 -55 200 -123l76 -37q249 -121 324 -217q75 -97 75 -228z" />
    <glyph glyph-name="T" unicode="T" horiz-adv-x="1298" 
d="M834 197q0 -33 22 -54l152 -139v-4h-717v4l151 139q23 23 23 54v1202h-117q-25 0 -34 -5t-19 -28l-252 -479h-4v553h1221v-553h-5l-251 479q-10 23 -20 28t-34 5h-116v-1202z" />
    <glyph glyph-name="U" unicode="U" horiz-adv-x="1378" 
d="M1196 524q0 -266 -112 -405t-388 -139q-274 0 -406 118t-132 391v766q0 31 -21 50l-123 131v4h662v-4l-127 -131q-20 -18 -21 -50v-743q0 -242 79 -348t231 -106t233 116q82 117 82 346v576q0 37 -27 67l-200 273v4h497v-4l-200 -273q-27 -31 -27 -67v-572z" />
    <glyph glyph-name="V" unicode="V" horiz-adv-x="1292" 
d="M883 1440h483v-4l-195 -260q-33 -43 -47 -89l-338 -1087h-286l-389 1214q-14 45 -41 84l-86 138v4h608v-4l-98 -138q-16 -25 -7 -53l324 -1018l270 871q6 27 4 37t-20 36l-182 265v4z" />
    <glyph glyph-name="W" unicode="W" horiz-adv-x="2080" 
d="M-16 1440h606v-4l-98 -138q-14 -20 -5 -53l314 -1016l213 666l-99 319q-12 39 -34 78l-80 144v4h596v-4l-99 -138q-16 -25 -6 -53l307 -1014l269 867q12 39 -15 73l-184 265v4h485v-4l-194 -260q-37 -47 -49 -89l-336 -1087h-287l-252 819l-260 -819h-287l-378 1214
q-10 35 -41 84l-86 138v4z" />
    <glyph glyph-name="X" unicode="X" horiz-adv-x="1454" 
d="M1466 0h-696v4l96 125q20 25 2 53l-252 391l-198 -268q-16 -23 -18 -34t10 -29l149 -238v-4h-565v4l287 225q70 57 108 109l203 272l-387 604q-25 37 -62 74l-133 148v4h697v-4l-97 -125q-20 -23 -2 -54l230 -358l176 236q18 23 19 33t-11 30l-152 238v4h568v-4
l-287 -226q-70 -55 -111 -108l-178 -240l410 -637q14 -20 61 -73l133 -148v-4z" />
    <glyph glyph-name="Y" unicode="Y" horiz-adv-x="1310" 
d="M850 547v-350q0 -33 22 -54l150 -139v-4h-715v4l152 139q20 20 20 54v315q0 31 -12 51l-338 647q-27 51 -55 88l-103 138v4h688v-4l-122 -142q-20 -25 -9 -49l299 -602l236 481q10 25 9 34t-15 30l-176 248v4h512v-4l-232 -248q-33 -33 -55 -76l-240 -487
q-16 -33 -16 -78z" />
    <glyph glyph-name="Z" unicode="Z" horiz-adv-x="1284" 
d="M1192 0h-1169v4l811 1395h-375q-27 0 -37 -4t-19 -21l-292 -483h-5v549h1147v-4l-813 -1395h396q26 0 36 4t19 21l297 481h4v-547z" />
    <glyph glyph-name="bracketleft" unicode="[" horiz-adv-x="745" 
d="M385 1313v-1428q0 -18 4 -24t21 -11l315 -108v-4l-561 -25v1772l561 -25v-4l-315 -108q-16 -4 -20 -10t-5 -25z" />
    <glyph glyph-name="backslash" unicode="\" horiz-adv-x="778" 
d="M674 -315l-608 1814l38 12l609 -1814z" />
    <glyph glyph-name="bracketright" unicode="]" horiz-adv-x="745" 
d="M362 -115v1428q0 18 -4 24t-20 11l-318 108v4l562 25v-1772l-562 25v4l318 108q16 4 20 10t4 25z" />
    <glyph glyph-name="asciicircum" unicode="^" horiz-adv-x="1105" 
d="M920 662l-37 -19l-332 725l-332 -725l-37 19l367 798h4z" />
    <glyph glyph-name="underscore" unicode="_" horiz-adv-x="1024" 
d="M1014 -186h-1004v39h1004v-39z" />
    <glyph glyph-name="grave" unicode="`" horiz-adv-x="694" 
d="M102 1440h328l162 -338l-2 -2l-488 336v4z" />
    <glyph glyph-name="a" unicode="a" 
d="M524 518q-78 0 -122 -59t-44 -147t34 -133q34 -46 96 -46t108 72v2l4 299q-37 12 -76 12zM975 133q39 0 57 37h4q0 -41 -16 -74q-55 -113 -201 -112q-92 0 -155 52t-68 146q-31 -90 -106 -144q-76 -54 -184 -54t-188 76t-79 216q0 138 103 222q104 84 242 84t216 -56
l4 219v11q0 236 -149 235q-31 0 -38 -4t-18 -20l-166 -308h-4l-129 293q217 78 424 78q206 0 308 -96t102 -318l-2 -73l-12 -291q-6 -119 55 -119z" />
    <glyph glyph-name="b" unicode="b" horiz-adv-x="1187" 
d="M590 866q-90 0 -154 -88v-661q45 -45 119 -45q231 0 231 434q1 360 -196 360zM756 1030q176 0 280 -140t104 -375t-126 -383q-127 -148 -332 -148q-170 0 -254 110l-324 -110h-4v1306q0 33 -18 51l-98 95v4l452 53v-688q102 225 320 225z" />
    <glyph glyph-name="c" unicode="c" horiz-adv-x="964" 
d="M506 -16q-186 0 -326 133q-139 133 -139 379q0 140 47 248t127 168q157 118 371 118q164 0 348 -61l-131 -353h-4l-158 351q-6 16 -12 20t-25 4h-10q-195 0 -195 -397q0 -218 79 -318t198 -100q164 0 252 168h4q-28 -170 -134 -265t-292 -95z" />
    <glyph glyph-name="d" unicode="d" horiz-adv-x="1222" 
d="M603 137q89 0 149 78v633q-48 63 -138 63t-151 -95t-61 -297t56 -292t145 -90zM1085 154q0 -33 19 -50l102 -100v-4h-454v193q-90 -209 -301 -209q-180 0 -292 137t-112 378t124 386t315 145t266 -164v424q0 33 -21 51l-98 95v4l452 53v-1339z" />
    <glyph glyph-name="e" unicode="e" 
d="M692 651q0 190 -36 265t-109 75q-154 0 -158 -401h301q2 27 2 61zM389 553v-4q0 -187 82 -281t211 -94q217 0 311 188h4q-78 -379 -452 -378q-211 0 -357 131q-145 131 -145 392t145 392t369 131q175 0 304 -92q67 -47 106 -134t39 -206q0 -20 -2 -45h-615z" />
    <glyph glyph-name="f" unicode="f" horiz-adv-x="702" 
d="M741 973h-249v-813q0 -20 5 -28t25 -23l152 -105v-4h-635v4l100 94q18 18 19 49v826h-109v41h109q0 236 100 341t278 105t341 -45l-129 -307h-5l-143 289q-8 18 -14 22t-21 4q-74 0 -73 -190v-219h249v-41z" />
    <glyph glyph-name="g" unicode="g" horiz-adv-x="1075" 
d="M385 695q0 -163 33 -233q32 -70 98 -69q66 0 98 69q32 70 33 232q0 162 -32 232q-31 70 -99 70t-100 -70q-32 -68 -31 -231zM229 -233q1 -91 95 -149t219 -58t214 51t89 145q0 62 -44 96t-153 37l-266 9q-47 4 -72 8q-82 -49 -82 -139zM70 690q0 168 120 254
q122 86 308 86t293 -57q23 -12 43 10l213 225l4 -2v-307h-193q104 -83 104 -233t-121 -229q-122 -79 -325 -79q-98 0 -166 17q-63 -25 -63 -76q0 -90 209 -90h190q367 0 367 -272q0 -185 -164 -303t-414 -117q-168 0 -294 54t-126 153q1 66 59 116t179 68q-106 23 -165 82
q-58 59 -58 145t69 152q70 66 189 94q-258 65 -258 309z" />
    <glyph glyph-name="h" unicode="h" horiz-adv-x="1234" 
d="M624 860q-88 0 -153 -92v-621q0 -31 21 -49l100 -94v-4h-574v4l101 94q18 18 18 49v1143q0 33 -18 51l-101 95v4l453 53v-702q84 240 326 239q155 0 237 -110t82 -322l-6 -451q0 -31 20 -49l101 -94v-4h-574v4l97 94q20 18 20 47l6 406q0 153 -34 231t-122 78z" />
    <glyph glyph-name="i" unicode="i" horiz-adv-x="634" 
d="M41 1014h455v-867q0 -33 18 -49l100 -94v-4h-573v4l100 94q18 16 19 49v709q0 31 -19 51l-100 103v4zM324 1438q70 0 116 -44t47 -114q-1 -70 -47 -112t-116 -42t-118 42t-48 112t48 114t118 44z" />
    <glyph glyph-name="j" unicode="j" horiz-adv-x="591" 
d="M313 1126q-70 0 -119 42t-49 112q-1 70 49 114t120 44t116 -44q47 -44 47 -114t-47 -112t-117 -42zM485 76q0 -258 -133 -398t-379 -143q-20 0 -30 2v4q207 41 207 420v895q0 31 -19 51l-100 103v4h454v-938z" />
    <glyph glyph-name="k" unicode="k" horiz-adv-x="1169" 
d="M1192 0h-434l-228 483q-10 25 -29 25t-30 -8v-353q0 -31 21 -49l100 -94v-4h-574v4l101 94q18 18 18 49v1143q0 33 -18 51l-101 95v4l453 53v-971l332 248q23 16 4 41l-139 199v4h501v-4l-374 -285q-21 -14 -11 -37l275 -541q18 -35 47 -63l86 -80v-4z" />
    <glyph glyph-name="l" unicode="l" horiz-adv-x="610" 
d="M471 147q0 -31 21 -49l100 -94v-4h-574v4l101 94q18 18 18 49v1143q0 33 -18 51l-101 95v4l453 53v-1346z" />
    <glyph glyph-name="m" unicode="m" horiz-adv-x="1896" 
d="M647 860q-90 0 -151 -90v-623q0 -33 18 -49l100 -94v-4h-573v4l100 94q18 16 19 49v709q0 31 -19 51l-100 103v4h455v-217q84 233 320 233t302 -242q37 106 127 174t215 68q154 0 236 -110t82 -322l-6 -451q0 -31 20 -49l100 -94v-4h-573v4l96 94q20 20 21 47l6 406
q0 153 -34 231t-126 78t-160 -88q18 -76 19 -174l-6 -451q0 -31 18 -49l102 -94v-4h-575v4l98 94q18 18 19 47l6 406q0 153 -33 231t-123 78z" />
    <glyph glyph-name="n" unicode="n" horiz-adv-x="1259" 
d="M647 860q-90 0 -151 -90v-623q0 -33 18 -49l100 -94v-4h-573v4l100 94q18 16 19 49v709q0 31 -19 51l-100 103v4h455v-217q84 233 325 233q154 0 237 -110t83 -322l-6 -451q0 -31 18 -49l102 -94v-4h-575v4l98 94q18 18 19 47l6 406q0 153 -33 231t-123 78z" />
    <glyph glyph-name="o" unicode="o" horiz-adv-x="1169" 
d="M583 -16q-249 0 -394 134q-144 134 -144 388t145 389q144 135 394 135t395 -134t145 -388t-146 -389t-395 -135zM584 991q-84 0 -125 -101t-41 -381t41 -384q41 -105 125 -105t125 102t41 383q0 280 -41 383t-125 103z" />
    <glyph glyph-name="p" unicode="p" horiz-adv-x="1220" 
d="M623 866q-90 0 -154 -96v-616q47 -52 134 -52t152 102t64 308q1 354 -196 354zM135 -319v1175q0 31 -18 51l-101 103v4h453v-217q100 233 317 233q172 0 280 -136t108 -373t-123 -387t-323 -150t-259 155v-446q0 -21 5 -29t26 -22l151 -105v-4h-635v4l101 94q18 19 18 50
z" />
    <glyph glyph-name="q" unicode="q" horiz-adv-x="1187" 
d="M627 928q-94 0 -160 -96t-66 -296q1 -200 55 -296t142 -95q88 0 154 84v656q-61 43 -125 43zM752 -307v512q-94 -221 -314 -221q-162 0 -276 141t-115 381q0 240 127 382t307 142t273 -125l331 125v-1349q0 -31 19 -50l94 -94v-4h-629v4l152 105q19 14 25 22t6 29z" />
    <glyph glyph-name="r" unicode="r" horiz-adv-x="876" 
d="M496 172q0 -31 30 -51l201 -117v-4h-686v4l100 94q18 16 19 49v709q0 31 -19 51l-100 103v4h455v-262q28 122 96 200t162 78t145 -67l-113 -322h-4l-161 193q-18 23 -37 10q-39 -29 -88 -119v-553z" />
    <glyph glyph-name="s" unicode="s" horiz-adv-x="933" 
d="M610 166q0 64 -42 98q-42 35 -154 86l-140 66q-199 94 -198 291q0 147 112 235t300 88t368 -55l-115 -297h-4l-159 285q-18 31 -48 30h-28q-72 0 -119 -37t-47 -103t44 -105t144 -84l131 -58q111 -47 169 -110t59 -172q0 -162 -125 -251t-328 -89t-383 63l113 318h4
l164 -318q12 -27 43 -27h47q88 0 140 41t52 105z" />
    <glyph glyph-name="t" unicode="t" horiz-adv-x="692" 
d="M709 1014v-41h-252v-684q1 -70 29 -108t79 -38q78 0 119 76l4 -2q-18 -98 -91 -166t-208 -67q-266 0 -266 280v709h-113v41h92q43 0 64 22l287 322h4v-344h252z" />
    <glyph glyph-name="u" unicode="u" horiz-adv-x="1218" 
d="M1079 1014v-858q0 -35 19 -52l102 -100v-4h-457v219q-39 -109 -121 -172t-192 -63q-152 0 -232 108t-79 318q0 117 4 448q0 31 -19 49l-100 103v4h453l-2 -271v-286q1 -150 31 -228q30 -77 112 -77t145 92v612q0 31 -18 51l-100 103v4h454z" />
    <glyph glyph-name="v" unicode="v" horiz-adv-x="964" 
d="M-18 1014h512v-4l-70 -117q-14 -25 -6 -51l205 -619l157 461q8 33 7 42t-13 36l-121 248v4h353v-4l-140 -240q-37 -61 -47 -92l-229 -678h-234l-268 778q-27 74 -43 109l-63 123v4z" />
    <glyph glyph-name="w" unicode="w" horiz-adv-x="1583" 
d="M-18 1014h510v-4l-70 -117q-14 -25 -6 -51l202 -621l142 410l-49 147q-23 68 -43 109l-64 123v4h510v-4l-70 -117q-14 -25 -6 -51l205 -619l156 461q10 31 9 41t-15 37l-119 248v4h350v-4l-139 -240q-33 -53 -45 -92l-234 -678h-229l-197 569l-196 -569h-232l-264 778
q-29 80 -43 109l-63 123v4z" />
    <glyph glyph-name="x" unicode="x" horiz-adv-x="1034" 
d="M1063 0h-559v4l78 94q16 20 -2 52l-158 233l-127 -158q-17 -23 -19 -31t13 -30l104 -160v-4h-411v4l217 182q47 39 86 88l114 142l-284 426q-27 39 -62 78l-76 90v4h558v-4l-78 -97q-18 -20 2 -49l149 -223l117 147q16 23 18 31t-12 29l-104 162v4h413v-4l-219 -183
q-39 -33 -86 -88l-104 -131l295 -440q14 -20 57 -72l80 -92v-4z" />
    <glyph glyph-name="y" unicode="y" horiz-adv-x="974" 
d="M134 -483q-70 0 -118 20l76 359h4l203 -201q15 -17 27 -17t40 41t66 125l12 33l-381 967q-10 27 -30 67l-56 99v4h531v-4l-82 -113q-14 -20 -4 -47l207 -574l166 404q10 27 11 38t-11 38l-125 254v4h350v-4l-133 -230q-26 -43 -51 -106l-263 -635q-80 -190 -176 -340
q-117 -182 -263 -182z" />
    <glyph glyph-name="z" unicode="z" horiz-adv-x="972" 
d="M27 0v4l546 971h-184q-27 0 -35 -4t-22 -27l-246 -358h-8v428h862v-4l-530 -971h194q27 0 35 4t23 27l251 374h7l-25 -444h-868z" />
    <glyph glyph-name="braceleft" unicode="{" horiz-adv-x="722" 
d="M571 1489q59 0 131 -14v-5q-142 4 -206 -86t-56 -200l27 -359q6 -86 -49 -145t-156 -80v-2q100 -20 156 -78t49 -145l-27 -359q-8 -110 57 -200t205 -88v-4q-72 -14 -131 -15q-155 0 -267 93t-99 268l28 372q4 58 -42 102t-119 54v2q74 10 120 53t41 103l-28 372
q-12 174 99 268q112 93 267 93z" />
    <glyph glyph-name="bar" unicode="|" horiz-adv-x="450" 
d="M246 -512h-41v2048h41v-2048z" />
    <glyph glyph-name="braceright" unicode="}" horiz-adv-x="722" 
d="M152 -291q-59 0 -132 15v4q141 -2 206 88t57 200l-29 359q-8 86 48 144t159 79v2q-103 20 -159 80t-48 145l29 359q8 110 -57 200t-206 86v5q72 14 132 14q156 1 266 -93t98 -268l-27 -372q-2 -58 43 -102t119 -54v-2q-74 -10 -120 -53t-42 -103l27 -372
q12 -174 -98 -268q-111 -93 -266 -93z" />
    <glyph glyph-name="asciitilde" unicode="~" horiz-adv-x="1030" 
d="M748 565q-94 0 -238 68t-227 67q-125 0 -199 -118l-33 20q82 137 232 137q94 1 238 -67t227 -68q123 0 196 121l35 -23q-81 -137 -231 -137z" />
    <glyph glyph-name="uni00A0" unicode="&#xa0;" horiz-adv-x="403" 
 />
    <glyph glyph-name="exclamdown" unicode="&#xa1;" horiz-adv-x="634" 
d="M481 870q0 -70 -48 -114t-117 -45q-68 -1 -116 45t-48 115t48 113t116 44t117 -44q48 -44 48 -114zM76 -428l237 991h4l242 -991h-483z" />
    <glyph glyph-name="cent" unicode="&#xa2;" horiz-adv-x="993" 
d="M360 592q0 -301 197 -389v786q-85 -15 -141 -119t-56 -278zM596 -215h-39v201q-18 -2 -39 -2q-203 0 -339 132t-136 389t148 388t366 137v209h39v-209q172 -4 346 -57v-4l-137 -355h-4l-162 355q-8 20 -43 22v-803q39 -12 82 -12q174 0 256 168h4q-23 -146 -111 -240
t-231 -114v-205z" />
    <glyph glyph-name="sterling" unicode="&#xa3;" horiz-adv-x="1222" 
d="M475 1120q0 -96 45 -258t53 -217h336v-39h-334q2 -10 3 -28q0 -133 -60 -198t-162 -95v-4h527q61 0 81 7t50 40l127 137h4l-60 -465h-1024v4l197 238q94 111 94 225q0 49 -41 139h-207v39h187q-127 222 -151 326q-9 43 -9 88q0 189 127 295t369 106t446 -45l-37 -446h-4
l-262 417q-16 27 -45 29l-41 2q-209 0 -209 -297z" />
    <glyph glyph-name="currency" unicode="&#xa4;" horiz-adv-x="1359" 
d="M679 285q189 -1 317 119t128 316t-129 318t-317 121q-188 0 -316 -121q-128 -122 -126 -318q0 -196 126 -316q128 -119 317 -119zM678 246q-197 0 -330 114l-229 -229l-29 29l229 227q-127 131 -127 332t127 334l-229 231l27 29l231 -232q135 117 330 117t332 -119
l231 232l27 -27l-232 -231q129 -133 129 -331t-127 -331l230 -231l-27 -29l-231 231q-135 -116 -332 -116z" />
    <glyph glyph-name="yen" unicode="&#xa5;" horiz-adv-x="1335" 
d="M856 328v-131q0 -33 23 -54l149 -139v-4h-715v4l152 139q20 20 20 54v131h-286v39h286v163h-286v39h270l-334 641q-27 51 -55 88l-103 138v4h689v-4l-123 -142q-20 -25 -8 -49l299 -602l235 481q10 25 9 34t-15 30l-176 248v4h512v-4l-232 -248q-39 -43 -55 -76
l-240 -487q-16 -31 -16 -56h295v-39h-295v-163h295v-39h-295z" />
    <glyph glyph-name="brokenbar" unicode="&#xa6;" horiz-adv-x="450" 
d="M246 659h-41v877h41v-877zM246 -512h-41v897h41v-897z" />
    <glyph glyph-name="section" unicode="&#xa7;" horiz-adv-x="1107" 
d="M317 643q0 -49 44 -99q45 -50 105 -91t145 -95t98 -65q37 18 65 56t29 89q-1 98 -175 206t-216 142q-37 -16 -66 -55t-29 -88zM1024 576q0 -115 -92 -194t-205 -99q219 -150 219 -342q0 -147 -115 -235t-301 -87q-186 0 -331 39l106 387h4l172 -354q18 -37 62 -37h20
q76 0 126 44t50 110t-59 123q-59 58 -188 137l-86 51q-178 104 -244 186t-66 199q0 116 93 194t206 99q-221 150 -221 342q0 149 115 235t302 86t329 -39l-107 -385h-4l-170 353q-18 37 -61 36h-21q-76 0 -126 -43q-50 -42 -50 -108t58 -123t190 -137l84 -51
q179 -109 245 -191t66 -196z" />
    <glyph glyph-name="dieresis" unicode="&#xa8;" horiz-adv-x="892" 
d="M510 1273q0 58 41 97t99 39t100 -39t41 -97q0 -58 -41 -97q-42 -39 -100 -39t-99 39t-41 97zM102 1273q0 58 41 97t99 39t100 -39q41 -39 41 -97t-41 -97t-99 -39t-100 39q-41 39 -41 97z" />
    <glyph glyph-name="copyright" unicode="&#xa9;" horiz-adv-x="1665" 
d="M883 1112q-84 0 -129 -106t-45 -289q0 -185 45 -287t129 -102h10q29 0 43 20l184 262h2v-295q-113 -23 -258 -22q-207 0 -312 114q-106 113 -106 311t110 314t284 115q174 0 282 -25v-284h-2l-184 256q-16 18 -39 18h-14zM127 719q0 -313 203 -507q204 -194 502 -194
t502 194t204 507t-204 508t-503 195t-501 -196q-202 -194 -203 -507zM86 719q0 333 215 537t530 204t531 -206t217 -536q0 -330 -215 -535q-214 -203 -532 -203t-532 204t-214 535z" />
    <glyph glyph-name="ordfeminine" unicode="&#xaa;" horiz-adv-x="823" 
d="M291 972q0 -116 88 -116q41 0 74 43l4 197q-23 8 -65 8t-72 -37t-29 -95zM310 1155q95 0 147 -35l4 148q4 154 -115 153q-25 0 -35 -16l-104 -199h-4l-86 201q141 53 285 53t214 -66t64 -245l-8 -219q-4 -80 41 -80q20 0 35 27h4q4 -27 -11 -54q-41 -74 -135 -73
q-61 0 -104 34t-49 93q-23 -57 -74 -93t-123 -34q-72 0 -126 51t-54 146t69 152q70 56 165 56z" />
    <glyph glyph-name="guillemotleft" unicode="&#xab;" horiz-adv-x="954" 
d="M438 516l457 471l4 -2l-188 -471l188 -469l-4 -2l-457 469v4zM55 516l457 471l4 -2l-188 -471l188 -469l-4 -2l-457 469v4z" />
    <glyph glyph-name="logicalnot" unicode="&#xac;" horiz-adv-x="1105" 
d="M1020 223h-41v422h-903v39h944v-461z" />
    <glyph glyph-name="uni00AD" unicode="&#xad;" horiz-adv-x="718" 
d="M94 485v41h533v-41h-533z" />
    <glyph glyph-name="registered" unicode="&#xae;" horiz-adv-x="1665" 
d="M770 1063v-326h61q117 0 117 175t-108 175h-43q-19 0 -23 -5t-4 -19zM553 442v578q0 20 -10 31l-74 67v4h451q112 0 186 -48t74 -143t-66 -149t-182 -63v-4l147 -41l107 -240q10 -23 33 -41l55 -49v-4h-289l-133 350q-8 14 -25 15h-57v-263q0 -20 10 -30l74 -68v-4h-385
v4l74 68q10 8 10 30zM127 719q0 -313 203 -507q204 -194 502 -194t502 194t204 507t-204 508t-503 195t-501 -196q-202 -194 -203 -507zM86 719q0 333 215 537t530 204t531 -206t217 -536q0 -330 -215 -535q-214 -203 -532 -203t-532 204t-214 535z" />
    <glyph glyph-name="macron" unicode="&#xaf;" horiz-adv-x="780" 
d="M678 1212h-576v41h576v-41z" />
    <glyph glyph-name="degree" unicode="&#xb0;" horiz-adv-x="663" 
d="M115 1207q1 -89 65 -147t152 -58t152 58t65 148q0 90 -65 150q-64 60 -152 59q-88 0 -153 -60q-64 -61 -64 -150zM72 1207q0 109 76 179t184 70t184 -70t76 -180t-76 -176q-76 -68 -184 -68t-185 68q-75 67 -75 177z" />
    <glyph glyph-name="plusminus" unicode="&#xb1;" horiz-adv-x="1105" 
d="M102 215v39h904v-39h-904zM102 748v38h430v328h41v-328h433v-38h-433v-330h-41v330h-430z" />
    <glyph glyph-name="twosuperior" unicode="&#xb2;" horiz-adv-x="638" 
d="M308 1460q272 0 272 -177q0 -87 -86 -148t-281 -129v-5h229q47 0 70 19l68 57h4l-37 -219h-512v4q121 112 151 146q129 146 154 189q37 61 37 108q0 125 -86 125q-35 0 -43 -17l-96 -201h-5l-98 197q119 51 259 51z" />
    <glyph glyph-name="threesuperior" unicode="&#xb3;" horiz-adv-x="638" 
d="M596 1018q0 -68 -81 -119t-225 -51t-253 39l115 205h4l73 -195q6 -16 27 -16h29q47 0 79 37t31 104q0 125 -153 137v4q61 10 97 51t36 105q0 111 -80 111h-16q-23 0 -31 -17l-94 -190h-4l-99 186q125 51 268 51q256 0 256 -147q0 -109 -178 -139v-5q91 -4 145 -43
q54 -40 54 -108z" />
    <glyph glyph-name="acute" unicode="&#xb4;" horiz-adv-x="694" 
d="M592 1440v-4l-486 -338l-4 4l162 338h328z" />
    <glyph glyph-name="mu" unicode="&#xb5;" horiz-adv-x="1232" 
d="M1094 1014v-862q0 -31 18 -50l102 -98v-4h-456v219q-27 -78 -79 -132q-51 -55 -103 -69t-109 -18v-303q0 -19 5 -29t26 -24l151 -107v-4h-635v4l105 94q18 18 18 50v1181q0 31 -18 49l-101 99v4h449v-604q0 -139 32 -205q31 -66 115 -66t144 107v614q0 31 -19 49
l-100 101v4h455z" />
    <glyph glyph-name="paragraph" unicode="&#xb6;" horiz-adv-x="1245" 
d="M756 37h131v1364h-131v-1364zM762 0q-260 0 -438 161q-90 81 -142 223t-51 330q0 187 52 330q95 260 341 354q111 42 238 42h328v-39h-162v-1364h162v-37h-162v-512h-41v512h-125z" />
    <glyph glyph-name="periodcentered" unicode="&#xb7;" horiz-adv-x="495" 
d="M248 709q-68 -1 -116 43t-48 114t47 115t117 45t117 -45t47 -115t-48 -114t-116 -43z" />
    <glyph glyph-name="cedilla" unicode="&#xb8;" horiz-adv-x="739" 
d="M610 -290q0 -85 -64 -139t-171 -54q-106 0 -182 53t-82 141l4 2q18 -59 69 -89q50 -30 104 -30t92 30t38 85t-38 85t-87 30t-86 -14l-2 4l151 180h4l-16 -117q110 20 188 -31t78 -136z" />
    <glyph glyph-name="onesuperior" unicode="&#xb9;" horiz-adv-x="544" 
d="M532 858h-483v4l129 62q12 6 12 20v375q0 14 -12 16l-139 41v4l352 90v-526q0 -14 12 -20l129 -62v-4z" />
    <glyph glyph-name="ordmasculine" unicode="&#xba;" horiz-adv-x="866" 
d="M433 750q-169 0 -267 91t-98 264t98 264t267 91t268 -91t99 -264t-98 -264q-100 -91 -269 -91zM547 1104q0 184 -29 252t-85 67t-85 -67t-29 -249t29 -252t86 -69t85 67t28 251z" />
    <glyph glyph-name="guillemotright" unicode="&#xbb;" horiz-adv-x="954" 
d="M899 512l-457 -469l-4 2l189 469l-189 471l4 2l457 -471v-4zM516 512l-457 -469l-4 2l189 469l-189 471l4 2l457 -471v-4z" />
    <glyph glyph-name="onequarter" unicode="&#xbc;" horiz-adv-x="1064" 
d="M645 944q0 -14 12 -20l129 -62v-4h-483v4l129 62q12 6 12 20v375q0 12 -12 16l-139 41v4l352 90v-526zM496 176v303l-226 -303h226zM680 145v-65q0 -12 12 -23l80 -53v-4h-371v4l84 53q10 6 11 23v65h-289v5l330 442h143v-416h33q20 0 30 17l99 165h4l-15 -213h-151z
M942 700h-819v39h819v-39z" />
    <glyph glyph-name="onehalf" unicode="&#xbd;" horiz-adv-x="1064" 
d="M522 602q272 0 273 -177q0 -87 -86 -149t-281 -129v-4h229q47 0 70 19l68 57h4l-37 -219h-512v4q120 112 150 146q129 146 155 189q37 61 37 107q0 125 -86 125q-35 0 -43 -16l-96 -201h-5l-98 197q118 51 258 51zM645 944q0 -14 12 -20l129 -62v-4h-483v4l129 62
q12 6 12 20v375q0 12 -12 16l-139 41v4l352 90v-526zM942 739v-39h-819v39h819z" />
    <glyph glyph-name="threequarters" unicode="&#xbe;" horiz-adv-x="1064" 
d="M942 700h-819v39h819v-39zM496 176v303l-226 -303h226zM811 1018q0 -68 -81 -119q-82 -51 -226 -51t-252 39l115 205h4l73 -195q6 -16 27 -16h29q45 0 78 37t32 104q0 125 -153 137v4q61 10 97 51t36 105q0 111 -80 111h-16q-23 0 -31 -17l-94 -190h-4l-99 186
q125 51 269 51q256 0 256 -147q0 -109 -179 -139v-5q90 -4 144 -43q54 -40 55 -108zM680 145v-65q0 -12 12 -23l80 -53v-4h-371v4l84 53q10 6 11 23v65h-289v5l330 442h143v-416h33q20 0 30 17l99 165h4l-15 -213h-151z" />
    <glyph glyph-name="questiondown" unicode="&#xbf;" horiz-adv-x="878" 
d="M670 870q0 -70 -47 -114t-116 -45q-69 0 -117 45q-48 44 -48 114t48 114t117 44t116 -44t47 -114zM659 334q0 -97 -141 -233q-69 -67 -86 -87q-90 -100 -90 -202t52 -160q52 -59 126 -60h27q43 0 57 33l176 414h4l160 -371q-252 -117 -481 -117q-229 -1 -349 89t-120 242
t162 284q30 24 120 90t128 96t56 71q17 40 15 114l4 2q180 -59 180 -205z" />
    <glyph glyph-name="Agrave" unicode="&#xc0;" horiz-adv-x="1343" 
d="M293 1866h328l161 -338l-2 -2l-487 336v4zM528 1206l-215 -663h422zM446 0h-485v4l197 262q33 43 47 86l284 873q10 29 9 40q-2 11 -21 31l-121 140v4h482l383 -1215q10 -35 41 -84l86 -137v-4h-607v4l99 137q14 20 4 56l-96 305h-447l-53 -164q-8 -25 -5 -35t21 -37
l182 -262v-4z" />
    <glyph glyph-name="Aacute" unicode="&#xc1;" horiz-adv-x="1343" 
d="M995 1866v-4l-485 -338l-4 4l162 338h327zM528 1206l-215 -663h422zM446 0h-485v4l197 262q33 43 47 86l284 873q10 29 9 40q-2 11 -21 31l-121 140v4h482l383 -1215q10 -35 41 -84l86 -137v-4h-607v4l99 137q14 20 4 56l-96 305h-447l-53 -164q-8 -25 -5 -35t21 -37
l182 -262v-4z" />
    <glyph glyph-name="Acircumflex" unicode="&#xc2;" horiz-adv-x="1343" 
d="M977 1524l-2 -2l-334 137l-334 -137l-2 2l334 358h4zM528 1206l-215 -663h422zM446 0h-485v4l197 262q33 43 47 86l284 873q10 29 9 40q-2 11 -21 31l-121 140v4h482l383 -1215q10 -35 41 -84l86 -137v-4h-607v4l99 137q14 20 4 56l-96 305h-447l-53 -164q-8 -25 -5 -35
t21 -37l182 -262v-4z" />
    <glyph glyph-name="Atilde" unicode="&#xc3;" horiz-adv-x="1343" 
d="M946 1835q0 -138 -50 -198t-114 -60t-159 50q-94 50 -140 50q-98 0 -131 -100h-4v49q0 94 48 152t114 57q66 0 160 -50t139 -50q98 0 133 100h4zM528 1206l-215 -663h422zM446 0h-485v4l197 262q33 43 47 86l284 873q10 29 9 40q-2 11 -21 31l-121 140v4h482l383 -1215
q10 -35 41 -84l86 -137v-4h-607v4l99 137q14 20 4 56l-96 305h-447l-53 -164q-8 -25 -5 -35t21 -37l182 -262v-4z" />
    <glyph glyph-name="Adieresis" unicode="&#xc4;" horiz-adv-x="1343" 
d="M705 1699q0 58 40 97q41 39 99 39t100 -39q41 -39 41 -97t-41 -97t-99 -39t-100 39q-40 39 -40 97zM297 1699q0 58 41 97t99 39q57 0 99 -39t42 -97t-41 -97t-99 -39t-100 39q-41 39 -41 97zM528 1206l-215 -663h422zM446 0h-485v4l197 262q33 43 47 86l284 873
q10 29 9 40q-2 11 -21 31l-121 140v4h482l383 -1215q10 -35 41 -84l86 -137v-4h-607v4l99 137q14 20 4 56l-96 305h-447l-53 -164q-8 -25 -5 -35t21 -37l182 -262v-4z" />
    <glyph glyph-name="Aring" unicode="&#xc5;" horiz-adv-x="1343" 
d="M795 1720q0 66 -43 108q-42 42 -108 42t-109 -42t-43 -106t45 -107q45 -44 109 -44q64 -1 106 41q43 42 43 108zM838 1720q0 -84 -56 -137t-135 -53q-80 0 -139 55t-59 135t55 135t139 55q83 0 139 -52q56 -54 56 -138zM528 1206l-215 -663h422zM446 0h-485v4l197 262
q33 43 47 86l284 873q10 29 9 40q-2 11 -21 31l-121 140v4h482l383 -1215q10 -35 41 -84l86 -137v-4h-607v4l99 137q14 20 4 56l-96 305h-447l-53 -164q-8 -25 -5 -35t21 -37l182 -262v-4z" />
    <glyph glyph-name="AE" unicode="&#xc6;" horiz-adv-x="1939" 
d="M881 541v729l-449 -729h449zM1843 504v-504h-1118v4l135 129q20 18 21 49v320h-473l-97 -158q-20 -33 -20 -47t16 -45l139 -248v-4h-503v4l235 244q66 68 82 94l545 887q14 25 13 33t-15 24l-141 150v4h1161v-496h-4l-267 422q-20 33 -57 33h-211q-23 0 -28 -7t-5 -34
v-617h138q31 2 53 29l186 213h4v-522h-4l-186 213q-25 27 -53 26h-138v-618q0 -27 5 -34t28 -7h238q39 0 59 29l254 434h8z" />
    <glyph glyph-name="Ccedilla" unicode="&#xc7;" horiz-adv-x="1296" 
d="M997 -290q-1 -85 -65 -139t-170 -54t-182 53t-82 141l4 2q18 -59 69 -89t105 -30t91 30q38 30 38 85t-38 85t-87 30t-86 -14l-2 4l139 168q-340 8 -508 202t-168 536q1 341 183 541t518 199q229 0 444 -39v-503h-4l-311 471q-20 33 -68 32h-29q-311 0 -311 -701t316 -702
h22q47 0 68 29l313 483h4v-514q-201 -37 -436 -36l-19 2l-14 -105q111 20 189 -31t77 -136z" />
    <glyph glyph-name="Egrave" unicode="&#xc8;" horiz-adv-x="1243" 
d="M295 1866h328l161 -338l-2 -2l-487 336v4zM1128 1440v-496h-4l-264 422q-20 33 -57 33h-211q-23 0 -29 -7t-6 -34v-617h139q31 2 54 29l184 213h4v-522h-4l-184 213q-25 27 -56 26h-137v-618q0 -27 6 -34t29 -7h235q45 0 62 29l254 434h4v-504h-1116v4l137 129
q18 18 18 49v1075q0 31 -18 50l-137 129v4h1097z" />
    <glyph glyph-name="Eacute" unicode="&#xc9;" horiz-adv-x="1243" 
d="M1128 1440v-496h-4l-264 422q-20 33 -57 33h-211q-23 0 -29 -7t-6 -34v-617h139q31 2 54 29l184 213h4v-522h-4l-184 213q-25 27 -56 26h-137v-618q0 -27 6 -34t29 -7h235q45 0 62 29l254 434h4v-504h-1116v4l137 129q18 18 18 49v1075q0 31 -18 50l-137 129v4h1097z
M999 1866v-4l-485 -338l-4 4l162 338h327z" />
    <glyph glyph-name="Ecircumflex" unicode="&#xca;" horiz-adv-x="1243" 
d="M1128 1440v-496h-4l-264 422q-20 33 -57 33h-211q-23 0 -29 -7t-6 -34v-617h139q31 2 54 29l184 213h4v-522h-4l-184 213q-25 27 -56 26h-137v-618q0 -27 6 -34t29 -7h235q45 0 62 29l254 434h4v-504h-1116v4l137 129q18 18 18 49v1075q0 31 -18 50l-137 129v4h1097z
M979 1524l-2 -2l-334 137l-334 -137l-2 2l334 358h4z" />
    <glyph glyph-name="Edieresis" unicode="&#xcb;" horiz-adv-x="1243" 
d="M1128 1440v-496h-4l-264 422q-20 33 -57 33h-211q-23 0 -29 -7t-6 -34v-617h139q31 2 54 29l184 213h4v-522h-4l-184 213q-25 27 -56 26h-137v-618q0 -27 6 -34t29 -7h235q45 0 62 29l254 434h4v-504h-1116v4l137 129q18 18 18 49v1075q0 31 -18 50l-137 129v4h1097z
M707 1699q0 58 41 97t99 39t99 -39t41 -97t-41 -97t-99 -39t-99 39t-41 97zM299 1699q0 58 41 97t99 39q57 0 99 -39t42 -97t-41 -97t-99 -39t-100 39q-41 39 -41 97z" />
    <glyph glyph-name="Igrave" unicode="&#xcc;" horiz-adv-x="745" 
d="M25 1866h327l162 -338l-2 -2l-487 336v4zM557 182q0 -31 21 -49l135 -129v-4h-682v4l137 129q18 18 18 49v1075q0 31 -18 50l-137 129v4h682v-4l-135 -129q-20 -18 -21 -50v-1075z" />
    <glyph glyph-name="Iacute" unicode="&#xcd;" horiz-adv-x="745" 
d="M725 1866v-4l-485 -338l-4 4l161 338h328zM557 182q0 -31 21 -49l135 -129v-4h-682v4l137 129q18 18 18 49v1075q0 31 -18 50l-137 129v4h682v-4l-135 -129q-20 -18 -21 -50v-1075z" />
    <glyph glyph-name="Icircumflex" unicode="&#xce;" horiz-adv-x="745" 
d="M709 1524l-2 -2l-334 137l-334 -137l-2 2l334 358h4zM557 182q0 -31 21 -49l135 -129v-4h-682v4l137 129q18 18 18 49v1075q0 31 -18 50l-137 129v4h682v-4l-135 -129q-20 -18 -21 -50v-1075z" />
    <glyph glyph-name="Idieresis" unicode="&#xcf;" horiz-adv-x="745" 
d="M436 1699q0 58 41 97t99 39t100 -39t41 -97q0 -58 -41 -97q-42 -39 -100 -39t-99 39t-41 97zM29 1699q0 58 41 97t99 39t99 -39t41 -97t-41 -97t-99 -39t-99 39t-41 97zM557 182q0 -31 21 -49l135 -129v-4h-682v4l137 129q18 18 18 49v1075q0 31 -18 50l-137 129v4h682
v-4l-135 -129q-20 -18 -21 -50v-1075z" />
    <glyph glyph-name="Eth" unicode="&#xd0;" horiz-adv-x="1505" 
d="M688 1399h-65q-23 0 -29 -7t-6 -32v-606h217v-37h-217v-635q0 -29 7 -35t36 -6h43q190 0 274 169t84 511t-80 510t-264 168zM33 717v37h184v501q0 35 -20 54l-138 127v4h684q351 0 531 -182t180 -518t-197 -538t-550 -202h-648v4l138 127q20 18 20 55v531h-184z" />
    <glyph glyph-name="Ntilde" unicode="&#xd1;" horiz-adv-x="1447" 
d="M1032 1835q0 -138 -50 -198t-114 -60t-159 50q-94 50 -140 50q-98 0 -131 -100h-4v49q0 94 48 152t114 57q66 0 160 -50t139 -50q98 0 133 100h4zM1243 0h-250l-706 1094v-750q0 -31 24 -63l211 -277v-4h-510v4l205 275q27 35 27 65v774q0 41 -19 66l-205 252v4h484
l696 -1082v738q0 35 -24 65l-209 275v4h510v-4l-207 -275q-27 -37 -27 -65v-1096z" />
    <glyph glyph-name="Ograve" unicode="&#xd2;" horiz-adv-x="1499" 
d="M401 1866h328l162 -338l-2 -2l-488 336v4zM750 1460q330 0 512 -189t182 -551t-182 -550q-182 -190 -512 -190t-512 189t-182 551t182 550q182 190 512 190zM750 18q136 0 204 166t68 537t-69 535t-203 165q-134 0 -204 -165q-69 -166 -69 -536t69 -536t204 -166z" />
    <glyph glyph-name="Oacute" unicode="&#xd3;" horiz-adv-x="1499" 
d="M750 1460q330 0 512 -189t182 -551t-182 -550q-182 -190 -512 -190t-512 189t-182 551t182 550q182 190 512 190zM750 18q136 0 204 166t68 537t-69 535t-203 165q-134 0 -204 -165q-69 -166 -69 -536t69 -536t204 -166zM1104 1866v-4l-486 -338l-4 4l162 338h328z" />
    <glyph glyph-name="Ocircumflex" unicode="&#xd4;" horiz-adv-x="1499" 
d="M750 1460q330 0 512 -189t182 -551t-182 -550q-182 -190 -512 -190t-512 189t-182 551t182 550q182 190 512 190zM750 18q136 0 204 166t68 537t-69 535t-203 165q-134 0 -204 -165q-69 -166 -69 -536t69 -536t204 -166zM1085 1524l-2 -2l-333 137l-334 -137l-2 2
l334 358h4z" />
    <glyph glyph-name="Otilde" unicode="&#xd5;" horiz-adv-x="1499" 
d="M1053 1835q0 -138 -50 -198q-51 -60 -115 -60t-158 50t-140 50q-98 0 -131 -100h-4v49q0 94 48 152q47 58 113 57q66 0 160 -50t139 -50q98 0 134 100h4zM750 1460q330 0 512 -189t182 -551t-182 -550q-182 -190 -512 -190t-512 189t-182 551t182 550q182 190 512 190z
M750 18q136 0 204 166t68 537t-69 535t-203 165q-134 0 -204 -165q-69 -166 -69 -536t69 -536t204 -166z" />
    <glyph glyph-name="Odieresis" unicode="&#xd6;" horiz-adv-x="1499" 
d="M750 1460q330 0 512 -189t182 -551t-182 -550q-182 -190 -512 -190t-512 189t-182 551t182 550q182 190 512 190zM750 18q136 0 204 166t68 537t-69 535t-203 165q-134 0 -204 -165q-69 -166 -69 -536t69 -536t204 -166zM811 1699q0 58 41 97t99 39q57 0 99 -39t42 -97
t-41 -97t-99 -39t-100 39q-41 39 -41 97zM403 1699q0 58 41 97q42 39 100 39t99 -39t41 -97t-41 -97t-99 -39t-100 39q-41 39 -41 97z" />
    <glyph glyph-name="multiply" unicode="&#xd7;" horiz-adv-x="1105" 
d="M250 330l-29 28l303 304l-303 305l29 28l303 -305l303 305l29 -28l-303 -305l303 -304l-29 -28l-303 303z" />
    <glyph glyph-name="Oslash" unicode="&#xd8;" horiz-adv-x="1499" 
d="M748 18q274 0 274 657q0 325 -41 492l-434 -985q64 -164 201 -164zM477 747q0 -345 51 -511l437 987q-63 199 -215 198q-273 0 -273 -674zM750 1460q162 0 297 -51l83 188l35 -14l-84 -188q362 -160 363 -676q0 -359 -182 -549t-512 -190q-152 0 -275 40l-82 -186l-37 14
l82 185q-184 74 -283 248t-100 438q1 361 183 551t512 190z" />
    <glyph glyph-name="Ugrave" unicode="&#xd9;" horiz-adv-x="1378" 
d="M422 1866h328l161 -338l-2 -2l-487 336v4zM1196 524q0 -266 -112 -405t-388 -139q-274 0 -406 118t-132 391v766q0 31 -21 50l-123 131v4h662v-4l-127 -131q-20 -18 -21 -50v-743q0 -242 79 -348t231 -106t233 116q82 117 82 346v576q0 37 -27 67l-200 273v4h497v-4
l-200 -273q-27 -31 -27 -67v-572z" />
    <glyph glyph-name="Uacute" unicode="&#xda;" horiz-adv-x="1378" 
d="M1196 524q0 -266 -112 -405t-388 -139q-274 0 -406 118t-132 391v766q0 31 -21 50l-123 131v4h662v-4l-127 -131q-20 -18 -21 -50v-743q0 -242 79 -348t231 -106t233 116q82 117 82 346v576q0 37 -27 67l-200 273v4h497v-4l-200 -273q-27 -31 -27 -67v-572zM1124 1866v-4
l-485 -338l-4 4l162 338h327z" />
    <glyph glyph-name="Ucircumflex" unicode="&#xdb;" horiz-adv-x="1378" 
d="M1196 524q0 -266 -112 -405t-388 -139q-274 0 -406 118t-132 391v766q0 31 -21 50l-123 131v4h662v-4l-127 -131q-20 -18 -21 -50v-743q0 -242 79 -348t231 -106t233 116q82 117 82 346v576q0 37 -27 67l-200 273v4h497v-4l-200 -273q-27 -31 -27 -67v-572zM1106 1524
l-2 -2l-334 137l-334 -137l-2 2l334 358h4z" />
    <glyph glyph-name="Udieresis" unicode="&#xdc;" horiz-adv-x="1378" 
d="M1196 524q0 -266 -112 -405t-388 -139q-274 0 -406 118t-132 391v766q0 31 -21 50l-123 131v4h662v-4l-127 -131q-20 -18 -21 -50v-743q0 -242 79 -348t231 -106t233 116q82 117 82 346v576q0 37 -27 67l-200 273v4h497v-4l-200 -273q-27 -31 -27 -67v-572zM834 1699
q0 58 40 97q42 39 100 39t99 -39t41 -97t-41 -97t-99 -39t-100 39q-40 39 -40 97zM426 1699q0 58 41 97t99 39t100 -39t41 -97q0 -58 -41 -97q-42 -39 -100 -39t-99 39t-41 97z" />
    <glyph glyph-name="Yacute" unicode="&#xdd;" horiz-adv-x="1310" 
d="M1083 1866v-4l-485 -338l-4 4l162 338h327zM850 547v-350q0 -33 22 -54l150 -139v-4h-715v4l152 139q20 20 20 54v315q0 31 -12 51l-338 647q-27 51 -55 88l-103 138v4h688v-4l-122 -142q-20 -25 -9 -49l299 -602l236 481q10 25 9 34t-15 30l-176 248v4h512v-4l-232 -248
q-33 -33 -55 -76l-240 -487q-16 -33 -16 -78z" />
    <glyph glyph-name="Thorn" unicode="&#xde;" horiz-adv-x="1335" 
d="M557 352h102q121 0 193 110t72 295t-70 295t-195 109h-102v-809zM1305 766q0 -225 -166 -340t-447 -115h-135v-116q0 -31 21 -50l176 -141v-4h-723v4l137 129q18 18 18 49v1075q0 31 -18 50l-137 129v4h526v-238h186q229 0 386 -93q81 -48 129 -136t47 -207z" />
    <glyph glyph-name="germandbls" unicode="&#xdf;" horiz-adv-x="1337" 
d="M35 973v41h123q12 244 142 345t376 101q182 0 305 -66t123 -178q0 -110 -154 -200q-66 -35 -104 -70q-55 -43 -55 -98q0 -76 149 -152l172 -90q104 -55 156 -121t51 -163q0 -158 -118 -248t-306 -90t-356 67l120 301h5l147 -307q10 -25 61 -25h27q70 0 112 46t42 110
q0 90 -129 164l-176 100q-168 96 -168 226q0 66 32 112t109 111l74 61q106 88 106 250q0 104 -57 164t-150 59q-203 0 -202 -315v-1108h-453v4l100 94q18 18 19 49v826h-123z" />
    <glyph glyph-name="agrave" unicode="&#xe0;" 
d="M166 1440h328l161 -338l-2 -2l-487 336v4zM524 518q-78 0 -122 -59t-44 -147t34 -133q34 -46 96 -46t108 72v2l4 299q-37 12 -76 12zM975 133q39 0 57 37h4q0 -41 -16 -74q-55 -113 -201 -112q-92 0 -155 52t-68 146q-31 -90 -106 -144q-76 -54 -184 -54t-188 76t-79 216
q0 138 103 222q104 84 242 84t216 -56l4 219v11q0 236 -149 235q-31 0 -38 -4t-18 -20l-166 -308h-4l-129 293q217 78 424 78q206 0 308 -96t102 -318l-2 -73l-12 -291q-6 -119 55 -119z" />
    <glyph glyph-name="aacute" unicode="&#xe1;" 
d="M868 1440v-4l-485 -338l-4 4l162 338h327zM524 518q-78 0 -122 -59t-44 -147t34 -133q34 -46 96 -46t108 72v2l4 299q-37 12 -76 12zM975 133q39 0 57 37h4q0 -41 -16 -74q-55 -113 -201 -112q-92 0 -155 52t-68 146q-31 -90 -106 -144q-76 -54 -184 -54t-188 76t-79 216
q0 138 103 222q104 84 242 84t216 -56l4 219v11q0 236 -149 235q-31 0 -38 -4t-18 -20l-166 -308h-4l-129 293q217 78 424 78q206 0 308 -96t102 -318l-2 -73l-12 -291q-6 -119 55 -119z" />
    <glyph glyph-name="acircumflex" unicode="&#xe2;" 
d="M850 1098l-2 -2l-334 137l-334 -137l-2 2l334 358h4zM524 518q-78 0 -122 -59t-44 -147t34 -133q34 -46 96 -46t108 72v2l4 299q-37 12 -76 12zM975 133q39 0 57 37h4q0 -41 -16 -74q-55 -113 -201 -112q-92 0 -155 52t-68 146q-31 -90 -106 -144q-76 -54 -184 -54
t-188 76t-79 216q0 138 103 222q104 84 242 84t216 -56l4 219v11q0 236 -149 235q-31 0 -38 -4t-18 -20l-166 -308h-4l-129 293q217 78 424 78q206 0 308 -96t102 -318l-2 -73l-12 -291q-6 -119 55 -119z" />
    <glyph glyph-name="atilde" unicode="&#xe3;" 
d="M819 1409q0 -138 -50 -198q-51 -60 -115 -60t-158 50t-140 50q-98 0 -131 -100h-4v49q0 94 48 152q47 58 113 57q66 0 160 -50t140 -50q98 0 133 100h4zM524 518q-78 0 -122 -59t-44 -147t34 -133q34 -46 96 -46t108 72v2l4 299q-37 12 -76 12zM975 133q39 0 57 37h4
q0 -41 -16 -74q-55 -113 -201 -112q-92 0 -155 52t-68 146q-31 -90 -106 -144q-76 -54 -184 -54t-188 76t-79 216q0 138 103 222q104 84 242 84t216 -56l4 219v11q0 236 -149 235q-31 0 -38 -4t-18 -20l-166 -308h-4l-129 293q217 78 424 78q206 0 308 -96t102 -318l-2 -73
l-12 -291q-6 -119 55 -119z" />
    <glyph glyph-name="adieresis" unicode="&#xe4;" 
d="M578 1273q0 58 40 97q42 39 100 39t99 -39t41 -97t-41 -97t-99 -39t-100 39q-40 39 -40 97zM170 1273q0 58 41 97t99 39t100 -39t41 -97q0 -58 -41 -97q-42 -39 -100 -39t-99 39t-41 97zM524 518q-78 0 -122 -59t-44 -147t34 -133q34 -46 96 -46t108 72v2l4 299
q-37 12 -76 12zM975 133q39 0 57 37h4q0 -41 -16 -74q-55 -113 -201 -112q-92 0 -155 52t-68 146q-31 -90 -106 -144q-76 -54 -184 -54t-188 76t-79 216q0 138 103 222q104 84 242 84t216 -56l4 219v11q0 236 -149 235q-31 0 -38 -4t-18 -20l-166 -308h-4l-129 293
q217 78 424 78q206 0 308 -96t102 -318l-2 -73l-12 -291q-6 -119 55 -119z" />
    <glyph glyph-name="aring" unicode="&#xe5;" 
d="M668 1294q0 66 -43 108t-109 42t-108 -42q-43 -42 -43 -106t45 -107q44 -44 108 -44q64 -1 107 41t43 108zM322 1294q0 80 55 136t139 55q84 1 140 -53t55 -138q1 -84 -55 -137t-136 -53t-139 55t-59 135zM524 518q-78 0 -122 -59t-44 -147t34 -133q34 -46 96 -46t108 72
v2l4 299q-37 12 -76 12zM975 133q39 0 57 37h4q0 -41 -16 -74q-55 -113 -201 -112q-92 0 -155 52t-68 146q-31 -90 -106 -144q-76 -54 -184 -54t-188 76t-79 216q0 138 103 222q104 84 242 84t216 -56l4 219v11q0 236 -149 235q-31 0 -38 -4t-18 -20l-166 -308h-4l-129 293
q217 78 424 78q206 0 308 -96t102 -318l-2 -73l-12 -291q-6 -119 55 -119z" />
    <glyph glyph-name="ae" unicode="&#xe6;" horiz-adv-x="1605" 
d="M502 131q102 0 162 94q-61 113 -62 267v14q-37 12 -78 12q-78 0 -122 -58t-44 -146t40 -135q40 -48 104 -48zM1106 991q-158 0 -162 -401h303q4 229 -30 315q-35 86 -111 86zM496 1030q184 0 280 -94l25 -29q127 123 308 123t308 -92q66 -47 105 -134t39 -206
q0 -22 -2 -45h-615v-6q0 -189 83 -281t212 -92q215 0 309 188h4q-76 -379 -450 -378q-135 0 -250 57t-180 170q-20 -88 -106 -158q-86 -69 -221 -69q-134 0 -220 76t-86 217t103 223q104 82 236 82t222 -54l4 226q0 236 -151 235q-29 0 -36 -4t-18 -20l-166 -306h-4
l-131 297q214 74 398 74z" />
    <glyph glyph-name="ccedilla" unicode="&#xe7;" horiz-adv-x="964" 
d="M754 -290q0 -85 -65 -139t-171 -54t-182 53t-82 141l4 2q18 -59 70 -89t104 -30q53 0 91 30t38 85t-38 85t-87 30t-86 -14l-2 4l144 170q-190 10 -321 142q-130 132 -130 370q0 140 47 248t127 168q157 118 371 118q164 0 348 -61l-131 -353h-4l-158 351q-6 16 -12 20
t-25 4h-10q-195 0 -195 -397q0 -218 79 -318t198 -100q164 0 252 168h4q-27 -170 -133 -265t-281 -95h-16l-15 -107q111 20 189 -31t78 -136z" />
    <glyph glyph-name="egrave" unicode="&#xe8;" 
d="M209 1440h328l161 -338l-2 -2l-487 336v4zM692 651q0 190 -36 265t-109 75q-154 0 -158 -401h301q2 27 2 61zM389 553v-4q0 -187 82 -281t211 -94q217 0 311 188h4q-78 -379 -452 -378q-211 0 -357 131q-145 131 -145 392t145 392t369 131q175 0 304 -92q67 -47 106 -134
t39 -206q0 -20 -2 -45h-615z" />
    <glyph glyph-name="eacute" unicode="&#xe9;" 
d="M692 651q0 190 -36 265t-109 75q-154 0 -158 -401h301q2 27 2 61zM389 553v-4q0 -187 82 -281t211 -94q217 0 311 188h4q-78 -379 -452 -378q-211 0 -357 131q-145 131 -145 392t145 392t369 131q175 0 304 -92q67 -47 106 -134t39 -206q0 -20 -2 -45h-615zM911 1440v-4
l-485 -338l-4 4l162 338h327z" />
    <glyph glyph-name="ecircumflex" unicode="&#xea;" 
d="M692 651q0 190 -36 265t-109 75q-154 0 -158 -401h301q2 27 2 61zM389 553v-4q0 -187 82 -281t211 -94q217 0 311 188h4q-78 -379 -452 -378q-211 0 -357 131q-145 131 -145 392t145 392t369 131q175 0 304 -92q67 -47 106 -134t39 -206q0 -20 -2 -45h-615zM893 1098
l-2 -2l-334 137l-334 -137l-2 2l334 358h4z" />
    <glyph glyph-name="edieresis" unicode="&#xeb;" 
d="M692 651q0 190 -36 265t-109 75q-154 0 -158 -401h301q2 27 2 61zM389 553v-4q0 -187 82 -281t211 -94q217 0 311 188h4q-78 -379 -452 -378q-211 0 -357 131q-145 131 -145 392t145 392t369 131q175 0 304 -92q67 -47 106 -134t39 -206q0 -20 -2 -45h-615zM618 1273
q0 58 41 97t99 39t100 -39q41 -39 41 -97t-41 -97t-99 -39t-100 39q-41 39 -41 97zM211 1273q0 58 41 97t99 39q57 0 99 -39t42 -97t-41 -97t-99 -39t-100 39q-41 39 -41 97z" />
    <glyph glyph-name="igrave" unicode="&#xec;" horiz-adv-x="634" 
d="M-31 1440h328l162 -338l-2 -2l-488 336v4zM496 1014v-867q0 -29 20 -49l100 -94v-4h-573v4l100 94q18 18 19 49v709q0 31 -19 51l-100 103v4h453z" />
    <glyph glyph-name="iacute" unicode="&#xed;" horiz-adv-x="634" 
d="M496 1014v-867q0 -29 20 -49l100 -94v-4h-573v4l100 94q18 18 19 49v709q0 31 -19 51l-100 103v4h453zM670 1440v-4l-486 -338l-4 4l162 338h328z" />
    <glyph glyph-name="icircumflex" unicode="&#xee;" horiz-adv-x="634" 
d="M496 1014v-867q0 -29 20 -49l100 -94v-4h-573v4l100 94q18 18 19 49v709q0 31 -19 51l-100 103v4h453zM643 1098l-2 -2l-334 137l-334 -137l-2 2l334 358h4z" />
    <glyph glyph-name="idieresis" unicode="&#xef;" horiz-adv-x="634" 
d="M496 1014v-867q0 -29 20 -49l100 -94v-4h-573v4l100 94q18 18 19 49v709q0 31 -19 51l-100 103v4h453zM371 1273q0 58 41 97t99 39t99 -39t41 -97t-41 -97t-99 -39t-99 39t-41 97zM-37 1273q0 58 41 97t99 39q57 0 99 -39t42 -97t-41 -97t-99 -39t-100 39q-41 39 -41 97z
" />
    <glyph glyph-name="eth" unicode="&#xf0;" horiz-adv-x="1150" 
d="M756 563q0 154 -23 293q-51 59 -129 59q-186 -1 -186 -447t162 -445q176 -1 176 540zM242 1460q8 0 28 -2h19q248 -14 424 -119l245 136l19 -35l-227 -123q176 -115 265 -306t89 -425q0 -602 -543 -602q-227 0 -371 137q-143 137 -143 375t128 378t297 140t253 -123
q-41 207 -137 340l-258 -139l-17 32l252 136q-118 145 -323 196v4z" />
    <glyph glyph-name="ntilde" unicode="&#xf1;" horiz-adv-x="1259" 
d="M944 1409q0 -138 -50 -198t-114 -60t-159 50q-94 50 -140 50q-98 0 -131 -100h-4v49q0 94 48 152t114 57q66 0 160 -50t139 -50q98 0 133 100h4zM647 860q-90 0 -151 -90v-623q0 -33 18 -49l100 -94v-4h-573v4l100 94q18 16 19 49v709q0 31 -19 51l-100 103v4h455v-217
q84 233 325 233q154 0 237 -110t83 -322l-6 -451q0 -31 18 -49l102 -94v-4h-575v4l98 94q18 18 19 47l6 406q0 153 -33 231t-123 78z" />
    <glyph glyph-name="ograve" unicode="&#xf2;" horiz-adv-x="1169" 
d="M236 1440h327l162 -338l-2 -2l-487 336v4zM583 -16q-249 0 -394 134q-144 134 -144 388t145 389q144 135 394 135t395 -134t145 -388t-146 -389t-395 -135zM584 991q-84 0 -125 -101t-41 -381t41 -384q41 -105 125 -105t125 102t41 383q0 280 -41 383t-125 103z" />
    <glyph glyph-name="oacute" unicode="&#xf3;" horiz-adv-x="1169" 
d="M583 -16q-249 0 -394 134q-144 134 -144 388t145 389q144 135 394 135t395 -134t145 -388t-146 -389t-395 -135zM584 991q-84 0 -125 -101t-41 -381t41 -384q41 -105 125 -105t125 102t41 383q0 280 -41 383t-125 103zM938 1440v-4l-485 -338l-4 4l161 338h328z" />
    <glyph glyph-name="ocircumflex" unicode="&#xf4;" horiz-adv-x="1169" 
d="M583 -16q-249 0 -394 134q-144 134 -144 388t145 389q144 135 394 135t395 -134t145 -388t-146 -389t-395 -135zM584 991q-84 0 -125 -101t-41 -381t41 -384q41 -105 125 -105t125 102t41 383q0 280 -41 383t-125 103zM920 1098l-2 -2l-334 137l-334 -137l-2 2l334 358h4
z" />
    <glyph glyph-name="otilde" unicode="&#xf5;" horiz-adv-x="1169" 
d="M889 1409q0 -138 -50 -198q-51 -60 -115 -60t-158 50t-140 50q-98 0 -131 -100h-4v49q0 94 48 152q47 58 113 57q66 0 160 -50t140 -50q98 0 133 100h4zM583 -16q-249 0 -394 134q-144 134 -144 388t145 389q144 135 394 135t395 -134t145 -388t-146 -389t-395 -135z
M584 991q-84 0 -125 -101t-41 -381t41 -384q41 -105 125 -105t125 102t41 383q0 280 -41 383t-125 103z" />
    <glyph glyph-name="odieresis" unicode="&#xf6;" horiz-adv-x="1169" 
d="M583 -16q-249 0 -394 134q-144 134 -144 388t145 389q144 135 394 135t395 -134t145 -388t-146 -389t-395 -135zM584 991q-84 0 -125 -101t-41 -381t41 -384q41 -105 125 -105t125 102t41 383q0 280 -41 383t-125 103zM647 1273q0 58 41 97t99 39q57 0 99 -39t42 -97
t-41 -97t-99 -39t-100 39q-41 39 -41 97zM240 1273q0 58 41 97t99 39t99 -39t41 -97t-41 -97t-99 -39t-99 39t-41 97z" />
    <glyph glyph-name="divide" unicode="&#xf7;" horiz-adv-x="1105" 
d="M549 473q67 0 111 -41q44 -42 44 -108t-44 -105q-46 -39 -112 -39t-111 40q-46 40 -46 106t46 106t112 41zM391 982q0 66 46 106t112 40q67 0 111 -41t44 -107t-44 -106q-46 -38 -112 -38t-111 40q-46 40 -46 106zM102 637v39h902v-39h-902z" />
    <glyph glyph-name="oslash" unicode="&#xf8;" horiz-adv-x="1169" 
d="M750 496q0 182 -17 292l-282 -638q37 -127 133 -127q57 0 91 36q75 82 75 437zM584 991q-55 0 -89 -37q-75 -82 -75 -446q0 -190 16 -287l281 639q-35 131 -133 131zM1124 506q0 -256 -145 -389t-395 -133q-109 0 -197 24l-76 -174l-39 16l74 170q-303 109 -303 488
q0 256 145 389t396 133q109 0 196 -24l78 172l39 -17l-76 -170q303 -109 303 -485z" />
    <glyph glyph-name="ugrave" unicode="&#xf9;" horiz-adv-x="1218" 
d="M231 1440h328l162 -338l-2 -2l-488 336v4zM1079 1014v-858q0 -35 19 -52l102 -100v-4h-457v219q-39 -109 -121 -172t-192 -63q-152 0 -232 108t-79 318q0 117 4 448q0 31 -19 49l-100 103v4h453l-2 -271v-286q1 -150 31 -228q30 -77 112 -77t145 92v612q0 31 -18 51
l-100 103v4h454z" />
    <glyph glyph-name="uacute" unicode="&#xfa;" horiz-adv-x="1218" 
d="M1079 1014v-858q0 -35 19 -52l102 -100v-4h-457v219q-39 -109 -121 -172t-192 -63q-152 0 -232 108t-79 318q0 117 4 448q0 31 -19 49l-100 103v4h453l-2 -271v-286q1 -150 31 -228q30 -77 112 -77t145 92v612q0 31 -18 51l-100 103v4h454zM934 1440v-4l-485 -338l-5 4
l162 338h328z" />
    <glyph glyph-name="ucircumflex" unicode="&#xfb;" horiz-adv-x="1218" 
d="M1079 1014v-858q0 -35 19 -52l102 -100v-4h-457v219q-39 -109 -121 -172t-192 -63q-152 0 -232 108t-79 318q0 117 4 448q0 31 -19 49l-100 103v4h453l-2 -271v-286q1 -150 31 -228q30 -77 112 -77t145 92v612q0 31 -18 51l-100 103v4h454zM915 1098l-2 -2l-333 137
l-334 -137l-2 2l334 358h4z" />
    <glyph glyph-name="udieresis" unicode="&#xfc;" horiz-adv-x="1218" 
d="M1079 1014v-858q0 -35 19 -52l102 -100v-4h-457v219q-39 -109 -121 -172t-192 -63q-152 0 -232 108t-79 318q0 117 4 448q0 31 -19 49l-100 103v4h453l-2 -271v-286q1 -150 31 -228q30 -77 112 -77t145 92v612q0 31 -18 51l-100 103v4h454zM643 1273q0 58 41 97t99 39
q57 0 99 -39t42 -97t-41 -97t-99 -39t-100 39q-41 39 -41 97zM236 1273q0 58 40 97q42 39 100 39t99 -39t41 -97t-41 -97t-99 -39t-100 39q-40 39 -40 97z" />
    <glyph glyph-name="yacute" unicode="&#xfd;" horiz-adv-x="974" 
d="M899 1440v-4l-485 -338l-4 4l161 338h328zM134 -483q-70 0 -118 20l76 359h4l203 -201q15 -17 27 -17t40 41t66 125l12 33l-381 967q-10 27 -30 67l-56 99v4h531v-4l-82 -113q-14 -20 -4 -47l207 -574l166 404q10 27 11 38t-11 38l-125 254v4h350v-4l-133 -230
q-26 -43 -51 -106l-263 -635q-80 -190 -176 -340q-117 -182 -263 -182z" />
    <glyph glyph-name="thorn" unicode="&#xfe;" horiz-adv-x="1196" 
d="M599 860q-95 0 -155 -92v-604q46 -62 134 -62t151 102t63 300t-48 277q-50 79 -145 79zM762 1030q174 0 280 -134t106 -373t-120 -389q-121 -150 -311 -150q-217 0 -273 166v-453q0 -19 6 -29t25 -24l152 -107v-4h-635v4l98 94q18 16 19 50v1603q0 31 -19 49l-98 103v4
l452 39v-686q95 237 318 237z" />
    <glyph glyph-name="ydieresis" unicode="&#xff;" horiz-adv-x="974" 
d="M606 1273q0 58 41 97t99 39t100 -39t41 -97q0 -58 -41 -97q-42 -39 -100 -39t-99 39t-41 97zM199 1273q0 58 41 97t99 39t99 -39t41 -97t-41 -97t-99 -39t-99 39t-41 97zM134 -483q-70 0 -118 20l76 359h4l203 -201q15 -17 27 -17t40 41t66 125l12 33l-381 967
q-10 27 -30 67l-56 99v4h531v-4l-82 -113q-14 -20 -4 -47l207 -574l166 404q10 27 11 38t-11 38l-125 254v4h350v-4l-133 -230q-26 -43 -51 -106l-263 -635q-80 -190 -176 -340q-117 -182 -263 -182z" />
    <glyph glyph-name="Amacron" unicode="&#x100;" horiz-adv-x="1343" 
d="M926 1638h-576v41h576v-41zM528 1206l-215 -663h422zM446 0h-485v4l197 262q33 43 47 86l284 873q10 29 9 40q-2 11 -21 31l-121 140v4h482l383 -1215q10 -35 41 -84l86 -137v-4h-607v4l99 137q14 20 4 56l-96 305h-447l-53 -164q-8 -25 -5 -35t21 -37l182 -262v-4z" />
    <glyph glyph-name="amacron" unicode="&#x101;" 
d="M801 1212h-576v41h576v-41zM524 518q-78 0 -122 -59t-44 -147t34 -133q34 -46 96 -46t108 72v2l4 299q-37 12 -76 12zM975 133q39 0 57 37h4q0 -41 -16 -74q-55 -113 -201 -112q-92 0 -155 52t-68 146q-31 -90 -106 -144q-76 -54 -184 -54t-188 76t-79 216q0 138 103 222
q104 84 242 84t216 -56l4 219v11q0 236 -149 235q-31 0 -38 -4t-18 -20l-166 -308h-4l-129 293q217 78 424 78q206 0 308 -96t102 -318l-2 -73l-12 -291q-6 -119 55 -119z" />
    <glyph glyph-name="Abreve" unicode="&#x102;" horiz-adv-x="1343" 
d="M636 1690q114 0 182 50t75 144h4q8 -61 8 -86q0 -131 -79 -199q-78 -67 -190 -67t-190 68t-77 198q0 45 8 86h4q5 -94 73 -144t182 -50zM528 1206l-215 -663h422zM446 0h-485v4l197 262q33 43 47 86l284 873q10 29 9 40q-2 11 -21 31l-121 140v4h482l383 -1215
q10 -35 41 -84l86 -137v-4h-607v4l99 137q14 20 4 56l-96 305h-447l-53 -164q-8 -25 -5 -35t21 -37l182 -262v-4z" />
    <glyph glyph-name="abreve" unicode="&#x103;" 
d="M509 1264q115 0 183 50t74 144h4q8 -61 8 -86q0 -130 -79 -198t-191 -68t-189 68q-78 68 -77 198q0 45 8 86h4q4 -94 72 -144t183 -50zM524 518q-78 0 -122 -59t-44 -147t34 -133q34 -46 96 -46t108 72v2l4 299q-37 12 -76 12zM975 133q39 0 57 37h4q0 -41 -16 -74
q-55 -113 -201 -112q-92 0 -155 52t-68 146q-31 -90 -106 -144q-76 -54 -184 -54t-188 76t-79 216q0 138 103 222q104 84 242 84t216 -56l4 219v11q0 236 -149 235q-31 0 -38 -4t-18 -20l-166 -308h-4l-129 293q217 78 424 78q206 0 308 -96t102 -318l-2 -73l-12 -291
q-6 -119 55 -119z" />
    <glyph glyph-name="Aogonek" unicode="&#x104;" horiz-adv-x="1343" 
d="M528 1206l-215 -663h422zM766 0q-133 -70 -133 -214q0 -71 41 -113t108 -42q102 0 164 93l4 -3q-70 -205 -260 -204q-92 0 -158 56q-66 57 -66 151t77 170q76 76 198 110l99 137q14 20 4 56l-96 305h-447l-53 -164q-8 -25 -5 -35t21 -37l182 -262v-4h-485v4l197 262
q33 43 47 86l284 873q10 29 9 40q-2 11 -21 31l-121 140v4h482l383 -1215q10 -35 41 -84l86 -137v-4h-582z" />
    <glyph glyph-name="aogonek" unicode="&#x105;" 
d="M524 518q-78 0 -122 -59t-44 -147t34 -133q34 -46 96 -46t108 72l4 301q-37 12 -76 12zM975 133q39 0 57 37h4q0 -41 -16 -74q-39 -82 -141 -106q-139 -57 -140 -199q0 -76 41 -118t109 -42q102 0 164 93l4 -3q-70 -204 -260 -204q-92 0 -158 56q-66 55 -66 149t69 162
t187 100h-10q-92 0 -155 52t-68 146q-31 -90 -106 -144q-76 -54 -184 -54t-188 76t-79 216q0 138 103 222q104 84 242 84t216 -56l4 219v11q0 236 -149 235q-41 0 -56 -24l-166 -308h-4l-129 293q217 78 424 78t308 -95t102 -319l-14 -364q-6 -119 55 -119z" />
    <glyph glyph-name="Cacute" unicode="&#x106;" horiz-adv-x="1296" 
d="M1200 918h-4l-311 471q-20 33 -68 32h-29q-311 0 -311 -701t316 -702h22q47 0 68 29l313 483h4v-514q-201 -37 -436 -36q-356 0 -533 195q-176 196 -176 541q1 345 183 545t518 199q229 0 444 -39v-503zM1108 1866v-4l-485 -338l-5 4l162 338h328z" />
    <glyph glyph-name="cacute" unicode="&#x107;" horiz-adv-x="964" 
d="M506 -16q-186 0 -326 133q-139 133 -139 379q0 140 47 248t127 168q157 118 371 118q164 0 348 -61l-131 -353h-4l-158 351q-6 16 -12 20t-25 4h-10q-195 0 -195 -397q0 -218 79 -318t198 -100q164 0 252 168h4q-28 -170 -134 -265t-292 -95zM926 1440v-4l-486 -338l-4 4
l162 338h328z" />
    <glyph glyph-name="Ccircumflex" unicode="&#x108;" horiz-adv-x="1296" 
d="M1200 918h-4l-311 471q-20 33 -68 32h-29q-311 0 -311 -701t316 -702h22q47 0 68 29l313 483h4v-514q-201 -37 -436 -36q-356 0 -533 195q-176 196 -176 541q1 345 183 545t518 199q229 0 444 -39v-503zM1090 1524l-3 -2l-333 137l-334 -137l-2 2l334 358h4z" />
    <glyph glyph-name="ccircumflex" unicode="&#x109;" horiz-adv-x="964" 
d="M506 -16q-186 0 -326 133q-139 133 -139 379q0 140 47 248t127 168q157 118 371 118q164 0 348 -61l-131 -353h-4l-158 351q-6 16 -12 20t-25 4h-10q-195 0 -195 -397q0 -218 79 -318t198 -100q164 0 252 168h4q-28 -170 -134 -265t-292 -95zM907 1098l-2 -2l-334 137
l-333 -137l-2 2l333 358h4z" />
    <glyph glyph-name="Cdotaccent" unicode="&#x10a;" horiz-adv-x="1296" 
d="M596 1706q0 66 46 106t112 41q66 0 110 -41q44 -42 45 -108q0 -66 -45 -105q-44 -39 -110 -39t-112 41q-46 39 -46 105zM1200 918h-4l-311 471q-20 33 -68 32h-29q-311 0 -311 -701t316 -702h22q47 0 68 29l313 483h4v-514q-201 -37 -436 -36q-356 0 -533 195
q-176 196 -176 541q1 345 183 545t518 199q229 0 444 -39v-503z" />
    <glyph glyph-name="cdotaccent" unicode="&#x10b;" horiz-adv-x="964" 
d="M571 1135q-65 0 -111 40q-46 39 -46 105t46 106t112 41q66 0 110 -41q45 -42 45 -108t-45 -104t-111 -39zM506 -16q-186 0 -326 133q-139 133 -139 379q0 140 47 248t127 168q157 118 371 118q164 0 348 -61l-131 -353h-4l-158 351q-6 16 -12 20t-25 4h-10
q-195 0 -195 -397q0 -218 79 -318t198 -100q164 0 252 168h4q-28 -170 -134 -265t-292 -95z" />
    <glyph glyph-name="Ccaron" unicode="&#x10c;" horiz-adv-x="1296" 
d="M1200 918h-4l-311 471q-20 33 -68 32h-29q-311 0 -311 -701t316 -702h22q47 0 68 29l313 483h4v-514q-201 -37 -436 -36q-356 0 -533 195q-176 196 -176 541q1 345 183 545t518 199q229 0 444 -39v-503zM754 1739l333 137l3 -4l-334 -356h-4l-334 356l2 4z" />
    <glyph glyph-name="ccaron" unicode="&#x10d;" horiz-adv-x="964" 
d="M506 -16q-186 0 -326 133q-139 133 -139 379q0 140 47 248t127 168q157 118 371 118q164 0 348 -61l-131 -353h-4l-158 351q-6 16 -12 20t-25 4h-10q-195 0 -195 -397q0 -218 79 -318t198 -100q164 0 252 168h4q-28 -170 -134 -265t-292 -95zM571 1315l334 137l2 -4
l-334 -356h-4l-333 356l2 4z" />
    <glyph glyph-name="Dcaron" unicode="&#x10e;" horiz-adv-x="1474" 
d="M600 41h43q195 0 278 169t83 511t-81 510t-266 168h-65q-23 0 -29 -7t-6 -32v-1278q0 -29 7 -35t36 -6zM31 0v4l137 129q18 18 18 49v1075q0 31 -18 50l-137 129v4h684q348 0 528 -184t180 -522q1 -338 -195 -536t-552 -198h-645zM662 1739l333 137l2 -4l-333 -356h-5
l-333 356l2 4z" />
    <glyph glyph-name="dcaron" unicode="&#x10f;" horiz-adv-x="1269" 
d="M601 137q89 0 149 78v633q-48 63 -138 63t-151 -95t-61 -297t56 -292t145 -90zM1083 154q0 -33 19 -50l102 -100v-4h-454v193q-90 -209 -301 -209q-180 0 -292 137t-112 378t124 386t315 145t266 -164v424q0 33 -21 51l-98 95v4l452 53v-1339zM1208 1440h234l-248 -400
h-4z" />
    <glyph glyph-name="Dcroat" unicode="&#x110;" horiz-adv-x="1503" 
d="M688 1399h-65q-23 0 -29 -7t-6 -32v-606h217v-37h-217v-635q0 -29 7 -35t36 -6h43q190 0 274 169t84 511t-80 510t-264 168zM33 717v37h184v501q0 35 -20 54l-138 127v4h684q351 0 531 -182t180 -518t-197 -538t-550 -202h-648v4l138 127q20 18 20 55v531h-184z" />
    <glyph glyph-name="dcroat" unicode="&#x111;" horiz-adv-x="1236" 
d="M603 137q89 0 149 78v633q-48 63 -138 63t-151 -95t-61 -297t56 -292t145 -90zM1085 1200h134v-39h-134v-1007q0 -33 19 -50l102 -100v-4h-454v193q-90 -209 -301 -209q-180 0 -292 137t-112 378t124 386t315 145t266 -164v295h-242v39h242v90q0 33 -21 51l-98 95v4
l452 53v-293z" />
    <glyph glyph-name="Emacron" unicode="&#x112;" horiz-adv-x="1243" 
d="M930 1638h-576v41h576v-41zM1128 1440v-496h-4l-264 422q-20 33 -57 33h-211q-23 0 -29 -7t-6 -34v-617h139q31 2 54 29l184 213h4v-522h-4l-184 213q-25 27 -56 26h-137v-618q0 -27 6 -34t29 -7h235q45 0 62 29l254 434h4v-504h-1116v4l137 129q18 18 18 49v1075
q0 31 -18 50l-137 129v4h1097z" />
    <glyph glyph-name="emacron" unicode="&#x113;" 
d="M842 1212h-576v41h576v-41zM692 651q0 190 -36 265t-109 75q-154 0 -158 -401h301q2 27 2 61zM389 553v-4q0 -187 82 -281t211 -94q217 0 311 188h4q-78 -379 -452 -378q-211 0 -357 131q-145 131 -145 392t145 392t369 131q175 0 304 -92q67 -47 106 -134t39 -206
q0 -20 -2 -45h-615z" />
    <glyph glyph-name="Ebreve" unicode="&#x114;" horiz-adv-x="1243" 
d="M638 1690q114 0 182 50t75 144h4q8 -61 8 -86q0 -131 -79 -199q-78 -67 -190 -67t-190 68t-77 198q0 45 8 86h4q5 -94 73 -144t182 -50zM1128 1440v-496h-4l-264 422q-20 33 -57 33h-211q-23 0 -29 -7t-6 -34v-617h139q31 2 54 29l184 213h4v-522h-4l-184 213
q-25 27 -56 26h-137v-618q0 -27 6 -34t29 -7h235q45 0 62 29l254 434h4v-504h-1116v4l137 129q18 18 18 49v1075q0 31 -18 50l-137 129v4h1097z" />
    <glyph glyph-name="ebreve" unicode="&#x115;" 
d="M552 1264q114 0 182 50t75 144h4q8 -61 8 -86q0 -130 -79 -198q-78 -68 -190 -68t-190 68t-77 198q0 45 8 86h4q5 -94 73 -144t182 -50zM692 651q0 190 -36 265t-109 75q-154 0 -158 -401h301q2 27 2 61zM389 553v-4q0 -187 82 -281t211 -94q217 0 311 188h4
q-78 -379 -452 -378q-211 0 -357 131q-145 131 -145 392t145 392t369 131q175 0 304 -92q67 -47 106 -134t39 -206q0 -20 -2 -45h-615z" />
    <glyph glyph-name="Edotaccent" unicode="&#x116;" horiz-adv-x="1243" 
d="M485 1706q0 66 46 106t112 41q66 0 111 -41q45 -42 45 -108t-45 -105t-111 -39t-112 41q-46 39 -46 105zM1128 1440v-496h-4l-264 422q-20 33 -57 33h-211q-23 0 -29 -7t-6 -34v-617h139q31 2 54 29l184 213h4v-522h-4l-184 213q-25 27 -56 26h-137v-618q0 -27 6 -34
t29 -7h235q45 0 62 29l254 434h4v-504h-1116v4l137 129q18 18 18 49v1075q0 31 -18 50l-137 129v4h1097z" />
    <glyph glyph-name="edotaccent" unicode="&#x117;" 
d="M397 1280q0 66 46 106t112 41q66 0 111 -41q45 -42 45 -108t-45 -104t-111 -39q-66 0 -112 40q-46 39 -46 105zM692 651q0 190 -36 265t-109 75q-154 0 -158 -401h301q2 27 2 61zM389 553v-4q0 -187 82 -281t211 -94q217 0 311 188h4q-78 -379 -452 -378q-211 0 -357 131
q-145 131 -145 392t145 392t369 131q175 0 304 -92q67 -47 106 -134t39 -206q0 -20 -2 -45h-615z" />
    <glyph glyph-name="Eogonek" unicode="&#x118;" horiz-adv-x="1243" 
d="M1128 1440v-496h-4l-264 422q-20 33 -57 33h-211q-23 0 -29 -7t-6 -34v-617h139q31 2 54 29l184 213h4v-522h-4l-184 213q-25 27 -56 26h-137v-618q0 -27 6 -34t29 -7h235q45 0 62 29l254 434h4v-504h-201q-145 -63 -145 -209q0 -76 41 -118t108 -42q102 0 164 93l4 -3
q-70 -205 -260 -204q-92 0 -158 56q-66 55 -66 151t81 171q80 75 211 105h-895v4l137 129q18 18 18 49v1075q0 31 -18 50l-137 129v4h1097z" />
    <glyph glyph-name="eogonek" unicode="&#x119;" 
d="M692 651q0 190 -36 265t-109 75q-154 0 -158 -401h301q2 23 2 61zM559 -483q-92 0 -158 56q-65 57 -65 149t72 162t190 102q-20 -2 -53 -2q-211 0 -357 131q-145 131 -145 392t145 392t369 131q175 0 304 -92q67 -47 106 -134t39 -206q0 -25 -2 -45h-615v-4
q0 -187 82 -281t211 -94q217 0 311 188h4q-70 -326 -358 -370q-137 -56 -137 -205q0 -72 41 -114t108 -42q102 0 164 93l4 -3q-65 -204 -260 -204z" />
    <glyph glyph-name="Ecaron" unicode="&#x11a;" horiz-adv-x="1243" 
d="M1128 1440v-496h-4l-264 422q-20 33 -57 33h-211q-23 0 -29 -7t-6 -34v-617h139q31 2 54 29l184 213h4v-522h-4l-184 213q-25 27 -56 26h-137v-618q0 -27 6 -34t29 -7h235q45 0 62 29l254 434h4v-504h-1116v4l137 129q18 18 18 49v1075q0 31 -18 50l-137 129v4h1097z
M643 1739l334 137l2 -4l-334 -356h-4l-334 356l2 4z" />
    <glyph glyph-name="ecaron" unicode="&#x11b;" 
d="M692 651q0 190 -36 265t-109 75q-154 0 -158 -401h301q2 27 2 61zM389 553v-4q0 -187 82 -281t211 -94q217 0 311 188h4q-78 -379 -452 -378q-211 0 -357 131q-145 131 -145 392t145 392t369 131q175 0 304 -92q67 -47 106 -134t39 -206q0 -20 -2 -45h-615zM557 1315
l334 137l2 -4l-334 -356h-4l-334 356l2 4z" />
    <glyph glyph-name="Gcircumflex" unicode="&#x11c;" horiz-adv-x="1417" 
d="M774 29q121 0 121 51v364q0 35 -18 58l-115 131v4h637v-4l-115 -131q-18 -23 -18 -58v-464l-312 55q-131 -55 -268 -55q-291 0 -462 198t-171 539q-1 342 187 543t528 200q254 0 469 -47v-502h-4l-320 478q-20 33 -63 32h-35q-338 0 -338 -680q0 -385 72 -549t225 -163z
M1075 1524l-2 -2l-334 137l-333 -137l-3 2l334 358h4z" />
    <glyph glyph-name="gcircumflex" unicode="&#x11d;" horiz-adv-x="1075" 
d="M385 695q0 -163 33 -233q32 -70 98 -69q66 0 98 69q32 70 33 232q0 162 -32 232q-31 70 -99 70t-100 -70q-32 -68 -31 -231zM229 -233q1 -91 95 -149t219 -58t214 51t89 145q0 62 -44 96t-153 37l-266 9q-47 4 -72 8q-82 -49 -82 -139zM70 690q0 168 120 254
q122 86 308 86t293 -57q23 -12 43 10l213 225l4 -2v-307h-193q104 -83 104 -233t-121 -229q-122 -79 -325 -79q-98 0 -166 17q-63 -25 -63 -76q0 -90 209 -90h190q367 0 367 -272q0 -185 -164 -303t-414 -117q-168 0 -294 54t-126 153q1 66 59 116t179 68q-106 23 -165 82
q-58 59 -58 145t69 152q70 66 189 94q-258 65 -258 309zM858 1098l-2 -2l-334 137l-334 -137l-2 2l334 358h4z" />
    <glyph glyph-name="Gbreve" unicode="&#x11e;" horiz-adv-x="1417" 
d="M734 1690q114 0 182 50t75 144h4q8 -61 9 -86q0 -131 -79 -199q-79 -67 -191 -67t-190 68t-77 198q0 45 8 86h4q5 -94 73 -144t182 -50zM774 29q121 0 121 51v364q0 35 -18 58l-115 131v4h637v-4l-115 -131q-18 -23 -18 -58v-464l-312 55q-131 -55 -268 -55
q-291 0 -462 198t-171 539q-1 342 187 543t528 200q254 0 469 -47v-502h-4l-320 478q-20 33 -63 32h-35q-338 0 -338 -680q0 -385 72 -549t225 -163z" />
    <glyph glyph-name="gbreve" unicode="&#x11f;" horiz-adv-x="1075" 
d="M517 1264q115 0 183 50t74 144h4q8 -61 8 -86q0 -130 -78 -198t-191 -68q-111 0 -189 68t-78 198q0 45 8 86h4q4 -94 72 -144t183 -50zM385 695q0 -163 33 -233q32 -70 98 -69q66 0 98 69q32 70 33 232q0 162 -32 232q-31 70 -99 70t-100 -70q-32 -68 -31 -231zM229 -233
q1 -91 95 -149t219 -58t214 51t89 145q0 62 -44 96t-153 37l-266 9q-47 4 -72 8q-82 -49 -82 -139zM70 690q0 168 120 254q122 86 308 86t293 -57q23 -12 43 10l213 225l4 -2v-307h-193q104 -83 104 -233t-121 -229q-122 -79 -325 -79q-98 0 -166 17q-63 -25 -63 -76
q0 -90 209 -90h190q367 0 367 -272q0 -185 -164 -303t-414 -117q-168 0 -294 54t-126 153q1 66 59 116t179 68q-106 23 -165 82q-58 59 -58 145t69 152q70 66 189 94q-258 65 -258 309z" />
    <glyph glyph-name="Gdotaccent" unicode="&#x120;" horiz-adv-x="1417" 
d="M582 1706q0 66 46 106t112 41q66 0 110 -41q45 -42 45 -108t-45 -105t-111 -39q-65 0 -111 41q-46 39 -46 105zM774 29q121 0 121 51v364q0 35 -18 58l-115 131v4h637v-4l-115 -131q-18 -23 -18 -58v-464l-312 55q-131 -55 -268 -55q-291 0 -462 198t-171 539
q-1 342 187 543t528 200q254 0 469 -47v-502h-4l-320 478q-20 33 -63 32h-35q-338 0 -338 -680q0 -385 72 -549t225 -163z" />
    <glyph glyph-name="gdotaccent" unicode="&#x121;" horiz-adv-x="1075" 
d="M522 1135q-66 0 -112 40q-46 39 -45 105q0 66 46 106q45 40 111 41q66 0 111 -41q45 -42 45 -108t-45 -104t-111 -39zM385 695q0 -163 33 -233q32 -70 98 -69q66 0 98 69q32 70 33 232q0 162 -32 232q-31 70 -99 70t-100 -70q-32 -68 -31 -231zM229 -233q1 -91 95 -149
t219 -58t214 51t89 145q0 62 -44 96t-153 37l-266 9q-47 4 -72 8q-82 -49 -82 -139zM70 690q0 168 120 254q122 86 308 86t293 -57q23 -12 43 10l213 225l4 -2v-307h-193q104 -83 104 -233t-121 -229q-122 -79 -325 -79q-98 0 -166 17q-63 -25 -63 -76q0 -90 209 -90h190
q367 0 367 -272q0 -185 -164 -303t-414 -117q-168 0 -294 54t-126 153q1 66 59 116t179 68q-106 23 -165 82q-58 59 -58 145t69 152q70 66 189 94q-258 65 -258 309z" />
    <glyph glyph-name="Gcommaaccent" unicode="&#x122;" horiz-adv-x="1417" 
d="M774 29q121 0 121 51v364q0 35 -18 58l-115 131v4h637v-4l-115 -131q-18 -23 -18 -58v-464l-312 55q-131 -55 -268 -55q-291 0 -462 198t-171 539q-1 342 187 543t528 200q254 0 469 -47v-502h-4l-320 478q-20 33 -63 32h-35q-338 0 -338 -680q0 -385 72 -549t225 -163z
M740 -74q60 0 98 -43t39 -131q0 -88 -73 -171t-181 -107l-2 4q113 72 112 178q0 16 -18 20q-109 14 -109 121q0 55 37 92t97 37z" />
    <glyph glyph-name="gcommaaccent" unicode="&#x123;" horiz-adv-x="1075" 
d="M662 1238q0 -54 -37 -92t-97 -38t-99 44q-38 44 -38 132t73 169t181 110l2 -4q-113 -70 -112 -179q0 -20 18 -20q49 0 79 -34t30 -88zM385 695q0 -163 33 -233q32 -70 98 -69q66 0 98 69q32 70 33 232q0 162 -32 232q-31 70 -99 70t-100 -70q-32 -68 -31 -231zM229 -233
q1 -91 95 -149t219 -58t214 51t89 145q0 62 -44 96t-153 37l-266 9q-47 4 -72 8q-82 -49 -82 -139zM70 690q0 168 120 254q122 86 308 86t293 -57q23 -12 43 10l213 225l4 -2v-307h-193q104 -83 104 -233t-121 -229q-122 -79 -325 -79q-98 0 -166 17q-63 -25 -63 -76
q0 -90 209 -90h190q367 0 367 -272q0 -185 -164 -303t-414 -117q-168 0 -294 54t-126 153q1 66 59 116t179 68q-106 23 -165 82q-58 59 -58 145t69 152q70 66 189 94q-258 65 -258 309z" />
    <glyph glyph-name="Hcircumflex" unicode="&#x124;" horiz-adv-x="1589" 
d="M1403 1257v-1075q0 -31 18 -49l135 -129v-4h-679v4l135 129q20 20 20 49v535h-475v-535q0 -31 21 -49l135 -129v-4h-682v4l137 129q18 18 18 49v1075q0 31 -18 50l-137 129v4h682v-4l-135 -129q-20 -18 -21 -50v-499h475v499q0 31 -20 50l-135 129v4h679v-4l-135 -129
q-18 -19 -18 -50zM1130 1524l-2 -2l-333 137l-334 -137l-2 2l334 358h4z" />
    <glyph glyph-name="hcircumflex" unicode="&#x125;" horiz-adv-x="1236" 
d="M624 860q-88 0 -153 -92v-621q0 -31 21 -49l100 -94v-4h-574v4l101 94q18 18 18 49v1143q0 33 -18 51l-101 95v4l453 53v-702q84 240 326 239q155 0 237 -110t82 -322l-6 -451q0 -31 20 -49l101 -94v-4h-574v4l97 94q20 18 20 47l6 406q0 153 -34 231t-122 78zM641 1524
l-2 -2l-334 137l-334 -137l-2 2l334 358h4z" />
    <glyph glyph-name="Hbar" unicode="&#x126;" horiz-adv-x="1589" 
d="M557 975v-318h475v318h-475zM1548 975h-145v-789q0 -39 18 -55l140 -127v-4h-687v4l138 127q20 20 20 55v428h-475v-428q0 -35 21 -55l137 -127v-4h-686v4l139 127q18 16 18 55v789h-145v39h145v239q0 39 -18 56l-139 127v4h686v-4l-137 -127q-20 -20 -21 -56v-239h475
v239q0 35 -20 56l-138 127v4h687v-4l-140 -127q-18 -16 -18 -56v-239h145v-39z" />
    <glyph glyph-name="hbar" unicode="&#x127;" horiz-adv-x="1236" 
d="M624 860q-88 0 -153 -92v-621q0 -31 21 -49l100 -94v-4h-574v4l101 94q18 18 18 49v1014h-125v39h125v90q0 33 -18 51l-101 95v4l453 53v-293h254v-39h-254v-370q84 240 326 239q155 0 237 -110t82 -322l-6 -451q0 -31 20 -49l101 -94v-4h-574v4l97 94q20 18 20 47l6 406
q0 153 -34 231t-122 78z" />
    <glyph glyph-name="Itilde" unicode="&#x128;" horiz-adv-x="745" 
d="M678 1835q0 -138 -50 -198t-114 -60t-160 50q-94 50 -139 50q-98 0 -131 -100h-4v49q0 94 48 152t114 57q66 0 159 -50q94 -50 140 -50q98 0 133 100h4zM557 182q0 -31 21 -49l135 -129v-4h-682v4l137 129q18 18 18 49v1075q0 31 -18 50l-137 129v4h682v-4l-135 -129
q-20 -18 -21 -50v-1075z" />
    <glyph glyph-name="itilde" unicode="&#x129;" horiz-adv-x="634" 
d="M612 1409q0 -138 -50 -198t-114 -60t-159 50q-94 50 -139 50q-98 0 -132 -100h-4v49q0 94 48 152t114 57q66 0 160 -50t139 -50q98 0 133 100h4zM496 1014v-867q0 -29 20 -49l100 -94v-4h-573v4l100 94q18 18 19 49v709q0 31 -19 51l-100 103v4h453z" />
    <glyph glyph-name="Imacron" unicode="&#x12a;" horiz-adv-x="745" 
d="M659 1638h-575v41h575v-41zM557 182q0 -31 21 -49l135 -129v-4h-682v4l137 129q18 18 18 49v1075q0 31 -18 50l-137 129v4h682v-4l-135 -129q-20 -18 -21 -50v-1075z" />
    <glyph glyph-name="imacron" unicode="&#x12b;" horiz-adv-x="634" 
d="M586 1212h-576v41h576v-41zM496 1014v-867q0 -29 20 -49l100 -94v-4h-573v4l100 94q18 18 19 49v709q0 31 -19 51l-100 103v4h453z" />
    <glyph glyph-name="Ibreve" unicode="&#x12c;" horiz-adv-x="745" 
d="M368 1690q114 0 182 50t75 144h4q8 -61 8 -86q0 -131 -79 -199q-78 -67 -190 -67t-190 68t-78 198q0 45 9 86h4q5 -94 73 -144t182 -50zM557 182q0 -31 21 -49l135 -129v-4h-682v4l137 129q18 18 18 49v1075q0 31 -18 50l-137 129v4h682v-4l-135 -129q-20 -18 -21 -50
v-1075z" />
    <glyph glyph-name="ibreve" unicode="&#x12d;" horiz-adv-x="634" 
d="M302 1264q114 0 182 50t75 144h4q8 -61 8 -86q-1 -130 -79 -198t-190 -68t-190 68t-77 198q0 45 8 86h4q5 -94 73 -144t182 -50zM496 1014v-867q0 -29 20 -49l100 -94v-4h-573v4l100 94q18 18 19 49v709q0 31 -19 51l-100 103v4h453z" />
    <glyph glyph-name="Iogonek" unicode="&#x12e;" horiz-adv-x="745" 
d="M557 182q0 -31 21 -49l135 -129v-4h-260q-145 -59 -146 -209q0 -76 42 -118t110 -42q100 0 162 93l4 -3q-66 -205 -260 -204q-92 0 -158 56q-66 55 -66 151t77 171t204 105h-391v4l137 129q18 18 18 49v1075q0 31 -18 50l-137 129v4h682v-4l-135 -129q-20 -18 -21 -50
v-1075z" />
    <glyph glyph-name="iogonek" unicode="&#x12f;" horiz-adv-x="634" 
d="M324 1438q70 0 116 -44t47 -114q-1 -70 -47 -112t-116 -42t-118 42t-48 112t48 114t118 44zM334 -483q-92 0 -158 56q-66 55 -66 151t76 171t203 105h-348v4l100 94q18 16 19 49v709q0 31 -19 51l-100 103v4h455v-867q0 -33 18 -49l100 -94v-4h-194q-143 -57 -144 -209
q0 -76 41 -118t109 -42q102 0 164 93l4 -3q-70 -204 -260 -204z" />
    <glyph glyph-name="Idotaccent" unicode="&#x130;" horiz-adv-x="745" 
d="M213 1706q0 66 46 106t112 41q67 0 111 -41q44 -42 44 -108t-45 -105t-111 -39t-111 41q-46 39 -46 105zM557 182q0 -31 21 -49l135 -129v-4h-682v4l137 129q18 18 18 49v1075q0 31 -18 50l-137 129v4h682v-4l-135 -129q-20 -18 -21 -50v-1075z" />
    <glyph glyph-name="dotlessi" unicode="&#x131;" horiz-adv-x="634" 
d="M496 1014v-867q0 -29 20 -49l100 -94v-4h-573v4l100 94q18 18 19 49v709q0 31 -19 51l-100 103v4h453z" />
    <glyph glyph-name="IJ" unicode="&#x132;" horiz-adv-x="1429" 
d="M901 121v1136q0 31 -20 50l-136 129v4h682v-4l-135 -129q-20 -18 -20 -50v-1015q0 -308 -166 -486t-479 -188l-2 4q276 141 276 549zM557 182q0 -31 21 -49l135 -129v-4h-682v4l137 129q18 18 18 49v1075q0 31 -18 50l-137 129v4h682v-4l-135 -129q-20 -18 -21 -50v-1075
z" />
    <glyph glyph-name="ij" unicode="&#x133;" horiz-adv-x="1226" 
d="M780 1280q0 70 49 114t119 44t117 -44t47 -114t-47 -112t-117 -42t-119 42t-49 112zM1120 76q0 -258 -133 -398t-379 -143q-20 0 -30 2v4q207 41 206 420v895q0 31 -18 51l-100 103v4h454v-938zM41 1014h455v-867q0 -33 18 -49l100 -94v-4h-573v4l100 94q18 16 19 49v709
q0 31 -19 51l-100 103v4zM324 1438q70 0 116 -44t47 -114q-1 -70 -47 -112t-116 -42t-118 42t-48 112t48 114t118 44z" />
    <glyph glyph-name="Jcircumflex" unicode="&#x134;" horiz-adv-x="686" 
d="M158 121v1136q0 31 -21 50l-135 129v4h682v-4l-135 -129q-20 -18 -21 -50v-1015q0 -308 -166 -486t-479 -188l-2 4q277 141 277 549zM680 1524l-2 -2l-334 137l-334 -137l-2 2l334 358h4z" />
    <glyph glyph-name="jcircumflex" unicode="&#x135;" horiz-adv-x="591" 
d="M637 1098l-2 -2l-334 137l-334 -137l-2 2l334 358h4zM150 -39v895q0 31 -19 51l-100 103v4h454v-938q0 -256 -131 -398t-372 -143l-39 2v4q207 41 207 420z" />
    <glyph glyph-name="Kcommaaccent" unicode="&#x136;" horiz-adv-x="1454" 
d="M1489 0h-490l-426 702l428 465q17 17 17 27t-17 33l-155 209v4h635v-4l-340 -213q-63 -39 -105 -82l-188 -199l461 -747q27 -45 61 -76l119 -115v-4zM557 1257v-1075q0 -31 21 -49l135 -129v-4h-682v4l137 129q18 18 18 49v1075q0 31 -18 50l-137 129v4h682v-4l-135 -129
q-21 -19 -21 -50zM789 -74q61 0 99 -43t38 -131t-73 -171t-181 -107l-2 4q113 72 112 178q0 16 -18 20q-109 14 -109 121q0 55 37 92t97 37z" />
    <glyph glyph-name="kcommaaccent" unicode="&#x137;" horiz-adv-x="1171" 
d="M1192 0h-434l-228 483q-10 25 -29 25t-30 -8v-353q0 -31 21 -49l100 -94v-4h-574v4l101 94q18 18 18 49v1143q0 33 -18 51l-101 95v4l453 53v-971l332 248q23 16 4 41l-139 199v4h501v-4l-374 -285q-21 -14 -11 -37l275 -541q18 -35 47 -63l86 -80v-4zM621 -74
q61 0 99 -43t38 -131t-73 -171t-181 -107l-2 4q113 72 112 178q0 16 -18 20q-109 14 -109 121q0 55 37 92t97 37z" />
    <glyph glyph-name="kgreenlandic" unicode="&#x138;" horiz-adv-x="1191" 
d="M496 147q0 -33 18 -49l100 -94v-4h-573v4l100 94q18 16 19 49v709q0 31 -19 51l-100 103v4h455v-492l329 248q23 16 6 41l-141 199v4h502v-4l-373 -285q-20 -16 -12 -37l276 -541q23 -41 47 -63l84 -80v-4h-434l-227 483q-10 25 -35 25q-6 0 -22 -8v-353z" />
    <glyph glyph-name="Lacute" unicode="&#x139;" horiz-adv-x="1189" 
d="M186 182v1075q0 31 -18 50l-137 129v4h682v-4l-135 -129q-20 -18 -21 -50v-1175q0 -27 6 -34t29 -7h192q41 0 60 29l284 462h5v-532h-1102v4l137 129q18 18 18 49zM725 1866v-4l-485 -338l-4 4l161 338h328z" />
    <glyph glyph-name="lacute" unicode="&#x13a;" horiz-adv-x="610" 
d="M471 147q0 -31 21 -49l100 -94v-4h-574v4l101 94q18 18 18 49v1143q0 33 -18 51l-101 95v4l453 53v-1346zM659 1866v-4l-485 -338l-4 4l162 338h327z" />
    <glyph glyph-name="Lcommaaccent" unicode="&#x13b;" horiz-adv-x="1189" 
d="M186 182v1075q0 31 -18 50l-137 129v4h682v-4l-135 -129q-20 -18 -21 -50v-1175q0 -27 6 -34t29 -7h192q41 0 60 29l284 462h5v-532h-1102v4l137 129q18 18 18 49zM762 -248q0 -88 -73 -171t-181 -107l-2 4q113 72 112 178q0 16 -18 20q-109 14 -108 121q0 55 36 92
q38 37 98 37t98 -43t38 -131z" />
    <glyph glyph-name="lcommaaccent" unicode="&#x13c;" horiz-adv-x="610" 
d="M471 147q0 -31 21 -49l100 -94v-4h-574v4l101 94q18 18 18 49v1143q0 33 -18 51l-101 95v4l453 53v-1346zM308 -74q60 0 98 -43t38 -131t-72 -171t-182 -107l-2 4q113 72 113 178q0 16 -18 20q-109 14 -109 121q0 55 37 92t97 37z" />
    <glyph glyph-name="Lcaron" unicode="&#x13d;" horiz-adv-x="1187" 
d="M186 182v1075q0 31 -18 50l-137 129v4h682v-4l-135 -129q-20 -18 -21 -50v-1175q0 -27 6 -34t29 -7h192q41 0 60 29l284 462h5v-532h-1102v4l137 129q18 18 18 49zM840 1440h233l-248 -400h-4z" />
    <glyph glyph-name="lcaron" unicode="&#x13e;" horiz-adv-x="657" 
d="M471 147q0 -31 21 -49l100 -94v-4h-574v4l101 94q18 18 18 49v1143q0 33 -18 51l-101 95v4l453 53v-1346zM598 1440h233l-247 -400h-4z" />
    <glyph glyph-name="Ldot" unicode="&#x13f;" horiz-adv-x="1189" 
d="M918 653q-66 1 -112 41t-46 106t46 106t112 40t110 -41t45 -107q0 -66 -45 -106q-44 -39 -110 -39zM193 182v1075q0 31 -19 50l-137 129v4h682v-4l-135 -129q-20 -18 -21 -50v-1175q0 -27 6 -34t29 -7h193q41 0 59 29l285 462h4v-532h-1102v4l137 129q19 18 19 49z" />
    <glyph glyph-name="ldot" unicode="&#x140;" horiz-adv-x="860" 
d="M557 736q0 66 46 106q46 41 112 41q67 0 111 -41t44 -108q0 -68 -45 -106t-111 -38t-111 40q-46 40 -46 106zM471 147q0 -31 21 -49l100 -94v-4h-574v4l101 94q18 18 18 49v1143q0 33 -18 51l-101 95v4l453 53v-1346z" />
    <glyph glyph-name="Lslash" unicode="&#x141;" horiz-adv-x="1208" 
d="M575 82q1 -27 7 -34t28 -7h193q41 0 59 29l285 462h4v-532h-1102v4l137 129q18 18 19 49v404l-150 -62l-14 37l164 66v630q0 31 -19 50l-137 129v4h682v-4l-135 -129q-20 -18 -21 -50v-479l252 103l15 -35l-267 -109v-655z" />
    <glyph glyph-name="lslash" unicode="&#x142;" horiz-adv-x="690" 
d="M506 147q0 -31 20 -49l101 -94v-4h-574v4l101 94q18 18 18 49v445l-166 -68l-14 35l180 74v657q0 33 -18 51l-101 95v4l453 53v-725l196 82l15 -35l-211 -86v-582z" />
    <glyph glyph-name="Nacute" unicode="&#x143;" horiz-adv-x="1447" 
d="M1243 0h-250l-706 1094v-750q0 -31 24 -63l211 -277v-4h-510v4l205 275q27 35 27 65v774q0 41 -19 66l-205 252v4h484l696 -1082v738q0 35 -24 65l-209 275v4h510v-4l-207 -275q-27 -37 -27 -65v-1096zM1081 1866v-4l-485 -338l-4 4l162 338h327z" />
    <glyph glyph-name="nacute" unicode="&#x144;" horiz-adv-x="1259" 
d="M647 860q-90 0 -151 -90v-623q0 -33 18 -49l100 -94v-4h-573v4l100 94q18 16 19 49v709q0 31 -19 51l-100 103v4h455v-217q84 233 325 233q154 0 237 -110t83 -322l-6 -451q0 -31 18 -49l102 -94v-4h-575v4l98 94q18 18 19 47l6 406q0 153 -33 231t-123 78zM995 1440v-4
l-485 -338l-4 4l162 338h327z" />
    <glyph glyph-name="Ncommaaccent" unicode="&#x145;" horiz-adv-x="1447" 
d="M1243 0h-250l-706 1094v-750q0 -31 24 -63l211 -277v-4h-510v4l205 275q27 35 27 65v774q0 41 -19 66l-205 252v4h484l696 -1082v738q0 35 -24 65l-209 275v4h510v-4l-207 -275q-27 -37 -27 -65v-1096zM868 -248q0 -88 -72 -171t-182 -107l-2 4q113 72 113 178
q0 16 -18 20q-109 14 -109 121q0 55 37 92t97 37t98 -43t38 -131z" />
    <glyph glyph-name="ncommaaccent" unicode="&#x146;" horiz-adv-x="1259" 
d="M647 860q-90 0 -151 -90v-623q0 -33 18 -49l100 -94v-4h-573v4l100 94q18 16 19 49v709q0 31 -19 51l-100 103v4h455v-217q84 233 325 233q154 0 237 -110t83 -322l-6 -451q0 -31 18 -49l102 -94v-4h-575v4l98 94q18 18 19 47l6 406q0 153 -33 231t-123 78zM654 -74
q60 0 98 -43t39 -131q0 -88 -73 -171t-181 -107l-2 4q113 72 112 178q0 16 -18 20q-109 14 -109 121q0 55 37 92t97 37z" />
    <glyph glyph-name="Ncaron" unicode="&#x147;" horiz-adv-x="1447" 
d="M1243 0h-250l-706 1094v-750q0 -31 24 -63l211 -277v-4h-510v4l205 275q27 35 27 65v774q0 41 -19 66l-205 252v4h484l696 -1082v738q0 35 -24 65l-209 275v4h510v-4l-207 -275q-27 -37 -27 -65v-1096zM727 1739l334 137l2 -4l-334 -356h-4l-334 356l2 4z" />
    <glyph glyph-name="ncaron" unicode="&#x148;" horiz-adv-x="1259" 
d="M647 860q-90 0 -151 -90v-623q0 -33 18 -49l100 -94v-4h-573v4l100 94q18 16 19 49v709q0 31 -19 51l-100 103v4h455v-217q84 233 325 233q154 0 237 -110t83 -322l-6 -451q0 -31 18 -49l102 -94v-4h-575v4l98 94q18 18 19 47l6 406q0 153 -33 231t-123 78zM641 1315
l334 137l2 -4l-334 -356h-4l-334 356l2 4z" />
    <glyph glyph-name="napostrophe" unicode="&#x149;" horiz-adv-x="1384" 
d="M772 860q-90 0 -151 -90v-623q0 -33 18 -49l100 -94v-4h-573v4l100 94q18 16 19 49v709q0 31 -19 51l-100 103v4h455v-217q84 233 325 233q154 0 237 -110t83 -322l-6 -451q0 -31 18 -49l102 -94v-4h-575v4l98 94q18 18 19 47l6 406q0 153 -33 231t-123 78zM72 1423
q60 -1 99 -43q38 -42 38 -130t-73 -172t-181 -107l-2 4q113 72 113 178q0 18 -19 21q-109 14 -108 120q0 55 36 92q37 37 97 37z" />
    <glyph glyph-name="Eng" unicode="&#x14a;" horiz-adv-x="1423" 
d="M557 182q0 -31 21 -49l135 -129v-4h-682v4l137 129q18 18 18 49v1075q0 31 -18 50l-137 129v4h526v-221q39 109 138 173t227 64q186 0 299 -110t112 -318v-885q1 -268 -153 -411t-412 -144v4q203 51 203 412v983q0 301 -221 301q-52 0 -108 -26t-85 -68v-1012z" />
    <glyph glyph-name="eng" unicode="&#x14b;" horiz-adv-x="1245" 
d="M647 860q-90 0 -151 -90v-623q0 -33 18 -49l100 -94v-4h-573v4l100 94q18 16 19 49v709q0 31 -19 51l-100 103v4h455v-217q84 233 325 233q154 0 237 -110t83 -320v-508q-1 -270 -145 -412t-400 -143v4q209 54 209 412l-2 598q0 153 -33 231t-123 78z" />
    <glyph glyph-name="Omacron" unicode="&#x14c;" horiz-adv-x="1499" 
d="M750 1460q330 0 512 -189t182 -551t-182 -550q-182 -190 -512 -190t-512 189t-182 551t182 550q182 190 512 190zM750 18q136 0 204 166t68 537t-69 535t-203 165q-134 0 -204 -165q-69 -166 -69 -536t69 -536t204 -166zM1034 1638h-575v41h575v-41z" />
    <glyph glyph-name="omacron" unicode="&#x14d;" horiz-adv-x="1169" 
d="M583 -16q-249 0 -394 134q-144 134 -144 388t145 389q144 135 394 135t395 -134t145 -388t-146 -389t-395 -135zM584 991q-84 0 -125 -101t-41 -381t41 -384q41 -105 125 -105t125 102t41 383q0 280 -41 383t-125 103zM868 1212h-575v41h575v-41z" />
    <glyph glyph-name="Obreve" unicode="&#x14e;" horiz-adv-x="1499" 
d="M742 1690q114 0 183 50t74 144h5q8 -61 8 -86q0 -131 -79 -199q-79 -67 -191 -67t-190 68t-77 198q0 45 8 86h4q5 -94 73 -144t182 -50zM750 1460q330 0 512 -189t182 -551t-182 -550q-182 -190 -512 -190t-512 189t-182 551t182 550q182 190 512 190zM750 18
q136 0 204 166t68 537t-69 535t-203 165q-134 0 -204 -165q-69 -166 -69 -536t69 -536t204 -166z" />
    <glyph glyph-name="obreve" unicode="&#x14f;" horiz-adv-x="1169" 
d="M579 1264q115 0 183 50t74 144h4q8 -61 8 -86q0 -130 -79 -198t-191 -68t-189 68q-78 68 -78 198q0 45 8 86h5q4 -94 72 -144t183 -50zM583 -16q-249 0 -394 134q-144 134 -144 388t145 389q144 135 394 135t395 -134t145 -388t-146 -389t-395 -135zM584 991
q-84 0 -125 -101t-41 -381t41 -384q41 -105 125 -105t125 102t41 383q0 280 -41 383t-125 103z" />
    <glyph glyph-name="Ohungarumlaut" unicode="&#x150;" horiz-adv-x="1499" 
d="M750 1460q330 0 512 -189t182 -551t-182 -550q-182 -190 -512 -190t-512 189t-182 551t182 550q182 190 512 190zM750 18q136 0 204 166t68 537t-69 535t-203 165q-134 0 -204 -165q-69 -166 -69 -536t69 -536t204 -166zM1247 1866v-4l-377 -349h-4l117 353h264z
M905 1866v-4l-377 -349h-4l117 353h264z" />
    <glyph glyph-name="ohungarumlaut" unicode="&#x151;" horiz-adv-x="1169" 
d="M583 -16q-249 0 -394 134q-144 134 -144 388t145 389q144 135 394 135t395 -134t145 -388t-146 -389t-395 -135zM584 991q-84 0 -125 -101t-41 -381t41 -384q41 -105 125 -105t125 102t41 383q0 280 -41 383t-125 103zM1081 1440v-4l-376 -349h-5l117 353h264zM739 1440
v-4l-377 -349h-4l117 353h264z" />
    <glyph glyph-name="OE" unicode="&#x152;" horiz-adv-x="2031" 
d="M973 164v1108q0 68 -51 108t-146 41q-160 0 -230 -172q-70 -171 -69 -533q0 -362 72 -530t235 -168q45 0 89 18t63 34q37 33 37 94zM1343 700v-618q-1 -29 7 -35t39 -6h223q45 0 61 29l254 426h6v-496h-905q-127 -20 -248 -20q-352 0 -538 190t-186 548t188 550
q188 193 528 192q143 0 252 -20h885v-490h-4l-267 416q-23 33 -57 33h-205q-24 0 -28 -7t-5 -34v-619h144q33 2 55 29l178 213h4v-522h-4l-178 213q-25 29 -55 28h-144z" />
    <glyph glyph-name="oe" unicode="&#x153;" horiz-adv-x="1765" 
d="M1407 590v6q0 227 -34 311q-33 84 -107 84t-114 -91t-46 -310h301zM584 991q-84 0 -125 -101t-41 -381t41 -383t125 -103t125 101t41 381t-41 383t-125 103zM577 -16q-243 0 -388 134q-144 134 -144 388t145 389q146 135 390 135t360 -139q55 67 146 103q90 36 182 36
q180 0 316 -96t136 -336q0 -25 -2 -45h-612v-29q6 -176 87 -263t206 -87q217 0 309 188h4q-76 -379 -450 -378q-94 0 -182 36t-142 101q-118 -137 -361 -137z" />
    <glyph glyph-name="Racute" unicode="&#x154;" horiz-adv-x="1425" 
d="M557 1360v-647h107q238 0 238 343t-230 343h-78q-25 0 -31 -7t-6 -32zM664 672h-107v-492q0 -31 21 -49l137 -127v-4h-684v4l137 129q18 18 18 49v1075q0 31 -18 50l-137 129v4h790q207 0 341 -90t134 -266t-118 -274q-118 -97 -330 -114v-4l264 -78l186 -442
q14 -37 56 -78l88 -90v-4h-479l-254 647q-12 25 -45 25zM1049 1866v-4l-486 -338l-4 4l162 338h328z" />
    <glyph glyph-name="racute" unicode="&#x155;" horiz-adv-x="876" 
d="M496 172q0 -31 30 -51l201 -117v-4h-686v4l100 94q18 16 19 49v709q0 31 -19 51l-100 103v4h455v-262q28 122 96 200t162 78t145 -67l-113 -322h-4l-161 193q-18 23 -37 10q-39 -29 -88 -119v-553zM840 1440v-4l-486 -338l-4 4l162 338h328z" />
    <glyph glyph-name="Rcommaaccent" unicode="&#x156;" horiz-adv-x="1425" 
d="M557 1360v-647h107q238 0 238 343t-230 343h-78q-25 0 -31 -7t-6 -32zM664 672h-107v-492q0 -31 21 -49l137 -127v-4h-684v4l137 129q18 18 18 49v1075q0 31 -18 50l-137 129v4h790q207 0 341 -90t134 -266t-118 -274q-118 -97 -330 -114v-4l264 -78l186 -442
q14 -37 56 -78l88 -90v-4h-479l-254 647q-12 25 -45 25zM887 -248q0 -88 -73 -171t-181 -107l-2 4q113 72 112 178q0 16 -18 20q-109 14 -109 121q0 55 37 92t97 37t99 -43q38 -43 38 -131z" />
    <glyph glyph-name="rcommaaccent" unicode="&#x157;" horiz-adv-x="876" 
d="M496 172q0 -31 30 -51l201 -117v-4h-686v4l100 94q18 16 19 49v709q0 31 -19 51l-100 103v4h455v-262q28 122 96 200t162 78t145 -67l-113 -322h-4l-161 193q-18 23 -37 10q-39 -29 -88 -119v-553zM467 -248q0 -88 -73 -171t-181 -107l-2 4q113 72 113 178q0 16 -19 20
q-109 14 -108 121q0 55 36 92q37 37 97 37t99 -43q38 -43 38 -131z" />
    <glyph glyph-name="Rcaron" unicode="&#x158;" horiz-adv-x="1425" 
d="M557 1360v-647h107q238 0 238 343t-230 343h-78q-25 0 -31 -7t-6 -32zM664 672h-107v-492q0 -31 21 -49l137 -127v-4h-684v4l137 129q18 18 18 49v1075q0 31 -18 50l-137 129v4h790q207 0 341 -90t134 -266t-118 -274q-118 -97 -330 -114v-4l264 -78l186 -442
q14 -37 56 -78l88 -90v-4h-479l-254 647q-12 25 -45 25zM694 1739l334 137l2 -4l-334 -356h-4l-334 356l2 4z" />
    <glyph glyph-name="rcaron" unicode="&#x159;" horiz-adv-x="876" 
d="M496 172q0 -31 30 -51l201 -117v-4h-686v4l100 94q18 16 19 49v709q0 31 -19 51l-100 103v4h455v-262q28 122 96 200t162 78t145 -67l-113 -322h-4l-161 193q-18 23 -37 10q-39 -29 -88 -119v-553zM485 1315l334 137l2 -4l-334 -356h-4l-333 356l2 4z" />
    <glyph glyph-name="Sacute" unicode="&#x15a;" horiz-adv-x="1159" 
d="M1114 446q0 -210 -158 -338t-398 -128t-437 57v489h4l270 -467q18 -33 47 -37t84 -4q127 0 203 62t76 166q1 104 -63 162t-220 133l-63 30q-156 74 -257 165q-124 112 -124 301q0 191 145 307t365 116t416 -47v-467h-5l-276 443q-16 25 -40 29t-60 3q-111 0 -178 -59
q-67 -60 -67 -158t61 -153q60 -55 200 -123l76 -37q249 -121 324 -217q75 -97 75 -228zM934 1866v-4l-485 -338l-5 4l162 338h328z" />
    <glyph glyph-name="sacute" unicode="&#x15b;" horiz-adv-x="933" 
d="M610 166q0 64 -42 98q-42 35 -154 86l-140 66q-199 94 -198 291q0 147 112 235t300 88t368 -55l-115 -297h-4l-159 285q-18 31 -48 30h-28q-72 0 -119 -37t-47 -103t44 -105t144 -84l131 -58q111 -47 169 -110t59 -172q0 -162 -125 -251t-328 -89t-383 63l113 318h4
l164 -318q12 -27 43 -27h47q88 0 140 41t52 105zM838 1440v-4l-486 -338l-4 4l162 338h328z" />
    <glyph glyph-name="Scircumflex" unicode="&#x15c;" horiz-adv-x="1159" 
d="M1114 446q0 -210 -158 -338t-398 -128t-437 57v489h4l270 -467q18 -33 47 -37t84 -4q127 0 203 62t76 166q1 104 -63 162t-220 133l-63 30q-156 74 -257 165q-124 112 -124 301q0 191 145 307t365 116t416 -47v-467h-5l-276 443q-16 25 -40 29t-60 3q-111 0 -178 -59
q-67 -60 -67 -158t61 -153q60 -55 200 -123l76 -37q249 -121 324 -217q75 -97 75 -228zM913 1524l-2 -2l-333 137l-334 -137l-2 2l333 358h5z" />
    <glyph glyph-name="scircumflex" unicode="&#x15d;" horiz-adv-x="933" 
d="M610 166q0 64 -42 98q-42 35 -154 86l-140 66q-199 94 -198 291q0 147 112 235t300 88t368 -55l-115 -297h-4l-159 285q-18 31 -48 30h-28q-72 0 -119 -37t-47 -103t44 -105t144 -84l131 -58q111 -47 169 -110t59 -172q0 -162 -125 -251t-328 -89t-383 63l113 318h4
l164 -318q12 -27 43 -27h47q88 0 140 41t52 105zM819 1098l-2 -2l-334 137l-333 -137l-3 2l334 358h4z" />
    <glyph glyph-name="Scedilla" unicode="&#x15e;" horiz-adv-x="1159" 
d="M541 -20q-223 0 -420 57v489h4l270 -467q18 -31 47 -35t84 -6q127 0 203 62t76 166q1 104 -63 162t-220 133l-63 30q-156 74 -257 165q-124 112 -124 301q0 191 145 307t365 116t416 -47v-467h-5l-276 443q-17 27 -39 29t-61 3q-111 0 -178 -59q-67 -60 -67 -158t61 -153
q60 -55 200 -123l76 -37q249 -121 325 -219q76 -97 74 -226q0 -202 -147 -330t-392 -136l-14 -103q111 20 189 -31t78 -136t-66 -139t-172 -54t-182 53t-80 141l4 2q18 -59 69 -89t103 -30t91 31q38 31 38 84t-37 84t-88 31t-84 -14l-2 4l143 166h-24z" />
    <glyph glyph-name="scedilla" unicode="&#x15f;" horiz-adv-x="933" 
d="M688 -290q0 -85 -64 -139t-171 -54q-106 0 -183 53q-76 53 -82 141l5 2q18 -59 69 -89q50 -30 104 -30t92 30t38 85t-38 85t-88 30t-85 -14l-2 4l143 170h-2q-197 0 -377 63l113 318h4l164 -318q12 -27 43 -27h47q88 0 140 41t52 105t-42 98q-42 35 -154 86l-140 66
q-199 94 -198 291q0 147 112 235t300 88t368 -55l-115 -297h-4l-159 285q-18 31 -48 30h-28q-72 0 -119 -37t-47 -103t44 -105t144 -84l131 -58q111 -47 169 -110t59 -172q0 -160 -121 -248t-326 -92l-14 -107q110 20 188 -31t78 -136z" />
    <glyph glyph-name="Scaron" unicode="&#x160;" horiz-adv-x="1159" 
d="M1114 446q0 -210 -158 -338t-398 -128t-437 57v489h4l270 -467q18 -33 47 -37t84 -4q127 0 203 62t76 166q1 104 -63 162t-220 133l-63 30q-156 74 -257 165q-124 112 -124 301q0 191 145 307t365 116t416 -47v-467h-5l-276 443q-16 25 -40 29t-60 3q-111 0 -178 -59
q-67 -60 -67 -158t61 -153q60 -55 200 -123l76 -37q249 -121 324 -217q75 -97 75 -228zM578 1739l333 137l2 -4l-333 -356h-5l-333 356l2 4z" />
    <glyph glyph-name="scaron" unicode="&#x161;" horiz-adv-x="933" 
d="M610 166q0 64 -42 98q-42 35 -154 86l-140 66q-199 94 -198 291q0 147 112 235t300 88t368 -55l-115 -297h-4l-159 285q-18 31 -48 30h-28q-72 0 -119 -37t-47 -103t44 -105t144 -84l131 -58q111 -47 169 -110t59 -172q0 -162 -125 -251t-328 -89t-383 63l113 318h4
l164 -318q12 -27 43 -27h47q88 0 140 41t52 105zM483 1315l334 137l2 -4l-334 -356h-4l-334 356l3 4z" />
    <glyph glyph-name="Tcommaaccent" unicode="&#x162;" horiz-adv-x="1298" 
d="M834 197q0 -33 22 -54l152 -139v-4h-717v4l151 139q23 23 23 54v1202h-117q-25 0 -34 -5t-19 -28l-252 -479h-4v553h1221v-553h-5l-251 479q-10 23 -20 28t-34 5h-116v-1202zM778 -254q0 -88 -72 -171t-182 -107l-2 4q113 72 113 178q0 18 -19 20q-109 14 -108 121
q0 55 37 92t97 37t98 -43t38 -131z" />
    <glyph glyph-name="tcommaaccent" unicode="&#x163;" horiz-adv-x="692" 
d="M709 1014v-41h-252v-684q1 -70 29 -108t79 -38q78 0 119 76l4 -2q-18 -98 -91 -166t-208 -67q-266 0 -266 280v709h-113v41h92q43 0 64 22l287 322h4v-344h252zM510 -248q0 -88 -73 -171t-181 -107l-2 4q113 72 113 178q0 16 -19 20q-109 14 -108 121q0 55 36 92
q38 37 98 37t98 -43t38 -131z" />
    <glyph glyph-name="Tcaron" unicode="&#x164;" horiz-adv-x="1298" 
d="M834 197q0 -33 22 -54l152 -139v-4h-717v4l151 139q23 23 23 54v1202h-117q-25 0 -34 -5t-19 -28l-252 -479h-4v553h1221v-553h-5l-251 479q-10 23 -20 28t-34 5h-116v-1202zM651 1739l334 137l2 -4l-334 -356h-4l-334 356l2 4z" />
    <glyph glyph-name="tcaron" unicode="&#x165;" horiz-adv-x="692" 
d="M709 1014v-41h-252v-684q1 -70 29 -108t79 -38q78 0 119 76l4 -2q-18 -98 -91 -166t-208 -67q-266 0 -266 280v709h-113v41h92q43 0 64 22l287 322h4v-344h252zM567 1440h234l-248 -400h-4z" />
    <glyph glyph-name="Tbar" unicode="&#x166;" horiz-adv-x="1304" 
d="M1096 684h-260v-487q0 -33 22 -54l152 -139v-4h-717v4l151 139q23 23 23 54v487h-256v39h256v676h-117q-25 0 -34 -5t-19 -28l-252 -479h-4v553h1221v-553h-5l-251 479q-10 23 -20 28t-34 5h-116v-676h260v-39z" />
    <glyph glyph-name="tbar" unicode="&#x167;" horiz-adv-x="716" 
d="M719 719v-39h-252v-391q0 -70 29 -108t79 -38q78 0 119 76l4 -2q-18 -98 -91 -166t-208 -67q-266 0 -266 280v416h-113v39h113v254h-113v41h93q43 0 63 22l287 322h4v-344h252v-41h-252v-254h252z" />
    <glyph glyph-name="Utilde" unicode="&#x168;" horiz-adv-x="1378" 
d="M1075 1835q0 -138 -50 -198q-51 -60 -115 -60t-158 50t-140 50q-98 0 -131 -100h-4v49q0 94 48 152q47 58 113 57q66 0 160 -50t140 -50q98 0 133 100h4zM1196 524q0 -266 -112 -405t-388 -139q-274 0 -406 118t-132 391v766q0 31 -21 50l-123 131v4h662v-4l-127 -131
q-20 -18 -21 -50v-743q0 -242 79 -348t231 -106t233 116q82 117 82 346v576q0 37 -27 67l-200 273v4h497v-4l-200 -273q-27 -31 -27 -67v-572z" />
    <glyph glyph-name="utilde" unicode="&#x169;" horiz-adv-x="1218" 
d="M885 1409q0 -138 -50 -198q-51 -60 -115 -60t-158 50t-140 50q-98 0 -131 -100h-4v49q0 94 48 152q47 58 113 57q66 0 160 -50t140 -50q98 0 133 100h4zM1079 1014v-858q0 -35 19 -52l102 -100v-4h-457v219q-39 -109 -121 -172t-192 -63q-152 0 -232 108t-79 318
q0 117 4 448q0 31 -19 49l-100 103v4h453l-2 -271v-286q1 -150 31 -228q30 -77 112 -77t145 92v612q0 31 -18 51l-100 103v4h454z" />
    <glyph glyph-name="Umacron" unicode="&#x16a;" horiz-adv-x="1378" 
d="M1057 1638h-576v41h576v-41zM1196 524q0 -266 -112 -405t-388 -139q-274 0 -406 118t-132 391v766q0 31 -21 50l-123 131v4h662v-4l-127 -131q-20 -18 -21 -50v-743q0 -242 79 -348t231 -106t233 116q82 117 82 346v576q0 37 -27 67l-200 273v4h497v-4l-200 -273
q-27 -31 -27 -67v-572z" />
    <glyph glyph-name="umacron" unicode="&#x16b;" horiz-adv-x="1218" 
d="M866 1212h-575v41h575v-41zM1079 1014v-858q0 -35 19 -52l102 -100v-4h-457v219q-39 -109 -121 -172t-192 -63q-152 0 -232 108t-79 318q0 117 4 448q0 31 -19 49l-100 103v4h453l-2 -271v-286q1 -150 31 -228q30 -77 112 -77t145 92v612q0 31 -18 51l-100 103v4h454z
" />
    <glyph glyph-name="Ubreve" unicode="&#x16c;" horiz-adv-x="1378" 
d="M765 1690q115 0 183 50t74 144h4q8 -61 8 -86q0 -131 -79 -199q-79 -67 -191 -67t-189 68q-78 68 -77 198q0 45 8 86h4q4 -94 72 -144t183 -50zM1196 524q0 -266 -112 -405t-388 -139q-274 0 -406 118t-132 391v766q0 31 -21 50l-123 131v4h662v-4l-127 -131
q-20 -18 -21 -50v-743q0 -242 79 -348t231 -106t233 116q82 117 82 346v576q0 37 -27 67l-200 273v4h497v-4l-200 -273q-27 -31 -27 -67v-572z" />
    <glyph glyph-name="ubreve" unicode="&#x16d;" horiz-adv-x="1218" 
d="M574 1264q114 0 183 50t74 144h5q8 -61 8 -86q0 -130 -79 -198t-191 -68t-190 68t-77 198q0 45 8 86h4q5 -94 73 -144t182 -50zM1079 1014v-858q0 -35 19 -52l102 -100v-4h-457v219q-39 -109 -121 -172t-192 -63q-152 0 -232 108t-79 318q0 117 4 448q0 31 -19 49
l-100 103v4h453l-2 -271v-286q1 -150 31 -228q30 -77 112 -77t145 92v612q0 31 -18 51l-100 103v4h454z" />
    <glyph glyph-name="Uring" unicode="&#x16e;" horiz-adv-x="1378" 
d="M1196 524q0 -266 -112 -405t-388 -139q-274 0 -406 118t-132 391v766q0 31 -21 50l-123 131v4h662v-4l-127 -131q-20 -18 -21 -50v-743q0 -242 79 -348t231 -106t233 116q82 117 82 346v576q0 37 -27 67l-200 273v4h497v-4l-200 -273q-27 -31 -27 -67v-572zM924 1720
q0 66 -43 108t-110 42t-109 -42t-41 -106q0 -64 45 -107q44 -44 108 -44q64 -1 107 41t43 108zM967 1720q1 -84 -55 -137t-136 -53t-139 55t-59 135t55 135t139 55t140 -52q56 -54 55 -138z" />
    <glyph glyph-name="uring" unicode="&#x16f;" horiz-adv-x="1218" 
d="M1079 1014v-858q0 -35 19 -52l102 -100v-4h-457v219q-39 -109 -121 -172t-192 -63q-152 0 -232 108t-79 318q0 117 4 448q0 31 -19 49l-100 103v4h453l-2 -271v-286q1 -150 31 -228q30 -77 112 -77t145 92v612q0 31 -18 51l-100 103v4h454zM733 1294q0 66 -43 108
t-108 42q-64 0 -108 -42t-44 -106t45 -107q45 -44 109 -44q64 -1 106 41t43 108zM387 1294q0 80 55 136q56 56 140 55q84 1 139 -53t55 -138t-55 -137t-135 -53t-140 55q-59 55 -59 135z" />
    <glyph glyph-name="Uhungarumlaut" unicode="&#x170;" horiz-adv-x="1378" 
d="M1268 1866v-4l-377 -349h-4l117 353h264zM926 1866v-4l-377 -349h-4l117 353h264zM1196 524q0 -266 -112 -405t-388 -139q-274 0 -406 118t-132 391v766q0 31 -21 50l-123 131v4h662v-4l-127 -131q-20 -18 -21 -50v-743q0 -242 79 -348t231 -106t233 116q82 117 82 346
v576q0 37 -27 67l-200 273v4h497v-4l-200 -273q-27 -31 -27 -67v-572z" />
    <glyph glyph-name="uhungarumlaut" unicode="&#x171;" horiz-adv-x="1218" 
d="M1079 1440v-4l-377 -349h-4l117 353h264zM737 1440v-4l-377 -349h-4l117 353h264zM1079 1014v-858q0 -35 19 -52l102 -100v-4h-457v219q-39 -109 -121 -172t-192 -63q-152 0 -232 108t-79 318q0 117 4 448q0 31 -19 49l-100 103v4h453l-2 -271v-286q1 -150 31 -228
q30 -77 112 -77t145 92v612q0 31 -18 51l-100 103v4h454z" />
    <glyph glyph-name="Uogonek" unicode="&#x172;" horiz-adv-x="1378" 
d="M688 -483q-92 0 -158 55t-66 146q0 92 70 160q68 68 181 102q-293 0 -425 118t-132 391v766q0 31 -21 50l-123 131v4h662v-4l-127 -131q-20 -18 -21 -50v-743q0 -242 79 -348t231 -106t233 116q82 117 82 346v576q0 37 -27 67l-200 273v4h497v-4l-200 -273
q-27 -37 -27 -67v-572q0 -256 -103 -394t-337 -148q-125 -63 -125 -191q0 -76 41 -118t108 -42q102 0 164 93l4 -3q-65 -204 -260 -204z" />
    <glyph glyph-name="uogonek" unicode="&#x173;" horiz-adv-x="1218" 
d="M719 -483q-92 0 -158 56q-65 55 -65 151t71 175q72 79 176 101v219q-39 -109 -121 -172t-192 -63q-152 0 -232 108t-79 318q0 117 4 448q0 31 -19 49l-100 103v4h453l-2 -271v-286q1 -150 31 -228q30 -77 112 -77t145 92v612q0 31 -18 51l-100 103v4h454v-858
q0 -35 19 -52l102 -100v-4h-409q-129 -43 -129 -209q0 -76 40 -118t109 -42q102 0 164 93l4 -3q-65 -204 -260 -204z" />
    <glyph glyph-name="Wcircumflex" unicode="&#x174;" horiz-adv-x="2080" 
d="M-16 1440h606v-4l-98 -138q-14 -20 -5 -53l314 -1016l213 666l-99 319q-12 39 -34 78l-80 144v4h596v-4l-99 -138q-16 -25 -6 -53l307 -1014l269 867q12 39 -15 73l-184 265v4h485v-4l-194 -260q-37 -47 -49 -89l-336 -1087h-287l-252 819l-260 -819h-287l-378 1214
q-10 35 -41 84l-86 138v4zM1427 1524l-2 -2l-333 137l-334 -137l-2 2l334 358h4z" />
    <glyph glyph-name="wcircumflex" unicode="&#x175;" horiz-adv-x="1583" 
d="M-18 1014h510v-4l-70 -117q-14 -25 -6 -51l202 -621l142 410l-49 147q-23 68 -43 109l-64 123v4h510v-4l-70 -117q-14 -25 -6 -51l205 -619l156 461q10 31 9 41t-15 37l-119 248v4h350v-4l-139 -240q-33 -53 -45 -92l-234 -678h-229l-197 569l-196 -569h-232l-264 778
q-29 80 -43 109l-63 123v4zM1186 1098l-2 -2l-334 137l-334 -137l-2 2l334 358h4z" />
    <glyph glyph-name="Ycircumflex" unicode="&#x176;" horiz-adv-x="1310" 
d="M1063 1524l-2 -2l-334 137l-334 -137l-2 2l334 358h4zM850 547v-350q0 -33 22 -54l150 -139v-4h-715v4l152 139q20 20 20 54v315q0 31 -12 51l-338 647q-27 51 -55 88l-103 138v4h688v-4l-122 -142q-20 -25 -9 -49l299 -602l236 481q10 25 9 34t-15 30l-176 248v4h512v-4
l-232 -248q-33 -33 -55 -76l-240 -487q-16 -33 -16 -78z" />
    <glyph glyph-name="ycircumflex" unicode="&#x177;" horiz-adv-x="974" 
d="M879 1098l-2 -2l-334 137l-334 -137l-2 2l334 358h4zM134 -483q-70 0 -118 20l76 359h4l203 -201q15 -17 27 -17t40 41t66 125l12 33l-381 967q-10 27 -30 67l-56 99v4h531v-4l-82 -113q-14 -20 -4 -47l207 -574l166 404q10 27 11 38t-11 38l-125 254v4h350v-4l-133 -230
q-26 -43 -51 -106l-263 -635q-80 -190 -176 -340q-117 -182 -263 -182z" />
    <glyph glyph-name="Ydieresis" unicode="&#x178;" horiz-adv-x="1310" 
d="M791 1699q0 58 40 97q41 39 99 39t100 -39q41 -39 41 -97t-41 -97t-99 -39t-100 39q-40 39 -40 97zM383 1699q0 58 41 97t99 39q57 0 99 -39t42 -97t-41 -97t-99 -39t-100 39q-41 39 -41 97zM850 547v-350q0 -33 22 -54l150 -139v-4h-715v4l152 139q20 20 20 54v315
q0 31 -12 51l-338 647q-27 51 -55 88l-103 138v4h688v-4l-122 -142q-20 -25 -9 -49l299 -602l236 481q10 25 9 34t-15 30l-176 248v4h512v-4l-232 -248q-33 -33 -55 -76l-240 -487q-16 -33 -16 -78z" />
    <glyph glyph-name="Zacute" unicode="&#x179;" horiz-adv-x="1284" 
d="M1192 0h-1169v4l811 1395h-375q-27 0 -37 -4t-19 -21l-292 -483h-5v549h1147v-4l-813 -1395h396q26 0 36 4t19 21l297 481h4v-547zM1038 1866v-4l-485 -338l-4 4l162 338h327z" />
    <glyph glyph-name="zacute" unicode="&#x17a;" horiz-adv-x="972" 
d="M27 0v4l546 971h-184q-27 0 -35 -4t-22 -27l-246 -358h-8v428h862v-4l-530 -971h194q27 0 35 4t23 27l251 374h7l-25 -444h-868zM870 1440v-4l-485 -338l-4 4l162 338h327z" />
    <glyph glyph-name="Zdotaccent" unicode="&#x17b;" horiz-adv-x="1284" 
d="M526 1706q0 66 46 106t112 41q66 0 111 -41q45 -42 45 -108t-45 -105t-111 -39t-112 41q-46 39 -46 105zM1192 0h-1169v4l811 1395h-375q-27 0 -37 -4t-19 -21l-292 -483h-5v549h1147v-4l-813 -1395h396q26 0 36 4t19 21l297 481h4v-547z" />
    <glyph glyph-name="zdotaccent" unicode="&#x17c;" horiz-adv-x="972" 
d="M356 1280q0 66 46 106t112 41q66 0 111 -41q45 -42 45 -108t-45 -104t-111 -39q-66 0 -112 40q-46 39 -46 105zM27 0v4l546 971h-184q-27 0 -35 -4t-22 -27l-246 -358h-8v428h862v-4l-530 -971h194q27 0 35 4t23 27l251 374h7l-25 -444h-868z" />
    <glyph glyph-name="Zcaron" unicode="&#x17d;" horiz-adv-x="1284" 
d="M1192 0h-1169v4l811 1395h-375q-27 0 -37 -4t-19 -21l-292 -483h-5v549h1147v-4l-813 -1395h396q26 0 36 4t19 21l297 481h4v-547zM684 1739l334 137l2 -4l-334 -356h-4l-334 356l2 4z" />
    <glyph glyph-name="zcaron" unicode="&#x17e;" horiz-adv-x="972" 
d="M27 0v4l546 971h-184q-27 0 -35 -4t-22 -27l-246 -358h-8v428h862v-4l-530 -971h194q27 0 35 4t23 27l251 374h7l-25 -444h-868zM514 1315l334 137l2 -4l-334 -356h-4l-334 356l2 4z" />
    <glyph glyph-name="florin" unicode="&#x192;" horiz-adv-x="972" 
d="M119 596v41h184v371q0 240 100 346q99 106 277 106t342 -45l-129 -307h-4l-144 289q-11 27 -43 27q-64 -1 -65 -181v-606h223v-41h-223v-590q0 -256 -99 -372q-100 -116 -276 -116t-344 44l129 307h4l142 -287q14 -29 38 -28q45 0 59 39q13 40 13 139v864h-184z" />
    <glyph glyph-name="uni01B5" unicode="&#x1b5;" horiz-adv-x="1284" 
d="M1120 709h-291l-389 -668h396q26 0 36 4t19 21l297 481h4v-547h-1169v4l409 705h-282v39h305l379 651h-375q-27 0 -37 -4t-19 -21l-292 -483h-5v549h1147v-4l-401 -688h268v-39z" />
    <glyph glyph-name="uni01B6" unicode="&#x1b6;" horiz-adv-x="974" 
d="M864 502h-202l-252 -463h194q27 0 35 4t23 27l251 374h7l-25 -444h-868v4l280 498h-174v39h195l245 434h-184q-27 0 -35 -4t-22 -27l-246 -358h-8v428h862v-4l-256 -469h180v-39z" />
    <glyph glyph-name="Aringacute" unicode="&#x1fa;" horiz-adv-x="1343" 
d="M528 1206l-215 -663h422zM446 0h-485v4l197 262q33 43 47 86l284 873q10 29 9 40q-2 11 -21 31l-121 140v4h482l383 -1215q10 -35 41 -84l86 -137v-4h-607v4l99 137q14 20 4 56l-96 305h-447l-53 -164q-8 -25 -5 -35t21 -37l182 -262v-4zM637 1552q65 0 107 28t42 78
t-43 79t-108 29t-109 -29q-43 -29 -43 -78t45 -78t109 -29zM928 2034v-4l-326 -195q-82 -45 -113 -84q57 53 143 53t141 -40q56 -40 56 -106t-56 -107q-56 -40 -135 -40t-138 42q-102 72 -31 192l162 289h297z" />
    <glyph glyph-name="aringacute" unicode="&#x1fb;" 
d="M524 518q-78 0 -122 -59t-44 -147t34 -133q34 -46 96 -46t108 72v2l4 299q-37 12 -76 12zM975 133q39 0 57 37h4q2 -35 -16 -74q-55 -113 -201 -112q-92 0 -155 52t-68 146q-31 -90 -106 -144q-76 -54 -184 -54t-188 76t-79 216q0 138 103 222q104 84 242 84t216 -56
l4 219v11q0 236 -149 235q-31 0 -39 -4t-17 -20l-166 -308h-4l-129 293q217 78 424 78t308 -95t102 -319l-14 -364q-6 -119 55 -119zM506 1116q64 0 108 29t43 79q0 50 -44 78t-108 28q-65 0 -109 -30t-44 -78t45 -77t109 -29zM799 1597v-4l-328 -192q-86 -51 -111 -84
q60 51 144 51t139 -40t55 -106t-55 -106q-55 -39 -135 -39t-139 41q-103 72 -31 193l164 286h297z" />
    <glyph glyph-name="AEacute" unicode="&#x1fc;" horiz-adv-x="1939" 
d="M881 541v729l-449 -729h449zM1843 504v-504h-1118v4l135 129q20 18 21 49v320h-473l-97 -158q-20 -33 -20 -47t16 -45l139 -248v-4h-503v4l235 244q66 68 82 94l545 887q14 25 13 33t-15 24l-141 150v4h1161v-496h-4l-267 422q-20 33 -57 33h-211q-23 0 -28 -7t-5 -34
v-617h138q31 2 53 29l186 213h4v-522h-4l-186 213q-25 27 -53 26h-138v-618q0 -27 5 -34t28 -7h238q39 0 59 29l254 434h8zM1556 1868v-4l-485 -338l-4 4l162 338h327z" />
    <glyph glyph-name="aeacute" unicode="&#x1fd;" horiz-adv-x="1605" 
d="M502 131q102 0 162 94q-61 113 -62 267v14q-37 12 -78 12q-78 0 -122 -58t-44 -146t40 -135q40 -48 104 -48zM1106 991q-158 0 -162 -401h303q4 229 -30 315q-35 86 -111 86zM496 1030q184 0 280 -94l25 -29q127 123 308 123t308 -92q66 -47 105 -134t39 -206
q0 -22 -2 -45h-615v-6q0 -189 83 -281t212 -92q215 0 309 188h4q-76 -379 -450 -378q-135 0 -250 57t-180 170q-20 -88 -106 -158q-86 -69 -221 -69q-134 0 -220 76t-86 217t103 223q104 82 236 82t222 -54l4 226q0 236 -151 235q-29 0 -36 -4t-18 -20l-166 -306h-4
l-131 297q214 74 398 74zM1217 1440v-4l-486 -338l-4 4l162 338h328z" />
    <glyph glyph-name="Oslashacute" unicode="&#x1fe;" horiz-adv-x="1499" 
d="M1120 1866v-4l-485 -338l-4 4l162 338h327zM748 18q274 0 274 657q0 325 -41 492l-434 -985q64 -164 201 -164zM477 747q0 -345 51 -511l437 987q-63 199 -215 198q-273 0 -273 -674zM750 1460q162 0 297 -51l83 188l35 -14l-84 -188q362 -160 363 -676q0 -359 -182 -549
t-512 -190q-152 0 -275 40l-82 -186l-37 14l82 185q-184 74 -283 248t-100 438q1 361 183 551t512 190z" />
    <glyph glyph-name="oslashacute" unicode="&#x1ff;" horiz-adv-x="1169" 
d="M938 1440v-4l-485 -338l-4 4l161 338h328zM750 496q0 182 -17 292l-282 -638q37 -127 133 -127q57 0 91 36q75 82 75 437zM584 991q-55 0 -89 -37q-75 -82 -75 -446q0 -190 16 -287l281 639q-35 131 -133 131zM1124 506q0 -256 -145 -389t-395 -133q-109 0 -197 24
l-76 -174l-39 16l74 170q-303 109 -303 488q0 256 145 389t396 133q109 0 196 -24l78 172l39 -17l-76 -170q303 -109 303 -485z" />
    <glyph glyph-name="Scommaaccent" unicode="&#x218;" horiz-adv-x="1159" 
d="M1114 446q0 -210 -158 -338t-398 -128t-437 57v489h4l270 -467q18 -33 47 -37t84 -4q127 0 203 62t76 166q1 104 -63 162t-220 133l-63 30q-156 74 -257 165q-124 112 -124 301q0 191 145 307t365 116t416 -47v-467h-5l-276 443q-16 25 -40 29t-60 3q-111 0 -178 -59
q-67 -60 -67 -158t61 -153q60 -55 200 -123l76 -37q249 -121 324 -217q75 -97 75 -228zM578 -74q60 0 98 -43t39 -131q0 -88 -73 -171t-181 -107l-2 4q113 72 112 178q0 16 -18 20q-109 14 -109 121q0 55 37 92t97 37z" />
    <glyph glyph-name="scommaaccent" unicode="&#x219;" horiz-adv-x="933" 
d="M610 166q0 64 -42 98q-42 35 -154 86l-140 66q-199 94 -198 291q0 147 112 235t300 88t368 -55l-115 -297h-4l-159 285q-18 31 -48 30h-28q-72 0 -119 -37t-47 -103t44 -105t144 -84l131 -58q111 -47 169 -110t59 -172q0 -162 -125 -251t-328 -89t-383 63l113 318h4
l164 -318q12 -27 43 -27h47q88 0 140 41t52 105zM612 -254q0 -88 -72 -171t-182 -107l-2 4q113 72 113 178q0 18 -18 20q-109 14 -109 121q0 55 37 92t97 37t98 -43t38 -131z" />
    <glyph glyph-name="uni021A" unicode="&#x21a;" horiz-adv-x="1298" 
d="M834 197q0 -33 22 -54l152 -139v-4h-717v4l151 139q23 23 23 54v1202h-117q-25 0 -34 -5t-19 -28l-252 -479h-4v553h1221v-553h-5l-251 479q-10 23 -20 28t-34 5h-116v-1202zM778 -254q0 -88 -72 -171t-182 -107l-2 4q113 72 113 178q0 18 -19 20q-109 14 -108 121
q0 55 37 92t97 37t98 -43t38 -131z" />
    <glyph glyph-name="uni021B" unicode="&#x21b;" horiz-adv-x="692" 
d="M709 1014v-41h-252v-684q1 -70 29 -108t79 -38q78 0 119 76l4 -2q-18 -98 -91 -166t-208 -67q-266 0 -266 280v709h-113v41h92q43 0 64 22l287 322h4v-344h252zM510 -248q0 -88 -73 -171t-181 -107l-2 4q113 72 113 178q0 16 -19 20q-109 14 -108 121q0 55 36 92
q38 37 98 37t98 -43t38 -131z" />
    <glyph glyph-name="dotlessj" unicode="&#x237;" horiz-adv-x="591" 
d="M150 -39v895q0 31 -19 51l-100 103v4h454v-938q0 -256 -131 -398t-372 -143l-39 2v4q207 41 207 420z" />
    <glyph glyph-name="circumflex" unicode="&#x2c6;" horiz-adv-x="876" 
d="M774 1098l-2 -2l-334 137l-334 -137l-2 2l334 358h4z" />
    <glyph glyph-name="caron" unicode="&#x2c7;" horiz-adv-x="876" 
d="M438 1319l334 137l2 -4l-334 -356h-4l-334 356l2 4z" />
    <glyph glyph-name="uni02C9" unicode="&#x2c9;" horiz-adv-x="827" 
d="M688 1212h-573v41h573v-41z" />
    <glyph glyph-name="breve" unicode="&#x2d8;" horiz-adv-x="743" 
d="M372 1264q114 0 182 50t75 144h4q8 -61 8 -86q0 -130 -79 -198q-78 -68 -190 -68t-190 68t-78 198q0 45 9 86h4q5 -94 73 -144t182 -50z" />
    <glyph glyph-name="dotaccent" unicode="&#x2d9;" horiz-adv-x="518" 
d="M102 1280q0 66 46 106t112 41q66 0 111 -41q45 -42 45 -108t-45 -104t-111 -39q-66 0 -112 40q-46 39 -46 105z" />
    <glyph glyph-name="ring" unicode="&#x2da;" horiz-adv-x="593" 
d="M449 1294q0 66 -43 108t-110 42t-109 -42t-42 -106t45 -107q45 -44 109 -44q64 -1 107 41t43 108zM297 1485q83 1 139 -53t56 -138t-56 -137t-135 -53q-80 0 -139 55q-60 55 -60 135t56 136t139 55z" />
    <glyph glyph-name="ogonek" unicode="&#x2db;" horiz-adv-x="688" 
d="M268 -209q0 -76 41 -118t109 -42q102 0 164 93l4 -3q-70 -205 -260 -204q-92 0 -158 56q-66 55 -66 153t85 174t225 104l2 -4q-146 -64 -146 -209z" />
    <glyph glyph-name="tilde" unicode="&#x2dc;" horiz-adv-x="804" 
d="M702 1409q0 -138 -50 -198t-114 -60t-159 50q-94 50 -139 50q-98 0 -131 -100h-5v49q0 94 48 152t114 57q66 0 160 -50t139 -50q98 0 133 100h4z" />
    <glyph glyph-name="hungarumlaut" unicode="&#x2dd;" horiz-adv-x="927" 
d="M825 1440v-4l-376 -349h-5l117 353h264zM483 1440v-4l-377 -349h-4l117 353h264z" />
    <glyph glyph-name="uni0394" unicode="&#x394;" horiz-adv-x="1368" 
d="M930 41l-377 1163l-432 -1163h809zM381 1440h483l467 -1440h-1270l453 1221q12 31 10 44t-22 35l-121 136v4z" />
    <glyph glyph-name="uni03A9" unicode="&#x3a9;" horiz-adv-x="1558" 
d="M779 1421q-275 0 -275 -671q0 -451 215 -541v-209h-621l-39 477h4l275 -401q16 -25 30 -31t52 -6h258v141q-262 35 -430 214t-168 421q0 301 185 473t515 172t514 -172t185 -473q0 -244 -168 -422t-428 -213v-141h256q39 0 52 6t32 31l272 401h4l-37 -477h-620v209
q213 90 213 541q-1 671 -276 671z" />
    <glyph glyph-name="uni03BC" unicode="&#x3bc;" horiz-adv-x="1220" 
d="M1079 1014v-862q0 -31 19 -50l102 -98v-4h-457v219q-27 -78 -79 -132q-52 -55 -102 -69q-52 -14 -109 -18v-303q0 -19 5 -29t25 -24l152 -107v-4h-635v4l104 94q18 18 19 50v1181q0 31 -19 49l-100 99v4h449v-604q-1 -139 31 -205t116 -66t143 107v614q0 31 -18 49
l-100 101v4h454z" />
    <glyph glyph-name="pi" unicode="&#x3c0;" horiz-adv-x="1296" 
d="M1137 147q0 -33 18 -49l98 -94v-4h-571v4l100 94q18 18 19 49v826h-305v-826q0 -33 18 -49l100 -94v-4h-573v4l100 94q18 16 19 49v709q0 31 -19 51l-100 103v4h1212v-4l-98 -103q-18 -20 -18 -51v-709z" />
    <glyph glyph-name="Wgrave" unicode="&#x1e80;" horiz-adv-x="2080" 
d="M743 1866h328l162 -338l-2 -2l-488 336v4zM-16 1440h606v-4l-98 -138q-14 -20 -5 -53l314 -1016l213 666l-99 319q-12 39 -34 78l-80 144v4h596v-4l-99 -138q-16 -25 -6 -53l307 -1014l269 867q12 39 -15 73l-184 265v4h485v-4l-194 -260q-37 -47 -49 -89l-336 -1087
h-287l-252 819l-260 -819h-287l-378 1214q-10 35 -41 84l-86 138v4z" />
    <glyph glyph-name="wgrave" unicode="&#x1e81;" horiz-adv-x="1583" 
d="M502 1440h327l162 -338l-2 -2l-487 336v4zM-18 1014h510v-4l-70 -117q-14 -25 -6 -51l202 -621l142 410l-49 147q-23 68 -43 109l-64 123v4h510v-4l-70 -117q-14 -25 -6 -51l205 -619l156 461q10 31 9 41t-15 37l-119 248v4h350v-4l-139 -240q-33 -53 -45 -92l-234 -678
h-229l-197 569l-196 -569h-232l-264 778q-29 80 -43 109l-63 123v4z" />
    <glyph glyph-name="Wacute" unicode="&#x1e82;" horiz-adv-x="2080" 
d="M-16 1440h606v-4l-98 -138q-14 -20 -5 -53l314 -1016l213 666l-99 319q-12 39 -34 78l-80 144v4h596v-4l-99 -138q-16 -25 -6 -53l307 -1014l269 867q12 39 -15 73l-184 265v4h485v-4l-194 -260q-37 -47 -49 -89l-336 -1087h-287l-252 819l-260 -819h-287l-378 1214
q-10 35 -41 84l-86 138v4zM1448 1866v-4l-485 -338l-5 4l162 338h328z" />
    <glyph glyph-name="wacute" unicode="&#x1e83;" horiz-adv-x="1583" 
d="M-18 1014h510v-4l-70 -117q-14 -25 -6 -51l202 -621l142 410l-49 147q-23 68 -43 109l-64 123v4h510v-4l-70 -117q-14 -25 -6 -51l205 -619l156 461q10 31 9 41t-15 37l-119 248v4h350v-4l-139 -240q-33 -53 -45 -92l-234 -678h-229l-197 569l-196 -569h-232l-264 778
q-29 80 -43 109l-63 123v4zM1204 1440v-4l-485 -338l-4 4l162 338h327z" />
    <glyph glyph-name="Wdieresis" unicode="&#x1e84;" horiz-adv-x="2080" 
d="M-16 1440h606v-4l-98 -138q-14 -20 -5 -53l314 -1016l213 666l-99 319q-12 39 -34 78l-80 144v4h596v-4l-99 -138q-16 -25 -6 -53l307 -1014l269 867q12 39 -15 73l-184 265v4h485v-4l-194 -260q-37 -47 -49 -89l-336 -1087h-287l-252 819l-260 -819h-287l-378 1214
q-10 35 -41 84l-86 138v4zM1155 1699q0 58 41 97t99 39q57 0 99 -39t42 -97t-41 -97t-99 -39t-100 39q-41 39 -41 97zM748 1699q0 58 40 97q42 39 100 39t99 -39t41 -97t-41 -97t-99 -39t-100 39q-40 39 -40 97z" />
    <glyph glyph-name="wdieresis" unicode="&#x1e85;" horiz-adv-x="1583" 
d="M-18 1014h510v-4l-70 -117q-14 -25 -6 -51l202 -621l142 410l-49 147q-23 68 -43 109l-64 123v4h510v-4l-70 -117q-14 -25 -6 -51l205 -619l156 461q10 31 9 41t-15 37l-119 248v4h350v-4l-139 -240q-33 -53 -45 -92l-234 -678h-229l-197 569l-196 -569h-232l-264 778
q-29 80 -43 109l-63 123v4zM913 1273q0 58 41 97q42 39 100 39t99 -39t41 -97t-41 -97t-99 -39t-100 39q-41 39 -41 97zM506 1273q0 58 41 97t99 39t99 -39t41 -97t-41 -97t-99 -39t-99 39t-41 97z" />
    <glyph glyph-name="uni1E8A" unicode="&#x1e8a;" horiz-adv-x="1454" 
d="M629 1706q0 66 46 106q45 40 111 41q66 0 111 -41q45 -42 45 -108t-45 -105t-111 -39t-112 41q-46 39 -45 105zM1466 0h-696v4l96 125q20 25 2 53l-252 391l-198 -268q-16 -23 -18 -34t10 -29l149 -238v-4h-565v4l287 225q70 57 108 109l203 272l-387 604q-25 37 -62 74
l-133 148v4h697v-4l-97 -125q-20 -23 -2 -54l230 -358l176 236q18 23 19 33t-11 30l-152 238v4h568v-4l-287 -226q-70 -55 -111 -108l-178 -240l410 -637q14 -20 61 -73l133 -148v-4z" />
    <glyph glyph-name="uni1E8B" unicode="&#x1e8b;" horiz-adv-x="1034" 
d="M387 1280q0 66 46 106t112 41q67 0 111 -41q44 -42 44 -108t-45 -104t-111 -39q-66 0 -111 40q-46 39 -46 105zM1063 0h-559v4l78 94q16 20 -2 52l-158 233l-127 -158q-17 -23 -19 -31t13 -30l104 -160v-4h-411v4l217 182q47 39 86 88l114 142l-284 426q-27 39 -62 78
l-76 90v4h558v-4l-78 -97q-18 -20 2 -49l149 -223l117 147q16 23 18 31t-12 29l-104 162v4h413v-4l-219 -183q-39 -33 -86 -88l-104 -131l295 -440q14 -20 57 -72l80 -92v-4z" />
    <glyph glyph-name="Ygrave" unicode="&#x1ef2;" horiz-adv-x="1310" 
d="M379 1866h328l161 -338l-2 -2l-487 336v4zM850 547v-350q0 -33 22 -54l150 -139v-4h-715v4l152 139q20 20 20 54v315q0 31 -12 51l-338 647q-27 51 -55 88l-103 138v4h688v-4l-122 -142q-20 -25 -9 -49l299 -602l236 481q10 25 9 34t-15 30l-176 248v4h512v-4l-232 -248
q-33 -33 -55 -76l-240 -487q-16 -33 -16 -78z" />
    <glyph glyph-name="ygrave" unicode="&#x1ef3;" horiz-adv-x="974" 
d="M195 1440h327l162 -338l-2 -2l-487 336v4zM134 -483q-70 0 -118 20l76 359h4l203 -201q15 -17 27 -17t40 41t66 125l12 33l-381 967q-10 27 -30 67l-56 99v4h531v-4l-82 -113q-14 -20 -4 -47l207 -574l166 404q10 27 11 38t-11 38l-125 254v4h350v-4l-133 -230
q-26 -43 -51 -106l-263 -635q-80 -190 -176 -340q-117 -182 -263 -182z" />
    <glyph glyph-name="endash" unicode="&#x2013;" horiz-adv-x="1024" 
d="M1014 485h-1004v39h1004v-39z" />
    <glyph glyph-name="emdash" unicode="&#x2014;" horiz-adv-x="2048" 
d="M2038 485h-2028v39h2028v-39z" />
    <glyph glyph-name="quoteleft" unicode="&#x2018;" horiz-adv-x="425" 
d="M367 1080q0 -56 -41 -96t-107 -40q-67 0 -109 47t-42 125q0 123 82 227t210 136l2 -4q-61 -33 -100 -95t-39 -131q0 -23 27 -28q53 -9 85 -47t32 -94z" />
    <glyph glyph-name="quoteright" unicode="&#x2019;" horiz-adv-x="425" 
d="M63 1323q0 57 40 97t106 40q65 0 109 -47t44 -127q0 -123 -82 -226t-212 -134l-2 4q61 31 101 93t40 132q0 23 -27 29q-53 10 -85 46t-32 93z" />
    <glyph glyph-name="quotesinglbase" unicode="&#x201a;" horiz-adv-x="425" 
d="M63 149q0 57 40 97t106 41q65 0 109 -47t44 -125q0 -123 -82 -228q-83 -104 -212 -135l-2 4q61 31 101 94t40 132q0 22 -41 30t-72 44t-31 93z" />
    <glyph glyph-name="quotedblleft" unicode="&#x201c;" horiz-adv-x="806" 
d="M223 1249q0 -23 27 -28q53 -8 85 -46q32 -39 32 -95t-41 -96t-107 -40q-67 0 -109 47t-42 125q0 124 82 228t210 135l2 -4q-61 -33 -100 -95t-39 -131zM604 1249q0 -23 27 -28q53 -8 85 -46q32 -39 32 -95t-41 -96t-107 -40t-108 47t-43 125q-1 124 81 228t211 135l2 -4
q-61 -33 -100 -95t-39 -131z" />
    <glyph glyph-name="quotedblright" unicode="&#x201d;" horiz-adv-x="806" 
d="M444 1323q0 57 40 97t106 40t110 -47t43 -127q0 -123 -83 -226t-211 -134l-3 4q61 31 102 93q40 62 40 132q0 23 -27 29q-53 10 -85 46t-32 93zM63 1323q0 57 40 97t106 40q65 0 109 -47t44 -127q0 -123 -82 -226t-212 -134l-2 4q61 31 101 93t40 132q0 23 -27 29
q-53 10 -85 46t-32 93z" />
    <glyph glyph-name="quotedblbase" unicode="&#x201e;" horiz-adv-x="804" 
d="M362 115q0 -123 -82 -228q-83 -104 -212 -135l-2 4q61 31 101 94t40 132q0 22 -41 30t-72 44t-31 93t40 97t106 41q65 0 109 -47t44 -125zM741 115q0 -123 -83 -227t-212 -136l-2 4q61 31 102 94q40 63 40 132q0 18 -8 22t-19 6q-53 10 -85 46t-32 93t41 97t106 41
q65 0 109 -47t43 -125z" />
    <glyph glyph-name="dagger" unicode="&#x2020;" horiz-adv-x="878" 
d="M111 1051v39h309v350h41v-350h307v-39h-307v-785h-41v785h-309z" />
    <glyph glyph-name="daggerdbl" unicode="&#x2021;" horiz-adv-x="878" 
d="M768 616h-307v-350h-41v350h-309v39h309v396h-309v39h309v350h41v-350h307v-39h-307v-396h307v-39z" />
    <glyph glyph-name="bullet" unicode="&#x2022;" horiz-adv-x="704" 
d="M123 733q0 96 66 159q67 62 162 62t162 -62t67 -158t-66 -156t-162 -60t-162 60t-67 155z" />
    <glyph glyph-name="ellipsis" unicode="&#x2026;" horiz-adv-x="1456" 
d="M1372 141q0 -69 -47 -113t-116 -44t-117 44t-48 112q0 69 48 114t118 45q68 0 115 -44t47 -114zM729 -16q-70 0 -117 44t-47 113q0 70 47 114t117 44t117 -44t47 -114q0 -69 -47 -113t-117 -44zM414 141q0 -69 -48 -113t-117 -44t-117 44t-48 112q0 69 48 114t117 45
t117 -44t48 -114z" />
    <glyph glyph-name="perthousand" unicode="&#x2030;" horiz-adv-x="2009" 
d="M1229 1436l-1030 -1456l-33 26l1030 1454zM988 594q148 0 220 -81t72 -225t-73 -226t-220 -80q-147 0 -220 82t-73 224t73 224t221 82zM985 563q-53 0 -69 -60t-15 -214q0 -154 15 -215q14 -62 68 -62t72 62t17 214q0 153 -17 214q-18 61 -71 61zM404 1460q148 0 220 -81
t72 -225t-72 -225t-220 -81t-221 82t-73 224t73 224t221 82zM401 1430q-53 0 -68 -60t-15 -215q0 -154 14 -215q16 -61 69 -61t71 61q17 61 17 214q1 152 -17 214t-71 62zM1666 594q148 0 220 -81t72 -225t-73 -226t-220 -80q-147 0 -220 82t-73 224t73 224t221 82z
M1663 563q-53 0 -69 -60t-15 -214q0 -154 15 -215q14 -62 68 -62t72 62t17 214q0 153 -17 214q-18 61 -71 61z" />
    <glyph glyph-name="guilsinglleft" unicode="&#x2039;" horiz-adv-x="571" 
d="M55 516l457 471l4 -2l-188 -471l188 -469l-4 -2l-457 469v4z" />
    <glyph glyph-name="guilsinglright" unicode="&#x203a;" horiz-adv-x="571" 
d="M516 512l-457 -469l-4 2l189 469l-189 471l4 2l457 -471v-4z" />
    <glyph glyph-name="fraction" unicode="&#x2044;" horiz-adv-x="98" 
d="M600 1436l-1030 -1456l-33 26l1030 1454z" />
    <glyph glyph-name="Euro" unicode="&#x20ac;" horiz-adv-x="1427" 
d="M1001 582h-391q29 -563 314 -564h26q43 0 64 29l313 483h4v-514q-199 -37 -434 -36q-322 0 -497 158t-207 444h-150v39h147q-4 61 -4 111t4 83h-147v39h152q35 282 213 444t479 162q229 0 444 -39v-503h-4l-311 473q-23 31 -74 30h-27q-274 0 -305 -567h391v-39h-393
v-194h393v-39z" />
    <glyph glyph-name="trademark" unicode="&#x2122;" horiz-adv-x="1763" 
d="M502 844q0 -20 10 -31l70 -65v-5h-355v5l72 65q10 10 10 31v559h-51q-20 0 -31 -17l-133 -215h-4l16 269h599l16 -269h-4l-133 215q-10 16 -33 17h-49v-559zM920 926q0 -29 3 -39t21 -31l92 -108v-5h-268v5l92 108q20 27 21 70v395q0 20 -13 33l-71 82v4h256l188 -412
l168 412h248v-4l-68 -70q-10 -10 -10 -27v-505q0 -16 10 -27l68 -59v-5h-346v5l65 61q10 8 10 25v395q0 39 3 57l-224 -551h-2l-243 537v-346z" />
    <glyph glyph-name="Omega" unicode="&#x2126;" horiz-adv-x="1558" 
d="M779 1421q-275 0 -275 -671q0 -451 215 -541v-209h-621l-39 477h4l275 -401q16 -25 30 -31t52 -6h258v141q-262 35 -430 214t-168 421q0 301 185 473t515 172t514 -172t185 -473q0 -244 -168 -422t-428 -213v-141h256q39 0 52 6t32 31l272 401h4l-37 -477h-620v209
q213 90 213 541q-1 671 -276 671z" />
    <glyph glyph-name="estimated" unicode="&#x212e;" horiz-adv-x="1359" 
d="M684 989q-205 0 -347 -128t-151 -337h998q-8 207 -152 336t-348 129zM1227 485h-1041q6 -209 148 -338t350 -129q166 0 295 88t178 238l43 -14q-53 -162 -193 -256t-323 -94q-229 0 -385 144t-156 381t156 381t386 144t386 -144t156 -382v-19z" />
    <glyph glyph-name="uni2153" unicode="&#x2153;" horiz-adv-x="1064" 
d="M942 739v-39h-819v39h819zM645 944q0 -14 12 -20l129 -62v-4h-483v4l129 62q12 6 12 20v375q0 14 -12 16l-139 41v4l352 90v-526zM811 160q0 -68 -81 -119q-82 -51 -226 -51t-252 39l115 204h4l73 -194q6 -16 27 -16h29q45 1 78 37t32 104q0 125 -153 137v4q61 10 97 51
t36 105q0 111 -80 110h-16q-23 0 -31 -16l-94 -190h-4l-99 186q125 51 269 51q256 0 256 -147q0 -109 -179 -140v-4q90 -4 144 -43q54 -40 55 -108z" />
    <glyph glyph-name="uni2154" unicode="&#x2154;" horiz-adv-x="1064" 
d="M522 1460q272 0 273 -177q0 -87 -86 -148t-281 -129v-5h229q47 0 70 19l68 57h4l-37 -219h-512v4q120 112 150 146q129 146 155 189q37 61 37 108q0 125 -86 125q-35 0 -43 -17l-96 -201h-5l-98 197q118 51 258 51zM123 700v39h819v-39h-819zM811 160q0 -68 -81 -119
q-82 -51 -226 -51t-252 39l115 204h4l73 -194q6 -16 27 -16h29q45 1 78 37t32 104q0 125 -153 137v4q61 10 97 51t36 105q0 111 -80 110h-16q-23 0 -31 -16l-94 -190h-4l-99 186q125 51 269 51q256 0 256 -147q0 -109 -179 -140v-4q90 -4 144 -43q54 -40 55 -108z" />
    <glyph glyph-name="uni2155" unicode="&#x2155;" horiz-adv-x="1064" 
d="M123 700v39h819v-39h-819zM645 944q0 -14 12 -20l129 -62v-4h-483v4l129 62q12 6 12 20v375q0 14 -12 16l-139 41v4l352 90v-526zM801 178q0 -90 -80 -139q-81 -49 -223 -49t-246 41l113 196h4l73 -188q6 -16 27 -16h25q48 -1 78 37t30 105t-42 105t-110 37
q-68 0 -133 -26l-4 2l23 315q133 -10 252 -10h53q76 2 111 35l18 16h4l-12 -90q-8 -53 -38 -73t-92 -22q-119 -2 -276 9l-10 -144q106 53 217 53t175 -52t63 -142z" />
    <glyph glyph-name="uni2156" unicode="&#x2156;" horiz-adv-x="1064" 
d="M522 1460q272 0 273 -177q0 -87 -86 -148t-281 -129v-5h229q47 0 70 19l68 57h4l-37 -219h-512v4q120 112 150 146q129 146 155 189q37 61 37 108q0 125 -86 125q-35 0 -43 -17l-96 -201h-5l-98 197q118 51 258 51zM942 739v-39h-819v39h819zM801 178q0 -90 -80 -139
q-81 -49 -223 -49t-246 41l113 196h4l73 -188q6 -16 27 -16h25q48 -1 78 37t30 105t-42 105t-110 37q-68 0 -133 -26l-4 2l23 315q231 -10 252 -10h53q76 2 111 35l18 16h4l-12 -90q-8 -53 -38 -73t-92 -22q-119 -2 -276 9l-10 -144q106 53 217 53t175 -52t63 -142z" />
    <glyph glyph-name="uni2157" unicode="&#x2157;" horiz-adv-x="1064" 
d="M942 739v-39h-819v39h819zM811 1018q0 -68 -81 -119q-82 -51 -226 -51t-252 39l115 205h4l73 -195q6 -16 27 -16h29q45 0 78 37t32 104q0 125 -153 137v4q61 10 97 51t36 105q0 111 -80 111h-16q-23 0 -31 -17l-94 -190h-4l-99 186q125 51 269 51q256 0 256 -147
q0 -109 -179 -139v-5q90 -4 144 -43q54 -40 55 -108zM498 -10q-142 0 -246 41l113 196h4l73 -188q6 -16 27 -16h25q48 -1 78 37t30 105t-42 105t-110 37q-68 0 -133 -26l-4 2l23 315q225 -10 252 -10h53q76 2 111 35l18 16h4l-12 -90q-8 -53 -38 -73t-92 -22q-119 -2 -276 9
l-10 -144q106 53 217 53t174 -51q63 -53 63 -143t-79 -139q-81 -49 -223 -49z" />
    <glyph glyph-name="uni2158" unicode="&#x2158;" horiz-adv-x="1064" 
d="M123 700v39h819v-39h-819zM496 1034v303l-226 -303h226zM801 178q0 -90 -80 -139q-81 -49 -223 -49t-246 41l113 196h4l73 -188q6 -16 27 -16h25q48 -1 78 37t30 105t-42 105t-110 37q-68 0 -133 -26l-4 2l23 315q201 -10 252 -10h53q76 2 111 35l18 16h4l-12 -90
q-8 -53 -38 -73t-92 -22q-119 -2 -276 9l-10 -144q106 53 217 53t175 -52t63 -142zM680 1450v-416h33q20 0 30 17l99 166h4l-15 -213h-151v-68q0 -12 12 -23l80 -53v-2h-371v2l84 53q10 6 11 23v68h-289v4l330 442h143z" />
    <glyph glyph-name="uni2159" unicode="&#x2159;" horiz-adv-x="1064" 
d="M123 739h819v-39h-819v39zM526 322q-37 0 -73 -29q0 -158 17 -214t73 -56q85 -1 85 149t-102 150zM645 944q0 -14 12 -20l129 -62v-4h-483v4l129 62q12 6 12 20v375q0 14 -12 16l-139 41v4l352 90v-526zM614 371q86 0 144 -48t57 -134q0 -87 -72 -143t-213 -56t-213 81
q-71 81 -71 224t81 225t221 82t243 -29l-86 -172h-5l-104 158q-8 12 -25 12h-12q-63 0 -85 -59t-21 -197q75 56 161 56z" />
    <glyph glyph-name="uni215A" unicode="&#x215a;" horiz-adv-x="1064" 
d="M123 700v39h819v-39h-819zM526 322q-37 0 -73 -29q0 -158 17 -214t73 -56q85 -1 85 149t-102 150zM563 1231q111 0 175 -52t63 -142q0 -89 -80 -139q-81 -50 -223 -50t-246 41l113 196h4l73 -188q6 -16 27 -16h25q48 0 78 38q30 39 30 105t-42 104t-110 37
q-68 0 -133 -26l-4 2l23 315q137 -10 252 -10h53q76 2 111 35l18 16h4l-12 -90q-8 -53 -38 -73t-92 -22q-119 -2 -276 9l-10 -143q106 53 217 53zM614 371q86 0 144 -48t57 -134q0 -87 -72 -143t-213 -56t-213 81q-71 81 -71 224t81 225t221 82t243 -29l-86 -172h-5
l-104 158q-8 12 -25 12h-12q-63 0 -85 -59t-21 -197q75 56 161 56z" />
    <glyph glyph-name="uni215B" unicode="&#x215b;" horiz-adv-x="1064" 
d="M645 944q0 -14 12 -20l129 -62v-4h-483v4l129 62q12 6 12 20v375q0 14 -12 16l-139 41v4l352 90v-526zM426 493q0 -34 28 -57t83 -45l67 -29q37 34 37 90t-32 88t-80 32q-47 0 -75 -23q-28 -22 -28 -56zM399 152q0 -54 41 -92q40 -38 98 -39t89 22t31 57t-23 57
q-23 22 -76 42l-125 49q-35 -41 -35 -96zM538 -10q-120 0 -196 43t-76 104q0 98 152 117q-135 53 -135 172q0 78 68 127q69 49 176 49t175 -40t68 -93q0 -100 -149 -113l45 -16q145 -51 145 -164q0 -86 -76 -136t-197 -50zM942 739v-39h-819v39h819z" />
    <glyph glyph-name="uni215C" unicode="&#x215c;" horiz-adv-x="1064" 
d="M942 739v-39h-819v39h819zM426 493q0 -34 28 -57t83 -45l67 -29q37 34 37 90t-32 88t-80 32q-47 0 -75 -23q-28 -22 -28 -56zM399 152q0 -54 41 -92q40 -38 98 -39t89 22t31 57t-23 57q-23 22 -76 42l-125 49q-35 -41 -35 -96zM809 1018q0 -68 -81 -119q-82 -51 -226 -51
t-252 39l115 205h4l73 -195q6 -16 27 -16h29q47 0 79 37t31 104q0 125 -153 137v4q61 10 97 51t36 105q0 111 -80 111h-16q-23 0 -31 -17l-94 -190h-5l-98 186q125 51 268 51q256 0 256 -147q0 -109 -178 -139v-5q90 -4 144 -43q54 -40 55 -108zM538 -10q-120 0 -196 43
t-76 104q0 98 152 117q-135 53 -135 172q0 78 68 127q69 49 176 49t175 -40t68 -93q0 -100 -149 -113l45 -16q145 -51 145 -164q0 -86 -76 -136t-197 -50z" />
    <glyph glyph-name="uni215D" unicode="&#x215d;" horiz-adv-x="1064" 
d="M123 700v39h819v-39h-819zM426 493q0 -34 28 -57t83 -45l67 -29q37 34 37 90t-32 88t-80 32q-47 0 -75 -23q-28 -22 -28 -56zM399 152q0 -54 41 -92q40 -38 98 -39t89 22t31 57t-23 57q-23 22 -76 42l-125 49q-35 -41 -35 -96zM563 1231q111 0 175 -52t63 -142
q0 -89 -80 -139q-81 -50 -223 -50t-246 41l113 196h4l73 -188q6 -16 27 -16h25q48 0 78 38q30 39 30 105t-42 104t-110 37q-68 0 -133 -26l-4 2l23 315q154 -10 252 -10h53q76 2 111 35l18 16h4l-12 -90q-8 -53 -38 -73t-92 -22q-119 -2 -276 9l-10 -143q106 53 217 53z
M538 -10q-120 0 -196 43t-76 104q0 98 152 117q-135 53 -135 172q0 78 68 127q69 49 176 49t175 -40t68 -93q0 -100 -149 -113l45 -16q145 -51 145 -164q0 -86 -76 -136t-197 -50z" />
    <glyph glyph-name="uni215E" unicode="&#x215e;" horiz-adv-x="1064" 
d="M410 1319q-45 0 -68 -21l-53 -49h-2l28 201h533l-80 -104q-16 -18 -23 -39q-82 -234 -131 -449h-254q129 211 353 461h-303zM426 493q0 -34 28 -57t83 -45l67 -29q37 34 37 90t-32 88t-80 32q-47 0 -75 -23q-28 -22 -28 -56zM399 152q0 -54 41 -92q40 -38 98 -39t89 22
t31 57t-23 57q-23 22 -76 42l-125 49q-35 -41 -35 -96zM538 -10q-120 0 -196 43t-76 104q0 98 152 117q-135 53 -135 172q0 78 68 127q69 49 176 49t175 -40t68 -93q0 -100 -149 -113l45 -16q145 -51 145 -164q0 -86 -76 -136t-197 -50zM942 739v-39h-819v39h819z" />
    <glyph glyph-name="uni2190" unicode="&#x2190;" horiz-adv-x="1445" 
d="M1333 489h-1138l462 -462l-30 -31l-514 514l514 514l32 -29l-464 -463h1138v-43z" />
    <glyph glyph-name="uni2191" unicode="&#x2191;" horiz-adv-x="1253" 
d="M647 -100h-43v1138l-463 -465l-28 33l514 514l514 -514l-31 -31l-463 463v-1138z" />
    <glyph glyph-name="uni2192" unicode="&#x2192;" horiz-adv-x="1445" 
d="M113 532h1138l-465 463l33 29l514 -514l-514 -514l-31 31l463 462h-1138v43z" />
    <glyph glyph-name="uni2193" unicode="&#x2193;" horiz-adv-x="1253" 
d="M604 1085h43v-1138l463 463l31 -31l-514 -514l-514 514l28 33l463 -465v1138z" />
    <glyph glyph-name="uni2196" unicode="&#x2196;" horiz-adv-x="1103" 
d="M156 215h-43v727h727v-43h-654l805 -807l-30 -29l-805 805v-653z" />
    <glyph glyph-name="uni2197" unicode="&#x2197;" horiz-adv-x="1103" 
d="M991 215h-43v651l-805 -803l-30 29l807 807h-656v43h727v-727z" />
    <glyph glyph-name="uni2198" unicode="&#x2198;" horiz-adv-x="1103" 
d="M948 791h43v-728h-727v43h654l-805 807l30 29l805 -805v654z" />
    <glyph glyph-name="uni2199" unicode="&#x2199;" horiz-adv-x="1103" 
d="M840 106v-43h-727v728h43v-656l805 807l30 -29l-803 -807h652z" />
    <glyph glyph-name="partialdiff" unicode="&#x2202;" horiz-adv-x="1150" 
d="M756 563q0 154 -23 293q-51 59 -129 59q-186 -1 -186 -447t162 -445q176 -1 176 540zM1104 586q0 -602 -543 -602q-227 0 -371 137q-143 137 -143 375t128 378t297 140t253 -123q-92 473 -483 565v4l47 -2q399 -32 607 -272t208 -600z" />
    <glyph glyph-name="Delta" unicode="&#x2206;" horiz-adv-x="1380" 
d="M930 41l-377 1163l-432 -1163h809zM381 1440h483l467 -1440h-1270l453 1221q12 31 10 44t-22 35l-121 136v4z" />
    <glyph glyph-name="product" unicode="&#x220f;" horiz-adv-x="1589" 
d="M1403 1257v-1075q0 -31 18 -49l135 -129v-4h-679v4l135 129q20 18 20 49v1217h-475v-1217q0 -31 21 -49l135 -129v-4h-682v4l137 129q18 18 18 49v1075q0 31 -18 50l-137 129v4h1525v-4l-135 -129q-18 -19 -18 -50z" />
    <glyph glyph-name="summation" unicode="&#x2211;" horiz-adv-x="1228" 
d="M815 41q39 0 59 29l254 426h5v-496h-1121v4l592 545l-436 727q-23 35 -51 61l-111 99v4h1102l10 -490h-4l-274 416q-23 33 -58 33h-295l398 -658l-774 -700h704z" />
    <glyph glyph-name="minus" unicode="&#x2212;" horiz-adv-x="1105" 
d="M102 643v39h902v-39h-902z" />
    <glyph glyph-name="uni2215" unicode="&#x2215;" horiz-adv-x="98" 
d="M600 1436l-1030 -1456l-33 26l1030 1454z" />
    <glyph glyph-name="uni2219" unicode="&#x2219;" horiz-adv-x="495" 
d="M248 709q-68 -1 -116 43t-48 114t47 115t117 45t117 -45t47 -115t-48 -114t-116 -43z" />
    <glyph glyph-name="radical" unicode="&#x221a;" horiz-adv-x="1105" 
d="M999 1536l-536 -1536h-4l-324 911l37 11l289 -807l502 1431z" />
    <glyph glyph-name="infinity" unicode="&#x221e;" horiz-adv-x="1572" 
d="M1194 416q102 0 166 76q63 76 63 174t-63 174t-160 76t-154 -43q-58 -42 -82 -62q-24 -21 -76 -73t-75 -72q23 -20 75 -72q142 -143 223 -167q38 -11 83 -11zM150 666q0 -98 63 -174t160 -76t155 42t82 62t76 74q53 54 74 72q-16 14 -74 72t-78 74t-79 60q-59 43 -155 43
q-97 0 -161 -75q-63 -76 -63 -174zM109 666q1 112 77 200t185 88t187 -58q46 -34 71 -54t81 -76l76 -76q120 120 150 146q31 26 78 60q80 58 189 58q108 0 185 -88q76 -88 76 -200t-76 -201q-76 -88 -186 -88q-109 0 -192 62t-224 202q-20 -19 -76 -75q-71 -72 -151 -130
q-80 -59 -188 -59q-109 0 -186 88q-76 88 -76 201z" />
    <glyph glyph-name="integral" unicode="&#x222b;" horiz-adv-x="972" 
d="M303 -270v1278q0 240 100 346q99 106 277 106t342 -45l-129 -307h-4l-144 289q-11 27 -43 27q-64 -1 -65 -181v-1239q0 -256 -99 -372q-100 -116 -278 -116t-342 46l129 307h4l142 -289q14 -29 38 -29q45 0 59 41q13 42 13 138z" />
    <glyph glyph-name="approxequal" unicode="&#x2248;" horiz-adv-x="1105" 
d="M786 391q-94 0 -238 68t-226 67q-125 0 -199 -120l-33 22q82 137 232 137q94 1 238 -67t226 -68q123 0 197 119l35 -21q-82 -137 -232 -137zM786 756q-94 0 -238 68t-226 67q-125 0 -199 -121l-33 23q82 137 232 137q94 0 238 -68t226 -67q123 0 197 118l35 -20
q-82 -137 -232 -137z" />
    <glyph glyph-name="notequal" unicode="&#x2260;" horiz-adv-x="1105" 
d="M102 827v39h541l115 207l35 -20l-105 -187h316v-39h-336l-183 -327h519v-39h-541l-121 -219l-35 20l111 199h-316v39h336l183 327h-519z" />
    <glyph glyph-name="lessequal" unicode="&#x2264;" horiz-adv-x="1105" 
d="M145 766l797 264l12 -39l-694 -227l694 -227l-12 -39l-797 264v4zM102 209v39h902v-39h-902z" />
    <glyph glyph-name="greaterequal" unicode="&#x2265;" horiz-adv-x="1105" 
d="M164 1030l797 -264v-4l-797 -264l-12 39l694 227l-694 227zM1004 248v-39h-902v39h902z" />
    <glyph glyph-name="lozenge" unicode="&#x25ca;" horiz-adv-x="1105" 
d="M553 1409l-403 -745l403 -746l403 746zM1004 664l-449 -830h-4l-449 830l449 829h4z" />
    <glyph glyph-name="commaaccent" unicode="&#xf6c3;" horiz-adv-x="475" 
d="M236 -80q60 0 98 -43t39 -131q0 -88 -73 -171t-181 -107l-2 4q113 72 112 178q0 18 -18 20q-109 14 -109 121q0 55 37 92t97 37z" />
    <glyph glyph-name="apple" unicode="&#xf8ff;" horiz-adv-x="2568" 
d="M1364 698q-31 0 -164 7q-109 -1 -170 -51t-111 -160t-127 -176q-77 -65 -208 -64l-170 8q-117 0 -190 -62t-72 -155q0 -33 2 -45h-39q-2 14 -2 45q0 111 85 183t218 73l170 -8q209 0 302 225t312 225l164 -6q106 0 170 51t114 161t126 173t206 64l170 -8q115 0 191 64
t76 153q0 33 -2 45h39q2 -14 2 -45q0 -109 -87 -183t-221 -73l-170 8q-112 0 -182 -55t-117 -164q-96 -230 -315 -230z" />
    <glyph glyph-name="Iacute_Jacute" horiz-adv-x="1429" 
d="M901 121v1136q0 31 -20 50l-136 129v4h682v-4l-135 -129q-20 -18 -20 -50v-1015q0 -308 -166 -486t-479 -188l-2 4q276 141 276 549zM1432 1866v-4l-486 -338l-4 4l162 338h328zM725 1866v-4l-485 -338l-4 4l161 338h328zM557 182q0 -31 21 -49l135 -129v-4h-682v4
l137 129q18 18 18 49v1075q0 31 -18 50l-137 129v4h682v-4l-135 -129q-20 -18 -21 -50v-1075z" />
    <glyph glyph-name="Jacute" horiz-adv-x="686" 
d="M158 121v1136q0 31 -21 50l-135 129v4h682v-4l-135 -129q-20 -18 -21 -50v-1015q0 -308 -166 -486t-479 -188l-2 4q277 141 277 549zM688 1866v-4l-485 -338l-4 4l161 338h328z" />
    <glyph glyph-name="caronslovak" horiz-adv-x="602" 
d="M264 1440h234l-248 -400h-4z" />
    <glyph glyph-name="commatop" horiz-adv-x="544" 
d="M285 1393q49 0 79 -34t29 -88q0 -54 -37 -92t-97 -38t-98 44t-38 132t73 169t181 109l2 -4q-113 -70 -113 -178q0 -20 19 -20z" />
    <glyph glyph-name="jacute" horiz-adv-x="591" 
d="M621 1440v-4l-486 -338l-4 4l162 338h328zM150 -39v895q0 31 -19 51l-100 103v4h454v-938q0 -256 -131 -398t-372 -143l-39 2v4q207 41 207 420z" />
    <glyph glyph-name="smiley" horiz-adv-x="1675" 
d="M952 940q0 322 54 322q28 0 40 -114t11 -263t-19 -208t-32 -59q-54 0 -54 322zM672 1262q28 0 40 -114t11 -263t-19 -208t-32 -59q-53 0 -53 322t53 322zM837 211q183 0 302 98t135 252q-74 14 -68 101h4q23 -61 101 -62q53 -4 82 33l2 -2q-20 -74 -78 -74
q-13 -170 -145 -281q-132 -110 -334 -110t-335 110q-132 110 -147 281q-59 0 -77 74l2 2q29 -37 81 -33q31 0 61 16t40 46h4q2 -86 -68 -101q15 -154 135 -252t303 -98zM145 719q1 -299 191 -499t500 -200t502 200t192 505t-195 500t-491 195t-498 -202q-201 -200 -201 -499
zM846 1460q314 0 520 -206t207 -528q0 -322 -204 -534q-203 -212 -533 -212t-532 212t-202 526q0 316 214 529q216 213 530 213z" />
    <glyph glyph-name="backslash.case" horiz-adv-x="778" 
d="M674 -195l-608 1815l38 12l609 -1814z" />
    <glyph glyph-name="bar.case" horiz-adv-x="450" 
d="M246 -393h-41v2048h41v-2048z" />
    <glyph glyph-name="braceleft.case" horiz-adv-x="722" 
d="M571 -184q-155 0 -267 93t-99 267l28 373q4 59 -42 102t-119 54v2q74 10 120 53t41 102l-28 373q-12 174 99 267q112 93 267 93q59 0 131 -14v-4q-142 4 -206 -86t-56 -201l27 -358q6 -86 -49 -146t-156 -79v-2q100 -21 156 -79t49 -145l-27 -358q-8 -111 57 -201
t205 -88v-4q-72 -14 -131 -14z" />
    <glyph glyph-name="braceright.case" horiz-adv-x="722" 
d="M152 -184q-59 0 -132 14v4q141 -2 206 88t57 201l-27 358q-6 87 49 145t156 79v2q-100 20 -156 79q-55 59 -49 146l27 358q8 111 -57 201t-206 86v4q72 14 132 14q156 0 267 -93t99 -267l-29 -373q-4 -59 42 -102t120 -53v-2q-74 -9 -120 -53t-42 -103l29 -373
q12 -174 -100 -267t-266 -93z" />
    <glyph glyph-name="bracketleft.case" horiz-adv-x="745" 
d="M385 1419v-1427q0 -18 4 -24t21 -11l315 -109v-4l-561 -24v1771l561 -24v-4l-315 -109q-16 -4 -21 -10q-4 -7 -4 -25z" />
    <glyph glyph-name="bracketright.case" horiz-adv-x="745" 
d="M362 -8v1427q0 19 -4 25t-20 10l-318 109v4l562 24v-1771l-562 24v4l318 109q16 5 20 11t4 24z" />
    <glyph glyph-name="emdash.case" horiz-adv-x="2048" 
d="M2038 680h-2028v39h2028v-39z" />
    <glyph glyph-name="endash.case" horiz-adv-x="1024" 
d="M1014 680h-1004v39h1004v-39z" />
    <glyph glyph-name="exclamdown.case" horiz-adv-x="626" 
d="M477 1298q0 -70 -48 -114t-117 -45t-117 45t-48 115q1 69 49 113t116 44t117 -44q48 -44 48 -114zM72 0l237 991h4l242 -991h-483z" />
    <glyph glyph-name="guillemotleft.case" horiz-adv-x="954" 
d="M895 227l-457 469v4l457 471l4 -2l-188 -471l188 -469zM512 227l-457 469v4l457 471l4 -2l-188 -471l188 -469z" />
    <glyph glyph-name="guillemotright.case" horiz-adv-x="954" 
d="M516 696l-457 -469l-4 2l189 469l-189 471l4 2l457 -471v-4zM899 696l-457 -469l-4 2l189 469l-189 471l4 2l457 -471v-4z" />
    <glyph glyph-name="guilsinglleft.case" horiz-adv-x="571" 
d="M55 700l457 471l4 -2l-188 -471l188 -469l-4 -2l-457 469v4z" />
    <glyph glyph-name="guilsinglright.case" horiz-adv-x="571" 
d="M516 696l-457 -469l-4 2l189 469l-189 471l4 2l457 -471v-4z" />
    <glyph glyph-name="hyphen.case" horiz-adv-x="718" 
d="M94 680v41h533v-41h-533z" />
    <glyph glyph-name="parenleft.case" horiz-adv-x="696" 
d="M111 705q0 489 295 765q111 104 268 148l2 -4q-102 -84 -168 -219q-143 -293 -143 -690t143 -691q66 -135 168 -219l-2 -4q-158 43 -268 148q-295 277 -295 766z" />
    <glyph glyph-name="parenright.case" horiz-adv-x="696" 
d="M586 705q0 -500 -293 -766q-113 -104 -270 -148l-3 4q102 84 168 219q144 292 144 690t-144 691q-66 135 -168 219l3 4q158 -43 270 -148q293 -265 293 -765z" />
    <glyph glyph-name="questiondown.case" horiz-adv-x="1001" 
d="M381 1301q0 69 48 113t117 44t116 -44t47 -113q0 -70 -47 -115t-116 -45t-117 45t-48 115zM698 764q0 -97 -141 -233q-69 -67 -86 -87q-90 -100 -90 -201t52 -161t126 -59h27q43 0 57 32l176 414h4l160 -371q-252 -116 -481 -116t-349 89t-120 241t162 284q29 24 119 90
t129 96q38 30 56 71q17 40 15 114l4 2q180 -59 180 -205z" />
    <glyph glyph-name="slash.case" horiz-adv-x="778" 
d="M713 1620l-609 -1815l-38 13l608 1814z" />
    <glyph glyph-name="braceleft.salt" horiz-adv-x="501" 
d="M293 466q0 -44 -14 -95l-91 -318q-20 -68 -20 -123q0 -182 201 -182q51 0 106 12l6 -34q-55 -12 -108 -13q-113 1 -179 55t-67 164q0 55 23 134l90 305q14 47 14 80q0 129 -182 129v41q182 0 182 131q0 33 -14 79l-90 306q-23 78 -23 133q0 111 67 165t179 54
q45 0 108 -14l-6 -35q-55 12 -106 12q-201 0 -201 -180q0 -55 20 -123l91 -318q14 -49 14 -95t-34 -86t-93 -48v-2q59 -8 93 -49t34 -85z" />
    <glyph glyph-name="braceright.salt" horiz-adv-x="501" 
d="M209 737q0 46 14 94l90 318q20 68 21 123q0 180 -201 180q-51 0 -106 -12l-7 35q63 14 109 14q113 0 179 -54t67 -165q0 -55 -23 -133l-90 -306q-14 -47 -14 -79q0 -131 182 -131v-41q-182 0 -182 -129q0 -33 14 -80l90 -305q23 -78 23 -134q0 -110 -67 -164t-179 -55
q-53 0 -109 13l7 34q55 -12 106 -12q201 0 201 182q0 55 -21 123l-90 318q-14 51 -14 95t34 85t93 49v2q-59 8 -93 48t-34 87z" />
    <glyph glyph-name="bracketleft.salt" horiz-adv-x="526" 
d="M506 -242v-39h-342v1760h342v-39h-301v-1682h301z" />
    <glyph glyph-name="bracketright.salt" horiz-adv-x="526" 
d="M362 1479v-1760h-342v39h302v1682h-302v39h342z" />
    <glyph glyph-name="guillemotleft.salt" horiz-adv-x="868" 
d="M383 516l401 471l29 -26l-377 -445l377 -444l-29 -27zM55 516l402 471l28 -26l-376 -445l376 -444l-28 -27z" />
    <glyph glyph-name="guillemotright.salt" horiz-adv-x="868" 
d="M485 516l-401 -471l-29 27l377 444l-377 445l29 26zM813 516l-401 -471l-29 27l377 444l-377 445l29 26z" />
    <glyph glyph-name="guilsinglleft.salt" horiz-adv-x="540" 
d="M55 516l402 471l28 -26l-376 -445l376 -444l-28 -27z" />
    <glyph glyph-name="guilsinglright.salt" horiz-adv-x="540" 
d="M84 987l401 -471l-401 -471l-29 27l377 444l-377 445z" />
    <glyph glyph-name="parenleft.salt" horiz-adv-x="569" 
d="M111 597q0 263 107 516q108 253 308 394l23 -30q-189 -139 -293 -381t-104 -499t103 -499t294 -381l-23 -30q-201 141 -308 394t-107 516z" />
    <glyph glyph-name="parenright.salt" horiz-adv-x="569" 
d="M457 597q0 -263 -108 -516t-308 -394l-23 30q190 139 294 381t104 499t-104 499q-103 242 -294 381l23 30q201 -141 309 -394t107 -516z" />
    <glyph glyph-name="braceleft.salt.case" horiz-adv-x="501" 
d="M72 686v41q182 0 182 131q0 33 -14 80l-90 305q-23 78 -23 133q0 111 67 165t179 54q45 0 108 -14l-6 -35q-55 12 -106 13q-201 0 -201 -181q0 -55 20 -123l91 -317q14 -49 14 -95t-34 -86t-93 -48v-2q59 -7 93 -49t34 -86t-14 -95l-91 -317q-20 -68 -20 -123
q0 -182 201 -182q51 0 106 12l6 -35q-45 -12 -108 -12q-113 0 -179 54t-67 165q0 55 23 133l90 305q14 47 14 80q0 129 -182 129z" />
    <glyph glyph-name="braceright.salt.case" horiz-adv-x="501" 
d="M430 727v-41q-182 0 -182 -129q0 -33 14 -80l90 -305q23 -78 23 -133q0 -111 -67 -165t-179 -54q-63 0 -109 12l7 35q55 -12 106 -12q201 0 201 182q0 55 -21 123l-90 317q-14 49 -14 94t34 86t93 50v2q-59 8 -93 48t-34 86t14 95l90 317q20 68 21 123q0 180 -201 181
q-51 0 -106 -13l-7 35q63 14 109 14q113 0 179 -54t67 -165q0 -55 -23 -133l-90 -305q-14 -47 -14 -80q0 -131 182 -131z" />
    <glyph glyph-name="bracketleft.salt.case" horiz-adv-x="526" 
d="M506 -139v-39h-342v1759h342v-39h-301v-1681h301z" />
    <glyph glyph-name="bracketright.salt.case" horiz-adv-x="526" 
d="M20 -178v39h302v1681h-302v39h342v-1759h-342z" />
    <glyph glyph-name="guillemotleft.salt.case" horiz-adv-x="868" 
d="M383 700l401 471l29 -26l-377 -445l377 -444l-29 -27zM55 700l402 471l28 -26l-376 -445l376 -444l-28 -27z" />
    <glyph glyph-name="guillemotright.salt.case" horiz-adv-x="868" 
d="M485 700l-401 -471l-29 27l377 444l-377 445l29 26zM813 700l-401 -471l-29 27l377 444l-377 445l29 26z" />
    <glyph glyph-name="guilsinglleft.salt.case" horiz-adv-x="540" 
d="M55 700l402 471l28 -26l-376 -445l376 -444l-28 -27z" />
    <glyph glyph-name="guilsinglright.salt.case" horiz-adv-x="540" 
d="M84 1171l401 -471l-401 -471l-29 27l377 444l-377 445z" />
    <glyph glyph-name="parenleft.salt.case" horiz-adv-x="569" 
d="M111 703q-1 263 107 517t308 394l23 -31q-189 -139 -293 -381t-104 -499t103 -499t294 -380l-23 -31q-201 141 -308 394t-107 516z" />
    <glyph glyph-name="parenright.salt.case" horiz-adv-x="569" 
d="M457 703q0 -263 -108 -516t-308 -394l-23 31q190 139 294 381q104 243 104 499t-104 498q-103 242 -294 381l23 31q201 -140 309 -394t107 -517z" />
    <glyph glyph-name="eight.subs" horiz-adv-x="638" 
d="M213 493q0 -34 28 -57t83 -45l67 -29q37 34 37 90t-32 88t-80 32t-76 -23q-28 -22 -27 -56zM186 152q0 -54 41 -92t99 -39t88 22t30 57t-22 57q-23 22 -76 42l-125 49q-35 -41 -35 -96zM325 -10q-121 0 -197 43t-75 104q0 98 152 117q-135 53 -135 172q0 78 68 127
q69 49 176 49t175 -40t68 -93q0 -100 -149 -113l45 -16q145 -51 145 -164q0 -86 -76 -136t-197 -50z" />
    <glyph glyph-name="five.subs" horiz-adv-x="638" 
d="M586 178q0 -90 -80 -139t-222 -49t-247 41l113 196h4l73 -188q6 -16 27 -16h25q49 -1 79 37t29 105q0 67 -42 105q-43 38 -111 37q-68 0 -132 -26l-4 2l23 315q143 -10 252 -10h53q76 2 111 35l18 16h4l-12 -90q-8 -53 -38 -73q-31 -20 -93 -22q-119 -2 -275 9l-10 -144
q106 53 217 53q110 0 174 -52t64 -142z" />
    <glyph glyph-name="four.subs" horiz-adv-x="638" 
d="M283 176v303l-226 -303h226zM467 145v-67q0 -12 12 -23l80 -53v-2h-371v2l84 53q10 6 11 23v67h-289v5l330 442h143v-416h33q20 0 30 17l99 165h4l-15 -213h-151z" />
    <glyph glyph-name="nine.subs" horiz-adv-x="638" 
d="M328 272q39 0 73 25q0 160 -18 217t-72 57q-85 1 -85 -149t102 -150zM241 221q-85 0 -144 48q-58 48 -58 135q0 86 71 142t201 56q297 0 297 -301q0 -145 -81 -228t-222 -83t-242 30l87 170h4l104 -157q8 -10 23 -10h14q63 0 84 58q20 58 22 195q-75 -55 -160 -55z" />
    <glyph glyph-name="one.subs" horiz-adv-x="544" 
d="M532 0h-483v4l129 62q12 6 12 20v375q0 14 -12 16l-139 41v4l352 90v-526q0 -14 12 -20l129 -62v-4z" />
    <glyph glyph-name="parenleft.subs" horiz-adv-x="430" 
d="M252 299q0 -276 158 -418l-2 -4q-346 103 -346 421t346 421l2 -2q-158 -142 -158 -418z" />
    <glyph glyph-name="parenright.subs" horiz-adv-x="430" 
d="M178 299q0 276 -158 418l3 2q346 -101 346 -419t-346 -423l-3 4q158 142 158 418z" />
    <glyph glyph-name="seven.subs" horiz-adv-x="638" 
d="M186 461q-45 0 -67 -21l-53 -49h-3l29 201h533l-80 -105q-16 -18 -23 -38q-82 -234 -131 -449h-254q129 211 352 461h-303z" />
    <glyph glyph-name="six.subs" horiz-adv-x="638" 
d="M315 322q-37 0 -73 -29q0 -158 17 -214t73 -56q86 -1 86 149t-103 150zM403 371q85 0 143 -48t58 -134q0 -87 -72 -143t-213 -56t-213 81t-72 224t82 225q81 82 221 82t243 -29l-86 -172h-5l-104 158q-8 12 -25 12h-12q-63 0 -85 -59t-21 -197q75 56 161 56z" />
    <glyph glyph-name="three.subs" horiz-adv-x="638" 
d="M596 160q0 -68 -81 -119t-225 -51t-253 39l115 204h4l73 -194q6 -16 27 -16h29q47 1 79 37t31 104q0 125 -153 137v4q61 10 97 51t36 105q0 111 -80 110h-16q-23 0 -31 -16l-94 -190h-4l-99 186q125 51 268 51q256 0 256 -147q0 -109 -178 -140v-4q91 -4 145 -43
q54 -40 54 -108z" />
    <glyph glyph-name="two.subs" horiz-adv-x="638" 
d="M308 602q272 0 272 -177q0 -87 -86 -149t-281 -129v-4h229q47 0 70 19l68 57h4l-37 -219h-512v4q121 112 151 146q129 146 154 189q37 61 37 107q0 125 -86 125q-35 0 -43 -16l-96 -201h-5l-98 197q119 51 259 51z" />
    <glyph glyph-name="zero.subs" horiz-adv-x="638" 
d="M320 602q148 0 220 -81t72 -225t-72 -225t-220 -81t-221 82t-73 224t73 224t221 82zM317 571q-53 0 -68 -60t-15 -214t14 -215q16 -62 69 -62t71 62t18 214q0 153 -18 214t-71 61z" />
    <glyph glyph-name="eight.sups" horiz-adv-x="638" 
d="M316 1430q-48 0 -76 -22t-27 -57q0 -34 28 -57t83 -45l67 -28q37 35 37 90t-32 87t-80 32zM186 1010q0 -55 41 -92t99 -38q58 0 88 22t30 57t-22 57t-76 41l-125 49q-35 -41 -35 -96zM325 848q-121 0 -197 43t-75 104q0 98 152 117q-135 53 -135 172q0 78 68 127
q69 49 176 49t175 -40t68 -93q0 -100 -149 -113l45 -16q145 -51 145 -164q0 -86 -76 -136t-197 -50z" />
    <glyph glyph-name="five.sups" horiz-adv-x="638" 
d="M348 1231q110 0 174 -52t64 -142q0 -89 -80 -139t-222 -50t-247 41l113 196h4l73 -188q6 -16 27 -16h25q49 0 79 38q30 39 29 105q0 66 -42 104q-43 38 -111 37q-68 0 -132 -26l-4 2l23 315q143 -10 252 -10h53q76 2 111 35l18 16h4l-12 -90q-8 -53 -38 -73
q-31 -20 -93 -22q-119 -2 -275 9l-10 -143q106 53 217 53z" />
    <glyph glyph-name="four.sups" horiz-adv-x="638" 
d="M283 1034v303l-226 -303h226zM467 1004v-68q0 -12 12 -23l80 -53v-2h-371v2l84 53q10 6 11 23v68h-289v4l330 442h143v-416h33q20 0 30 17l99 166h4l-15 -213h-151z" />
    <glyph glyph-name="nine.sups" horiz-adv-x="638" 
d="M330 1130q39 0 73 25q0 160 -18 217t-72 58q-85 0 -85 -150t102 -150zM243 1079q-85 0 -144 48q-58 48 -58 135q0 86 71 142t201 56q297 0 297 -301q0 -145 -81 -228t-222 -83t-241 31l86 170h4l104 -158q8 -10 23 -10h14q63 0 84 58q20 58 22 196q-75 -56 -160 -56z" />
    <glyph glyph-name="one.sups" horiz-adv-x="544" 
d="M532 858h-483v4l129 62q12 6 12 20v375q0 14 -12 16l-139 41v4l352 90v-526q0 -14 12 -20l129 -62v-4z" />
    <glyph glyph-name="parenleft.sups" horiz-adv-x="430" 
d="M252 1145q0 -276 158 -418l-2 -4q-346 103 -346 421t346 421l2 -2q-158 -142 -158 -418z" />
    <glyph glyph-name="parenright.sups" horiz-adv-x="430" 
d="M178 1145q0 276 -158 418l3 2q346 -101 346 -419t-346 -423l-3 4q158 142 158 418z" />
    <glyph glyph-name="seven.sups" horiz-adv-x="638" 
d="M186 1319q-45 0 -67 -21l-53 -49h-3l29 201h533l-80 -104q-16 -18 -23 -39q-82 -234 -131 -449h-254q129 211 352 461h-303z" />
    <glyph glyph-name="six.sups" horiz-adv-x="638" 
d="M309 1180q-37 0 -73 -29q0 -158 17 -214t73 -56q86 -1 86 149t-103 150zM397 1229q85 0 143 -48t58 -134q0 -87 -72 -143t-213 -56t-213 81t-72 224t82 225q81 82 221 82t242 -28l-86 -172h-4l-104 157q-8 12 -25 13h-12q-63 0 -85 -60t-21 -196q75 55 161 55z" />
    <glyph glyph-name="three.sups" horiz-adv-x="638" 
d="M596 1018q0 -68 -81 -119t-225 -51t-253 39l115 205h4l73 -195q6 -16 27 -16h29q47 0 79 37t31 104q0 125 -153 137v4q61 10 97 51t36 105q0 111 -80 111h-16q-23 0 -31 -17l-94 -190h-4l-99 186q125 51 268 51q256 0 256 -147q0 -109 -178 -139v-5q91 -4 145 -43
q54 -40 54 -108z" />
    <glyph glyph-name="two.sups" horiz-adv-x="638" 
d="M308 1460q272 0 272 -177q0 -87 -86 -148t-281 -129v-5h229q47 0 70 19l68 57h4l-37 -219h-512v4q121 112 151 146q129 146 154 189q37 61 37 108q0 125 -86 125q-35 0 -43 -17l-96 -201h-5l-98 197q119 51 259 51z" />
    <glyph glyph-name="zero.sups" horiz-adv-x="638" 
d="M320 1460q148 0 220 -81t72 -225t-72 -225t-220 -81t-221 82t-73 224t73 224t221 82zM317 1430q-53 0 -68 -60t-15 -215q0 -154 14 -215q16 -61 69 -61t71 61t18 214q0 152 -18 214t-71 62z" />
    <glyph glyph-name="i.trk" horiz-adv-x="634" 
d="M496 1014v-867q0 -33 18 -49l100 -94v-4h-573v4l100 94q18 16 19 49v709q0 31 -19 51l-100 103v4h455zM324 1438q70 0 116 -44t47 -114q-1 -70 -47 -112t-116 -42t-118 42t-48 112t48 114t118 44z" />
    </font>
</defs>
</svg>
