<svg class="logo header__logo" xmlns="http://www.w3.org/2000/svg" viewBox="0 0 926.67 145.96"><path fill="#e43362" d="M149.8,83.4a2.52,2.52,0,0,0-3.4-1.2h0a46.81,46.81,0,0,1-4.8,1.8c-1.5-5.2-.7-13,6-16.2a2.57,2.57,0,1,0-2.1-4.7c-.1,0-.1.1-.2.1-8.4,4.1-10.9,13.8-8.8,21.7a13.38,13.38,0,0,1-5.6-.8,9,9,0,0,1-4.9-4.5c1.4-.8,2.7-1.6,4-2.5a2.54,2.54,0,1,0-2.7-4.3c-.1,0-.1.1-.2.1a41,41,0,0,1-7.4,4.1c.6-3.5.4-7.2-3.1-10.2a2.53,2.53,0,0,0-3.6.1,2.63,2.63,0,0,0,.1,3.6l.1.1c2.1,1.8,1.9,4.2.6,8.3a32.9,32.9,0,0,1-6.1,1.2,20.24,20.24,0,0,0,.5-4.3,2.55,2.55,0,0,0-5.1,0,14.26,14.26,0,0,1-.7,4.6,27.15,27.15,0,0,1-4.9-.5c-3.3-.7-7.8-2.3-10.3-6.4a2.59,2.59,0,0,0-4.4,2.7c2.8,4.4,7.5,7.4,13.6,8.7,1.1.2,2.2.4,3.3.5C97,89,92.6,91.8,87.2,93.3a56.1,56.1,0,0,1,0-5.8,2.55,2.55,0,0,0-5.1-.3,38.65,38.65,0,0,0,.4,9.6v.3a19.37,19.37,0,0,0,6.1,10.6,36.22,36.22,0,0,0-2.7,4.1h0A37.17,37.17,0,0,0,81.7,140a18.76,18.76,0,0,1-7.7-1.4c1-3,2-5.9,2.7-8.7,0-.1,0-.1.1-.2v-.1c6-22.2,3-37.5-9.2-47.3-.9-.8-1.8-1.6-2.7-2.5a34.43,34.43,0,0,0,4.4-4.1c1.7,1.9,3.2,3.9,3.9,4.8a2.54,2.54,0,1,0,4.3-2.7l-.1-.1c-1.5-2-3.1-4-4.8-5.9a46.82,46.82,0,0,0,7.2-12.9,58.39,58.39,0,0,0,9.3.8c1.2,0,2.4,0,3.7-.1.2,4.9.6,9.8,3.7,13.1a2.55,2.55,0,1,0,3.7-3.5c-1.9-2-2.1-6-2.3-10.2A54.39,54.39,0,0,0,111,55.3c4,3.7,10.1,5.5,16.4,5.5a29.39,29.39,0,0,0,17.2-5.3,2.57,2.57,0,0,0-3.1-4.1c-7.2,5.4-18.9,5.7-25.4,1.4a40.41,40.41,0,0,0,6.8-4.9,2.55,2.55,0,0,0-3.4-3.8,38.26,38.26,0,0,1-11.6,7,22.4,22.4,0,0,1-1.2-15.7,19.53,19.53,0,0,0,23-4.4,2.55,2.55,0,1,0-3.7-3.5h0a14.48,14.48,0,0,1-17.4,3.2,20.71,20.71,0,0,1,9.3-8.5,2.55,2.55,0,1,0-2.2-4.6,26.32,26.32,0,0,0-13.8,15.8,27.9,27.9,0,0,0,1,19.3,48.75,48.75,0,0,1-5.2,1.2c-.4-4.7-1.7-9.3-6.1-11.8A2.56,2.56,0,0,0,89,46.5a.1.1,0,0,1,.1.1c2.4,1.4,3.2,4.4,3.6,7.9a48.5,48.5,0,0,1-11.4-.6c.1-.3.1-.5.2-.8a26.89,26.89,0,0,0-.4-11.3C92,34.2,99.3,20.4,97.1,9.3a2.51,2.51,0,0,0-3.2-1.7,2.48,2.48,0,0,0-1.8,2.7,17.75,17.75,0,0,1,0,6.5c-7.6.1-14.1-3.7-16.8-10.1a2.56,2.56,0,0,0-4.8,1.8c0,.1,0,.1.1.2,3.4,8,11.1,12.9,20.2,13.2a35.46,35.46,0,0,1-11.5,15,27.9,27.9,0,0,0-4.9-6.4,2.55,2.55,0,0,0-3.5,3.7A19.79,19.79,0,0,1,75,39.6a34.93,34.93,0,0,1-3.4,1.5,20.9,20.9,0,0,1-18.5-2.2,28,28,0,0,0,6.7-12,24.52,24.52,0,0,0,2.7.2,12.17,12.17,0,0,0,9.3-3.9,2.55,2.55,0,1,0-3.6-3.6l-.2.2c-1.6,1.8-4.1,2.5-7.3,2a37.88,37.88,0,0,0-.5-12.1,2.55,2.55,0,1,0-5.1.3,1.27,1.27,0,0,0,.1.6C57,21,54.8,29.7,48.7,35.8c-3.8-3.4-7.6-8.5-11.2-15.8a2.55,2.55,0,0,0-3.4-1.2,2.64,2.64,0,0,0-1.2,3.4A58,58,0,0,0,44.7,39a32.4,32.4,0,0,1-15.4,5.1c.3-4.7-.6-9.7-6.3-13.1a2.56,2.56,0,1,0-2.6,4.4c3.1,1.8,4.2,4.3,3.8,8.8A52.51,52.51,0,0,1,14.6,43a2.67,2.67,0,0,0-3,2.1A2.56,2.56,0,0,0,13.5,48a58.42,58.42,0,0,0,11.8,1.3c9.1,0,17.4-2.4,23.6-7.1a26.09,26.09,0,0,0,15.2,5h.1c1.7,4.5.5,9.5-1.1,11.5a2.56,2.56,0,0,0,4,3.2h0c2.6-3.2,3.9-9.5,2.3-15.3a35.77,35.77,0,0,0,3.5-.9,34.54,34.54,0,0,0,3.4-1.4,20.47,20.47,0,0,1,0,7.8C74.9,60.6,69,69.7,61.5,75.7a20.91,20.91,0,0,1-3.8-15.5,2.55,2.55,0,1,0-5-1v.2a17.85,17.85,0,0,0-.2,2.3,6.17,6.17,0,0,1-3.1-1.6,8.39,8.39,0,0,1-2.5-6,2.6,2.6,0,1,0-5.2,0,13.85,13.85,0,0,0,4.1,9.8A11.24,11.24,0,0,0,52.6,67a26.56,26.56,0,0,0,4.7,11.7,39,39,0,0,1-3.5,1.9A2.56,2.56,0,0,0,52.5,84a2.53,2.53,0,0,0,2.3,1.5,3.55,3.55,0,0,0,1-.2,42.3,42.3,0,0,0,4.7-2.5,39.2,39.2,0,0,0,3.7,3.4c9.9,8,12.7,20.7,8.2,39.2-3.7-2.4-6.6-8.1-9.5-14.4a11.76,11.76,0,0,0,5.5-7.2c.5-2.1.4-5.4-2.9-9.1a2.46,2.46,0,0,0-3.6-.2,2.54,2.54,0,0,0-.2,3.6c1.5,1.7,2,3.2,1.7,4.6a6.76,6.76,0,0,1-2.6,3.6c-1.3-2.8-2.6-5.6-4.1-8.3l-.3-.6c-2.9-5.1-6.3-9.6-10.9-12a28.42,28.42,0,0,0-1.3-15v-.1a23.13,23.13,0,0,0-5-7.8,2.55,2.55,0,0,0-3.6,3.6,18.83,18.83,0,0,1,3.1,4.3c-5.3,3-12.4,4.1-19.1,3.3a39.75,39.75,0,0,0-1.1-9.1,21.93,21.93,0,0,1,8.7-2.2h.2a2.6,2.6,0,1,0,0-5.2,25.49,25.49,0,0,0-10.8,2.5,26.24,26.24,0,0,0-5-6.5,2.55,2.55,0,0,0-3.6.4A2.58,2.58,0,0,0,8.1,57c4.1,3.8,6,8.4,6.2,15.6a27.67,27.67,0,0,1-6.7-2.7,2.56,2.56,0,0,0-3.5.8A2.5,2.5,0,0,0,5,74.2H5a32.87,32.87,0,0,0,11.3,4.2c.1,0,.3.1.4.1a41.36,41.36,0,0,0,7,.6,37.14,37.14,0,0,0,16.7-3.8,22.12,22.12,0,0,1,.2,8.5,20.87,20.87,0,0,0-10.7,1.7A27.78,27.78,0,0,0,14.8,84h-.2a23.28,23.28,0,0,0-9.1,4,2.65,2.65,0,0,0-.6,3.6,2.65,2.65,0,0,0,3.6.6A18.65,18.65,0,0,1,12.4,90a21.7,21.7,0,0,0,2.2,9,2.53,2.53,0,1,0,4.5-2.3v-.1a18,18,0,0,1-1.6-7.9,22.68,22.68,0,0,1,10,1.3c.6,9.1-6.8,15.3-14.6,17.5a2.64,2.64,0,0,0-1.7,3.2,2.58,2.58,0,0,0,2.4,1.8,1.7,1.7,0,0,0,.7-.1,28.27,28.27,0,0,0,3.1-1.1,16.55,16.55,0,0,1,.7,9.1,2.64,2.64,0,0,0,1.7,3.2h.1a1.27,1.27,0,0,0,.6.1,2.58,2.58,0,0,0,2.5-1.9,20.91,20.91,0,0,0-1-12.6c7.8-4.8,11-12.3,10.6-19.2,8.9-3.3,14.1.8,19,9.2a26,26,0,0,1-5.9,9.1,13.7,13.7,0,0,0-4.3-8.9,2.55,2.55,0,1,0-3.6,3.6h0c2.1,2,3.1,4,2.9,9.1a37,37,0,0,1-9.1,4,2.64,2.64,0,0,0-1.7,3.2,2.46,2.46,0,0,0,2.4,1.8,1.48,1.48,0,0,0,.7-.1l.9-.3c.7,4.8-.3,7.9-3.3,11a2.55,2.55,0,0,0,3.6,3.6h0c4.4-4.5,5.8-9.5,4.6-16.4a33.56,33.56,0,0,0,5.6-3.1h0a29.72,29.72,0,0,0,3.5-2.7c2.4,4.4,4.3,8.6,4.6,12.7a13.17,13.17,0,0,0-9.6,3.5,2.54,2.54,0,0,0-.1,3.6,2.73,2.73,0,0,0,1.9.8,2.87,2.87,0,0,0,1.8-.7,7.92,7.92,0,0,1,5.7-2.1c-.8,3.3-2.9,6.5-6.7,9.7a2.55,2.55,0,0,0,1.7,4.5,2.72,2.72,0,0,0,1.7-.6c14.7-12.6,7.9-26.4,2.8-35.3a30.67,30.67,0,0,0,2.8-4.2c.8,1.6,1.6,3.4,2.4,5.2l.3.8h0c3.8,8.5,7.6,16.5,13.9,19.6A146.76,146.76,0,0,1,65,147.4a2.7,2.7,0,0,0,1.4,3.4,3.55,3.55,0,0,0,1,.2,2.6,2.6,0,0,0,2.4-1.6c.9-2,1.7-4,2.4-5.9a24.84,24.84,0,0,0,8.6,1.7,20.24,20.24,0,0,0,4.3-.5c.2,0,.4-.1.6-.1s.2-.1.3-.1A19.8,19.8,0,0,0,96,137a19.73,19.73,0,0,0,20.9,2.8,2.65,2.65,0,0,0,1.3-3.4,2.55,2.55,0,0,0-3.2-1.3c-5.9,2.4-11.2,1.6-16.3-2.4.4-.8.8-1.5,1.2-2.3a2.55,2.55,0,0,0-4.6-2.2v.1c-.6,1.3-1.2,2.5-1.9,3.7v.1a17.36,17.36,0,0,1-6.8,6.9A31.67,31.67,0,0,1,89,117.2a28.8,28.8,0,0,0,15.4,4.2h.2a.1.1,0,0,0,.1.1c3.1,5.3,8.8,7.2,14.8,7.2a14.77,14.77,0,0,0,2.1-.1h.7a4.33,4.33,0,0,0,.5-.1,39.87,39.87,0,0,0,9.2-2.2,2.56,2.56,0,1,0-1.8-4.8h0a41.1,41.1,0,0,1-6,1.7c-.3-5.9,1.3-10.8,4.6-14.2,3.5-3.7,8.7-5.4,14.6-4.8a2.56,2.56,0,1,0,.5-5.1h0c-7.4-.7-14.2,1.7-18.8,6.4-3.1,3.2-6.5,8.9-6,18.3-4-.1-6.9-1.3-8.7-3,.5-.1,1-.3,1.4-.4a2.69,2.69,0,0,0,1.6-3.3,2.57,2.57,0,0,0-3.3-1.6,18,18,0,0,1-2.2.6c-.5-3.8,1.5-8.1,5.7-11.8a2.55,2.55,0,1,0-3.4-3.8c-5.4,4.8-8.1,10.6-7.5,16a23.54,23.54,0,0,1-11.4-3.6c.8-1.2,1.7-2.4,2.6-3.5v-.1h0a37.08,37.08,0,0,1,5.7-5.5,2.54,2.54,0,1,0-2.7-4.3,1.38,1.38,0,0,0-.4.3,39.73,39.73,0,0,0-4.8,4.4A15,15,0,0,1,88,98.9c8.2-2.1,14.4-6.7,17.6-12.8a42,42,0,0,0,6.2-.8c-1.3,5.2-1.2,11.4,7.7,15a3.55,3.55,0,0,0,1,.2,2.56,2.56,0,0,0,2.6-2.5,2.5,2.5,0,0,0-1.6-2.4c-6.3-2.6-5.8-5.7-3.8-11.8,1.2-.4,2.3-.8,3.5-1.3a14.44,14.44,0,0,0,7.6,7,18.38,18.38,0,0,0,6.6,1.2,31.15,31.15,0,0,0,13-3.2c1.5-1.3,2-2.8,1.4-4.1Z" transform="translate(-3.73 -5.04)"></path><path fill="#FFF" d="M264.6,116.5V47.6l-28.1,68.8H234L205.8,47.6v68.8h-6.6V39.3h9.9l26.3,64.2,26.1-64.2h10v77.2Z" transform="translate(-3.73 -5.04)"></path><path fill="#FFF" d="M349.9,116.5l-7.6-19H301.4l-7.6,19h-7.6l31.6-77.2H326l31.6,77.2Zm-28-70.2L303.6,91.4h36.5Z" transform="translate(-3.73 -5.04)"></path><path fill="#FFF" d="M417.6,116.5,396,84.5H379v31.9h-6.6V39.3h28.8c13.3,0,23.5,8.4,23.5,22.6s-9.8,21.8-21.4,22.2l22.3,32.4Zm.1-54.7c0-9.7-6.8-16.6-17.1-16.6H379V78.4h21.6c10.3.1,17.1-6.8,17.1-16.6Z" transform="translate(-3.73 -5.04)"></path><path fill="#FFF" d="M444.6,116.5V39.3h6.6v77.2Z" transform="translate(-3.73 -5.04)"></path><path fill="#FFF" d="M529.7,116.5l-7.6-19H481.3l-7.6,19H466l31.6-77.2h8.2l31.6,77.2Zm-28-70.2L483.4,91.4h36.5Z" transform="translate(-3.73 -5.04)"></path><path fill="#FFF" d="M607.4,116.5,558.8,50.2v66.3h-6.6V39.3h6.7l48.4,65.4V39.3h6.6v77.2Z" transform="translate(-3.73 -5.04)"></path><path fill="#FFF" d="M692.4,116.5l-7.6-19H644l-7.6,19h-7.6l31.6-77.2h8.2l31.6,77.2Zm-28-70.2L646.1,91.4h36.5Z" transform="translate(-3.73 -5.04)"></path><path fill="#FFF" d="M757.2,116.5V45.3H732v-6h57.2v6H763.9v71.2Z" transform="translate(-3.73 -5.04)"></path><path fill="#FFF" d="M806.2,116.5V39.3h49v6H812.8V73.9h41.5v6H812.8v30.5h42.3v6Z" transform="translate(-3.73 -5.04)"></path><path fill="#FFF" d="M922,116.5,890.2,80.2l-8.6,9.4v27H875V39.3h6.6V81.5l37.3-42.2h8.4L894.4,76.1l36,40.4Z" transform="translate(-3.73 -5.04)"></path></svg>
