<?xml version="1.0" standalone="no"?>
<!DOCTYPE svg PUBLIC "-//W3C//DTD SVG 1.1//EN" "http://www.w3.org/Graphics/SVG/1.1/DTD/svg11.dtd" >
<svg xmlns="http://www.w3.org/2000/svg" xmlns:xlink="http://www.w3.org/1999/xlink" version="1.1">
<metadata>
Created by FontForge 20170731 at Sat Sep 24 15:59:51 2016
 By Aleksey,,,
(c) 2016 Connary Fagen
</metadata>
<defs>
<font id="CartographMonoCF-DemiBold" horiz-adv-x="1230" >
  <font-face 
    font-family="Cartograph Mono CF Demi Bold"
    font-weight="600"
    font-stretch="normal"
    units-per-em="2000"
    panose-1="0 0 7 9 0 0 0 0 0 0"
    ascent="1600"
    descent="-400"
    x-height="980"
    cap-height="1400"
    bbox="-850 -716 1542.5 1888"
    underline-thickness="50"
    underline-position="-200"
    unicode-range="U+0020-25CA"
  />
<missing-glyph horiz-adv-x="990" 
d="M812 1600v-1980h-628v1980h628zM659 1467h-326v-65h128v-73h-130v-66h328v66h-130v73h130v65zM529 1212h-198v-206h328v67h-130v139zM461 1145v-72h-65v72h65zM659 953h-328v-66h130v-73h-130v-65h198v138h130v66zM659 834h-65v-131h-263v-67h328v198zM659 592h-198v-111
h68v46h65v-93h-198v158h-65v-224h328v224zM659 250h-328v-224h328v224zM594 184v-93h-198v93h198zM659 -20h-328v-65h138l-138 -93v-65h328v65h-202l139 93h63v65z" />
    <glyph glyph-name=".notdef" horiz-adv-x="990" 
d="M812 1600v-1980h-628v1980h628zM659 1467h-326v-65h128v-73h-130v-66h328v66h-130v73h130v65zM529 1212h-198v-206h328v67h-130v139zM461 1145v-72h-65v72h65zM659 953h-328v-66h130v-73h-130v-65h198v138h130v66zM659 834h-65v-131h-263v-67h328v198zM659 592h-198v-111
h68v46h65v-93h-198v158h-65v-224h328v224zM659 250h-328v-224h328v224zM594 184v-93h-198v93h198zM659 -20h-328v-65h138l-138 -93v-65h328v65h-202l139 93h63v65z" />
    <glyph glyph-name=".null" horiz-adv-x="0" 
 />
    <glyph glyph-name="nonmarkingreturn" horiz-adv-x="666" 
 />
    <glyph glyph-name="space" unicode=" " 
 />
    <glyph glyph-name="exclam" unicode="!" 
d="M753 1252l-61 -801q-3 -31 -34 -31h-85q-31 0 -34 31l-62 801q-7 72 35 118t103 46t102.5 -46t35.5 -118zM615 -26q-67 0 -114 47t-47 114q0 68 47 115.5t114 47.5t114 -47.5t47 -115.5q0 -67 -47 -114t-114 -47z" />
    <glyph glyph-name="quotedbl" unicode="&#x22;" 
d="M492 1400q14 0 22.5 -8.5t7.5 -21.5l-18 -385q-2 -30 -30 -30h-100q-28 0 -30 30l-17 385q-1 13 7.5 21.5t22.5 8.5h135zM874 1400q14 0 22.5 -8.5t7.5 -21.5l-18 -385q-2 -30 -30 -30h-100q-28 0 -30 30l-17 385q-1 13 7.5 21.5t22.5 8.5h135z" />
    <glyph glyph-name="numbersign" unicode="#" 
d="M1055 960h-134v-360h134q14 0 23.5 -8.5t9.5 -21.5v-108q0 -13 -9.5 -21.5t-23.5 -8.5h-134v-242q0 -14 -8.5 -22t-21.5 -8h-142q-13 0 -21.5 8t-8.5 22v242h-210v-242q0 -14 -8.5 -22t-21.5 -8h-142q-13 0 -21.5 8t-8.5 22v242h-135q-14 0 -22 8t-8 22v108q0 14 8 22
t22 8h135v360h-135q-14 0 -22 8t-8 22v108q0 14 8 22t22 8h135v242q0 14 8.5 22t21.5 8h142q13 0 21.5 -8t8.5 -22v-242h210v242q0 14 8.5 22t21.5 8h142q13 0 21.5 -8t8.5 -22v-242h134q14 0 23.5 -8.5t9.5 -21.5v-108q0 -13 -9.5 -21.5t-23.5 -8.5zM719 600v360h-210v-360
h210z" />
    <glyph glyph-name="dollar" unicode="$" 
d="M1127 407q0 -161 -108.5 -256.5t-323.5 -110.5v-179q0 -15 -8.5 -28t-21.5 -13h-92q-13 0 -21.5 13t-8.5 28v178q-386 23 -436 309q-2 15 5.5 23.5t22.5 8.5h152q24 0 33 -25q41 -102 223 -120v399q-90 22 -158.5 50.5t-128.5 72t-91.5 107t-31.5 145.5q0 150 103.5 246
t306.5 108v187q0 14 8.5 22t21.5 8h92q13 0 21.5 -8t8.5 -22v-190q164 -16 265 -92t125 -209q2 -15 -5.5 -23.5t-22.5 -8.5h-143q-22 0 -34 24q-37 89 -185 113v-372q75 -17 134 -37t117 -52t96 -72t61.5 -97t23.5 -127zM348 1006q0 -64 45.5 -108.5t149.5 -72.5v343
q-195 -19 -195 -162zM695 236q214 24 214 171q0 79 -49.5 121t-164.5 71v-363z" />
    <glyph glyph-name="percent" unicode="%" 
d="M337 1410q245 0 245 -275q0 -278 -245 -278q-243 0 -243 278q0 275 243 275zM337 1261q-56 0 -75 -31.5t-19 -94.5q0 -65 19 -97t75 -32q57 0 76.5 32t19.5 97q0 63 -19.5 94.5t-76.5 31.5zM1022 1167q24 -19 6 -42l-699 -941q-19 -24 -42 -6l-78 58q-23 19 -6 42
l700 940q17 23 42 6zM891 543q245 0 245 -275q0 -278 -245 -278q-243 0 -243 278q0 275 243 275zM891 394q-56 0 -75 -31.5t-19 -94.5q0 -65 19 -97t75 -32q57 0 76.5 32t19.5 97q0 63 -19.5 94.5t-76.5 31.5z" />
    <glyph glyph-name="ampersand" unicode="&#x26;" 
d="M1165 124q20 -22 -1 -43l-84 -83q-23 -23 -43 -2l-133 155q-188 -169 -394 -169q-195 0 -315.5 103t-120.5 284q0 67 22.5 127.5t66.5 112t88.5 90t106.5 82.5q-80 91 -123.5 165.5t-43.5 155.5q0 142 92 228t250 86q155 0 250 -86t95 -224q0 -56 -19.5 -108t-57 -97.5
t-76 -81t-94.5 -77.5l282 -327l63 68q19 20 40 1l85 -89q18 -18 -2 -40t-68 -76zM390 1099q0 -50 30 -99t88 -116q83 60 127 111t44 108q0 59 -40.5 93.5t-105.5 34.5t-104 -35t-39 -97zM516 182q136 0 268 109l-298 346q-94 -72 -143.5 -133.5t-49.5 -132.5
q0 -84 61 -136.5t162 -52.5z" />
    <glyph glyph-name="quotesingle" unicode="'" 
d="M683 1400q14 0 22.5 -8.5t7.5 -21.5l-18 -385q-2 -30 -30 -30h-100q-28 0 -30 30l-17 385q-1 13 7.5 21.5t22.5 8.5h135z" />
    <glyph glyph-name="parenleft" unicode="(" 
d="M946 1272q-80 0 -143 -15t-109 -41.5t-79 -71t-53.5 -95t-32 -122t-16 -144t-4.5 -167.5t4.5 -167.5t16 -144t32 -122.5t53.5 -95.5t79 -71.5t109 -42t143 -15v-218q-127 0 -228.5 27.5t-170 71.5t-118.5 114t-77.5 140t-43 166t-20 174.5t-4.5 182.5q0 71 2 127.5t8 125
t17.5 123t29.5 114t45 106t63 92t85 78t108.5 58t136.5 38t167 12.5v-218z" />
    <glyph glyph-name="parenright" unicode=")" 
d="M284 1272v218q90 0 167 -12.5t136.5 -38t108.5 -58t85 -78t63 -92t45 -106t29.5 -114t17.5 -123t8 -125t2 -127.5q0 -104 -4.5 -182.5t-20 -174.5t-43 -166t-77.5 -140t-118.5 -114t-170 -71.5t-228.5 -27.5v218q80 0 143 15t109 42t79 71.5t53.5 95.5t32 122.5t16 144
t4.5 167.5t-4.5 167.5t-16 144t-32 122t-53.5 95t-79 71t-109 41.5t-143 15z" />
    <glyph glyph-name="asterisk" unicode="*" 
d="M931 1124q6 -27 -21 -36l-189 -50l124 -164q18 -24 -7 -42l-70 -43q-24 -16 -40 8l-113 160l-112 -160q-16 -24 -40 -8l-71 43q-25 17 -7 42l124 164l-189 50q-27 9 -21 36l19 80q3 14 13.5 20.5t24.5 1.5l194 -58l-6 202q0 14 8 22t22 8h79q13 0 21.5 -8t8.5 -22
l-3 -202l194 58q14 5 24.5 -1.5t13.5 -20.5z" />
    <glyph glyph-name="plus" unicode="+" 
d="M1003 653q13 0 21.5 -8.5t8.5 -21.5v-108q0 -13 -8.5 -21.5t-21.5 -8.5h-304v-303q0 -14 -8.5 -22t-21.5 -8h-108q-13 0 -21.5 8t-8.5 22v303h-303q-14 0 -22 8.5t-8 21.5v108q0 13 8 21.5t22 8.5h303v304q0 13 8.5 21.5t21.5 8.5h108q13 0 21.5 -8.5t8.5 -21.5v-304h304
z" />
    <glyph glyph-name="comma" unicode="," 
d="M820 182q14 0 22 -8t8 -22v-66q0 -127 -22 -254.5t-53 -212.5q-9 -23 -35 -23h-90q-32 0 -26 33q14 73 21.5 182t5.5 189h-261q-14 0 -22 8t-8 22v122q0 14 8 22t22 8h430z" />
    <glyph glyph-name="hyphen" unicode="-" 
d="M1085 649q13 0 21.5 -8.5t8.5 -21.5v-120q0 -13 -8.5 -21.5t-21.5 -8.5h-940q-13 0 -21.5 8.5t-8.5 21.5v120q0 13 8.5 21.5t21.5 8.5h940z" />
    <glyph glyph-name="period" unicode="." 
d="M615 -26q-67 0 -114 47t-47 114q0 68 47 115.5t114 47.5t114 -47.5t47 -115.5q0 -67 -47 -114t-114 -47z" />
    <glyph glyph-name="slash" unicode="/" 
d="M1065 1400q16 0 23 -10t1 -25l-720 -1601q-11 -24 -36 -24h-167q-17 0 -24 9t0 25l720 1603q9 23 35 23h168z" />
    <glyph glyph-name="zero" unicode="0" 
d="M615 1420q138 0 229 -31t154 -107.5t90.5 -204.5t27.5 -322v-119q0 -195 -27.5 -323t-90.5 -204.5t-154 -107.5t-229 -31t-229 31t-154 107.5t-90.5 204.5t-27.5 323v119q0 194 27.5 322t90.5 204.5t154 107.5t229 31zM615 1211q-65 0 -107.5 -8.5t-81 -35.5t-59.5 -77
t-33 -132.5t-12 -202.5v-120q0 -120 12 -202.5t33 -132.5t59.5 -77t81 -35.5t107.5 -8.5t107.5 8.5t81 35.5t59.5 77t33 132.5t12 202.5v120q0 120 -12 202.5t-33 132.5t-59.5 77t-81 35.5t-107.5 8.5zM485 436q-17 0 -24 9t0 25l188 460q9 24 36 24h62q17 0 24 -9t0 -25
l-188 -460q-9 -24 -36 -24h-62z" />
    <glyph glyph-name="one" unicode="1" 
d="M1041 179q13 0 21.5 -8.5t8.5 -21.5v-119q0 -14 -8.5 -22t-21.5 -8h-851q-14 0 -22 8t-8 22v119q0 13 8 21.5t22 8.5h354v1011q-127 -122 -311 -122q-30 0 -30 29v134q0 31 30 31q76 0 157.5 36.5t153.5 101.5h186q14 0 22 -8t8 -22v-1191h281z" />
    <glyph glyph-name="two" unicode="2" 
d="M1041 188q13 0 21.5 -8t8.5 -22v-128q0 -14 -8.5 -22t-21.5 -8h-865q-14 0 -22 8t-8 22v121q0 99 24.5 180.5t66 138.5t95.5 104t114 80.5t119.5 64t113.5 60t95.5 61.5t66 75t24.5 96q0 95 -61 152.5t-181 57.5q-262 0 -275 -218q-3 -31 -33 -28l-143 16q-29 3 -29 32
q0 187 126.5 290t342.5 103t336.5 -106t120.5 -297q0 -75 -24 -138t-64.5 -107.5t-93.5 -82t-111 -69t-116 -62t-111 -66t-93.5 -76.5t-64.5 -98t-24 -126h674z" />
    <glyph glyph-name="three" unicode="3" 
d="M858 743q122 -45 195.5 -135t73.5 -217q0 -191 -142 -304t-381 -113q-226 0 -355.5 105t-129.5 289q0 29 28 32l149 16q30 3 32 -28q6 -102 80 -159.5t203 -57.5q131 0 210 64t79 173q0 107 -91.5 173t-277.5 66q-30 0 -30 30v109q0 31 31 31q177 0 255.5 61t78.5 153
q0 87 -70.5 138t-182.5 51q-117 0 -189 -58t-78 -159q-2 -31 -32 -28l-149 16q-29 3 -29 32q0 183 129 288t348 105q205 0 333 -98.5t128 -267.5q0 -99 -57.5 -178.5t-158.5 -128.5z" />
    <glyph glyph-name="four" unicode="4" 
d="M1107 510q13 0 21.5 -8t8.5 -22v-119q0 -13 -8.5 -21.5t-21.5 -8.5h-139v-301q0 -14 -8 -22t-22 -8h-156q-14 0 -22 8t-8 22v301h-619q-13 0 -21.5 8.5t-8.5 21.5v129q0 24 10 38l627 852q14 20 36 20h162q14 0 22 -8t8 -22v-860h139zM752 510v554l-413 -554h413z" />
    <glyph glyph-name="five" unicode="5" 
d="M304 376q25 0 31 -28q22 -98 91 -142.5t185 -44.5q144 0 223 75.5t79 216.5q0 140 -78.5 215.5t-220.5 75.5q-169 0 -269 -100q-19 -19 -40 -11l-124 42q-26 11 -20 37l123 662q5 26 32 26h661q13 0 21.5 -8t8.5 -22v-126q0 -14 -8.5 -22t-21.5 -8h-527l-60 -340
q76 57 252 57q220 0 350 -127t130 -351q0 -226 -135 -352.5t-374 -126.5q-210 0 -334.5 92.5t-143.5 278.5q-3 31 28 31h141z" />
    <glyph glyph-name="six" unicode="6" 
d="M641 864q225 0 353 -117.5t128 -318.5q0 -213 -130 -333t-367 -120q-236 0 -365 121t-130 339l-1 491q-1 258 126.5 374t377.5 116q206 0 327 -91.5t121 -254.5q0 -30 -30 -33l-133 -10q-26 -3 -34 29q-15 84 -84.5 127t-172.5 43q-67 0 -115.5 -12t-90.5 -43t-63 -91
t-21 -150v-182q32 53 124 84.5t180 31.5zM625 162q137 0 212.5 65t75.5 201q0 126 -76.5 191t-211.5 65t-211.5 -65t-76.5 -191q0 -136 75.5 -201t212.5 -65z" />
    <glyph glyph-name="seven" unicode="7" 
d="M1076 1400q14 0 22 -8t8 -22v-136q0 -19 -8 -38l-561 -1165q-14 -31 -38 -31h-166q-14 0 -21 9t-1 22l575 1183h-701q-13 0 -21.5 8t-8.5 22v126q0 14 8.5 22t21.5 8h891z" />
    <glyph glyph-name="eight" unicode="8" 
d="M901 773q221 -109 221 -358q0 -208 -131 -326.5t-376 -118.5t-375.5 118.5t-130.5 326.5q0 249 220 358q-153 90 -153 288q0 165 111 262t328 97t328 -97t111 -262q0 -198 -153 -288zM374 1044q0 -97 62.5 -146.5t178.5 -49.5t178.5 49.5t62.5 146.5q0 198 -241 198
t-241 -198zM615 157q144 0 221 64t77 193t-77.5 192t-220.5 63t-220.5 -63t-77.5 -192t77 -193t221 -64z" />
    <glyph glyph-name="nine" unicode="9" 
d="M589 526q-225 0 -353 117.5t-128 318.5q0 213 130 333t367 120q236 0 365 -121t130 -339l1 -491q1 -258 -126.5 -374t-377.5 -116q-206 0 -327 91.5t-121 254.5q0 30 30 33l133 10q26 3 34 -29q15 -84 84.5 -127t172.5 -43q67 0 115.5 12t90.5 43t63 91t21 150v182
q-32 -53 -124 -84.5t-180 -31.5zM605 1228q-137 0 -212.5 -65t-75.5 -201q0 -126 76.5 -191t211.5 -65t211.5 65t76.5 191q0 136 -75.5 201t-212.5 65z" />
    <glyph glyph-name="colon" unicode=":" 
d="M615 676q-67 0 -114 47t-47 114q0 68 47 115.5t114 47.5t114 -47.5t47 -115.5q0 -67 -47 -114t-114 -47zM615 -26q-67 0 -114 47t-47 114q0 68 47 115.5t114 47.5t114 -47.5t47 -115.5q0 -67 -47 -114t-114 -47z" />
    <glyph glyph-name="semicolon" unicode=";" 
d="M615 676q-67 0 -114 47t-47 114q0 68 47 115.5t114 47.5t114 -47.5t47 -115.5q0 -67 -47 -114t-114 -47zM818 182q14 0 22 -8t8 -22v-66q0 -127 -22 -254.5t-53 -212.5q-9 -23 -35 -23h-90q-32 0 -26 33q14 73 21.5 182t5.5 189h-261q-14 0 -22 8t-8 22v122q0 14 8 22
t22 8h430z" />
    <glyph glyph-name="less" unicode="&#x3c;" 
d="M981 783q15 -27 -13 -41l-510 -244l510 -245q26 -13 13 -40l-53 -104q-14 -26 -40 -12l-622 303q-22 11 -22 35v126q0 24 22 35l622 303q26 14 40 -12z" />
    <glyph glyph-name="equal" unicode="=" 
d="M1003 830q13 0 21.5 -8t8.5 -22v-107q0 -13 -8.5 -21.5t-21.5 -8.5h-775q-14 0 -22 8.5t-8 21.5v107q0 14 8 22t22 8h775zM1003 476q13 0 21.5 -8t8.5 -22v-107q0 -13 -8.5 -21.5t-21.5 -8.5h-775q-14 0 -22 8.5t-8 21.5v107q0 14 8 22t22 8h775z" />
    <glyph glyph-name="greater" unicode="&#x3e;" 
d="M249 783l53 104q14 26 40 12l622 -303q22 -11 22 -35v-126q0 -24 -22 -35l-622 -303q-26 -14 -40 12l-53 104q-13 27 13 40l510 245l-510 244q-28 14 -13 41z" />
    <glyph glyph-name="question" unicode="?" 
d="M497 406q-30 0 -30 32q4 99 28.5 170.5t61 109.5t79.5 64t86 43.5t78 37.5t56.5 56.5t21.5 91.5q0 96 -62 153t-187 57q-126 0 -198 -54.5t-78 -163.5q-2 -31 -32 -28l-144 16q-28 3 -28 32q0 188 126 290.5t343 102.5t340.5 -107t123.5 -296q0 -83 -21 -142.5
t-54.5 -92.5t-74 -57t-82.5 -45.5t-77 -48.5t-59.5 -75t-28.5 -116q-1 -30 -31 -30h-157zM583 -26q-67 0 -114 47t-47 114q0 68 47 115.5t114 47.5t114 -47.5t47 -115.5q0 -67 -47 -114t-114 -47z" />
    <glyph glyph-name="at" unicode="@" 
d="M880 757l-31 -337q-8 -86 61 -86q46 0 66 48t20 143q0 195 -104.5 293t-272.5 98q-79 0 -149 -25.5t-125 -75.5t-87.5 -131t-32.5 -184q0 -99 32.5 -178t87.5 -127.5t124 -74t147 -25.5q101 0 182 43q24 13 42 -3l62 -50q25 -22 1 -42q-122 -89 -284 -89
q-110 0 -207.5 36.5t-173 104.5t-119.5 172.5t-44 232.5q0 131 44 238.5t119.5 176.5t173 106t207.5 37t205.5 -36.5t166.5 -103.5t112 -168.5t41 -224.5q0 -82 -20 -145t-54 -99.5t-74 -54t-85 -17.5q-103 0 -136 69q-67 -69 -169 -69q-122 0 -196 78.5t-74 208.5
q0 132 74 211.5t196 79.5q107 0 173 -72l30 42h71zM605 335q61 0 96.5 43t35.5 118q0 78 -35.5 122.5t-96.5 44.5q-66 0 -101 -44t-35 -123q0 -76 35 -118.5t101 -42.5z" />
    <glyph glyph-name="A" unicode="A" 
d="M1164 34q8 -34 -24 -34h-165q-29 0 -34 24l-67 249h-518l-67 -249q-5 -24 -34 -24h-164q-34 0 -24 34l374 1342q7 24 35 24h278q28 0 35 -24zM407 467h416l-188 702h-40z" />
    <glyph glyph-name="B" unicode="B" 
d="M842 754q274 -61 274 -358q0 -205 -114.5 -300.5t-372.5 -95.5h-475q-14 0 -22 8t-8 22v1340q0 14 8 22t22 8h491q109 0 189.5 -28.5t125 -78.5t65 -109.5t20.5 -129.5q0 -240 -203 -300zM832 1031q0 89 -48.5 128.5t-158.5 39.5h-277v-364h277q108 0 157.5 49t49.5 147z
M631 201q139 0 199 49t60 163t-61 173.5t-198 59.5h-283v-445h283z" />
    <glyph glyph-name="C" unicode="C" 
d="M636 185q134 0 194 38t77 151q4 26 34 26h151q30 0 27 -33q-22 -216 -138 -306.5t-351 -90.5q-109 0 -188.5 20t-141.5 65.5t-99 123t-56 189.5t-19 267v120q0 155 19 267.5t56 189.5t99 122.5t141.5 65.5t188.5 20q235 0 351 -90.5t138 -306.5q3 -33 -27 -33h-151
q-30 0 -34 26q-17 112 -78.5 150t-192.5 38q-62 0 -104 -9.5t-80.5 -37t-60.5 -77t-34.5 -130t-12.5 -196.5v-118q0 -116 12.5 -197t34.5 -130.5t60 -77t80.5 -37t104.5 -9.5z" />
    <glyph glyph-name="D" unicode="D" 
d="M548 1400q136 0 238 -33t167.5 -91t106 -148t56.5 -192.5t16 -235.5t-16 -235.5t-56.5 -192.5t-106 -148t-167.5 -91t-238 -33h-384q-14 0 -22 8t-8 22v1340q0 14 8 22t22 8h384zM548 201q89 0 152.5 22t103 60.5t62 103t30.5 137.5t8 176t-8 176t-30.5 137.5t-62 103
t-103 60.5t-152.5 22h-190v-998h190z" />
    <glyph glyph-name="E" unicode="E" 
d="M1051 201q13 0 21.5 -8.5t8.5 -21.5v-141q0 -14 -8.5 -22t-21.5 -8h-861q-14 0 -22 8t-8 22v1340q0 14 8 22t22 8h859q13 0 21.5 -8t8.5 -22v-141q0 -13 -8.5 -21.5t-21.5 -8.5h-665v-375h613q13 0 21.5 -8t8.5 -22v-141q0 -13 -8.5 -21.5t-21.5 -8.5h-613v-422h667z" />
    <glyph glyph-name="F" unicode="F" 
d="M1065 1400q13 0 21.5 -8t8.5 -22v-141q0 -13 -8.5 -21.5t-21.5 -8.5h-686v-388h640q13 0 21.5 -8.5t8.5 -21.5v-142q0 -13 -8.5 -21.5t-21.5 -8.5h-640v-579q0 -14 -8.5 -22t-21.5 -8h-164q-13 0 -21.5 8t-8.5 22v1340q0 14 8.5 22t21.5 8h880z" />
    <glyph glyph-name="G" unicode="G" 
d="M1100 721q14 0 22 -8.5t8 -21.5v-152q0 -302 -118 -435t-384 -134q-186 0 -293.5 58.5t-161 204t-53.5 402.5v120q0 194 28 322t91.5 204t155 107.5t228.5 31.5q235 0 351 -90.5t139 -306.5q2 -33 -28 -33h-150q-31 0 -35 26q-17 112 -78.5 150t-192.5 38
q-62 0 -104 -9.5t-80.5 -37t-60.5 -77t-34.5 -130t-12.5 -196.5v-118q0 -116 12.5 -197t34.5 -130.5t60 -77t80 -37t104 -9.5q159 0 224.5 73t66.5 271h-332q-13 0 -21.5 8.5t-8.5 21.5v132q0 13 8.5 21.5t21.5 8.5h513z" />
    <glyph glyph-name="H" unicode="H" 
d="M1056 1400q14 0 22 -8t8 -22v-1340q0 -14 -8 -22t-22 -8h-164q-14 0 -22 8t-8 22v581h-494v-581q0 -14 -8 -22t-22 -8h-164q-14 0 -22 8t-8 22v1340q0 14 8 22t22 8h164q14 0 22 -8t8 -22v-558h494v558q0 14 8 22t22 8h164z" />
    <glyph glyph-name="I" unicode="I" 
d="M1065 1199h-338v-998h338q13 0 21.5 -8.5t8.5 -21.5v-141q0 -14 -8.5 -22t-21.5 -8h-900q-13 0 -21.5 8t-8.5 22v141q0 13 8.5 21.5t21.5 8.5h338v998h-338q-13 0 -21.5 8.5t-8.5 21.5v141q0 14 8.5 22t21.5 8h900q13 0 21.5 -8t8.5 -22v-141q0 -13 -8.5 -21.5
t-21.5 -8.5z" />
    <glyph glyph-name="J" unicode="J" 
d="M1067 1400q13 0 21.5 -8t8.5 -22v-847q0 -278 -132 -415.5t-364 -137.5q-230 0 -363.5 130.5t-133.5 392.5q0 30 30 30h160q28 0 30 -30q4 -160 78 -239.5t199 -79.5t198 87t73 262v676h-557q-13 0 -21.5 8.5t-8.5 21.5v141q0 14 8.5 22t21.5 8h752z" />
    <glyph glyph-name="K" unicode="K" 
d="M1150 36q10 -15 5 -25.5t-23 -10.5h-182q-23 0 -36 18l-430 610l-131 -152v-446q0 -14 -8.5 -22t-21.5 -8h-164q-13 0 -21.5 8t-8.5 22v1340q0 14 8.5 22t21.5 8h164q13 0 21.5 -8t8.5 -22v-595l510 609q13 16 36 16h202q19 0 23.5 -11t-7.5 -25l-492 -572z" />
    <glyph glyph-name="L" unicode="L" 
d="M1056 201q14 0 22 -8.5t8 -21.5v-141q0 -14 -8 -22t-22 -8h-856q-14 0 -22 8t-8 22v1340q0 14 8 22t22 8h164q14 0 22 -8t8 -22v-1169h662z" />
    <glyph glyph-name="M" unicode="M" 
d="M159 0q-13 0 -21.5 8t-8.5 22v1340q0 14 8.5 22t21.5 8h181q32 0 36 -20l233 -1135h12l233 1135q4 20 36 20h181q13 0 21.5 -8t8.5 -22v-1340q0 -14 -8.5 -22t-21.5 -8h-129q-14 0 -22 8t-8 22v909h-13l-196 -916q-6 -23 -35 -23h-106q-29 0 -35 23l-196 916h-13v-909
q0 -14 -8 -22t-22 -8h-129z" />
    <glyph glyph-name="N" unicode="N" 
d="M1066 1400q14 0 22 -8t8 -22v-1340q0 -14 -8 -22t-22 -8h-196q-27 0 -36 20l-496 1042v-1032q0 -14 -8 -22t-22 -8h-144q-14 0 -22 8t-8 22v1340q0 14 8 22t22 8h197q27 0 36 -20l495 -1040v1030q0 14 8 22t22 8h144z" />
    <glyph glyph-name="O" unicode="O" 
d="M615 1420q138 0 229 -31t154 -107.5t90.5 -204.5t27.5 -322v-119q0 -195 -27.5 -323t-90.5 -204.5t-154 -107.5t-229 -31t-229 31t-154 107.5t-90.5 204.5t-27.5 323v119q0 194 27.5 322t90.5 204.5t154 107.5t229 31zM615 1205q-65 0 -106 -8.5t-78 -35t-57 -76.5
t-31 -131t-11 -200v-118q0 -119 11 -200t31 -131t57 -76.5t78 -35t106 -8.5t106 8.5t78 35t57 76.5t31 131t11 200v118q0 119 -11 200t-31 131t-57 76.5t-78 35t-106 8.5z" />
    <glyph glyph-name="P" unicode="P" 
d="M659 1400q131 0 220 -28t140 -87t72 -139t21 -194q0 -115 -21 -194.5t-72 -139t-140 -87.5t-220 -28h-286v-473q0 -14 -8.5 -22t-21.5 -8h-164q-13 0 -21.5 8t-8.5 22v1340q0 14 8.5 22t21.5 8h480zM659 704q55 0 90 5t66 19.5t47 42t25 71.5t9 110q0 81 -12.5 130.5
t-44 75t-71.5 33.5t-109 8h-286v-495h286z" />
    <glyph glyph-name="Q" unicode="Q" 
d="M615 1420q138 0 229 -31t154 -107.5t90.5 -204.5t27.5 -322v-119q0 -195 -27.5 -323t-90.5 -204.5t-154 -107.5t-229 -31t-229 31t-154 107.5t-90.5 204.5t-27.5 323v119q0 194 27.5 322t90.5 204.5t154 107.5t229 31zM615 1205q-65 0 -106 -8.5t-78 -35t-57 -76.5
t-31 -131t-11 -200v-118q0 -119 11 -200t31 -131t57 -76.5t78 -35t106 -8.5t106 8.5t78 35t57 76.5t31 131t11 200v118q0 119 -11 200t-31 131t-57 76.5t-78 35t-106 8.5zM1084 -173q32 0 32 -28v-127q0 -32 -30 -32q-67 -1 -129.5 14t-103.5 34.5t-103 34.5t-129 14
q-32 0 -32 28v126q0 32 32 32q67 1 129 -14t102.5 -33.5t102.5 -34t129 -14.5z" />
    <glyph glyph-name="R" unicode="R" 
d="M864 527l234 -492q7 -16 1 -25.5t-23 -9.5h-160q-25 0 -35 23l-226 480h-282v-473q0 -14 -8.5 -22t-21.5 -8h-164q-13 0 -21.5 8t-8.5 22v1340q0 14 8.5 22t21.5 8h480q131 0 220 -28t140 -87t72 -139t21 -194q0 -179 -55.5 -282t-192.5 -143zM373 1199v-495h286
q55 0 90 5t66 19.5t47 42t25 71.5t9 110q0 81 -12.5 130.5t-44 75t-71.5 33.5t-109 8h-286z" />
    <glyph glyph-name="S" unicode="S" 
d="M606 812q65 -13 115 -25.5t107 -32.5t99 -42.5t83 -56t66.5 -72.5t41 -92t15.5 -116q0 -196 -130 -300.5t-390 -104.5q-477 0 -509 355q-2 15 6.5 25.5t21.5 10.5h154q24 0 30 -30q15 -75 91 -116.5t206 -41.5q300 0 300 197q0 57 -17.5 96t-59 66t-93 44t-137.5 36
q-83 19 -146.5 39.5t-128 54.5t-105.5 77t-67 107t-26 143q0 181 119 284t350 103q220 0 345 -87t143 -263q1 -15 -6.5 -23.5t-21.5 -8.5h-143q-25 0 -30 26q-12 70 -86.5 113t-198.5 43q-119 0 -186.5 -49t-67.5 -138q0 -88 58 -140t198 -81z" />
    <glyph glyph-name="T" unicode="T" 
d="M1100 1400q14 0 22 -8t8 -22v-141q0 -13 -8 -21.5t-22 -8.5h-373v-1169q0 -14 -8.5 -22t-21.5 -8h-164q-13 0 -21.5 8t-8.5 22v1169h-373q-14 0 -22 8.5t-8 21.5v141q0 14 8 22t22 8h970z" />
    <glyph glyph-name="U" unicode="U" 
d="M1066 1400q14 0 22 -8t8 -22v-857q0 -284 -119.5 -413.5t-361.5 -129.5q-241 0 -361 129.5t-120 413.5v857q0 14 8 22t22 8h164q14 0 22 -8t8 -22v-853q0 -174 62 -254t195 -80t195 80t62 254v853q0 14 8 22t22 8h164z" />
    <glyph glyph-name="V" unicode="V" 
d="M941 1376q5 24 34 24h165q32 0 24 -34l-375 -1342q-7 -24 -35 -24h-278q-28 0 -35 24l-374 1342q-10 34 24 34h164q29 0 34 -24l306 -1144h40z" />
    <glyph glyph-name="W" unicode="W" 
d="M1135 1400q27 0 24 -34l-162 -1342q-1 -11 -13 -17.5t-25 -6.5h-191q-32 0 -35 24l-118 861l-118 -861q-3 -24 -35 -24h-191q-13 0 -24.5 6.5t-12.5 17.5l-162 1342q-3 34 24 34h149q31 0 34 -24l108 -1088l152 1088q3 24 34 24h84q31 0 34 -24l152 -1088l108 1088
q3 24 34 24h150z" />
    <glyph glyph-name="X" unicode="X" 
d="M1145 36q9 -16 3.5 -26t-23.5 -10h-174q-25 0 -36 20l-300 495l-300 -495q-11 -20 -36 -20h-173q-18 0 -23.5 10t3.5 26l409 677l-394 651q-9 16 -3.5 26t23.5 10h174q25 0 36 -20l284 -469l284 469q11 20 36 20h174q18 0 23.5 -10t-3.5 -26l-394 -651z" />
    <glyph glyph-name="Y" unicode="Y" 
d="M1140 1400q18 0 23.5 -10t-3.5 -26l-433 -810v-524q0 -14 -8.5 -22t-21.5 -8h-164q-13 0 -21.5 8t-8.5 22v528l-433 806q-9 16 -3.5 26t23.5 10h173q26 0 36 -20l316 -612l316 612q10 20 36 20h173z" />
    <glyph glyph-name="Z" unicode="Z" 
d="M1071 201q13 0 21.5 -8.5t8.5 -21.5v-141q0 -14 -8.5 -22t-21.5 -8h-911q-14 0 -22 8t-8 22v151q0 18 12 36l692 982h-654q-14 0 -22 8.5t-8 21.5v141q0 14 8 22t22 8h871q13 0 21.5 -8t8.5 -22v-151q0 -18 -12 -36l-693 -982h695z" />
    <glyph glyph-name="bracketleft" unicode="[" 
d="M913 1490q13 0 21.5 -8t8.5 -22v-119q0 -13 -8.5 -21.5t-21.5 -8.5h-401v-1392h401q13 0 21.5 -8.5t8.5 -21.5v-119q0 -14 -8.5 -22t-21.5 -8h-595q-14 0 -22 8t-8 22v1690q0 14 8 22t22 8h595z" />
    <glyph glyph-name="backslash" unicode="\" 
d="M165 1400h168q26 0 35 -23l720 -1603q7 -16 0 -25t-24 -9h-167q-25 0 -36 24l-720 1601q-6 15 1 25t23 10z" />
    <glyph glyph-name="bracketright" unicode="]" 
d="M317 1490h595q14 0 22 -8t8 -22v-1690q0 -14 -8 -22t-22 -8h-595q-13 0 -21.5 8t-8.5 22v119q0 13 8.5 21.5t21.5 8.5h401v1392h-401q-13 0 -21.5 8.5t-8.5 21.5v119q0 14 8.5 22t21.5 8z" />
    <glyph glyph-name="asciicircum" unicode="^" 
d="M900 534q-27 -15 -41 13l-244 510l-245 -510q-13 -26 -40 -13l-104 53q-26 14 -12 40l303 622q11 22 35 22h126q24 0 35 -22l303 -622q14 -26 -12 -40z" />
    <glyph glyph-name="underscore" unicode="_" 
d="M1085 0q13 0 21.5 -8t8.5 -22v-120q0 -14 -8.5 -22t-21.5 -8h-940q-13 0 -21.5 8t-8.5 22v120q0 14 8.5 22t21.5 8h940z" />
    <glyph glyph-name="grave" unicode="`" 
d="M484 1460h132q23 0 34 -24l120 -252q7 -16 0 -25t-24 -9h-132q-23 0 -34 24l-120 252q-7 16 0 25t24 9z" />
    <glyph glyph-name="a" unicode="a" 
d="M1099 179q20 -5 28 -12.5t8 -22.5v-119q0 -31 -57 -33q-109 -2 -161.5 38t-52.5 126h-9q-74 -84 -189 -132t-225 -48q-161 0 -247 74.5t-86 204.5q0 131 83 203t253 97l232 36q67 10 98.5 20.5t40.5 26.5q-4 98 -56.5 139t-154.5 41q-214 0 -234 -135q-3 -22 -29 -22
h-149q-32 0 -29 30q17 166 132 238.5t311 72.5q210 0 315 -95.5t105 -278.5v-367q0 -67 73 -82zM482 161q203 0 333 131v201q-13 -28 -125 -46l-209 -33q-85 -14 -121 -47t-36 -85q0 -57 39 -89t119 -32z" />
    <glyph glyph-name="b" unicode="b" 
d="M668 1001q138 0 241.5 -68t155.5 -183.5t52 -261.5q0 -223 -122 -368t-327 -145q-203 0 -324 150l-8 -95q-3 -30 -30 -30h-141q-13 0 -21.5 8t-8.5 22v1340q0 14 8.5 22t21.5 8h156q13 0 21.5 -8t8.5 -22v-534h20q98 165 297 165zM625 171q137 0 210.5 86.5t73.5 232.5
q0 145 -73 230t-211 85q-127 0 -202.5 -86t-75.5 -229t75.5 -231t202.5 -88z" />
    <glyph glyph-name="c" unicode="c" 
d="M675 173q158 0 251 119q18 22 40 8l114 -66q27 -17 10 -40q-66 -101 -176 -160.5t-243 -59.5q-222 0 -369 147.5t-147 366.5t147 366.5t369 147.5q133 0 243 -59.5t176 -160.5q17 -23 -10 -40l-114 -66q-22 -14 -40 8q-93 119 -251 119q-135 0 -223.5 -88.5t-88.5 -226.5
t88.5 -226.5t223.5 -88.5z" />
    <glyph glyph-name="d" unicode="d" 
d="M1071 1400q13 0 21.5 -8t8.5 -22v-1340q0 -14 -8.5 -22t-21.5 -8h-142q-27 0 -30 30l-7 91q-126 -147 -327 -147q-206 0 -330.5 146t-124.5 368q0 223 123.5 368.5t331.5 145.5q112 0 187 -46t113 -120h20v534q0 14 8.5 22t21.5 8h156zM608 171q132 0 209.5 88t77.5 231
t-77.5 229.5t-209.5 86.5q-136 0 -213.5 -86t-77.5 -230t78 -231.5t213 -87.5z" />
    <glyph glyph-name="e" unicode="e" 
d="M618 1002q108 0 198.5 -39.5t150 -107t92.5 -156t33 -186.5q0 -60 -12.5 -85.5t-52.5 -25.5h-699q17 -114 106.5 -182t224.5 -68q136 0 246 84q23 18 42 -1l66 -66q23 -23 0 -45q-150 -150 -376 -150q-230 0 -374.5 147t-144.5 367q0 107 37.5 201.5t102.5 163.5
t158.5 109t201.5 40zM619 817q-115 0 -194 -70t-95 -189h572q-12 118 -89 188.5t-194 70.5z" />
    <glyph glyph-name="f" unicode="f" 
d="M1089 980q13 0 21.5 -8t8.5 -22v-119q0 -13 -8.5 -21.5t-21.5 -8.5h-479v-771q0 -14 -8 -22t-22 -8h-156q-14 0 -22 8t-8 22v771h-255q-13 0 -21.5 8.5t-8.5 21.5v119q0 14 8.5 22t21.5 8h255v98q0 394 439 394q100 0 188 -17.5t88 -47.5v-113q0 -15 -10 -23t-26 -5
q-4 1 -24 5.5t-38.5 8t-54 6.5t-74.5 3q-59 0 -104.5 -10t-85.5 -34.5t-61 -71.5t-21 -115v-78h479z" />
    <glyph glyph-name="g" unicode="g" 
d="M1066 980q14 0 22 -8t8 -22v-935q0 -89 -30.5 -161t-80 -117.5t-116.5 -76.5t-136.5 -43.5t-143.5 -12.5q-117 0 -221 29.5t-180 80.5q-22 15 -9 41l50 93q14 26 40 12q136 -73 303 -73q59 0 113 12t102.5 38.5t77 74.5t28.5 112v129q-126 -158 -323 -158q-135 0 -245 68
t-170.5 183t-60.5 252t60.5 252t170.5 183t245 68q193 0 319 -155l6 104q3 30 30 30h141zM593 191q124 0 207.5 92t83.5 217q0 123 -83.5 214t-207.5 91q-125 0 -208.5 -88.5t-83.5 -216.5q0 -130 83.5 -219.5t208.5 -89.5z" />
    <glyph glyph-name="h" unicode="h" 
d="M721 1002q161 0 258 -106t97 -298v-568q0 -14 -8 -22t-22 -8h-156q-14 0 -22 8t-8 22v536q0 121 -57.5 179t-160.5 58q-47 0 -88.5 -13.5t-70.5 -33.5t-52 -45.5t-36 -48.5t-20 -43v-589q0 -14 -8.5 -22t-21.5 -8h-156q-13 0 -21.5 8t-8.5 22v1340q0 14 8.5 22t21.5 8
h156q13 0 21.5 -8t8.5 -22v-552h16q50 80 133 132t197 52z" />
    <glyph glyph-name="i" unicode="i" 
d="M644 1187q-52 0 -88 36t-36 88t36 88.5t88 36.5t88.5 -36t36.5 -89q0 -52 -36.5 -88t-88.5 -36zM1051 181q13 0 21.5 -8.5t8.5 -21.5v-121q0 -14 -8.5 -22t-21.5 -8h-861q-14 0 -22 8t-8 22v121q0 13 8 21.5t22 8.5h348v618h-298q-14 0 -22 8.5t-8 21.5v121q0 14 8 22
t22 8h484q14 0 22 -8t8 -22v-769h297z" />
    <glyph glyph-name="j" unicode="j" 
d="M799 1187q-52 0 -88.5 36t-36.5 88t36.5 88.5t88.5 36.5t88.5 -36.5t36.5 -88.5t-36.5 -88t-88.5 -36zM899 980q13 0 21.5 -8t8.5 -22v-916q0 -96 -25.5 -170.5t-67 -120t-100 -75t-118 -40.5t-127.5 -11q-61 0 -119.5 13.5t-101 33.5t-73.5 42.5t-44 43t-5 31.5l63 97
q8 12 23 12.5t29 -10.5q97 -77 214 -77q50 0 88.5 10.5t74 36.5t54.5 77.5t19 126.5v745h-452q-13 0 -21.5 8.5t-8.5 21.5v121q0 14 8.5 22t21.5 8h638z" />
    <glyph glyph-name="k" unicode="k" 
d="M1109 36q12 -15 6 -25.5t-24 -10.5h-179q-22 0 -36 18l-326 396l-161 -171v-213q0 -14 -8.5 -22t-21.5 -8h-156q-13 0 -21.5 8t-8.5 22v1400q0 14 8.5 22t21.5 8h156q13 0 21.5 -8t8.5 -22v-919l420 453q15 16 37 16h190q20 0 25 -11t-9 -25l-367 -388z" />
    <glyph glyph-name="l" unicode="l" 
d="M1051 181q13 0 21.5 -8.5t8.5 -21.5v-121q0 -14 -8.5 -22t-21.5 -8h-871q-14 0 -22 8t-8 22v121q0 13 8 21.5t22 8.5h348v1038h-325q-13 0 -21.5 8.5t-8.5 21.5v121q0 14 8.5 22t21.5 8h511q14 0 22 -8t8 -22v-1189h307z" />
    <glyph glyph-name="m" unicode="m" 
d="M900 1002q118 0 173 -80t55 -268v-624q0 -14 -8 -22t-22 -8h-141q-13 0 -21.5 8t-8.5 22v624q0 90 -20.5 126t-69.5 36q-52 0 -84 -40.5t-39 -91.5v-654q0 -14 -8 -22t-22 -8h-138q-14 0 -22 8t-8 22v624q0 91 -20.5 126.5t-69.5 35.5q-52 0 -83.5 -40t-39.5 -92v-654
q0 -14 -8.5 -22t-21.5 -8h-141q-14 0 -22 8t-8 22v920q0 14 8 22t22 8h133q28 0 30 -30l5 -80h14q47 132 195 132q142 0 188 -132h12q52 132 191 132z" />
    <glyph glyph-name="n" unicode="n" 
d="M721 1002q161 0 258 -106t97 -298v-568q0 -14 -8 -22t-22 -8h-156q-14 0 -22 8t-8 22v536q0 121 -57.5 179t-160.5 58q-66 0 -121.5 -26t-86.5 -62t-47.5 -68.5t-16.5 -51.5v-565q0 -14 -8 -22t-22 -8h-156q-14 0 -22 8t-8 22v920q0 14 8 22t22 8h148q27 0 30 -30l8 -132
h21q50 80 133 132t197 52z" />
    <glyph glyph-name="o" unicode="o" 
d="M615 -26q-213 0 -356.5 147.5t-143.5 366.5t143.5 366.5t356.5 147.5q140 0 255 -67.5t180.5 -185.5t65.5 -261t-65.5 -261t-180.5 -185.5t-255 -67.5zM615 173q127 0 210 88t83 227t-83 227t-210 88t-210 -88t-83 -227t83 -227t210 -88z" />
    <glyph glyph-name="p" unicode="p" 
d="M668 1001q138 0 241.5 -68t155.5 -183.5t52 -261.5q0 -223 -122 -368t-327 -145q-194 0 -317 141v-466q0 -14 -8.5 -22t-21.5 -8h-156q-13 0 -21.5 8t-8.5 22v1300q0 14 8.5 22t21.5 8h156q13 0 21.5 -8t8.5 -22v-114h20q98 165 297 165zM626 171q137 0 210 86.5
t73 232.5q0 145 -73 230t-210 85q-128 0 -203.5 -86t-75.5 -229t75.5 -231t203.5 -88z" />
    <glyph glyph-name="q" unicode="q" 
d="M1071 980q13 0 21.5 -8t8.5 -22v-1300q0 -14 -8.5 -22t-21.5 -8h-156q-13 0 -21.5 8t-8.5 22v464q-125 -140 -320 -140q-206 0 -330.5 146t-124.5 368q0 223 123.5 368.5t331.5 145.5q112 0 187 -46t113 -120h20v114q0 14 8.5 22t21.5 8h156zM608 171q132 0 209.5 88
t77.5 231t-77.5 229.5t-209.5 86.5q-136 0 -213.5 -86t-77.5 -230t78 -231.5t213 -87.5z" />
    <glyph glyph-name="r" unicode="r" 
d="M754 1002q167 0 271 -99.5t104 -281.5q0 -29 -29 -32l-156 -22q-29 -5 -32 27q-7 106 -67 156.5t-160 50.5q-71 0 -130.5 -27t-94 -65.5t-53 -75t-18.5 -61.5v-542q0 -14 -8.5 -22t-21.5 -8h-156q-13 0 -21.5 8t-8.5 22v920q0 14 8.5 22t21.5 8h148q27 0 30 -30l8 -132
h22q54 79 142.5 131.5t200.5 52.5z" />
    <glyph glyph-name="s" unicode="s" 
d="M616 570q183 -23 257 -48q168 -54 194 -190q5 -26 5 -56q0 -139 -115 -220.5t-336 -81.5q-81 0 -146.5 10t-122 32.5t-96.5 58t-65 88t-32 121.5q-3 30 29 30h149q26 0 29 -22q20 -138 252 -138q242 0 242 126q0 27 -12.5 47t-32.5 33t-53.5 23t-65.5 15.5t-80 11.5
q-182 24 -258 51q-160 58 -178 201q-2 19 -2 40q0 137 108 218.5t315 81.5q97 0 172.5 -16t136 -51t97 -96t44.5 -146q3 -30 -29 -30h-149q-26 0 -29 22q-19 138 -240 138q-215 0 -215 -125q0 -60 54.5 -86.5t172.5 -41.5z" />
    <glyph glyph-name="t" unicode="t" 
d="M1104 165q18 -22 2 -41q-44 -53 -128 -96.5t-203 -43.5q-398 0 -398 397v418h-262q-13 0 -21.5 8.5t-8.5 21.5v121q0 14 8.5 22t21.5 8h262v260q0 14 8.5 22t21.5 8h156q13 0 21.5 -8t8.5 -22v-260h396q13 0 21.5 -8t8.5 -22v-121q0 -13 -8.5 -21.5t-21.5 -8.5h-396v-395
q0 -67 18 -113.5t50.5 -70t68.5 -33t82 -9.5q99 0 183 67q22 21 42 -2z" />
    <glyph glyph-name="u" unicode="u" 
d="M1046 980q14 0 22 -8t8 -22v-920q0 -14 -8 -22t-22 -8h-148q-28 0 -30 30l-8 133h-21q-50 -81 -133 -133t-197 -52q-161 0 -258 106t-97 298v568q0 14 8 22t22 8h156q14 0 22 -8t8 -22v-536q0 -121 57.5 -179t160.5 -58q66 0 121.5 26t86.5 62t47.5 68.5t16.5 51.5v565
q0 14 8 22t22 8h156z" />
    <glyph glyph-name="v" unicode="v" 
d="M903 956q11 24 36 24h157q17 0 24 -9t0 -25l-387 -922q-9 -24 -36 -24h-164q-27 0 -36 24l-387 922q-7 16 0 25t24 9h157q25 0 36 -24l288 -713z" />
    <glyph glyph-name="w" unicode="w" 
d="M1135 980q30 0 24 -34l-182 -922q-5 -24 -36 -24h-159q-32 0 -36 24l-132 647l-132 -647q-4 -24 -36 -24h-159q-32 0 -36 24l-182 922q-6 34 24 34h133q32 0 36 -24l116 -709l149 709q6 24 36 24h102q30 0 36 -24l149 -709l116 709q4 24 36 24h133z" />
    <glyph glyph-name="x" unicode="x" 
d="M1138 36q12 -14 6.5 -25t-24.5 -11h-184q-23 0 -36 17l-285 339l-285 -339q-13 -17 -36 -17h-184q-19 0 -24 11t7 25l399 469l-372 439q-12 14 -6.5 25t24.5 11h182q23 0 36 -17l259 -309l259 309q13 17 36 17h182q19 0 24.5 -10.5t-6.5 -25.5l-370 -439z" />
    <glyph glyph-name="y" unicode="y" 
d="M1096 980q17 0 24 -9t0 -25l-539 -1302q-11 -24 -36 -24h-157q-17 0 -24 9t0 25l143 344l-397 948q-7 16 0 25t24 9h157q25 0 36 -24l288 -713l288 713q11 24 36 24h157z" />
    <glyph glyph-name="z" unicode="z" 
d="M1046 950v-127q0 -24 -14 -38l-591 -606h575q14 0 22 -8.5t8 -21.5v-119q0 -14 -8 -22t-22 -8h-802q-14 0 -22 8t-8 22v127q0 24 14 38l591 606h-575q-14 0 -22 8.5t-8 21.5v119q0 14 8 22t22 8h802q14 0 22 -8t8 -22z" />
    <glyph glyph-name="braceleft" unicode="{" 
d="M566 872q0 -25 -11 -36l-198 -224l198 -219q11 -13 11 -37v-370q0 -31 19 -49t51 -18h277q13 0 21.5 -8.5t8.5 -21.5v-119q0 -14 -8.5 -22t-21.5 -8h-398q-72 0 -123 44.5t-51 131.5v417q0 26 -10 38l-188 221q-18 21 -2 40l190 225q10 12 10 38v419q0 87 51.5 131.5
t122.5 44.5h398q13 0 21.5 -8t8.5 -22v-119q0 -13 -8.5 -21.5t-21.5 -8.5h-277q-32 0 -51 -18t-19 -49v-372z" />
    <glyph glyph-name="bar" unicode="|" 
d="M503 1570q0 14 8.5 22t21.5 8h164q13 0 21.5 -8t8.5 -22v-1920q0 -14 -8.5 -22t-21.5 -8h-164q-13 0 -21.5 8t-8.5 22v1920z" />
    <glyph glyph-name="braceright" unicode="}" 
d="M664 872v372q0 31 -19 49t-51 18h-277q-13 0 -21.5 8.5t-8.5 21.5v119q0 14 8.5 22t21.5 8h398q71 0 122.5 -44.5t51.5 -131.5v-419q0 -26 10 -38l190 -225q16 -19 -2 -40l-188 -221q-10 -12 -10 -38v-417q0 -87 -51 -131.5t-123 -44.5h-398q-13 0 -21.5 8t-8.5 22v119
q0 13 8.5 21.5t21.5 8.5h277q32 0 51 18t19 49v370q0 24 11 37l198 219l-198 224q-11 11 -11 36z" />
    <glyph glyph-name="asciitilde" unicode="~" 
d="M421 737q54 0 101.5 -18.5t82 -45.5t67 -54t70 -45.5t76.5 -18.5q51 0 83 25t42 55q7 19 25 19h74q26 0 23 -23q-4 -102 -75.5 -161.5t-181.5 -59.5q-54 0 -101.5 18.5t-82.5 45.5t-67 54t-69 45.5t-75 18.5q-90 0 -125 -79q-9 -20 -26 -20h-75q-25 0 -22 29
q11 99 80 157t176 58z" />
    <glyph glyph-name="exclamdown" unicode="&#xa1;" 
d="M615 1066q67 0 114 -47t47 -114q0 -68 -47 -115.5t-114 -47.5t-114 47.5t-47 115.5q0 67 47 114t114 47zM753 -212q6 -72 -35.5 -118t-102.5 -46t-103 46t-35 118l62 801q3 31 34 31h85q31 0 34 -31z" />
    <glyph glyph-name="cent" unicode="&#xa2;" 
d="M1080 379q28 -16 10 -39q-58 -87 -151.5 -143t-208.5 -69v-178q0 -14 -8 -22t-22 -8h-91q-13 0 -21.5 8t-8.5 22v182q-188 30 -306 167.5t-118 328.5t118 329t306 168v245q0 14 8.5 22t21.5 8h91q14 0 22 -8t8 -22v-241q115 -13 208.5 -69t151.5 -144q17 -22 -10 -39
l-114 -65q-22 -13 -40 8q-75 94 -196 113v-609q121 19 196 112q18 22 40 8zM363 628q0 -109 59 -188t157 -107v591q-98 -28 -157 -107.5t-59 -188.5z" />
    <glyph glyph-name="sterling" unicode="&#xa3;" 
d="M1077 201q13 0 21.5 -8.5t8.5 -21.5v-141q0 -14 -8.5 -22t-21.5 -8h-921q-14 0 -22 8t-8 22v171q210 110 210 304q0 27 -5 59h-178q-13 0 -21.5 8t-8.5 22v138q0 14 8.5 22t21.5 8h92q-68 136 -68 266q0 183 119 285.5t338 102.5q216 0 342.5 -103t126.5 -290
q0 -29 -29 -32l-143 -16q-30 -3 -32 28q-6 109 -78 163.5t-198 54.5q-119 0 -179.5 -57.5t-60.5 -151.5q0 -27 4.5 -53.5t8 -43.5t15.5 -43.5t17 -35.5t22 -38.5t20 -35.5h475q13 0 21.5 -8t8.5 -22v-138q0 -14 -8.5 -22t-21.5 -8h-407q4 -29 4 -72q0 -79 -37 -156t-97 -135
h669z" />
    <glyph glyph-name="currency" unicode="&#xa4;" 
d="M1061 952q0 -134 -72 -244l94 -94l-114 -111l-89 89q-118 -88 -267 -88q-147 0 -265 86l-87 -87l-114 111l91 91q-74 112 -74 247q0 138 76 250l-93 92l114 112l89 -90q117 84 263 84q147 0 265 -86l91 92l114 -112l-96 -95q74 -112 74 -247zM613 647q133 0 220 94
t87 211q0 116 -87.5 210.5t-219.5 94.5q-89 0 -160.5 -46t-108.5 -115.5t-37 -143.5q0 -118 86.5 -211.5t219.5 -93.5z" />
    <glyph glyph-name="yen" unicode="&#xa5;" 
d="M1140 1400q18 0 23.5 -10t-3.5 -26l-389 -727h282q13 0 21.5 -8.5t8.5 -21.5v-108q0 -13 -8.5 -21.5t-21.5 -8.5h-326v-84h326q13 0 21.5 -8.5t8.5 -21.5v-107q0 -14 -8.5 -22t-21.5 -8h-326v-188q0 -14 -8.5 -22t-21.5 -8h-164q-13 0 -21.5 8t-8.5 22v188h-325
q-14 0 -22 8t-8 22v107q0 13 8 21.5t22 8.5h325v84h-325q-14 0 -22 8.5t-8 21.5v108q0 13 8 21.5t22 8.5h282l-390 727q-9 16 -3.5 26t23.5 10h173q26 0 36 -20l316 -612l316 612q10 20 36 20h173z" />
    <glyph glyph-name="brokenbar" unicode="&#xa6;" 
d="M697 1600q13 0 21.5 -8t8.5 -22v-560q0 -14 -8.5 -22t-21.5 -8h-164q-13 0 -21.5 8t-8.5 22v560q0 14 8.5 22t21.5 8h164zM697 240q13 0 21.5 -8t8.5 -22v-560q0 -14 -8.5 -22t-21.5 -8h-164q-13 0 -21.5 8t-8.5 22v560q0 14 8.5 22t21.5 8h164z" />
    <glyph glyph-name="section" unicode="&#xa7;" 
d="M1147 558q0 -176 -104 -282q54 -81 54 -192q0 -197 -127.5 -301t-372.5 -104q-472 0 -509 355q-2 15 6.5 25.5t21.5 10.5h155q24 0 30 -30q14 -75 90 -117t206 -42q280 0 280 198q0 91 -61.5 134t-224.5 80q-87 19 -151 39t-135.5 56.5t-117 82.5t-75.5 117.5t-30 160.5
q0 155 106 261q-51 86 -51 203q0 179 117.5 283t331.5 104q220 0 345.5 -87t143.5 -263q1 -15 -6.5 -23.5t-21.5 -8.5h-143q-25 0 -30 26q-12 70 -86.5 113t-199.5 43q-111 0 -172.5 -49t-61.5 -138q0 -92 49.5 -142.5t187.5 -78.5q66 -14 116 -26t111 -32t105.5 -42.5
t89 -55.5t72 -72t45 -91.5t17.5 -114.5zM591 493q178 -37 275 -81q65 51 65 147q0 43 -16 76t-42 55.5t-72.5 41.5t-92.5 31.5t-117 28.5q-147 32 -235 76q-57 -50 -57 -137q0 -100 70.5 -153.5t221.5 -84.5z" />
    <glyph glyph-name="dieresis" unicode="&#xa8;" 
d="M413 1191q-47 0 -80.5 34t-33.5 82q0 46 33.5 79.5t80.5 33.5t81 -33.5t34 -79.5q0 -49 -34 -82.5t-81 -33.5zM818 1191q-48 0 -81.5 33.5t-33.5 82.5q0 46 34 79.5t81 33.5t80.5 -33.5t33.5 -79.5q0 -48 -33.5 -82t-80.5 -34z" />
    <glyph glyph-name="copyright" unicode="&#xa9;" 
d="M615 112q-155 0 -287.5 76.5t-209.5 208.5t-77 287t77 287t209.5 208.5t287.5 76.5t287.5 -76.5t209.5 -208.5t77 -287t-77 -287t-209.5 -208.5t-287.5 -76.5zM615 251q179 0 303 126.5t124 306.5t-124 306.5t-303 126.5t-303.5 -126.5t-124.5 -306.5t124.5 -306.5
t303.5 -126.5zM805 485q21 -23 -1 -42q-75 -64 -179 -64q-124 0 -212.5 88t-88.5 217t88.5 217t212.5 88q103 0 180 -64q22 -19 0 -42l-40 -42q-15 -16 -41 -2q-47 26 -96 26q-74 0 -125.5 -52.5t-51.5 -128.5t51.5 -128.5t125.5 -52.5q47 0 96 26q26 14 41 -2z" />
    <glyph glyph-name="ordfeminine" unicode="&#xaa;" 
d="M838 1400h137v-718h-137l-18 75q-86 -75 -201 -75q-151 0 -257.5 106t-106.5 258t106.5 258t257.5 106q116 0 201 -74zM619 837q88 0 149 60.5t61 148.5t-61 149t-149 61t-148.5 -61t-60.5 -149t60.5 -148.5t148.5 -60.5z" />
    <glyph glyph-name="guillemotleft" unicode="&#xab;" 
d="M606 944l-252 -382l252 -382q10 -16 4 -26t-24 -10h-164q-25 0 -36 20l-250 378q-14 20 0 40l250 378q11 20 36 20h164q18 0 24 -10t-4 -26zM1094 944l-252 -382l252 -382q10 -16 4 -26t-24 -10h-164q-25 0 -36 20l-250 378q-14 20 0 40l250 378q11 20 36 20h164
q18 0 24 -10t-4 -26z" />
    <glyph glyph-name="logicalnot" unicode="&#xac;" 
d="M1085 615q13 0 21.5 -8.5t8.5 -21.5v-281q0 -14 -8.5 -22t-21.5 -8h-154q-13 0 -21.5 8t-8.5 22v132h-756q-13 0 -21.5 8t-8.5 22v119q0 13 8.5 21.5t21.5 8.5h940z" />
    <glyph glyph-name="uni00AD" unicode="&#xad;" 
d="M1085 649q13 0 21.5 -8.5t8.5 -21.5v-120q0 -13 -8.5 -21.5t-21.5 -8.5h-940q-13 0 -21.5 8.5t-8.5 21.5v120q0 13 8.5 21.5t21.5 8.5h940z" />
    <glyph glyph-name="registered" unicode="&#xae;" 
d="M615 1256q155 0 287.5 -76.5t209.5 -208.5t77 -287t-77 -287t-209.5 -208.5t-287.5 -76.5t-287.5 76.5t-209.5 208.5t-77 287t77 287t209.5 208.5t287.5 76.5zM615 251q179 0 303 126.5t124 306.5t-124 306.5t-303 126.5t-303.5 -126.5t-124.5 -306.5t124.5 -306.5
t303.5 -126.5zM891 773q0 -75 -42 -120t-117 -59l153 -162q7 -8 4 -15t-13 -7h-106q-12 0 -21 10l-154 168h-98v-161q0 -17 -16 -17h-90q-17 0 -17 17v515q0 17 17 17h271q106 0 167.5 -47.5t61.5 -138.5zM664 694q49 0 75.5 21.5t26.5 57.5q0 37 -26 58t-76 21h-167v-158
h167z" />
    <glyph glyph-name="macron" unicode="&#xaf;" 
d="M876 1400q14 0 22 -8t8 -22v-111q0 -13 -8 -21.5t-22 -8.5h-522q-14 0 -22 8.5t-8 21.5v111q0 14 8 22t22 8h522z" />
    <glyph glyph-name="degree" unicode="&#xb0;" 
d="M615 1410q133 0 222.5 -88t89.5 -222q0 -137 -89.5 -225.5t-222.5 -88.5t-222.5 88.5t-89.5 225.5q0 134 89.5 222t222.5 88zM615 1268q-77 0 -122.5 -48t-45.5 -120q0 -73 45.5 -122t122.5 -49t122.5 49t45.5 122q0 72 -45.5 120t-122.5 48z" />
    <glyph glyph-name="plusminus" unicode="&#xb1;" 
d="M1013 788q13 0 21.5 -8t8.5 -22v-108q0 -14 -8.5 -22t-21.5 -8h-304v-303q0 -13 -8.5 -21.5t-21.5 -8.5h-108q-13 0 -21.5 8.5t-8.5 21.5v303h-303q-14 0 -22 8t-8 22v108q0 14 8 22t22 8h303v304q0 14 8.5 22t21.5 8h108q13 0 21.5 -8t8.5 -22v-304h304zM993 168
q13 0 21.5 -8t8.5 -22v-108q0 -14 -8.5 -22t-21.5 -8h-775q-14 0 -22 8t-8 22v108q0 14 8 22t22 8h775z" />
    <glyph glyph-name="uni00B2" unicode="&#xb2;" 
d="M1041 386q13 0 21.5 -8t8.5 -22v-116q0 -14 -8.5 -22t-21.5 -8h-865q-14 0 -22 8t-8 22v91q0 77 31 137.5t81 98t114.5 67.5t131.5 48t131.5 38t114.5 38.5t81 48.5t31 69q0 70 -59 103t-183 33q-136 0 -205 -39.5t-75 -125.5q-2 -31 -32 -28l-142 16q-28 3 -28 32
q0 165 123.5 249t347.5 84q215 0 337.5 -85t122.5 -239q0 -71 -37 -124.5t-96 -85.5t-130.5 -56.5t-143.5 -44.5t-131 -42t-96 -56.5t-37 -80.5h643z" />
    <glyph glyph-name="uni00B3" unicode="&#xb3;" 
d="M879 707q123 -28 185.5 -81.5t62.5 -157.5q0 -284 -508 -284q-98 0 -172 8t-138 27.5t-104.5 52.5t-63 84t-22.5 120q0 29 28 32l149 16q30 3 32 -28q4 -73 71 -100.5t212 -27.5q71 0 121 5t90 18t59.5 36.5t19.5 58.5q0 77 -82.5 107.5t-287.5 30.5q-30 0 -30 30v82
q0 31 31 31q198 0 274.5 29t76.5 97q0 124 -264 124q-130 0 -199.5 -34t-73.5 -119q-2 -31 -32 -28l-149 15q-29 3 -29 32q0 168 126.5 242.5t362.5 74.5q217 0 341.5 -67.5t124.5 -205.5q0 -84 -57 -141t-155 -79z" />
    <glyph glyph-name="acute" unicode="&#xb4;" 
d="M746 1460q17 0 24 -9t0 -25l-120 -252q-11 -24 -34 -24h-132q-17 0 -24 9t0 25l120 252q11 24 34 24h132z" />
    <glyph glyph-name="uni00B5" unicode="&#xb5;" 
d="M1046 980q14 0 22 -8t8 -22v-920q0 -14 -8 -22t-22 -8h-148q-28 0 -30 30l-8 133h-21q-50 -81 -133 -133t-197 -52q-76 0 -139 24v-352q0 -14 -8 -22t-22 -8h-156q-14 0 -22 8t-8 22v1300q0 14 8 22t22 8h156q14 0 22 -8t8 -22v-536q0 -121 57.5 -179t160.5 -58
q66 0 121.5 26t86.5 62t47.5 68.5t16.5 51.5v565q0 14 8 22t22 8h156z" />
    <glyph glyph-name="paragraph" unicode="&#xb6;" 
d="M464 1400h262q14 0 22 -8t8 -22v-1340q0 -14 -8 -22t-22 -8h-149q-13 0 -21.5 8t-8.5 22v473h-83q-119 0 -197.5 28t-122.5 87.5t-61.5 138.5t-17.5 195q0 115 17.5 194t61.5 138.5t122.5 87.5t197.5 28zM1066 1400q14 0 22 -8t8 -22v-1340q0 -14 -8 -22t-22 -8h-149
q-13 0 -21.5 8t-8.5 22v1340q0 14 8.5 22t21.5 8h149z" />
    <glyph glyph-name="periodcentered" unicode="&#xb7;" 
d="M615 439q-67 0 -114 47t-47 114q0 68 47 115.5t114 47.5t114 -47.5t47 -115.5q0 -67 -47 -114t-114 -47z" />
    <glyph glyph-name="cedilla" unicode="&#xb8;" 
d="M621 -72q71 -6 121 -48.5t50 -111.5q0 -82 -50.5 -132.5t-123 -64.5t-156.5 0q-18 3 -18 22v77q0 10 6 15.5t16 4.5q80 -12 125.5 7t45.5 60q0 24 -23 41t-60.5 20t-85.5 -16q-10 -4 -17 -0.5t-7 14.5v77q0 12 10 24l83 83h159z" />
    <glyph glyph-name="uni00B9" unicode="&#xb9;" 
d="M1035 389q13 0 21.5 -8.5t8.5 -21.5v-119q0 -14 -8.5 -22t-21.5 -8h-840q-13 0 -21.5 8t-8.5 22v119q0 13 8.5 21.5t21.5 8.5h349v591q-127 -122 -311 -122q-30 0 -30 29v134q0 31 30 31q76 0 157.5 36.5t153.5 101.5h186q14 0 22 -8t8 -22v-771h275z" />
    <glyph glyph-name="ordmasculine" unicode="&#xba;" 
d="M614 682q-152 0 -258 106t-106 258t106 258t258 106t258 -106t106 -258t-106 -258t-258 -106zM614 837q88 0 149 60.5t61 148.5t-61 149t-149 61t-148.5 -61t-60.5 -149t60.5 -148.5t148.5 -60.5z" />
    <glyph glyph-name="guillemotright" unicode="&#xbb;" 
d="M136 944q-10 16 -4 26t24 10h164q25 0 36 -20l250 -378q14 -20 0 -40l-250 -378q-11 -20 -36 -20h-164q-18 0 -24 10t4 26l252 382zM624 944q-10 16 -4 26t24 10h164q25 0 36 -20l250 -378q14 -20 0 -40l-250 -378q-11 -20 -36 -20h-164q-18 0 -24 10t4 26l252 382z" />
    <glyph glyph-name="onequarter" unicode="&#xbc;" 
d="M195 776q-30 0 -30 25v100q0 25 30 25h349v497q-128 -102 -311 -102q-30 0 -30 24v113q0 26 30 26q158 0 311 116h186q30 0 30 -25v-649h275q30 0 30 -25v-100q0 -25 -30 -25h-840zM1185 689q13 0 21.5 -8.5t8.5 -21.5v-94q0 -13 -8.5 -21.5t-21.5 -8.5h-1140
q-13 0 -21.5 8.5t-8.5 21.5v94q0 13 8.5 21.5t21.5 8.5h1140zM1101 61q13 0 21.5 -7.5t8.5 -18.5v-103q0 -26 -30 -26h-139v-260q0 -26 -30 -26h-156q-30 0 -30 26v260h-619q-30 0 -30 26v509q0 11 8.5 18.5t21.5 7.5h156q13 0 21.5 -7.5t8.5 -18.5v-380h433v380
q0 11 8.5 18.5t21.5 7.5h156q13 0 21.5 -7.5t8.5 -18.5v-380h139z" />
    <glyph glyph-name="onehalf" unicode="&#xbd;" 
d="M195 776q-30 0 -30 25v100q0 25 30 25h349v497q-128 -102 -311 -102q-30 0 -30 24v113q0 26 30 26q158 0 311 116h186q30 0 30 -25v-649h275q30 0 30 -25v-100q0 -25 -30 -25h-840zM1185 689q13 0 21.5 -8.5t8.5 -21.5v-94q0 -13 -8.5 -21.5t-21.5 -8.5h-1140
q-13 0 -21.5 8.5t-8.5 21.5v94q0 13 8.5 21.5t21.5 8.5h1140zM1051 -232q30 0 30 -25v-98q0 -25 -30 -25h-865q-30 0 -30 25v77q0 73 39.5 128.5t102.5 88t139.5 56.5t153 41t139.5 34.5t102.5 45t39.5 64.5q0 115 -242 115q-136 0 -205 -33.5t-75 -105.5q-2 -26 -32 -24
l-142 14q-28 2 -28 27q0 139 123.5 209.5t347.5 70.5q215 0 337.5 -71.5t122.5 -201.5q0 -59 -37 -104t-96 -72t-130.5 -47.5t-143.5 -37.5t-131 -35.5t-96 -47.5t-37 -68h643z" />
    <glyph glyph-name="threequarters" unicode="&#xbe;" 
d="M873 1195q123 -24 185.5 -69t62.5 -132q0 -239 -508 -239q-124 0 -211 11t-155 38t-101 75.5t-33 120.5q0 25 28 27l149 14q30 2 32 -24q4 -62 71 -84.5t212 -22.5q146 0 218 21t72 78q0 64 -82 90t-288 26q-30 0 -30 25v69q0 26 31 26q135 0 212 11.5t108 34t31 60.5
q0 104 -264 104q-130 0 -199.5 -28.5t-73.5 -99.5q-2 -26 -32 -24l-149 13q-29 3 -29 27q0 141 126.5 203.5t362.5 62.5q218 0 342 -56.5t124 -172.5q0 -71 -57 -119t-155 -66zM1185 689q13 0 21.5 -8.5t8.5 -21.5v-94q0 -13 -8.5 -21.5t-21.5 -8.5h-1140q-13 0 -21.5 8.5
t-8.5 21.5v94q0 13 8.5 21.5t21.5 8.5h1140zM933 467q13 0 21.5 -7.5t8.5 -18.5v-380h139q13 0 21.5 -7.5t8.5 -18.5v-103q0 -26 -30 -26h-139v-260q0 -26 -30 -26h-156q-30 0 -30 26v260h-619q-30 0 -30 26v509q0 11 8.5 18.5t21.5 7.5h156q13 0 21.5 -7.5t8.5 -18.5v-380
h433v380q0 11 8.5 18.5t21.5 7.5h156z" />
    <glyph glyph-name="questiondown" unicode="&#xbf;" 
d="M647 1066q67 0 114 -47t47 -114q0 -68 -47 -115.5t-114 -47.5t-114 47.5t-47 115.5q0 67 47 114t114 47zM733 634q30 0 30 -32q-4 -99 -28.5 -170.5t-61 -109.5t-79.5 -64t-86 -43.5t-78 -37.5t-56.5 -56.5t-21.5 -91.5q0 -96 62 -153t187 -57q126 0 198 54.5t78 163.5
q2 31 32 28l144 -16q28 -3 28 -32q0 -188 -126 -290.5t-343 -102.5t-340.5 107t-123.5 296q0 83 21 142.5t54.5 92.5t74 57t82.5 45.5t77 48.5t59.5 75t28.5 116q1 30 31 30h157z" />
    <glyph glyph-name="Agrave" unicode="&#xc0;" 
d="M509 1534l-120 252q-7 16 0 25t24 9h132q23 0 34 -24l120 -252q7 -16 0 -25t-24 -9h-132q-23 0 -34 24zM1164 34q8 -34 -24 -34h-165q-29 0 -34 24l-67 249h-518l-67 -249q-5 -24 -34 -24h-164q-34 0 -24 34l374 1342q7 24 35 24h278q28 0 35 -24zM407 467h416l-188 702
h-40z" />
    <glyph glyph-name="Aacute" unicode="&#xc1;" 
d="M555 1510q-17 0 -24 9t0 25l120 252q11 24 34 24h132q17 0 24 -9t0 -25l-120 -252q-11 -24 -34 -24h-132zM1164 34q8 -34 -24 -34h-165q-29 0 -34 24l-67 249h-518l-67 -249q-5 -24 -34 -24h-164q-34 0 -24 34l374 1342q7 24 35 24h278q28 0 35 -24zM407 467h416
l-188 702h-40z" />
    <glyph glyph-name="Acircumflex" unicode="&#xc2;" 
d="M258 1544q-19 0 -24 11t7 25l228 260q14 16 36 16h220q22 0 36 -16l228 -260q12 -14 7 -25t-24 -11h-158q-20 0 -36 16l-163 164l-163 -164q-16 -16 -36 -16h-158zM1164 34q8 -34 -24 -34h-165q-29 0 -34 24l-67 249h-518l-67 -249q-5 -24 -34 -24h-164q-34 0 -24 34
l374 1342q7 24 35 24h278q28 0 35 -24zM407 467h416l-188 702h-40z" />
    <glyph glyph-name="Atilde" unicode="&#xc3;" 
d="M288 1655q-22 0 -19 25q10 87 62.5 133t135.5 46q42 0 79.5 -14.5t64.5 -35t52.5 -40.5t54 -34.5t57.5 -14.5q67 0 90 59q6 17 22 17h57q20 0 20 -20q-6 -89 -61 -137t-137 -48q-42 0 -79.5 14.5t-65 35t-53 40.5t-53.5 34.5t-57 14.5q-67 0 -92 -58q-6 -17 -22 -17h-56z
M1164 34q8 -34 -24 -34h-165q-29 0 -34 24l-67 249h-518l-67 -249q-5 -24 -34 -24h-164q-34 0 -24 34l374 1342q7 24 35 24h278q28 0 35 -24zM407 467h416l-188 702h-40z" />
    <glyph glyph-name="Adieresis" unicode="&#xc4;" 
d="M413 1611q-47 0 -80.5 34t-33.5 82q0 46 33.5 79.5t80.5 33.5t81 -33.5t34 -79.5q0 -49 -34 -82.5t-81 -33.5zM818 1611q-48 0 -81.5 33.5t-33.5 82.5q0 46 34 79.5t81 33.5t80.5 -33.5t33.5 -79.5q0 -48 -33.5 -82t-80.5 -34zM1164 34q8 -34 -24 -34h-165q-29 0 -34 24
l-67 249h-518l-67 -249q-5 -24 -34 -24h-164q-34 0 -24 34l374 1342q7 24 35 24h278q28 0 35 -24zM407 467h416l-188 702h-40z" />
    <glyph glyph-name="Aring" unicode="&#xc5;" 
d="M615 1511q-81 0 -136 55.5t-55 132.5q0 78 55 133.5t136 55.5q80 0 135 -55.5t55 -133.5q0 -77 -55 -132.5t-135 -55.5zM615 1766q-29 0 -48.5 -18.5t-19.5 -47.5t19.5 -47.5t48.5 -18.5t48 18.5t20 47.5q-1 29 -20 47.5t-48 18.5zM1164 34q8 -34 -24 -34h-165
q-29 0 -34 24l-67 249h-518l-67 -249q-5 -24 -34 -24h-164q-34 0 -24 34l374 1342q7 24 35 24h278q28 0 35 -24zM407 467h416l-188 702h-40z" />
    <glyph glyph-name="AE" unicode="&#xc6;" 
d="M1161 201q13 0 21.5 -8.5t8.5 -21.5v-141q0 -14 -8.5 -22t-21.5 -8h-514q-13 0 -21.5 8t-8.5 22v162h-299l-60 -168q-8 -24 -34 -24h-156q-17 0 -23.5 9.5t-0.5 24.5l502 1342q9 24 35 24h578q13 0 21.5 -8t8.5 -22v-141q0 -13 -8.5 -21.5t-21.5 -8.5h-326v-368h284
q13 0 21.5 -8.5t8.5 -21.5v-142q0 -13 -8.5 -21.5t-21.5 -8.5h-284v-428h328zM387 385h230v647z" />
    <glyph glyph-name="Ccedilla" unicode="&#xc7;" 
d="M1092 400q30 0 27 -33q-21 -204 -125.5 -296t-313.5 -100l-45 -43q71 -6 121 -48.5t50 -111.5q0 -82 -50.5 -132.5t-123 -64.5t-156.5 0q-18 3 -18 22v77q0 10 6 15.5t16 4.5q80 -12 125.5 7t45.5 60q0 24 -23 41t-60.5 20t-85.5 -16q-10 -4 -17 -0.5t-7 14.5v77
q0 12 10 24l58 58q-143 15 -229 82.5t-128.5 207.5t-42.5 370v120q0 155 19 267.5t56 189.5t99 122.5t141.5 65.5t188.5 20q235 0 351 -90.5t138 -306.5q3 -33 -27 -33h-151q-30 0 -34 26q-17 112 -78.5 150t-192.5 38q-62 0 -104 -9.5t-80.5 -37t-60.5 -77t-34.5 -130
t-12.5 -196.5v-118q0 -116 12.5 -197t34.5 -130.5t60 -77t80.5 -37t104.5 -9.5q134 0 194 38t77 151q4 26 34 26h151z" />
    <glyph glyph-name="Egrave" unicode="&#xc8;" 
d="M413 1820h132q23 0 34 -24l120 -252q7 -16 0 -25t-24 -9h-132q-23 0 -34 24l-120 252q-7 16 0 25t24 9zM1051 201q13 0 21.5 -8.5t8.5 -21.5v-141q0 -14 -8.5 -22t-21.5 -8h-861q-14 0 -22 8t-8 22v1340q0 14 8 22t22 8h859q13 0 21.5 -8t8.5 -22v-141q0 -13 -8.5 -21.5
t-21.5 -8.5h-665v-375h613q13 0 21.5 -8t8.5 -22v-141q0 -13 -8.5 -21.5t-21.5 -8.5h-613v-422h667z" />
    <glyph glyph-name="Eacute" unicode="&#xc9;" 
d="M817 1820q17 0 24 -9t0 -25l-120 -252q-11 -24 -34 -24h-132q-17 0 -24 9t0 25l120 252q11 24 34 24h132zM1051 201q13 0 21.5 -8.5t8.5 -21.5v-141q0 -14 -8.5 -22t-21.5 -8h-861q-14 0 -22 8t-8 22v1340q0 14 8 22t22 8h859q13 0 21.5 -8t8.5 -22v-141
q0 -13 -8.5 -21.5t-21.5 -8.5h-665v-375h613q13 0 21.5 -8t8.5 -22v-141q0 -13 -8.5 -21.5t-21.5 -8.5h-613v-422h667z" />
    <glyph glyph-name="Ecircumflex" unicode="&#xca;" 
d="M725 1856q22 0 36 -16l228 -260q12 -14 7 -25t-24 -11h-158q-20 0 -36 16l-163 164l-163 -164q-16 -16 -36 -16h-158q-19 0 -24 11t7 25l228 260q14 16 36 16h220zM1051 201q13 0 21.5 -8.5t8.5 -21.5v-141q0 -14 -8.5 -22t-21.5 -8h-861q-14 0 -22 8t-8 22v1340
q0 14 8 22t22 8h859q13 0 21.5 -8t8.5 -22v-141q0 -13 -8.5 -21.5t-21.5 -8.5h-665v-375h613q13 0 21.5 -8t8.5 -22v-141q0 -13 -8.5 -21.5t-21.5 -8.5h-613v-422h667z" />
    <glyph glyph-name="Edieresis" unicode="&#xcb;" 
d="M413 1611q-47 0 -80.5 34t-33.5 82q0 46 33.5 79.5t80.5 33.5t81 -33.5t34 -79.5q0 -49 -34 -82.5t-81 -33.5zM818 1611q-48 0 -81.5 33.5t-33.5 82.5q0 46 34 79.5t81 33.5t80.5 -33.5t33.5 -79.5q0 -48 -33.5 -82t-80.5 -34zM1051 201q13 0 21.5 -8.5t8.5 -21.5v-141
q0 -14 -8.5 -22t-21.5 -8h-861q-14 0 -22 8t-8 22v1340q0 14 8 22t22 8h859q13 0 21.5 -8t8.5 -22v-141q0 -13 -8.5 -21.5t-21.5 -8.5h-665v-375h613q13 0 21.5 -8t8.5 -22v-141q0 -13 -8.5 -21.5t-21.5 -8.5h-613v-422h667z" />
    <glyph glyph-name="Igrave" unicode="&#xcc;" 
d="M413 1820h132q23 0 34 -24l120 -252q7 -16 0 -25t-24 -9h-132q-23 0 -34 24l-120 252q-7 16 0 25t24 9zM1065 1199h-338v-998h338q13 0 21.5 -8.5t8.5 -21.5v-141q0 -14 -8.5 -22t-21.5 -8h-900q-13 0 -21.5 8t-8.5 22v141q0 13 8.5 21.5t21.5 8.5h338v998h-338
q-13 0 -21.5 8.5t-8.5 21.5v141q0 14 8.5 22t21.5 8h900q13 0 21.5 -8t8.5 -22v-141q0 -13 -8.5 -21.5t-21.5 -8.5z" />
    <glyph glyph-name="Iacute" unicode="&#xcd;" 
d="M817 1820q17 0 24 -9t0 -25l-120 -252q-11 -24 -34 -24h-132q-17 0 -24 9t0 25l120 252q11 24 34 24h132zM1065 1199h-338v-998h338q13 0 21.5 -8.5t8.5 -21.5v-141q0 -14 -8.5 -22t-21.5 -8h-900q-13 0 -21.5 8t-8.5 22v141q0 13 8.5 21.5t21.5 8.5h338v998h-338
q-13 0 -21.5 8.5t-8.5 21.5v141q0 14 8.5 22t21.5 8h900q13 0 21.5 -8t8.5 -22v-141q0 -13 -8.5 -21.5t-21.5 -8.5z" />
    <glyph glyph-name="Icircumflex" unicode="&#xce;" 
d="M725 1856q22 0 36 -16l228 -260q12 -14 7 -25t-24 -11h-158q-20 0 -36 16l-163 164l-163 -164q-16 -16 -36 -16h-158q-19 0 -24 11t7 25l228 260q14 16 36 16h220zM1065 1199h-338v-998h338q13 0 21.5 -8.5t8.5 -21.5v-141q0 -14 -8.5 -22t-21.5 -8h-900q-13 0 -21.5 8
t-8.5 22v141q0 13 8.5 21.5t21.5 8.5h338v998h-338q-13 0 -21.5 8.5t-8.5 21.5v141q0 14 8.5 22t21.5 8h900q13 0 21.5 -8t8.5 -22v-141q0 -13 -8.5 -21.5t-21.5 -8.5z" />
    <glyph glyph-name="Idieresis" unicode="&#xcf;" 
d="M413 1611q-47 0 -80.5 34t-33.5 82q0 46 33.5 79.5t80.5 33.5t81 -33.5t34 -79.5q0 -49 -34 -82.5t-81 -33.5zM818 1611q-48 0 -81.5 33.5t-33.5 82.5q0 46 34 79.5t81 33.5t80.5 -33.5t33.5 -79.5q0 -48 -33.5 -82t-80.5 -34zM1065 1199h-338v-998h338q13 0 21.5 -8.5
t8.5 -21.5v-141q0 -14 -8.5 -22t-21.5 -8h-900q-13 0 -21.5 8t-8.5 22v141q0 13 8.5 21.5t21.5 8.5h338v998h-338q-13 0 -21.5 8.5t-8.5 21.5v141q0 14 8.5 22t21.5 8h900q13 0 21.5 -8t8.5 -22v-141q0 -13 -8.5 -21.5t-21.5 -8.5z" />
    <glyph glyph-name="Eth" unicode="&#xd0;" 
d="M537 1400q136 0 238 -33t167.5 -91t106 -148t56.5 -192.5t16 -235.5t-16 -235.5t-56.5 -192.5t-106 -148t-167.5 -91t-238 -33h-384q-13 0 -21.5 8t-8.5 22v579h-26q-13 0 -21.5 8.5t-8.5 21.5v111q0 14 8.5 22t21.5 8h26v590q0 14 8.5 22t21.5 8h384zM537 201
q89 0 152.5 22t103 60.5t62 103t30.5 137.5t8 176t-8 176t-30.5 137.5t-62 103t-103 60.5t-152.5 22h-190v-419h272q13 0 21.5 -8t8.5 -22v-111q0 -13 -8.5 -21.5t-21.5 -8.5h-272v-408h190z" />
    <glyph glyph-name="Ntilde" unicode="&#xd1;" 
d="M288 1655q-22 0 -19 25q10 87 62.5 133t135.5 46q42 0 79.5 -14.5t64.5 -35t52.5 -40.5t54 -34.5t57.5 -14.5q67 0 90 59q6 17 22 17h57q20 0 20 -20q-6 -89 -61 -137t-137 -48q-42 0 -79.5 14.5t-65 35t-53 40.5t-53.5 34.5t-57 14.5q-67 0 -92 -58q-6 -17 -22 -17h-56z
M1066 1400q14 0 22 -8t8 -22v-1340q0 -14 -8 -22t-22 -8h-196q-27 0 -36 20l-496 1042v-1032q0 -14 -8 -22t-22 -8h-144q-14 0 -22 8t-8 22v1340q0 14 8 22t22 8h197q27 0 36 -20l495 -1040v1030q0 14 8 22t22 8h144z" />
    <glyph glyph-name="Ograve" unicode="&#xd2;" 
d="M413 1820h132q23 0 34 -24l120 -252q7 -16 0 -25t-24 -9h-132q-23 0 -34 24l-120 252q-7 16 0 25t24 9zM615 1420q138 0 229 -31t154 -107.5t90.5 -204.5t27.5 -322v-119q0 -195 -27.5 -323t-90.5 -204.5t-154 -107.5t-229 -31t-229 31t-154 107.5t-90.5 204.5t-27.5 323
v119q0 194 27.5 322t90.5 204.5t154 107.5t229 31zM615 1205q-65 0 -106 -8.5t-78 -35t-57 -76.5t-31 -131t-11 -200v-118q0 -119 11 -200t31 -131t57 -76.5t78 -35t106 -8.5t106 8.5t78 35t57 76.5t31 131t11 200v118q0 119 -11 200t-31 131t-57 76.5t-78 35t-106 8.5z" />
    <glyph glyph-name="Oacute" unicode="&#xd3;" 
d="M817 1820q17 0 24 -9t0 -25l-120 -252q-11 -24 -34 -24h-132q-17 0 -24 9t0 25l120 252q11 24 34 24h132zM615 1420q138 0 229 -31t154 -107.5t90.5 -204.5t27.5 -322v-119q0 -195 -27.5 -323t-90.5 -204.5t-154 -107.5t-229 -31t-229 31t-154 107.5t-90.5 204.5
t-27.5 323v119q0 194 27.5 322t90.5 204.5t154 107.5t229 31zM615 1205q-65 0 -106 -8.5t-78 -35t-57 -76.5t-31 -131t-11 -200v-118q0 -119 11 -200t31 -131t57 -76.5t78 -35t106 -8.5t106 8.5t78 35t57 76.5t31 131t11 200v118q0 119 -11 200t-31 131t-57 76.5t-78 35
t-106 8.5z" />
    <glyph glyph-name="Ocircumflex" unicode="&#xd4;" 
d="M725 1856q22 0 36 -16l228 -260q12 -14 7 -25t-24 -11h-158q-20 0 -36 16l-163 164l-163 -164q-16 -16 -36 -16h-158q-19 0 -24 11t7 25l228 260q14 16 36 16h220zM615 1420q138 0 229 -31t154 -107.5t90.5 -204.5t27.5 -322v-119q0 -195 -27.5 -323t-90.5 -204.5
t-154 -107.5t-229 -31t-229 31t-154 107.5t-90.5 204.5t-27.5 323v119q0 194 27.5 322t90.5 204.5t154 107.5t229 31zM615 1205q-65 0 -106 -8.5t-78 -35t-57 -76.5t-31 -131t-11 -200v-118q0 -119 11 -200t31 -131t57 -76.5t78 -35t106 -8.5t106 8.5t78 35t57 76.5t31 131
t11 200v118q0 119 -11 200t-31 131t-57 76.5t-78 35t-106 8.5z" />
    <glyph glyph-name="Otilde" unicode="&#xd5;" 
d="M467 1859q42 0 79.5 -14.5t64.5 -35t52.5 -40.5t54 -34.5t57.5 -14.5q67 0 90 59q6 17 22 17h57q20 0 20 -20q-6 -89 -61 -137t-137 -48q-42 0 -79.5 14.5t-65 35t-53 40.5t-53.5 34.5t-57 14.5q-67 0 -92 -58q-6 -17 -22 -17h-56q-22 0 -19 25q10 87 62.5 133t135.5 46z
M615 1420q138 0 229 -31t154 -107.5t90.5 -204.5t27.5 -322v-119q0 -195 -27.5 -323t-90.5 -204.5t-154 -107.5t-229 -31t-229 31t-154 107.5t-90.5 204.5t-27.5 323v119q0 194 27.5 322t90.5 204.5t154 107.5t229 31zM615 1205q-65 0 -106 -8.5t-78 -35t-57 -76.5t-31 -131
t-11 -200v-118q0 -119 11 -200t31 -131t57 -76.5t78 -35t106 -8.5t106 8.5t78 35t57 76.5t31 131t11 200v118q0 119 -11 200t-31 131t-57 76.5t-78 35t-106 8.5z" />
    <glyph glyph-name="Odieresis" unicode="&#xd6;" 
d="M413 1611q-47 0 -80.5 34t-33.5 82q0 46 33.5 79.5t80.5 33.5t81 -33.5t34 -79.5q0 -49 -34 -82.5t-81 -33.5zM818 1611q-48 0 -81.5 33.5t-33.5 82.5q0 46 34 79.5t81 33.5t80.5 -33.5t33.5 -79.5q0 -48 -33.5 -82t-80.5 -34zM615 1420q138 0 229 -31t154 -107.5
t90.5 -204.5t27.5 -322v-119q0 -195 -27.5 -323t-90.5 -204.5t-154 -107.5t-229 -31t-229 31t-154 107.5t-90.5 204.5t-27.5 323v119q0 194 27.5 322t90.5 204.5t154 107.5t229 31zM615 1205q-65 0 -106 -8.5t-78 -35t-57 -76.5t-31 -131t-11 -200v-118q0 -119 11 -200
t31 -131t57 -76.5t78 -35t106 -8.5t106 8.5t78 35t57 76.5t31 131t11 200v118q0 119 -11 200t-31 131t-57 76.5t-78 35t-106 8.5z" />
    <glyph glyph-name="multiply" unicode="&#xd7;" 
d="M733 573l215 -214q22 -21 0 -43l-77 -76q-20 -22 -42 0l-214 215l-215 -215q-22 -20 -43 0l-76 77q-22 22 0 42l215 215l-215 214q-22 20 0 42l76 76q21 22 43 0l214 -214l215 215q22 22 42 0l77 -76q22 -21 0 -43z" />
    <glyph glyph-name="Oslash" unicode="&#xd8;" 
d="M994 1288q122 -147 122 -533v-119q0 -195 -27.5 -323t-90.5 -204.5t-154 -107.5t-229 -31q-126 0 -214 26l-34 -74q-9 -22 -34 -22h-150q-17 0 -23 10t1 26l76 166q-123 146 -123 534v119q0 194 27.5 322t90.5 204.5t154 107.5t229 31q126 0 214 -26l34 74q9 22 34 22
h151q17 0 23 -10t-1 -26zM332 636q0 -176 24 -274l381 830q-46 13 -122 13q-65 0 -106 -8.5t-78 -35t-57 -76.5t-31 -131t-11 -200v-118zM898 636v118q0 176 -24 273l-381 -829q46 -13 122 -13q65 0 106 8.5t78 35t57 76.5t31 131t11 200z" />
    <glyph glyph-name="Ugrave" unicode="&#xd9;" 
d="M413 1820h132q23 0 34 -24l120 -252q7 -16 0 -25t-24 -9h-132q-23 0 -34 24l-120 252q-7 16 0 25t24 9zM1066 1400q14 0 22 -8t8 -22v-857q0 -284 -119.5 -413.5t-361.5 -129.5q-241 0 -361 129.5t-120 413.5v857q0 14 8 22t22 8h164q14 0 22 -8t8 -22v-853
q0 -174 62 -254t195 -80t195 80t62 254v853q0 14 8 22t22 8h164z" />
    <glyph glyph-name="Uacute" unicode="&#xda;" 
d="M817 1820q17 0 24 -9t0 -25l-120 -252q-11 -24 -34 -24h-132q-17 0 -24 9t0 25l120 252q11 24 34 24h132zM1066 1400q14 0 22 -8t8 -22v-857q0 -284 -119.5 -413.5t-361.5 -129.5q-241 0 -361 129.5t-120 413.5v857q0 14 8 22t22 8h164q14 0 22 -8t8 -22v-853
q0 -174 62 -254t195 -80t195 80t62 254v853q0 14 8 22t22 8h164z" />
    <glyph glyph-name="Ucircumflex" unicode="&#xdb;" 
d="M725 1856q22 0 36 -16l228 -260q12 -14 7 -25t-24 -11h-158q-20 0 -36 16l-163 164l-163 -164q-16 -16 -36 -16h-158q-19 0 -24 11t7 25l228 260q14 16 36 16h220zM1066 1400q14 0 22 -8t8 -22v-857q0 -284 -119.5 -413.5t-361.5 -129.5q-241 0 -361 129.5t-120 413.5
v857q0 14 8 22t22 8h164q14 0 22 -8t8 -22v-853q0 -174 62 -254t195 -80t195 80t62 254v853q0 14 8 22t22 8h164z" />
    <glyph glyph-name="Udieresis" unicode="&#xdc;" 
d="M413 1611q-47 0 -80.5 34t-33.5 82q0 46 33.5 79.5t80.5 33.5t81 -33.5t34 -79.5q0 -49 -34 -82.5t-81 -33.5zM818 1611q-48 0 -81.5 33.5t-33.5 82.5q0 46 34 79.5t81 33.5t80.5 -33.5t33.5 -79.5q0 -48 -33.5 -82t-80.5 -34zM1066 1400q14 0 22 -8t8 -22v-857
q0 -284 -119.5 -413.5t-361.5 -129.5q-241 0 -361 129.5t-120 413.5v857q0 14 8 22t22 8h164q14 0 22 -8t8 -22v-853q0 -174 62 -254t195 -80t195 80t62 254v853q0 14 8 22t22 8h164z" />
    <glyph glyph-name="Yacute" unicode="&#xdd;" 
d="M555 1510q-17 0 -24 9t0 25l120 252q11 24 34 24h132q17 0 24 -9t0 -25l-120 -252q-11 -24 -34 -24h-132zM1140 1400q18 0 23.5 -10t-3.5 -26l-433 -810v-524q0 -14 -8.5 -22t-21.5 -8h-164q-13 0 -21.5 8t-8.5 22v528l-433 806q-9 16 -3.5 26t23.5 10h173q26 0 36 -20
l316 -612l316 612q10 20 36 20h173z" />
    <glyph glyph-name="Thorn" unicode="&#xde;" 
d="M620 1147q235 0 361.5 -120t126.5 -327t-126.5 -327t-361.5 -120h-274v-223q0 -14 -8 -22t-22 -8h-164q-14 0 -22 8t-8 22v1340q0 14 8 22t22 8h164q14 0 22 -8t8 -22v-223h274zM602 454q138 0 214 56.5t76 189.5t-76 189.5t-214 56.5h-256v-492h256z" />
    <glyph glyph-name="germandbls" unicode="&#xdf;" 
d="M807 742q145 -24 232 -112t87 -231q0 -219 -134 -309t-427 -90h-104q-13 0 -21.5 8t-8.5 22v113q0 13 8.5 21.5t21.5 8.5h104q187 0 270 48.5t83 184.5q0 121 -92.5 174t-273.5 53h-91q-13 0 -21.5 8.5t-8.5 21.5v113q0 14 8.5 22t21.5 8h91q147 0 216.5 54.5t69.5 163.5
q0 183 -252 183q-137 0 -191.5 -49.5t-54.5 -153.5v-974q0 -14 -8 -22t-22 -8h-156q-14 0 -22 8t-8 22v974q0 192 119 294t343 102q217 0 338.5 -93.5t121.5 -264.5q0 -129 -66 -204t-173 -96z" />
    <glyph glyph-name="agrave" unicode="&#xe0;" 
d="M509 1114l-120 252q-7 16 0 25t24 9h132q23 0 34 -24l120 -252q7 -16 0 -25t-24 -9h-132q-23 0 -34 24zM1099 179q20 -5 28 -12.5t8 -22.5v-119q0 -31 -57 -33q-109 -2 -161.5 38t-52.5 126h-9q-74 -84 -189 -132t-225 -48q-161 0 -247 74.5t-86 204.5q0 131 83 203
t253 97l232 36q67 10 98.5 20.5t40.5 26.5q-4 98 -56.5 139t-154.5 41q-214 0 -234 -135q-3 -22 -29 -22h-149q-32 0 -29 30q17 166 132 238.5t311 72.5q210 0 315 -95.5t105 -278.5v-367q0 -67 73 -82zM482 161q203 0 333 131v201q-13 -28 -125 -46l-209 -33
q-85 -14 -121 -47t-36 -85q0 -57 39 -89t119 -32z" />
    <glyph glyph-name="aacute" unicode="&#xe1;" 
d="M555 1090q-17 0 -24 9t0 25l120 252q11 24 34 24h132q17 0 24 -9t0 -25l-120 -252q-11 -24 -34 -24h-132zM1099 179q20 -5 28 -12.5t8 -22.5v-119q0 -31 -57 -33q-109 -2 -161.5 38t-52.5 126h-9q-74 -84 -189 -132t-225 -48q-161 0 -247 74.5t-86 204.5q0 131 83 203
t253 97l232 36q67 10 98.5 20.5t40.5 26.5q-4 98 -56.5 139t-154.5 41q-214 0 -234 -135q-3 -22 -29 -22h-149q-32 0 -29 30q17 166 132 238.5t311 72.5q210 0 315 -95.5t105 -278.5v-367q0 -67 73 -82zM482 161q203 0 333 131v201q-13 -28 -125 -46l-209 -33
q-85 -14 -121 -47t-36 -85q0 -57 39 -89t119 -32z" />
    <glyph glyph-name="acircumflex" unicode="&#xe2;" 
d="M258 1124q-19 0 -24 11t7 25l228 260q14 16 36 16h220q22 0 36 -16l228 -260q12 -14 7 -25t-24 -11h-158q-20 0 -36 16l-163 164l-163 -164q-16 -16 -36 -16h-158zM1099 179q20 -5 28 -12.5t8 -22.5v-119q0 -31 -57 -33q-109 -2 -161.5 38t-52.5 126h-9
q-74 -84 -189 -132t-225 -48q-161 0 -247 74.5t-86 204.5q0 131 83 203t253 97l232 36q67 10 98.5 20.5t40.5 26.5q-4 98 -56.5 139t-154.5 41q-214 0 -234 -135q-3 -22 -29 -22h-149q-32 0 -29 30q17 166 132 238.5t311 72.5q210 0 315 -95.5t105 -278.5v-367q0 -67 73 -82
zM482 161q203 0 333 131v201q-13 -28 -125 -46l-209 -33q-85 -14 -121 -47t-36 -85q0 -57 39 -89t119 -32z" />
    <glyph glyph-name="atilde" unicode="&#xe3;" 
d="M288 1235q-22 0 -19 25q10 87 62.5 133t135.5 46q42 0 79.5 -14.5t64.5 -35t52.5 -40.5t54 -34.5t57.5 -14.5q67 0 90 59q6 17 22 17h57q20 0 20 -20q-6 -89 -61 -137t-137 -48q-42 0 -79.5 14.5t-65 35t-53 40.5t-53.5 34.5t-57 14.5q-67 0 -92 -58q-6 -17 -22 -17h-56z
M1099 179q20 -5 28 -12.5t8 -22.5v-119q0 -31 -57 -33q-109 -2 -161.5 38t-52.5 126h-9q-74 -84 -189 -132t-225 -48q-161 0 -247 74.5t-86 204.5q0 131 83 203t253 97l232 36q67 10 98.5 20.5t40.5 26.5q-4 98 -56.5 139t-154.5 41q-214 0 -234 -135q-3 -22 -29 -22h-149
q-32 0 -29 30q17 166 132 238.5t311 72.5q210 0 315 -95.5t105 -278.5v-367q0 -67 73 -82zM482 161q203 0 333 131v201q-13 -28 -125 -46l-209 -33q-85 -14 -121 -47t-36 -85q0 -57 39 -89t119 -32z" />
    <glyph glyph-name="adieresis" unicode="&#xe4;" 
d="M413 1191q-47 0 -80.5 34t-33.5 82q0 46 33.5 79.5t80.5 33.5t81 -33.5t34 -79.5q0 -49 -34 -82.5t-81 -33.5zM818 1191q-48 0 -81.5 33.5t-33.5 82.5q0 46 34 79.5t81 33.5t80.5 -33.5t33.5 -79.5q0 -48 -33.5 -82t-80.5 -34zM1099 179q20 -5 28 -12.5t8 -22.5v-119
q0 -31 -57 -33q-109 -2 -161.5 38t-52.5 126h-9q-74 -84 -189 -132t-225 -48q-161 0 -247 74.5t-86 204.5q0 131 83 203t253 97l232 36q67 10 98.5 20.5t40.5 26.5q-4 98 -56.5 139t-154.5 41q-214 0 -234 -135q-3 -22 -29 -22h-149q-32 0 -29 30q17 166 132 238.5t311 72.5
q210 0 315 -95.5t105 -278.5v-367q0 -67 73 -82zM482 161q203 0 333 131v201q-13 -28 -125 -46l-209 -33q-85 -14 -121 -47t-36 -85q0 -57 39 -89t119 -32z" />
    <glyph glyph-name="aring" unicode="&#xe5;" 
d="M615 1091q-81 0 -136 55.5t-55 132.5q0 78 55 133.5t136 55.5q80 0 135 -55.5t55 -133.5q0 -77 -55 -132.5t-135 -55.5zM615 1346q-29 0 -48.5 -18.5t-19.5 -47.5t19.5 -47.5t48.5 -18.5t48 18.5t20 47.5q-1 29 -20 47.5t-48 18.5zM1099 179q20 -5 28 -12.5t8 -22.5v-119
q0 -31 -57 -33q-109 -2 -161.5 38t-52.5 126h-9q-74 -84 -189 -132t-225 -48q-161 0 -247 74.5t-86 204.5q0 131 83 203t253 97l232 36q67 10 98.5 20.5t40.5 26.5q-4 98 -56.5 139t-154.5 41q-214 0 -234 -135q-3 -22 -29 -22h-149q-32 0 -29 30q17 166 132 238.5t311 72.5
q210 0 315 -95.5t105 -278.5v-367q0 -67 73 -82zM482 161q203 0 333 131v201q-13 -28 -125 -46l-209 -33q-85 -14 -121 -47t-36 -85q0 -57 39 -89t119 -32z" />
    <glyph glyph-name="ae" unicode="&#xe6;" 
d="M902 148q60 0 100 19.5t81 60.5l90 -106q-47 -71 -119 -109.5t-160 -38.5q-196 0 -284 151q-116 -151 -293 -151q-127 0 -199.5 75t-72.5 207q0 133 65.5 205.5t213.5 85.5l213 20q0 130 -37.5 193.5t-100.5 63.5q-135 0 -154 -140q-3 -22 -29 -22h-102q-32 0 -29 30
q14 162 97.5 236t216.5 74q172 0 240 -112q85 112 227 112q319 0 319 -487q0 -60 -12.5 -85.5t-52.5 -25.5h-423q10 -123 57.5 -189.5t147.5 -66.5zM866 824q-151 0 -170 -264h326q0 128 -36.5 196t-119.5 68zM537 276v150l-181 -16q-138 -12 -138 -131q0 -57 30 -91t95 -34
q145 0 194 122z" />
    <glyph glyph-name="ccedilla" unicode="&#xe7;" 
d="M1080 234q27 -17 10 -40q-65 -100 -173.5 -159.5t-240.5 -60.5l-48 -46q71 -6 121 -48.5t50 -111.5q0 -82 -50.5 -132.5t-123 -64.5t-156.5 0q-18 3 -18 22v77q0 10 6 15.5t16 4.5q80 -12 125.5 7t45.5 60q0 24 -23 41t-60.5 20t-85.5 -16q-11 -4 -17.5 -0.5t-6.5 14.5
v77q0 12 10 24l74 74q-170 42 -275 178.5t-105 318.5q0 219 147 366.5t369 147.5q133 0 243 -59.5t176 -160.5q17 -23 -10 -40l-114 -66q-22 -14 -40 8q-93 119 -251 119q-135 0 -223.5 -88.5t-88.5 -226.5t88.5 -226.5t223.5 -88.5q158 0 251 119q18 22 40 8z" />
    <glyph glyph-name="egrave" unicode="&#xe8;" 
d="M499 1114l-120 252q-7 16 0 25t24 9h132q23 0 34 -24l120 -252q7 -16 0 -25t-24 -9h-132q-23 0 -34 24zM618 1002q108 0 198.5 -39.5t150 -107t92.5 -156t33 -186.5q0 -60 -12.5 -85.5t-52.5 -25.5h-699q17 -114 106.5 -182t224.5 -68q136 0 246 84q23 18 42 -1l66 -66
q23 -23 0 -45q-150 -150 -376 -150q-230 0 -374.5 147t-144.5 367q0 107 37.5 201.5t102.5 163.5t158.5 109t201.5 40zM619 817q-115 0 -194 -70t-95 -189h572q-12 118 -89 188.5t-194 70.5z" />
    <glyph glyph-name="eacute" unicode="&#xe9;" 
d="M545 1090q-17 0 -24 9t0 25l120 252q11 24 34 24h132q17 0 24 -9t0 -25l-120 -252q-11 -24 -34 -24h-132zM618 1002q108 0 198.5 -39.5t150 -107t92.5 -156t33 -186.5q0 -60 -12.5 -85.5t-52.5 -25.5h-699q17 -114 106.5 -182t224.5 -68q136 0 246 84q23 18 42 -1l66 -66
q23 -23 0 -45q-150 -150 -376 -150q-230 0 -374.5 147t-144.5 367q0 107 37.5 201.5t102.5 163.5t158.5 109t201.5 40zM619 817q-115 0 -194 -70t-95 -189h572q-12 118 -89 188.5t-194 70.5z" />
    <glyph glyph-name="ecircumflex" unicode="&#xea;" 
d="M248 1124q-19 0 -24 11t7 25l228 260q14 16 36 16h220q22 0 36 -16l228 -260q12 -14 7 -25t-24 -11h-158q-20 0 -36 16l-163 164l-163 -164q-16 -16 -36 -16h-158zM618 1002q108 0 198.5 -39.5t150 -107t92.5 -156t33 -186.5q0 -60 -12.5 -85.5t-52.5 -25.5h-699
q17 -114 106.5 -182t224.5 -68q136 0 246 84q23 18 42 -1l66 -66q23 -23 0 -45q-150 -150 -376 -150q-230 0 -374.5 147t-144.5 367q0 107 37.5 201.5t102.5 163.5t158.5 109t201.5 40zM619 817q-115 0 -194 -70t-95 -189h572q-12 118 -89 188.5t-194 70.5z" />
    <glyph glyph-name="edieresis" unicode="&#xeb;" 
d="M403 1191q-47 0 -80.5 34t-33.5 82q0 46 33.5 79.5t80.5 33.5t81 -33.5t34 -79.5q0 -49 -34 -82.5t-81 -33.5zM808 1191q-48 0 -81.5 33.5t-33.5 82.5q0 46 34 79.5t81 33.5t80.5 -33.5t33.5 -79.5q0 -48 -33.5 -82t-80.5 -34zM618 1002q108 0 198.5 -39.5t150 -107
t92.5 -156t33 -186.5q0 -60 -12.5 -85.5t-52.5 -25.5h-699q17 -114 106.5 -182t224.5 -68q136 0 246 84q23 18 42 -1l66 -66q23 -23 0 -45q-150 -150 -376 -150q-230 0 -374.5 147t-144.5 367q0 107 37.5 201.5t102.5 163.5t158.5 109t201.5 40zM619 817q-115 0 -194 -70
t-95 -189h572q-12 118 -89 188.5t-194 70.5z" />
    <glyph glyph-name="igrave" unicode="&#xec;" 
d="M509 1114l-120 252q-7 16 0 25t24 9h132q23 0 34 -24l120 -252q7 -16 0 -25t-24 -9h-132q-23 0 -34 24zM1051 181q13 0 21.5 -8.5t8.5 -21.5v-121q0 -14 -8.5 -22t-21.5 -8h-861q-14 0 -22 8t-8 22v121q0 13 8 21.5t22 8.5h348v618h-298q-14 0 -22 8.5t-8 21.5v121
q0 14 8 22t22 8h484q14 0 22 -8t8 -22v-769h297z" />
    <glyph glyph-name="iacute" unicode="&#xed;" 
d="M555 1090q-17 0 -24 9t0 25l120 252q11 24 34 24h132q17 0 24 -9t0 -25l-120 -252q-11 -24 -34 -24h-132zM1051 181q13 0 21.5 -8.5t8.5 -21.5v-121q0 -14 -8.5 -22t-21.5 -8h-861q-14 0 -22 8t-8 22v121q0 13 8 21.5t22 8.5h348v618h-298q-14 0 -22 8.5t-8 21.5v121
q0 14 8 22t22 8h484q14 0 22 -8t8 -22v-769h297z" />
    <glyph glyph-name="icircumflex" unicode="&#xee;" 
d="M258 1124q-19 0 -24 11t7 25l228 260q14 16 36 16h220q22 0 36 -16l228 -260q12 -14 7 -25t-24 -11h-158q-20 0 -36 16l-163 164l-163 -164q-16 -16 -36 -16h-158zM1051 181q13 0 21.5 -8.5t8.5 -21.5v-121q0 -14 -8.5 -22t-21.5 -8h-861q-14 0 -22 8t-8 22v121
q0 13 8 21.5t22 8.5h348v618h-298q-14 0 -22 8.5t-8 21.5v121q0 14 8 22t22 8h484q14 0 22 -8t8 -22v-769h297z" />
    <glyph glyph-name="idieresis" unicode="&#xef;" 
d="M413 1191q-47 0 -80.5 34t-33.5 82q0 46 33.5 79.5t80.5 33.5t81 -33.5t34 -79.5q0 -49 -34 -82.5t-81 -33.5zM818 1191q-48 0 -81.5 33.5t-33.5 82.5q0 46 34 79.5t81 33.5t80.5 -33.5t33.5 -79.5q0 -48 -33.5 -82t-80.5 -34zM1051 181q13 0 21.5 -8.5t8.5 -21.5v-121
q0 -14 -8.5 -22t-21.5 -8h-861q-14 0 -22 8t-8 22v121q0 13 8 21.5t22 8.5h348v618h-298q-14 0 -22 8.5t-8 21.5v121q0 14 8 22t22 8h484q14 0 22 -8t8 -22v-769h297z" />
    <glyph glyph-name="eth" unicode="&#xf0;" 
d="M1123 1282q32 3 32 -28v-98q0 -29 -28 -32l-26 -3v-1091q0 -14 -8.5 -22t-21.5 -8h-142q-27 0 -30 30l-7 91q-126 -147 -327 -147q-206 0 -330.5 146t-124.5 368q0 223 123.5 368.5t331.5 145.5q112 0 187 -46t113 -120h20v257l-173 -23q-32 -3 -32 28v98q0 29 28 32
l177 23v119q0 14 8.5 22t21.5 8h156q13 0 21.5 -8t8.5 -22v-91zM608 171q132 0 209.5 88t77.5 231t-77.5 229.5t-209.5 86.5q-136 0 -213.5 -86t-77.5 -230t78 -231.5t213 -87.5z" />
    <glyph glyph-name="ntilde" unicode="&#xf1;" 
d="M288 1235q-22 0 -19 25q10 87 62.5 133t135.5 46q42 0 79.5 -14.5t64.5 -35t52.5 -40.5t54 -34.5t57.5 -14.5q67 0 90 59q6 17 22 17h57q20 0 20 -20q-6 -89 -61 -137t-137 -48q-42 0 -79.5 14.5t-65 35t-53 40.5t-53.5 34.5t-57 14.5q-67 0 -92 -58q-6 -17 -22 -17h-56z
M721 1002q161 0 258 -106t97 -298v-568q0 -14 -8 -22t-22 -8h-156q-14 0 -22 8t-8 22v536q0 121 -57.5 179t-160.5 58q-66 0 -121.5 -26t-86.5 -62t-47.5 -68.5t-16.5 -51.5v-565q0 -14 -8 -22t-22 -8h-156q-14 0 -22 8t-8 22v920q0 14 8 22t22 8h148q27 0 30 -30l8 -132h21
q50 80 133 132t197 52z" />
    <glyph glyph-name="ograve" unicode="&#xf2;" 
d="M413 1400h132q23 0 34 -24l120 -252q7 -16 0 -25t-24 -9h-132q-23 0 -34 24l-120 252q-7 16 0 25t24 9zM615 -26q-213 0 -356.5 147.5t-143.5 366.5t143.5 366.5t356.5 147.5q140 0 255 -67.5t180.5 -185.5t65.5 -261t-65.5 -261t-180.5 -185.5t-255 -67.5zM615 173
q127 0 210 88t83 227t-83 227t-210 88t-210 -88t-83 -227t83 -227t210 -88z" />
    <glyph glyph-name="oacute" unicode="&#xf3;" 
d="M817 1400q17 0 24 -9t0 -25l-120 -252q-11 -24 -34 -24h-132q-17 0 -24 9t0 25l120 252q11 24 34 24h132zM615 -26q-213 0 -356.5 147.5t-143.5 366.5t143.5 366.5t356.5 147.5q140 0 255 -67.5t180.5 -185.5t65.5 -261t-65.5 -261t-180.5 -185.5t-255 -67.5zM615 173
q127 0 210 88t83 227t-83 227t-210 88t-210 -88t-83 -227t83 -227t210 -88z" />
    <glyph glyph-name="ocircumflex" unicode="&#xf4;" 
d="M725 1436q22 0 36 -16l228 -260q12 -14 7 -25t-24 -11h-158q-20 0 -36 16l-163 164l-163 -164q-16 -16 -36 -16h-158q-19 0 -24 11t7 25l228 260q14 16 36 16h220zM615 -26q-213 0 -356.5 147.5t-143.5 366.5t143.5 366.5t356.5 147.5q140 0 255 -67.5t180.5 -185.5
t65.5 -261t-65.5 -261t-180.5 -185.5t-255 -67.5zM615 173q127 0 210 88t83 227t-83 227t-210 88t-210 -88t-83 -227t83 -227t210 -88z" />
    <glyph glyph-name="otilde" unicode="&#xf5;" 
d="M467 1439q42 0 79.5 -14.5t64.5 -35t52.5 -40.5t54 -34.5t57.5 -14.5q67 0 90 59q6 17 22 17h57q20 0 20 -20q-6 -89 -61 -137t-137 -48q-42 0 -79.5 14.5t-65 35t-53 40.5t-53.5 34.5t-57 14.5q-67 0 -92 -58q-6 -17 -22 -17h-56q-22 0 -19 25q10 87 62.5 133t135.5 46z
M615 -26q-213 0 -356.5 147.5t-143.5 366.5t143.5 366.5t356.5 147.5q140 0 255 -67.5t180.5 -185.5t65.5 -261t-65.5 -261t-180.5 -185.5t-255 -67.5zM615 173q127 0 210 88t83 227t-83 227t-210 88t-210 -88t-83 -227t83 -227t210 -88z" />
    <glyph glyph-name="odieresis" unicode="&#xf6;" 
d="M413 1191q-47 0 -80.5 34t-33.5 82q0 46 33.5 79.5t80.5 33.5t81 -33.5t34 -79.5q0 -49 -34 -82.5t-81 -33.5zM818 1191q-48 0 -81.5 33.5t-33.5 82.5q0 46 34 79.5t81 33.5t80.5 -33.5t33.5 -79.5q0 -48 -33.5 -82t-80.5 -34zM615 -26q-213 0 -356.5 147.5t-143.5 366.5
t143.5 366.5t356.5 147.5q140 0 255 -67.5t180.5 -185.5t65.5 -261t-65.5 -261t-180.5 -185.5t-255 -67.5zM615 173q127 0 210 88t83 227t-83 227t-210 88t-210 -88t-83 -227t83 -227t210 -88z" />
    <glyph glyph-name="divide" unicode="&#xf7;" 
d="M615 736q-67 0 -114 47t-47 114q0 68 47 115.5t114 47.5t114 -47.5t47 -115.5q0 -67 -47 -114t-114 -47zM1003 653q13 0 21.5 -8.5t8.5 -21.5v-108q0 -13 -8.5 -21.5t-21.5 -8.5h-775q-14 0 -22 8.5t-8 21.5v108q0 13 8 21.5t22 8.5h775zM615 78q-67 0 -114 47t-47 114
q0 68 47 115.5t114 47.5t114 -47.5t47 -115.5q0 -67 -47 -114t-114 -47z" />
    <glyph glyph-name="oslash" unicode="&#xf8;" 
d="M901 915q100 -69 157.5 -181t57.5 -246q0 -143 -65.5 -261t-180.5 -185.5t-255 -67.5q-68 0 -131 17l-49 -109q-9 -22 -34 -22h-122q-17 0 -23 10t1 26l74 164q-101 69 -158.5 181.5t-57.5 246.5q0 219 143.5 366.5t356.5 147.5q68 0 133 -17l49 109q9 22 34 22h122
q17 0 23 -10t-1 -26zM322 488q0 -147 94 -238l248 549q-21 4 -49 4q-127 0 -210 -88t-83 -227zM615 173q127 0 210 88t83 227q0 147 -93 237l-247 -548q20 -4 47 -4z" />
    <glyph glyph-name="ugrave" unicode="&#xf9;" 
d="M509 1114l-120 252q-7 16 0 25t24 9h132q23 0 34 -24l120 -252q7 -16 0 -25t-24 -9h-132q-23 0 -34 24zM1046 980q14 0 22 -8t8 -22v-920q0 -14 -8 -22t-22 -8h-148q-28 0 -30 30l-8 133h-21q-50 -81 -133 -133t-197 -52q-161 0 -258 106t-97 298v568q0 14 8 22t22 8h156
q14 0 22 -8t8 -22v-536q0 -121 57.5 -179t160.5 -58q66 0 121.5 26t86.5 62t47.5 68.5t16.5 51.5v565q0 14 8 22t22 8h156z" />
    <glyph glyph-name="uacute" unicode="&#xfa;" 
d="M555 1090q-17 0 -24 9t0 25l120 252q11 24 34 24h132q17 0 24 -9t0 -25l-120 -252q-11 -24 -34 -24h-132zM1046 980q14 0 22 -8t8 -22v-920q0 -14 -8 -22t-22 -8h-148q-28 0 -30 30l-8 133h-21q-50 -81 -133 -133t-197 -52q-161 0 -258 106t-97 298v568q0 14 8 22t22 8
h156q14 0 22 -8t8 -22v-536q0 -121 57.5 -179t160.5 -58q66 0 121.5 26t86.5 62t47.5 68.5t16.5 51.5v565q0 14 8 22t22 8h156z" />
    <glyph glyph-name="ucircumflex" unicode="&#xfb;" 
d="M258 1124q-19 0 -24 11t7 25l228 260q14 16 36 16h220q22 0 36 -16l228 -260q12 -14 7 -25t-24 -11h-158q-20 0 -36 16l-163 164l-163 -164q-16 -16 -36 -16h-158zM1046 980q14 0 22 -8t8 -22v-920q0 -14 -8 -22t-22 -8h-148q-28 0 -30 30l-8 133h-21q-50 -81 -133 -133
t-197 -52q-161 0 -258 106t-97 298v568q0 14 8 22t22 8h156q14 0 22 -8t8 -22v-536q0 -121 57.5 -179t160.5 -58q66 0 121.5 26t86.5 62t47.5 68.5t16.5 51.5v565q0 14 8 22t22 8h156z" />
    <glyph glyph-name="udieresis" unicode="&#xfc;" 
d="M413 1191q-47 0 -80.5 34t-33.5 82q0 46 33.5 79.5t80.5 33.5t81 -33.5t34 -79.5q0 -49 -34 -82.5t-81 -33.5zM818 1191q-48 0 -81.5 33.5t-33.5 82.5q0 46 34 79.5t81 33.5t80.5 -33.5t33.5 -79.5q0 -48 -33.5 -82t-80.5 -34zM1046 980q14 0 22 -8t8 -22v-920
q0 -14 -8 -22t-22 -8h-148q-28 0 -30 30l-8 133h-21q-50 -81 -133 -133t-197 -52q-161 0 -258 106t-97 298v568q0 14 8 22t22 8h156q14 0 22 -8t8 -22v-536q0 -121 57.5 -179t160.5 -58q66 0 121.5 26t86.5 62t47.5 68.5t16.5 51.5v565q0 14 8 22t22 8h156z" />
    <glyph glyph-name="yacute" unicode="&#xfd;" 
d="M817 1400q17 0 24 -9t0 -25l-120 -252q-11 -24 -34 -24h-132q-17 0 -24 9t0 25l120 252q11 24 34 24h132zM1096 980q17 0 24 -9t0 -25l-539 -1302q-11 -24 -36 -24h-157q-17 0 -24 9t0 25l143 344l-397 948q-7 16 0 25t24 9h157q25 0 36 -24l288 -713l288 713
q11 24 36 24h157z" />
    <glyph glyph-name="thorn" unicode="&#xfe;" 
d="M668 1001q138 0 241.5 -68t155.5 -183.5t52 -261.5q0 -223 -122 -368t-327 -145q-194 0 -317 141v-466q0 -14 -8.5 -22t-21.5 -8h-156q-13 0 -21.5 8t-8.5 22v1720q0 14 8.5 22t21.5 8h156q13 0 21.5 -8t8.5 -22v-534h20q98 165 297 165zM909 484v6v6v2v1v2v1
q-3 140 -76 221.5t-207 81.5q-126 0 -201 -83t-78 -221v-1v-4v-6v-6v-4v-1q3 -139 78.5 -223.5t200.5 -84.5q134 0 207 83.5t76 223.5v1v2v1v2z" />
    <glyph glyph-name="ydieresis" unicode="&#xff;" 
d="M413 1191q-47 0 -80.5 34t-33.5 82q0 46 33.5 79.5t80.5 33.5t81 -33.5t34 -79.5q0 -49 -34 -82.5t-81 -33.5zM818 1191q-48 0 -81.5 33.5t-33.5 82.5q0 46 34 79.5t81 33.5t80.5 -33.5t33.5 -79.5q0 -48 -33.5 -82t-80.5 -34zM1096 980q17 0 24 -9t0 -25l-539 -1302
q-11 -24 -36 -24h-157q-17 0 -24 9t0 25l143 344l-397 948q-7 16 0 25t24 9h157q25 0 36 -24l288 -713l288 713q11 24 36 24h157z" />
    <glyph glyph-name="Amacron" unicode="&#x100;" 
d="M354 1645q-14 0 -22 8.5t-8 21.5v111q0 14 8 22t22 8h522q14 0 22 -8t8 -22v-111q0 -13 -8 -21.5t-22 -8.5h-522zM1164 34q8 -34 -24 -34h-165q-29 0 -34 24l-67 249h-518l-67 -249q-5 -24 -34 -24h-164q-34 0 -24 34l374 1342q7 24 35 24h278q28 0 35 -24zM407 467h416
l-188 702h-40z" />
    <glyph glyph-name="amacron" unicode="&#x101;" 
d="M354 1225q-14 0 -22 8.5t-8 21.5v111q0 14 8 22t22 8h522q14 0 22 -8t8 -22v-111q0 -13 -8 -21.5t-22 -8.5h-522zM1099 179q20 -5 28 -12.5t8 -22.5v-119q0 -31 -57 -33q-109 -2 -161.5 38t-52.5 126h-9q-74 -84 -189 -132t-225 -48q-161 0 -247 74.5t-86 204.5
q0 131 83 203t253 97l232 36q67 10 98.5 20.5t40.5 26.5q-4 98 -56.5 139t-154.5 41q-214 0 -234 -135q-3 -22 -29 -22h-149q-32 0 -29 30q17 166 132 238.5t311 72.5q210 0 315 -95.5t105 -278.5v-367q0 -67 73 -82zM482 161q203 0 333 131v201q-13 -28 -125 -46l-209 -33
q-85 -14 -121 -47t-36 -85q0 -57 39 -89t119 -32z" />
    <glyph glyph-name="Abreve" unicode="&#x102;" 
d="M615 1530q-134 0 -215.5 76.5t-93.5 194.5q-3 31 29 31h86q26 0 32 -29q11 -53 53.5 -89.5t108.5 -36.5t109 36.5t53 89.5q6 29 32 29h86q33 0 30 -31q-13 -118 -94.5 -194.5t-215.5 -76.5zM1164 34q8 -34 -24 -34h-165q-29 0 -34 24l-67 249h-518l-67 -249
q-5 -24 -34 -24h-164q-34 0 -24 34l374 1342q7 24 35 24h278q28 0 35 -24zM407 467h416l-188 702h-40z" />
    <glyph glyph-name="abreve" unicode="&#x103;" 
d="M615 1110q-134 0 -215.5 76.5t-93.5 194.5q-3 31 29 31h86q26 0 32 -29q11 -53 53.5 -89.5t108.5 -36.5t109 36.5t53 89.5q6 29 32 29h86q33 0 30 -31q-13 -118 -94.5 -194.5t-215.5 -76.5zM1099 179q20 -5 28 -12.5t8 -22.5v-119q0 -31 -57 -33q-109 -2 -161.5 38
t-52.5 126h-9q-74 -84 -189 -132t-225 -48q-161 0 -247 74.5t-86 204.5q0 131 83 203t253 97l232 36q67 10 98.5 20.5t40.5 26.5q-4 98 -56.5 139t-154.5 41q-214 0 -234 -135q-3 -22 -29 -22h-149q-32 0 -29 30q17 166 132 238.5t311 72.5q210 0 315 -95.5t105 -278.5v-367
q0 -67 73 -82zM482 161q203 0 333 131v201q-13 -28 -125 -46l-209 -33q-85 -14 -121 -47t-36 -85q0 -57 39 -89t119 -32z" />
    <glyph glyph-name="Aogonek" unicode="&#x104;" 
d="M1164 34q8 -34 -24 -34h-65q-92 -7 -147.5 -56.5t-55.5 -109.5q0 -54 38.5 -79.5t111.5 -9.5v-141q-41 -18 -96 -18.5t-108 16.5t-90 66t-37 122q0 99 68.5 168t170.5 107l-56 208h-518l-67 -249q-5 -24 -34 -24h-164q-34 0 -24 34l374 1342q7 24 35 24h278q28 0 35 -24z
M407 467h416l-188 702h-40z" />
    <glyph glyph-name="aogonek" unicode="&#x105;" 
d="M1099 179q20 -5 28 -12.5t8 -22.5v-119q0 -31 -57 -33h-11q-90 -3 -142 -54t-52 -112q0 -54 38.5 -79.5t111.5 -9.5v-141q-41 -18 -96 -18.5t-108.5 16.5t-90.5 66t-37 122q0 90 58.5 157.5t148.5 107.5q-34 40 -34 109h-9q-74 -84 -189 -132t-225 -48q-161 0 -247 74.5
t-86 204.5q0 131 83 203t253 97l232 36q67 10 98.5 20.5t40.5 26.5q-4 98 -56.5 139t-154.5 41q-214 0 -234 -135q-3 -22 -29 -22h-149q-32 0 -29 30q17 166 132 238.5t311 72.5q210 0 315 -95.5t105 -278.5v-367q0 -67 73 -82zM482 161q203 0 333 131v201q-13 -28 -125 -46
l-209 -33q-85 -14 -121 -47t-36 -85q0 -57 39 -89t119 -32z" />
    <glyph glyph-name="Cacute" unicode="&#x106;" 
d="M824 1820q17 0 24 -9t0 -25l-120 -252q-11 -24 -34 -24h-132q-17 0 -24 9t0 25l120 252q11 24 34 24h132zM636 185q134 0 194 38t77 151q4 26 34 26h151q30 0 27 -33q-22 -216 -138 -306.5t-351 -90.5q-109 0 -188.5 20t-141.5 65.5t-99 123t-56 189.5t-19 267v120
q0 155 19 267.5t56 189.5t99 122.5t141.5 65.5t188.5 20q235 0 351 -90.5t138 -306.5q3 -33 -27 -33h-151q-30 0 -34 26q-17 112 -78.5 150t-192.5 38q-62 0 -104 -9.5t-80.5 -37t-60.5 -77t-34.5 -130t-12.5 -196.5v-118q0 -116 12.5 -197t34.5 -130.5t60 -77t80.5 -37
t104.5 -9.5z" />
    <glyph glyph-name="cacute" unicode="&#x107;" 
d="M817 1400q17 0 24 -9t0 -25l-120 -252q-11 -24 -34 -24h-132q-17 0 -24 9t0 25l120 252q11 24 34 24h132zM675 173q158 0 251 119q18 22 40 8l114 -66q27 -17 10 -40q-66 -101 -176 -160.5t-243 -59.5q-222 0 -369 147.5t-147 366.5t147 366.5t369 147.5q133 0 243 -59.5
t176 -160.5q17 -23 -10 -40l-114 -66q-22 -14 -40 8q-93 119 -251 119q-135 0 -223.5 -88.5t-88.5 -226.5t88.5 -226.5t223.5 -88.5z" />
    <glyph glyph-name="Cdotaccent" unicode="&#x10a;" 
d="M622 1601q-47 0 -80.5 34t-33.5 82q0 46 33.5 79.5t80.5 33.5t80.5 -33.5t33.5 -79.5q0 -48 -33.5 -82t-80.5 -34zM636 185q134 0 194 38t77 151q4 26 34 26h151q30 0 27 -33q-22 -216 -138 -306.5t-351 -90.5q-109 0 -188.5 20t-141.5 65.5t-99 123t-56 189.5t-19 267
v120q0 155 19 267.5t56 189.5t99 122.5t141.5 65.5t188.5 20q235 0 351 -90.5t138 -306.5q3 -33 -27 -33h-151q-30 0 -34 26q-17 112 -78.5 150t-192.5 38q-62 0 -104 -9.5t-80.5 -37t-60.5 -77t-34.5 -130t-12.5 -196.5v-118q0 -116 12.5 -197t34.5 -130.5t60 -77t80.5 -37
t104.5 -9.5z" />
    <glyph glyph-name="cdotaccent" unicode="&#x10b;" 
d="M615 1181q-47 0 -80.5 34t-33.5 82q0 46 33.5 79.5t80.5 33.5t80.5 -33.5t33.5 -79.5q0 -48 -33.5 -82t-80.5 -34zM675 173q158 0 251 119q18 22 40 8l114 -66q27 -17 10 -40q-66 -101 -176 -160.5t-243 -59.5q-222 0 -369 147.5t-147 366.5t147 366.5t369 147.5
q133 0 243 -59.5t176 -160.5q17 -23 -10 -40l-114 -66q-22 -14 -40 8q-93 119 -251 119q-135 0 -223.5 -88.5t-88.5 -226.5t88.5 -226.5t223.5 -88.5z" />
    <glyph glyph-name="Ccaron" unicode="&#x10c;" 
d="M732 1544h-220q-22 0 -36 16l-228 260q-12 14 -7 25t24 11h158q20 0 36 -16l163 -163l163 163q16 16 36 16h158q19 0 24 -11t-7 -25l-228 -260q-14 -16 -36 -16zM636 185q134 0 194 38t77 151q4 26 34 26h151q30 0 27 -33q-22 -216 -138 -306.5t-351 -90.5
q-109 0 -188.5 20t-141.5 65.5t-99 123t-56 189.5t-19 267v120q0 155 19 267.5t56 189.5t99 122.5t141.5 65.5t188.5 20q235 0 351 -90.5t138 -306.5q3 -33 -27 -33h-151q-30 0 -34 26q-17 112 -78.5 150t-192.5 38q-62 0 -104 -9.5t-80.5 -37t-60.5 -77t-34.5 -130
t-12.5 -196.5v-118q0 -116 12.5 -197t34.5 -130.5t60 -77t80.5 -37t104.5 -9.5z" />
    <glyph glyph-name="ccaron" unicode="&#x10d;" 
d="M725 1124h-220q-22 0 -36 16l-228 260q-12 14 -7 25t24 11h158q20 0 36 -16l163 -163l163 163q16 16 36 16h158q19 0 24 -11t-7 -25l-228 -260q-14 -16 -36 -16zM675 173q158 0 251 119q18 22 40 8l114 -66q27 -17 10 -40q-66 -101 -176 -160.5t-243 -59.5
q-222 0 -369 147.5t-147 366.5t147 366.5t369 147.5q133 0 243 -59.5t176 -160.5q17 -23 -10 -40l-114 -66q-22 -14 -40 8q-93 119 -251 119q-135 0 -223.5 -88.5t-88.5 -226.5t88.5 -226.5t223.5 -88.5z" />
    <glyph glyph-name="Dcaron" unicode="&#x10e;" 
d="M469 1560l-228 260q-12 14 -7 25t24 11h158q20 0 36 -16l163 -163l163 163q16 16 36 16h158q19 0 24 -11t-7 -25l-228 -260q-14 -16 -36 -16h-220q-22 0 -36 16zM548 1400q136 0 238 -33t167.5 -91t106 -148t56.5 -192.5t16 -235.5t-16 -235.5t-56.5 -192.5t-106 -148
t-167.5 -91t-238 -33h-384q-14 0 -22 8t-8 22v1340q0 14 8 22t22 8h384zM548 201q89 0 152.5 22t103 60.5t62 103t30.5 137.5t8 176t-8 176t-30.5 137.5t-62 103t-103 60.5t-152.5 22h-190v-998h190z" />
    <glyph glyph-name="dcaron" unicode="&#x10f;" 
d="M1515 1614q17 0 24 -9t0 -25l-120 -252q-11 -24 -34 -24h-132q-17 0 -24 9t0 25l120 252q11 24 34 24h132zM1071 1400q13 0 21.5 -8t8.5 -22v-1340q0 -14 -8.5 -22t-21.5 -8h-142q-27 0 -30 30l-7 91q-126 -147 -327 -147q-206 0 -330.5 146t-124.5 368
q0 223 123.5 368.5t331.5 145.5q112 0 187 -46t113 -120h20v534q0 14 8.5 22t21.5 8h156zM608 171q132 0 209.5 88t77.5 231t-77.5 229.5t-209.5 86.5q-136 0 -213.5 -86t-77.5 -230t78 -231.5t213 -87.5z" />
    <glyph glyph-name="Dcroat" unicode="&#x110;" 
d="M537 1400q136 0 238 -33t167.5 -91t106 -148t56.5 -192.5t16 -235.5t-16 -235.5t-56.5 -192.5t-106 -148t-167.5 -91t-238 -33h-384q-13 0 -21.5 8t-8.5 22v579h-26q-13 0 -21.5 8.5t-8.5 21.5v111q0 14 8.5 22t21.5 8h26v590q0 14 8.5 22t21.5 8h384zM537 201
q89 0 152.5 22t103 60.5t62 103t30.5 137.5t8 176t-8 176t-30.5 137.5t-62 103t-103 60.5t-152.5 22h-190v-419h272q13 0 21.5 -8t8.5 -22v-111q0 -13 -8.5 -21.5t-21.5 -8.5h-272v-408h190z" />
    <glyph glyph-name="dcroat" unicode="&#x111;" 
d="M1145 1283q13 0 21.5 -8.5t8.5 -21.5v-111q0 -14 -8.5 -22t-21.5 -8h-44v-1082q0 -14 -8.5 -22t-21.5 -8h-142q-27 0 -30 30l-7 91q-126 -147 -327 -147q-206 0 -330.5 146t-124.5 368q0 223 123.5 368.5t331.5 145.5q112 0 187 -46t113 -120h20v276h-262q-13 0 -21.5 8
t-8.5 22v111q0 13 8.5 21.5t21.5 8.5h262v87q0 14 8.5 22t21.5 8h156q13 0 21.5 -8t8.5 -22v-87h44zM608 171q132 0 209.5 88t77.5 231t-77.5 229.5t-209.5 86.5q-136 0 -213.5 -86t-77.5 -230t78 -231.5t213 -87.5z" />
    <glyph glyph-name="Emacron" unicode="&#x112;" 
d="M876 1816q14 0 22 -8t8 -22v-111q0 -13 -8 -21.5t-22 -8.5h-522q-14 0 -22 8.5t-8 21.5v111q0 14 8 22t22 8h522zM1051 201q13 0 21.5 -8.5t8.5 -21.5v-141q0 -14 -8.5 -22t-21.5 -8h-861q-14 0 -22 8t-8 22v1340q0 14 8 22t22 8h859q13 0 21.5 -8t8.5 -22v-141
q0 -13 -8.5 -21.5t-21.5 -8.5h-665v-375h613q13 0 21.5 -8t8.5 -22v-141q0 -13 -8.5 -21.5t-21.5 -8.5h-613v-422h667z" />
    <glyph glyph-name="emacron" unicode="&#x113;" 
d="M344 1225q-14 0 -22 8.5t-8 21.5v111q0 14 8 22t22 8h522q14 0 22 -8t8 -22v-111q0 -13 -8 -21.5t-22 -8.5h-522zM618 1002q108 0 198.5 -39.5t150 -107t92.5 -156t33 -186.5q0 -60 -12.5 -85.5t-52.5 -25.5h-699q17 -114 106.5 -182t224.5 -68q136 0 246 84q23 18 42 -1
l66 -66q23 -23 0 -45q-150 -150 -376 -150q-230 0 -374.5 147t-144.5 367q0 107 37.5 201.5t102.5 163.5t158.5 109t201.5 40zM619 817q-115 0 -194 -70t-95 -189h572q-12 118 -89 188.5t-194 70.5z" />
    <glyph glyph-name="Edotaccent" unicode="&#x116;" 
d="M615 1601q-47 0 -80.5 34t-33.5 82q0 46 33.5 79.5t80.5 33.5t80.5 -33.5t33.5 -79.5q0 -48 -33.5 -82t-80.5 -34zM1051 201q13 0 21.5 -8.5t8.5 -21.5v-141q0 -14 -8.5 -22t-21.5 -8h-861q-14 0 -22 8t-8 22v1340q0 14 8 22t22 8h859q13 0 21.5 -8t8.5 -22v-141
q0 -13 -8.5 -21.5t-21.5 -8.5h-665v-375h613q13 0 21.5 -8t8.5 -22v-141q0 -13 -8.5 -21.5t-21.5 -8.5h-613v-422h667z" />
    <glyph glyph-name="edotaccent" unicode="&#x117;" 
d="M605 1181q-47 0 -80.5 34t-33.5 82q0 46 33.5 79.5t80.5 33.5t80.5 -33.5t33.5 -79.5q0 -48 -33.5 -82t-80.5 -34zM618 1002q108 0 198.5 -39.5t150 -107t92.5 -156t33 -186.5q0 -60 -12.5 -85.5t-52.5 -25.5h-699q17 -114 106.5 -182t224.5 -68q136 0 246 84
q23 18 42 -1l66 -66q23 -23 0 -45q-150 -150 -376 -150q-230 0 -374.5 147t-144.5 367q0 107 37.5 201.5t102.5 163.5t158.5 109t201.5 40zM619 817q-115 0 -194 -70t-95 -189h572q-12 118 -89 188.5t-194 70.5z" />
    <glyph glyph-name="Eogonek" unicode="&#x118;" 
d="M1051 201q13 0 21.5 -8.5t8.5 -21.5v-141q0 -14 -8.5 -22t-21.5 -8q-92 -7 -147.5 -56.5t-55.5 -109.5q0 -54 38.5 -79.5t111.5 -9.5v-141q-41 -18 -96 -18.5t-108 16.5t-90 66t-37 122q0 124 117 210h-594q-14 0 -22 8t-8 22v1340q0 14 8 22t22 8h859q13 0 21.5 -8
t8.5 -22v-141q0 -13 -8.5 -21.5t-21.5 -8.5h-665v-375h613q13 0 21.5 -8t8.5 -22v-141q0 -13 -8.5 -21.5t-21.5 -8.5h-613v-422h667z" />
    <glyph glyph-name="eogonek" unicode="&#x119;" 
d="M618 1002q108 0 198.5 -39.5t150 -107t92.5 -156t33 -186.5q0 -60 -12.5 -85.5t-52.5 -25.5h-699q17 -114 106.5 -182t224.5 -68q136 0 246 84q23 18 42 -1l66 -66q23 -23 0 -45q-97 -97 -227 -132q-84 -27 -130 -71.5t-46 -98.5q0 -52 38.5 -77.5t111.5 -9.5v-141
q-41 -18 -96 -18.5t-108 16.5t-90 66t-37 122q0 118 110 202q-191 31 -306 171.5t-115 334.5q0 107 37.5 201.5t102.5 163.5t158.5 109t201.5 40zM619 817q-115 0 -194 -70t-95 -189h572q-12 118 -89 188.5t-194 70.5z" />
    <glyph glyph-name="Ecaron" unicode="&#x11a;" 
d="M725 1544h-220q-22 0 -36 16l-228 260q-12 14 -7 25t24 11h158q20 0 36 -16l163 -163l163 163q16 16 36 16h158q19 0 24 -11t-7 -25l-228 -260q-14 -16 -36 -16zM1051 201q13 0 21.5 -8.5t8.5 -21.5v-141q0 -14 -8.5 -22t-21.5 -8h-861q-14 0 -22 8t-8 22v1340q0 14 8 22
t22 8h859q13 0 21.5 -8t8.5 -22v-141q0 -13 -8.5 -21.5t-21.5 -8.5h-665v-375h613q13 0 21.5 -8t8.5 -22v-141q0 -13 -8.5 -21.5t-21.5 -8.5h-613v-422h667z" />
    <glyph glyph-name="ecaron" unicode="&#x11b;" 
d="M459 1140l-228 260q-12 14 -7 25t24 11h158q20 0 36 -16l163 -163l163 163q16 16 36 16h158q19 0 24 -11t-7 -25l-228 -260q-14 -16 -36 -16h-220q-22 0 -36 16zM618 1002q108 0 198.5 -39.5t150 -107t92.5 -156t33 -186.5q0 -60 -12.5 -85.5t-52.5 -25.5h-699
q17 -114 106.5 -182t224.5 -68q136 0 246 84q23 18 42 -1l66 -66q23 -23 0 -45q-150 -150 -376 -150q-230 0 -374.5 147t-144.5 367q0 107 37.5 201.5t102.5 163.5t158.5 109t201.5 40zM619 817q-115 0 -194 -70t-95 -189h572q-12 118 -89 188.5t-194 70.5z" />
    <glyph glyph-name="Gbreve" unicode="&#x11e;" 
d="M615 1530q-134 0 -215.5 76.5t-93.5 194.5q-3 31 29 31h86q26 0 32 -29q11 -53 53.5 -89.5t108.5 -36.5t109 36.5t53 89.5q6 29 32 29h86q33 0 30 -31q-13 -118 -94.5 -194.5t-215.5 -76.5zM1100 721q14 0 22 -8.5t8 -21.5v-152q0 -302 -118 -435t-384 -134
q-186 0 -293.5 58.5t-161 204t-53.5 402.5v120q0 194 28 322t91.5 204t155 107.5t228.5 31.5q235 0 351 -90.5t139 -306.5q2 -33 -28 -33h-150q-31 0 -35 26q-17 112 -78.5 150t-192.5 38q-62 0 -104 -9.5t-80.5 -37t-60.5 -77t-34.5 -130t-12.5 -196.5v-118
q0 -116 12.5 -197t34.5 -130.5t60 -77t80 -37t104 -9.5q159 0 224.5 73t66.5 271h-332q-13 0 -21.5 8.5t-8.5 21.5v132q0 13 8.5 21.5t21.5 8.5h513z" />
    <glyph glyph-name="gbreve" unicode="&#x11f;" 
d="M615 1110q-134 0 -215.5 76.5t-93.5 194.5q-3 31 29 31h86q26 0 32 -29q11 -53 53.5 -89.5t108.5 -36.5t109 36.5t53 89.5q6 29 32 29h86q33 0 30 -31q-13 -118 -94.5 -194.5t-215.5 -76.5zM1066 980q14 0 22 -8t8 -22v-935q0 -89 -30.5 -161t-80 -117.5t-116.5 -76.5
t-136.5 -43.5t-143.5 -12.5q-117 0 -221 29.5t-180 80.5q-22 15 -9 41l50 93q14 26 40 12q136 -73 303 -73q59 0 113 12t102.5 38.5t77 74.5t28.5 112v129q-126 -158 -323 -158q-135 0 -245 68t-170.5 183t-60.5 252t60.5 252t170.5 183t245 68q193 0 319 -155l6 104
q3 30 30 30h141zM593 191q124 0 207.5 92t83.5 217q0 123 -83.5 214t-207.5 91q-125 0 -208.5 -88.5t-83.5 -216.5q0 -130 83.5 -219.5t208.5 -89.5z" />
    <glyph glyph-name="Gdotaccent" unicode="&#x120;" 
d="M615 1601q-47 0 -80.5 34t-33.5 82q0 46 33.5 79.5t80.5 33.5t80.5 -33.5t33.5 -79.5q0 -48 -33.5 -82t-80.5 -34zM1100 721q14 0 22 -8.5t8 -21.5v-152q0 -302 -118 -435t-384 -134q-186 0 -293.5 58.5t-161 204t-53.5 402.5v120q0 194 28 322t91.5 204t155 107.5
t228.5 31.5q235 0 351 -90.5t139 -306.5q2 -33 -28 -33h-150q-31 0 -35 26q-17 112 -78.5 150t-192.5 38q-62 0 -104 -9.5t-80.5 -37t-60.5 -77t-34.5 -130t-12.5 -196.5v-118q0 -116 12.5 -197t34.5 -130.5t60 -77t80 -37t104 -9.5q159 0 224.5 73t66.5 271h-332
q-13 0 -21.5 8.5t-8.5 21.5v132q0 13 8.5 21.5t21.5 8.5h513z" />
    <glyph glyph-name="gdotaccent" unicode="&#x121;" 
d="M615 1181q-47 0 -80.5 34t-33.5 82q0 46 33.5 79.5t80.5 33.5t80.5 -33.5t33.5 -79.5q0 -48 -33.5 -82t-80.5 -34zM1066 980q14 0 22 -8t8 -22v-935q0 -89 -30.5 -161t-80 -117.5t-116.5 -76.5t-136.5 -43.5t-143.5 -12.5q-117 0 -221 29.5t-180 80.5q-22 15 -9 41l50 93
q14 26 40 12q136 -73 303 -73q59 0 113 12t102.5 38.5t77 74.5t28.5 112v129q-126 -158 -323 -158q-135 0 -245 68t-170.5 183t-60.5 252t60.5 252t170.5 183t245 68q193 0 319 -155l6 104q3 30 30 30h141zM593 191q124 0 207.5 92t83.5 217q0 123 -83.5 214t-207.5 91
q-125 0 -208.5 -88.5t-83.5 -216.5q0 -130 83.5 -219.5t208.5 -89.5z" />
    <glyph glyph-name="Gcommaaccent" unicode="&#x122;" 
d="M1100 721q14 0 22 -8.5t8 -21.5v-152q0 -302 -118 -435t-384 -134q-186 0 -293.5 58.5t-161 204t-53.5 402.5v120q0 194 28 322t91.5 204t155 107.5t228.5 31.5q235 0 351 -90.5t139 -306.5q2 -33 -28 -33h-150q-31 0 -35 26q-17 112 -78.5 150t-192.5 38
q-62 0 -104 -9.5t-80.5 -37t-60.5 -77t-34.5 -130t-12.5 -196.5v-118q0 -116 12.5 -197t34.5 -130.5t60 -77t80 -37t104 -9.5q159 0 224.5 73t66.5 271h-332q-13 0 -21.5 8.5t-8.5 21.5v132q0 13 8.5 21.5t21.5 8.5h513zM819 -172q28 0 28 -28v-61q0 -118 -20 -236.5
t-49 -196.5q-9 -22 -33 -22h-83q-30 0 -24 31q13 68 20 170t5 174h-242q-28 0 -28 28v113q0 28 28 28h398z" />
    <glyph glyph-name="gcommaaccent" unicode="&#x123;" 
d="M434 1199q-28 0 -28 28v61q0 118 20 236.5t49 196.5q9 22 33 22h83q30 0 24 -31q-13 -68 -20 -170t-5 -174h242q28 0 28 -28v-113q0 -28 -28 -28h-398zM1066 980q14 0 22 -8t8 -22v-935q0 -89 -30.5 -161t-80 -117.5t-116.5 -76.5t-136.5 -43.5t-143.5 -12.5
q-117 0 -221 29.5t-180 80.5q-22 15 -9 41l50 93q14 26 40 12q136 -73 303 -73q59 0 113 12t102.5 38.5t77 74.5t28.5 112v129q-126 -158 -323 -158q-135 0 -245 68t-170.5 183t-60.5 252t60.5 252t170.5 183t245 68q193 0 319 -155l6 104q3 30 30 30h141zM593 191
q124 0 207.5 92t83.5 217q0 123 -83.5 214t-207.5 91q-125 0 -208.5 -88.5t-83.5 -216.5q0 -130 83.5 -219.5t208.5 -89.5z" />
    <glyph glyph-name="Hbar" unicode="&#x126;" 
d="M1056 1400q14 0 22 -8t8 -22v-1340q0 -14 -8 -22t-22 -8h-164q-14 0 -22 8t-8 22v581h-494v-581q0 -14 -8 -22t-22 -8h-164q-14 0 -22 8t-8 22v1340q0 14 8 22t22 8h164q14 0 22 -8t8 -22v-235h494v235q0 14 8 22t22 8h164zM368 812h494v137h-494v-137z" />
    <glyph glyph-name="hbar" unicode="&#x127;" 
d="M721 1002q161 0 258 -106t97 -298v-568q0 -14 -8 -22t-22 -8h-156q-14 0 -22 8t-8 22v536q0 121 -57.5 179t-160.5 58q-47 0 -88.5 -13.5t-70.5 -33.5t-52 -45.5t-36 -48.5t-20 -43v-589q0 -14 -8.5 -22t-21.5 -8h-156q-13 0 -21.5 8t-8.5 22v1069h-76q-13 0 -21.5 8.5
t-8.5 21.5v111q0 14 8.5 22t21.5 8h76v100q0 14 8.5 22t21.5 8h156q13 0 21.5 -8t8.5 -22v-100h230q13 0 21.5 -8t8.5 -22v-111q0 -13 -8.5 -21.5t-21.5 -8.5h-230v-281h16q50 80 133 132t197 52z" />
    <glyph glyph-name="Imacron" unicode="&#x12a;" 
d="M876 1816q14 0 22 -8t8 -22v-111q0 -13 -8 -21.5t-22 -8.5h-522q-14 0 -22 8.5t-8 21.5v111q0 14 8 22t22 8h522zM1065 1199h-338v-998h338q13 0 21.5 -8.5t8.5 -21.5v-141q0 -14 -8.5 -22t-21.5 -8h-900q-13 0 -21.5 8t-8.5 22v141q0 13 8.5 21.5t21.5 8.5h338v998h-338
q-13 0 -21.5 8.5t-8.5 21.5v141q0 14 8.5 22t21.5 8h900q13 0 21.5 -8t8.5 -22v-141q0 -13 -8.5 -21.5t-21.5 -8.5z" />
    <glyph glyph-name="imacron" unicode="&#x12b;" 
d="M354 1225q-14 0 -22 8.5t-8 21.5v111q0 14 8 22t22 8h522q14 0 22 -8t8 -22v-111q0 -13 -8 -21.5t-22 -8.5h-522zM1051 181q13 0 21.5 -8.5t8.5 -21.5v-121q0 -14 -8.5 -22t-21.5 -8h-861q-14 0 -22 8t-8 22v121q0 13 8 21.5t22 8.5h348v618h-298q-14 0 -22 8.5t-8 21.5
v121q0 14 8 22t22 8h484q14 0 22 -8t8 -22v-769h297z" />
    <glyph glyph-name="iogonek" unicode="&#x12f;" 
d="M615 1181q-47 0 -80.5 34t-33.5 82q0 46 33.5 79.5t80.5 33.5t80.5 -33.5t33.5 -79.5q0 -48 -33.5 -82t-80.5 -34zM1051 181q13 0 21.5 -8.5t8.5 -21.5v-121q0 -14 -8.5 -22t-21.5 -8h-265q-92 -7 -147.5 -56.5t-55.5 -109.5q0 -54 38.5 -79.5t111.5 -9.5v-141
q-41 -18 -96 -18.5t-108 16.5t-90 66t-37 122q0 124 117 210h-329q-14 0 -22 8t-8 22v121q0 13 8 21.5t22 8.5h348v618h-298q-14 0 -22 8.5t-8 21.5v121q0 14 8 22t22 8h484q14 0 22 -8t8 -22v-769h297z" />
    <glyph glyph-name="Idotaccent" unicode="&#x130;" 
d="M615 1601q-47 0 -80.5 34t-33.5 82q0 46 33.5 79.5t80.5 33.5t80.5 -33.5t33.5 -79.5q0 -48 -33.5 -82t-80.5 -34zM1065 1199h-338v-998h338q13 0 21.5 -8.5t8.5 -21.5v-141q0 -14 -8.5 -22t-21.5 -8h-900q-13 0 -21.5 8t-8.5 22v141q0 13 8.5 21.5t21.5 8.5h338v998
h-338q-13 0 -21.5 8.5t-8.5 21.5v141q0 14 8.5 22t21.5 8h900q13 0 21.5 -8t8.5 -22v-141q0 -13 -8.5 -21.5t-21.5 -8.5z" />
    <glyph glyph-name="dotlessi" unicode="&#x131;" 
d="M1051 181q13 0 21.5 -8.5t8.5 -21.5v-121q0 -14 -8.5 -22t-21.5 -8h-861q-14 0 -22 8t-8 22v121q0 13 8 21.5t22 8.5h348v618h-298q-14 0 -22 8.5t-8 21.5v121q0 14 8 22t22 8h484q14 0 22 -8t8 -22v-769h297z" />
    <glyph glyph-name="IJ" unicode="&#x132;" 
d="M272 1400q14 0 22 -8t8 -22v-1340q0 -14 -8 -22t-22 -8h-164q-14 0 -22 8t-8 22v1340q0 14 8 22t22 8h164zM1123 1400q13 0 21.5 -8t8.5 -22v-847q0 -139 -39 -245.5t-107 -169.5t-153.5 -94.5t-185.5 -31.5q-136 0 -231 53q-25 14 -12 41l59 121q12 24 38 15
q57 -23 128 -23q57 0 105 18.5t88 57t62.5 104.5t22.5 154v676h-445q-13 0 -21.5 8.5t-8.5 21.5v141q0 14 8.5 22t21.5 8h640z" />
    <glyph glyph-name="ij" unicode="&#x133;" 
d="M222 1187q-52 0 -88 36t-36 88t36 88.5t88 36.5t88.5 -36t36.5 -89q0 -52 -36.5 -88t-88.5 -36zM1024 1187q-52 0 -88.5 36t-36.5 88t36.5 88.5t88.5 36.5t88.5 -36.5t36.5 -88.5t-36.5 -88t-88.5 -36zM302 980q14 0 22 -8t8 -22v-920q0 -14 -8 -22t-22 -8h-156
q-14 0 -22 8t-8 22v920q0 14 8 22t22 8h156zM1124 980q14 0 22 -8t8 -22v-916q0 -96 -25.5 -170.5t-67 -120t-100 -75t-118 -40.5t-127.5 -11q-61 0 -119.5 13.5t-101 33.5t-73.5 42.5t-44 43t-5 31.5l63 97q8 12 23 12.5t29 -10.5q97 -77 214 -77q50 0 88.5 10.5t74 36.5
t54.5 77.5t19 126.5v745h-452q-14 0 -22 8.5t-8 21.5v121q0 14 8 22t22 8h638z" />
    <glyph glyph-name="Kcommaaccent" unicode="&#x136;" 
d="M1150 36q10 -15 5 -25.5t-23 -10.5h-182q-23 0 -36 18l-430 610l-131 -152v-446q0 -14 -8.5 -22t-21.5 -8h-164q-13 0 -21.5 8t-8.5 22v1340q0 14 8.5 22t21.5 8h164q13 0 21.5 -8t8.5 -22v-595l510 609q13 16 36 16h202q19 0 23.5 -11t-7.5 -25l-492 -572zM806 -172
q28 0 28 -28v-61q0 -118 -20 -236.5t-49 -196.5q-9 -22 -33 -22h-83q-30 0 -24 31q13 68 20 170t5 174h-242q-28 0 -28 28v113q0 28 28 28h398z" />
    <glyph glyph-name="kcommaaccent" unicode="&#x137;" 
d="M1109 36q12 -15 6 -25.5t-24 -10.5h-179q-22 0 -36 18l-326 396l-161 -171v-213q0 -14 -8.5 -22t-21.5 -8h-156q-13 0 -21.5 8t-8.5 22v1400q0 14 8.5 22t21.5 8h156q13 0 21.5 -8t8.5 -22v-919l420 453q15 16 37 16h190q20 0 25 -11t-9 -25l-367 -388zM806 -172
q28 0 28 -28v-61q0 -118 -20 -236.5t-49 -196.5q-9 -22 -33 -22h-83q-30 0 -24 31q13 68 20 170t5 174h-242q-28 0 -28 28v113q0 28 28 28h398z" />
    <glyph glyph-name="Lacute" unicode="&#x139;" 
d="M214 1484q-17 0 -24 9t0 25l120 252q11 24 34 24h132q17 0 24 -9t0 -25l-120 -252q-11 -24 -34 -24h-132zM1056 201q14 0 22 -8.5t8 -21.5v-141q0 -14 -8 -22t-22 -8h-856q-14 0 -22 8t-8 22v1340q0 14 8 22t22 8h164q14 0 22 -8t8 -22v-1169h662z" />
    <glyph glyph-name="lacute" unicode="&#x13a;" 
d="M555 1521q-17 0 -24 9t0 25l120 252q11 24 34 24h132q17 0 24 -9t0 -25l-120 -252q-11 -24 -34 -24h-132zM1051 181q13 0 21.5 -8.5t8.5 -21.5v-121q0 -14 -8.5 -22t-21.5 -8h-871q-14 0 -22 8t-8 22v121q0 13 8 21.5t22 8.5h348v1038h-325q-13 0 -21.5 8.5t-8.5 21.5
v121q0 14 8.5 22t21.5 8h511q14 0 22 -8t8 -22v-1189h307z" />
    <glyph glyph-name="Lcommaaccent" unicode="&#x13b;" 
d="M1056 201q14 0 22 -8.5t8 -21.5v-141q0 -14 -8 -22t-22 -8h-856q-14 0 -22 8t-8 22v1340q0 14 8 22t22 8h164q14 0 22 -8t8 -22v-1169h662zM806 -172q28 0 28 -28v-61q0 -118 -20 -236.5t-49 -196.5q-9 -22 -33 -22h-83q-30 0 -24 31q13 68 20 170t5 174h-242
q-28 0 -28 28v113q0 28 28 28h398z" />
    <glyph glyph-name="lcommaaccent" unicode="&#x13c;" 
d="M1051 181q13 0 21.5 -8.5t8.5 -21.5v-121q0 -14 -8.5 -22t-21.5 -8h-871q-14 0 -22 8t-8 22v121q0 13 8 21.5t22 8.5h348v1038h-325q-13 0 -21.5 8.5t-8.5 21.5v121q0 14 8.5 22t21.5 8h511q14 0 22 -8t8 -22v-1189h307zM806 -172q28 0 28 -28v-61q0 -118 -20 -236.5
t-49 -196.5q-9 -22 -33 -22h-83q-30 0 -24 31q13 68 20 170t5 174h-242q-28 0 -28 28v113q0 28 28 28h398z" />
    <glyph glyph-name="Lcaron" unicode="&#x13d;" 
d="M1056 201q14 0 22 -8.5t8 -21.5v-141q0 -14 -8 -22t-22 -8h-856q-14 0 -22 8t-8 22v1340q0 14 8 22t22 8h164q14 0 22 -8t8 -22v-1169h662zM554 1218q-14 0 -22 8t-8 22v122q0 14 8 22t22 8h430q14 0 22 -8t8 -22v-66q0 -127 -22 -254.5t-53 -212.5q-9 -23 -35 -23h-90
q-32 0 -26 33q14 73 21.5 182t5.5 189h-261z" />
    <glyph glyph-name="lcaron" unicode="&#x13e;" 
d="M984 181q14 0 22 -8.5t8 -21.5v-121q0 -14 -8 -22t-22 -8h-871q-13 0 -21.5 8t-8.5 22v121q0 13 8.5 21.5t21.5 8.5h348v1038h-325q-14 0 -22 8.5t-8 21.5v121q0 14 8 22t22 8h511q13 0 21.5 -8t8.5 -22v-1189h307zM1169 1400q13 0 21 -8.5t8 -21.5v-66
q0 -127 -20.5 -255t-50.5 -212q-9 -23 -34 -23h-85q-30 0 -25 33q30 164 26 371h-247q-13 0 -21 8.5t-8 21.5v122q0 13 8 21.5t21 8.5h407z" />
    <glyph glyph-name="Ldot" unicode="&#x13f;" 
d="M1056 201q14 0 22 -8.5t8 -21.5v-141q0 -14 -8 -22t-22 -8h-856q-14 0 -22 8t-8 22v1340q0 14 8 22t22 8h164q14 0 22 -8t8 -22v-1169h662zM739 613q-67 0 -114 47t-47 114q0 68 47 115.5t114 47.5t114 -47.5t47 -115.5q0 -67 -47 -114t-114 -47z" />
    <glyph glyph-name="ldot" unicode="&#x140;" 
d="M1051 181q13 0 21.5 -8.5t8.5 -21.5v-121q0 -14 -8.5 -22t-21.5 -8h-871q-14 0 -22 8t-8 22v121q0 13 8 21.5t22 8.5h348v1038h-325q-13 0 -21.5 8.5t-8.5 21.5v121q0 14 8.5 22t21.5 8h511q14 0 22 -8t8 -22v-1189h307zM944 609q-67 0 -114 47t-47 114q0 68 47 115.5
t114 47.5t114 -47.5t47 -115.5q0 -67 -47 -114t-114 -47z" />
    <glyph glyph-name="Lslash" unicode="&#x141;" 
d="M1011 201q13 0 21.5 -8.5t8.5 -21.5v-141q0 -14 -8.5 -22t-21.5 -8h-771q-14 0 -22 8t-8 22v441l-110 -108q-15 -15 -25.5 -9.5t-10.5 25.5v142q0 22 16 38l130 127v684q0 14 8 22t22 8h164q14 0 22 -8t8 -22v-466l170 166q15 14 25.5 9t10.5 -25v-140q0 -22 -16 -38
l-190 -186v-489h577z" />
    <glyph glyph-name="lslash" unicode="&#x142;" 
d="M1064 181q14 0 22 -8.5t8 -21.5v-121q0 -14 -8 -22t-22 -8h-871q-13 0 -21.5 8t-8.5 22v121q0 13 8.5 21.5t21.5 8.5h348v372l-185 -173v196l185 173v470h-325q-14 0 -22 8.5t-8 21.5v121q0 14 8 22t22 8h511q13 0 21.5 -8t8.5 -22v-420l153 143l1 -194l-154 -144v-574
h307z" />
    <glyph glyph-name="Nacute" unicode="&#x143;" 
d="M555 1510q-17 0 -24 9t0 25l120 252q11 24 34 24h132q17 0 24 -9t0 -25l-120 -252q-11 -24 -34 -24h-132zM1066 1400q14 0 22 -8t8 -22v-1340q0 -14 -8 -22t-22 -8h-196q-27 0 -36 20l-496 1042v-1032q0 -14 -8 -22t-22 -8h-144q-14 0 -22 8t-8 22v1340q0 14 8 22t22 8
h197q27 0 36 -20l495 -1040v1030q0 14 8 22t22 8h144z" />
    <glyph glyph-name="nacute" unicode="&#x144;" 
d="M555 1090q-17 0 -24 9t0 25l120 252q11 24 34 24h132q17 0 24 -9t0 -25l-120 -252q-11 -24 -34 -24h-132zM721 1002q161 0 258 -106t97 -298v-568q0 -14 -8 -22t-22 -8h-156q-14 0 -22 8t-8 22v536q0 121 -57.5 179t-160.5 58q-66 0 -121.5 -26t-86.5 -62t-47.5 -68.5
t-16.5 -51.5v-565q0 -14 -8 -22t-22 -8h-156q-14 0 -22 8t-8 22v920q0 14 8 22t22 8h148q27 0 30 -30l8 -132h21q50 80 133 132t197 52z" />
    <glyph glyph-name="Ncommaaccent" unicode="&#x145;" 
d="M1066 1400q14 0 22 -8t8 -22v-1340q0 -14 -8 -22t-22 -8h-196q-27 0 -36 20l-496 1042v-1032q0 -14 -8 -22t-22 -8h-144q-14 0 -22 8t-8 22v1340q0 14 8 22t22 8h197q27 0 36 -20l495 -1040v1030q0 14 8 22t22 8h144zM806 -172q28 0 28 -28v-61q0 -118 -20 -236.5
t-49 -196.5q-9 -22 -33 -22h-83q-30 0 -24 31q13 68 20 170t5 174h-242q-28 0 -28 28v113q0 28 28 28h398z" />
    <glyph glyph-name="ncommaaccent" unicode="&#x146;" 
d="M721 1002q161 0 258 -106t97 -298v-568q0 -14 -8 -22t-22 -8h-156q-14 0 -22 8t-8 22v536q0 121 -57.5 179t-160.5 58q-66 0 -121.5 -26t-86.5 -62t-47.5 -68.5t-16.5 -51.5v-565q0 -14 -8 -22t-22 -8h-156q-14 0 -22 8t-8 22v920q0 14 8 22t22 8h148q27 0 30 -30l8 -132
h21q50 80 133 132t197 52zM806 -172q28 0 28 -28v-61q0 -118 -20 -236.5t-49 -196.5q-9 -22 -33 -22h-83q-30 0 -24 31q13 68 20 170t5 174h-242q-28 0 -28 28v113q0 28 28 28h398z" />
    <glyph glyph-name="Ncaron" unicode="&#x147;" 
d="M469 1560l-228 260q-12 14 -7 25t24 11h158q20 0 36 -16l163 -163l163 163q16 16 36 16h158q19 0 24 -11t-7 -25l-228 -260q-14 -16 -36 -16h-220q-22 0 -36 16zM1066 1400q14 0 22 -8t8 -22v-1340q0 -14 -8 -22t-22 -8h-196q-27 0 -36 20l-496 1042v-1032q0 -14 -8 -22
t-22 -8h-144q-14 0 -22 8t-8 22v1340q0 14 8 22t22 8h197q27 0 36 -20l495 -1040v1030q0 14 8 22t22 8h144z" />
    <glyph glyph-name="ncaron" unicode="&#x148;" 
d="M469 1140l-228 260q-12 14 -7 25t24 11h158q20 0 36 -16l163 -163l163 163q16 16 36 16h158q19 0 24 -11t-7 -25l-228 -260q-14 -16 -36 -16h-220q-22 0 -36 16zM721 1002q161 0 258 -106t97 -298v-568q0 -14 -8 -22t-22 -8h-156q-14 0 -22 8t-8 22v536q0 121 -57.5 179
t-160.5 58q-66 0 -121.5 -26t-86.5 -62t-47.5 -68.5t-16.5 -51.5v-565q0 -14 -8 -22t-22 -8h-156q-14 0 -22 8t-8 22v920q0 14 8 22t22 8h148q27 0 30 -30l8 -132h21q50 80 133 132t197 52z" />
    <glyph glyph-name="Eng" unicode="&#x14a;" 
d="M1066 1400q14 0 22 -8t8 -22v-1370q0 -219 -128 -315t-390 -96v204q155 0 233.5 49.5t78.5 157.5h-20q-27 0 -36 20l-496 1042v-1032q0 -14 -8 -22t-22 -8h-144q-14 0 -22 8t-8 22v1340q0 14 8 22t22 8h197q27 0 36 -20l493 -1036v633h2v393q0 14 8 22t22 8h144z" />
    <glyph glyph-name="eng" unicode="&#x14b;" 
d="M721 1002q161 0 258 -106t97 -298v-582q0 -202 -98.5 -307t-268.5 -105q-18 0 -23 17l-48 160q-3 9 1 15.5t14 6.5q95 0 151 62t56 183v518q0 121 -57.5 179t-160.5 58q-66 0 -121.5 -26t-86.5 -62t-47.5 -68.5t-16.5 -51.5v-565q0 -14 -8 -22t-22 -8h-156q-14 0 -22 8
t-8 22v920q0 14 8 22t22 8h148q27 0 30 -30l8 -132h21q50 80 133 132t197 52z" />
    <glyph glyph-name="Omacron" unicode="&#x14c;" 
d="M876 1816q14 0 22 -8t8 -22v-111q0 -13 -8 -21.5t-22 -8.5h-522q-14 0 -22 8.5t-8 21.5v111q0 14 8 22t22 8h522zM615 1420q138 0 229 -31t154 -107.5t90.5 -204.5t27.5 -322v-119q0 -195 -27.5 -323t-90.5 -204.5t-154 -107.5t-229 -31t-229 31t-154 107.5t-90.5 204.5
t-27.5 323v119q0 194 27.5 322t90.5 204.5t154 107.5t229 31zM615 1205q-65 0 -106 -8.5t-78 -35t-57 -76.5t-31 -131t-11 -200v-118q0 -119 11 -200t31 -131t57 -76.5t78 -35t106 -8.5t106 8.5t78 35t57 76.5t31 131t11 200v118q0 119 -11 200t-31 131t-57 76.5t-78 35
t-106 8.5z" />
    <glyph glyph-name="omacron" unicode="&#x14d;" 
d="M876 1396q14 0 22 -8t8 -22v-111q0 -13 -8 -21.5t-22 -8.5h-522q-14 0 -22 8.5t-8 21.5v111q0 14 8 22t22 8h522zM615 -26q-213 0 -356.5 147.5t-143.5 366.5t143.5 366.5t356.5 147.5q140 0 255 -67.5t180.5 -185.5t65.5 -261t-65.5 -261t-180.5 -185.5t-255 -67.5z
M615 173q127 0 210 88t83 227t-83 227t-210 88t-210 -88t-83 -227t83 -227t210 -88z" />
    <glyph glyph-name="Ohungarumlaut" unicode="&#x150;" 
d="M635 1820q17 0 24 -9t0 -25l-120 -252q-11 -24 -34 -24h-132q-17 0 -24 9t0 25l120 252q11 24 34 24h132zM969 1820q17 0 24 -9t0 -25l-120 -252q-11 -24 -34 -24h-132q-17 0 -24 9t0 25l120 252q11 24 34 24h132zM615 1420q138 0 229 -31t154 -107.5t90.5 -204.5
t27.5 -322v-119q0 -195 -27.5 -323t-90.5 -204.5t-154 -107.5t-229 -31t-229 31t-154 107.5t-90.5 204.5t-27.5 323v119q0 194 27.5 322t90.5 204.5t154 107.5t229 31zM615 1205q-65 0 -106 -8.5t-78 -35t-57 -76.5t-31 -131t-11 -200v-118q0 -119 11 -200t31 -131t57 -76.5
t78 -35t106 -8.5t106 8.5t78 35t57 76.5t31 131t11 200v118q0 119 -11 200t-31 131t-57 76.5t-78 35t-106 8.5z" />
    <glyph glyph-name="ohungarumlaut" unicode="&#x151;" 
d="M635 1400q17 0 24 -9t0 -25l-120 -252q-11 -24 -34 -24h-132q-17 0 -24 9t0 25l120 252q11 24 34 24h132zM969 1400q17 0 24 -9t0 -25l-120 -252q-11 -24 -34 -24h-132q-17 0 -24 9t0 25l120 252q11 24 34 24h132zM615 -26q-213 0 -356.5 147.5t-143.5 366.5t143.5 366.5
t356.5 147.5q140 0 255 -67.5t180.5 -185.5t65.5 -261t-65.5 -261t-180.5 -185.5t-255 -67.5zM615 173q127 0 210 88t83 227t-83 227t-210 88t-210 -88t-83 -227t83 -227t210 -88z" />
    <glyph glyph-name="OE" unicode="&#x152;" 
d="M1106 201q14 0 22 -8.5t8 -21.5v-141q0 -14 -8 -22t-22 -8h-511q-111 0 -189 17t-140.5 58.5t-98.5 114.5t-54.5 182t-18.5 264v119q0 155 18.5 264.5t55 184t98 117.5t140 61t189.5 18h509q14 0 22 -8t8 -22v-141q0 -13 -8 -21.5t-22 -8.5h-285v-368h233q14 0 22 -8.5
t8 -21.5v-142q0 -13 -8 -21.5t-22 -8.5h-233v-428h287zM595 219v962q-54 0 -89.5 -4.5t-70 -20t-54.5 -43.5t-36.5 -75.5t-23 -117t-6.5 -166.5v-118q0 -97 6.5 -165.5t23 -115t36 -73.5t55 -41t69.5 -18t90 -4z" />
    <glyph glyph-name="oe" unicode="&#x153;" 
d="M910 148q58 0 98 19.5t81 60.5l90 -106q-48 -71 -119.5 -109.5t-158.5 -38.5q-189 0 -278 140q-84 -140 -252 -140q-86 0 -150.5 37.5t-103.5 107t-58 161.5t-19 208t19 208t58 161.5t103.5 107t150.5 37.5q169 0 253 -142q87 142 249 142q318 0 318 -489
q0 -60 -13 -85.5t-52 -25.5h-420q10 -122 57 -188t147 -66zM873 824q-152 0 -167 -267h322q0 267 -155 267zM371 151q84 0 127.5 86t43.5 250t-43.5 250t-127.5 86t-127 -86t-43 -250t43 -250t127 -86z" />
    <glyph glyph-name="Racute" unicode="&#x154;" 
d="M555 1510q-17 0 -24 9t0 25l120 252q11 24 34 24h132q17 0 24 -9t0 -25l-120 -252q-11 -24 -34 -24h-132zM864 527l234 -492q7 -16 1 -25.5t-23 -9.5h-160q-25 0 -35 23l-226 480h-282v-473q0 -14 -8.5 -22t-21.5 -8h-164q-13 0 -21.5 8t-8.5 22v1340q0 14 8.5 22t21.5 8
h480q131 0 220 -28t140 -87t72 -139t21 -194q0 -179 -55.5 -282t-192.5 -143zM373 1199v-495h286q55 0 90 5t66 19.5t47 42t25 71.5t9 110q0 81 -12.5 130.5t-44 75t-71.5 33.5t-109 8h-286z" />
    <glyph glyph-name="racute" unicode="&#x155;" 
d="M575 1090q-17 0 -24 9t0 25l120 252q11 24 34 24h132q17 0 24 -9t0 -25l-120 -252q-11 -24 -34 -24h-132zM754 1002q167 0 271 -99.5t104 -281.5q0 -29 -29 -32l-156 -22q-29 -5 -32 27q-7 106 -67 156.5t-160 50.5q-71 0 -130.5 -27t-94 -65.5t-53 -75t-18.5 -61.5v-542
q0 -14 -8.5 -22t-21.5 -8h-156q-13 0 -21.5 8t-8.5 22v920q0 14 8.5 22t21.5 8h148q27 0 30 -30l8 -132h22q54 79 142.5 131.5t200.5 52.5z" />
    <glyph glyph-name="Rcommaaccent" unicode="&#x156;" 
d="M864 527l234 -492q7 -16 1 -25.5t-23 -9.5h-160q-25 0 -35 23l-226 480h-282v-473q0 -14 -8.5 -22t-21.5 -8h-164q-13 0 -21.5 8t-8.5 22v1340q0 14 8.5 22t21.5 8h480q131 0 220 -28t140 -87t72 -139t21 -194q0 -179 -55.5 -282t-192.5 -143zM373 1199v-495h286
q55 0 90 5t66 19.5t47 42t25 71.5t9 110q0 81 -12.5 130.5t-44 75t-71.5 33.5t-109 8h-286zM806 -172q28 0 28 -28v-61q0 -118 -20 -236.5t-49 -196.5q-9 -22 -33 -22h-83q-30 0 -24 31q13 68 20 170t5 174h-242q-28 0 -28 28v113q0 28 28 28h398z" />
    <glyph glyph-name="rcommaaccent" unicode="&#x157;" 
d="M754 1002q167 0 271 -99.5t104 -281.5q0 -29 -29 -32l-156 -22q-29 -5 -32 27q-7 106 -67 156.5t-160 50.5q-71 0 -130.5 -27t-94 -65.5t-53 -75t-18.5 -61.5v-542q0 -14 -8.5 -22t-21.5 -8h-156q-13 0 -21.5 8t-8.5 22v920q0 14 8.5 22t21.5 8h148q27 0 30 -30l8 -132
h22q54 79 142.5 131.5t200.5 52.5zM437 -172q28 0 28 -28v-61q0 -118 -20 -236.5t-49 -196.5q-9 -22 -33 -22h-83q-30 0 -24 31q13 68 20 170t5 174h-242q-28 0 -28 28v113q0 28 28 28h398z" />
    <glyph glyph-name="Rcaron" unicode="&#x158;" 
d="M469 1560l-228 260q-12 14 -7 25t24 11h158q20 0 36 -16l163 -163l163 163q16 16 36 16h158q19 0 24 -11t-7 -25l-228 -260q-14 -16 -36 -16h-220q-22 0 -36 16zM864 527l234 -492q7 -16 1 -25.5t-23 -9.5h-160q-25 0 -35 23l-226 480h-282v-473q0 -14 -8.5 -22t-21.5 -8
h-164q-13 0 -21.5 8t-8.5 22v1340q0 14 8.5 22t21.5 8h480q131 0 220 -28t140 -87t72 -139t21 -194q0 -179 -55.5 -282t-192.5 -143zM373 1199v-495h286q55 0 90 5t66 19.5t47 42t25 71.5t9 110q0 81 -12.5 130.5t-44 75t-71.5 33.5t-109 8h-286z" />
    <glyph glyph-name="rcaron" unicode="&#x159;" 
d="M489 1140l-228 260q-12 14 -7 25t24 11h158q20 0 36 -16l163 -163l163 163q16 16 36 16h158q19 0 24 -11t-7 -25l-228 -260q-14 -16 -36 -16h-220q-22 0 -36 16zM754 1002q167 0 271 -99.5t104 -281.5q0 -29 -29 -32l-156 -22q-29 -5 -32 27q-7 106 -67 156.5t-160 50.5
q-71 0 -130.5 -27t-94 -65.5t-53 -75t-18.5 -61.5v-542q0 -14 -8.5 -22t-21.5 -8h-156q-13 0 -21.5 8t-8.5 22v920q0 14 8.5 22t21.5 8h148q27 0 30 -30l8 -132h22q54 79 142.5 131.5t200.5 52.5z" />
    <glyph glyph-name="Sacute" unicode="&#x15a;" 
d="M817 1820q17 0 24 -9t0 -25l-120 -252q-11 -24 -34 -24h-132q-17 0 -24 9t0 25l120 252q11 24 34 24h132zM606 812q65 -13 115 -25.5t107 -32.5t99 -42.5t83 -56t66.5 -72.5t41 -92t15.5 -116q0 -196 -130 -300.5t-390 -104.5q-477 0 -509 355q-2 15 6.5 25.5t21.5 10.5
h154q24 0 30 -30q15 -75 91 -116.5t206 -41.5q300 0 300 197q0 57 -17.5 96t-59 66t-93 44t-137.5 36q-83 19 -146.5 39.5t-128 54.5t-105.5 77t-67 107t-26 143q0 181 119 284t350 103q220 0 345 -87t143 -263q1 -15 -6.5 -23.5t-21.5 -8.5h-143q-25 0 -30 26
q-12 70 -86.5 113t-198.5 43q-119 0 -186.5 -49t-67.5 -138q0 -88 58 -140t198 -81z" />
    <glyph glyph-name="sacute" unicode="&#x15b;" 
d="M817 1400q17 0 24 -9t0 -25l-120 -252q-11 -24 -34 -24h-132q-17 0 -24 9t0 25l120 252q11 24 34 24h132zM616 570q183 -23 257 -48q168 -54 194 -190q5 -26 5 -56q0 -139 -115 -220.5t-336 -81.5q-81 0 -146.5 10t-122 32.5t-96.5 58t-65 88t-32 121.5q-3 30 29 30h149
q26 0 29 -22q20 -138 252 -138q242 0 242 126q0 27 -12.5 47t-32.5 33t-53.5 23t-65.5 15.5t-80 11.5q-182 24 -258 51q-160 58 -178 201q-2 19 -2 40q0 137 108 218.5t315 81.5q97 0 172.5 -16t136 -51t97 -96t44.5 -146q3 -30 -29 -30h-149q-26 0 -29 22q-19 138 -240 138
q-215 0 -215 -125q0 -60 54.5 -86.5t172.5 -41.5z" />
    <glyph glyph-name="Scedilla" unicode="&#x15e;" 
d="M1133 375q0 -184 -115 -287.5t-345 -115.5l-45 -44q71 -6 121 -48.5t50 -111.5q0 -82 -50.5 -132.5t-123 -64.5t-156.5 0q-18 3 -18 22v77q0 10 6 15.5t16 4.5q80 -12 125.5 7t45.5 60q0 24 -23 41t-60.5 20t-85.5 -16q-11 -4 -17.5 -0.5t-6.5 14.5v77q0 12 10 24l57 57
q-385 32 -414 351q-2 15 6.5 25.5t21.5 10.5h154q24 0 30 -30q15 -75 91 -116.5t206 -41.5q300 0 300 197q0 57 -17.5 96t-59 66t-93 44t-137.5 36q-83 19 -146.5 39.5t-128 54.5t-105.5 77t-67 107t-26 143q0 181 119 284t350 103q220 0 345 -87t143 -263q1 -15 -6.5 -23.5
t-21.5 -8.5h-143q-25 0 -30 26q-12 70 -86.5 113t-198.5 43q-119 0 -186.5 -49t-67.5 -138q0 -88 58 -140t198 -81q65 -13 115 -25.5t107 -32.5t99 -42.5t83 -56t66.5 -72.5t41 -92t15.5 -116z" />
    <glyph glyph-name="scedilla" unicode="&#x15f;" 
d="M1072 276q0 -129 -100.5 -209.5t-293.5 -90.5l-50 -48q71 -6 121 -48.5t50 -111.5q0 -82 -50.5 -132.5t-123 -64.5t-156.5 0q-18 3 -18 22v77q0 10 6 15.5t16 4.5q80 -12 125.5 7t45.5 60q0 24 -23 41t-60.5 20t-85.5 -16q-11 -4 -17.5 -0.5t-6.5 14.5v77q0 12 10 24
l61 61q-163 15 -256 87.5t-107 218.5q-3 30 29 30h149q26 0 29 -22q20 -138 252 -138q242 0 242 126q0 27 -12.5 47t-32.5 33t-53.5 23t-65.5 15.5t-80 11.5q-182 24 -258 51q-160 58 -178 201q-2 19 -2 40q0 137 108 218.5t315 81.5q97 0 172.5 -16t136 -51t97 -96
t44.5 -146q3 -30 -29 -30h-149q-26 0 -29 22q-19 138 -240 138q-215 0 -215 -125q0 -60 54.5 -86.5t172.5 -41.5q183 -23 257 -48q168 -54 194 -190q5 -26 5 -56z" />
    <glyph glyph-name="Scaron" unicode="&#x160;" 
d="M725 1544h-220q-22 0 -36 16l-228 260q-12 14 -7 25t24 11h158q20 0 36 -16l163 -163l163 163q16 16 36 16h158q19 0 24 -11t-7 -25l-228 -260q-14 -16 -36 -16zM606 812q65 -13 115 -25.5t107 -32.5t99 -42.5t83 -56t66.5 -72.5t41 -92t15.5 -116q0 -196 -130 -300.5
t-390 -104.5q-477 0 -509 355q-2 15 6.5 25.5t21.5 10.5h154q24 0 30 -30q15 -75 91 -116.5t206 -41.5q300 0 300 197q0 57 -17.5 96t-59 66t-93 44t-137.5 36q-83 19 -146.5 39.5t-128 54.5t-105.5 77t-67 107t-26 143q0 181 119 284t350 103q220 0 345 -87t143 -263
q1 -15 -6.5 -23.5t-21.5 -8.5h-143q-25 0 -30 26q-12 70 -86.5 113t-198.5 43q-119 0 -186.5 -49t-67.5 -138q0 -88 58 -140t198 -81z" />
    <glyph glyph-name="scaron" unicode="&#x161;" 
d="M725 1124h-220q-22 0 -36 16l-228 260q-12 14 -7 25t24 11h158q20 0 36 -16l163 -163l163 163q16 16 36 16h158q19 0 24 -11t-7 -25l-228 -260q-14 -16 -36 -16zM616 570q183 -23 257 -48q168 -54 194 -190q5 -26 5 -56q0 -139 -115 -220.5t-336 -81.5q-81 0 -146.5 10
t-122 32.5t-96.5 58t-65 88t-32 121.5q-3 30 29 30h149q26 0 29 -22q20 -138 252 -138q242 0 242 126q0 27 -12.5 47t-32.5 33t-53.5 23t-65.5 15.5t-80 11.5q-182 24 -258 51q-160 58 -178 201q-2 19 -2 40q0 137 108 218.5t315 81.5q97 0 172.5 -16t136 -51t97 -96
t44.5 -146q3 -30 -29 -30h-149q-26 0 -29 22q-19 138 -240 138q-215 0 -215 -125q0 -60 54.5 -86.5t172.5 -41.5z" />
    <glyph glyph-name="uni0162" unicode="&#x162;" 
d="M1100 1400q14 0 22 -8t8 -22v-141q0 -13 -8 -21.5t-22 -8.5h-373v-1169q0 -14 -8.5 -22t-21.5 -8h6l-75 -72q71 -6 121 -48.5t50 -111.5q0 -82 -50.5 -132.5t-123 -64.5t-156.5 0q-18 3 -18 22v77q0 10 6 15.5t16 4.5q80 -12 125.5 7t45.5 60q0 24 -23 41t-60.5 20
t-85.5 -16q-11 -4 -17.5 -0.5t-6.5 14.5v77q0 12 10 24l83 83h-11q-13 0 -21.5 8t-8.5 22v1169h-373q-14 0 -22 8.5t-8 21.5v141q0 14 8 22t22 8h970z" />
    <glyph glyph-name="uni0163" unicode="&#x163;" 
d="M1104 165q18 -22 2 -41q-44 -53 -128 -96.5t-203 -43.5q-49 0 -84 5l-63 -61q71 -6 121 -48.5t50 -111.5q0 -82 -50.5 -132.5t-123 -64.5t-156.5 0q-18 3 -18 22v77q0 10 6 15.5t16 4.5q80 -12 125.5 7t45.5 60q0 24 -23 41t-60.5 20t-85.5 -16q-11 -4 -17.5 -0.5
t-6.5 14.5v77q0 12 10 24l83 83h86q-253 64 -253 381v418h-262q-13 0 -21.5 8.5t-8.5 21.5v121q0 14 8.5 22t21.5 8h262v260q0 14 8.5 22t21.5 8h156q13 0 21.5 -8t8.5 -22v-260h396q13 0 21.5 -8t8.5 -22v-121q0 -13 -8.5 -21.5t-21.5 -8.5h-396v-395q0 -67 18 -113.5
t50.5 -70t68.5 -33t82 -9.5q99 0 183 67q22 21 42 -2z" />
    <glyph glyph-name="Tcaron" unicode="&#x164;" 
d="M725 1544h-220q-22 0 -36 16l-228 260q-12 14 -7 25t24 11h158q20 0 36 -16l163 -163l163 163q16 16 36 16h158q19 0 24 -11t-7 -25l-228 -260q-14 -16 -36 -16zM1100 1400q14 0 22 -8t8 -22v-141q0 -13 -8 -21.5t-22 -8.5h-373v-1169q0 -14 -8.5 -22t-21.5 -8h-164
q-13 0 -21.5 8t-8.5 22v1169h-373q-14 0 -22 8.5t-8 21.5v141q0 14 8 22t22 8h970z" />
    <glyph glyph-name="tcaron" unicode="&#x165;" 
d="M1150 1614q17 0 24 -9t0 -25l-120 -252q-11 -24 -34 -24h-132q-17 0 -24 9t0 25l120 252q11 24 34 24h132zM1037 243l67 -78q18 -22 2 -41q-44 -53 -128 -96.5t-203 -43.5q-398 0 -398 397v418h-262q-13 0 -21.5 8.5t-8.5 21.5v121q0 14 8.5 22t21.5 8h262v260
q0 14 8.5 22t21.5 8h156q13 0 21.5 -8t8.5 -22v-260h396q13 0 21.5 -8t8.5 -22v-121q0 -13 -8.5 -21.5t-21.5 -8.5h-396v-395q0 -67 18 -113.5t50.5 -70t68.5 -33t82 -9.5q99 0 183 67q22 21 42 -2z" />
    <glyph glyph-name="Tbar" unicode="&#x166;" 
d="M1100 1400q14 0 22 -8t8 -22v-141q0 -13 -8 -21.5t-22 -8.5h-373v-219h149q14 0 22 -8t8 -22v-111q0 -13 -8 -21.5t-22 -8.5h-149v-779q0 -14 -8.5 -22t-21.5 -8h-164q-13 0 -21.5 8t-8.5 22v779h-149q-14 0 -22 8.5t-8 21.5v111q0 14 8 22t22 8h149v219h-373
q-14 0 -22 8.5t-8 21.5v141q0 14 8 22t22 8h970z" />
    <glyph glyph-name="tbar" unicode="&#x167;" 
d="M1104 165q18 -22 2 -41q-44 -53 -128 -96.5t-203 -43.5q-398 0 -398 397v126h-237q-14 0 -22 8.5t-8 21.5v119q0 14 8 22t22 8h237v113h-262q-13 0 -21.5 8.5t-8.5 21.5v121q0 14 8.5 22t21.5 8h262v260q0 14 8.5 22t21.5 8h156q13 0 21.5 -8t8.5 -22v-260h396
q13 0 21.5 -8t8.5 -22v-121q0 -13 -8.5 -21.5t-21.5 -8.5h-396v-113h396q13 0 21.5 -8t8.5 -22v-119q0 -13 -8.5 -21.5t-21.5 -8.5h-396v-103q0 -67 18 -113.5t50.5 -70t68.5 -33t82 -9.5q99 0 183 67q22 21 42 -2z" />
    <glyph glyph-name="Umacron" unicode="&#x16a;" 
d="M876 1816q14 0 22 -8t8 -22v-111q0 -13 -8 -21.5t-22 -8.5h-522q-14 0 -22 8.5t-8 21.5v111q0 14 8 22t22 8h522zM1066 1400q14 0 22 -8t8 -22v-857q0 -284 -119.5 -413.5t-361.5 -129.5q-241 0 -361 129.5t-120 413.5v857q0 14 8 22t22 8h164q14 0 22 -8t8 -22v-853
q0 -174 62 -254t195 -80t195 80t62 254v853q0 14 8 22t22 8h164z" />
    <glyph glyph-name="umacron" unicode="&#x16b;" 
d="M354 1225q-14 0 -22 8.5t-8 21.5v111q0 14 8 22t22 8h522q14 0 22 -8t8 -22v-111q0 -13 -8 -21.5t-22 -8.5h-522zM1046 980q14 0 22 -8t8 -22v-920q0 -14 -8 -22t-22 -8h-148q-28 0 -30 30l-8 133h-21q-50 -81 -133 -133t-197 -52q-161 0 -258 106t-97 298v568q0 14 8 22
t22 8h156q14 0 22 -8t8 -22v-536q0 -121 57.5 -179t160.5 -58q66 0 121.5 26t86.5 62t47.5 68.5t16.5 51.5v565q0 14 8 22t22 8h156z" />
    <glyph glyph-name="Ubreve" unicode="&#x16c;" 
d="M777 1803q6 29 32 29h86q33 0 30 -31q-13 -118 -94.5 -194.5t-215.5 -76.5t-215.5 76.5t-93.5 194.5q-3 31 29 31h86q26 0 32 -29q11 -53 53.5 -89.5t108.5 -36.5t109 36.5t53 89.5zM1066 1400q14 0 22 -8t8 -22v-857q0 -284 -119.5 -413.5t-361.5 -129.5
q-241 0 -361 129.5t-120 413.5v857q0 14 8 22t22 8h164q14 0 22 -8t8 -22v-853q0 -174 62 -254t195 -80t195 80t62 254v853q0 14 8 22t22 8h164z" />
    <glyph glyph-name="ubreve" unicode="&#x16d;" 
d="M615 1110q-134 0 -215.5 76.5t-93.5 194.5q-3 31 29 31h86q26 0 32 -29q11 -53 53.5 -89.5t108.5 -36.5t109 36.5t53 89.5q6 29 32 29h86q33 0 30 -31q-13 -118 -94.5 -194.5t-215.5 -76.5zM1046 980q14 0 22 -8t8 -22v-920q0 -14 -8 -22t-22 -8h-148q-28 0 -30 30
l-8 133h-21q-50 -81 -133 -133t-197 -52q-161 0 -258 106t-97 298v568q0 14 8 22t22 8h156q14 0 22 -8t8 -22v-536q0 -121 57.5 -179t160.5 -58q66 0 121.5 26t86.5 62t47.5 68.5t16.5 51.5v565q0 14 8 22t22 8h156z" />
    <glyph glyph-name="Uring" unicode="&#x16e;" 
d="M615 1888q80 0 135 -55.5t55 -133.5q0 -77 -55 -132.5t-135 -55.5q-81 0 -136 55.5t-55 132.5q0 78 55 133.5t136 55.5zM615 1634q29 0 48 18.5t20 47.5q-1 29 -20 47.5t-48 18.5t-48.5 -18.5t-19.5 -47.5t19.5 -47.5t48.5 -18.5zM1066 1400q14 0 22 -8t8 -22v-857
q0 -284 -119.5 -413.5t-361.5 -129.5q-241 0 -361 129.5t-120 413.5v857q0 14 8 22t22 8h164q14 0 22 -8t8 -22v-853q0 -174 62 -254t195 -80t195 80t62 254v853q0 14 8 22t22 8h164z" />
    <glyph glyph-name="uring" unicode="&#x16f;" 
d="M615 1091q-81 0 -136 55.5t-55 132.5q0 78 55 133.5t136 55.5q80 0 135 -55.5t55 -133.5q0 -77 -55 -132.5t-135 -55.5zM615 1346q-29 0 -48.5 -18.5t-19.5 -47.5t19.5 -47.5t48.5 -18.5t48 18.5t20 47.5q-1 29 -20 47.5t-48 18.5zM1046 980q14 0 22 -8t8 -22v-920
q0 -14 -8 -22t-22 -8h-148q-28 0 -30 30l-8 133h-21q-50 -81 -133 -133t-197 -52q-161 0 -258 106t-97 298v568q0 14 8 22t22 8h156q14 0 22 -8t8 -22v-536q0 -121 57.5 -179t160.5 -58q66 0 121.5 26t86.5 62t47.5 68.5t16.5 51.5v565q0 14 8 22t22 8h156z" />
    <glyph glyph-name="Uhungarumlaut" unicode="&#x170;" 
d="M635 1820q17 0 24 -9t0 -25l-120 -252q-11 -24 -34 -24h-132q-17 0 -24 9t0 25l120 252q11 24 34 24h132zM969 1820q17 0 24 -9t0 -25l-120 -252q-11 -24 -34 -24h-132q-17 0 -24 9t0 25l120 252q11 24 34 24h132zM1066 1400q14 0 22 -8t8 -22v-857q0 -284 -119.5 -413.5
t-361.5 -129.5q-241 0 -361 129.5t-120 413.5v857q0 14 8 22t22 8h164q14 0 22 -8t8 -22v-853q0 -174 62 -254t195 -80t195 80t62 254v853q0 14 8 22t22 8h164z" />
    <glyph glyph-name="uhungarumlaut" unicode="&#x171;" 
d="M373 1090q-17 0 -24 9t0 25l120 252q11 24 34 24h132q17 0 24 -9t0 -25l-120 -252q-11 -24 -34 -24h-132zM707 1090q-17 0 -24 9t0 25l120 252q11 24 34 24h132q17 0 24 -9t0 -25l-120 -252q-11 -24 -34 -24h-132zM1046 980q14 0 22 -8t8 -22v-920q0 -14 -8 -22t-22 -8
h-148q-28 0 -30 30l-8 133h-21q-50 -81 -133 -133t-197 -52q-161 0 -258 106t-97 298v568q0 14 8 22t22 8h156q14 0 22 -8t8 -22v-536q0 -121 57.5 -179t160.5 -58q66 0 121.5 26t86.5 62t47.5 68.5t16.5 51.5v565q0 14 8 22t22 8h156z" />
    <glyph glyph-name="Uogonek" unicode="&#x172;" 
d="M1066 1400q14 0 22 -8t8 -22v-857q0 -222 -72.5 -348.5t-219.5 -170.5q-152 -65 -152 -162q0 -52 38.5 -77.5t111.5 -9.5v-141q-41 -18 -96 -18.5t-108 16.5t-90 66t-37 122q0 104 86 182q-212 15 -317.5 144.5t-105.5 396.5v857q0 14 8 22t22 8h164q14 0 22 -8t8 -22
v-853q0 -174 62 -254t195 -80t195 80t62 254v853q0 14 8 22t22 8h164z" />
    <glyph glyph-name="uogonek" unicode="&#x173;" 
d="M1046 980q14 0 22 -8t8 -22v-920q0 -14 -8 -22t-22 -8h-1q-94 0 -148.5 -51.5t-54.5 -114.5q0 -54 38.5 -79.5t111.5 -9.5v-141q-41 -18 -96 -18.5t-108 16.5t-90 66t-37 122q0 89 58 156.5t148 107.5l-7 109h-21q-50 -81 -133 -133t-197 -52q-161 0 -258 106t-97 298
v568q0 14 8 22t22 8h156q14 0 22 -8t8 -22v-536q0 -121 57.5 -179t160.5 -58q66 0 121.5 26t86.5 62t47.5 68.5t16.5 51.5v565q0 14 8 22t22 8h156z" />
    <glyph glyph-name="Wcircumflex" unicode="&#x174;" 
d="M258 1544q-19 0 -24 11t7 25l228 260q14 16 36 16h220q22 0 36 -16l228 -260q12 -14 7 -25t-24 -11h-158q-20 0 -36 16l-163 164l-163 -164q-16 -16 -36 -16h-158zM1135 1400q27 0 24 -34l-162 -1342q-1 -11 -13 -17.5t-25 -6.5h-191q-32 0 -35 24l-118 861l-118 -861
q-3 -24 -35 -24h-191q-13 0 -24.5 6.5t-12.5 17.5l-162 1342q-3 34 24 34h149q31 0 34 -24l108 -1088l152 1088q3 24 34 24h84q31 0 34 -24l152 -1088l108 1088q3 24 34 24h150z" />
    <glyph glyph-name="wcircumflex" unicode="&#x175;" 
d="M257 1124q-19 0 -24 11t7 25l228 260q14 16 36 16h220q22 0 36 -16l228 -260q12 -14 7 -25t-24 -11h-158q-20 0 -36 16l-163 164l-163 -164q-16 -16 -36 -16h-158zM1135 980q30 0 24 -34l-182 -922q-5 -24 -36 -24h-159q-32 0 -36 24l-132 647l-132 -647q-4 -24 -36 -24
h-159q-32 0 -36 24l-182 922q-6 34 24 34h133q32 0 36 -24l116 -709l149 709q6 24 36 24h102q30 0 36 -24l149 -709l116 709q4 24 36 24h133z" />
    <glyph glyph-name="Ycircumflex" unicode="&#x176;" 
d="M258 1544q-19 0 -24 11t7 25l228 260q14 16 36 16h220q22 0 36 -16l228 -260q12 -14 7 -25t-24 -11h-158q-20 0 -36 16l-163 164l-163 -164q-16 -16 -36 -16h-158zM1140 1400q18 0 23.5 -10t-3.5 -26l-433 -810v-524q0 -14 -8.5 -22t-21.5 -8h-164q-13 0 -21.5 8t-8.5 22
v528l-433 806q-9 16 -3.5 26t23.5 10h173q26 0 36 -20l316 -612l316 612q10 20 36 20h173z" />
    <glyph glyph-name="ycircumflex" unicode="&#x177;" 
d="M725 1436q22 0 36 -16l228 -260q12 -14 7 -25t-24 -11h-158q-20 0 -36 16l-163 164l-163 -164q-16 -16 -36 -16h-158q-19 0 -24 11t7 25l228 260q14 16 36 16h220zM1096 980q17 0 24 -9t0 -25l-539 -1302q-11 -24 -36 -24h-157q-17 0 -24 9t0 25l143 344l-397 948
q-7 16 0 25t24 9h157q25 0 36 -24l288 -713l288 713q11 24 36 24h157z" />
    <glyph glyph-name="Ydieresis" unicode="&#x178;" 
d="M413 1611q-47 0 -80.5 34t-33.5 82q0 46 33.5 79.5t80.5 33.5t81 -33.5t34 -79.5q0 -49 -34 -82.5t-81 -33.5zM818 1611q-48 0 -81.5 33.5t-33.5 82.5q0 46 34 79.5t81 33.5t80.5 -33.5t33.5 -79.5q0 -48 -33.5 -82t-80.5 -34zM1140 1400q18 0 23.5 -10t-3.5 -26
l-433 -810v-524q0 -14 -8.5 -22t-21.5 -8h-164q-13 0 -21.5 8t-8.5 22v528l-433 806q-9 16 -3.5 26t23.5 10h173q26 0 36 -20l316 -612l316 612q10 20 36 20h173z" />
    <glyph glyph-name="Zacute" unicode="&#x179;" 
d="M817 1820q17 0 24 -9t0 -25l-120 -252q-11 -24 -34 -24h-132q-17 0 -24 9t0 25l120 252q11 24 34 24h132zM1071 201q13 0 21.5 -8.5t8.5 -21.5v-141q0 -14 -8.5 -22t-21.5 -8h-911q-14 0 -22 8t-8 22v151q0 18 12 36l692 982h-654q-14 0 -22 8.5t-8 21.5v141q0 14 8 22
t22 8h871q13 0 21.5 -8t8.5 -22v-151q0 -18 -12 -36l-693 -982h695z" />
    <glyph glyph-name="zacute" unicode="&#x17a;" 
d="M817 1400q17 0 24 -9t0 -25l-120 -252q-11 -24 -34 -24h-132q-17 0 -24 9t0 25l120 252q11 24 34 24h132zM1046 950v-127q0 -24 -14 -38l-591 -606h575q14 0 22 -8.5t8 -21.5v-119q0 -14 -8 -22t-22 -8h-802q-14 0 -22 8t-8 22v127q0 24 14 38l591 606h-575
q-14 0 -22 8.5t-8 21.5v119q0 14 8 22t22 8h802q14 0 22 -8t8 -22z" />
    <glyph glyph-name="Zdotaccent" unicode="&#x17b;" 
d="M615 1601q-47 0 -80.5 34t-33.5 82q0 46 33.5 79.5t80.5 33.5t80.5 -33.5t33.5 -79.5q0 -48 -33.5 -82t-80.5 -34zM1071 201q13 0 21.5 -8.5t8.5 -21.5v-141q0 -14 -8.5 -22t-21.5 -8h-911q-14 0 -22 8t-8 22v151q0 18 12 36l692 982h-654q-14 0 -22 8.5t-8 21.5v141
q0 14 8 22t22 8h871q13 0 21.5 -8t8.5 -22v-151q0 -18 -12 -36l-693 -982h695z" />
    <glyph glyph-name="zdotaccent" unicode="&#x17c;" 
d="M615 1181q-47 0 -80.5 34t-33.5 82q0 46 33.5 79.5t80.5 33.5t80.5 -33.5t33.5 -79.5q0 -48 -33.5 -82t-80.5 -34zM1046 950v-127q0 -24 -14 -38l-591 -606h575q14 0 22 -8.5t8 -21.5v-119q0 -14 -8 -22t-22 -8h-802q-14 0 -22 8t-8 22v127q0 24 14 38l591 606h-575
q-14 0 -22 8.5t-8 21.5v119q0 14 8 22t22 8h802q14 0 22 -8t8 -22z" />
    <glyph glyph-name="Zcaron" unicode="&#x17d;" 
d="M725 1544h-220q-22 0 -36 16l-228 260q-12 14 -7 25t24 11h158q20 0 36 -16l163 -163l163 163q16 16 36 16h158q19 0 24 -11t-7 -25l-228 -260q-14 -16 -36 -16zM1071 201q13 0 21.5 -8.5t8.5 -21.5v-141q0 -14 -8.5 -22t-21.5 -8h-911q-14 0 -22 8t-8 22v151q0 18 12 36
l692 982h-654q-14 0 -22 8.5t-8 21.5v141q0 14 8 22t22 8h871q13 0 21.5 -8t8.5 -22v-151q0 -18 -12 -36l-693 -982h695z" />
    <glyph glyph-name="zcaron" unicode="&#x17e;" 
d="M725 1124h-220q-22 0 -36 16l-228 260q-12 14 -7 25t24 11h158q20 0 36 -16l163 -163l163 163q16 16 36 16h158q19 0 24 -11t-7 -25l-228 -260q-14 -16 -36 -16zM1046 950v-127q0 -24 -14 -38l-591 -606h575q14 0 22 -8.5t8 -21.5v-119q0 -14 -8 -22t-22 -8h-802
q-14 0 -22 8t-8 22v127q0 24 14 38l591 606h-575q-14 0 -22 8.5t-8 21.5v119q0 14 8 22t22 8h802q14 0 22 -8t8 -22z" />
    <glyph glyph-name="florin" unicode="&#x192;" 
d="M889 1472q94 0 180.5 -17.5t86.5 -47.5v-113q0 -15 -10 -23t-26 -5q-4 1 -23.5 5.5t-38 8t-51.5 6.5t-69 3q-105 0 -159.5 -49.5t-54.5 -181.5v-78h366q14 0 22 -8t8 -22v-119q0 -13 -8 -21.5t-22 -8.5h-366v-417q0 -91 -19.5 -160.5t-53.5 -113t-83.5 -71t-104 -38.5
t-121.5 -11q-94 0 -180.5 17.5t-86.5 47.5v113q0 15 10 23t26 5q4 -1 23.5 -5.5t38 -8t51.5 -6.5t69 -3q105 0 160 49.5t55 181.5v397h-384q-14 0 -22 8.5t-8 21.5v119q0 14 8 22t22 8h384v98q0 91 19.5 160.5t53.5 113t83.5 71t103.5 38.5t121 11z" />
    <glyph glyph-name="uni01CD" unicode="&#x1cd;" 
d="M469 1560l-228 260q-12 14 -7 25t24 11h158q20 0 36 -16l163 -163l163 163q16 16 36 16h158q19 0 24 -11t-7 -25l-228 -260q-14 -16 -36 -16h-220q-22 0 -36 16zM1164 34q8 -34 -24 -34h-165q-29 0 -34 24l-67 249h-518l-67 -249q-5 -24 -34 -24h-164q-34 0 -24 34
l374 1342q7 24 35 24h278q28 0 35 -24zM407 467h416l-188 702h-40z" />
    <glyph glyph-name="uni01CE" unicode="&#x1ce;" 
d="M469 1140l-228 260q-12 14 -7 25t24 11h158q20 0 36 -16l163 -163l163 163q16 16 36 16h158q19 0 24 -11t-7 -25l-228 -260q-14 -16 -36 -16h-220q-22 0 -36 16zM1099 179q20 -5 28 -12.5t8 -22.5v-119q0 -31 -57 -33q-109 -2 -161.5 38t-52.5 126h-9q-74 -84 -189 -132
t-225 -48q-161 0 -247 74.5t-86 204.5q0 131 83 203t253 97l232 36q67 10 98.5 20.5t40.5 26.5q-4 98 -56.5 139t-154.5 41q-214 0 -234 -135q-3 -22 -29 -22h-149q-32 0 -29 30q17 166 132 238.5t311 72.5q210 0 315 -95.5t105 -278.5v-367q0 -67 73 -82zM482 161
q203 0 333 131v201q-13 -28 -125 -46l-209 -33q-85 -14 -121 -47t-36 -85q0 -57 39 -89t119 -32z" />
    <glyph glyph-name="uni01CF" unicode="&#x1cf;" 
d="M725 1544h-220q-22 0 -36 16l-228 260q-12 14 -7 25t24 11h158q20 0 36 -16l163 -163l163 163q16 16 36 16h158q19 0 24 -11t-7 -25l-228 -260q-14 -16 -36 -16zM1065 1199h-338v-998h338q13 0 21.5 -8.5t8.5 -21.5v-141q0 -14 -8.5 -22t-21.5 -8h-900q-13 0 -21.5 8
t-8.5 22v141q0 13 8.5 21.5t21.5 8.5h338v998h-338q-13 0 -21.5 8.5t-8.5 21.5v141q0 14 8.5 22t21.5 8h900q13 0 21.5 -8t8.5 -22v-141q0 -13 -8.5 -21.5t-21.5 -8.5z" />
    <glyph glyph-name="uni01D0" unicode="&#x1d0;" 
d="M469 1140l-228 260q-12 14 -7 25t24 11h158q20 0 36 -16l163 -163l163 163q16 16 36 16h158q19 0 24 -11t-7 -25l-228 -260q-14 -16 -36 -16h-220q-22 0 -36 16zM1051 181q13 0 21.5 -8.5t8.5 -21.5v-121q0 -14 -8.5 -22t-21.5 -8h-861q-14 0 -22 8t-8 22v121
q0 13 8 21.5t22 8.5h348v618h-298q-14 0 -22 8.5t-8 21.5v121q0 14 8 22t22 8h484q14 0 22 -8t8 -22v-769h297z" />
    <glyph glyph-name="uni01D1" unicode="&#x1d1;" 
d="M725 1544h-220q-22 0 -36 16l-228 260q-12 14 -7 25t24 11h158q20 0 36 -16l163 -163l163 163q16 16 36 16h158q19 0 24 -11t-7 -25l-228 -260q-14 -16 -36 -16zM615 1420q138 0 229 -31t154 -107.5t90.5 -204.5t27.5 -322v-119q0 -195 -27.5 -323t-90.5 -204.5
t-154 -107.5t-229 -31t-229 31t-154 107.5t-90.5 204.5t-27.5 323v119q0 194 27.5 322t90.5 204.5t154 107.5t229 31zM615 1205q-65 0 -106 -8.5t-78 -35t-57 -76.5t-31 -131t-11 -200v-118q0 -119 11 -200t31 -131t57 -76.5t78 -35t106 -8.5t106 8.5t78 35t57 76.5t31 131
t11 200v118q0 119 -11 200t-31 131t-57 76.5t-78 35t-106 8.5z" />
    <glyph glyph-name="uni01D2" unicode="&#x1d2;" 
d="M725 1124h-220q-22 0 -36 16l-228 260q-12 14 -7 25t24 11h158q20 0 36 -16l163 -163l163 163q16 16 36 16h158q19 0 24 -11t-7 -25l-228 -260q-14 -16 -36 -16zM615 -26q-213 0 -356.5 147.5t-143.5 366.5t143.5 366.5t356.5 147.5q140 0 255 -67.5t180.5 -185.5
t65.5 -261t-65.5 -261t-180.5 -185.5t-255 -67.5zM615 173q127 0 210 88t83 227t-83 227t-210 88t-210 -88t-83 -227t83 -227t210 -88z" />
    <glyph glyph-name="uni01D3" unicode="&#x1d3;" 
d="M725 1544h-220q-22 0 -36 16l-228 260q-12 14 -7 25t24 11h158q20 0 36 -16l163 -163l163 163q16 16 36 16h158q19 0 24 -11t-7 -25l-228 -260q-14 -16 -36 -16zM1066 1400q14 0 22 -8t8 -22v-857q0 -284 -119.5 -413.5t-361.5 -129.5q-241 0 -361 129.5t-120 413.5v857
q0 14 8 22t22 8h164q14 0 22 -8t8 -22v-853q0 -174 62 -254t195 -80t195 80t62 254v853q0 14 8 22t22 8h164z" />
    <glyph glyph-name="uni01D4" unicode="&#x1d4;" 
d="M469 1140l-228 260q-12 14 -7 25t24 11h158q20 0 36 -16l163 -163l163 163q16 16 36 16h158q19 0 24 -11t-7 -25l-228 -260q-14 -16 -36 -16h-220q-22 0 -36 16zM1046 980q14 0 22 -8t8 -22v-920q0 -14 -8 -22t-22 -8h-148q-28 0 -30 30l-8 133h-21q-50 -81 -133 -133
t-197 -52q-161 0 -258 106t-97 298v568q0 14 8 22t22 8h156q14 0 22 -8t8 -22v-536q0 -121 57.5 -179t160.5 -58q66 0 121.5 26t86.5 62t47.5 68.5t16.5 51.5v565q0 14 8 22t22 8h156z" />
    <glyph glyph-name="uni01EA" unicode="&#x1ea;" 
d="M615 1420q138 0 229 -31t154 -107.5t90.5 -204.5t27.5 -322v-119q0 -334 -86.5 -482.5t-286.5 -175.5q-57 -22 -89 -63t-32 -85q0 -54 38.5 -79.5t111.5 -9.5v-141q-41 -18 -96 -18.5t-108 16.5t-90 66t-37 122q0 108 89 187q-151 13 -240 78.5t-132.5 206.5t-43.5 378
v119q0 194 27.5 322t90.5 204.5t154 107.5t229 31zM898 636v118q0 119 -11 200t-31 131t-57 76.5t-78 35t-106 8.5t-106 -8.5t-78 -35t-57 -76.5t-31 -131t-11 -200v-118q0 -119 11 -200t31 -131t57 -76.5t78 -35t106 -8.5t106 8.5t78 35t57 76.5t31 131t11 200z" />
    <glyph glyph-name="uni01EB" unicode="&#x1eb;" 
d="M778 0q-85 -36 -127.5 -76.5t-42.5 -91.5q0 -52 38.5 -77.5t111.5 -9.5v-141q-41 -18 -96 -18.5t-108.5 16.5t-90.5 66t-37 122q0 111 98 192q-180 32 -294.5 172.5t-114.5 333.5q0 219 143.5 366.5t356.5 147.5q140 0 255 -67.5t180.5 -185.5t65.5 -261
q0 -172 -93 -304.5t-245 -183.5zM322 488q0 -139 83 -227t210 -88t210 88t83 227t-83 227t-210 88t-210 -88t-83 -227z" />
    <glyph glyph-name="Scommaaccent" unicode="&#x218;" 
d="M606 812q65 -13 115 -25.5t107 -32.5t99 -42.5t83 -56t66.5 -72.5t41 -92t15.5 -116q0 -196 -130 -300.5t-390 -104.5q-477 0 -509 355q-2 15 6.5 25.5t21.5 10.5h154q24 0 30 -30q15 -75 91 -116.5t206 -41.5q300 0 300 197q0 57 -17.5 96t-59 66t-93 44t-137.5 36
q-83 19 -146.5 39.5t-128 54.5t-105.5 77t-67 107t-26 143q0 181 119 284t350 103q220 0 345 -87t143 -263q1 -15 -6.5 -23.5t-21.5 -8.5h-143q-25 0 -30 26q-12 70 -86.5 113t-198.5 43q-119 0 -186.5 -49t-67.5 -138q0 -88 58 -140t198 -81zM806 -172q28 0 28 -28v-61
q0 -118 -20 -236.5t-49 -196.5q-9 -22 -33 -22h-83q-30 0 -24 31q13 68 20 170t5 174h-242q-28 0 -28 28v113q0 28 28 28h398z" />
    <glyph glyph-name="scommaaccent" unicode="&#x219;" 
d="M616 570q183 -23 257 -48q168 -54 194 -190q5 -26 5 -56q0 -139 -115 -220.5t-336 -81.5q-81 0 -146.5 10t-122 32.5t-96.5 58t-65 88t-32 121.5q-3 30 29 30h149q26 0 29 -22q20 -138 252 -138q242 0 242 126q0 27 -12.5 47t-32.5 33t-53.5 23t-65.5 15.5t-80 11.5
q-182 24 -258 51q-160 58 -178 201q-2 19 -2 40q0 137 108 218.5t315 81.5q97 0 172.5 -16t136 -51t97 -96t44.5 -146q3 -30 -29 -30h-149q-26 0 -29 22q-19 138 -240 138q-215 0 -215 -125q0 -60 54.5 -86.5t172.5 -41.5zM806 -172q28 0 28 -28v-61q0 -118 -20 -236.5
t-49 -196.5q-9 -22 -33 -22h-83q-30 0 -24 31q13 68 20 170t5 174h-242q-28 0 -28 28v113q0 28 28 28h398z" />
    <glyph glyph-name="uni021A" unicode="&#x21a;" 
d="M1100 1400q14 0 22 -8t8 -22v-141q0 -13 -8 -21.5t-22 -8.5h-373v-1169q0 -14 -8.5 -22t-21.5 -8h-164q-13 0 -21.5 8t-8.5 22v1169h-373q-14 0 -22 8.5t-8 21.5v141q0 14 8 22t22 8h970zM806 -172q28 0 28 -28v-61q0 -118 -20 -236.5t-49 -196.5q-9 -22 -33 -22h-83
q-30 0 -24 31q13 68 20 170t5 174h-242q-28 0 -28 28v113q0 28 28 28h398z" />
    <glyph glyph-name="uni021B" unicode="&#x21b;" 
d="M1104 165q18 -22 2 -41q-44 -53 -128 -96.5t-203 -43.5q-398 0 -398 397v418h-262q-13 0 -21.5 8.5t-8.5 21.5v121q0 14 8.5 22t21.5 8h262v260q0 14 8.5 22t21.5 8h156q13 0 21.5 -8t8.5 -22v-260h396q13 0 21.5 -8t8.5 -22v-121q0 -13 -8.5 -21.5t-21.5 -8.5h-396v-395
q0 -67 18 -113.5t50.5 -70t68.5 -33t82 -9.5q99 0 183 67q22 21 42 -2zM806 -172q28 0 28 -28v-61q0 -118 -20 -236.5t-49 -196.5q-9 -22 -33 -22h-83q-30 0 -24 31q13 68 20 170t5 174h-242q-28 0 -28 28v113q0 28 28 28h398z" />
    <glyph glyph-name="uni0237" unicode="&#x237;" 
d="M899 980q13 0 21.5 -8t8.5 -22v-916q0 -96 -25.5 -170.5t-67 -120t-100 -75t-118 -40.5t-127.5 -11q-61 0 -119.5 13.5t-101 33.5t-73.5 42.5t-44 43t-5 31.5l63 97q8 12 23 12.5t29 -10.5q97 -77 214 -77q50 0 88.5 10.5t74 36.5t54.5 77.5t19 126.5v745h-452
q-13 0 -21.5 8.5t-8.5 21.5v121q0 14 8.5 22t21.5 8h638z" />
    <glyph glyph-name="circumflex" unicode="&#x2c6;" 
d="M725 1440q22 0 36 -16l228 -260q12 -14 7 -25t-24 -11h-158q-20 0 -36 16l-163 164l-163 -164q-16 -16 -36 -16h-158q-19 0 -24 11t7 25l228 260q14 16 36 16h220z" />
    <glyph glyph-name="caron" unicode="&#x2c7;" 
d="M725 1128h-220q-22 0 -36 16l-228 260q-12 14 -7 25t24 11h158q20 0 36 -16l163 -163l163 163q16 16 36 16h158q19 0 24 -11t-7 -25l-228 -260q-14 -16 -36 -16z" />
    <glyph glyph-name="breve" unicode="&#x2d8;" 
d="M777 1385q6 29 32 29h86q33 0 30 -31q-13 -118 -94.5 -194.5t-215.5 -76.5t-215.5 76.5t-93.5 194.5q-3 31 29 31h86q26 0 32 -29q11 -53 53.5 -89.5t108.5 -36.5t109 36.5t53 89.5z" />
    <glyph glyph-name="dotaccent" unicode="&#x2d9;" 
d="M615 1181q-47 0 -80.5 34t-33.5 82q0 46 33.5 79.5t80.5 33.5t80.5 -33.5t33.5 -79.5q0 -48 -33.5 -82t-80.5 -34z" />
    <glyph glyph-name="ring" unicode="&#x2da;" 
d="M616 1468q80 0 135 -55.5t55 -133.5q0 -77 -55 -132.5t-135 -55.5q-81 0 -136 55.5t-55 132.5q0 78 55 133.5t136 55.5zM616 1214q29 0 48 18.5t20 47.5q-1 29 -20 47.5t-48 18.5t-48.5 -18.5t-19.5 -47.5t19.5 -47.5t48.5 -18.5z" />
    <glyph glyph-name="ogonek" unicode="&#x2db;" 
d="M808 0q-92 -7 -147.5 -56.5t-55.5 -109.5q0 -54 38.5 -79.5t111.5 -9.5v-141q-41 -18 -96 -18.5t-108 16.5t-90 66t-37 122q0 50 19.5 94t52 76t72 58t83.5 42.5t83.5 25.5t73.5 12v-98z" />
    <glyph glyph-name="tilde" unicode="&#x2dc;" 
d="M466 1443q42 0 79.5 -14.5t64.5 -35t52.5 -40.5t54 -34.5t57.5 -14.5q67 0 90 59q6 17 22 17h57q20 0 20 -20q-6 -89 -61 -137t-137 -48q-42 0 -79.5 14.5t-65 35t-53 40.5t-53.5 34.5t-57 14.5q-67 0 -92 -58q-6 -17 -22 -17h-56q-22 0 -19 25q10 87 62.5 133t135.5 46z
" />
    <glyph glyph-name="hungarumlaut" unicode="&#x2dd;" 
d="M578 1460q17 0 24 -9t0 -25l-120 -252q-11 -24 -34 -24h-132q-17 0 -24 9t0 25l120 252q11 24 34 24h132zM912 1460q17 0 24 -9t0 -25l-120 -252q-11 -24 -34 -24h-132q-17 0 -24 9t0 25l120 252q11 24 34 24h132z" />
    <glyph glyph-name="uni0326" unicode="&#x326;" horiz-adv-x="0" 
d="M-424 -172q28 0 28 -28v-61q0 -118 -20 -236.5t-49 -196.5q-9 -22 -33 -22h-83q-30 0 -24 31q13 68 20 170t5 174h-242q-28 0 -28 28v113q0 28 28 28h398z" />
    <glyph glyph-name="uni0394" unicode="&#x394;" 
d="M1164 34q8 -34 -24 -34h-1049q-34 0 -24 34l374 1342q7 24 35 24h278q28 0 35 -24zM595 1168l-265 -989h570l-265 989h-40z" />
    <glyph glyph-name="uni03A9" unicode="&#x3a9;" 
d="M946 206v-27h219v-179h-444v284q228 71 228 465q0 230 -77 341.5t-257 111.5t-257 -111.5t-77 -341.5q0 -394 228 -465v-284h-444v179h219v27q-112 64 -168 205t-56 338q0 322 140.5 494.5t414.5 172.5q275 0 415.5 -172.5t140.5 -494.5q0 -198 -56.5 -338.5
t-168.5 -204.5z" />
    <glyph glyph-name="uni03BC" unicode="&#x3bc;" 
d="M1046 980q14 0 22 -8t8 -22v-920q0 -14 -8 -22t-22 -8h-148q-28 0 -30 30l-8 133h-21q-50 -81 -133 -133t-197 -52q-76 0 -139 24v-352q0 -14 -8 -22t-22 -8h-156q-14 0 -22 8t-8 22v1300q0 14 8 22t22 8h156q14 0 22 -8t8 -22v-536q0 -121 57.5 -179t160.5 -58
q66 0 121.5 26t86.5 62t47.5 68.5t16.5 51.5v565q0 14 8 22t22 8h156z" />
    <glyph glyph-name="pi" unicode="&#x3c0;" 
d="M1131 185q16 3 26 -5t10 -23v-116q0 -29 -49 -42t-112 -13q-109 0 -175.5 60.5t-66.5 190.5v564h-318v-771q0 -14 -8 -22t-22 -8h-156q-14 0 -22 8t-8 22v771h-140q-14 0 -22 8.5t-8 21.5v119q0 14 8 22t22 8h1031q13 0 21.5 -8t8.5 -22v-119q0 -13 -8.5 -21.5
t-21.5 -8.5h-141v-534q0 -43 20.5 -64.5t57.5 -21.5q49 0 73 4z" />
    <glyph glyph-name="uni0401" unicode="&#x401;" 
d="M413 1611q-47 0 -80.5 34t-33.5 82q0 46 33.5 79.5t80.5 33.5t81 -33.5t34 -79.5q0 -49 -34 -82.5t-81 -33.5zM818 1611q-48 0 -81.5 33.5t-33.5 82.5q0 46 34 79.5t81 33.5t80.5 -33.5t33.5 -79.5q0 -48 -33.5 -82t-80.5 -34zM1051 201q13 0 21.5 -8.5t8.5 -21.5v-141
q0 -14 -8.5 -22t-21.5 -8h-861q-14 0 -22 8t-8 22v1340q0 14 8 22t22 8h859q13 0 21.5 -8t8.5 -22v-141q0 -13 -8.5 -21.5t-21.5 -8.5h-665v-375h613q13 0 21.5 -8t8.5 -22v-141q0 -13 -8.5 -21.5t-21.5 -8.5h-613v-422h667z" />
    <glyph glyph-name="uni0403" unicode="&#x403;" 
d="M555 1510q-17 0 -24 9t0 25l120 252q11 24 34 24h132q17 0 24 -9t0 -25l-120 -252q-11 -24 -34 -24h-132zM1051 1400q13 0 21.5 -8t8.5 -22v-141q0 -13 -8.5 -21.5t-21.5 -8.5h-657v-1169q0 -14 -8 -22t-22 -8h-164q-14 0 -22 8t-8 22v1340q0 14 8 22t22 8h851z" />
    <glyph glyph-name="uni0404" unicode="&#x404;" 
d="M1090 400q30 0 27 -33q-22 -216 -138 -306.5t-351 -90.5q-109 0 -188.5 20t-141.5 65.5t-99 123t-56 189.5t-19 267v120q0 155 19 267.5t56 189.5t99 122.5t141.5 65.5t188.5 20q235 0 351 -90.5t138 -306.5q3 -33 -27 -33h-151q-30 0 -34 26q-17 112 -78.5 150
t-192.5 38q-59 0 -100 -8.5t-78.5 -33t-60 -69t-36.5 -117t-16 -175.5h480q13 0 21.5 -8.5t8.5 -21.5v-142q0 -13 -8.5 -21.5t-21.5 -8.5h-481q2 -106 16 -180t36 -120t59.5 -71.5t79 -34t101.5 -8.5q134 0 194 38t77 151q4 26 34 26h151z" />
    <glyph glyph-name="uni0406" unicode="&#x406;" 
d="M1065 1199h-338v-998h338q13 0 21.5 -8.5t8.5 -21.5v-141q0 -14 -8.5 -22t-21.5 -8h-900q-13 0 -21.5 8t-8.5 22v141q0 13 8.5 21.5t21.5 8.5h338v998h-338q-13 0 -21.5 8.5t-8.5 21.5v141q0 14 8.5 22t21.5 8h900q13 0 21.5 -8t8.5 -22v-141q0 -13 -8.5 -21.5
t-21.5 -8.5z" />
    <glyph glyph-name="uni0407" unicode="&#x407;" 
d="M413 1611q-47 0 -80.5 34t-33.5 82q0 46 33.5 79.5t80.5 33.5t81 -33.5t34 -79.5q0 -49 -34 -82.5t-81 -33.5zM818 1611q-48 0 -81.5 33.5t-33.5 82.5q0 46 34 79.5t81 33.5t80.5 -33.5t33.5 -79.5q0 -48 -33.5 -82t-80.5 -34zM1065 1199h-338v-998h338q13 0 21.5 -8.5
t8.5 -21.5v-141q0 -14 -8.5 -22t-21.5 -8h-900q-13 0 -21.5 8t-8.5 22v141q0 13 8.5 21.5t21.5 8.5h338v998h-338q-13 0 -21.5 8.5t-8.5 21.5v141q0 14 8.5 22t21.5 8h900q13 0 21.5 -8t8.5 -22v-141q0 -13 -8.5 -21.5t-21.5 -8.5z" />
    <glyph glyph-name="uni0410" unicode="&#x410;" 
d="M1164 34q8 -34 -24 -34h-165q-29 0 -34 24l-67 249h-518l-67 -249q-5 -24 -34 -24h-164q-34 0 -24 34l374 1342q7 24 35 24h278q28 0 35 -24zM407 467h416l-188 702h-40z" />
    <glyph glyph-name="uni0411" unicode="&#x411;" 
d="M659 897q131 0 220 -28t140 -87.5t72 -139t21 -194.5q0 -114 -21 -194t-72 -139t-140 -87t-220 -28h-480q-13 0 -21.5 8t-8.5 22v1340q0 14 8.5 22t21.5 8h702q13 0 21.5 -8t8.5 -22v-141q0 -13 -8.5 -21.5t-21.5 -8.5h-508v-302h286zM659 201q69 0 109 8t71.5 33.5
t44 75t12.5 130.5q0 66 -9 110t-25 71.5t-47 42t-66 19.5t-90 5h-286v-495h286z" />
    <glyph glyph-name="uni0412" unicode="&#x412;" 
d="M842 754q274 -61 274 -358q0 -205 -114.5 -300.5t-372.5 -95.5h-475q-14 0 -22 8t-8 22v1340q0 14 8 22t22 8h491q109 0 189.5 -28.5t125 -78.5t65 -109.5t20.5 -129.5q0 -240 -203 -300zM832 1031q0 89 -48.5 128.5t-158.5 39.5h-277v-364h277q108 0 157.5 49t49.5 147z
M631 201q139 0 199 49t60 163t-61 173.5t-198 59.5h-283v-445h283z" />
    <glyph glyph-name="uni0413" unicode="&#x413;" 
d="M1051 1400q13 0 21.5 -8t8.5 -22v-141q0 -13 -8.5 -21.5t-21.5 -8.5h-657v-1169q0 -14 -8 -22t-22 -8h-164q-14 0 -22 8t-8 22v1340q0 14 8 22t22 8h851z" />
    <glyph glyph-name="uni0414" unicode="&#x414;" 
d="M1165 201q13 0 21.5 -8.5t8.5 -21.5v-279q0 -14 -8.5 -22t-21.5 -8h-150q-13 0 -21.5 8t-8.5 22v108h-740v-108q0 -14 -8.5 -22t-21.5 -8h-150q-13 0 -21.5 8t-8.5 22v279q0 13 8.5 21.5t21.5 8.5q195 0 195 233v936q0 14 8 22t22 8h723q13 0 21.5 -8t8.5 -22v-1169h122z
M484 429q0 -139 -66 -228h400v998h-334v-770z" />
    <glyph glyph-name="uni0415" unicode="&#x415;" 
d="M1051 201q13 0 21.5 -8.5t8.5 -21.5v-141q0 -14 -8.5 -22t-21.5 -8h-861q-14 0 -22 8t-8 22v1340q0 14 8 22t22 8h859q13 0 21.5 -8t8.5 -22v-141q0 -13 -8.5 -21.5t-21.5 -8.5h-665v-375h613q13 0 21.5 -8t8.5 -22v-141q0 -13 -8.5 -21.5t-21.5 -8.5h-613v-422h667z" />
    <glyph glyph-name="uni0416" unicode="&#x416;" 
d="M1180 36q14 -36 -18 -36h-148q-28 0 -36 18l-222 547l-37 -74v-461q0 -14 -8.5 -22t-21.5 -8h-149q-14 0 -22 8t-8 22v461l-36 73l-223 -546q-8 -18 -36 -18h-148q-32 0 -18 36l317 746l-289 582q-18 36 16 36h150q31 0 36 -16l231 -520v506q0 14 8 22t22 8h149
q13 0 21.5 -8t8.5 -22v-506l231 520q7 16 36 16h150q34 0 16 -36l-289 -582z" />
    <glyph glyph-name="uni0417" unicode="&#x417;" 
d="M858 743q122 -45 195.5 -135t73.5 -217q0 -191 -142 -304t-381 -113q-226 0 -355.5 105t-129.5 289q0 29 28 32l149 16q30 3 32 -28q6 -102 80 -159.5t203 -57.5q131 0 210 64t79 173q0 107 -91.5 173t-277.5 66q-30 0 -30 30v109q0 31 31 31q177 0 255.5 61t78.5 153
q0 87 -70.5 138t-182.5 51q-117 0 -189 -58t-78 -159q-2 -31 -32 -28l-149 16q-29 3 -29 32q0 183 129 288t348 105q205 0 333 -98.5t128 -267.5q0 -99 -57.5 -178.5t-158.5 -128.5z" />
    <glyph glyph-name="uni0418" unicode="&#x418;" 
d="M1066 1400q14 0 22 -8t8 -22v-1340q0 -14 -8 -22t-22 -8h-144q-14 0 -22 8t-8 22v1032l-496 -1042q-9 -20 -36 -20h-196q-14 0 -22 8t-8 22v1340q0 14 8 22t22 8h144q14 0 22 -8t8 -22v-1030l495 1040q9 20 36 20h197z" />
    <glyph glyph-name="uni0419" unicode="&#x419;" 
d="M615 1530q-134 0 -215.5 76.5t-93.5 194.5q-3 31 29 31h86q26 0 32 -29q11 -53 53.5 -89.5t108.5 -36.5t109 36.5t53 89.5q6 29 32 29h86q33 0 30 -31q-13 -118 -94.5 -194.5t-215.5 -76.5zM1066 1400q14 0 22 -8t8 -22v-1340q0 -14 -8 -22t-22 -8h-144q-14 0 -22 8
t-8 22v1032l-496 -1042q-9 -20 -36 -20h-196q-14 0 -22 8t-8 22v1340q0 14 8 22t22 8h144q14 0 22 -8t8 -22v-1030l495 1040q9 20 36 20h197z" />
    <glyph glyph-name="uni041A" unicode="&#x41a;" 
d="M1150 36q10 -15 5 -25.5t-23 -10.5h-182q-23 0 -36 18l-430 610l-131 -152v-446q0 -14 -8.5 -22t-21.5 -8h-164q-13 0 -21.5 8t-8.5 22v1340q0 14 8.5 22t21.5 8h164q13 0 21.5 -8t8.5 -22v-595l510 609q13 16 36 16h202q19 0 23.5 -11t-7.5 -25l-492 -572z" />
    <glyph glyph-name="uni041B" unicode="&#x41b;" 
d="M1061 1400q13 0 21.5 -8t8.5 -22v-1340q0 -14 -8.5 -22t-21.5 -8h-165q-14 0 -22 8t-8 22v1169h-396v-808q0 -204 -101.5 -304t-275.5 -100q-18 0 -23 17l-48 162q-7 20 14 22q105 8 157.5 62.5t52.5 174.5v945q0 14 8 22t22 8h785z" />
    <glyph glyph-name="uni041C" unicode="&#x41c;" 
d="M159 0q-13 0 -21.5 8t-8.5 22v1340q0 14 8.5 22t21.5 8h181q32 0 36 -20l233 -1135h12l233 1135q4 20 36 20h181q13 0 21.5 -8t8.5 -22v-1340q0 -14 -8.5 -22t-21.5 -8h-129q-14 0 -22 8t-8 22v909h-13l-196 -916q-6 -23 -35 -23h-106q-29 0 -35 23l-196 916h-13v-909
q0 -14 -8 -22t-22 -8h-129z" />
    <glyph glyph-name="uni041D" unicode="&#x41d;" 
d="M1056 1400q14 0 22 -8t8 -22v-1340q0 -14 -8 -22t-22 -8h-164q-14 0 -22 8t-8 22v581h-494v-581q0 -14 -8 -22t-22 -8h-164q-14 0 -22 8t-8 22v1340q0 14 8 22t22 8h164q14 0 22 -8t8 -22v-558h494v558q0 14 8 22t22 8h164z" />
    <glyph glyph-name="uni041E" unicode="&#x41e;" 
d="M615 1420q138 0 229 -31t154 -107.5t90.5 -204.5t27.5 -322v-119q0 -195 -27.5 -323t-90.5 -204.5t-154 -107.5t-229 -31t-229 31t-154 107.5t-90.5 204.5t-27.5 323v119q0 194 27.5 322t90.5 204.5t154 107.5t229 31zM615 1205q-65 0 -106 -8.5t-78 -35t-57 -76.5
t-31 -131t-11 -200v-118q0 -119 11 -200t31 -131t57 -76.5t78 -35t106 -8.5t106 8.5t78 35t57 76.5t31 131t11 200v118q0 119 -11 200t-31 131t-57 76.5t-78 35t-106 8.5z" />
    <glyph glyph-name="uni041F" unicode="&#x41f;" 
d="M1041 1400q13 0 21.5 -8t8.5 -22v-1340q0 -14 -8.5 -22t-21.5 -8h-165q-14 0 -22 8t-8 22v1169h-462v-1169q0 -14 -8 -22t-22 -8h-164q-14 0 -22 8t-8 22v1340q0 14 8 22t22 8h851z" />
    <glyph glyph-name="uni0420" unicode="&#x420;" 
d="M659 1400q131 0 220 -28t140 -87t72 -139t21 -194q0 -115 -21 -194.5t-72 -139t-140 -87.5t-220 -28h-286v-473q0 -14 -8.5 -22t-21.5 -8h-164q-13 0 -21.5 8t-8.5 22v1340q0 14 8.5 22t21.5 8h480zM659 704q55 0 90 5t66 19.5t47 42t25 71.5t9 110q0 81 -12.5 130.5
t-44 75t-71.5 33.5t-109 8h-286v-495h286z" />
    <glyph glyph-name="uni0421" unicode="&#x421;" 
d="M636 185q134 0 194 38t77 151q4 26 34 26h151q30 0 27 -33q-22 -216 -138 -306.5t-351 -90.5q-109 0 -188.5 20t-141.5 65.5t-99 123t-56 189.5t-19 267v120q0 155 19 267.5t56 189.5t99 122.5t141.5 65.5t188.5 20q235 0 351 -90.5t138 -306.5q3 -33 -27 -33h-151
q-30 0 -34 26q-17 112 -78.5 150t-192.5 38q-62 0 -104 -9.5t-80.5 -37t-60.5 -77t-34.5 -130t-12.5 -196.5v-118q0 -116 12.5 -197t34.5 -130.5t60 -77t80.5 -37t104.5 -9.5z" />
    <glyph glyph-name="uni0422" unicode="&#x422;" 
d="M1100 1400q14 0 22 -8t8 -22v-141q0 -13 -8 -21.5t-22 -8.5h-373v-1169q0 -14 -8.5 -22t-21.5 -8h-164q-13 0 -21.5 8t-8.5 22v1169h-373q-14 0 -22 8.5t-8 21.5v141q0 14 8 22t22 8h970z" />
    <glyph glyph-name="uni0423" unicode="&#x423;" 
d="M1150 1400q18 0 23.5 -10.5t-3.5 -25.5l-698 -1344q-11 -20 -36 -20h-174q-36 0 -20 36l251 482l-423 846q-8 15 -3 25.5t23 10.5h172q26 0 36 -20l313 -634l330 634q11 20 36 20h173z" />
    <glyph glyph-name="uni0424" unicode="&#x424;" 
d="M723 1263q122 0 210 -43t138.5 -121.5t74 -177t23.5 -221.5t-23.5 -221.5t-74 -177t-138.5 -121.5t-210 -43h-5v-107q0 -14 -8 -22t-22 -8h-146q-14 0 -22 8t-8 22v107h-5q-122 0 -210 43t-138.5 121.5t-74 177t-23.5 221.5t23.5 221.5t74 177t138.5 121.5t210 43h5v107
q0 14 8 22t22 8h146q14 0 22 -8t8 -22v-107h5zM507 339h5v723h-5q-70 0 -116 -22.5t-71 -71t-35 -112t-10 -156.5q0 -189 48.5 -275t183.5 -86zM723 339q70 0 116 22.5t71.5 71t35 111t9.5 156.5t-9.5 157t-35 111.5t-71.5 71t-116 22.5h-5v-723h5z" />
    <glyph glyph-name="uni0425" unicode="&#x425;" 
d="M1145 36q9 -16 3.5 -26t-23.5 -10h-174q-25 0 -36 20l-300 495l-300 -495q-11 -20 -36 -20h-173q-18 0 -23.5 10t3.5 26l409 677l-394 651q-9 16 -3.5 26t23.5 10h174q25 0 36 -20l284 -469l284 469q11 20 36 20h174q18 0 23.5 -10t-3.5 -26l-394 -651z" />
    <glyph glyph-name="uni0426" unicode="&#x426;" 
d="M1156 201q14 0 22 -8.5t8 -21.5v-279q0 -14 -8 -22t-22 -8h-151q-13 0 -21.5 8t-8.5 22v108h-776q-13 0 -21.5 8t-8.5 22v1340q0 14 8.5 22t21.5 8h164q13 0 21.5 -8t8.5 -22v-1169h422v1169q0 14 8.5 22t21.5 8h165q14 0 22 -8t8 -22v-1169h116z" />
    <glyph glyph-name="uni0427" unicode="&#x427;" 
d="M1092 1400q14 0 22 -8t8 -22v-1340q0 -14 -8 -22t-22 -8h-164q-14 0 -22 8t-8 22v525q-66 -84 -167 -135t-233 -51q-177 0 -288.5 111.5t-111.5 314.5v575q0 14 8 22t22 8h164q14 0 22 -8t8 -22v-542q0 -241 256 -241q72 0 134.5 23t101.5 57t61.5 70.5t22.5 66.5v566
q0 14 8 22t22 8h164z" />
    <glyph glyph-name="uni0428" unicode="&#x428;" 
d="M1086 1400q14 0 22 -8t8 -22v-1340q0 -14 -8 -22t-22 -8h-942q-14 0 -22 8t-8 22v1340q0 14 8 22t22 8h139q13 0 21.5 -8t8.5 -22v-1169h203v1169q0 14 8 22t22 8h138q14 0 22 -8t8 -22v-1169h203v1169q0 14 8.5 22t21.5 8h139z" />
    <glyph glyph-name="uni0429" unicode="&#x429;" 
d="M1156 201q14 0 22 -8.5t8 -21.5v-279q0 -14 -8 -22t-22 -8h-151q-13 0 -21.5 8t-8.5 22v108h-831q-14 0 -22 8t-8 22v1340q0 14 8 22t22 8h139q13 0 21.5 -8t8.5 -22v-1169h183v1169q0 14 8 22t22 8h138q14 0 22 -8t8 -22v-1169h183v1169q0 14 8.5 22t21.5 8h139
q14 0 22 -8t8 -22v-1169h80z" />
    <glyph glyph-name="uni042A" unicode="&#x42a;" 
d="M663 897q136 0 230 -29.5t148 -89t77 -139t23 -190.5t-23 -190.5t-77 -139.5t-148 -89.5t-230 -29.5h-402q-13 0 -21.5 8t-8.5 22v1169h-141q-14 0 -22 8.5t-8 21.5v141q0 14 8 22t22 8h335q13 0 21.5 -8t8.5 -22v-473h208zM663 201q74 0 119.5 9.5t79.5 36t48.5 75.5
t14.5 127t-14.5 126.5t-48.5 75t-79.5 36t-119.5 9.5h-208v-495h208z" />
    <glyph glyph-name="uni042B" unicode="&#x42b;" 
d="M415 0h-326q-13 0 -21.5 8t-8.5 22v1340q0 14 8.5 22t21.5 8h157q14 0 22 -8t8 -22v-473h139q102 0 177 -20t123.5 -56t78 -92.5t41 -123.5t11.5 -156q0 -112 -19.5 -191t-66.5 -139t-132.5 -89.5t-212.5 -29.5zM1142 0h-158q-14 0 -22 8t-8 22v1340q0 14 8 22t22 8h158
q14 0 22 -8t8 -22v-1340q0 -14 -8 -22t-22 -8zM415 696h-139v-495h139q85 0 128 18t65 71.5t22 158.5q0 79 -10.5 127t-38 75t-65.5 36t-101 9z" />
    <glyph glyph-name="uni042C" unicode="&#x42c;" 
d="M659 0h-480q-13 0 -21.5 8t-8.5 22v1340q0 14 8.5 22t21.5 8h164q13 0 21.5 -8t8.5 -22v-473h286q131 0 220 -28t140 -87.5t72 -139t21 -194.5q0 -114 -21 -194t-72 -139t-140 -87t-220 -28zM659 696h-286v-495h286q69 0 109 8t71.5 33.5t44 75t12.5 130.5q0 66 -9 110
t-25 71.5t-47 42t-66 19.5t-90 5z" />
    <glyph glyph-name="uni042D" unicode="&#x42d;" 
d="M616 1420q109 0 188.5 -20t141.5 -65.5t99 -122.5t56 -189.5t19 -267.5v-120q0 -155 -19 -267t-56 -189.5t-99 -123t-141.5 -65.5t-188.5 -20q-235 0 -351 90.5t-138 306.5q-3 33 27 33h151q30 0 34 -26q17 -113 77 -151t194 -38q60 0 101.5 8.5t79 34t59.5 71.5t36 120
t16 180h-481q-13 0 -21.5 8.5t-8.5 21.5v142q0 13 8.5 21.5t21.5 8.5h480q-2 103 -16 175.5t-36.5 117t-60 69t-78.5 33t-100 8.5q-131 0 -192.5 -38t-78.5 -150q-4 -26 -34 -26h-151q-30 0 -27 33q22 216 138 306.5t351 90.5z" />
    <glyph glyph-name="uni042E" unicode="&#x42e;" 
d="M752 1416q105 0 178.5 -31.5t127 -106.5t78.5 -205t25 -323v-108q0 -193 -25 -323.5t-78.5 -206t-126.5 -107t-179 -31.5q-83 0 -144.5 18t-111.5 61.5t-82 115.5t-50 178.5t-20 251.5h-84v-569q0 -14 -8 -22t-22 -8h-136q-24 0 -24 30v1340q0 30 24 30h136q14 0 22 -8
t8 -22v-569h84q3 143 21 248t49.5 175.5t81.5 113t112 60.5t144 18zM964 642v107q0 113 -10.5 194.5t-28 130t-45.5 76.5t-57.5 37.5t-70.5 9.5t-70 -9.5t-57 -37.5t-45 -76.5t-27.5 -130t-10.5 -194.5v-107q0 -114 10.5 -195.5t27.5 -130t45 -76.5t57 -37.5t70 -9.5t70 9
t57.5 37.5t46 77t28 130t10.5 195.5z" />
    <glyph glyph-name="uni042F" unicode="&#x42f;" 
d="M1051 1400q13 0 21.5 -8t8.5 -22v-1340q0 -14 -8.5 -22t-21.5 -8h-164q-13 0 -21.5 8t-8.5 22v473h-282l-226 -480q-10 -23 -35 -23h-160q-17 0 -23 9.5t1 25.5l234 492q-137 40 -192.5 143t-55.5 282q0 114 21 194t72 139t140 87t220 28h480zM857 704v495h-286
q-69 0 -109 -8t-71.5 -33.5t-44 -75t-12.5 -130.5q0 -66 9 -110t25 -71.5t47 -42t66 -19.5t90 -5h286z" />
    <glyph glyph-name="uni0430" unicode="&#x430;" 
d="M1099 179q20 -5 28 -12.5t8 -22.5v-119q0 -31 -57 -33q-109 -2 -161.5 38t-52.5 126h-9q-74 -84 -189 -132t-225 -48q-161 0 -247 74.5t-86 204.5q0 131 83 203t253 97l232 36q67 10 98.5 20.5t40.5 26.5q-4 98 -56.5 139t-154.5 41q-214 0 -234 -135q-3 -22 -29 -22
h-149q-32 0 -29 30q17 166 132 238.5t311 72.5q210 0 315 -95.5t105 -278.5v-367q0 -67 73 -82zM482 161q203 0 333 131v201q-13 -28 -125 -46l-209 -33q-85 -14 -121 -47t-36 -85q0 -57 39 -89t119 -32z" />
    <glyph glyph-name="uni0431" unicode="&#x431;" 
d="M668 1001q138 0 241.5 -68t155.5 -183.5t52 -261.5q0 -223 -122 -368t-327 -145q-203 0 -324 150l-8 -95q-3 -30 -30 -30h-141q-13 0 -21.5 8t-8.5 22v1012q0 185 78.5 271.5t246.5 86.5h228q63 0 94 10t54 30h179q-5 -69 -30.5 -115.5t-71 -71.5t-98.5 -35t-126 -10
h-180q-86 0 -121.5 -40t-35.5 -126l1 -206h18q98 165 297 165zM625 171q137 0 210.5 86.5t73.5 232.5q0 145 -73 230t-211 85q-127 0 -202.5 -86t-75.5 -229t75.5 -231t202.5 -88z" />
    <glyph glyph-name="uni0432" unicode="&#x432;" 
d="M918 522q103 -20 163 -87t60 -153q0 -138 -111.5 -210t-323.5 -72h-532q-14 0 -22 8t-8 22v920q0 14 8 22t22 8h532q165 0 262 -69.5t97 -187.5q0 -73 -39.5 -124.5t-107.5 -76.5zM868 699q0 47 -34 74.5t-133 27.5h-341v-209h332q101 0 138.5 28.5t37.5 78.5zM701 179
q58 0 100.5 7t68 18t40.5 27.5t20.5 33.5t5.5 38q0 28 -9.5 49t-34.5 41t-75.5 30.5t-124.5 10.5h-332v-255h341z" />
    <glyph glyph-name="uni0433" unicode="&#x433;" 
d="M1047 980q13 0 21.5 -8t8.5 -22v-119q0 -13 -8.5 -21.5t-21.5 -8.5h-658v-771q0 -14 -8.5 -22t-21.5 -8h-156q-13 0 -21.5 8t-8.5 22v920q0 14 8.5 22t21.5 8h844z" />
    <glyph glyph-name="uni0434" unicode="&#x434;" 
d="M1151 179q13 0 21.5 -8.5t8.5 -21.5v-263q0 -14 -8.5 -22t-21.5 -8h-143q-14 0 -22 8t-8 22v114h-726v-114q0 -14 -8 -22t-22 -8h-142q-14 0 -22 8t-8 22v284q0 21 18 21q95 0 150.5 60.5t55.5 182.5v516q0 14 8 22t22 8h735q13 0 21.5 -8t8.5 -22v-771h82zM482 801v-372
q0 -163 -76 -250h454v622h-378z" />
    <glyph glyph-name="uni0435" unicode="&#x435;" 
d="M618 1002q108 0 198.5 -39.5t150 -107t92.5 -156t33 -186.5q0 -60 -12.5 -85.5t-52.5 -25.5h-699q17 -114 106.5 -182t224.5 -68q136 0 246 84q23 18 42 -1l66 -66q23 -23 0 -45q-150 -150 -376 -150q-230 0 -374.5 147t-144.5 367q0 107 37.5 201.5t102.5 163.5
t158.5 109t201.5 40zM619 817q-115 0 -194 -70t-95 -189h572q-12 118 -89 188.5t-194 70.5z" />
    <glyph glyph-name="uni0436" unicode="&#x436;" 
d="M1164 36q20 -36 -17 -36h-140q-28 0 -36 16l-207 374l-52 -78v-282q0 -14 -8 -22t-22 -8h-134q-14 0 -22 8t-8 22v282l-52 78l-207 -374q-8 -16 -36 -16h-139q-38 0 -18 36l290 516l-264 392q-23 36 16 36h149q27 0 38 -16l223 -360v346q0 14 8 22t22 8h134q14 0 22 -8
t8 -22v-346l223 360q11 16 38 16h150q40 0 15 -36l-264 -392z" />
    <glyph glyph-name="uni0437" unicode="&#x437;" 
d="M905 520q85 -35 135.5 -97.5t50.5 -141.5q0 -140 -125.5 -223.5t-351.5 -83.5q-173 0 -292.5 38t-167.5 98q-26 32 1 58l69 69q22 22 54 -6q34 -30 112 -52.5t197 -22.5q149 0 229 38.5t80 106.5q0 43 -33 71t-124.5 45.5t-245.5 17.5q-21 0 -34.5 12t-13.5 31v62
q0 21 13.5 33.5t34.5 12.5q108 0 182 8.5t113 25.5t55 37.5t16 49.5q0 114 -257 114q-190 0 -301 -69q-40 -25 -66 2l-52 60q-26 29 -1 56q51 57 162.5 94.5t271.5 37.5q206 0 323.5 -73.5t117.5 -191.5q0 -137 -152 -217z" />
    <glyph glyph-name="uni0438" unicode="&#x438;" 
d="M1027 980q13 0 21.5 -8t8.5 -22v-920q0 -14 -8.5 -22t-21.5 -8h-156q-13 0 -21.5 8t-8.5 22v653l-416 -663q-13 -20 -38 -20h-184q-13 0 -21.5 8t-8.5 22v920q0 14 8.5 22t21.5 8h156q13 0 21.5 -8t8.5 -22v-653l416 663q13 20 38 20h184z" />
    <glyph glyph-name="uni0439" unicode="&#x439;" 
d="M615 1110q-134 0 -215.5 76.5t-93.5 194.5q-3 31 29 31h86q26 0 32 -29q11 -53 53.5 -89.5t108.5 -36.5t109 36.5t53 89.5q6 29 32 29h86q33 0 30 -31q-13 -118 -94.5 -194.5t-215.5 -76.5zM1027 980q13 0 21.5 -8t8.5 -22v-920q0 -14 -8.5 -22t-21.5 -8h-156
q-13 0 -21.5 8t-8.5 22v653l-416 -663q-13 -20 -38 -20h-184q-13 0 -21.5 8t-8.5 22v920q0 14 8.5 22t21.5 8h156q13 0 21.5 -8t8.5 -22v-653l416 663q13 20 38 20h184z" />
    <glyph glyph-name="uni043A" unicode="&#x43a;" 
d="M1147 36q12 -15 7 -25.5t-24 -10.5h-193q-23 0 -36 16l-350 401l-191 -191v-196q0 -14 -8 -22t-22 -8h-156q-14 0 -22 8t-8 22v920q0 14 8 22t22 8h156q14 0 22 -8t8 -22v-461l471 475q15 16 38 16h191q20 0 24.5 -10.5t-8.5 -25.5l-386 -387z" />
    <glyph glyph-name="uni043B" unicode="&#x43b;" 
d="M1096 980q14 0 22 -8t8 -22v-920q0 -14 -8 -22t-22 -8h-156q-14 0 -22 8t-8 22v771h-445v-399q0 -202 -98.5 -307t-268.5 -105q-18 0 -23 17l-48 160q-3 9 1 15.5t14 6.5q95 0 151 62t56 183v516q0 14 8.5 22t21.5 8h817z" />
    <glyph glyph-name="uni043C" unicode="&#x43c;" 
d="M1056 980q14 0 22 -8t8 -22v-920q0 -14 -8 -22t-22 -8h-149q-13 0 -21.5 8t-8.5 22v559l-174 -567q-6 -22 -34 -22h-108q-28 0 -34 22l-174 567v-559q0 -14 -8.5 -22t-21.5 -8h-149q-14 0 -22 8t-8 22v920q0 14 8 22t22 8h173q28 0 34 -22l234 -740l234 740q6 22 34 22
h173z" />
    <glyph glyph-name="uni043D" unicode="&#x43d;" 
d="M1027 980q13 0 21.5 -8t8.5 -22v-920q0 -14 -8.5 -22t-21.5 -8h-156q-13 0 -21.5 8t-8.5 22v371h-452v-371q0 -14 -8.5 -22t-21.5 -8h-156q-13 0 -21.5 8t-8.5 22v920q0 14 8.5 22t21.5 8h156q13 0 21.5 -8t8.5 -22v-371h452v371q0 14 8.5 22t21.5 8h156z" />
    <glyph glyph-name="uni043E" unicode="&#x43e;" 
d="M615 -26q-213 0 -356.5 147.5t-143.5 366.5t143.5 366.5t356.5 147.5q140 0 255 -67.5t180.5 -185.5t65.5 -261t-65.5 -261t-180.5 -185.5t-255 -67.5zM615 173q127 0 210 88t83 227t-83 227t-210 88t-210 -88t-83 -227t83 -227t210 -88z" />
    <glyph glyph-name="uni043F" unicode="&#x43f;" 
d="M1027 980q13 0 21.5 -8t8.5 -22v-920q0 -14 -8.5 -22t-21.5 -8h-156q-13 0 -21.5 8t-8.5 22v771h-452v-771q0 -14 -8.5 -22t-21.5 -8h-156q-13 0 -21.5 8t-8.5 22v920q0 14 8.5 22t21.5 8h824z" />
    <glyph glyph-name="uni0440" unicode="&#x440;" 
d="M668 1001q138 0 241.5 -68t155.5 -183.5t52 -261.5q0 -223 -122 -368t-327 -145q-194 0 -317 141v-466q0 -14 -8.5 -22t-21.5 -8h-156q-13 0 -21.5 8t-8.5 22v1300q0 14 8.5 22t21.5 8h156q13 0 21.5 -8t8.5 -22v-114h20q98 165 297 165zM626 171q137 0 210 86.5
t73 232.5q0 145 -73 230t-210 85q-128 0 -203.5 -86t-75.5 -229t75.5 -231t203.5 -88z" />
    <glyph glyph-name="uni0441" unicode="&#x441;" 
d="M675 173q158 0 251 119q18 22 40 8l114 -66q27 -17 10 -40q-66 -101 -176 -160.5t-243 -59.5q-222 0 -369 147.5t-147 366.5t147 366.5t369 147.5q133 0 243 -59.5t176 -160.5q17 -23 -10 -40l-114 -66q-22 -14 -40 8q-93 119 -251 119q-135 0 -223.5 -88.5t-88.5 -226.5
t88.5 -226.5t223.5 -88.5z" />
    <glyph glyph-name="uni0442" unicode="&#x442;" 
d="M1111 980q13 0 21.5 -8t8.5 -22v-119q0 -13 -8.5 -21.5t-21.5 -8.5h-388v-771q0 -14 -8.5 -22t-21.5 -8h-156q-13 0 -21.5 8t-8.5 22v771h-387q-14 0 -22 8.5t-8 21.5v119q0 14 8 22t22 8h991z" />
    <glyph glyph-name="uni0443" unicode="&#x443;" 
d="M1096 980q17 0 24 -9t0 -25l-539 -1302q-11 -24 -36 -24h-157q-17 0 -24 9t0 25l143 344l-397 948q-7 16 0 25t24 9h157q25 0 36 -24l288 -713l288 713q11 24 36 24h157z" />
    <glyph glyph-name="uni0444" unicode="&#x444;" 
d="M1131 488q0 -221 -105.5 -351t-305.5 -156v-331q0 -14 -8 -22t-22 -8h-150q-14 0 -22 8t-8 22v331q-200 26 -305 156t-105 351t105 351t305 156v376q0 13 8 21.5t22 8.5h150q14 0 22 -8.5t8 -21.5v-376q200 -26 305.5 -156t105.5 -351zM720 180q115 19 165.5 92t50.5 216
t-50.5 216t-165.5 92v-616zM295 488q0 -143 50 -216t165 -92v616q-115 -19 -165 -92t-50 -216z" />
    <glyph glyph-name="uni0445" unicode="&#x445;" 
d="M1138 36q12 -14 6.5 -25t-24.5 -11h-184q-23 0 -36 17l-285 339l-285 -339q-13 -17 -36 -17h-184q-19 0 -24 11t7 25l399 469l-372 439q-12 14 -6.5 25t24.5 11h182q23 0 36 -17l259 -309l259 309q13 17 36 17h182q19 0 24.5 -10.5t-6.5 -25.5l-370 -439z" />
    <glyph glyph-name="uni0446" unicode="&#x446;" 
d="M1156 179q14 0 22 -8.5t8 -21.5v-246q0 -13 -8 -21.5t-22 -8.5h-146q-14 0 -22 8.5t-8 21.5v97h-777q-13 0 -21.5 8t-8.5 22v920q0 14 8.5 22t21.5 8h156q13 0 21.5 -8t8.5 -22v-771h452v771q0 14 8.5 22t21.5 8h156q13 0 21.5 -8t8.5 -22v-771h99z" />
    <glyph glyph-name="uni0447" unicode="&#x447;" 
d="M1027 980q13 0 21.5 -8t8.5 -22v-920q0 -14 -8.5 -22t-21.5 -8h-156q-13 0 -21.5 8t-8.5 22v319q-133 -135 -325 -135q-77 0 -143.5 21t-124 65.5t-91 124.5t-33.5 188v337q0 14 8 22t22 8h156q14 0 22 -8t8 -22v-335q0 -113 56.5 -173.5t164.5 -60.5q161 0 280 150v419
q0 14 8.5 22t21.5 8h156z" />
    <glyph glyph-name="uni0448" unicode="&#x448;" 
d="M1061 980q13 0 21.5 -8t8.5 -22v-920q0 -14 -8.5 -22t-21.5 -8h-891q-14 0 -22 8t-8 22v920q0 14 8 22t22 8h143q13 0 21.5 -8t8.5 -22v-771h178v771q0 14 8.5 22t21.5 8h128q13 0 21.5 -8t8.5 -22v-771h178v771q0 14 8.5 22t21.5 8h144z" />
    <glyph glyph-name="uni0449" unicode="&#x449;" 
d="M1156 179q14 0 22 -8.5t8 -21.5v-246q0 -13 -8 -21.5t-22 -8.5h-146q-14 0 -22 8.5t-8 21.5v97h-810q-14 0 -22 8t-8 22v920q0 14 8 22t22 8h143q13 0 21.5 -8t8.5 -22v-771h178v771q0 14 8.5 22t21.5 8h128q13 0 21.5 -8t8.5 -22v-771h178v771q0 14 8.5 22t21.5 8h144
q13 0 21.5 -8t8.5 -22v-771h65z" />
    <glyph glyph-name="uni044A" unicode="&#x44a;" 
d="M703 683q207 0 300 -82.5t93 -258.5q0 -177 -93 -259.5t-300 -82.5h-418q-13 0 -21.5 8t-8.5 22v771h-135q-14 0 -22 8.5t-8 21.5v119q0 14 8 22t22 8h321q13 0 21.5 -8t8.5 -22v-267h232zM707 169q105 0 143 39t38 134q0 94 -38 133.5t-143 39.5h-236v-346h236z" />
    <glyph glyph-name="uni044B" unicode="&#x44b;" 
d="M464 683q106 0 175.5 -19.5t110 -63.5t56.5 -105t16 -153t-16 -153.5t-56.5 -105.5t-110 -63.5t-175.5 -19.5h-330q-14 0 -22 8t-8 22v920q0 14 8 22t22 8h142q14 0 22 -8t8 -22v-267h158zM1096 980q14 0 22 -8t8 -22v-920q0 -14 -8 -22t-22 -8h-142q-14 0 -22 8t-8 22
v920q0 14 8 22t22 8h142zM468 169q95 0 127 38.5t32 134.5t-32 134.5t-127 38.5h-162v-346h162z" />
    <glyph glyph-name="uni044C" unicode="&#x44c;" 
d="M703 683q207 0 300 -82.5t93 -258.5q0 -177 -93 -259.5t-300 -82.5h-500q-13 0 -21.5 8t-8.5 22v920q0 14 8.5 22t21.5 8h156q13 0 21.5 -8t8.5 -22v-267h314zM707 169q105 0 143 39t38 134q0 94 -38 133.5t-143 39.5h-318v-346h318z" />
    <glyph glyph-name="uni044D" unicode="&#x44d;" 
d="M570 1002q222 0 369 -147.5t147 -366.5t-147 -366.5t-369 -147.5q-133 0 -243 59.5t-176 160.5q-17 23 10 40l114 66q22 14 40 -8q93 -119 251 -119q113 0 195.5 64t107.5 170h-328q-13 0 -21.5 8.5t-8.5 21.5v102q0 13 8.5 21.5t21.5 8.5h328q-25 106 -107.5 170
t-195.5 64q-158 0 -251 -119q-18 -22 -40 -8l-114 66q-27 17 -10 40q66 101 176 160.5t243 59.5z" />
    <glyph glyph-name="uni044E" unicode="&#x44e;" 
d="M810 1002q394 0 394 -514t-394 -514q-359 0 -390 426h-116v-370q0 -14 -8 -22t-22 -8h-142q-14 0 -22 8t-8 22v920q0 14 8 22t22 8h142q14 0 22 -8t8 -22v-373h116q33 425 390 425zM810 173q109 0 154 82t45 233t-45 233t-154 82q-56 0 -95.5 -22.5t-61.5 -66
t-31.5 -98.5t-9.5 -128t9.5 -128t31.5 -98.5t61.5 -66t95.5 -22.5z" />
    <glyph glyph-name="uni044F" unicode="&#x44f;" 
d="M1027 980q13 0 21.5 -8t8.5 -22v-920q0 -14 -8.5 -22t-21.5 -8h-156q-13 0 -21.5 8t-8.5 22v298h-190l-278 -312q-13 -16 -36 -16h-174q-19 0 -24 11t8 25l273 299q-151 19 -219 97.5t-68 221.5q0 168 94 247t308 79h492zM531 497h310v315h-310q-102 0 -146 -36t-44 -122
t44 -121.5t146 -35.5z" />
    <glyph glyph-name="uni0451" unicode="&#x451;" 
d="M394 1251q-47 0 -80.5 34t-33.5 82q0 46 33.5 79.5t80.5 33.5t81 -33.5t34 -79.5q0 -49 -33.5 -82.5t-81.5 -33.5zM799 1251q-47 0 -81 33.5t-34 82.5q0 46 34 79.5t81 33.5t80.5 -33.5t33.5 -79.5q0 -48 -33.5 -82t-80.5 -34zM618 1002q108 0 198.5 -39.5t150 -107
t92.5 -156t33 -186.5q0 -60 -12.5 -85.5t-52.5 -25.5h-699q17 -114 106.5 -182t224.5 -68q136 0 246 84q23 18 42 -1l66 -66q23 -23 0 -45q-150 -150 -376 -150q-230 0 -374.5 147t-144.5 367q0 107 37.5 201.5t102.5 163.5t158.5 109t201.5 40zM619 817q-115 0 -194 -70
t-95 -189h572q-12 118 -89 188.5t-194 70.5z" />
    <glyph glyph-name="uni0453" unicode="&#x453;" 
d="M555 1090q-17 0 -24 9t0 25l120 252q11 24 34 24h132q17 0 24 -9t0 -25l-120 -252q-11 -24 -34 -24h-132zM1047 980q13 0 21.5 -8t8.5 -22v-119q0 -13 -8.5 -21.5t-21.5 -8.5h-658v-771q0 -14 -8.5 -22t-21.5 -8h-156q-13 0 -21.5 8t-8.5 22v920q0 14 8.5 22t21.5 8h844z
" />
    <glyph glyph-name="uni0454" unicode="&#x454;" 
d="M1080 234q27 -17 10 -40q-66 -101 -176 -160.5t-243 -59.5q-222 0 -369 147.5t-147 366.5t147 366.5t369 147.5q133 0 243 -59.5t176 -160.5q17 -23 -10 -40l-114 -66q-22 -14 -40 8q-93 119 -251 119q-113 0 -195.5 -64t-107.5 -170h328q14 0 22 -8.5t8 -21.5v-102
q0 -13 -8 -21.5t-22 -8.5h-328q25 -106 107.5 -170t195.5 -64q158 0 251 119q18 22 40 8z" />
    <glyph glyph-name="uni0457" unicode="&#x457;" 
d="M413 1191q-47 0 -80.5 34t-33.5 82q0 46 33.5 79.5t80.5 33.5t81 -33.5t34 -79.5q0 -49 -34 -82.5t-81 -33.5zM818 1191q-48 0 -81.5 33.5t-33.5 82.5q0 46 34 79.5t81 33.5t80.5 -33.5t33.5 -79.5q0 -48 -33.5 -82t-80.5 -34zM1051 181q13 0 21.5 -8.5t8.5 -21.5v-121
q0 -14 -8.5 -22t-21.5 -8h-861q-14 0 -22 8t-8 22v121q0 13 8 21.5t22 8.5h348v618h-298q-14 0 -22 8.5t-8 21.5v121q0 14 8 22t22 8h484q14 0 22 -8t8 -22v-769h297z" />
    <glyph glyph-name="uni0490" unicode="&#x490;" 
d="M1051 1502q13 0 21.5 -8t8.5 -22v-243q0 -13 -8.5 -21.5t-21.5 -8.5h-657v-1169q0 -14 -8 -22t-22 -8h-164q-14 0 -22 8t-8 22v1340q0 14 8 22t22 8h679v72q0 14 8.5 22t21.5 8h142z" />
    <glyph glyph-name="uni0491" unicode="&#x491;" 
d="M1047 1104q13 0 21.5 -8t8.5 -22v-243q0 -13 -8.5 -21.5t-21.5 -8.5h-658v-771q0 -14 -8.5 -22t-21.5 -8h-156q-13 0 -21.5 8t-8.5 22v920q0 14 8.5 22t21.5 8h658v94q0 14 8.5 22t21.5 8h156z" />
    <glyph glyph-name="Wgrave" unicode="&#x1e80;" 
d="M509 1534l-120 252q-7 16 0 25t24 9h132q23 0 34 -24l120 -252q7 -16 0 -25t-24 -9h-132q-23 0 -34 24zM1135 1400q27 0 24 -34l-162 -1342q-1 -11 -13 -17.5t-25 -6.5h-191q-32 0 -35 24l-118 861l-118 -861q-3 -24 -35 -24h-191q-13 0 -24.5 6.5t-12.5 17.5l-162 1342
q-3 34 24 34h149q31 0 34 -24l108 -1088l152 1088q3 24 34 24h84q31 0 34 -24l152 -1088l108 1088q3 24 34 24h150z" />
    <glyph glyph-name="wgrave" unicode="&#x1e81;" 
d="M508 1114l-120 252q-7 16 0 25t24 9h132q23 0 34 -24l120 -252q7 -16 0 -25t-24 -9h-132q-23 0 -34 24zM1135 980q30 0 24 -34l-182 -922q-5 -24 -36 -24h-159q-32 0 -36 24l-132 647l-132 -647q-4 -24 -36 -24h-159q-32 0 -36 24l-182 922q-6 34 24 34h133q32 0 36 -24
l116 -709l149 709q6 24 36 24h102q30 0 36 -24l149 -709l116 709q4 24 36 24h133z" />
    <glyph glyph-name="Wacute" unicode="&#x1e82;" 
d="M555 1510q-17 0 -24 9t0 25l120 252q11 24 34 24h132q17 0 24 -9t0 -25l-120 -252q-11 -24 -34 -24h-132zM1135 1400q27 0 24 -34l-162 -1342q-1 -11 -13 -17.5t-25 -6.5h-191q-32 0 -35 24l-118 861l-118 -861q-3 -24 -35 -24h-191q-13 0 -24.5 6.5t-12.5 17.5
l-162 1342q-3 34 24 34h149q31 0 34 -24l108 -1088l152 1088q3 24 34 24h84q31 0 34 -24l152 -1088l108 1088q3 24 34 24h150z" />
    <glyph glyph-name="wacute" unicode="&#x1e83;" 
d="M554 1090q-17 0 -24 9t0 25l120 252q11 24 34 24h132q17 0 24 -9t0 -25l-120 -252q-11 -24 -34 -24h-132zM1135 980q30 0 24 -34l-182 -922q-5 -24 -36 -24h-159q-32 0 -36 24l-132 647l-132 -647q-4 -24 -36 -24h-159q-32 0 -36 24l-182 922q-6 34 24 34h133
q32 0 36 -24l116 -709l149 709q6 24 36 24h102q30 0 36 -24l149 -709l116 709q4 24 36 24h133z" />
    <glyph glyph-name="Wdieresis" unicode="&#x1e84;" 
d="M413 1611q-47 0 -80.5 34t-33.5 82q0 46 33.5 79.5t80.5 33.5t81 -33.5t34 -79.5q0 -49 -34 -82.5t-81 -33.5zM818 1611q-48 0 -81.5 33.5t-33.5 82.5q0 46 34 79.5t81 33.5t80.5 -33.5t33.5 -79.5q0 -48 -33.5 -82t-80.5 -34zM1135 1400q27 0 24 -34l-162 -1342
q-1 -11 -13 -17.5t-25 -6.5h-191q-32 0 -35 24l-118 861l-118 -861q-3 -24 -35 -24h-191q-13 0 -24.5 6.5t-12.5 17.5l-162 1342q-3 34 24 34h149q31 0 34 -24l108 -1088l152 1088q3 24 34 24h84q31 0 34 -24l152 -1088l108 1088q3 24 34 24h150z" />
    <glyph glyph-name="wdieresis" unicode="&#x1e85;" 
d="M412 1191q-47 0 -80.5 34t-33.5 82q0 46 33.5 79.5t80.5 33.5t81 -33.5t34 -79.5q0 -49 -33.5 -82.5t-81.5 -33.5zM817 1191q-47 0 -81 33.5t-34 82.5q0 46 34 79.5t81 33.5t80.5 -33.5t33.5 -79.5q0 -48 -33.5 -82t-80.5 -34zM1135 980q30 0 24 -34l-182 -922
q-5 -24 -36 -24h-159q-32 0 -36 24l-132 647l-132 -647q-4 -24 -36 -24h-159q-32 0 -36 24l-182 922q-6 34 24 34h133q32 0 36 -24l116 -709l149 709q6 24 36 24h102q30 0 36 -24l149 -709l116 709q4 24 36 24h133z" />
    <glyph glyph-name="uni1E9E" unicode="&#x1e9e;" 
d="M726 822q218 -28 337 -137t119 -294q0 -196 -109.5 -306.5t-309.5 -110.5q-195 0 -291 92.5t-96 263.5q0 31 29 31h137q28 0 30 -29q5 -73 54 -117t138 -44q94 0 145 57t51 160q0 132 -106 199t-311 67q-30 0 -30 30v146l263 379h-281q-109 0 -150.5 -48t-41.5 -157v-974
q0 -14 -8.5 -22t-21.5 -8h-164q-13 0 -21.5 8t-8.5 22v989q0 207 91.5 299t308.5 92h606q19 0 24.5 -10.5t-5.5 -25.5z" />
    <glyph glyph-name="Ygrave" unicode="&#x1ef2;" 
d="M509 1534l-120 252q-7 16 0 25t24 9h132q23 0 34 -24l120 -252q7 -16 0 -25t-24 -9h-132q-23 0 -34 24zM1140 1400q18 0 23.5 -10t-3.5 -26l-433 -810v-524q0 -14 -8.5 -22t-21.5 -8h-164q-13 0 -21.5 8t-8.5 22v528l-433 806q-9 16 -3.5 26t23.5 10h173q26 0 36 -20
l316 -612l316 612q10 20 36 20h173z" />
    <glyph glyph-name="ygrave" unicode="&#x1ef3;" 
d="M413 1400h132q23 0 34 -24l120 -252q7 -16 0 -25t-24 -9h-132q-23 0 -34 24l-120 252q-7 16 0 25t24 9zM1096 980q17 0 24 -9t0 -25l-539 -1302q-11 -24 -36 -24h-157q-17 0 -24 9t0 25l143 344l-397 948q-7 16 0 25t24 9h157q25 0 36 -24l288 -713l288 713q11 24 36 24
h157z" />
    <glyph glyph-name="endash" unicode="&#x2013;" 
d="M1085 649q13 0 21.5 -8.5t8.5 -21.5v-120q0 -13 -8.5 -21.5t-21.5 -8.5h-940q-13 0 -21.5 8.5t-8.5 21.5v120q0 13 8.5 21.5t21.5 8.5h940z" />
    <glyph glyph-name="emdash" unicode="&#x2014;" 
d="M1085 649q13 0 21.5 -8.5t8.5 -21.5v-120q0 -13 -8.5 -21.5t-21.5 -8.5h-940q-13 0 -21.5 8.5t-8.5 21.5v120q0 13 8.5 21.5t21.5 8.5h940z" />
    <glyph glyph-name="quoteleft" unicode="&#x2018;" 
d="M410 906q-14 0 -22 8t-8 22v66q0 127 22 254.5t53 212.5q9 23 35 23h90q32 0 26 -33q-14 -73 -21.5 -182t-5.5 -189h261q14 0 22 -8t8 -22v-122q0 -14 -8 -22t-22 -8h-430z" />
    <glyph glyph-name="quoteright" unicode="&#x2019;" 
d="M820 1403q14 0 22 -8.5t8 -21.5v-66q0 -127 -22 -254.5t-53 -212.5q-9 -23 -35 -23h-90q-32 0 -26 33q14 73 21.5 182t5.5 189h-261q-14 0 -22 8.5t-8 21.5v122q0 13 8 21.5t22 8.5h430z" />
    <glyph glyph-name="quotesinglbase" unicode="&#x201a;" 
d="M820 182q14 0 22 -8t8 -22v-66q0 -127 -22 -254.5t-53 -212.5q-9 -23 -35 -23h-90q-32 0 -26 33q14 73 21.5 182t5.5 189h-261q-14 0 -22 8t-8 22v122q0 14 8 22t22 8h430z" />
    <glyph glyph-name="quotedblleft" unicode="&#x201c;" 
d="M123 883q-13 0 -20.5 8.5t-7.5 22.5v70q0 133 20 267.5t49 222.5q7 24 32 24h82q30 0 24 -35q-29 -175 -25 -389h239q13 0 20.5 -8.5t7.5 -22.5v-129q0 -14 -7.5 -22.5t-20.5 -8.5h-393zM714 883q-13 0 -20.5 8.5t-7.5 22.5v70q0 133 20 267.5t49 222.5q7 24 32 24h82
q30 0 24 -35q-29 -175 -25 -389h239q13 0 20.5 -8.5t7.5 -22.5v-129q0 -14 -7.5 -22.5t-20.5 -8.5h-393z" />
    <glyph glyph-name="quotedblright" unicode="&#x201d;" 
d="M516 1403q13 0 20.5 -8.5t7.5 -22.5v-70q0 -133 -20 -267.5t-49 -222.5q-7 -24 -32 -24h-82q-30 0 -24 35q29 175 25 389h-239q-13 0 -20.5 8.5t-7.5 22.5v129q0 14 7.5 22.5t20.5 8.5h393zM1107 1403q13 0 20.5 -8.5t7.5 -22.5v-70q0 -133 -20 -267.5t-49 -222.5
q-7 -24 -32 -24h-82q-30 0 -24 35q29 175 25 389h-239q-13 0 -20.5 8.5t-7.5 22.5v129q0 14 7.5 22.5t20.5 8.5h393z" />
    <glyph glyph-name="quotedblbase" unicode="&#x201e;" 
d="M516 191q13 0 20.5 -8.5t7.5 -22.5v-70q0 -133 -20 -267.5t-49 -222.5q-7 -24 -32 -24h-82q-30 0 -24 35q29 175 25 389h-239q-13 0 -20.5 8.5t-7.5 22.5v129q0 14 7.5 22.5t20.5 8.5h393zM1107 191q13 0 20.5 -8.5t7.5 -22.5v-70q0 -133 -20 -267.5t-49 -222.5
q-7 -24 -32 -24h-82q-30 0 -24 35q29 175 25 389h-239q-13 0 -20.5 8.5t-7.5 22.5v129q0 14 7.5 22.5t20.5 8.5h393z" />
    <glyph glyph-name="dagger" unicode="&#x2020;" 
d="M1003 1154q13 0 21.5 -8t8.5 -22v-108q0 -14 -8.5 -22t-21.5 -8h-304v-303q0 -13 -8.5 -21.5t-21.5 -8.5h-108q-13 0 -21.5 8.5t-8.5 21.5v303h-303q-14 0 -22 8t-8 22v108q0 14 8 22t22 8h303v304q0 14 8.5 22t21.5 8h108q13 0 21.5 -8t8.5 -22v-304h304z" />
    <glyph glyph-name="daggerdbl" unicode="&#x2021;" 
d="M699 390h304q13 0 21.5 -8t8.5 -22v-108q0 -14 -8.5 -22t-21.5 -8h-304v-303q0 -13 -8.5 -21.5t-21.5 -8.5h-108q-13 0 -21.5 8.5t-8.5 21.5v303h-303q-14 0 -22 8t-8 22v108q0 14 8 22t22 8h303v596h-303q-14 0 -22 8t-8 22v108q0 14 8 22t22 8h303v304q0 14 8.5 22
t21.5 8h108q13 0 21.5 -8t8.5 -22v-304h304q13 0 21.5 -8t8.5 -22v-108q0 -14 -8.5 -22t-21.5 -8h-304v-596z" />
    <glyph glyph-name="bullet" unicode="&#x2022;" 
d="M616 322q-95 0 -162 67t-67 161t67 161t162 67q94 0 161 -67t67 -161t-67 -161t-161 -67z" />
    <glyph glyph-name="ellipsis" unicode="&#x2026;" 
d="M207 -27q-61 0 -103.5 42.5t-42.5 102.5q0 61 42.5 104t103.5 43t103 -43t42 -104q0 -60 -42 -102.5t-103 -42.5zM615 -27q-61 0 -103.5 42.5t-42.5 102.5q0 61 42.5 104t103.5 43t103 -43t42 -104q0 -60 -42 -102.5t-103 -42.5zM1024 -27q-61 0 -103.5 42.5t-42.5 102.5
q0 61 42.5 104t103.5 43t103 -43t42 -104q0 -60 -42 -102.5t-103 -42.5z" />
    <glyph glyph-name="perthousand" unicode="&#x2030;" 
d="M239 1410q204 0 204 -275q0 -278 -204 -278q-203 0 -203 278q0 275 203 275zM239 1261q-39 0 -53 -29.5t-14 -96.5q0 -69 14 -99t53 -30q40 0 54 30t14 99q0 67 -14 96.5t-54 29.5zM778 1167q22 -18 6 -42l-635 -941q-16 -24 -38 -6l-69 58q-21 18 -6 42l634 940
q17 25 38 6zM840 543q204 0 204 -275q0 -278 -204 -278q-85 0 -135 55q-50 -55 -136 -55q-203 0 -203 278q0 275 203 275q87 0 136 -54q49 54 135 54zM569 139q40 0 54.5 30.5t14.5 98.5q0 67 -14.5 96.5t-54.5 29.5q-39 0 -53 -29.5t-14 -96.5q0 -68 14 -98.5t53 -30.5z
M840 139q40 0 54.5 30.5t14.5 98.5q0 67 -14.5 96.5t-54.5 29.5q-39 0 -53 -29.5t-14 -96.5q0 -68 14 -98.5t53 -30.5z" />
    <glyph glyph-name="guilsinglleft" unicode="&#x2039;" 
d="M852 944l-256 -382l256 -382q11 -16 5 -26t-25 -10h-164q-25 0 -36 20l-254 378q-14 20 0 40l254 378q11 20 36 20h164q19 0 25 -10t-5 -26z" />
    <glyph glyph-name="guilsinglright" unicode="&#x203a;" 
d="M378 944q-11 16 -5 26t25 10h164q25 0 36 -20l254 -378q14 -20 0 -40l-254 -378q-11 -20 -36 -20h-164q-19 0 -25 10t5 26l256 382z" />
    <glyph glyph-name="fraction" unicode="&#x2044;" 
d="M1067 1400q17 0 23.5 -10t-1.5 -26l-723 -1340q-12 -24 -36 -24h-164q-18 0 -25 9t1 25l725 1344q12 22 35 22h165z" />
    <glyph glyph-name="Euro" unicode="&#x20ac;" 
d="M1097 400q29 0 26 -33q-21 -216 -131.5 -306.5t-334.5 -90.5q-155 0 -251.5 45.5t-153 157.5t-70.5 305h-93q-13 0 -21.5 8t-8.5 22v107q0 13 8.5 21.5t21.5 8.5h88v84h-88q-13 0 -21.5 8.5t-8.5 21.5v108q0 13 8.5 21.5t21.5 8.5h92q10 150 42 251t92.5 161t142 85.5
t199.5 25.5q224 0 334.5 -90.5t131.5 -306.5q3 -33 -26 -33h-144q-28 0 -32 26q-16 112 -75 150t-183 38q-64 0 -106.5 -11.5t-79.5 -43.5t-58 -94t-29 -158h258q14 0 22 -8.5t8 -21.5v-108q0 -13 -8 -21.5t-22 -8.5h-263v-84h263q14 0 22 -8.5t8 -21.5v-107q0 -14 -8 -22
t-22 -8h-256q9 -92 30.5 -151t57.5 -89.5t78 -41.5t105 -11q127 0 184 38t74 151q4 26 32 26h144z" />
    <glyph glyph-name="uni2116" unicode="&#x2116;" 
d="M957 1410q119 0 182.5 -79t63.5 -231t-63.5 -231t-182.5 -79t-182.5 79t-63.5 231t63.5 231t182.5 79zM617 1400q13 0 21.5 -8t8.5 -22v-1340q0 -14 -8.5 -22t-21.5 -8h-168q-32 0 -36 20l-217 979l8 -192v-777q0 -14 -8 -22t-22 -8h-117q-13 0 -21.5 8t-8.5 22v1340
q0 14 8.5 22t21.5 8h169q32 0 36 -20l217 -965l-9 218v737q0 14 8 22t22 8h117zM957 942q52 0 77 37.5t25 120.5q0 84 -25 122t-77 38t-77 -38t-25 -122t24.5 -121t77.5 -37zM1170 697q14 0 22 -8.5t8 -21.5v-119q0 -14 -8 -22t-22 -8h-426q-14 0 -22 8t-8 22v119
q0 13 8 21.5t22 8.5h426z" />
    <glyph glyph-name="trademark" unicode="&#x2122;" 
d="M526 1400q10 0 10 -10v-69q0 -10 -10 -10h-135v-401q0 -10 -10 -10h-77q-10 0 -10 10v401h-134q-10 0 -10 10v69q0 10 10 10h366zM1071 1400q10 0 10 -10v-480q0 -10 -10 -10h-72q-10 0 -10 10v335l-90 -338q-3 -7 -12 -7h-80q-5 0 -9 7l-92 338v-335q0 -10 -10 -10h-72
q-10 0 -10 10v480q0 10 10 10h104q8 0 12 -7l106 -372l108 372q4 7 12 7h105z" />
    <glyph glyph-name="oneeighth" unicode="&#x215b;" 
d="M195 776q-30 0 -30 25v100q0 25 30 25h349v497q-128 -102 -311 -102q-30 0 -30 24v113q0 26 30 26q158 0 311 116h186q30 0 30 -25v-649h275q30 0 30 -25v-100q0 -25 -30 -25h-840zM1185 689q13 0 21.5 -8.5t8.5 -21.5v-94q0 -13 -8.5 -21.5t-21.5 -8.5h-1140
q-13 0 -21.5 8.5t-8.5 21.5v94q0 13 8.5 21.5t21.5 8.5h1140zM897 84q115 -34 168 -85.5t53 -136.5q0 -252 -507 -252q-506 0 -506 252q0 85 52.5 136.5t167.5 85.5q-72 15 -111.5 60t-39.5 104q0 101 109.5 158.5t327.5 57.5t327.5 -57.5t109.5 -158.5q0 -59 -39.5 -104
t-111.5 -60zM611 314q-133 0 -186.5 -21.5t-53.5 -68.5q0 -44 54.5 -65t185.5 -21t185.5 21t54.5 65q0 47 -53.5 68.5t-186.5 21.5zM611 -233q154 0 226 25t72 85q0 66 -72.5 93t-225.5 27t-225.5 -27t-72.5 -93q0 -60 72 -85t226 -25z" />
    <glyph glyph-name="threeeighths" unicode="&#x215c;" 
d="M873 1195q123 -24 185.5 -69t62.5 -132q0 -239 -508 -239q-124 0 -211 11t-155 38t-101 75.5t-33 120.5q0 25 28 27l149 14q30 2 32 -24q4 -62 71 -84.5t212 -22.5q146 0 218 21t72 78q0 64 -82 90t-288 26q-30 0 -30 25v69q0 26 31 26q135 0 212 11.5t108 34t31 60.5
q0 104 -264 104q-130 0 -199.5 -28.5t-73.5 -99.5q-2 -26 -32 -24l-149 13q-29 3 -29 27q0 141 126.5 203.5t362.5 62.5q218 0 342 -56.5t124 -172.5q0 -71 -57 -119t-155 -66zM1185 689q13 0 21.5 -8.5t8.5 -21.5v-94q0 -13 -8.5 -21.5t-21.5 -8.5h-1140q-13 0 -21.5 8.5
t-8.5 21.5v94q0 13 8.5 21.5t21.5 8.5h1140zM897 84q115 -34 168 -85.5t53 -136.5q0 -252 -507 -252q-506 0 -506 252q0 85 52.5 136.5t167.5 85.5q-72 15 -111.5 60t-39.5 104q0 101 109.5 158.5t327.5 57.5t327.5 -57.5t109.5 -158.5q0 -59 -39.5 -104t-111.5 -60z
M371 224q0 -44 54.5 -65t185.5 -21t185.5 21t54.5 65q0 47 -53.5 68.5t-186.5 21.5t-186.5 -21.5t-53.5 -68.5zM611 -233q154 0 226 25t72 85q0 66 -72.5 93t-225.5 27t-225.5 -27t-72.5 -93q0 -60 72 -85t226 -25z" />
    <glyph glyph-name="fiveeighths" unicode="&#x215d;" 
d="M288 1043q26 0 35 -22q22 -59 92 -82t192 -23q307 0 307 146q0 153 -307 153q-173 0 -273 -65q-23 -14 -42 -9l-124 36q-26 9 -18 30l121 370q6 22 32 22h661q30 0 30 -25v-93q0 -25 -30 -25h-540l-53 -148q96 41 268 41q229 0 349.5 -71.5t120.5 -215.5
q0 -145 -126.5 -218.5t-372.5 -73.5q-224 0 -347.5 57.5t-140.5 190.5q-1 12 6.5 18.5t21.5 6.5h138zM1185 689q13 0 21.5 -8.5t8.5 -21.5v-94q0 -13 -8.5 -21.5t-21.5 -8.5h-1140q-13 0 -21.5 8.5t-8.5 21.5v94q0 13 8.5 21.5t21.5 8.5h1140zM901 84q115 -34 168 -85.5
t53 -136.5q0 -252 -507 -252q-506 0 -506 252q0 85 52.5 136.5t167.5 85.5q-72 15 -111.5 60t-39.5 104q0 101 109.5 158.5t327.5 57.5t327.5 -57.5t109.5 -158.5q0 -59 -39.5 -104t-111.5 -60zM375 224q0 -44 54.5 -65t185.5 -21t185.5 21t54.5 65q0 47 -53.5 68.5
t-186.5 21.5t-186.5 -21.5t-53.5 -68.5zM615 -233q154 0 226 25t72 85q0 66 -72.5 93t-225.5 27t-225.5 -27t-72.5 -93q0 -60 72 -85t226 -25z" />
    <glyph glyph-name="seveneighths" unicode="&#x215e;" 
d="M170 1443q-30 0 -30 25v106q0 25 30 25h891q30 0 30 -25v-115q0 -22 -8 -32l-561 -626q-2 -2 -7 -8t-7.5 -8t-6.5 -5t-8 -4t-9 -1h-179q-15 0 -22.5 7.5t0.5 18.5l578 642h-691zM1185 689q13 0 21.5 -8.5t8.5 -21.5v-94q0 -13 -8.5 -21.5t-21.5 -8.5h-1140
q-13 0 -21.5 8.5t-8.5 21.5v94q0 13 8.5 21.5t21.5 8.5h1140zM901 84q115 -34 168 -85.5t53 -136.5q0 -252 -507 -252q-506 0 -506 252q0 85 52.5 136.5t167.5 85.5q-72 15 -111.5 60t-39.5 104q0 101 109.5 158.5t327.5 57.5t327.5 -57.5t109.5 -158.5q0 -59 -39.5 -104
t-111.5 -60zM615 314q-133 0 -186.5 -21.5t-53.5 -68.5q0 -44 54.5 -65t185.5 -21t185.5 21t54.5 65q0 47 -53.5 68.5t-186.5 21.5zM615 -233q154 0 226 25t72 85q0 66 -72.5 93t-225.5 27t-225.5 -27t-72.5 -93q0 -60 72 -85t226 -25z" />
    <glyph glyph-name="partialdiff" unicode="&#x2202;" 
d="M609 864q88 0 180 -31.5t124 -84.5v182q0 90 -21 150t-63 91t-90.5 43t-115.5 12q-103 0 -172.5 -43t-84.5 -127q-8 -32 -34 -29l-133 10q-30 3 -30 33q0 163 121 254.5t327 91.5q250 0 377.5 -116t126.5 -374l-1 -491q-1 -218 -130 -339t-365 -121q-237 0 -367 120
t-130 333q0 201 128 318.5t353 117.5zM625 162q137 0 212.5 65t75.5 201q0 126 -76.5 191t-211.5 65t-211.5 -65t-76.5 -191q0 -136 75.5 -201t212.5 -65z" />
    <glyph glyph-name="product" unicode="&#x220f;" 
d="M133 1570q0 14 8.5 22t21.5 8h904q13 0 21.5 -8t8.5 -22v-1920q0 -14 -8.5 -22t-21.5 -8h-148q-13 0 -21.5 8t-8.5 22v1749h-548v-1749q0 -14 -8.5 -22t-21.5 -8h-148q-13 0 -21.5 8t-8.5 22v1920z" />
    <glyph glyph-name="summation" unicode="&#x2211;" 
d="M1085 1600q13 0 21.5 -8t8.5 -22v-142q0 -14 -8.5 -22t-21.5 -8h-712l536 -767q13 -21 0 -42l-536 -767h712q13 0 21.5 -8t8.5 -22v-142q0 -14 -8.5 -22t-21.5 -8h-940q-13 0 -21.5 8t-8.5 22v152q0 18 12 36l538 772l-538 772q-12 18 -12 36v152q0 14 8.5 22t21.5 8h940
z" />
    <glyph glyph-name="minus" unicode="&#x2212;" 
d="M1003 653q13 0 21.5 -8.5t8.5 -21.5v-108q0 -13 -8.5 -21.5t-21.5 -8.5h-775q-14 0 -22 8.5t-8 21.5v108q0 13 8 21.5t22 8.5h775z" />
    <glyph glyph-name="radical" unicode="&#x221a;" 
d="M1154 1600q32 0 26 -34l-412 -1920q-6 -26 -32 -26h-190q-27 0 -34 25l-232 861h-200q-14 0 -22 8t-8 22v142q0 14 8 22t22 8h312q28 0 34 -26l210 -836l358 1728q6 26 32 26h128z" />
    <glyph glyph-name="infinity" unicode="&#x221e;" 
d="M921 852q130 0 197 -87t67 -242q0 -158 -67 -245.5t-197 -87.5q-41 0 -77.5 11.5t-65 30t-58.5 49.5t-52.5 60.5t-52.5 74.5q-38 -56 -66.5 -91.5t-66 -69t-79.5 -49.5t-92 -16q-131 0 -198.5 87.5t-67.5 245.5q0 155 67.5 242t198.5 87q94 0 160 -55t144 -170
q38 56 66.5 91t66 69t80 49.5t93.5 15.5zM334 336q22 0 43.5 10t37 21.5t41 42t39 48.5t46.5 64q-39 54 -58 78t-47 54t-51.5 41t-50.5 11q-138 0 -138 -184q0 -186 138 -186zM897 336q137 0 137 186q0 184 -137 184q-27 0 -51 -11t-52.5 -41t-47 -54t-58.5 -78
q42 -57 59 -79t46.5 -53.5t53 -42.5t50.5 -11z" />
    <glyph glyph-name="integral" unicode="&#x222b;" 
d="M889 1472q94 0 180.5 -17.5t86.5 -47.5v-113q0 -15 -10 -23t-26 -5q-4 1 -23.5 5.5t-38 8t-51.5 6.5t-69 3q-105 0 -159.5 -49.5t-54.5 -181.5v-1054q0 -91 -20 -160.5t-53.5 -113t-83.5 -71t-104.5 -38.5t-121.5 -11q-93 0 -180 17.5t-87 47.5v113q0 15 10 23t26 5
q4 -1 23.5 -5.5t38 -8t52 -6.5t69.5 -3q105 0 160 49.5t55 181.5v1054q0 91 19.5 160.5t53.5 113t83.5 71t103.5 38.5t121 11z" />
    <glyph glyph-name="approxequal" unicode="&#x2248;" 
d="M421 900q54 0 101.5 -18.5t82 -45.5t67 -54t70 -45.5t76.5 -18.5q51 0 83 25t42 55q7 19 25 19h74q26 0 23 -23q-4 -102 -75.5 -161.5t-181.5 -59.5q-54 0 -101.5 18.5t-82.5 45.5t-67 54t-69 45.5t-75 18.5q-90 0 -125 -79q-9 -20 -26 -20h-75q-25 0 -22 29
q11 99 80 157t176 58zM421 526q54 0 101.5 -18.5t82 -45.5t67 -54t70 -45.5t76.5 -18.5q51 0 83 25t42 55q7 19 25 19h74q26 0 23 -23q-4 -102 -75.5 -161.5t-181.5 -59.5q-54 0 -101.5 18.5t-82.5 45.5t-67 54t-69 45.5t-75 18.5q-90 0 -125 -79q-9 -20 -26 -20h-75
q-25 0 -22 29q11 99 80 157t176 58z" />
    <glyph glyph-name="notequal" unicode="&#x2260;" 
d="M1003 663h-257l-72 -187h329q13 0 21.5 -8t8.5 -22v-107q0 -13 -8.5 -21.5t-21.5 -8.5h-394l-110 -285q-9 -24 -36 -24h-117q-36 0 -24 34l106 275h-200q-14 0 -22 8.5t-8 21.5v107q0 14 8 22t22 8h265l73 187h-338q-14 0 -22 8.5t-8 21.5v107q0 14 8 22t22 8h402
l104 268q9 24 36 24h117q36 0 24 -34l-100 -258h192q13 0 21.5 -8t8.5 -22v-107q0 -13 -8.5 -21.5t-21.5 -8.5z" />
    <glyph glyph-name="lessequal" unicode="&#x2264;" 
d="M989 1013q15 -25 -14 -39l-526 -231l526 -233q27 -13 14 -38l-55 -99q-14 -25 -41 -11l-642 288q-23 9 -23 33v119q0 23 23 34l642 287q27 14 41 -11zM1003 168q13 0 21.5 -8t8.5 -22v-108q0 -14 -8.5 -22t-21.5 -8h-775q-14 0 -22 8t-8 22v108q0 14 8 22t22 8h775z" />
    <glyph glyph-name="greaterequal" unicode="&#x2265;" 
d="M241 1013l55 99q14 25 41 11l642 -287q23 -11 23 -34v-119q0 -24 -23 -33l-642 -288q-27 -14 -41 11l-55 99q-13 25 14 38l526 233l-526 231q-29 14 -14 39zM227 168h775q14 0 22 -8t8 -22v-108q0 -14 -8 -22t-22 -8h-775q-13 0 -21.5 8t-8.5 22v108q0 14 8.5 22t21.5 8z
" />
    <glyph glyph-name="lozenge" unicode="&#x25ca;" 
d="M727 1400q23 0 34 -22l326 -658q10 -20 0 -40l-326 -658q-11 -22 -34 -22h-224q-23 0 -34 22l-325 658q-10 20 0 40l325 658q11 22 34 22h224zM615 171l260 529l-260 529l-260 -529z" />
    <glyph glyph-name="i.loclTRK" 
d="M615 1181q-47 0 -80.5 34t-33.5 82q0 46 33.5 79.5t80.5 33.5t80.5 -33.5t33.5 -79.5q0 -48 -33.5 -82t-80.5 -34zM1051 181q13 0 21.5 -8.5t8.5 -21.5v-121q0 -14 -8.5 -22t-21.5 -8h-861q-14 0 -22 8t-8 22v121q0 13 8 21.5t22 8.5h348v618h-298q-14 0 -22 8.5t-8 21.5
v121q0 14 8 22t22 8h484q14 0 22 -8t8 -22v-769h297z" />
    <glyph glyph-name="g.ss01" 
d="M1114 980q14 0 22 -8t8 -22v-92q0 -30 -30 -28l-154 7q80 -84 80 -197q0 -159 -94.5 -235.5t-297.5 -76.5h-240q-115 0 -115 -90q0 -48 32 -71t108 -23h387q149 0 217.5 -63t68.5 -187q0 -107 -48.5 -169t-159 -90.5t-301.5 -28.5q-188 0 -298.5 28t-157.5 83.5
t-47 147.5q0 76 39 127.5t110 70.5q-60 21 -92 60t-32 109q0 72 34 111.5t116 60.5q-128 67 -128 253q0 163 103.5 243t346.5 80h523zM591 482q150 0 204.5 35.5t54.5 130.5t-55.5 132.5t-203.5 37.5t-203.5 -37.5t-55.5 -132.5t54.5 -130.5t204.5 -35.5zM780 -14h-449
q-35 -35 -35 -92q0 -48 24.5 -74.5t90.5 -40t186 -13.5q122 0 190 13.5t95 40.5t27 74q0 50 -28 71t-101 21z" />
    <glyph glyph-name="gbreve.ss01" 
d="M777 1383q6 29 32 29h86q33 0 30 -31q-13 -118 -94.5 -194.5t-215.5 -76.5t-215.5 76.5t-93.5 194.5q-3 31 29 31h86q26 0 32 -29q11 -53 53.5 -89.5t108.5 -36.5t109 36.5t53 89.5zM1114 980q14 0 22 -8t8 -22v-92q0 -30 -30 -28l-154 7q80 -84 80 -197
q0 -159 -94.5 -235.5t-297.5 -76.5h-240q-115 0 -115 -90q0 -48 32 -71t108 -23h387q149 0 217.5 -63t68.5 -187q0 -107 -48.5 -169t-159 -90.5t-301.5 -28.5q-188 0 -298.5 28t-157.5 83.5t-47 147.5q0 76 39 127.5t110 70.5q-60 21 -92 60t-32 109q0 72 34 111.5t116 60.5
q-128 67 -128 253q0 163 103.5 243t346.5 80h523zM591 482q150 0 204.5 35.5t54.5 130.5t-55.5 132.5t-203.5 37.5t-203.5 -37.5t-55.5 -132.5t54.5 -130.5t204.5 -35.5zM780 -14h-449q-35 -35 -35 -92q0 -48 24.5 -74.5t90.5 -40t186 -13.5q122 0 190 13.5t95 40.5t27 74
q0 50 -28 71t-101 21z" />
    <glyph glyph-name="gcommaaccent.ss01" 
d="M429 1206q-28 0 -28 28v61q0 118 20 236.5t49 196.5q9 22 33 22h83q30 0 24 -31q-13 -68 -20 -170t-5 -174h242q28 0 28 -28v-113q0 -28 -28 -28h-398zM1114 980q14 0 22 -8t8 -22v-92q0 -30 -30 -28l-154 7q80 -84 80 -197q0 -159 -94.5 -235.5t-297.5 -76.5h-240
q-115 0 -115 -90q0 -48 32 -71t108 -23h387q149 0 217.5 -63t68.5 -187q0 -107 -48.5 -169t-159 -90.5t-301.5 -28.5q-188 0 -298.5 28t-157.5 83.5t-47 147.5q0 76 39 127.5t110 70.5q-60 21 -92 60t-32 109q0 72 34 111.5t116 60.5q-128 67 -128 253q0 163 103.5 243
t346.5 80h523zM591 482q150 0 204.5 35.5t54.5 130.5t-55.5 132.5t-203.5 37.5t-203.5 -37.5t-55.5 -132.5t54.5 -130.5t204.5 -35.5zM780 -14h-449q-35 -35 -35 -92q0 -48 24.5 -74.5t90.5 -40t186 -13.5q122 0 190 13.5t95 40.5t27 74q0 50 -28 71t-101 21z" />
    <glyph glyph-name="gdotaccent.ss01" 
d="M615 1181q-47 0 -80.5 34t-33.5 82q0 46 33.5 79.5t80.5 33.5t80.5 -33.5t33.5 -79.5q0 -48 -33.5 -82t-80.5 -34zM1114 980q14 0 22 -8t8 -22v-92q0 -30 -30 -28l-154 7q80 -84 80 -197q0 -159 -94.5 -235.5t-297.5 -76.5h-240q-115 0 -115 -90q0 -48 32 -71t108 -23
h387q149 0 217.5 -63t68.5 -187q0 -107 -48.5 -169t-159 -90.5t-301.5 -28.5q-188 0 -298.5 28t-157.5 83.5t-47 147.5q0 76 39 127.5t110 70.5q-60 21 -92 60t-32 109q0 72 34 111.5t116 60.5q-128 67 -128 253q0 163 103.5 243t346.5 80h523zM591 482q150 0 204.5 35.5
t54.5 130.5t-55.5 132.5t-203.5 37.5t-203.5 -37.5t-55.5 -132.5t54.5 -130.5t204.5 -35.5zM780 -14h-449q-35 -35 -35 -92q0 -48 24.5 -74.5t90.5 -40t186 -13.5q122 0 190 13.5t95 40.5t27 74q0 50 -28 71t-101 21z" />
    <glyph glyph-name="zero.dnom" 
d="M615 992q268 0 387 -114t119 -366v-57q0 -253 -118.5 -367t-387.5 -114q-268 0 -386.5 114t-118.5 367v57q0 252 118.5 366t386.5 114zM615 799q-89 0 -150 -17.5t-96 -53.5t-49.5 -84.5t-14.5 -116.5v-87q0 -139 68 -206t242 -67t242.5 67t68.5 206v87q0 138 -68.5 205
t-242.5 67z" />
    <glyph glyph-name="one.dnom" 
d="M1035 179q13 0 21.5 -8.5t8.5 -21.5v-119q0 -14 -8.5 -22t-21.5 -8h-840q-13 0 -21.5 8t-8.5 22v119q0 13 8.5 21.5t21.5 8.5h349v591q-127 -122 -311 -122q-30 0 -30 29v134q0 31 30 31q76 0 157.5 36.5t153.5 101.5h186q14 0 22 -8t8 -22v-771h275z" />
    <glyph glyph-name="two.dnom" 
d="M1041 176q13 0 21.5 -8t8.5 -22v-116q0 -14 -8.5 -22t-21.5 -8h-865q-14 0 -22 8t-8 22v91q0 77 31 137.5t81 98t114.5 67.5t131.5 48t131.5 38t114.5 38.5t81 48.5t31 69q0 70 -59 103t-183 33q-136 0 -205 -39.5t-75 -125.5q-2 -31 -32 -28l-142 16q-28 3 -28 32
q0 165 123.5 249t347.5 84q215 0 337.5 -85t122.5 -239q0 -71 -37 -124.5t-96 -85.5t-130.5 -56.5t-143.5 -44.5t-131 -42t-96 -56.5t-37 -80.5h643z" />
    <glyph glyph-name="three.dnom" 
d="M879 497q123 -28 185.5 -81.5t62.5 -157.5q0 -284 -508 -284q-98 0 -172 8t-138 27.5t-104.5 52.5t-63 84t-22.5 120q0 29 28 32l149 16q30 3 32 -28q4 -73 71 -100.5t212 -27.5q71 0 121 5t90 18t59.5 36.5t19.5 58.5q0 77 -82.5 107.5t-287.5 30.5q-30 0 -30 30v82
q0 31 31 31q198 0 274.5 29t76.5 97q0 124 -264 124q-130 0 -199.5 -34t-73.5 -119q-2 -31 -32 -28l-149 15q-29 3 -29 32q0 168 126.5 242.5t362.5 74.5q217 0 341.5 -67.5t124.5 -205.5q0 -84 -57 -141t-155 -79z" />
    <glyph glyph-name="four.dnom" 
d="M938 980q14 0 22 -8t8 -22v-440h139q13 0 21.5 -8t8.5 -22v-119q0 -13 -8.5 -21.5t-21.5 -8.5h-139v-301q0 -14 -8 -22t-22 -8h-156q-14 0 -22 8t-8 22v301h-619q-13 0 -21.5 8.5t-8.5 21.5v589q0 14 8.5 22t21.5 8h156q13 0 21.5 -8t8.5 -22v-440h433v440q0 14 8 22
t22 8h156z" />
    <glyph glyph-name="five.dnom" 
d="M301 319q26 0 35 -26q22 -70 92 -97.5t192 -27.5q307 0 307 174q0 181 -307 181q-174 0 -273 -77q-22 -16 -42 -10l-124 42q-26 11 -18 36l121 440q6 26 32 26h661q13 0 21.5 -8t8.5 -22v-110q0 -14 -8.5 -22t-21.5 -8h-540l-53 -176q94 49 268 49q229 0 349.5 -85
t120.5 -256q0 -172 -126.5 -260t-372.5 -88q-224 0 -347.5 68.5t-140.5 226.5q-3 30 28 30h138z" />
    <glyph glyph-name="six.dnom" 
d="M641 592q239 0 360 -73t121 -228q0 -317 -497 -317q-250 0 -372 80.5t-123 247.5l-1 308q-1 197 126.5 289t377.5 92q213 0 336 -72t123 -196q0 -25 -30 -28l-133 -10q-26 -3 -34 23q-29 112 -268 112q-65 0 -114.5 -9.5t-90.5 -31.5t-63 -63.5t-22 -101.5v-102
q33 42 121.5 61t182.5 19zM625 154q149 0 218.5 30.5t69.5 111.5q0 79 -68.5 107t-219.5 28q-141 0 -214.5 -30t-73.5 -101q0 -83 70 -114.5t218 -31.5z" />
    <glyph glyph-name="seven.dnom" 
d="M1101 814q0 -27 -8 -38l-561 -745q-2 -3 -7.5 -10t-7 -9t-6 -6t-8.5 -5t-9 -1h-179q-15 0 -22.5 9t0.5 22l578 763h-691q-14 0 -22 8t-8 22v126q0 14 8 22t22 8h891q13 0 21.5 -8t8.5 -22v-136z" />
    <glyph glyph-name="eight.dnom" 
d="M901 538q115 -40 168 -101.5t53 -161.5q0 -300 -507 -300q-506 0 -506 300q0 100 52.5 161.5t167.5 101.5q-72 18 -111.5 71.5t-39.5 123.5q0 121 109.5 189t327.5 68t327.5 -68t109.5 -189q0 -70 -39.5 -123.5t-111.5 -71.5zM375 705q0 -52 54.5 -77t185.5 -25t185.5 25
t54.5 77q0 56 -53.5 81.5t-186.5 25.5t-186.5 -25.5t-53.5 -81.5zM615 162q154 0 226 29.5t72 100.5q0 78 -72.5 110.5t-225.5 32.5t-225.5 -32.5t-72.5 -110.5q0 -71 72 -100.5t226 -29.5z" />
    <glyph glyph-name="nine.dnom" 
d="M590 373q-240 0 -360.5 73t-120.5 228q0 317 496 317q250 0 372 -80.5t123 -247.5l2 -308q1 -197 -127.5 -289t-377.5 -92q-226 0 -352.5 71.5t-126.5 196.5q0 25 30 28l134 10q26 1 33 -23q28 -112 288 -112q65 0 114.5 9.5t91 31.5t63 63.5t21.5 101.5v102
q-33 -42 -121.5 -61t-181.5 -19zM605 811q-149 0 -218.5 -30.5t-69.5 -111.5q0 -79 68.5 -107t219.5 -28q141 0 214.5 30t73.5 101q0 83 -70 114.5t-218 31.5z" />
    <glyph glyph-name="zero.numr" 
d="M615 1201q268 0 387 -114t119 -366v-57q0 -253 -118.5 -367t-387.5 -114q-268 0 -386.5 114t-118.5 367v57q0 252 118.5 366t386.5 114zM615 1008q-89 0 -150 -17.5t-96 -53.5t-49.5 -84.5t-14.5 -116.5v-87q0 -139 68 -206t242 -67t242.5 67t68.5 206v87
q0 138 -68.5 205t-242.5 67z" />
    <glyph glyph-name="one.numr" 
d="M1035 389q13 0 21.5 -8.5t8.5 -21.5v-119q0 -14 -8.5 -22t-21.5 -8h-840q-13 0 -21.5 8t-8.5 22v119q0 13 8.5 21.5t21.5 8.5h349v591q-127 -122 -311 -122q-30 0 -30 29v134q0 31 30 31q76 0 157.5 36.5t153.5 101.5h186q14 0 22 -8t8 -22v-771h275z" />
    <glyph glyph-name="two.numr" 
d="M1041 386q13 0 21.5 -8t8.5 -22v-116q0 -14 -8.5 -22t-21.5 -8h-865q-14 0 -22 8t-8 22v91q0 77 31 137.5t81 98t114.5 67.5t131.5 48t131.5 38t114.5 38.5t81 48.5t31 69q0 70 -59 103t-183 33q-136 0 -205 -39.5t-75 -125.5q-2 -31 -32 -28l-142 16q-28 3 -28 32
q0 165 123.5 249t347.5 84q215 0 337.5 -85t122.5 -239q0 -71 -37 -124.5t-96 -85.5t-130.5 -56.5t-143.5 -44.5t-131 -42t-96 -56.5t-37 -80.5h643z" />
    <glyph glyph-name="three.numr" 
d="M879 707q123 -28 185.5 -81.5t62.5 -157.5q0 -284 -508 -284q-98 0 -172 8t-138 27.5t-104.5 52.5t-63 84t-22.5 120q0 29 28 32l149 16q30 3 32 -28q4 -73 71 -100.5t212 -27.5q71 0 121 5t90 18t59.5 36.5t19.5 58.5q0 77 -82.5 107.5t-287.5 30.5q-30 0 -30 30v82
q0 31 31 31q198 0 274.5 29t76.5 97q0 124 -264 124q-130 0 -199.5 -34t-73.5 -119q-2 -31 -32 -28l-149 15q-29 3 -29 32q0 168 126.5 242.5t362.5 74.5q217 0 341.5 -67.5t124.5 -205.5q0 -84 -57 -141t-155 -79z" />
    <glyph glyph-name="four.numr" 
d="M938 1190q14 0 22 -8t8 -22v-440h139q13 0 21.5 -8t8.5 -22v-119q0 -13 -8.5 -21.5t-21.5 -8.5h-139v-301q0 -14 -8 -22t-22 -8h-156q-14 0 -22 8t-8 22v301h-619q-13 0 -21.5 8.5t-8.5 21.5v589q0 14 8.5 22t21.5 8h156q13 0 21.5 -8t8.5 -22v-440h433v440q0 14 8 22
t22 8h156z" />
    <glyph glyph-name="five.numr" 
d="M301 529q26 0 35 -26q22 -70 92 -97.5t192 -27.5q307 0 307 174q0 181 -307 181q-174 0 -273 -77q-22 -16 -42 -10l-124 42q-26 11 -18 36l121 440q6 26 32 26h661q13 0 21.5 -8t8.5 -22v-110q0 -14 -8.5 -22t-21.5 -8h-540l-53 -176q94 49 268 49q229 0 349.5 -85
t120.5 -256q0 -172 -126.5 -260t-372.5 -88q-224 0 -347.5 68.5t-140.5 226.5q-3 30 28 30h138z" />
    <glyph glyph-name="six.numr" 
d="M641 802q239 0 360 -73t121 -228q0 -317 -497 -317q-250 0 -372 80.5t-123 247.5l-1 308q-1 197 126.5 289t377.5 92q213 0 336 -72t123 -196q0 -25 -30 -28l-133 -10q-26 -3 -34 23q-29 112 -268 112q-65 0 -114.5 -9.5t-90.5 -31.5t-63 -63.5t-22 -101.5v-102
q33 42 121.5 61t182.5 19zM625 364q149 0 218.5 30.5t69.5 111.5q0 79 -68.5 107t-219.5 28q-141 0 -214.5 -30t-73.5 -101q0 -83 70 -114.5t218 -31.5z" />
    <glyph glyph-name="seven.numr" 
d="M1101 1024q0 -27 -8 -38l-561 -745q-2 -3 -7.5 -10t-7 -9t-6 -6t-8.5 -5t-9 -1h-179q-15 0 -22.5 9t0.5 22l578 763h-691q-14 0 -22 8t-8 22v126q0 14 8 22t22 8h891q13 0 21.5 -8t8.5 -22v-136z" />
    <glyph glyph-name="eight.numr" 
d="M901 748q115 -40 168 -101.5t53 -161.5q0 -300 -507 -300q-506 0 -506 300q0 100 52.5 161.5t167.5 101.5q-72 18 -111.5 71.5t-39.5 123.5q0 121 109.5 189t327.5 68t327.5 -68t109.5 -189q0 -70 -39.5 -123.5t-111.5 -71.5zM375 915q0 -52 54.5 -77t185.5 -25t185.5 25
t54.5 77q0 56 -53.5 81.5t-186.5 25.5t-186.5 -25.5t-53.5 -81.5zM615 372q154 0 226 29.5t72 100.5q0 78 -72.5 110.5t-225.5 32.5t-225.5 -32.5t-72.5 -110.5q0 -71 72 -100.5t226 -29.5z" />
    <glyph glyph-name="nine.numr" 
d="M590 583q-240 0 -360.5 73t-120.5 228q0 317 496 317q250 0 372 -80.5t123 -247.5l2 -308q1 -197 -127.5 -289t-377.5 -92q-226 0 -352.5 71.5t-126.5 196.5q0 25 30 28l134 10q26 1 33 -23q28 -112 288 -112q65 0 114.5 9.5t91 31.5t63 63.5t21.5 101.5v102
q-33 -42 -121.5 -61t-181.5 -19zM605 1021q-149 0 -218.5 -30.5t-69.5 -111.5q0 -79 68.5 -107t219.5 -28q141 0 214.5 30t73.5 101q0 83 -70 114.5t-218 31.5z" />
    <glyph glyph-name="section.ss01" 
d="M612 360q179 -21 251 -42q174 -53 200 -189q5 -26 5 -54q0 -138 -111 -218t-328 -80q-104 0 -184 15.5t-143.5 50t-101 95t-45.5 145.5q-3 30 29 30h148q26 0 29 -22q20 -134 265 -134q231 0 231 122q0 22 -7.5 39t-26 29t-36 20t-51 14.5t-57.5 10t-67 8.5
q-44 5 -69 8.5t-67.5 11t-68 15t-61 20t-57 26.5t-46 35t-38 46t-22.5 57.5t-9 70.5q0 122 92 198q-97 73 -111 216q-3 30 29 30h148q26 0 29 -21q20 -134 265 -134q231 0 231 121q0 22 -7.5 39.5t-26.5 29.5t-35.5 20t-51 14.5t-57 9.5l-67.5 9q-44 5 -69 8.5t-67.5 11
t-68 15t-61 20t-57 26.5t-46 35t-38 45.5t-22.5 57t-9 70.5q0 132 108 210.5t315 78.5q77 0 140 -9t118.5 -31t95 -56.5t64.5 -87t32 -120.5q3 -30 -29 -30h-149q-26 0 -29 22q-20 133 -240 133q-215 0 -215 -111q0 -32 15.5 -54.5t47.5 -37t70 -22.5t94 -15
q180 -21 252 -43q174 -52 199 -189q5 -24 5 -52q0 -142 -113 -219q79 -74 92 -204q3 -30 -29 -30h-149q-26 0 -29 22q-20 133 -240 133q-215 0 -215 -111q0 -42 30 -68.5t75.5 -38.5t121.5 -21z" />
  </font>
</defs>
</svg>
