<?xml version="1.0" standalone="no"?>
<!DOCTYPE svg PUBLIC "-//W3C//DTD SVG 1.1//EN" "http://www.w3.org/Graphics/SVG/1.1/DTD/svg11.dtd" >
<svg xmlns="http://www.w3.org/2000/svg" xmlns:xlink="http://www.w3.org/1999/xlink" version="1.1">
<metadata>
Created by FontForge 20170731 at Sat Sep 24 15:59:51 2016
 By Aleksey,,,
(c) 2016 Connary Fagen
</metadata>
<defs>
<font id="CartographMonoCF-ExtraBold" horiz-adv-x="1230" >
  <font-face 
    font-family="Cartograph Mono CF Extra Bold"
    font-weight="800"
    font-stretch="normal"
    units-per-em="2000"
    panose-1="0 0 9 9 0 0 0 0 0 0"
    ascent="1600"
    descent="-400"
    x-height="980"
    cap-height="1400"
    bbox="-870 -756 1608.5 1903"
    underline-thickness="50"
    underline-position="-200"
    unicode-range="U+0020-25CA"
  />
<missing-glyph horiz-adv-x="990" 
d="M812 1600v-1980h-628v1980h628zM659 1467h-326v-65h128v-73h-130v-66h328v66h-130v73h130v65zM529 1212h-198v-206h328v67h-130v139zM461 1145v-72h-65v72h65zM659 953h-328v-66h130v-73h-130v-65h198v138h130v66zM659 834h-65v-131h-263v-67h328v198zM659 592h-198v-111
h68v46h65v-93h-198v158h-65v-224h328v224zM659 250h-328v-224h328v224zM594 184v-93h-198v93h198zM659 -20h-328v-65h138l-138 -93v-65h328v65h-202l139 93h63v65z" />
    <glyph glyph-name=".notdef" horiz-adv-x="990" 
d="M812 1600v-1980h-628v1980h628zM659 1467h-326v-65h128v-73h-130v-66h328v66h-130v73h130v65zM529 1212h-198v-206h328v67h-130v139zM461 1145v-72h-65v72h65zM659 953h-328v-66h130v-73h-130v-65h198v138h130v66zM659 834h-65v-131h-263v-67h328v198zM659 592h-198v-111
h68v46h65v-93h-198v158h-65v-224h328v224zM659 250h-328v-224h328v224zM594 184v-93h-198v93h198zM659 -20h-328v-65h138l-138 -93v-65h328v65h-202l139 93h63v65z" />
    <glyph glyph-name=".null" horiz-adv-x="0" 
 />
    <glyph glyph-name="nonmarkingreturn" horiz-adv-x="666" 
 />
    <glyph glyph-name="space" unicode=" " 
 />
    <glyph glyph-name="exclam" unicode="!" 
d="M790 1198l-75 -707q-1 -15 -11.5 -23.5t-24.5 -8.5h-126q-14 0 -24.5 8.5t-11.5 23.5l-77 707q-11 97 44 157.5t131 60.5q75 0 129.5 -60.5t45.5 -157.5zM615 -26q-83 0 -141 58t-58 141q0 82 58.5 140t140.5 58t140.5 -58t58.5 -140q0 -83 -58 -141t-141 -58z" />
    <glyph glyph-name="quotedbl" unicode="&#x22;" 
d="M497 1400q14 0 22.5 -8.5t7.5 -21.5l-23 -391q-3 -30 -30 -30h-144q-27 0 -30 30l-23 391q-1 13 7.5 21.5t22.5 8.5h190zM923 1400q14 0 22.5 -8.5t7.5 -21.5l-23 -391q-3 -30 -30 -30h-144q-27 0 -30 30l-23 391q-1 13 7.5 21.5t22.5 8.5h190z" />
    <glyph glyph-name="numbersign" unicode="#" 
d="M1092 928h-129v-296h129q29 0 29 -30v-147q0 -30 -29 -30h-129v-235q0 -14 -8.5 -22t-21.5 -8h-201q-14 0 -22 8t-8 22v235h-173v-235q0 -14 -8.5 -22t-21.5 -8h-201q-14 0 -22 8t-8 22v235h-129q-13 0 -21.5 8.5t-8.5 21.5v147q0 14 8.5 22t21.5 8h129v296h-129
q-13 0 -21.5 8t-8.5 22v147q0 13 8.5 21.5t21.5 8.5h129v235q0 14 8 22t22 8h201q13 0 21.5 -8t8.5 -22v-235h173v235q0 14 8 22t22 8h201q13 0 21.5 -8t8.5 -22v-235h129q29 0 29 -30v-147q0 -30 -29 -30zM702 632v296h-173v-296h173z" />
    <glyph glyph-name="dollar" unicode="$" 
d="M1136 429q0 -173 -108 -269t-317 -114v-174q0 -16 -9 -34t-21 -18h-119q-12 0 -21 18t-9 34v172q-193 13 -301.5 94t-132.5 239q-3 32 29 32h215q24 0 34 -22q39 -74 156 -89v316q-90 22 -159 51t-129 72.5t-92 108.5t-32 147q0 157 106.5 258t305.5 116v183q0 14 8 22
t22 8h119q13 0 21.5 -8t8.5 -22v-186q332 -40 380 -321q2 -15 -5.5 -23.5t-22.5 -8.5h-199q-22 0 -34 23q-34 57 -119 76v-292q93 -22 163 -50.5t132.5 -73t96 -111.5t33.5 -154zM402 988q0 -20 4 -35.5t16.5 -34t40 -34t69.5 -28.5v259q-130 -21 -130 -127zM711 302
q141 24 141 127q0 52 -31 85t-110 58v-270z" />
    <glyph glyph-name="percent" unicode="%" 
d="M337 1410q256 0 256 -281q0 -283 -256 -283q-131 0 -192.5 71t-61.5 212q0 140 61.5 210.5t192.5 70.5zM1033 1161q24 -18 6 -42l-693 -947q-18 -24 -42 -6l-105 75q-24 18 -6 42l693 947q16 22 42 6zM337 1230q-45 0 -58.5 -23.5t-13.5 -77.5q0 -55 13.5 -79t58.5 -24
q46 0 60 24t14 79q0 54 -13.5 77.5t-60.5 23.5zM891 554q256 0 256 -281q0 -283 -256 -283q-131 0 -192.5 71t-61.5 212q0 140 61.5 210.5t192.5 70.5zM891 374q-45 0 -58.5 -23.5t-13.5 -77.5q0 -55 13.5 -79t58.5 -24q46 0 60 24t14 79q0 54 -13.5 77.5t-60.5 23.5z" />
    <glyph glyph-name="ampersand" unicode="&#x26;" 
d="M1175 153q22 -22 0 -44l-116 -116q-23 -23 -44 -2l-128 144q-180 -153 -368 -153q-201 0 -328.5 106.5t-127.5 296.5q0 65 20 122.5t57.5 104.5t78.5 83.5t96 74.5q-72 80 -112 153t-40 155q0 155 101.5 246.5t270.5 91.5q164 0 267.5 -91.5t103.5 -242.5
q0 -60 -18.5 -113.5t-54.5 -99t-74 -80t-91 -72.5l228 -253q9 9 19.5 20t23.5 25t21 22q20 21 41 0l115 -120q16 -16 -2 -40q-64 -73 -67 -76zM417 1071q0 -42 23 -83t68 -93q70 47 107 89.5t37 90.5q0 45 -31.5 75.5t-85.5 30.5q-55 0 -86.5 -31t-31.5 -79zM532 241
q95 0 196 72l-245 275q-65 -50 -99.5 -96t-34.5 -100q0 -67 47.5 -109t135.5 -42z" />
    <glyph glyph-name="quotesingle" unicode="'" 
d="M710 1400q14 0 22.5 -8.5t7.5 -21.5l-23 -391q-3 -30 -30 -30h-144q-27 0 -30 30l-23 391q-1 13 7.5 21.5t22.5 8.5h190z" />
    <glyph glyph-name="parenleft" unicode="(" 
d="M957 1206q-84 0 -147 -17.5t-105.5 -54.5t-70.5 -84.5t-43 -118t-20.5 -143.5t-5.5 -172q0 -120 8 -204t32.5 -162t67 -124.5t113.5 -74t171 -27.5v-284q-105 0 -193 18.5t-153 48.5t-117.5 77.5t-87 97t-60 116t-39.5 125t-22 133t-10 131.5t-2 129t2 128.5t10 131.5
t22 133t39.5 124.5t60 115.5t87 96.5t117.5 77.5t153 48.5t193 18.5v-284z" />
    <glyph glyph-name="parenright" unicode=")" 
d="M273 1206v284q105 0 193 -18.5t153 -48.5t117.5 -77.5t87 -96.5t60 -115.5t39.5 -124.5t22 -133t10 -131.5t2 -128.5t-2 -129t-10 -131.5t-22 -133t-39.5 -125t-60 -116t-87 -97t-117.5 -77.5t-153 -48.5t-193 -18.5v284q100 0 171 27.5t113.5 74t67 124.5t32.5 162
t8 204q0 99 -5.5 172t-20.5 143.5t-43 118t-70.5 84.5t-105.5 54.5t-147 17.5z" />
    <glyph glyph-name="asterisk" unicode="*" 
d="M963 1073q5 -27 -22 -36l-174 -48l117 -154q19 -26 -6 -42l-116 -71q-24 -15 -40 8l-107 150l-107 -150q-16 -23 -40 -8l-116 71q-26 16 -6 42l117 154l-174 48q-27 9 -22 36l33 133q3 14 14 20t24 2l186 -55l-6 197q0 14 8 22t22 8h129q13 0 21.5 -8t8.5 -22l-1 -197
l186 55q13 4 24 -2t14 -20z" />
    <glyph glyph-name="plus" unicode="+" 
d="M1030 674q14 0 22 -8t8 -22v-147q0 -13 -8 -21.5t-22 -8.5h-311v-312q0 -13 -8.5 -21.5t-21.5 -8.5h-148q-13 0 -21.5 8.5t-8.5 21.5v312h-311q-14 0 -22 8.5t-8 21.5v147q0 14 8 22t22 8h311v311q0 13 8.5 21.5t21.5 8.5h148q13 0 21.5 -8.5t8.5 -21.5v-311h311z" />
    <glyph glyph-name="comma" unicode="," 
d="M851 231q13 0 21.5 -8.5t8.5 -21.5v-98q0 -135 -23.5 -264.5t-57.5 -220.5q-8 -22 -34 -22h-134q-32 0 -26 32q15 72 21.5 180.5t4.5 191.5h-272q-14 0 -22 8t-8 22v171q0 13 8 21.5t22 8.5h491z" />
    <glyph glyph-name="hyphen" unicode="-" 
d="M1085 667q13 0 21.5 -8.5t8.5 -21.5v-169q0 -14 -8.5 -22t-21.5 -8h-940q-13 0 -21.5 8t-8.5 22v169q0 13 8.5 21.5t21.5 8.5h940z" />
    <glyph glyph-name="period" unicode="." 
d="M615 -26q-83 0 -141 58t-58 141q0 82 58.5 140t140.5 58t140.5 -58t58.5 -140q0 -83 -58 -141t-141 -58z" />
    <glyph glyph-name="slash" unicode="/" 
d="M1092 1400q17 0 23.5 -9.5t0.5 -24.5l-698 -1602q-9 -24 -36 -24h-244q-17 0 -24 9t0 25l698 1602q9 24 36 24h244z" />
    <glyph glyph-name="zero" unicode="0" 
d="M615 1420q143 0 238 -32.5t157.5 -111t89.5 -204t27 -316.5v-120q0 -192 -27 -318t-89.5 -204.5t-157.5 -111t-238 -32.5t-238 32.5t-157.5 111t-89.5 204.5t-27 318v120q0 191 27 316.5t89.5 204t157.5 111t238 32.5zM615 1149q-56 0 -91.5 -7.5t-67.5 -30t-49 -66
t-27 -114.5t-10 -176v-120q0 -105 10 -176t27 -114.5t49 -66t67.5 -30t91.5 -7.5t91.5 7.5t67.5 30t49 66t27 114.5t10 176v120q0 105 -10 176t-27 114.5t-49 66t-67.5 30t-91.5 7.5zM480 436q-17 0 -24 9t0 25l188 460q9 24 36 24h72q17 0 24 -9t0 -25l-188 -460
q-9 -24 -36 -24h-72z" />
    <glyph glyph-name="one" unicode="1" 
d="M1046 229q14 0 22 -8.5t8 -21.5v-169q0 -14 -8 -22t-22 -8h-862q-14 0 -22 8t-8 22v169q0 13 8 21.5t22 8.5h332v905q-109 -110 -298 -110q-30 0 -30 28v190q0 32 30 32q163 0 298 126h252q14 0 22 -8t8 -22v-1141h248z" />
    <glyph glyph-name="two" unicode="2" 
d="M1058 237q14 0 22 -8.5t8 -21.5v-177q0 -14 -8 -22t-22 -8h-908q-14 0 -22 8t-8 22v142q0 122 38.5 218t100 156.5t135.5 107.5t148 82t135.5 69t100 80t38.5 103q0 81 -50 127t-145 46q-215 0 -235 -191q-3 -31 -34 -28l-203 23q-28 3 -28 32q0 196 134.5 307.5
t352.5 111.5q212 0 344 -109.5t132 -314.5q0 -74 -23 -136t-62 -107t-89.5 -83.5t-106.5 -69t-111.5 -59.5t-106 -59.5t-89.5 -64.5t-62 -78.5t-23 -97.5h647z" />
    <glyph glyph-name="three" unicode="3" 
d="M901 737q118 -52 183 -139t65 -203q0 -192 -147.5 -306.5t-398.5 -114.5q-228 0 -364.5 110t-136.5 308q0 29 28 32l211 24q30 3 35 -28q11 -97 74.5 -143t165.5 -46q105 0 167 50.5t62 141.5q0 37 -14 68t-47.5 59.5t-98.5 45t-156 16.5q-30 0 -30 30v154q0 30 32 30
q295 0 295 177q0 74 -60 115t-148 41q-91 0 -154.5 -46.5t-74.5 -142.5q-3 -31 -35 -28l-211 23q-28 3 -28 32q0 198 137 308.5t366 110.5q136 0 243.5 -42t173 -130t65.5 -209q0 -89 -50.5 -166.5t-148.5 -131.5z" />
    <glyph glyph-name="four" unicode="4" 
d="M1129 522q13 0 21.5 -8t8.5 -22v-169q0 -13 -8.5 -21.5t-21.5 -8.5h-138v-263q0 -14 -8.5 -22t-21.5 -8h-222q-13 0 -21.5 8t-8.5 22v263h-598q-13 0 -21.5 8.5t-8.5 21.5v179q0 24 10 38l606 840q14 20 36 20h228q13 0 21.5 -8t8.5 -22v-848h138zM709 522v444l-323 -444
h323z" />
    <glyph glyph-name="five" unicode="5" 
d="M346 383q26 0 32 -28q12 -55 46.5 -87t77.5 -43t104 -11q127 0 192.5 66t65.5 182t-66 180.5t-195 64.5q-69 0 -126 -21t-90 -54q-18 -18 -40 -12l-181 54q-26 9 -20 36l125 664q7 26 32 26h689q14 0 22 -8t8 -22v-177q0 -13 -8 -21.5t-22 -8.5h-507l-44 -254
q13 13 68 25.5t139 12.5q226 0 358 -129t132 -356q0 -230 -138 -359t-389 -129q-217 0 -345.5 92.5t-147.5 287.5q-3 29 28 29h200z" />
    <glyph glyph-name="six" unicode="6" 
d="M646 881q237 0 364.5 -121t127.5 -325q0 -214 -130.5 -336.5t-382.5 -122.5q-250 0 -379.5 121.5t-131.5 331.5l-2 497q-1 258 131 374t390 116q217 0 336 -91.5t119 -254.5q0 -31 -30 -34l-190 -13q-25 -3 -34 28q-38 116 -212 116q-122 0 -179 -50t-57 -187v-131
q25 36 107 59t153 23zM625 216q119 0 179 52.5t60 166.5q0 107 -61.5 162t-177.5 55t-177.5 -55t-61.5 -162q0 -114 60 -166.5t179 -52.5z" />
    <glyph glyph-name="seven" unicode="7" 
d="M1081 1400q13 0 21.5 -8t8.5 -22v-187q0 -19 -8 -38l-538 -1113q-14 -32 -38 -32h-227q-14 0 -21 9.5t-1 22.5l551 1131h-650q-13 0 -21.5 8.5t-8.5 21.5v177q0 14 8.5 22t21.5 8h902z" />
    <glyph glyph-name="eight" unicode="8" 
d="M928 779q210 -109 210 -348q0 -212 -131.5 -336.5t-391.5 -124.5t-391.5 124.5t-131.5 336.5q0 239 210 348q-137 85 -137 271q0 169 112 269.5t338 100.5t338 -100.5t112 -269.5q0 -186 -137 -271zM422 1029q0 -79 50.5 -118t142.5 -39t142.5 39t50.5 118
q0 81 -51 122.5t-142 41.5t-142 -41.5t-51 -122.5zM615 210q125 0 187 53t62 166q0 112 -62 164.5t-187 52.5t-187 -52.5t-62 -164.5q0 -113 62 -166t187 -53z" />
    <glyph glyph-name="nine" unicode="9" 
d="M584 509q-237 0 -364.5 121t-127.5 325q0 214 130.5 336.5t382.5 122.5q250 0 379.5 -121.5t131.5 -331.5l2 -497q1 -258 -131 -374t-390 -116q-217 0 -336 91.5t-119 254.5q0 31 30 34l190 13q25 3 34 -28q38 -116 212 -116q122 0 179 50t57 187v131q-25 -36 -107 -59
t-153 -23zM605 1174q-119 0 -179 -52.5t-60 -166.5q0 -107 61.5 -162t177.5 -55t177.5 55t61.5 162q0 114 -60 166.5t-179 52.5z" />
    <glyph glyph-name="colon" unicode=":" 
d="M615 603q-83 0 -141 58.5t-58 140.5t58.5 140t140.5 58t140.5 -58t58.5 -140t-58 -140.5t-141 -58.5zM615 -26q-83 0 -141 58t-58 141q0 82 58.5 140t140.5 58t140.5 -58t58.5 -140q0 -83 -58 -141t-141 -58z" />
    <glyph glyph-name="semicolon" unicode=";" 
d="M615 603q-83 0 -141 58.5t-58 140.5t58.5 140t140.5 58t140.5 -58t58.5 -140t-58 -140.5t-141 -58.5zM849 231q13 0 21.5 -8.5t8.5 -21.5v-98q0 -135 -23.5 -264.5t-57.5 -220.5q-8 -22 -34 -22h-134q-32 0 -26 32q15 72 21.5 180.5t4.5 191.5h-272q-14 0 -22 8t-8 22
v171q0 13 8 21.5t22 8.5h491z" />
    <glyph glyph-name="less" unicode="&#x3c;" 
d="M993 745q6 -12 2 -24t-16 -18l-464 -205l464 -207q26 -13 14 -40l-66 -141q-13 -26 -40 -12l-632 290q-22 9 -22 34v152q0 25 22 34l632 290q27 14 40 -12z" />
    <glyph glyph-name="equal" unicode="=" 
d="M1030 879q14 0 22 -8.5t8 -21.5v-147q0 -14 -8 -22t-22 -8h-830q-14 0 -22 8t-8 22v147q0 13 8 21.5t22 8.5h830zM1030 469q14 0 22 -8.5t8 -21.5v-148q0 -13 -8 -21.5t-22 -8.5h-830q-14 0 -22 8.5t-8 21.5v148q0 13 8 21.5t22 8.5h830z" />
    <glyph glyph-name="greater" unicode="&#x3e;" 
d="M237 745l66 141q13 26 40 12l632 -290q22 -9 22 -34v-152q0 -25 -22 -34l-632 -290q-27 -14 -40 12l-66 141q-12 27 14 40l464 207l-464 205q-12 6 -16 18t2 24z" />
    <glyph glyph-name="question" unicode="?" 
d="M480 465q-30 0 -30 32q4 88 27 151t56.5 97t73.5 57t79 37.5t71.5 30.5t52.5 45t20 73q0 81 -50 127t-146 46q-217 0 -237 -191q-3 -31 -34 -28l-203 23q-28 3 -28 32q0 196 135 307.5t355 111.5q213 0 344.5 -109t131.5 -315q0 -78 -18.5 -136t-48.5 -91.5t-66.5 -58
t-74 -43t-69.5 -38.5t-54.5 -52.5t-27.5 -77.5q-3 -30 -32 -30h-227zM600 -26q-82 0 -140.5 58t-58.5 141q0 82 58.5 140t140.5 58t140.5 -58t58.5 -140q0 -83 -58.5 -141t-140.5 -58z" />
    <glyph glyph-name="at" unicode="@" 
d="M869 751l-27 -304q-4 -43 9.5 -62t45.5 -19q71 0 71 165q0 173 -96 267t-251 94q-161 0 -265 -104t-104 -290q0 -176 103.5 -276.5t259.5 -100.5q83 0 160 41q23 11 42 -1l89 -65q27 -20 2 -42q-57 -45 -132.5 -72.5t-154.5 -27.5q-86 0 -166 23t-149 69t-120.5 110
t-81 152t-29.5 190q0 132 45 239.5t121.5 176.5t174 106.5t205.5 37.5q144 0 261.5 -62t189 -183.5t71.5 -281.5q0 -152 -70 -232.5t-169 -80.5q-103 0 -137 61q-61 -61 -155 -61q-120 0 -191.5 76t-71.5 204q0 130 71.5 207.5t191.5 77.5q98 0 157 -62l25 30h75zM610 363
q49 0 78 34.5t29 100.5q0 68 -29 103.5t-78 35.5q-53 0 -82.5 -35t-29.5 -104q0 -66 29.5 -100.5t82.5 -34.5z" />
    <glyph glyph-name="A" unicode="A" 
d="M1169 34q9 -34 -24 -34h-236q-29 0 -34 24l-48 211h-424l-48 -211q-5 -24 -34 -24h-236q-33 0 -24 34l338 1342q6 24 34 24h364q28 0 34 -24zM459 483h312l-140 614h-32z" />
    <glyph glyph-name="B" unicode="B" 
d="M853 749q136 -27 205 -116t69 -228q0 -210 -116 -307.5t-384 -97.5h-484q-13 0 -21.5 8t-8.5 22v1340q0 14 8.5 22t21.5 8h504q108 0 188.5 -28t127.5 -78.5t69.5 -113t22.5 -138.5q0 -236 -202 -293zM782 1005q0 76 -36 106.5t-126 30.5h-215v-289h215q91 0 126.5 35
t35.5 117zM636 258q107 0 153 42t46 135t-46 135t-153 42h-231v-354h231z" />
    <glyph glyph-name="C" unicode="C" 
d="M637 251q116 0 164.5 35t64.5 142q4 26 35 26h209q29 0 29 -32q-15 -243 -138.5 -347.5t-374.5 -104.5q-188 0 -297.5 61.5t-162.5 206.5t-53 396v122q0 252 53 396.5t162.5 206t297.5 61.5q251 0 374.5 -104.5t138.5 -347.5q0 -32 -29 -32h-209q-31 0 -35 26
q-16 105 -67.5 140.5t-161.5 35.5q-51 0 -86.5 -8.5t-66.5 -32.5t-49.5 -66.5t-29 -111t-10.5 -165.5v-118q0 -120 15 -197t47.5 -118t74 -55.5t105.5 -14.5z" />
    <glyph glyph-name="D" unicode="D" 
d="M586 1400q128 0 226 -34.5t161 -94.5t103 -149.5t56 -192t16 -229.5t-16 -229.5t-56 -192t-103 -149.5t-161 -94.5t-226 -34.5h-433q-13 0 -21.5 8t-8.5 22v1340q0 14 8.5 22t21.5 8h433zM586 258q68 0 115.5 20t76.5 54.5t45.5 92.5t22 121t5.5 154t-5.5 154t-22 121
t-45.5 92.5t-76.5 54.5t-115.5 20h-171v-884h171z" />
    <glyph glyph-name="E" unicode="E" 
d="M1056 258q14 0 22 -8t8 -22v-198q0 -14 -8 -22t-22 -8h-872q-14 0 -22 8t-8 22v1340q0 14 8 22t22 8h870q14 0 22 -8t8 -22v-198q0 -14 -8 -22t-22 -8h-608v-302h558q14 0 22 -8t8 -22v-198q0 -14 -8 -22t-22 -8h-558v-324h610z" />
    <glyph glyph-name="F" unicode="F" 
d="M1065 1400q13 0 21.5 -8t8.5 -22v-198q0 -14 -8.5 -22t-21.5 -8h-618v-315h572q13 0 21.5 -8.5t8.5 -21.5v-198q0 -13 -8.5 -21.5t-21.5 -8.5h-572v-539q0 -14 -8.5 -22t-21.5 -8h-232q-13 0 -21.5 8t-8.5 22v1340q0 14 8.5 22t21.5 8h880z" />
    <glyph glyph-name="G" unicode="G" 
d="M1116 759q14 0 22 -8.5t8 -21.5v-194q0 -302 -119 -432.5t-393 -132.5q-191 0 -302 61.5t-164.5 206t-53.5 396.5v122q0 190 28.5 316.5t92 204t158 110.5t235.5 33q250 0 373.5 -104.5t138.5 -347.5q2 -32 -28 -32h-210q-31 0 -35 26q-16 105 -67 140.5t-161 35.5
q-51 0 -86.5 -8.5t-66.5 -32.5t-49.5 -66.5t-29 -111t-10.5 -165.5v-118q0 -120 14.5 -197.5t47 -118t73 -55t102.5 -14.5q129 0 181 54t55 208h-259q-13 0 -21.5 8.5t-8.5 21.5v186q0 13 8.5 21.5t21.5 8.5h505z" />
    <glyph glyph-name="H" unicode="H" 
d="M1067 1400q13 0 21.5 -8t8.5 -22v-1340q0 -14 -8.5 -22t-21.5 -8h-232q-13 0 -21.5 8t-8.5 22v548h-380v-548q0 -14 -8.5 -22t-21.5 -8h-232q-13 0 -21.5 8t-8.5 22v1340q0 14 8.5 22t21.5 8h232q13 0 21.5 -8t8.5 -22v-534h380v534q0 14 8.5 22t21.5 8h232z" />
    <glyph glyph-name="I" unicode="I" 
d="M1065 1142h-304v-884h304q13 0 21.5 -8t8.5 -22v-198q0 -14 -8.5 -22t-21.5 -8h-900q-13 0 -21.5 8t-8.5 22v198q0 14 8.5 22t21.5 8h304v884h-304q-13 0 -21.5 8t-8.5 22v198q0 14 8.5 22t21.5 8h900q13 0 21.5 -8t8.5 -22v-198q0 -14 -8.5 -22t-21.5 -8z" />
    <glyph glyph-name="J" unicode="J" 
d="M1083 1400q13 0 21.5 -8t8.5 -22v-812q0 -302 -133 -445t-378 -143t-380 136.5t-135 421.5q0 30 30 30h226q29 0 30 -30q4 -154 62.5 -224.5t166.5 -70.5q219 0 219 325v584h-527q-14 0 -22 8t-8 22v198q0 14 8 22t22 8h789z" />
    <glyph glyph-name="K" unicode="K" 
d="M1172 36q10 -15 5 -25.5t-23 -10.5h-250q-26 0 -36 18l-377 567l-87 -104v-451q0 -14 -8 -22t-22 -8h-232q-14 0 -22 8t-8 22v1340q0 14 8 22t22 8h232q14 0 22 -8t8 -22v-498l404 512q13 16 36 16h278q19 0 23.5 -11t-7.5 -25l-465 -559z" />
    <glyph glyph-name="L" unicode="L" 
d="M1061 258q13 0 21.5 -8t8.5 -22v-198q0 -14 -8.5 -22t-21.5 -8h-867q-14 0 -22 8t-8 22v1340q0 14 8 22t22 8h232q14 0 22 -8t8 -22v-1112h605z" />
    <glyph glyph-name="M" unicode="M" 
d="M148 0q-14 0 -22 8t-8 22v1340q0 14 8 22t22 8h231q32 0 36 -20l193 -1053h14l193 1053q4 20 36 20h231q14 0 22 -8t8 -22v-1340q0 -14 -8 -22t-22 -8h-177q-13 0 -21.5 8t-8.5 22v781h-14l-148 -787q-5 -24 -36 -24h-124q-31 0 -36 24l-148 787h-14v-781q0 -14 -8.5 -22
t-21.5 -8h-177z" />
    <glyph glyph-name="N" unicode="N" 
d="M1077 1400q13 0 21.5 -8t8.5 -22v-1340q0 -14 -8.5 -22t-21.5 -8h-255q-27 0 -36 20l-403 896v-886q0 -14 -8.5 -22t-21.5 -8h-200q-13 0 -21.5 8t-8.5 22v1340q0 14 8.5 22t21.5 8h254q29 0 36 -20l404 -896v886q0 14 8.5 22t21.5 8h200z" />
    <glyph glyph-name="O" unicode="O" 
d="M615 1420q143 0 238 -32.5t157.5 -111t89.5 -204t27 -316.5v-120q0 -192 -27 -318t-89.5 -204.5t-157.5 -111t-238 -32.5t-238 32.5t-157.5 111t-89.5 204.5t-27 318v120q0 191 27 316.5t89.5 204t157.5 111t238 32.5zM615 1139q-45 0 -75 -4.5t-58 -19t-44 -40
t-29 -68.5t-18 -105t-5 -148v-118q0 -86 5 -148t18 -105t29 -68.5t44 -40t58 -19t75 -4.5t75 4.5t58 19t44 40t29 68.5t18 105t5 148v118q0 86 -5 148t-18 105t-29 68.5t-44 40t-58 19t-75 4.5z" />
    <glyph glyph-name="P" unicode="P" 
d="M659 1400q137 0 229.5 -29.5t144.5 -91.5t73.5 -144t21.5 -200t-21.5 -200t-73.5 -144t-144.5 -91.5t-229.5 -29.5h-235v-440q0 -14 -8 -22t-22 -8h-232q-14 0 -22 8t-8 22v1340q0 14 8 22t22 8h497zM659 728q56 0 88 6.5t57 28t34.5 62.5t9.5 110t-9.5 110t-34.5 62.5
t-57 28t-88 6.5h-235v-414h235z" />
    <glyph glyph-name="Q" unicode="Q" 
d="M615 1420q143 0 238 -32.5t157.5 -111t89.5 -204t27 -316.5v-120q0 -192 -27 -318t-89.5 -204.5t-157.5 -111t-238 -32.5t-238 32.5t-157.5 111t-89.5 204.5t-27 318v120q0 191 27 316.5t89.5 204t157.5 111t238 32.5zM615 1139q-45 0 -75 -4.5t-58 -19t-44 -40
t-29 -68.5t-18 -105t-5 -148v-118q0 -86 5 -148t18 -105t29 -68.5t44 -40t58 -19t75 -4.5t75 4.5t58 19t44 40t29 68.5t18 105t5 148v118q0 86 -5 148t-18 105t-29 68.5t-44 40t-58 19t-75 4.5zM1095 -160q32 0 32 -28v-167q0 -32 -30 -32q-59 -2 -109.5 6.5t-88.5 23
l-76 29t-88.5 23.5t-108.5 7q-32 0 -32 28v167q0 32 32 32q71 0 133 -14t101.5 -30.5t101.5 -30.5t133 -14z" />
    <glyph glyph-name="R" unicode="R" 
d="M1130 35q7 -16 0.5 -25.5t-23.5 -9.5h-220q-25 0 -35 23l-202 447h-226v-440q0 -14 -8 -22t-22 -8h-232q-14 0 -22 8t-8 22v1340q0 14 8 22t22 8h497q137 0 229.5 -29.5t144.5 -91.5t73.5 -144t21.5 -200q0 -171 -48.5 -275t-167.5 -151zM424 1142v-414h235q56 0 88 6.5
t57 28t34.5 62.5t9.5 110t-9.5 110t-34.5 62.5t-57 28t-88 6.5h-235z" />
    <glyph glyph-name="S" unicode="S" 
d="M600 836q63 -12 113.5 -24.5t108 -32.5t101 -43.5t85.5 -57.5t68.5 -74.5t43 -94.5t16.5 -118q0 -213 -131.5 -317t-397.5 -104q-245 0 -370.5 91t-143.5 290q-1 15 6.5 24t21.5 9h214q23 0 30 -27q37 -124 242 -124q243 0 243 149q0 86 -51.5 128.5t-198.5 72.5
q-82 17 -147 37.5t-130.5 55.5t-109 79t-70.5 110t-27 147q0 193 121.5 300.5t360.5 107.5q457 0 496 -372q1 -15 -6.5 -24.5t-21.5 -9.5h-198q-23 0 -30 28q-15 54 -73.5 85.5t-161.5 31.5q-97 0 -150 -39.5t-53 -107.5q0 -33 6 -55.5t25.5 -47t61 -42.5t107.5 -31z" />
    <glyph glyph-name="T" unicode="T" 
d="M1100 1400q14 0 22 -8t8 -22v-198q0 -14 -8 -22t-22 -8h-339v-1112q0 -14 -8.5 -22t-21.5 -8h-232q-13 0 -21.5 8t-8.5 22v1112h-339q-14 0 -22 8t-8 22v198q0 14 8 22t22 8h970z" />
    <glyph glyph-name="U" unicode="U" 
d="M1077 1400q13 0 21.5 -8t8.5 -22v-857q0 -282 -120.5 -412.5t-371.5 -130.5q-249 0 -370.5 130.5t-121.5 412.5v857q0 14 8.5 22t21.5 8h232q13 0 21.5 -8t8.5 -22v-854q0 -132 48 -199t152 -67q105 0 152.5 66.5t47.5 199.5v854q0 14 8.5 22t21.5 8h232z" />
    <glyph glyph-name="V" unicode="V" 
d="M875 1376q5 24 34 24h236q33 0 24 -34l-338 -1342q-6 -24 -34 -24h-364q-28 0 -34 24l-338 1342q-9 34 24 34h236q29 0 34 -24l244 -1073h32z" />
    <glyph glyph-name="W" unicode="W" 
d="M1140 1400q27 0 24 -34l-140 -1342q-1 -11 -13 -17.5t-25 -6.5h-258q-31 0 -34 24l-79 663l-79 -663q-3 -24 -34 -24h-258q-13 0 -25 6.5t-13 17.5l-140 1342q-3 34 24 34h209q31 0 34 -24l71 -990l120 990q3 24 34 24h114q31 0 34 -24l120 -990l71 990q3 24 34 24h209z
" />
    <glyph glyph-name="X" unicode="X" 
d="M1150 36q9 -16 3.5 -26t-23.5 -10h-245q-25 0 -36 20l-234 415l-234 -415q-11 -20 -36 -20h-245q-18 0 -23.5 10t3.5 26l380 674l-369 654q-9 16 -3.5 26t23.5 10h245q25 0 36 -20l223 -395l223 395q11 20 36 20h245q18 0 23.5 -10t-3.5 -26l-369 -654z" />
    <glyph glyph-name="Y" unicode="Y" 
d="M1151 1400q18 0 23.5 -10t-3.5 -26l-410 -805v-529q0 -14 -8.5 -22t-21.5 -8h-232q-13 0 -21.5 8t-8.5 22v532l-410 802q-9 16 -3.5 26t23.5 10h245q27 0 36 -20l255 -544l255 544q9 20 36 20h245z" />
    <glyph glyph-name="Z" unicode="Z" 
d="M1076 258q14 0 22 -8t8 -22v-198q0 -14 -8 -22t-22 -8h-922q-14 0 -22 8t-8 22v208q0 18 12 36l633 868h-595q-14 0 -22 8t-8 22v198q0 14 8 22t22 8h882q14 0 22 -8t8 -22v-208q0 -18 -12 -36l-633 -868h635z" />
    <glyph glyph-name="bracketleft" unicode="[" 
d="M940 1490q14 0 22 -8t8 -22v-169q0 -13 -8 -21.5t-22 -8.5h-388v-1292h388q14 0 22 -8.5t8 -21.5v-169q0 -14 -8 -22t-22 -8h-650q-14 0 -22 8t-8 22v1690q0 14 8 22t22 8h650z" />
    <glyph glyph-name="backslash" unicode="\" 
d="M138 1400h244q27 0 36 -24l698 -1602q7 -16 0 -25t-24 -9h-244q-27 0 -36 24l-698 1602q-6 15 0.5 24.5t23.5 9.5z" />
    <glyph glyph-name="bracketright" unicode="]" 
d="M290 1490h650q14 0 22 -8t8 -22v-1690q0 -14 -8 -22t-22 -8h-650q-14 0 -22 8t-8 22v169q0 13 8 21.5t22 8.5h388v1292h-388q-14 0 -22 8.5t-8 21.5v169q0 14 8 22t22 8z" />
    <glyph glyph-name="asciicircum" unicode="^" 
d="M862 522q-12 -6 -24 -2t-18 16l-205 464l-207 -464q-13 -26 -40 -14l-141 66q-26 13 -12 40l290 632q9 22 34 22h152q25 0 34 -22l290 -632q14 -27 -12 -40z" />
    <glyph glyph-name="underscore" unicode="_" 
d="M1085 0q13 0 21.5 -8t8.5 -22v-169q0 -13 -8.5 -21.5t-21.5 -8.5h-940q-13 0 -21.5 8.5t-8.5 21.5v169q0 14 8.5 22t21.5 8h940z" />
    <glyph glyph-name="grave" unicode="`" 
d="M451 1460h198q23 0 34 -24l120 -252q7 -16 0 -25t-24 -9h-198q-23 0 -34 24l-120 252q-7 16 0 25t24 9z" />
    <glyph glyph-name="a" unicode="a" 
d="M1097 234q21 -6 29.5 -13.5t8.5 -20.5v-179q0 -29 -66 -29q-119 1 -177.5 39.5t-58.5 129.5h-23v-1q-53 -77 -162 -130.5t-218 -53.5q-157 0 -248.5 74.5t-91.5 206.5q0 139 88.5 210.5t270.5 98.5l155 24q128 20 149 50q-7 69 -48 98t-112 29q-165 0 -184 -105
q-3 -19 -28 -19h-209q-14 0 -22.5 8t-7.5 22q19 177 136 253t319 76q210 0 321.5 -98.5t111.5 -295.5v-290q0 -64 67 -84zM369 299q0 -41 31 -64.5t89 -23.5q163 0 265 102v157q-17 -31 -151 -54l-123 -21q-54 -10 -82.5 -35t-28.5 -61z" />
    <glyph glyph-name="b" unicode="b" 
d="M699 1002q134 0 235.5 -69.5t153 -185t51.5 -259.5t-51.5 -259.5t-152.5 -185t-236 -69.5q-178 0 -297 127l-6 -71q-3 -30 -30 -30h-201q-13 0 -21.5 8t-8.5 22v1340q0 14 8.5 22t21.5 8h222q13 0 21.5 -8t8.5 -22v-507h22q97 139 260 139zM637 231q114 0 172 69t58 190
q0 120 -58 187.5t-172 67.5q-106 0 -162.5 -68t-56.5 -187t57 -189t162 -70z" />
    <glyph glyph-name="c" unicode="c" 
d="M685 235q128 0 201 91q18 21 40 8l165 -93q27 -17 10 -40q-65 -103 -176.5 -165t-246.5 -62q-224 0 -373.5 148t-149.5 366t149.5 366t373.5 148q135 0 246.5 -62t176.5 -165q17 -23 -10 -40l-165 -93q-22 -13 -40 8q-73 91 -201 91q-111 0 -184.5 -71t-73.5 -182
t73.5 -182t184.5 -71z" />
    <glyph glyph-name="d" unicode="d" 
d="M1076 1400q14 0 22 -8t8 -22v-1340q0 -14 -8 -22t-22 -8h-201q-27 0 -30 30l-6 68q-119 -124 -296 -124q-135 0 -236 69.5t-152 185t-51 259.5t51 259.5t152 185t236 69.5q180 0 258 -139h23v507q0 14 8 22t22 8h222zM604 231q109 0 169.5 70t60.5 189q0 118 -60.5 186.5
t-169.5 68.5q-108 0 -168 -68.5t-60 -186.5q0 -119 60.5 -189t167.5 -70z" />
    <glyph glyph-name="e" unicode="e" 
d="M1103 504q0 -66 -14 -94t-57 -28h-653q19 -87 96 -134t194 -47q125 0 219 62q25 17 44 -2l93 -93q21 -21 -2 -44q-150 -150 -381 -150q-157 0 -280 68.5t-189 185t-66 260.5q0 218 145 366t367 148q110 0 202 -39.5t153 -107.5t95 -158.5t34 -192.5zM621 764
q-93 0 -156 -49t-81 -142h469q-15 93 -76.5 142t-155.5 49z" />
    <glyph glyph-name="f" unicode="f" 
d="M1089 980q13 0 21.5 -8t8.5 -22v-169q0 -13 -8.5 -21.5t-21.5 -8.5h-424v-721q0 -14 -8.5 -22t-21.5 -8h-222q-13 0 -21.5 8t-8.5 22v721h-244q-13 0 -21.5 8.5t-8.5 21.5v169q0 14 8.5 22t21.5 8h244v91q0 112 36.5 192.5t101 124.5t141 64t169.5 20q100 0 189 -17.5
t89 -48.5v-158q0 -15 -10 -23t-26 -5q-96 16 -175 16q-105 0 -169 -48t-64 -157v-51h424z" />
    <glyph glyph-name="g" unicode="g" 
d="M1077 980q13 0 21.5 -8t8.5 -22v-941q0 -76 -22.5 -138.5t-62.5 -106t-90 -75.5t-109.5 -50t-117 -26.5t-116.5 -8.5q-124 0 -236.5 34t-192.5 91q-20 14 -8 39l72 131q16 26 40 12q132 -74 302 -74q48 0 93 9t89.5 29.5t71.5 60.5t27 95v101q-119 -138 -295 -138
q-101 0 -189.5 40t-150.5 108t-98 161t-36 195t36 195t98 161t150.5 108t189.5 40q168 0 288 -135l6 83q3 30 30 30h201zM586 251q100 0 168 74.5t68 174.5q0 98 -68 171.5t-168 73.5q-102 0 -169 -71t-67 -174q0 -105 67 -177t169 -72z" />
    <glyph glyph-name="h" unicode="h" 
d="M744 1002q152 0 251 -113.5t99 -305.5v-553q0 -14 -8 -22t-22 -8h-222q-14 0 -22 8t-8 22v499q0 112 -50.5 162t-130.5 50q-60 0 -106.5 -27t-68 -58.5t-32.5 -66.5v-559q0 -14 -8 -22t-22 -8h-222q-14 0 -22 8t-8 22v1340q0 14 8 22t22 8h222q14 0 22 -8t8 -22v-547h15
q116 179 305 179z" />
    <glyph glyph-name="i" unicode="i" 
d="M648 1159q-64 0 -109 44.5t-45 108.5t45 108.5t109 44.5q63 0 108 -44.5t45 -108.5t-45 -108.5t-108 -44.5zM1056 229q14 0 22 -8.5t8 -21.5v-169q0 -14 -8 -22t-22 -8h-872q-14 0 -22 8t-8 22v169q0 13 8 21.5t22 8.5h321v522h-271q-14 0 -22 8.5t-8 21.5v169q0 14 8 22
t22 8h523q13 0 21.5 -8t8.5 -22v-721h269z" />
    <glyph glyph-name="j" unicode="j" 
d="M809 1159q-64 0 -108.5 44.5t-44.5 108.5t44.5 108.5t108.5 44.5t108.5 -44.5t44.5 -108.5t-44.5 -108.5t-108.5 -44.5zM938 980q14 0 22 -8t8 -22v-909q0 -95 -27.5 -170t-72.5 -121.5t-107 -77t-125 -42.5t-133 -12q-61 0 -121.5 14t-105 35t-77 45t-46 46.5t-4.5 35.5
l86 130q9 13 24.5 12.5t30.5 -12.5q88 -68 192 -68q98 0 151 50.5t53 174.5v670h-427q-13 0 -21.5 8.5t-8.5 21.5v169q0 14 8.5 22t21.5 8h679z" />
    <glyph glyph-name="k" unicode="k" 
d="M1131 36q12 -15 6 -25.5t-24 -10.5h-244q-23 0 -36 18l-289 359l-111 -118v-229q0 -14 -8.5 -22t-21.5 -8h-222q-13 0 -21.5 8t-8.5 22v1400q0 14 8.5 22t21.5 8h222q13 0 21.5 -8t8.5 -22v-827l327 361q13 16 36 16h261q19 0 24 -11t-8 -25l-359 -384z" />
    <glyph glyph-name="l" unicode="l" 
d="M1056 229q14 0 22 -8.5t8 -21.5v-169q0 -14 -8 -22t-22 -8h-882q-14 0 -22 8t-8 22v169q0 13 8 21.5t22 8.5h321v942h-294q-13 0 -21.5 8.5t-8.5 21.5v169q0 14 8.5 22t21.5 8h546q13 0 21.5 -8t8.5 -22v-1141h279z" />
    <glyph glyph-name="m" unicode="m" 
d="M911 1002q120 0 174.5 -84.5t54.5 -279.5v-608q0 -14 -8 -22t-22 -8h-199q-13 0 -21.5 8t-8.5 22v608q0 70 -14 97t-48 27q-33 0 -52 -26t-25 -62v-644q0 -14 -8 -22t-22 -8h-194q-14 0 -22 8t-8 22v608q0 70 -14 97t-49 27q-32 0 -51 -25.5t-25 -62.5v-644
q0 -14 -8.5 -22t-21.5 -8h-199q-14 0 -22 8t-8 22v920q0 14 8 22t22 8h191q28 0 30 -30l4 -63h17q44 115 186 115q139 0 180 -115h13q45 115 170 115z" />
    <glyph glyph-name="n" unicode="n" 
d="M744 1002q152 0 251 -113.5t99 -305.5v-553q0 -14 -8 -22t-22 -8h-222q-14 0 -22 8t-8 22v499q0 112 -50.5 162t-130.5 50q-55 0 -99 -22t-67.5 -54t-35 -61t-11.5 -49v-525q0 -14 -8 -22t-22 -8h-222q-14 0 -22 8t-8 22v920q0 14 8 22t22 8h214q27 0 30 -30l8 -127h21
q116 179 305 179z" />
    <glyph glyph-name="o" unicode="o" 
d="M615 -26q-214 0 -360 148t-146 366t146 366t360 148t360 -148t146 -366t-146 -366t-360 -148zM615 235q101 0 167.5 71t66.5 182t-66.5 182t-167.5 71t-167.5 -71t-66.5 -182t66.5 -182t167.5 -71z" />
    <glyph glyph-name="p" unicode="p" 
d="M699 1002q134 0 235.5 -69.5t153 -185t51.5 -259.5t-51.5 -259.5t-152.5 -185t-236 -69.5q-167 0 -282 112v-436q0 -14 -8.5 -22t-21.5 -8h-222q-13 0 -21.5 8t-8.5 22v1300q0 14 8.5 22t21.5 8h222q13 0 21.5 -8t8.5 -22v-87h22q97 139 260 139zM637 231q114 0 172 69
t58 190q0 120 -58 187.5t-172 67.5q-106 0 -162.5 -68t-56.5 -187t57 -189t162 -70z" />
    <glyph glyph-name="q" unicode="q" 
d="M1076 980q14 0 22 -8t8 -22v-1300q0 -14 -8 -22t-22 -8h-222q-14 0 -22 8t-8 22v433q-116 -109 -281 -109q-135 0 -236 69.5t-152 185t-51 259.5t51 259.5t152 185t236 69.5q180 0 258 -139h23v87q0 14 8 22t22 8h222zM604 231q109 0 169.5 70t60.5 189
q0 118 -60.5 186.5t-169.5 68.5q-108 0 -168 -68.5t-60 -186.5q0 -119 60.5 -189t167.5 -70z" />
    <glyph glyph-name="r" unicode="r" 
d="M777 1002q161 0 266.5 -109t105.5 -295q0 -27 -28 -32l-222 -34q-32 -5 -35 28q-19 179 -199 179q-57 0 -104.5 -21.5t-73.5 -52.5t-40 -60.5t-14 -49.5v-525q0 -14 -8.5 -22t-21.5 -8h-222q-13 0 -21.5 8t-8.5 22v920q0 14 8.5 22t21.5 8h214q27 0 30 -30l8 -127h22
q54 79 135 129t187 50z" />
    <glyph glyph-name="s" unicode="s" 
d="M615 590q167 -21 229 -38q200 -54 231 -202q6 -29 6 -62q0 -145 -119.5 -229.5t-336.5 -84.5q-219 0 -339 75.5t-137 254.5q-1 14 7.5 22t22.5 8h209q25 0 28 -20q10 -58 59.5 -84.5t142.5 -26.5q187 0 187 94q0 43 -49 64t-141 32q-163 20 -222 36q-185 50 -218 188
q-8 32 -8 70q0 145 114 230t320 85q207 0 325 -75t135 -252q1 -14 -7.5 -22t-22.5 -8h-209q-25 0 -28 19q-20 109 -186 109q-165 0 -165 -92q0 -41 42.5 -60.5t129.5 -30.5z" />
    <glyph glyph-name="t" unicode="t" 
d="M1110 178q19 -21 5 -42q-18 -24 -44.5 -47t-67.5 -48.5t-100.5 -41t-127.5 -15.5q-70 0 -127 9.5t-113 36.5t-93.5 70.5t-61 116t-23.5 168.5v366h-248q-13 0 -21.5 8.5t-8.5 21.5v169q0 14 8.5 22t21.5 8h248v260q0 14 8.5 22t21.5 8h222q13 0 21.5 -8t8.5 -22v-260h357
q14 0 22 -8t8 -22v-169q0 -13 -8 -21.5t-22 -8.5h-357v-327q0 -48 11.5 -83.5t29 -55.5t44 -32t51 -15.5t55.5 -3.5q76 0 148 51q23 20 42 -2z" />
    <glyph glyph-name="u" unicode="u" 
d="M1064 980q14 0 22 -8t8 -22v-920q0 -14 -8 -22t-22 -8h-214q-28 0 -30 30l-8 127h-21q-116 -179 -305 -179q-152 0 -251 113.5t-99 305.5v553q0 14 8 22t22 8h222q14 0 22 -8t8 -22v-499q0 -112 50.5 -162t130.5 -50q55 0 99 22t67.5 54t35 61t11.5 49v525q0 14 8 22
t22 8h222z" />
    <glyph glyph-name="v" unicode="v" 
d="M852 956q9 24 36 24h222q36 0 24 -34l-370 -922q-9 -24 -36 -24h-225q-29 0 -36 24l-370 922q-7 16 0 25t24 9h221q28 0 36 -24l237 -636z" />
    <glyph glyph-name="w" unicode="w" 
d="M1140 980q30 0 24 -34l-167 -922q-1 -11 -12 -17.5t-24 -6.5h-210q-13 0 -24 6.5t-12 17.5l-101 571l-101 -571q-1 -11 -12 -17.5t-24 -6.5h-210q-13 0 -24 6.5t-12 17.5l-167 922q-6 34 24 34h181q13 0 24 -6.5t12 -17.5l84 -627l121 627q6 24 36 24h136q30 0 36 -24
l121 -627l84 627q1 11 12 17.5t24 6.5h181z" />
    <glyph glyph-name="x" unicode="x" 
d="M1149 36q12 -15 6 -25.5t-24 -10.5h-252q-23 0 -36 18l-228 294l-228 -294q-13 -18 -36 -18h-252q-18 0 -24 10.5t6 25.5l378 473l-348 435q-11 15 -5.5 25.5t23.5 10.5h251q23 0 36 -18l199 -257l199 257q13 18 36 18h251q18 0 23.5 -10.5t-5.5 -25.5l-346 -435z" />
    <glyph glyph-name="y" unicode="y" 
d="M1110 980q36 0 24 -34l-513 -1302q-8 -24 -36 -24h-221q-17 0 -24 9t0 25l136 343l-379 949q-7 16 0 25t24 9h221q28 0 36 -24l237 -636l237 636q9 24 36 24h222z" />
    <glyph glyph-name="z" unicode="z" 
d="M1057 950v-177q0 -24 -14 -38l-534 -506h518q13 0 21.5 -8.5t8.5 -21.5v-169q0 -14 -8.5 -22t-21.5 -8h-824q-13 0 -21.5 8t-8.5 22v177q0 24 14 38l534 506h-518q-13 0 -21.5 8.5t-8.5 21.5v169q0 14 8.5 22t21.5 8h824q13 0 21.5 -8t8.5 -22z" />
    <glyph glyph-name="braceleft" unicode="{" 
d="M616 877q0 -24 -12 -36l-210 -229l210 -225q12 -12 12 -36v-319q0 -31 19 -47t51 -16h254q14 0 22 -8.5t8 -21.5v-169q0 -14 -8 -22t-22 -8h-415q-37 0 -69.5 9.5t-63.5 31t-49.5 63.5t-18.5 99v389q0 26 -10 38l-193 222q-18 21 -2 40l195 226q10 12 10 38v391
q0 57 19 99t50 63.5t63.5 31t68.5 9.5h415q14 0 22 -8t8 -22v-169q0 -13 -8 -21.5t-22 -8.5h-254q-32 0 -51 -16t-19 -47v-321z" />
    <glyph glyph-name="bar" unicode="|" 
d="M469 1570q0 14 8.5 22t21.5 8h232q13 0 21.5 -8t8.5 -22v-1920q0 -14 -8.5 -22t-21.5 -8h-232q-13 0 -21.5 8t-8.5 22v1920z" />
    <glyph glyph-name="braceright" unicode="}" 
d="M614 877v321q0 31 -19 47t-51 16h-254q-14 0 -22 8.5t-8 21.5v169q0 14 8 22t22 8h415q36 0 68.5 -9.5t63.5 -31t50 -63.5t19 -99v-391q0 -26 10 -38l195 -226q16 -19 -2 -40l-193 -222q-10 -12 -10 -38v-389q0 -57 -18.5 -99t-49.5 -63.5t-63.5 -31t-69.5 -9.5h-415
q-14 0 -22 8t-8 22v169q0 13 8 21.5t22 8.5h254q32 0 51 16t19 47v319q0 24 12 36l210 225l-210 229q-12 12 -12 36z" />
    <glyph glyph-name="asciitilde" unicode="~" 
d="M428 743q54 0 101.5 -17.5t82.5 -43t67.5 -51t69.5 -43t75 -17.5q80 0 119 70q9 18 24 18h88q22 0 22 -22q1 -113 -75.5 -176t-192.5 -63q-56 0 -105 17.5t-84.5 43t-68 51t-69 43t-74.5 17.5q-85 0 -119 -70q-9 -18 -26 -18h-88q-11 0 -17 8t-5 20q13 113 86.5 173
t188.5 60z" />
    <glyph glyph-name="exclamdown" unicode="&#xa1;" 
d="M615 1066q83 0 141 -58t58 -141q0 -82 -58.5 -140t-140.5 -58t-140.5 58t-58.5 140q0 83 58 141t141 58zM790 -158q9 -97 -45.5 -157.5t-129.5 -60.5q-76 0 -131 60.5t-44 157.5l77 707q1 15 11.5 23.5t24.5 8.5h126q14 0 24.5 -8.5t11.5 -23.5z" />
    <glyph glyph-name="cent" unicode="&#xa2;" 
d="M1091 386q27 -17 10 -39q-55 -84 -142.5 -141t-195.5 -74v-182q0 -14 -8.5 -22t-21.5 -8h-126q-13 0 -21.5 8t-8.5 22v184q-187 32 -304.5 169t-117.5 325t117.5 325.5t304.5 169.5v247q0 14 8.5 22t21.5 8h126q13 0 21.5 -8t8.5 -22v-245q108 -17 195.5 -74t142.5 -141
q17 -23 -10 -40l-165 -91q-22 -13 -40 8q-47 58 -123 79v-475q75 21 123 78q18 21 40 8zM427 628q0 -79 40.5 -139.5t109.5 -87.5v454q-69 -27 -109.5 -87.5t-40.5 -139.5z" />
    <glyph glyph-name="sterling" unicode="&#xa3;" 
d="M1099 258q13 0 21.5 -8t8.5 -22v-198q0 -14 -8.5 -22t-21.5 -8h-961q-14 0 -22 8t-8 22v228q45 22 77.5 43.5t67 56t53.5 82.5t19 107h-194q-13 0 -21.5 8.5t-8.5 21.5v197q0 14 8.5 22t21.5 8h72q-41 92 -41 207q0 195 126 300t350 105q218 0 352.5 -111.5t134.5 -307.5
q0 -29 -28 -32l-203 -23q-31 -3 -34 28q-20 191 -235 191q-95 0 -145.5 -46t-50.5 -125q0 -56 16.5 -97.5t47.5 -88.5h457q14 0 22 -8t8 -22v-197q0 -13 -8 -21.5t-22 -8.5h-358v-18q0 -147 -126 -271h633z" />
    <glyph glyph-name="currency" unicode="&#xa4;" 
d="M1061 952q0 -114 -53 -212l92 -92l-148 -146l-82 82q-117 -80 -257 -80t-255 78l-80 -80l-148 146l88 88q-55 101 -55 216q0 119 58 221l-91 92l148 146l86 -86q111 75 249 75q139 0 251 -77l88 88l148 -146l-95 -96q56 -100 56 -217zM613 695q64 0 115.5 25t81.5 64.5
t46 83t16 84.5q0 40 -16 83.5t-46 83t-81.5 65t-115.5 25.5t-116 -25.5t-82 -65t-46 -83t-16 -83.5q0 -41 15.5 -84.5t46 -83t82.5 -64.5t116 -25z" />
    <glyph glyph-name="yen" unicode="&#xa5;" 
d="M1151 1400q18 0 23.5 -10t-3.5 -26l-361 -709h248q14 0 22 -8.5t8 -21.5v-147q0 -14 -8 -22t-22 -8h-297v-81h297q14 0 22 -8.5t8 -21.5v-148q0 -13 -8 -21.5t-22 -8.5h-297v-129q0 -14 -8.5 -22t-21.5 -8h-232q-13 0 -21.5 8t-8.5 22v129h-297q-14 0 -22 8.5t-8 21.5
v148q0 13 8 21.5t22 8.5h297v81h-297q-14 0 -22 8t-8 22v147q0 13 8 21.5t22 8.5h250l-363 709q-9 16 -3.5 26t23.5 10h245q27 0 36 -20l255 -544l255 544q9 20 36 20h245z" />
    <glyph glyph-name="brokenbar" unicode="&#xa6;" 
d="M731 1600q13 0 21.5 -8t8.5 -22v-560q0 -14 -8.5 -22t-21.5 -8h-232q-13 0 -21.5 8t-8.5 22v560q0 14 8.5 22t21.5 8h232zM731 240q13 0 21.5 -8t8.5 -22v-560q0 -14 -8.5 -22t-21.5 -8h-232q-13 0 -21.5 8t-8.5 22v560q0 14 8.5 22t21.5 8h232z" />
    <glyph glyph-name="section" unicode="&#xa7;" 
d="M1154 558q0 -169 -96 -271q46 -81 46 -187q0 -210 -131.5 -315.5t-376.5 -105.5t-370 90.5t-144 290.5q-1 15 6.5 24t21.5 9h214q22 0 30 -27q32 -124 242 -124q222 0 222 149q0 52 -15.5 82.5t-66 56t-147.5 45.5q-84 17 -150 37.5t-137.5 58t-118 85.5t-77 122
t-30.5 166q0 154 95 253q-46 84 -46 195q0 190 121.5 299t340.5 109q458 0 495 -372q1 -15 -6.5 -24.5t-21.5 -9.5h-198q-21 0 -30 28q-14 54 -73 85.5t-161 31.5q-89 0 -136 -39.5t-47 -107.5q0 -32 1 -45.5t10 -38t26.5 -38t53.5 -29t89 -25.5q64 -12 115 -24.5t112 -33
t107 -44t91.5 -58.5t74.5 -77t47 -98.5t18 -122.5zM589 529q141 -25 241 -64q44 36 44 95q0 84 -65 128t-220 75q-114 23 -193 54q-38 -36 -38 -93q0 -77 49.5 -124t181.5 -71z" />
    <glyph glyph-name="dieresis" unicode="&#xa8;" 
d="M393 1136q-58 0 -99 41.5t-41 101.5q0 59 41.5 100t98.5 41q58 0 99.5 -41t41.5 -100q0 -60 -41.5 -101.5t-99.5 -41.5zM836 1136q-58 0 -99 41.5t-41 101.5q0 59 41.5 100t98.5 41q58 0 99.5 -41t41.5 -100q0 -60 -41.5 -101.5t-99.5 -41.5z" />
    <glyph glyph-name="copyright" unicode="&#xa9;" 
d="M615 112q-156 0 -288.5 76.5t-210 208.5t-77.5 287t77.5 287t210 208.5t288.5 76.5t288.5 -76.5t210 -208.5t77.5 -287t-77.5 -287t-210 -208.5t-288.5 -76.5zM615 274q169 0 286.5 119.5t117.5 290.5t-117.5 290.5t-286.5 119.5t-286.5 -119.5t-117.5 -290.5
t117.5 -290.5t286.5 -119.5zM793 506q20 -23 -2 -42q-68 -59 -164 -59q-113 0 -195 81t-82 198t82 198t195 81q94 0 166 -59q21 -18 0 -42l-52 -56q-13 -15 -40 -2q-33 16 -69 16q-57 0 -96 -39.5t-39 -96.5t39 -96.5t96 -39.5q27 0 69 16q16 7 22.5 7.5t17.5 -9.5z" />
    <glyph glyph-name="ordfeminine" unicode="&#xaa;" 
d="M798 1400h177v-718h-177l-16 53q-72 -53 -163 -53q-151 0 -257.5 106t-106.5 258t106.5 258t257.5 106q90 0 162 -53zM619 880q71 0 119.5 48t48.5 118t-48.5 119t-119.5 49q-70 0 -118 -48.5t-48 -119.5q0 -70 47.5 -118t118.5 -48z" />
    <glyph glyph-name="guillemotleft" unicode="&#xab;" 
d="M614 944l-252 -382l252 -382q10 -16 4 -26t-24 -10h-225q-25 0 -36 20l-250 378q-14 20 0 40l250 378q11 20 36 20h225q18 0 24 -10t-4 -26zM1146 944l-252 -382l252 -382q11 -16 5 -26t-25 -10h-225q-25 0 -36 20l-250 378q-14 20 0 40l250 378q11 20 36 20h225
q19 0 25 -10t-5 -26z" />
    <glyph glyph-name="logicalnot" unicode="&#xac;" 
d="M1085 626q13 0 21.5 -8t8.5 -22v-314q0 -14 -8.5 -22t-21.5 -8h-218q-13 0 -21.5 8t-8.5 22v115h-692q-13 0 -21.5 8.5t-8.5 21.5v169q0 14 8.5 22t21.5 8h940z" />
    <glyph glyph-name="uni00AD" unicode="&#xad;" 
d="M1085 667q13 0 21.5 -8.5t8.5 -21.5v-169q0 -14 -8.5 -22t-21.5 -8h-940q-13 0 -21.5 8t-8.5 22v169q0 13 8.5 21.5t21.5 8.5h940z" />
    <glyph glyph-name="registered" unicode="&#xae;" 
d="M615 1256q156 0 288.5 -76.5t210 -208.5t77.5 -287t-77.5 -287t-210 -208.5t-288.5 -76.5t-288.5 76.5t-210 208.5t-77.5 287t77.5 287t210 208.5t288.5 76.5zM615 274q169 0 286.5 119.5t117.5 290.5t-117.5 290.5t-286.5 119.5t-286.5 -119.5t-117.5 -290.5
t117.5 -290.5t286.5 -119.5zM751 589l139 -140q6 -7 3.5 -13t-11.5 -6h-128q-13 0 -20 7l-137 144h-73v-136q0 -15 -14 -15h-112q-15 0 -15 15v477q0 16 15 16h270q101 0 162 -42.5t61 -135.5q0 -139 -140 -171zM670 823h-146v-127h146q34 0 53.5 16.5t19.5 47.5
q0 30 -20 46.5t-53 16.5z" />
    <glyph glyph-name="macron" unicode="&#xaf;" 
d="M887 1400q13 0 21.5 -8t8.5 -22v-159q0 -13 -8.5 -21.5t-21.5 -8.5h-544q-13 0 -21.5 8.5t-8.5 21.5v159q0 14 8.5 22t21.5 8h544z" />
    <glyph glyph-name="degree" unicode="&#xb0;" 
d="M615 1410q133 0 222.5 -88t89.5 -222q0 -137 -89.5 -225.5t-222.5 -88.5t-222.5 88.5t-89.5 225.5q0 134 89.5 222t222.5 88zM615 1231q-66 0 -98.5 -40t-32.5 -91q0 -54 32.5 -95t98.5 -41t98.5 41t32.5 95q0 51 -32.5 91t-98.5 40z" />
    <glyph glyph-name="plusminus" unicode="&#xb1;" 
d="M1040 886q14 0 22 -8t8 -22v-147q0 -13 -8 -21.5t-22 -8.5h-311v-312q0 -13 -8.5 -21.5t-21.5 -8.5h-148q-13 0 -21.5 8.5t-8.5 21.5v312h-311q-14 0 -22 8.5t-8 21.5v147q0 14 8 22t22 8h311v311q0 13 8.5 21.5t21.5 8.5h148q13 0 21.5 -8.5t8.5 -21.5v-311h311z
M1020 207q14 0 22 -8.5t8 -21.5v-147q0 -14 -8 -22t-22 -8h-830q-14 0 -22 8t-8 22v147q0 13 8 21.5t22 8.5h830z" />
    <glyph glyph-name="uni00B2" unicode="&#xb2;" 
d="M1058 430q14 0 22 -8t8 -22v-160q0 -14 -8 -22t-22 -8h-908q-14 0 -22 8t-8 22v95q0 80 29.5 142t78.5 99.5t111 67t127 46t127 34t111 33.5t78.5 42.5t29.5 61.5q0 97 -196 97q-113 0 -172.5 -31t-70.5 -113q-3 -31 -34 -28l-201 23q-28 3 -28 32q0 121 64 203t173 119
t257 37q213 0 346.5 -90.5t133.5 -248.5q0 -69 -34.5 -121t-89.5 -83t-121.5 -54t-133 -39.5t-121.5 -33t-89.5 -41.5t-34.5 -59h598z" />
    <glyph glyph-name="uni00B3" unicode="&#xb3;" 
d="M913 713q121 -30 178.5 -84.5t57.5 -150.5q0 -294 -525 -294q-101 0 -176 7t-143 26t-110.5 51t-67.5 85t-25 125q0 29 28 32l211 24q30 3 35 -28q6 -50 63 -68.5t177 -18.5t174.5 21t54.5 68q0 34 -23.5 55.5t-95 35t-197.5 13.5q-30 0 -30 30v109q0 29 32 29
q134 0 197.5 7.5t87 25t23.5 54.5q0 97 -215 97q-49 0 -85 -4.5t-71 -16.5t-55 -36t-24 -60q-3 -31 -35 -28l-211 23q-28 3 -28 32q0 90 37 154.5t107 101.5t161 53.5t210 16.5q142 0 248 -28t170.5 -92t64.5 -159q0 -80 -50 -134.5t-150 -73.5z" />
    <glyph glyph-name="acute" unicode="&#xb4;" 
d="M779 1460q17 0 24 -9t0 -25l-120 -252q-11 -24 -34 -24h-198q-17 0 -24 9t0 25l120 252q11 24 34 24h198z" />
    <glyph glyph-name="uni00B5" unicode="&#xb5;" 
d="M1064 980q14 0 22 -8t8 -22v-920q0 -14 -8 -22t-22 -8h-214q-28 0 -30 30l-8 127h-21q-116 -179 -305 -179q-37 0 -68 7v-335q0 -14 -8 -22t-22 -8h-222q-14 0 -22 8t-8 22v1300q0 14 8 22t22 8h222q14 0 22 -8t8 -22v-499q0 -112 50.5 -162t130.5 -50q55 0 99 22
t67.5 54t35 61t11.5 49v525q0 14 8 22t22 8h222z" />
    <glyph glyph-name="paragraph" unicode="&#xb6;" 
d="M468 1400h289q13 0 21.5 -8t8.5 -22v-1340q0 -14 -8.5 -22t-21.5 -8h-212q-13 0 -21.5 8t-8.5 22v440h-47q-116 0 -195 30t-124.5 91.5t-64.5 144t-19 199.5t19 199.5t64.5 144t124.5 91.5t195 30zM1150 1400q14 0 22 -8t8 -22v-1340q0 -14 -8 -22t-22 -8h-211
q-13 0 -21.5 8t-8.5 22v1340q0 14 8.5 22t21.5 8h211z" />
    <glyph glyph-name="periodcentered" unicode="&#xb7;" 
d="M615 406q-83 0 -141 58t-58 141q0 82 58.5 140t140.5 58t140.5 -58t58.5 -140q0 -83 -58 -141t-141 -58z" />
    <glyph glyph-name="cedilla" unicode="&#xb8;" 
d="M627 -66q73 -6 127 -50t54 -116q0 -65 -31 -111.5t-81.5 -68t-114.5 -29t-130 5.5q-18 3 -18 22v98q0 9 6 15t16 5q78 -12 121.5 3t43.5 48q0 18 -22 32t-58 16t-83 -17q-11 -4 -17.5 -0.5t-6.5 14.5v103q0 14 10 24l77 72h182z" />
    <glyph glyph-name="uni00B9" unicode="&#xb9;" 
d="M1035 439q13 0 21.5 -8.5t8.5 -21.5v-169q0 -14 -8.5 -22t-21.5 -8h-840q-13 0 -21.5 8t-8.5 22v169q0 13 8.5 21.5t21.5 8.5h321v485q-109 -110 -298 -110q-30 0 -30 28v190q0 32 30 32q163 0 298 126h252q14 0 22 -8t8 -22v-721h237z" />
    <glyph glyph-name="ordmasculine" unicode="&#xba;" 
d="M615 682q-151 0 -257.5 106t-106.5 258t106.5 258t257.5 106t257.5 -106t106.5 -258t-106.5 -258t-257.5 -106zM615 880q71 0 120 48t49 118t-49 119t-120 49q-70 0 -118 -48.5t-48 -119.5q0 -70 47.5 -118t118.5 -48z" />
    <glyph glyph-name="guillemotright" unicode="&#xbb;" 
d="M84 944q-11 16 -5 26t25 10h225q25 0 36 -20l250 -378q14 -20 0 -40l-250 -378q-11 -20 -36 -20h-225q-19 0 -25 10t5 26l252 382zM616 944q-10 16 -4 26t24 10h225q25 0 36 -20l250 -378q14 -20 0 -40l-250 -378q-11 -20 -36 -20h-225q-18 0 -24 10t4 26l252 382z" />
    <glyph glyph-name="onequarter" unicode="&#xbc;" 
d="M193 798q-13 0 -21.5 6.5t-8.5 17.5v139q0 24 30 24h321v397q-110 -90 -298 -90q-30 0 -30 23v156q0 26 30 26q162 0 298 103h252q13 0 21.5 -6.5t8.5 -17.5v-591h237q30 0 30 -24v-139q0 -11 -8.5 -17.5t-21.5 -6.5h-840zM1185 707q13 0 21.5 -8.5t8.5 -21.5v-130
q0 -13 -8.5 -21.5t-21.5 -8.5h-1140q-13 0 -21.5 8.5t-8.5 21.5v130q0 13 8.5 21.5t21.5 8.5h1140zM1123 71q30 0 30 -26v-146q0 -26 -30 -26h-138v-227q0 -26 -30 -26h-222q-30 0 -30 26v227h-598q-30 0 -30 26v542q0 11 8.5 18.5t21.5 7.5h222q13 0 21.5 -7.5t8.5 -18.5
v-370h346v370q0 11 8.5 18.5t21.5 7.5h222q13 0 21.5 -7.5t8.5 -18.5v-370h138z" />
    <glyph glyph-name="onehalf" unicode="&#xbd;" 
d="M193 798q-13 0 -21.5 6.5t-8.5 17.5v139q0 24 30 24h321v397q-110 -90 -298 -90q-30 0 -30 23v156q0 26 30 26q162 0 298 103h252q13 0 21.5 -6.5t8.5 -17.5v-591h237q30 0 30 -24v-139q0 -11 -8.5 -17.5t-21.5 -6.5h-840zM1185 707q13 0 21.5 -8.5t8.5 -21.5v-130
q0 -13 -8.5 -21.5t-21.5 -8.5h-1140q-13 0 -21.5 8.5t-8.5 21.5v130q0 13 8.5 21.5t21.5 8.5h1140zM1073 -200q13 0 21.5 -6.5t8.5 -17.5v-131q0 -25 -30 -25h-908q-30 0 -30 25v77q0 65 29.5 116t78.5 82t111 55t127 37.5t127 28t111 27.5t78.5 34.5t29.5 50.5
q0 79 -196 79q-113 0 -172.5 -25.5t-70.5 -92.5q-3 -25 -34 -22l-201 18q-28 3 -28 27q0 99 64 165.5t173 97t257 30.5q213 0 346.5 -73.5t133.5 -203.5q0 -65 -46 -112.5t-115.5 -71.5t-150.5 -44.5t-150.5 -33.5t-115.5 -36t-46 -55h598z" />
    <glyph glyph-name="threequarters" unicode="&#xbe;" 
d="M902 1211q121 -25 178.5 -69.5t57.5 -123.5q0 -240 -525 -240q-101 0 -176 5.5t-143 21t-110.5 42t-67.5 69.5t-25 102q0 24 28 26l211 20q30 3 35 -23q6 -41 63 -56t177 -15q121 0 175 17.5t54 55.5q0 28 -23.5 45.5t-95 28.5t-197.5 11q-30 0 -30 25v89q0 24 32 24
q101 0 158.5 2.5t92.5 11t46 21.5t11 36q0 79 -215 79q-49 0 -85 -3.5t-71 -13.5t-55 -29.5t-24 -49.5q-3 -25 -35 -23l-211 19q-28 3 -28 26q0 74 37 127t107 83t161 43.5t210 13.5q219 0 351 -56.5t132 -171.5q0 -66 -50 -110.5t-150 -59.5zM1185 707q13 0 21.5 -8.5
t8.5 -21.5v-130q0 -13 -8.5 -21.5t-21.5 -8.5h-1140q-13 0 -21.5 8.5t-8.5 21.5v130q0 13 8.5 21.5t21.5 8.5h1140zM957 467q13 0 21.5 -7.5t8.5 -18.5v-370h138q30 0 30 -26v-146q0 -26 -30 -26h-138v-227q0 -26 -30 -26h-222q-30 0 -30 26v227h-598q-30 0 -30 26v542
q0 11 8.5 18.5t21.5 7.5h222q13 0 21.5 -7.5t8.5 -18.5v-370h346v370q0 11 8.5 18.5t21.5 7.5h222z" />
    <glyph glyph-name="questiondown" unicode="&#xbf;" 
d="M630 1066q82 0 140.5 -58t58.5 -141q0 -82 -58.5 -140t-140.5 -58t-140.5 58t-58.5 140q0 83 58.5 141t140.5 58zM750 575q30 0 30 -32q-4 -88 -27 -151t-56.5 -97t-73.5 -57t-79 -37.5t-71.5 -30.5t-52.5 -45t-20 -73q0 -81 50 -127t146 -46q217 0 237 191q3 31 34 28
l203 -23q28 -3 28 -32q0 -196 -135 -307.5t-355 -111.5q-213 0 -344.5 109t-131.5 315q0 78 18.5 136t48.5 91.5t66.5 58t74 43t69.5 38.5t54.5 52.5t27.5 77.5q3 30 32 30h227z" />
    <glyph glyph-name="Agrave" unicode="&#xc0;" 
d="M477 1534l-120 252q-7 16 0 25t24 9h198q23 0 34 -24l120 -252q7 -16 0 -25t-24 -9h-198q-23 0 -34 24zM1169 34q9 -34 -24 -34h-236q-29 0 -34 24l-48 211h-424l-48 -211q-5 -24 -34 -24h-236q-33 0 -24 34l338 1342q6 24 34 24h364q28 0 34 -24zM459 483h312l-140 614
h-32z" />
    <glyph glyph-name="Aacute" unicode="&#xc1;" 
d="M523 1510q-17 0 -24 9t0 25l120 252q11 24 34 24h198q17 0 24 -9t0 -25l-120 -252q-11 -24 -34 -24h-198zM1169 34q9 -34 -24 -34h-236q-29 0 -34 24l-48 211h-424l-48 -211q-5 -24 -34 -24h-236q-33 0 -24 34l338 1342q6 24 34 24h364q28 0 34 -24zM459 483h312
l-140 614h-32z" />
    <glyph glyph-name="Acircumflex" unicode="&#xc2;" 
d="M215 1537q-20 0 -25 10t7 26l230 267q15 16 36 16h304q21 0 36 -16l230 -267q12 -16 7 -26t-25 -10h-219q-25 0 -36 16l-145 147l-145 -147q-11 -16 -36 -16h-219zM1169 34q9 -34 -24 -34h-236q-29 0 -34 24l-48 211h-424l-48 -211q-5 -24 -34 -24h-236q-33 0 -24 34
l338 1342q6 24 34 24h364q28 0 34 -24zM459 483h312l-140 614h-32z" />
    <glyph glyph-name="Atilde" unicode="&#xc3;" 
d="M260 1629q-9 0 -15 7.5t-5 19.5q12 101 71 152.5t149 51.5q53 0 102 -22t79.5 -48t70.5 -48t78 -22q68 0 92 55q6 16 22 16h66q20 0 20 -20q1 -102 -62.5 -156.5t-157.5 -54.5q-53 0 -102 22t-79.5 48.5t-70.5 48.5t-78 22q-68 0 -92 -56q-6 -16 -22 -16h-66zM1169 34
q9 -34 -24 -34h-236q-29 0 -34 24l-48 211h-424l-48 -211q-5 -24 -34 -24h-236q-33 0 -24 34l338 1342q6 24 34 24h364q28 0 34 -24zM459 483h312l-140 614h-32z" />
    <glyph glyph-name="Adieresis" unicode="&#xc4;" 
d="M393 1556q-58 0 -99 41.5t-41 101.5q0 59 41.5 100t98.5 41q58 0 99.5 -41t41.5 -100q0 -60 -41.5 -101.5t-99.5 -41.5zM836 1556q-58 0 -99 41.5t-41 101.5q0 59 41.5 100t98.5 41q58 0 99.5 -41t41.5 -100q0 -60 -41.5 -101.5t-99.5 -41.5zM1169 34q9 -34 -24 -34h-236
q-29 0 -34 24l-48 211h-424l-48 -211q-5 -24 -34 -24h-236q-33 0 -24 34l338 1342q6 24 34 24h364q28 0 34 -24zM459 483h312l-140 614h-32z" />
    <glyph glyph-name="Aring" unicode="&#xc5;" 
d="M615 1495q-87 0 -147 60t-60 143q0 84 60 144.5t147 60.5q86 0 145.5 -60.5t59.5 -144.5q0 -83 -59.5 -143t-145.5 -60zM615 1759q-26 0 -43 -16.5t-17 -42.5t17 -42.5t43 -16.5q25 0 42.5 16.5t18.5 42.5q-1 26 -18.5 42.5t-42.5 16.5zM1169 34q9 -34 -24 -34h-236
q-29 0 -34 24l-48 211h-424l-48 -211q-5 -24 -34 -24h-236q-33 0 -24 34l338 1342q6 24 34 24h364q28 0 34 -24zM459 483h312l-140 614h-32z" />
    <glyph glyph-name="AE" unicode="&#xc6;" 
d="M1166 258q14 0 22 -8t8 -22v-198q0 -14 -8 -22t-22 -8h-534q-14 0 -22 8t-8 22v130h-239l-45 -136q-8 -24 -34 -24h-222q-17 0 -23.5 9.5t-0.5 24.5l482 1342q9 24 34 24h610q14 0 22 -8t8 -22v-198q0 -14 -8 -22t-22 -8h-280v-295h240q14 0 22 -8.5t8 -21.5v-198
q0 -13 -8 -21.5t-22 -8.5h-240v-331h282zM444 408h158v479z" />
    <glyph glyph-name="Ccedilla" unicode="&#xc7;" 
d="M1110 454q29 0 29 -32q-15 -230 -126 -335.5t-334 -115.5l-42 -37q73 -6 127 -50t54 -116q0 -65 -31 -111.5t-81.5 -68t-114.5 -29t-130 5.5q-18 3 -18 22v98q0 9 6 15t16 5q78 -12 121.5 3t43.5 48q0 18 -22 32t-58 16t-83 -17q-11 -4 -17.5 -0.5t-6.5 14.5v103
q0 14 10 24l52 49q-210 27 -301 177t-91 480v122q0 252 53 396.5t162.5 206t297.5 61.5q251 0 374.5 -104.5t138.5 -347.5q0 -32 -29 -32h-209q-31 0 -35 26q-16 105 -67.5 140.5t-161.5 35.5q-51 0 -86.5 -8.5t-66.5 -32.5t-49.5 -66.5t-29 -111t-10.5 -165.5v-118
q0 -120 15 -197t47.5 -118t74 -55.5t105.5 -14.5q116 0 164.5 35t64.5 142q4 26 35 26h209z" />
    <glyph glyph-name="Egrave" unicode="&#xc8;" 
d="M381 1820h198q23 0 34 -24l120 -252q7 -16 0 -25t-24 -9h-198q-23 0 -34 24l-120 252q-7 16 0 25t24 9zM1056 258q14 0 22 -8t8 -22v-198q0 -14 -8 -22t-22 -8h-872q-14 0 -22 8t-8 22v1340q0 14 8 22t22 8h870q14 0 22 -8t8 -22v-198q0 -14 -8 -22t-22 -8h-608v-302h558
q14 0 22 -8t8 -22v-198q0 -14 -8 -22t-22 -8h-558v-324h610z" />
    <glyph glyph-name="Eacute" unicode="&#xc9;" 
d="M851 1820q17 0 24 -9t0 -25l-120 -252q-11 -24 -34 -24h-198q-17 0 -24 9t0 25l120 252q11 24 34 24h198zM1056 258q14 0 22 -8t8 -22v-198q0 -14 -8 -22t-22 -8h-872q-14 0 -22 8t-8 22v1340q0 14 8 22t22 8h870q14 0 22 -8t8 -22v-198q0 -14 -8 -22t-22 -8h-608v-302
h558q14 0 22 -8t8 -22v-198q0 -14 -8 -22t-22 -8h-558v-324h610z" />
    <glyph glyph-name="Ecircumflex" unicode="&#xca;" 
d="M767 1856q21 0 36 -16l230 -267q12 -16 7 -26t-25 -10h-219q-25 0 -36 16l-145 147l-145 -147q-11 -16 -36 -16h-219q-20 0 -25 10t7 26l230 267q15 16 36 16h304zM1056 258q14 0 22 -8t8 -22v-198q0 -14 -8 -22t-22 -8h-872q-14 0 -22 8t-8 22v1340q0 14 8 22t22 8h870
q14 0 22 -8t8 -22v-198q0 -14 -8 -22t-22 -8h-608v-302h558q14 0 22 -8t8 -22v-198q0 -14 -8 -22t-22 -8h-558v-324h610z" />
    <glyph glyph-name="Edieresis" unicode="&#xcb;" 
d="M393 1556q-58 0 -99 41.5t-41 101.5q0 59 41.5 100t98.5 41q58 0 99.5 -41t41.5 -100q0 -60 -41.5 -101.5t-99.5 -41.5zM836 1556q-58 0 -99 41.5t-41 101.5q0 59 41.5 100t98.5 41q58 0 99.5 -41t41.5 -100q0 -60 -41.5 -101.5t-99.5 -41.5zM1056 258q14 0 22 -8t8 -22
v-198q0 -14 -8 -22t-22 -8h-872q-14 0 -22 8t-8 22v1340q0 14 8 22t22 8h870q14 0 22 -8t8 -22v-198q0 -14 -8 -22t-22 -8h-608v-302h558q14 0 22 -8t8 -22v-198q0 -14 -8 -22t-22 -8h-558v-324h610z" />
    <glyph glyph-name="Igrave" unicode="&#xcc;" 
d="M381 1820h198q23 0 34 -24l120 -252q7 -16 0 -25t-24 -9h-198q-23 0 -34 24l-120 252q-7 16 0 25t24 9zM1065 1142h-304v-884h304q13 0 21.5 -8t8.5 -22v-198q0 -14 -8.5 -22t-21.5 -8h-900q-13 0 -21.5 8t-8.5 22v198q0 14 8.5 22t21.5 8h304v884h-304q-13 0 -21.5 8
t-8.5 22v198q0 14 8.5 22t21.5 8h900q13 0 21.5 -8t8.5 -22v-198q0 -14 -8.5 -22t-21.5 -8z" />
    <glyph glyph-name="Iacute" unicode="&#xcd;" 
d="M851 1820q17 0 24 -9t0 -25l-120 -252q-11 -24 -34 -24h-198q-17 0 -24 9t0 25l120 252q11 24 34 24h198zM1065 1142h-304v-884h304q13 0 21.5 -8t8.5 -22v-198q0 -14 -8.5 -22t-21.5 -8h-900q-13 0 -21.5 8t-8.5 22v198q0 14 8.5 22t21.5 8h304v884h-304q-13 0 -21.5 8
t-8.5 22v198q0 14 8.5 22t21.5 8h900q13 0 21.5 -8t8.5 -22v-198q0 -14 -8.5 -22t-21.5 -8z" />
    <glyph glyph-name="Icircumflex" unicode="&#xce;" 
d="M767 1856q21 0 36 -16l230 -267q12 -16 7 -26t-25 -10h-219q-25 0 -36 16l-145 147l-145 -147q-11 -16 -36 -16h-219q-20 0 -25 10t7 26l230 267q15 16 36 16h304zM1065 1142h-304v-884h304q13 0 21.5 -8t8.5 -22v-198q0 -14 -8.5 -22t-21.5 -8h-900q-13 0 -21.5 8
t-8.5 22v198q0 14 8.5 22t21.5 8h304v884h-304q-13 0 -21.5 8t-8.5 22v198q0 14 8.5 22t21.5 8h900q13 0 21.5 -8t8.5 -22v-198q0 -14 -8.5 -22t-21.5 -8z" />
    <glyph glyph-name="Idieresis" unicode="&#xcf;" 
d="M393 1556q-58 0 -99 41.5t-41 101.5q0 59 41.5 100t98.5 41q58 0 99.5 -41t41.5 -100q0 -60 -41.5 -101.5t-99.5 -41.5zM836 1556q-58 0 -99 41.5t-41 101.5q0 59 41.5 100t98.5 41q58 0 99.5 -41t41.5 -100q0 -60 -41.5 -101.5t-99.5 -41.5zM1065 1142h-304v-884h304
q13 0 21.5 -8t8.5 -22v-198q0 -14 -8.5 -22t-21.5 -8h-900q-13 0 -21.5 8t-8.5 22v198q0 14 8.5 22t21.5 8h304v884h-304q-13 0 -21.5 8t-8.5 22v198q0 14 8.5 22t21.5 8h900q13 0 21.5 -8t8.5 -22v-198q0 -14 -8.5 -22t-21.5 -8z" />
    <glyph glyph-name="Eth" unicode="&#xd0;" 
d="M589 1400q128 0 226 -34.5t161 -94.5t103 -149.5t56 -192t16 -229.5t-16 -229.5t-56 -192t-103 -149.5t-161 -94.5t-226 -34.5h-433q-14 0 -22 8t-8 22v548h-31q-13 0 -21.5 8t-8.5 22v159q0 13 8.5 21.5t21.5 8.5h31v573q0 14 8 22t22 8h433zM589 258q68 0 115.5 20
t76.5 54.5t45.5 92.5t22 121t5.5 154t-5.5 154t-22 121t-45.5 92.5t-76.5 54.5t-115.5 20h-171v-345h221q13 0 21.5 -8.5t8.5 -21.5v-159q0 -14 -8.5 -22t-21.5 -8h-221v-320h171z" />
    <glyph glyph-name="Ntilde" unicode="&#xd1;" 
d="M260 1629q-9 0 -15 7.5t-5 19.5q12 101 71 152.5t149 51.5q53 0 102 -22t79.5 -48t70.5 -48t78 -22q68 0 92 55q6 16 22 16h66q20 0 20 -20q1 -102 -62.5 -156.5t-157.5 -54.5q-53 0 -102 22t-79.5 48.5t-70.5 48.5t-78 22q-68 0 -92 -56q-6 -16 -22 -16h-66zM1077 1400
q13 0 21.5 -8t8.5 -22v-1340q0 -14 -8.5 -22t-21.5 -8h-255q-27 0 -36 20l-403 896v-886q0 -14 -8.5 -22t-21.5 -8h-200q-13 0 -21.5 8t-8.5 22v1340q0 14 8.5 22t21.5 8h254q29 0 36 -20l404 -896v886q0 14 8.5 22t21.5 8h200z" />
    <glyph glyph-name="Ograve" unicode="&#xd2;" 
d="M381 1820h198q23 0 34 -24l120 -252q7 -16 0 -25t-24 -9h-198q-23 0 -34 24l-120 252q-7 16 0 25t24 9zM615 1420q143 0 238 -32.5t157.5 -111t89.5 -204t27 -316.5v-120q0 -192 -27 -318t-89.5 -204.5t-157.5 -111t-238 -32.5t-238 32.5t-157.5 111t-89.5 204.5t-27 318
v120q0 191 27 316.5t89.5 204t157.5 111t238 32.5zM615 1139q-45 0 -75 -4.5t-58 -19t-44 -40t-29 -68.5t-18 -105t-5 -148v-118q0 -86 5 -148t18 -105t29 -68.5t44 -40t58 -19t75 -4.5t75 4.5t58 19t44 40t29 68.5t18 105t5 148v118q0 86 -5 148t-18 105t-29 68.5t-44 40
t-58 19t-75 4.5z" />
    <glyph glyph-name="Oacute" unicode="&#xd3;" 
d="M851 1820q17 0 24 -9t0 -25l-120 -252q-11 -24 -34 -24h-198q-17 0 -24 9t0 25l120 252q11 24 34 24h198zM615 1420q143 0 238 -32.5t157.5 -111t89.5 -204t27 -316.5v-120q0 -192 -27 -318t-89.5 -204.5t-157.5 -111t-238 -32.5t-238 32.5t-157.5 111t-89.5 204.5
t-27 318v120q0 191 27 316.5t89.5 204t157.5 111t238 32.5zM615 1139q-45 0 -75 -4.5t-58 -19t-44 -40t-29 -68.5t-18 -105t-5 -148v-118q0 -86 5 -148t18 -105t29 -68.5t44 -40t58 -19t75 -4.5t75 4.5t58 19t44 40t29 68.5t18 105t5 148v118q0 86 -5 148t-18 105t-29 68.5
t-44 40t-58 19t-75 4.5z" />
    <glyph glyph-name="Ocircumflex" unicode="&#xd4;" 
d="M767 1856q21 0 36 -16l230 -267q12 -16 7 -26t-25 -10h-219q-25 0 -36 16l-145 147l-145 -147q-11 -16 -36 -16h-219q-20 0 -25 10t7 26l230 267q15 16 36 16h304zM615 1420q143 0 238 -32.5t157.5 -111t89.5 -204t27 -316.5v-120q0 -192 -27 -318t-89.5 -204.5
t-157.5 -111t-238 -32.5t-238 32.5t-157.5 111t-89.5 204.5t-27 318v120q0 191 27 316.5t89.5 204t157.5 111t238 32.5zM615 1139q-45 0 -75 -4.5t-58 -19t-44 -40t-29 -68.5t-18 -105t-5 -148v-118q0 -86 5 -148t18 -105t29 -68.5t44 -40t58 -19t75 -4.5t75 4.5t58 19
t44 40t29 68.5t18 105t5 148v118q0 86 -5 148t-18 105t-29 68.5t-44 40t-58 19t-75 4.5z" />
    <glyph glyph-name="Otilde" unicode="&#xd5;" 
d="M460 1860q53 0 102 -22t79.5 -48t70.5 -48t78 -22q68 0 92 55q6 16 22 16h66q20 0 20 -20q1 -102 -62.5 -156.5t-157.5 -54.5q-53 0 -102 22t-79.5 48.5t-70.5 48.5t-78 22q-68 0 -92 -56q-6 -16 -22 -16h-66q-9 0 -15 7.5t-5 19.5q12 101 71 152.5t149 51.5zM615 1420
q143 0 238 -32.5t157.5 -111t89.5 -204t27 -316.5v-120q0 -192 -27 -318t-89.5 -204.5t-157.5 -111t-238 -32.5t-238 32.5t-157.5 111t-89.5 204.5t-27 318v120q0 191 27 316.5t89.5 204t157.5 111t238 32.5zM615 1139q-45 0 -75 -4.5t-58 -19t-44 -40t-29 -68.5t-18 -105
t-5 -148v-118q0 -86 5 -148t18 -105t29 -68.5t44 -40t58 -19t75 -4.5t75 4.5t58 19t44 40t29 68.5t18 105t5 148v118q0 86 -5 148t-18 105t-29 68.5t-44 40t-58 19t-75 4.5z" />
    <glyph glyph-name="Odieresis" unicode="&#xd6;" 
d="M393 1556q-58 0 -99 41.5t-41 101.5q0 59 41.5 100t98.5 41q58 0 99.5 -41t41.5 -100q0 -60 -41.5 -101.5t-99.5 -41.5zM836 1556q-58 0 -99 41.5t-41 101.5q0 59 41.5 100t98.5 41q58 0 99.5 -41t41.5 -100q0 -60 -41.5 -101.5t-99.5 -41.5zM615 1420q143 0 238 -32.5
t157.5 -111t89.5 -204t27 -316.5v-120q0 -192 -27 -318t-89.5 -204.5t-157.5 -111t-238 -32.5t-238 32.5t-157.5 111t-89.5 204.5t-27 318v120q0 191 27 316.5t89.5 204t157.5 111t238 32.5zM615 1139q-45 0 -75 -4.5t-58 -19t-44 -40t-29 -68.5t-18 -105t-5 -148v-118
q0 -86 5 -148t18 -105t29 -68.5t44 -40t58 -19t75 -4.5t75 4.5t58 19t44 40t29 68.5t18 105t5 148v118q0 86 -5 148t-18 105t-29 68.5t-44 40t-58 19t-75 4.5z" />
    <glyph glyph-name="multiply" unicode="&#xd7;" 
d="M761 570l220 -220q20 -20 0 -42l-104 -104q-21 -22 -43 0l-219 220l-221 -221q-22 -20 -43 0l-104 105q-22 22 0 42l221 221l-220 220q-22 20 0 42l103 104q21 21 43 0l220 -220l220 220q20 22 42 0l105 -105q20 -20 0 -42z" />
    <glyph glyph-name="Oslash" unicode="&#xd8;" 
d="M1020 1265q107 -148 107 -509v-120q0 -192 -27 -318t-89.5 -204.5t-157.5 -111t-238 -32.5q-110 0 -190 19l-31 -67q-9 -22 -34 -22h-216q-17 0 -23 10t1 26l88 189q-107 148 -107 511v120q0 191 27 316.5t89.5 204t157.5 111t238 32.5q110 0 190 -19l31 67q9 22 34 22
h216q17 0 23 -10t-1 -26zM386 636q0 -77 4 -126l291 626q-30 3 -66 3q-45 0 -75 -4.5t-58 -19t-44 -40t-29 -68.5t-18 -105t-5 -148v-118zM844 636v118q0 77 -4 126l-291 -626q30 -3 66 -3q45 0 75 4.5t58 19t44 40t29 68.5t18 105t5 148z" />
    <glyph glyph-name="Ugrave" unicode="&#xd9;" 
d="M381 1820h198q23 0 34 -24l120 -252q7 -16 0 -25t-24 -9h-198q-23 0 -34 24l-120 252q-7 16 0 25t24 9zM1077 1400q13 0 21.5 -8t8.5 -22v-857q0 -282 -120.5 -412.5t-371.5 -130.5q-249 0 -370.5 130.5t-121.5 412.5v857q0 14 8.5 22t21.5 8h232q13 0 21.5 -8t8.5 -22
v-854q0 -132 48 -199t152 -67q105 0 152.5 66.5t47.5 199.5v854q0 14 8.5 22t21.5 8h232z" />
    <glyph glyph-name="Uacute" unicode="&#xda;" 
d="M851 1820q17 0 24 -9t0 -25l-120 -252q-11 -24 -34 -24h-198q-17 0 -24 9t0 25l120 252q11 24 34 24h198zM1077 1400q13 0 21.5 -8t8.5 -22v-857q0 -282 -120.5 -412.5t-371.5 -130.5q-249 0 -370.5 130.5t-121.5 412.5v857q0 14 8.5 22t21.5 8h232q13 0 21.5 -8t8.5 -22
v-854q0 -132 48 -199t152 -67q105 0 152.5 66.5t47.5 199.5v854q0 14 8.5 22t21.5 8h232z" />
    <glyph glyph-name="Ucircumflex" unicode="&#xdb;" 
d="M767 1856q21 0 36 -16l230 -267q12 -16 7 -26t-25 -10h-219q-25 0 -36 16l-145 147l-145 -147q-11 -16 -36 -16h-219q-20 0 -25 10t7 26l230 267q15 16 36 16h304zM1077 1400q13 0 21.5 -8t8.5 -22v-857q0 -282 -120.5 -412.5t-371.5 -130.5q-249 0 -370.5 130.5
t-121.5 412.5v857q0 14 8.5 22t21.5 8h232q13 0 21.5 -8t8.5 -22v-854q0 -132 48 -199t152 -67q105 0 152.5 66.5t47.5 199.5v854q0 14 8.5 22t21.5 8h232z" />
    <glyph glyph-name="Udieresis" unicode="&#xdc;" 
d="M393 1556q-58 0 -99 41.5t-41 101.5q0 59 41.5 100t98.5 41q58 0 99.5 -41t41.5 -100q0 -60 -41.5 -101.5t-99.5 -41.5zM836 1556q-58 0 -99 41.5t-41 101.5q0 59 41.5 100t98.5 41q58 0 99.5 -41t41.5 -100q0 -60 -41.5 -101.5t-99.5 -41.5zM1077 1400q13 0 21.5 -8
t8.5 -22v-857q0 -282 -120.5 -412.5t-371.5 -130.5q-249 0 -370.5 130.5t-121.5 412.5v857q0 14 8.5 22t21.5 8h232q13 0 21.5 -8t8.5 -22v-854q0 -132 48 -199t152 -67q105 0 152.5 66.5t47.5 199.5v854q0 14 8.5 22t21.5 8h232z" />
    <glyph glyph-name="Yacute" unicode="&#xdd;" 
d="M523 1510q-17 0 -24 9t0 25l120 252q11 24 34 24h198q17 0 24 -9t0 -25l-120 -252q-11 -24 -34 -24h-198zM1151 1400q18 0 23.5 -10t-3.5 -26l-410 -805v-529q0 -14 -8.5 -22t-21.5 -8h-232q-13 0 -21.5 8t-8.5 22v532l-410 802q-9 16 -3.5 26t23.5 10h245q27 0 36 -20
l255 -544l255 544q9 20 36 20h245z" />
    <glyph glyph-name="Thorn" unicode="&#xde;" 
d="M626 1160q249 0 382 -120t133 -340t-133 -340t-382 -120h-245v-210q0 -14 -8.5 -22t-21.5 -8h-232q-13 0 -21.5 8t-8.5 22v1340q0 14 8.5 22t21.5 8h232q13 0 21.5 -8t8.5 -22v-210h245zM606 498q125 0 190 44t65 158t-65 158t-190 44h-225v-404h225z" />
    <glyph glyph-name="germandbls" unicode="&#xdf;" 
d="M819 725q63 -8 118.5 -32t101 -63.5t72 -99.5t26.5 -132q0 -217 -133 -307.5t-415 -90.5h-86q-13 0 -21.5 8t-8.5 22v158q0 14 8.5 22t21.5 8h86q142 0 209 41.5t67 148.5q0 100 -75.5 137.5t-228.5 37.5h-58q-13 0 -21.5 8.5t-8.5 21.5v158q0 13 8.5 21.5t21.5 8.5h58
q122 0 173 50.5t51 140.5q0 153 -193 153q-107 0 -152 -37t-45 -131v-947q0 -14 -8.5 -22t-21.5 -8h-222q-13 0 -21.5 8t-8.5 22v947q0 208 131.5 315.5t347.5 107.5q206 0 335.5 -97.5t129.5 -275.5q0 -137 -72.5 -215.5t-165.5 -86.5z" />
    <glyph glyph-name="agrave" unicode="&#xe0;" 
d="M477 1114l-120 252q-7 16 0 25t24 9h198q23 0 34 -24l120 -252q7 -16 0 -25t-24 -9h-198q-23 0 -34 24zM1097 234q21 -6 29.5 -13.5t8.5 -20.5v-179q0 -29 -66 -29q-119 1 -177.5 39.5t-58.5 129.5h-23v-1q-53 -77 -162 -130.5t-218 -53.5q-157 0 -248.5 74.5
t-91.5 206.5q0 139 88.5 210.5t270.5 98.5l155 24q128 20 149 50q-7 69 -48 98t-112 29q-165 0 -184 -105q-3 -19 -28 -19h-209q-14 0 -22.5 8t-7.5 22q19 177 136 253t319 76q210 0 321.5 -98.5t111.5 -295.5v-290q0 -64 67 -84zM369 299q0 -41 31 -64.5t89 -23.5
q163 0 265 102v157q-17 -31 -151 -54l-123 -21q-54 -10 -82.5 -35t-28.5 -61z" />
    <glyph glyph-name="aacute" unicode="&#xe1;" 
d="M523 1090q-17 0 -24 9t0 25l120 252q11 24 34 24h198q17 0 24 -9t0 -25l-120 -252q-11 -24 -34 -24h-198zM1097 234q21 -6 29.5 -13.5t8.5 -20.5v-179q0 -29 -66 -29q-119 1 -177.5 39.5t-58.5 129.5h-23v-1q-53 -77 -162 -130.5t-218 -53.5q-157 0 -248.5 74.5
t-91.5 206.5q0 139 88.5 210.5t270.5 98.5l155 24q128 20 149 50q-7 69 -48 98t-112 29q-165 0 -184 -105q-3 -19 -28 -19h-209q-14 0 -22.5 8t-7.5 22q19 177 136 253t319 76q210 0 321.5 -98.5t111.5 -295.5v-290q0 -64 67 -84zM369 299q0 -41 31 -64.5t89 -23.5
q163 0 265 102v157q-17 -31 -151 -54l-123 -21q-54 -10 -82.5 -35t-28.5 -61z" />
    <glyph glyph-name="acircumflex" unicode="&#xe2;" 
d="M215 1117q-20 0 -25 10t7 26l230 267q15 16 36 16h304q21 0 36 -16l230 -267q12 -16 7 -26t-25 -10h-219q-25 0 -36 16l-145 147l-145 -147q-11 -16 -36 -16h-219zM1097 234q21 -6 29.5 -13.5t8.5 -20.5v-179q0 -29 -66 -29q-119 1 -177.5 39.5t-58.5 129.5h-23v-1
q-53 -77 -162 -130.5t-218 -53.5q-157 0 -248.5 74.5t-91.5 206.5q0 139 88.5 210.5t270.5 98.5l155 24q128 20 149 50q-7 69 -48 98t-112 29q-165 0 -184 -105q-3 -19 -28 -19h-209q-14 0 -22.5 8t-7.5 22q19 177 136 253t319 76q210 0 321.5 -98.5t111.5 -295.5v-290
q0 -64 67 -84zM369 299q0 -41 31 -64.5t89 -23.5q163 0 265 102v157q-17 -31 -151 -54l-123 -21q-54 -10 -82.5 -35t-28.5 -61z" />
    <glyph glyph-name="atilde" unicode="&#xe3;" 
d="M260 1209q-9 0 -15 7.5t-5 19.5q12 101 71 152.5t149 51.5q53 0 102 -22t79.5 -48t70.5 -48t78 -22q68 0 92 55q6 16 22 16h66q20 0 20 -20q1 -102 -62.5 -156.5t-157.5 -54.5q-53 0 -102 22t-79.5 48.5t-70.5 48.5t-78 22q-68 0 -92 -56q-6 -16 -22 -16h-66zM1097 234
q21 -6 29.5 -13.5t8.5 -20.5v-179q0 -29 -66 -29q-119 1 -177.5 39.5t-58.5 129.5h-23v-1q-53 -77 -162 -130.5t-218 -53.5q-157 0 -248.5 74.5t-91.5 206.5q0 139 88.5 210.5t270.5 98.5l155 24q128 20 149 50q-7 69 -48 98t-112 29q-165 0 -184 -105q-3 -19 -28 -19h-209
q-14 0 -22.5 8t-7.5 22q19 177 136 253t319 76q210 0 321.5 -98.5t111.5 -295.5v-290q0 -64 67 -84zM369 299q0 -41 31 -64.5t89 -23.5q163 0 265 102v157q-17 -31 -151 -54l-123 -21q-54 -10 -82.5 -35t-28.5 -61z" />
    <glyph glyph-name="adieresis" unicode="&#xe4;" 
d="M393 1136q-58 0 -99 41.5t-41 101.5q0 59 41.5 100t98.5 41q58 0 99.5 -41t41.5 -100q0 -60 -41.5 -101.5t-99.5 -41.5zM836 1136q-58 0 -99 41.5t-41 101.5q0 59 41.5 100t98.5 41q58 0 99.5 -41t41.5 -100q0 -60 -41.5 -101.5t-99.5 -41.5zM1097 234q21 -6 29.5 -13.5
t8.5 -20.5v-179q0 -29 -66 -29q-119 1 -177.5 39.5t-58.5 129.5h-23v-1q-53 -77 -162 -130.5t-218 -53.5q-157 0 -248.5 74.5t-91.5 206.5q0 139 88.5 210.5t270.5 98.5l155 24q128 20 149 50q-7 69 -48 98t-112 29q-165 0 -184 -105q-3 -19 -28 -19h-209q-14 0 -22.5 8
t-7.5 22q19 177 136 253t319 76q210 0 321.5 -98.5t111.5 -295.5v-290q0 -64 67 -84zM369 299q0 -41 31 -64.5t89 -23.5q163 0 265 102v157q-17 -31 -151 -54l-123 -21q-54 -10 -82.5 -35t-28.5 -61z" />
    <glyph glyph-name="aring" unicode="&#xe5;" 
d="M615 1075q-87 0 -147 60t-60 143q0 84 60 144.5t147 60.5q86 0 145.5 -60.5t59.5 -144.5q0 -83 -59.5 -143t-145.5 -60zM615 1339q-26 0 -43 -16.5t-17 -42.5t17 -42.5t43 -16.5q25 0 42.5 16.5t18.5 42.5q-1 26 -18.5 42.5t-42.5 16.5zM1097 234q21 -6 29.5 -13.5
t8.5 -20.5v-179q0 -29 -66 -29q-119 1 -177.5 39.5t-58.5 129.5h-23v-1q-53 -77 -162 -130.5t-218 -53.5q-157 0 -248.5 74.5t-91.5 206.5q0 139 88.5 210.5t270.5 98.5l155 24q128 20 149 50q-7 69 -48 98t-112 29q-165 0 -184 -105q-3 -19 -28 -19h-209q-14 0 -22.5 8
t-7.5 22q19 177 136 253t319 76q210 0 321.5 -98.5t111.5 -295.5v-290q0 -64 67 -84zM369 299q0 -41 31 -64.5t89 -23.5q163 0 265 102v157q-17 -31 -151 -54l-123 -21q-54 -10 -82.5 -35t-28.5 -61z" />
    <glyph glyph-name="ae" unicode="&#xe6;" 
d="M896 192q97 0 170 63l109 -131q-108 -150 -297 -150q-193 0 -281 136q-116 -136 -275 -136q-122 0 -199.5 77.5t-77.5 211.5q0 141 68.5 214t214.5 86l188 16q0 100 -31.5 149.5t-80.5 49.5q-106 0 -125 -104q-3 -19 -28 -19h-136q-14 0 -22.5 8t-7.5 22q27 317 319 317
q169 0 238 -87q81 87 208 87q92 0 159 -38.5t104.5 -109t54.5 -157t17 -193.5q0 -66 -14 -94t-57 -28h-404q13 -92 57 -141t129 -49zM850 778q-68 0 -101.5 -52t-41.5 -154h275q-2 105 -33 155.5t-99 50.5zM516 305v106l-161 -13q-94 -9 -94 -103q0 -44 25.5 -69.5
t73.5 -25.5q114 0 156 105z" />
    <glyph glyph-name="ccedilla" unicode="&#xe7;" 
d="M1091 241q27 -17 10 -40q-64 -101 -174 -163.5t-243 -63.5l-46 -40q73 -6 127 -50t54 -116q0 -65 -31 -111.5t-81.5 -68t-114.5 -29t-130 5.5q-18 3 -18 22v98q0 9 6 15t16 5q78 -12 121.5 3t43.5 48q0 18 -22 32t-58 16t-83 -17q-10 -4 -17 -0.5t-7 14.5v103q0 14 10 24
l71 67q-166 46 -268 181t-102 312q0 218 149.5 366t373.5 148q135 0 246.5 -62t176.5 -165q17 -23 -10 -40l-165 -93q-22 -13 -40 8q-73 91 -201 91q-111 0 -184.5 -71t-73.5 -182t73.5 -182t184.5 -71q128 0 201 91q18 21 40 8z" />
    <glyph glyph-name="egrave" unicode="&#xe8;" 
d="M467 1114l-120 252q-7 16 0 25t24 9h198q23 0 34 -24l120 -252q7 -16 0 -25t-24 -9h-198q-23 0 -34 24zM1103 504q0 -66 -14 -94t-57 -28h-653q19 -87 96 -134t194 -47q125 0 219 62q25 17 44 -2l93 -93q21 -21 -2 -44q-150 -150 -381 -150q-157 0 -280 68.5t-189 185
t-66 260.5q0 218 145 366t367 148q110 0 202 -39.5t153 -107.5t95 -158.5t34 -192.5zM621 764q-93 0 -156 -49t-81 -142h469q-15 93 -76.5 142t-155.5 49z" />
    <glyph glyph-name="eacute" unicode="&#xe9;" 
d="M513 1090q-17 0 -24 9t0 25l120 252q11 24 34 24h198q17 0 24 -9t0 -25l-120 -252q-11 -24 -34 -24h-198zM1103 504q0 -66 -14 -94t-57 -28h-653q19 -87 96 -134t194 -47q125 0 219 62q25 17 44 -2l93 -93q21 -21 -2 -44q-150 -150 -381 -150q-157 0 -280 68.5t-189 185
t-66 260.5q0 218 145 366t367 148q110 0 202 -39.5t153 -107.5t95 -158.5t34 -192.5zM621 764q-93 0 -156 -49t-81 -142h469q-15 93 -76.5 142t-155.5 49z" />
    <glyph glyph-name="ecircumflex" unicode="&#xea;" 
d="M205 1117q-20 0 -25 10t7 26l230 267q15 16 36 16h304q21 0 36 -16l230 -267q12 -16 7 -26t-25 -10h-219q-25 0 -36 16l-145 147l-145 -147q-11 -16 -36 -16h-219zM1103 504q0 -66 -14 -94t-57 -28h-653q19 -87 96 -134t194 -47q125 0 219 62q25 17 44 -2l93 -93
q21 -21 -2 -44q-150 -150 -381 -150q-157 0 -280 68.5t-189 185t-66 260.5q0 218 145 366t367 148q110 0 202 -39.5t153 -107.5t95 -158.5t34 -192.5zM621 764q-93 0 -156 -49t-81 -142h469q-15 93 -76.5 142t-155.5 49z" />
    <glyph glyph-name="edieresis" unicode="&#xeb;" 
d="M383 1136q-58 0 -99 41.5t-41 101.5q0 59 41.5 100t98.5 41q58 0 99.5 -41t41.5 -100q0 -60 -41.5 -101.5t-99.5 -41.5zM826 1136q-58 0 -99 41.5t-41 101.5q0 59 41.5 100t98.5 41q58 0 99.5 -41t41.5 -100q0 -60 -41.5 -101.5t-99.5 -41.5zM1103 504q0 -66 -14 -94
t-57 -28h-653q19 -87 96 -134t194 -47q125 0 219 62q25 17 44 -2l93 -93q21 -21 -2 -44q-150 -150 -381 -150q-157 0 -280 68.5t-189 185t-66 260.5q0 218 145 366t367 148q110 0 202 -39.5t153 -107.5t95 -158.5t34 -192.5zM621 764q-93 0 -156 -49t-81 -142h469
q-15 93 -76.5 142t-155.5 49z" />
    <glyph glyph-name="igrave" unicode="&#xec;" 
d="M477 1114l-120 252q-7 16 0 25t24 9h198q23 0 34 -24l120 -252q7 -16 0 -25t-24 -9h-198q-23 0 -34 24zM1056 229q14 0 22 -8.5t8 -21.5v-169q0 -14 -8 -22t-22 -8h-872q-14 0 -22 8t-8 22v169q0 13 8 21.5t22 8.5h321v522h-271q-14 0 -22 8.5t-8 21.5v169q0 14 8 22
t22 8h523q13 0 21.5 -8t8.5 -22v-721h269z" />
    <glyph glyph-name="iacute" unicode="&#xed;" 
d="M523 1090q-17 0 -24 9t0 25l120 252q11 24 34 24h198q17 0 24 -9t0 -25l-120 -252q-11 -24 -34 -24h-198zM1056 229q14 0 22 -8.5t8 -21.5v-169q0 -14 -8 -22t-22 -8h-872q-14 0 -22 8t-8 22v169q0 13 8 21.5t22 8.5h321v522h-271q-14 0 -22 8.5t-8 21.5v169q0 14 8 22
t22 8h523q13 0 21.5 -8t8.5 -22v-721h269z" />
    <glyph glyph-name="icircumflex" unicode="&#xee;" 
d="M215 1117q-20 0 -25 10t7 26l230 267q15 16 36 16h304q21 0 36 -16l230 -267q12 -16 7 -26t-25 -10h-219q-25 0 -36 16l-145 147l-145 -147q-11 -16 -36 -16h-219zM1056 229q14 0 22 -8.5t8 -21.5v-169q0 -14 -8 -22t-22 -8h-872q-14 0 -22 8t-8 22v169q0 13 8 21.5
t22 8.5h321v522h-271q-14 0 -22 8.5t-8 21.5v169q0 14 8 22t22 8h523q13 0 21.5 -8t8.5 -22v-721h269z" />
    <glyph glyph-name="idieresis" unicode="&#xef;" 
d="M393 1136q-58 0 -99 41.5t-41 101.5q0 59 41.5 100t98.5 41q58 0 99.5 -41t41.5 -100q0 -60 -41.5 -101.5t-99.5 -41.5zM836 1136q-58 0 -99 41.5t-41 101.5q0 59 41.5 100t98.5 41q58 0 99.5 -41t41.5 -100q0 -60 -41.5 -101.5t-99.5 -41.5zM1056 229q14 0 22 -8.5
t8 -21.5v-169q0 -14 -8 -22t-22 -8h-872q-14 0 -22 8t-8 22v169q0 13 8 21.5t22 8.5h321v522h-271q-14 0 -22 8.5t-8 21.5v169q0 14 8 22t22 8h523q13 0 21.5 -8t8.5 -22v-721h269z" />
    <glyph glyph-name="eth" unicode="&#xf0;" 
d="M1123 1306q32 3 32 -28v-139q0 -29 -28 -32l-21 -3v-1074q0 -14 -8 -22t-22 -8h-201q-27 0 -30 30l-6 68q-119 -124 -296 -124q-135 0 -236 69.5t-152 185t-51 259.5t51 259.5t152 185t236 69.5q180 0 258 -139h23v207l-145 -17q-32 -3 -32 28v139q0 29 28 32l149 18v100
q0 14 8 22t22 8h222q14 0 22 -8t8 -22v-66zM604 231q109 0 169.5 70t60.5 189q0 118 -60.5 186.5t-169.5 68.5q-108 0 -168 -68.5t-60 -186.5q0 -119 60.5 -189t167.5 -70z" />
    <glyph glyph-name="ntilde" unicode="&#xf1;" 
d="M260 1209q-9 0 -15 7.5t-5 19.5q12 101 71 152.5t149 51.5q53 0 102 -22t79.5 -48t70.5 -48t78 -22q68 0 92 55q6 16 22 16h66q20 0 20 -20q1 -102 -62.5 -156.5t-157.5 -54.5q-53 0 -102 22t-79.5 48.5t-70.5 48.5t-78 22q-68 0 -92 -56q-6 -16 -22 -16h-66zM744 1002
q152 0 251 -113.5t99 -305.5v-553q0 -14 -8 -22t-22 -8h-222q-14 0 -22 8t-8 22v499q0 112 -50.5 162t-130.5 50q-55 0 -99 -22t-67.5 -54t-35 -61t-11.5 -49v-525q0 -14 -8 -22t-22 -8h-222q-14 0 -22 8t-8 22v920q0 14 8 22t22 8h214q27 0 30 -30l8 -127h21
q116 179 305 179z" />
    <glyph glyph-name="ograve" unicode="&#xf2;" 
d="M381 1400h198q23 0 34 -24l120 -252q7 -16 0 -25t-24 -9h-198q-23 0 -34 24l-120 252q-7 16 0 25t24 9zM615 -26q-214 0 -360 148t-146 366t146 366t360 148t360 -148t146 -366t-146 -366t-360 -148zM615 235q101 0 167.5 71t66.5 182t-66.5 182t-167.5 71t-167.5 -71
t-66.5 -182t66.5 -182t167.5 -71z" />
    <glyph glyph-name="oacute" unicode="&#xf3;" 
d="M851 1400q17 0 24 -9t0 -25l-120 -252q-11 -24 -34 -24h-198q-17 0 -24 9t0 25l120 252q11 24 34 24h198zM615 -26q-214 0 -360 148t-146 366t146 366t360 148t360 -148t146 -366t-146 -366t-360 -148zM615 235q101 0 167.5 71t66.5 182t-66.5 182t-167.5 71t-167.5 -71
t-66.5 -182t66.5 -182t167.5 -71z" />
    <glyph glyph-name="ocircumflex" unicode="&#xf4;" 
d="M767 1436q21 0 36 -16l230 -267q12 -16 7 -26t-25 -10h-219q-25 0 -36 16l-145 147l-145 -147q-11 -16 -36 -16h-219q-20 0 -25 10t7 26l230 267q15 16 36 16h304zM615 -26q-214 0 -360 148t-146 366t146 366t360 148t360 -148t146 -366t-146 -366t-360 -148zM615 235
q101 0 167.5 71t66.5 182t-66.5 182t-167.5 71t-167.5 -71t-66.5 -182t66.5 -182t167.5 -71z" />
    <glyph glyph-name="otilde" unicode="&#xf5;" 
d="M460 1440q53 0 102 -22t79.5 -48t70.5 -48t78 -22q68 0 92 55q6 16 22 16h66q20 0 20 -20q1 -102 -62.5 -156.5t-157.5 -54.5q-53 0 -102 22t-79.5 48.5t-70.5 48.5t-78 22q-68 0 -92 -56q-6 -16 -22 -16h-66q-9 0 -15 7.5t-5 19.5q12 101 71 152.5t149 51.5zM615 -26
q-214 0 -360 148t-146 366t146 366t360 148t360 -148t146 -366t-146 -366t-360 -148zM615 235q101 0 167.5 71t66.5 182t-66.5 182t-167.5 71t-167.5 -71t-66.5 -182t66.5 -182t167.5 -71z" />
    <glyph glyph-name="odieresis" unicode="&#xf6;" 
d="M393 1136q-58 0 -99 41.5t-41 101.5q0 59 41.5 100t98.5 41q58 0 99.5 -41t41.5 -100q0 -60 -41.5 -101.5t-99.5 -41.5zM836 1136q-58 0 -99 41.5t-41 101.5q0 59 41.5 100t98.5 41q58 0 99.5 -41t41.5 -100q0 -60 -41.5 -101.5t-99.5 -41.5zM615 -26q-214 0 -360 148
t-146 366t146 366t360 148t360 -148t146 -366t-146 -366t-360 -148zM615 235q101 0 167.5 71t66.5 182t-66.5 182t-167.5 71t-167.5 -71t-66.5 -182t66.5 -182t167.5 -71z" />
    <glyph glyph-name="divide" unicode="&#xf7;" 
d="M615 741q-83 0 -141 58.5t-58 140.5t58.5 140t140.5 58t140.5 -58t58.5 -140t-58 -140.5t-141 -58.5zM1030 674q14 0 22 -8t8 -22v-147q0 -13 -8 -21.5t-22 -8.5h-830q-14 0 -22 8.5t-8 21.5v147q0 14 8 22t22 8h830zM615 2q-83 0 -141 58t-58 141q0 82 58.5 140
t140.5 58t140.5 -58t58.5 -140q0 -83 -58 -141t-141 -58z" />
    <glyph glyph-name="oslash" unicode="&#xf8;" 
d="M918 903q95 -70 149 -178.5t54 -236.5q0 -218 -146 -366t-360 -148q-54 0 -107 11l-46 -103q-8 -22 -34 -22h-171q-17 0 -23 10t1 26l78 175q-95 71 -149.5 180t-54.5 237q0 218 146 366t360 148q54 0 109 -11l46 103q8 22 34 22h171q17 0 23 -10t-1 -26zM381 488
q0 -93 47 -159l184 412q-100 -1 -165.5 -72t-65.5 -181zM620 235q99 2 164 72.5t65 180.5q0 90 -46 157z" />
    <glyph glyph-name="ugrave" unicode="&#xf9;" 
d="M477 1114l-120 252q-7 16 0 25t24 9h198q23 0 34 -24l120 -252q7 -16 0 -25t-24 -9h-198q-23 0 -34 24zM1064 980q14 0 22 -8t8 -22v-920q0 -14 -8 -22t-22 -8h-214q-28 0 -30 30l-8 127h-21q-116 -179 -305 -179q-152 0 -251 113.5t-99 305.5v553q0 14 8 22t22 8h222
q14 0 22 -8t8 -22v-499q0 -112 50.5 -162t130.5 -50q55 0 99 22t67.5 54t35 61t11.5 49v525q0 14 8 22t22 8h222z" />
    <glyph glyph-name="uacute" unicode="&#xfa;" 
d="M523 1090q-17 0 -24 9t0 25l120 252q11 24 34 24h198q17 0 24 -9t0 -25l-120 -252q-11 -24 -34 -24h-198zM1064 980q14 0 22 -8t8 -22v-920q0 -14 -8 -22t-22 -8h-214q-28 0 -30 30l-8 127h-21q-116 -179 -305 -179q-152 0 -251 113.5t-99 305.5v553q0 14 8 22t22 8h222
q14 0 22 -8t8 -22v-499q0 -112 50.5 -162t130.5 -50q55 0 99 22t67.5 54t35 61t11.5 49v525q0 14 8 22t22 8h222z" />
    <glyph glyph-name="ucircumflex" unicode="&#xfb;" 
d="M215 1117q-20 0 -25 10t7 26l230 267q15 16 36 16h304q21 0 36 -16l230 -267q12 -16 7 -26t-25 -10h-219q-25 0 -36 16l-145 147l-145 -147q-11 -16 -36 -16h-219zM1064 980q14 0 22 -8t8 -22v-920q0 -14 -8 -22t-22 -8h-214q-28 0 -30 30l-8 127h-21
q-116 -179 -305 -179q-152 0 -251 113.5t-99 305.5v553q0 14 8 22t22 8h222q14 0 22 -8t8 -22v-499q0 -112 50.5 -162t130.5 -50q55 0 99 22t67.5 54t35 61t11.5 49v525q0 14 8 22t22 8h222z" />
    <glyph glyph-name="udieresis" unicode="&#xfc;" 
d="M393 1136q-58 0 -99 41.5t-41 101.5q0 59 41.5 100t98.5 41q58 0 99.5 -41t41.5 -100q0 -60 -41.5 -101.5t-99.5 -41.5zM836 1136q-58 0 -99 41.5t-41 101.5q0 59 41.5 100t98.5 41q58 0 99.5 -41t41.5 -100q0 -60 -41.5 -101.5t-99.5 -41.5zM1064 980q14 0 22 -8t8 -22
v-920q0 -14 -8 -22t-22 -8h-214q-28 0 -30 30l-8 127h-21q-116 -179 -305 -179q-152 0 -251 113.5t-99 305.5v553q0 14 8 22t22 8h222q14 0 22 -8t8 -22v-499q0 -112 50.5 -162t130.5 -50q55 0 99 22t67.5 54t35 61t11.5 49v525q0 14 8 22t22 8h222z" />
    <glyph glyph-name="yacute" unicode="&#xfd;" 
d="M851 1400q17 0 24 -9t0 -25l-120 -252q-11 -24 -34 -24h-198q-17 0 -24 9t0 25l120 252q11 24 34 24h198zM1110 980q36 0 24 -34l-513 -1302q-8 -24 -36 -24h-221q-17 0 -24 9t0 25l136 343l-379 949q-7 16 0 25t24 9h221q28 0 36 -24l237 -636l237 636q9 24 36 24h222z
" />
    <glyph glyph-name="thorn" unicode="&#xfe;" 
d="M699 1002q134 0 235.5 -69.5t153 -185t51.5 -259.5t-51.5 -259.5t-152.5 -185t-236 -69.5q-167 0 -282 112v-436q0 -14 -8.5 -22t-21.5 -8h-222q-13 0 -21.5 8t-8.5 22v1720q0 14 8.5 22t21.5 8h222q13 0 21.5 -8t8.5 -22v-507h22q97 139 260 139zM637 231q114 0 172 69
t58 190q0 120 -58 187.5t-172 67.5q-106 0 -162.5 -68t-56.5 -187t57 -189t162 -70z" />
    <glyph glyph-name="ydieresis" unicode="&#xff;" 
d="M393 1136q-58 0 -99 41.5t-41 101.5q0 59 41.5 100t98.5 41q58 0 99.5 -41t41.5 -100q0 -60 -41.5 -101.5t-99.5 -41.5zM836 1136q-58 0 -99 41.5t-41 101.5q0 59 41.5 100t98.5 41q58 0 99.5 -41t41.5 -100q0 -60 -41.5 -101.5t-99.5 -41.5zM1110 980q36 0 24 -34
l-513 -1302q-8 -24 -36 -24h-221q-17 0 -24 9t0 25l136 343l-379 949q-7 16 0 25t24 9h221q28 0 36 -24l237 -636l237 636q9 24 36 24h222z" />
    <glyph glyph-name="Amacron" unicode="&#x100;" 
d="M343 1597q-13 0 -21.5 8.5t-8.5 21.5v159q0 14 8.5 22t21.5 8h544q13 0 21.5 -8t8.5 -22v-159q0 -13 -8.5 -21.5t-21.5 -8.5h-544zM1169 34q9 -34 -24 -34h-236q-29 0 -34 24l-48 211h-424l-48 -211q-5 -24 -34 -24h-236q-33 0 -24 34l338 1342q6 24 34 24h364
q28 0 34 -24zM459 483h312l-140 614h-32z" />
    <glyph glyph-name="amacron" unicode="&#x101;" 
d="M343 1177q-13 0 -21.5 8.5t-8.5 21.5v159q0 14 8.5 22t21.5 8h544q13 0 21.5 -8t8.5 -22v-159q0 -13 -8.5 -21.5t-21.5 -8.5h-544zM1097 234q21 -6 29.5 -13.5t8.5 -20.5v-179q0 -29 -66 -29q-119 1 -177.5 39.5t-58.5 129.5h-23v-1q-53 -77 -162 -130.5t-218 -53.5
q-157 0 -248.5 74.5t-91.5 206.5q0 139 88.5 210.5t270.5 98.5l155 24q128 20 149 50q-7 69 -48 98t-112 29q-165 0 -184 -105q-3 -19 -28 -19h-209q-14 0 -22.5 8t-7.5 22q19 177 136 253t319 76q210 0 321.5 -98.5t111.5 -295.5v-290q0 -64 67 -84zM369 299
q0 -41 31 -64.5t89 -23.5q163 0 265 102v157q-17 -31 -151 -54l-123 -21q-54 -10 -82.5 -35t-28.5 -61z" />
    <glyph glyph-name="Abreve" unicode="&#x102;" 
d="M615 1513q-146 0 -235 83t-102 209q-3 32 30 32h120q25 0 32 -30q10 -47 51 -82t104 -35t104 35t51 82q7 30 32 30h120q33 0 30 -32q-13 -126 -102 -209t-235 -83zM1169 34q9 -34 -24 -34h-236q-29 0 -34 24l-48 211h-424l-48 -211q-5 -24 -34 -24h-236q-33 0 -24 34
l338 1342q6 24 34 24h364q28 0 34 -24zM459 483h312l-140 614h-32z" />
    <glyph glyph-name="abreve" unicode="&#x103;" 
d="M615 1093q-146 0 -235 83t-102 209q-3 32 30 32h120q25 0 32 -30q10 -47 51 -82t104 -35t104 35t51 82q7 30 32 30h120q33 0 30 -32q-13 -126 -102 -209t-235 -83zM1097 234q21 -6 29.5 -13.5t8.5 -20.5v-179q0 -29 -66 -29q-119 1 -177.5 39.5t-58.5 129.5h-23v-1
q-53 -77 -162 -130.5t-218 -53.5q-157 0 -248.5 74.5t-91.5 206.5q0 139 88.5 210.5t270.5 98.5l155 24q128 20 149 50q-7 69 -48 98t-112 29q-165 0 -184 -105q-3 -19 -28 -19h-209q-14 0 -22.5 8t-7.5 22q19 177 136 253t319 76q210 0 321.5 -98.5t111.5 -295.5v-290
q0 -64 67 -84zM369 299q0 -41 31 -64.5t89 -23.5q163 0 265 102v157q-17 -31 -151 -54l-123 -21q-54 -10 -82.5 -35t-28.5 -61z" />
    <glyph glyph-name="Aogonek" unicode="&#x104;" 
d="M1169 34q9 -34 -24 -34h-82q-84 -7 -130.5 -51t-46.5 -98q0 -40 31.5 -63.5t96.5 -9.5v-174q-46 -20 -105.5 -21t-116.5 17.5t-96 69t-39 125.5q0 90 59 156t151 107l-40 177h-424l-48 -211q-5 -24 -34 -24h-236q-33 0 -24 34l338 1342q6 24 34 24h364q28 0 34 -24z
M459 483h312l-140 614h-32z" />
    <glyph glyph-name="aogonek" unicode="&#x105;" 
d="M1097 234q21 -6 29.5 -13.5t8.5 -20.5v-179q0 -29 -66 -29h-1q-82 0 -130 -46.5t-48 -102.5q0 -40 31.5 -63.5t96.5 -9.5v-174q-45 -20 -105 -21t-116.5 17.5t-95.5 69t-39 125.5q0 89 58 156t148 109q-35 40 -35 109h-23v-1q-53 -77 -162 -130.5t-218 -53.5
q-157 0 -248.5 74.5t-91.5 206.5q0 139 88.5 210.5t270.5 98.5l155 24q128 20 149 50q-7 69 -48 98t-112 29q-165 0 -184 -105q-3 -19 -28 -19h-209q-14 0 -22.5 8t-7.5 22q19 177 136 253t319 76q210 0 321.5 -98.5t111.5 -295.5v-290q0 -64 67 -84zM369 299
q0 -41 31 -64.5t89 -23.5q163 0 265 102v157q-17 -31 -151 -54l-123 -21q-54 -10 -82.5 -35t-28.5 -61z" />
    <glyph glyph-name="Cacute" unicode="&#x106;" 
d="M850 1820q17 0 24 -9t0 -25l-120 -252q-11 -24 -34 -24h-198q-17 0 -24 9t0 25l120 252q11 24 34 24h198zM637 251q116 0 164.5 35t64.5 142q4 26 35 26h209q29 0 29 -32q-15 -243 -138.5 -347.5t-374.5 -104.5q-188 0 -297.5 61.5t-162.5 206.5t-53 396v122
q0 252 53 396.5t162.5 206t297.5 61.5q251 0 374.5 -104.5t138.5 -347.5q0 -32 -29 -32h-209q-31 0 -35 26q-16 105 -67.5 140.5t-161.5 35.5q-51 0 -86.5 -8.5t-66.5 -32.5t-49.5 -66.5t-29 -111t-10.5 -165.5v-118q0 -120 15 -197t47.5 -118t74 -55.5t105.5 -14.5z" />
    <glyph glyph-name="cacute" unicode="&#x107;" 
d="M851 1400q17 0 24 -9t0 -25l-120 -252q-11 -24 -34 -24h-198q-17 0 -24 9t0 25l120 252q11 24 34 24h198zM685 235q128 0 201 91q18 21 40 8l165 -93q27 -17 10 -40q-65 -103 -176.5 -165t-246.5 -62q-224 0 -373.5 148t-149.5 366t149.5 366t373.5 148q135 0 246.5 -62
t176.5 -165q17 -23 -10 -40l-165 -93q-22 -13 -40 8q-73 91 -201 91q-111 0 -184.5 -71t-73.5 -182t73.5 -182t184.5 -71z" />
    <glyph glyph-name="Cdotaccent" unicode="&#x10a;" 
d="M614 1546q-58 0 -99.5 41.5t-41.5 101.5q0 59 41.5 100t99.5 41t99.5 -41t41.5 -100q0 -60 -41.5 -101.5t-99.5 -41.5zM637 251q116 0 164.5 35t64.5 142q4 26 35 26h209q29 0 29 -32q-15 -243 -138.5 -347.5t-374.5 -104.5q-188 0 -297.5 61.5t-162.5 206.5t-53 396v122
q0 252 53 396.5t162.5 206t297.5 61.5q251 0 374.5 -104.5t138.5 -347.5q0 -32 -29 -32h-209q-31 0 -35 26q-16 105 -67.5 140.5t-161.5 35.5q-51 0 -86.5 -8.5t-66.5 -32.5t-49.5 -66.5t-29 -111t-10.5 -165.5v-118q0 -120 15 -197t47.5 -118t74 -55.5t105.5 -14.5z" />
    <glyph glyph-name="cdotaccent" unicode="&#x10b;" 
d="M615 1126q-58 0 -99.5 41.5t-41.5 101.5q0 59 41.5 100t99.5 41t99.5 -41t41.5 -100q0 -60 -41.5 -101.5t-99.5 -41.5zM685 235q128 0 201 91q18 21 40 8l165 -93q27 -17 10 -40q-65 -103 -176.5 -165t-246.5 -62q-224 0 -373.5 148t-149.5 366t149.5 366t373.5 148
q135 0 246.5 -62t176.5 -165q17 -23 -10 -40l-165 -93q-22 -13 -40 8q-73 91 -201 91q-111 0 -184.5 -71t-73.5 -182t73.5 -182t184.5 -71z" />
    <glyph glyph-name="Ccaron" unicode="&#x10c;" 
d="M766 1537h-304q-22 0 -36 16l-230 267q-12 15 -7 25.5t25 10.5h219q24 0 36 -16l145 -147l145 147q12 16 36 16h219q20 0 25 -10.5t-7 -25.5l-230 -267q-14 -16 -36 -16zM637 251q116 0 164.5 35t64.5 142q4 26 35 26h209q29 0 29 -32q-15 -243 -138.5 -347.5
t-374.5 -104.5q-188 0 -297.5 61.5t-162.5 206.5t-53 396v122q0 252 53 396.5t162.5 206t297.5 61.5q251 0 374.5 -104.5t138.5 -347.5q0 -32 -29 -32h-209q-31 0 -35 26q-16 105 -67.5 140.5t-161.5 35.5q-51 0 -86.5 -8.5t-66.5 -32.5t-49.5 -66.5t-29 -111t-10.5 -165.5
v-118q0 -120 15 -197t47.5 -118t74 -55.5t105.5 -14.5z" />
    <glyph glyph-name="ccaron" unicode="&#x10d;" 
d="M767 1117h-304q-22 0 -36 16l-230 267q-12 15 -6.5 25.5t24.5 10.5h219q24 0 36 -16l145 -147l145 147q12 16 36 16h219q19 0 24.5 -10.5t-6.5 -25.5l-230 -267q-14 -16 -36 -16zM685 235q128 0 201 91q18 21 40 8l165 -93q27 -17 10 -40q-65 -103 -176.5 -165
t-246.5 -62q-224 0 -373.5 148t-149.5 366t149.5 366t373.5 148q135 0 246.5 -62t176.5 -165q17 -23 -10 -40l-165 -93q-22 -13 -40 8q-73 91 -201 91q-111 0 -184.5 -71t-73.5 -182t73.5 -182t184.5 -71z" />
    <glyph glyph-name="Dcaron" unicode="&#x10e;" 
d="M427 1553l-230 267q-12 15 -6.5 25.5t24.5 10.5h219q24 0 36 -16l145 -147l145 147q12 16 36 16h219q19 0 24.5 -10.5t-6.5 -25.5l-230 -267q-14 -16 -36 -16h-304q-22 0 -36 16zM586 1400q128 0 226 -34.5t161 -94.5t103 -149.5t56 -192t16 -229.5t-16 -229.5t-56 -192
t-103 -149.5t-161 -94.5t-226 -34.5h-433q-13 0 -21.5 8t-8.5 22v1340q0 14 8.5 22t21.5 8h433zM586 258q68 0 115.5 20t76.5 54.5t45.5 92.5t22 121t5.5 154t-5.5 154t-22 121t-45.5 92.5t-76.5 54.5t-115.5 20h-171v-884h171z" />
    <glyph glyph-name="dcaron" unicode="&#x10f;" 
d="M1581 1614q17 0 24 -9t0 -25l-120 -252q-11 -24 -34 -24h-198q-17 0 -24 9t0 25l120 252q11 24 34 24h198zM1076 1400q14 0 22 -8t8 -22v-1340q0 -14 -8 -22t-22 -8h-201q-27 0 -30 30l-6 68q-119 -124 -296 -124q-135 0 -236 69.5t-152 185t-51 259.5t51 259.5t152 185
t236 69.5q180 0 258 -139h23v507q0 14 8 22t22 8h222zM604 231q109 0 169.5 70t60.5 189q0 118 -60.5 186.5t-169.5 68.5q-108 0 -168 -68.5t-60 -186.5q0 -119 60.5 -189t167.5 -70z" />
    <glyph glyph-name="Dcroat" unicode="&#x110;" 
d="M589 1400q128 0 226 -34.5t161 -94.5t103 -149.5t56 -192t16 -229.5t-16 -229.5t-56 -192t-103 -149.5t-161 -94.5t-226 -34.5h-433q-14 0 -22 8t-8 22v548h-31q-13 0 -21.5 8t-8.5 22v159q0 13 8.5 21.5t21.5 8.5h31v573q0 14 8 22t22 8h433zM589 258q68 0 115.5 20
t76.5 54.5t45.5 92.5t22 121t5.5 154t-5.5 154t-22 121t-45.5 92.5t-76.5 54.5t-115.5 20h-171v-345h221q13 0 21.5 -8.5t8.5 -21.5v-159q0 -14 -8.5 -22t-21.5 -8h-221v-320h171z" />
    <glyph glyph-name="dcroat" unicode="&#x111;" 
d="M1145 1294q13 0 21.5 -8t8.5 -22v-159q0 -13 -8.5 -21.5t-21.5 -8.5h-39v-1045q0 -14 -8 -22t-22 -8h-201q-27 0 -30 30l-6 68q-119 -124 -296 -124q-135 0 -236 69.5t-152 185t-51 259.5t51 259.5t152 185t236 69.5q180 0 258 -139h23v212h-223q-13 0 -21.5 8.5
t-8.5 21.5v159q0 14 8.5 22t21.5 8h223v76q0 14 8 22t22 8h222q14 0 22 -8t8 -22v-76h39zM604 231q109 0 169.5 70t60.5 189q0 118 -60.5 186.5t-169.5 68.5q-108 0 -168 -68.5t-60 -186.5q0 -119 60.5 -189t167.5 -70z" />
    <glyph glyph-name="Emacron" unicode="&#x112;" 
d="M887 1816q13 0 21.5 -8t8.5 -22v-159q0 -13 -8.5 -21.5t-21.5 -8.5h-544q-13 0 -21.5 8.5t-8.5 21.5v159q0 14 8.5 22t21.5 8h544zM1056 258q14 0 22 -8t8 -22v-198q0 -14 -8 -22t-22 -8h-872q-14 0 -22 8t-8 22v1340q0 14 8 22t22 8h870q14 0 22 -8t8 -22v-198
q0 -14 -8 -22t-22 -8h-608v-302h558q14 0 22 -8t8 -22v-198q0 -14 -8 -22t-22 -8h-558v-324h610z" />
    <glyph glyph-name="emacron" unicode="&#x113;" 
d="M333 1177q-13 0 -21.5 8.5t-8.5 21.5v159q0 14 8.5 22t21.5 8h544q13 0 21.5 -8t8.5 -22v-159q0 -13 -8.5 -21.5t-21.5 -8.5h-544zM1103 504q0 -66 -14 -94t-57 -28h-653q19 -87 96 -134t194 -47q125 0 219 62q25 17 44 -2l93 -93q21 -21 -2 -44q-150 -150 -381 -150
q-157 0 -280 68.5t-189 185t-66 260.5q0 218 145 366t367 148q110 0 202 -39.5t153 -107.5t95 -158.5t34 -192.5zM621 764q-93 0 -156 -49t-81 -142h469q-15 93 -76.5 142t-155.5 49z" />
    <glyph glyph-name="Edotaccent" unicode="&#x116;" 
d="M615 1546q-58 0 -99.5 41.5t-41.5 101.5q0 59 41.5 100t99.5 41t99.5 -41t41.5 -100q0 -60 -41.5 -101.5t-99.5 -41.5zM1056 258q14 0 22 -8t8 -22v-198q0 -14 -8 -22t-22 -8h-872q-14 0 -22 8t-8 22v1340q0 14 8 22t22 8h870q14 0 22 -8t8 -22v-198q0 -14 -8 -22t-22 -8
h-608v-302h558q14 0 22 -8t8 -22v-198q0 -14 -8 -22t-22 -8h-558v-324h610z" />
    <glyph glyph-name="edotaccent" unicode="&#x117;" 
d="M605 1126q-58 0 -99.5 41.5t-41.5 101.5q0 59 41.5 100t99.5 41t99.5 -41t41.5 -100q0 -60 -41.5 -101.5t-99.5 -41.5zM1103 504q0 -66 -14 -94t-57 -28h-653q19 -87 96 -134t194 -47q125 0 219 62q25 17 44 -2l93 -93q21 -21 -2 -44q-150 -150 -381 -150
q-157 0 -280 68.5t-189 185t-66 260.5q0 218 145 366t367 148q110 0 202 -39.5t153 -107.5t95 -158.5t34 -192.5zM621 764q-93 0 -156 -49t-81 -142h469q-15 93 -76.5 142t-155.5 49z" />
    <glyph glyph-name="Eogonek" unicode="&#x118;" 
d="M1056 258q14 0 22 -8t8 -22v-198q0 -14 -8 -22t-22 -8q-84 -7 -130.5 -51t-46.5 -98q0 -40 31.5 -63.5t96.5 -9.5v-174q-46 -20 -105.5 -21t-116.5 17.5t-96 69t-39 125.5q0 121 112 205h-578q-14 0 -22 8t-8 22v1340q0 14 8 22t22 8h870q14 0 22 -8t8 -22v-198
q0 -14 -8 -22t-22 -8h-608v-302h558q14 0 22 -8t8 -22v-198q0 -14 -8 -22t-22 -8h-558v-324h610z" />
    <glyph glyph-name="eogonek" unicode="&#x119;" 
d="M1103 504q0 -66 -14 -94t-57 -28h-653q19 -87 96 -134t194 -47q125 0 219 62q25 17 44 -2l93 -93q21 -21 -2 -44q-99 -99 -232 -132q-166 -54 -166 -150q0 -41 31.5 -64.5t96.5 -9.5v-174q-46 -20 -105.5 -21t-116.5 17.5t-96 69t-39 125.5q0 119 113 203
q-183 39 -292.5 176.5t-109.5 323.5q0 218 145 366t367 148q110 0 202 -39.5t153 -107.5t95 -158.5t34 -192.5zM621 764q-93 0 -156 -49t-81 -142h469q-15 93 -76.5 142t-155.5 49z" />
    <glyph glyph-name="Ecaron" unicode="&#x11a;" 
d="M767 1537h-304q-22 0 -36 16l-230 267q-12 15 -6.5 25.5t24.5 10.5h219q24 0 36 -16l145 -147l145 147q12 16 36 16h219q19 0 24.5 -10.5t-6.5 -25.5l-230 -267q-14 -16 -36 -16zM1056 258q14 0 22 -8t8 -22v-198q0 -14 -8 -22t-22 -8h-872q-14 0 -22 8t-8 22v1340
q0 14 8 22t22 8h870q14 0 22 -8t8 -22v-198q0 -14 -8 -22t-22 -8h-608v-302h558q14 0 22 -8t8 -22v-198q0 -14 -8 -22t-22 -8h-558v-324h610z" />
    <glyph glyph-name="ecaron" unicode="&#x11b;" 
d="M417 1133l-230 267q-12 15 -6.5 25.5t24.5 10.5h219q24 0 36 -16l145 -147l145 147q12 16 36 16h219q19 0 24.5 -10.5t-6.5 -25.5l-230 -267q-14 -16 -36 -16h-304q-22 0 -36 16zM1103 504q0 -66 -14 -94t-57 -28h-653q19 -87 96 -134t194 -47q125 0 219 62q25 17 44 -2
l93 -93q21 -21 -2 -44q-150 -150 -381 -150q-157 0 -280 68.5t-189 185t-66 260.5q0 218 145 366t367 148q110 0 202 -39.5t153 -107.5t95 -158.5t34 -192.5zM621 764q-93 0 -156 -49t-81 -142h469q-15 93 -76.5 142t-155.5 49z" />
    <glyph glyph-name="Gbreve" unicode="&#x11e;" 
d="M615 1513q-146 0 -235 83t-102 209q-3 32 30 32h120q25 0 32 -30q10 -47 51 -82t104 -35t104 35t51 82q7 30 32 30h120q33 0 30 -32q-13 -126 -102 -209t-235 -83zM1116 759q14 0 22 -8.5t8 -21.5v-194q0 -302 -119 -432.5t-393 -132.5q-191 0 -302 61.5t-164.5 206
t-53.5 396.5v122q0 190 28.5 316.5t92 204t158 110.5t235.5 33q250 0 373.5 -104.5t138.5 -347.5q2 -32 -28 -32h-210q-31 0 -35 26q-16 105 -67 140.5t-161 35.5q-51 0 -86.5 -8.5t-66.5 -32.5t-49.5 -66.5t-29 -111t-10.5 -165.5v-118q0 -120 14.5 -197.5t47 -118t73 -55
t102.5 -14.5q129 0 181 54t55 208h-259q-13 0 -21.5 8.5t-8.5 21.5v186q0 13 8.5 21.5t21.5 8.5h505z" />
    <glyph glyph-name="gbreve" unicode="&#x11f;" 
d="M615 1093q-146 0 -235 83t-102 209q-3 32 30 32h120q25 0 32 -30q10 -47 51 -82t104 -35t104 35t51 82q7 30 32 30h120q33 0 30 -32q-13 -126 -102 -209t-235 -83zM1077 980q13 0 21.5 -8t8.5 -22v-941q0 -76 -22.5 -138.5t-62.5 -106t-90 -75.5t-109.5 -50t-117 -26.5
t-116.5 -8.5q-124 0 -236.5 34t-192.5 91q-20 14 -8 39l72 131q16 26 40 12q132 -74 302 -74q48 0 93 9t89.5 29.5t71.5 60.5t27 95v101q-119 -138 -295 -138q-101 0 -189.5 40t-150.5 108t-98 161t-36 195t36 195t98 161t150.5 108t189.5 40q168 0 288 -135l6 83
q3 30 30 30h201zM586 251q100 0 168 74.5t68 174.5q0 98 -68 171.5t-168 73.5q-102 0 -169 -71t-67 -174q0 -105 67 -177t169 -72z" />
    <glyph glyph-name="Gdotaccent" unicode="&#x120;" 
d="M615 1546q-58 0 -99.5 41.5t-41.5 101.5q0 59 41.5 100t99.5 41t99.5 -41t41.5 -100q0 -60 -41.5 -101.5t-99.5 -41.5zM1116 759q14 0 22 -8.5t8 -21.5v-194q0 -302 -119 -432.5t-393 -132.5q-191 0 -302 61.5t-164.5 206t-53.5 396.5v122q0 190 28.5 316.5t92 204
t158 110.5t235.5 33q250 0 373.5 -104.5t138.5 -347.5q2 -32 -28 -32h-210q-31 0 -35 26q-16 105 -67 140.5t-161 35.5q-51 0 -86.5 -8.5t-66.5 -32.5t-49.5 -66.5t-29 -111t-10.5 -165.5v-118q0 -120 14.5 -197.5t47 -118t73 -55t102.5 -14.5q129 0 181 54t55 208h-259
q-13 0 -21.5 8.5t-8.5 21.5v186q0 13 8.5 21.5t21.5 8.5h505z" />
    <glyph glyph-name="gdotaccent" unicode="&#x121;" 
d="M615 1126q-58 0 -99.5 41.5t-41.5 101.5q0 59 41.5 100t99.5 41t99.5 -41t41.5 -100q0 -60 -41.5 -101.5t-99.5 -41.5zM1077 980q13 0 21.5 -8t8.5 -22v-941q0 -76 -22.5 -138.5t-62.5 -106t-90 -75.5t-109.5 -50t-117 -26.5t-116.5 -8.5q-124 0 -236.5 34t-192.5 91
q-20 14 -8 39l72 131q16 26 40 12q132 -74 302 -74q48 0 93 9t89.5 29.5t71.5 60.5t27 95v101q-119 -138 -295 -138q-101 0 -189.5 40t-150.5 108t-98 161t-36 195t36 195t98 161t150.5 108t189.5 40q168 0 288 -135l6 83q3 30 30 30h201zM586 251q100 0 168 74.5t68 174.5
q0 98 -68 171.5t-168 73.5q-102 0 -169 -71t-67 -174q0 -105 67 -177t169 -72z" />
    <glyph glyph-name="Gcommaaccent" unicode="&#x122;" 
d="M1116 759q14 0 22 -8.5t8 -21.5v-194q0 -302 -119 -432.5t-393 -132.5q-191 0 -302 61.5t-164.5 206t-53.5 396.5v122q0 190 28.5 316.5t92 204t158 110.5t235.5 33q250 0 373.5 -104.5t138.5 -347.5q2 -32 -28 -32h-210q-31 0 -35 26q-16 105 -67 140.5t-161 35.5
q-51 0 -86.5 -8.5t-66.5 -32.5t-49.5 -66.5t-29 -111t-10.5 -165.5v-118q0 -120 14.5 -197.5t47 -118t73 -55t102.5 -14.5q129 0 181 54t55 208h-259q-13 0 -21.5 8.5t-8.5 21.5v186q0 13 8.5 21.5t21.5 8.5h505zM849 -183q27 0 27 -27v-88q0 -121 -21.5 -238t-51.5 -200
q-7 -20 -31 -20h-121q-29 0 -23 29q13 65 19 163t4 173h-245q-12 0 -19.5 7.5t-7.5 19.5v154q0 27 27 27h443z" />
    <glyph glyph-name="gcommaaccent" unicode="&#x123;" 
d="M417 1204q-27 0 -27 27v88q0 121 21.5 238t51.5 200q7 20 31 20h121q29 0 23 -29q-13 -65 -19 -163t-4 -173h245q12 0 19.5 -7.5t7.5 -19.5v-154q0 -27 -27 -27h-443zM1077 980q13 0 21.5 -8t8.5 -22v-941q0 -76 -22.5 -138.5t-62.5 -106t-90 -75.5t-109.5 -50
t-117 -26.5t-116.5 -8.5q-124 0 -236.5 34t-192.5 91q-20 14 -8 39l72 131q16 26 40 12q132 -74 302 -74q48 0 93 9t89.5 29.5t71.5 60.5t27 95v101q-119 -138 -295 -138q-101 0 -189.5 40t-150.5 108t-98 161t-36 195t36 195t98 161t150.5 108t189.5 40q168 0 288 -135
l6 83q3 30 30 30h201zM586 251q100 0 168 74.5t68 174.5q0 98 -68 171.5t-168 73.5q-102 0 -169 -71t-67 -174q0 -105 67 -177t169 -72z" />
    <glyph glyph-name="Hbar" unicode="&#x126;" 
d="M1067 1400q13 0 21.5 -8t8.5 -22v-1340q0 -14 -8.5 -22t-21.5 -8h-232q-13 0 -21.5 8t-8.5 22v548h-380v-548q0 -14 -8.5 -22t-21.5 -8h-232q-13 0 -21.5 8t-8.5 22v1340q0 14 8.5 22t21.5 8h232q13 0 21.5 -8t8.5 -22v-197h380v197q0 14 8.5 22t21.5 8h232zM425 836h380
v102h-380v-102z" />
    <glyph glyph-name="hbar" unicode="&#x127;" 
d="M744 1002q152 0 251 -113.5t99 -305.5v-553q0 -14 -8 -22t-22 -8h-222q-14 0 -22 8t-8 22v499q0 112 -50.5 162t-130.5 50q-60 0 -106.5 -27t-68 -58.5t-32.5 -66.5v-559q0 -14 -8 -22t-22 -8h-222q-14 0 -22 8t-8 22v1021h-81q-13 0 -21.5 8.5t-8.5 21.5v159
q0 14 8.5 22t21.5 8h81v100q0 14 8 22t22 8h222q14 0 22 -8t8 -22v-100h181q13 0 21.5 -8t8.5 -22v-159q0 -13 -8.5 -21.5t-21.5 -8.5h-181v-228h15q116 179 305 179z" />
    <glyph glyph-name="Imacron" unicode="&#x12a;" 
d="M887 1816q13 0 21.5 -8t8.5 -22v-159q0 -13 -8.5 -21.5t-21.5 -8.5h-544q-13 0 -21.5 8.5t-8.5 21.5v159q0 14 8.5 22t21.5 8h544zM1065 1142h-304v-884h304q13 0 21.5 -8t8.5 -22v-198q0 -14 -8.5 -22t-21.5 -8h-900q-13 0 -21.5 8t-8.5 22v198q0 14 8.5 22t21.5 8h304
v884h-304q-13 0 -21.5 8t-8.5 22v198q0 14 8.5 22t21.5 8h900q13 0 21.5 -8t8.5 -22v-198q0 -14 -8.5 -22t-21.5 -8z" />
    <glyph glyph-name="imacron" unicode="&#x12b;" 
d="M343 1177q-13 0 -21.5 8.5t-8.5 21.5v159q0 14 8.5 22t21.5 8h544q13 0 21.5 -8t8.5 -22v-159q0 -13 -8.5 -21.5t-21.5 -8.5h-544zM1056 229q14 0 22 -8.5t8 -21.5v-169q0 -14 -8 -22t-22 -8h-872q-14 0 -22 8t-8 22v169q0 13 8 21.5t22 8.5h321v522h-271q-14 0 -22 8.5
t-8 21.5v169q0 14 8 22t22 8h523q13 0 21.5 -8t8.5 -22v-721h269z" />
    <glyph glyph-name="iogonek" unicode="&#x12f;" 
d="M615 1126q-58 0 -99.5 41.5t-41.5 101.5q0 59 41.5 100t99.5 41t99.5 -41t41.5 -100q0 -60 -41.5 -101.5t-99.5 -41.5zM1056 229q14 0 22 -8.5t8 -21.5v-169q0 -14 -8 -22t-22 -8h-259q-84 -7 -130.5 -51t-46.5 -98q0 -40 31.5 -63.5t96.5 -9.5v-174q-46 -20 -105.5 -21
t-116.5 17.5t-96 69t-39 125.5q0 121 112 205h-319q-14 0 -22 8t-8 22v169q0 13 8 21.5t22 8.5h321v522h-271q-14 0 -22 8.5t-8 21.5v169q0 14 8 22t22 8h523q13 0 21.5 -8t8.5 -22v-721h269z" />
    <glyph glyph-name="Idotaccent" unicode="&#x130;" 
d="M615 1546q-58 0 -99.5 41.5t-41.5 101.5q0 59 41.5 100t99.5 41t99.5 -41t41.5 -100q0 -60 -41.5 -101.5t-99.5 -41.5zM1065 1142h-304v-884h304q13 0 21.5 -8t8.5 -22v-198q0 -14 -8.5 -22t-21.5 -8h-900q-13 0 -21.5 8t-8.5 22v198q0 14 8.5 22t21.5 8h304v884h-304
q-13 0 -21.5 8t-8.5 22v198q0 14 8.5 22t21.5 8h900q13 0 21.5 -8t8.5 -22v-198q0 -14 -8.5 -22t-21.5 -8z" />
    <glyph glyph-name="dotlessi" unicode="&#x131;" 
d="M1056 229q14 0 22 -8.5t8 -21.5v-169q0 -14 -8 -22t-22 -8h-872q-14 0 -22 8t-8 22v169q0 13 8 21.5t22 8.5h321v522h-271q-14 0 -22 8.5t-8 21.5v169q0 14 8 22t22 8h523q13 0 21.5 -8t8.5 -22v-721h269z" />
    <glyph glyph-name="IJ" unicode="&#x132;" 
d="M312 1400q14 0 22 -8t8 -22v-1340q0 -14 -8 -22t-22 -8h-232q-14 0 -22 8t-8 22v1340q0 14 8 22t22 8h232zM1150 1400q14 0 22 -8t8 -22v-812q0 -122 -26 -219.5t-71 -163.5t-109 -110t-137 -63.5t-158 -19.5q-128 0 -235 59q-24 15 -12 42l83 171q11 22 38 14
q48 -19 106 -19q101 0 165 73t64 236v584h-393q-13 0 -21.5 8t-8.5 22v198q0 14 8.5 22t21.5 8h655z" />
    <glyph glyph-name="ij" unicode="&#x133;" 
d="M223 1159q-64 0 -108.5 44.5t-44.5 108.5t44.5 108.5t108.5 44.5t108.5 -44.5t44.5 -108.5t-44.5 -108.5t-108.5 -44.5zM1028 1159q-64 0 -108.5 44.5t-44.5 108.5t44.5 108.5t108.5 44.5t108.5 -44.5t44.5 -108.5t-44.5 -108.5t-108.5 -44.5zM333 980q13 0 21.5 -8
t8.5 -22v-920q0 -14 -8.5 -22t-21.5 -8h-222q-13 0 -21.5 8t-8.5 22v920q0 14 8.5 22t21.5 8h222zM1157 980q13 0 21.5 -8t8.5 -22v-909q0 -95 -27.5 -170t-72.5 -121.5t-107 -77t-125 -42.5t-133 -12q-61 0 -121.5 14t-105 35t-77 45t-46 46.5t-4.5 35.5l86 130
q9 13 24.5 12.5t30.5 -12.5q88 -68 192 -68q98 0 151 50.5t53 174.5v670h-427q-14 0 -22 8.5t-8 21.5v169q0 14 8 22t22 8h679z" />
    <glyph glyph-name="Kcommaaccent" unicode="&#x136;" 
d="M1172 36q10 -15 5 -25.5t-23 -10.5h-250q-26 0 -36 18l-377 567l-87 -104v-451q0 -14 -8 -22t-22 -8h-232q-14 0 -22 8t-8 22v1340q0 14 8 22t22 8h232q14 0 22 -8t8 -22v-498l404 512q13 16 36 16h278q19 0 23.5 -11t-7.5 -25l-465 -559zM830 -183q27 0 27 -27v-88
q0 -121 -21.5 -238t-51.5 -200q-7 -20 -31 -20h-121q-29 0 -23 29q13 65 19 163t4 173h-245q-12 0 -19.5 7.5t-7.5 19.5v154q0 27 27 27h443z" />
    <glyph glyph-name="kcommaaccent" unicode="&#x137;" 
d="M1131 36q12 -15 6 -25.5t-24 -10.5h-244q-23 0 -36 18l-289 359l-111 -118v-229q0 -14 -8.5 -22t-21.5 -8h-222q-13 0 -21.5 8t-8.5 22v1400q0 14 8.5 22t21.5 8h222q13 0 21.5 -8t8.5 -22v-827l327 361q13 16 36 16h261q19 0 24 -11t-8 -25l-359 -384zM830 -183
q27 0 27 -27v-88q0 -121 -21.5 -238t-51.5 -200q-7 -20 -31 -20h-121q-29 0 -23 29q13 65 19 163t4 173h-245q-12 0 -19.5 7.5t-7.5 19.5v154q0 27 27 27h443z" />
    <glyph glyph-name="Lacute" unicode="&#x139;" 
d="M210 1484q-17 0 -24 9t0 25l120 252q11 24 34 24h198q17 0 24 -9t0 -25l-120 -252q-11 -24 -34 -24h-198zM1061 258q13 0 21.5 -8t8.5 -22v-198q0 -14 -8.5 -22t-21.5 -8h-867q-14 0 -22 8t-8 22v1340q0 14 8 22t22 8h232q14 0 22 -8t8 -22v-1112h605z" />
    <glyph glyph-name="lacute" unicode="&#x13a;" 
d="M523 1532q-17 0 -24 9t0 25l120 252q11 24 34 24h198q17 0 24 -9t0 -25l-120 -252q-11 -24 -34 -24h-198zM1056 229q14 0 22 -8.5t8 -21.5v-169q0 -14 -8 -22t-22 -8h-882q-14 0 -22 8t-8 22v169q0 13 8 21.5t22 8.5h321v942h-294q-13 0 -21.5 8.5t-8.5 21.5v169
q0 14 8.5 22t21.5 8h546q13 0 21.5 -8t8.5 -22v-1141h279z" />
    <glyph glyph-name="Lcommaaccent" unicode="&#x13b;" 
d="M1061 258q13 0 21.5 -8t8.5 -22v-198q0 -14 -8.5 -22t-21.5 -8h-867q-14 0 -22 8t-8 22v1340q0 14 8 22t22 8h232q14 0 22 -8t8 -22v-1112h605zM830 -183q27 0 27 -27v-88q0 -121 -21.5 -238t-51.5 -200q-7 -20 -31 -20h-121q-29 0 -23 29q13 65 19 163t4 173h-245
q-12 0 -19.5 7.5t-7.5 19.5v154q0 27 27 27h443z" />
    <glyph glyph-name="lcommaaccent" unicode="&#x13c;" 
d="M1056 229q14 0 22 -8.5t8 -21.5v-169q0 -14 -8 -22t-22 -8h-882q-14 0 -22 8t-8 22v169q0 13 8 21.5t22 8.5h321v942h-294q-13 0 -21.5 8.5t-8.5 21.5v169q0 14 8.5 22t21.5 8h546q13 0 21.5 -8t8.5 -22v-1141h279zM830 -183q27 0 27 -27v-88q0 -121 -21.5 -238
t-51.5 -200q-7 -20 -31 -20h-121q-29 0 -23 29q13 65 19 163t4 173h-245q-12 0 -19.5 7.5t-7.5 19.5v154q0 27 27 27h443z" />
    <glyph glyph-name="Lcaron" unicode="&#x13d;" 
d="M1061 258q13 0 21.5 -8t8.5 -22v-198q0 -14 -8.5 -22t-21.5 -8h-867q-14 0 -22 8t-8 22v1340q0 14 8 22t22 8h232q14 0 22 -8t8 -22v-1112h605zM1071 1400q13 0 21.5 -8t8.5 -22v-98q0 -135 -23.5 -264.5t-57.5 -220.5q-8 -22 -34 -22h-134q-32 0 -26 32
q15 72 21.5 180.5t4.5 191.5h-272q-14 0 -22 8.5t-8 21.5v171q0 14 8 22t22 8h491z" />
    <glyph glyph-name="lcaron" unicode="&#x13e;" 
d="M972 229q14 0 22 -8.5t8 -21.5v-169q0 -14 -8 -22t-22 -8h-882q-14 0 -22 8t-8 22v169q0 13 8 21.5t22 8.5h321v942h-294q-13 0 -21.5 8.5t-8.5 21.5v169q0 14 8.5 22t21.5 8h546q13 0 21.5 -8t8.5 -22v-1141h279zM1210 1400q12 0 19.5 -8.5t7.5 -21.5v-98
q0 -134 -21 -263.5t-51 -221.5q-8 -22 -31 -22h-120q-29 0 -23 32q13 72 19 180.5t4 191.5h-244q-26 0 -26 30v171q0 30 26 30h440z" />
    <glyph glyph-name="Ldot" unicode="&#x13f;" 
d="M1061 258q13 0 21.5 -8t8.5 -22v-198q0 -14 -8.5 -22t-21.5 -8h-867q-14 0 -22 8t-8 22v1340q0 14 8 22t22 8h232q14 0 22 -8t8 -22v-1112h605zM793 580q-83 0 -141 58t-58 141q0 82 58.5 140t140.5 58t140.5 -58t58.5 -140q0 -83 -58 -141t-141 -58z" />
    <glyph glyph-name="ldot" unicode="&#x140;" 
d="M1056 229q14 0 22 -8.5t8 -21.5v-169q0 -14 -8 -22t-22 -8h-882q-14 0 -22 8t-8 22v169q0 13 8 21.5t22 8.5h321v942h-294q-13 0 -21.5 8.5t-8.5 21.5v169q0 14 8.5 22t21.5 8h546q13 0 21.5 -8t8.5 -22v-1141h279zM1004 973q82 0 140.5 -58t58.5 -140q0 -83 -58.5 -141
t-140.5 -58t-140.5 58t-58.5 141q0 82 58.5 140t140.5 58z" />
    <glyph glyph-name="Lslash" unicode="&#x141;" 
d="M1016 258q14 0 22 -8t8 -22v-198q0 -14 -8 -22t-22 -8h-782q-14 0 -22 8t-8 22v413l-115 -113q-15 -14 -25.5 -9t-10.5 25v186q0 22 16 38l135 132v668q0 14 8 22t22 8h232q14 0 22 -8t8 -22v-382l151 148q15 14 25.5 9t10.5 -25v-184q0 -22 -16 -38l-171 -168v-472h520z
" />
    <glyph glyph-name="lslash" unicode="&#x142;" 
d="M1056 229q14 0 22 -8.5t8 -21.5v-169q0 -14 -8 -22t-22 -8h-882q-14 0 -22 8t-8 22v169q0 13 8 21.5t22 8.5h321v294l-165 -143v240l165 142v409h-294q-13 0 -21.5 8.5t-8.5 21.5v169q0 14 8.5 22t21.5 8h546q13 0 21.5 -8t8.5 -22v-364l139 120l2 -238l-141 -122v-537
h279z" />
    <glyph glyph-name="Nacute" unicode="&#x143;" 
d="M523 1510q-17 0 -24 9t0 25l120 252q11 24 34 24h198q17 0 24 -9t0 -25l-120 -252q-11 -24 -34 -24h-198zM1077 1400q13 0 21.5 -8t8.5 -22v-1340q0 -14 -8.5 -22t-21.5 -8h-255q-27 0 -36 20l-403 896v-886q0 -14 -8.5 -22t-21.5 -8h-200q-13 0 -21.5 8t-8.5 22v1340
q0 14 8.5 22t21.5 8h254q29 0 36 -20l404 -896v886q0 14 8.5 22t21.5 8h200z" />
    <glyph glyph-name="nacute" unicode="&#x144;" 
d="M523 1090q-17 0 -24 9t0 25l120 252q11 24 34 24h198q17 0 24 -9t0 -25l-120 -252q-11 -24 -34 -24h-198zM744 1002q152 0 251 -113.5t99 -305.5v-553q0 -14 -8 -22t-22 -8h-222q-14 0 -22 8t-8 22v499q0 112 -50.5 162t-130.5 50q-55 0 -99 -22t-67.5 -54t-35 -61
t-11.5 -49v-525q0 -14 -8 -22t-22 -8h-222q-14 0 -22 8t-8 22v920q0 14 8 22t22 8h214q27 0 30 -30l8 -127h21q116 179 305 179z" />
    <glyph glyph-name="Ncommaaccent" unicode="&#x145;" 
d="M1077 1400q13 0 21.5 -8t8.5 -22v-1340q0 -14 -8.5 -22t-21.5 -8h-255q-27 0 -36 20l-403 896v-886q0 -14 -8.5 -22t-21.5 -8h-200q-13 0 -21.5 8t-8.5 22v1340q0 14 8.5 22t21.5 8h254q29 0 36 -20l404 -896v886q0 14 8.5 22t21.5 8h200zM830 -183q27 0 27 -27v-88
q0 -121 -21.5 -238t-51.5 -200q-7 -20 -31 -20h-121q-29 0 -23 29q13 65 19 163t4 173h-245q-12 0 -19.5 7.5t-7.5 19.5v154q0 27 27 27h443z" />
    <glyph glyph-name="ncommaaccent" unicode="&#x146;" 
d="M744 1002q152 0 251 -113.5t99 -305.5v-553q0 -14 -8 -22t-22 -8h-222q-14 0 -22 8t-8 22v499q0 112 -50.5 162t-130.5 50q-55 0 -99 -22t-67.5 -54t-35 -61t-11.5 -49v-525q0 -14 -8 -22t-22 -8h-222q-14 0 -22 8t-8 22v920q0 14 8 22t22 8h214q27 0 30 -30l8 -127h21
q116 179 305 179zM830 -183q27 0 27 -27v-88q0 -121 -21.5 -238t-51.5 -200q-7 -20 -31 -20h-121q-29 0 -23 29q13 65 19 163t4 173h-245q-12 0 -19.5 7.5t-7.5 19.5v154q0 27 27 27h443z" />
    <glyph glyph-name="Ncaron" unicode="&#x147;" 
d="M427 1553l-230 267q-12 15 -6.5 25.5t24.5 10.5h219q24 0 36 -16l145 -147l145 147q12 16 36 16h219q19 0 24.5 -10.5t-6.5 -25.5l-230 -267q-14 -16 -36 -16h-304q-22 0 -36 16zM1077 1400q13 0 21.5 -8t8.5 -22v-1340q0 -14 -8.5 -22t-21.5 -8h-255q-27 0 -36 20
l-403 896v-886q0 -14 -8.5 -22t-21.5 -8h-200q-13 0 -21.5 8t-8.5 22v1340q0 14 8.5 22t21.5 8h254q29 0 36 -20l404 -896v886q0 14 8.5 22t21.5 8h200z" />
    <glyph glyph-name="ncaron" unicode="&#x148;" 
d="M427 1133l-230 267q-12 15 -6.5 25.5t24.5 10.5h219q24 0 36 -16l145 -147l145 147q12 16 36 16h219q19 0 24.5 -10.5t-6.5 -25.5l-230 -267q-14 -16 -36 -16h-304q-22 0 -36 16zM744 1002q152 0 251 -113.5t99 -305.5v-553q0 -14 -8 -22t-22 -8h-222q-14 0 -22 8t-8 22
v499q0 112 -50.5 162t-130.5 50q-55 0 -99 -22t-67.5 -54t-35 -61t-11.5 -49v-525q0 -14 -8 -22t-22 -8h-222q-14 0 -22 8t-8 22v920q0 14 8 22t22 8h214q27 0 30 -30l8 -127h21q116 179 305 179z" />
    <glyph glyph-name="Eng" unicode="&#x14a;" 
d="M1077 1400q13 0 21.5 -8t8.5 -22v-1370q0 -117 -35 -198t-107.5 -128.5t-171 -68t-236.5 -20.5v263q144 0 217 35t73 117h-25q-27 0 -36 20l-403 896v-886q0 -14 -8.5 -22t-21.5 -8h-200q-13 0 -21.5 8t-8.5 22v1340q0 14 8.5 22t21.5 8h254q29 0 36 -20l404 -896v886
q0 14 8.5 22t21.5 8h200z" />
    <glyph glyph-name="eng" unicode="&#x14b;" 
d="M744 1002q152 0 251 -113.5t99 -305.5v-562q0 -202 -111.5 -309.5t-297.5 -107.5q-17 0 -25 16l-70 226q-3 9 1 15.5t13 6.5q84 0 146 52.5t62 154.5v454q0 112 -50.5 162t-130.5 50q-55 0 -99 -22t-67.5 -54t-35 -61t-11.5 -49v-525q0 -14 -8 -22t-22 -8h-222
q-14 0 -22 8t-8 22v920q0 14 8 22t22 8h214q27 0 30 -30l8 -127h21q116 179 305 179z" />
    <glyph glyph-name="Omacron" unicode="&#x14c;" 
d="M887 1816q13 0 21.5 -8t8.5 -22v-159q0 -13 -8.5 -21.5t-21.5 -8.5h-544q-13 0 -21.5 8.5t-8.5 21.5v159q0 14 8.5 22t21.5 8h544zM615 1420q143 0 238 -32.5t157.5 -111t89.5 -204t27 -316.5v-120q0 -192 -27 -318t-89.5 -204.5t-157.5 -111t-238 -32.5t-238 32.5
t-157.5 111t-89.5 204.5t-27 318v120q0 191 27 316.5t89.5 204t157.5 111t238 32.5zM615 1139q-45 0 -75 -4.5t-58 -19t-44 -40t-29 -68.5t-18 -105t-5 -148v-118q0 -86 5 -148t18 -105t29 -68.5t44 -40t58 -19t75 -4.5t75 4.5t58 19t44 40t29 68.5t18 105t5 148v118
q0 86 -5 148t-18 105t-29 68.5t-44 40t-58 19t-75 4.5z" />
    <glyph glyph-name="omacron" unicode="&#x14d;" 
d="M887 1396q13 0 21.5 -8t8.5 -22v-159q0 -13 -8.5 -21.5t-21.5 -8.5h-544q-13 0 -21.5 8.5t-8.5 21.5v159q0 14 8.5 22t21.5 8h544zM615 -26q-214 0 -360 148t-146 366t146 366t360 148t360 -148t146 -366t-146 -366t-360 -148zM615 235q101 0 167.5 71t66.5 182
t-66.5 182t-167.5 71t-167.5 -71t-66.5 -182t66.5 -182t167.5 -71z" />
    <glyph glyph-name="Ohungarumlaut" unicode="&#x150;" 
d="M657 1820q17 0 24 -9t0 -25l-120 -252q-11 -24 -34 -24h-198q-17 0 -24 9t0 25l120 252q11 24 34 24h198zM1035 1820q17 0 24 -9t0 -25l-120 -252q-11 -24 -34 -24h-198q-17 0 -24 9t0 25l120 252q11 24 34 24h198zM615 1420q143 0 238 -32.5t157.5 -111t89.5 -204
t27 -316.5v-120q0 -192 -27 -318t-89.5 -204.5t-157.5 -111t-238 -32.5t-238 32.5t-157.5 111t-89.5 204.5t-27 318v120q0 191 27 316.5t89.5 204t157.5 111t238 32.5zM615 1139q-45 0 -75 -4.5t-58 -19t-44 -40t-29 -68.5t-18 -105t-5 -148v-118q0 -86 5 -148t18 -105
t29 -68.5t44 -40t58 -19t75 -4.5t75 4.5t58 19t44 40t29 68.5t18 105t5 148v118q0 86 -5 148t-18 105t-29 68.5t-44 40t-58 19t-75 4.5z" />
    <glyph glyph-name="ohungarumlaut" unicode="&#x151;" 
d="M657 1400q17 0 24 -9t0 -25l-120 -252q-11 -24 -34 -24h-198q-17 0 -24 9t0 25l120 252q11 24 34 24h198zM1035 1400q17 0 24 -9t0 -25l-120 -252q-11 -24 -34 -24h-198q-17 0 -24 9t0 25l120 252q11 24 34 24h198zM615 -26q-214 0 -360 148t-146 366t146 366t360 148
t360 -148t146 -366t-146 -366t-360 -148zM615 235q101 0 167.5 71t66.5 182t-66.5 182t-167.5 71t-167.5 -71t-66.5 -182t66.5 -182t167.5 -71z" />
    <glyph glyph-name="OE" unicode="&#x152;" 
d="M1117 258q13 0 21.5 -8t8.5 -22v-198q0 -14 -8.5 -22t-21.5 -8h-522q-145 -1 -238.5 27.5t-157 101.5t-90 195t-26.5 312v120q0 251 51.5 391t160 197t300.5 56h520q13 0 21.5 -8t8.5 -22v-198q0 -14 -8.5 -22t-21.5 -8h-228v-295h178q13 0 21.5 -8.5t8.5 -21.5v-198
q0 -13 -8.5 -21.5t-21.5 -8.5h-178v-331h230zM595 286v828q-55 0 -87.5 -6.5t-62 -26t-44 -59.5t-22.5 -104.5t-8 -163.5v-118q0 -82 4.5 -139.5t17 -96.5t27.5 -61.5t43.5 -34.5t56.5 -15t75 -3z" />
    <glyph glyph-name="oe" unicode="&#x153;" 
d="M909 192q95 0 168 63l109 -131q-108 -150 -295 -150q-180 0 -270 120q-87 -120 -245 -120q-171 0 -256.5 136t-85.5 378t85.5 378t256.5 136q160 0 247 -123q86 123 240 123q74 0 131.5 -26t95 -70.5t62 -109t34.5 -136t10 -156.5q0 -66 -14 -94t-57 -28h-401
q13 -92 56.5 -141t128.5 -49zM863 778q-68 0 -101 -51t-42 -154h273q-2 104 -32.5 154.5t-97.5 50.5zM376 196q150 0 150 290q0 289 -150 289q-151 0 -151 -289q0 -290 151 -290z" />
    <glyph glyph-name="Racute" unicode="&#x154;" 
d="M523 1510q-17 0 -24 9t0 25l120 252q11 24 34 24h198q17 0 24 -9t0 -25l-120 -252q-11 -24 -34 -24h-198zM1130 35q7 -16 0.5 -25.5t-23.5 -9.5h-220q-25 0 -35 23l-202 447h-226v-440q0 -14 -8 -22t-22 -8h-232q-14 0 -22 8t-8 22v1340q0 14 8 22t22 8h497
q137 0 229.5 -29.5t144.5 -91.5t73.5 -144t21.5 -200q0 -171 -48.5 -275t-167.5 -151zM424 1142v-414h235q56 0 88 6.5t57 28t34.5 62.5t9.5 110t-9.5 110t-34.5 62.5t-57 28t-88 6.5h-235z" />
    <glyph glyph-name="racute" unicode="&#x155;" 
d="M543 1090q-17 0 -24 9t0 25l120 252q11 24 34 24h198q17 0 24 -9t0 -25l-120 -252q-11 -24 -34 -24h-198zM777 1002q161 0 266.5 -109t105.5 -295q0 -27 -28 -32l-222 -34q-32 -5 -35 28q-19 179 -199 179q-57 0 -104.5 -21.5t-73.5 -52.5t-40 -60.5t-14 -49.5v-525
q0 -14 -8.5 -22t-21.5 -8h-222q-13 0 -21.5 8t-8.5 22v920q0 14 8.5 22t21.5 8h214q27 0 30 -30l8 -127h22q54 79 135 129t187 50z" />
    <glyph glyph-name="Rcommaaccent" unicode="&#x156;" 
d="M1130 35q7 -16 0.5 -25.5t-23.5 -9.5h-220q-25 0 -35 23l-202 447h-226v-440q0 -14 -8 -22t-22 -8h-232q-14 0 -22 8t-8 22v1340q0 14 8 22t22 8h497q137 0 229.5 -29.5t144.5 -91.5t73.5 -144t21.5 -200q0 -171 -48.5 -275t-167.5 -151zM424 1142v-414h235q56 0 88 6.5
t57 28t34.5 62.5t9.5 110t-9.5 110t-34.5 62.5t-57 28t-88 6.5h-235zM830 -183q27 0 27 -27v-88q0 -121 -21.5 -238t-51.5 -200q-7 -20 -31 -20h-121q-29 0 -23 29q13 65 19 163t4 173h-245q-12 0 -19.5 7.5t-7.5 19.5v154q0 27 27 27h443z" />
    <glyph glyph-name="rcommaaccent" unicode="&#x157;" 
d="M777 1002q161 0 266.5 -109t105.5 -295q0 -27 -28 -32l-222 -34q-32 -5 -35 28q-19 179 -199 179q-57 0 -104.5 -21.5t-73.5 -52.5t-40 -60.5t-14 -49.5v-525q0 -14 -8.5 -22t-21.5 -8h-222q-13 0 -21.5 8t-8.5 22v920q0 14 8.5 22t21.5 8h214q27 0 30 -30l8 -127h22
q54 79 135 129t187 50zM470 -183q27 0 27 -27v-88q0 -121 -21.5 -238t-51.5 -200q-7 -20 -31 -20h-121q-29 0 -23 29q13 65 19 163t4 173h-245q-12 0 -19.5 7.5t-7.5 19.5v154q0 27 27 27h443z" />
    <glyph glyph-name="Rcaron" unicode="&#x158;" 
d="M427 1553l-230 267q-12 15 -6.5 25.5t24.5 10.5h219q24 0 36 -16l145 -147l145 147q12 16 36 16h219q19 0 24.5 -10.5t-6.5 -25.5l-230 -267q-14 -16 -36 -16h-304q-22 0 -36 16zM1130 35q7 -16 0.5 -25.5t-23.5 -9.5h-220q-25 0 -35 23l-202 447h-226v-440q0 -14 -8 -22
t-22 -8h-232q-14 0 -22 8t-8 22v1340q0 14 8 22t22 8h497q137 0 229.5 -29.5t144.5 -91.5t73.5 -144t21.5 -200q0 -171 -48.5 -275t-167.5 -151zM424 1142v-414h235q56 0 88 6.5t57 28t34.5 62.5t9.5 110t-9.5 110t-34.5 62.5t-57 28t-88 6.5h-235z" />
    <glyph glyph-name="rcaron" unicode="&#x159;" 
d="M447 1133l-230 267q-12 15 -6.5 25.5t24.5 10.5h219q24 0 36 -16l145 -147l145 147q12 16 36 16h219q19 0 24.5 -10.5t-6.5 -25.5l-230 -267q-14 -16 -36 -16h-304q-22 0 -36 16zM777 1002q161 0 266.5 -109t105.5 -295q0 -27 -28 -32l-222 -34q-32 -5 -35 28
q-19 179 -199 179q-57 0 -104.5 -21.5t-73.5 -52.5t-40 -60.5t-14 -49.5v-525q0 -14 -8.5 -22t-21.5 -8h-222q-13 0 -21.5 8t-8.5 22v920q0 14 8.5 22t21.5 8h214q27 0 30 -30l8 -127h22q54 79 135 129t187 50z" />
    <glyph glyph-name="Sacute" unicode="&#x15a;" 
d="M851 1820q17 0 24 -9t0 -25l-120 -252q-11 -24 -34 -24h-198q-17 0 -24 9t0 25l120 252q11 24 34 24h198zM600 836q63 -12 113.5 -24.5t108 -32.5t101 -43.5t85.5 -57.5t68.5 -74.5t43 -94.5t16.5 -118q0 -213 -131.5 -317t-397.5 -104q-245 0 -370.5 91t-143.5 290
q-1 15 6.5 24t21.5 9h214q23 0 30 -27q37 -124 242 -124q243 0 243 149q0 86 -51.5 128.5t-198.5 72.5q-82 17 -147 37.5t-130.5 55.5t-109 79t-70.5 110t-27 147q0 193 121.5 300.5t360.5 107.5q457 0 496 -372q1 -15 -6.5 -24.5t-21.5 -9.5h-198q-23 0 -30 28
q-15 54 -73.5 85.5t-161.5 31.5q-97 0 -150 -39.5t-53 -107.5q0 -33 6 -55.5t25.5 -47t61 -42.5t107.5 -31z" />
    <glyph glyph-name="sacute" unicode="&#x15b;" 
d="M851 1400q17 0 24 -9t0 -25l-120 -252q-11 -24 -34 -24h-198q-17 0 -24 9t0 25l120 252q11 24 34 24h198zM615 590q167 -21 229 -38q200 -54 231 -202q6 -29 6 -62q0 -145 -119.5 -229.5t-336.5 -84.5q-219 0 -339 75.5t-137 254.5q-1 14 7.5 22t22.5 8h209q25 0 28 -20
q10 -58 59.5 -84.5t142.5 -26.5q187 0 187 94q0 43 -49 64t-141 32q-163 20 -222 36q-185 50 -218 188q-8 32 -8 70q0 145 114 230t320 85q207 0 325 -75t135 -252q1 -14 -7.5 -22t-22.5 -8h-209q-25 0 -28 19q-20 109 -186 109q-165 0 -165 -92q0 -41 42.5 -60.5
t129.5 -30.5z" />
    <glyph glyph-name="Scedilla" unicode="&#x15e;" 
d="M1136 391q0 -197 -113 -301t-341 -118l-44 -38q73 -6 127 -50t54 -116q0 -65 -31 -111.5t-81.5 -68t-114.5 -29t-130 5.5q-18 3 -18 22v98q0 9 6 15t16 5q78 -12 121.5 3t43.5 48q0 18 -22 32t-58 16t-83 -17q-10 -4 -17 -0.5t-7 14.5v103q0 14 10 24l50 46
q-194 17 -294.5 108t-116.5 269q-1 15 6.5 24t21.5 9h214q23 0 30 -27q37 -124 242 -124q243 0 243 149q0 86 -51.5 128.5t-198.5 72.5q-82 17 -147 37.5t-130.5 55.5t-109 79t-70.5 110t-27 147q0 193 121.5 300.5t360.5 107.5q457 0 496 -372q1 -15 -6.5 -24.5t-21.5 -9.5
h-198q-23 0 -30 28q-15 54 -73.5 85.5t-161.5 31.5q-97 0 -150 -39.5t-53 -107.5q0 -33 6 -55.5t25.5 -47t61 -42.5t107.5 -31q63 -12 113.5 -24.5t108 -32.5t101 -43.5t85.5 -57.5t68.5 -74.5t43 -94.5t16.5 -118z" />
    <glyph glyph-name="scedilla" unicode="&#x15f;" 
d="M1081 288q0 -134 -103 -217t-292 -95l-48 -42q73 -6 127 -50t54 -116q0 -65 -31 -111.5t-81.5 -68t-114.5 -29t-130 5.5q-18 3 -18 22v98q0 9 6 15t16 5q78 -12 121.5 3t43.5 48q0 18 -22 32t-58 16t-83 -17q-10 -4 -17 -0.5t-7 14.5v103q0 14 10 24l55 52
q-164 17 -255 94t-105 230q-1 14 7.5 22t22.5 8h209q25 0 28 -20q10 -58 59.5 -84.5t142.5 -26.5q187 0 187 94q0 43 -49 64t-141 32q-163 20 -222 36q-185 50 -218 188q-8 32 -8 70q0 145 114 230t320 85q207 0 325 -75t135 -252q1 -14 -7.5 -22t-22.5 -8h-209
q-25 0 -28 19q-20 109 -186 109q-165 0 -165 -92q0 -41 42.5 -60.5t129.5 -30.5q167 -21 229 -38q200 -54 231 -202q6 -29 6 -62z" />
    <glyph glyph-name="Scaron" unicode="&#x160;" 
d="M767 1537h-304q-22 0 -36 16l-230 267q-12 15 -6.5 25.5t24.5 10.5h219q24 0 36 -16l145 -147l145 147q12 16 36 16h219q19 0 24.5 -10.5t-6.5 -25.5l-230 -267q-14 -16 -36 -16zM600 836q63 -12 113.5 -24.5t108 -32.5t101 -43.5t85.5 -57.5t68.5 -74.5t43 -94.5
t16.5 -118q0 -213 -131.5 -317t-397.5 -104q-245 0 -370.5 91t-143.5 290q-1 15 6.5 24t21.5 9h214q23 0 30 -27q37 -124 242 -124q243 0 243 149q0 86 -51.5 128.5t-198.5 72.5q-82 17 -147 37.5t-130.5 55.5t-109 79t-70.5 110t-27 147q0 193 121.5 300.5t360.5 107.5
q457 0 496 -372q1 -15 -6.5 -24.5t-21.5 -9.5h-198q-23 0 -30 28q-15 54 -73.5 85.5t-161.5 31.5q-97 0 -150 -39.5t-53 -107.5q0 -33 6 -55.5t25.5 -47t61 -42.5t107.5 -31z" />
    <glyph glyph-name="scaron" unicode="&#x161;" 
d="M767 1117h-304q-22 0 -36 16l-230 267q-12 15 -6.5 25.5t24.5 10.5h219q24 0 36 -16l145 -147l145 147q12 16 36 16h219q19 0 24.5 -10.5t-6.5 -25.5l-230 -267q-14 -16 -36 -16zM615 590q167 -21 229 -38q200 -54 231 -202q6 -29 6 -62q0 -145 -119.5 -229.5
t-336.5 -84.5q-219 0 -339 75.5t-137 254.5q-1 14 7.5 22t22.5 8h209q25 0 28 -20q10 -58 59.5 -84.5t142.5 -26.5q187 0 187 94q0 43 -49 64t-141 32q-163 20 -222 36q-185 50 -218 188q-8 32 -8 70q0 145 114 230t320 85q207 0 325 -75t135 -252q1 -14 -7.5 -22t-22.5 -8
h-209q-25 0 -28 19q-20 109 -186 109q-165 0 -165 -92q0 -41 42.5 -60.5t129.5 -30.5z" />
    <glyph glyph-name="uni0162" unicode="&#x162;" 
d="M1100 1400q14 0 22 -8t8 -22v-198q0 -14 -8 -22t-22 -8h-339v-1112q0 -14 -8.5 -22t-21.5 -8h-18l-75 -66q73 -6 127 -50t54 -116q0 -65 -31 -111.5t-81.5 -68t-114.5 -29t-130 5.5q-18 3 -18 22v98q0 9 6 15t16 5q78 -12 121.5 3t43.5 48q0 18 -22 32t-58 16t-83 -17
q-10 -4 -17 -0.5t-7 14.5v103q0 14 10 24l77 72h-32q-13 0 -21.5 8t-8.5 22v1112h-339q-14 0 -22 8t-8 22v198q0 14 8 22t22 8h970z" />
    <glyph glyph-name="uni0163" unicode="&#x163;" 
d="M1110 178q19 -21 5 -42q-18 -24 -44.5 -47t-67.5 -48.5t-100.5 -41t-127.5 -15.5q-39 0 -76 3l-61 -53q73 -6 127 -50t54 -116q0 -65 -31 -111.5t-81.5 -68t-114.5 -29t-130 5.5q-18 3 -18 22v98q0 9 6 15t16 5q78 -12 121.5 3t43.5 48q0 18 -22 32t-58 16t-83 -17
q-10 -4 -17 -0.5t-7 14.5v103q0 14 10 24l77 72h87q-261 62 -261 385v366h-248q-13 0 -21.5 8.5t-8.5 21.5v169q0 14 8.5 22t21.5 8h248v260q0 14 8.5 22t21.5 8h222q13 0 21.5 -8t8.5 -22v-260h357q14 0 22 -8t8 -22v-169q0 -13 -8 -21.5t-22 -8.5h-357v-327
q0 -48 11.5 -83.5t29 -55.5t44 -32t51 -15.5t55.5 -3.5q76 0 148 51q23 20 42 -2z" />
    <glyph glyph-name="Tcaron" unicode="&#x164;" 
d="M767 1537h-304q-22 0 -36 16l-230 267q-12 15 -6.5 25.5t24.5 10.5h219q24 0 36 -16l145 -147l145 147q12 16 36 16h219q19 0 24.5 -10.5t-6.5 -25.5l-230 -267q-14 -16 -36 -16zM1100 1400q14 0 22 -8t8 -22v-198q0 -14 -8 -22t-22 -8h-339v-1112q0 -14 -8.5 -22
t-21.5 -8h-232q-13 0 -21.5 8t-8.5 22v1112h-339q-14 0 -22 8t-8 22v198q0 14 8 22t22 8h970z" />
    <glyph glyph-name="tcaron" unicode="&#x165;" 
d="M1173 1614q17 0 24 -9t0 -25l-120 -252q-11 -24 -34 -24h-198q-17 0 -24 9t0 25l120 252q11 24 34 24h198zM1020 283l90 -105q19 -21 5 -42q-18 -24 -44.5 -47t-67.5 -48.5t-100.5 -41t-127.5 -15.5q-70 0 -127 9.5t-113 36.5t-93.5 70.5t-61 116t-23.5 168.5v366h-248
q-13 0 -21.5 8.5t-8.5 21.5v169q0 14 8.5 22t21.5 8h248v260q0 14 8.5 22t21.5 8h222q13 0 21.5 -8t8.5 -22v-260h357q14 0 22 -8t8 -22v-169q0 -13 -8 -21.5t-22 -8.5h-357v-327q0 -48 11.5 -83.5t29 -55.5t44 -32t51 -15.5t55.5 -3.5q76 0 148 51q23 20 42 -2z" />
    <glyph glyph-name="Tbar" unicode="&#x166;" 
d="M1100 1400q14 0 22 -8t8 -22v-198q0 -14 -8 -22t-22 -8h-339v-162h126q13 0 21.5 -8t8.5 -22v-159q0 -13 -8.5 -21.5t-21.5 -8.5h-126v-731q0 -14 -8.5 -22t-21.5 -8h-232q-13 0 -21.5 8t-8.5 22v731h-126q-13 0 -21.5 8.5t-8.5 21.5v159q0 14 8.5 22t21.5 8h126v162
h-339q-14 0 -22 8t-8 22v198q0 14 8 22t22 8h970z" />
    <glyph glyph-name="tbar" unicode="&#x167;" 
d="M1110 178q19 -21 5 -42q-18 -24 -44.5 -47t-67.5 -48.5t-100.5 -41t-127.5 -15.5q-70 0 -127 9.5t-113 36.5t-93.5 70.5t-61 116t-23.5 168.5v47h-223q-14 0 -22 8t-8 22v170q0 14 8 22t22 8h223v89h-248q-13 0 -21.5 8.5t-8.5 21.5v169q0 14 8.5 22t21.5 8h248v260
q0 14 8.5 22t21.5 8h222q13 0 21.5 -8t8.5 -22v-260h357q14 0 22 -8t8 -22v-169q0 -13 -8 -21.5t-22 -8.5h-357v-89h357q14 0 22 -8t8 -22v-170q0 -14 -8 -22t-22 -8h-357v-8q0 -48 11.5 -83.5t29 -55.5t44 -32t51 -15.5t55.5 -3.5q76 0 148 51q23 20 42 -2z" />
    <glyph glyph-name="Umacron" unicode="&#x16a;" 
d="M887 1816q13 0 21.5 -8t8.5 -22v-159q0 -13 -8.5 -21.5t-21.5 -8.5h-544q-13 0 -21.5 8.5t-8.5 21.5v159q0 14 8.5 22t21.5 8h544zM1077 1400q13 0 21.5 -8t8.5 -22v-857q0 -282 -120.5 -412.5t-371.5 -130.5q-249 0 -370.5 130.5t-121.5 412.5v857q0 14 8.5 22t21.5 8
h232q13 0 21.5 -8t8.5 -22v-854q0 -132 48 -199t152 -67q105 0 152.5 66.5t47.5 199.5v854q0 14 8.5 22t21.5 8h232z" />
    <glyph glyph-name="umacron" unicode="&#x16b;" 
d="M343 1177q-13 0 -21.5 8.5t-8.5 21.5v159q0 14 8.5 22t21.5 8h544q13 0 21.5 -8t8.5 -22v-159q0 -13 -8.5 -21.5t-21.5 -8.5h-544zM1064 980q14 0 22 -8t8 -22v-920q0 -14 -8 -22t-22 -8h-214q-28 0 -30 30l-8 127h-21q-116 -179 -305 -179q-152 0 -251 113.5t-99 305.5
v553q0 14 8 22t22 8h222q14 0 22 -8t8 -22v-499q0 -112 50.5 -162t130.5 -50q55 0 99 22t67.5 54t35 61t11.5 49v525q0 14 8 22t22 8h222z" />
    <glyph glyph-name="Ubreve" unicode="&#x16c;" 
d="M770 1807q7 30 32 30h120q33 0 30 -32q-13 -126 -102 -209t-235 -83t-235 83t-102 209q-3 32 30 32h120q25 0 32 -30q10 -47 51 -82t104 -35t104 35t51 82zM1077 1400q13 0 21.5 -8t8.5 -22v-857q0 -282 -120.5 -412.5t-371.5 -130.5q-249 0 -370.5 130.5t-121.5 412.5
v857q0 14 8.5 22t21.5 8h232q13 0 21.5 -8t8.5 -22v-854q0 -132 48 -199t152 -67q105 0 152.5 66.5t47.5 199.5v854q0 14 8.5 22t21.5 8h232z" />
    <glyph glyph-name="ubreve" unicode="&#x16d;" 
d="M615 1093q-146 0 -235 83t-102 209q-3 32 30 32h120q25 0 32 -30q10 -47 51 -82t104 -35t104 35t51 82q7 30 32 30h120q33 0 30 -32q-13 -126 -102 -209t-235 -83zM1064 980q14 0 22 -8t8 -22v-920q0 -14 -8 -22t-22 -8h-214q-28 0 -30 30l-8 127h-21
q-116 -179 -305 -179q-152 0 -251 113.5t-99 305.5v553q0 14 8 22t22 8h222q14 0 22 -8t8 -22v-499q0 -112 50.5 -162t130.5 -50q55 0 99 22t67.5 54t35 61t11.5 49v525q0 14 8 22t22 8h222z" />
    <glyph glyph-name="Uring" unicode="&#x16e;" 
d="M615 1903q86 0 145.5 -60.5t59.5 -144.5q0 -83 -59.5 -143t-145.5 -60q-87 0 -147 60t-60 143q0 84 60 144.5t147 60.5zM615 1641q25 0 42.5 16.5t18.5 42.5q-1 26 -18.5 42.5t-42.5 16.5q-26 0 -43 -16.5t-17 -42.5t17 -42.5t43 -16.5zM1077 1400q13 0 21.5 -8t8.5 -22
v-857q0 -282 -120.5 -412.5t-371.5 -130.5q-249 0 -370.5 130.5t-121.5 412.5v857q0 14 8.5 22t21.5 8h232q13 0 21.5 -8t8.5 -22v-854q0 -132 48 -199t152 -67q105 0 152.5 66.5t47.5 199.5v854q0 14 8.5 22t21.5 8h232z" />
    <glyph glyph-name="uring" unicode="&#x16f;" 
d="M615 1075q-87 0 -147 60t-60 143q0 84 60 144.5t147 60.5q86 0 145.5 -60.5t59.5 -144.5q0 -83 -59.5 -143t-145.5 -60zM615 1339q-26 0 -43 -16.5t-17 -42.5t17 -42.5t43 -16.5q25 0 42.5 16.5t18.5 42.5q-1 26 -18.5 42.5t-42.5 16.5zM1064 980q14 0 22 -8t8 -22v-920
q0 -14 -8 -22t-22 -8h-214q-28 0 -30 30l-8 127h-21q-116 -179 -305 -179q-152 0 -251 113.5t-99 305.5v553q0 14 8 22t22 8h222q14 0 22 -8t8 -22v-499q0 -112 50.5 -162t130.5 -50q55 0 99 22t67.5 54t35 61t11.5 49v525q0 14 8 22t22 8h222z" />
    <glyph glyph-name="Uhungarumlaut" unicode="&#x170;" 
d="M657 1820q17 0 24 -9t0 -25l-120 -252q-11 -24 -34 -24h-198q-17 0 -24 9t0 25l120 252q11 24 34 24h198zM1035 1820q17 0 24 -9t0 -25l-120 -252q-11 -24 -34 -24h-198q-17 0 -24 9t0 25l120 252q11 24 34 24h198zM1077 1400q13 0 21.5 -8t8.5 -22v-857
q0 -282 -120.5 -412.5t-371.5 -130.5q-249 0 -370.5 130.5t-121.5 412.5v857q0 14 8.5 22t21.5 8h232q13 0 21.5 -8t8.5 -22v-854q0 -132 48 -199t152 -67q105 0 152.5 66.5t47.5 199.5v854q0 14 8.5 22t21.5 8h232z" />
    <glyph glyph-name="uhungarumlaut" unicode="&#x171;" 
d="M329 1090q-17 0 -24 9t0 25l120 252q11 24 34 24h198q17 0 24 -9t0 -25l-120 -252q-11 -24 -34 -24h-198zM707 1090q-17 0 -24 9t0 25l120 252q11 24 34 24h198q17 0 24 -9t0 -25l-120 -252q-11 -24 -34 -24h-198zM1064 980q14 0 22 -8t8 -22v-920q0 -14 -8 -22t-22 -8
h-214q-28 0 -30 30l-8 127h-21q-116 -179 -305 -179q-152 0 -251 113.5t-99 305.5v553q0 14 8 22t22 8h222q14 0 22 -8t8 -22v-499q0 -112 50.5 -162t130.5 -50q55 0 99 22t67.5 54t35 61t11.5 49v525q0 14 8 22t22 8h222z" />
    <glyph glyph-name="Uogonek" unicode="&#x172;" 
d="M1077 1400q13 0 21.5 -8t8.5 -22v-857q0 -391 -240 -498v-3q-182 -64 -182 -160q0 -41 31.5 -64.5t96.5 -9.5v-174q-36 -16 -82 -20.5t-94 5.5t-88.5 33t-66.5 68t-26 105q0 101 84 178q-211 18 -314 149t-103 391v857q0 14 8.5 22t21.5 8h232q13 0 21.5 -8t8.5 -22v-854
q0 -132 48 -199t152 -67q105 0 152.5 66.5t47.5 199.5v854q0 14 8.5 22t21.5 8h232z" />
    <glyph glyph-name="uogonek" unicode="&#x173;" 
d="M1064 980q14 0 22 -8t8 -22v-920q0 -14 -8 -22t-22 -8h-2q-82 0 -129.5 -46.5t-47.5 -102.5q0 -40 31.5 -63.5t96.5 -9.5v-174q-36 -16 -82 -20.5t-94 5.5t-88.5 33t-66.5 68t-26 105q0 148 163 243l-7 119h-21q-116 -179 -305 -179q-152 0 -251 113.5t-99 305.5v553
q0 14 8 22t22 8h222q14 0 22 -8t8 -22v-499q0 -112 50.5 -162t130.5 -50q55 0 99 22t67.5 54t35 61t11.5 49v525q0 14 8 22t22 8h222z" />
    <glyph glyph-name="Wcircumflex" unicode="&#x174;" 
d="M215 1537q-20 0 -25 10t7 26l230 267q15 16 36 16h304q21 0 36 -16l230 -267q12 -16 7 -26t-25 -10h-219q-25 0 -36 16l-145 147l-145 -147q-11 -16 -36 -16h-219zM1140 1400q27 0 24 -34l-140 -1342q-1 -11 -13 -17.5t-25 -6.5h-258q-31 0 -34 24l-79 663l-79 -663
q-3 -24 -34 -24h-258q-13 0 -25 6.5t-13 17.5l-140 1342q-3 34 24 34h209q31 0 34 -24l71 -990l120 990q3 24 34 24h114q31 0 34 -24l120 -990l71 990q3 24 34 24h209z" />
    <glyph glyph-name="wcircumflex" unicode="&#x175;" 
d="M213 1117q-20 0 -25 10t7 26l230 267q15 16 36 16h304q21 0 36 -16l230 -267q12 -16 7 -26t-25 -10h-219q-25 0 -36 16l-145 147l-145 -147q-11 -16 -36 -16h-219zM1140 980q30 0 24 -34l-167 -922q-1 -11 -12 -17.5t-24 -6.5h-210q-13 0 -24 6.5t-12 17.5l-101 571
l-101 -571q-1 -11 -12 -17.5t-24 -6.5h-210q-13 0 -24 6.5t-12 17.5l-167 922q-6 34 24 34h181q13 0 24 -6.5t12 -17.5l84 -627l121 627q6 24 36 24h136q30 0 36 -24l121 -627l84 627q1 11 12 17.5t24 6.5h181z" />
    <glyph glyph-name="Ycircumflex" unicode="&#x176;" 
d="M215 1537q-20 0 -25 10t7 26l230 267q15 16 36 16h304q21 0 36 -16l230 -267q12 -16 7 -26t-25 -10h-219q-25 0 -36 16l-145 147l-145 -147q-11 -16 -36 -16h-219zM1151 1400q18 0 23.5 -10t-3.5 -26l-410 -805v-529q0 -14 -8.5 -22t-21.5 -8h-232q-13 0 -21.5 8t-8.5 22
v532l-410 802q-9 16 -3.5 26t23.5 10h245q27 0 36 -20l255 -544l255 544q9 20 36 20h245z" />
    <glyph glyph-name="ycircumflex" unicode="&#x177;" 
d="M767 1436q21 0 36 -16l230 -267q12 -16 7 -26t-25 -10h-219q-25 0 -36 16l-145 147l-145 -147q-11 -16 -36 -16h-219q-20 0 -25 10t7 26l230 267q15 16 36 16h304zM1110 980q36 0 24 -34l-513 -1302q-8 -24 -36 -24h-221q-17 0 -24 9t0 25l136 343l-379 949q-7 16 0 25
t24 9h221q28 0 36 -24l237 -636l237 636q9 24 36 24h222z" />
    <glyph glyph-name="Ydieresis" unicode="&#x178;" 
d="M393 1556q-58 0 -99 41.5t-41 101.5q0 59 41.5 100t98.5 41q58 0 99.5 -41t41.5 -100q0 -60 -41.5 -101.5t-99.5 -41.5zM836 1556q-58 0 -99 41.5t-41 101.5q0 59 41.5 100t98.5 41q58 0 99.5 -41t41.5 -100q0 -60 -41.5 -101.5t-99.5 -41.5zM1151 1400q18 0 23.5 -10
t-3.5 -26l-410 -805v-529q0 -14 -8.5 -22t-21.5 -8h-232q-13 0 -21.5 8t-8.5 22v532l-410 802q-9 16 -3.5 26t23.5 10h245q27 0 36 -20l255 -544l255 544q9 20 36 20h245z" />
    <glyph glyph-name="Zacute" unicode="&#x179;" 
d="M851 1820q17 0 24 -9t0 -25l-120 -252q-11 -24 -34 -24h-198q-17 0 -24 9t0 25l120 252q11 24 34 24h198zM1076 258q14 0 22 -8t8 -22v-198q0 -14 -8 -22t-22 -8h-922q-14 0 -22 8t-8 22v208q0 18 12 36l633 868h-595q-14 0 -22 8t-8 22v198q0 14 8 22t22 8h882
q14 0 22 -8t8 -22v-208q0 -18 -12 -36l-633 -868h635z" />
    <glyph glyph-name="zacute" unicode="&#x17a;" 
d="M851 1400q17 0 24 -9t0 -25l-120 -252q-11 -24 -34 -24h-198q-17 0 -24 9t0 25l120 252q11 24 34 24h198zM1057 950v-177q0 -24 -14 -38l-534 -506h518q13 0 21.5 -8.5t8.5 -21.5v-169q0 -14 -8.5 -22t-21.5 -8h-824q-13 0 -21.5 8t-8.5 22v177q0 24 14 38l534 506h-518
q-13 0 -21.5 8.5t-8.5 21.5v169q0 14 8.5 22t21.5 8h824q13 0 21.5 -8t8.5 -22z" />
    <glyph glyph-name="Zdotaccent" unicode="&#x17b;" 
d="M615 1546q-58 0 -99.5 41.5t-41.5 101.5q0 59 41.5 100t99.5 41t99.5 -41t41.5 -100q0 -60 -41.5 -101.5t-99.5 -41.5zM1076 258q14 0 22 -8t8 -22v-198q0 -14 -8 -22t-22 -8h-922q-14 0 -22 8t-8 22v208q0 18 12 36l633 868h-595q-14 0 -22 8t-8 22v198q0 14 8 22t22 8
h882q14 0 22 -8t8 -22v-208q0 -18 -12 -36l-633 -868h635z" />
    <glyph glyph-name="zdotaccent" unicode="&#x17c;" 
d="M615 1126q-58 0 -99.5 41.5t-41.5 101.5q0 59 41.5 100t99.5 41t99.5 -41t41.5 -100q0 -60 -41.5 -101.5t-99.5 -41.5zM1057 950v-177q0 -24 -14 -38l-534 -506h518q13 0 21.5 -8.5t8.5 -21.5v-169q0 -14 -8.5 -22t-21.5 -8h-824q-13 0 -21.5 8t-8.5 22v177q0 24 14 38
l534 506h-518q-13 0 -21.5 8.5t-8.5 21.5v169q0 14 8.5 22t21.5 8h824q13 0 21.5 -8t8.5 -22z" />
    <glyph glyph-name="Zcaron" unicode="&#x17d;" 
d="M767 1537h-304q-22 0 -36 16l-230 267q-12 15 -6.5 25.5t24.5 10.5h219q24 0 36 -16l145 -147l145 147q12 16 36 16h219q19 0 24.5 -10.5t-6.5 -25.5l-230 -267q-14 -16 -36 -16zM1076 258q14 0 22 -8t8 -22v-198q0 -14 -8 -22t-22 -8h-922q-14 0 -22 8t-8 22v208
q0 18 12 36l633 868h-595q-14 0 -22 8t-8 22v198q0 14 8 22t22 8h882q14 0 22 -8t8 -22v-208q0 -18 -12 -36l-633 -868h635z" />
    <glyph glyph-name="zcaron" unicode="&#x17e;" 
d="M767 1117h-304q-22 0 -36 16l-230 267q-12 15 -6.5 25.5t24.5 10.5h219q24 0 36 -16l145 -147l145 147q12 16 36 16h219q19 0 24.5 -10.5t-6.5 -25.5l-230 -267q-14 -16 -36 -16zM1057 950v-177q0 -24 -14 -38l-534 -506h518q13 0 21.5 -8.5t8.5 -21.5v-169
q0 -14 -8.5 -22t-21.5 -8h-824q-13 0 -21.5 8t-8.5 22v177q0 24 14 38l534 506h-518q-13 0 -21.5 8.5t-8.5 21.5v169q0 14 8.5 22t21.5 8h824q13 0 21.5 -8t8.5 -22z" />
    <glyph glyph-name="florin" unicode="&#x192;" 
d="M887 1472q102 0 191 -17t89 -49v-158q0 -15 -10 -23t-26 -5q-96 16 -177 16q-89 0 -143 -48t-54 -157v-51h332q13 0 21.5 -8t8.5 -22v-169q0 -13 -8.5 -21.5t-21.5 -8.5h-332v-360q0 -90 -22.5 -160t-61 -115t-92.5 -73.5t-112 -40.5t-126 -12q-102 0 -191 17t-89 49v158
q0 15 10 23t26 5q96 -16 177 -16q90 0 144.5 48t54.5 157v320h-342q-13 0 -21.5 8.5t-8.5 21.5v169q0 14 8.5 22t21.5 8h342v91q0 111 33.5 192t93.5 125t130 64t155 20z" />
    <glyph glyph-name="uni01CD" unicode="&#x1cd;" 
d="M427 1553l-230 267q-12 15 -6.5 25.5t24.5 10.5h219q24 0 36 -16l145 -147l145 147q12 16 36 16h219q19 0 24.5 -10.5t-6.5 -25.5l-230 -267q-14 -16 -36 -16h-304q-22 0 -36 16zM1169 34q9 -34 -24 -34h-236q-29 0 -34 24l-48 211h-424l-48 -211q-5 -24 -34 -24h-236
q-33 0 -24 34l338 1342q6 24 34 24h364q28 0 34 -24zM459 483h312l-140 614h-32z" />
    <glyph glyph-name="uni01CE" unicode="&#x1ce;" 
d="M427 1133l-230 267q-12 15 -6.5 25.5t24.5 10.5h219q24 0 36 -16l145 -147l145 147q12 16 36 16h219q19 0 24.5 -10.5t-6.5 -25.5l-230 -267q-14 -16 -36 -16h-304q-22 0 -36 16zM1097 234q21 -6 29.5 -13.5t8.5 -20.5v-179q0 -29 -66 -29q-119 1 -177.5 39.5
t-58.5 129.5h-23v-1q-53 -77 -162 -130.5t-218 -53.5q-157 0 -248.5 74.5t-91.5 206.5q0 139 88.5 210.5t270.5 98.5l155 24q128 20 149 50q-7 69 -48 98t-112 29q-165 0 -184 -105q-3 -19 -28 -19h-209q-14 0 -22.5 8t-7.5 22q19 177 136 253t319 76q210 0 321.5 -98.5
t111.5 -295.5v-290q0 -64 67 -84zM369 299q0 -41 31 -64.5t89 -23.5q163 0 265 102v157q-17 -31 -151 -54l-123 -21q-54 -10 -82.5 -35t-28.5 -61z" />
    <glyph glyph-name="uni01CF" unicode="&#x1cf;" 
d="M767 1537h-304q-22 0 -36 16l-230 267q-12 15 -6.5 25.5t24.5 10.5h219q24 0 36 -16l145 -147l145 147q12 16 36 16h219q19 0 24.5 -10.5t-6.5 -25.5l-230 -267q-14 -16 -36 -16zM1065 1142h-304v-884h304q13 0 21.5 -8t8.5 -22v-198q0 -14 -8.5 -22t-21.5 -8h-900
q-13 0 -21.5 8t-8.5 22v198q0 14 8.5 22t21.5 8h304v884h-304q-13 0 -21.5 8t-8.5 22v198q0 14 8.5 22t21.5 8h900q13 0 21.5 -8t8.5 -22v-198q0 -14 -8.5 -22t-21.5 -8z" />
    <glyph glyph-name="uni01D0" unicode="&#x1d0;" 
d="M427 1133l-230 267q-12 15 -6.5 25.5t24.5 10.5h219q24 0 36 -16l145 -147l145 147q12 16 36 16h219q19 0 24.5 -10.5t-6.5 -25.5l-230 -267q-14 -16 -36 -16h-304q-22 0 -36 16zM1056 229q14 0 22 -8.5t8 -21.5v-169q0 -14 -8 -22t-22 -8h-872q-14 0 -22 8t-8 22v169
q0 13 8 21.5t22 8.5h321v522h-271q-14 0 -22 8.5t-8 21.5v169q0 14 8 22t22 8h523q13 0 21.5 -8t8.5 -22v-721h269z" />
    <glyph glyph-name="uni01D1" unicode="&#x1d1;" 
d="M767 1537h-304q-22 0 -36 16l-230 267q-12 15 -6.5 25.5t24.5 10.5h219q24 0 36 -16l145 -147l145 147q12 16 36 16h219q19 0 24.5 -10.5t-6.5 -25.5l-230 -267q-14 -16 -36 -16zM615 1420q143 0 238 -32.5t157.5 -111t89.5 -204t27 -316.5v-120q0 -192 -27 -318
t-89.5 -204.5t-157.5 -111t-238 -32.5t-238 32.5t-157.5 111t-89.5 204.5t-27 318v120q0 191 27 316.5t89.5 204t157.5 111t238 32.5zM615 1139q-45 0 -75 -4.5t-58 -19t-44 -40t-29 -68.5t-18 -105t-5 -148v-118q0 -86 5 -148t18 -105t29 -68.5t44 -40t58 -19t75 -4.5
t75 4.5t58 19t44 40t29 68.5t18 105t5 148v118q0 86 -5 148t-18 105t-29 68.5t-44 40t-58 19t-75 4.5z" />
    <glyph glyph-name="uni01D2" unicode="&#x1d2;" 
d="M767 1117h-304q-22 0 -36 16l-230 267q-12 15 -6.5 25.5t24.5 10.5h219q24 0 36 -16l145 -147l145 147q12 16 36 16h219q19 0 24.5 -10.5t-6.5 -25.5l-230 -267q-14 -16 -36 -16zM615 -26q-214 0 -360 148t-146 366t146 366t360 148t360 -148t146 -366t-146 -366
t-360 -148zM615 235q101 0 167.5 71t66.5 182t-66.5 182t-167.5 71t-167.5 -71t-66.5 -182t66.5 -182t167.5 -71z" />
    <glyph glyph-name="uni01D3" unicode="&#x1d3;" 
d="M767 1537h-304q-22 0 -36 16l-230 267q-12 15 -6.5 25.5t24.5 10.5h219q24 0 36 -16l145 -147l145 147q12 16 36 16h219q19 0 24.5 -10.5t-6.5 -25.5l-230 -267q-14 -16 -36 -16zM1077 1400q13 0 21.5 -8t8.5 -22v-857q0 -282 -120.5 -412.5t-371.5 -130.5
q-249 0 -370.5 130.5t-121.5 412.5v857q0 14 8.5 22t21.5 8h232q13 0 21.5 -8t8.5 -22v-854q0 -132 48 -199t152 -67q105 0 152.5 66.5t47.5 199.5v854q0 14 8.5 22t21.5 8h232z" />
    <glyph glyph-name="uni01D4" unicode="&#x1d4;" 
d="M427 1133l-230 267q-12 15 -6.5 25.5t24.5 10.5h219q24 0 36 -16l145 -147l145 147q12 16 36 16h219q19 0 24.5 -10.5t-6.5 -25.5l-230 -267q-14 -16 -36 -16h-304q-22 0 -36 16zM1064 980q14 0 22 -8t8 -22v-920q0 -14 -8 -22t-22 -8h-214q-28 0 -30 30l-8 127h-21
q-116 -179 -305 -179q-152 0 -251 113.5t-99 305.5v553q0 14 8 22t22 8h222q14 0 22 -8t8 -22v-499q0 -112 50.5 -162t130.5 -50q55 0 99 22t67.5 54t35 61t11.5 49v525q0 14 8 22t22 8h222z" />
    <glyph glyph-name="uni01EA" unicode="&#x1ea;" 
d="M615 1420q143 0 238 -32.5t157.5 -111t89.5 -204t27 -316.5v-120q0 -219 -37 -355t-117 -208t-214 -93q-48 -20 -74 -56t-26 -75q0 -40 31.5 -63.5t96.5 -9.5v-174q-46 -20 -105.5 -21t-116.5 17.5t-96 69t-39 125.5q0 103 84 182q-151 15 -239.5 84t-130 208t-41.5 369
v120q0 191 27 316.5t89.5 204t157.5 111t238 32.5zM844 636v118q0 86 -5 148t-18 105t-29 68.5t-44 40t-58 19t-75 4.5t-75 -4.5t-58 -19t-44 -40t-29 -68.5t-18 -105t-5 -148v-118q0 -86 5 -148t18 -105t29 -68.5t44 -40t58 -19t75 -4.5t75 4.5t58 19t44 40t29 68.5t18 105
t5 148z" />
    <glyph glyph-name="uni01EB" unicode="&#x1eb;" 
d="M789 4q-80 -35 -116.5 -71t-36.5 -81q0 -41 31.5 -64.5t96.5 -9.5v-174q-45 -20 -105 -21t-116.5 17.5t-95.5 69t-39 125.5q0 109 97 191q-174 37 -285 176t-111 326q0 218 146 366t360 148t360 -148t146 -366q0 -169 -91.5 -300t-240.5 -184zM381 488q0 -111 66.5 -182
t167.5 -71t167.5 71t66.5 182t-66.5 182t-167.5 71t-167.5 -71t-66.5 -182z" />
    <glyph glyph-name="Scommaaccent" unicode="&#x218;" 
d="M600 836q63 -12 113.5 -24.5t108 -32.5t101 -43.5t85.5 -57.5t68.5 -74.5t43 -94.5t16.5 -118q0 -213 -131.5 -317t-397.5 -104q-245 0 -370.5 91t-143.5 290q-1 15 6.5 24t21.5 9h214q23 0 30 -27q37 -124 242 -124q243 0 243 149q0 86 -51.5 128.5t-198.5 72.5
q-82 17 -147 37.5t-130.5 55.5t-109 79t-70.5 110t-27 147q0 193 121.5 300.5t360.5 107.5q457 0 496 -372q1 -15 -6.5 -24.5t-21.5 -9.5h-198q-23 0 -30 28q-15 54 -73.5 85.5t-161.5 31.5q-97 0 -150 -39.5t-53 -107.5q0 -33 6 -55.5t25.5 -47t61 -42.5t107.5 -31z
M830 -183q27 0 27 -27v-88q0 -121 -21.5 -238t-51.5 -200q-7 -20 -31 -20h-121q-29 0 -23 29q13 65 19 163t4 173h-245q-12 0 -19.5 7.5t-7.5 19.5v154q0 27 27 27h443z" />
    <glyph glyph-name="scommaaccent" unicode="&#x219;" 
d="M615 590q167 -21 229 -38q200 -54 231 -202q6 -29 6 -62q0 -145 -119.5 -229.5t-336.5 -84.5q-219 0 -339 75.5t-137 254.5q-1 14 7.5 22t22.5 8h209q25 0 28 -20q10 -58 59.5 -84.5t142.5 -26.5q187 0 187 94q0 43 -49 64t-141 32q-163 20 -222 36q-185 50 -218 188
q-8 32 -8 70q0 145 114 230t320 85q207 0 325 -75t135 -252q1 -14 -7.5 -22t-22.5 -8h-209q-25 0 -28 19q-20 109 -186 109q-165 0 -165 -92q0 -41 42.5 -60.5t129.5 -30.5zM830 -183q27 0 27 -27v-88q0 -121 -21.5 -238t-51.5 -200q-7 -20 -31 -20h-121q-29 0 -23 29
q13 65 19 163t4 173h-245q-12 0 -19.5 7.5t-7.5 19.5v154q0 27 27 27h443z" />
    <glyph glyph-name="uni021A" unicode="&#x21a;" 
d="M1100 1400q14 0 22 -8t8 -22v-198q0 -14 -8 -22t-22 -8h-339v-1112q0 -14 -8.5 -22t-21.5 -8h-232q-13 0 -21.5 8t-8.5 22v1112h-339q-14 0 -22 8t-8 22v198q0 14 8 22t22 8h970zM830 -183q27 0 27 -27v-88q0 -121 -21.5 -238t-51.5 -200q-7 -20 -31 -20h-121
q-29 0 -23 29q13 65 19 163t4 173h-245q-12 0 -19.5 7.5t-7.5 19.5v154q0 27 27 27h443z" />
    <glyph glyph-name="uni021B" unicode="&#x21b;" 
d="M1110 178q19 -21 5 -42q-18 -24 -44.5 -47t-67.5 -48.5t-100.5 -41t-127.5 -15.5q-70 0 -127 9.5t-113 36.5t-93.5 70.5t-61 116t-23.5 168.5v366h-248q-13 0 -21.5 8.5t-8.5 21.5v169q0 14 8.5 22t21.5 8h248v260q0 14 8.5 22t21.5 8h222q13 0 21.5 -8t8.5 -22v-260h357
q14 0 22 -8t8 -22v-169q0 -13 -8 -21.5t-22 -8.5h-357v-327q0 -48 11.5 -83.5t29 -55.5t44 -32t51 -15.5t55.5 -3.5q76 0 148 51q23 20 42 -2zM830 -183q27 0 27 -27v-88q0 -121 -21.5 -238t-51.5 -200q-7 -20 -31 -20h-121q-29 0 -23 29q13 65 19 163t4 173h-245
q-12 0 -19.5 7.5t-7.5 19.5v154q0 27 27 27h443z" />
    <glyph glyph-name="uni0237" unicode="&#x237;" 
d="M938 980q14 0 22 -8t8 -22v-909q0 -95 -27.5 -170t-72.5 -121.5t-107 -77t-125 -42.5t-133 -12q-61 0 -121.5 14t-105 35t-77 45t-46 46.5t-4.5 35.5l86 130q9 13 24.5 12.5t30.5 -12.5q88 -68 192 -68q98 0 151 50.5t53 174.5v670h-427q-13 0 -21.5 8.5t-8.5 21.5v169
q0 14 8.5 22t21.5 8h679z" />
    <glyph glyph-name="circumflex" unicode="&#x2c6;" 
d="M767 1440q21 0 36 -16l230 -267q12 -16 7 -26t-25 -10h-219q-25 0 -36 16l-145 147l-145 -147q-11 -16 -36 -16h-219q-20 0 -25 10t7 26l230 267q15 16 36 16h304z" />
    <glyph glyph-name="caron" unicode="&#x2c7;" 
d="M767 1121h-304q-22 0 -36 16l-230 267q-12 15 -6.5 25.5t24.5 10.5h219q24 0 36 -16l145 -147l145 147q12 16 36 16h219q19 0 24.5 -10.5t-6.5 -25.5l-230 -267q-14 -16 -36 -16z" />
    <glyph glyph-name="breve" unicode="&#x2d8;" 
d="M770 1389q7 30 32 30h120q33 0 30 -32q-13 -126 -102 -209t-235 -83t-235 83t-102 209q-3 32 30 32h120q25 0 32 -30q10 -47 51 -82t104 -35t104 35t51 82z" />
    <glyph glyph-name="dotaccent" unicode="&#x2d9;" 
d="M615 1126q-58 0 -99.5 41.5t-41.5 101.5q0 59 41.5 100t99.5 41t99.5 -41t41.5 -100q0 -60 -41.5 -101.5t-99.5 -41.5z" />
    <glyph glyph-name="ring" unicode="&#x2da;" 
d="M617 1483q86 0 145.5 -60.5t59.5 -144.5q0 -83 -59.5 -143t-145.5 -60q-87 0 -147 60t-60 143q0 84 60 144.5t147 60.5zM617 1221q25 0 42.5 16.5t18.5 42.5q-1 26 -18.5 42.5t-42.5 16.5q-26 0 -43 -16.5t-17 -42.5t17 -42.5t43 -16.5z" />
    <glyph glyph-name="ogonek" unicode="&#x2db;" 
d="M819 0q-84 -7 -130.5 -51t-46.5 -98q0 -40 31.5 -63.5t96.5 -9.5v-174q-46 -20 -105.5 -21t-116.5 17.5t-96 69t-39 125.5q0 61 30 113.5t75.5 87t102 60.5t106.5 38.5t92 15.5v-110z" />
    <glyph glyph-name="tilde" unicode="&#x2dc;" 
d="M460 1444q53 0 102 -22t79.5 -48t70.5 -48t78 -22q68 0 92 55q6 16 22 16h66q20 0 20 -20q1 -102 -62.5 -156.5t-157.5 -54.5q-53 0 -102 22t-79.5 48.5t-70.5 48.5t-78 22q-68 0 -92 -56q-6 -16 -22 -16h-66q-9 0 -15 7.5t-5 19.5q12 101 71 152.5t149 51.5z" />
    <glyph glyph-name="hungarumlaut" unicode="&#x2dd;" 
d="M589 1460q17 0 24 -9t0 -25l-120 -252q-11 -24 -34 -24h-198q-17 0 -24 9t0 25l120 252q11 24 34 24h198zM967 1460q17 0 24 -9t0 -25l-120 -252q-11 -24 -34 -24h-198q-17 0 -24 9t0 25l120 252q11 24 34 24h198z" />
    <glyph glyph-name="uni0326" unicode="&#x326;" horiz-adv-x="0" 
d="M-400 -183q27 0 27 -27v-88q0 -121 -21.5 -238t-51.5 -200q-7 -20 -31 -20h-121q-29 0 -23 29q13 65 19 163t4 173h-245q-12 0 -19.5 7.5t-7.5 19.5v154q0 27 27 27h443z" />
    <glyph glyph-name="uni0394" unicode="&#x394;" 
d="M1169 34q9 -34 -24 -34h-1060q-33 0 -24 34l338 1342q6 24 34 24h364q28 0 34 -24zM599 1097l-197 -868h426l-197 868h-32z" />
    <glyph glyph-name="uni03A9" unicode="&#x3a9;" 
d="M1176 748q0 -177 -55.5 -316.5t-163.5 -202.5h208v-229h-505v321q107 26 165 132.5t58 294.5q0 101 -11 168t-40 118.5t-82 75.5t-135 24t-135 -24t-82 -75.5t-40 -118.5t-11 -168q0 -188 58 -294.5t165 -132.5v-321h-505v229h208q-108 63 -163.5 202.5t-55.5 316.5
q0 325 140.5 496.5t420.5 171.5t420.5 -171.5t140.5 -496.5z" />
    <glyph glyph-name="uni03BC" unicode="&#x3bc;" 
d="M1064 980q14 0 22 -8t8 -22v-920q0 -14 -8 -22t-22 -8h-214q-28 0 -30 30l-8 127h-21q-116 -179 -305 -179q-37 0 -68 7v-335q0 -14 -8 -22t-22 -8h-222q-14 0 -22 8t-8 22v1300q0 14 8 22t22 8h222q14 0 22 -8t8 -22v-499q0 -112 50.5 -162t130.5 -50q55 0 99 22
t67.5 54t35 61t11.5 49v525q0 14 8 22t22 8h222z" />
    <glyph glyph-name="pi" unicode="&#x3c0;" 
d="M1141 245q16 3 26 -5t10 -23v-172q0 -32 -54 -45.5t-126 -13.5q-58 0 -107 15.5t-90.5 47.5t-65 90t-23.5 136v476h-232v-721q0 -14 -8.5 -22t-21.5 -8h-222q-13 0 -21.5 8t-8.5 22v721h-113q-14 0 -22 8.5t-8 21.5v169q0 14 8 22t22 8h1022q14 0 22 -8t8 -22v-169
q0 -13 -8 -21.5t-22 -8.5h-113v-424q0 -43 20.5 -64.5t57.5 -21.5q46 0 70 4z" />
    <glyph glyph-name="uni0401" unicode="&#x401;" 
d="M393 1556q-58 0 -99 41.5t-41 101.5q0 59 41.5 100t98.5 41q58 0 99.5 -41t41.5 -100q0 -60 -41.5 -101.5t-99.5 -41.5zM836 1556q-58 0 -99 41.5t-41 101.5q0 59 41.5 100t98.5 41q58 0 99.5 -41t41.5 -100q0 -60 -41.5 -101.5t-99.5 -41.5zM1056 258q14 0 22 -8t8 -22
v-198q0 -14 -8 -22t-22 -8h-872q-14 0 -22 8t-8 22v1340q0 14 8 22t22 8h870q14 0 22 -8t8 -22v-198q0 -14 -8 -22t-22 -8h-608v-302h558q14 0 22 -8t8 -22v-198q0 -14 -8 -22t-22 -8h-558v-324h610z" />
    <glyph glyph-name="uni0403" unicode="&#x403;" 
d="M523 1510q-17 0 -24 9t0 25l120 252q11 24 34 24h198q17 0 24 -9t0 -25l-120 -252q-11 -24 -34 -24h-198zM1056 1400q14 0 22 -8t8 -22v-198q0 -14 -8 -22t-22 -8h-600v-1112q0 -14 -8 -22t-22 -8h-232q-14 0 -22 8t-8 22v1340q0 14 8 22t22 8h862z" />
    <glyph glyph-name="uni0404" unicode="&#x404;" 
d="M1110 454q29 0 29 -32q-15 -243 -138.5 -347.5t-374.5 -104.5q-188 0 -297.5 61.5t-162.5 206.5t-53 396v122q0 252 53 396.5t162.5 206t297.5 61.5q251 0 374.5 -104.5t138.5 -347.5q0 -32 -29 -32h-209q-31 0 -35 26q-16 105 -67.5 140.5t-161.5 35.5q-59 0 -98 -12
t-71.5 -44.5t-49.5 -94.5t-21 -158h452q13 0 21.5 -8.5t8.5 -21.5v-198q0 -13 -8.5 -21.5t-21.5 -8.5h-453q3 -80 15.5 -136.5t31.5 -92t49 -56t64 -28t81 -7.5q116 0 164.5 35t64.5 142q4 26 35 26h209z" />
    <glyph glyph-name="uni0406" unicode="&#x406;" 
d="M1065 1142h-304v-884h304q13 0 21.5 -8t8.5 -22v-198q0 -14 -8.5 -22t-21.5 -8h-900q-13 0 -21.5 8t-8.5 22v198q0 14 8.5 22t21.5 8h304v884h-304q-13 0 -21.5 8t-8.5 22v198q0 14 8.5 22t21.5 8h900q13 0 21.5 -8t8.5 -22v-198q0 -14 -8.5 -22t-21.5 -8z" />
    <glyph glyph-name="uni0407" unicode="&#x407;" 
d="M393 1556q-58 0 -99 41.5t-41 101.5q0 59 41.5 100t98.5 41q58 0 99.5 -41t41.5 -100q0 -60 -41.5 -101.5t-99.5 -41.5zM836 1556q-58 0 -99 41.5t-41 101.5q0 59 41.5 100t98.5 41q58 0 99.5 -41t41.5 -100q0 -60 -41.5 -101.5t-99.5 -41.5zM1065 1142h-304v-884h304
q13 0 21.5 -8t8.5 -22v-198q0 -14 -8.5 -22t-21.5 -8h-900q-13 0 -21.5 8t-8.5 22v198q0 14 8.5 22t21.5 8h304v884h-304q-13 0 -21.5 8t-8.5 22v198q0 14 8.5 22t21.5 8h900q13 0 21.5 -8t8.5 -22v-198q0 -14 -8.5 -22t-21.5 -8z" />
    <glyph glyph-name="uni0410" unicode="&#x410;" 
d="M1169 34q9 -34 -24 -34h-236q-29 0 -34 24l-48 211h-424l-48 -211q-5 -24 -34 -24h-236q-33 0 -24 34l338 1342q6 24 34 24h364q28 0 34 -24zM459 483h312l-140 614h-32z" />
    <glyph glyph-name="uni0411" unicode="&#x411;" 
d="M659 930q137 0 229.5 -29.5t144.5 -91.5t73.5 -144t21.5 -200t-21.5 -200t-73.5 -144t-144.5 -91.5t-229.5 -29.5h-497q-14 0 -22 8t-8 22v1340q0 14 8 22t22 8h743q13 0 21.5 -8t8.5 -22v-198q0 -14 -8.5 -22t-21.5 -8h-481v-212h235zM659 258q56 0 88 6.5t57 28
t34.5 62.5t9.5 110t-9.5 110t-34.5 62.5t-57 28t-88 6.5h-235v-414h235z" />
    <glyph glyph-name="uni0412" unicode="&#x412;" 
d="M853 749q136 -27 205 -116t69 -228q0 -210 -116 -307.5t-384 -97.5h-484q-13 0 -21.5 8t-8.5 22v1340q0 14 8.5 22t21.5 8h504q108 0 188.5 -28t127.5 -78.5t69.5 -113t22.5 -138.5q0 -236 -202 -293zM782 1005q0 76 -36 106.5t-126 30.5h-215v-289h215q91 0 126.5 35
t35.5 117zM636 258q107 0 153 42t46 135t-46 135t-153 42h-231v-354h231z" />
    <glyph glyph-name="uni0413" unicode="&#x413;" 
d="M1056 1400q14 0 22 -8t8 -22v-198q0 -14 -8 -22t-22 -8h-600v-1112q0 -14 -8 -22t-22 -8h-232q-14 0 -22 8t-8 22v1340q0 14 8 22t22 8h862z" />
    <glyph glyph-name="uni0414" unicode="&#x414;" 
d="M1165 258q13 0 21.5 -8t8.5 -22v-336q0 -14 -8.5 -22t-21.5 -8h-211q-14 0 -22 8t-8 22v108h-618v-108q0 -14 -8 -22t-22 -8h-211q-13 0 -21.5 8t-8.5 22v336q0 14 8.5 22t21.5 8q83 0 139.5 50.5t56.5 152.5v909q0 14 8.5 22t21.5 8h727q14 0 22 -8t8 -22v-1112h117z
M554 462q0 -123 -60 -204h262v884h-202v-680z" />
    <glyph glyph-name="uni0415" unicode="&#x415;" 
d="M1056 258q14 0 22 -8t8 -22v-198q0 -14 -8 -22t-22 -8h-872q-14 0 -22 8t-8 22v1340q0 14 8 22t22 8h870q14 0 22 -8t8 -22v-198q0 -14 -8 -22t-22 -8h-608v-302h558q14 0 22 -8t8 -22v-198q0 -14 -8 -22t-22 -8h-558v-324h610z" />
    <glyph glyph-name="uni0416" unicode="&#x416;" 
d="M1191 36q14 -36 -18 -36h-207q-28 0 -36 18l-177 466v-454q0 -14 -8.5 -22t-21.5 -8h-216q-13 0 -21.5 8t-8.5 22v454l-177 -466q-8 -18 -36 -18h-207q-32 0 -18 36l305 730l-282 598q-18 36 16 36h214q31 0 36 -16l149 -389v375q0 14 8.5 22t21.5 8h216q13 0 21.5 -8
t8.5 -22v-375l149 389q5 16 36 16h214q34 0 16 -36l-282 -598z" />
    <glyph glyph-name="uni0417" unicode="&#x417;" 
d="M901 737q118 -52 183 -139t65 -203q0 -192 -147.5 -306.5t-398.5 -114.5q-228 0 -364.5 110t-136.5 308q0 29 28 32l211 24q30 3 35 -28q11 -97 74.5 -143t165.5 -46q105 0 167 50.5t62 141.5q0 37 -14 68t-47.5 59.5t-98.5 45t-156 16.5q-30 0 -30 30v154q0 30 32 30
q295 0 295 177q0 74 -60 115t-148 41q-91 0 -154.5 -46.5t-74.5 -142.5q-3 -31 -35 -28l-211 23q-28 3 -28 32q0 198 137 308.5t366 110.5q136 0 243.5 -42t173 -130t65.5 -209q0 -89 -50.5 -166.5t-148.5 -131.5z" />
    <glyph glyph-name="uni0418" unicode="&#x418;" 
d="M1077 1400q13 0 21.5 -8t8.5 -22v-1340q0 -14 -8.5 -22t-21.5 -8h-200q-13 0 -21.5 8t-8.5 22v886l-403 -896q-9 -20 -36 -20h-255q-13 0 -21.5 8t-8.5 22v1340q0 14 8.5 22t21.5 8h200q13 0 21.5 -8t8.5 -22v-886l404 896q7 20 36 20h254z" />
    <glyph glyph-name="uni0419" unicode="&#x419;" 
d="M615 1513q-146 0 -235 83t-102 209q-3 32 30 32h120q25 0 32 -30q10 -47 51 -82t104 -35t104 35t51 82q7 30 32 30h120q33 0 30 -32q-13 -126 -102 -209t-235 -83zM1077 1400q13 0 21.5 -8t8.5 -22v-1340q0 -14 -8.5 -22t-21.5 -8h-200q-13 0 -21.5 8t-8.5 22v886
l-403 -896q-9 -20 -36 -20h-255q-13 0 -21.5 8t-8.5 22v1340q0 14 8.5 22t21.5 8h200q13 0 21.5 -8t8.5 -22v-886l404 896q7 20 36 20h254z" />
    <glyph glyph-name="uni041A" unicode="&#x41a;" 
d="M1172 36q10 -15 5 -25.5t-23 -10.5h-250q-26 0 -36 18l-377 567l-87 -104v-451q0 -14 -8 -22t-22 -8h-232q-14 0 -22 8t-8 22v1340q0 14 8 22t22 8h232q14 0 22 -8t8 -22v-498l404 512q13 16 36 16h278q19 0 23.5 -11t-7.5 -25l-465 -559z" />
    <glyph glyph-name="uni041B" unicode="&#x41b;" 
d="M1066 1400q14 0 22 -8t8 -22v-1340q0 -14 -8 -22t-22 -8h-232q-14 0 -22 8t-8 22v1112h-274v-733q0 -200 -116 -309t-304 -109q-18 0 -24 15l-70 226q-7 20 14 22q208 16 208 209v907q0 14 8 22t22 8h798z" />
    <glyph glyph-name="uni041C" unicode="&#x41c;" 
d="M148 0q-14 0 -22 8t-8 22v1340q0 14 8 22t22 8h231q32 0 36 -20l193 -1053h14l193 1053q4 20 36 20h231q14 0 22 -8t8 -22v-1340q0 -14 -8 -22t-22 -8h-177q-13 0 -21.5 8t-8.5 22v781h-14l-148 -787q-5 -24 -36 -24h-124q-31 0 -36 24l-148 787h-14v-781q0 -14 -8.5 -22
t-21.5 -8h-177z" />
    <glyph glyph-name="uni041D" unicode="&#x41d;" 
d="M1067 1400q13 0 21.5 -8t8.5 -22v-1340q0 -14 -8.5 -22t-21.5 -8h-232q-13 0 -21.5 8t-8.5 22v548h-380v-548q0 -14 -8.5 -22t-21.5 -8h-232q-13 0 -21.5 8t-8.5 22v1340q0 14 8.5 22t21.5 8h232q13 0 21.5 -8t8.5 -22v-534h380v534q0 14 8.5 22t21.5 8h232z" />
    <glyph glyph-name="uni041E" unicode="&#x41e;" 
d="M615 1420q143 0 238 -32.5t157.5 -111t89.5 -204t27 -316.5v-120q0 -192 -27 -318t-89.5 -204.5t-157.5 -111t-238 -32.5t-238 32.5t-157.5 111t-89.5 204.5t-27 318v120q0 191 27 316.5t89.5 204t157.5 111t238 32.5zM615 1139q-45 0 -75 -4.5t-58 -19t-44 -40
t-29 -68.5t-18 -105t-5 -148v-118q0 -86 5 -148t18 -105t29 -68.5t44 -40t58 -19t75 -4.5t75 4.5t58 19t44 40t29 68.5t18 105t5 148v118q0 86 -5 148t-18 105t-29 68.5t-44 40t-58 19t-75 4.5z" />
    <glyph glyph-name="uni041F" unicode="&#x41f;" 
d="M1046 1400q14 0 22 -8t8 -22v-1340q0 -14 -8 -22t-22 -8h-232q-14 0 -22 8t-8 22v1112h-338v-1112q0 -14 -8 -22t-22 -8h-232q-14 0 -22 8t-8 22v1340q0 14 8 22t22 8h862z" />
    <glyph glyph-name="uni0420" unicode="&#x420;" 
d="M659 1400q137 0 229.5 -29.5t144.5 -91.5t73.5 -144t21.5 -200t-21.5 -200t-73.5 -144t-144.5 -91.5t-229.5 -29.5h-235v-440q0 -14 -8 -22t-22 -8h-232q-14 0 -22 8t-8 22v1340q0 14 8 22t22 8h497zM659 728q56 0 88 6.5t57 28t34.5 62.5t9.5 110t-9.5 110t-34.5 62.5
t-57 28t-88 6.5h-235v-414h235z" />
    <glyph glyph-name="uni0421" unicode="&#x421;" 
d="M637 251q116 0 164.5 35t64.5 142q4 26 35 26h209q29 0 29 -32q-15 -243 -138.5 -347.5t-374.5 -104.5q-188 0 -297.5 61.5t-162.5 206.5t-53 396v122q0 252 53 396.5t162.5 206t297.5 61.5q251 0 374.5 -104.5t138.5 -347.5q0 -32 -29 -32h-209q-31 0 -35 26
q-16 105 -67.5 140.5t-161.5 35.5q-51 0 -86.5 -8.5t-66.5 -32.5t-49.5 -66.5t-29 -111t-10.5 -165.5v-118q0 -120 15 -197t47.5 -118t74 -55.5t105.5 -14.5z" />
    <glyph glyph-name="uni0422" unicode="&#x422;" 
d="M1100 1400q14 0 22 -8t8 -22v-198q0 -14 -8 -22t-22 -8h-339v-1112q0 -14 -8.5 -22t-21.5 -8h-232q-13 0 -21.5 8t-8.5 22v1112h-339q-14 0 -22 8t-8 22v198q0 14 8 22t22 8h970z" />
    <glyph glyph-name="uni0423" unicode="&#x423;" 
d="M1161 1400q17 0 22.5 -10.5t-2.5 -25.5l-666 -1344q-11 -20 -36 -20h-245q-36 0 -20 36l242 488l-397 840q-8 15 -2.5 25.5t22.5 10.5h243q27 0 36 -20l252 -545l270 545q11 20 36 20h245z" />
    <glyph glyph-name="uni0424" unicode="&#x424;" 
d="M747 1259q114 0 198 -43t131.5 -121.5t70 -176t22.5 -218.5t-22.5 -218.5t-70 -176t-131.5 -121.5t-198 -43h-1v-111q0 -14 -8 -22t-22 -8h-202q-14 0 -22 8t-8 22v111h-1q-114 0 -198 43t-131.5 121.5t-70 176t-22.5 218.5t22.5 218.5t70 176t131.5 121.5t198 43h1v111
q0 14 8 22t22 8h202q14 0 22 -8t8 -22v-111h1zM483 399h1v602h-1q-90 0 -118.5 -69t-28.5 -232t28.5 -232t118.5 -69zM747 399q90 0 118.5 69t28.5 232t-28.5 232t-118.5 69h-1v-602h1z" />
    <glyph glyph-name="uni0425" unicode="&#x425;" 
d="M1150 36q9 -16 3.5 -26t-23.5 -10h-245q-25 0 -36 20l-234 415l-234 -415q-11 -20 -36 -20h-245q-18 0 -23.5 10t3.5 26l380 674l-369 654q-9 16 -3.5 26t23.5 10h245q25 0 36 -20l223 -395l223 395q11 20 36 20h245q18 0 23.5 -10t-3.5 -26l-369 -654z" />
    <glyph glyph-name="uni0426" unicode="&#x426;" 
d="M1167 258q13 0 21.5 -8t8.5 -22v-336q0 -14 -8.5 -22t-21.5 -8h-211q-14 0 -22 8t-8 22v108h-744q-14 0 -22 8t-8 22v1340q0 14 8 22t22 8h232q14 0 22 -8t8 -22v-1112h298v1112q0 14 8 22t22 8h232q14 0 22 -8t8 -22v-1112h133z" />
    <glyph glyph-name="uni0427" unicode="&#x427;" 
d="M1114 1400q14 0 22 -8t8 -22v-1340q0 -14 -8 -22t-22 -8h-232q-14 0 -22 8t-8 22v514q-62 -83 -156.5 -131t-214.5 -48q-176 0 -290.5 117.5t-114.5 323.5v564q0 14 8 22t22 8h232q14 0 22 -8t8 -22v-510q0 -58 18 -99.5t50.5 -64.5t71 -33.5t86.5 -10.5
q105 0 181.5 59.5t76.5 114.5v544q0 14 8 22t22 8h232z" />
    <glyph glyph-name="uni0428" unicode="&#x428;" 
d="M1097 1400q13 0 21.5 -8t8.5 -22v-1340q0 -14 -8.5 -22t-21.5 -8h-964q-13 0 -21.5 8t-8.5 22v1340q0 14 8.5 22t21.5 8h189q14 0 22 -8t8 -22v-1112h138v1112q0 14 8 22t22 8h190q14 0 22 -8t8 -22v-1112h138v1112q0 14 8 22t22 8h189z" />
    <glyph glyph-name="uni0429" unicode="&#x429;" 
d="M1167 258q13 0 21.5 -8t8.5 -22v-336q0 -14 -8.5 -22t-21.5 -8h-211q-14 0 -22 8t-8 22v108h-793q-13 0 -21.5 8t-8.5 22v1340q0 14 8.5 22t21.5 8h189q14 0 22 -8t8 -22v-1112h118v1112q0 14 8 22t22 8h190q14 0 22 -8t8 -22v-1112h118v1112q0 14 8 22t22 8h189
q13 0 21.5 -8t8.5 -22v-1112h80z" />
    <glyph glyph-name="uni042A" unicode="&#x42a;" 
d="M646 930q116 0 202.5 -20t143 -56.5t91 -95t49 -129t14.5 -164.5t-14.5 -164.5t-49 -129t-91 -95t-143 -56.5t-202.5 -20h-400q-14 0 -22 8t-8 22v1112h-132q-14 0 -22 8t-8 22v198q0 14 8 22t22 8h395q13 0 21.5 -8t8.5 -22v-440h137zM646 258q65 0 101.5 6t66 27.5
t41 63t11.5 110.5t-11.5 110.5t-41 63t-66 27.5t-101.5 6h-137v-414h137z" />
    <glyph glyph-name="uni042B" unicode="&#x42b;" 
d="M391 0h-319q-14 0 -22 8t-8 22v1340q0 14 8 22t22 8h222q14 0 22 -8t8 -22v-440h67q129 0 215.5 -29.5t135 -91t68.5 -144t20 -200.5t-20 -200.5t-68.5 -144t-135 -91t-215.5 -29.5zM1158 0h-222q-14 0 -22 8t-8 22v1340q0 14 8 22t22 8h222q14 0 22 -8t8 -22v-1340
q0 -14 -8 -22t-22 -8zM391 672h-67v-414h67q48 0 74.5 6t48 27.5t29.5 62.5t8 111t-8 111t-29.5 62.5t-48 27.5t-74.5 6z" />
    <glyph glyph-name="uni042C" unicode="&#x42c;" 
d="M659 0h-497q-14 0 -22 8t-8 22v1340q0 14 8 22t22 8h232q14 0 22 -8t8 -22v-440h235q137 0 229.5 -29.5t144.5 -91.5t73.5 -144t21.5 -200t-21.5 -200t-73.5 -144t-144.5 -91.5t-229.5 -29.5zM659 672h-235v-414h235q56 0 88 6.5t57 28t34.5 62.5t9.5 110t-9.5 110
t-34.5 62.5t-57 28t-88 6.5z" />
    <glyph glyph-name="uni042D" unicode="&#x42d;" 
d="M625 1420q188 0 297.5 -61.5t162.5 -206t53 -396.5v-122q0 -251 -53 -396t-162.5 -206.5t-297.5 -61.5q-251 0 -374.5 104.5t-138.5 347.5q0 32 29 32h209q31 0 35 -26q16 -107 64.5 -142t164.5 -35q47 0 81 7.5t64 28t49 56t31.5 92t15.5 136.5h-453q-14 0 -22 8.5
t-8 21.5v198q0 13 8 21.5t22 8.5h452q-4 96 -21 158t-49.5 94.5t-71.5 44.5t-98 12q-110 0 -161.5 -35.5t-67.5 -140.5q-4 -26 -35 -26h-209q-29 0 -29 32q15 243 138.5 347.5t374.5 104.5z" />
    <glyph glyph-name="uni042E" unicode="&#x42e;" 
d="M762 1416q109 -1 182.5 -34t124.5 -110.5t74 -206t23 -320.5v-98q0 -255 -43.5 -402.5t-129.5 -208.5t-231 -62q-143 -1 -227.5 54.5t-127.5 185.5t-49 357h-55v-541q0 -14 -8.5 -22t-21.5 -8h-190q-9 0 -13 4t-5 9.5t-1 16.5v1340q0 11 1 16.5t5 9.5t13 4h190
q13 0 21.5 -8t8.5 -22v-541h55q6 223 49.5 351.5t128 182.5t226.5 53zM915 647v96q0 158 -19 245t-50 114.5t-84 27.5q-39 0 -65.5 -15t-47.5 -55.5t-31 -118.5t-10 -198v-96q0 -120 10 -198t31 -118.5t47.5 -55.5t65.5 -15q53 0 84 27.5t50 114.5t19 245z" />
    <glyph glyph-name="uni042F" unicode="&#x42f;" 
d="M1068 1400q14 0 22 -8t8 -22v-1340q0 -14 -8 -22t-22 -8h-232q-14 0 -22 8t-8 22v440h-226l-202 -447q-10 -23 -35 -23h-220q-17 0 -23.5 9.5t0.5 25.5l218 474q-119 47 -167.5 151t-48.5 275q0 118 21.5 200t73.5 144t144.5 91.5t229.5 29.5h497zM806 728v414h-235
q-56 0 -88 -6.5t-57 -28t-34.5 -62.5t-9.5 -110t9.5 -110t34.5 -62.5t57 -28t88 -6.5h235z" />
    <glyph glyph-name="uni0430" unicode="&#x430;" 
d="M1097 234q21 -6 29.5 -13.5t8.5 -20.5v-179q0 -29 -66 -29q-119 1 -177.5 39.5t-58.5 129.5h-23v-1q-53 -77 -162 -130.5t-218 -53.5q-157 0 -248.5 74.5t-91.5 206.5q0 139 88.5 210.5t270.5 98.5l155 24q128 20 149 50q-7 69 -48 98t-112 29q-165 0 -184 -105
q-3 -19 -28 -19h-209q-14 0 -22.5 8t-7.5 22q19 177 136 253t319 76q210 0 321.5 -98.5t111.5 -295.5v-290q0 -64 67 -84zM369 299q0 -41 31 -64.5t89 -23.5q163 0 265 102v157q-17 -31 -151 -54l-123 -21q-54 -10 -82.5 -35t-28.5 -61z" />
    <glyph glyph-name="uni0431" unicode="&#x431;" 
d="M699 1002q134 0 235.5 -69.5t153 -185t51.5 -259.5t-51.5 -259.5t-152.5 -185t-236 -69.5q-178 0 -297 127l-6 -71q-3 -30 -30 -30h-201q-13 0 -21.5 8t-8.5 22v1005q0 186 82 275.5t244 89.5h214q64 0 96 10t54 30h217q-1 -83 -29.5 -141t-80 -89.5t-114 -44.5
t-144.5 -13h-141q-68 0 -94.5 -32.5t-26.5 -99.5l1 -157h26q97 139 260 139zM637 231q114 0 172 69t58 190q0 120 -58 187.5t-172 67.5q-106 0 -162.5 -68t-56.5 -187t57 -189t162 -70z" />
    <glyph glyph-name="uni0432" unicode="&#x432;" 
d="M958 515q96 -23 153 -86.5t57 -146.5q0 -98 -58.5 -162t-157 -92t-235.5 -28h-554q-13 0 -21.5 8t-8.5 22v920q0 14 8.5 22t21.5 8h554q166 0 271.5 -73t105.5 -202q0 -68 -36.5 -116.5t-99.5 -73.5zM840 676q0 21 -7.5 35.5t-39 27t-87.5 12.5h-291v-154h293
q43 0 71.5 7t40.5 19.5t16 24.5t4 28zM706 229q81 0 125 12.5t55.5 29.5t11.5 45q0 16 -3.5 27.5t-15 23t-31.5 19t-55.5 12t-84.5 4.5h-293v-173h291z" />
    <glyph glyph-name="uni0433" unicode="&#x433;" 
d="M1069 980q13 0 21.5 -8t8.5 -22v-169q0 -13 -8.5 -21.5t-21.5 -8.5h-636v-721q0 -14 -8.5 -22t-21.5 -8h-222q-13 0 -21.5 8t-8.5 22v920q0 14 8.5 22t21.5 8h888z" />
    <glyph glyph-name="uni0434" unicode="&#x434;" 
d="M1156 229q14 0 22 -8.5t8 -21.5v-318q0 -13 -8 -21.5t-22 -8.5h-201q-13 0 -21.5 8.5t-8.5 21.5v119h-620v-119q0 -13 -8.5 -21.5t-21.5 -8.5h-201q-14 0 -22 8.5t-8 21.5v355q0 17 15 17q85 0 147 53t62 155v489q0 14 8 22t22 8h741q13 0 21.5 -8t8.5 -22v-721h87z
M539 751v-289q0 -151 -79 -233h338v522h-259z" />
    <glyph glyph-name="uni0435" unicode="&#x435;" 
d="M1103 504q0 -66 -14 -94t-57 -28h-653q19 -87 96 -134t194 -47q125 0 219 62q25 17 44 -2l93 -93q21 -21 -2 -44q-150 -150 -381 -150q-157 0 -280 68.5t-189 185t-66 260.5q0 218 145 366t367 148q110 0 202 -39.5t153 -107.5t95 -158.5t34 -192.5zM621 764
q-93 0 -156 -49t-81 -142h469q-15 93 -76.5 142t-155.5 49z" />
    <glyph glyph-name="uni0436" unicode="&#x436;" 
d="M1170 36q10 -15 5.5 -25.5t-23.5 -10.5h-194q-28 0 -36 16l-179 328l-3 -5v-309q0 -14 -8 -22t-22 -8h-190q-14 0 -22 8t-8 22v309l-3 5l-179 -328q-8 -16 -36 -16h-194q-19 0 -23.5 10.5t5.5 25.5l292 510l-266 398q-11 15 -7 25.5t23 10.5h206q27 0 38 -16l144 -252
v238q0 14 8 22t22 8h190q14 0 22 -8t8 -22v-238l144 252q11 16 38 16h206q19 0 23 -10.5t-7 -25.5l-266 -398z" />
    <glyph glyph-name="uni0437" unicode="&#x437;" 
d="M922 515q81 -37 127.5 -98t46.5 -132q0 -145 -127 -228t-346 -83q-186 0 -306 38t-169 98q-27 33 0 60l99 102q21 21 54 -3q79 -62 269 -62q126 0 201 28t75 79q0 22 -15 38t-51.5 30.5t-107.5 22t-174 7.5q-21 0 -34.5 12.5t-13.5 31.5v94q0 21 13.5 33.5t34.5 12.5
q95 0 159.5 6.5t96.5 19.5t44 27.5t12 34.5q0 87 -219 87q-153 0 -266 -53q-48 -24 -73 4l-74 90q-26 32 -2 58q50 55 163.5 93.5t282.5 38.5q204 0 324.5 -72.5t120.5 -198.5q0 -131 -145 -216z" />
    <glyph glyph-name="uni0438" unicode="&#x438;" 
d="M1049 980q13 0 21.5 -8t8.5 -22v-920q0 -14 -8.5 -22t-21.5 -8h-222q-13 0 -21.5 8t-8.5 22v545l-345 -555q-13 -20 -38 -20h-233q-13 0 -21.5 8t-8.5 22v920q0 14 8.5 22t21.5 8h222q13 0 21.5 -8t8.5 -22v-545l345 555q13 20 38 20h233z" />
    <glyph glyph-name="uni0439" unicode="&#x439;" 
d="M615 1093q-146 0 -235 83t-102 209q-3 32 30 32h120q25 0 32 -30q10 -47 51 -82t104 -35t104 35t51 82q7 30 32 30h120q33 0 30 -32q-13 -126 -102 -209t-235 -83zM1049 980q13 0 21.5 -8t8.5 -22v-920q0 -14 -8.5 -22t-21.5 -8h-222q-13 0 -21.5 8t-8.5 22v545
l-345 -555q-13 -20 -38 -20h-233q-13 0 -21.5 8t-8.5 22v920q0 14 8.5 22t21.5 8h222q13 0 21.5 -8t8.5 -22v-545l345 555q13 20 38 20h233z" />
    <glyph glyph-name="uni043A" unicode="&#x43a;" 
d="M1169 36q12 -15 6.5 -25.5t-24.5 -10.5h-268q-23 0 -36 16l-312 357l-120 -123v-220q0 -14 -8.5 -22t-21.5 -8h-222q-13 0 -21.5 8t-8.5 22v920q0 14 8.5 22t21.5 8h222q13 0 21.5 -8t8.5 -22v-357l357 371q13 16 38 16h266q20 0 24.5 -10.5t-8.5 -25.5l-379 -388z" />
    <glyph glyph-name="uni043B" unicode="&#x43b;" 
d="M1107 980q13 0 21.5 -8t8.5 -22v-920q0 -14 -8.5 -22t-21.5 -8h-222q-13 0 -21.5 8t-8.5 22v721h-324v-344q0 -202 -111.5 -309.5t-298.5 -107.5q-18 0 -24 16l-70 226q-3 9 1 15.5t13 6.5q84 0 146 52.5t62 154.5v489q0 14 8.5 22t21.5 8h828z" />
    <glyph glyph-name="uni043C" unicode="&#x43c;" 
d="M1067 980q13 0 21.5 -8t8.5 -22v-920q0 -14 -8.5 -22t-21.5 -8h-211q-14 0 -22 8t-8 22v384l-108 -392q-6 -22 -34 -22h-138q-28 0 -34 22l-108 392v-384q0 -14 -8 -22t-22 -8h-211q-13 0 -21.5 8t-8.5 22v920q0 14 8.5 22t21.5 8h213q28 0 34 -22l205 -686l205 686
q6 22 34 22h213z" />
    <glyph glyph-name="uni043D" unicode="&#x43d;" 
d="M1049 980q13 0 21.5 -8t8.5 -22v-920q0 -14 -8.5 -22t-21.5 -8h-222q-13 0 -21.5 8t-8.5 22v345h-364v-345q0 -14 -8.5 -22t-21.5 -8h-222q-13 0 -21.5 8t-8.5 22v920q0 14 8.5 22t21.5 8h222q13 0 21.5 -8t8.5 -22v-345h364v345q0 14 8.5 22t21.5 8h222z" />
    <glyph glyph-name="uni043E" unicode="&#x43e;" 
d="M615 -26q-214 0 -360 148t-146 366t146 366t360 148t360 -148t146 -366t-146 -366t-360 -148zM615 235q101 0 167.5 71t66.5 182t-66.5 182t-167.5 71t-167.5 -71t-66.5 -182t66.5 -182t167.5 -71z" />
    <glyph glyph-name="uni043F" unicode="&#x43f;" 
d="M1049 980q13 0 21.5 -8t8.5 -22v-920q0 -14 -8.5 -22t-21.5 -8h-222q-13 0 -21.5 8t-8.5 22v721h-364v-721q0 -14 -8.5 -22t-21.5 -8h-222q-13 0 -21.5 8t-8.5 22v920q0 14 8.5 22t21.5 8h868z" />
    <glyph glyph-name="uni0440" unicode="&#x440;" 
d="M699 1002q134 0 235.5 -69.5t153 -185t51.5 -259.5t-51.5 -259.5t-152.5 -185t-236 -69.5q-167 0 -282 112v-436q0 -14 -8.5 -22t-21.5 -8h-222q-13 0 -21.5 8t-8.5 22v1300q0 14 8.5 22t21.5 8h222q13 0 21.5 -8t8.5 -22v-87h22q97 139 260 139zM637 231q114 0 172 69
t58 190q0 120 -58 187.5t-172 67.5q-106 0 -162.5 -68t-56.5 -187t57 -189t162 -70z" />
    <glyph glyph-name="uni0441" unicode="&#x441;" 
d="M685 235q128 0 201 91q18 21 40 8l165 -93q27 -17 10 -40q-65 -103 -176.5 -165t-246.5 -62q-224 0 -373.5 148t-149.5 366t149.5 366t373.5 148q135 0 246.5 -62t176.5 -165q17 -23 -10 -40l-165 -93q-22 -13 -40 8q-73 91 -201 91q-111 0 -184.5 -71t-73.5 -182
t73.5 -182t184.5 -71z" />
    <glyph glyph-name="uni0442" unicode="&#x442;" 
d="M1116 980q14 0 22 -8t8 -22v-169q0 -13 -8 -21.5t-22 -8.5h-361v-721q0 -14 -8.5 -22t-21.5 -8h-222q-13 0 -21.5 8t-8.5 22v721h-359q-14 0 -22 8.5t-8 21.5v169q0 14 8 22t22 8h1002z" />
    <glyph glyph-name="uni0443" unicode="&#x443;" 
d="M1110 980q36 0 24 -34l-513 -1302q-8 -24 -36 -24h-221q-17 0 -24 9t0 25l136 343l-379 949q-7 16 0 25t24 9h221q28 0 36 -24l237 -636l237 636q9 24 36 24h222z" />
    <glyph glyph-name="uni0444" unicode="&#x444;" 
d="M1136 488q0 -212 -99 -340.5t-286 -162.5v-335q0 -14 -8.5 -22t-21.5 -8h-212q-13 0 -21.5 8t-8.5 22v335q-187 34 -286 162.5t-99 340.5t99 340.5t286 162.5v381q0 14 8.5 22t21.5 8h212q13 0 21.5 -8t8.5 -22v-381q187 -34 286 -162.5t99 -340.5zM344 488
q0 -108 30.5 -164t104.5 -77v482q-74 -21 -104.5 -77t-30.5 -164zM751 247q74 21 104.5 77t30.5 164t-30.5 164t-104.5 77v-482z" />
    <glyph glyph-name="uni0445" unicode="&#x445;" 
d="M1149 36q12 -15 6 -25.5t-24 -10.5h-252q-23 0 -36 18l-228 294l-228 -294q-13 -18 -36 -18h-252q-18 0 -24 10.5t6 25.5l378 473l-348 435q-11 15 -5.5 25.5t23.5 10.5h251q23 0 36 -18l199 -257l199 257q13 18 36 18h251q18 0 23.5 -10.5t-5.5 -25.5l-346 -435z" />
    <glyph glyph-name="uni0446" unicode="&#x446;" 
d="M1167 229q13 0 21.5 -8.5t8.5 -21.5v-285q0 -14 -8.5 -22t-21.5 -8h-212q-13 0 -21.5 8t-8.5 22v86h-744q-13 0 -21.5 8t-8.5 22v920q0 14 8.5 22t21.5 8h222q13 0 21.5 -8t8.5 -22v-721h364v721q0 14 8.5 22t21.5 8h222q13 0 21.5 -8t8.5 -22v-721h88z" />
    <glyph glyph-name="uni0447" unicode="&#x447;" 
d="M1049 980q13 0 21.5 -8t8.5 -22v-920q0 -14 -8.5 -22t-21.5 -8h-222q-13 0 -21.5 8t-8.5 22v276q-109 -92 -265 -92q-88 0 -162.5 25t-132.5 75t-91 133.5t-33 193.5v309q0 14 8.5 22t21.5 8h222q13 0 21.5 -8t8.5 -22v-312q0 -97 48 -160.5t147 -63.5q114 0 207 98v438
q0 14 8.5 22t21.5 8h222z" />
    <glyph glyph-name="uni0448" unicode="&#x448;" 
d="M1066 980q14 0 22 -8t8 -22v-920q0 -14 -8 -22t-22 -8h-902q-14 0 -22 8t-8 22v920q0 14 8 22t22 8h200q14 0 22 -8t8 -22v-721h103v721q0 14 8.5 22t21.5 8h176q13 0 21.5 -8t8.5 -22v-721h103v721q0 14 8 22t22 8h200z" />
    <glyph glyph-name="uni0449" unicode="&#x449;" 
d="M1167 229q13 0 21.5 -8.5t8.5 -21.5v-285q0 -14 -8.5 -22t-21.5 -8h-212q-13 0 -21.5 8t-8.5 22v86h-761q-14 0 -22 8t-8 22v920q0 14 8 22t22 8h200q14 0 22 -8t8 -22v-721h103v721q0 14 8.5 22t21.5 8h176q13 0 21.5 -8t8.5 -22v-721h103v721q0 14 8 22t22 8h200
q14 0 22 -8t8 -22v-721h71z" />
    <glyph glyph-name="uni044A" unicode="&#x44a;" 
d="M696 694q214 0 312.5 -78.5t98.5 -268.5t-98.5 -268.5t-312.5 -78.5h-411q-13 0 -21.5 8t-8.5 22v721h-141q-14 0 -22 8.5t-8 21.5v169q0 14 8 22t22 8h393q13 0 21.5 -8t8.5 -22v-256h159zM700 207q77 0 106 29t29 111t-29 111t-106 29h-163v-280h163z" />
    <glyph glyph-name="uni044B" unicode="&#x44b;" 
d="M436 694q143 0 222.5 -34t112.5 -107.5t33 -205.5t-33 -205.5t-112.5 -107.5t-222.5 -34h-313q-13 0 -21.5 8t-8.5 22v920q0 14 8.5 22t21.5 8h201q14 0 22 -8t8 -22v-256h82zM1107 980q13 0 21.5 -8t8.5 -22v-920q0 -14 -8.5 -22t-21.5 -8h-201q-14 0 -22 8t-8 22v920
q0 14 8 22t22 8h201zM440 207q63 0 88.5 30t25.5 110t-25.5 110t-88.5 30h-86v-280h86z" />
    <glyph glyph-name="uni044C" unicode="&#x44c;" 
d="M696 694q214 0 312.5 -78.5t98.5 -268.5t-98.5 -268.5t-312.5 -78.5h-515q-13 0 -21.5 8t-8.5 22v920q0 14 8.5 22t21.5 8h222q13 0 21.5 -8t8.5 -22v-256h263zM700 207q77 0 106 29t29 111t-29 111t-106 29h-267v-280h267z" />
    <glyph glyph-name="uni044D" unicode="&#x44d;" 
d="M568 1002q224 0 373.5 -148t149.5 -366t-149.5 -366t-373.5 -148q-135 0 -246.5 62t-176.5 165q-17 23 10 40l165 93q22 13 40 -8q73 -91 201 -91q82 0 145.5 41t92.5 110h-274q-13 0 -21.5 8t-8.5 22v144q0 14 8.5 22t21.5 8h274q-29 69 -92.5 110t-145.5 41
q-128 0 -201 -91q-18 -21 -40 -8l-165 93q-27 17 -10 40q65 103 176.5 165t246.5 62z" />
    <glyph glyph-name="uni044E" unicode="&#x44e;" 
d="M767 1002q89 0 156 -26t108.5 -70.5t67.5 -112t35.5 -140.5t9.5 -165t-9.5 -165t-35.5 -140.5t-67.5 -112t-108.5 -70.5t-156 -26q-96 0 -165.5 29t-112 84t-65 125t-29.5 161h-65v-343q0 -14 -8 -22t-22 -8h-201q-13 0 -21.5 8t-8.5 22v920q0 14 8.5 22t21.5 8h201
q14 0 22 -8t8 -22v-347h65q7 91 29.5 161t65 125t112 84t165.5 29zM767 235q33 0 56.5 12.5t37 33t21 55t10 68.5t2.5 84t-2.5 84t-10 68.5t-21 55t-37 33t-56.5 12.5q-41 0 -67 -17.5t-38.5 -54.5t-17 -77.5t-4.5 -103.5t4.5 -103.5t17 -77.5t38.5 -54.5t67 -17.5z" />
    <glyph glyph-name="uni044F" unicode="&#x44f;" 
d="M1049 980q13 0 21.5 -8t8.5 -22v-920q0 -14 -8.5 -22t-21.5 -8h-222q-13 0 -21.5 8t-8.5 22v298h-108l-277 -312q-13 -16 -36 -16h-240q-20 0 -25 11t9 25l276 299q-147 20 -216 95.5t-69 223.5q0 175 98 250.5t311 75.5h529zM516 773q-133 0 -133 -119t133 -119h281v238
h-281z" />
    <glyph glyph-name="uni0451" unicode="&#x451;" 
d="M374 1196q-58 0 -99 41.5t-41 101.5q0 59 41.5 100t98.5 41q58 0 99.5 -41t41.5 -100q0 -60 -41.5 -101.5t-99.5 -41.5zM817 1196q-58 0 -99 41.5t-41 101.5q0 59 41.5 100t98.5 41q58 0 99.5 -41t41.5 -100q0 -60 -41.5 -101.5t-99.5 -41.5zM1103 504q0 -66 -14 -94
t-57 -28h-653q19 -87 96 -134t194 -47q125 0 219 62q25 17 44 -2l93 -93q21 -21 -2 -44q-150 -150 -381 -150q-157 0 -280 68.5t-189 185t-66 260.5q0 218 145 366t367 148q110 0 202 -39.5t153 -107.5t95 -158.5t34 -192.5zM621 764q-93 0 -156 -49t-81 -142h469
q-15 93 -76.5 142t-155.5 49z" />
    <glyph glyph-name="uni0453" unicode="&#x453;" 
d="M523 1090q-17 0 -24 9t0 25l120 252q11 24 34 24h198q17 0 24 -9t0 -25l-120 -252q-11 -24 -34 -24h-198zM1069 980q13 0 21.5 -8t8.5 -22v-169q0 -13 -8.5 -21.5t-21.5 -8.5h-636v-721q0 -14 -8.5 -22t-21.5 -8h-222q-13 0 -21.5 8t-8.5 22v920q0 14 8.5 22t21.5 8h888z
" />
    <glyph glyph-name="uni0454" unicode="&#x454;" 
d="M1091 241q27 -17 10 -40q-65 -103 -176.5 -165t-246.5 -62q-224 0 -373.5 148t-149.5 366t149.5 366t373.5 148q135 0 246.5 -62t176.5 -165q17 -23 -10 -40l-165 -93q-22 -13 -40 8q-73 91 -201 91q-82 0 -145.5 -41t-92.5 -110h274q13 0 21.5 -8t8.5 -22v-144
q0 -14 -8.5 -22t-21.5 -8h-274q29 -69 92.5 -110t145.5 -41q128 0 201 91q18 21 40 8z" />
    <glyph glyph-name="uni0457" unicode="&#x457;" 
d="M393 1136q-58 0 -99 41.5t-41 101.5q0 59 41.5 100t98.5 41q58 0 99.5 -41t41.5 -100q0 -60 -41.5 -101.5t-99.5 -41.5zM836 1136q-58 0 -99 41.5t-41 101.5q0 59 41.5 100t98.5 41q58 0 99.5 -41t41.5 -100q0 -60 -41.5 -101.5t-99.5 -41.5zM1056 229q14 0 22 -8.5
t8 -21.5v-169q0 -14 -8 -22t-22 -8h-872q-14 0 -22 8t-8 22v169q0 13 8 21.5t22 8.5h321v522h-271q-14 0 -22 8.5t-8 21.5v169q0 14 8 22t22 8h523q13 0 21.5 -8t8.5 -22v-721h269z" />
    <glyph glyph-name="uni0490" unicode="&#x490;" 
d="M1056 1502q14 0 22 -8t8 -22v-300q0 -14 -8 -22t-22 -8h-600v-1112q0 -14 -8 -22t-22 -8h-232q-14 0 -22 8t-8 22v1340q0 14 8 22t22 8h634v72q0 14 8 22t22 8h198z" />
    <glyph glyph-name="uni0491" unicode="&#x491;" 
d="M1069 1104q13 0 21.5 -8t8.5 -22v-293q0 -13 -8.5 -21.5t-21.5 -8.5h-636v-721q0 -14 -8.5 -22t-21.5 -8h-222q-13 0 -21.5 8t-8.5 22v920q0 14 8.5 22t21.5 8h636v94q0 14 8.5 22t21.5 8h222z" />
    <glyph glyph-name="Wgrave" unicode="&#x1e80;" 
d="M477 1534l-120 252q-7 16 0 25t24 9h198q23 0 34 -24l120 -252q7 -16 0 -25t-24 -9h-198q-23 0 -34 24zM1140 1400q27 0 24 -34l-140 -1342q-1 -11 -13 -17.5t-25 -6.5h-258q-31 0 -34 24l-79 663l-79 -663q-3 -24 -34 -24h-258q-13 0 -25 6.5t-13 17.5l-140 1342
q-3 34 24 34h209q31 0 34 -24l71 -990l120 990q3 24 34 24h114q31 0 34 -24l120 -990l71 990q3 24 34 24h209z" />
    <glyph glyph-name="wgrave" unicode="&#x1e81;" 
d="M475 1114l-120 252q-7 16 0 25t24 9h198q23 0 34 -24l120 -252q7 -16 0 -25t-24 -9h-198q-23 0 -34 24zM1140 980q30 0 24 -34l-167 -922q-1 -11 -12 -17.5t-24 -6.5h-210q-13 0 -24 6.5t-12 17.5l-101 571l-101 -571q-1 -11 -12 -17.5t-24 -6.5h-210q-13 0 -24 6.5
t-12 17.5l-167 922q-6 34 24 34h181q13 0 24 -6.5t12 -17.5l84 -627l121 627q6 24 36 24h136q30 0 36 -24l121 -627l84 627q1 11 12 17.5t24 6.5h181z" />
    <glyph glyph-name="Wacute" unicode="&#x1e82;" 
d="M523 1510q-17 0 -24 9t0 25l120 252q11 24 34 24h198q17 0 24 -9t0 -25l-120 -252q-11 -24 -34 -24h-198zM1140 1400q27 0 24 -34l-140 -1342q-1 -11 -13 -17.5t-25 -6.5h-258q-31 0 -34 24l-79 663l-79 -663q-3 -24 -34 -24h-258q-13 0 -25 6.5t-13 17.5l-140 1342
q-3 34 24 34h209q31 0 34 -24l71 -990l120 990q3 24 34 24h114q31 0 34 -24l120 -990l71 990q3 24 34 24h209z" />
    <glyph glyph-name="wacute" unicode="&#x1e83;" 
d="M521 1090q-17 0 -24 9t0 25l120 252q11 24 34 24h198q17 0 24 -9t0 -25l-120 -252q-11 -24 -34 -24h-198zM1140 980q30 0 24 -34l-167 -922q-1 -11 -12 -17.5t-24 -6.5h-210q-13 0 -24 6.5t-12 17.5l-101 571l-101 -571q-1 -11 -12 -17.5t-24 -6.5h-210q-13 0 -24 6.5
t-12 17.5l-167 922q-6 34 24 34h181q13 0 24 -6.5t12 -17.5l84 -627l121 627q6 24 36 24h136q30 0 36 -24l121 -627l84 627q1 11 12 17.5t24 6.5h181z" />
    <glyph glyph-name="Wdieresis" unicode="&#x1e84;" 
d="M393 1556q-58 0 -99 41.5t-41 101.5q0 59 41.5 100t98.5 41q58 0 99.5 -41t41.5 -100q0 -60 -41.5 -101.5t-99.5 -41.5zM836 1556q-58 0 -99 41.5t-41 101.5q0 59 41.5 100t98.5 41q58 0 99.5 -41t41.5 -100q0 -60 -41.5 -101.5t-99.5 -41.5zM1140 1400q27 0 24 -34
l-140 -1342q-1 -11 -13 -17.5t-25 -6.5h-258q-31 0 -34 24l-79 663l-79 -663q-3 -24 -34 -24h-258q-13 0 -25 6.5t-13 17.5l-140 1342q-3 34 24 34h209q31 0 34 -24l71 -990l120 990q3 24 34 24h114q31 0 34 -24l120 -990l71 990q3 24 34 24h209z" />
    <glyph glyph-name="wdieresis" unicode="&#x1e85;" 
d="M391 1136q-58 0 -99 41.5t-41 101.5q0 59 41.5 100t98.5 41q58 0 99.5 -41t41.5 -100q0 -60 -41.5 -101.5t-99.5 -41.5zM834 1136q-58 0 -99 41.5t-41 101.5q0 59 41.5 100t98.5 41q58 0 99.5 -41t41.5 -100q0 -60 -41.5 -101.5t-99.5 -41.5zM1140 980q30 0 24 -34
l-167 -922q-1 -11 -12 -17.5t-24 -6.5h-210q-13 0 -24 6.5t-12 17.5l-101 571l-101 -571q-1 -11 -12 -17.5t-24 -6.5h-210q-13 0 -24 6.5t-12 17.5l-167 922q-6 34 24 34h181q13 0 24 -6.5t12 -17.5l84 -627l121 627q6 24 36 24h136q30 0 36 -24l121 -627l84 627
q1 11 12 17.5t24 6.5h181z" />
    <glyph glyph-name="uni1E9E" unicode="&#x1e9e;" 
d="M767 824q206 -34 318.5 -143.5t112.5 -288.5q0 -196 -105 -307t-313 -111q-202 0 -287 93t-85 275q0 31 30 31h192q28 0 31 -29q13 -113 123 -113q121 0 121 157q0 222 -371 222q-30 0 -30 30v196l205 316h-209q-83 0 -114.5 -37.5t-31.5 -137.5v-947q0 -14 -8 -22
t-22 -8h-232q-14 0 -22 8t-8 22v968q0 229 96.5 320.5t320.5 91.5h628q18 0 23.5 -10.5t-4.5 -25.5z" />
    <glyph glyph-name="Ygrave" unicode="&#x1ef2;" 
d="M477 1534l-120 252q-7 16 0 25t24 9h198q23 0 34 -24l120 -252q7 -16 0 -25t-24 -9h-198q-23 0 -34 24zM1151 1400q18 0 23.5 -10t-3.5 -26l-410 -805v-529q0 -14 -8.5 -22t-21.5 -8h-232q-13 0 -21.5 8t-8.5 22v532l-410 802q-9 16 -3.5 26t23.5 10h245q27 0 36 -20
l255 -544l255 544q9 20 36 20h245z" />
    <glyph glyph-name="ygrave" unicode="&#x1ef3;" 
d="M381 1400h198q23 0 34 -24l120 -252q7 -16 0 -25t-24 -9h-198q-23 0 -34 24l-120 252q-7 16 0 25t24 9zM1110 980q36 0 24 -34l-513 -1302q-8 -24 -36 -24h-221q-17 0 -24 9t0 25l136 343l-379 949q-7 16 0 25t24 9h221q28 0 36 -24l237 -636l237 636q9 24 36 24h222z
" />
    <glyph glyph-name="endash" unicode="&#x2013;" 
d="M1085 667q13 0 21.5 -8.5t8.5 -21.5v-169q0 -14 -8.5 -22t-21.5 -8h-940q-13 0 -21.5 8t-8.5 22v169q0 13 8.5 21.5t21.5 8.5h940z" />
    <glyph glyph-name="emdash" unicode="&#x2014;" 
d="M1085 667q13 0 21.5 -8.5t8.5 -21.5v-169q0 -14 -8.5 -22t-21.5 -8h-940q-13 0 -21.5 8t-8.5 22v169q0 13 8.5 21.5t21.5 8.5h940z" />
    <glyph glyph-name="quoteleft" unicode="&#x2018;" 
d="M379 857q-13 0 -21.5 8.5t-8.5 21.5v98q0 135 23.5 264.5t57.5 220.5q8 22 34 22h134q32 0 26 -32q-15 -72 -21.5 -180.5t-4.5 -191.5h272q14 0 22 -8t8 -22v-171q0 -13 -8 -21.5t-22 -8.5h-491z" />
    <glyph glyph-name="quoteright" unicode="&#x2019;" 
d="M851 1402q13 0 21.5 -8t8.5 -22v-98q0 -135 -23.5 -264.5t-57.5 -220.5q-8 -22 -34 -22h-134q-32 0 -26 32q15 72 21.5 180.5t4.5 191.5h-272q-14 0 -22 8.5t-8 21.5v171q0 14 8 22t22 8h491z" />
    <glyph glyph-name="quotesinglbase" unicode="&#x201a;" 
d="M851 231q13 0 21.5 -8.5t8.5 -21.5v-98q0 -135 -23.5 -264.5t-57.5 -220.5q-8 -22 -34 -22h-134q-32 0 -26 32q15 72 21.5 180.5t4.5 191.5h-272q-14 0 -22 8t-8 22v171q0 13 8 21.5t22 8.5h491z" />
    <glyph glyph-name="quotedblleft" unicode="&#x201c;" 
d="M67 836q-27 0 -27 31v102q0 139 21.5 274t51.5 230q7 22 31 22h121q29 0 23 -33q-13 -75 -19 -187.5t-4 -198.5h246q12 0 19.5 -8.5t7.5 -22.5v-178q0 -14 -7.5 -22.5t-19.5 -8.5h-444zM717 836q-27 0 -27 31v102q0 139 21.5 274t51.5 230q7 22 31 22h121q29 0 23 -33
q-13 -75 -19 -187.5t-4 -198.5h246q12 0 19.5 -8.5t7.5 -22.5v-178q0 -14 -7.5 -22.5t-19.5 -8.5h-444z" />
    <glyph glyph-name="quotedblright" unicode="&#x201d;" 
d="M513 1401q27 0 27 -31v-102q0 -139 -21.5 -274t-51.5 -230q-7 -22 -31 -22h-121q-29 0 -23 33q13 75 19 187.5t4 198.5h-246q-12 0 -19.5 8.5t-7.5 22.5v178q0 14 7.5 22.5t19.5 8.5h444zM1163 1401q27 0 27 -31v-102q0 -139 -21.5 -274t-51.5 -230q-7 -22 -31 -22h-121
q-29 0 -23 33q13 75 19 187.5t4 198.5h-246q-12 0 -19.5 8.5t-7.5 22.5v178q0 14 7.5 22.5t19.5 8.5h444z" />
    <glyph glyph-name="quotedblbase" unicode="&#x201e;" 
d="M513 240q27 0 27 -31v-102q0 -139 -21.5 -274t-51.5 -230q-7 -22 -31 -22h-121q-29 0 -23 33q13 75 19 187.5t4 198.5h-246q-12 0 -19.5 8.5t-7.5 22.5v178q0 14 7.5 22.5t19.5 8.5h444zM1163 240q27 0 27 -31v-102q0 -139 -21.5 -274t-51.5 -230q-7 -22 -31 -22h-121
q-29 0 -23 33q13 75 19 187.5t4 198.5h-246q-12 0 -19.5 8.5t-7.5 22.5v178q0 14 7.5 22.5t19.5 8.5h444z" />
    <glyph glyph-name="dagger" unicode="&#x2020;" 
d="M1030 1147q14 0 22 -8.5t8 -21.5v-147q0 -14 -8 -22t-22 -8h-311v-312q0 -14 -8.5 -22t-21.5 -8h-148q-13 0 -21.5 8t-8.5 22v312h-311q-14 0 -22 8t-8 22v147q0 13 8 21.5t22 8.5h311v311q0 14 8.5 22t21.5 8h148q13 0 21.5 -8t8.5 -22v-311h311z" />
    <glyph glyph-name="daggerdbl" unicode="&#x2021;" 
d="M719 319h311q14 0 22 -8.5t8 -21.5v-147q0 -14 -8 -22t-22 -8h-311v-312q0 -14 -8.5 -22t-21.5 -8h-148q-13 0 -21.5 8t-8.5 22v312h-311q-14 0 -22 8t-8 22v147q0 13 8 21.5t22 8.5h311v621h-311q-14 0 -22 8t-8 22v147q0 13 8 21.5t22 8.5h311v311q0 14 8.5 22t21.5 8
h148q13 0 21.5 -8t8.5 -22v-311h311q14 0 22 -8.5t8 -21.5v-147q0 -14 -8 -22t-22 -8h-311v-621z" />
    <glyph glyph-name="bullet" unicode="&#x2022;" 
d="M615 276q-113 0 -193.5 80.5t-80.5 193.5t80.5 194t193.5 81t193.5 -81t80.5 -194t-80.5 -193.5t-193.5 -80.5z" />
    <glyph glyph-name="ellipsis" unicode="&#x2026;" 
d="M188 -28q-70 0 -120 50t-50 120t50 119.5t120 49.5t120 -49.5t50 -119.5t-50 -120t-120 -50zM613 -28q-71 0 -120.5 50t-49.5 120t50 119.5t120 49.5t120 -49.5t50 -119.5t-49.5 -120t-120.5 -50zM1041 -28q-71 0 -120.5 50t-49.5 120t50 119.5t120 49.5t120 -49.5
t50 -119.5t-49.5 -120t-120.5 -50z" />
    <glyph glyph-name="perthousand" unicode="&#x2030;" 
d="M234 1410q106 0 160 -71.5t54 -209.5t-54 -210.5t-160 -72.5q-211 0 -211 283q0 281 211 281zM794 1161q22 -16 6 -42l-629 -947q-15 -23 -38 -6l-95 75q-21 18 -6 42l629 947q16 25 38 6zM234 1230q-28 0 -37 -24t-9 -77t9 -78t37 -25q30 0 39.5 25t9.5 78t-9.5 77
t-39.5 24zM856 554q106 0 160 -71.5t54 -209.5t-54 -210.5t-160 -72.5q-82 0 -131 42q-46 -42 -129 -42q-107 0 -160.5 72.5t-53.5 210.5q0 281 214 281q81 0 129 -39q51 39 131 39zM596 170q29 0 38.5 25.5t9.5 77.5t-9.5 76.5t-38.5 24.5t-39 -24.5t-10 -76.5t10 -77.5
t39 -25.5zM856 170q30 0 39 24.5t9 78.5t-9 77.5t-39 23.5q-29 0 -37.5 -24t-8.5 -77q0 -54 8.5 -78.5t37.5 -24.5z" />
    <glyph glyph-name="guilsinglleft" unicode="&#x2039;" 
d="M882 944l-256 -382l256 -382q10 -16 4 -26t-24 -10h-225q-25 0 -36 20l-254 378q-14 20 0 40l254 378q11 20 36 20h225q18 0 24 -10t-4 -26z" />
    <glyph glyph-name="guilsinglright" unicode="&#x203a;" 
d="M348 944q-10 16 -4 26t24 10h225q25 0 36 -20l254 -378q14 -20 0 -40l-254 -378q-11 -20 -36 -20h-225q-18 0 -24 10t4 26l256 382z" />
    <glyph glyph-name="fraction" unicode="&#x2044;" 
d="M1094 1400q17 0 23.5 -10t-1.5 -26l-702 -1340q-12 -24 -36 -24h-240q-18 0 -25 9t1 25l707 1344q13 22 33 22h240z" />
    <glyph glyph-name="Euro" unicode="&#x20ac;" 
d="M1121 454q28 0 28 -32q-15 -243 -132.5 -347.5t-356.5 -104.5q-114 0 -196 24t-142 79t-94 145t-47 221h-109q-14 0 -22 8.5t-8 21.5v147q0 14 8 22t22 8h100v82h-100q-14 0 -22 8t-8 22v147q0 13 8 21.5t22 8.5h107q24 267 136.5 376t344.5 109q239 0 356.5 -104.5
t132.5 -347.5q0 -32 -28 -32h-199q-29 0 -33 26q-15 105 -64 140.5t-154 35.5q-96 0 -148 -42t-71 -161h234q14 0 22 -8.5t8 -21.5v-147q0 -14 -8 -22t-22 -8h-246v-82h246q14 0 22 -8t8 -22v-147q0 -13 -8 -21.5t-22 -8.5h-231q20 -109 72 -148.5t144 -39.5q111 0 157 35
t61 142q4 26 33 26h199z" />
    <glyph glyph-name="uni2116" unicode="&#x2116;" 
d="M952 1410q126 0 193 -85t67 -254q0 -170 -67 -255t-193 -85t-192.5 85.5t-66.5 254.5t67 254t192 85zM610 1400q14 0 22 -8t8 -22v-1340q0 -14 -8 -22t-22 -8h-218q-35 0 -36 20l-126 850l12 -238v-602q0 -14 -8 -22t-22 -8h-163q-14 0 -22.5 8.5t-8.5 21.5v1340
q0 13 8.5 21.5t22.5 8.5h217q35 0 36 -20l127 -824l-13 281v533q0 14 8 22t22 8h164zM951 921q43 0 64 35t21 115q0 151 -85 151q-42 0 -62.5 -35.5t-20.5 -115.5t20.5 -115t62.5 -35zM1179 646q13 0 21.5 -8t8.5 -22v-169q0 -13 -8.5 -21.5t-21.5 -8.5h-453q-14 0 -22 8.5
t-8 21.5v169q0 14 8 22t22 8h453z" />
    <glyph glyph-name="trademark" unicode="&#x2122;" 
d="M525 1400q10 0 10 -10v-78q0 -10 -10 -10h-132v-392q0 -10 -10 -10h-88q-10 0 -10 10v392h-131q-10 0 -10 10v78q0 10 10 10h371zM1076 1400q10 0 10 -10v-480q0 -10 -10 -10h-77q-10 0 -10 10v307l-88 -311q-3 -6 -12 -6h-77q-5 0 -8 6l-92 311v-307q0 -10 -10 -10h-77
q-10 0 -10 10v480q0 10 10 10h107q9 0 12 -6l106 -350l108 350q3 6 12 6h106z" />
    <glyph glyph-name="oneeighth" unicode="&#x215b;" 
d="M193 798q-13 0 -21.5 6.5t-8.5 17.5v139q0 24 30 24h321v397q-110 -90 -298 -90q-30 0 -30 23v156q0 26 30 26q162 0 298 103h252q13 0 21.5 -6.5t8.5 -17.5v-591h237q30 0 30 -24v-139q0 -11 -8.5 -17.5t-21.5 -6.5h-840zM1185 707q13 0 21.5 -8.5t8.5 -21.5v-130
q0 -13 -8.5 -21.5t-21.5 -8.5h-1140q-13 0 -21.5 8.5t-8.5 21.5v130q0 13 8.5 21.5t21.5 8.5h1140zM919 65q113 -36 161.5 -83.5t48.5 -127.5q0 -244 -523 -244t-523 244q0 80 48.5 127.5t161.5 83.5q-60 13 -98.5 58.5t-38.5 101.5q0 99 111.5 157t338.5 58t338.5 -58
t111.5 -157q0 -56 -38.5 -101.5t-98.5 -58.5zM606 255q-114 0 -154 -16.5t-40 -50.5q0 -22 14 -35t57.5 -21.5t122.5 -8.5t122.5 8.5t57.5 21.5t14 35q0 34 -40 50.5t-154 16.5zM606 -193q136 0 192.5 17.5t56.5 54.5q0 42 -55 59t-194 17t-194 -17t-55 -59
q0 -37 56.5 -54.5t192.5 -17.5z" />
    <glyph glyph-name="threeeighths" unicode="&#x215c;" 
d="M902 1211q121 -25 178.5 -69.5t57.5 -123.5q0 -240 -525 -240q-101 0 -176 5.5t-143 21t-110.5 42t-67.5 69.5t-25 102q0 24 28 26l211 20q30 3 35 -23q6 -41 63 -56t177 -15q121 0 175 17.5t54 55.5q0 28 -23.5 45.5t-95 28.5t-197.5 11q-30 0 -30 25v89q0 24 32 24
q101 0 158.5 2.5t92.5 11t46 21.5t11 36q0 79 -215 79q-49 0 -85 -3.5t-71 -13.5t-55 -29.5t-24 -49.5q-3 -25 -35 -23l-211 19q-28 3 -28 26q0 74 37 127t107 83t161 43.5t210 13.5q219 0 351 -56.5t132 -171.5q0 -66 -50 -110.5t-150 -59.5zM1185 707q13 0 21.5 -8.5
t8.5 -21.5v-130q0 -13 -8.5 -21.5t-21.5 -8.5h-1140q-13 0 -21.5 8.5t-8.5 21.5v130q0 13 8.5 21.5t21.5 8.5h1140zM919 65q113 -36 161.5 -83.5t48.5 -127.5q0 -244 -523 -244t-523 244q0 80 48.5 127.5t161.5 83.5q-60 13 -98.5 58.5t-38.5 101.5q0 99 111.5 157t338.5 58
t338.5 -58t111.5 -157q0 -56 -38.5 -101.5t-98.5 -58.5zM412 188q0 -22 14 -35t57.5 -21.5t122.5 -8.5t122.5 8.5t57.5 21.5t14 35q0 34 -40 50.5t-154 16.5t-154 -16.5t-40 -50.5zM606 -193q136 0 192.5 17.5t56.5 54.5q0 42 -55 59t-194 17t-194 -17t-55 -59
q0 -37 56.5 -54.5t192.5 -17.5z" />
    <glyph glyph-name="fiveeighths" unicode="&#x215d;" 
d="M328 1071q30 0 41 -21q42 -80 233 -80q271 0 271 105q0 111 -271 111q-146 0 -228 -48q-20 -12 -39 -8l-181 44q-23 6 -15 27l120 377q6 21 32 21h689q13 0 21.5 -6.5t8.5 -17.5v-125q0 -24 -30 -24h-523l-40 -106q112 27 229 27q238 0 359 -65.5t121 -206.5
q0 -144 -128.5 -213.5t-391.5 -69.5q-107 0 -190.5 12.5t-152 41t-108.5 79t-49 122.5q-1 12 6.5 18t21.5 6h194zM1185 707q13 0 21.5 -8.5t8.5 -21.5v-130q0 -13 -8.5 -21.5t-21.5 -8.5h-1140q-13 0 -21.5 8.5t-8.5 21.5v130q0 13 8.5 21.5t21.5 8.5h1140zM928 65
q113 -36 161.5 -83.5t48.5 -127.5q0 -244 -523 -244t-523 244q0 80 48.5 127.5t161.5 83.5q-60 13 -98.5 58.5t-38.5 101.5q0 99 111.5 157t338.5 58t338.5 -58t111.5 -157q0 -56 -38.5 -101.5t-98.5 -58.5zM421 188q0 -22 14 -35t57.5 -21.5t122.5 -8.5t122.5 8.5
t57.5 21.5t14 35q0 34 -40 50.5t-154 16.5t-154 -16.5t-40 -50.5zM615 -193q136 0 192.5 17.5t56.5 54.5q0 42 -55 59t-194 17t-194 -17t-55 -59q0 -37 56.5 -54.5t192.5 -17.5z" />
    <glyph glyph-name="seveneighths" unicode="&#x215e;" 
d="M164 1405q-30 0 -30 25v145q0 11 8.5 17.5t21.5 6.5h902q13 0 21.5 -6.5t8.5 -17.5v-154q0 -23 -8 -31l-538 -567q-2 -2 -7 -8t-7.5 -8t-6.5 -5t-8 -4t-9 -1h-249q-15 0 -23 7.5t1 18.5l553 582h-630zM1185 707q13 0 21.5 -8.5t8.5 -21.5v-130q0 -13 -8.5 -21.5
t-21.5 -8.5h-1140q-13 0 -21.5 8.5t-8.5 21.5v130q0 13 8.5 21.5t21.5 8.5h1140zM928 65q113 -36 161.5 -83.5t48.5 -127.5q0 -244 -523 -244t-523 244q0 80 48.5 127.5t161.5 83.5q-60 13 -98.5 58.5t-38.5 101.5q0 99 111.5 157t338.5 58t338.5 -58t111.5 -157
q0 -56 -38.5 -101.5t-98.5 -58.5zM615 255q-114 0 -154 -16.5t-40 -50.5q0 -22 14 -35t57.5 -21.5t122.5 -8.5t122.5 8.5t57.5 21.5t14 35q0 34 -40 50.5t-154 16.5zM615 -193q136 0 192.5 17.5t56.5 54.5q0 42 -55 59t-194 17t-194 -17t-55 -59q0 -37 56.5 -54.5
t192.5 -17.5z" />
    <glyph glyph-name="partialdiff" unicode="&#x2202;" 
d="M604 881q71 0 153 -23t107 -59v131q0 137 -57 187t-179 50q-174 0 -212 -116q-9 -31 -34 -28l-190 13q-30 3 -30 34q0 163 119 254.5t336 91.5q258 0 390 -116t131 -374l-2 -497q-2 -210 -131.5 -331.5t-379.5 -121.5q-252 0 -382.5 122.5t-130.5 336.5q0 204 127.5 325
t364.5 121zM625 216q119 0 179 52.5t60 166.5q0 107 -61.5 162t-177.5 55t-177.5 -55t-61.5 -162q0 -114 60 -166.5t179 -52.5z" />
    <glyph glyph-name="product" unicode="&#x220f;" 
d="M111 1570q0 14 8.5 22t21.5 8h948q13 0 21.5 -8t8.5 -22v-1920q0 -14 -8.5 -22t-21.5 -8h-199q-14 0 -22 8t-8 22v1692h-490v-1692q0 -14 -8 -22t-22 -8h-199q-13 0 -21.5 8t-8.5 22v1920z" />
    <glyph glyph-name="summation" unicode="&#x2211;" 
d="M1085 1600q13 0 21.5 -8t8.5 -22v-201q0 -13 -8.5 -21.5t-21.5 -8.5h-639l536 -707q17 -22 0 -44l-536 -707h639q13 0 21.5 -8.5t8.5 -21.5v-201q0 -14 -8.5 -22t-21.5 -8h-940q-13 0 -21.5 8t-8.5 22v211q0 18 12 36l538 713l-538 713q-12 18 -12 36v211q0 14 8.5 22
t21.5 8h940z" />
    <glyph glyph-name="minus" unicode="&#x2212;" 
d="M1030 674q14 0 22 -8t8 -22v-147q0 -13 -8 -21.5t-22 -8.5h-830q-14 0 -22 8.5t-8 21.5v147q0 14 8 22t22 8h830z" />
    <glyph glyph-name="radical" unicode="&#x221a;" 
d="M1160 1600q32 0 26 -34l-383 -1920q-7 -26 -32 -26h-238q-30 0 -34 24l-220 847h-205q-14 0 -22 8.5t-8 21.5v201q0 14 8 22t22 8h351q28 0 34 -26l188 -802l307 1650q6 26 32 26h174z" />
    <glyph glyph-name="infinity" unicode="&#x221e;" 
d="M914 857q136 0 203.5 -89.5t67.5 -243.5q0 -158 -67.5 -248.5t-203.5 -90.5q-65 0 -121 29t-93 69t-85 108q-72 -103 -138 -154.5t-159 -51.5q-138 0 -205.5 90t-67.5 249q0 154 68 243.5t205 89.5q93 0 159 -51.5t138 -154.5q48 68 85 108t93 69t121 29zM350 375
q38 0 73 31.5t101 115.5q-67 83 -101.5 114t-72.5 31q-63 0 -86 -39.5t-23 -105.5q0 -69 23 -108t86 -39zM880 375q63 0 86 39t23 108q0 66 -23 105.5t-86 39.5q-38 0 -72.5 -31t-101.5 -114q66 -84 101 -115.5t73 -31.5z" />
    <glyph glyph-name="integral" unicode="&#x222b;" 
d="M887 1472q102 0 191 -17t89 -49v-158q0 -15 -10 -23t-26 -5q-96 16 -177 16q-89 0 -143 -48t-54 -157v-1020q0 -90 -22.5 -160t-61 -115t-92.5 -73.5t-112 -40.5t-126 -12q-102 0 -191 17t-89 49v158q0 15 10 23t26 5q96 -16 177 -16q90 0 144.5 48t54.5 157v1020
q0 111 33.5 192t93.5 125t130 64t155 20z" />
    <glyph glyph-name="approxequal" unicode="&#x2248;" 
d="M428 922q54 0 101.5 -17.5t82.5 -43t67.5 -51t69.5 -43t75 -17.5q80 0 119 70q9 18 24 18h88q22 0 22 -22q1 -113 -75.5 -176t-192.5 -63q-56 0 -105 17.5t-84.5 43t-68 51t-69 43t-74.5 17.5q-85 0 -119 -70q-9 -18 -26 -18h-88q-11 0 -17 8t-5 20q13 113 86.5 173
t188.5 60zM428 516q54 0 101.5 -17.5t82.5 -43t67.5 -51t69.5 -43t75 -17.5q80 0 119 70q9 18 24 18h88q22 0 22 -22q1 -113 -75.5 -176t-192.5 -63q-56 0 -105 17.5t-84.5 43t-68 51t-69 43t-74.5 17.5q-85 0 -119 -70q-9 -18 -26 -18h-88q-11 0 -17 8t-5 20
q13 113 86.5 173t188.5 60z" />
    <glyph glyph-name="notequal" unicode="&#x2260;" 
d="M1030 672h-253l-79 -203h332q14 0 22 -8.5t8 -21.5v-148q0 -13 -8 -21.5t-22 -8.5h-412l-92 -237q-9 -24 -36 -24h-172q-36 0 -24 34l88 227h-182q-14 0 -22 8.5t-8 21.5v148q0 13 8 21.5t22 8.5h262l79 203h-341q-14 0 -22 8t-8 22v147q0 13 8 21.5t22 8.5h421l85 219
q9 24 36 24h172q36 0 24 -34l-81 -209h173q14 0 22 -8.5t8 -21.5v-147q0 -14 -8 -22t-22 -8z" />
    <glyph glyph-name="lessequal" unicode="&#x2264;" 
d="M1022 993q7 -11 2.5 -22t-17.5 -16l-508 -184l508 -186q29 -11 15 -36l-72 -126q-12 -23 -44 -11l-691 260q-24 10 -24 31v136q0 21 24 31l691 260q32 12 44 -11zM1030 207q14 0 22 -8.5t8 -21.5v-147q0 -14 -8 -22t-22 -8h-830q-14 0 -22 8t-8 22v147q0 13 8 21.5
t22 8.5h830z" />
    <glyph glyph-name="greaterequal" unicode="&#x2265;" 
d="M208 993l72 126q12 23 44 11l691 -260q24 -10 24 -31v-136q0 -21 -24 -31l-691 -260q-32 -12 -44 11l-72 126q-14 25 15 36l508 186l-508 184q-13 5 -17.5 16t2.5 22zM200 207h830q14 0 22 -8.5t8 -21.5v-147q0 -14 -8 -22t-22 -8h-830q-14 0 -22 8t-8 22v147
q0 13 8 21.5t22 8.5z" />
    <glyph glyph-name="lozenge" unicode="&#x25ca;" 
d="M761 1400q23 0 34 -22l319 -658q10 -20 0 -40l-319 -658q-11 -22 -34 -22h-292q-23 0 -34 22l-319 658q-10 20 0 40l319 658q11 22 34 22h292zM615 228l223 472l-223 472l-223 -472z" />
    <glyph glyph-name="i.loclTRK" 
d="M615 1126q-58 0 -99.5 41.5t-41.5 101.5q0 59 41.5 100t99.5 41t99.5 -41t41.5 -100q0 -60 -41.5 -101.5t-99.5 -41.5zM1056 229q14 0 22 -8.5t8 -21.5v-169q0 -14 -8 -22t-22 -8h-872q-14 0 -22 8t-8 22v169q0 13 8 21.5t22 8.5h321v522h-271q-14 0 -22 8.5t-8 21.5v169
q0 14 8 22t22 8h523q13 0 21.5 -8t8.5 -22v-721h269z" />
    <glyph glyph-name="g.ss01" 
d="M1127 980q13 0 21.5 -8t8.5 -22v-126q0 -31 -30 -28l-124 8q50 -77 50 -159q0 -310 -389 -310h-252q-43 0 -67.5 -21.5t-24.5 -55.5q0 -80 133 -80h363q301 0 301 -267q0 -169 -115 -237t-400 -68q-282 0 -403 63.5t-121 208.5q0 83 44 138.5t119 69.5q-139 33 -139 161
q0 68 33.5 107.5t116.5 59.5q-123 73 -123 254q0 104 42 170.5t145.5 104t274.5 37.5h536zM591 526q129 0 174 29t45 98t-44.5 97.5t-174.5 28.5t-174.5 -28.5t-44.5 -97.5t45 -98t174 -29zM732 -19h-374q-22 -25 -22 -70q0 -60 57.5 -83t208.5 -23q148 0 204.5 22.5
t56.5 81.5q0 40 -26.5 56t-104.5 16z" />
    <glyph glyph-name="gbreve.ss01" 
d="M770 1387q7 30 32 30h120q33 0 30 -32q-13 -126 -102 -209t-235 -83t-235 83t-102 209q-3 32 30 32h120q25 0 32 -30q10 -47 51 -82t104 -35t104 35t51 82zM1127 980q13 0 21.5 -8t8.5 -22v-126q0 -31 -30 -28l-124 8q50 -77 50 -159q0 -310 -389 -310h-252
q-43 0 -67.5 -21.5t-24.5 -55.5q0 -80 133 -80h363q301 0 301 -267q0 -169 -115 -237t-400 -68q-282 0 -403 63.5t-121 208.5q0 83 44 138.5t119 69.5q-139 33 -139 161q0 68 33.5 107.5t116.5 59.5q-123 73 -123 254q0 104 42 170.5t145.5 104t274.5 37.5h536zM591 526
q129 0 174 29t45 98t-44.5 97.5t-174.5 28.5t-174.5 -28.5t-44.5 -97.5t45 -98t174 -29zM732 -19h-374q-22 -25 -22 -70q0 -60 57.5 -83t208.5 -23q148 0 204.5 22.5t56.5 81.5q0 40 -26.5 56t-104.5 16z" />
    <glyph glyph-name="gcommaaccent.ss01" 
d="M404 1217q-27 0 -27 27v88q0 121 21.5 238t51.5 200q7 20 31 20h121q29 0 23 -29q-13 -65 -19 -163t-4 -173h245q12 0 19.5 -7.5t7.5 -19.5v-154q0 -27 -27 -27h-443zM1127 980q13 0 21.5 -8t8.5 -22v-126q0 -31 -30 -28l-124 8q50 -77 50 -159q0 -310 -389 -310h-252
q-43 0 -67.5 -21.5t-24.5 -55.5q0 -80 133 -80h363q301 0 301 -267q0 -169 -115 -237t-400 -68q-282 0 -403 63.5t-121 208.5q0 83 44 138.5t119 69.5q-139 33 -139 161q0 68 33.5 107.5t116.5 59.5q-123 73 -123 254q0 104 42 170.5t145.5 104t274.5 37.5h536zM591 526
q129 0 174 29t45 98t-44.5 97.5t-174.5 28.5t-174.5 -28.5t-44.5 -97.5t45 -98t174 -29zM732 -19h-374q-22 -25 -22 -70q0 -60 57.5 -83t208.5 -23q148 0 204.5 22.5t56.5 81.5q0 40 -26.5 56t-104.5 16z" />
    <glyph glyph-name="gdotaccent.ss01" 
d="M615 1126q-58 0 -99.5 41.5t-41.5 101.5q0 59 41.5 100t99.5 41t99.5 -41t41.5 -100q0 -60 -41.5 -101.5t-99.5 -41.5zM1127 980q13 0 21.5 -8t8.5 -22v-126q0 -31 -30 -28l-124 8q50 -77 50 -159q0 -310 -389 -310h-252q-43 0 -67.5 -21.5t-24.5 -55.5q0 -80 133 -80
h363q301 0 301 -267q0 -169 -115 -237t-400 -68q-282 0 -403 63.5t-121 208.5q0 83 44 138.5t119 69.5q-139 33 -139 161q0 68 33.5 107.5t116.5 59.5q-123 73 -123 254q0 104 42 170.5t145.5 104t274.5 37.5h536zM591 526q129 0 174 29t45 98t-44.5 97.5t-174.5 28.5
t-174.5 -28.5t-44.5 -97.5t45 -98t174 -29zM732 -19h-374q-22 -25 -22 -70q0 -60 57.5 -83t208.5 -23q148 0 204.5 22.5t56.5 81.5q0 40 -26.5 56t-104.5 16z" />
    <glyph glyph-name="zero.dnom" 
d="M615 992q274 0 392.5 -118t118.5 -372v-36q0 -255 -118.5 -373.5t-392.5 -118.5t-392.5 118.5t-118.5 373.5v36q0 254 118.5 372t392.5 118zM615 744q-146 0 -203.5 -52.5t-57.5 -170.5v-76q0 -118 57.5 -170.5t203.5 -52.5t203.5 52.5t57.5 170.5v76q0 118 -57.5 170.5
t-203.5 52.5z" />
    <glyph glyph-name="one.dnom" 
d="M1035 229q13 0 21.5 -8.5t8.5 -21.5v-169q0 -14 -8.5 -22t-21.5 -8h-840q-13 0 -21.5 8t-8.5 22v169q0 13 8.5 21.5t21.5 8.5h321v485q-109 -110 -298 -110q-30 0 -30 28v190q0 32 30 32q163 0 298 126h252q14 0 22 -8t8 -22v-721h237z" />
    <glyph glyph-name="two.dnom" 
d="M1058 220q14 0 22 -8t8 -22v-160q0 -14 -8 -22t-22 -8h-908q-14 0 -22 8t-8 22v95q0 80 29.5 142t78.5 99.5t111 67t127 46t127 34t111 33.5t78.5 42.5t29.5 61.5q0 97 -196 97q-113 0 -172.5 -31t-70.5 -113q-3 -31 -34 -28l-201 23q-28 3 -28 32q0 121 64 203t173 119
t257 37q213 0 346.5 -90.5t133.5 -248.5q0 -69 -34.5 -121t-89.5 -83t-121.5 -54t-133 -39.5t-121.5 -33t-89.5 -41.5t-34.5 -59h598z" />
    <glyph glyph-name="three.dnom" 
d="M913 503q121 -30 178.5 -84.5t57.5 -150.5q0 -294 -525 -294q-101 0 -176 7t-143 26t-110.5 51t-67.5 85t-25 125q0 29 28 32l211 24q30 3 35 -28q6 -50 63 -68.5t177 -18.5t174.5 21t54.5 68q0 34 -23.5 55.5t-95 35t-197.5 13.5q-30 0 -30 30v109q0 29 32 29
q134 0 197.5 7.5t87 25t23.5 54.5q0 97 -215 97q-49 0 -85 -4.5t-71 -16.5t-55 -36t-24 -60q-3 -31 -35 -28l-211 23q-28 3 -28 32q0 90 37 154.5t107 101.5t161 53.5t210 16.5q142 0 248 -28t170.5 -92t64.5 -159q0 -80 -50 -134.5t-150 -73.5z" />
    <glyph glyph-name="four.dnom" 
d="M961 980q13 0 21.5 -8t8.5 -22v-428h138q13 0 21.5 -8t8.5 -22v-169q0 -13 -8.5 -21.5t-21.5 -8.5h-138v-263q0 -14 -8.5 -22t-21.5 -8h-222q-13 0 -21.5 8t-8.5 22v263h-598q-13 0 -21.5 8.5t-8.5 21.5v627q0 14 8.5 22t21.5 8h222q13 0 21.5 -8t8.5 -22v-428h346v428
q0 14 8.5 22t21.5 8h222z" />
    <glyph glyph-name="five.dnom" 
d="M340 335q29 0 41 -26q24 -56 83 -76.5t150 -20.5q271 0 271 128q0 69 -66 102t-205 33q-146 0 -228 -58q-20 -15 -39 -10l-181 54q-23 8 -15 33l120 460q7 26 32 26h689q14 0 22 -8t8 -22v-152q0 -14 -8 -22t-22 -8h-523l-40 -129q118 33 229 33q238 0 359 -80t121 -252
q0 -176 -128.5 -261t-391.5 -85q-107 0 -190.5 15.5t-152 50t-108.5 96t-49 149.5q-3 30 28 30h194z" />
    <glyph glyph-name="six.dnom" 
d="M646 599q256 0 374 -76t118 -231q0 -156 -122.5 -237t-390.5 -81q-265 0 -387 79.5t-124 231.5l-2 330q-1 190 133 282.5t388 92.5q230 0 353.5 -75.5t123.5 -204.5q0 -14 -7 -18t-23 -6l-190 -12q-16 -2 -22 0.5t-12 16.5q-22 49 -79 64.5t-155 15.5q-236 0 -236 -152
v-70q35 23 112 36.5t148 13.5zM625 203q133 0 186 21t53 77t-53 77.5t-186 21.5q-135 0 -187 -21t-52 -79q0 -56 52.5 -76.5t186.5 -20.5z" />
    <glyph glyph-name="seven.dnom" 
d="M1106 763q0 -28 -8 -38l-538 -693q-3 -3 -7.5 -10t-7 -9.5t-6.5 -6t-8 -5t-9 -1.5h-249q-15 0 -23 9t1 23l553 711h-630q-14 0 -22 8.5t-8 21.5v177q0 14 8 22t22 8h902q14 0 22 -8t8 -22v-187z" />
    <glyph glyph-name="eight.dnom" 
d="M928 531q113 -44 161.5 -101.5t48.5 -155.5q0 -298 -523 -298t-523 298q0 98 48.5 155.5t161.5 101.5q-60 16 -98.5 72t-38.5 124q0 121 111.5 192t338.5 71t338.5 -71t111.5 -192q0 -68 -38.5 -124t-98.5 -72zM421 682q0 -41 40 -60.5t154 -19.5t154 19.5t40 60.5
t-40 61t-154 20t-154 -20t-40 -61zM615 216q136 0 192.5 21t56.5 67q0 52 -55 72.5t-194 20.5t-194 -20.5t-55 -72.5q0 -46 56.5 -67t192.5 -21z" />
    <glyph glyph-name="nine.dnom" 
d="M584 364q-255 0 -373.5 76.5t-118.5 231.5q0 156 122.5 237t390.5 81q265 0 387 -79.5t124 -231.5l2 -330q1 -190 -133 -282.5t-388 -92.5q-244 0 -370.5 75t-126.5 205q0 23 30 23l190 13q9 1 15 0.5t10.5 -4t8.5 -13.5q22 -50 81 -65t173 -15q236 0 236 152v70
q-35 -23 -112.5 -37t-147.5 -14zM605 761q-133 0 -186 -21t-53 -77q0 -57 53 -78.5t186 -21.5q135 0 187 21.5t52 79.5q0 55 -53 76t-186 21z" />
    <glyph glyph-name="zero.numr" 
d="M615 1201q274 0 392.5 -118t118.5 -372v-36q0 -255 -118.5 -373.5t-392.5 -118.5t-392.5 118.5t-118.5 373.5v36q0 254 118.5 372t392.5 118zM615 953q-146 0 -203.5 -52.5t-57.5 -170.5v-76q0 -118 57.5 -170.5t203.5 -52.5t203.5 52.5t57.5 170.5v76q0 118 -57.5 170.5
t-203.5 52.5z" />
    <glyph glyph-name="one.numr" 
d="M1035 439q13 0 21.5 -8.5t8.5 -21.5v-169q0 -14 -8.5 -22t-21.5 -8h-840q-13 0 -21.5 8t-8.5 22v169q0 13 8.5 21.5t21.5 8.5h321v485q-109 -110 -298 -110q-30 0 -30 28v190q0 32 30 32q163 0 298 126h252q14 0 22 -8t8 -22v-721h237z" />
    <glyph glyph-name="two.numr" 
d="M1058 430q14 0 22 -8t8 -22v-160q0 -14 -8 -22t-22 -8h-908q-14 0 -22 8t-8 22v95q0 80 29.5 142t78.5 99.5t111 67t127 46t127 34t111 33.5t78.5 42.5t29.5 61.5q0 97 -196 97q-113 0 -172.5 -31t-70.5 -113q-3 -31 -34 -28l-201 23q-28 3 -28 32q0 121 64 203t173 119
t257 37q213 0 346.5 -90.5t133.5 -248.5q0 -69 -34.5 -121t-89.5 -83t-121.5 -54t-133 -39.5t-121.5 -33t-89.5 -41.5t-34.5 -59h598z" />
    <glyph glyph-name="three.numr" 
d="M913 713q121 -30 178.5 -84.5t57.5 -150.5q0 -294 -525 -294q-101 0 -176 7t-143 26t-110.5 51t-67.5 85t-25 125q0 29 28 32l211 24q30 3 35 -28q6 -50 63 -68.5t177 -18.5t174.5 21t54.5 68q0 34 -23.5 55.5t-95 35t-197.5 13.5q-30 0 -30 30v109q0 29 32 29
q134 0 197.5 7.5t87 25t23.5 54.5q0 97 -215 97q-49 0 -85 -4.5t-71 -16.5t-55 -36t-24 -60q-3 -31 -35 -28l-211 23q-28 3 -28 32q0 90 37 154.5t107 101.5t161 53.5t210 16.5q142 0 248 -28t170.5 -92t64.5 -159q0 -80 -50 -134.5t-150 -73.5z" />
    <glyph glyph-name="four.numr" 
d="M961 1190q13 0 21.5 -8t8.5 -22v-428h138q13 0 21.5 -8t8.5 -22v-169q0 -13 -8.5 -21.5t-21.5 -8.5h-138v-263q0 -14 -8.5 -22t-21.5 -8h-222q-13 0 -21.5 8t-8.5 22v263h-598q-13 0 -21.5 8.5t-8.5 21.5v627q0 14 8.5 22t21.5 8h222q13 0 21.5 -8t8.5 -22v-428h346v428
q0 14 8.5 22t21.5 8h222z" />
    <glyph glyph-name="five.numr" 
d="M340 545q29 0 41 -26q24 -56 83 -76.5t150 -20.5q271 0 271 128q0 69 -66 102t-205 33q-146 0 -228 -58q-20 -15 -39 -10l-181 54q-23 8 -15 33l120 460q7 26 32 26h689q14 0 22 -8t8 -22v-152q0 -14 -8 -22t-22 -8h-523l-40 -129q118 33 229 33q238 0 359 -80t121 -252
q0 -176 -128.5 -261t-391.5 -85q-107 0 -190.5 15.5t-152 50t-108.5 96t-49 149.5q-3 30 28 30h194z" />
    <glyph glyph-name="six.numr" 
d="M646 809q256 0 374 -76t118 -231q0 -156 -122.5 -237t-390.5 -81q-265 0 -387 79.5t-124 231.5l-2 330q-1 190 133 282.5t388 92.5q230 0 353.5 -75.5t123.5 -204.5q0 -14 -7 -18t-23 -6l-190 -12q-16 -2 -22 0.5t-12 16.5q-22 49 -79 64.5t-155 15.5q-236 0 -236 -152
v-70q35 23 112 36.5t148 13.5zM625 413q133 0 186 21t53 77t-53 77.5t-186 21.5q-135 0 -187 -21t-52 -79q0 -56 52.5 -76.5t186.5 -20.5z" />
    <glyph glyph-name="seven.numr" 
d="M1106 973q0 -28 -8 -38l-538 -693q-3 -3 -7.5 -10t-7 -9.5t-6.5 -6t-8 -5t-9 -1.5h-249q-15 0 -23 9t1 23l553 711h-630q-14 0 -22 8.5t-8 21.5v177q0 14 8 22t22 8h902q14 0 22 -8t8 -22v-187z" />
    <glyph glyph-name="eight.numr" 
d="M928 741q113 -44 161.5 -101.5t48.5 -155.5q0 -298 -523 -298t-523 298q0 98 48.5 155.5t161.5 101.5q-60 16 -98.5 72t-38.5 124q0 121 111.5 192t338.5 71t338.5 -71t111.5 -192q0 -68 -38.5 -124t-98.5 -72zM421 892q0 -41 40 -60.5t154 -19.5t154 19.5t40 60.5
t-40 61t-154 20t-154 -20t-40 -61zM615 426q136 0 192.5 21t56.5 67q0 52 -55 72.5t-194 20.5t-194 -20.5t-55 -72.5q0 -46 56.5 -67t192.5 -21z" />
    <glyph glyph-name="nine.numr" 
d="M584 574q-255 0 -373.5 76.5t-118.5 231.5q0 156 122.5 237t390.5 81q265 0 387 -79.5t124 -231.5l2 -330q1 -190 -133 -282.5t-388 -92.5q-244 0 -370.5 75t-126.5 205q0 23 30 23l190 13q9 1 15 0.5t10.5 -4t8.5 -13.5q22 -50 81 -65t173 -15q236 0 236 152v70
q-35 -23 -112.5 -37t-147.5 -14zM605 971q-133 0 -186 -21t-53 -77q0 -57 53 -78.5t186 -21.5q135 0 187 21.5t52 79.5q0 55 -53 76t-186 21z" />
    <glyph glyph-name="section.ss01" 
d="M640 380q169 -21 233 -40q198 -55 228 -205q5 -28 5 -59q0 -145 -117.5 -230t-335.5 -85q-107 0 -188 17t-144.5 55t-100 102.5t-45.5 156.5q-1 14 7.5 22t22.5 8h209q25 0 28 -20q19 -112 205 -112q183 0 183 95q0 43 -49 64.5t-141 33.5q-11 1 -32 4q-42 5 -63.5 8
t-62.5 10t-64.5 14t-58 19.5t-55 27t-44.5 35.5t-37 46t-22 58.5t-9 72.5q0 119 78 199q-82 81 -95 220q-1 14 7.5 22t22.5 8h209q25 0 28 -20q19 -112 205 -112q183 0 183 95q0 43 -49 64.5t-141 33.5q-11 1 -32 4q-42 5 -63.5 8t-62.5 10t-64.5 14t-58 19.5t-55 27
t-44.5 35.5t-37 46t-22 58.5t-9 72.5q0 146 114.5 231.5t319.5 85.5q101 0 178 -16.5t139 -53.5t98 -102t45 -156q1 -14 -7.5 -22t-22.5 -8h-209q-25 0 -28 19q-20 110 -186 110q-165 0 -165 -95q0 -41 42.5 -60.5t129.5 -30.5q169 -21 233 -40q198 -55 228 -205
q5 -28 5 -59q0 -132 -96 -214q65 -77 76 -200q1 -14 -7.5 -22t-22.5 -8h-209q-25 0 -28 19q-20 110 -186 110q-165 0 -165 -95q0 -41 42.5 -60.5t129.5 -30.5z" />
  </font>
</defs>
</svg>
