<?xml version="1.0" standalone="no"?>
<!DOCTYPE svg PUBLIC "-//W3C//DTD SVG 1.1//EN" "http://www.w3.org/Graphics/SVG/1.1/DTD/svg11.dtd" >
<svg xmlns="http://www.w3.org/2000/svg" xmlns:xlink="http://www.w3.org/1999/xlink" version="1.1">
<metadata>
Created by FontForge 20170731 at Sat Sep 24 15:58:33 2016
 By Aleksey,,,
(c) 2016 Connary Fagen
</metadata>
<defs>
<font id="CartographMonoCF-MediumItalic" horiz-adv-x="1230" >
  <font-face 
    font-family="Cartograph Mono CF Medium"
    font-weight="500"
    font-style="italic"
    font-stretch="normal"
    units-per-em="2000"
    panose-1="0 0 6 9 0 0 0 0 0 0"
    ascent="1600"
    descent="-400"
    x-height="980"
    cap-height="1400"
    bbox="-890.471 -693 1679.59 1881"
    underline-thickness="50"
    underline-position="-200"
    slope="-8"
    unicode-range="U+0020-25CA"
  />
<missing-glyph horiz-adv-x="990" 
d="M812 1600v-1980h-628v1980h628zM659 1467h-326v-65h128v-73h-130v-66h328v66h-130v73h130v65zM529 1212h-198v-206h328v67h-130v139zM461 1145v-72h-65v72h65zM659 953h-328v-66h130v-73h-130v-65h198v138h130v66zM659 834h-65v-131h-263v-67h328v198zM659 592h-198v-111
h68v46h65v-93h-198v158h-65v-224h328v224zM659 250h-328v-224h328v224zM594 184v-93h-198v93h198zM659 -20h-328v-65h138l-138 -93v-65h328v65h-202l139 93h63v65z" />
    <glyph glyph-name=".notdef" horiz-adv-x="990" 
d="M812 1600v-1980h-628v1980h628zM659 1467h-326v-65h128v-73h-130v-66h328v66h-130v73h130v65zM529 1212h-198v-206h328v67h-130v139zM461 1145v-72h-65v72h65zM659 953h-328v-66h130v-73h-130v-65h198v138h130v66zM659 834h-65v-131h-263v-67h328v198zM659 592h-198v-111
h68v46h65v-93h-198v158h-65v-224h328v224zM659 250h-328v-224h328v224zM594 184v-93h-198v93h198zM659 -20h-328v-65h138l-138 -93v-65h328v65h-202l139 93h63v65z" />
    <glyph glyph-name=".null" horiz-adv-x="0" 
 />
    <glyph glyph-name="nonmarkingreturn" horiz-adv-x="666" 
 />
    <glyph glyph-name="space" unicode=" " 
 />
    <glyph glyph-name="exclam" unicode="!" 
d="M730 1416q56 0 88.5 -40.5t19.5 -98.5l-176 -852q-4 -27 -32 -27h-65q-32 0 -29 31l67 858q4 58 40.5 93.5t86.5 35.5zM563 -26q-59 0 -100 41t-41 100t41 101t100 42t100 -42t41 -101t-41 -100t-100 -41z" />
    <glyph glyph-name="quotedbl" unicode="&#x22;" 
d="M609 1400q14 0 23 -11t7 -24l-69 -382q-3 -25 -29 -25h-76q-13 0 -22.5 10.5t-7.5 24.5l40 382q3 25 29 25h105zM973 1400q14 0 23 -11t7 -24l-69 -382q-3 -25 -29 -25h-76q-13 0 -22.5 10.5t-7.5 24.5l40 382q3 25 29 25h105z" />
    <glyph glyph-name="numbersign" unicode="#" 
d="M1116 1124q32 0 28 -32l-12 -86q-3 -28 -32 -28h-130l-56 -395h126q32 0 28 -32l-12 -86q-3 -28 -32 -28h-130l-35 -247q-3 -28 -32 -28h-111q-31 0 -28 32l34 243h-228l-35 -247q-3 -28 -32 -28h-110q-31 0 -28 32l34 243h-127q-34 0 -28 32l12 86q3 28 32 28h132
l55 395h-127q-34 0 -28 32l12 86q3 28 32 28h132l35 248q3 28 32 28h110q31 0 28 -32l-34 -244h228l35 248q3 28 32 28h111q31 0 28 -32l-34 -244h125zM743 583l55 395h-228l-56 -395h229z" />
    <glyph glyph-name="dollar" unicode="$" 
d="M1162 1070q2 -15 -6 -23t-23 -8h-108q-25 0 -33 25q-39 106 -206 130l-59 -421q67 -16 120 -34.5t104 -47.5t84.5 -65t54 -87t20.5 -113q0 -124 -64 -210.5t-171 -129t-253 -50.5l-26 -188q-4 -28 -32 -28h-78q-32 0 -28 32l26 184q-359 26 -394 288q-2 15 6 23t23 8h112
q25 0 33 -26q37 -116 243 -129l63 448q-80 21 -141 48t-113.5 67.5t-80 99.5t-27.5 134q0 165 126 260t337 104l27 191q4 28 32 28h78q32 0 28 -32l-27 -192q147 -18 240.5 -92t112.5 -194zM386 989q0 -69 51 -114.5t155 -71.5l56 394q-262 -18 -262 -208zM930 429
q0 80 -54 120t-171 68l-59 -416q284 24 284 228z" />
    <glyph glyph-name="percent" unicode="%" 
d="M456 1410q108 0 161 -55.5t53 -157.5q0 -150 -70.5 -242t-203.5 -92q-210 0 -210 217q0 151 68.5 240.5t201.5 89.5zM446 1278q-71 0 -102 -54.5t-30 -141.5q1 -43 22.5 -65t69.5 -22q71 0 103 55t31 140q0 88 -94 88zM1112 1168q23 -20 4 -43l-839 -932q-19 -22 -42 -3
l-56 45q-23 20 -4 42l839 933q19 22 42 2zM889 537q108 0 161 -55.5t53 -157.5q0 -150 -70 -242t-204 -92q-105 0 -157.5 56.5t-52.5 158.5q0 149 69 240.5t201 91.5zM880 405q-71 0 -102 -54.5t-30 -141.5q1 -43 22.5 -65t69.5 -22q71 0 103 55t31 140q0 88 -94 88z" />
    <glyph glyph-name="ampersand" unicode="&#x26;" 
d="M1103 103q18 -25 0 -40l-77 -64q-12 -10 -23 -8t-17 13l-110 155q-105 -85 -209.5 -131t-226.5 -46q-194 0 -297.5 105t-79.5 284q9 67 42 127t89.5 113.5t107 91.5t126.5 87q-70 97 -104.5 179.5t-21.5 175.5q16 117 109.5 194t238.5 77q155 0 236.5 -87t62.5 -224
q-8 -54 -34.5 -103.5t-71 -95t-89 -81t-106.5 -78.5l253 -358l109 104l100 -121q-114 -109 -118 -112zM466 1113q-7 -56 17 -111t75 -128q101 66 158 125t66 125q9 67 -28.5 101t-108.5 34t-121 -38.5t-58 -107.5zM454 151q158 0 331 138l-264 373q-125 -83 -195 -153
t-82 -152q-13 -94 45 -150t165 -56z" />
    <glyph glyph-name="quotesingle" unicode="'" 
d="M791 1400q14 0 23 -11t7 -24l-69 -382q-3 -25 -29 -25h-76q-13 0 -22.5 10.5t-7.5 24.5l40 382q3 25 29 25h105z" />
    <glyph glyph-name="parenleft" unicode="(" 
d="M1057 1308q-85 0 -154 -16t-122 -44.5t-95 -75.5t-71.5 -101.5t-53 -130.5t-39.5 -154t-30 -180q-14 -101 -20 -176.5t-4.5 -150t15.5 -127t41.5 -98.5t72 -73.5t108.5 -43t149 -15.5l-17 -182q-97 0 -176.5 16t-137.5 43t-101.5 70t-71.5 90.5t-44 110.5t-22.5 124
t-4.5 137.5t8.5 144t18.5 150.5q12 82 23.5 146.5t30.5 140.5t41.5 134.5t55.5 120.5t73.5 108t95 88t119.5 68.5t148.5 42t180.5 15.5z" />
    <glyph glyph-name="parenright" unicode=")" 
d="M411 1308l17 182q97 0 176.5 -16t137.5 -43t101.5 -70t71 -90t44 -110.5t23 -123.5t4.5 -137t-8.5 -144t-18.5 -150t-23.5 -147.5t-30.5 -140.5t-41.5 -134.5t-55.5 -121t-73.5 -108t-95 -88t-119.5 -69t-148.5 -42t-180.5 -15.5l17 182q85 0 154 16t121.5 44.5t94.5 76
t71.5 102t53 131t39.5 154t31 180.5q14 101 20.5 176t5 149.5t-15.5 127t-42 98t-72.5 73t-108.5 43t-149 15.5z" />
    <glyph glyph-name="asterisk" unicode="*" 
d="M1006 1148q3 -28 -22 -33l-210 -52l107 -174q17 -27 -5 -40l-53 -31q-23 -13 -39 15l-95 167l-138 -176q-16 -19 -37 -1l-42 30q-29 21 -9 44l147 168l-181 53q-30 9 -19 39l19 50q10 25 38 16l191 -58l24 210q3 25 29 25h53q13 0 22.5 -10.5t7.5 -24.5l-33 -201l203 63
q13 4 23.5 -4.5t12.5 -24.5z" />
    <glyph glyph-name="plus" unicode="+" 
d="M1007 642q31 0 28 -32l-13 -86q-3 -28 -32 -28h-300l-43 -302q-3 -28 -32 -28h-86q-31 0 -28 32l42 298h-297q-31 0 -28 32l12 86q3 28 32 28h302l42 301q3 28 32 28h86q31 0 28 -32l-42 -297h297z" />
    <glyph glyph-name="comma" unicode="," 
d="M350 0q-33 0 -28 32l14 95q4 28 32 28h397q32 0 27 -32l-7 -52q-42 -295 -131 -451q-14 -24 -47 -24h-61q-16 0 -23 12t0 31q28 78 51.5 180.5t28.5 180.5h-253z" />
    <glyph glyph-name="hyphen" unicode="-" 
d="M1094 639q31 0 28 -32l-13 -93q-3 -28 -32 -28h-920q-31 0 -28 32l13 93q3 28 32 28h920z" />
    <glyph glyph-name="period" unicode="." 
d="M562 -26q-59 0 -100 41t-41 100t41 101t100 42t100 -42t41 -101t-41 -100t-100 -41z" />
    <glyph glyph-name="slash" unicode="/" 
d="M70 -260q-18 0 -22.5 10t4.5 26l961 1603q13 21 41 21h129q18 0 22.5 -10t-5.5 -26l-961 -1603q-13 -21 -42 -21h-127z" />
    <glyph glyph-name="zero" unicode="0" 
d="M736 1416q92 0 159.5 -13t121.5 -44t87 -81t50 -124.5t16 -174t-19 -229.5l-16 -119q-27 -195 -71.5 -322.5t-117.5 -201.5t-166 -103.5t-229 -29.5q-91 0 -158.5 13t-121.5 44t-86.5 81t-50 124.5t-16.5 174t19 230.5l16 119q27 195 71.5 322t117.5 201t166 103.5
t228 29.5zM970 629l20 143q16 115 17.5 193t-12.5 135.5t-48.5 89.5t-87.5 47t-133 15q-197 0 -283 -105t-125 -385l-20 -143q-17 -139 -17.5 -231.5t32 -148t91 -78t158.5 -22.5q197 0 282.5 104.5t125.5 385.5zM487 436q-17 0 -23 10t3 26l254 460q12 22 36 22h46
q17 0 23 -10t-3 -26l-254 -460q-12 -22 -36 -22h-46z" />
    <glyph glyph-name="one" unicode="1" 
d="M699 151h313q32 0 28 -32l-13 -91q-4 -28 -32 -28h-893q-32 0 -28 32l13 91q4 28 32 28h400l152 1066q-70 -59 -149 -87t-182 -36q-33 -3 -30 30l10 104q3 27 30 30q184 18 342 142h150q33 0 28 -32z" />
    <glyph glyph-name="two" unicode="2" 
d="M295 157l687 5q32 0 28 -32l-13 -102q-3 -28 -32 -28h-841q-31 0 -28 32l15 113q14 100 50.5 183.5t87 141t112 105t127.5 82t131.5 66t124.5 62.5t106.5 65t79 80.5t39.5 103.5q13 99 -46.5 159t-193.5 60q-139 0 -224 -62.5t-104 -179.5q-4 -21 -35 -18l-108 14
q-30 3 -24 40q25 180 155 274.5t342 94.5q223 0 327 -108t78 -293q-11 -76 -44.5 -138t-81.5 -106t-107.5 -82t-123.5 -69.5t-128.5 -63t-123.5 -69.5t-107 -82.5t-81.5 -107.5t-43.5 -140z" />
    <glyph glyph-name="three" unicode="3" 
d="M859 743q111 -38 177.5 -116t66.5 -196q0 -138 -78 -243.5t-207 -159.5t-285 -54q-221 0 -335 105.5t-88 284.5q3 25 28 28l115 8q16 2 24.5 -9t6.5 -30q-10 -101 57.5 -162t205.5 -61q157 0 266.5 85t109.5 220q0 101 -87.5 159.5t-262.5 63.5q-33 2 -30 32l9 86
q3 28 32 28q168 5 277 76t109 191q0 82 -65.5 128.5t-177.5 46.5q-138 0 -225 -65.5t-105 -174.5q-4 -26 -39 -21l-107 12q-31 3 -25 42q24 171 159.5 270t349.5 99q187 0 297.5 -86.5t110.5 -230.5q0 -119 -75.5 -210.5t-208.5 -145.5z" />
    <glyph glyph-name="four" unicode="4" 
d="M959 504h118q32 0 28 -32l-15 -93q-5 -28 -32 -28h-122l-44 -323q-3 -28 -32 -28h-120q-31 0 -28 32l44 319h-627q-34 0 -28 32l15 106q4 26 17 42l750 849q17 20 45 20h125q13 0 21 -10.5t6 -24.5zM779 504l87 614l-549 -614h462z" />
    <glyph glyph-name="five" unicode="5" 
d="M703 922q212 0 323 -129.5t79 -354.5q-30 -219 -176 -341.5t-372 -122.5q-212 0 -325.5 95.5t-105.5 276.5q0 26 29 26h104q25 0 30 -38q14 -103 80 -152.5t193 -49.5q151 0 250.5 84t121.5 242q22 150 -48.5 228t-212.5 78q-196 0 -321 -118q-21 -19 -49 -5l-86 36
q-27 14 -18 41l218 658q8 24 34 24h637q34 0 28 -32l-16 -97q-4 -28 -32 -28h-530l-132 -397q114 76 297 76z" />
    <glyph glyph-name="six" unicode="6" 
d="M669 854q200 0 314.5 -96.5t114.5 -266.5q0 -241 -150 -379t-398 -138q-232 0 -346 125t-83 344l68 488q36 259 173 372t380 113q207 0 316 -94t88 -262q-3 -25 -31 -25l-98 -4q-31 0 -34 37q-4 93 -69.5 141.5t-180.5 48.5q-74 0 -129.5 -13.5t-107 -48t-85.5 -102.5
t-49 -169l-31 -201q42 61 142.5 95.5t195.5 34.5zM564 133q170 0 265.5 92t95.5 256q0 109 -75.5 165t-205.5 56q-166 0 -262.5 -92.5t-96.5 -250.5q0 -115 74 -170.5t205 -55.5z" />
    <glyph glyph-name="seven" unicode="7" 
d="M287 1372q3 28 32 28h875q31 0 28 -32l-16 -110q-4 -27 -16 -45l-744 -1193q-11 -20 -36 -20h-129q-18 0 -23.5 10.5t3.5 25.5l758 1207h-718q-31 0 -28 32z" />
    <glyph glyph-name="eight" unicode="8" 
d="M925 764q178 -89 178 -295q0 -230 -151 -362.5t-402 -132.5q-216 0 -331.5 96.5t-115.5 269.5q0 150 71 261t209 173q-125 78 -125 237q0 191 131 298t347 107q193 0 295 -81.5t102 -218.5q0 -116 -53 -206.5t-155 -145.5zM420 1004q0 -83 62 -126t177 -43
q143 0 225.5 69t82.5 193q0 83 -61.5 125t-177.5 42q-144 0 -226 -68t-82 -192zM562 133q172 0 270.5 89t98.5 243q0 110 -74.5 163.5t-211.5 53.5q-172 0 -270.5 -89t-98.5 -245q0 -215 286 -215z" />
    <glyph glyph-name="nine" unicode="9" 
d="M619 537q-200 0 -314.5 96.5t-114.5 266.5q0 241 149.5 378.5t398.5 137.5q231 0 345 -124.5t84 -343.5l-68 -488q-36 -259 -173.5 -372.5t-380.5 -113.5q-206 0 -315.5 94.5t-87.5 262.5q3 25 30 25l99 4q32 0 33 -37q4 -94 69.5 -142t180.5 -48q74 0 129.5 13.5t107 48
t85.5 102.5t50 169l30 201q-42 -61 -142.5 -95.5t-194.5 -34.5zM723 1258q-169 0 -265 -92t-96 -256q0 -109 75.5 -165t205.5 -56q166 0 263 92.5t97 250.5q0 114 -74.5 170t-205.5 56z" />
    <glyph glyph-name="colon" unicode=":" 
d="M687 717q-59 0 -100 41t-41 100t41 101t100 42t100 -42t41 -101t-41 -100t-100 -41zM543 -26q-59 0 -100 41t-41 100t41 101t100 42t100 -42t41 -101t-41 -100t-100 -41z" />
    <glyph glyph-name="semicolon" unicode=";" 
d="M687 717q-59 0 -100 41t-41 100t41 101t100 42t100 -42t41 -101t-41 -100t-100 -41zM350 0q-33 0 -28 32l14 95q4 28 32 28h397q32 0 27 -32l-7 -52q-42 -295 -131 -451q-14 -24 -47 -24h-61q-16 0 -23 12t0 31q28 78 51.5 180.5t28.5 180.5h-253z" />
    <glyph glyph-name="less" unicode="&#x3c;" 
d="M1016 799q13 -26 -12 -38l-575 -263l493 -267q12 -7 16.5 -18t-3.5 -24l-58 -87q-14 -20 -39 -5l-574 312q-23 13 -20 38l15 112q3 23 23 33l660 310q27 13 38 -19z" />
    <glyph glyph-name="equal" unicode="=" 
d="M1029 804q34 0 28 -32l-13 -86q-3 -28 -32 -28h-743q-31 0 -28 32l13 86q3 28 32 28h743zM983 481q34 0 28 -32l-12 -86q-3 -28 -32 -28h-743q-31 0 -28 32l12 86q3 28 32 28h743z" />
    <glyph glyph-name="greater" unicode="&#x3e;" 
d="M297 808l60 84q9 13 18 13t20 -8l574 -309q23 -14 20 -39l-16 -112q-3 -25 -21 -33l-662 -310q-24 -11 -38 20l-35 84q-13 26 11 38l577 262l-494 267q-12 6 -17 19t3 24z" />
    <glyph glyph-name="question" unicode="?" 
d="M493 375q-32 0 -26 34q17 104 53 179t79 115.5t92 68.5t96 48.5t87 44t68.5 65.5t37.5 104q14 100 -45.5 159.5t-197.5 59.5q-142 0 -228 -61.5t-106 -176.5q-3 -26 -37 -22l-107 12q-29 3 -23 38q26 183 155.5 278t348.5 95q223 0 328 -108t79 -293q-9 -65 -29.5 -114.5
t-48.5 -80.5t-61 -55t-69.5 -41.5t-72.5 -35t-71 -41t-64 -54t-52 -79t-35 -111.5q-3 -28 -32 -28h-119zM526 -26q-59 0 -100 41t-41 100t41 101t100 42t100 -42t41 -101t-41 -100t-100 -41z" />
    <glyph glyph-name="at" unicode="@" 
d="M698 1058q207 0 335 -121.5t128 -337.5q0 -104 -28 -191.5t-90.5 -145.5t-150.5 -58q-101 0 -131 71q-77 -71 -183 -71q-113 0 -178.5 69t-65.5 186q0 139 88.5 234.5t222.5 95.5q115 0 177 -81l40 53h70l-82 -360q-11 -41 -1.5 -62.5t43.5 -21.5q38 0 66.5 28t44 73.5
t23 93.5t7.5 96q0 166 -91.5 243.5t-245.5 77.5q-143 0 -255 -67.5t-170.5 -179t-58.5 -245.5q0 -91 29.5 -161.5t80 -111.5t112 -61.5t130.5 -20.5q115 0 200 42l87 -89q-118 -81 -292 -81q-138 0 -246 53.5t-172.5 164.5t-64.5 266q0 170 77.5 311.5t221 225t323.5 83.5z
M581 319q79 0 129 62.5t50 156.5q0 65 -31 99.5t-89 34.5q-84 0 -133.5 -62.5t-49.5 -147.5q0 -143 124 -143z" />
    <glyph glyph-name="A" unicode="A" 
d="M1096 32q3 -32 -28 -32h-128q-29 0 -32 28l-39 265h-557l-116 -270q-11 -23 -35 -23h-133q-17 0 -23.5 9.5t0.5 25.5l583 1342q11 23 35 23h235q29 0 33 -27zM381 456h464l-111 752h-31z" />
    <glyph glyph-name="B" unicode="B" 
d="M873 754q227 -54 227 -292q0 -242 -135.5 -352t-398.5 -110h-473q-32 0 -27 32l188 1340q4 28 32 28h482q97 0 168 -23t111 -64.5t58 -90.5t18 -109q0 -271 -250 -359zM421 1230l-57 -405h306q126 0 199.5 71t73.5 187q0 79 -49.5 113t-158.5 34h-314zM579 170
q168 0 251 70.5t83 226.5q0 198 -257 198h-314l-70 -495h307z" />
    <glyph glyph-name="C" unicode="C" 
d="M568 150q146 0 220.5 41.5t107.5 156.5q7 27 35 27h123q15 0 22 -10.5t2 -27.5q-51 -203 -174 -285t-348 -82q-91 0 -158.5 13.5t-121 44.5t-86.5 81.5t-50 125t-16 175t20 231.5l17 119q27 196 72.5 323.5t118 202.5t165 104.5t227.5 29.5q229 0 331 -85.5t100 -288.5
q0 -28 -30 -28h-116q-13 0 -21 10t-9 27q-6 112 -64 148.5t-197 36.5q-69 0 -118 -10.5t-96 -40.5t-79 -84t-59 -142t-44 -214l-17 -118q-15 -105 -17.5 -182.5t9 -130.5t30.5 -86.5t54 -51t73 -24t94 -6.5z" />
    <glyph glyph-name="D" unicode="D" 
d="M644 1400q144 0 245 -33t160.5 -98t86 -152.5t26.5 -205.5q0 -174 -25 -314.5t-78.5 -253t-136 -188t-199.5 -115.5t-267 -40h-352q-31 0 -28 32l188 1340q3 28 32 28h348zM472 170q112 0 198 34.5t143 97.5t93.5 157t52.5 205.5t16 250.5q0 162 -76.5 238.5t-268.5 76.5
h-198l-149 -1060h189z" />
    <glyph glyph-name="E" unicode="E" 
d="M991 170q31 0 28 -32l-15 -110q-3 -28 -32 -28h-845q-31 0 -28 32l188 1340q3 28 32 28h843q31 0 28 -32l-16 -110q-3 -28 -32 -28h-688l-57 -408h631q31 0 28 -32l-16 -110q-3 -28 -32 -28h-635l-68 -482h686z" />
    <glyph glyph-name="F" unicode="F" 
d="M1191 1400q33 0 28 -32l-16 -110q-4 -28 -32 -28h-725l-60 -428h675q32 0 27 -32l-15 -110q-4 -28 -32 -28h-679l-85 -604q-4 -28 -32 -28h-127q-32 0 -27 32l188 1340q4 28 32 28h880z" />
    <glyph glyph-name="G" unicode="G" 
d="M744 1420q229 0 331 -85.5t100 -288.5q0 -28 -30 -28h-116q-13 0 -21 10t-9 27q-6 112 -64 148.5t-197 36.5q-69 0 -118 -10.5t-96 -40.5t-79 -84t-59 -142t-44 -214l-17 -118q-13 -90 -16 -160t2 -121t20.5 -86.5t36 -57.5t53.5 -34.5t67 -17t82 -4.5q178 0 264 83
t116 294h-357q-15 0 -22.5 8.5t-5.5 23.5l16 104q4 28 32 28h504q33 0 28 -32l-20 -136q-41 -293 -173.5 -423t-392.5 -130q-91 0 -159 13.5t-122.5 44.5t-87.5 81.5t-50 125t-16 175t20 231.5l17 119q27 196 72.5 323.5t118 202.5t165 104.5t227.5 29.5z" />
    <glyph glyph-name="H" unicode="H" 
d="M1176 1400q32 0 27 -32l-188 -1340q-4 -28 -32 -28h-127q-32 0 -27 32l84 597h-557l-84 -601q-4 -28 -32 -28h-127q-32 0 -27 32l188 1340q4 28 32 28h127q32 0 27 -32l-80 -569h557l80 573q4 28 32 28h127z" />
    <glyph glyph-name="I" unicode="I" 
d="M1202 1258q-3 -28 -32 -28h-357l-149 -1060h353q34 0 28 -32l-16 -110q-3 -28 -32 -28h-898q-31 0 -28 32l16 110q3 28 32 28h358l149 1060h-354q-31 0 -28 32l15 110q3 28 32 28h898q34 0 28 -32z" />
    <glyph glyph-name="J" unicode="J" 
d="M1183 1400q33 0 28 -32l-122 -869q-38 -264 -185 -396.5t-367 -132.5q-216 0 -333.5 125t-91.5 368q3 29 32 29h122q31 0 28 -33q-11 -165 56 -240.5t195 -75.5q138 0 235.5 94t122.5 272l102 721h-570q-33 0 -28 32l16 110q4 28 32 28h728z" />
    <glyph glyph-name="K" unicode="K" 
d="M1066 30q8 -12 3.5 -21t-19.5 -9h-141q-32 0 -45 24l-379 623l-180 -172l-64 -447q-3 -28 -32 -28h-127q-31 0 -28 32l188 1340q3 28 32 28h127q34 0 28 -32l-93 -643l669 657q18 18 48 18h161q19 0 23.5 -13t-10.5 -27l-608 -582z" />
    <glyph glyph-name="L" unicode="L" 
d="M315 170h695q32 0 28 -32l-15 -110q-4 -28 -32 -28h-854q-31 0 -28 32l188 1340q3 28 32 28h127q31 0 28 -32z" />
    <glyph glyph-name="M" unicode="M" 
d="M98 0q-32 0 -27 32l188 1340q4 28 32 28h157q28 0 31 -29l89 -1171h11l420 1176q8 24 35 24h157q32 0 27 -32l-188 -1340q-4 -28 -32 -28h-103q-32 0 -27 32l137 975h-12l-360 -983q-7 -24 -34 -24h-100q-29 0 -32 29l-83 978h-14l-137 -979q-4 -28 -32 -28h-103z" />
    <glyph glyph-name="N" unicode="N" 
d="M1037 1372q4 28 32 28h116q32 0 28 -32l-188 -1340q-4 -28 -32 -28h-170q-25 0 -34 24l-382 1104l-154 -1100q-4 -28 -32 -28h-117q-32 0 -28 32l188 1340q4 28 32 28h170q26 0 34 -24l381 -1100z" />
    <glyph glyph-name="O" unicode="O" 
d="M738 1420q90 0 157 -13t120.5 -44t86 -81.5t49.5 -125t15.5 -175t-19.5 -231.5l-17 -119q-28 -196 -73 -324t-117.5 -203t-164 -104.5t-225.5 -29.5q-90 0 -157 13.5t-120.5 44.5t-86 81t-49.5 125t-15.5 175.5t19.5 231.5l17 119q22 158 56.5 270.5t81 188.5t112.5 120
t144.5 62.5t185.5 18.5zM729 1240q-71 0 -119.5 -10t-94 -39.5t-76.5 -84t-56.5 -142.5t-43.5 -215l-17 -118q-15 -106 -18.5 -183.5t7 -130.5t28.5 -86t52.5 -51t72.5 -24t95 -6q71 0 119.5 10t94 40t76.5 84.5t56.5 142t43.5 214.5l17 118q18 128 17.5 214.5t-14.5 139.5
t-50 81t-78.5 37t-111.5 9z" />
    <glyph glyph-name="P" unicode="P" 
d="M780 1400q215 0 306 -79t91 -242q0 -284 -122 -421t-390 -137h-316l-69 -493q-4 -28 -32 -28h-127q-32 0 -27 32l188 1340q4 28 32 28h466zM681 691q179 0 247.5 89.5t68.5 287.5q0 53 -13 86t-44.5 49.5t-70 21.5t-104.5 5h-316l-76 -539h308z" />
    <glyph glyph-name="Q" unicode="Q" 
d="M738 1420q90 0 157 -13t120.5 -44t86 -81.5t49.5 -125t15.5 -175t-19.5 -231.5l-17 -119q-28 -196 -73 -324t-117.5 -203t-164 -104.5t-225.5 -29.5q-90 0 -157 13.5t-120.5 44.5t-86 81t-49.5 125t-15.5 175.5t19.5 231.5l17 119q22 158 56.5 270.5t81 188.5t112.5 120
t144.5 62.5t185.5 18.5zM729 1240q-71 0 -119.5 -10t-94 -39.5t-76.5 -84t-56.5 -142.5t-43.5 -215l-17 -118q-15 -106 -18.5 -183.5t7 -130.5t28.5 -86t52.5 -51t72.5 -24t95 -6q71 0 119.5 10t94 40t76.5 84.5t56.5 142t43.5 214.5l17 118q18 128 17.5 214.5t-14.5 139.5
t-50 81t-78.5 37t-111.5 9zM1030 -180q32 0 32 -28v-105q0 -32 -30 -32q-65 -1 -125 15t-98.5 35t-98 35t-124.5 16q-27 0 -38 6.5t-11 21.5v104q0 32 32 32q65 2 127 -14t103.5 -35.5t103.5 -35.5t127 -15z" />
    <glyph glyph-name="R" unicode="R" 
d="M835 538l233 -502q16 -36 -20 -36h-125q-26 0 -36 20l-230 501h-308l-69 -493q-4 -28 -32 -28h-127q-32 0 -27 32l188 1340q4 28 32 28h466q215 0 306 -79t91 -242q0 -235 -82.5 -368.5t-259.5 -172.5zM449 1230l-76 -539h308q179 0 247.5 89.5t68.5 287.5q0 53 -13 86
t-44.5 49.5t-70 21.5t-104.5 5h-316z" />
    <glyph glyph-name="S" unicode="S" 
d="M646 795q70 -16 120 -30.5t108.5 -36.5t98 -49.5t74 -64t51.5 -86t17 -109.5q0 -220 -151.5 -332.5t-409.5 -112.5q-233 0 -354.5 83t-111.5 250q0 29 29 29h118q25 0 27 -32q1 -76 80.5 -118.5t220.5 -42.5q177 0 272.5 65.5t95.5 196.5q0 43 -13.5 75.5t-34.5 54.5
t-61.5 39.5t-79.5 29t-103 25.5q-75 18 -131.5 36.5t-114 49t-94.5 69t-60 95t-23 127.5q0 197 136 303.5t372 106.5q220 0 338 -81.5t111 -243.5q0 -27 -31 -27h-108q-31 0 -33 30q-4 74 -79 114.5t-204 40.5q-156 0 -238.5 -60t-82.5 -177q0 -89 59.5 -138t189.5 -79z" />
    <glyph glyph-name="T" unicode="T" 
d="M1221 1400q31 0 28 -32l-16 -110q-3 -28 -32 -28h-388l-168 -1202q-3 -28 -32 -28h-127q-31 0 -28 32l168 1198h-384q-31 0 -28 32l15 110q3 28 32 28h960z" />
    <glyph glyph-name="U" unicode="U" 
d="M1186 1400q31 0 28 -32l-120 -855q-40 -279 -174 -411t-369 -132q-484 0 -406 553l119 849q3 28 32 28h127q31 0 28 -32l-120 -855q-28 -193 28 -279.5t199 -86.5q151 0 236.5 91t113.5 285l119 849q3 28 32 28h127z" />
    <glyph glyph-name="V" unicode="V" 
d="M1093 1377q11 23 35 23h134q17 0 23 -9.5t-1 -25.5l-583 -1342q-9 -23 -34 -23h-236q-29 0 -32 27l-205 1341q-5 32 28 32h128q28 0 32 -27l174 -1180h30z" />
    <glyph glyph-name="W" unicode="W" 
d="M1102 1374q6 26 34 26h117q16 0 23 -9.5t3 -24.5l-365 -1341q-6 -25 -33 -25h-162q-30 0 -30 30l-7 923l-269 -928q-7 -25 -34 -25h-162q-30 0 -30 30l12 1340q0 30 30 30h116q29 0 29 -30l-33 -1135l329 1140q7 25 33 25h75q29 0 29 -30l9 -1135z" />
    <glyph glyph-name="X" unicode="X" 
d="M1228 1400q18 0 23.5 -10t-5.5 -26l-499 -659l327 -669q8 -16 1.5 -26t-23.5 -10h-134q-26 0 -36 23l-256 523l-399 -528q-12 -18 -36 -18h-148q-18 0 -23 10.5t7 25.5l516 681l-317 648q-8 16 -1 25.5t24 9.5h133q26 0 36 -22l245 -502l383 506q12 18 36 18h146z" />
    <glyph glyph-name="Y" unicode="Y" 
d="M1255 1400q18 0 23 -10t-5 -26l-555 -811l-75 -525q-3 -28 -32 -28h-127q-31 0 -28 32l75 525l-327 809q-6 16 0.5 25t23.5 9h130q27 0 35 -24l252 -645l439 649q12 20 38 20h133z" />
    <glyph glyph-name="Z" unicode="Z" 
d="M970 1230h-681q-31 0 -28 32l16 110q3 28 32 28h863q34 0 28 -32l-18 -123q-3 -23 -16 -38l-869 -1037h723q32 0 28 -32l-16 -110q-3 -28 -32 -28h-903q-31 0 -28 32l17 123q3 24 16 38z" />
    <glyph glyph-name="bracketleft" unicode="[" 
d="M438 1462q3 28 32 28h568q31 0 28 -32l-13 -91q-3 -28 -32 -28h-413l-203 -1448h409q31 0 28 -32l-14 -91q-3 -28 -32 -28h-568q-34 0 -28 32z" />
    <glyph glyph-name="backslash" unicode="\" 
d="M304 1400h127q26 0 32 -27l508 -1603q8 -30 -25 -30h-122q-26 0 -33 29l-509 1599q-9 32 22 32z" />
    <glyph glyph-name="bracketright" unicode="]" 
d="M1033 1490q31 0 28 -32l-238 -1690q-3 -28 -32 -28h-563q-32 0 -28 32l14 91q3 28 32 28h407l204 1448h-404q-34 0 -28 32l13 91q3 28 32 28h563z" />
    <glyph glyph-name="asciicircum" unicode="^" 
d="M929 511q-13 -6 -23 0.5t-15 19.5l-190 530l-342 -539q-13 -21 -38 -6l-79 46q-29 18 -13 43l397 616q11 17 36 17h112q21 0 33 -27l225 -616q9 -26 -11 -38z" />
    <glyph glyph-name="underscore" unicode="_" 
d="M1003 0q34 0 28 -32l-15 -93q-5 -28 -32 -28h-916q-34 0 -28 32l15 93q5 28 32 28h916z" />
    <glyph glyph-name="grave" unicode="`" 
d="M848 1184q10 -34 -24 -34h-94q-26 0 -34 24l-84 252q-10 34 24 34h93q26 0 34 -24z" />
    <glyph glyph-name="a" unicode="a" 
d="M1151 948l-112 -771q-4 -27 7.5 -40t35.5 -9q15 2 24 -8.5t6 -28.5l-9 -50q-10 -55 -102 -55q-65 0 -91.5 44t-18.5 115h-18q-47 -77 -134.5 -124t-198.5 -47q-193 0 -310 123t-117 330q0 163 70 295.5t188.5 206t260.5 73.5q111 0 194 -42.5t124 -114.5h16l38 110
q7 25 34 25h85q32 0 28 -32zM567 139q104 0 185.5 58t124 150.5t42.5 199.5q0 141 -77 215.5t-198 74.5q-156 0 -256 -113.5t-100 -288.5q0 -138 75.5 -217t203.5 -79z" />
    <glyph glyph-name="b" unicode="b" 
d="M779 1001q181 0 282.5 -116t101.5 -305q0 -120 -38 -230t-105.5 -193t-166.5 -132.5t-214 -49.5q-228 0 -329 179l-18 -126q-3 -28 -32 -28h-118q-34 0 -28 32l190 1340q3 28 32 28h120q31 0 28 -32l-78 -544l1 1h23q55 80 144.5 128t204.5 48zM615 139q114 0 201 60
t131 156.5t44 211.5q0 126 -66 198t-187 72q-167 0 -274.5 -123.5t-107.5 -296.5q0 -127 69.5 -202.5t189.5 -75.5z" />
    <glyph glyph-name="c" unicode="c" 
d="M1036 249q25 -16 8 -42q-76 -109 -192 -171t-254 -62q-200 0 -328.5 131.5t-128.5 331.5q0 156 75 286.5t201.5 204.5t274.5 74q136 0 241.5 -62.5t161.5 -171.5q14 -26 -13 -40l-96 -49q-25 -13 -41 13q-38 68 -106 107t-154 39q-156 0 -262.5 -112t-106.5 -288
q0 -134 80.5 -216.5t207.5 -82.5q193 0 309 156q17 24 42 7z" />
    <glyph glyph-name="d" unicode="d" 
d="M1200 1368l-172 -1191q-4 -27 7.5 -39.5t35.5 -9.5q15 2 24 -8.5t6 -28.5l-9 -50q-10 -55 -102 -55q-64 0 -90.5 42.5t-20.5 113.5h-19q-42 -77 -126.5 -122.5t-192.5 -45.5q-195 0 -313.5 123t-118.5 328q0 162 71 295t192.5 207.5t267.5 74.5q104 0 182.5 -42
t116.5 -115h18l1 91l62 436q3 28 32 28h120q32 0 28 -32zM572 139q98 0 176 60t119 153t41 197q0 140 -73.5 214.5t-189.5 74.5q-157 0 -259.5 -115.5t-102.5 -288.5q0 -138 78 -216.5t211 -78.5z" />
    <glyph glyph-name="e" unicode="e" 
d="M761 413h-487q-2 -129 85.5 -207.5t243.5 -78.5q170 0 286 96q26 18 46 -4l46 -52q26 -28 1 -51q-150 -142 -402 -142q-220 0 -347 125.5t-127 321.5q0 155 75.5 288.5t209 213t292.5 79.5q105 0 189 -30.5t134.5 -81.5t76.5 -112t26 -127q0 -126 -78 -182t-270 -56z
M677 846q-134 0 -238 -81.5t-143 -213.5h414q55 0 88 1.5t65.5 7.5t49.5 17t27 30.5t10 48.5q-1 77 -71.5 133.5t-201.5 56.5z" />
    <glyph glyph-name="f" unicode="f" 
d="M974 1474q104 0 197 -21t87 -50l-18 -94q-6 -29 -32 -23q-3 1 -21.5 6.5t-33.5 8.5t-39.5 7.5t-55 7t-65.5 2.5q-69 0 -123 -10.5t-103.5 -37t-81 -78t-42.5 -125.5l-12 -87h426q32 0 28 -32l-12 -91q-3 -28 -32 -28h-432l-115 -814q-14 -97 -45.5 -170t-72 -117
t-95 -71.5t-107.5 -37t-115 -9.5q-57 0 -112 13.5t-94.5 33.5t-69 42t-40.5 41.5t-3 29.5l53 69q17 24 38 7q114 -82 222 -82q32 0 62 6t63.5 24.5t60 47t48 78t30.5 114.5l112 795h-256q-31 0 -28 32l12 91q3 28 32 28h261l15 108q54 386 509 386z" />
    <glyph glyph-name="g" unicode="g" 
d="M1094 980q32 0 28 -32l-131 -914q-14 -99 -51 -176t-86 -124t-113 -77t-127 -41.5t-134 -11.5q-220 0 -371 108q-26 18 -11 42l55 81q13 21 38 5q118 -80 305 -80q60 0 110.5 12.5t98 42t79.5 85.5t44 134l16 106q-36 -77 -118 -121.5t-188 -44.5q-195 0 -313.5 123
t-118.5 328q0 162 71 295t192 207.5t266 74.5q104 0 183 -42.5t112 -114.5h20l25 110q4 25 34 25h85zM570 139q97 0 175.5 60t119.5 153t41 197q0 140 -74 214.5t-189 74.5q-157 0 -260 -115.5t-103 -288.5q0 -138 78 -216.5t212 -78.5z" />
    <glyph glyph-name="h" unicode="h" 
d="M1071 128q15 2 24 -8.5t6 -28.5l-9 -50q-10 -55 -102 -55q-80 0 -117 47.5t-27 118.5l62 437q18 124 -39 186.5t-163 62.5q-118 0 -204.5 -64t-123.5 -143l-86 -603q-3 -28 -32 -28h-118q-34 0 -28 32l190 1340q3 28 32 28h120q31 0 28 -32l-78 -545h14q50 77 140 128
t205 51q82 0 148.5 -26t111.5 -75.5t63 -127t3 -174.5l-63 -422q-4 -27 7.5 -39.5t35.5 -9.5z" />
    <glyph glyph-name="i" unicode="i" 
d="M673 1202q-46 0 -77.5 31.5t-31.5 77.5t31.5 77.5t77.5 31.5t77.5 -31.5t31.5 -77.5t-31.5 -77.5t-77.5 -31.5zM1102 147q11 -20 -6 -37q-45 -49 -134 -89.5t-195 -40.5q-48 0 -90 8t-84 26.5t-71.5 50t-52.5 78t-26 110t7 146.5l65 426h-382q-31 0 -28 32l13 95
q3 28 32 28h535q32 0 27 -32l-83 -550q-6 -57 -5.5 -98t15 -70t30.5 -47t40 -28t44.5 -13.5t43.5 -3.5q111 0 223 91q28 23 44 -7z" />
    <glyph glyph-name="j" unicode="j" 
d="M895 1202q-46 0 -77.5 31.5t-31.5 77.5t31.5 77.5t77.5 31.5t77.5 -31.5t31.5 -77.5t-31.5 -77.5t-77.5 -31.5zM921 980q13 0 22 -10.5t7 -24.5l-129 -920q-56 -410 -451 -410q-57 0 -113 13t-96 33t-70 41.5t-42.5 40.5t-6.5 28l59 82q19 27 49 4q101 -78 226 -78
q42 0 79.5 10.5t78 37t70 82t40.5 135.5l108 781h-437q-32 0 -28 32l14 95q3 28 32 28h588z" />
    <glyph glyph-name="k" unicode="k" 
d="M1101 985q20 0 26.5 -13.5t-8.5 -27.5l-437 -382l360 -526q22 -31 -16 -31h-144q-18 0 -33 22l-290 427l-236 -206l-31 -220q-3 -28 -32 -28h-118q-34 0 -28 32l190 1340q3 28 32 28h120q31 0 28 -32l-127 -887l555 492q12 12 39 12h150z" />
    <glyph glyph-name="l" unicode="l" 
d="M1119 144q9 -18 -6 -33q-52 -49 -148 -90t-214 -41q-51 0 -94.5 8t-87 27t-73.5 50t-52.5 78t-26 110.5t6.5 146.5l129 845h-357q-32 0 -28 32l14 95q4 28 32 28h506q32 0 28 -32l-145 -969q-39 -260 182 -260q124 0 249 92q27 20 42 -7z" />
    <glyph glyph-name="m" unicode="m" 
d="M1100 128q15 2 24 -8.5t6 -28.5l-9 -50q-10 -55 -102 -55q-79 0 -111.5 46.5t-22.5 119.5l74 488q17 109 -3 157.5t-84 48.5q-44 0 -77.5 -20t-52.5 -53t-29.5 -63t-14.5 -61l-87 -621q-4 -28 -32 -28h-106q-32 0 -28 32l86 608q15 111 -4 158.5t-85 47.5q-43 0 -75 -20
t-49.5 -53.5t-26 -62.5t-13.5 -61l-89 -621q-4 -28 -32 -28h-110q-15 0 -22.5 8.5t-5.5 23.5l131 923q4 25 29 25h103q13 0 21.5 -10.5t6.5 -24.5l-8 -82h11q64 139 199 139q150 0 185 -140h15q75 140 215 140q123 0 175 -93t23 -283l-68 -449q-4 -27 7.5 -40t35.5 -9z" />
    <glyph glyph-name="n" unicode="n" 
d="M1071 128q15 2 24 -8.5t6 -28.5l-9 -50q-10 -55 -102 -55q-80 0 -117 47.5t-27 118.5l62 437q18 124 -39 186.5t-163 62.5q-125 0 -215.5 -72t-118.5 -153l-83 -585q-3 -28 -32 -28h-118q-34 0 -28 32l131 920q3 28 32 28h109q13 0 21.5 -10.5t6.5 -24.5l-9 -122h18
q50 77 140 128t205 51q82 0 148.5 -26t111.5 -75.5t63 -127t3 -174.5l-63 -422q-4 -27 7.5 -39.5t35.5 -9.5zM364 571l5 30q-5 -18 -5 -30z" />
    <glyph glyph-name="o" unicode="o" 
d="M568 -26q-200 0 -328.5 131.5t-128.5 331.5q0 156 75 286.5t201.5 204.5t274.5 74q200 0 328.5 -131t128.5 -330q0 -117 -44 -222.5t-118 -180.5t-175.5 -119.5t-213.5 -44.5zM574 139q157 0 263.5 111t106.5 289q0 133 -80.5 216t-208.5 83q-156 0 -262.5 -112
t-106.5 -288q0 -134 80.5 -216.5t207.5 -82.5z" />
    <glyph glyph-name="p" unicode="p" 
d="M779 1001q181 0 282.5 -116t101.5 -305q0 -120 -38 -230t-105.5 -193t-166.5 -132.5t-214 -49.5q-227 0 -331 168l-70 -495q-4 -28 -32 -28h-118q-32 0 -28 32l184 1300q4 28 32 28h109q13 0 21.5 -10.5t7.5 -24.5l-9 -120h16q55 80 146 128t212 48zM615 139
q114 0 201 60t131 156.5t44 211.5q0 126 -66 198t-187 72q-173 0 -282 -123t-109 -297q0 -128 71 -203t197 -75z" />
    <glyph glyph-name="q" unicode="q" 
d="M1118 980q13 0 22 -10.5t7 -24.5l-183 -1300q-3 -25 -29 -25h-120q-13 0 -22.5 10.5t-7.5 24.5l66 472q-44 -70 -126 -111.5t-184 -41.5q-195 0 -313.5 123t-118.5 328q0 162 71 295t192.5 207.5t267.5 74.5q104 0 182.5 -42t116.5 -115h15l15 110q3 25 29 25h120z
M572 139q98 0 176 60t119 153t41 197q0 140 -73.5 214.5t-189.5 74.5q-157 0 -259.5 -115.5t-102.5 -288.5q0 -138 78 -216.5t211 -78.5z" />
    <glyph glyph-name="r" unicode="r" 
d="M813 1002q86 0 154.5 -26t115.5 -75.5t65 -126.5t2 -173q-3 -24 -36 -27l-113 -14q-34 -3 -31 30q16 126 -42 187.5t-173 61.5q-75 0 -140.5 -25.5t-107.5 -63.5t-67.5 -73t-37.5 -64l-83 -585q-4 -28 -32 -28h-118q-32 0 -28 32l131 920q4 28 32 28h109q13 0 21 -10.5
t7 -24.5l-9 -122h17q51 76 146.5 127.5t217.5 51.5z" />
    <glyph glyph-name="s" unicode="s" 
d="M636 558q54 -6 90.5 -11.5t86 -16.5t83 -23.5t69.5 -33t57.5 -45.5t35.5 -61t14 -79q0 -101 -65.5 -174t-173.5 -107.5t-246 -34.5q-104 0 -185 16.5t-142 52t-92 95t-28 140.5q1 27 28 27h116q26 0 28 -33q8 -145 280 -145q60 0 113.5 9t97.5 27.5t69.5 50t25.5 71.5
q0 24 -8 42.5t-28 32t-39.5 22.5t-56 17t-63 12.5t-75.5 11.5q-41 6 -67.5 10t-65 11t-64 14.5t-58 20t-53.5 26t-43 33t-35 42.5t-21 52.5t-8 64.5q0 145 124.5 226t332.5 81q200 0 310 -72t108 -229q0 -27 -31 -27h-111q-26 0 -27 30q-5 80 -71 113t-183 33
q-121 0 -199.5 -38t-78.5 -115q0 -65 62.5 -94t186.5 -45z" />
    <glyph glyph-name="t" unicode="t" 
d="M1144 980q31 0 28 -32l-13 -95q-3 -28 -32 -28h-488l-64 -427q-38 -260 181 -260q115 0 240 92q11 8 23.5 6t19.5 -14l40 -81q6 -15 -8 -30q-46 -47 -140.5 -89t-206.5 -42q-50 0 -93 8t-86.5 26.5t-73.5 50t-53.5 78t-27.5 110t6 146.5l62 426h-311q-31 0 -28 32l13 95
q3 28 32 28h316l38 262q4 28 32 28h122q32 0 28 -32l-38 -258h482z" />
    <glyph glyph-name="u" unicode="u" 
d="M1112 948l-111 -771q-4 -27 7.5 -39.5t35.5 -9.5q15 2 23.5 -8t5.5 -29l-8 -50q-10 -55 -103 -55q-78 0 -107.5 46t-18.5 120l3 22h-16q-42 -82 -135.5 -137.5t-214.5 -55.5q-163 0 -254.5 108t-63.5 300l81 563q3 28 32 28h119q33 0 28 -32l-79 -549q-18 -124 37 -187
t154 -63q115 0 195 67.5t128 164.5l83 574q3 25 34 25h117q34 0 28 -32z" />
    <glyph glyph-name="v" unicode="v" 
d="M995 954q6 26 34 26h133q33 0 25 -34q-45 -186 -140.5 -364.5t-215 -311.5t-259 -214.5t-267.5 -81.5h-25q-65 0 -99 41.5t-24 104.5l101 709h-92q-31 0 -28 32l12 91q4 28 32 28h244q13 0 21.5 -10.5t6.5 -24.5l-117 -804q75 0 175 66t195 174t175 261.5t113 311.5z" />
    <glyph glyph-name="w" unicode="w" 
d="M1169 980q30 0 30 -30q0 -197 -26 -368.5t-77.5 -309.5t-136.5 -218t-195 -80q-62 0 -109.5 27.5t-69.5 82.5q-42 -55 -103.5 -83t-126.5 -28q-54 0 -96.5 16.5t-75 51.5t-44.5 96.5t0 145.5l79 546h-67q-31 0 -28 32l12 91q3 28 32 28h214q13 0 21.5 -10.5t6.5 -24.5
l-97 -650q-24 -152 83 -152q121 0 143 145l96 664q3 28 32 28h99q31 0 28 -32l-90 -665q-10 -70 3.5 -105t58.5 -35q77 0 139 113.5t94.5 297t31.5 396.5q0 30 30 30h109z" />
    <glyph glyph-name="x" unicode="x" 
d="M1067 36q10 -15 4.5 -25.5t-23.5 -10.5h-147q-24 0 -36 19l-262 361l-371 -365q-15 -15 -38 -15h-144q-20 0 -25 11t9 25l478 468l-322 440q-10 16 -5 26t23 10h146q23 0 36 -18l242 -336l341 338q15 16 37 16h144q20 0 25 -10.5t-9 -25.5l-446 -440z" />
    <glyph glyph-name="y" unicode="y" 
d="M1106 980q34 0 28 -32l-127 -868q-13 -88 -39.5 -159t-59.5 -119t-77 -84t-86.5 -56t-93.5 -32.5t-91.5 -16t-87.5 -3.5q-115 0 -203 27t-144.5 92.5t-57.5 162.5q0 30 30 30h112q23 0 31 -28q16 -71 80 -100.5t169 -29.5q67 0 120 14.5t99.5 49t77 98t43.5 154.5l19 130
h-5q-45 -82 -136 -133t-214 -51q-171 0 -260.5 98t-60.5 295l78 533q3 28 32 28h118q31 0 28 -32l-74 -519q-10 -68 0.5 -115.5t39 -72.5t65 -36t85.5 -11q66 0 123 21t97 57.5t67.5 73.5t47.5 80l76 529q3 25 34 25h117zM913 527q1 2 1 5z" />
    <glyph glyph-name="z" unicode="z" 
d="M1104 945l-13 -99q-3 -25 -16 -37l-718 -658h638q34 0 28 -32l-13 -91q-3 -28 -32 -28h-823q-13 0 -22 10.5t-7 24.5l14 99q4 27 15 38l719 657h-638q-34 0 -28 32l13 91q3 28 32 28h822q13 0 22 -10.5t7 -24.5z" />
    <glyph glyph-name="braceleft" unicode="{" 
d="M601 865q-4 -30 -12 -37l-225 -217l157 -220q12 -17 9 -38l-57 -397q-9 -64 58 -64h280q31 0 28 -32l-13 -92q-3 -28 -32 -28h-376q-67 0 -108 45.5t-31 121.5l60 432q0 3 2.5 12.5t2.5 14.5t-4 10l-161 214q-15 20 4 42l218 229q15 15 18 39l61 433q10 75 59 116t116 41
h381q31 0 28 -32l-13 -92q-3 -28 -32 -28h-277q-32 0 -56.5 -21.5t-28.5 -52.5z" />
    <glyph glyph-name="bar" unicode="|" 
d="M674 1572q3 28 32 28h127q31 0 28 -32l-270 -1920q-3 -28 -32 -28h-127q-31 0 -28 32z" />
    <glyph glyph-name="braceright" unicode="}" 
d="M737 875l57 399q9 64 -58 64h-280q-34 0 -28 32l13 92q3 28 32 28h374q66 0 108 -45.5t31 -121.5l-60 -433q0 -3 -2 -9.5t-2.5 -10t0.5 -8.5t5 -10l160 -218q15 -20 -4 -42l-217 -225q-16 -16 -19 -38l-60 -432q-10 -75 -60 -116t-117 -41h-379q-34 0 -28 32l13 92
q3 28 32 28h277q32 0 56.5 21.5t28.5 52.5l55 397q1 4 1 10t0.5 9.5t2.5 8.5t7 9l223 211l-155 226q-10 15 -7 38z" />
    <glyph glyph-name="asciitilde" unicode="~" 
d="M443 733q55 0 101 -19.5t77 -46.5t59 -54.5t62.5 -47t72.5 -19.5q56 0 92 25.5t52 59.5q11 20 33 20h67q28 0 19 -34q-22 -93 -94.5 -146.5t-175.5 -53.5q-54 0 -99.5 19.5t-76.5 47t-59.5 54.5t-62 46.5t-70.5 19.5q-98 0 -145 -86q-10 -19 -32 -19h-63q-15 0 -21 11
t-1 28q23 88 94 141.5t171 53.5z" />
    <glyph glyph-name="exclamdown" unicode="&#xa1;" 
d="M684 1066q59 0 100 -41t41 -100t-41 -101t-100 -42t-100 42t-41 101t41 100t100 41zM517 -376q-56 0 -88.5 40.5t-19.5 98.5l176 852q5 27 32 27h65q32 0 29 -31l-67 -858q-4 -58 -40.5 -93.5t-86.5 -35.5z" />
    <glyph glyph-name="cent" unicode="&#xa2;" 
d="M1115 903q14 -26 -13 -40l-96 -48q-25 -12 -41 13q-65 113 -198 137l-95 -676q160 18 261 150q17 24 42 7l81 -52q25 -15 8 -41q-71 -100 -179 -160t-236 -67l-25 -178q-4 -28 -32 -28h-72q-32 0 -28 32l26 182q-161 31 -259 153t-98 291q0 108 39 206t106 170
t158.5 118.5t193.5 56.5l34 243q4 28 32 28h72q32 0 28 -32l-34 -242q109 -16 193 -74t132 -149zM336 579q0 -107 55.5 -182.5t149.5 -100.5l94 668q-131 -25 -215 -129.5t-84 -255.5z" />
    <glyph glyph-name="sterling" unicode="&#xa3;" 
d="M1171 1083q0 -28 -1 -39t-8.5 -22t-24.5 -11l-113 -3q-30 0 -29 30q4 108 -63 161.5t-196 53.5q-145 0 -226 -78.5t-81 -216.5q0 -31 6 -63.5t12 -50.5t20.5 -55t19.5 -50h478q31 0 28 -32l-16 -106q-3 -28 -32 -28h-427v-9q0 -244 -176 -394h667q32 0 28 -32l-16 -110
q-3 -28 -32 -28h-888q-31 0 -28 32l15 116q2 19 25 34q109 63 171.5 159t62.5 213v19h-159q-31 0 -28 32l16 106q3 28 32 28h99q-16 45 -24 70t-16.5 69.5t-8.5 87.5q0 216 133 333t364 117q197 0 306.5 -85t109.5 -248z" />
    <glyph glyph-name="currency" unicode="&#xa4;" 
d="M1076 1210q53 -92 53 -203q0 -178 -121 -320l80 -91l-104 -92l-79 90q-131 -90 -281 -90q-154 0 -263 93l-105 -93l-84 92l109 97q-54 91 -54 205q0 182 125 323l-79 90l104 92l79 -90q128 87 276 87q156 0 264 -94l109 97l84 -92zM636 622q150 0 263.5 114t113.5 257
q0 118 -83 204t-209 86q-150 0 -263 -115.5t-113 -257.5q0 -118 82.5 -203t208.5 -85z" />
    <glyph glyph-name="yen" unicode="&#xa5;" 
d="M1255 1400q18 0 23 -10t-5 -26l-504 -737h279q34 0 28 -32l-13 -86q-3 -28 -32 -28h-323l-12 -85h319q34 0 28 -32l-12 -86q-3 -28 -32 -28h-324l-32 -222q-3 -28 -32 -28h-127q-31 0 -28 32l31 218h-315q-34 0 -28 32l13 86q3 28 32 28h319l13 85h-316q-34 0 -28 32
l12 86q3 28 32 28h282l-299 739q-6 16 0.5 25t23.5 9h130q27 0 35 -24l252 -645l439 649q12 20 38 20h133z" />
    <glyph glyph-name="brokenbar" unicode="&#xa6;" 
d="M833 1600q32 0 28 -32l-80 -560q-3 -28 -32 -28h-127q-34 0 -28 32l80 560q3 28 32 28h127zM641 240q32 0 28 -32l-78 -560q-3 -28 -32 -28h-127q-34 0 -28 32l78 560q3 28 32 28h127z" />
    <glyph glyph-name="section" unicode="&#xa7;" 
d="M734 1600q220 0 335.5 -88t108.5 -258q-1 -22 -28 -22h-106q-31 0 -33 34q-4 76 -76.5 121.5t-205.5 45.5q-139 0 -222.5 -68.5t-83.5 -190.5q0 -79 53.5 -124.5t176.5 -72.5q87 -18 149.5 -35.5t134 -48.5t116 -68.5t74 -96t29.5 -131.5q0 -94 -41 -185.5t-114 -151.5
q37 -63 37 -148q0 -207 -149.5 -320t-394.5 -113q-233 0 -352.5 88.5t-112.5 261.5q2 28 25 28h122q27 0 29 -40q5 -81 80 -125t215 -44q164 0 259.5 65t95.5 193q0 36 -12.5 63t-32 45.5t-58.5 35.5t-76.5 28t-100.5 27q-55 13 -98 25t-92 31t-86 40t-72 51t-57.5 65
t-36 82t-13.5 101q0 200 154 326q-30 63 -30 141q0 203 134 318t356 115zM646 811q-157 35 -246 87q-49 -33 -75 -86.5t-26 -115.5q0 -50 19.5 -87t60.5 -62.5t86.5 -42t116.5 -33.5q183 -38 281 -89q54 38 83.5 93t29.5 116q0 23 -5.5 43t-13.5 35.5t-25 30t-30 24.5
t-40.5 21.5t-44.5 18t-53 17t-56 15t-62 15.5z" />
    <glyph glyph-name="dieresis" unicode="&#xa8;" 
d="M541 1221q-41 0 -70.5 29.5t-29.5 71.5q0 40 29.5 69t70.5 29t70.5 -29t29.5 -69q0 -42 -29.5 -71.5t-70.5 -29.5zM924 1221q-41 0 -70.5 29.5t-29.5 71.5q0 40 29.5 69t70.5 29t70.5 -29t29.5 -69q0 -42 -29.5 -71.5t-70.5 -29.5z" />
    <glyph glyph-name="copyright" unicode="&#xa9;" 
d="M571 112q-218 0 -362 144t-144 358q0 126 52.5 244t140 205.5t207.5 140t249 52.5q219 0 362.5 -143.5t143.5 -356.5q0 -168 -87.5 -316.5t-238 -238t-323.5 -89.5zM579 239q134 0 251.5 71t187 191t69.5 257q0 159 -107.5 265.5t-273.5 106.5q-134 0 -252 -70
t-188 -187.5t-70 -251.5q0 -166 108 -274t275 -108zM804 426q-84 -63 -190 -63q-124 0 -203 78.5t-79 201.5q0 149 106.5 254.5t248.5 105.5q111 0 185 -69l-79 -76q-47 30 -105 30q-99 0 -168.5 -69t-69.5 -174q0 -72 48.5 -120t121.5 -48q60 0 119 34z" />
    <glyph glyph-name="ordfeminine" unicode="&#xaa;" 
d="M988 1400h115l-102 -718h-112l-8 83q-96 -83 -226 -83q-141 0 -232.5 91.5t-91.5 228.5q0 108 57 202.5t151.5 150t200.5 55.5q139 0 217 -92zM662 814q108 0 190 80t82 188q0 85 -57 141t-144 56q-108 0 -189 -80.5t-81 -190.5q0 -83 56.5 -138.5t142.5 -55.5z" />
    <glyph glyph-name="guillemotleft" unicode="&#xab;" 
d="M651 980q18 0 24 -10.5t-6 -25.5l-311 -382l202 -382q7 -15 1 -25.5t-23 -10.5h-131q-25 0 -36 22l-201 374q-12 21 4 42l310 380q15 18 36 18h131zM1114 980q18 0 24 -10.5t-6 -25.5l-304 -382l195 -382q7 -15 1 -25.5t-23 -10.5h-131q-25 0 -36 22l-201 374
q-12 21 4 42l310 380q15 18 36 18h131z" />
    <glyph glyph-name="logicalnot" unicode="&#xac;" 
d="M118 581q3 28 32 28h960q31 0 28 -32l-38 -270q-3 -28 -32 -28h-121q-31 0 -28 32l20 147h-806q-31 0 -28 32z" />
    <glyph glyph-name="uni00AD" unicode="&#xad;" 
d="M1094 639q31 0 28 -32l-13 -93q-3 -28 -32 -28h-920q-31 0 -28 32l13 93q3 28 32 28h920z" />
    <glyph glyph-name="registered" unicode="&#xae;" 
d="M714 1256q219 0 362.5 -143.5t143.5 -356.5q0 -168 -87.5 -316.5t-238 -238t-323.5 -89.5q-218 0 -362 144t-144 358q0 126 52.5 244t140 205.5t207.5 140t249 52.5zM579 239q134 0 251.5 71t187 191t69.5 257q0 159 -107.5 265.5t-273.5 106.5q-134 0 -252 -70
t-188 -187.5t-70 -251.5q0 -166 108 -274t275 -108zM722 971q110 0 166 -53t42 -147q-10 -75 -62 -119.5t-139 -55.5l141 -178q6 -8 3 -13.5t-15 -5.5h-85q-11 0 -26 17l-137 177h-114l-25 -174q-3 -20 -20 -20h-76q-8 0 -12.5 7.5t-2.5 15.5l74 536q3 13 17 13h271z
M820 787q5 40 -19.5 60.5t-83.5 20.5h-182l-25 -175h174q59 0 95 26.5t41 67.5z" />
    <glyph glyph-name="macron" unicode="&#xaf;" 
d="M996 1400q31 0 28 -32l-13 -85q-3 -28 -32 -28h-510q-31 0 -28 32l13 85q3 28 32 28h510z" />
    <glyph glyph-name="degree" unicode="&#xb0;" 
d="M736 1410q124 0 201.5 -75.5t77.5 -194.5q0 -151 -103 -252.5t-247 -101.5q-123 0 -201 76t-78 197q0 149 103.5 250t246.5 101zM731 1288q-93 0 -157 -63.5t-64 -159.5q0 -70 44 -112.5t118 -42.5q92 0 155 64.5t63 163.5q0 67 -43.5 108.5t-115.5 41.5z" />
    <glyph glyph-name="plusminus" unicode="&#xb1;" 
d="M1020 735q31 0 28 -32l-13 -86q-3 -28 -32 -28h-300l-43 -302q-3 -28 -32 -28h-86q-31 0 -28 32l42 298h-297q-31 0 -28 32l12 86q3 28 32 28h302l42 301q3 28 32 28h86q31 0 28 -32l-42 -297h297zM938 146q31 0 28 -32l-13 -86q-3 -28 -32 -28h-744q-31 0 -28 32l12 86
q3 28 32 28h745z" />
    <glyph glyph-name="uni00B2" unicode="&#xb2;" 
d="M1011 357q31 0 28 -32l-13 -87q-3 -28 -32 -28l-843 -3q-31 0 -28 32l14 96q12 86 61.5 150.5t119 103t151.5 67t162.5 50t148 44t112.5 56.5t52 80q11 81 -46.5 118.5t-195.5 37.5q-280 0 -326 -181q-8 -28 -34 -24l-108 17q-30 3 -25 34q32 161 155 236.5t337 75.5
q220 0 328 -85t86 -241q-10 -71 -56 -124.5t-112 -85.5t-144 -57.5t-155.5 -47t-142.5 -46.5t-109 -64t-52 -92h667z" />
    <glyph glyph-name="uni00B3" unicode="&#xb3;" 
d="M890 701q55 -12 95.5 -29.5t73 -45.5t45.5 -71.5t5 -101.5q-10 -76 -52.5 -129t-115 -83.5t-161.5 -43.5t-206 -13q-235 0 -348 64t-101 224q3 29 32 29l116 3q29 0 29 -30q1 -79 66 -106.5t210 -27.5q77 0 134 6t106.5 21t77.5 44.5t34 72.5q12 83 -70.5 114t-301.5 33
q-34 0 -31 32l7 69q3 28 32 28q139 2 226.5 21t127 51.5t46.5 81.5q10 71 -59 101.5t-209 30.5q-136 0 -215.5 -38.5t-103.5 -131.5q-9 -28 -36 -24l-113 17q-29 5 -25 34q17 82 58 140.5t106.5 92.5t146.5 49t186 15q228 0 342.5 -69.5t94.5 -209.5q-12 -84 -79 -139.5
t-170 -80.5z" />
    <glyph glyph-name="acute" unicode="&#xb4;" 
d="M595 1150q-18 0 -23.5 10.5t3.5 25.5l159 254q11 20 36 20h94q18 0 23.5 -10.5t-3.5 -25.5l-158 -254q-11 -20 -36 -20h-95z" />
    <glyph glyph-name="uni00B5" unicode="&#xb5;" 
d="M1112 948l-111 -771q-4 -27 7.5 -39.5t35.5 -9.5q15 2 23.5 -8t5.5 -29l-8 -50q-10 -55 -103 -55q-78 0 -107.5 46t-18.5 120l3 22h-16q-42 -82 -135.5 -137.5t-214.5 -55.5q-110 0 -189 50l-54 -386q-3 -25 -32 -25h-120q-13 0 -20 10.5t-5 24.5l97 685q1 14 5 49
l81 563q3 28 32 28h119q33 0 28 -32l-79 -549q-18 -124 37 -187t154 -63q115 0 195 67.5t128 164.5l83 574q3 25 34 25h117q34 0 28 -32z" />
    <glyph glyph-name="paragraph" unicode="&#xb6;" 
d="M133 971q16 114 42 188t76.5 131.5t132 83.5t202.5 26h249q31 0 28 -32l-188 -1340q-3 -28 -32 -28h-114q-31 0 -28 32l68 489h-98q-159 0 -241.5 51.5t-99.5 151.5t3 247zM999 1372q3 28 32 28h115q31 0 28 -32l-188 -1340q-3 -28 -32 -28h-115q-31 0 -28 32z" />
    <glyph glyph-name="periodcentered" unicode="&#xb7;" 
d="M578 457q-59 0 -100 41t-41 100t41 101t100 42t100 -42t41 -101t-41 -100t-100 -41z" />
    <glyph glyph-name="cedilla" unicode="&#xb8;" 
d="M567 -75q69 -6 117.5 -48t48.5 -109q0 -80 -48.5 -129.5t-118 -63t-148.5 -0.5q-18 3 -18 22v65q0 10 6 15.5t16 4.5q82 -11 128.5 9.5t46.5 65.5q0 42 -51.5 60.5t-121.5 -8.5q-10 -4 -17 -0.5t-7 14.5v64q0 14 10 24l86 89h146z" />
    <glyph glyph-name="uni00B9" unicode="&#xb9;" 
d="M1015 361q31 0 28 -32l-13 -91q-4 -28 -32 -28h-839q-31 0 -28 32l13 91q3 28 32 28h366l93 644q-136 -113 -332 -123q-33 0 -30 32l10 104q3 28 27 29q173 7 345 143h150q31 0 28 -32l-112 -797h294z" />
    <glyph glyph-name="ordmasculine" unicode="&#xba;" 
d="M651 682q-141 0 -232.5 91.5t-91.5 228.5q0 108 57 202.5t151.5 150t200.5 55.5q141 0 232 -91.5t91 -228.5q0 -108 -57 -202.5t-151 -150t-200 -55.5zM662 814q107 0 187.5 78.5t80.5 185.5q0 86 -58.5 143.5t-146.5 57.5q-107 0 -186.5 -79.5t-79.5 -187.5
q0 -85 58 -141.5t145 -56.5z" />
    <glyph glyph-name="guillemotright" unicode="&#xbb;" 
d="M227 944q-7 15 -1 25.5t23 10.5h130q25 0 36 -22l202 -374q13 -22 -4 -42l-311 -380q-15 -18 -36 -18h-130q-18 0 -24 10.5t6 25.5l311 382zM690 944q-7 15 -1 25.5t23 10.5h130q25 0 36 -22l202 -374q13 -22 -4 -42l-311 -380q-15 -18 -36 -18h-130q-18 0 -24 10.5
t6 25.5l311 382z" />
    <glyph glyph-name="onequarter" unicode="&#xbc;" 
d="M249 763q-31 0 -28 28l13 77q3 24 32 24h366l93 550q-137 -97 -332 -105q-33 0 -30 27l10 89q3 24 27 25q174 6 345 122h150q31 0 28 -28l-112 -680h294q31 0 28 -27l-13 -78q-4 -24 -32 -24h-839zM1180 679q34 0 28 -32l-12 -73q-3 -28 -32 -28h-1080q-32 0 -28 32
l12 73q3 28 32 28h1080zM1030 55q16 0 23 -6.5t5 -20.5l-15 -81q-3 -24 -32 -24h-141l-44 -279q-3 -24 -32 -24h-120q-31 0 -28 28l44 275h-629q-31 0 -28 28l80 491q3 25 32 25h120q31 0 28 -28l-62 -384h480l63 387q3 25 32 25h120q31 0 28 -28l-63 -384h139z" />
    <glyph glyph-name="onehalf" unicode="&#xbd;" 
d="M249 763q-31 0 -28 28l13 77q3 24 32 24h366l93 550q-137 -97 -332 -105q-33 0 -30 27l10 89q3 24 27 25q174 6 345 122h150q31 0 28 -28l-112 -680h294q31 0 28 -27l-13 -78q-4 -24 -32 -24h-839zM1180 679q34 0 28 -32l-12 -73q-3 -28 -32 -28h-1080q-32 0 -28 32
l12 73q3 28 32 28h1080zM620 465q220 0 328 -72.5t86 -205.5q-10 -60 -56 -106t-112 -73.5t-144 -49t-155.5 -40t-142.5 -40t-109 -55t-52 -78.5h667q31 0 28 -27l-13 -74q-3 -24 -32 -24l-843 -3q-31 0 -28 28l14 82q12 73 61.5 128.5t119 88t151.5 57t162.5 42.5t148 37
t112.5 48.5t52 68.5q11 69 -46.5 101t-195.5 32q-280 0 -326 -154q-7 -24 -34 -21l-108 15q-30 2 -25 29q32 138 155 202t337 64z" />
    <glyph glyph-name="threequarters" unicode="&#xbe;" 
d="M957 1184q116 -21 175.5 -69t43.5 -142q-10 -65 -52.5 -110.5t-115 -71t-161.5 -37t-206 -11.5q-115 0 -197 11.5t-143 39t-88 76t-21 119.5q3 25 32 25l116 2q29 0 29 -25q1 -68 66 -91.5t210 -23.5q160 0 250 26.5t102 96.5q12 71 -70 97.5t-302 28.5q-34 0 -31 27
l7 59q3 24 32 24q205 2 297.5 34.5t102.5 96.5q10 61 -59 87t-209 26q-136 0 -215.5 -33t-103.5 -112q-9 -24 -36 -21l-113 15q-30 3 -25 29q17 70 58 119.5t106.5 78.5t146.5 42t186 13q228 0 342.5 -59t94.5 -179q-24 -139 -249 -188zM1180 679q34 0 28 -32l-12 -73
q-3 -28 -32 -28h-1080q-32 0 -28 32l12 73q3 28 32 28h1080zM911 55h139q16 0 23 -6.5t5 -20.5l-15 -81q-3 -24 -32 -24h-141l-44 -279q-3 -24 -32 -24h-120q-31 0 -28 28l44 275h-629q-31 0 -28 28l80 491q3 25 32 25h120q31 0 28 -28l-62 -384h480l63 387q3 25 32 25h120
q31 0 28 -28z" />
    <glyph glyph-name="questiondown" unicode="&#xbf;" 
d="M714 1066q59 0 100 -41t41 -100t-41 -101t-100 -42t-100 42t-41 101t41 100t100 41zM747 665q32 0 26 -34q-17 -104 -53 -179t-79 -115.5t-92 -68.5t-96 -48.5t-87 -44t-68.5 -65.5t-37.5 -104q-14 -100 45.5 -159.5t197.5 -59.5q142 0 228 61.5t106 176.5q3 26 37 22
l107 -12q29 -3 23 -38q-26 -183 -155.5 -278t-348.5 -95q-223 0 -328 108t-79 293q9 65 29.5 114.5t48.5 80.5t61 55t69.5 41.5t72.5 35t71 41t64 54t52 79t35 111.5q3 28 32 28h119z" />
    <glyph glyph-name="Agrave" unicode="&#xc0;" 
d="M674 1534l-84 252q-10 34 24 34h93q26 0 34 -24l85 -252q10 -34 -24 -34h-94q-26 0 -34 24zM1096 32q3 -32 -28 -32h-128q-29 0 -32 28l-39 265h-557l-116 -270q-11 -23 -35 -23h-133q-17 0 -23.5 9.5t0.5 25.5l583 1342q11 23 35 23h235q29 0 33 -27zM381 456h464
l-111 752h-31z" />
    <glyph glyph-name="Aacute" unicode="&#xc1;" 
d="M715 1510q-18 0 -23.5 10.5t3.5 25.5l159 254q11 20 36 20h94q18 0 23.5 -10.5t-3.5 -25.5l-158 -254q-11 -20 -36 -20h-95zM1096 32q3 -32 -28 -32h-128q-29 0 -32 28l-39 265h-557l-116 -270q-11 -23 -35 -23h-133q-17 0 -23.5 9.5t0.5 25.5l583 1342q11 23 35 23h235
q29 0 33 -27zM381 456h464l-111 752h-31z" />
    <glyph glyph-name="Acircumflex" unicode="&#xc2;" 
d="M1119 1585q11 -15 5.5 -25.5t-23.5 -10.5h-132q-21 0 -36 18l-141 170l-193 -174q-14 -14 -38 -14h-132q-20 0 -25 10.5t10 25.5l266 257q14 14 38 14h174q24 0 36 -18zM891 1373l205 -1341q3 -32 -28 -32h-128q-29 0 -32 28l-39 265h-557l-116 -270q-11 -23 -35 -23
h-133q-17 0 -23.5 9.5t0.5 25.5l583 1342q11 23 35 23h235q29 0 33 -27zM381 456h464l-111 752h-31z" />
    <glyph glyph-name="Atilde" unicode="&#xc3;" 
d="M1103 1798q9 0 15 -5.5t5 -14.5q-9 -82 -59 -126t-127 -44q-41 0 -77.5 14.5t-62.5 35t-50.5 40.5t-51.5 34.5t-54 14.5q-67 0 -91 -61q-6 -17 -22 -17h-52q-21 0 -18 24q10 80 59 123t128 43q50 0 94 -21.5t71 -48t62 -48t69 -21.5q64 0 88 61q6 17 22 17h52zM891 1373
l205 -1341q3 -32 -28 -32h-128q-29 0 -32 28l-39 265h-557l-116 -270q-11 -23 -35 -23h-133q-17 0 -23.5 9.5t0.5 25.5l583 1342q11 23 35 23h235q29 0 33 -27zM381 456h464l-111 752h-31z" />
    <glyph glyph-name="Adieresis" unicode="&#xc4;" 
d="M601 1641q-41 0 -70.5 29.5t-29.5 71.5q0 40 29.5 69t70.5 29t70.5 -29t29.5 -69q0 -42 -29.5 -71.5t-70.5 -29.5zM984 1641q-41 0 -70.5 29.5t-29.5 71.5q0 40 29.5 69t70.5 29t70.5 -29t29.5 -69q0 -42 -29.5 -71.5t-70.5 -29.5zM1096 32q3 -32 -28 -32h-128
q-29 0 -32 28l-39 265h-557l-116 -270q-11 -23 -35 -23h-133q-17 0 -23.5 9.5t0.5 25.5l583 1342q11 23 35 23h235q29 0 33 -27zM381 456h464l-111 752h-31z" />
    <glyph glyph-name="Aring" unicode="&#xc5;" 
d="M783 1519q-77 0 -130 53.5t-53 127.5t53 127.5t130 53.5t130 -53.5t53 -127.5t-53 -127.5t-130 -53.5zM783 1771q-30 0 -51 -20.5t-21 -50.5t21 -50t51 -20t51.5 20t21.5 50q-1 31 -22 51t-51 20zM1096 32q3 -32 -28 -32h-128q-29 0 -32 28l-39 265h-557l-116 -270
q-11 -23 -35 -23h-133q-17 0 -23.5 9.5t0.5 25.5l583 1342q11 23 35 23h235q29 0 33 -27zM381 456h464l-111 752h-31z" />
    <glyph glyph-name="AE" unicode="&#xc6;" 
d="M1281 1400q33 0 28 -32l-16 -110q-4 -28 -32 -28h-353l-57 -408h306q32 0 27 -32l-15 -110q-4 -28 -32 -28h-310l-68 -482h351q33 0 28 -32l-16 -110q-4 -28 -32 -28h-503q-33 0 -28 32l25 178h-329l-95 -188q-12 -22 -35 -22h-121q-17 0 -23.5 10.5t1.5 25.5l701 1343
q12 21 35 21h563zM337 373h270l105 745z" />
    <glyph glyph-name="Ccedilla" unicode="&#xc7;" 
d="M744 1420q229 0 331 -85.5t100 -288.5q0 -28 -30 -28h-116q-13 0 -21 10t-9 27q-6 112 -64 148.5t-197 36.5q-69 0 -118 -10.5t-96 -40.5t-79 -84t-59 -142t-44 -214l-17 -118q-15 -105 -17.5 -182.5t9 -130.5t30.5 -86.5t54 -51t73 -24t94 -6.5q146 0 220.5 41.5
t107.5 156.5q7 27 35 27h123q15 0 22 -10.5t2 -27.5q-49 -194 -162.5 -277t-316.5 -89l-46 -46q69 -6 117.5 -48t48.5 -109q0 -80 -48.5 -129.5t-118 -63t-148.5 -0.5q-18 3 -18 22v65q0 10 6 15.5t16 4.5q82 -11 128.5 9.5t46.5 65.5q0 42 -51.5 60.5t-121.5 -8.5
q-10 -4 -17 -0.5t-7 14.5v64q0 14 10 24l61 64q-85 9 -145.5 35t-104 76t-62.5 125.5t-21 182.5t20 247l17 119q27 196 72.5 323.5t118 202.5t165 104.5t227.5 29.5z" />
    <glyph glyph-name="Egrave" unicode="&#xc8;" 
d="M826 1544q10 -34 -24 -34h-94q-26 0 -34 24l-84 252q-10 34 24 34h93q26 0 34 -24zM991 170q31 0 28 -32l-15 -110q-3 -28 -32 -28h-845q-31 0 -28 32l188 1340q3 28 32 28h843q31 0 28 -32l-16 -110q-3 -28 -32 -28h-688l-57 -408h631q31 0 28 -32l-16 -110
q-3 -28 -32 -28h-635l-68 -482h686z" />
    <glyph glyph-name="Eacute" unicode="&#xc9;" 
d="M715 1510q-18 0 -23.5 10.5t3.5 25.5l159 254q11 20 36 20h94q18 0 23.5 -10.5t-3.5 -25.5l-158 -254q-11 -20 -36 -20h-95zM991 170q31 0 28 -32l-15 -110q-3 -28 -32 -28h-845q-31 0 -28 32l188 1340q3 28 32 28h843q31 0 28 -32l-16 -110q-3 -28 -32 -28h-688
l-57 -408h631q31 0 28 -32l-16 -110q-3 -28 -32 -28h-635l-68 -482h686z" />
    <glyph glyph-name="Ecircumflex" unicode="&#xca;" 
d="M792 1737l-193 -174q-14 -14 -38 -14h-132q-20 0 -25 10.5t10 25.5l266 257q14 14 38 14h174q24 0 36 -18l191 -253q11 -15 5.5 -25.5t-23.5 -10.5h-132q-21 0 -36 18zM991 170q31 0 28 -32l-15 -110q-3 -28 -32 -28h-845q-31 0 -28 32l188 1340q3 28 32 28h843
q31 0 28 -32l-16 -110q-3 -28 -32 -28h-688l-57 -408h631q31 0 28 -32l-16 -110q-3 -28 -32 -28h-635l-68 -482h686z" />
    <glyph glyph-name="Edieresis" unicode="&#xcb;" 
d="M601 1641q-41 0 -70.5 29.5t-29.5 71.5q0 40 29.5 69t70.5 29t70.5 -29t29.5 -69q0 -42 -29.5 -71.5t-70.5 -29.5zM984 1641q-41 0 -70.5 29.5t-29.5 71.5q0 40 29.5 69t70.5 29t70.5 -29t29.5 -69q0 -42 -29.5 -71.5t-70.5 -29.5zM991 170q31 0 28 -32l-15 -110
q-3 -28 -32 -28h-845q-31 0 -28 32l188 1340q3 28 32 28h843q31 0 28 -32l-16 -110q-3 -28 -32 -28h-688l-57 -408h631q31 0 28 -32l-16 -110q-3 -28 -32 -28h-635l-68 -482h686z" />
    <glyph glyph-name="Igrave" unicode="&#xcc;" 
d="M826 1544q10 -34 -24 -34h-94q-26 0 -34 24l-84 252q-10 34 24 34h93q26 0 34 -24zM1202 1258q-3 -28 -32 -28h-357l-149 -1060h353q34 0 28 -32l-16 -110q-3 -28 -32 -28h-898q-31 0 -28 32l16 110q3 28 32 28h358l149 1060h-354q-31 0 -28 32l15 110q3 28 32 28h898
q34 0 28 -32z" />
    <glyph glyph-name="Iacute" unicode="&#xcd;" 
d="M715 1510q-18 0 -23.5 10.5t3.5 25.5l159 254q11 20 36 20h94q18 0 23.5 -10.5t-3.5 -25.5l-158 -254q-11 -20 -36 -20h-95zM1202 1258q-3 -28 -32 -28h-357l-149 -1060h353q34 0 28 -32l-16 -110q-3 -28 -32 -28h-898q-31 0 -28 32l16 110q3 28 32 28h358l149 1060h-354
q-31 0 -28 32l15 110q3 28 32 28h898q34 0 28 -32z" />
    <glyph glyph-name="Icircumflex" unicode="&#xce;" 
d="M792 1737l-193 -174q-14 -14 -38 -14h-132q-20 0 -25 10.5t10 25.5l266 257q14 14 38 14h174q24 0 36 -18l191 -253q11 -15 5.5 -25.5t-23.5 -10.5h-132q-21 0 -36 18zM1202 1258q-3 -28 -32 -28h-357l-149 -1060h353q34 0 28 -32l-16 -110q-3 -28 -32 -28h-898
q-31 0 -28 32l16 110q3 28 32 28h358l149 1060h-354q-31 0 -28 32l15 110q3 28 32 28h898q34 0 28 -32z" />
    <glyph glyph-name="Idieresis" unicode="&#xcf;" 
d="M601 1641q-41 0 -70.5 29.5t-29.5 71.5q0 40 29.5 69t70.5 29t70.5 -29t29.5 -69q0 -42 -29.5 -71.5t-70.5 -29.5zM984 1641q-41 0 -70.5 29.5t-29.5 71.5q0 40 29.5 69t70.5 29t70.5 -29t29.5 -69q0 -42 -29.5 -71.5t-70.5 -29.5zM1202 1258q-3 -28 -32 -28h-357
l-149 -1060h353q34 0 28 -32l-16 -110q-3 -28 -32 -28h-898q-31 0 -28 32l16 110q3 28 32 28h358l149 1060h-354q-31 0 -28 32l15 110q3 28 32 28h898q34 0 28 -32z" />
    <glyph glyph-name="Eth" unicode="&#xd0;" 
d="M644 1400q144 0 245 -33t160.5 -98t86 -152.5t26.5 -205.5q0 -174 -25 -314.5t-78.5 -253t-136 -188t-199.5 -115.5t-267 -40h-352q-31 0 -28 32l188 1340q3 28 32 28h348zM472 170q112 0 198 34.5t143 97.5t93.5 157t52.5 205.5t16 250.5q0 162 -76.5 238.5t-268.5 76.5
h-198l-65 -460h411q31 0 28 -32l-13 -85q-3 -28 -32 -28h-414l-64 -455h189z" />
    <glyph glyph-name="Ntilde" unicode="&#xd1;" 
d="M645 1859q50 0 94 -21.5t71 -48t62 -48t69 -21.5q64 0 88 61q6 17 22 17h52q9 0 15 -5.5t5 -14.5q-9 -82 -59 -126t-127 -44q-41 0 -77.5 14.5t-62.5 35t-50.5 40.5t-51.5 34.5t-54 14.5q-67 0 -91 -61q-6 -17 -22 -17h-52q-21 0 -18 24q10 80 59 123t128 43zM1037 1372
q4 28 32 28h116q32 0 28 -32l-188 -1340q-4 -28 -32 -28h-170q-25 0 -34 24l-382 1104l-154 -1100q-4 -28 -32 -28h-117q-32 0 -28 32l188 1340q4 28 32 28h170q26 0 34 -24l381 -1100z" />
    <glyph glyph-name="Ograve" unicode="&#xd2;" 
d="M826 1544q10 -34 -24 -34h-94q-26 0 -34 24l-84 252q-10 34 24 34h93q26 0 34 -24zM738 1420q90 0 157 -13t120.5 -44t86 -81.5t49.5 -125t15.5 -175t-19.5 -231.5l-17 -119q-28 -196 -73 -324t-117.5 -203t-164 -104.5t-225.5 -29.5q-90 0 -157 13.5t-120.5 44.5t-86 81
t-49.5 125t-15.5 175.5t19.5 231.5l17 119q22 158 56.5 270.5t81 188.5t112.5 120t144.5 62.5t185.5 18.5zM729 1240q-71 0 -119.5 -10t-94 -39.5t-76.5 -84t-56.5 -142.5t-43.5 -215l-17 -118q-15 -106 -18.5 -183.5t7 -130.5t28.5 -86t52.5 -51t72.5 -24t95 -6
q71 0 119.5 10t94 40t76.5 84.5t56.5 142t43.5 214.5l17 118q18 128 17.5 214.5t-14.5 139.5t-50 81t-78.5 37t-111.5 9z" />
    <glyph glyph-name="Oacute" unicode="&#xd3;" 
d="M715 1510q-18 0 -23.5 10.5t3.5 25.5l159 254q11 20 36 20h94q18 0 23.5 -10.5t-3.5 -25.5l-158 -254q-11 -20 -36 -20h-95zM738 1420q90 0 157 -13t120.5 -44t86 -81.5t49.5 -125t15.5 -175t-19.5 -231.5l-17 -119q-28 -196 -73 -324t-117.5 -203t-164 -104.5
t-225.5 -29.5q-90 0 -157 13.5t-120.5 44.5t-86 81t-49.5 125t-15.5 175.5t19.5 231.5l17 119q22 158 56.5 270.5t81 188.5t112.5 120t144.5 62.5t185.5 18.5zM729 1240q-71 0 -119.5 -10t-94 -39.5t-76.5 -84t-56.5 -142.5t-43.5 -215l-17 -118q-15 -106 -18.5 -183.5
t7 -130.5t28.5 -86t52.5 -51t72.5 -24t95 -6q71 0 119.5 10t94 40t76.5 84.5t56.5 142t43.5 214.5l17 118q18 128 17.5 214.5t-14.5 139.5t-50 81t-78.5 37t-111.5 9z" />
    <glyph glyph-name="Ocircumflex" unicode="&#xd4;" 
d="M792 1737l-193 -174q-14 -14 -38 -14h-132q-20 0 -25 10.5t10 25.5l266 257q14 14 38 14h174q24 0 36 -18l191 -253q11 -15 5.5 -25.5t-23.5 -10.5h-132q-21 0 -36 18zM738 1420q90 0 157 -13t120.5 -44t86 -81.5t49.5 -125t15.5 -175t-19.5 -231.5l-17 -119
q-28 -196 -73 -324t-117.5 -203t-164 -104.5t-225.5 -29.5q-90 0 -157 13.5t-120.5 44.5t-86 81t-49.5 125t-15.5 175.5t19.5 231.5l17 119q22 158 56.5 270.5t81 188.5t112.5 120t144.5 62.5t185.5 18.5zM729 1240q-71 0 -119.5 -10t-94 -39.5t-76.5 -84t-56.5 -142.5
t-43.5 -215l-17 -118q-15 -106 -18.5 -183.5t7 -130.5t28.5 -86t52.5 -51t72.5 -24t95 -6q71 0 119.5 10t94 40t76.5 84.5t56.5 142t43.5 214.5l17 118q18 128 17.5 214.5t-14.5 139.5t-50 81t-78.5 37t-111.5 9z" />
    <glyph glyph-name="Otilde" unicode="&#xd5;" 
d="M645 1859q50 0 94 -21.5t71 -48t62 -48t69 -21.5q64 0 88 61q6 17 22 17h52q9 0 15 -5.5t5 -14.5q-9 -82 -59 -126t-127 -44q-41 0 -77.5 14.5t-62.5 35t-50.5 40.5t-51.5 34.5t-54 14.5q-67 0 -91 -61q-6 -17 -22 -17h-52q-21 0 -18 24q10 80 59 123t128 43zM738 1420
q90 0 157 -13t120.5 -44t86 -81.5t49.5 -125t15.5 -175t-19.5 -231.5l-17 -119q-28 -196 -73 -324t-117.5 -203t-164 -104.5t-225.5 -29.5q-90 0 -157 13.5t-120.5 44.5t-86 81t-49.5 125t-15.5 175.5t19.5 231.5l17 119q22 158 56.5 270.5t81 188.5t112.5 120t144.5 62.5
t185.5 18.5zM729 1240q-71 0 -119.5 -10t-94 -39.5t-76.5 -84t-56.5 -142.5t-43.5 -215l-17 -118q-15 -106 -18.5 -183.5t7 -130.5t28.5 -86t52.5 -51t72.5 -24t95 -6q71 0 119.5 10t94 40t76.5 84.5t56.5 142t43.5 214.5l17 118q18 128 17.5 214.5t-14.5 139.5t-50 81
t-78.5 37t-111.5 9z" />
    <glyph glyph-name="Odieresis" unicode="&#xd6;" 
d="M601 1641q-41 0 -70.5 29.5t-29.5 71.5q0 40 29.5 69t70.5 29t70.5 -29t29.5 -69q0 -42 -29.5 -71.5t-70.5 -29.5zM984 1641q-41 0 -70.5 29.5t-29.5 71.5q0 40 29.5 69t70.5 29t70.5 -29t29.5 -69q0 -42 -29.5 -71.5t-70.5 -29.5zM738 1420q90 0 157 -13t120.5 -44
t86 -81.5t49.5 -125t15.5 -175t-19.5 -231.5l-17 -119q-28 -196 -73 -324t-117.5 -203t-164 -104.5t-225.5 -29.5q-90 0 -157 13.5t-120.5 44.5t-86 81t-49.5 125t-15.5 175.5t19.5 231.5l17 119q22 158 56.5 270.5t81 188.5t112.5 120t144.5 62.5t185.5 18.5zM729 1240
q-71 0 -119.5 -10t-94 -39.5t-76.5 -84t-56.5 -142.5t-43.5 -215l-17 -118q-15 -106 -18.5 -183.5t7 -130.5t28.5 -86t52.5 -51t72.5 -24t95 -6q71 0 119.5 10t94 40t76.5 84.5t56.5 142t43.5 214.5l17 118q18 128 17.5 214.5t-14.5 139.5t-50 81t-78.5 37t-111.5 9z" />
    <glyph glyph-name="multiply" unicode="&#xd7;" 
d="M974 825q21 -25 1 -42l-246 -215l180 -208q18 -25 1 -44l-70 -61q-23 -17 -40 8l-180 209l-247 -217q-19 -17 -40 8l-53 60q-21 24 -1 44l246 215l-180 208q-9 9 -9.5 21t8.5 21l70 61q20 17 40 -7l180 -209l247 216q20 17 40 -7z" />
    <glyph glyph-name="Oslash" unicode="&#xd8;" 
d="M1032 1352q94 -65 121.5 -207.5t-6.5 -394.5l-17 -119q-28 -196 -73 -324t-117.5 -203t-164 -104.5t-225.5 -29.5q-81 0 -141 10l-27 -58q-8 -22 -34 -22h-115q-17 0 -23 10t1 26l46 101q-94 66 -122.5 208.5t6.5 395.5l17 119q22 158 56.5 270.5t81 188.5t112.5 120
t144.5 62.5t185.5 18.5q81 0 142 -10l26 58q8 22 34 22h116q17 0 23 -10t-1 -26zM322 631q-44 -307 20 -405l459 1011q-33 3 -72 3q-71 0 -119.5 -10t-94 -39.5t-76.5 -84t-56.5 -142.5t-43.5 -215zM966 759q42 306 -20 404l-459 -1010q33 -3 72 -3q71 0 119.5 10t94 40
t76.5 84.5t56.5 142t43.5 214.5z" />
    <glyph glyph-name="Ugrave" unicode="&#xd9;" 
d="M826 1544q10 -34 -24 -34h-94q-26 0 -34 24l-84 252q-10 34 24 34h93q26 0 34 -24zM1186 1400q31 0 28 -32l-120 -855q-40 -279 -174 -411t-369 -132q-484 0 -406 553l119 849q3 28 32 28h127q31 0 28 -32l-120 -855q-28 -193 28 -279.5t199 -86.5q151 0 236.5 91
t113.5 285l119 849q3 28 32 28h127z" />
    <glyph glyph-name="Uacute" unicode="&#xda;" 
d="M715 1510q-18 0 -23.5 10.5t3.5 25.5l159 254q11 20 36 20h94q18 0 23.5 -10.5t-3.5 -25.5l-158 -254q-11 -20 -36 -20h-95zM1186 1400q31 0 28 -32l-120 -855q-40 -279 -174 -411t-369 -132q-484 0 -406 553l119 849q3 28 32 28h127q31 0 28 -32l-120 -855
q-28 -193 28 -279.5t199 -86.5q151 0 236.5 91t113.5 285l119 849q3 28 32 28h127z" />
    <glyph glyph-name="Ucircumflex" unicode="&#xdb;" 
d="M792 1737l-193 -174q-14 -14 -38 -14h-132q-20 0 -25 10.5t10 25.5l266 257q14 14 38 14h174q24 0 36 -18l191 -253q11 -15 5.5 -25.5t-23.5 -10.5h-132q-21 0 -36 18zM1186 1400q31 0 28 -32l-120 -855q-40 -279 -174 -411t-369 -132q-484 0 -406 553l119 849
q3 28 32 28h127q31 0 28 -32l-120 -855q-28 -193 28 -279.5t199 -86.5q151 0 236.5 91t113.5 285l119 849q3 28 32 28h127z" />
    <glyph glyph-name="Udieresis" unicode="&#xdc;" 
d="M601 1641q-41 0 -70.5 29.5t-29.5 71.5q0 40 29.5 69t70.5 29t70.5 -29t29.5 -69q0 -42 -29.5 -71.5t-70.5 -29.5zM984 1641q-41 0 -70.5 29.5t-29.5 71.5q0 40 29.5 69t70.5 29t70.5 -29t29.5 -69q0 -42 -29.5 -71.5t-70.5 -29.5zM1186 1400q31 0 28 -32l-120 -855
q-40 -279 -174 -411t-369 -132q-484 0 -406 553l119 849q3 28 32 28h127q31 0 28 -32l-120 -855q-28 -193 28 -279.5t199 -86.5q151 0 236.5 91t113.5 285l119 849q3 28 32 28h127z" />
    <glyph glyph-name="Yacute" unicode="&#xdd;" 
d="M716 1510q-18 0 -23.5 10.5t3.5 25.5l159 254q11 20 36 20h94q18 0 23.5 -10.5t-3.5 -25.5l-158 -254q-11 -20 -36 -20h-95zM1255 1400q18 0 23 -10t-5 -26l-555 -811l-75 -525q-3 -28 -32 -28h-127q-31 0 -28 32l75 525l-327 809q-6 16 0.5 25t23.5 9h130q27 0 35 -24
l252 -645l439 649q12 20 38 20h133z" />
    <glyph glyph-name="Thorn" unicode="&#xde;" 
d="M703 1140q229 0 336 -123t79 -327q-27 -196 -164.5 -313t-365.5 -117h-292l-33 -232q-3 -28 -32 -28h-127q-31 0 -28 32l188 1340q3 28 32 28h127q31 0 28 -32l-32 -228h284zM940 710q20 139 -51.5 199.5t-215.5 60.5h-278l-76 -540h270q143 0 236.5 67t114.5 213z" />
    <glyph glyph-name="germandbls" unicode="&#xdf;" 
d="M836 749q128 -23 199 -103t71 -215q0 -98 -29.5 -172.5t-82 -123t-131 -79.5t-170 -43.5t-206.5 -12.5h-115q-31 0 -28 32l13 89q3 28 32 28h111q82 0 146 8t120 27.5t92.5 51.5t57.5 82t21 116q0 122 -90.5 174t-271.5 52h-112q-31 0 -28 32l13 88q3 28 32 28h108
q166 0 261.5 68t95.5 193q0 91 -61 132t-204 41q-145 0 -213 -59t-83 -170l-138 -985q-3 -28 -32 -28h-120q-31 0 -28 32l139 991q54 377 494 377q206 0 312 -81.5t106 -237.5q0 -128 -72.5 -214.5t-208.5 -117.5z" />
    <glyph glyph-name="agrave" unicode="&#xe0;" 
d="M619 1114l-84 252q-10 34 24 34h93q26 0 34 -24l85 -252q10 -34 -24 -34h-94q-26 0 -34 24zM1151 948l-112 -771q-4 -27 7.5 -40t35.5 -9q15 2 24 -8.5t6 -28.5l-9 -50q-10 -55 -102 -55q-65 0 -91.5 44t-18.5 115h-18q-47 -77 -134.5 -124t-198.5 -47q-193 0 -310 123
t-117 330q0 163 70 295.5t188.5 206t260.5 73.5q111 0 194 -42.5t124 -114.5h16l38 110q7 25 34 25h85q32 0 28 -32zM567 139q104 0 185.5 58t124 150.5t42.5 199.5q0 141 -77 215.5t-198 74.5q-156 0 -256 -113.5t-100 -288.5q0 -138 75.5 -217t203.5 -79z" />
    <glyph glyph-name="aacute" unicode="&#xe1;" 
d="M660 1090q-18 0 -23.5 10.5t3.5 25.5l159 254q11 20 36 20h94q18 0 23.5 -10.5t-3.5 -25.5l-158 -254q-11 -20 -36 -20h-95zM1151 948l-112 -771q-4 -27 7.5 -40t35.5 -9q15 2 24 -8.5t6 -28.5l-9 -50q-10 -55 -102 -55q-65 0 -91.5 44t-18.5 115h-18
q-47 -77 -134.5 -124t-198.5 -47q-193 0 -310 123t-117 330q0 163 70 295.5t188.5 206t260.5 73.5q111 0 194 -42.5t124 -114.5h16l38 110q7 25 34 25h85q32 0 28 -32zM567 139q104 0 185.5 58t124 150.5t42.5 199.5q0 141 -77 215.5t-198 74.5q-156 0 -256 -113.5
t-100 -288.5q0 -138 75.5 -217t203.5 -79z" />
    <glyph glyph-name="acircumflex" unicode="&#xe2;" 
d="M374 1129q-20 0 -25 10.5t10 25.5l266 257q14 14 38 14h174q24 0 36 -18l191 -253q10 -15 5 -25.5t-23 -10.5h-132q-21 0 -36 18l-141 170l-193 -174q-14 -14 -38 -14h-132zM1151 948l-112 -771q-4 -27 7.5 -40t35.5 -9q15 2 24 -8.5t6 -28.5l-9 -50q-10 -55 -102 -55
q-65 0 -91.5 44t-18.5 115h-18q-47 -77 -134.5 -124t-198.5 -47q-193 0 -310 123t-117 330q0 163 70 295.5t188.5 206t260.5 73.5q111 0 194 -42.5t124 -114.5h16l38 110q7 25 34 25h85q32 0 28 -32zM567 139q104 0 185.5 58t124 150.5t42.5 199.5q0 141 -77 215.5
t-198 74.5q-156 0 -256 -113.5t-100 -288.5q0 -138 75.5 -217t203.5 -79z" />
    <glyph glyph-name="atilde" unicode="&#xe3;" 
d="M421 1249q-21 0 -18 24q10 80 59 123t128 43q50 0 94 -21.5t71 -48t62 -48t69 -21.5q64 0 88 61q6 17 22 17h52q9 0 15 -5.5t5 -14.5q-9 -82 -59 -126t-127 -44q-41 0 -77.5 14.5t-62.5 35t-50.5 40.5t-51.5 34.5t-54 14.5q-67 0 -91 -61q-6 -17 -22 -17h-52zM1151 948
l-112 -771q-4 -27 7.5 -40t35.5 -9q15 2 24 -8.5t6 -28.5l-9 -50q-10 -55 -102 -55q-65 0 -91.5 44t-18.5 115h-18q-47 -77 -134.5 -124t-198.5 -47q-193 0 -310 123t-117 330q0 163 70 295.5t188.5 206t260.5 73.5q111 0 194 -42.5t124 -114.5h16l38 110q7 25 34 25h85
q32 0 28 -32zM567 139q104 0 185.5 58t124 150.5t42.5 199.5q0 141 -77 215.5t-198 74.5q-156 0 -256 -113.5t-100 -288.5q0 -138 75.5 -217t203.5 -79z" />
    <glyph glyph-name="adieresis" unicode="&#xe4;" 
d="M546 1221q-41 0 -70.5 29.5t-29.5 71.5q0 40 29.5 69t70.5 29t70.5 -29t29.5 -69q0 -42 -29.5 -71.5t-70.5 -29.5zM929 1221q-41 0 -70.5 29.5t-29.5 71.5q0 40 29.5 69t70.5 29t70.5 -29t29.5 -69q0 -42 -29.5 -71.5t-70.5 -29.5zM1151 948l-112 -771q-4 -27 7.5 -40
t35.5 -9q15 2 24 -8.5t6 -28.5l-9 -50q-10 -55 -102 -55q-65 0 -91.5 44t-18.5 115h-18q-47 -77 -134.5 -124t-198.5 -47q-193 0 -310 123t-117 330q0 163 70 295.5t188.5 206t260.5 73.5q111 0 194 -42.5t124 -114.5h16l38 110q7 25 34 25h85q32 0 28 -32zM567 139
q104 0 185.5 58t124 150.5t42.5 199.5q0 141 -77 215.5t-198 74.5q-156 0 -256 -113.5t-100 -288.5q0 -138 75.5 -217t203.5 -79z" />
    <glyph glyph-name="aring" unicode="&#xe5;" 
d="M728 1099q-77 0 -130 53.5t-53 127.5t53 127.5t130 53.5t130 -53.5t53 -127.5t-53 -127.5t-130 -53.5zM728 1351q-30 0 -51 -20.5t-21 -50.5t21 -50t51 -20t51.5 20t21.5 50q-1 31 -22 51t-51 20zM1151 948l-112 -771q-4 -27 7.5 -40t35.5 -9q15 2 24 -8.5t6 -28.5
l-9 -50q-10 -55 -102 -55q-65 0 -91.5 44t-18.5 115h-18q-47 -77 -134.5 -124t-198.5 -47q-193 0 -310 123t-117 330q0 163 70 295.5t188.5 206t260.5 73.5q111 0 194 -42.5t124 -114.5h16l38 110q7 25 34 25h85q32 0 28 -32zM567 139q104 0 185.5 58t124 150.5t42.5 199.5
q0 141 -77 215.5t-198 74.5q-156 0 -256 -113.5t-100 -288.5q0 -138 75.5 -217t203.5 -79z" />
    <glyph glyph-name="ae" unicode="&#xe6;" 
d="M1098 413h-420l-7 -79q-9 -97 36.5 -153.5t138.5 -56.5q66 0 111 24t93 71l73 -102q-113 -143 -285 -143q-191 0 -261 159q-145 -159 -324 -159q-116 0 -179.5 66.5t-63.5 185.5q0 140 95.5 231t263.5 92h189q20 157 -4 228.5t-108 71.5q-147 0 -190 -160q-6 -22 -31 -22
h-84q-15 0 -22.5 11t-3.5 29q34 153 125 224t216 71q171 0 228 -134q93 134 253 134q263 0 263 -333q0 -52 -3.5 -90.5t-13 -79.5t-31 -63.5t-54.5 -22.5zM933 849q-175 0 -234 -300h353q52 300 -119 300zM279 124q146 0 237 130l22 159h-173q-110 0 -157.5 -48.5
t-47.5 -123.5q0 -53 30 -85t89 -32z" />
    <glyph glyph-name="ccedilla" unicode="&#xe7;" 
d="M1095 768q14 -26 -13 -40l-96 -49q-25 -13 -41 13q-38 68 -106 107t-154 39q-156 0 -262.5 -112t-106.5 -288q0 -134 80.5 -216.5t207.5 -82.5q193 0 309 156q17 24 42 7l81 -53q25 -16 8 -42q-70 -99 -173.5 -160t-226.5 -71l-51 -51q69 -6 117.5 -48t48.5 -109
q0 -80 -48.5 -129.5t-118 -63t-148.5 -0.5q-18 3 -18 22v65q0 10 6 15.5t16 4.5q82 -11 128.5 9.5t46.5 65.5q0 42 -51.5 60.5t-121.5 -8.5q-10 -4 -17 -0.5t-7 14.5v64q0 14 10 24l69 71q-164 30 -264 155t-100 300q0 156 75 286.5t201.5 204.5t274.5 74q136 0 241.5 -62.5
t161.5 -171.5z" />
    <glyph glyph-name="egrave" unicode="&#xe8;" 
d="M607 1114l-84 252q-10 34 24 34h93q26 0 34 -24l85 -252q10 -34 -24 -34h-94q-26 0 -34 24zM761 413h-487q-2 -129 85.5 -207.5t243.5 -78.5q170 0 286 96q26 18 46 -4l46 -52q26 -28 1 -51q-150 -142 -402 -142q-220 0 -347 125.5t-127 321.5q0 155 75.5 288.5t209 213
t292.5 79.5q105 0 189 -30.5t134.5 -81.5t76.5 -112t26 -127q0 -126 -78 -182t-270 -56zM677 846q-134 0 -238 -81.5t-143 -213.5h414q55 0 88 1.5t65.5 7.5t49.5 17t27 30.5t10 48.5q-1 77 -71.5 133.5t-201.5 56.5z" />
    <glyph glyph-name="eacute" unicode="&#xe9;" 
d="M648 1090q-18 0 -23.5 10.5t3.5 25.5l159 254q11 20 36 20h94q18 0 23.5 -10.5t-3.5 -25.5l-158 -254q-11 -20 -36 -20h-95zM761 413h-487q-2 -129 85.5 -207.5t243.5 -78.5q170 0 286 96q26 18 46 -4l46 -52q26 -28 1 -51q-150 -142 -402 -142q-220 0 -347 125.5
t-127 321.5q0 155 75.5 288.5t209 213t292.5 79.5q105 0 189 -30.5t134.5 -81.5t76.5 -112t26 -127q0 -126 -78 -182t-270 -56zM677 846q-134 0 -238 -81.5t-143 -213.5h414q55 0 88 1.5t65.5 7.5t49.5 17t27 30.5t10 48.5q-1 77 -71.5 133.5t-201.5 56.5z" />
    <glyph glyph-name="ecircumflex" unicode="&#xea;" 
d="M362 1129q-20 0 -25 10.5t10 25.5l266 257q14 14 38 14h174q24 0 36 -18l191 -253q10 -15 5 -25.5t-23 -10.5h-132q-21 0 -36 18l-141 170l-193 -174q-14 -14 -38 -14h-132zM761 413h-487q-2 -129 85.5 -207.5t243.5 -78.5q170 0 286 96q26 18 46 -4l46 -52q26 -28 1 -51
q-150 -142 -402 -142q-220 0 -347 125.5t-127 321.5q0 155 75.5 288.5t209 213t292.5 79.5q105 0 189 -30.5t134.5 -81.5t76.5 -112t26 -127q0 -126 -78 -182t-270 -56zM677 846q-134 0 -238 -81.5t-143 -213.5h414q55 0 88 1.5t65.5 7.5t49.5 17t27 30.5t10 48.5
q-1 77 -71.5 133.5t-201.5 56.5z" />
    <glyph glyph-name="edieresis" unicode="&#xeb;" 
d="M534 1221q-41 0 -70.5 29.5t-29.5 71.5q0 40 29.5 69t70.5 29t70.5 -29t29.5 -69q0 -42 -29.5 -71.5t-70.5 -29.5zM917 1221q-41 0 -70.5 29.5t-29.5 71.5q0 40 29.5 69t70.5 29t70.5 -29t29.5 -69q0 -42 -29.5 -71.5t-70.5 -29.5zM761 413h-487q-2 -129 85.5 -207.5
t243.5 -78.5q170 0 286 96q26 18 46 -4l46 -52q26 -28 1 -51q-150 -142 -402 -142q-220 0 -347 125.5t-127 321.5q0 155 75.5 288.5t209 213t292.5 79.5q105 0 189 -30.5t134.5 -81.5t76.5 -112t26 -127q0 -126 -78 -182t-270 -56zM677 846q-134 0 -238 -81.5t-143 -213.5
h414q55 0 88 1.5t65.5 7.5t49.5 17t27 30.5t10 48.5q-1 77 -71.5 133.5t-201.5 56.5z" />
    <glyph glyph-name="igrave" unicode="&#xec;" 
d="M767 1124q10 -34 -24 -34h-94q-26 0 -34 24l-84 252q-10 34 24 34h93q26 0 34 -24zM1102 147q11 -20 -6 -37q-45 -49 -134 -89.5t-195 -40.5q-48 0 -90 8t-84 26.5t-71.5 50t-52.5 78t-26 110t7 146.5l65 426h-382q-31 0 -28 32l13 95q3 28 32 28h535q32 0 27 -32
l-83 -550q-6 -57 -5.5 -98t15 -70t30.5 -47t40 -28t44.5 -13.5t43.5 -3.5q111 0 223 91q28 23 44 -7z" />
    <glyph glyph-name="iacute" unicode="&#xed;" 
d="M656 1090q-18 0 -23.5 10.5t3.5 25.5l159 254q11 20 36 20h94q18 0 23.5 -10.5t-3.5 -25.5l-158 -254q-11 -20 -36 -20h-95zM1102 147q11 -20 -6 -37q-45 -49 -134 -89.5t-195 -40.5q-48 0 -90 8t-84 26.5t-71.5 50t-52.5 78t-26 110t7 146.5l65 426h-382q-31 0 -28 32
l13 95q3 28 32 28h535q32 0 27 -32l-83 -550q-6 -57 -5.5 -98t15 -70t30.5 -47t40 -28t44.5 -13.5t43.5 -3.5q111 0 223 91q28 23 44 -7z" />
    <glyph glyph-name="icircumflex" unicode="&#xee;" 
d="M733 1317l-193 -174q-14 -14 -38 -14h-132q-20 0 -25 10.5t10 25.5l266 257q14 14 38 14h174q24 0 36 -18l191 -253q10 -15 5 -25.5t-23 -10.5h-132q-21 0 -36 18zM1102 147q11 -20 -6 -37q-45 -49 -134 -89.5t-195 -40.5q-48 0 -90 8t-84 26.5t-71.5 50t-52.5 78
t-26 110t7 146.5l65 426h-382q-31 0 -28 32l13 95q3 28 32 28h535q32 0 27 -32l-83 -550q-6 -57 -5.5 -98t15 -70t30.5 -47t40 -28t44.5 -13.5t43.5 -3.5q111 0 223 91q28 23 44 -7z" />
    <glyph glyph-name="idieresis" unicode="&#xef;" 
d="M542 1221q-41 0 -70.5 29.5t-29.5 71.5q0 40 29.5 69t70.5 29t70.5 -29t29.5 -69q0 -42 -29.5 -71.5t-70.5 -29.5zM925 1221q-41 0 -70.5 29.5t-29.5 71.5q0 40 29.5 69t70.5 29t70.5 -29t29.5 -69q0 -42 -29.5 -71.5t-70.5 -29.5zM1102 147q11 -20 -6 -37
q-45 -49 -134 -89.5t-195 -40.5q-48 0 -90 8t-84 26.5t-71.5 50t-52.5 78t-26 110t7 146.5l65 426h-382q-31 0 -28 32l13 95q3 28 32 28h535q32 0 27 -32l-83 -550q-6 -57 -5.5 -98t15 -70t30.5 -47t40 -28t44.5 -13.5t43.5 -3.5q111 0 223 91q28 23 44 -7z" />
    <glyph glyph-name="eth" unicode="&#xf0;" 
d="M1241 1269q32 3 32 -28v-76q0 -29 -28 -32l-81 -11l-136 -945q-4 -27 7.5 -39.5t35.5 -9.5q15 2 24 -8.5t6 -28.5l-9 -50q-10 -55 -102 -55q-64 0 -90.5 42.5t-20.5 113.5h-19q-42 -77 -126.5 -122.5t-192.5 -45.5q-195 0 -313.5 123t-118.5 328q0 162 71 295
t192.5 207.5t267.5 74.5q104 0 182.5 -42t116.5 -115h18l1 91l23 161l-133 -18q-32 -3 -32 28v76q0 29 28 32l157 21l19 136q3 28 32 28h120q32 0 28 -32l-15 -107zM572 139q98 0 176 60t119 153t41 197q0 140 -73.5 214.5t-189.5 74.5q-157 0 -259.5 -115.5t-102.5 -288.5
q0 -138 78 -216.5t211 -78.5z" />
    <glyph glyph-name="ntilde" unicode="&#xf1;" 
d="M416 1249q-21 0 -18 24q10 80 59 123t128 43q50 0 94 -21.5t71 -48t62 -48t69 -21.5q64 0 88 61q6 17 22 17h52q9 0 15 -5.5t5 -14.5q-9 -82 -59 -126t-127 -44q-41 0 -77.5 14.5t-62.5 35t-50.5 40.5t-51.5 34.5t-54 14.5q-67 0 -91 -61q-6 -17 -22 -17h-52zM1071 128
q15 2 24 -8.5t6 -28.5l-9 -50q-10 -55 -102 -55q-80 0 -117 47.5t-27 118.5l62 437q18 124 -39 186.5t-163 62.5q-125 0 -215.5 -72t-118.5 -153l-83 -585q-3 -28 -32 -28h-118q-34 0 -28 32l131 920q3 28 32 28h109q13 0 21.5 -10.5t6.5 -24.5l-9 -122h18q50 77 140 128
t205 51q82 0 148.5 -26t111.5 -75.5t63 -127t3 -174.5l-63 -422q-4 -27 7.5 -39.5t35.5 -9.5zM364 571l5 30q-5 -18 -5 -30z" />
    <glyph glyph-name="ograve" unicode="&#xf2;" 
d="M766 1124q10 -34 -24 -34h-94q-26 0 -34 24l-84 252q-10 34 24 34h93q26 0 34 -24zM568 -26q-200 0 -328.5 131.5t-128.5 331.5q0 156 75 286.5t201.5 204.5t274.5 74q200 0 328.5 -131t128.5 -330q0 -117 -44 -222.5t-118 -180.5t-175.5 -119.5t-213.5 -44.5zM574 139
q157 0 263.5 111t106.5 289q0 133 -80.5 216t-208.5 83q-156 0 -262.5 -112t-106.5 -288q0 -134 80.5 -216.5t207.5 -82.5z" />
    <glyph glyph-name="oacute" unicode="&#xf3;" 
d="M655 1090q-18 0 -23.5 10.5t3.5 25.5l159 254q11 20 36 20h94q18 0 23.5 -10.5t-3.5 -25.5l-158 -254q-11 -20 -36 -20h-95zM568 -26q-200 0 -328.5 131.5t-128.5 331.5q0 156 75 286.5t201.5 204.5t274.5 74q200 0 328.5 -131t128.5 -330q0 -117 -44 -222.5t-118 -180.5
t-175.5 -119.5t-213.5 -44.5zM574 139q157 0 263.5 111t106.5 289q0 133 -80.5 216t-208.5 83q-156 0 -262.5 -112t-106.5 -288q0 -134 80.5 -216.5t207.5 -82.5z" />
    <glyph glyph-name="ocircumflex" unicode="&#xf4;" 
d="M732 1317l-193 -174q-14 -14 -38 -14h-132q-20 0 -25 10.5t10 25.5l266 257q14 14 38 14h174q24 0 36 -18l191 -253q11 -15 5.5 -25.5t-23.5 -10.5h-132q-21 0 -36 18zM568 -26q-200 0 -328.5 131.5t-128.5 331.5q0 156 75 286.5t201.5 204.5t274.5 74q200 0 328.5 -131
t128.5 -330q0 -117 -44 -222.5t-118 -180.5t-175.5 -119.5t-213.5 -44.5zM574 139q157 0 263.5 111t106.5 289q0 133 -80.5 216t-208.5 83q-156 0 -262.5 -112t-106.5 -288q0 -134 80.5 -216.5t207.5 -82.5z" />
    <glyph glyph-name="otilde" unicode="&#xf5;" 
d="M585 1439q50 0 94 -21.5t71 -48t62 -48t69 -21.5q64 0 88 61q6 17 22 17h52q9 0 15 -5.5t5 -14.5q-9 -82 -59 -126t-127 -44q-41 0 -77.5 14.5t-62.5 35t-50.5 40.5t-51.5 34.5t-54 14.5q-67 0 -91 -61q-6 -17 -22 -17h-52q-21 0 -18 24q10 80 59 123t128 43zM568 -26
q-200 0 -328.5 131.5t-128.5 331.5q0 156 75 286.5t201.5 204.5t274.5 74q200 0 328.5 -131t128.5 -330q0 -117 -44 -222.5t-118 -180.5t-175.5 -119.5t-213.5 -44.5zM574 139q157 0 263.5 111t106.5 289q0 133 -80.5 216t-208.5 83q-156 0 -262.5 -112t-106.5 -288
q0 -134 80.5 -216.5t207.5 -82.5z" />
    <glyph glyph-name="odieresis" unicode="&#xf6;" 
d="M541 1221q-41 0 -70.5 29.5t-29.5 71.5q0 40 29.5 69t70.5 29t70.5 -29t29.5 -69q0 -42 -29.5 -71.5t-70.5 -29.5zM924 1221q-41 0 -70.5 29.5t-29.5 71.5q0 40 29.5 69t70.5 29t70.5 -29t29.5 -69q0 -42 -29.5 -71.5t-70.5 -29.5zM568 -26q-200 0 -328.5 131.5
t-128.5 331.5q0 156 75 286.5t201.5 204.5t274.5 74q200 0 328.5 -131t128.5 -330q0 -117 -44 -222.5t-118 -180.5t-175.5 -119.5t-213.5 -44.5zM574 139q157 0 263.5 111t106.5 289q0 133 -80.5 216t-208.5 83q-156 0 -262.5 -112t-106.5 -288q0 -134 80.5 -216.5
t207.5 -82.5z" />
    <glyph glyph-name="divide" unicode="&#xf7;" 
d="M662 734q-59 0 -100 41t-41 100t41 101t100 42t100 -42t41 -101t-41 -100t-100 -41zM1003 642q13 0 21.5 -8t8.5 -22v-86q0 -14 -8.5 -22t-21.5 -8h-753q-14 0 -22 8t-8 22v86q0 14 8 22t22 8h753zM574 120q-59 0 -100 41t-41 100t41 100.5t100 41.5t100 -41.5t41 -100.5
t-41 -100t-100 -41z" />
    <glyph glyph-name="oslash" unicode="&#xf8;" 
d="M899 942q103 -59 161.5 -164.5t58.5 -236.5q0 -117 -44 -222.5t-118 -180.5t-175.5 -119.5t-213.5 -44.5q-56 0 -103 10l-46 -102q-9 -22 -34 -22h-95q-17 0 -23 10t1 26l63 139q-103 59 -161.5 164.5t-58.5 237.5q0 156 75 286.5t201.5 204.5t274.5 74q55 0 102 -10
l46 102q9 22 34 22h96q17 0 23 -10t-1 -26zM286 438q0 -163 116 -247l291 645q-24 2 -38 2q-156 0 -262.5 -112t-106.5 -288zM574 139q157 0 263.5 111t106.5 289q0 162 -116 246l-292 -644q26 -2 38 -2z" />
    <glyph glyph-name="ugrave" unicode="&#xf9;" 
d="M577 1114l-84 252q-10 34 24 34h93q26 0 34 -24l85 -252q10 -34 -24 -34h-94q-26 0 -34 24zM1112 948l-111 -771q-4 -27 7.5 -39.5t35.5 -9.5q15 2 23.5 -8t5.5 -29l-8 -50q-10 -55 -103 -55q-78 0 -107.5 46t-18.5 120l3 22h-16q-42 -82 -135.5 -137.5t-214.5 -55.5
q-163 0 -254.5 108t-63.5 300l81 563q3 28 32 28h119q33 0 28 -32l-79 -549q-18 -124 37 -187t154 -63q115 0 195 67.5t128 164.5l83 574q3 25 34 25h117q34 0 28 -32z" />
    <glyph glyph-name="uacute" unicode="&#xfa;" 
d="M618 1090q-18 0 -23.5 10.5t3.5 25.5l159 254q11 20 36 20h94q18 0 23.5 -10.5t-3.5 -25.5l-158 -254q-11 -20 -36 -20h-95zM1112 948l-111 -771q-4 -27 7.5 -39.5t35.5 -9.5q15 2 23.5 -8t5.5 -29l-8 -50q-10 -55 -103 -55q-78 0 -107.5 46t-18.5 120l3 22h-16
q-42 -82 -135.5 -137.5t-214.5 -55.5q-163 0 -254.5 108t-63.5 300l81 563q3 28 32 28h119q33 0 28 -32l-79 -549q-18 -124 37 -187t154 -63q115 0 195 67.5t128 164.5l83 574q3 25 34 25h117q34 0 28 -32z" />
    <glyph glyph-name="ucircumflex" unicode="&#xfb;" 
d="M332 1129q-20 0 -25 10.5t10 25.5l266 257q14 14 38 14h174q24 0 36 -18l191 -253q10 -15 5 -25.5t-23 -10.5h-132q-21 0 -36 18l-141 170l-193 -174q-14 -14 -38 -14h-132zM1112 948l-111 -771q-4 -27 7.5 -39.5t35.5 -9.5q15 2 23.5 -8t5.5 -29l-8 -50
q-10 -55 -103 -55q-78 0 -107.5 46t-18.5 120l3 22h-16q-42 -82 -135.5 -137.5t-214.5 -55.5q-163 0 -254.5 108t-63.5 300l81 563q3 28 32 28h119q33 0 28 -32l-79 -549q-18 -124 37 -187t154 -63q115 0 195 67.5t128 164.5l83 574q3 25 34 25h117q34 0 28 -32z" />
    <glyph glyph-name="udieresis" unicode="&#xfc;" 
d="M504 1221q-41 0 -70.5 29.5t-29.5 71.5q0 40 29.5 69t70.5 29t70.5 -29t29.5 -69q0 -42 -29.5 -71.5t-70.5 -29.5zM887 1221q-41 0 -70.5 29.5t-29.5 71.5q0 40 29.5 69t70.5 29t70.5 -29t29.5 -69q0 -42 -29.5 -71.5t-70.5 -29.5zM1112 948l-111 -771q-4 -27 7.5 -39.5
t35.5 -9.5q15 2 23.5 -8t5.5 -29l-8 -50q-10 -55 -103 -55q-78 0 -107.5 46t-18.5 120l3 22h-16q-42 -82 -135.5 -137.5t-214.5 -55.5q-163 0 -254.5 108t-63.5 300l81 563q3 28 32 28h119q33 0 28 -32l-79 -549q-18 -124 37 -187t154 -63q115 0 195 67.5t128 164.5l83 574
q3 25 34 25h117q34 0 28 -32z" />
    <glyph glyph-name="yacute" unicode="&#xfd;" 
d="M655 1090q-18 0 -23.5 10.5t3.5 25.5l159 254q11 20 36 20h94q18 0 23.5 -10.5t-3.5 -25.5l-158 -254q-11 -20 -36 -20h-95zM1106 980q34 0 28 -32l-127 -868q-13 -88 -39.5 -159t-59.5 -119t-77 -84t-86.5 -56t-93.5 -32.5t-91.5 -16t-87.5 -3.5q-115 0 -203 27
t-144.5 92.5t-57.5 162.5q0 30 30 30h112q23 0 31 -28q16 -71 80 -100.5t169 -29.5q67 0 120 14.5t99.5 49t77 98t43.5 154.5l19 130h-5q-45 -82 -136 -133t-214 -51q-171 0 -260.5 98t-60.5 295l78 533q3 28 32 28h118q31 0 28 -32l-74 -519q-10 -68 0.5 -115.5t39 -72.5
t65 -36t85.5 -11q66 0 123 21t97 57.5t67.5 73.5t47.5 80l76 529q3 25 34 25h117zM913 527q1 2 1 5z" />
    <glyph glyph-name="thorn" unicode="&#xfe;" 
d="M780 1001q181 0 282.5 -116t101.5 -305q0 -120 -38 -230t-105.5 -193t-166.5 -132.5t-214 -49.5q-225 0 -331 168l-16 -115q0 -1 -0.5 -3.5t-0.5 -4.5l-53 -372q-4 -28 -32 -28h-118q-32 0 -28 32l184 1300q0 1 0.5 3t0.5 3l59 414q3 28 32 28h120q31 0 28 -32l-78 -543
h15q55 80 146 128t212 48zM616 139q114 0 201 60t131 156.5t44 211.5q0 126 -66 198t-187 72q-167 0 -274.5 -123.5t-107.5 -296.5q0 -127 69.5 -202.5t189.5 -75.5z" />
    <glyph glyph-name="ydieresis" unicode="&#xff;" 
d="M541 1221q-41 0 -70.5 29.5t-29.5 71.5q0 40 29.5 69t70.5 29t70.5 -29t29.5 -69q0 -42 -29.5 -71.5t-70.5 -29.5zM924 1221q-41 0 -70.5 29.5t-29.5 71.5q0 40 29.5 69t70.5 29t70.5 -29t29.5 -69q0 -42 -29.5 -71.5t-70.5 -29.5zM1106 980q34 0 28 -32l-127 -868
q-13 -88 -39.5 -159t-59.5 -119t-77 -84t-86.5 -56t-93.5 -32.5t-91.5 -16t-87.5 -3.5q-115 0 -203 27t-144.5 92.5t-57.5 162.5q0 30 30 30h112q23 0 31 -28q16 -71 80 -100.5t169 -29.5q67 0 120 14.5t99.5 49t77 98t43.5 154.5l19 130h-5q-45 -82 -136 -133t-214 -51
q-171 0 -260.5 98t-60.5 295l78 533q3 28 32 28h118q31 0 28 -32l-74 -519q-10 -68 0.5 -115.5t39 -72.5t65 -36t85.5 -11q66 0 123 21t97 57.5t67.5 73.5t47.5 80l76 529q3 25 34 25h117zM913 527q1 2 1 5z" />
    <glyph glyph-name="Amacron" unicode="&#x100;" 
d="M528 1671q-31 0 -28 32l13 85q3 28 32 28h510q31 0 28 -32l-13 -85q-3 -28 -32 -28h-510zM1096 32q3 -32 -28 -32h-128q-29 0 -32 28l-39 265h-557l-116 -270q-11 -23 -35 -23h-133q-17 0 -23.5 9.5t0.5 25.5l583 1342q11 23 35 23h235q29 0 33 -27zM381 456h464
l-111 752h-31z" />
    <glyph glyph-name="amacron" unicode="&#x101;" 
d="M473 1251q-31 0 -28 32l13 85q3 28 32 28h510q31 0 28 -32l-13 -85q-3 -28 -32 -28h-510zM1151 948l-112 -771q-4 -27 7.5 -40t35.5 -9q15 2 24 -8.5t6 -28.5l-9 -50q-10 -55 -102 -55q-65 0 -91.5 44t-18.5 115h-18q-47 -77 -134.5 -124t-198.5 -47q-193 0 -310 123
t-117 330q0 163 70 295.5t188.5 206t260.5 73.5q111 0 194 -42.5t124 -114.5h16l38 110q7 25 34 25h85q32 0 28 -32zM567 139q104 0 185.5 58t124 150.5t42.5 199.5q0 141 -77 215.5t-198 74.5q-156 0 -256 -113.5t-100 -288.5q0 -138 75.5 -217t203.5 -79z" />
    <glyph glyph-name="Abreve" unicode="&#x102;" 
d="M771 1540q-131 0 -203 75t-64 187q3 28 29 28h69q26 0 29 -36q5 -57 41.5 -90.5t103.5 -33.5q70 0 119.5 39.5t70.5 99.5q8 21 33 21h67q16 0 23 -10.5t3 -29.5q-27 -111 -112 -180.5t-209 -69.5zM1096 32q3 -32 -28 -32h-128q-29 0 -32 28l-39 265h-557l-116 -270
q-11 -23 -35 -23h-133q-17 0 -23.5 9.5t0.5 25.5l583 1342q11 23 35 23h235q29 0 33 -27zM381 456h464l-111 752h-31z" />
    <glyph glyph-name="abreve" unicode="&#x103;" 
d="M716 1120q-131 0 -203 75t-64 187q3 28 29 28h69q26 0 29 -36q5 -57 41.5 -90.5t103.5 -33.5q70 0 119.5 39.5t70.5 99.5q8 21 33 21h67q16 0 23 -10.5t3 -29.5q-27 -111 -112 -180.5t-209 -69.5zM1151 948l-112 -771q-4 -27 7.5 -40t35.5 -9q15 2 24 -8.5t6 -28.5
l-9 -50q-10 -55 -102 -55q-65 0 -91.5 44t-18.5 115h-18q-47 -77 -134.5 -124t-198.5 -47q-193 0 -310 123t-117 330q0 163 70 295.5t188.5 206t260.5 73.5q111 0 194 -42.5t124 -114.5h16l38 110q7 25 34 25h85q32 0 28 -32zM567 139q104 0 185.5 58t124 150.5t42.5 199.5
q0 141 -77 215.5t-198 74.5q-156 0 -256 -113.5t-100 -288.5q0 -138 75.5 -217t203.5 -79z" />
    <glyph glyph-name="Aogonek" unicode="&#x104;" 
d="M1096 32q3 -32 -28 -32h-50q-97 -7 -157 -59.5t-60 -115.5q0 -61 42.5 -88t119.5 -10v-123q-38 -17 -90.5 -17.5t-104 16t-87 65t-35.5 120.5q0 104 74.5 174.5t181.5 105.5l-33 225h-557l-116 -270q-11 -23 -35 -23h-133q-17 0 -23.5 9.5t0.5 25.5l583 1342q11 23 35 23
h235q29 0 33 -27zM381 456h464l-111 752h-31z" />
    <glyph glyph-name="aogonek" unicode="&#x105;" 
d="M1151 948l-112 -771q-4 -27 7.5 -40t35.5 -9q15 2 24 -8.5t6 -28.5l-9 -50q-10 -53 -99 -55q-95 -16 -147 -63t-52 -106q0 -61 42.5 -88t119.5 -10v-123q-30 -14 -70.5 -18t-84 5.5t-80 31t-60 64.5t-23.5 101q0 53 21 97.5t57.5 77t79 56t92.5 39.5q-14 37 -8 95h-18
q-47 -77 -134.5 -124t-198.5 -47q-193 0 -310 123t-117 330q0 163 70 295.5t188.5 206t260.5 73.5q111 0 194 -42.5t124 -114.5h16l38 110q7 25 34 25h85q32 0 28 -32zM567 139q104 0 185.5 58t124 150.5t42.5 199.5q0 141 -77 215.5t-198 74.5q-156 0 -256 -113.5
t-100 -288.5q0 -138 75.5 -217t203.5 -79z" />
    <glyph glyph-name="Cacute" unicode="&#x106;" 
d="M715 1510q-18 0 -23.5 10.5t3.5 25.5l159 254q11 20 36 20h94q18 0 23.5 -10.5t-3.5 -25.5l-158 -254q-11 -20 -36 -20h-95zM568 150q146 0 220.5 41.5t107.5 156.5q7 27 35 27h123q15 0 22 -10.5t2 -27.5q-51 -203 -174 -285t-348 -82q-91 0 -158.5 13.5t-121 44.5
t-86.5 81.5t-50 125t-16 175t20 231.5l17 119q27 196 72.5 323.5t118 202.5t165 104.5t227.5 29.5q229 0 331 -85.5t100 -288.5q0 -28 -30 -28h-116q-13 0 -21 10t-9 27q-6 112 -64 148.5t-197 36.5q-69 0 -118 -10.5t-96 -40.5t-79 -84t-59 -142t-44 -214l-17 -118
q-15 -105 -17.5 -182.5t9 -130.5t30.5 -86.5t54 -51t73 -24t94 -6.5z" />
    <glyph glyph-name="cacute" unicode="&#x107;" 
d="M686 1090q-18 0 -23.5 10.5t3.5 25.5l159 254q11 20 36 20h94q18 0 23.5 -10.5t-3.5 -25.5l-158 -254q-11 -20 -36 -20h-95zM1036 249q25 -16 8 -42q-76 -109 -192 -171t-254 -62q-200 0 -328.5 131.5t-128.5 331.5q0 156 75 286.5t201.5 204.5t274.5 74
q136 0 241.5 -62.5t161.5 -171.5q14 -26 -13 -40l-96 -49q-25 -13 -41 13q-38 68 -106 107t-154 39q-156 0 -262.5 -112t-106.5 -288q0 -134 80.5 -216.5t207.5 -82.5q193 0 309 156q17 24 42 7z" />
    <glyph glyph-name="Cdotaccent" unicode="&#x10a;" 
d="M791 1631q-41 0 -70.5 29.5t-29.5 71.5q0 40 29.5 69t70.5 29t70.5 -29t29.5 -69q0 -42 -29.5 -71.5t-70.5 -29.5zM568 150q146 0 220.5 41.5t107.5 156.5q7 27 35 27h123q15 0 22 -10.5t2 -27.5q-51 -203 -174 -285t-348 -82q-91 0 -158.5 13.5t-121 44.5t-86.5 81.5
t-50 125t-16 175t20 231.5l17 119q27 196 72.5 323.5t118 202.5t165 104.5t227.5 29.5q229 0 331 -85.5t100 -288.5q0 -28 -30 -28h-116q-13 0 -21 10t-9 27q-6 112 -64 148.5t-197 36.5q-69 0 -118 -10.5t-96 -40.5t-79 -84t-59 -142t-44 -214l-17 -118
q-15 -105 -17.5 -182.5t9 -130.5t30.5 -86.5t54 -51t73 -24t94 -6.5z" />
    <glyph glyph-name="cdotaccent" unicode="&#x10b;" 
d="M751 1211q-41 0 -70.5 29.5t-29.5 71.5q0 40 29.5 69t70.5 29t70.5 -29t29.5 -69q0 -42 -29.5 -71.5t-70.5 -29.5zM1036 249q25 -16 8 -42q-76 -109 -192 -171t-254 -62q-200 0 -328.5 131.5t-128.5 331.5q0 156 75 286.5t201.5 204.5t274.5 74q136 0 241.5 -62.5
t161.5 -171.5q14 -26 -13 -40l-96 -49q-25 -13 -41 13q-38 68 -106 107t-154 39q-156 0 -262.5 -112t-106.5 -288q0 -134 80.5 -216.5t207.5 -82.5q193 0 309 156q17 24 42 7z" />
    <glyph glyph-name="Ccaron" unicode="&#x10c;" 
d="M778 1668l193 174q14 14 38 14h130q20 0 25 -10.5t-9 -25.5l-265 -257q-14 -14 -38 -14h-174q-23 0 -36 18l-193 253q-12 15 -6 25.5t24 10.5h134q21 0 36 -18zM568 150q146 0 220.5 41.5t107.5 156.5q7 27 35 27h123q15 0 22 -10.5t2 -27.5q-51 -203 -174 -285t-348 -82
q-91 0 -158.5 13.5t-121 44.5t-86.5 81.5t-50 125t-16 175t20 231.5l17 119q27 196 72.5 323.5t118 202.5t165 104.5t227.5 29.5q229 0 331 -85.5t100 -288.5q0 -28 -30 -28h-116q-13 0 -21 10t-9 27q-6 112 -64 148.5t-197 36.5q-69 0 -118 -10.5t-96 -40.5t-79 -84
t-59 -142t-44 -214l-17 -118q-15 -105 -17.5 -182.5t9 -130.5t30.5 -86.5t54 -51t73 -24t94 -6.5z" />
    <glyph glyph-name="ccaron" unicode="&#x10d;" 
d="M740 1248l193 174q14 14 38 14h130q20 0 25 -10.5t-9 -25.5l-265 -257q-14 -14 -38 -14h-174q-23 0 -36 18l-193 253q-12 15 -6 25.5t24 10.5h134q21 0 36 -18zM1036 249q25 -16 8 -42q-76 -109 -192 -171t-254 -62q-200 0 -328.5 131.5t-128.5 331.5q0 156 75 286.5
t201.5 204.5t274.5 74q136 0 241.5 -62.5t161.5 -171.5q14 -26 -13 -40l-96 -49q-25 -13 -41 13q-38 68 -106 107t-154 39q-156 0 -262.5 -112t-106.5 -288q0 -134 80.5 -216.5t207.5 -82.5q193 0 309 156q17 24 42 7z" />
    <glyph glyph-name="Dcaron" unicode="&#x10e;" 
d="M778 1668l193 174q14 14 38 14h130q20 0 25 -10.5t-9 -25.5l-265 -257q-14 -14 -38 -14h-174q-23 0 -36 18l-193 253q-12 15 -6 25.5t24 10.5h134q21 0 36 -18zM644 1400q144 0 245 -33t160.5 -98t86 -152.5t26.5 -205.5q0 -174 -25 -314.5t-78.5 -253t-136 -188
t-199.5 -115.5t-267 -40h-352q-31 0 -28 32l188 1340q3 28 32 28h348zM472 170q112 0 198 34.5t143 97.5t93.5 157t52.5 205.5t16 250.5q0 162 -76.5 238.5t-268.5 76.5h-198l-149 -1060h189z" />
    <glyph glyph-name="dcaron" unicode="&#x10f;" 
d="M1654 1614q18 0 23.5 -10.5t-3.5 -25.5l-158 -254q-11 -20 -36 -20h-95q-18 0 -23.5 10.5t3.5 25.5l159 254q11 20 36 20h94zM1172 1400q32 0 28 -32l-172 -1191q-4 -27 7.5 -39.5t35.5 -9.5q15 2 24 -8.5t6 -28.5l-9 -50q-10 -55 -102 -55q-64 0 -90.5 42.5t-20.5 113.5
h-19q-42 -77 -126.5 -122.5t-192.5 -45.5q-195 0 -313.5 123t-118.5 328q0 162 71 295t192.5 207.5t267.5 74.5q104 0 182.5 -42t116.5 -115h18l1 91l62 436q3 28 32 28h120zM572 139q98 0 176 60t119 153t41 197q0 140 -73.5 214.5t-189.5 74.5q-157 0 -259.5 -115.5
t-102.5 -288.5q0 -138 78 -216.5t211 -78.5z" />
    <glyph glyph-name="Dcroat" unicode="&#x110;" 
d="M644 1400q144 0 245 -33t160.5 -98t86 -152.5t26.5 -205.5q0 -174 -25 -314.5t-78.5 -253t-136 -188t-199.5 -115.5t-267 -40h-352q-31 0 -28 32l188 1340q3 28 32 28h348zM472 170q112 0 198 34.5t143 97.5t93.5 157t52.5 205.5t16 250.5q0 162 -76.5 238.5t-268.5 76.5
h-198l-65 -460h411q31 0 28 -32l-13 -85q-3 -28 -32 -28h-414l-64 -455h189z" />
    <glyph glyph-name="dcroat" unicode="&#x111;" 
d="M1278 1277q31 0 28 -32l-13 -85q-3 -28 -32 -28h-95l-138 -955q-4 -27 7.5 -39.5t35.5 -9.5q15 2 24 -8.5t6 -28.5l-9 -50q-10 -55 -102 -55q-64 0 -90.5 42.5t-20.5 113.5h-19q-42 -77 -126.5 -122.5t-192.5 -45.5q-195 0 -313.5 123t-118.5 328q0 162 71 295
t192.5 207.5t267.5 74.5q104 0 182.5 -42t116.5 -115h18l1 91l28 196h-235q-31 0 -28 32l13 85q3 28 32 28h238l14 95q3 28 32 28h120q32 0 28 -32l-13 -91h91zM572 139q98 0 176 60t119 153t41 197q0 140 -73.5 214.5t-189.5 74.5q-157 0 -259.5 -115.5t-102.5 -288.5
q0 -138 78 -216.5t211 -78.5z" />
    <glyph glyph-name="Emacron" unicode="&#x112;" 
d="M1055 1816q31 0 28 -32l-13 -85q-3 -28 -32 -28h-510q-31 0 -28 32l13 85q3 28 32 28h510zM991 170q31 0 28 -32l-15 -110q-3 -28 -32 -28h-845q-31 0 -28 32l188 1340q3 28 32 28h843q31 0 28 -32l-16 -110q-3 -28 -32 -28h-688l-57 -408h631q31 0 28 -32l-16 -110
q-3 -28 -32 -28h-635l-68 -482h686z" />
    <glyph glyph-name="emacron" unicode="&#x113;" 
d="M461 1251q-31 0 -28 32l13 85q3 28 32 28h510q31 0 28 -32l-13 -85q-3 -28 -32 -28h-510zM761 413h-487q-2 -129 85.5 -207.5t243.5 -78.5q170 0 286 96q26 18 46 -4l46 -52q26 -28 1 -51q-150 -142 -402 -142q-220 0 -347 125.5t-127 321.5q0 155 75.5 288.5t209 213
t292.5 79.5q105 0 189 -30.5t134.5 -81.5t76.5 -112t26 -127q0 -126 -78 -182t-270 -56zM677 846q-134 0 -238 -81.5t-143 -213.5h414q55 0 88 1.5t65.5 7.5t49.5 17t27 30.5t10 48.5q-1 77 -71.5 133.5t-201.5 56.5z" />
    <glyph glyph-name="Edotaccent" unicode="&#x116;" 
d="M791 1631q-41 0 -70.5 29.5t-29.5 71.5q0 40 29.5 69t70.5 29t70.5 -29t29.5 -69q0 -42 -29.5 -71.5t-70.5 -29.5zM991 170q31 0 28 -32l-15 -110q-3 -28 -32 -28h-845q-31 0 -28 32l188 1340q3 28 32 28h843q31 0 28 -32l-16 -110q-3 -28 -32 -28h-688l-57 -408h631
q31 0 28 -32l-16 -110q-3 -28 -32 -28h-635l-68 -482h686z" />
    <glyph glyph-name="edotaccent" unicode="&#x117;" 
d="M724 1211q-41 0 -70.5 29.5t-29.5 71.5q0 40 29.5 69t70.5 29t70.5 -29t29.5 -69q0 -42 -29.5 -71.5t-70.5 -29.5zM761 413h-487q-2 -129 85.5 -207.5t243.5 -78.5q170 0 286 96q26 18 46 -4l46 -52q26 -28 1 -51q-150 -142 -402 -142q-220 0 -347 125.5t-127 321.5
q0 155 75.5 288.5t209 213t292.5 79.5q105 0 189 -30.5t134.5 -81.5t76.5 -112t26 -127q0 -126 -78 -182t-270 -56zM677 846q-134 0 -238 -81.5t-143 -213.5h414q55 0 88 1.5t65.5 7.5t49.5 17t27 30.5t10 48.5q-1 77 -71.5 133.5t-201.5 56.5z" />
    <glyph glyph-name="Eogonek" unicode="&#x118;" 
d="M1162 1400q31 0 28 -32l-16 -110q-3 -28 -32 -28h-688l-57 -408h631q31 0 28 -32l-16 -110q-3 -28 -32 -28h-635l-68 -482h686q31 0 28 -32l-15 -110q-3 -28 -32 -28h-9q-97 -7 -157 -59.5t-60 -115.5q0 -61 42.5 -88t119.5 -10v-123q-38 -17 -90.5 -17.5t-104 16t-87 65
t-35.5 120.5q0 126 119 212h-583q-31 0 -28 32l188 1340q3 28 32 28h843z" />
    <glyph glyph-name="eogonek" unicode="&#x119;" 
d="M761 413h-487q-2 -129 85.5 -207.5t243.5 -78.5q170 0 286 96q26 18 46 -4l46 -52q26 -28 1 -51q-92 -86 -222 -120q-85 -26 -136 -76t-51 -109q0 -58 42.5 -84.5t119.5 -9.5v-123q-38 -17 -90.5 -17.5t-104 16t-87 65t-35.5 120.5q0 116 105 198q-195 17 -306 140
t-111 305q0 155 75.5 288.5t209 213t292.5 79.5q105 0 189 -30.5t134.5 -81.5t76.5 -112t26 -127q0 -126 -78 -182t-270 -56zM677 846q-134 0 -238 -81.5t-143 -213.5h414q55 0 88 1.5t65.5 7.5t49.5 17t27 30.5t10 48.5q-1 77 -71.5 133.5t-201.5 56.5z" />
    <glyph glyph-name="Ecaron" unicode="&#x11a;" 
d="M778 1668l193 174q14 14 38 14h130q20 0 25 -10.5t-9 -25.5l-265 -257q-14 -14 -38 -14h-174q-23 0 -36 18l-193 253q-12 15 -6 25.5t24 10.5h134q21 0 36 -18zM991 170q31 0 28 -32l-15 -110q-3 -28 -32 -28h-845q-31 0 -28 32l188 1340q3 28 32 28h843q31 0 28 -32
l-16 -110q-3 -28 -32 -28h-688l-57 -408h631q31 0 28 -32l-16 -110q-3 -28 -32 -28h-635l-68 -482h686z" />
    <glyph glyph-name="ecaron" unicode="&#x11b;" 
d="M575 1147l-193 253q-12 15 -6 25.5t24 10.5h134q21 0 36 -18l141 -170l193 174q14 14 38 14h130q20 0 25 -10.5t-9 -25.5l-265 -257q-14 -14 -38 -14h-174q-23 0 -36 18zM761 413h-487q-2 -129 85.5 -207.5t243.5 -78.5q170 0 286 96q26 18 46 -4l46 -52q26 -28 1 -51
q-150 -142 -402 -142q-220 0 -347 125.5t-127 321.5q0 155 75.5 288.5t209 213t292.5 79.5q105 0 189 -30.5t134.5 -81.5t76.5 -112t26 -127q0 -126 -78 -182t-270 -56zM677 846q-134 0 -238 -81.5t-143 -213.5h414q55 0 88 1.5t65.5 7.5t49.5 17t27 30.5t10 48.5
q-1 77 -71.5 133.5t-201.5 56.5z" />
    <glyph glyph-name="Gbreve" unicode="&#x11e;" 
d="M968 1809q8 21 33 21h67q16 0 23 -10.5t3 -29.5q-27 -111 -112 -180.5t-209 -69.5q-131 0 -203 75t-64 187q3 28 29 28h69q26 0 29 -36q5 -57 41.5 -90.5t103.5 -33.5q70 0 119.5 39.5t70.5 99.5zM744 1420q229 0 331 -85.5t100 -288.5q0 -28 -30 -28h-116q-13 0 -21 10
t-9 27q-6 112 -64 148.5t-197 36.5q-69 0 -118 -10.5t-96 -40.5t-79 -84t-59 -142t-44 -214l-17 -118q-13 -90 -16 -160t2 -121t20.5 -86.5t36 -57.5t53.5 -34.5t67 -17t82 -4.5q178 0 264 83t116 294h-357q-15 0 -22.5 8.5t-5.5 23.5l16 104q4 28 32 28h504q33 0 28 -32
l-20 -136q-41 -293 -173.5 -423t-392.5 -130q-91 0 -159 13.5t-122.5 44.5t-87.5 81.5t-50 125t-16 175t20 231.5l17 119q27 196 72.5 323.5t118 202.5t165 104.5t227.5 29.5z" />
    <glyph glyph-name="gbreve" unicode="&#x11f;" 
d="M711 1120q-131 0 -203 75t-64 187q3 28 29 28h69q26 0 29 -36q5 -57 41.5 -90.5t103.5 -33.5q70 0 119.5 39.5t70.5 99.5q8 21 33 21h67q16 0 23 -10.5t3 -29.5q-27 -111 -112 -180.5t-209 -69.5zM1094 980q32 0 28 -32l-131 -914q-14 -99 -51 -176t-86 -124t-113 -77
t-127 -41.5t-134 -11.5q-220 0 -371 108q-26 18 -11 42l55 81q13 21 38 5q118 -80 305 -80q60 0 110.5 12.5t98 42t79.5 85.5t44 134l16 106q-36 -77 -118 -121.5t-188 -44.5q-195 0 -313.5 123t-118.5 328q0 162 71 295t192 207.5t266 74.5q104 0 183 -42.5t112 -114.5h20
l25 110q4 25 34 25h85zM570 139q97 0 175.5 60t119.5 153t41 197q0 140 -74 214.5t-189 74.5q-157 0 -260 -115.5t-103 -288.5q0 -138 78 -216.5t212 -78.5z" />
    <glyph glyph-name="Gdotaccent" unicode="&#x120;" 
d="M793 1631q-41 0 -70.5 29.5t-29.5 71.5q0 40 29.5 69t70.5 29t70.5 -29t29.5 -69q0 -42 -29.5 -71.5t-70.5 -29.5zM744 1420q229 0 331 -85.5t100 -288.5q0 -28 -30 -28h-116q-13 0 -21 10t-9 27q-6 112 -64 148.5t-197 36.5q-69 0 -118 -10.5t-96 -40.5t-79 -84
t-59 -142t-44 -214l-17 -118q-13 -90 -16 -160t2 -121t20.5 -86.5t36 -57.5t53.5 -34.5t67 -17t82 -4.5q178 0 264 83t116 294h-357q-15 0 -22.5 8.5t-5.5 23.5l16 104q4 28 32 28h504q33 0 28 -32l-20 -136q-41 -293 -173.5 -423t-392.5 -130q-91 0 -159 13.5t-122.5 44.5
t-87.5 81.5t-50 125t-16 175t20 231.5l17 119q27 196 72.5 323.5t118 202.5t165 104.5t227.5 29.5z" />
    <glyph glyph-name="gdotaccent" unicode="&#x121;" 
d="M731 1211q-41 0 -70.5 29.5t-29.5 71.5q0 40 29.5 69t70.5 29t70.5 -29t29.5 -69q0 -42 -29.5 -71.5t-70.5 -29.5zM1094 980q32 0 28 -32l-131 -914q-14 -99 -51 -176t-86 -124t-113 -77t-127 -41.5t-134 -11.5q-220 0 -371 108q-26 18 -11 42l55 81q13 21 38 5
q118 -80 305 -80q60 0 110.5 12.5t98 42t79.5 85.5t44 134l16 106q-36 -77 -118 -121.5t-188 -44.5q-195 0 -313.5 123t-118.5 328q0 162 71 295t192 207.5t266 74.5q104 0 183 -42.5t112 -114.5h20l25 110q4 25 34 25h85zM570 139q97 0 175.5 60t119.5 153t41 197
q0 140 -74 214.5t-189 74.5q-157 0 -260 -115.5t-103 -288.5q0 -138 78 -216.5t212 -78.5z" />
    <glyph glyph-name="Gcommaaccent" unicode="&#x122;" 
d="M744 1420q229 0 331 -85.5t100 -288.5q0 -28 -30 -28h-116q-13 0 -21 10t-9 27q-6 112 -64 148.5t-197 36.5q-69 0 -118 -10.5t-96 -40.5t-79 -84t-59 -142t-44 -214l-17 -118q-13 -90 -16 -160t2 -121t20.5 -86.5t36 -57.5t53.5 -34.5t67 -17t82 -4.5q178 0 264 83
t116 294h-357q-15 0 -22.5 8.5t-5.5 23.5l16 104q4 28 32 28h504q33 0 28 -32l-20 -136q-41 -293 -173.5 -423t-392.5 -130q-91 0 -159 13.5t-122.5 44.5t-87.5 81.5t-50 125t-16 175t20 231.5l17 119q27 196 72.5 323.5t118 202.5t165 104.5t227.5 29.5zM309 -313
q-30 0 -26 30l13 90q5 26 30 26h374q30 0 25 -30l-6 -49q-40 -280 -124 -425q-13 -22 -44 -22h-57q-15 0 -21.5 11t-0.5 29q27 74 49 170.5t26 169.5h-238z" />
    <glyph glyph-name="gcommaaccent" unicode="&#x123;" 
d="M479 1198q-29 0 -25 30l6 49q40 280 124 425q13 22 44 22h57q15 0 21.5 -11t0.5 -29q-27 -74 -49 -170.5t-26 -169.5h238q30 0 26 -30l-13 -90q-5 -26 -30 -26h-374zM1094 980q32 0 28 -32l-131 -914q-14 -99 -51 -176t-86 -124t-113 -77t-127 -41.5t-134 -11.5
q-220 0 -371 108q-26 18 -11 42l55 81q13 21 38 5q118 -80 305 -80q60 0 110.5 12.5t98 42t79.5 85.5t44 134l16 106q-36 -77 -118 -121.5t-188 -44.5q-195 0 -313.5 123t-118.5 328q0 162 71 295t192 207.5t266 74.5q104 0 183 -42.5t112 -114.5h20l25 110q4 25 34 25h85z
M570 139q97 0 175.5 60t119.5 153t41 197q0 140 -74 214.5t-189 74.5q-157 0 -260 -115.5t-103 -288.5q0 -138 78 -216.5t212 -78.5z" />
    <glyph glyph-name="Hbar" unicode="&#x126;" 
d="M1176 1400q32 0 27 -32l-188 -1340q-4 -28 -32 -28h-127q-32 0 -27 32l84 597h-557l-84 -601q-4 -28 -32 -28h-127q-32 0 -27 32l188 1340q4 28 32 28h127q32 0 27 -32l-36 -254h557l36 258q4 28 32 28h127zM380 799h557l21 156h-556z" />
    <glyph glyph-name="hbar" unicode="&#x127;" 
d="M1071 128q15 2 24 -8.5t6 -28.5l-9 -50q-10 -55 -102 -55q-80 0 -117 47.5t-27 118.5l62 437q18 124 -39 186.5t-163 62.5q-118 0 -204.5 -64t-123.5 -143l-86 -603q-3 -28 -32 -28h-118q-34 0 -28 32l155 1093h-75q-31 0 -28 32l13 85q3 28 32 28h79l14 102q3 28 32 28
h120q31 0 28 -32l-14 -98h251q31 0 28 -32l-13 -85q-3 -28 -32 -28h-255l-43 -302h14q50 77 140 128t205 51q82 0 148.5 -26t111.5 -75.5t63 -127t3 -174.5l-63 -422q-4 -27 7.5 -39.5t35.5 -9.5z" />
    <glyph glyph-name="Imacron" unicode="&#x12a;" 
d="M1055 1816q31 0 28 -32l-13 -85q-3 -28 -32 -28h-510q-31 0 -28 32l13 85q3 28 32 28h510zM1202 1258q-3 -28 -32 -28h-357l-149 -1060h353q34 0 28 -32l-16 -110q-3 -28 -32 -28h-898q-31 0 -28 32l16 110q3 28 32 28h358l149 1060h-354q-31 0 -28 32l15 110q3 28 32 28
h898q34 0 28 -32z" />
    <glyph glyph-name="imacron" unicode="&#x12b;" 
d="M996 1396q31 0 28 -32l-13 -85q-3 -28 -32 -28h-510q-31 0 -28 32l13 85q3 28 32 28h510zM1102 147q11 -20 -6 -37q-45 -49 -134 -89.5t-195 -40.5q-48 0 -90 8t-84 26.5t-71.5 50t-52.5 78t-26 110t7 146.5l65 426h-382q-31 0 -28 32l13 95q3 28 32 28h535q32 0 27 -32
l-83 -550q-6 -57 -5.5 -98t15 -70t30.5 -47t40 -28t44.5 -13.5t43.5 -3.5q111 0 223 91q28 23 44 -7z" />
    <glyph glyph-name="iogonek" unicode="&#x12f;" 
d="M732 1211q-41 0 -70.5 29.5t-29.5 71.5q0 40 29.5 69t70.5 29t70.5 -29t29.5 -69q0 -42 -29.5 -71.5t-70.5 -29.5zM1102 147q11 -20 -6 -37q-40 -44 -118 -82t-173 -46q-61 -23 -96 -67t-35 -90q0 -61 42.5 -88t119.5 -10v-123q-38 -17 -90.5 -17.5t-104 16t-87 65
t-35.5 120.5q0 124 116 210q-50 16 -88 44.5t-67 77t-35.5 116.5t5.5 163l65 426h-382q-31 0 -28 32l13 95q3 28 32 28h535q32 0 27 -32l-83 -550q-6 -57 -5.5 -98t15 -70t30.5 -47t40 -28t44.5 -13.5t43.5 -3.5q111 0 223 91q28 23 44 -7z" />
    <glyph glyph-name="Idotaccent" unicode="&#x130;" 
d="M791 1631q-41 0 -70.5 29.5t-29.5 71.5q0 40 29.5 69t70.5 29t70.5 -29t29.5 -69q0 -42 -29.5 -71.5t-70.5 -29.5zM1202 1258q-3 -28 -32 -28h-357l-149 -1060h353q34 0 28 -32l-16 -110q-3 -28 -32 -28h-898q-31 0 -28 32l16 110q3 28 32 28h358l149 1060h-354
q-31 0 -28 32l15 110q3 28 32 28h898q34 0 28 -32z" />
    <glyph glyph-name="dotlessi" unicode="&#x131;" 
d="M1102 147q11 -20 -6 -37q-45 -49 -134 -89.5t-195 -40.5q-48 0 -90 8t-84 26.5t-71.5 50t-52.5 78t-26 110t7 146.5l65 426h-382q-31 0 -28 32l13 95q3 28 32 28h535q32 0 27 -32l-83 -550q-6 -57 -5.5 -98t15 -70t30.5 -47t40 -28t44.5 -13.5t43.5 -3.5q111 0 223 91
q28 23 44 -7z" />
    <glyph glyph-name="IJ" unicode="&#x132;" 
d="M217 1372q3 28 32 28h127q31 0 28 -32l-188 -1340q-3 -28 -32 -28h-127q-31 0 -28 32zM583 1230q-31 0 -28 32l16 110q3 28 32 28h631q31 0 28 -32l-122 -869q-15 -107 -52.5 -194t-89 -146t-117 -99.5t-136 -59t-146.5 -18.5q-138 0 -223 54q-25 17 -9 43l50 86
q13 21 37 13q56 -22 136 -22q63 0 121 21t108 62.5t86 111t48 158.5l102 721h-472z" />
    <glyph glyph-name="ij" unicode="&#x133;" 
d="M318 1202q-46 0 -77.5 31.5t-31.5 77.5t31.5 77.5t77.5 31.5t77.5 -31.5t31.5 -77.5t-31.5 -77.5t-77.5 -31.5zM1123 1202q-46 0 -77.5 31.5t-31.5 77.5t31.5 77.5t77.5 31.5t77.5 -31.5t31.5 -77.5t-31.5 -77.5t-77.5 -31.5zM351 980q33 0 28 -32l-128 -920
q-4 -28 -32 -28h-120q-33 0 -28 32l128 920q4 28 32 28h120zM1149 980q13 0 22 -10.5t7 -24.5l-129 -920q-56 -410 -451 -410q-57 0 -113 13t-96 33t-70 41.5t-42.5 40.5t-6.5 28l59 82q19 27 49 4q101 -78 226 -78q42 0 79.5 10.5t78 37t70 82t40.5 135.5l108 781h-437
q-32 0 -28 32l14 95q3 28 32 28h588z" />
    <glyph glyph-name="Kcommaaccent" unicode="&#x136;" 
d="M1066 30q8 -12 3.5 -21t-19.5 -9h-141q-32 0 -45 24l-379 623l-180 -172l-64 -447q-3 -28 -32 -28h-127q-31 0 -28 32l188 1340q3 28 32 28h127q34 0 28 -32l-93 -643l669 657q18 18 48 18h161q19 0 23.5 -13t-10.5 -27l-608 -582zM298 -313q-30 0 -26 30l13 90
q5 26 30 26h374q29 0 25 -30l-6 -49q-40 -280 -124 -425q-13 -22 -44 -22h-57q-15 0 -21.5 11t-0.5 29q27 74 49 170.5t26 169.5h-238z" />
    <glyph glyph-name="kcommaaccent" unicode="&#x137;" 
d="M1101 985q20 0 26.5 -13.5t-8.5 -27.5l-437 -382l360 -526q22 -31 -16 -31h-144q-18 0 -33 22l-290 427l-236 -206l-31 -220q-3 -28 -32 -28h-118q-34 0 -28 32l190 1340q3 28 32 28h120q31 0 28 -32l-127 -887l555 492q12 12 39 12h150zM689 -167q29 0 25 -30l-6 -49
q-40 -280 -124 -425q-13 -22 -44 -22h-57q-15 0 -21.5 11t-0.5 29q27 74 49 170.5t26 169.5h-238q-30 0 -26 30l13 90q5 26 30 26h374z" />
    <glyph glyph-name="Lacute" unicode="&#x139;" 
d="M449 1493q-18 0 -23.5 10.5t3.5 25.5l159 254q11 20 36 20h94q18 0 23.5 -10.5t-3.5 -25.5l-158 -254q-11 -20 -36 -20h-95zM315 170h695q32 0 28 -32l-15 -110q-4 -28 -32 -28h-854q-31 0 -28 32l188 1340q3 28 32 28h127q31 0 28 -32z" />
    <glyph glyph-name="lacute" unicode="&#x13a;" 
d="M1119 144q9 -18 -6 -33q-52 -49 -148 -90t-214 -41q-51 0 -94.5 8t-87 27t-73.5 50t-52.5 78t-26 110.5t6.5 146.5l129 845h-357q-32 0 -28 32l14 95q4 28 32 28h506q32 0 28 -32l-145 -969q-39 -260 182 -260q124 0 249 92q27 20 42 -7zM922 1090q-18 0 -23.5 10.5
t3.5 25.5l159 254q11 20 36 20h94q18 0 23.5 -10.5t-3.5 -25.5l-158 -254q-11 -20 -36 -20h-95z" />
    <glyph glyph-name="Lcommaaccent" unicode="&#x13b;" 
d="M315 170h695q32 0 28 -32l-15 -110q-4 -28 -32 -28h-854q-31 0 -28 32l188 1340q3 28 32 28h127q31 0 28 -32zM298 -313q-30 0 -26 30l13 90q5 26 30 26h374q29 0 25 -30l-6 -49q-40 -280 -124 -425q-13 -22 -44 -22h-57q-15 0 -21.5 11t-0.5 29q27 74 49 170.5t26 169.5
h-238z" />
    <glyph glyph-name="lcommaaccent" unicode="&#x13c;" 
d="M1119 144q9 -18 -6 -33q-52 -49 -148 -90t-214 -41q-51 0 -94.5 8t-87 27t-73.5 50t-52.5 78t-26 110.5t6.5 146.5l129 845h-357q-32 0 -28 32l14 95q4 28 32 28h506q32 0 28 -32l-145 -969q-39 -260 182 -260q124 0 249 92q27 20 42 -7zM303 -313q-30 0 -26 30l13 90
q5 26 30 26h374q30 0 25 -30l-6 -49q-40 -280 -124 -425q-13 -22 -44 -22h-57q-15 0 -21.5 11t-0.5 29q27 74 49 170.5t26 169.5h-238z" />
    <glyph glyph-name="Lcaron" unicode="&#x13d;" 
d="M315 170h695q32 0 28 -32l-15 -110q-4 -28 -32 -28h-854q-31 0 -28 32l188 1340q3 28 32 28h127q31 0 28 -32zM607 1245q-33 0 -28 32l14 95q4 28 32 28h397q32 0 27 -32l-7 -52q-42 -295 -131 -451q-14 -24 -47 -24h-61q-16 0 -23 12t0 31q28 78 51.5 180.5t28.5 180.5
h-253z" />
    <glyph glyph-name="lcaron" unicode="&#x13e;" 
d="M1109 144q9 -18 -6 -33q-52 -49 -148 -90t-214 -41q-51 0 -94.5 8t-87 27t-73.5 50t-52.5 78t-26 110.5t6.5 146.5l129 845h-357q-32 0 -28 32l14 95q4 28 32 28h506q32 0 28 -32l-145 -969q-39 -260 182 -260q124 0 249 92q27 20 42 -7zM818 1245q-33 0 -28 32l14 95
q4 28 32 28h392q31 0 26 -32l-7 -52q-40 -293 -129 -451q-14 -24 -46 -24h-61q-15 0 -22 12t0 31q28 79 51 181.5t28 179.5h-250z" />
    <glyph glyph-name="Ldot" unicode="&#x13f;" 
d="M315 170h695q32 0 28 -32l-15 -110q-4 -28 -32 -28h-854q-31 0 -28 32l188 1340q3 28 32 28h127q31 0 28 -32zM710 606q-59 0 -100 41t-41 100t41 101t100 42t100 -42t41 -101t-41 -100t-100 -41z" />
    <glyph glyph-name="ldot" unicode="&#x140;" 
d="M1119 144q9 -18 -6 -33q-52 -49 -148 -90t-214 -41q-51 0 -94.5 8t-87 27t-73.5 50t-52.5 78t-26 110.5t6.5 146.5l129 845h-357q-32 0 -28 32l14 95q4 28 32 28h506q32 0 28 -32l-145 -969q-39 -260 182 -260q124 0 249 92q27 20 42 -7zM874 627q-59 0 -100 41t-41 100
t41 101t100 42t100 -42t41 -101t-41 -100t-100 -41z" />
    <glyph glyph-name="Lslash" unicode="&#x141;" 
d="M1000 170q32 0 28 -32l-16 -110q-3 -28 -32 -28h-843q-31 0 -28 32l56 402l-54 -53q-15 -15 -25.5 -9.5t-10.5 25.5v118q0 22 16 38l106 103l100 716q3 28 32 28h127q31 0 28 -32l-71 -501l172 167q15 14 25.5 9t10.5 -25v-116q0 -22 -16 -38l-223 -218l-67 -476h685z
" />
    <glyph glyph-name="lslash" unicode="&#x142;" 
d="M1119 144q9 -18 -6 -33q-52 -49 -148 -90t-214 -41q-51 0 -94.5 8t-87 27t-73.5 50t-52.5 78t-26 110.5t6.5 146.5l20 133l-174 -153v172l205 180l78 513h-357q-32 0 -28 32l14 95q4 28 32 28h506q32 0 28 -32l-68 -456l186 163l1 -170l-217 -191l-47 -315
q-39 -260 182 -260q124 0 249 92q27 20 42 -7z" />
    <glyph glyph-name="Nacute" unicode="&#x143;" 
d="M715 1510q-18 0 -23.5 10.5t3.5 25.5l159 254q11 20 36 20h94q18 0 23.5 -10.5t-3.5 -25.5l-158 -254q-11 -20 -36 -20h-95zM1037 1372q4 28 32 28h116q32 0 28 -32l-188 -1340q-4 -28 -32 -28h-170q-25 0 -34 24l-382 1104l-154 -1100q-4 -28 -32 -28h-117q-32 0 -28 32
l188 1340q4 28 32 28h170q26 0 34 -24l381 -1100z" />
    <glyph glyph-name="nacute" unicode="&#x144;" 
d="M655 1090q-18 0 -23.5 10.5t3.5 25.5l159 254q11 20 36 20h94q18 0 23.5 -10.5t-3.5 -25.5l-158 -254q-11 -20 -36 -20h-95zM1071 128q15 2 24 -8.5t6 -28.5l-9 -50q-10 -55 -102 -55q-80 0 -117 47.5t-27 118.5l62 437q18 124 -39 186.5t-163 62.5q-125 0 -215.5 -72
t-118.5 -153l-83 -585q-3 -28 -32 -28h-118q-34 0 -28 32l131 920q3 28 32 28h109q13 0 21.5 -10.5t6.5 -24.5l-9 -122h18q50 77 140 128t205 51q82 0 148.5 -26t111.5 -75.5t63 -127t3 -174.5l-63 -422q-4 -27 7.5 -39.5t35.5 -9.5zM364 571l5 30q-5 -18 -5 -30z" />
    <glyph glyph-name="Ncommaaccent" unicode="&#x145;" 
d="M1037 1372q4 28 32 28h116q32 0 28 -32l-188 -1340q-4 -28 -32 -28h-170q-25 0 -34 24l-382 1104l-154 -1100q-4 -28 -32 -28h-117q-32 0 -28 32l188 1340q4 28 32 28h170q26 0 34 -24l381 -1100zM298 -313q-30 0 -26 30l13 90q5 26 30 26h374q29 0 25 -30l-6 -49
q-40 -280 -124 -425q-13 -22 -44 -22h-57q-15 0 -21.5 11t-0.5 29q27 74 49 170.5t26 169.5h-238z" />
    <glyph glyph-name="ncommaaccent" unicode="&#x146;" 
d="M1071 128q15 2 24 -8.5t6 -28.5l-9 -50q-10 -55 -102 -55q-80 0 -117 47.5t-27 118.5l62 437q18 124 -39 186.5t-163 62.5q-125 0 -215.5 -72t-118.5 -153l-83 -585q-3 -28 -32 -28h-118q-34 0 -28 32l131 920q3 28 32 28h109q13 0 21.5 -10.5t6.5 -24.5l-9 -122h18
q50 77 140 128t205 51q82 0 148.5 -26t111.5 -75.5t63 -127t3 -174.5l-63 -422q-4 -27 7.5 -39.5t35.5 -9.5zM364 571l5 30q-5 -18 -5 -30zM689 -167q29 0 25 -30l-6 -49q-40 -280 -124 -425q-13 -22 -44 -22h-57q-15 0 -21.5 11t-0.5 29q27 74 49 170.5t26 169.5h-238
q-30 0 -26 30l13 90q5 26 30 26h374z" />
    <glyph glyph-name="Ncaron" unicode="&#x147;" 
d="M778 1668l193 174q14 14 38 14h130q20 0 25 -10.5t-9 -25.5l-265 -257q-14 -14 -38 -14h-174q-23 0 -36 18l-193 253q-12 15 -6 25.5t24 10.5h134q21 0 36 -18zM1037 1372q4 28 32 28h116q32 0 28 -32l-188 -1340q-4 -28 -32 -28h-170q-25 0 -34 24l-382 1104l-154 -1100
q-4 -28 -32 -28h-117q-32 0 -28 32l188 1340q4 28 32 28h170q26 0 34 -24l381 -1100z" />
    <glyph glyph-name="ncaron" unicode="&#x148;" 
d="M582 1147l-193 253q-12 15 -6 25.5t24 10.5h134q21 0 36 -18l141 -170l193 174q14 14 38 14h130q20 0 25 -10.5t-9 -25.5l-265 -257q-14 -14 -38 -14h-174q-23 0 -36 18zM1071 128q15 2 24 -8.5t6 -28.5l-9 -50q-10 -55 -102 -55q-80 0 -117 47.5t-27 118.5l62 437
q18 124 -39 186.5t-163 62.5q-125 0 -215.5 -72t-118.5 -153l-83 -585q-3 -28 -32 -28h-118q-34 0 -28 32l131 920q3 28 32 28h109q13 0 21.5 -10.5t6.5 -24.5l-9 -122h18q50 77 140 128t205 51q82 0 148.5 -26t111.5 -75.5t63 -127t3 -174.5l-63 -422q-4 -27 7.5 -39.5
t35.5 -9.5zM364 571l5 30q-5 -18 -5 -30z" />
    <glyph glyph-name="Eng" unicode="&#x14a;" 
d="M1185 1400q32 0 28 -32l-188 -1340q0 -1 -0.5 -3t-0.5 -3l-4 -27q-30 -213 -164.5 -309t-387.5 -96l15 173q325 0 362 237h-22q-25 0 -34 24l-382 1104l-154 -1100q-4 -28 -32 -28h-117q-32 0 -28 32l188 1340q4 28 32 28h170q26 0 34 -24l381 -1100l156 1096q4 28 32 28
h116z" />
    <glyph glyph-name="eng" unicode="&#x14b;" 
d="M1001 -14q-28 -189 -130.5 -285.5t-258.5 -96.5q-21 0 -25 22l-20 124q-3 17 9 17q103 0 169.5 70t85.5 201l78 551q18 124 -39.5 186.5t-162.5 62.5q-71 0 -133 -26t-102.5 -65.5t-66.5 -80t-36 -76.5l-80 -562q-3 -28 -32 -28h-118q-34 0 -28 32l131 920q3 28 32 28
h109q13 0 21.5 -10.5t6.5 -24.5l-9 -122h18q50 77 140 128t205 51q170 0 263.5 -105.5t64.5 -297.5z" />
    <glyph glyph-name="Omacron" unicode="&#x14c;" 
d="M1055 1816q31 0 28 -32l-13 -85q-3 -28 -32 -28h-510q-31 0 -28 32l13 85q3 28 32 28h510zM738 1420q90 0 157 -13t120.5 -44t86 -81.5t49.5 -125t15.5 -175t-19.5 -231.5l-17 -119q-28 -196 -73 -324t-117.5 -203t-164 -104.5t-225.5 -29.5q-90 0 -157 13.5t-120.5 44.5
t-86 81t-49.5 125t-15.5 175.5t19.5 231.5l17 119q22 158 56.5 270.5t81 188.5t112.5 120t144.5 62.5t185.5 18.5zM729 1240q-71 0 -119.5 -10t-94 -39.5t-76.5 -84t-56.5 -142.5t-43.5 -215l-17 -118q-15 -106 -18.5 -183.5t7 -130.5t28.5 -86t52.5 -51t72.5 -24t95 -6
q71 0 119.5 10t94 40t76.5 84.5t56.5 142t43.5 214.5l17 118q18 128 17.5 214.5t-14.5 139.5t-50 81t-78.5 37t-111.5 9z" />
    <glyph glyph-name="omacron" unicode="&#x14d;" 
d="M995 1396q31 0 28 -32l-13 -85q-3 -28 -32 -28h-510q-31 0 -28 32l13 85q3 28 32 28h510zM568 -26q-200 0 -328.5 131.5t-128.5 331.5q0 156 75 286.5t201.5 204.5t274.5 74q200 0 328.5 -131t128.5 -330q0 -117 -44 -222.5t-118 -180.5t-175.5 -119.5t-213.5 -44.5z
M574 139q157 0 263.5 111t106.5 289q0 133 -80.5 216t-208.5 83q-156 0 -262.5 -112t-106.5 -288q0 -134 80.5 -216.5t207.5 -82.5z" />
    <glyph glyph-name="Ohungarumlaut" unicode="&#x150;" 
d="M540 1510q-18 0 -23.5 10.5t3.5 25.5l159 254q11 20 36 20h94q18 0 23.5 -10.5t-3.5 -25.5l-158 -254q-11 -20 -36 -20h-95zM850 1510q-18 0 -23.5 10.5t3.5 25.5l159 254q11 20 36 20h94q18 0 23.5 -10.5t-3.5 -25.5l-158 -254q-11 -20 -36 -20h-95zM738 1420
q90 0 157 -13t120.5 -44t86 -81.5t49.5 -125t15.5 -175t-19.5 -231.5l-17 -119q-28 -196 -73 -324t-117.5 -203t-164 -104.5t-225.5 -29.5q-90 0 -157 13.5t-120.5 44.5t-86 81t-49.5 125t-15.5 175.5t19.5 231.5l17 119q22 158 56.5 270.5t81 188.5t112.5 120t144.5 62.5
t185.5 18.5zM729 1240q-71 0 -119.5 -10t-94 -39.5t-76.5 -84t-56.5 -142.5t-43.5 -215l-17 -118q-15 -106 -18.5 -183.5t7 -130.5t28.5 -86t52.5 -51t72.5 -24t95 -6q71 0 119.5 10t94 40t76.5 84.5t56.5 142t43.5 214.5l17 118q18 128 17.5 214.5t-14.5 139.5t-50 81
t-78.5 37t-111.5 9z" />
    <glyph glyph-name="ohungarumlaut" unicode="&#x151;" 
d="M480 1090q-18 0 -23.5 10.5t3.5 25.5l159 254q11 20 36 20h94q18 0 23.5 -10.5t-3.5 -25.5l-158 -254q-11 -20 -36 -20h-95zM790 1090q-18 0 -23.5 10.5t3.5 25.5l159 254q11 20 36 20h94q18 0 23.5 -10.5t-3.5 -25.5l-158 -254q-11 -20 -36 -20h-95zM568 -26
q-200 0 -328.5 131.5t-128.5 331.5q0 156 75 286.5t201.5 204.5t274.5 74q200 0 328.5 -131t128.5 -330q0 -117 -44 -222.5t-118 -180.5t-175.5 -119.5t-213.5 -44.5zM574 139q157 0 263.5 111t106.5 289q0 133 -80.5 216t-208.5 83q-156 0 -262.5 -112t-106.5 -288
q0 -134 80.5 -216.5t207.5 -82.5z" />
    <glyph glyph-name="OE" unicode="&#x152;" 
d="M1222 1400q13 0 22.5 -10.5t7.5 -24.5l-16 -110q-4 -25 -29 -25h-320l-58 -408h259q14 0 22.5 -11t5.5 -24l-15 -110q-3 -25 -29 -25h-267l-67 -482h313q14 0 23 -11t6 -24l-16 -110q-3 -25 -29 -25h-505q-90 0 -155.5 11t-119.5 39t-86.5 75t-50 118.5t-16 169.5
t19.5 228l16 119q22 156 56 266.5t80 183.5t113 115t145 58.5t187 16.5l-8 -86l12 86h499zM305 631q-10 -70 -14.5 -126.5t-4.5 -100.5t7.5 -77t17 -56.5t28 -39.5t37 -25.5t48 -14.5t56.5 -6.5t67 -1.5l-11 -119l162 1154q-58 0 -97.5 -6t-80 -23t-68 -49t-53.5 -83.5
t-44.5 -127.5t-33.5 -180z" />
    <glyph glyph-name="oe" unicode="&#x153;" 
d="M851 124q64 0 109 24t93 71l72 -102q-113 -143 -282 -143q-199 0 -265 154q-102 -154 -272 -154q-140 0 -206 96.5t-66 267.5q0 103 14.5 198.5t46.5 180.5t78 148t113 100t147 37q187 0 231 -172q109 172 278 172q261 0 261 -333q0 -126 -22 -192t-81 -66l-412 -3
q-14 -137 22 -210.5t141 -73.5zM310 127q64 0 114.5 48t79.5 125t44 162t15 168q0 219 -134 219q-64 0 -114.5 -47.5t-79 -123t-42.5 -157t-14 -159.5q0 -119 31.5 -177t99.5 -58zM935 849q-90 0 -148.5 -84t-81.5 -221l352 6q47 299 -122 299z" />
    <glyph glyph-name="Racute" unicode="&#x154;" 
d="M715 1510q-18 0 -23.5 10.5t3.5 25.5l159 254q11 20 36 20h94q18 0 23.5 -10.5t-3.5 -25.5l-158 -254q-11 -20 -36 -20h-95zM835 538l233 -502q16 -36 -20 -36h-125q-26 0 -36 20l-230 501h-308l-69 -493q-4 -28 -32 -28h-127q-32 0 -27 32l188 1340q4 28 32 28h466
q215 0 306 -79t91 -242q0 -235 -82.5 -368.5t-259.5 -172.5zM449 1230l-76 -539h308q179 0 247.5 89.5t68.5 287.5q0 53 -13 86t-44.5 49.5t-70 21.5t-104.5 5h-316z" />
    <glyph glyph-name="racute" unicode="&#x155;" 
d="M655 1090q-18 0 -23.5 10.5t3.5 25.5l159 254q11 20 36 20h94q18 0 23.5 -10.5t-3.5 -25.5l-158 -254q-11 -20 -36 -20h-95zM813 1002q86 0 154.5 -26t115.5 -75.5t65 -126.5t2 -173q-3 -24 -36 -27l-113 -14q-34 -3 -31 30q16 126 -42 187.5t-173 61.5
q-75 0 -140.5 -25.5t-107.5 -63.5t-67.5 -73t-37.5 -64l-83 -585q-4 -28 -32 -28h-118q-32 0 -28 32l131 920q4 28 32 28h109q13 0 21 -10.5t7 -24.5l-9 -122h17q51 76 146.5 127.5t217.5 51.5z" />
    <glyph glyph-name="Rcommaaccent" unicode="&#x156;" 
d="M835 538l233 -502q16 -36 -20 -36h-125q-26 0 -36 20l-230 501h-308l-69 -493q-4 -28 -32 -28h-127q-32 0 -27 32l188 1340q4 28 32 28h466q215 0 306 -79t91 -242q0 -235 -82.5 -368.5t-259.5 -172.5zM449 1230l-76 -539h308q179 0 247.5 89.5t68.5 287.5q0 53 -13 86
t-44.5 49.5t-70 21.5t-104.5 5h-316zM689 -167q29 0 25 -30l-6 -49q-40 -280 -124 -425q-13 -22 -44 -22h-57q-15 0 -21.5 11t-0.5 29q27 74 49 170.5t26 169.5h-238q-30 0 -26 30l13 90q5 26 30 26h374z" />
    <glyph glyph-name="rcommaaccent" unicode="&#x157;" 
d="M813 1002q86 0 154.5 -26t115.5 -75.5t65 -126.5t2 -173q-3 -24 -36 -27l-113 -14q-34 -3 -31 30q16 126 -42 187.5t-173 61.5q-75 0 -140.5 -25.5t-107.5 -63.5t-67.5 -73t-37.5 -64l-83 -585q-4 -28 -32 -28h-118q-32 0 -28 32l131 920q4 28 32 28h109q13 0 21 -10.5
t7 -24.5l-9 -122h17q51 76 146.5 127.5t217.5 51.5zM689 -167q29 0 25 -30l-6 -49q-40 -280 -124 -425q-13 -22 -44 -22h-57q-15 0 -21.5 11t-0.5 29q27 74 49 170.5t26 169.5h-238q-30 0 -26 30l13 90q5 26 30 26h374z" />
    <glyph glyph-name="Rcaron" unicode="&#x158;" 
d="M642 1567l-193 253q-12 15 -6 25.5t24 10.5h134q21 0 36 -18l141 -170l193 174q14 14 38 14h130q20 0 25 -10.5t-9 -25.5l-265 -257q-14 -14 -38 -14h-174q-23 0 -36 18zM835 538l233 -502q16 -36 -20 -36h-125q-26 0 -36 20l-230 501h-308l-69 -493q-4 -28 -32 -28h-127
q-32 0 -27 32l188 1340q4 28 32 28h466q215 0 306 -79t91 -242q0 -235 -82.5 -368.5t-259.5 -172.5zM449 1230l-76 -539h308q179 0 247.5 89.5t68.5 287.5q0 53 -13 86t-44.5 49.5t-70 21.5t-104.5 5h-316z" />
    <glyph glyph-name="rcaron" unicode="&#x159;" 
d="M582 1147l-193 253q-12 15 -6 25.5t24 10.5h134q21 0 36 -18l141 -170l193 174q14 14 38 14h130q20 0 25 -10.5t-9 -25.5l-265 -257q-14 -14 -38 -14h-174q-23 0 -36 18zM813 1002q86 0 154.5 -26t115.5 -75.5t65 -126.5t2 -173q-3 -24 -36 -27l-113 -14q-34 -3 -31 30
q16 126 -42 187.5t-173 61.5q-75 0 -140.5 -25.5t-107.5 -63.5t-67.5 -73t-37.5 -64l-83 -585q-4 -28 -32 -28h-118q-32 0 -28 32l131 920q4 28 32 28h109q13 0 21 -10.5t7 -24.5l-9 -122h17q51 76 146.5 127.5t217.5 51.5z" />
    <glyph glyph-name="Sacute" unicode="&#x15a;" 
d="M717 1510q-18 0 -23.5 10.5t3.5 25.5l159 254q11 20 36 20h94q18 0 23.5 -10.5t-3.5 -25.5l-158 -254q-11 -20 -36 -20h-95zM646 795q70 -16 120 -30.5t108.5 -36.5t98 -49.5t74 -64t51.5 -86t17 -109.5q0 -220 -151.5 -332.5t-409.5 -112.5q-233 0 -354.5 83t-111.5 250
q0 29 29 29h118q25 0 27 -32q1 -76 80.5 -118.5t220.5 -42.5q177 0 272.5 65.5t95.5 196.5q0 43 -13.5 75.5t-34.5 54.5t-61.5 39.5t-79.5 29t-103 25.5q-75 18 -131.5 36.5t-114 49t-94.5 69t-60 95t-23 127.5q0 197 136 303.5t372 106.5q220 0 338 -81.5t111 -243.5
q0 -27 -31 -27h-108q-31 0 -33 30q-4 74 -79 114.5t-204 40.5q-156 0 -238.5 -60t-82.5 -177q0 -89 59.5 -138t189.5 -79z" />
    <glyph glyph-name="sacute" unicode="&#x15b;" 
d="M655 1090q-18 0 -23.5 10.5t3.5 25.5l159 254q11 20 36 20h94q18 0 23.5 -10.5t-3.5 -25.5l-158 -254q-11 -20 -36 -20h-95zM636 558q54 -6 90.5 -11.5t86 -16.5t83 -23.5t69.5 -33t57.5 -45.5t35.5 -61t14 -79q0 -101 -65.5 -174t-173.5 -107.5t-246 -34.5
q-104 0 -185 16.5t-142 52t-92 95t-28 140.5q1 27 28 27h116q26 0 28 -33q8 -145 280 -145q60 0 113.5 9t97.5 27.5t69.5 50t25.5 71.5q0 24 -8 42.5t-28 32t-39.5 22.5t-56 17t-63 12.5t-75.5 11.5q-41 6 -67.5 10t-65 11t-64 14.5t-58 20t-53.5 26t-43 33t-35 42.5
t-21 52.5t-8 64.5q0 145 124.5 226t332.5 81q200 0 310 -72t108 -229q0 -27 -31 -27h-111q-26 0 -27 30q-5 80 -71 113t-183 33q-121 0 -199.5 -38t-78.5 -115q0 -65 62.5 -94t186.5 -45z" />
    <glyph glyph-name="Scedilla" unicode="&#x15e;" 
d="M724 1416q220 0 338 -81.5t111 -243.5q0 -27 -31 -27h-108q-31 0 -33 30q-4 74 -79 114.5t-204 40.5q-156 0 -238.5 -60t-82.5 -177q0 -89 59.5 -138t189.5 -79q70 -16 120 -30.5t108.5 -36.5t98 -49.5t74 -64t51.5 -86t17 -109.5q0 -209 -136.5 -320.5t-372.5 -123.5
l-50 -50q69 -6 117.5 -48t48.5 -109q0 -80 -48.5 -129.5t-118 -63t-148.5 -0.5q-18 3 -18 22v65q0 10 6 15.5t16 4.5q82 -11 128.5 9.5t46.5 65.5q0 42 -51 60.5t-122 -8.5q-11 -4 -17.5 -0.5t-6.5 14.5v64q0 14 10 24l64 66q-189 15 -286.5 98t-88.5 232q0 29 29 29h118
q25 0 27 -32q1 -76 80.5 -118.5t220.5 -42.5q177 0 272.5 65.5t95.5 196.5q0 43 -13.5 75.5t-34.5 54.5t-61.5 39.5t-79.5 29t-103 25.5q-75 18 -131.5 36.5t-114 49t-94.5 69t-60 95t-23 127.5q0 197 136 303.5t372 106.5z" />
    <glyph glyph-name="scedilla" unicode="&#x15f;" 
d="M670 1002q200 0 310 -72t108 -229q0 -27 -31 -27h-111q-26 0 -27 30q-5 80 -71 113t-183 33q-121 0 -199.5 -38t-78.5 -115q0 -65 62.5 -94t186.5 -45q54 -6 90.5 -11.5t86 -16.5t83 -23.5t69.5 -33t57.5 -45.5t35.5 -61t14 -79q0 -99 -63.5 -171t-168.5 -107.5
t-239 -37.5l-47 -47q69 -6 117.5 -48t48.5 -109q0 -80 -48.5 -129.5t-118 -63t-148.5 -0.5q-18 3 -18 22v65q0 10 6 15.5t16 4.5q82 -11 128.5 9.5t46.5 65.5q0 42 -51 60.5t-122 -8.5q-11 -4 -17.5 -0.5t-6.5 14.5v64q0 14 10 24l66 68q-334 38 -323 297q1 27 28 27h116
q26 0 28 -33q8 -145 280 -145q60 0 113.5 9t97.5 27.5t69.5 50t25.5 71.5q0 24 -8 42.5t-28 32t-39.5 22.5t-56 17t-63 12.5t-75.5 11.5q-41 6 -67.5 10t-65 11t-64 14.5t-58 20t-53.5 26t-43 33t-35 42.5t-21 52.5t-8 64.5q0 145 124.5 226t332.5 81z" />
    <glyph glyph-name="Scaron" unicode="&#x160;" 
d="M780 1668l193 174q14 14 38 14h130q20 0 25 -10.5t-9 -25.5l-265 -257q-14 -14 -38 -14h-174q-23 0 -36 18l-193 253q-12 15 -6 25.5t24 10.5h134q21 0 36 -18zM646 795q70 -16 120 -30.5t108.5 -36.5t98 -49.5t74 -64t51.5 -86t17 -109.5q0 -220 -151.5 -332.5
t-409.5 -112.5q-233 0 -354.5 83t-111.5 250q0 29 29 29h118q25 0 27 -32q1 -76 80.5 -118.5t220.5 -42.5q177 0 272.5 65.5t95.5 196.5q0 43 -13.5 75.5t-34.5 54.5t-61.5 39.5t-79.5 29t-103 25.5q-75 18 -131.5 36.5t-114 49t-94.5 69t-60 95t-23 127.5q0 197 136 303.5
t372 106.5q220 0 338 -81.5t111 -243.5q0 -27 -31 -27h-108q-31 0 -33 30q-4 74 -79 114.5t-204 40.5q-156 0 -238.5 -60t-82.5 -177q0 -89 59.5 -138t189.5 -79z" />
    <glyph glyph-name="scaron" unicode="&#x161;" 
d="M718 1248l193 174q14 14 38 14h130q20 0 25 -10.5t-9 -25.5l-265 -257q-14 -14 -38 -14h-174q-23 0 -36 18l-193 253q-12 15 -6 25.5t24 10.5h134q21 0 36 -18zM636 558q54 -6 90.5 -11.5t86 -16.5t83 -23.5t69.5 -33t57.5 -45.5t35.5 -61t14 -79q0 -101 -65.5 -174
t-173.5 -107.5t-246 -34.5q-104 0 -185 16.5t-142 52t-92 95t-28 140.5q1 27 28 27h116q26 0 28 -33q8 -145 280 -145q60 0 113.5 9t97.5 27.5t69.5 50t25.5 71.5q0 24 -8 42.5t-28 32t-39.5 22.5t-56 17t-63 12.5t-75.5 11.5q-41 6 -67.5 10t-65 11t-64 14.5t-58 20
t-53.5 26t-43 33t-35 42.5t-21 52.5t-8 64.5q0 145 124.5 226t332.5 81q200 0 310 -72t108 -229q0 -27 -31 -27h-111q-26 0 -27 30q-5 80 -71 113t-183 33q-121 0 -199.5 -38t-78.5 -115q0 -65 62.5 -94t186.5 -45z" />
    <glyph glyph-name="uni0162" unicode="&#x162;" 
d="M1221 1400q31 0 28 -32l-16 -110q-3 -28 -32 -28h-388l-168 -1202q-3 -28 -32 -28h16l-75 -75q69 -6 117.5 -48t48.5 -109q0 -80 -48.5 -129.5t-118 -63t-148.5 -0.5q-18 3 -18 22v65q0 10 6 15.5t16 4.5q82 -11 128.5 9.5t46.5 65.5q0 42 -51 60.5t-122 -8.5
q-11 -4 -17.5 -0.5t-6.5 14.5v64q0 14 10 24l86 89h3q-31 0 -28 32l168 1198h-384q-31 0 -28 32l15 110q3 28 32 28h960z" />
    <glyph glyph-name="uni0163" unicode="&#x163;" 
d="M1144 980q31 0 28 -32l-13 -95q-3 -28 -32 -28h-488l-64 -427q-38 -260 181 -260q115 0 240 92q11 8 23.5 6t19.5 -14l40 -81q6 -15 -8 -30q-46 -47 -140.5 -89t-206.5 -42h-7l-55 -55q69 -6 117.5 -48t48.5 -109q0 -80 -48.5 -129.5t-118 -63t-148.5 -0.5q-18 3 -18 22
v65q0 10 6 15.5t16 4.5q82 -11 128.5 9.5t46.5 65.5q0 42 -51 60.5t-122 -8.5q-11 -4 -17.5 -0.5t-6.5 14.5v64q0 14 10 24l84 87q-109 32 -164 128.5t-29 272.5l62 426h-311q-31 0 -28 32l13 95q3 28 32 28h316l38 262q4 28 32 28h122q32 0 28 -32l-38 -258h482z" />
    <glyph glyph-name="Tcaron" unicode="&#x164;" 
d="M778 1668l193 174q14 14 38 14h130q20 0 25 -10.5t-9 -25.5l-265 -257q-14 -14 -38 -14h-174q-23 0 -36 18l-193 253q-12 15 -6 25.5t24 10.5h134q21 0 36 -18zM1221 1400q31 0 28 -32l-16 -110q-3 -28 -32 -28h-388l-168 -1202q-3 -28 -32 -28h-127q-31 0 -28 32
l168 1198h-384q-31 0 -28 32l15 110q3 28 32 28h960z" />
    <glyph glyph-name="tcaron" unicode="&#x165;" 
d="M1269 1600q18 0 23.5 -10.5t-3.5 -25.5l-158 -254q-11 -20 -36 -20h-95q-18 0 -23.5 10.5t3.5 25.5l159 254q11 20 36 20h94zM1144 980q31 0 28 -32l-13 -95q-3 -28 -32 -28h-488l-64 -427q-38 -260 181 -260q115 0 240 92q11 8 23.5 6t19.5 -14l40 -81q6 -15 -8 -30
q-46 -47 -140.5 -89t-206.5 -42q-50 0 -93 8t-86.5 26.5t-73.5 50t-53.5 78t-27.5 110t6 146.5l62 426h-311q-31 0 -28 32l13 95q3 28 32 28h316l38 262q4 28 32 28h122q32 0 28 -32l-38 -258h482z" />
    <glyph glyph-name="Tbar" unicode="&#x166;" 
d="M1221 1400q31 0 28 -32l-16 -110q-3 -28 -32 -28h-388l-35 -250h160q31 0 28 -32l-13 -85q-3 -28 -32 -28h-163l-113 -807q-3 -28 -32 -28h-127q-31 0 -28 32l113 803h-160q-31 0 -28 32l13 85q3 28 32 28h163l35 250h-384q-31 0 -28 32l15 110q3 28 32 28h960z" />
    <glyph glyph-name="tbar" unicode="&#x167;" 
d="M1144 980q31 0 28 -32l-13 -95q-3 -28 -32 -28h-488l-19 -124h486q31 0 28 -32l-12 -91q-3 -28 -32 -28h-492l-23 -152q-38 -260 181 -260q115 0 240 92q11 8 23.5 6t19.5 -14l40 -81q6 -15 -8 -30q-46 -47 -140.5 -89t-206.5 -42q-50 0 -93 8t-86.5 26.5t-73.5 50
t-53.5 78t-27.5 110t6 146.5l22 151h-302q-31 0 -28 32l12 91q3 28 32 28h308l18 124h-311q-31 0 -28 32l13 95q3 28 32 28h316l38 262q4 28 32 28h122q32 0 28 -32l-38 -258h482z" />
    <glyph glyph-name="Umacron" unicode="&#x16a;" 
d="M1055 1816q31 0 28 -32l-13 -85q-3 -28 -32 -28h-510q-31 0 -28 32l13 85q3 28 32 28h510zM1186 1400q31 0 28 -32l-120 -855q-40 -279 -174 -411t-369 -132q-484 0 -406 553l119 849q3 28 32 28h127q31 0 28 -32l-120 -855q-28 -193 28 -279.5t199 -86.5q151 0 236.5 91
t113.5 285l119 849q3 28 32 28h127z" />
    <glyph glyph-name="umacron" unicode="&#x16b;" 
d="M431 1251q-31 0 -28 32l13 85q3 28 32 28h510q31 0 28 -32l-13 -85q-3 -28 -32 -28h-510zM1112 948l-111 -771q-4 -27 7.5 -39.5t35.5 -9.5q15 2 23.5 -8t5.5 -29l-8 -50q-10 -55 -103 -55q-78 0 -107.5 46t-18.5 120l3 22h-16q-42 -82 -135.5 -137.5t-214.5 -55.5
q-163 0 -254.5 108t-63.5 300l81 563q3 28 32 28h119q33 0 28 -32l-79 -549q-18 -124 37 -187t154 -63q115 0 195 67.5t128 164.5l83 574q3 25 34 25h117q34 0 28 -32z" />
    <glyph glyph-name="Ubreve" unicode="&#x16c;" 
d="M966 1809q8 21 33 21h67q16 0 23 -10.5t3 -29.5q-27 -111 -112 -180.5t-209 -69.5q-131 0 -203 75t-64 187q3 28 29 28h69q26 0 29 -36q5 -57 41.5 -90.5t103.5 -33.5q70 0 119.5 39.5t70.5 99.5zM1186 1400q31 0 28 -32l-120 -855q-40 -279 -174 -411t-369 -132
q-484 0 -406 553l119 849q3 28 32 28h127q31 0 28 -32l-120 -855q-28 -193 28 -279.5t199 -86.5q151 0 236.5 91t113.5 285l119 849q3 28 32 28h127z" />
    <glyph glyph-name="ubreve" unicode="&#x16d;" 
d="M674 1120q-131 0 -203 75t-64 187q3 28 29 28h69q26 0 29 -36q5 -57 41.5 -90.5t103.5 -33.5q70 0 119.5 39.5t70.5 99.5q8 21 33 21h67q16 0 23 -10.5t3 -29.5q-27 -111 -112 -180.5t-209 -69.5zM1112 948l-111 -771q-4 -27 7.5 -39.5t35.5 -9.5q15 2 23.5 -8t5.5 -29
l-8 -50q-10 -55 -103 -55q-78 0 -107.5 46t-18.5 120l3 22h-16q-42 -82 -135.5 -137.5t-214.5 -55.5q-163 0 -254.5 108t-63.5 300l81 563q3 28 32 28h119q33 0 28 -32l-79 -549q-18 -124 37 -187t154 -63q115 0 195 67.5t128 164.5l83 574q3 25 34 25h117q34 0 28 -32z" />
    <glyph glyph-name="Uring" unicode="&#x16e;" 
d="M783 1881q77 0 130 -53.5t53 -127.5t-53 -127.5t-130 -53.5t-130 53.5t-53 127.5t53 127.5t130 53.5zM783 1630q30 0 51.5 20t21.5 50q-1 31 -22 51t-51 20t-51 -20.5t-21 -50.5t21 -50t51 -20zM1186 1400q31 0 28 -32l-120 -855q-40 -279 -174 -411t-369 -132
q-484 0 -406 553l119 849q3 28 32 28h127q31 0 28 -32l-120 -855q-28 -193 28 -279.5t199 -86.5q151 0 236.5 91t113.5 285l119 849q3 28 32 28h127z" />
    <glyph glyph-name="uring" unicode="&#x16f;" 
d="M686 1099q-77 0 -130 53.5t-53 127.5t53 127.5t130 53.5t130 -53.5t53 -127.5t-53 -127.5t-130 -53.5zM686 1351q-30 0 -51 -20.5t-21 -50.5t21 -50t51 -20t51.5 20t21.5 50q-1 31 -22 51t-51 20zM1112 948l-111 -771q-4 -27 7.5 -39.5t35.5 -9.5q15 2 23.5 -8t5.5 -29
l-8 -50q-10 -55 -103 -55q-78 0 -107.5 46t-18.5 120l3 22h-16q-42 -82 -135.5 -137.5t-214.5 -55.5q-163 0 -254.5 108t-63.5 300l81 563q3 28 32 28h119q33 0 28 -32l-79 -549q-18 -124 37 -187t154 -63q115 0 195 67.5t128 164.5l83 574q3 25 34 25h117q34 0 28 -32z" />
    <glyph glyph-name="Uhungarumlaut" unicode="&#x170;" 
d="M540 1510q-18 0 -23.5 10.5t3.5 25.5l159 254q11 20 36 20h94q18 0 23.5 -10.5t-3.5 -25.5l-158 -254q-11 -20 -36 -20h-95zM850 1510q-18 0 -23.5 10.5t3.5 25.5l159 254q11 20 36 20h94q18 0 23.5 -10.5t-3.5 -25.5l-158 -254q-11 -20 -36 -20h-95zM1186 1400
q31 0 28 -32l-120 -855q-40 -279 -174 -411t-369 -132q-484 0 -406 553l119 849q3 28 32 28h127q31 0 28 -32l-120 -855q-28 -193 28 -279.5t199 -86.5q151 0 236.5 91t113.5 285l119 849q3 28 32 28h127z" />
    <glyph glyph-name="uhungarumlaut" unicode="&#x171;" 
d="M443 1090q-18 0 -23.5 10.5t3.5 25.5l159 254q11 20 36 20h94q18 0 23.5 -10.5t-3.5 -25.5l-158 -254q-11 -20 -36 -20h-95zM753 1090q-18 0 -23.5 10.5t3.5 25.5l159 254q11 20 36 20h94q18 0 23.5 -10.5t-3.5 -25.5l-158 -254q-11 -20 -36 -20h-95zM1112 948l-111 -771
q-4 -27 7.5 -39.5t35.5 -9.5q15 2 23.5 -8t5.5 -29l-8 -50q-10 -55 -103 -55q-78 0 -107.5 46t-18.5 120l3 22h-16q-42 -82 -135.5 -137.5t-214.5 -55.5q-163 0 -254.5 108t-63.5 300l81 563q3 28 32 28h119q33 0 28 -32l-79 -549q-18 -124 37 -187t154 -63q115 0 195 67.5
t128 164.5l83 574q3 25 34 25h117q34 0 28 -32z" />
    <glyph glyph-name="Uogonek" unicode="&#x172;" 
d="M1186 1400q31 0 28 -32l-120 -855q-32 -224 -124.5 -352.5t-248.5 -170.5q-151 -69 -151 -169q0 -58 42.5 -84.5t119.5 -9.5v-123q-30 -14 -70.5 -18t-84 5.5t-80 31t-60 64.5t-23.5 101q0 106 88 184q-431 27 -357 551l119 849q3 28 32 28h127q31 0 28 -32l-120 -855
q-28 -193 28 -279.5t199 -86.5q151 0 236.5 91t113.5 285l119 849q3 28 32 28h127z" />
    <glyph glyph-name="uogonek" unicode="&#x173;" 
d="M1112 948l-111 -771q-4 -27 7.5 -39.5t35.5 -9.5q15 2 23.5 -8t5.5 -29l-8 -50q-6 -36 -55 -50q-3 0 -5 -1l-17 -3q-90 -16 -139.5 -60t-49.5 -102q0 -61 42.5 -88t119.5 -10v-123q-30 -14 -70.5 -18t-84 5.5t-80 31t-60 64.5t-23.5 101q0 90 57.5 153.5t147.5 100.5
q-22 43 -12 110l3 22h-16q-42 -82 -135.5 -137.5t-214.5 -55.5q-163 0 -254.5 108t-63.5 300l81 563q3 28 32 28h119q33 0 28 -32l-79 -549q-18 -124 37 -187t154 -63q115 0 195 67.5t128 164.5l83 574q3 25 34 25h117q34 0 28 -32z" />
    <glyph glyph-name="Wcircumflex" unicode="&#x174;" 
d="M792 1737l-193 -174q-14 -14 -38 -14h-132q-20 0 -25 10.5t10 25.5l266 257q14 14 38 14h174q24 0 36 -18l191 -253q11 -15 5.5 -25.5t-23.5 -10.5h-132q-21 0 -36 18zM1102 1374q6 26 34 26h117q16 0 23 -9.5t3 -24.5l-365 -1341q-6 -25 -33 -25h-162q-30 0 -30 30
l-7 923l-269 -928q-7 -25 -34 -25h-162q-30 0 -30 30l12 1340q0 30 30 30h116q29 0 29 -30l-33 -1135l329 1140q7 25 33 25h75q29 0 29 -30l9 -1135z" />
    <glyph glyph-name="wcircumflex" unicode="&#x175;" 
d="M732 1317l-193 -174q-14 -14 -38 -14h-132q-20 0 -25 10.5t10 25.5l266 257q14 14 38 14h174q24 0 36 -18l191 -253q11 -15 5.5 -25.5t-23.5 -10.5h-132q-21 0 -36 18zM1169 980q30 0 30 -30q0 -197 -26 -368.5t-77.5 -309.5t-136.5 -218t-195 -80q-62 0 -109.5 27.5
t-69.5 82.5q-42 -55 -103.5 -83t-126.5 -28q-54 0 -96.5 16.5t-75 51.5t-44.5 96.5t0 145.5l79 546h-67q-31 0 -28 32l12 91q3 28 32 28h214q13 0 21.5 -10.5t6.5 -24.5l-97 -650q-24 -152 83 -152q121 0 143 145l96 664q3 28 32 28h99q31 0 28 -32l-90 -665
q-10 -70 3.5 -105t58.5 -35q77 0 139 113.5t94.5 297t31.5 396.5q0 30 30 30h109z" />
    <glyph glyph-name="Ycircumflex" unicode="&#x176;" 
d="M430 1549q-20 0 -25 10.5t10 25.5l266 257q14 14 38 14h174q24 0 36 -18l191 -253q10 -15 5 -25.5t-23 -10.5h-132q-21 0 -36 18l-141 170l-193 -174q-14 -14 -38 -14h-132zM1255 1400q18 0 23 -10t-5 -26l-555 -811l-75 -525q-3 -28 -32 -28h-127q-31 0 -28 32l75 525
l-327 809q-6 16 0.5 25t23.5 9h130q27 0 35 -24l252 -645l439 649q12 20 38 20h133z" />
    <glyph glyph-name="ycircumflex" unicode="&#x177;" 
d="M369 1129q-20 0 -25 10.5t10 25.5l266 257q14 14 38 14h174q24 0 36 -18l191 -253q11 -15 5.5 -25.5t-23.5 -10.5h-132q-21 0 -36 18l-141 170l-193 -174q-14 -14 -38 -14h-132zM1106 980q34 0 28 -32l-127 -868q-13 -88 -39.5 -159t-59.5 -119t-77 -84t-86.5 -56
t-93.5 -32.5t-91.5 -16t-87.5 -3.5q-115 0 -203 27t-144.5 92.5t-57.5 162.5q0 30 30 30h112q23 0 31 -28q16 -71 80 -100.5t169 -29.5q67 0 120 14.5t99.5 49t77 98t43.5 154.5l19 130h-5q-45 -82 -136 -133t-214 -51q-171 0 -260.5 98t-60.5 295l78 533q3 28 32 28h118
q31 0 28 -32l-74 -519q-10 -68 0.5 -115.5t39 -72.5t65 -36t85.5 -11q66 0 123 21t97 57.5t67.5 73.5t47.5 80l76 529q3 25 34 25h117zM913 527q1 2 1 5z" />
    <glyph glyph-name="Ydieresis" unicode="&#x178;" 
d="M602 1641q-41 0 -70.5 29.5t-29.5 71.5q0 40 29.5 69t70.5 29t70.5 -29t29.5 -69q0 -42 -29.5 -71.5t-70.5 -29.5zM985 1641q-41 0 -70.5 29.5t-29.5 71.5q0 40 29.5 69t70.5 29t70.5 -29t29.5 -69q0 -42 -29.5 -71.5t-70.5 -29.5zM1255 1400q18 0 23 -10t-5 -26
l-555 -811l-75 -525q-3 -28 -32 -28h-127q-31 0 -28 32l75 525l-327 809q-6 16 0.5 25t23.5 9h130q27 0 35 -24l252 -645l439 649q12 20 38 20h133z" />
    <glyph glyph-name="Zacute" unicode="&#x179;" 
d="M715 1510q-18 0 -23.5 10.5t3.5 25.5l159 254q11 20 36 20h94q18 0 23.5 -10.5t-3.5 -25.5l-158 -254q-11 -20 -36 -20h-95zM970 1230h-681q-31 0 -28 32l16 110q3 28 32 28h863q34 0 28 -32l-18 -123q-3 -23 -16 -38l-869 -1037h723q32 0 28 -32l-16 -110
q-3 -28 -32 -28h-903q-31 0 -28 32l17 123q3 24 16 38z" />
    <glyph glyph-name="zacute" unicode="&#x17a;" 
d="M655 1090q-18 0 -23.5 10.5t3.5 25.5l159 254q11 20 36 20h94q18 0 23.5 -10.5t-3.5 -25.5l-158 -254q-11 -20 -36 -20h-95zM1104 945l-13 -99q-3 -25 -16 -37l-718 -658h638q34 0 28 -32l-13 -91q-3 -28 -32 -28h-823q-13 0 -22 10.5t-7 24.5l14 99q4 27 15 38l719 657
h-638q-34 0 -28 32l13 91q3 28 32 28h822q13 0 22 -10.5t7 -24.5z" />
    <glyph glyph-name="Zdotaccent" unicode="&#x17b;" 
d="M791 1631q-41 0 -70.5 29.5t-29.5 71.5q0 40 29.5 69t70.5 29t70.5 -29t29.5 -69q0 -42 -29.5 -71.5t-70.5 -29.5zM970 1230h-681q-31 0 -28 32l16 110q3 28 32 28h863q34 0 28 -32l-18 -123q-3 -23 -16 -38l-869 -1037h723q32 0 28 -32l-16 -110q-3 -28 -32 -28h-903
q-31 0 -28 32l17 123q3 24 16 38z" />
    <glyph glyph-name="zdotaccent" unicode="&#x17c;" 
d="M731 1211q-41 0 -70.5 29.5t-29.5 71.5q0 40 29.5 69t70.5 29t70.5 -29t29.5 -69q0 -42 -29.5 -71.5t-70.5 -29.5zM1104 945l-13 -99q-3 -25 -16 -37l-718 -658h638q34 0 28 -32l-13 -91q-3 -28 -32 -28h-823q-13 0 -22 10.5t-7 24.5l14 99q4 27 15 38l719 657h-638
q-34 0 -28 32l13 91q3 28 32 28h822q13 0 22 -10.5t7 -24.5z" />
    <glyph glyph-name="Zcaron" unicode="&#x17d;" 
d="M778 1668l193 174q14 14 38 14h130q20 0 25 -10.5t-9 -25.5l-265 -257q-14 -14 -38 -14h-174q-23 0 -36 18l-193 253q-12 15 -6 25.5t24 10.5h134q21 0 36 -18zM970 1230h-681q-31 0 -28 32l16 110q3 28 32 28h863q34 0 28 -32l-18 -123q-3 -23 -16 -38l-869 -1037h723
q32 0 28 -32l-16 -110q-3 -28 -32 -28h-903q-31 0 -28 32l17 123q3 24 16 38z" />
    <glyph glyph-name="zcaron" unicode="&#x17e;" 
d="M718 1248l193 174q14 14 38 14h130q20 0 25 -10.5t-9 -25.5l-265 -257q-14 -14 -38 -14h-174q-23 0 -36 18l-193 253q-12 15 -6 25.5t24 10.5h134q21 0 36 -18zM1104 945l-13 -99q-3 -25 -16 -37l-718 -658h638q34 0 28 -32l-13 -91q-3 -28 -32 -28h-823q-13 0 -22 10.5
t-7 24.5l14 99q4 27 15 38l719 657h-638q-34 0 -28 32l13 91q3 28 32 28h822q13 0 22 -10.5t7 -24.5z" />
    <glyph glyph-name="florin" unicode="&#x192;" 
d="M1019 1472q91 0 177 -20t82 -49l-13 -89q-3 -28 -32 -21q-6 1 -25.5 6t-36 9t-47 7t-64.5 3q-120 0 -186.5 -53t-86.5 -198l-12 -87h382q31 0 28 -32l-13 -91q-3 -28 -32 -28h-386l-64 -454q-16 -114 -52.5 -191.5t-92.5 -119t-119 -58t-147 -16.5q-40 0 -85 5t-84 14
t-64 22.5t-23 28.5l12 87q3 28 32 22q5 -1 25.5 -6t37.5 -8.5t49 -7t67 -3.5q76 0 126.5 19t88.5 76t51 156l61 434h-403q-34 0 -28 32l13 91q3 28 32 28h408l15 108q16 114 52.5 191.5t92.5 118.5t118.5 57.5t145.5 16.5z" />
    <glyph glyph-name="uni01CD" unicode="&#x1cd;" 
d="M1139 1856q20 0 25 -10.5t-9 -25.5l-265 -257q-14 -14 -38 -14h-174q-23 0 -36 18l-193 253q-12 15 -6 25.5t24 10.5h134q21 0 36 -18l141 -170l193 174q14 14 38 14h130zM891 1373l205 -1341q3 -32 -28 -32h-128q-29 0 -32 28l-39 265h-557l-116 -270q-11 -23 -35 -23
h-133q-17 0 -23.5 9.5t0.5 25.5l583 1342q11 23 35 23h235q29 0 33 -27zM381 456h464l-111 752h-31z" />
    <glyph glyph-name="uni01CE" unicode="&#x1ce;" 
d="M587 1147l-193 253q-12 15 -6 25.5t24 10.5h134q21 0 36 -18l141 -170l193 174q14 14 38 14h130q20 0 25 -10.5t-9 -25.5l-265 -257q-14 -14 -38 -14h-174q-23 0 -36 18zM1151 948l-112 -771q-4 -27 7.5 -40t35.5 -9q15 2 24 -8.5t6 -28.5l-9 -50q-10 -55 -102 -55
q-65 0 -91.5 44t-18.5 115h-18q-47 -77 -134.5 -124t-198.5 -47q-193 0 -310 123t-117 330q0 163 70 295.5t188.5 206t260.5 73.5q111 0 194 -42.5t124 -114.5h16l38 110q7 25 34 25h85q32 0 28 -32zM567 139q104 0 185.5 58t124 150.5t42.5 199.5q0 141 -77 215.5
t-198 74.5q-156 0 -256 -113.5t-100 -288.5q0 -138 75.5 -217t203.5 -79z" />
    <glyph glyph-name="uni01CF" unicode="&#x1cf;" 
d="M778 1668l193 174q14 14 38 14h130q20 0 25 -10.5t-9 -25.5l-265 -257q-14 -14 -38 -14h-174q-23 0 -36 18l-193 253q-12 15 -6 25.5t24 10.5h134q21 0 36 -18zM1202 1258q-3 -28 -32 -28h-357l-149 -1060h353q34 0 28 -32l-16 -110q-3 -28 -32 -28h-898q-31 0 -28 32
l16 110q3 28 32 28h358l149 1060h-354q-31 0 -28 32l15 110q3 28 32 28h898q34 0 28 -32z" />
    <glyph glyph-name="uni01D0" unicode="&#x1d0;" 
d="M719 1248l193 174q14 14 38 14h130q20 0 25 -10.5t-9 -25.5l-265 -257q-14 -14 -38 -14h-174q-23 0 -36 18l-193 253q-12 15 -6 25.5t24 10.5h134q21 0 36 -18zM1102 147q11 -20 -6 -37q-45 -49 -134 -89.5t-195 -40.5q-48 0 -90 8t-84 26.5t-71.5 50t-52.5 78t-26 110
t7 146.5l65 426h-382q-31 0 -28 32l13 95q3 28 32 28h535q32 0 27 -32l-83 -550q-6 -57 -5.5 -98t15 -70t30.5 -47t40 -28t44.5 -13.5t43.5 -3.5q111 0 223 91q28 23 44 -7z" />
    <glyph glyph-name="uni01D1" unicode="&#x1d1;" 
d="M778 1668l193 174q14 14 38 14h130q20 0 25 -10.5t-9 -25.5l-265 -257q-14 -14 -38 -14h-174q-23 0 -36 18l-193 253q-12 15 -6 25.5t24 10.5h134q21 0 36 -18zM738 1420q90 0 157 -13t120.5 -44t86 -81.5t49.5 -125t15.5 -175t-19.5 -231.5l-17 -119q-28 -196 -73 -324
t-117.5 -203t-164 -104.5t-225.5 -29.5q-90 0 -157 13.5t-120.5 44.5t-86 81t-49.5 125t-15.5 175.5t19.5 231.5l17 119q22 158 56.5 270.5t81 188.5t112.5 120t144.5 62.5t185.5 18.5zM729 1240q-71 0 -119.5 -10t-94 -39.5t-76.5 -84t-56.5 -142.5t-43.5 -215l-17 -118
q-15 -106 -18.5 -183.5t7 -130.5t28.5 -86t52.5 -51t72.5 -24t95 -6q71 0 119.5 10t94 40t76.5 84.5t56.5 142t43.5 214.5l17 118q18 128 17.5 214.5t-14.5 139.5t-50 81t-78.5 37t-111.5 9z" />
    <glyph glyph-name="uni01D2" unicode="&#x1d2;" 
d="M718 1248l193 174q14 14 38 14h130q20 0 25 -10.5t-9 -25.5l-265 -257q-14 -14 -38 -14h-174q-23 0 -36 18l-193 253q-12 15 -6 25.5t24 10.5h134q21 0 36 -18zM568 -26q-200 0 -328.5 131.5t-128.5 331.5q0 156 75 286.5t201.5 204.5t274.5 74q200 0 328.5 -131
t128.5 -330q0 -117 -44 -222.5t-118 -180.5t-175.5 -119.5t-213.5 -44.5zM574 139q157 0 263.5 111t106.5 289q0 133 -80.5 216t-208.5 83q-156 0 -262.5 -112t-106.5 -288q0 -134 80.5 -216.5t207.5 -82.5z" />
    <glyph glyph-name="uni01D3" unicode="&#x1d3;" 
d="M778 1668l193 174q14 14 38 14h130q20 0 25 -10.5t-9 -25.5l-265 -257q-14 -14 -38 -14h-174q-23 0 -36 18l-193 253q-12 15 -6 25.5t24 10.5h134q21 0 36 -18zM1186 1400q31 0 28 -32l-120 -855q-40 -279 -174 -411t-369 -132q-484 0 -406 553l119 849q3 28 32 28h127
q31 0 28 -32l-120 -855q-28 -193 28 -279.5t199 -86.5q151 0 236.5 91t113.5 285l119 849q3 28 32 28h127z" />
    <glyph glyph-name="uni01D4" unicode="&#x1d4;" 
d="M545 1147l-193 253q-12 15 -6 25.5t24 10.5h134q21 0 36 -18l141 -170l193 174q14 14 38 14h130q20 0 25 -10.5t-9 -25.5l-265 -257q-14 -14 -38 -14h-174q-23 0 -36 18zM1112 948l-111 -771q-4 -27 7.5 -39.5t35.5 -9.5q15 2 23.5 -8t5.5 -29l-8 -50q-10 -55 -103 -55
q-78 0 -107.5 46t-18.5 120l3 22h-16q-42 -82 -135.5 -137.5t-214.5 -55.5q-163 0 -254.5 108t-63.5 300l81 563q3 28 32 28h119q33 0 28 -32l-79 -549q-18 -124 37 -187t154 -63q115 0 195 67.5t128 164.5l83 574q3 25 34 25h117q34 0 28 -32z" />
    <glyph glyph-name="uni01EA" unicode="&#x1ea;" 
d="M738 1420q90 0 157 -13t120.5 -44t86 -81.5t49.5 -125t15.5 -175t-19.5 -231.5l-17 -119q-34 -243 -99 -384.5t-162.5 -203t-250.5 -71.5q-56 -24 -88 -66t-32 -86q0 -61 42.5 -88t119.5 -10v-123q-38 -17 -90.5 -17.5t-104 16t-87 65t-35.5 120.5q0 113 95 193
q-102 13 -167.5 52.5t-105 118t-43 199.5t18.5 295l17 119q22 158 56.5 270.5t81 188.5t112.5 120t144.5 62.5t185.5 18.5zM966 759q18 128 17.5 214.5t-14.5 139.5t-50 81t-78.5 37t-111.5 9q-71 0 -119.5 -10t-94 -39.5t-76.5 -84t-56.5 -142.5t-43.5 -215l-17 -118
q-15 -106 -18.5 -183.5t7 -130.5t28.5 -86t52.5 -51t72.5 -24t95 -6q71 0 119.5 10t94 40t76.5 84.5t56.5 142t43.5 214.5z" />
    <glyph glyph-name="uni01EB" unicode="&#x1eb;" 
d="M750 5q-199 -75 -199 -184q0 -58 42.5 -84.5t119.5 -9.5v-123q-30 -14 -70.5 -18t-84 5.5t-80 31t-60 64.5t-23.5 101q0 109 97 192q-171 25 -276 151t-105 306q0 156 75 286.5t201.5 204.5t274.5 74q200 0 328.5 -131t128.5 -330q0 -185 -103 -331t-266 -205zM286 438
q0 -134 80.5 -216.5t207.5 -82.5q157 0 263.5 111t106.5 289q0 133 -80.5 216t-208.5 83q-156 0 -262.5 -112t-106.5 -288z" />
    <glyph glyph-name="Scommaaccent" unicode="&#x218;" 
d="M646 795q70 -16 120 -30.5t108.5 -36.5t98 -49.5t74 -64t51.5 -86t17 -109.5q0 -220 -151.5 -332.5t-409.5 -112.5q-233 0 -354.5 83t-111.5 250q0 29 29 29h118q25 0 27 -32q1 -76 80.5 -118.5t220.5 -42.5q177 0 272.5 65.5t95.5 196.5q0 43 -13.5 75.5t-34.5 54.5
t-61.5 39.5t-79.5 29t-103 25.5q-75 18 -131.5 36.5t-114 49t-94.5 69t-60 95t-23 127.5q0 197 136 303.5t372 106.5q220 0 338 -81.5t111 -243.5q0 -27 -31 -27h-108q-31 0 -33 30q-4 74 -79 114.5t-204 40.5q-156 0 -238.5 -60t-82.5 -177q0 -89 59.5 -138t189.5 -79z
M300 -313q-30 0 -26 30l13 90q5 26 30 26h374q30 0 25 -30l-6 -49q-40 -280 -124 -425q-13 -22 -44 -22h-57q-15 0 -21.5 11t-0.5 29q27 74 49 170.5t26 169.5h-238z" />
    <glyph glyph-name="scommaaccent" unicode="&#x219;" 
d="M636 558q54 -6 90.5 -11.5t86 -16.5t83 -23.5t69.5 -33t57.5 -45.5t35.5 -61t14 -79q0 -101 -65.5 -174t-173.5 -107.5t-246 -34.5q-104 0 -185 16.5t-142 52t-92 95t-28 140.5q1 27 28 27h116q26 0 28 -33q8 -145 280 -145q60 0 113.5 9t97.5 27.5t69.5 50t25.5 71.5
q0 24 -8 42.5t-28 32t-39.5 22.5t-56 17t-63 12.5t-75.5 11.5q-41 6 -67.5 10t-65 11t-64 14.5t-58 20t-53.5 26t-43 33t-35 42.5t-21 52.5t-8 64.5q0 145 124.5 226t332.5 81q200 0 310 -72t108 -229q0 -27 -31 -27h-111q-26 0 -27 30q-5 80 -71 113t-183 33
q-121 0 -199.5 -38t-78.5 -115q0 -65 62.5 -94t186.5 -45zM298 -313q-30 0 -26 30l13 90q5 26 30 26h374q29 0 25 -30l-6 -49q-40 -280 -124 -425q-13 -22 -44 -22h-57q-15 0 -21.5 11t-0.5 29q27 74 49 170.5t26 169.5h-238z" />
    <glyph glyph-name="uni021A" unicode="&#x21a;" 
d="M1221 1400q31 0 28 -32l-16 -110q-3 -28 -32 -28h-388l-168 -1202q-3 -28 -32 -28h-127q-31 0 -28 32l168 1198h-384q-31 0 -28 32l15 110q3 28 32 28h960zM298 -313q-30 0 -26 30l13 90q5 26 30 26h374q29 0 25 -30l-6 -49q-40 -280 -124 -425q-13 -22 -44 -22h-57
q-15 0 -21.5 11t-0.5 29q27 74 49 170.5t26 169.5h-238z" />
    <glyph glyph-name="uni021B" unicode="&#x21b;" 
d="M1144 980q31 0 28 -32l-13 -95q-3 -28 -32 -28h-488l-64 -427q-38 -260 181 -260q115 0 240 92q11 8 23.5 6t19.5 -14l40 -81q6 -15 -8 -30q-46 -47 -140.5 -89t-206.5 -42q-50 0 -93 8t-86.5 26.5t-73.5 50t-53.5 78t-27.5 110t6 146.5l62 426h-311q-31 0 -28 32l13 95
q3 28 32 28h316l38 262q4 28 32 28h122q32 0 28 -32l-38 -258h482zM826 -167q30 0 25 -30l-6 -49q-40 -280 -124 -425q-13 -22 -44 -22h-57q-15 0 -21.5 11t-0.5 29q27 74 49 170.5t26 169.5h-238q-31 0 -26 30l13 90q5 26 30 26h374z" />
    <glyph glyph-name="uni0237" unicode="&#x237;" 
d="M921 980q13 0 22 -10.5t7 -24.5l-129 -920q-56 -410 -451 -410q-57 0 -113 13t-96 33t-70 41.5t-42.5 40.5t-6.5 28l59 82q19 27 49 4q101 -78 226 -78q42 0 79.5 10.5t78 37t70 82t40.5 135.5l108 781h-437q-32 0 -28 32l14 95q3 28 32 28h588z" />
    <glyph glyph-name="circumflex" unicode="&#x2c6;" 
d="M734 1321l-193 -174q-14 -14 -38 -14h-132q-20 0 -25 10.5t10 25.5l266 257q14 14 38 14h174q24 0 36 -18l191 -253q11 -15 5.5 -25.5t-23.5 -10.5h-132q-21 0 -36 18z" />
    <glyph glyph-name="caron" unicode="&#x2c7;" 
d="M720 1252l193 174q14 14 38 14h130q20 0 25 -10.5t-9 -25.5l-265 -257q-14 -14 -38 -14h-174q-23 0 -36 18l-193 253q-12 15 -6 25.5t24 10.5h134q21 0 36 -18z" />
    <glyph glyph-name="breve" unicode="&#x2d8;" 
d="M908 1391q8 21 33 21h67q16 0 23 -10.5t3 -29.5q-27 -111 -112 -180.5t-209 -69.5q-131 0 -203 75t-64 187q3 28 29 28h69q26 0 29 -36q5 -57 41.5 -90.5t103.5 -33.5q70 0 119.5 39.5t70.5 99.5z" />
    <glyph glyph-name="dotaccent" unicode="&#x2d9;" 
d="M731 1211q-41 0 -70.5 29.5t-29.5 71.5q0 40 29.5 69t70.5 29t70.5 -29t29.5 -69q0 -42 -29.5 -71.5t-70.5 -29.5z" />
    <glyph glyph-name="ring" unicode="&#x2da;" 
d="M725 1461q77 0 130 -53.5t53 -127.5t-53 -127.5t-130 -53.5t-130 53.5t-53 127.5t53 127.5t130 53.5zM725 1210q30 0 51.5 20t21.5 50q-1 31 -22 51t-51 20t-51 -20.5t-21 -50.5t21 -50t51 -20z" />
    <glyph glyph-name="ogonek" unicode="&#x2db;" 
d="M717 0q-97 -7 -157 -59.5t-60 -115.5q0 -61 42.5 -88t119.5 -10v-123q-38 -17 -90.5 -17.5t-104 16t-87 65t-35.5 120.5q0 58 26.5 108.5t67 84t92 58.5t98.5 37.5t88 15.5v-92z" />
    <glyph glyph-name="tilde" unicode="&#x2dc;" 
d="M585 1443q50 0 94 -21.5t71 -48t62 -48t69 -21.5q64 0 88 61q6 17 22 17h52q9 0 15 -5.5t5 -14.5q-9 -82 -59 -126t-127 -44q-41 0 -77.5 14.5t-62.5 35t-50.5 40.5t-51.5 34.5t-54 14.5q-67 0 -91 -61q-6 -17 -22 -17h-52q-21 0 -18 24q10 80 59 123t128 43z" />
    <glyph glyph-name="hungarumlaut" unicode="&#x2dd;" 
d="M439 1150q-18 0 -23.5 10.5t3.5 25.5l159 254q11 20 36 20h94q18 0 23.5 -10.5t-3.5 -25.5l-158 -254q-11 -20 -36 -20h-95zM749 1150q-18 0 -23.5 10.5t3.5 25.5l159 254q11 20 36 20h94q18 0 23.5 -10.5t-3.5 -25.5l-158 -254q-11 -20 -36 -20h-95z" />
    <glyph glyph-name="uni0326" unicode="&#x326;" horiz-adv-x="0" 
d="M-864 -313q-30 0 -26 30l13 90q5 26 30 26h374q29 0 25 -30l-6 -49q-40 -280 -124 -425q-13 -22 -44 -22h-57q-15 0 -21.5 11t-0.5 29q27 74 49 170.5t26 169.5h-238z" />
    <glyph glyph-name="uni0394" unicode="&#x394;" 
d="M1095 32q5 -32 -28 -32h-1040q-17 0 -23 9.5t1 25.5l583 1342q9 23 34 23h236q29 0 32 -27zM703 1207l-452 -1056h638l-156 1056h-30z" />
    <glyph glyph-name="uni03A9" unicode="&#x3a9;" 
d="M904 193l-10 -42h223l-21 -151h-410l33 265q247 85 304 494q34 242 -35.5 361t-258.5 119q-195 0 -304.5 -125.5t-144.5 -373.5q-56 -400 159 -475l-33 -265h-410l21 151h223l11 47q-212 130 -150 561q44 317 206 487t430 170q275 0 393 -176t72 -500q-58 -420 -298 -547
z" />
    <glyph glyph-name="uni03BC" unicode="&#x3bc;" 
d="M1112 948l-111 -771q-4 -27 7.5 -39.5t35.5 -9.5q15 2 23.5 -8t5.5 -29l-8 -50q-10 -55 -103 -55q-78 0 -107.5 46t-18.5 120l3 22h-16q-42 -82 -135.5 -137.5t-214.5 -55.5q-110 0 -189 50l-54 -386q-3 -25 -32 -25h-120q-13 0 -20 10.5t-5 24.5l97 685q1 14 5 49
l81 563q3 28 32 28h119q33 0 28 -32l-79 -549q-18 -124 37 -187t154 -63q115 0 195 67.5t128 164.5l83 574q3 25 34 25h117q34 0 28 -32z" />
    <glyph glyph-name="pi" unicode="&#x3c0;" 
d="M1195 980q32 0 27 -32l-12 -91q-3 -28 -32 -28h-158l-84 -599q-11 -81 58 -81q39 0 76 7q19 2 30 -9t9 -27l-12 -85q-7 -49 -149 -49q-105 0 -157.5 58t-35.5 177l85 608h-365l-112 -801q-4 -28 -32 -28h-120q-33 0 -28 32l112 797h-153q-32 0 -27 32l13 91q3 28 32 28
h1035z" />
    <glyph glyph-name="uni0401" unicode="&#x401;" 
d="M601 1641q-41 0 -70.5 29.5t-29.5 71.5q0 40 29.5 69t70.5 29t70.5 -29t29.5 -69q0 -42 -29.5 -71.5t-70.5 -29.5zM984 1641q-41 0 -70.5 29.5t-29.5 71.5q0 40 29.5 69t70.5 29t70.5 -29t29.5 -69q0 -42 -29.5 -71.5t-70.5 -29.5zM991 170q31 0 28 -32l-15 -110
q-3 -28 -32 -28h-845q-31 0 -28 32l188 1340q3 28 32 28h843q31 0 28 -32l-16 -110q-3 -28 -32 -28h-688l-57 -408h631q31 0 28 -32l-16 -110q-3 -28 -32 -28h-635l-68 -482h686z" />
    <glyph glyph-name="uni0403" unicode="&#x403;" 
d="M715 1510q-18 0 -23.5 10.5t3.5 25.5l159 254q11 20 36 20h94q18 0 23.5 -10.5t-3.5 -25.5l-158 -254q-11 -20 -36 -20h-95zM1174 1400q31 0 28 -32l-16 -110q-3 -28 -32 -28h-690l-168 -1202q-3 -28 -32 -28h-127q-31 0 -28 32l188 1340q3 28 32 28h845z" />
    <glyph glyph-name="uni0404" unicode="&#x404;" 
d="M1171 1056q4 -36 -32 -36h-112q-12 0 -21 9.5t-10 25.5q-9 46 -25.5 78.5t-38 52t-55 30.5t-68 14.5t-84.5 3.5q-67 0 -113 -9.5t-90.5 -36.5t-74.5 -76.5t-55.5 -130t-43.5 -196.5h511l-24 -170h-510q-13 -98 -15 -171t8 -123.5t28.5 -82.5t51 -50t69.5 -24.5t90 -6.5
q131 0 207.5 38t126.5 148q11 28 39 28h119q16 0 23 -12t1 -32q-72 -196 -193 -274.5t-327 -78.5q-88 0 -154.5 13t-119.5 44t-85.5 81.5t-50 124.5t-17 174t18.5 230l16 119q21 156 55.5 268t81 187.5t113 120t145 62.5t182.5 18q210 0 314 -82.5t119 -277.5z" />
    <glyph glyph-name="uni0406" unicode="&#x406;" 
d="M1202 1258q-3 -28 -32 -28h-357l-149 -1060h353q34 0 28 -32l-16 -110q-3 -28 -32 -28h-898q-31 0 -28 32l16 110q3 28 32 28h358l149 1060h-354q-31 0 -28 32l15 110q3 28 32 28h898q34 0 28 -32z" />
    <glyph glyph-name="uni0407" unicode="&#x407;" 
d="M601 1641q-41 0 -70.5 29.5t-29.5 71.5q0 40 29.5 69t70.5 29t70.5 -29t29.5 -69q0 -42 -29.5 -71.5t-70.5 -29.5zM984 1641q-41 0 -70.5 29.5t-29.5 71.5q0 40 29.5 69t70.5 29t70.5 -29t29.5 -69q0 -42 -29.5 -71.5t-70.5 -29.5zM1202 1258q-3 -28 -32 -28h-357
l-149 -1060h353q34 0 28 -32l-16 -110q-3 -28 -32 -28h-898q-31 0 -28 32l16 110q3 28 32 28h358l149 1060h-354q-31 0 -28 32l15 110q3 28 32 28h898q34 0 28 -32z" />
    <glyph glyph-name="uni0410" unicode="&#x410;" 
d="M1096 32q3 -32 -28 -32h-128q-29 0 -32 28l-39 265h-557l-116 -270q-11 -23 -35 -23h-133q-17 0 -23.5 9.5t0.5 25.5l583 1342q11 23 35 23h235q29 0 33 -27zM381 456h464l-111 752h-31z" />
    <glyph glyph-name="uni0411" unicode="&#x411;" 
d="M707 879q126 0 209.5 -29t126.5 -85.5t55.5 -140.5t-4.5 -194q-16 -110 -48 -187.5t-90.5 -133.5t-148 -82.5t-215.5 -26.5h-470q-31 0 -28 32l188 1340q3 28 32 28h680q31 0 28 -32l-16 -110q-3 -28 -32 -28h-525l-49 -351h307zM916 449q7 50 7 88t-5.5 66t-20 47
t-32 30.5t-46 18t-57.5 8.5t-71 2h-316l-76 -539h308q58 0 98.5 6t78 22.5t61.5 47.5t42.5 81t28.5 122z" />
    <glyph glyph-name="uni0412" unicode="&#x412;" 
d="M873 754q227 -54 227 -292q0 -242 -135.5 -352t-398.5 -110h-473q-32 0 -27 32l188 1340q4 28 32 28h482q97 0 168 -23t111 -64.5t58 -90.5t18 -109q0 -271 -250 -359zM421 1230l-57 -405h306q126 0 199.5 71t73.5 187q0 79 -49.5 113t-158.5 34h-314zM579 170
q168 0 251 70.5t83 226.5q0 198 -257 198h-314l-70 -495h307z" />
    <glyph glyph-name="uni0413" unicode="&#x413;" 
d="M1174 1400q31 0 28 -32l-16 -110q-3 -28 -32 -28h-690l-168 -1202q-3 -28 -32 -28h-127q-31 0 -28 32l188 1340q3 28 32 28h845z" />
    <glyph glyph-name="uni0414" unicode="&#x414;" 
d="M1134 1400q32 0 28 -32l-168 -1198h123q32 0 28 -32l-35 -248q-4 -28 -32 -28h-116q-15 0 -22.5 8.5t-5.5 23.5l15 106h-807l-15 -110q-3 -28 -32 -28h-116q-31 0 -28 32l35 248q3 28 33 28h9q94 0 149 61.5t73 192.5l134 948q3 28 32 28h718zM341 170h466l148 1060h-404
l-116 -824q-20 -147 -94 -236z" />
    <glyph glyph-name="uni0415" unicode="&#x415;" 
d="M991 170q31 0 28 -32l-15 -110q-3 -28 -32 -28h-845q-31 0 -28 32l188 1340q3 28 32 28h843q31 0 28 -32l-16 -110q-3 -28 -32 -28h-688l-57 -408h631q31 0 28 -32l-16 -110q-3 -28 -32 -28h-635l-68 -482h686z" />
    <glyph glyph-name="uni0416" unicode="&#x416;" 
d="M1251 1400q18 0 24 -10t-4 -26l-376 -573l217 -757q4 -16 -3 -25t-23 -9h-113q-27 0 -33 26l-162 581l-76 -118l-65 -461q-4 -28 -32 -28h-112q-32 0 -28 32l67 477l-37 98l-330 -586q-11 -21 -36 -21h-115q-18 0 -24.5 10t2.5 26l433 755l-213 575q-11 34 24 34h113
q26 0 33 -24l192 -569l79 565q4 28 32 28h112q32 0 28 -32l-78 -558l353 570q11 20 36 20h115z" />
    <glyph glyph-name="uni0417" unicode="&#x417;" 
d="M876 743q100 -39 163.5 -119.5t63.5 -193.5q0 -138 -76.5 -243t-203.5 -159t-282 -54q-218 0 -336 100t-96 288q4 24 31 27l118 10q14 1 21 -10t5 -28q-8 -109 64.5 -166t205.5 -57q162 0 265.5 82.5t103.5 214.5q0 104 -89.5 164.5t-271.5 66.5q-33 0 -30 32l10 86
q3 28 31 28q193 6 295.5 81.5t102.5 184.5q0 82 -68 129t-182 47q-136 0 -221.5 -67t-102.5 -175q-6 -23 -34 -20l-112 13q-31 3 -25 41q24 171 159.5 270.5t345.5 99.5q186 0 299.5 -85.5t113.5 -229.5q0 -122 -74 -213.5t-194 -144.5z" />
    <glyph glyph-name="uni0418" unicode="&#x418;" 
d="M990 1380q14 20 36 20h170q31 0 28 -32l-188 -1340q-3 -28 -32 -28h-116q-31 0 -28 32l155 1096l-718 -1108q-12 -20 -36 -20h-167q-31 0 -28 32l188 1340q3 28 32 28h117q31 0 28 -32l-156 -1092z" />
    <glyph glyph-name="uni0419" unicode="&#x419;" 
d="M962 1809q8 21 33 21h67q16 0 23 -10.5t3 -29.5q-27 -111 -112 -180.5t-209 -69.5q-131 0 -203 75t-64 187q3 28 29 28h69q26 0 29 -36q5 -57 41.5 -90.5t103.5 -33.5q70 0 119.5 39.5t70.5 99.5zM990 1380q14 20 36 20h170q31 0 28 -32l-188 -1340q-3 -28 -32 -28h-116
q-31 0 -28 32l155 1096l-718 -1108q-12 -20 -36 -20h-167q-31 0 -28 32l188 1340q3 28 32 28h117q31 0 28 -32l-156 -1092z" />
    <glyph glyph-name="uni041A" unicode="&#x41a;" 
d="M1066 30q8 -12 3.5 -21t-19.5 -9h-141q-32 0 -45 24l-379 623l-180 -172l-64 -447q-3 -28 -32 -28h-127q-31 0 -28 32l188 1340q3 28 32 28h127q34 0 28 -32l-93 -643l669 657q18 18 48 18h161q19 0 23.5 -13t-10.5 -27l-608 -582z" />
    <glyph glyph-name="uni041B" unicode="&#x41b;" 
d="M1176 1400q31 0 28 -32l-188 -1340q-3 -28 -32 -28h-127q-31 0 -28 32l168 1198h-465l-118 -836q-29 -203 -127.5 -303.5t-257.5 -100.5q-26 0 -31 23l-21 123q-4 27 20 27q197 0 234 261l134 948q3 28 32 28h779z" />
    <glyph glyph-name="uni041C" unicode="&#x41c;" 
d="M98 0q-32 0 -27 32l188 1340q4 28 32 28h157q28 0 31 -29l89 -1171h11l420 1176q8 24 35 24h157q32 0 27 -32l-188 -1340q-4 -28 -32 -28h-103q-32 0 -27 32l137 975h-12l-360 -983q-7 -24 -34 -24h-100q-29 0 -32 29l-83 978h-14l-137 -979q-4 -28 -32 -28h-103z" />
    <glyph glyph-name="uni041D" unicode="&#x41d;" 
d="M1176 1400q32 0 27 -32l-188 -1340q-4 -28 -32 -28h-127q-32 0 -27 32l84 597h-557l-84 -601q-4 -28 -32 -28h-127q-32 0 -27 32l188 1340q4 28 32 28h127q32 0 27 -32l-80 -569h557l80 573q4 28 32 28h127z" />
    <glyph glyph-name="uni041E" unicode="&#x41e;" 
d="M738 1420q90 0 157 -13t120.5 -44t86 -81.5t49.5 -125t15.5 -175t-19.5 -231.5l-17 -119q-28 -196 -73 -324t-117.5 -203t-164 -104.5t-225.5 -29.5q-90 0 -157 13.5t-120.5 44.5t-86 81t-49.5 125t-15.5 175.5t19.5 231.5l17 119q22 158 56.5 270.5t81 188.5t112.5 120
t144.5 62.5t185.5 18.5zM729 1240q-71 0 -119.5 -10t-94 -39.5t-76.5 -84t-56.5 -142.5t-43.5 -215l-17 -118q-15 -106 -18.5 -183.5t7 -130.5t28.5 -86t52.5 -51t72.5 -24t95 -6q71 0 119.5 10t94 40t76.5 84.5t56.5 142t43.5 214.5l17 118q18 128 17.5 214.5t-14.5 139.5
t-50 81t-78.5 37t-111.5 9z" />
    <glyph glyph-name="uni041F" unicode="&#x41f;" 
d="M1164 1400q31 0 28 -32l-188 -1340q-3 -28 -32 -28h-127q-31 0 -28 32l168 1198h-531l-168 -1202q-3 -28 -32 -28h-127q-31 0 -28 32l188 1340q3 28 32 28h845z" />
    <glyph glyph-name="uni0420" unicode="&#x420;" 
d="M780 1400q215 0 306 -79t91 -242q0 -284 -122 -421t-390 -137h-316l-69 -493q-4 -28 -32 -28h-127q-32 0 -27 32l188 1340q4 28 32 28h466zM681 691q179 0 247.5 89.5t68.5 287.5q0 53 -13 86t-44.5 49.5t-70 21.5t-104.5 5h-316l-76 -539h308z" />
    <glyph glyph-name="uni0421" unicode="&#x421;" 
d="M568 150q146 0 220.5 41.5t107.5 156.5q7 27 35 27h123q15 0 22 -10.5t2 -27.5q-51 -203 -174 -285t-348 -82q-91 0 -158.5 13.5t-121 44.5t-86.5 81.5t-50 125t-16 175t20 231.5l17 119q27 196 72.5 323.5t118 202.5t165 104.5t227.5 29.5q229 0 331 -85.5t100 -288.5
q0 -28 -30 -28h-116q-13 0 -21 10t-9 27q-6 112 -64 148.5t-197 36.5q-69 0 -118 -10.5t-96 -40.5t-79 -84t-59 -142t-44 -214l-17 -118q-15 -105 -17.5 -182.5t9 -130.5t30.5 -86.5t54 -51t73 -24t94 -6.5z" />
    <glyph glyph-name="uni0422" unicode="&#x422;" 
d="M1221 1400q31 0 28 -32l-16 -110q-3 -28 -32 -28h-388l-168 -1202q-3 -28 -32 -28h-127q-31 0 -28 32l168 1198h-384q-31 0 -28 32l15 110q3 28 32 28h960z" />
    <glyph glyph-name="uni0423" unicode="&#x423;" 
d="M1098 1380q12 20 38 20h133q18 0 24 -10t-4 -26l-906 -1344q-13 -20 -37 -20h-134q-18 0 -24 10t4 26l325 482l-319 848q-12 34 24 34h127q28 0 36 -24l251 -677z" />
    <glyph glyph-name="uni0424" unicode="&#x424;" 
d="M814 1265q101 0 176.5 -28.5t120.5 -80.5t70.5 -123.5t26.5 -158t-11 -184.5q-17 -125 -52.5 -220.5t-96 -173t-157.5 -119t-226 -41.5h-12l-15 -108q-3 -28 -32 -28h-114q-31 0 -28 32l15 104h-4q-463 0 -383 574q14 98 38.5 178.5t67 152t100 120t140.5 76.5t186 28h13
l15 107q3 28 32 28h114q31 0 28 -32l-14 -103h2zM490 306h12l111 789h-4q-158 0 -234.5 -99.5t-105.5 -305.5q-17 -125 -7.5 -210.5t65 -129.5t163.5 -44zM1020 710q17 125 8 210.5t-64.5 130t-164.5 44.5h-11l-111 -789h3q81 0 140.5 26t99 79.5t63 125.5t37.5 173z" />
    <glyph glyph-name="uni0425" unicode="&#x425;" 
d="M1228 1400q18 0 23.5 -10t-5.5 -26l-499 -659l327 -669q8 -16 1.5 -26t-23.5 -10h-134q-26 0 -36 23l-256 523l-399 -528q-12 -18 -36 -18h-148q-18 0 -23 10.5t7 25.5l516 681l-317 648q-8 16 -1 25.5t24 9.5h133q26 0 36 -22l245 -502l383 506q12 18 36 18h146z" />
    <glyph glyph-name="uni0426" unicode="&#x426;" 
d="M1137 1400q32 0 28 -32l-168 -1198h105q32 0 28 -32l-35 -248q-4 -28 -32 -28h-119q-15 0 -22.5 8.5t-5.5 23.5l15 106h-789q-31 0 -28 32l188 1340q3 28 32 28h127q31 0 28 -32l-170 -1198h491l168 1202q4 28 32 28h127z" />
    <glyph glyph-name="uni0427" unicode="&#x427;" 
d="M1201 1400q31 0 28 -32l-188 -1340q-3 -28 -32 -28h-127q-31 0 -28 32l73 524q-174 -185 -424 -185q-181 0 -281.5 115t-73.5 308l81 578q3 28 32 28h127q31 0 28 -32l-80 -564q-17 -124 46 -188t186 -64q77 0 149 25t121 62t81 76.5t41 71.5l82 585q3 28 32 28h127z" />
    <glyph glyph-name="uni0428" unicode="&#x428;" 
d="M1206 1400q31 0 28 -32l-188 -1340q-3 -28 -32 -28h-930q-31 0 -28 32l188 1340q3 28 32 28h111q31 0 28 -32l-169 -1198h238l170 1202q3 28 32 28h111q31 0 28 -32l-170 -1198h239l169 1202q3 28 32 28h111z" />
    <glyph glyph-name="uni0429" unicode="&#x429;" 
d="M1165 1400q31 0 28 -32l-169 -1198h78q32 0 28 -32l-35 -248q-4 -28 -32 -28h-119q-15 0 -22.5 8.5t-5.5 23.5l15 106h-847q-31 0 -28 32l188 1340q3 28 32 28h111q31 0 28 -32l-169 -1198h218l170 1202q3 28 32 28h111q31 0 28 -32l-170 -1198h218l169 1202q3 28 32 28
h111z" />
    <glyph glyph-name="uni042A" unicode="&#x42a;" 
d="M706 879q247 0 334 -110t54 -339q-15 -110 -47.5 -187.5t-91 -133.5t-148 -82.5t-215.5 -26.5h-470q-32 0 -28 32l168 1198h-83q-31 0 -28 32l16 110q3 28 32 28h242q31 0 28 -32l-70 -489h307zM917 450q7 50 7 88t-6 65.5t-20.5 46.5t-31.5 30.5t-45.5 18t-57.5 8.5
t-71 2h-317l-75 -539h308q58 0 98 6t77.5 23t61.5 47.5t42.5 81t29.5 122.5z" />
    <glyph glyph-name="uni042B" unicode="&#x42b;" horiz-adv-x="1376" 
d="M551 879q126 0 207.5 -31t119.5 -89t48 -141t-8 -188q-12 -85 -32 -148.5t-56 -118.5t-87.5 -89.5t-128.5 -54t-178 -19.5h-332q-31 0 -28 32l188 1340q3 28 32 28h123q31 0 28 -32l-69 -489h173zM1016 0q-31 0 -28 32l188 1340q3 28 32 28h123q31 0 28 -32l-188 -1340
q-3 -28 -32 -28h-123zM536 709h-182l-76 -539h174q141 0 203 56.5t85 222.5q8 56 8.5 95.5t-8 69t-23 47.5t-41.5 29t-59.5 15t-80.5 4z" />
    <glyph glyph-name="uni042C" unicode="&#x42c;" 
d="M706 879q247 0 334 -110t54 -339q-15 -110 -47.5 -187.5t-91 -133.5t-148 -82.5t-215.5 -26.5h-470q-32 0 -28 32l188 1340q4 28 32 28h127q31 0 28 -32l-70 -489h307zM692 709h-317l-75 -539h308q58 0 98 6t77.5 23t61.5 47.5t42.5 81t29.5 122.5q7 50 7 88t-6 65.5
t-20.5 46.5t-31.5 30.5t-45.5 18t-57.5 8.5t-71 2z" />
    <glyph glyph-name="uni042D" unicode="&#x42d;" 
d="M724 1416q88 0 154 -13t119 -43.5t86 -81t50.5 -124.5t17 -174t-17.5 -230l-16 -119q-21 -156 -55.5 -268.5t-81.5 -188t-114 -120t-145 -62.5t-182 -18q-210 0 -313.5 83.5t-118.5 281.5q-3 32 28 32h115q26 0 31 -36q9 -47 26 -79.5t38.5 -51.5t55 -29.5t67.5 -14
t85 -3.5q67 0 113 9.5t90.5 37t75 78t56 133t43.5 200.5h-490q-31 0 -28 32l16 110q3 28 32 28h493q11 85 13 150t-3 113t-19.5 81t-33.5 53.5t-50 32t-63 15.5t-77 4q-132 0 -208 -38.5t-126 -150.5q-10 -25 -42 -25h-117q-16 0 -23 12t0 31q72 196 193 274.5t326 78.5z
" />
    <glyph glyph-name="uni042E" unicode="&#x42e;" 
d="M869 1416q83 0 143.5 -19.5t108 -65.5t68.5 -122.5t25.5 -191t-20.5 -270.5l-16 -113q-22 -156 -55.5 -270.5t-76 -189t-99.5 -119.5t-119.5 -63t-143.5 -18q-68 0 -121 12.5t-96.5 41.5t-71 78t-43 119.5t-14.5 168t17 221.5h-101l-82 -587q-4 -28 -32 -28h-104
q-32 0 -27 32l188 1340q4 28 32 28h104q32 0 27 -32l-82 -583h101q28 185 72 309.5t106.5 194.5t136.5 98.5t175 28.5zM1028 757q18 122 18 210t-12 139t-40 80.5t-58.5 38.5t-75.5 9q-47 0 -82.5 -10t-73 -41t-65.5 -83.5t-53 -141t-43 -211.5l-16 -113
q-18 -123 -18.5 -210.5t11 -139t39 -80.5t58 -38t75.5 -9q47 0 83 10t74 40.5t66 83t53.5 141.5t43.5 212z" />
    <glyph glyph-name="uni042F" unicode="&#x42f;" horiz-adv-x="1191" 
d="M1146 1400q31 0 28 -32l-188 -1340q-3 -28 -32 -28h-127q-31 0 -28 32l68 489h-195l-404 -503q-15 -18 -36 -18h-147q-18 0 -24 10.5t6 25.5l397 490q-189 20 -254.5 129t-37.5 315q16 111 48.5 188t90.5 133t148 82.5t216 26.5h471zM892 691l75 539h-308
q-73 0 -119.5 -9.5t-87.5 -38.5t-64.5 -85t-36.5 -146q-7 -50 -7 -88t5.5 -65.5t20 -46.5t31.5 -31t45.5 -18.5t57.5 -8.5t71 -2h317z" />
    <glyph glyph-name="uni0430" unicode="&#x430;" 
d="M1151 948l-112 -771q-4 -27 7.5 -40t35.5 -9q15 2 24 -8.5t6 -28.5l-9 -50q-10 -55 -102 -55q-65 0 -91.5 44t-18.5 115h-18q-47 -77 -134.5 -124t-198.5 -47q-193 0 -310 123t-117 330q0 163 70 295.5t188.5 206t260.5 73.5q111 0 194 -42.5t124 -114.5h16l38 110
q7 25 34 25h85q32 0 28 -32zM567 139q104 0 185.5 58t124 150.5t42.5 199.5q0 141 -77 215.5t-198 74.5q-156 0 -256 -113.5t-100 -288.5q0 -138 75.5 -217t203.5 -79z" />
    <glyph glyph-name="uni0431" unicode="&#x431;" 
d="M715 1001q142 0 238.5 -69t134 -186.5t16.5 -267.5q-31 -220 -172 -361.5t-345 -141.5q-221 0 -323 169l-24 -116q-6 -28 -33 -28h-108q-31 0 -28 32l143 1020q26 183 111.5 265.5t257.5 82.5h236q67 0 98.5 9t56.5 31h161q-15 -62 -44.5 -103t-74 -62t-93.5 -28.5
t-118 -7.5h-200q-96 0 -145 -46.5t-63 -143.5l-30 -225l12 1q120 176 336 176zM933 500q22 155 -43.5 246t-213.5 91q-143 0 -244 -99t-124 -258q-22 -152 47 -246.5t206 -94.5q153 0 251 99t121 262z" />
    <glyph glyph-name="uni0432" unicode="&#x432;" 
d="M900 524q94 -15 146.5 -76.5t52.5 -144.5q0 -104 -63 -173.5t-164 -99.5t-236 -30h-522q-31 0 -28 32l128 920q3 28 32 28h519q153 0 235.5 -60.5t82.5 -164.5q0 -84 -48 -144t-135 -87zM749 829h-371l-34 -240h348q225 0 225 142q0 48 -37 73t-131 25zM648 151
q285 0 285 170q0 60 -55 95.5t-197 35.5h-356l-43 -301h366z" />
    <glyph glyph-name="uni0433" unicode="&#x433;" 
d="M249 952q3 28 32 28h820q31 0 28 -32l-13 -91q-3 -28 -32 -28h-671l-112 -801q-3 -28 -32 -28h-120q-31 0 -28 32z" />
    <glyph glyph-name="uni0434" unicode="&#x434;" 
d="M1021 151h76q33 0 28 -32l-33 -231q-4 -28 -32 -28h-111q-15 0 -22.5 8.5t-5.5 23.5l17 108h-782l-17 -112q-3 -28 -32 -28h-111q-31 0 -28 32l35 237q3 27 32 29q198 16 232 266l74 528q3 28 32 28h731q31 0 28 -32zM440 406q-27 -180 -122 -255h528l94 678h-441z" />
    <glyph glyph-name="uni0435" unicode="&#x435;" 
d="M761 413h-487q-2 -129 85.5 -207.5t243.5 -78.5q170 0 286 96q26 18 46 -4l46 -52q26 -28 1 -51q-150 -142 -402 -142q-220 0 -347 125.5t-127 321.5q0 155 75.5 288.5t209 213t292.5 79.5q105 0 189 -30.5t134.5 -81.5t76.5 -112t26 -127q0 -126 -78 -182t-270 -56z
M677 846q-134 0 -238 -81.5t-143 -213.5h414q55 0 88 1.5t65.5 7.5t49.5 17t27 30.5t10 48.5q-1 77 -71.5 133.5t-201.5 56.5z" />
    <glyph glyph-name="uni0436" unicode="&#x436;" 
d="M1181 980q18 0 24 -10.5t-6 -25.5l-321 -393l218 -516q7 -16 0 -25.5t-24 -9.5h-106q-25 0 -36 24l-163 391l-97 -118l-37 -269q-4 -28 -32 -28h-102q-32 0 -28 32l37 267l-63 118l-270 -398q-13 -19 -38 -19h-113q-18 0 -23.5 10t5.5 26l362 524l-205 384
q-8 15 -2.5 25.5t22.5 10.5h115q24 0 35 -22l209 -417l57 411q4 28 32 28h102q32 0 28 -32l-55 -392l320 406q14 18 36 18h119z" />
    <glyph glyph-name="uni0437" unicode="&#x437;" 
d="M882 517q84 -27 130.5 -82.5t46.5 -133.5q0 -107 -74 -183t-188 -110t-254 -34q-163 0 -278 40.5t-155 103.5q-23 35 1 53l56 46q22 18 54 -8q102 -81 315 -81q98 0 177.5 18.5t132 61.5t52.5 104q0 47 -33 75t-120 43.5t-242 17.5q-35 0 -32 30l5 75q3 28 33 28
q88 1 155.5 8t128.5 23t94 47t33 76q0 114 -250 114q-199 0 -335 -80q-17 -11 -35.5 -10t-29.5 15l-37 49q-25 32 6 57q63 52 180 87t272 35q190 0 293 -68t103 -176q0 -161 -205 -241z" />
    <glyph glyph-name="uni0438" unicode="&#x438;" 
d="M888 962q13 18 36 18h157q31 0 28 -32l-128 -920q-3 -28 -32 -28h-120q-31 0 -28 32l101 709l-559 -723q-14 -18 -36 -18h-158q-31 0 -28 32l128 920q3 28 32 28h120q31 0 28 -32l-101 -709z" />
    <glyph glyph-name="uni0439" unicode="&#x439;" 
d="M907 1389q8 21 33 21h67q16 0 23 -10.5t3 -29.5q-27 -111 -112 -180.5t-209 -69.5q-131 0 -203 75t-64 187q3 28 29 28h69q26 0 29 -36q5 -57 41.5 -90.5t103.5 -33.5q70 0 119.5 39.5t70.5 99.5zM888 962q13 18 36 18h157q31 0 28 -32l-128 -920q-3 -28 -32 -28h-120
q-31 0 -28 32l101 709l-559 -723q-14 -18 -36 -18h-158q-31 0 -28 32l128 920q3 28 32 28h120q31 0 28 -32l-101 -709z" />
    <glyph glyph-name="uni043A" unicode="&#x43a;" 
d="M1119 980q21 0 25 -11t-11 -25l-446 -388l384 -520q11 -15 5.5 -25.5t-23.5 -10.5h-151q-23 0 -36 18l-311 423l-264 -230l-25 -183q-3 -28 -32 -28h-120q-31 0 -28 32l128 920q3 28 32 28h120q31 0 28 -32l-72 -516l611 534q17 14 38 14h148z" />
    <glyph glyph-name="uni043B" unicode="&#x43b;" 
d="M1156 980q31 0 28 -32l-128 -920q-3 -28 -32 -28h-120q-31 0 -28 32l112 797h-506l-61 -435q-27 -195 -123 -298.5t-243 -105.5q-29 0 -33 28l-19 104q-6 31 26 34q87 9 143.5 78t72.5 190l74 528q4 28 32 28h805z" />
    <glyph glyph-name="uni043C" unicode="&#x43c;" 
d="M570 189l360 769q9 22 34 22h152q31 0 28 -32l-128 -920q-3 -28 -32 -28h-114q-31 0 -28 32l90 632l-300 -641q-9 -23 -35 -23h-95q-29 0 -33 27l-118 637l-90 -636q-3 -28 -32 -28h-115q-31 0 -28 32l128 920q3 28 32 28h151q28 0 34 -26z" />
    <glyph glyph-name="uni043D" unicode="&#x43d;" 
d="M1081 980q31 0 28 -32l-128 -920q-3 -28 -32 -28h-120q-31 0 -28 32l53 383h-499l-54 -387q-3 -28 -32 -28h-120q-31 0 -28 32l128 920q3 28 32 28h120q31 0 28 -32l-53 -382h499l54 386q3 28 32 28h120z" />
    <glyph glyph-name="uni043E" unicode="&#x43e;" 
d="M568 -26q-200 0 -328.5 131.5t-128.5 331.5q0 156 75 286.5t201.5 204.5t274.5 74q200 0 328.5 -131t128.5 -330q0 -117 -44 -222.5t-118 -180.5t-175.5 -119.5t-213.5 -44.5zM574 139q157 0 263.5 111t106.5 289q0 133 -80.5 216t-208.5 83q-156 0 -262.5 -112
t-106.5 -288q0 -134 80.5 -216.5t207.5 -82.5z" />
    <glyph glyph-name="uni043F" unicode="&#x43f;" 
d="M1081 980q31 0 28 -32l-128 -920q-3 -28 -32 -28h-120q-31 0 -28 32l112 797h-500l-112 -801q-3 -28 -32 -28h-120q-31 0 -28 32l128 920q3 28 32 28h800z" />
    <glyph glyph-name="uni0440" unicode="&#x440;" 
d="M779 1001q181 0 282.5 -116t101.5 -305q0 -120 -38 -230t-105.5 -193t-166.5 -132.5t-214 -49.5q-227 0 -331 168l-70 -495q-4 -28 -32 -28h-118q-32 0 -28 32l184 1300q4 28 32 28h109q13 0 21.5 -10.5t7.5 -24.5l-9 -120h16q55 80 146 128t212 48zM615 139
q114 0 201 60t131 156.5t44 211.5q0 126 -66 198t-187 72q-173 0 -282 -123t-109 -297q0 -128 71 -203t197 -75z" />
    <glyph glyph-name="uni0441" unicode="&#x441;" 
d="M1036 249q25 -16 8 -42q-76 -109 -192 -171t-254 -62q-200 0 -328.5 131.5t-128.5 331.5q0 156 75 286.5t201.5 204.5t274.5 74q136 0 241.5 -62.5t161.5 -171.5q14 -26 -13 -40l-96 -49q-25 -13 -41 13q-38 68 -106 107t-154 39q-156 0 -262.5 -112t-106.5 -288
q0 -134 80.5 -216.5t207.5 -82.5q193 0 309 156q17 24 42 7z" />
    <glyph glyph-name="uni0442" unicode="&#x442;" 
d="M1174 980q31 0 28 -32l-13 -91q-3 -28 -32 -28h-404l-111 -801q-3 -28 -32 -28h-120q-31 0 -28 32l111 797h-400q-32 0 -28 32l13 91q4 28 32 28h984z" />
    <glyph glyph-name="uni0443" unicode="&#x443;" 
d="M1106 980q34 0 28 -32l-127 -868q-13 -88 -39.5 -159t-59.5 -119t-77 -84t-86.5 -56t-93.5 -32.5t-91.5 -16t-87.5 -3.5q-115 0 -203 27t-144.5 92.5t-57.5 162.5q0 30 30 30h112q23 0 31 -28q16 -71 80 -100.5t169 -29.5q67 0 120 14.5t99.5 49t77 98t43.5 154.5l19 130
h-5q-45 -82 -136 -133t-214 -51q-171 0 -260.5 98t-60.5 295l78 533q3 28 32 28h118q31 0 28 -32l-74 -519q-10 -68 0.5 -115.5t39 -72.5t65 -36t85.5 -11q66 0 123 21t97 57.5t67.5 73.5t47.5 80l76 529q3 25 34 25h117zM913 527q1 2 1 5z" />
    <glyph glyph-name="uni0444" unicode="&#x444;" 
d="M775 996q203 -25 293 -157.5t58 -360.5q-32 -225 -158 -352.5t-337 -147.5l-46 -330q-3 -28 -32 -28h-116q-31 0 -28 32l46 328q-203 25 -293 157.5t-58 360.5q32 224 157.5 352t336.5 148l53 374q3 28 32 28h116q31 0 28 -32zM964 498q22 159 -28.5 238.5t-183.5 96.5
l-97 -689q138 19 212 104.5t97 249.5zM266 478q-23 -158 28 -238.5t184 -96.5l97 689q-138 -19 -212 -104.5t-97 -249.5z" />
    <glyph glyph-name="uni0445" unicode="&#x445;" 
d="M1067 36q10 -15 4.5 -25.5t-23.5 -10.5h-147q-24 0 -36 19l-262 361l-371 -365q-15 -15 -38 -15h-144q-20 0 -25 11t9 25l478 468l-322 440q-10 16 -5 26t23 10h146q23 0 36 -18l242 -336l341 338q15 16 37 16h144q20 0 25 -10.5t-9 -25.5l-446 -440z" />
    <glyph glyph-name="uni0446" unicode="&#x446;" 
d="M1100 151q31 0 28 -32l-34 -231q-4 -28 -32 -28h-110q-15 0 -22.5 8.5t-5.5 23.5l17 108h-792q-31 0 -28 32l128 920q3 28 32 28h120q31 0 28 -32l-112 -797h500l112 801q3 28 32 28h120q31 0 28 -32l-111 -797h102z" />
    <glyph glyph-name="uni0447" unicode="&#x447;" 
d="M1081 980q31 0 28 -32l-128 -920q-3 -28 -32 -28h-120q-31 0 -28 32l47 335q-162 -153 -371 -153q-56 0 -106.5 11.5t-98 40t-79.5 71.5t-45.5 111t-1.5 154l48 350q3 28 32 28h120q31 0 28 -32l-49 -350q-32 -235 193 -235q103 0 194.5 53t160.5 133l56 403q3 28 32 28
h120z" />
    <glyph glyph-name="uni0448" unicode="&#x448;" 
d="M1124 980q31 0 28 -32l-128 -920q-3 -28 -32 -28h-885q-31 0 -28 32l128 920q3 28 32 28h112q31 0 28 -32l-112 -797h219l112 801q3 28 32 28h102q31 0 28 -32l-112 -797h220l112 801q3 28 32 28h112z" />
    <glyph glyph-name="uni0449" unicode="&#x449;" 
d="M1124 980q31 0 28 -32l-111 -797h59q31 0 28 -32l-34 -231q-4 -28 -32 -28h-110q-15 0 -22.5 8.5t-5.5 23.5l17 108h-834q-31 0 -28 32l128 920q3 28 32 28h112q31 0 28 -32l-112 -797h219l112 801q3 28 32 28h102q31 0 28 -32l-112 -797h220l112 801q3 28 32 28h112z
" />
    <glyph glyph-name="uni044A" unicode="&#x44a;" 
d="M730 677q203 0 282.5 -87.5t54.5 -260.5q-22 -166 -121.5 -247.5t-302.5 -81.5h-494q-31 0 -28 32l111 797h-91q-32 0 -28 32l13 91q4 28 32 28h243q31 0 28 -32l-38 -271h339zM898 348q14 99 -21.5 140.5t-155.5 41.5h-350l-53 -382h341q120 0 171.5 47.5t67.5 152.5z
" />
    <glyph glyph-name="uni044B" unicode="&#x44b;" 
d="M501 677q104 0 171.5 -22.5t100.5 -66.5t41.5 -109t-4.5 -150q-12 -86 -35.5 -144t-68 -101.5t-116 -63.5t-176.5 -20h-340q-31 0 -28 32l128 920q3 28 32 28h111q31 0 28 -32l-38 -271h194zM1156 980q31 0 28 -32l-128 -920q-3 -28 -32 -28h-110q-31 0 -28 32l128 920
q3 28 32 28h110zM430 148q114 0 158.5 46t59.5 154q9 62 3 102.5t-43 60t-116 19.5h-206l-54 -382h198z" />
    <glyph glyph-name="uni044C" unicode="&#x44c;" 
d="M730 677q203 0 282.5 -87.5t54.5 -260.5q-22 -166 -121.5 -247.5t-302.5 -81.5h-494q-31 0 -28 32l128 920q3 28 32 28h120q31 0 28 -32l-38 -271h339zM898 348q14 99 -21.5 140.5t-155.5 41.5h-350l-53 -382h341q120 0 171.5 47.5t67.5 152.5z" />
    <glyph glyph-name="uni044D" unicode="&#x44d;" 
d="M643 1002q147 0 256.5 -68.5t159.5 -188.5t30 -267q-20 -141 -100 -256.5t-203.5 -181.5t-265.5 -66q-139 0 -240.5 59.5t-152.5 160.5q-14 27 12 43l78 43q26 16 47 -16q88 -125 254 -125q131 0 235.5 77t146.5 203h-319q-31 0 -28 32l11 79q3 28 32 28h327
q-1 126 -81.5 203t-208.5 77q-180 0 -298 -141q-19 -23 -47 -2l-79 57q-26 19 -4 47q76 96 191 149.5t247 53.5z" />
    <glyph glyph-name="uni044E" unicode="&#x44e;" 
d="M897 1002q89 0 156 -26t106.5 -73t62 -112.5t23.5 -144t-10 -168.5q-16 -112 -49 -200t-87.5 -158t-138 -108t-190.5 -38q-100 0 -172 32.5t-111 93t-54.5 138.5t-9.5 176h-142l-54 -386q-3 -28 -32 -28h-111q-31 0 -28 32l128 920q3 28 32 28h111q31 0 28 -32l-53 -384
h141q86 438 454 438zM1072 498q49 340 -181 340q-247 0 -296 -360q-49 -339 180 -339q247 0 297 359z" />
    <glyph glyph-name="uni044F" unicode="&#x44f;" 
d="M1081 980q31 0 28 -32l-128 -920q-3 -28 -32 -28h-120q-31 0 -28 32l42 296h-233l-324 -313q-15 -15 -38 -15h-137q-20 0 -25.5 10.5t9.5 25.5l315 299q-128 18 -186 82t-58 174q0 207 105 298t322 91h488zM532 476h331l50 357h-337q-130 0 -184 -52.5t-54 -177.5
q0 -71 44 -99t150 -28z" />
    <glyph glyph-name="uni0451" unicode="&#x451;" 
d="M454 1281q-41 0 -70.5 29.5t-29.5 71.5q0 40 29.5 69t70.5 29t70.5 -29t29.5 -69q0 -42 -29.5 -71.5t-70.5 -29.5zM837 1281q-41 0 -70.5 29.5t-29.5 71.5q0 40 29.5 69t70.5 29t70.5 -29t29.5 -69q0 -42 -29.5 -71.5t-70.5 -29.5zM761 413h-487q-2 -129 85.5 -207.5
t243.5 -78.5q170 0 286 96q26 18 46 -4l46 -52q26 -28 1 -51q-150 -142 -402 -142q-220 0 -347 125.5t-127 321.5q0 155 75.5 288.5t209 213t292.5 79.5q105 0 189 -30.5t134.5 -81.5t76.5 -112t26 -127q0 -126 -78 -182t-270 -56zM677 846q-134 0 -238 -81.5t-143 -213.5
h414q55 0 88 1.5t65.5 7.5t49.5 17t27 30.5t10 48.5q-1 77 -71.5 133.5t-201.5 56.5z" />
    <glyph glyph-name="uni0453" unicode="&#x453;" 
d="M656 1090q-18 0 -23.5 10.5t3.5 25.5l159 254q11 20 36 20h94q18 0 23.5 -10.5t-3.5 -25.5l-158 -254q-11 -20 -36 -20h-95zM249 952q3 28 32 28h820q31 0 28 -32l-13 -91q-3 -28 -32 -28h-671l-112 -801q-3 -28 -32 -28h-120q-31 0 -28 32z" />
    <glyph glyph-name="uni0454" unicode="&#x454;" 
d="M1095 768q14 -26 -13 -40l-96 -49q-25 -13 -41 13q-38 68 -106 107t-154 39q-126 0 -223 -76t-131 -204h324q33 0 28 -32l-11 -79q-4 -28 -32 -28h-324q7 -126 86.5 -203t201.5 -77q193 0 309 156q17 24 42 7l81 -53q25 -16 8 -42q-76 -109 -192 -171t-254 -62
q-200 0 -328.5 131.5t-128.5 331.5q0 156 75 286.5t201.5 204.5t274.5 74q136 0 241.5 -62.5t161.5 -171.5z" />
    <glyph glyph-name="uni0457" unicode="&#x457;" 
d="M542 1221q-41 0 -70.5 29.5t-29.5 71.5q0 40 29.5 69t70.5 29t70.5 -29t29.5 -69q0 -42 -29.5 -71.5t-70.5 -29.5zM925 1221q-41 0 -70.5 29.5t-29.5 71.5q0 40 29.5 69t70.5 29t70.5 -29t29.5 -69q0 -42 -29.5 -71.5t-70.5 -29.5zM1102 147q11 -20 -6 -37
q-45 -49 -134 -89.5t-195 -40.5q-48 0 -90 8t-84 26.5t-71.5 50t-52.5 78t-26 110t7 146.5l65 426h-382q-31 0 -28 32l13 95q3 28 32 28h535q32 0 27 -32l-83 -550q-6 -57 -5.5 -98t15 -70t30.5 -47t40 -28t44.5 -13.5t43.5 -3.5q111 0 223 91q28 23 44 -7z" />
    <glyph glyph-name="uni0490" unicode="&#x490;" 
d="M1188 1502q31 0 28 -32l-14 -97v-5l-16 -110q-3 -28 -32 -28h-690l-168 -1202q-3 -28 -32 -28h-127q-31 0 -28 32l188 1340q3 28 32 28h707l10 74q3 28 32 28h110z" />
    <glyph glyph-name="uni0491" unicode="&#x491;" 
d="M1119 1104q31 0 28 -32l-25 -175l-6 -40q-3 -28 -32 -28h-671l-112 -801q-3 -28 -32 -28h-120q-31 0 -28 32l128 920q3 28 32 28h673l13 96q3 28 32 28h120z" />
    <glyph glyph-name="Wgrave" unicode="&#x1e80;" 
d="M826 1544q10 -34 -24 -34h-94q-26 0 -34 24l-84 252q-10 34 24 34h93q26 0 34 -24zM1102 1374q6 26 34 26h117q16 0 23 -9.5t3 -24.5l-365 -1341q-6 -25 -33 -25h-162q-30 0 -30 30l-7 923l-269 -928q-7 -25 -34 -25h-162q-30 0 -30 30l12 1340q0 30 30 30h116
q29 0 29 -30l-33 -1135l329 1140q7 25 33 25h75q29 0 29 -30l9 -1135z" />
    <glyph glyph-name="wgrave" unicode="&#x1e81;" 
d="M766 1124q10 -34 -24 -34h-94q-26 0 -34 24l-84 252q-10 34 24 34h93q26 0 34 -24zM1169 980q30 0 30 -30q0 -197 -26 -368.5t-77.5 -309.5t-136.5 -218t-195 -80q-62 0 -109.5 27.5t-69.5 82.5q-42 -55 -103.5 -83t-126.5 -28q-54 0 -96.5 16.5t-75 51.5t-44.5 96.5
t0 145.5l79 546h-67q-31 0 -28 32l12 91q3 28 32 28h214q13 0 21.5 -10.5t6.5 -24.5l-97 -650q-24 -152 83 -152q121 0 143 145l96 664q3 28 32 28h99q31 0 28 -32l-90 -665q-10 -70 3.5 -105t58.5 -35q77 0 139 113.5t94.5 297t31.5 396.5q0 30 30 30h109z" />
    <glyph glyph-name="Wacute" unicode="&#x1e82;" 
d="M716 1510q-18 0 -23.5 10.5t3.5 25.5l159 254q11 20 36 20h94q18 0 23.5 -10.5t-3.5 -25.5l-158 -254q-11 -20 -36 -20h-95zM1102 1374q6 26 34 26h117q16 0 23 -9.5t3 -24.5l-365 -1341q-6 -25 -33 -25h-162q-30 0 -30 30l-7 923l-269 -928q-7 -25 -34 -25h-162
q-30 0 -30 30l12 1340q0 30 30 30h116q29 0 29 -30l-33 -1135l329 1140q7 25 33 25h75q29 0 29 -30l9 -1135z" />
    <glyph glyph-name="wacute" unicode="&#x1e83;" 
d="M655 1090q-18 0 -23.5 10.5t3.5 25.5l159 254q11 20 36 20h94q18 0 23.5 -10.5t-3.5 -25.5l-158 -254q-11 -20 -36 -20h-95zM1169 980q30 0 30 -30q0 -197 -26 -368.5t-77.5 -309.5t-136.5 -218t-195 -80q-62 0 -109.5 27.5t-69.5 82.5q-42 -55 -103.5 -83t-126.5 -28
q-54 0 -96.5 16.5t-75 51.5t-44.5 96.5t0 145.5l79 546h-67q-31 0 -28 32l12 91q3 28 32 28h214q13 0 21.5 -10.5t6.5 -24.5l-97 -650q-24 -152 83 -152q121 0 143 145l96 664q3 28 32 28h99q31 0 28 -32l-90 -665q-10 -70 3.5 -105t58.5 -35q77 0 139 113.5t94.5 297
t31.5 396.5q0 30 30 30h109z" />
    <glyph glyph-name="Wdieresis" unicode="&#x1e84;" 
d="M601 1641q-41 0 -70.5 29.5t-29.5 71.5q0 40 29.5 69t70.5 29t70.5 -29t29.5 -69q0 -42 -29.5 -71.5t-70.5 -29.5zM984 1641q-41 0 -70.5 29.5t-29.5 71.5q0 40 29.5 69t70.5 29t70.5 -29t29.5 -69q0 -42 -29.5 -71.5t-70.5 -29.5zM1102 1374q6 26 34 26h117
q16 0 23 -9.5t3 -24.5l-365 -1341q-6 -25 -33 -25h-162q-30 0 -30 30l-7 923l-269 -928q-7 -25 -34 -25h-162q-30 0 -30 30l12 1340q0 30 30 30h116q29 0 29 -30l-33 -1135l329 1140q7 25 33 25h75q29 0 29 -30l9 -1135z" />
    <glyph glyph-name="wdieresis" unicode="&#x1e85;" 
d="M541 1221q-41 0 -70.5 29.5t-29.5 71.5q0 40 29.5 69t70.5 29t70.5 -29t29.5 -69q0 -42 -29.5 -71.5t-70.5 -29.5zM924 1221q-41 0 -70.5 29.5t-29.5 71.5q0 40 29.5 69t70.5 29t70.5 -29t29.5 -69q0 -42 -29.5 -71.5t-70.5 -29.5zM1169 980q30 0 30 -30
q0 -197 -26 -368.5t-77.5 -309.5t-136.5 -218t-195 -80q-62 0 -109.5 27.5t-69.5 82.5q-42 -55 -103.5 -83t-126.5 -28q-54 0 -96.5 16.5t-75 51.5t-44.5 96.5t0 145.5l79 546h-67q-31 0 -28 32l12 91q3 28 32 28h214q13 0 21.5 -10.5t6.5 -24.5l-97 -650q-24 -152 83 -152
q121 0 143 145l96 664q3 28 32 28h99q31 0 28 -32l-90 -665q-10 -70 3.5 -105t58.5 -35q77 0 139 113.5t94.5 297t31.5 396.5q0 30 30 30h109z" />
    <glyph glyph-name="uni1E9E" unicode="&#x1e9e;" 
d="M728 821q200 -21 309.5 -115t109.5 -254q0 -214 -128 -346t-341 -132q-193 0 -283 90.5t-74 255.5q2 28 31 28h104q30 0 28 -31q-2 -83 48.5 -130.5t153.5 -47.5q127 0 203 86t76 217q0 235 -397 235q-17 0 -26.5 10.5t-7.5 24.5l15 114l356 414h-318
q-123 0 -180.5 -56.5t-73.5 -170.5l-138 -985q-4 -28 -32 -28h-127q-32 0 -27 32l140 1004q28 195 127.5 284.5t312.5 89.5h597q19 0 24.5 -11.5t-7.5 -25.5z" />
    <glyph glyph-name="Ygrave" unicode="&#x1ef2;" 
d="M675 1534l-84 252q-10 34 24 34h93q26 0 34 -24l85 -252q10 -34 -24 -34h-94q-26 0 -34 24zM1255 1400q18 0 23 -10t-5 -26l-555 -811l-75 -525q-3 -28 -32 -28h-127q-31 0 -28 32l75 525l-327 809q-6 16 0.5 25t23.5 9h130q27 0 35 -24l252 -645l439 649q12 20 38 20
h133z" />
    <glyph glyph-name="ygrave" unicode="&#x1ef3;" 
d="M614 1114l-84 252q-10 34 24 34h93q26 0 34 -24l85 -252q10 -34 -24 -34h-94q-26 0 -34 24zM1106 980q34 0 28 -32l-127 -868q-13 -88 -39.5 -159t-59.5 -119t-77 -84t-86.5 -56t-93.5 -32.5t-91.5 -16t-87.5 -3.5q-115 0 -203 27t-144.5 92.5t-57.5 162.5q0 30 30 30
h112q23 0 31 -28q16 -71 80 -100.5t169 -29.5q67 0 120 14.5t99.5 49t77 98t43.5 154.5l19 130h-5q-45 -82 -136 -133t-214 -51q-171 0 -260.5 98t-60.5 295l78 533q3 28 32 28h118q31 0 28 -32l-74 -519q-10 -68 0.5 -115.5t39 -72.5t65 -36t85.5 -11q66 0 123 21t97 57.5
t67.5 73.5t47.5 80l76 529q3 25 34 25h117zM913 527q1 2 1 5z" />
    <glyph glyph-name="endash" unicode="&#x2013;" 
d="M1094 639q31 0 28 -32l-13 -93q-3 -28 -32 -28h-920q-31 0 -28 32l13 93q3 28 32 28h920z" />
    <glyph glyph-name="emdash" unicode="&#x2014;" 
d="M1094 639q31 0 28 -32l-13 -93q-3 -28 -32 -28h-920q-31 0 -28 32l13 93q3 28 32 28h920z" />
    <glyph glyph-name="quoteleft" unicode="&#x2018;" 
d="M895 1088q33 0 28 -32l-14 -95q-4 -28 -32 -28h-397q-32 0 -27 32l7 52q42 295 131 451q14 24 47 24h61q16 0 23 -12t0 -31q-28 -78 -51.5 -180.5t-28.5 -180.5h253z" />
    <glyph glyph-name="quoteright" unicode="&#x2019;" 
d="M526 1249q-33 0 -28 32l14 95q4 28 32 28h397q32 0 27 -32l-7 -52q-42 -295 -131 -451q-14 -24 -47 -24h-61q-16 0 -23 12t0 31q28 78 51.5 180.5t28.5 180.5h-253z" />
    <glyph glyph-name="quotesinglbase" unicode="&#x201a;" 
d="M350 0q-33 0 -28 32l14 95q4 28 32 28h397q32 0 27 -32l-7 -52q-42 -295 -131 -451q-14 -24 -47 -24h-61q-16 0 -23 12t0 31q28 78 51.5 180.5t28.5 180.5h-253z" />
    <glyph glyph-name="quotedblleft" unicode="&#x201c;" 
d="M602 1071q29 0 26 -34l-13 -100q-5 -30 -30 -30h-365q-30 0 -25 34l6 55q38 312 121 476q13 26 43 26h56q15 0 21.5 -12.5t0.5 -33.5q-27 -81 -48.5 -189.5t-25.5 -191.5h233zM1150 1071q29 0 26 -34l-13 -100q-5 -30 -30 -30h-365q-30 0 -25 34l6 55q38 312 121 476
q13 26 43 26h56q15 0 21.5 -12.5t0.5 -33.5q-27 -81 -48.5 -189.5t-25.5 -191.5h233z" />
    <glyph glyph-name="quotedblright" unicode="&#x201d;" 
d="M268 1243q-29 0 -26 34l13 100q5 30 30 30h365q30 0 25 -34l-6 -55q-38 -312 -121 -476q-13 -26 -43 -26h-56q-15 0 -21.5 12.5t-0.5 33.5q27 81 48.5 189.5t25.5 191.5h-233zM816 1243q-29 0 -26 34l13 100q5 30 30 30h365q30 0 25 -34l-6 -55q-38 -312 -121 -476
q-13 -26 -43 -26h-56q-15 0 -21.5 12.5t-0.5 33.5q27 81 48.5 189.5t25.5 191.5h-233z" />
    <glyph glyph-name="quotedblbase" unicode="&#x201e;" 
d="M93 0q-29 0 -26 34l13 100q4 30 30 30h365q30 0 25 -34l-6 -55q-38 -312 -121 -476q-13 -26 -43 -26h-56q-15 0 -21.5 12.5t-0.5 33.5q27 81 48.5 189.5t25.5 191.5h-233zM641 0q-29 0 -26 34l13 100q4 30 30 30h365q30 0 25 -34l-6 -55q-38 -312 -121 -476
q-13 -26 -43 -26h-56q-15 0 -21.5 12.5t-0.5 33.5q27 81 48.5 189.5t25.5 191.5h-233z" />
    <glyph glyph-name="dagger" unicode="&#x2020;" 
d="M1080 1159q31 0 28 -32l-13 -86q-3 -28 -32 -28h-300l-43 -302q-3 -28 -32 -28h-86q-31 0 -28 32l42 298h-297q-31 0 -28 32l12 86q3 28 32 28h302l42 301q3 28 32 28h86q31 0 28 -32l-42 -297h297z" />
    <glyph glyph-name="daggerdbl" unicode="&#x2021;" 
d="M1081 1159q31 0 28 -32l-13 -86q-3 -28 -32 -28h-300l-43 -302q0 -7 -3 -11l-38 -272h297q31 0 28 -32l-13 -86q-3 -28 -32 -28h-300l-43 -302q-3 -28 -32 -28h-86q-31 0 -28 32l42 298h-297q-31 0 -28 32l12 86q3 28 32 28h302l42 301q0 7 3 11l38 273h-297
q-31 0 -28 32l12 86q3 28 32 28h302l42 301q3 28 32 28h86q31 0 28 -32l-42 -297h297z" />
    <glyph glyph-name="bullet" unicode="&#x2022;" 
d="M625 348q-85 0 -144.5 59t-59.5 143t59.5 143t144.5 59q83 0 142.5 -59t59.5 -143t-59.5 -143t-142.5 -59z" />
    <glyph glyph-name="ellipsis" unicode="&#x2026;" 
d="M116 -27q-56 0 -93.5 37.5t-37.5 93.5q0 55 38 94t93 39t93 -39t38 -94t-38 -93t-93 -38zM512 -27q-56 0 -93.5 37.5t-37.5 93.5q0 55 38 94t93 39t93 -39t38 -94t-38 -93t-93 -38zM908 -27q-56 0 -93.5 37.5t-37.5 93.5q0 55 38 94t93 39t93 -39t38 -94t-38 -93t-93 -38
z" />
    <glyph glyph-name="perthousand" unicode="&#x2030;" 
d="M441 1410q206 0 167 -282q-36 -265 -228 -265q-103 0 -145 72.5t-21 212.5q19 133 74.5 197.5t152.5 64.5zM438 1278q-49 0 -73 -35.5t-34 -114.5q-11 -70 -0.5 -101.5t52.5 -31.5q48 0 71.5 35.5t36.5 117.5q12 69 0.5 99.5t-53.5 30.5zM923 1148q20 -20 4 -42
l-730 -891q-19 -26 -42 -3l-47 43q-22 19 -4 42l728 891q19 24 43 2zM908 537q207 0 168 -282q-37 -265 -228 -265q-88 0 -131 62q-59 -62 -146 -62q-100 0 -142 72.5t-22 212.5q18 133 73.5 197.5t150.5 64.5q92 0 134 -61q57 61 143 61zM575 122q49 0 73 36t35 117
q10 72 -0.5 101t-53.5 29q-49 0 -72.5 -35.5t-33.5 -114.5q-12 -71 -1 -102t53 -31zM852 122q48 0 72.5 36.5t35.5 116.5q10 72 -1 101t-53 29q-49 0 -73 -35.5t-34 -114.5q-11 -71 -0.5 -102t53.5 -31z" />
    <glyph glyph-name="guilsinglleft" unicode="&#x2039;" 
d="M883 980q18 0 24 -10.5t-6 -25.5l-311 -382l203 -382q7 -15 1 -25.5t-23 -10.5h-131q-25 0 -36 22l-201 374q-13 22 4 42l310 380q15 18 36 18h130z" />
    <glyph glyph-name="guilsinglright" unicode="&#x203a;" 
d="M458 944q-7 15 -1 25.5t23 10.5h131q25 0 36 -22l201 -374q13 -22 -4 -42l-310 -380q-15 -18 -36 -18h-130q-18 0 -24 10.5t6 25.5l311 382z" />
    <glyph glyph-name="fraction" unicode="&#x2044;" 
d="M109 0q-18 0 -23.5 10t4.5 26l930 1346q12 18 38 18h124q18 0 23 -10t-5 -26l-929 -1345q-13 -19 -38 -19h-124z" />
    <glyph glyph-name="Euro" unicode="&#x20ac;" 
d="M762 1420q217 0 314.5 -85.5t95.5 -288.5q0 -28 -29 -28h-110q-12 0 -20 10.5t-9 26.5q-5 112 -60 148.5t-188 36.5q-74 0 -124.5 -13.5t-97 -51.5t-79 -111.5t-55.5 -187.5h281q31 0 28 -32l-13 -86q-3 -28 -32 -28h-288l-11 -85h283q32 0 28 -32l-12 -86
q-3 -28 -32 -28h-283q-6 -90 1.5 -153t25.5 -101t52 -59.5t71.5 -28.5t94.5 -7q139 0 210 41.5t102 156.5q7 27 34 27h117q14 0 20.5 -10.5t2.5 -27.5q-49 -204 -165.5 -285.5t-331.5 -81.5q-118 0 -196.5 25.5t-131 86t-71.5 163t-9 254.5h-74q-31 0 -28 32l13 86
q3 28 32 28h73l11 85h-68q-32 0 -28 32l12 86q3 28 32 28h74q29 160 73.5 265.5t112 167t151 86.5t201.5 25z" />
    <glyph glyph-name="uni2116" unicode="&#x2116;" 
d="M1014 822q-102 0 -156 59t-54 170q0 101 29.5 180.5t93 129t153.5 49.5q102 0 156 -59t54 -170q0 -102 -29.5 -181.5t-93 -128.5t-153.5 -49zM481 370l142 1002q4 28 32 28h93q32 0 27 -32l-188 -1340q-4 -28 -32 -28h-144q-29 0 -32 29l-117 1012l-143 -1013
q-4 -28 -32 -28h-93q-32 0 -27 32l188 1340q4 28 32 28h146q29 0 32 -28zM1072 1280q-74 0 -107.5 -62.5t-33.5 -158.5q0 -56 22 -81t69 -25q74 0 107.5 62t33.5 158q0 56 -22 81.5t-69 25.5zM767 573q-33 0 -28 32l13 93q5 28 32 28h411q33 0 28 -32l-13 -93
q-4 -28 -32 -28h-411z" />
    <glyph glyph-name="trademark" unicode="&#x2122;" 
d="M299 1316q-32 0 -27 32l3 24q4 28 32 28h326q32 0 27 -32l-4 -24q-4 -28 -32 -28h-118l-54 -388q-3 -28 -32 -28h-31q-33 0 -28 32l54 384h-116zM1072 1377q9 23 35 23h67q33 0 28 -32l-62 -440q-4 -28 -32 -28h-29q-32 0 -27 32l47 329l-135 -338q-9 -23 -34 -23h-46
q-28 0 -31 28l-41 333l-48 -333q-4 -28 -32 -28h-28q-33 0 -28 32l62 440q4 28 32 28h66q28 0 31 -28l49 -363z" />
    <glyph glyph-name="oneeighth" unicode="&#x215b;" 
d="M249 763q-31 0 -28 28l13 77q3 24 32 24h366l93 550q-137 -97 -332 -105q-33 0 -30 27l10 89q3 24 27 25q174 6 345 122h150q31 0 28 -28l-112 -680h294q31 0 28 -27l-13 -78q-4 -24 -32 -24h-839zM1180 679q34 0 28 -32l-12 -73q-3 -28 -32 -28h-1080q-32 0 -28 32
l12 73q3 28 32 28h1080zM832 92q108 -32 155 -89t32 -145q-39 -249 -530 -249q-248 0 -366 66.5t-95 203.5q13 81 76 133t185 84q-69 15 -104 63.5t-26 107.5q17 100 131 154.5t325 54.5q217 0 318 -59t83 -166q-9 -56 -55.5 -99t-128.5 -60zM319 239q-8 -48 49 -70t195 -22
q145 0 212.5 24.5t75.5 76.5q9 53 -46.5 75.5t-194.5 22.5q-147 0 -214.5 -25.5t-76.5 -81.5zM849 -121q12 75 -63.5 107.5t-230.5 32.5q-330 0 -355 -149q-11 -69 63.5 -97t234.5 -28q166 0 253 30t98 104z" />
    <glyph glyph-name="threeeighths" unicode="&#x215c;" 
d="M957 1184q116 -21 175.5 -69t43.5 -142q-10 -65 -52.5 -110.5t-115 -71t-161.5 -37t-206 -11.5q-115 0 -197 11.5t-143 39t-88 76t-21 119.5q3 25 32 25l116 2q29 0 29 -25q1 -68 66 -91.5t210 -23.5q160 0 250 26.5t102 96.5q12 71 -70 97.5t-302 28.5q-34 0 -31 27
l7 59q3 24 32 24q205 2 297.5 34.5t102.5 96.5q10 61 -59 87t-209 26q-136 0 -215.5 -33t-103.5 -112q-9 -24 -36 -21l-113 15q-30 3 -25 29q17 70 58 119.5t106.5 78.5t146.5 42t186 13q228 0 342.5 -59t94.5 -179q-24 -139 -249 -188zM1180 679q34 0 28 -32l-12 -73
q-3 -28 -32 -28h-1080q-32 0 -28 32l12 73q3 28 32 28h1080zM832 92q108 -32 155 -89t32 -145q-39 -249 -530 -249q-248 0 -366 66.5t-95 203.5q13 81 76 133t185 84q-69 15 -104 63.5t-26 107.5q17 100 131 154.5t325 54.5q217 0 318 -59t83 -166q-9 -56 -55.5 -99
t-128.5 -60zM319 239q-8 -48 49 -70t195 -22q145 0 212.5 24.5t75.5 76.5q9 53 -46.5 75.5t-194.5 22.5q-147 0 -214.5 -25.5t-76.5 -81.5zM498 -255q166 0 253 30t98 104q12 75 -63.5 107.5t-230.5 32.5q-330 0 -355 -149q-11 -69 63.5 -97t234.5 -28z" />
    <glyph glyph-name="fiveeighths" unicode="&#x215d;" 
d="M752 1351q228 0 337.5 -77t84.5 -227q-23 -142 -160 -215.5t-381 -73.5q-217 0 -326.5 59.5t-105.5 189.5q3 22 27 22h106q22 0 29 -31q14 -63 83 -87.5t207 -24.5q333 0 362 178q14 87 -58 127.5t-215 40.5q-201 0 -326 -75q-27 -16 -54 -6l-87 29q-29 10 -17 33
l183 368q8 19 34 19h645q31 0 28 -28l-13 -74q-3 -24 -32 -24h-555l-87 -170q98 47 291 47zM1180 679q34 0 28 -32l-12 -73q-3 -28 -32 -28h-1080q-32 0 -28 32l12 73q3 28 32 28h1080zM834 92q108 -32 155 -89t32 -145q-39 -249 -530 -249q-248 0 -366 66.5t-95 203.5
q13 81 76 133t185 84q-69 15 -104 63.5t-26 107.5q17 100 131 154.5t325 54.5q217 0 318 -59t83 -166q-9 -56 -55.5 -99t-128.5 -60zM321 239q-8 -48 49 -70t195 -22q145 0 212.5 24.5t75.5 76.5q9 53 -46.5 75.5t-194.5 22.5q-147 0 -214.5 -25.5t-76.5 -81.5zM500 -255
q166 0 253 30t98 104q12 75 -63.5 107.5t-230.5 32.5q-330 0 -355 -149q-11 -69 63.5 -97t234.5 -28z" />
    <glyph glyph-name="seveneighths" unicode="&#x215e;" 
d="M315 1466q-16 0 -23 6.5t-5 20.5l13 83q3 24 32 24h884q32 0 28 -28l-15 -96q-2 -16 -16 -31l-688 -668q-14 -14 -36 -14h-135q-19 0 -24 9.5t8 21.5l698 672h-721zM1180 679q34 0 28 -32l-12 -73q-3 -28 -32 -28h-1080q-32 0 -28 32l12 73q3 28 32 28h1080zM834 92
q108 -32 155 -89t32 -145q-39 -249 -530 -249q-248 0 -366 66.5t-95 203.5q13 81 76 133t185 84q-69 15 -104 63.5t-26 107.5q17 100 131 154.5t325 54.5q217 0 318 -59t83 -166q-9 -56 -55.5 -99t-128.5 -60zM321 239q-8 -48 49 -70t195 -22q145 0 212.5 24.5t75.5 76.5
q9 53 -46.5 75.5t-194.5 22.5q-147 0 -214.5 -25.5t-76.5 -81.5zM500 -255q166 0 253 30t98 104q12 75 -63.5 107.5t-230.5 32.5q-330 0 -355 -149q-11 -69 63.5 -97t234.5 -28z" />
    <glyph glyph-name="partialdiff" unicode="&#x2202;" 
d="M644 854q98 0 192.5 -38.5t120.5 -100.5l33 220q6 52 8 93.5t-7.5 74t-21 56.5t-32.5 41.5t-42 28.5t-50.5 17.5t-57 9t-61.5 2.5q-125 0 -212.5 -55t-106.5 -154q-5 -23 -32 -20l-102 9q-13 1 -21.5 12.5t-6.5 29.5q21 159 153 247.5t329 88.5q248 0 359.5 -118
t75.5 -377l-69 -488q-31 -222 -173.5 -340.5t-369.5 -118.5q-231 0 -345.5 122t-85.5 338q27 196 168 308t357 112zM556 133q150 0 247.5 75t117.5 226q18 133 -54 200.5t-215 67.5q-148 0 -246 -74t-117 -214q-20 -144 51 -212.5t216 -68.5z" />
    <glyph glyph-name="product" unicode="&#x220f;" 
d="M55 -380q-31 0 -28 32l270 1920q3 28 32 28h880q31 0 28 -32l-270 -1920q-3 -28 -32 -28h-119q-31 0 -28 32l250 1778h-581l-250 -1782q-3 -28 -32 -28h-120z" />
    <glyph glyph-name="summation" unicode="&#x2211;" 
d="M1229 1600q31 0 28 -32l-16 -110q-3 -28 -32 -28h-746l423 -804q12 -25 -4 -44l-645 -792h738q31 0 28 -32l-16 -110q-3 -28 -32 -28h-930q-31 0 -28 32l18 123q3 21 13 36l653 799l-421 808q-11 22 -9 37l16 117q3 28 32 28h930z" />
    <glyph glyph-name="minus" unicode="&#x2212;" 
d="M1007 642q31 0 28 -32l-13 -86q-3 -28 -32 -28h-744q-31 0 -28 32l12 86q3 28 32 28h745z" />
    <glyph glyph-name="radical" unicode="&#x221a;" 
d="M1302 1600q15 0 23.5 -12t2.5 -27l-695 -1912q-12 -29 -36 -29h-164q-12 0 -20.5 8t-9.5 22l-118 864h-168q-31 0 -28 32l16 110q3 28 32 28h259q13 0 21.5 -8.5t10.5 -22.5l103 -850l635 1767q10 30 35 30h101z" />
    <glyph glyph-name="infinity" unicode="&#x221e;" 
d="M969 850q128 0 185.5 -87.5t34.5 -239.5q-22 -161 -97.5 -246t-198.5 -85q-53 0 -94.5 17t-76 54t-57.5 72.5t-56 96.5q-48 -62 -80.5 -98.5t-74.5 -72.5t-86 -52.5t-94 -16.5q-131 0 -188.5 88t-33.5 243q21 159 97 243t201 84q52 0 92.5 -16.5t74.5 -53.5t56.5 -71.5
t55.5 -95.5q48 60 81 96.5t75.5 72.5t87.5 52t96 16zM292 314q16 0 33 5t31 11t32.5 20.5t30.5 24.5t33 32.5t32 34.5t36 40t37 41q-25 48 -37.5 69.5t-33.5 54t-36.5 46t-37 24.5t-45.5 11q-82 0 -130 -57t-61 -148q-27 -209 116 -209zM1065 523q27 205 -117 205
q-38 0 -82.5 -28.5t-70 -54t-88.5 -94.5q-17 -18 -26 -28q30 -57 47 -86.5t41.5 -62.5t49.5 -46.5t54 -13.5q82 0 129.5 58t62.5 151z" />
    <glyph glyph-name="integral" unicode="&#x222b;" 
d="M1019 1472q91 0 177 -20t82 -49l-13 -89q-3 -28 -32 -21q-6 1 -25.5 6t-36 9t-47 7t-64.5 3q-120 0 -186.5 -53t-86.5 -198l-152 -1064q-16 -114 -52.5 -191.5t-92.5 -119t-119 -58t-147 -16.5q-40 0 -85 5t-84 14t-64 22.5t-23 28.5l11 87q4 28 33 22q5 -1 25.5 -6
t37.5 -8.5t49 -7t67 -3.5q115 0 180.5 53.5t85.5 198.5l153 1064q13 92 40.5 160t63.5 110.5t85.5 68.5t101.5 35.5t118 9.5z" />
    <glyph glyph-name="approxequal" unicode="&#x2248;" 
d="M464 887q55 0 101 -19.5t77 -46.5t59 -54.5t62.5 -47t72.5 -19.5q56 0 92 25.5t52 59.5q11 20 33 20h67q28 0 19 -34q-22 -93 -94.5 -146.5t-175.5 -53.5q-54 0 -99.5 19.5t-76.5 46.5t-59.5 54.5t-62 47t-70.5 19.5q-98 0 -145 -86q-10 -19 -32 -19h-63q-15 0 -21 11
t-1 28q23 88 94 141.5t171 53.5zM414 531q55 0 101 -19.5t77 -46.5t59 -54.5t62.5 -47t72.5 -19.5q56 0 92 25.5t52 59.5q11 20 33 20h67q28 0 19 -34q-22 -93 -94.5 -146.5t-175.5 -53.5q-54 0 -99.5 19.5t-76.5 46.5t-59.5 54.5t-62 47t-70.5 19.5q-98 0 -145 -86
q-10 -19 -32 -19h-63q-15 0 -21 11t-1 28q23 88 94 141.5t171 53.5z" />
    <glyph glyph-name="notequal" unicode="&#x2260;" 
d="M1029 804q34 0 28 -32l-13 -86q-3 -28 -32 -28h-283l-68 -177h322q34 0 28 -32l-12 -86q-3 -28 -32 -28h-363l-120 -311q-9 -24 -36 -24h-87q-36 0 -24 34l117 301h-230q-31 0 -28 32l12 86q3 28 32 28h270l69 177h-310q-31 0 -28 32l13 86q3 28 32 28h349l114 294
q9 24 36 24h87q36 0 24 -34l-110 -284h243z" />
    <glyph glyph-name="lessequal" unicode="&#x2264;" 
d="M1018 1021q13 -25 -12 -37l-575 -257l493 -260q12 -7 16.5 -18t-3.5 -23l-58 -85q-14 -20 -39 -5l-573 304q-23 13 -20 38l15 109q3 22 23 32l659 303q27 13 38 -19zM938 146q31 0 28 -32l-13 -86q-3 -28 -32 -28h-744q-31 0 -28 32l12 86q3 28 32 28h745z" />
    <glyph glyph-name="greaterequal" unicode="&#x2265;" 
d="M303 1028l60 84q9 13 18 13t20 -8l574 -309q23 -14 20 -39l-16 -112q-3 -25 -21 -33l-662 -310q-24 -11 -38 20l-35 84q-13 26 11 38l577 262l-494 267q-12 6 -17 19t3 24zM936 146q34 0 28 -32l-12 -86q-3 -28 -32 -28h-743q-34 0 -28 32l12 86q3 28 32 28h743z" />
    <glyph glyph-name="lozenge" unicode="&#x25ca;" 
d="M832 1400q22 0 32 -27l237 -657q9 -25 -1 -41l-421 -657q-11 -18 -35 -18h-187q-21 0 -31 27l-237 658q-9 23 2 40l421 658q7 11 13.5 14t19.5 3h187zM563 140l361 560l-198 560l-358 -560z" />
    <glyph glyph-name="i.loclTRK" 
d="M732 1211q-41 0 -70.5 29.5t-29.5 71.5q0 40 29.5 69t70.5 29t70.5 -29t29.5 -69q0 -42 -29.5 -71.5t-70.5 -29.5zM1102 147q11 -20 -6 -37q-45 -49 -134 -89.5t-195 -40.5q-48 0 -90 8t-84 26.5t-71.5 50t-52.5 78t-26 110t7 146.5l65 426h-382q-31 0 -28 32l13 95
q3 28 32 28h535q32 0 27 -32l-83 -550q-6 -57 -5.5 -98t15 -70t30.5 -47t40 -28t44.5 -13.5t43.5 -3.5q111 0 223 91q28 23 44 -7z" />
    <glyph glyph-name="f.alt" 
d="M974 1474q104 0 197 -21t87 -50l-18 -94q-6 -29 -32 -23q-3 1 -21.5 6.5t-33.5 8.5t-39.5 7.5t-55 7t-65.5 2.5q-69 0 -123 -10.5t-103.5 -37t-81 -78t-42.5 -125.5l-12 -87h426q32 0 28 -32l-12 -91q-3 -28 -32 -28h-432l-115 -814q-14 -97 -45.5 -170t-71.5 -117
t-94 -71.5t-105.5 -37t-113.5 -9.5q-79 0 -138 25q-23 8 -20 36l12 92q5 30 36 21q55 -16 102 -16q42 0 78.5 10.5t75.5 37.5t67.5 82.5t39.5 135.5l112 795h-256q-31 0 -28 32l12 91q3 28 32 28h261l15 108q54 386 509 386z" />
    <glyph glyph-name="s.ss01" 
d="M862 976q104 -112 169 -220.5t87 -198t16.5 -171t-38.5 -145.5t-82.5 -115.5t-112 -85.5t-129.5 -52t-133 -18q-250 0 -418 161l-104 -133q-19 -23 -43 -2l-77 69q-21 20 -3 43l687 870q14 17 36 17h108q19 0 37 -19zM630 130q68 0 130 25.5t109.5 70t70 109.5t16.5 139
t-56 164.5t-143 180.5l-437 -560q63 -59 133 -94t177 -35z" />
    <glyph glyph-name="sacute.ss01" 
d="M627 1090q-18 0 -23.5 10.5t3.5 25.5l159 254q11 20 36 20h94q18 0 23.5 -10.5t-3.5 -25.5l-158 -254q-11 -20 -36 -20h-95zM862 976q104 -112 169 -220.5t87 -198t16.5 -171t-38.5 -145.5t-82.5 -115.5t-112 -85.5t-129.5 -52t-133 -18q-250 0 -418 161l-104 -133
q-19 -23 -43 -2l-77 69q-21 20 -3 43l687 870q14 17 36 17h108q19 0 37 -19zM630 130q68 0 130 25.5t109.5 70t70 109.5t16.5 139t-56 164.5t-143 180.5l-437 -560q63 -59 133 -94t177 -35z" />
    <glyph glyph-name="scaron.ss01" 
d="M554 1147l-193 253q-12 15 -6 25.5t24 10.5h134q21 0 36 -18l141 -170l193 174q14 14 38 14h130q20 0 25 -10.5t-9 -25.5l-265 -257q-14 -14 -38 -14h-174q-23 0 -36 18zM862 976q104 -112 169 -220.5t87 -198t16.5 -171t-38.5 -145.5t-82.5 -115.5t-112 -85.5
t-129.5 -52t-133 -18q-250 0 -418 161l-104 -133q-19 -23 -43 -2l-77 69q-21 20 -3 43l687 870q14 17 36 17h108q19 0 37 -19zM630 130q68 0 130 25.5t109.5 70t70 109.5t16.5 139t-56 164.5t-143 180.5l-437 -560q63 -59 133 -94t177 -35z" />
    <glyph glyph-name="scedilla.ss01" 
d="M639 -30q-33 0 -65 3l-48 -48q69 -6 117.5 -48t48.5 -109q0 -80 -48.5 -129.5t-118 -63t-148.5 -0.5q-18 3 -18 22v65q0 10 6 15.5t16 4.5q82 -11 128.5 9.5t46.5 65.5q0 42 -51 60.5t-122 -8.5q-11 -4 -17.5 -0.5t-6.5 14.5v64q0 14 10 24l82 85q-131 40 -230 135
l-104 -133q-19 -23 -43 -2l-77 69q-21 20 -3 43l687 870q14 17 36 17h108q19 0 37 -19q104 -112 169 -220.5t87 -198t16.5 -171t-38.5 -145.5t-82.5 -115.5t-112 -85.5t-129.5 -52t-133 -18zM757 819l-437 -560q63 -59 133 -94t177 -35q68 0 130 25.5t109.5 70t70 109.5
t16.5 139t-56 164.5t-143 180.5z" />
    <glyph glyph-name="scommaaccent.ss01" 
d="M862 976q104 -112 169 -220.5t87 -198t16.5 -171t-38.5 -145.5t-82.5 -115.5t-112 -85.5t-129.5 -52t-133 -18q-250 0 -418 161l-104 -133q-19 -23 -43 -2l-77 69q-21 20 -3 43l687 870q14 17 36 17h108q19 0 37 -19zM630 130q68 0 130 25.5t109.5 70t70 109.5t16.5 139
t-56 164.5t-143 180.5l-437 -560q63 -59 133 -94t177 -35zM661 -167q30 0 25 -30l-6 -49q-40 -280 -124 -425q-13 -22 -44 -22h-57q-15 0 -21.5 11t-0.5 29q27 74 49 170.5t26 169.5h-238q-30 0 -26 30l13 90q5 26 30 26h374z" />
    <glyph glyph-name="zero.dnom" 
d="M677 992q268 0 373.5 -114t70.5 -365l-10 -69q-35 -251 -166.5 -360.5t-393.5 -109.5q-268 0 -373.5 114.5t-70.5 365.5l10 69q35 251 166 360t394 109zM671 829q-99 0 -170 -20.5t-115.5 -62t-68.5 -95t-35 -126.5l-12 -93q-12 -70 -3.5 -125t39 -93t93 -57.5
t158.5 -19.5q192 0 280 77t109 228l13 93q11 70 2.5 125t-39 92.5t-93 57t-158.5 19.5z" />
    <glyph glyph-name="one.dnom" 
d="M985 151q31 0 28 -32l-13 -91q-4 -28 -32 -28h-839q-31 0 -28 32l13 91q3 28 32 28h366l93 644q-136 -113 -332 -123q-33 0 -30 32l10 104q3 28 27 29q173 7 345 143h150q31 0 28 -32l-112 -797h294z" />
    <glyph glyph-name="two.dnom" 
d="M982 147q31 0 28 -32l-13 -87q-3 -28 -32 -28l-843 -3q-31 0 -28 32l14 96q12 86 61.5 150.5t119 103t151.5 67t162.5 50t148 44t112.5 56.5t52 80q11 81 -46.5 118.5t-195.5 37.5q-280 0 -326 -181q-8 -28 -34 -24l-108 17q-30 3 -25 34q32 161 155 236.5t337 75.5
q220 0 328 -85t86 -241q-10 -71 -56 -124.5t-112 -85.5t-144 -57.5t-155.5 -47t-142.5 -46.5t-109 -64t-52 -92h667z" />
    <glyph glyph-name="three.dnom" 
d="M861 491q55 -12 95.5 -29.5t73 -45.5t45.5 -71.5t5 -101.5q-10 -76 -52.5 -129t-115 -83.5t-161.5 -43.5t-206 -13q-235 0 -348 64t-101 224q3 29 32 29l116 3q29 0 29 -30q1 -79 66 -106.5t210 -27.5q77 0 134 6t106.5 21t77.5 44.5t34 72.5q12 83 -70.5 114t-301.5 33
q-34 0 -31 32l7 69q3 28 32 28q139 2 226.5 21t127 51.5t46.5 81.5q10 71 -59 101.5t-209 30.5q-136 0 -215.5 -38.5t-103.5 -131.5q-9 -28 -36 -24l-113 17q-29 5 -25 34q17 82 58 140.5t106.5 92.5t146.5 49t186 15q228 0 342.5 -69.5t94.5 -209.5q-12 -84 -79 -139.5
t-170 -80.5z" />
    <glyph glyph-name="four.dnom" 
d="M957 504h139q32 0 28 -32l-15 -93q-3 -28 -32 -28h-141l-44 -323q-3 -28 -32 -28h-120q-31 0 -28 32l44 319h-629q-31 0 -28 32l80 569q3 28 32 28h120q31 0 28 -32l-62 -444h480l63 448q3 28 32 28h120q31 0 28 -32z" />
    <glyph glyph-name="five.dnom" 
d="M668 689q228 0 337.5 -90.5t84.5 -265.5q-23 -166 -160 -252.5t-381 -86.5q-217 0 -326.5 69.5t-105.5 222.5q3 25 27 25h106q22 0 29 -36q14 -74 83 -102.5t207 -28.5q160 0 253.5 52t108.5 156q14 102 -58 149.5t-215 47.5q-202 0 -326 -88q-27 -19 -54 -7l-87 34
q-29 11 -17 39l183 431q8 22 34 22h645q31 0 28 -32l-13 -87q-3 -28 -32 -28h-555l-87 -200q98 56 291 56z" />
    <glyph glyph-name="six.dnom" 
d="M647 588q231 0 345 -74t92 -233q-45 -307 -522 -307q-244 0 -358 83.5t-90 259.5l41 296q28 200 162 289.5t378 89.5q196 0 309.5 -68.5t110.5 -191.5q0 -28 -30 -28l-108 -2q-24 0 -32 28q-27 116 -257 116q-57 0 -103.5 -6t-92 -22t-78 -42t-56 -69t-31.5 -100
l-17 -110q40 47 137.5 69t199.5 22zM566 127q159 0 246 38.5t101 136.5q6 46 -10.5 76t-58 45t-91 20t-125.5 5q-145 0 -239 -37.5t-105 -117.5q-13 -94 59.5 -130t222.5 -36z" />
    <glyph glyph-name="seven.dnom" 
d="M232 823q-32 0 -28 32l13 97q3 28 32 28h884q32 0 28 -32l-15 -113q-2 -19 -16 -36l-688 -783q-13 -16 -36 -16h-135q-19 0 -24 11t8 25l698 787h-721z" />
    <glyph glyph-name="eight.dnom" 
d="M894 540q108 -38 155 -104t32 -170q-39 -292 -530 -292q-248 0 -366 78t-95 238q13 95 76 155.5t185 99.5q-69 17 -104 74t-26 126q17 118 131 181.5t325 63.5q217 0 318 -69.5t83 -194.5q-9 -65 -55.5 -115.5t-128.5 -70.5zM381 712q-8 -57 49 -82.5t195 -25.5
q144 0 212 29t76 90q9 62 -46.5 88.5t-194.5 26.5q-147 0 -214.5 -30t-76.5 -96zM560 133q166 0 252.5 35.5t98.5 122.5q12 88 -64 126t-230 38q-162 0 -252 -41t-103 -134q-11 -81 63.5 -114t234.5 -33z" />
    <glyph glyph-name="nine.dnom" 
d="M577 378q-231 0 -345 74t-91 233q43 307 522 307q244 0 358 -83.5t90 -259.5l-41 -296q-29 -200 -163 -289.5t-379 -89.5q-195 0 -308 68.5t-111 191.5q0 28 30 28l108 2q24 0 32 -28q28 -116 257 -116q57 0 103.5 6t92 22t78 42t56 69t31.5 100l18 110q-40 -47 -138 -69
t-200 -22zM659 839q-160 0 -247.5 -38.5t-101.5 -136.5q-5 -37 6 -63.5t33.5 -42.5t62 -25t82 -12t102.5 -3q145 0 239 37.5t105 117.5q13 94 -59 130t-222 36z" />
    <glyph glyph-name="zero.numr" 
d="M706 1201q268 0 373.5 -114t70.5 -365l-10 -69q-35 -251 -166.5 -360.5t-393.5 -109.5q-268 0 -373.5 114.5t-70.5 365.5l10 69q35 251 166 360t394 109zM700 1038q-99 0 -170 -20.5t-115.5 -62t-68.5 -95t-35 -126.5l-12 -93q-12 -71 -3.5 -125.5t39 -92.5t93 -57.5
t158.5 -19.5q192 0 280 77t109 228l13 93q11 70 2.5 125t-39 92.5t-93 57t-158.5 19.5z" />
    <glyph glyph-name="one.numr" 
d="M1015 361q31 0 28 -32l-13 -91q-4 -28 -32 -28h-839q-31 0 -28 32l13 91q3 28 32 28h366l93 644q-136 -113 -332 -123q-33 0 -30 32l10 104q3 28 27 29q173 7 345 143h150q31 0 28 -32l-112 -797h294z" />
    <glyph glyph-name="two.numr" 
d="M1012 357q31 0 28 -32l-13 -87q-3 -28 -32 -28l-843 -3q-31 0 -28 32l14 96q12 86 61.5 150.5t119 103t151.5 67t162.5 50t148 44t112.5 56.5t52 80q11 81 -46.5 118.5t-195.5 37.5q-280 0 -326 -181q-8 -28 -34 -24l-108 17q-30 3 -25 34q32 161 155 236.5t337 75.5
q220 0 328 -85t86 -241q-10 -71 -56 -124.5t-112 -85.5t-144 -57.5t-155.5 -47t-142.5 -46.5t-109 -64t-52 -92h667z" />
    <glyph glyph-name="three.numr" 
d="M891 701q55 -12 95.5 -29.5t73 -45.5t45.5 -71.5t5 -101.5q-10 -76 -52.5 -129t-115 -83.5t-161.5 -43.5t-206 -13q-235 0 -348 64t-101 224q3 29 32 29l116 3q29 0 29 -30q1 -79 66 -106.5t210 -27.5q77 0 134 6t106.5 21t77.5 44.5t34 72.5q12 83 -70.5 114t-301.5 33
q-34 0 -31 32l7 69q3 28 32 28q139 2 226.5 21t127 51.5t46.5 81.5q10 71 -59 101.5t-209 30.5q-136 0 -215.5 -38.5t-103.5 -131.5q-9 -28 -36 -24l-113 17q-29 5 -25 34q17 82 58 140.5t106.5 92.5t146.5 49t186 15q228 0 342.5 -69.5t94.5 -209.5q-12 -84 -79 -139.5
t-170 -80.5z" />
    <glyph glyph-name="four.numr" 
d="M987 714h139q32 0 28 -32l-15 -93q-3 -28 -32 -28h-141l-44 -323q-3 -28 -32 -28h-120q-31 0 -28 32l44 319h-629q-31 0 -28 32l80 569q3 28 32 28h120q31 0 28 -32l-62 -444h480l63 448q3 28 32 28h120q31 0 28 -32z" />
    <glyph glyph-name="five.numr" 
d="M698 899q228 0 337.5 -90.5t84.5 -265.5q-23 -166 -160 -252.5t-381 -86.5q-217 0 -326.5 69.5t-105.5 222.5q3 25 27 25h106q22 0 29 -36q14 -74 83 -102.5t207 -28.5q160 0 253.5 52t108.5 156q14 102 -58 149.5t-215 47.5q-202 0 -326 -88q-27 -19 -54 -7l-87 34
q-29 11 -17 39l183 431q8 22 34 22h645q31 0 28 -32l-13 -87q-3 -28 -32 -28h-555l-87 -200q98 56 291 56z" />
    <glyph glyph-name="six.numr" 
d="M676 797q231 0 345 -74t92 -233q-45 -307 -522 -307q-244 0 -358 83.5t-90 259.5l41 296q28 200 162 289.5t378 89.5q196 0 309.5 -68.5t110.5 -191.5q0 -28 -30 -28l-108 -2q-24 0 -32 28q-27 116 -257 116q-57 0 -103.5 -6t-92 -22t-78 -42t-56 -69t-31.5 -100
l-17 -110q40 47 137.5 69t199.5 22zM595 336q159 0 246 38.5t101 136.5q6 46 -10.5 76t-58 45t-91 20t-125.5 5q-145 0 -239 -37.5t-105 -117.5q-5 -39 5 -68t33 -47.5t60.5 -30t81.5 -16t102 -4.5z" />
    <glyph glyph-name="seven.numr" 
d="M262 1033q-32 0 -28 32l13 97q3 28 32 28h884q32 0 28 -32l-15 -113q-2 -19 -16 -36l-688 -783q-13 -16 -36 -16h-135q-19 0 -24 11t8 25l698 787h-721z" />
    <glyph glyph-name="eight.numr" 
d="M924 750q108 -38 155 -104t32 -170q-39 -292 -530 -292q-248 0 -366 78t-95 238q13 95 76 155.5t185 99.5q-69 17 -104 74t-26 126q17 118 131 181.5t325 63.5q217 0 318 -69.5t83 -194.5q-9 -65 -55.5 -115.5t-128.5 -70.5zM411 922q-8 -57 49 -82.5t195 -25.5
q144 0 212 29t76 90q9 62 -46.5 88.5t-194.5 26.5q-147 0 -214.5 -30t-76.5 -96zM590 343q166 0 252.5 35.5t98.5 122.5q12 88 -64 126t-230 38q-162 0 -252 -41t-103 -134q-11 -81 63.5 -114t234.5 -33z" />
    <glyph glyph-name="nine.numr" 
d="M606 587q-231 0 -345 74t-91 233q43 307 522 307q244 0 358 -83.5t90 -259.5l-41 -296q-29 -200 -163 -289.5t-379 -89.5q-195 0 -308 68.5t-111 191.5q0 28 30 28l108 2q24 0 32 -28q28 -116 257 -116q57 0 103.5 6t92 22t78 42t56 69t31.5 100l18 110q-40 -47 -138 -69
t-200 -22zM688 1048q-160 0 -247.5 -38.5t-101.5 -136.5q-5 -37 6 -63.5t33.5 -42.5t62 -25t82 -12t102.5 -3q145 0 239 37.5t105 117.5q13 94 -59 130t-222 36z" />
    <glyph glyph-name="section.ss01" 
d="M747 1600q198 0 304 -69t106 -232q0 -20 -26 -20h-116q-28 0 -28 33q-1 76 -64 106t-179 30q-119 0 -190.5 -33t-79.5 -96q-8 -68 48.5 -97t181.5 -43q187 -21 264 -48q158 -55 158 -196q0 -19 -3 -40q-20 -150 -165 -222q70 -72 82 -204q1 -11 -5.5 -15.5t-20.5 -4.5
h-116q-28 0 -28 32q0 76 -63.5 106t-178.5 30q-120 0 -190 -32.5t-79 -96.5q-10 -68 46 -96.5t182 -42.5q72 -8 109.5 -13.5t99.5 -18.5t94.5 -32t67 -48t45.5 -72.5t3 -99.5q-18 -131 -132.5 -205t-328.5 -74q-210 0 -319.5 69t-117.5 233q0 20 26 20h115q28 0 28 -32
q1 -77 70.5 -107t200.5 -30q265 0 285 146q5 34 -8.5 56.5t-46.5 34.5t-70 18.5t-94 13.5q-5 0 -7.5 0.5t-6.5 1l-8 1t-7 0.5q-62 7 -106.5 15t-98 22t-88.5 35t-64.5 51t-40.5 74t-3 99q17 124 134 193q-93 74 -93 219q0 20 26 20h115q28 0 28 -33q1 -77 70.5 -106.5
t200.5 -29.5q264 0 285 146q5 34 -6.5 56t-50.5 35t-65 17.5t-95 12.5q-21 3 -32 4q-53 6 -91.5 12t-85.5 17.5t-80 25.5t-65 36.5t-50 50.5t-26.5 67t-1.5 87q17 120 129.5 191.5t316.5 71.5z" />
    </font>
</defs>
</svg>
