<?xml version="1.0" standalone="no"?>
<!DOCTYPE svg PUBLIC "-//W3C//DTD SVG 1.1//EN" "http://www.w3.org/Graphics/SVG/1.1/DTD/svg11.dtd" >
<svg xmlns="http://www.w3.org/2000/svg" xmlns:xlink="http://www.w3.org/1999/xlink" version="1.1">
<metadata>
Created by FontForge 20170731 at Sat Sep 24 15:59:42 2016
 By Aleksey,,,
(c) 2016 Connary Fagen
</metadata>
<defs>
<font id="CartographMonoCF-Thin" horiz-adv-x="1230" >
  <font-face 
    font-family="Cartograph Mono CF Thin"
    font-weight="250"
    font-stretch="normal"
    units-per-em="2000"
    panose-1="0 0 3 9 0 0 0 0 0 0"
    ascent="1600"
    descent="-400"
    x-height="980"
    cap-height="1400"
    bbox="-813 -645 1428.5 1864"
    underline-thickness="50"
    underline-position="-200"
    unicode-range="U+0020-25CA"
  />
<missing-glyph horiz-adv-x="990" 
d="M812 1600v-1980h-628v1980h628zM659 1467h-326v-65h128v-73h-130v-66h328v66h-130v73h130v65zM529 1212h-198v-206h328v67h-130v139zM461 1145v-72h-65v72h65zM659 953h-328v-66h130v-73h-130v-65h198v138h130v66zM659 834h-65v-131h-263v-67h328v198zM659 592h-198v-111
h68v46h65v-93h-198v158h-65v-224h328v224zM659 250h-328v-224h328v224zM594 184v-93h-198v93h198zM659 -20h-328v-65h138l-138 -93v-65h328v65h-202l139 93h63v65z" />
    <glyph glyph-name=".notdef" horiz-adv-x="990" 
d="M812 1600v-1980h-628v1980h628zM659 1467h-326v-65h128v-73h-130v-66h328v66h-130v73h130v65zM529 1212h-198v-206h328v67h-130v139zM461 1145v-72h-65v72h65zM659 953h-328v-66h130v-73h-130v-65h198v138h130v66zM659 834h-65v-131h-263v-67h328v198zM659 592h-198v-111
h68v46h65v-93h-198v158h-65v-224h328v224zM659 250h-328v-224h328v224zM594 184v-93h-198v93h198zM659 -20h-328v-65h138l-138 -93v-65h328v65h-202l139 93h63v65z" />
    <glyph glyph-name=".null" horiz-adv-x="0" 
 />
    <glyph glyph-name="nonmarkingreturn" horiz-adv-x="666" 
 />
    <glyph glyph-name="space" unicode=" " 
 />
    <glyph glyph-name="exclam" unicode="!" 
d="M691 1345l-39 -965q-3 -29 -30 -29h-15q-27 0 -30 29l-38 965q0 29 20 50t56 21t56 -21t20 -50zM615 -26q-42 0 -69.5 27.5t-27.5 69.5t27.5 70.5t69.5 28.5t69.5 -28.5t27.5 -70.5t-27.5 -69.5t-69.5 -27.5z" />
    <glyph glyph-name="quotedbl" unicode="&#x22;" 
d="M481 1400q28 0 30 -30l-8 -376q1 -13 -7.5 -21.5t-22.5 -8.5h-24q-14 0 -22.5 8.5t-7.5 21.5l-8 376q2 30 30 30h40zM789 1400q28 0 30 -30l-8 -376q1 -13 -7.5 -21.5t-22.5 -8.5h-24q-14 0 -22.5 8.5t-7.5 21.5l-8 376q2 30 30 30h40z" />
    <glyph glyph-name="numbersign" unicode="#" 
d="M993 1015h-144v-470h144q14 0 26 -8.5t12 -21.5v-39q0 -13 -12 -21.5t-26 -8.5h-144v-256q0 -14 -8.5 -22t-21.5 -8h-42q-13 0 -21.5 8t-8.5 22v256h-272v-256q0 -14 -8.5 -22t-21.5 -8h-42q-13 0 -21.5 8t-8.5 22v256h-144q-13 0 -21.5 8t-8.5 22v39q0 13 8.5 21.5
t21.5 8.5h144v470h-144q-13 0 -21.5 8.5t-8.5 21.5v39q0 14 8.5 22t21.5 8h144v256q0 14 8.5 22t21.5 8h42q13 0 21.5 -8t8.5 -22v-256h272v256q0 14 8.5 22t21.5 8h42q13 0 21.5 -8t8.5 -22v-256h144q14 0 26 -8.5t12 -21.5v-39q0 -13 -12 -21.5t-26 -8.5zM747 545v470
h-272v-470h272z" />
    <glyph glyph-name="dollar" unicode="$" 
d="M1113 368q0 -139 -109.5 -234t-336.5 -106v-186q0 -22 -30 -22h-45q-30 0 -30 22v186q-191 9 -302 77.5t-138 190.5q-6 32 27 32h42q25 0 32 -27q20 -72 110 -119t229 -55v540q-72 19 -128 39t-110 51.5t-89 69t-56.5 91.5t-21.5 119q0 138 97.5 223.5t307.5 93.5v196
q0 14 8 22t22 8h45q13 0 21.5 -8t8.5 -22v-197q167 -12 274 -81.5t132 -186.5q4 -15 -4.5 -23.5t-23.5 -8.5h-45q-24 0 -32 27q-21 69 -102.5 116.5t-198.5 59.5v-509q79 -18 139.5 -37t120.5 -50.5t99 -70t63 -95t24 -126.5zM256 1039q0 -106 80 -169t226 -100v488
q-150 -6 -228 -62.5t-78 -156.5zM667 126q167 8 254.5 70t87.5 172q0 41 -9.5 74t-23 56.5t-41 44t-50.5 33.5t-65 26t-71 20.5t-82 19.5v-516z" />
    <glyph glyph-name="percent" unicode="%" 
d="M337 1410q114 0 170 -72t56 -194t-56 -195t-170 -73q-112 0 -168 73t-56 195q0 121 56 193.5t168 72.5zM337 1314q-73 0 -102.5 -45t-29.5 -125q0 -82 29.5 -127t102.5 -45q75 0 104.5 45t29.5 127q0 80 -30 125t-104 45zM1003 1176q24 -22 6 -42l-711 -929
q-22 -24 -42 -6l-30 27q-24 22 -6 42l711 929q21 27 42 6zM891 524q114 0 170 -72t56 -194t-56 -195t-170 -73q-112 0 -168 73t-56 195q0 121 56 193.5t168 72.5zM891 428q-73 0 -102.5 -45t-29.5 -125q0 -82 29.5 -127t102.5 -45q75 0 104.5 45t29.5 127q0 80 -30 125
t-104 45z" />
    <glyph glyph-name="ampersand" unicode="&#x26;" 
d="M1148 72q17 -21 -3 -41l-29 -26q-23 -23 -41 1l-141 174q-96 -92 -199.5 -145t-239.5 -53q-184 0 -293.5 96.5t-109.5 262.5q0 57 20.5 113t48.5 98t79 91.5t88.5 80t99.5 77.5q-45 53 -71 87t-57 81.5t-46 90.5t-15 84q0 119 75 195.5t215 76.5q139 0 219 -76.5
t80 -190.5q0 -50 -20 -98.5t-60 -95t-80 -83t-100 -84.5l372 -459q12 13 32.5 38t29.5 35q17 22 38 1l35 -36q19 -19 0 -40l-72 -76zM343 1146q0 -41 27 -93.5t47 -79t75 -91.5q11 -14 16 -20q69 53 111 93t73.5 92.5t31.5 103.5q0 85 -54 126.5t-141 41.5q-83 0 -134.5 -42
t-51.5 -131zM490 82q118 0 209.5 46.5t172.5 126.5l-381 469l-2 2q-69 -54 -111 -90.5t-89.5 -88.5t-70 -104t-22.5 -107q0 -114 85 -184t209 -70z" />
    <glyph glyph-name="quotesingle" unicode="'" 
d="M635 1400q28 0 30 -30l-8 -376q1 -13 -7.5 -21.5t-22.5 -8.5h-24q-14 0 -22.5 8.5t-7.5 21.5l-8 376q2 30 30 30h40z" />
    <glyph glyph-name="parenleft" unicode="(" 
d="M927 1386q-95 0 -169 -17t-128.5 -47.5t-93 -82t-62.5 -110.5t-38 -143t-19 -169.5t-5 -200.5t5 -201.5t19 -170.5t38 -143t62.5 -110.5t93 -82t128.5 -47.5t169 -17v-104q-91 0 -167 13.5t-135 38t-106 63t-80.5 83t-58 104.5t-39 120.5t-23.5 138.5t-12 151t-3 164
q0 118 5.5 208t21.5 185t44 163.5t75 131.5t112 102t157 61.5t209 22.5v-104z" />
    <glyph glyph-name="parenright" unicode=")" 
d="M303 1386v104q117 0 209 -22.5t157 -61.5t112 -102t75 -131.5t44 -163.5t21.5 -185t5.5 -208q0 -91 -3 -164t-12 -151t-23.5 -138.5t-39 -120.5t-58 -104.5t-80.5 -83t-106 -63t-135 -38t-167 -13.5v104q95 0 169 17t128.5 47.5t93 82t62.5 110.5t38 143t19 170.5
t5 201.5t-5 200.5t-19 169.5t-38 143t-62.5 110.5t-93 82t-128.5 47.5t-169 17z" />
    <glyph glyph-name="asterisk" unicode="*" 
d="M611 1400h6h-3h-3zM841 1222q27 8 36 -15q2 -22 -20 -29l-216 -57l135 -178q17 -23 -9 -42l10 4q-24 -19 -40 8l-122 177l-122 -177q-16 -27 -40 -8l10 -4q-25 20 -9 42l135 178l-216 57q-22 7 -20 29q9 23 36 15l204 -64l-6 212q0 28 27 30q27 -2 27 -30l-4 -212z
M354 1213v1v-1zM876 1213v1v-1zM351 1202l3 11q-1 -2 -1 -6zM876 1213l3 -11l-2 5q0 4 -1 6zM351 1202v-2v2zM879 1202v-2v2z" />
    <glyph glyph-name="plus" unicode="+" 
d="M955 617q13 0 21.5 -8.5t8.5 -21.5v-39q0 -14 -8.5 -22t-21.5 -8h-290v-291q0 -13 -8.5 -21.5t-21.5 -8.5h-40q-13 0 -21.5 8.5t-8.5 21.5v291h-290q-13 0 -21.5 8t-8.5 22v39q0 13 8.5 21.5t21.5 8.5h290v290q0 13 8.5 21.5t21.5 8.5h40q13 0 21.5 -8.5t8.5 -21.5v-290
h290z" />
    <glyph glyph-name="comma" unicode="," 
d="M768 97q14 0 22 -8.5t8 -21.5v-12q0 -112 -19 -235.5t-47 -198.5q-9 -25 -37 -25h-14q-32 0 -26 35q13 75 22 184.5t7 184.5h-242q-14 0 -22 8t-8 22v37q0 13 8 21.5t22 8.5h326z" />
    <glyph glyph-name="hyphen" unicode="-" 
d="M1085 616q13 0 21.5 -8t8.5 -22v-34q0 -14 -8.5 -22t-21.5 -8h-940q-13 0 -21.5 8t-8.5 22v34q0 14 8.5 22t21.5 8h940z" />
    <glyph glyph-name="period" unicode="." 
d="M615 -26q-42 0 -69.5 27.5t-27.5 69.5t27.5 70.5t69.5 28.5t69.5 -28.5t27.5 -70.5t-27.5 -69.5t-69.5 -27.5z" />
    <glyph glyph-name="slash" unicode="/" 
d="M1020 1400q17 0 23 -11t-2 -26l-758 -1599q-13 -24 -36 -24h-34q-17 0 -24 9t0 25l758 1605q12 21 33 21h40z" />
    <glyph glyph-name="zero" unicode="0" 
d="M615 1420q128 0 213.5 -28.5t148.5 -102t91.5 -204.5t28.5 -332v-117q0 -161 -19.5 -276.5t-56 -191t-97 -119.5t-134 -61.5t-175.5 -17.5t-175.5 17.5t-134 61.5t-97 119.5t-56 191t-19.5 276.5v117q0 201 28.5 332t91.5 204.5t148.5 102t213.5 28.5zM615 1318
q-82 0 -136 -11t-103 -45t-76.5 -96t-43 -163.5t-15.5 -248.5v-118q0 -147 15.5 -248.5t43 -163.5t76.5 -96t103 -45t136 -11t136 11t103 45t76.5 96t43 163.5t15.5 248.5v118q0 147 -15.5 248.5t-43 163.5t-76.5 96t-103 45t-136 11zM492 436q-17 0 -24 9t0 25l188 460
q9 24 36 24h48q17 0 24 -9t0 -25l-188 -460q-9 -24 -36 -24h-48z" />
    <glyph glyph-name="one" unicode="1" 
d="M1031 91q13 0 21.5 -8.5t8.5 -21.5v-31q0 -14 -8.5 -22t-21.5 -8h-832q-13 0 -21.5 8t-8.5 22v31q0 13 8.5 21.5t21.5 8.5h392v1196q-83 -75 -170.5 -109t-163.5 -34q-30 0 -30 31v37q0 29 30 29q71 0 158.5 40.5t175.5 118.5h72q13 0 21.5 -8t8.5 -22v-1279h338z" />
    <glyph glyph-name="two" unicode="2" 
d="M1010 105q14 0 22 -8.5t8 -21.5v-45q0 -14 -8 -22t-22 -8h-791q-13 0 -21.5 8t-8.5 22v85q0 103 26 188t70 143.5t101 106.5t120.5 83.5t126.5 68t120 66t101 71.5t70 91t26 118q0 121 -79.5 196.5t-243.5 75.5q-177 0 -261 -69t-84 -194q0 -31 -29 -28l-41 2
q-31 3 -31 32q0 174 111.5 262t324.5 88q115 0 199.5 -27.5t133.5 -78.5t72 -115.5t23 -145.5q0 -79 -26 -142t-69.5 -107t-100 -81t-119 -69t-125 -65.5t-119 -77t-100 -97t-69.5 -131.5t-26 -174h719z" />
    <glyph glyph-name="three" unicode="3" 
d="M784 755q59 -16 112 -46.5t96.5 -75.5t69.5 -109t26 -138q0 -189 -132 -300.5t-349 -111.5q-224 0 -342 96t-118 256q0 29 31 32l40 3q29 3 29 -28q-5 -109 87 -188t268 -79q175 0 284.5 89t109.5 229q0 152 -127 238t-334 86q-30 0 -30 30v31q0 14 7.5 23.5t21.5 9.5
q193 0 298 77.5t105 198.5q0 111 -89.5 180t-244.5 69q-162 0 -249 -79.5t-82 -187.5q1 -15 -7 -22.5t-22 -5.5l-40 2q-31 3 -31 32q0 157 115 253.5t316 96.5q197 0 312.5 -96t115.5 -246q0 -115 -71 -198.5t-176 -120.5z" />
    <glyph glyph-name="four" unicode="4" 
d="M1069 489q13 0 21.5 -8.5t8.5 -21.5v-34q0 -13 -8.5 -21.5t-21.5 -8.5h-141v-365q0 -14 -8 -22t-22 -8h-42q-14 0 -22 8t-8 22v365h-655q-13 0 -21.5 8.5t-8.5 21.5v44q0 22 10 38l663 873q14 20 36 20h48q14 0 22 -8t8 -22v-881h141zM826 489v744l-571 -744h571z" />
    <glyph glyph-name="five" unicode="5" 
d="M233 362q23 0 29 -28q29 -130 114 -197t242 -67q174 0 276 91.5t102 276.5q0 184 -100 276t-263 92q-111 0 -194.5 -29.5t-165.5 -111.5q-21 -21 -40 -9l-28 21q-25 15 -20 39l122 658q2 26 32 26h614q13 0 21.5 -8t8.5 -22v-36q0 -14 -8.5 -22t-21.5 -8h-564l-87 -491
q126 90 328 90q210 0 336.5 -123.5t126.5 -341.5q0 -219 -128.5 -341.5t-347.5 -122.5q-200 0 -317 92.5t-134 263.5q-3 32 28 32h39z" />
    <glyph glyph-name="six" unicode="6" 
d="M631 833q207 0 334.5 -110t127.5 -309q0 -211 -128.5 -326t-339.5 -115q-214 0 -342 120t-127 351l1 482q1 259 121 374.5t355 115.5q186 0 310 -92t124 -254q0 -28 -30 -31l-34 -7q-14 -2 -22.5 7t-8.5 24q-7 122 -94 192.5t-244 70.5q-62 0 -112 -8t-102 -33
t-86.5 -67.5t-57 -115.5t-22.5 -172v-272q40 81 151 128t226 47zM625 69q168 0 269.5 87t101.5 258q0 160 -101.5 242.5t-269.5 82.5t-269.5 -82.5t-101.5 -242.5q0 -171 101.5 -258t269.5 -87z" />
    <glyph glyph-name="seven" unicode="7" 
d="M1066 1400q14 0 22 -8t8 -22v-46q0 -19 -8 -38l-601 -1257q-13 -29 -38 -29h-59q-14 0 -21 8t-1 21l621 1275h-795q-14 0 -22 8t-8 22v36q0 14 8 22t22 8h872z" />
    <glyph glyph-name="eight" unicode="8" 
d="M856 761q237 -104 237 -372q0 -201 -129 -310t-349 -109t-349 109t-129 310q0 268 237 372q-178 97 -178 318q0 159 110 250t309 91t309 -91t110 -250q0 -221 -178 -318zM291 1070q0 -129 83 -196.5t241 -67.5t241 67.5t83 196.5q0 130 -79 192.5t-245 62.5t-245 -62.5
t-79 -192.5zM615 66q177 0 279 83t102 241q0 157 -103.5 238t-277.5 81t-277.5 -81t-103.5 -238q0 -158 102 -241t279 -83z" />
    <glyph glyph-name="nine" unicode="9" 
d="M599 557q-207 0 -334.5 110t-127.5 309q0 211 128.5 326t339.5 115q214 0 342 -120t127 -351l-1 -482q-1 -259 -121 -374.5t-355 -115.5q-186 0 -310 92t-124 254q0 28 30 31l34 7q13 2 22 -7t9 -24q7 -122 94 -192.5t244 -70.5q62 0 112 8t102 33t86.5 67.5t57 115.5
t22.5 172v272q-40 -81 -151 -128t-226 -47zM605 1321q-168 0 -269.5 -87t-101.5 -258q0 -160 101.5 -242.5t269.5 -82.5t269.5 82.5t101.5 242.5q0 171 -101.5 258t-269.5 87z" />
    <glyph glyph-name="colon" unicode=":" 
d="M615 804q-42 0 -69.5 27.5t-27.5 69.5t27.5 70.5t69.5 28.5t69.5 -28.5t27.5 -70.5t-27.5 -69.5t-69.5 -27.5zM615 -26q-42 0 -69.5 27.5t-27.5 69.5t27.5 70.5t69.5 28.5t69.5 -28.5t27.5 -70.5t-27.5 -69.5t-69.5 -27.5z" />
    <glyph glyph-name="semicolon" unicode=";" 
d="M615 804q-42 0 -69.5 27.5t-27.5 69.5t27.5 70.5t69.5 28.5t69.5 -28.5t27.5 -70.5t-27.5 -69.5t-69.5 -27.5zM766 97q14 0 22 -8.5t8 -21.5v-12q0 -112 -19 -235.5t-47 -198.5q-9 -25 -37 -25h-14q-32 0 -26 35q13 75 22 184.5t7 184.5h-242q-14 0 -22 8t-8 22v37
q0 13 8 21.5t22 8.5h326z" />
    <glyph glyph-name="less" unicode="&#x3c;" 
d="M960 847q17 -25 -11 -39l-590 -310l590 -309q12 -6 15.5 -17.5t-4.5 -22.5l-30 -42q-15 -26 -40 -12l-605 326q-22 14 -22 37v80q0 23 22 37l605 326q25 14 40 -12z" />
    <glyph glyph-name="equal" unicode="=" 
d="M955 747q13 0 21.5 -8.5t8.5 -21.5v-39q0 -14 -8.5 -22t-21.5 -8h-680q-13 0 -21.5 8t-8.5 22v39q0 13 8.5 21.5t21.5 8.5h680zM955 490q13 0 21.5 -8t8.5 -22v-40q0 -14 -8.5 -22t-21.5 -8h-680q-13 0 -21.5 8t-8.5 22v40q0 14 8.5 22t21.5 8h680z" />
    <glyph glyph-name="greater" unicode="&#x3e;" 
d="M270 847l30 42q15 26 40 12l605 -326q22 -14 22 -37v-80q0 -23 -22 -37l-605 -326q-25 -14 -40 12l-30 42q-8 11 -4.5 22.5t15.5 17.5l590 309l-590 310q-28 14 -11 39z" />
    <glyph glyph-name="question" unicode="?" 
d="M528 306q-30 0 -30 32q2 93 19.5 165.5t45 118t62 79t72 54.5t75 39t71.5 38.5t59.5 47t41 69.5t15.5 102q0 122 -82 197t-255 75q-170 0 -260 -71t-85 -192q1 -15 -7 -22.5t-21 -5.5l-41 2q-31 3 -31 32q0 174 111.5 262t324.5 88q223 0 331.5 -102.5t108.5 -264.5
q0 -72 -15.5 -125.5t-41 -86t-59.5 -56.5t-71.5 -42t-75 -37t-72 -47.5t-62 -67.5t-45 -103t-19.5 -148q2 -30 -29 -30h-35zM552 -26q-42 0 -69.5 27.5t-27.5 69.5t27.5 70.5t69.5 28.5t69.5 -28.5t27.5 -70.5t-27.5 -69.5t-69.5 -27.5z" />
    <glyph glyph-name="at" unicode="@" 
d="M615 1058q114 0 211 -36.5t168 -104.5t111.5 -172t40.5 -232q0 -73 -13.5 -129.5t-34.5 -91.5t-50.5 -57.5t-59.5 -31.5t-63 -9q-47 0 -83 20.5t-52 60.5q-78 -81 -196 -81q-125 0 -203 83.5t-78 214.5q0 135 77.5 217.5t203.5 82.5q130 0 208 -95l31 72h66l-36 -394
q-8 -96 70 -96q59 0 86 50.5t27 183.5q0 121 -34.5 209.5t-95.5 138.5t-136 73.5t-165 23.5q-81 0 -155.5 -25t-138.5 -76.5t-102.5 -142.5t-38.5 -210q0 -117 38.5 -207.5t103 -142t139.5 -77t157 -25.5q136 0 220 44q24 15 42 -4l17 -26q21 -25 -4 -42q-108 -70 -278 -70
q-152 0 -273 62.5t-194 189t-73 298.5q0 130 42 236t115.5 175t171.5 106t211 37zM595 285q82 0 129 57.5t47 149.5q0 95 -47 154.5t-129 59.5q-87 0 -132.5 -58.5t-45.5 -155.5q0 -94 45.5 -150.5t132.5 -56.5z" />
    <glyph glyph-name="A" unicode="A" 
d="M1154 34q10 -34 -24 -34h-42q-27 0 -34 24l-102 313h-674l-102 -313q-7 -24 -34 -24h-42q-34 0 -24 34l437 1342q9 24 37 24h130q28 0 37 -24zM311 438h608l-277 854h-54z" />
    <glyph glyph-name="B" unicode="B" 
d="M823 761q274 -69 274 -379q0 -196 -112 -289t-352 -93h-460q-13 0 -21.5 8t-8.5 22v1340q0 14 8.5 22t21.5 8h468q90 0 159.5 -19.5t111.5 -51t69 -75.5t37 -87.5t10 -91.5q0 -247 -205 -314zM920 1074q0 114 -71.5 169t-216.5 55h-383v-496h383q141 0 214.5 73t73.5 199
zM621 102q194 0 279 61t85 213q0 73 -19.5 131t-61.5 103.5t-113.5 70t-169.5 24.5h-372v-603h372z" />
    <glyph glyph-name="C" unicode="C" 
d="M634 72q165 0 244.5 43t99.5 166q4 26 34 26h49q31 0 25 -35q-35 -168 -138 -235t-311 -67q-105 0 -180 17.5t-135.5 61.5t-97 120t-55.5 191.5t-19 276.5v116q0 161 19 276.5t55.5 191.5t97 120t135.5 61.5t180 17.5q208 0 311 -67t138 -235q6 -35 -25 -35h-49
q-30 0 -34 26q-20 124 -98.5 166.5t-245.5 42.5q-82 0 -135.5 -10.5t-103.5 -44t-78 -95t-44.5 -164t-16.5 -250.5v-118q0 -148 16.5 -250.5t44.5 -164t78 -95t103.5 -44t135.5 -10.5z" />
    <glyph glyph-name="D" unicode="D" 
d="M481 1400q150 0 259 -31t178.5 -86t111 -144.5t57.5 -193.5t16 -245t-16 -245t-57.5 -193.5t-111 -144.5t-178.5 -86t-259 -31h-298q-13 0 -21.5 8t-8.5 22v1340q0 14 8.5 22t21.5 8h298zM481 102q106 0 186 16.5t137 51.5t94 82.5t58.5 117.5t30 148t8.5 182t-8.5 182
t-30 148t-58.5 117.5t-94 82.5t-137 51.5t-186 16.5h-222v-1196h222z" />
    <glyph glyph-name="E" unicode="E" 
d="M1041 102q13 0 21.5 -8t8.5 -22v-42q0 -14 -8.5 -22t-21.5 -8h-842q-13 0 -21.5 8t-8.5 22v1340q0 14 8.5 22t21.5 8h840q13 0 21.5 -8t8.5 -22v-42q0 -14 -8.5 -22t-21.5 -8h-764v-502h708q13 0 21.5 -8t8.5 -22v-42q0 -14 -8.5 -22t-21.5 -8h-708v-592h766z" />
    <glyph glyph-name="F" unicode="F" 
d="M1065 1400q13 0 21.5 -8t8.5 -22v-42q0 -14 -8.5 -22t-21.5 -8h-804v-516h758q13 0 21.5 -8t8.5 -22v-42q0 -14 -8.5 -22t-21.5 -8h-758v-650q0 -14 -8.5 -22t-21.5 -8h-46q-13 0 -21.5 8t-8.5 22v1340q0 14 8.5 22t21.5 8h880z" />
    <glyph glyph-name="G" unicode="G" 
d="M1071 657q13 0 21.5 -8.5t8.5 -21.5v-83q0 -300 -115.5 -437.5t-367.5 -136.5q-133 0 -220 28.5t-150 102.5t-91 204.5t-28 331.5v116q0 161 19 276.5t55.5 191.5t97 120t135.5 61.5t180 17.5q208 0 311 -67t138 -235q6 -35 -25 -35h-49q-30 0 -34 26
q-20 124 -98.5 166.5t-245.5 42.5q-82 0 -135.5 -10.5t-103.5 -44t-78 -95t-44.5 -164t-16.5 -250.5v-118q0 -106 8.5 -188t23 -142t40 -101.5t54 -67.5t71 -40.5t85 -19.5t101.5 -5q140 0 221.5 42.5t122 146t40.5 283.5v11h-457q-13 0 -21.5 8.5t-8.5 21.5v42
q0 13 8.5 21.5t21.5 8.5h526z" />
    <glyph glyph-name="H" unicode="H" 
d="M1037 1400q13 0 21.5 -8t8.5 -22v-1340q0 -14 -8.5 -22t-21.5 -8h-46q-13 0 -21.5 8t-8.5 22v638h-692v-638q0 -14 -8.5 -22t-21.5 -8h-46q-13 0 -21.5 8t-8.5 22v1340q0 14 8.5 22t21.5 8h46q13 0 21.5 -8t8.5 -22v-600h692v600q0 14 8.5 22t21.5 8h46z" />
    <glyph glyph-name="I" unicode="I" 
d="M1065 1298h-397v-1196h397q13 0 21.5 -8t8.5 -22v-42q0 -14 -8.5 -22t-21.5 -8h-900q-13 0 -21.5 8t-8.5 22v42q0 14 8.5 22t21.5 8h397v1196h-397q-13 0 -21.5 8t-8.5 22v42q0 14 8.5 22t21.5 8h900q13 0 21.5 -8t8.5 -22v-42q0 -14 -8.5 -22t-21.5 -8z" />
    <glyph glyph-name="J" unicode="J" 
d="M1038 1400q14 0 22 -8t8 -22v-908q0 -236 -130.5 -364t-338.5 -128q-132 0 -236 50.5t-167.5 157t-63.5 254.5q0 30 30 30h46q28 0 30 -30q7 -169 107.5 -263.5t253.5 -94.5q160 0 261.5 101.5t101.5 286.5v836h-611q-13 0 -21.5 8t-8.5 22v42q0 14 8.5 22t21.5 8h687z
" />
    <glyph glyph-name="K" unicode="K" 
d="M1111 36q11 -15 5.5 -25.5t-23.5 -10.5h-62q-23 0 -36 18l-523 684l-209 -226v-446q0 -14 -8.5 -22t-21.5 -8h-46q-13 0 -21.5 8t-8.5 22v1340q0 14 8.5 22t21.5 8h46q13 0 21.5 -8t8.5 -22v-748l696 762q13 16 36 16h71q20 0 24.5 -11t-8.5 -25l-543 -589z" />
    <glyph glyph-name="L" unicode="L" 
d="M1046 102q14 0 22 -8t8 -22v-42q0 -14 -8 -22t-22 -8h-779h-6h-6h-46q-13 0 -21.5 8t-8.5 22v1340q0 14 8.5 22t21.5 8h46q13 0 21.5 -8t8.5 -22v-1268h761z" />
    <glyph glyph-name="M" unicode="M" 
d="M178 0q-14 0 -22 8t-8 22v1340q0 14 8 22t22 8h93q32 0 36 -20l304 -1278h8l304 1278q4 20 36 20h93q14 0 22 -8t8 -22v-1340q0 -14 -8 -22t-22 -8h-46q-14 0 -22 8t-8 22v1132h-11l-279 -1141q-7 -21 -33 -21h-76q-26 0 -33 21l-279 1141h-11v-1132q0 -14 -8 -22t-22 -8
h-46z" />
    <glyph glyph-name="N" unicode="N" 
d="M1047 1400q13 0 21.5 -8t8.5 -22v-1340q0 -14 -8.5 -22t-21.5 -8h-96q-25 0 -36 20l-656 1264v-1254q0 -14 -8.5 -22t-21.5 -8h-46q-13 0 -21.5 8t-8.5 22v1340q0 14 8.5 22t21.5 8h98q26 0 36 -20l654 -1259v1249q0 14 8.5 22t21.5 8h46z" />
    <glyph glyph-name="O" unicode="O" 
d="M615 1420q128 0 213.5 -28.5t148.5 -102t91.5 -204.5t28.5 -332v-117q0 -161 -19.5 -276.5t-56 -191t-97 -119.5t-134 -61.5t-175.5 -17.5t-175.5 17.5t-134 61.5t-97 119.5t-56 191t-19.5 276.5v117q0 201 28.5 332t91.5 204.5t148.5 102t213.5 28.5zM615 1318
q-68 0 -115.5 -7.5t-92.5 -29t-74 -60.5t-51.5 -101t-32.5 -152.5t-10 -213.5v-118q0 -123 10 -213.5t32.5 -152.5t51.5 -101t74 -60.5t92.5 -29t115.5 -7.5t115.5 7.5t92.5 29t74 60.5t51.5 101t32.5 152.5t10 213.5v118q0 123 -10 213.5t-32.5 152.5t-51.5 101t-74 60.5
t-92.5 29t-115.5 7.5z" />
    <glyph glyph-name="P" unicode="P" 
d="M659 1400q122 0 204.5 -25.5t131 -80t68.5 -130t20 -184.5t-20 -184.5t-68.5 -130t-131 -80t-204.5 -25.5h-376v-530q0 -14 -8.5 -22t-21.5 -8h-46q-13 0 -21.5 8t-8.5 22v1340q0 14 8.5 22t21.5 8h452zM659 662q74 0 121 6.5t88 25t63 54t34 92t12 140.5t-12 140.5
t-34 92t-63 54t-88 25t-121 6.5h-376v-636h376z" />
    <glyph glyph-name="Q" unicode="Q" 
d="M615 1420q128 0 213.5 -28.5t148.5 -102t91.5 -204.5t28.5 -332v-117q0 -161 -19.5 -276.5t-56 -191t-97 -119.5t-134 -61.5t-175.5 -17.5t-175.5 17.5t-134 61.5t-97 119.5t-56 191t-19.5 276.5v117q0 201 28.5 332t91.5 204.5t148.5 102t213.5 28.5zM615 1318
q-68 0 -115.5 -7.5t-92.5 -29t-74 -60.5t-51.5 -101t-32.5 -152.5t-10 -213.5v-118q0 -123 10 -213.5t32.5 -152.5t51.5 -101t74 -60.5t92.5 -29t115.5 -7.5t115.5 7.5t92.5 29t74 60.5t51.5 101t32.5 152.5t10 213.5v118q0 123 -10 213.5t-32.5 152.5t-51.5 101t-74 60.5
t-92.5 29t-115.5 7.5zM1065 -196q32 0 32 -28v-56q0 -32 -30 -32q-60 1 -122 18t-106 36.5t-105.5 37t-122.5 18.5q-32 0 -32 28v56q0 32 32 32q61 3 122.5 -14.5t104.5 -39.5t104.5 -40t122.5 -16z" />
    <glyph glyph-name="R" unicode="R" 
d="M776 567l268 -532q8 -16 2 -25.5t-23 -9.5h-55q-25 0 -35 22l-270 538h-4h-376v-530q0 -14 -8.5 -22t-21.5 -8h-46q-13 0 -21.5 8t-8.5 22v1340q0 14 8.5 22t21.5 8h452q122 0 204.5 -25.5t131 -80t68.5 -130t20 -184.5q0 -191 -68.5 -290.5t-238.5 -122.5zM283 1298
v-636h376q74 0 121 6.5t88 25t63 54t34 92t12 140.5t-12 140.5t-34 92t-63 54t-88 25t-121 6.5h-376z" />
    <glyph glyph-name="S" unicode="S" 
d="M618 770q68 -15 116.5 -27.5t105 -32t96 -41t78.5 -53.5t62 -69.5t37.5 -88.5t14.5 -112q0 -79 -29.5 -145.5t-89 -119t-158.5 -82t-228 -29.5q-219 0 -353 82t-147 230q-2 15 6.5 26.5t21.5 11.5h52q13 0 21 -9.5t9 -22.5q9 -100 113.5 -160t276.5 -60q399 0 399 281
q0 63 -19.5 110t-49 76t-82 52.5t-99.5 37t-120 31.5q-11 2 -18.5 4t-15.5 4q-88 22 -147.5 41.5t-123 52.5t-101 73t-61.5 100.5t-24 137.5q0 161 115 256t331 95q212 0 337 -81.5t141 -230.5q1 -14 -6.5 -20.5t-21.5 -6.5h-48q-29 0 -30 21q-10 98 -110.5 160t-262.5 62
q-157 0 -250.5 -65t-93.5 -190q0 -66 25.5 -116t75.5 -84.5t110.5 -57t144.5 -41.5z" />
    <glyph glyph-name="T" unicode="T" 
d="M1100 1400q14 0 22 -8t8 -22v-42q0 -14 -8 -22t-22 -8h-432v-1268q0 -14 -8 -22t-22 -8h-46q-14 0 -22 8t-8 22v1268h-432q-14 0 -22 8t-8 22v42q0 14 8 22t22 8h970z" />
    <glyph glyph-name="U" unicode="U" 
d="M1047 1400q13 0 21.5 -8t8.5 -22v-856q0 -147 -30.5 -252.5t-91.5 -169.5t-144.5 -93t-195.5 -29t-195.5 29t-144.5 93t-91.5 169.5t-30.5 252.5v856q0 14 8.5 22t21.5 8h46q13 0 21.5 -8t8.5 -22v-851q0 -168 41 -268.5t117 -142t198 -41.5q183 0 269.5 102.5
t86.5 349.5v851q0 14 8.5 22t21.5 8h46z" />
    <glyph glyph-name="V" unicode="V" 
d="M1054 1376q7 24 34 24h42q34 0 24 -34l-437 -1342q-9 -24 -37 -24h-130q-28 0 -37 24l-437 1342q-10 34 24 34h42q27 0 34 -24l412 -1268h54z" />
    <glyph glyph-name="W" unicode="W" 
d="M1125 1400q27 0 24 -34l-200 -1342q-3 -24 -35 -24h-77q-31 0 -37 24l-185 1094l-185 -1094q-6 -24 -37 -24h-77q-32 0 -35 24l-200 1342q-3 34 24 34h47q31 0 34 -24l170 -1257l207 1257q5 24 34 24h36q29 0 34 -24l207 -1257l170 1257q3 24 34 24h47z" />
    <glyph glyph-name="X" unicode="X" 
d="M1135 36q9 -14 3.5 -25t-23.5 -11h-50q-25 0 -36 20l-414 611l-414 -611q-11 -20 -36 -20h-50q-18 0 -23.5 11t3.5 25l462 681l-439 647q-9 14 -3.5 25t23.5 11h50q25 0 36 -20l391 -577l391 577q11 20 36 20h50q18 0 23.5 -11t-3.5 -25l-439 -647z" />
    <glyph glyph-name="Y" unicode="Y" 
d="M1121 1400q18 0 23.5 -11t-3.5 -25l-473 -813v-521q0 -14 -8 -22t-22 -8h-46q-14 0 -22 8t-8 22v520l-473 814q-9 14 -3.5 25t23.5 11h47q23 0 36 -20l423 -730l423 730q13 20 36 20h47z" />
    <glyph glyph-name="Z" unicode="Z" 
d="M1061 102q13 0 21.5 -8t8.5 -22v-42q0 -14 -8.5 -22t-21.5 -8h-892q-13 0 -21.5 8t-8.5 22v52q0 18 12 36l795 1180h-757q-13 0 -21.5 8t-8.5 22v42q0 14 8.5 22t21.5 8h852q13 0 21.5 -8t8.5 -22v-52q0 -18 -12 -36l-795 -1180h797z" />
    <glyph glyph-name="bracketleft" unicode="[" 
d="M865 1490q13 0 21.5 -8t8.5 -22v-31q0 -13 -8.5 -21.5t-21.5 -8.5h-424v-1568h424q13 0 21.5 -8.5t8.5 -21.5v-31q0 -14 -8.5 -22t-21.5 -8h-500q-13 0 -21.5 8t-8.5 22v1690q0 14 8.5 22t21.5 8h500z" />
    <glyph glyph-name="backslash" unicode="\" 
d="M210 1400h40q21 0 33 -21l758 -1605q7 -16 0 -25t-24 -9h-34q-23 0 -36 24l-758 1599q-8 15 -2 26t23 11z" />
    <glyph glyph-name="bracketright" unicode="]" 
d="M365 1490h500q13 0 21.5 -8t8.5 -22v-1690q0 -14 -8.5 -22t-21.5 -8h-500q-13 0 -21.5 8t-8.5 22v31q0 13 8.5 21.5t21.5 8.5h424v1568h-424q-13 0 -21.5 8.5t-8.5 21.5v31q0 14 8.5 22t21.5 8z" />
    <glyph glyph-name="asciicircum" unicode="^" 
d="M964 555q-25 -17 -39 11l-310 590l-309 -590q-6 -12 -17.5 -15.5t-22.5 4.5l-42 30q-26 15 -12 40l326 605q14 22 37 22h80q23 0 37 -22l326 -605q14 -25 -12 -40z" />
    <glyph glyph-name="underscore" unicode="_" 
d="M1085 0q13 0 21.5 -8t8.5 -22v-34q0 -14 -8.5 -22t-21.5 -8h-940q-13 0 -21.5 8t-8.5 22v34q0 14 8.5 22t21.5 8h940z" />
    <glyph glyph-name="grave" unicode="`" 
d="M541 1460h18q23 0 34 -24l120 -252q7 -16 0 -25t-24 -9h-18q-23 0 -34 24l-120 252q-7 16 0 25t24 9z" />
    <glyph glyph-name="a" unicode="a" 
d="M1103 84q32 -2 32 -38v-16q0 -13 -1.5 -19t-11.5 -12t-29 -7q-172 -13 -176 147q-181 -163 -458 -163q-168 0 -244 75t-76 200q0 243 295 286l368 56q67 10 90 18.5t27 25.5v11q0 138 -72.5 199t-223.5 61q-299 0 -322 -189q-3 -25 -31 -25h-44q-30 0 -27 30
q29 278 422 278q400 0 400 -340v-500q0 -73 82 -78zM245 253q0 -180 225 -180q267 0 449 177v282q-2 -12 -18 -18.5t-61 -13.5l-357 -53q-137 -21 -187.5 -67t-50.5 -127z" />
    <glyph glyph-name="b" unicode="b" 
d="M615 999q218 0 341 -141.5t123 -369.5q0 -225 -127 -368t-337 -143q-250 0 -371 193l-10 -140q-3 -30 -30 -30h-39q-13 0 -21.5 8t-8.5 22v1340q0 14 8.5 22t21.5 8h42q13 0 21.5 -8t8.5 -22v-582h16q43 93 136.5 152t225.5 59zM604 69q178 0 277.5 116t99.5 305t-99 303
t-278 114q-166 0 -272 -116.5t-106 -300.5q0 -185 106 -303t272 -118z" />
    <glyph glyph-name="c" unicode="c" 
d="M658 64q213 0 337 169q16 22 40 7l27 -18q26 -17 9 -42q-69 -98 -176 -152t-238 -54q-217 0 -359.5 146.5t-142.5 367.5t142.5 367.5t359.5 146.5q131 0 238 -54t176 -152q17 -25 -9 -42l-27 -18q-24 -15 -40 7q-124 169 -337 169q-175 0 -290 -119.5t-115 -304.5
t115 -304.5t290 -119.5z" />
    <glyph glyph-name="d" unicode="d" 
d="M1061 1400q13 0 21.5 -8t8.5 -22v-1340q0 -14 -8.5 -22t-21.5 -8h-39q-27 0 -30 30l-10 137q-122 -193 -379 -193q-212 0 -348 145t-136 369q0 226 132 370t352 144q139 0 233 -59.5t139 -154.5h14v582q0 14 8.5 22t21.5 8h42zM613 66q174 0 281.5 119t107.5 305
t-107.5 303t-281.5 117q-183 0 -289.5 -116.5t-106.5 -303.5q0 -188 107 -306t289 -118z" />
    <glyph glyph-name="e" unicode="e" 
d="M616 1002q138 0 244 -68t159.5 -175t53.5 -231q0 -51 -10 -71.5t-43 -20.5h-782q19 -159 128.5 -263t275.5 -104q168 0 291 119q21 21 38 4l21 -21q26 -25 4 -47q-150 -150 -366 -150q-146 0 -259 68.5t-173.5 185t-60.5 260.5q0 219 134.5 366.5t344.5 147.5zM615 908
q-154 0 -258.5 -107.5t-119.5 -266.5h746q-2 154 -106 264t-262 110z" />
    <glyph glyph-name="f" unicode="f" 
d="M1089 980q13 0 21.5 -8t8.5 -22v-31q0 -13 -8.5 -21.5t-21.5 -8.5h-574v-859q0 -14 -8.5 -22t-21.5 -8h-42q-13 0 -21.5 8t-8.5 22v859h-274q-13 0 -21.5 8.5t-8.5 21.5v31q0 14 8.5 22t21.5 8h274v112q0 92 22.5 160.5t60 109.5t93.5 66.5t115 34.5t133 9
q98 0 185 -18.5t87 -44.5v-35q0 -15 -10 -23t-26 -5q-2 0 -33 10t-78.5 17t-108.5 7q-60 0 -104.5 -5.5t-91 -22.5t-75.5 -46.5t-48 -80.5t-19 -122v-123h574z" />
    <glyph glyph-name="g" unicode="g" 
d="M1047 980q13 0 21.5 -8t8.5 -22v-926q0 -109 -40 -192t-109.5 -131.5t-154.5 -72.5t-184 -24q-211 0 -354 86q-25 15 -11 42l12 26q5 12 17 15t23 -3q149 -68 308 -68q64 0 120 10.5t106 34.5t86 59t56.5 87t20.5 117v185q-59 -93 -154 -145.5t-216 -52.5
q-209 0 -346 145.5t-137 355.5t137 355.5t346 145.5q121 0 214.5 -50.5t152.5 -140.5l8 142q3 30 30 30h39zM607 89q164 0 275 121.5t111 289.5q0 167 -111 287t-275 120q-167 0 -278 -117t-111 -290q0 -174 111 -292.5t278 -118.5z" />
    <glyph glyph-name="h" unicode="h" 
d="M681 1002q362 0 362 -380v-592q0 -14 -8.5 -22t-21.5 -8h-42q-13 0 -21.5 8t-8.5 22v598q0 282 -279 282q-69 0 -132.5 -22t-105.5 -54.5t-74 -68.5t-46.5 -63.5t-14.5 -40.5v-631q0 -14 -8.5 -22t-21.5 -8h-42q-13 0 -21.5 8t-8.5 22v1340q0 14 8.5 22t21.5 8h42
q13 0 21.5 -8t8.5 -22v-562h19q44 80 144.5 137t228.5 57z" />
    <glyph glyph-name="i" unicode="i" 
d="M639 1234q-32 0 -54 21.5t-22 53.5t22 53.5t54 21.5t53.5 -21.5t21.5 -53.5t-21.5 -53.5t-53.5 -21.5zM1041 100q13 0 21.5 -8t8.5 -22v-40q0 -14 -8.5 -22t-21.5 -8h-842q-13 0 -21.5 8t-8.5 22v40q0 14 8.5 22t21.5 8h396v780h-346q-13 0 -21.5 8t-8.5 22v40
q0 14 8.5 22t21.5 8h418q13 0 21.5 -8t8.5 -22v-850h344z" />
    <glyph glyph-name="j" unicode="j" 
d="M782 1234q-32 0 -53.5 21.5t-21.5 53.5t21.5 53.5t53.5 21.5t53.5 -21.5t21.5 -53.5t-21.5 -53.5t-53.5 -21.5zM830 980q14 0 22 -8t8 -22v-930q0 -97 -22 -170.5t-57.5 -117.5t-88 -71.5t-105.5 -37t-117 -9.5q-60 0 -116 12.5t-94.5 30.5t-66.5 38.5t-40 37.5t-7 25
l23 40q5 10 19.5 12.5t26.5 -6.5q71 -54 135 -74q57 -18 117 -18q43 0 79 5.5t77 23.5t69 49t47 86t19 130v874h-493q-13 0 -21.5 8t-8.5 22v40q0 14 8.5 22t21.5 8h565z" />
    <glyph glyph-name="k" unicode="k" 
d="M1071 36q12 -15 6 -25.5t-24 -10.5h-67q-19 0 -36 18l-390 456l-247 -255v-189q0 -14 -8.5 -22t-21.5 -8h-42q-13 0 -21.5 8t-8.5 22v1400q0 14 8.5 22t21.5 8h42q13 0 21.5 -8t8.5 -22v-1072l579 606q17 16 39 16h69q20 0 25.5 -10t-9.5 -26l-385 -397z" />
    <glyph glyph-name="l" unicode="l" 
d="M1041 100q13 0 21.5 -8t8.5 -22v-40q0 -14 -8.5 -22t-21.5 -8h-852q-13 0 -21.5 8t-8.5 22v40q0 14 8.5 22t21.5 8h396v1200h-378q-13 0 -21.5 8t-8.5 22v40q0 14 8.5 22t21.5 8h450q13 0 21.5 -8t8.5 -22v-1270h354z" />
    <glyph glyph-name="m" unicode="m" 
d="M882 1002q113 0 168.5 -72t55.5 -250v-650q0 -14 -8 -22t-22 -8h-39q-13 0 -21.5 8t-8.5 22v650q0 125 -32.5 177t-104.5 52q-87 0 -141.5 -65t-64.5 -143v-671q0 -14 -8 -22t-22 -8h-38q-14 0 -22 8t-8 22v650q0 125 -32 177t-106 52q-57 0 -103.5 -34t-70 -79.5
t-31.5 -94.5v-671q0 -14 -8.5 -22t-21.5 -8h-39q-14 0 -22 8t-8 22v920q0 14 8 22t22 8h31q28 0 30 -30l7 -111h9q54 163 209 163q77 0 126.5 -39.5t78.5 -123.5h10q28 74 86 118.5t141 44.5z" />
    <glyph glyph-name="n" unicode="n" 
d="M681 1002q362 0 362 -380v-592q0 -14 -8.5 -22t-21.5 -8h-42q-13 0 -21.5 8t-8.5 22v598q0 282 -279 282q-85 0 -160.5 -32.5t-119 -76t-68.5 -81t-25 -54.5v-636q0 -14 -8.5 -22t-21.5 -8h-42q-13 0 -21.5 8t-8.5 22v920q0 14 8.5 22t21.5 8h34q27 0 30 -30l8 -142h19
q44 80 144.5 137t228.5 57z" />
    <glyph glyph-name="o" unicode="o" 
d="M615 -26q-212 0 -351.5 147t-139.5 367t139.5 367t351.5 147t351.5 -147t139.5 -367t-139.5 -367t-351.5 -147zM615 64q171 0 282 119.5t111 304.5t-111 304.5t-282 119.5t-282 -119.5t-111 -304.5t111 -304.5t282 -119.5z" />
    <glyph glyph-name="p" unicode="p" 
d="M615 999q218 0 341 -141.5t123 -369.5q0 -225 -127 -368t-337 -143q-128 0 -224.5 53.5t-153.5 150.5v-531q0 -14 -8.5 -22t-21.5 -8h-42q-13 0 -21.5 8t-8.5 22v1300q0 14 8.5 22t21.5 8h42q13 0 21.5 -8t8.5 -22v-162h16q43 93 136.5 152t225.5 59zM607 69
q176 0 275 116t99 305q0 188 -98.5 302.5t-275.5 114.5q-168 0 -274.5 -116.5t-106.5 -300.5q0 -185 106.5 -303t274.5 -118z" />
    <glyph glyph-name="q" unicode="q" 
d="M1061 980q13 0 21.5 -8t8.5 -22v-1300q0 -14 -8.5 -22t-21.5 -8h-42q-13 0 -21.5 8t-8.5 22v528q-58 -97 -155.5 -150.5t-230.5 -53.5q-212 0 -348 145t-136 369q0 226 132 370t352 144q139 0 233 -59.5t139 -154.5h14v162q0 14 8.5 22t21.5 8h42zM613 66q143 0 243 82.5
t132 220.5v119l1 122q-33 138 -132.5 219t-243.5 81q-183 0 -289.5 -116.5t-106.5 -303.5q0 -188 107 -306t289 -118z" />
    <glyph glyph-name="r" unicode="r" 
d="M714 1002q179 0 280.5 -84.5t101.5 -256.5q0 -30 -31 -32l-43 -1q-27 -3 -27 25q-1 125 -72.5 190t-203.5 65q-76 0 -144.5 -24t-115 -60.5t-80.5 -79.5t-50 -80.5t-16 -63.5v-570q0 -14 -8.5 -22t-21.5 -8h-42q-13 0 -21.5 8t-8.5 22v920q0 14 8.5 22t21.5 8h34
q27 0 30 -30l8 -142h23q53 80 154.5 137t223.5 57z" />
    <glyph glyph-name="s" unicode="s" 
d="M618 536q65 -9 104.5 -15t91.5 -18t83.5 -24.5t65.5 -33.5t52 -47t30 -62t12 -81q0 -129 -107.5 -205t-335.5 -76q-190 0 -306.5 65.5t-131.5 210.5q-3 30 27 30h46q28 0 31 -26q21 -186 337 -186q163 0 251 46.5t88 134.5q0 34 -10.5 61t-33.5 46t-49.5 32t-69.5 23.5
t-80 16.5t-95 13q-83 10 -139.5 21.5t-114 32.5t-91.5 50t-55 74.5t-21 106.5q0 126 97.5 201t306.5 75q90 0 163 -15t132 -46.5t94.5 -86t43.5 -128.5q3 -30 -27 -30h-44q-28 0 -31 25q-23 187 -333 187q-146 0 -224.5 -45.5t-78.5 -135.5q0 -40 15.5 -69.5t40 -48.5
t68.5 -33.5t87.5 -22.5t110.5 -17z" />
    <glyph glyph-name="t" unicode="t" 
d="M1092 142q19 -21 -1 -39q-47 -46 -129 -82.5t-187 -36.5q-74 0 -136 19.5t-115 62.5t-83 122t-30 188v504h-287q-14 0 -22 8t-8 22v40q0 14 8 22t22 8h287v260q0 14 8.5 22t21.5 8h42q13 0 21.5 -8t8.5 -22v-260h462q13 0 21.5 -8t8.5 -22v-40q0 -14 -8.5 -22t-21.5 -8
h-462v-510q0 -80 21.5 -138t60 -90t84.5 -46.5t102 -14.5q136 0 242 93q21 22 42 -2z" />
    <glyph glyph-name="u" unicode="u" 
d="M1013 980q13 0 21.5 -8t8.5 -22v-920q0 -14 -8.5 -22t-21.5 -8h-34q-28 0 -30 30l-8 142h-19q-44 -80 -144.5 -137t-228.5 -57q-362 0 -362 380v592q0 14 8.5 22t21.5 8h42q13 0 21.5 -8t8.5 -22v-598q0 -282 279 -282q85 0 160.5 32.5t119 76t68.5 81t25 54.5v636
q0 14 8.5 22t21.5 8h42z" />
    <glyph glyph-name="v" unicode="v" 
d="M993 956q11 24 36 24h43q17 0 24 -9t0 -25l-415 -922q-11 -24 -36 -24h-60q-25 0 -36 24l-415 922q-7 16 0 25t24 9h43q25 0 36 -24l378 -847z" />
    <glyph glyph-name="w" unicode="w" 
d="M1128 980q30 0 24 -34l-209 -922q-7 -24 -36 -24h-72q-29 0 -36 24l-185 745l-185 -745q-7 -24 -36 -24h-72q-29 0 -36 24l-209 922q-6 34 24 34h52q28 0 36 -24l171 -849l199 849q4 17 24 22q6 2 12 2h40q6 0 12 -2q20 -5 24 -22l199 -849l171 849q8 24 36 24h52z" />
    <glyph glyph-name="x" unicode="x" 
d="M1119 36q12 -13 7 -24.5t-25 -11.5h-66q-22 0 -36 15l-384 417l-384 -417q-14 -15 -36 -15h-66q-20 0 -24 11.5t9 24.5l435 464l-414 444q-12 13 -6.5 24.5t24.5 11.5h65q22 0 36 -15l361 -401l361 401q14 15 36 15h65q20 0 25.5 -10.5t-7.5 -25.5l-412 -444z" />
    <glyph glyph-name="y" unicode="y" 
d="M1072 980q17 0 24 -9t0 -25l-586 -1302q-11 -24 -36 -24h-43q-17 0 -24 9t0 25l153 346l-426 946q-7 16 0 25t24 9h43q25 0 36 -24l378 -847l378 847q11 24 36 24h43z" />
    <glyph glyph-name="z" unicode="z" 
d="M1027 950v-39q0 -24 -14 -38l-690 -782h674q13 0 21.5 -8.5t8.5 -21.5v-31q0 -14 -8.5 -22t-21.5 -8h-764q-13 0 -21.5 8t-8.5 22v39q0 24 14 38l690 782h-674q-13 0 -21.5 8.5t-8.5 21.5v31q0 14 8.5 22t21.5 8h764q13 0 21.5 -8t8.5 -22z" />
    <glyph glyph-name="braceleft" unicode="{" 
d="M478 865q0 -27 -9 -39l-174 -214l174 -210q5 -6 7 -11.5t2.5 -8.5t0 -10t-0.5 -9v-457q0 -32 19.5 -52t50.5 -20h317q13 0 21.5 -8t8.5 -22v-34q0 -14 -8.5 -22t-21.5 -8h-367q-58 0 -92 40t-34 91v464q0 26 -10 38l-181 219q-18 21 -2 40l183 223q10 12 10 38v466
q0 51 34 91t92 40h367q13 0 21.5 -8t8.5 -22v-34q0 -14 -8.5 -22t-21.5 -8h-317q-31 0 -50.5 -20t-19.5 -52v-459z" />
    <glyph glyph-name="bar" unicode="|" 
d="M562 1570q0 14 8 22t22 8h46q14 0 22 -8t8 -22v-1920q0 -14 -8 -22t-22 -8h-46q-14 0 -22 8t-8 22v1920z" />
    <glyph glyph-name="braceright" unicode="}" 
d="M752 865v459q0 32 -19.5 52t-50.5 20h-317q-13 0 -21.5 8t-8.5 22v34q0 14 8.5 22t21.5 8h367q58 0 92 -40t34 -91v-466q0 -26 10 -38l183 -223q16 -19 -2 -40l-181 -219q-10 -12 -10 -38v-464q0 -51 -34 -91t-92 -40h-367q-13 0 -21.5 8t-8.5 22v34q0 14 8.5 22t21.5 8
h317q31 0 50.5 20t19.5 52v457q0 2 -0.5 9t0 10t2.5 8.5t7 11.5l174 210l-174 214q-9 12 -9 39z" />
    <glyph glyph-name="asciitilde" unicode="~" 
d="M407 725q54 0 101.5 -20.5t81.5 -49.5t66 -58.5t70.5 -50t79.5 -20.5q59 0 95.5 31t41.5 66q2 13 7.5 17t19.5 4h49q33 0 25 -25q-15 -83 -76.5 -135.5t-161.5 -52.5q-51 0 -97 20.5t-79.5 49.5t-65.5 58.5t-68.5 50t-75.5 20.5q-96 0 -134 -94q-5 -13 -10.5 -18.5
t-15.5 -5.5h-52q-25 0 -22 31q7 73 67.5 127.5t153.5 54.5z" />
    <glyph glyph-name="exclamdown" unicode="&#xa1;" 
d="M615 1066q42 0 69.5 -27.5t27.5 -69.5t-27.5 -70.5t-69.5 -28.5t-69.5 28.5t-27.5 70.5t27.5 69.5t69.5 27.5zM691 -305q0 -29 -20 -50t-56 -21t-56 21t-20 50l38 965q3 29 30 29h15q27 0 30 -29z" />
    <glyph glyph-name="cent" unicode="&#xa2;" 
d="M1062 368q26 -17 9 -42q-66 -93 -169 -145t-229 -56v-175q0 -14 -8.5 -22t-21.5 -8h-30q-13 0 -21.5 8t-8.5 22v180q-189 25 -308.5 163.5t-119.5 334.5t119.5 335t308.5 164v243q0 14 8.5 22t21.5 8h30q13 0 21.5 -8t8.5 -22v-238q126 -4 228.5 -56.5t169.5 -145.5
q17 -25 -9 -41l-27 -18q-24 -15 -40 7q-120 160 -322 166v-831q203 6 322 165q16 22 40 7zM253 628q0 -160 91.5 -272t238.5 -137v819q-147 -25 -238.5 -137t-91.5 -273z" />
    <glyph glyph-name="sterling" unicode="&#xa3;" 
d="M1039 102q13 0 21.5 -8t8.5 -22v-42q0 -14 -8.5 -22t-21.5 -8h-850q-13 0 -21.5 8t-8.5 22v72q27 18 57 46.5t63 70.5t54.5 97t21.5 111q0 86 -18 165h-146q-13 0 -21.5 8t-8.5 22v38q0 14 8.5 22t21.5 8h117q-11 31 -34.5 85.5t-36.5 88t-24.5 86t-11.5 106.5
q0 163 108 261.5t320 98.5q213 0 324.5 -88t111.5 -262q0 -29 -31 -32l-41 -2q-13 -2 -21 5.5t-7 22.5q5 121 -85.5 192t-260.5 71q-84 0 -146.5 -22t-98.5 -60.5t-53.5 -86t-17.5 -104.5q0 -71 15 -127t48.5 -128t45.5 -105h523q13 0 21.5 -8t8.5 -22v-38q0 -14 -8.5 -22
t-21.5 -8h-496q15 -77 15 -162q0 -87 -41 -183t-99 -145h725z" />
    <glyph glyph-name="currency" unicode="&#xa4;" 
d="M1061 952q0 -170 -111 -295l102 -102l-52 -50l-101 101q-124 -102 -286 -102q-160 0 -283 101l-100 -100l-52 50l100 100q-112 126 -112 297q0 167 110 295l-98 99l52 50l98 -98q124 102 285 102q164 0 287 -104l100 100l52 -50l-100 -101q109 -125 109 -293zM227 952
q0 -108 56.5 -198t144.5 -139t185 -49t186 49t145.5 139t56.5 198q0 107 -56.5 197t-145.5 139.5t-186 49.5t-185 -49.5t-144.5 -139.5t-56.5 -197z" />
    <glyph glyph-name="yen" unicode="&#xa5;" 
d="M1121 1400q18 0 23.5 -11t-3.5 -25l-442 -760h347q14 0 22 -8t8 -22v-39q0 -13 -8 -21.5t-22 -8.5h-378v-87h378q14 0 22 -8t8 -22v-40q0 -14 -8 -22t-22 -8h-378v-288q0 -14 -8 -22t-22 -8h-46q-14 0 -22 8t-8 22v288h-375q-13 0 -21.5 8t-8.5 22v40q0 14 8.5 22t21.5 8
h375v87h-375q-13 0 -21.5 8.5t-8.5 21.5v39q0 14 8.5 22t21.5 8h343l-441 760q-9 14 -3.5 25t23.5 11h47q23 0 36 -20l423 -730l423 730q13 20 36 20h47z" />
    <glyph glyph-name="brokenbar" unicode="&#xa6;" 
d="M638 1600q14 0 22 -8t8 -22v-560q0 -14 -8 -22t-22 -8h-46q-14 0 -22 8t-8 22v560q0 14 8 22t22 8h46zM638 240q14 0 22 -8t8 -22v-560q0 -14 -8 -22t-22 -8h-46q-14 0 -22 8t-8 22v560q0 14 8 22t22 8h46z" />
    <glyph glyph-name="section" unicode="&#xa7;" 
d="M1135 558q0 -188 -124 -304q74 -77 74 -199q0 -172 -120.5 -274t-364.5 -102q-219 0 -352 81.5t-148 230.5q-2 15 6.5 26.5t21.5 11.5h52q26 0 30 -32q9 -100 113.5 -160t276.5 -60q192 0 285.5 66t93.5 215q0 116 -99 174q-63 37 -232 79l-27 6q-17 5 -26 7
q-65 16 -109.5 29t-101.5 34t-95 43t-78 54.5t-63.5 70.5t-38.5 89t-15 112q0 87 30 149.5t95 129.5q-61 84 -61 214q0 160 110.5 255.5t315.5 95.5q212 0 337 -81.5t140 -230.5q1 -14 -6.5 -20.5t-21.5 -6.5h-48q-27 0 -30 21q-9 98 -109.5 160t-262.5 62q-150 0 -237 -65
t-87 -190q0 -128 83.5 -195t252.5 -104q53 -12 92 -21t87.5 -23t84 -27.5t75.5 -32t67.5 -39t54.5 -47t43 -56t26 -67t10 -79.5zM199 743q0 -44 12.5 -81.5t30 -64.5t51.5 -51t61.5 -38.5t76 -30.5t79 -24t85.5 -22q239 -59 333 -113q102 79 102 239q0 52 -23 93.5t-47 65
t-88.5 49t-95 34t-118.5 29.5q-14 4 -21.5 6t-19.5 4.5t-22 5.5q-211 54 -304 120q-92 -65 -92 -221z" />
    <glyph glyph-name="dieresis" unicode="&#xa8;" 
d="M447 1286q-28 0 -48 20.5t-20 47.5q0 26 20.5 46t47.5 20q28 0 48.5 -20t20.5 -46q0 -27 -20.5 -47.5t-48.5 -20.5zM785 1286q-28 0 -48 20.5t-20 47.5q0 26 20.5 46t47.5 20q28 0 48.5 -20t20.5 -46q0 -27 -20.5 -47.5t-48.5 -20.5z" />
    <glyph glyph-name="copyright" unicode="&#xa9;" 
d="M615 112q-155 0 -286.5 76.5t-207.5 208t-76 287.5t76 287.5t207.5 208t286.5 76.5t286.5 -76.5t207.5 -208t76 -287.5t-76 -287.5t-207.5 -208t-286.5 -76.5zM615 211q129 0 236.5 63.5t169 172t61.5 237.5t-61.5 237.5t-169 172t-236.5 63.5q-196 0 -333 -138.5
t-137 -334.5t137 -334.5t333 -138.5zM826 449q24 -22 1 -42q-85 -71 -206 -71q-144 0 -242 99.5t-98 248.5t98 248.5t242 99.5q122 0 205 -71q23 -20 0 -42l-19 -17q-19 -18 -43 -2q-68 43 -141 43q-107 0 -179.5 -74.5t-72.5 -184.5t72.5 -184.5t179.5 -74.5q72 0 141 43
q23 17 43 -2z" />
    <glyph glyph-name="ordfeminine" unicode="&#xaa;" 
d="M909 1400h66v-718h-66l-20 110l4 15q-94 -125 -274 -125q-151 0 -257.5 106t-106.5 258t106.5 258t257.5 106q178 0 272 -123l-2 9zM619 763q118 0 200 82.5t82 200.5t-82 200t-200 82t-200.5 -82t-82.5 -200t82.5 -200.5t200.5 -82.5z" />
    <glyph glyph-name="guillemotleft" unicode="&#xab;" 
d="M592 944l-252 -382l252 -382q10 -16 4 -26t-24 -10h-60q-22 0 -36 20l-250 378q-13 20 0 40l250 378q14 20 36 20h60q18 0 24 -10t-4 -26zM1004 944l-252 -382l252 -382q10 -16 4 -26t-24 -10h-60q-22 0 -36 20l-250 378q-13 20 0 40l250 378q14 20 36 20h60q18 0 24 -10
t-4 -26z" />
    <glyph glyph-name="logicalnot" unicode="&#xac;" 
d="M1085 596q13 0 21.5 -8t8.5 -22v-224q0 -14 -8.5 -22t-21.5 -8h-44q-13 0 -21.5 8t-8.5 22v163h-866q-13 0 -21.5 8.5t-8.5 21.5v31q0 14 8.5 22t21.5 8h940z" />
    <glyph glyph-name="uni00AD" unicode="&#xad;" 
d="M1085 616q13 0 21.5 -8t8.5 -22v-34q0 -14 -8.5 -22t-21.5 -8h-940q-13 0 -21.5 8t-8.5 22v34q0 14 8.5 22t21.5 8h940z" />
    <glyph glyph-name="registered" unicode="&#xae;" 
d="M615 1256q155 0 286.5 -76.5t207.5 -208t76 -287.5t-76 -287.5t-207.5 -208t-286.5 -76.5t-286.5 76.5t-207.5 208t-76 287.5t76 287.5t207.5 208t286.5 76.5zM615 211q129 0 236.5 63.5t169 172t61.5 237.5t-61.5 237.5t-169 172t-236.5 63.5q-196 0 -333 -138.5
t-137 -334.5t137 -334.5t333 -138.5zM891 796q0 -77 -49 -128.5t-143 -62.5l179 -204q9 -10 5 -17.5t-19 -7.5h-68q-14 0 -23 13l-183 213h-141v-208q0 -7 -6 -12.5t-14 -5.5h-52q-7 0 -12.5 5t-5.5 13v582q0 8 5.5 13.5t12.5 5.5h273q118 0 179.5 -54t61.5 -145zM652 690
q77 0 115.5 30.5t38.5 75.5q0 108 -154 108h-203v-214h203z" />
    <glyph glyph-name="macron" unicode="&#xaf;" 
d="M857 1400q13 0 21.5 -8t8.5 -22v-30q0 -14 -8.5 -22t-21.5 -8h-484q-13 0 -21.5 8t-8.5 22v30q0 14 8.5 22t21.5 8h484z" />
    <glyph glyph-name="degree" unicode="&#xb0;" 
d="M615 1410q133 0 222.5 -88t89.5 -222q0 -137 -89.5 -225.5t-222.5 -88.5t-222.5 88.5t-89.5 225.5q0 134 89.5 222t222.5 88zM615 1330q-97 0 -163.5 -61t-66.5 -169q0 -107 66.5 -169.5t163.5 -62.5t163.5 62.5t66.5 169.5q0 108 -66.5 169t-163.5 61z" />
    <glyph glyph-name="plusminus" unicode="&#xb1;" 
d="M965 619q13 0 21.5 -8.5t8.5 -21.5v-39q0 -14 -8.5 -22t-21.5 -8h-290v-291q0 -13 -8.5 -21.5t-21.5 -8.5h-40q-13 0 -21.5 8.5t-8.5 21.5v291h-290q-13 0 -21.5 8t-8.5 22v39q0 13 8.5 21.5t21.5 8.5h290v290q0 13 8.5 21.5t21.5 8.5h40q13 0 21.5 -8.5t8.5 -21.5v-290
h290zM945 99q13 0 21.5 -8.5t8.5 -21.5v-39q0 -14 -8.5 -22t-21.5 -8h-680q-13 0 -21.5 8t-8.5 22v39q0 13 8.5 21.5t21.5 8.5h680z" />
    <glyph glyph-name="uni00B2" unicode="&#xb2;" 
d="M1010 310q14 0 22 -8t8 -22v-40q0 -14 -8 -22t-22 -8h-791q-13 0 -21.5 8t-8.5 22v86q0 82 42 144.5t108.5 100.5t147.5 68t162 54.5t147.5 50.5t108.5 65t42 91q0 106 -76 155.5t-246 49.5q-177 0 -262 -54t-80 -147q1 -15 -7 -22.5t-21 -5.5l-39 2q-31 3 -31 32
q0 290 431 290q222 0 325.5 -75.5t103.5 -224.5q0 -74 -41.5 -129.5t-108.5 -89.5t-147.5 -61.5t-161 -54t-147.5 -57.5t-108.5 -81t-41.5 -117h721z" />
    <glyph glyph-name="uni00B3" unicode="&#xb3;" 
d="M820 695q46 -8 81 -18t72 -29t61 -44t39.5 -64t15.5 -89q0 -77 -36 -131t-104 -83t-150 -41t-190 -12q-237 0 -349.5 66t-112.5 222q0 29 31 32l40 3q29 3 29 -28q-3 -113 83 -157t271 -44q59 0 102.5 2t92.5 7.5t82.5 17.5t62.5 30t43 46.5t14 66.5q0 42 -13.5 73
t-42 52.5t-65.5 36t-92 22t-113 10.5t-137 3q-30 0 -30 30v37q0 32 29 32q212 0 318.5 51t106.5 141q0 94 -85.5 133t-261.5 39q-181 0 -262 -50.5t-78 -165.5q1 -15 -7 -22.5t-22 -5.5l-40 2q-31 3 -31 32q0 157 112 229.5t331 72.5q438 0 438 -261q0 -49 -20 -90.5
t-55 -70.5t-73.5 -49t-84.5 -34z" />
    <glyph glyph-name="acute" unicode="&#xb4;" 
d="M689 1460q17 0 24 -9t0 -25l-120 -252q-11 -24 -34 -24h-18q-17 0 -24 9t0 25l120 252q11 24 34 24h18z" />
    <glyph glyph-name="uni00B5" unicode="&#xb5;" 
d="M1013 980q13 0 21.5 -8t8.5 -22v-920q0 -14 -8.5 -22t-21.5 -8h-34q-28 0 -30 30l-8 142h-19q-44 -80 -144.5 -137t-228.5 -57q-171 0 -260 85v-413q0 -14 -8.5 -22t-21.5 -8h-42q-13 0 -21.5 8t-8.5 22v1300q0 14 8.5 22t21.5 8h42q13 0 21.5 -8t8.5 -22v-598
q0 -282 279 -282q85 0 160.5 32.5t119 76t68.5 81t25 54.5v636q0 14 8.5 22t21.5 8h42z" />
    <glyph glyph-name="paragraph" unicode="&#xb6;" 
d="M459 1400h214q13 0 21.5 -8t8.5 -22v-1340q0 -14 -8.5 -22t-21.5 -8h-41q-14 0 -22 8t-8 22v530h-143q-72 0 -128 9t-97.5 25t-71 43t-48.5 59t-30 78t-15 94t-4 112t4 112t15 94t30 78t48.5 59t71 43t97.5 25t128 9zM919 1400q13 0 21.5 -8t8.5 -22v-1340
q0 -14 -8.5 -22t-21.5 -8h-40q-13 0 -21.5 8t-8.5 22v1340q0 14 8.5 22t21.5 8h40z" />
    <glyph glyph-name="periodcentered" unicode="&#xb7;" 
d="M615 496q-42 0 -69.5 27.5t-27.5 69.5t27.5 70.5t69.5 28.5t69.5 -28.5t27.5 -70.5t-27.5 -69.5t-69.5 -27.5z" />
    <glyph glyph-name="cedilla" unicode="&#xb8;" 
d="M609 -81q66 -6 110 -46.5t44 -104.5q0 -75 -44.5 -122.5t-107 -61t-130.5 -1.5q-18 3 -18 22v41q0 10 6 15.5t16 4.5q83 -12 133 13.5t50 79.5q0 52 -55 74t-126 -7q-11 -4 -17.5 -0.5t-6.5 14.5v34q0 9 10 24l92 102h119z" />
    <glyph glyph-name="uni00B9" unicode="&#xb9;" 
d="M1035 301q13 0 21.5 -8.5t8.5 -21.5v-31q0 -14 -8.5 -22t-21.5 -8h-840q-13 0 -21.5 8t-8.5 22v31q0 13 8.5 21.5t21.5 8.5h396v776q-83 -75 -170.5 -109t-163.5 -34q-30 0 -30 31v37q0 29 30 29q71 0 158.5 40.5t175.5 118.5h72q13 0 21.5 -8t8.5 -22v-859h342z" />
    <glyph glyph-name="ordmasculine" unicode="&#xba;" 
d="M612 682q-152 0 -258 106t-106 258t106 258t258 106t258 -106t106 -258t-106 -258t-258 -106zM612 763q118 0 200.5 82.5t82.5 200.5t-82.5 200t-200.5 82t-200.5 -82t-82.5 -200t82.5 -200.5t200.5 -82.5z" />
    <glyph glyph-name="guillemotright" unicode="&#xbb;" 
d="M226 944q-10 16 -4 26t24 10h60q22 0 36 -20l250 -378q13 -20 0 -40l-250 -378q-14 -20 -36 -20h-60q-18 0 -24 10t4 26l252 382zM638 944q-10 16 -4 26t24 10h60q22 0 36 -20l250 -378q13 -20 0 -40l-250 -378q-14 -20 -36 -20h-60q-18 0 -24 10t4 26l252 382z" />
    <glyph glyph-name="onequarter" unicode="&#xbc;" 
d="M199 737q-30 0 -30 26v28q0 11 8.5 18.5t21.5 7.5h396v683q-83 -66 -170.5 -96t-163.5 -30q-30 0 -30 27v33q0 26 30 26q71 0 158.5 35.5t175.5 103.5h72q30 0 30 -26v-756h342q13 0 21.5 -7.5t8.5 -18.5v-28q0 -26 -30 -26h-840zM1185 656q13 0 21.5 -8t8.5 -22v-28
q0 -14 -8.5 -22t-21.5 -8h-1140q-13 0 -21.5 8t-8.5 22v28q0 14 8.5 22t21.5 8h1140zM1063 42q30 0 30 -26v-29q0 -11 -8.5 -18.5t-21.5 -7.5h-141v-315q0 -26 -30 -26h-42q-30 0 -30 26v315h-655q-13 0 -21.5 7.5t-8.5 18.5v454q0 11 8.5 18.5t21.5 7.5h42q13 0 21.5 -7.5
t8.5 -18.5v-399h583v399q0 11 8.5 18.5t21.5 7.5h42q13 0 21.5 -7.5t8.5 -18.5v-399h141z" />
    <glyph glyph-name="onehalf" unicode="&#xbd;" 
d="M199 737q-30 0 -30 26v28q0 11 8.5 18.5t21.5 7.5h396v683q-83 -66 -170.5 -96t-163.5 -30q-30 0 -30 27v33q0 26 30 26q71 0 158.5 35.5t175.5 103.5h72q30 0 30 -26v-756h342q13 0 21.5 -7.5t8.5 -18.5v-28q0 -26 -30 -26h-840zM1185 656q13 0 21.5 -8t8.5 -22v-28
q0 -14 -8.5 -22t-21.5 -8h-1140q-13 0 -21.5 8t-8.5 22v28q0 14 8.5 22t21.5 8h1140zM1048 227q0 -65 -41.5 -114t-108.5 -79t-147.5 -54t-161 -47t-147.5 -50.5t-108.5 -71.5t-41.5 -103h721q13 0 21.5 -7.5t8.5 -18.5v-36q0 -11 -8.5 -18.5t-21.5 -7.5h-791
q-13 0 -21.5 7.5t-8.5 18.5v76q0 72 42 127t108.5 88.5t147.5 60t162 48t147.5 44t108.5 57t42 80.5q0 94 -76 137.5t-246 43.5q-177 0 -262 -47.5t-80 -129.5q1 -13 -7 -20t-21 -5l-39 2q-31 3 -31 28q0 255 431 255q222 0 325.5 -66t103.5 -198z" />
    <glyph glyph-name="threequarters" unicode="&#xbe;" 
d="M824 1165q58 -9 101 -22t84 -36.5t62.5 -63t21.5 -93.5q0 -68 -36 -115.5t-104 -73t-150 -36t-190 -10.5q-237 0 -349.5 58t-112.5 195q0 26 31 29l40 2q29 3 29 -24q-3 -100 83 -138.5t271 -38.5q59 0 102.5 1.5t92.5 6.5t82.5 15.5t62.5 26.5t43 41t14 58
q0 44 -20.5 75t-56.5 50t-96.5 30t-127.5 15t-162 4q-30 0 -30 26v33q0 28 29 28q212 0 318.5 45t106.5 124q0 82 -85.5 116.5t-261.5 34.5q-181 0 -262 -44.5t-78 -145.5q1 -13 -7 -19.5t-22 -4.5l-40 1q-31 3 -31 28q0 138 112 202t331 64q438 0 438 -229
q0 -57 -36.5 -102.5t-85 -70.5t-111.5 -42zM1185 656q13 0 21.5 -8t8.5 -22v-28q0 -14 -8.5 -22t-21.5 -8h-1140q-13 0 -21.5 8t-8.5 22v28q0 14 8.5 22t21.5 8h1140zM891 467q13 0 21.5 -7.5t8.5 -18.5v-399h141q30 0 30 -26v-29q0 -11 -8.5 -18.5t-21.5 -7.5h-141v-315
q0 -26 -30 -26h-42q-30 0 -30 26v315h-655q-13 0 -21.5 7.5t-8.5 18.5v454q0 11 8.5 18.5t21.5 7.5h42q13 0 21.5 -7.5t8.5 -18.5v-399h583v399q0 11 8.5 18.5t21.5 7.5h42z" />
    <glyph glyph-name="questiondown" unicode="&#xbf;" 
d="M678 1066q42 0 69.5 -27.5t27.5 -69.5t-27.5 -70.5t-69.5 -28.5t-69.5 28.5t-27.5 70.5t27.5 69.5t69.5 27.5zM702 734q30 0 30 -32q-2 -93 -19.5 -165.5t-45 -118t-62 -79t-72 -54.5t-75 -39t-71.5 -38.5t-59.5 -47t-41 -69.5t-15.5 -102q0 -122 82 -197t255 -75
q170 0 260 71t85 192q-1 15 7 22.5t21 5.5l41 -2q31 -3 31 -32q0 -174 -111.5 -262t-324.5 -88q-223 0 -331.5 102.5t-108.5 264.5q0 72 15.5 125.5t41 86t59.5 56.5t71.5 42t75 37t72 47.5t62 67.5t45 103t19.5 148q-2 30 29 30h35z" />
    <glyph glyph-name="Agrave" unicode="&#xc0;" 
d="M564 1534l-120 252q-7 16 0 25t24 9h18q23 0 34 -24l120 -252q7 -16 0 -25t-24 -9h-18q-23 0 -34 24zM1154 34q10 -34 -24 -34h-42q-27 0 -34 24l-102 313h-674l-102 -313q-7 -24 -34 -24h-42q-34 0 -24 34l437 1342q9 24 37 24h130q28 0 37 -24zM311 438h608l-277 854
h-54z" />
    <glyph glyph-name="Aacute" unicode="&#xc1;" 
d="M610 1510q-17 0 -24 9t0 25l120 252q11 24 34 24h18q17 0 24 -9t0 -25l-120 -252q-11 -24 -34 -24h-18zM1154 34q10 -34 -24 -34h-42q-27 0 -34 24l-102 313h-674l-102 -313q-7 -24 -34 -24h-42q-34 0 -24 34l437 1342q9 24 37 24h130q28 0 37 -24zM311 438h608l-277 854
h-54z" />
    <glyph glyph-name="Acircumflex" unicode="&#xc2;" 
d="M332 1558q-19 0 -23 11t8 25l224 246q15 16 36 16h76q21 0 36 -16l224 -246q12 -14 8 -25t-23 -11h-51q-17 0 -36 16l-196 192l-196 -192q-19 -16 -36 -16h-51zM1154 34q10 -34 -24 -34h-42q-27 0 -34 24l-102 313h-674l-102 -313q-7 -24 -34 -24h-42q-34 0 -24 34
l437 1342q9 24 37 24h130q28 0 37 -24zM311 438h608l-277 854h-54z" />
    <glyph glyph-name="Atilde" unicode="&#xc3;" 
d="M335 1698q-20 0 -17 24q8 63 50 99t113 36q46 0 86.5 -21.5t64.5 -47t56 -47t63 -21.5q62 0 83 64q6 19 22 19h42q10 0 16 -5.5t4 -14.5q-35 -139 -160 -139q-47 0 -88 21.5t-65.5 47.5t-56 47.5t-60.5 21.5q-68 0 -89 -65q-6 -19 -22 -19h-42zM1154 34q10 -34 -24 -34
h-42q-27 0 -34 24l-102 313h-674l-102 -313q-7 -24 -34 -24h-42q-34 0 -24 34l437 1342q9 24 37 24h130q28 0 37 -24zM311 438h608l-277 854h-54z" />
    <glyph glyph-name="Adieresis" unicode="&#xc4;" 
d="M447 1706q-28 0 -48 20.5t-20 47.5q0 26 20.5 46t47.5 20q28 0 48.5 -20t20.5 -46q0 -27 -20.5 -47.5t-48.5 -20.5zM785 1706q-28 0 -48 20.5t-20 47.5q0 26 20.5 46t47.5 20q28 0 48.5 -20t20.5 -46q0 -27 -20.5 -47.5t-48.5 -20.5zM1154 34q10 -34 -24 -34h-42
q-27 0 -34 24l-102 313h-674l-102 -313q-7 -24 -34 -24h-42q-34 0 -24 34l437 1342q9 24 37 24h130q28 0 37 -24zM311 438h608l-277 854h-54z" />
    <glyph glyph-name="Aring" unicode="&#xc5;" 
d="M615 1537q-69 0 -117 48.5t-48 115.5q0 66 48 114.5t117 48.5q70 0 118 -48.5t48 -114.5q0 -68 -48 -116t-118 -48zM615 1780q-33 0 -57 -23.5t-24 -56.5t24 -56.5t57 -23.5q34 0 58.5 23.5t23.5 56.5q1 33 -23.5 56.5t-58.5 23.5zM1154 34q10 -34 -24 -34h-42
q-27 0 -34 24l-102 313h-674l-102 -313q-7 -24 -34 -24h-42q-34 0 -24 34l437 1342q9 24 37 24h130q28 0 37 -24zM311 438h608l-277 854h-54z" />
    <glyph glyph-name="AE" unicode="&#xc6;" 
d="M1151 102q13 0 21.5 -8t8.5 -22v-42q0 -14 -8.5 -22t-21.5 -8h-480q-13 0 -21.5 8t-8.5 22v217h-396l-89 -223q-12 -24 -34 -24h-45q-17 0 -23.5 9.5t-0.5 24.5l536 1342q9 24 37 24h523q13 0 21.5 -8t8.5 -22v-42q0 -14 -8.5 -22t-21.5 -8h-406v-496h360q13 0 21.5 -8
t8.5 -22v-42q0 -14 -8.5 -22t-21.5 -8h-360v-598h408zM285 345h356v888z" />
    <glyph glyph-name="Ccedilla" unicode="&#xc7;" 
d="M1061 307q31 0 25 -35q-32 -160 -126.5 -228t-279.5 -73l-48 -52q66 -6 110 -46.5t44 -104.5q0 -75 -44.5 -122.5t-107 -61t-130.5 -1.5q-18 3 -18 22v41q0 10 6 15.5t16 4.5q83 -12 133 13.5t50 79.5q0 52 -55 74t-126 -7q-10 -4 -17 -0.5t-7 14.5v34q0 9 10 24l67 74
q-110 8 -184.5 42.5t-127.5 110.5t-77 201t-24 311v116q0 161 19 276.5t55.5 191.5t97 120t135.5 61.5t180 17.5q208 0 311 -67t138 -235q6 -35 -25 -35h-49q-30 0 -34 26q-20 124 -98.5 166.5t-245.5 42.5q-82 0 -135.5 -10.5t-103.5 -44t-78 -95t-44.5 -164t-16.5 -250.5
v-118q0 -148 16.5 -250.5t44.5 -164t78 -95t103.5 -44t135.5 -10.5q165 0 244.5 43t99.5 166q4 26 34 26h49z" />
    <glyph glyph-name="Egrave" unicode="&#xc8;" 
d="M468 1820h18q23 0 34 -24l120 -252q7 -16 0 -25t-24 -9h-18q-23 0 -34 24l-120 252q-7 16 0 25t24 9zM1041 102q13 0 21.5 -8t8.5 -22v-42q0 -14 -8.5 -22t-21.5 -8h-842q-13 0 -21.5 8t-8.5 22v1340q0 14 8.5 22t21.5 8h840q13 0 21.5 -8t8.5 -22v-42q0 -14 -8.5 -22
t-21.5 -8h-764v-502h708q13 0 21.5 -8t8.5 -22v-42q0 -14 -8.5 -22t-21.5 -8h-708v-592h766z" />
    <glyph glyph-name="Eacute" unicode="&#xc9;" 
d="M758 1820q17 0 24 -9t0 -25l-120 -252q-11 -24 -34 -24h-18q-17 0 -24 9t0 25l120 252q11 24 34 24h18zM1041 102q13 0 21.5 -8t8.5 -22v-42q0 -14 -8.5 -22t-21.5 -8h-842q-13 0 -21.5 8t-8.5 22v1340q0 14 8.5 22t21.5 8h840q13 0 21.5 -8t8.5 -22v-42q0 -14 -8.5 -22
t-21.5 -8h-764v-502h708q13 0 21.5 -8t8.5 -22v-42q0 -14 -8.5 -22t-21.5 -8h-708v-592h766z" />
    <glyph glyph-name="Ecircumflex" unicode="&#xca;" 
d="M653 1856q21 0 36 -16l224 -246q12 -14 8 -25t-23 -11h-51q-17 0 -36 16l-196 192l-196 -192q-19 -16 -36 -16h-51q-19 0 -23 11t8 25l224 246q15 16 36 16h76zM1041 102q13 0 21.5 -8t8.5 -22v-42q0 -14 -8.5 -22t-21.5 -8h-842q-13 0 -21.5 8t-8.5 22v1340q0 14 8.5 22
t21.5 8h840q13 0 21.5 -8t8.5 -22v-42q0 -14 -8.5 -22t-21.5 -8h-764v-502h708q13 0 21.5 -8t8.5 -22v-42q0 -14 -8.5 -22t-21.5 -8h-708v-592h766z" />
    <glyph glyph-name="Edieresis" unicode="&#xcb;" 
d="M447 1706q-28 0 -48 20.5t-20 47.5q0 26 20.5 46t47.5 20q28 0 48.5 -20t20.5 -46q0 -27 -20.5 -47.5t-48.5 -20.5zM785 1706q-28 0 -48 20.5t-20 47.5q0 26 20.5 46t47.5 20q28 0 48.5 -20t20.5 -46q0 -27 -20.5 -47.5t-48.5 -20.5zM1041 102q13 0 21.5 -8t8.5 -22v-42
q0 -14 -8.5 -22t-21.5 -8h-842q-13 0 -21.5 8t-8.5 22v1340q0 14 8.5 22t21.5 8h840q13 0 21.5 -8t8.5 -22v-42q0 -14 -8.5 -22t-21.5 -8h-764v-502h708q13 0 21.5 -8t8.5 -22v-42q0 -14 -8.5 -22t-21.5 -8h-708v-592h766z" />
    <glyph glyph-name="Igrave" unicode="&#xcc;" 
d="M468 1820h18q23 0 34 -24l120 -252q7 -16 0 -25t-24 -9h-18q-23 0 -34 24l-120 252q-7 16 0 25t24 9zM1065 1298h-397v-1196h397q13 0 21.5 -8t8.5 -22v-42q0 -14 -8.5 -22t-21.5 -8h-900q-13 0 -21.5 8t-8.5 22v42q0 14 8.5 22t21.5 8h397v1196h-397q-13 0 -21.5 8
t-8.5 22v42q0 14 8.5 22t21.5 8h900q13 0 21.5 -8t8.5 -22v-42q0 -14 -8.5 -22t-21.5 -8z" />
    <glyph glyph-name="Iacute" unicode="&#xcd;" 
d="M758 1820q17 0 24 -9t0 -25l-120 -252q-11 -24 -34 -24h-18q-17 0 -24 9t0 25l120 252q11 24 34 24h18zM1065 1298h-397v-1196h397q13 0 21.5 -8t8.5 -22v-42q0 -14 -8.5 -22t-21.5 -8h-900q-13 0 -21.5 8t-8.5 22v42q0 14 8.5 22t21.5 8h397v1196h-397q-13 0 -21.5 8
t-8.5 22v42q0 14 8.5 22t21.5 8h900q13 0 21.5 -8t8.5 -22v-42q0 -14 -8.5 -22t-21.5 -8z" />
    <glyph glyph-name="Icircumflex" unicode="&#xce;" 
d="M653 1856q21 0 36 -16l224 -246q12 -14 8 -25t-23 -11h-51q-17 0 -36 16l-196 192l-196 -192q-19 -16 -36 -16h-51q-19 0 -23 11t8 25l224 246q15 16 36 16h76zM1065 1298h-397v-1196h397q13 0 21.5 -8t8.5 -22v-42q0 -14 -8.5 -22t-21.5 -8h-900q-13 0 -21.5 8t-8.5 22
v42q0 14 8.5 22t21.5 8h397v1196h-397q-13 0 -21.5 8t-8.5 22v42q0 14 8.5 22t21.5 8h900q13 0 21.5 -8t8.5 -22v-42q0 -14 -8.5 -22t-21.5 -8z" />
    <glyph glyph-name="Idieresis" unicode="&#xcf;" 
d="M447 1706q-28 0 -48 20.5t-20 47.5q0 26 20.5 46t47.5 20q28 0 48.5 -20t20.5 -46q0 -27 -20.5 -47.5t-48.5 -20.5zM785 1706q-28 0 -48 20.5t-20 47.5q0 26 20.5 46t47.5 20q28 0 48.5 -20t20.5 -46q0 -27 -20.5 -47.5t-48.5 -20.5zM1065 1298h-397v-1196h397
q13 0 21.5 -8t8.5 -22v-42q0 -14 -8.5 -22t-21.5 -8h-900q-13 0 -21.5 8t-8.5 22v42q0 14 8.5 22t21.5 8h397v1196h-397q-13 0 -21.5 8t-8.5 22v42q0 14 8.5 22t21.5 8h900q13 0 21.5 -8t8.5 -22v-42q0 -14 -8.5 -22t-21.5 -8z" />
    <glyph glyph-name="Eth" unicode="&#xd0;" 
d="M446 1400q150 0 259 -31t178.5 -86t111 -144.5t57.5 -193.5t16 -245t-16 -245t-57.5 -193.5t-111 -144.5t-178.5 -86t-259 -31h-298q-14 0 -22 8t-8 22v629h-16q-14 0 -22 8.5t-8 21.5v30q0 13 8 21.5t22 8.5h16v621q0 14 8 22t22 8h298zM446 102q106 0 186 16.5
t137 51.5t94 82.5t58.5 117.5t30 148t8.5 182t-8.5 182t-30 148t-58.5 117.5t-94 82.5t-137 51.5t-186 16.5h-222v-549h362q14 0 22 -8.5t8 -21.5v-30q0 -13 -8 -21.5t-22 -8.5h-362v-557h222z" />
    <glyph glyph-name="Ntilde" unicode="&#xd1;" 
d="M335 1698q-20 0 -17 24q8 63 50 99t113 36q46 0 86.5 -21.5t64.5 -47t56 -47t63 -21.5q62 0 83 64q6 19 22 19h42q10 0 16 -5.5t4 -14.5q-35 -139 -160 -139q-47 0 -88 21.5t-65.5 47.5t-56 47.5t-60.5 21.5q-68 0 -89 -65q-6 -19 -22 -19h-42zM1047 1400q13 0 21.5 -8
t8.5 -22v-1340q0 -14 -8.5 -22t-21.5 -8h-96q-25 0 -36 20l-656 1264v-1254q0 -14 -8.5 -22t-21.5 -8h-46q-13 0 -21.5 8t-8.5 22v1340q0 14 8.5 22t21.5 8h98q26 0 36 -20l654 -1259v1249q0 14 8.5 22t21.5 8h46z" />
    <glyph glyph-name="Ograve" unicode="&#xd2;" 
d="M468 1820h18q23 0 34 -24l120 -252q7 -16 0 -25t-24 -9h-18q-23 0 -34 24l-120 252q-7 16 0 25t24 9zM615 1420q128 0 213.5 -28.5t148.5 -102t91.5 -204.5t28.5 -332v-117q0 -161 -19.5 -276.5t-56 -191t-97 -119.5t-134 -61.5t-175.5 -17.5t-175.5 17.5t-134 61.5
t-97 119.5t-56 191t-19.5 276.5v117q0 201 28.5 332t91.5 204.5t148.5 102t213.5 28.5zM615 1318q-68 0 -115.5 -7.5t-92.5 -29t-74 -60.5t-51.5 -101t-32.5 -152.5t-10 -213.5v-118q0 -123 10 -213.5t32.5 -152.5t51.5 -101t74 -60.5t92.5 -29t115.5 -7.5t115.5 7.5
t92.5 29t74 60.5t51.5 101t32.5 152.5t10 213.5v118q0 123 -10 213.5t-32.5 152.5t-51.5 101t-74 60.5t-92.5 29t-115.5 7.5z" />
    <glyph glyph-name="Oacute" unicode="&#xd3;" 
d="M758 1820q17 0 24 -9t0 -25l-120 -252q-11 -24 -34 -24h-18q-17 0 -24 9t0 25l120 252q11 24 34 24h18zM615 1420q128 0 213.5 -28.5t148.5 -102t91.5 -204.5t28.5 -332v-117q0 -161 -19.5 -276.5t-56 -191t-97 -119.5t-134 -61.5t-175.5 -17.5t-175.5 17.5t-134 61.5
t-97 119.5t-56 191t-19.5 276.5v117q0 201 28.5 332t91.5 204.5t148.5 102t213.5 28.5zM615 1318q-68 0 -115.5 -7.5t-92.5 -29t-74 -60.5t-51.5 -101t-32.5 -152.5t-10 -213.5v-118q0 -123 10 -213.5t32.5 -152.5t51.5 -101t74 -60.5t92.5 -29t115.5 -7.5t115.5 7.5
t92.5 29t74 60.5t51.5 101t32.5 152.5t10 213.5v118q0 123 -10 213.5t-32.5 152.5t-51.5 101t-74 60.5t-92.5 29t-115.5 7.5z" />
    <glyph glyph-name="Ocircumflex" unicode="&#xd4;" 
d="M653 1856q21 0 36 -16l224 -246q12 -14 8 -25t-23 -11h-51q-17 0 -36 16l-196 192l-196 -192q-19 -16 -36 -16h-51q-19 0 -23 11t8 25l224 246q15 16 36 16h76zM615 1420q128 0 213.5 -28.5t148.5 -102t91.5 -204.5t28.5 -332v-117q0 -161 -19.5 -276.5t-56 -191
t-97 -119.5t-134 -61.5t-175.5 -17.5t-175.5 17.5t-134 61.5t-97 119.5t-56 191t-19.5 276.5v117q0 201 28.5 332t91.5 204.5t148.5 102t213.5 28.5zM615 1318q-68 0 -115.5 -7.5t-92.5 -29t-74 -60.5t-51.5 -101t-32.5 -152.5t-10 -213.5v-118q0 -123 10 -213.5
t32.5 -152.5t51.5 -101t74 -60.5t92.5 -29t115.5 -7.5t115.5 7.5t92.5 29t74 60.5t51.5 101t32.5 152.5t10 213.5v118q0 123 -10 213.5t-32.5 152.5t-51.5 101t-74 60.5t-92.5 29t-115.5 7.5z" />
    <glyph glyph-name="Otilde" unicode="&#xd5;" 
d="M481 1857q46 0 86.5 -21.5t64.5 -47t56 -47t63 -21.5q62 0 83 64q6 19 22 19h42q10 0 16 -5.5t4 -14.5q-35 -139 -160 -139q-47 0 -88 21.5t-65.5 47.5t-56 47.5t-60.5 21.5q-68 0 -89 -65q-6 -19 -22 -19h-42q-20 0 -17 24q8 63 50 99t113 36zM615 1420
q128 0 213.5 -28.5t148.5 -102t91.5 -204.5t28.5 -332v-117q0 -161 -19.5 -276.5t-56 -191t-97 -119.5t-134 -61.5t-175.5 -17.5t-175.5 17.5t-134 61.5t-97 119.5t-56 191t-19.5 276.5v117q0 201 28.5 332t91.5 204.5t148.5 102t213.5 28.5zM615 1318q-68 0 -115.5 -7.5
t-92.5 -29t-74 -60.5t-51.5 -101t-32.5 -152.5t-10 -213.5v-118q0 -123 10 -213.5t32.5 -152.5t51.5 -101t74 -60.5t92.5 -29t115.5 -7.5t115.5 7.5t92.5 29t74 60.5t51.5 101t32.5 152.5t10 213.5v118q0 123 -10 213.5t-32.5 152.5t-51.5 101t-74 60.5t-92.5 29t-115.5 7.5
z" />
    <glyph glyph-name="Odieresis" unicode="&#xd6;" 
d="M447 1706q-28 0 -48 20.5t-20 47.5q0 26 20.5 46t47.5 20q28 0 48.5 -20t20.5 -46q0 -27 -20.5 -47.5t-48.5 -20.5zM785 1706q-28 0 -48 20.5t-20 47.5q0 26 20.5 46t47.5 20q28 0 48.5 -20t20.5 -46q0 -27 -20.5 -47.5t-48.5 -20.5zM615 1420q128 0 213.5 -28.5
t148.5 -102t91.5 -204.5t28.5 -332v-117q0 -161 -19.5 -276.5t-56 -191t-97 -119.5t-134 -61.5t-175.5 -17.5t-175.5 17.5t-134 61.5t-97 119.5t-56 191t-19.5 276.5v117q0 201 28.5 332t91.5 204.5t148.5 102t213.5 28.5zM615 1318q-68 0 -115.5 -7.5t-92.5 -29t-74 -60.5
t-51.5 -101t-32.5 -152.5t-10 -213.5v-118q0 -123 10 -213.5t32.5 -152.5t51.5 -101t74 -60.5t92.5 -29t115.5 -7.5t115.5 7.5t92.5 29t74 60.5t51.5 101t32.5 152.5t10 213.5v118q0 123 -10 213.5t-32.5 152.5t-51.5 101t-74 60.5t-92.5 29t-115.5 7.5z" />
    <glyph glyph-name="multiply" unicode="&#xd7;" 
d="M685 577l205 -205q22 -22 0 -42l-27 -28q-21 -22 -43 0l-205 205l-205 -206q-22 -20 -43 0l-28 29q-22 20 0 42l206 206l-205 205q-21 21 0 42l27 28q21 21 43 0l205 -205l205 205q20 22 42 0l28 -28q22 -21 0 -43z" />
    <glyph glyph-name="Oslash" unicode="&#xd8;" 
d="M945 1324q78 -71 115 -208t37 -363v-117q0 -161 -19.5 -276.5t-56 -191t-97 -119.5t-134 -61.5t-175.5 -17.5q-159 0 -252 44l-41 -92q-8 -22 -34 -22h-39q-17 0 -23 10t1 26l58 130q-77 71 -114.5 208t-37.5 362v117q0 201 28.5 332t91.5 204.5t148.5 102t213.5 28.5
q159 0 252 -44l41 92q8 22 34 22h39q17 0 23 -10t-1 -26zM239 636q0 -344 92 -465l494 1110q-71 37 -210 37q-68 0 -115.5 -7.5t-92.5 -29t-74 -60.5t-51.5 -101t-32.5 -152.5t-10 -213.5v-118zM991 636v118q0 344 -92 465l-494 -1110q71 -37 210 -37q68 0 115.5 7.5
t92.5 29t74 60.5t51.5 101t32.5 152.5t10 213.5z" />
    <glyph glyph-name="Ugrave" unicode="&#xd9;" 
d="M468 1820h18q23 0 34 -24l120 -252q7 -16 0 -25t-24 -9h-18q-23 0 -34 24l-120 252q-7 16 0 25t24 9zM1047 1400q13 0 21.5 -8t8.5 -22v-856q0 -147 -30.5 -252.5t-91.5 -169.5t-144.5 -93t-195.5 -29t-195.5 29t-144.5 93t-91.5 169.5t-30.5 252.5v856q0 14 8.5 22
t21.5 8h46q13 0 21.5 -8t8.5 -22v-851q0 -168 41 -268.5t117 -142t198 -41.5q183 0 269.5 102.5t86.5 349.5v851q0 14 8.5 22t21.5 8h46z" />
    <glyph glyph-name="Uacute" unicode="&#xda;" 
d="M758 1820q17 0 24 -9t0 -25l-120 -252q-11 -24 -34 -24h-18q-17 0 -24 9t0 25l120 252q11 24 34 24h18zM1047 1400q13 0 21.5 -8t8.5 -22v-856q0 -147 -30.5 -252.5t-91.5 -169.5t-144.5 -93t-195.5 -29t-195.5 29t-144.5 93t-91.5 169.5t-30.5 252.5v856q0 14 8.5 22
t21.5 8h46q13 0 21.5 -8t8.5 -22v-851q0 -168 41 -268.5t117 -142t198 -41.5q183 0 269.5 102.5t86.5 349.5v851q0 14 8.5 22t21.5 8h46z" />
    <glyph glyph-name="Ucircumflex" unicode="&#xdb;" 
d="M653 1856q21 0 36 -16l224 -246q12 -14 8 -25t-23 -11h-51q-17 0 -36 16l-196 192l-196 -192q-19 -16 -36 -16h-51q-19 0 -23 11t8 25l224 246q15 16 36 16h76zM1047 1400q13 0 21.5 -8t8.5 -22v-856q0 -147 -30.5 -252.5t-91.5 -169.5t-144.5 -93t-195.5 -29t-195.5 29
t-144.5 93t-91.5 169.5t-30.5 252.5v856q0 14 8.5 22t21.5 8h46q13 0 21.5 -8t8.5 -22v-851q0 -168 41 -268.5t117 -142t198 -41.5q183 0 269.5 102.5t86.5 349.5v851q0 14 8.5 22t21.5 8h46z" />
    <glyph glyph-name="Udieresis" unicode="&#xdc;" 
d="M447 1706q-28 0 -48 20.5t-20 47.5q0 26 20.5 46t47.5 20q28 0 48.5 -20t20.5 -46q0 -27 -20.5 -47.5t-48.5 -20.5zM785 1706q-28 0 -48 20.5t-20 47.5q0 26 20.5 46t47.5 20q28 0 48.5 -20t20.5 -46q0 -27 -20.5 -47.5t-48.5 -20.5zM1047 1400q13 0 21.5 -8t8.5 -22
v-856q0 -147 -30.5 -252.5t-91.5 -169.5t-144.5 -93t-195.5 -29t-195.5 29t-144.5 93t-91.5 169.5t-30.5 252.5v856q0 14 8.5 22t21.5 8h46q13 0 21.5 -8t8.5 -22v-851q0 -168 41 -268.5t117 -142t198 -41.5q183 0 269.5 102.5t86.5 349.5v851q0 14 8.5 22t21.5 8h46z" />
    <glyph glyph-name="Yacute" unicode="&#xdd;" 
d="M610 1510q-17 0 -24 9t0 25l120 252q11 24 34 24h18q17 0 24 -9t0 -25l-120 -252q-11 -24 -34 -24h-18zM1121 1400q18 0 23.5 -11t-3.5 -25l-473 -813v-521q0 -14 -8 -22t-22 -8h-46q-14 0 -22 8t-8 22v520l-473 814q-9 14 -3.5 25t23.5 11h47q23 0 36 -20l423 -730
l423 730q13 20 36 20h47z" />
    <glyph glyph-name="Thorn" unicode="&#xde;" 
d="M608 1124q108 0 194 -33t139.5 -91t81.5 -134.5t28 -165.5t-28 -165.5t-81.5 -134.5t-139.5 -91t-194 -33h-323v-246q0 -14 -8.5 -22t-21.5 -8h-46q-13 0 -21.5 8t-8.5 22v1340q0 14 8.5 22t21.5 8h46q13 0 21.5 -8t8.5 -22v-246h323zM597 378q158 0 253 79t95 243
t-95 243t-253 79h-312v-644h312z" />
    <glyph glyph-name="germandbls" unicode="&#xdf;" 
d="M786 770q321 -68 321 -369q0 -221 -136.5 -311t-447.5 -90h-134q-13 0 -21.5 8t-8.5 22v35q0 13 8.5 21.5t21.5 8.5h134q107 0 180 7t134.5 26.5t97 54t55 88.5t19.5 131q0 316 -472 316h-148q-13 0 -21.5 8t-8.5 22v35q0 13 8.5 21.5t21.5 8.5h148q192 0 292 61t100 205
q0 118 -83.5 177.5t-271.5 59.5q-98 0 -165 -20.5t-101.5 -59.5t-48.5 -83.5t-14 -103.5v-1019q0 -14 -8.5 -22t-21.5 -8h-42q-13 0 -21.5 8t-8.5 22v1019q0 63 12 114t42 96t78.5 75.5t124 48t174.5 17.5q453 0 453 -334q0 -114 -56.5 -183.5t-184.5 -112.5z" />
    <glyph glyph-name="agrave" unicode="&#xe0;" 
d="M564 1114l-120 252q-7 16 0 25t24 9h18q23 0 34 -24l120 -252q7 -16 0 -25t-24 -9h-18q-23 0 -34 24zM1103 84q32 -2 32 -38v-16q0 -13 -1.5 -19t-11.5 -12t-29 -7q-172 -13 -176 147q-181 -163 -458 -163q-168 0 -244 75t-76 200q0 243 295 286l368 56q67 10 90 18.5
t27 25.5v11q0 138 -72.5 199t-223.5 61q-299 0 -322 -189q-3 -25 -31 -25h-44q-30 0 -27 30q29 278 422 278q400 0 400 -340v-500q0 -73 82 -78zM245 253q0 -180 225 -180q267 0 449 177v282q-2 -12 -18 -18.5t-61 -13.5l-357 -53q-137 -21 -187.5 -67t-50.5 -127z" />
    <glyph glyph-name="aacute" unicode="&#xe1;" 
d="M610 1090q-17 0 -24 9t0 25l120 252q11 24 34 24h18q17 0 24 -9t0 -25l-120 -252q-11 -24 -34 -24h-18zM1103 84q32 -2 32 -38v-16q0 -13 -1.5 -19t-11.5 -12t-29 -7q-172 -13 -176 147q-181 -163 -458 -163q-168 0 -244 75t-76 200q0 243 295 286l368 56q67 10 90 18.5
t27 25.5v11q0 138 -72.5 199t-223.5 61q-299 0 -322 -189q-3 -25 -31 -25h-44q-30 0 -27 30q29 278 422 278q400 0 400 -340v-500q0 -73 82 -78zM245 253q0 -180 225 -180q267 0 449 177v282q-2 -12 -18 -18.5t-61 -13.5l-357 -53q-137 -21 -187.5 -67t-50.5 -127z" />
    <glyph glyph-name="acircumflex" unicode="&#xe2;" 
d="M332 1138q-19 0 -23 11t8 25l224 246q15 16 36 16h76q21 0 36 -16l224 -246q12 -14 8 -25t-23 -11h-51q-17 0 -36 16l-196 192l-196 -192q-19 -16 -36 -16h-51zM1103 84q32 -2 32 -38v-16q0 -13 -1.5 -19t-11.5 -12t-29 -7q-172 -13 -176 147q-181 -163 -458 -163
q-168 0 -244 75t-76 200q0 243 295 286l368 56q67 10 90 18.5t27 25.5v11q0 138 -72.5 199t-223.5 61q-299 0 -322 -189q-3 -25 -31 -25h-44q-30 0 -27 30q29 278 422 278q400 0 400 -340v-500q0 -73 82 -78zM245 253q0 -180 225 -180q267 0 449 177v282q-2 -12 -18 -18.5
t-61 -13.5l-357 -53q-137 -21 -187.5 -67t-50.5 -127z" />
    <glyph glyph-name="atilde" unicode="&#xe3;" 
d="M335 1278q-20 0 -17 24q8 63 50 99t113 36q46 0 86.5 -21.5t64.5 -47t56 -47t63 -21.5q62 0 83 64q6 19 22 19h42q10 0 16 -5.5t4 -14.5q-35 -139 -160 -139q-47 0 -88 21.5t-65.5 47.5t-56 47.5t-60.5 21.5q-68 0 -89 -65q-6 -19 -22 -19h-42zM1103 84q32 -2 32 -38v-16
q0 -13 -1.5 -19t-11.5 -12t-29 -7q-172 -13 -176 147q-181 -163 -458 -163q-168 0 -244 75t-76 200q0 243 295 286l368 56q67 10 90 18.5t27 25.5v11q0 138 -72.5 199t-223.5 61q-299 0 -322 -189q-3 -25 -31 -25h-44q-30 0 -27 30q29 278 422 278q400 0 400 -340v-500
q0 -73 82 -78zM245 253q0 -180 225 -180q267 0 449 177v282q-2 -12 -18 -18.5t-61 -13.5l-357 -53q-137 -21 -187.5 -67t-50.5 -127z" />
    <glyph glyph-name="adieresis" unicode="&#xe4;" 
d="M447 1286q-28 0 -48 20.5t-20 47.5q0 26 20.5 46t47.5 20q28 0 48.5 -20t20.5 -46q0 -27 -20.5 -47.5t-48.5 -20.5zM785 1286q-28 0 -48 20.5t-20 47.5q0 26 20.5 46t47.5 20q28 0 48.5 -20t20.5 -46q0 -27 -20.5 -47.5t-48.5 -20.5zM1103 84q32 -2 32 -38v-16
q0 -13 -1.5 -19t-11.5 -12t-29 -7q-172 -13 -176 147q-181 -163 -458 -163q-168 0 -244 75t-76 200q0 243 295 286l368 56q67 10 90 18.5t27 25.5v11q0 138 -72.5 199t-223.5 61q-299 0 -322 -189q-3 -25 -31 -25h-44q-30 0 -27 30q29 278 422 278q400 0 400 -340v-500
q0 -73 82 -78zM245 253q0 -180 225 -180q267 0 449 177v282q-2 -12 -18 -18.5t-61 -13.5l-357 -53q-137 -21 -187.5 -67t-50.5 -127z" />
    <glyph glyph-name="aring" unicode="&#xe5;" 
d="M615 1117q-69 0 -117 48.5t-48 115.5q0 66 48 114.5t117 48.5q70 0 118 -48.5t48 -114.5q0 -68 -48 -116t-118 -48zM615 1360q-33 0 -57 -23.5t-24 -56.5t24 -56.5t57 -23.5q34 0 58.5 23.5t23.5 56.5q1 33 -23.5 56.5t-58.5 23.5zM1103 84q32 -2 32 -38v-16
q0 -13 -1.5 -19t-11.5 -12t-29 -7q-172 -13 -176 147q-181 -163 -458 -163q-168 0 -244 75t-76 200q0 243 295 286l368 56q67 10 90 18.5t27 25.5v11q0 138 -72.5 199t-223.5 61q-299 0 -322 -189q-3 -25 -31 -25h-44q-30 0 -27 30q29 278 422 278q400 0 400 -340v-500
q0 -73 82 -78zM245 253q0 -180 225 -180q267 0 449 177v282q-2 -12 -18 -18.5t-61 -13.5l-357 -53q-137 -21 -187.5 -67t-50.5 -127z" />
    <glyph glyph-name="ae" unicode="&#xe6;" 
d="M914 72q73 0 115 27.5t85 83.5l55 -65q-39 -66 -104.5 -105t-144.5 -39q-201 0 -285 175q-63 -89 -139.5 -132t-188.5 -43q-134 0 -198 70.5t-64 197.5q0 120 61 191t213 86l254 26q0 359 -181 359q-187 0 -206 -203q-3 -25 -31 -25h-43q-30 0 -27 30q12 149 95.5 222.5
t208.5 73.5q84 0 149 -45t101 -123q84 168 253 168q71 0 124 -25.5t84.5 -67.5t51 -104.5t26.5 -126.5t7 -143q0 -51 -10 -71.5t-43 -20.5h-453v-33q3 -61 12 -110t27 -92.5t43.5 -73t64 -46t88.5 -16.5zM892 904q-67 0 -114 -49.5t-70 -125t-29 -174.5v-17h413
q2 77 -7 139.5t-30.5 115t-63 82t-99.5 29.5zM573 226v224l-215 -19q-114 -10 -164 -56t-50 -125q0 -176 168 -176q202 0 261 152z" />
    <glyph glyph-name="ccedilla" unicode="&#xe7;" 
d="M1062 222q26 -17 9 -42q-68 -98 -174 -151.5t-235 -54.5l-51 -55q66 -6 110 -46.5t44 -104.5q0 -75 -44.5 -122.5t-107 -61t-130.5 -1.5q-18 3 -18 22v41q0 10 6 15.5t16 4.5q83 -12 133 13.5t50 79.5q0 52 -55 74t-126 -7q-11 -4 -17.5 -0.5t-6.5 14.5v34q0 9 10 24
l78 86q-178 35 -288 173.5t-110 330.5q0 221 142.5 367.5t359.5 146.5q131 0 238 -54t176 -152q17 -25 -9 -42l-27 -18q-24 -15 -40 7q-124 169 -337 169q-175 0 -290 -119.5t-115 -304.5t115 -304.5t290 -119.5q213 0 337 169q16 22 40 7z" />
    <glyph glyph-name="egrave" unicode="&#xe8;" 
d="M554 1114l-120 252q-7 16 0 25t24 9h18q23 0 34 -24l120 -252q7 -16 0 -25t-24 -9h-18q-23 0 -34 24zM616 1002q138 0 244 -68t159.5 -175t53.5 -231q0 -51 -10 -71.5t-43 -20.5h-782q19 -159 128.5 -263t275.5 -104q168 0 291 119q21 21 38 4l21 -21q26 -25 4 -47
q-150 -150 -366 -150q-146 0 -259 68.5t-173.5 185t-60.5 260.5q0 219 134.5 366.5t344.5 147.5zM615 908q-154 0 -258.5 -107.5t-119.5 -266.5h746q-2 154 -106 264t-262 110z" />
    <glyph glyph-name="eacute" unicode="&#xe9;" 
d="M600 1090q-17 0 -24 9t0 25l120 252q11 24 34 24h18q17 0 24 -9t0 -25l-120 -252q-11 -24 -34 -24h-18zM616 1002q138 0 244 -68t159.5 -175t53.5 -231q0 -51 -10 -71.5t-43 -20.5h-782q19 -159 128.5 -263t275.5 -104q168 0 291 119q21 21 38 4l21 -21q26 -25 4 -47
q-150 -150 -366 -150q-146 0 -259 68.5t-173.5 185t-60.5 260.5q0 219 134.5 366.5t344.5 147.5zM615 908q-154 0 -258.5 -107.5t-119.5 -266.5h746q-2 154 -106 264t-262 110z" />
    <glyph glyph-name="ecircumflex" unicode="&#xea;" 
d="M322 1138q-19 0 -23 11t8 25l224 246q15 16 36 16h76q21 0 36 -16l224 -246q12 -14 8 -25t-23 -11h-51q-17 0 -36 16l-196 192l-196 -192q-19 -16 -36 -16h-51zM616 1002q138 0 244 -68t159.5 -175t53.5 -231q0 -51 -10 -71.5t-43 -20.5h-782q19 -159 128.5 -263
t275.5 -104q168 0 291 119q21 21 38 4l21 -21q26 -25 4 -47q-150 -150 -366 -150q-146 0 -259 68.5t-173.5 185t-60.5 260.5q0 219 134.5 366.5t344.5 147.5zM615 908q-154 0 -258.5 -107.5t-119.5 -266.5h746q-2 154 -106 264t-262 110z" />
    <glyph glyph-name="edieresis" unicode="&#xeb;" 
d="M437 1286q-28 0 -48 20.5t-20 47.5q0 26 20.5 46t47.5 20q28 0 48.5 -20t20.5 -46q0 -27 -20.5 -47.5t-48.5 -20.5zM775 1286q-28 0 -48 20.5t-20 47.5q0 26 20.5 46t47.5 20q28 0 48.5 -20t20.5 -46q0 -27 -20.5 -47.5t-48.5 -20.5zM616 1002q138 0 244 -68t159.5 -175
t53.5 -231q0 -51 -10 -71.5t-43 -20.5h-782q19 -159 128.5 -263t275.5 -104q168 0 291 119q21 21 38 4l21 -21q26 -25 4 -47q-150 -150 -366 -150q-146 0 -259 68.5t-173.5 185t-60.5 260.5q0 219 134.5 366.5t344.5 147.5zM615 908q-154 0 -258.5 -107.5t-119.5 -266.5h746
q-2 154 -106 264t-262 110z" />
    <glyph glyph-name="igrave" unicode="&#xec;" 
d="M564 1114l-120 252q-7 16 0 25t24 9h18q23 0 34 -24l120 -252q7 -16 0 -25t-24 -9h-18q-23 0 -34 24zM1041 100q13 0 21.5 -8t8.5 -22v-40q0 -14 -8.5 -22t-21.5 -8h-842q-13 0 -21.5 8t-8.5 22v40q0 14 8.5 22t21.5 8h396v780h-346q-13 0 -21.5 8t-8.5 22v40
q0 14 8.5 22t21.5 8h418q13 0 21.5 -8t8.5 -22v-850h344z" />
    <glyph glyph-name="iacute" unicode="&#xed;" 
d="M610 1090q-17 0 -24 9t0 25l120 252q11 24 34 24h18q17 0 24 -9t0 -25l-120 -252q-11 -24 -34 -24h-18zM1041 100q13 0 21.5 -8t8.5 -22v-40q0 -14 -8.5 -22t-21.5 -8h-842q-13 0 -21.5 8t-8.5 22v40q0 14 8.5 22t21.5 8h396v780h-346q-13 0 -21.5 8t-8.5 22v40
q0 14 8.5 22t21.5 8h418q13 0 21.5 -8t8.5 -22v-850h344z" />
    <glyph glyph-name="icircumflex" unicode="&#xee;" 
d="M332 1138q-19 0 -23 11t8 25l224 246q15 16 36 16h76q21 0 36 -16l224 -246q12 -14 8 -25t-23 -11h-51q-17 0 -36 16l-196 192l-196 -192q-19 -16 -36 -16h-51zM1041 100q13 0 21.5 -8t8.5 -22v-40q0 -14 -8.5 -22t-21.5 -8h-842q-13 0 -21.5 8t-8.5 22v40q0 14 8.5 22
t21.5 8h396v780h-346q-13 0 -21.5 8t-8.5 22v40q0 14 8.5 22t21.5 8h418q13 0 21.5 -8t8.5 -22v-850h344z" />
    <glyph glyph-name="idieresis" unicode="&#xef;" 
d="M447 1286q-28 0 -48 20.5t-20 47.5q0 26 20.5 46t47.5 20q28 0 48.5 -20t20.5 -46q0 -27 -20.5 -47.5t-48.5 -20.5zM785 1286q-28 0 -48 20.5t-20 47.5q0 26 20.5 46t47.5 20q28 0 48.5 -20t20.5 -46q0 -27 -20.5 -47.5t-48.5 -20.5zM1041 100q13 0 21.5 -8t8.5 -22v-40
q0 -14 -8.5 -22t-21.5 -8h-842q-13 0 -21.5 8t-8.5 22v40q0 14 8.5 22t21.5 8h396v780h-346q-13 0 -21.5 8t-8.5 22v40q0 14 8.5 22t21.5 8h418q13 0 21.5 -8t8.5 -22v-850h344z" />
    <glyph glyph-name="eth" unicode="&#xf0;" 
d="M1123 1240q32 3 32 -28v-28q0 -29 -28 -32l-36 -5v-1117q0 -14 -8.5 -22t-21.5 -8h-39q-27 0 -30 30l-10 137q-122 -193 -379 -193q-212 0 -348 145t-136 369q0 226 132 370t352 144q139 0 233 -59.5t139 -154.5h14v343l-220 -33q-32 -3 -32 28v28q0 29 28 32l224 34v150
q0 14 8.5 22t21.5 8h42q13 0 21.5 -8t8.5 -22v-135zM613 66q174 0 281.5 119t107.5 305t-107.5 303t-281.5 117q-183 0 -289.5 -116.5t-106.5 -303.5q0 -188 107 -306t289 -118z" />
    <glyph glyph-name="ntilde" unicode="&#xf1;" 
d="M335 1278q-20 0 -17 24q8 63 50 99t113 36q46 0 86.5 -21.5t64.5 -47t56 -47t63 -21.5q62 0 83 64q6 19 22 19h42q10 0 16 -5.5t4 -14.5q-35 -139 -160 -139q-47 0 -88 21.5t-65.5 47.5t-56 47.5t-60.5 21.5q-68 0 -89 -65q-6 -19 -22 -19h-42zM681 1002q362 0 362 -380
v-592q0 -14 -8.5 -22t-21.5 -8h-42q-13 0 -21.5 8t-8.5 22v598q0 282 -279 282q-85 0 -160.5 -32.5t-119 -76t-68.5 -81t-25 -54.5v-636q0 -14 -8.5 -22t-21.5 -8h-42q-13 0 -21.5 8t-8.5 22v920q0 14 8.5 22t21.5 8h34q27 0 30 -30l8 -142h19q44 80 144.5 137t228.5 57z
" />
    <glyph glyph-name="ograve" unicode="&#xf2;" 
d="M468 1400h18q23 0 34 -24l120 -252q7 -16 0 -25t-24 -9h-18q-23 0 -34 24l-120 252q-7 16 0 25t24 9zM615 -26q-212 0 -351.5 147t-139.5 367t139.5 367t351.5 147t351.5 -147t139.5 -367t-139.5 -367t-351.5 -147zM615 64q171 0 282 119.5t111 304.5t-111 304.5
t-282 119.5t-282 -119.5t-111 -304.5t111 -304.5t282 -119.5z" />
    <glyph glyph-name="oacute" unicode="&#xf3;" 
d="M758 1400q17 0 24 -9t0 -25l-120 -252q-11 -24 -34 -24h-18q-17 0 -24 9t0 25l120 252q11 24 34 24h18zM615 -26q-212 0 -351.5 147t-139.5 367t139.5 367t351.5 147t351.5 -147t139.5 -367t-139.5 -367t-351.5 -147zM615 64q171 0 282 119.5t111 304.5t-111 304.5
t-282 119.5t-282 -119.5t-111 -304.5t111 -304.5t282 -119.5z" />
    <glyph glyph-name="ocircumflex" unicode="&#xf4;" 
d="M653 1436q21 0 36 -16l224 -246q12 -14 8 -25t-23 -11h-51q-17 0 -36 16l-196 192l-196 -192q-19 -16 -36 -16h-51q-19 0 -23 11t8 25l224 246q15 16 36 16h76zM615 -26q-212 0 -351.5 147t-139.5 367t139.5 367t351.5 147t351.5 -147t139.5 -367t-139.5 -367
t-351.5 -147zM615 64q171 0 282 119.5t111 304.5t-111 304.5t-282 119.5t-282 -119.5t-111 -304.5t111 -304.5t282 -119.5z" />
    <glyph glyph-name="otilde" unicode="&#xf5;" 
d="M481 1437q46 0 86.5 -21.5t64.5 -47t56 -47t63 -21.5q62 0 83 64q6 19 22 19h42q10 0 16 -5.5t4 -14.5q-35 -139 -160 -139q-47 0 -88 21.5t-65.5 47.5t-56 47.5t-60.5 21.5q-68 0 -89 -65q-6 -19 -22 -19h-42q-20 0 -17 24q8 63 50 99t113 36zM615 -26
q-212 0 -351.5 147t-139.5 367t139.5 367t351.5 147t351.5 -147t139.5 -367t-139.5 -367t-351.5 -147zM615 64q171 0 282 119.5t111 304.5t-111 304.5t-282 119.5t-282 -119.5t-111 -304.5t111 -304.5t282 -119.5z" />
    <glyph glyph-name="odieresis" unicode="&#xf6;" 
d="M447 1286q-28 0 -48 20.5t-20 47.5q0 26 20.5 46t47.5 20q28 0 48.5 -20t20.5 -46q0 -27 -20.5 -47.5t-48.5 -20.5zM785 1286q-28 0 -48 20.5t-20 47.5q0 26 20.5 46t47.5 20q28 0 48.5 -20t20.5 -46q0 -27 -20.5 -47.5t-48.5 -20.5zM615 -26q-212 0 -351.5 147
t-139.5 367t139.5 367t351.5 147t351.5 -147t139.5 -367t-139.5 -367t-351.5 -147zM615 64q171 0 282 119.5t111 304.5t-111 304.5t-282 119.5t-282 -119.5t-111 -304.5t111 -304.5t282 -119.5z" />
    <glyph glyph-name="divide" unicode="&#xf7;" 
d="M615 729q-42 0 -69.5 27.5t-27.5 69.5t27.5 70.5t69.5 28.5t69.5 -28.5t27.5 -70.5t-27.5 -69.5t-69.5 -27.5zM955 617q13 0 21.5 -8.5t8.5 -21.5v-39q0 -14 -8.5 -22t-21.5 -8h-680q-13 0 -21.5 8t-8.5 22v39q0 13 8.5 21.5t21.5 8.5h680zM615 209q-42 0 -69.5 27.5
t-27.5 69.5t27.5 70.5t69.5 28.5t69.5 -28.5t27.5 -70.5t-27.5 -69.5t-69.5 -27.5z" />
    <glyph glyph-name="oslash" unicode="&#xf8;" 
d="M870 933q110 -66 173 -183.5t63 -261.5q0 -220 -139.5 -367t-351.5 -147q-93 0 -172 30l-56 -122q-10 -22 -34 -22h-36q-17 0 -23 10t1 26l67 146q-111 66 -174.5 183.5t-63.5 262.5q0 220 139.5 367t351.5 147q91 0 172 -29l55 121q10 22 34 22h39q17 0 23 -10t-1 -26z
M222 488q0 -118 47.5 -212t130.5 -150l349 764q-66 22 -134 22q-171 0 -282 -119.5t-111 -304.5zM615 64q171 0 282 119.5t111 304.5q0 118 -47 211.5t-130 149.5l-350 -763q64 -22 134 -22z" />
    <glyph glyph-name="ugrave" unicode="&#xf9;" 
d="M564 1114l-120 252q-7 16 0 25t24 9h18q23 0 34 -24l120 -252q7 -16 0 -25t-24 -9h-18q-23 0 -34 24zM1013 980q13 0 21.5 -8t8.5 -22v-920q0 -14 -8.5 -22t-21.5 -8h-34q-28 0 -30 30l-8 142h-19q-44 -80 -144.5 -137t-228.5 -57q-362 0 -362 380v592q0 14 8.5 22
t21.5 8h42q13 0 21.5 -8t8.5 -22v-598q0 -282 279 -282q85 0 160.5 32.5t119 76t68.5 81t25 54.5v636q0 14 8.5 22t21.5 8h42z" />
    <glyph glyph-name="uacute" unicode="&#xfa;" 
d="M610 1090q-17 0 -24 9t0 25l120 252q11 24 34 24h18q17 0 24 -9t0 -25l-120 -252q-11 -24 -34 -24h-18zM1013 980q13 0 21.5 -8t8.5 -22v-920q0 -14 -8.5 -22t-21.5 -8h-34q-28 0 -30 30l-8 142h-19q-44 -80 -144.5 -137t-228.5 -57q-362 0 -362 380v592q0 14 8.5 22
t21.5 8h42q13 0 21.5 -8t8.5 -22v-598q0 -282 279 -282q85 0 160.5 32.5t119 76t68.5 81t25 54.5v636q0 14 8.5 22t21.5 8h42z" />
    <glyph glyph-name="ucircumflex" unicode="&#xfb;" 
d="M332 1138q-19 0 -23 11t8 25l224 246q15 16 36 16h76q21 0 36 -16l224 -246q12 -14 8 -25t-23 -11h-51q-17 0 -36 16l-196 192l-196 -192q-19 -16 -36 -16h-51zM1013 980q13 0 21.5 -8t8.5 -22v-920q0 -14 -8.5 -22t-21.5 -8h-34q-28 0 -30 30l-8 142h-19
q-44 -80 -144.5 -137t-228.5 -57q-362 0 -362 380v592q0 14 8.5 22t21.5 8h42q13 0 21.5 -8t8.5 -22v-598q0 -282 279 -282q85 0 160.5 32.5t119 76t68.5 81t25 54.5v636q0 14 8.5 22t21.5 8h42z" />
    <glyph glyph-name="udieresis" unicode="&#xfc;" 
d="M447 1286q-28 0 -48 20.5t-20 47.5q0 26 20.5 46t47.5 20q28 0 48.5 -20t20.5 -46q0 -27 -20.5 -47.5t-48.5 -20.5zM785 1286q-28 0 -48 20.5t-20 47.5q0 26 20.5 46t47.5 20q28 0 48.5 -20t20.5 -46q0 -27 -20.5 -47.5t-48.5 -20.5zM1013 980q13 0 21.5 -8t8.5 -22v-920
q0 -14 -8.5 -22t-21.5 -8h-34q-28 0 -30 30l-8 142h-19q-44 -80 -144.5 -137t-228.5 -57q-362 0 -362 380v592q0 14 8.5 22t21.5 8h42q13 0 21.5 -8t8.5 -22v-598q0 -282 279 -282q85 0 160.5 32.5t119 76t68.5 81t25 54.5v636q0 14 8.5 22t21.5 8h42z" />
    <glyph glyph-name="yacute" unicode="&#xfd;" 
d="M758 1400q17 0 24 -9t0 -25l-120 -252q-11 -24 -34 -24h-18q-17 0 -24 9t0 25l120 252q11 24 34 24h18zM1072 980q17 0 24 -9t0 -25l-586 -1302q-11 -24 -36 -24h-43q-17 0 -24 9t0 25l153 346l-426 946q-7 16 0 25t24 9h43q25 0 36 -24l378 -847l378 847q11 24 36 24h43
z" />
    <glyph glyph-name="thorn" unicode="&#xfe;" 
d="M615 999q218 0 341 -141.5t123 -369.5q0 -225 -127 -368t-337 -143q-250 0 -371 193l-7 -98v-422q0 -14 -8.5 -22t-21.5 -8h-42q-13 0 -21.5 8t-8.5 22v1720q0 14 8.5 22t21.5 8h42q13 0 21.5 -8t8.5 -22v-582h16q43 93 136.5 152t225.5 59zM606 69q175 1 273.5 113.5
t101.5 297.5v10v10q-3 184 -101.5 295t-273.5 112q-166 -1 -272 -115t-108 -295v-7v-7q2 -182 108 -297.5t272 -116.5z" />
    <glyph glyph-name="ydieresis" unicode="&#xff;" 
d="M447 1286q-28 0 -48 20.5t-20 47.5q0 26 20.5 46t47.5 20q28 0 48.5 -20t20.5 -46q0 -27 -20.5 -47.5t-48.5 -20.5zM785 1286q-28 0 -48 20.5t-20 47.5q0 26 20.5 46t47.5 20q28 0 48.5 -20t20.5 -46q0 -27 -20.5 -47.5t-48.5 -20.5zM1072 980q17 0 24 -9t0 -25
l-586 -1302q-11 -24 -36 -24h-43q-17 0 -24 9t0 25l153 346l-426 946q-7 16 0 25t24 9h43q25 0 36 -24l378 -847l378 847q11 24 36 24h43z" />
    <glyph glyph-name="Amacron" unicode="&#x100;" 
d="M373 1726q-13 0 -21.5 8t-8.5 22v30q0 14 8.5 22t21.5 8h484q13 0 21.5 -8t8.5 -22v-30q0 -14 -8.5 -22t-21.5 -8h-484zM1154 34q10 -34 -24 -34h-42q-27 0 -34 24l-102 313h-674l-102 -313q-7 -24 -34 -24h-42q-34 0 -24 34l437 1342q9 24 37 24h130q28 0 37 -24z
M311 438h608l-277 854h-54z" />
    <glyph glyph-name="amacron" unicode="&#x101;" 
d="M373 1306q-13 0 -21.5 8t-8.5 22v30q0 14 8.5 22t21.5 8h484q13 0 21.5 -8t8.5 -22v-30q0 -14 -8.5 -22t-21.5 -8h-484zM1103 84q32 -2 32 -38v-16q0 -13 -1.5 -19t-11.5 -12t-29 -7q-172 -13 -176 147q-181 -163 -458 -163q-168 0 -244 75t-76 200q0 243 295 286l368 56
q67 10 90 18.5t27 25.5v11q0 138 -72.5 199t-223.5 61q-299 0 -322 -189q-3 -25 -31 -25h-44q-30 0 -27 30q29 278 422 278q400 0 400 -340v-500q0 -73 82 -78zM245 253q0 -180 225 -180q267 0 449 177v282q-2 -12 -18 -18.5t-61 -13.5l-357 -53q-137 -21 -187.5 -67
t-50.5 -127z" />
    <glyph glyph-name="Abreve" unicode="&#x102;" 
d="M615 1561q-112 0 -182 65.5t-80 169.5q-3 29 27 29h27q26 0 32 -27q14 -65 59.5 -104.5t116.5 -39.5t116.5 39.5t59.5 104.5q6 27 32 27h27q30 0 27 -29q-10 -104 -80 -169.5t-182 -65.5zM1154 34q10 -34 -24 -34h-42q-27 0 -34 24l-102 313h-674l-102 -313
q-7 -24 -34 -24h-42q-34 0 -24 34l437 1342q9 24 37 24h130q28 0 37 -24zM311 438h608l-277 854h-54z" />
    <glyph glyph-name="abreve" unicode="&#x103;" 
d="M615 1141q-112 0 -182 65.5t-80 169.5q-3 29 27 29h27q26 0 32 -27q14 -65 59.5 -104.5t116.5 -39.5t116.5 39.5t59.5 104.5q6 27 32 27h27q30 0 27 -29q-10 -104 -80 -169.5t-182 -65.5zM1103 84q32 -2 32 -38v-16q0 -13 -1.5 -19t-11.5 -12t-29 -7q-172 -13 -176 147
q-181 -163 -458 -163q-168 0 -244 75t-76 200q0 243 295 286l368 56q67 10 90 18.5t27 25.5v11q0 138 -72.5 199t-223.5 61q-299 0 -322 -189q-3 -25 -31 -25h-44q-30 0 -27 30q29 278 422 278q400 0 400 -340v-500q0 -73 82 -78zM245 253q0 -180 225 -180q267 0 449 177
v282q-2 -12 -18 -18.5t-61 -13.5l-357 -53q-137 -21 -187.5 -67t-50.5 -127z" />
    <glyph glyph-name="Aogonek" unicode="&#x104;" 
d="M1154 34q10 -34 -24 -34h-34q-107 -7 -176.5 -66t-69.5 -128q0 -78 50.5 -108t137.5 -10v-84q-26 -12 -62 -16t-75.5 5t-73 29.5t-55.5 62t-22 98.5q0 61 27 112t71 85t92 56t100 33l-88 268h-674l-102 -313q-7 -24 -34 -24h-42q-34 0 -24 34l437 1342q9 24 37 24h130
q28 0 37 -24zM311 438h608l-277 854h-54z" />
    <glyph glyph-name="aogonek" unicode="&#x105;" 
d="M1103 84q32 -2 32 -38v-16q0 -13 -1.5 -19t-11.5 -12t-29 -7q-10 -1 -29 -1q-103 -7 -162.5 -65.5t-59.5 -127.5q0 -78 50.5 -108t137.5 -10v-84q-26 -12 -61.5 -16t-75 5t-73 29.5t-55.5 62t-22 98.5q0 92 58 158.5t149 102.5q-31 37 -33 103q-181 -163 -458 -163
q-168 0 -244 75t-76 200q0 243 295 286l368 56q67 10 90 18.5t27 25.5v11q0 138 -72.5 199t-223.5 61q-299 0 -322 -189q-3 -25 -31 -25h-44q-30 0 -27 30q29 278 422 278q400 0 400 -340v-500q0 -73 82 -78zM245 253q0 -180 225 -180q267 0 449 177v282q-2 -12 -18 -18.5
t-61 -13.5l-357 -53q-137 -21 -187.5 -67t-50.5 -127z" />
    <glyph glyph-name="Cacute" unicode="&#x106;" 
d="M779 1820q17 0 24 -9t0 -25l-120 -252q-11 -24 -34 -24h-18q-17 0 -24 9t0 25l120 252q11 24 34 24h18zM634 72q165 0 244.5 43t99.5 166q4 26 34 26h49q31 0 25 -35q-35 -168 -138 -235t-311 -67q-105 0 -180 17.5t-135.5 61.5t-97 120t-55.5 191.5t-19 276.5v116
q0 161 19 276.5t55.5 191.5t97 120t135.5 61.5t180 17.5q208 0 311 -67t138 -235q6 -35 -25 -35h-49q-30 0 -34 26q-20 124 -98.5 166.5t-245.5 42.5q-82 0 -135.5 -10.5t-103.5 -44t-78 -95t-44.5 -164t-16.5 -250.5v-118q0 -148 16.5 -250.5t44.5 -164t78 -95t103.5 -44
t135.5 -10.5z" />
    <glyph glyph-name="cacute" unicode="&#x107;" 
d="M758 1400q17 0 24 -9t0 -25l-120 -252q-11 -24 -34 -24h-18q-17 0 -24 9t0 25l120 252q11 24 34 24h18zM658 64q213 0 337 169q16 22 40 7l27 -18q26 -17 9 -42q-69 -98 -176 -152t-238 -54q-217 0 -359.5 146.5t-142.5 367.5t142.5 367.5t359.5 146.5q131 0 238 -54
t176 -152q17 -25 -9 -42l-27 -18q-24 -15 -40 7q-124 169 -337 169q-175 0 -290 -119.5t-115 -304.5t115 -304.5t290 -119.5z" />
    <glyph glyph-name="Cdotaccent" unicode="&#x10a;" 
d="M636 1696q-28 0 -48.5 20.5t-20.5 47.5q0 26 20.5 46t48.5 20t48.5 -20t20.5 -46q0 -27 -20.5 -47.5t-48.5 -20.5zM634 72q165 0 244.5 43t99.5 166q4 26 34 26h49q31 0 25 -35q-35 -168 -138 -235t-311 -67q-105 0 -180 17.5t-135.5 61.5t-97 120t-55.5 191.5t-19 276.5
v116q0 161 19 276.5t55.5 191.5t97 120t135.5 61.5t180 17.5q208 0 311 -67t138 -235q6 -35 -25 -35h-49q-30 0 -34 26q-20 124 -98.5 166.5t-245.5 42.5q-82 0 -135.5 -10.5t-103.5 -44t-78 -95t-44.5 -164t-16.5 -250.5v-118q0 -148 16.5 -250.5t44.5 -164t78 -95
t103.5 -44t135.5 -10.5z" />
    <glyph glyph-name="cdotaccent" unicode="&#x10b;" 
d="M615 1276q-28 0 -48.5 20.5t-20.5 47.5q0 26 20.5 46t48.5 20t48.5 -20t20.5 -46q0 -27 -20.5 -47.5t-48.5 -20.5zM658 64q213 0 337 169q16 22 40 7l27 -18q26 -17 9 -42q-69 -98 -176 -152t-238 -54q-217 0 -359.5 146.5t-142.5 367.5t142.5 367.5t359.5 146.5
q131 0 238 -54t176 -152q17 -25 -9 -42l-27 -18q-24 -15 -40 7q-124 169 -337 169q-175 0 -290 -119.5t-115 -304.5t115 -304.5t290 -119.5z" />
    <glyph glyph-name="Ccaron" unicode="&#x10c;" 
d="M674 1558h-76q-23 0 -36 16l-224 246q-12 13 -8 24.5t23 11.5h51q15 0 36 -16l196 -192l196 192q21 16 36 16h51q19 0 23 -11.5t-8 -24.5l-224 -246q-13 -16 -36 -16zM634 72q165 0 244.5 43t99.5 166q4 26 34 26h49q31 0 25 -35q-35 -168 -138 -235t-311 -67
q-105 0 -180 17.5t-135.5 61.5t-97 120t-55.5 191.5t-19 276.5v116q0 161 19 276.5t55.5 191.5t97 120t135.5 61.5t180 17.5q208 0 311 -67t138 -235q6 -35 -25 -35h-49q-30 0 -34 26q-20 124 -98.5 166.5t-245.5 42.5q-82 0 -135.5 -10.5t-103.5 -44t-78 -95t-44.5 -164
t-16.5 -250.5v-118q0 -148 16.5 -250.5t44.5 -164t78 -95t103.5 -44t135.5 -10.5z" />
    <glyph glyph-name="ccaron" unicode="&#x10d;" 
d="M653 1138h-76q-23 0 -36 16l-224 246q-12 13 -8 24.5t23 11.5h51q15 0 36 -16l196 -192l196 192q21 16 36 16h51q19 0 23 -11.5t-8 -24.5l-224 -246q-13 -16 -36 -16zM658 64q213 0 337 169q16 22 40 7l27 -18q26 -17 9 -42q-69 -98 -176 -152t-238 -54
q-217 0 -359.5 146.5t-142.5 367.5t142.5 367.5t359.5 146.5q131 0 238 -54t176 -152q17 -25 -9 -42l-27 -18q-24 -15 -40 7q-124 169 -337 169q-175 0 -290 -119.5t-115 -304.5t115 -304.5t290 -119.5z" />
    <glyph glyph-name="Dcaron" unicode="&#x10e;" 
d="M541 1574l-224 246q-12 13 -8 24.5t23 11.5h51q15 0 36 -16l196 -192l196 192q21 16 36 16h51q19 0 23 -11.5t-8 -24.5l-224 -246q-13 -16 -36 -16h-76q-23 0 -36 16zM481 1400q150 0 259 -31t178.5 -86t111 -144.5t57.5 -193.5t16 -245t-16 -245t-57.5 -193.5
t-111 -144.5t-178.5 -86t-259 -31h-298q-13 0 -21.5 8t-8.5 22v1340q0 14 8.5 22t21.5 8h298zM481 102q106 0 186 16.5t137 51.5t94 82.5t58.5 117.5t30 148t8.5 182t-8.5 182t-30 148t-58.5 117.5t-94 82.5t-137 51.5t-186 16.5h-222v-1196h222z" />
    <glyph glyph-name="dcaron" unicode="&#x10f;" 
d="M1401 1614q17 0 24 -9t0 -25l-120 -252q-11 -24 -34 -24h-18q-17 0 -24 9t0 25l120 252q11 24 34 24h18zM1061 1400q13 0 21.5 -8t8.5 -22v-1340q0 -14 -8.5 -22t-21.5 -8h-39q-27 0 -30 30l-10 137q-122 -193 -379 -193q-212 0 -348 145t-136 369q0 226 132 370t352 144
q139 0 233 -59.5t139 -154.5h14v582q0 14 8.5 22t21.5 8h42zM613 66q174 0 281.5 119t107.5 305t-107.5 303t-281.5 117q-183 0 -289.5 -116.5t-106.5 -303.5q0 -188 107 -306t289 -118z" />
    <glyph glyph-name="Dcroat" unicode="&#x110;" 
d="M446 1400q150 0 259 -31t178.5 -86t111 -144.5t57.5 -193.5t16 -245t-16 -245t-57.5 -193.5t-111 -144.5t-178.5 -86t-259 -31h-298q-14 0 -22 8t-8 22v629h-16q-14 0 -22 8.5t-8 21.5v30q0 13 8 21.5t22 8.5h16v621q0 14 8 22t22 8h298zM446 102q106 0 186 16.5
t137 51.5t94 82.5t58.5 117.5t30 148t8.5 182t-8.5 182t-30 148t-58.5 117.5t-94 82.5t-137 51.5t-186 16.5h-222v-549h362q14 0 22 -8.5t8 -21.5v-30q0 -13 -8 -21.5t-22 -8.5h-362v-557h222z" />
    <glyph glyph-name="dcroat" unicode="&#x111;" 
d="M1145 1264q13 0 21.5 -8t8.5 -22v-30q0 -14 -8.5 -22t-21.5 -8h-54v-1144q0 -14 -8.5 -22t-21.5 -8h-39q-27 0 -30 30l-10 137q-122 -193 -379 -193q-212 0 -348 145t-136 369q0 226 132 370t352 144q139 0 233 -59.5t139 -154.5h14v386h-328q-13 0 -21.5 8t-8.5 22v30
q0 14 8.5 22t21.5 8h328v106q0 14 8.5 22t21.5 8h42q13 0 21.5 -8t8.5 -22v-106h54zM613 66q174 0 281.5 119t107.5 305t-107.5 303t-281.5 117q-183 0 -289.5 -116.5t-106.5 -303.5q0 -188 107 -306t289 -118z" />
    <glyph glyph-name="Emacron" unicode="&#x112;" 
d="M857 1816q13 0 21.5 -8t8.5 -22v-30q0 -14 -8.5 -22t-21.5 -8h-484q-13 0 -21.5 8t-8.5 22v30q0 14 8.5 22t21.5 8h484zM1041 102q13 0 21.5 -8t8.5 -22v-42q0 -14 -8.5 -22t-21.5 -8h-842q-13 0 -21.5 8t-8.5 22v1340q0 14 8.5 22t21.5 8h840q13 0 21.5 -8t8.5 -22v-42
q0 -14 -8.5 -22t-21.5 -8h-764v-502h708q13 0 21.5 -8t8.5 -22v-42q0 -14 -8.5 -22t-21.5 -8h-708v-592h766z" />
    <glyph glyph-name="emacron" unicode="&#x113;" 
d="M363 1306q-13 0 -21.5 8t-8.5 22v30q0 14 8.5 22t21.5 8h484q13 0 21.5 -8t8.5 -22v-30q0 -14 -8.5 -22t-21.5 -8h-484zM616 1002q138 0 244 -68t159.5 -175t53.5 -231q0 -51 -10 -71.5t-43 -20.5h-782q19 -159 128.5 -263t275.5 -104q168 0 291 119q21 21 38 4l21 -21
q26 -25 4 -47q-150 -150 -366 -150q-146 0 -259 68.5t-173.5 185t-60.5 260.5q0 219 134.5 366.5t344.5 147.5zM615 908q-154 0 -258.5 -107.5t-119.5 -266.5h746q-2 154 -106 264t-262 110z" />
    <glyph glyph-name="Edotaccent" unicode="&#x116;" 
d="M615 1696q-28 0 -48.5 20.5t-20.5 47.5q0 26 20.5 46t48.5 20t48.5 -20t20.5 -46q0 -27 -20.5 -47.5t-48.5 -20.5zM1041 102q13 0 21.5 -8t8.5 -22v-42q0 -14 -8.5 -22t-21.5 -8h-842q-13 0 -21.5 8t-8.5 22v1340q0 14 8.5 22t21.5 8h840q13 0 21.5 -8t8.5 -22v-42
q0 -14 -8.5 -22t-21.5 -8h-764v-502h708q13 0 21.5 -8t8.5 -22v-42q0 -14 -8.5 -22t-21.5 -8h-708v-592h766z" />
    <glyph glyph-name="edotaccent" unicode="&#x117;" 
d="M605 1276q-28 0 -48.5 20.5t-20.5 47.5q0 26 20.5 46t48.5 20t48.5 -20t20.5 -46q0 -27 -20.5 -47.5t-48.5 -20.5zM616 1002q138 0 244 -68t159.5 -175t53.5 -231q0 -51 -10 -71.5t-43 -20.5h-782q19 -159 128.5 -263t275.5 -104q168 0 291 119q21 21 38 4l21 -21
q26 -25 4 -47q-150 -150 -366 -150q-146 0 -259 68.5t-173.5 185t-60.5 260.5q0 219 134.5 366.5t344.5 147.5zM615 908q-154 0 -258.5 -107.5t-119.5 -266.5h746q-2 154 -106 264t-262 110z" />
    <glyph glyph-name="Eogonek" unicode="&#x118;" 
d="M1041 102q13 0 21.5 -8t8.5 -22v-42q0 -14 -8.5 -22t-21.5 -8q-107 -7 -176.5 -66t-69.5 -128q0 -78 50.5 -108t137.5 -10v-84q-26 -12 -62 -16t-75.5 5t-73 29.5t-55.5 62t-22 98.5q0 134 125 217h-621q-13 0 -21.5 8t-8.5 22v1340q0 14 8.5 22t21.5 8h840q13 0 21.5 -8
t8.5 -22v-42q0 -14 -8.5 -22t-21.5 -8h-764v-502h708q13 0 21.5 -8t8.5 -22v-42q0 -14 -8.5 -22t-21.5 -8h-708v-592h766z" />
    <glyph glyph-name="eogonek" unicode="&#x119;" 
d="M616 1002q138 0 244 -68t159.5 -175t53.5 -231q0 -51 -10 -71.5t-43 -20.5h-782q19 -159 128.5 -263t275.5 -104q168 0 291 119q21 21 38 4l21 -21q26 -25 4 -47q-87 -87 -197 -124h-1q-10 -4 -23 -7q-80 -27 -134.5 -83.5t-54.5 -121.5q0 -72 51 -101t137 -9v-84
q-26 -12 -62 -16t-75.5 5t-73 29.5t-55.5 62t-22 98.5q0 117 108 202q-205 13 -331 158t-126 355q0 219 134.5 366.5t344.5 147.5zM615 908q-154 0 -258.5 -107.5t-119.5 -266.5h746q-2 154 -106 264t-262 110z" />
    <glyph glyph-name="Ecaron" unicode="&#x11a;" 
d="M653 1558h-76q-23 0 -36 16l-224 246q-12 13 -8 24.5t23 11.5h51q15 0 36 -16l196 -192l196 192q21 16 36 16h51q19 0 23 -11.5t-8 -24.5l-224 -246q-13 -16 -36 -16zM1041 102q13 0 21.5 -8t8.5 -22v-42q0 -14 -8.5 -22t-21.5 -8h-842q-13 0 -21.5 8t-8.5 22v1340
q0 14 8.5 22t21.5 8h840q13 0 21.5 -8t8.5 -22v-42q0 -14 -8.5 -22t-21.5 -8h-764v-502h708q13 0 21.5 -8t8.5 -22v-42q0 -14 -8.5 -22t-21.5 -8h-708v-592h766z" />
    <glyph glyph-name="ecaron" unicode="&#x11b;" 
d="M531 1154l-224 246q-12 13 -8 24.5t23 11.5h51q15 0 36 -16l196 -192l196 192q21 16 36 16h51q19 0 23 -11.5t-8 -24.5l-224 -246q-13 -16 -36 -16h-76q-23 0 -36 16zM616 1002q138 0 244 -68t159.5 -175t53.5 -231q0 -51 -10 -71.5t-43 -20.5h-782q19 -159 128.5 -263
t275.5 -104q168 0 291 119q21 21 38 4l21 -21q26 -25 4 -47q-150 -150 -366 -150q-146 0 -259 68.5t-173.5 185t-60.5 260.5q0 219 134.5 366.5t344.5 147.5zM615 908q-154 0 -258.5 -107.5t-119.5 -266.5h746q-2 154 -106 264t-262 110z" />
    <glyph glyph-name="Gbreve" unicode="&#x11e;" 
d="M615 1561q-112 0 -182 65.5t-80 169.5q-3 29 27 29h27q26 0 32 -27q14 -65 59.5 -104.5t116.5 -39.5t116.5 39.5t59.5 104.5q6 27 32 27h27q30 0 27 -29q-10 -104 -80 -169.5t-182 -65.5zM1071 657q13 0 21.5 -8.5t8.5 -21.5v-83q0 -300 -115.5 -437.5t-367.5 -136.5
q-133 0 -220 28.5t-150 102.5t-91 204.5t-28 331.5v116q0 161 19 276.5t55.5 191.5t97 120t135.5 61.5t180 17.5q208 0 311 -67t138 -235q6 -35 -25 -35h-49q-30 0 -34 26q-20 124 -98.5 166.5t-245.5 42.5q-82 0 -135.5 -10.5t-103.5 -44t-78 -95t-44.5 -164t-16.5 -250.5
v-118q0 -106 8.5 -188t23 -142t40 -101.5t54 -67.5t71 -40.5t85 -19.5t101.5 -5q140 0 221.5 42.5t122 146t40.5 283.5v11h-457q-13 0 -21.5 8.5t-8.5 21.5v42q0 13 8.5 21.5t21.5 8.5h526z" />
    <glyph glyph-name="gbreve" unicode="&#x11f;" 
d="M615 1141q-112 0 -182 65.5t-80 169.5q-3 29 27 29h27q26 0 32 -27q14 -65 59.5 -104.5t116.5 -39.5t116.5 39.5t59.5 104.5q6 27 32 27h27q30 0 27 -29q-10 -104 -80 -169.5t-182 -65.5zM1047 980q13 0 21.5 -8t8.5 -22v-926q0 -109 -40 -192t-109.5 -131.5
t-154.5 -72.5t-184 -24q-211 0 -354 86q-25 15 -11 42l12 26q5 12 17 15t23 -3q149 -68 308 -68q64 0 120 10.5t106 34.5t86 59t56.5 87t20.5 117v185q-59 -93 -154 -145.5t-216 -52.5q-209 0 -346 145.5t-137 355.5t137 355.5t346 145.5q121 0 214.5 -50.5t152.5 -140.5
l8 142q3 30 30 30h39zM607 89q164 0 275 121.5t111 289.5q0 167 -111 287t-275 120q-167 0 -278 -117t-111 -290q0 -174 111 -292.5t278 -118.5z" />
    <glyph glyph-name="Gdotaccent" unicode="&#x120;" 
d="M615 1696q-28 0 -48.5 20.5t-20.5 47.5q0 26 20.5 46t48.5 20t48.5 -20t20.5 -46q0 -27 -20.5 -47.5t-48.5 -20.5zM1071 657q13 0 21.5 -8.5t8.5 -21.5v-83q0 -300 -115.5 -437.5t-367.5 -136.5q-133 0 -220 28.5t-150 102.5t-91 204.5t-28 331.5v116q0 161 19 276.5
t55.5 191.5t97 120t135.5 61.5t180 17.5q208 0 311 -67t138 -235q6 -35 -25 -35h-49q-30 0 -34 26q-20 124 -98.5 166.5t-245.5 42.5q-82 0 -135.5 -10.5t-103.5 -44t-78 -95t-44.5 -164t-16.5 -250.5v-118q0 -106 8.5 -188t23 -142t40 -101.5t54 -67.5t71 -40.5t85 -19.5
t101.5 -5q140 0 221.5 42.5t122 146t40.5 283.5v11h-457q-13 0 -21.5 8.5t-8.5 21.5v42q0 13 8.5 21.5t21.5 8.5h526z" />
    <glyph glyph-name="gdotaccent" unicode="&#x121;" 
d="M615 1276q-28 0 -48.5 20.5t-20.5 47.5q0 26 20.5 46t48.5 20t48.5 -20t20.5 -46q0 -27 -20.5 -47.5t-48.5 -20.5zM1047 980q13 0 21.5 -8t8.5 -22v-926q0 -109 -40 -192t-109.5 -131.5t-154.5 -72.5t-184 -24q-211 0 -354 86q-25 15 -11 42l12 26q5 12 17 15t23 -3
q149 -68 308 -68q64 0 120 10.5t106 34.5t86 59t56.5 87t20.5 117v185q-59 -93 -154 -145.5t-216 -52.5q-209 0 -346 145.5t-137 355.5t137 355.5t346 145.5q121 0 214.5 -50.5t152.5 -140.5l8 142q3 30 30 30h39zM607 89q164 0 275 121.5t111 289.5q0 167 -111 287
t-275 120q-167 0 -278 -117t-111 -290q0 -174 111 -292.5t278 -118.5z" />
    <glyph glyph-name="Gcommaaccent" unicode="&#x122;" 
d="M1071 657q13 0 21.5 -8.5t8.5 -21.5v-83q0 -300 -115.5 -437.5t-367.5 -136.5q-133 0 -220 28.5t-150 102.5t-91 204.5t-28 331.5v116q0 161 19 276.5t55.5 191.5t97 120t135.5 61.5t180 17.5q208 0 311 -67t138 -235q6 -35 -25 -35h-49q-30 0 -34 26
q-20 124 -98.5 166.5t-245.5 42.5q-82 0 -135.5 -10.5t-103.5 -44t-78 -95t-44.5 -164t-16.5 -250.5v-118q0 -106 8.5 -188t23 -142t40 -101.5t54 -67.5t71 -40.5t85 -19.5t101.5 -5q140 0 221.5 42.5t122 146t40.5 283.5v11h-457q-13 0 -21.5 8.5t-8.5 21.5v42
q0 13 8.5 21.5t21.5 8.5h526zM763 -159q13 0 21.5 -8t8.5 -21v-12q0 -108 -19 -228t-46 -193q-8 -24 -35 -24h-14q-31 0 -25 34q13 74 21 180t7 178h-235q-13 0 -21 8t-8 21v36q0 13 8 21t21 8h316z" />
    <glyph glyph-name="gcommaaccent" unicode="&#x123;" 
d="M464 1198q-13 0 -21.5 8t-8.5 21v12q0 108 19 228t46 193q8 24 35 24h14q31 0 25 -34q-13 -74 -21 -180t-7 -178h235q13 0 21 -8t8 -21v-36q0 -13 -8 -21t-21 -8h-316zM1047 980q13 0 21.5 -8t8.5 -22v-926q0 -109 -40 -192t-109.5 -131.5t-154.5 -72.5t-184 -24
q-211 0 -354 86q-25 15 -11 42l12 26q5 12 17 15t23 -3q149 -68 308 -68q64 0 120 10.5t106 34.5t86 59t56.5 87t20.5 117v185q-59 -93 -154 -145.5t-216 -52.5q-209 0 -346 145.5t-137 355.5t137 355.5t346 145.5q121 0 214.5 -50.5t152.5 -140.5l8 142q3 30 30 30h39z
M607 89q164 0 275 121.5t111 289.5q0 167 -111 287t-275 120q-167 0 -278 -117t-111 -290q0 -174 111 -292.5t278 -118.5z" />
    <glyph glyph-name="Hbar" unicode="&#x126;" 
d="M1037 1400q13 0 21.5 -8t8.5 -22v-1340q0 -14 -8.5 -22t-21.5 -8h-46q-13 0 -21.5 8t-8.5 22v638h-692v-638q0 -14 -8.5 -22t-21.5 -8h-46q-13 0 -21.5 8t-8.5 22v1340q0 14 8.5 22t21.5 8h46q13 0 21.5 -8t8.5 -22v-302h692v302q0 14 8.5 22t21.5 8h46zM269 770h692v198
h-692v-198z" />
    <glyph glyph-name="hbar" unicode="&#x127;" 
d="M681 1002q362 0 362 -380v-592q0 -14 -8.5 -22t-21.5 -8h-42q-13 0 -21.5 8t-8.5 22v598q0 282 -279 282q-69 0 -132.5 -22t-105.5 -54.5t-74 -68.5t-46.5 -63.5t-14.5 -40.5v-631q0 -14 -8.5 -22t-21.5 -8h-42q-13 0 -21.5 8t-8.5 22v1150h-66q-13 0 -21.5 8t-8.5 22v30
q0 14 8.5 22t21.5 8h66v100q0 14 8.5 22t21.5 8h42q13 0 21.5 -8t8.5 -22v-100h316q13 0 21.5 -8t8.5 -22v-30q0 -14 -8.5 -22t-21.5 -8h-316v-372h19q44 80 144.5 137t228.5 57z" />
    <glyph glyph-name="Imacron" unicode="&#x12a;" 
d="M857 1816q13 0 21.5 -8t8.5 -22v-30q0 -14 -8.5 -22t-21.5 -8h-484q-13 0 -21.5 8t-8.5 22v30q0 14 8.5 22t21.5 8h484zM1065 1298h-397v-1196h397q13 0 21.5 -8t8.5 -22v-42q0 -14 -8.5 -22t-21.5 -8h-900q-13 0 -21.5 8t-8.5 22v42q0 14 8.5 22t21.5 8h397v1196h-397
q-13 0 -21.5 8t-8.5 22v42q0 14 8.5 22t21.5 8h900q13 0 21.5 -8t8.5 -22v-42q0 -14 -8.5 -22t-21.5 -8z" />
    <glyph glyph-name="imacron" unicode="&#x12b;" 
d="M373 1306q-13 0 -21.5 8t-8.5 22v30q0 14 8.5 22t21.5 8h484q13 0 21.5 -8t8.5 -22v-30q0 -14 -8.5 -22t-21.5 -8h-484zM1041 100q13 0 21.5 -8t8.5 -22v-40q0 -14 -8.5 -22t-21.5 -8h-842q-13 0 -21.5 8t-8.5 22v40q0 14 8.5 22t21.5 8h396v780h-346q-13 0 -21.5 8
t-8.5 22v40q0 14 8.5 22t21.5 8h418q13 0 21.5 -8t8.5 -22v-850h344z" />
    <glyph glyph-name="iogonek" unicode="&#x12f;" 
d="M615 1276q-28 0 -48.5 20.5t-20.5 47.5q0 26 20.5 46t48.5 20t48.5 -20t20.5 -46q0 -27 -20.5 -47.5t-48.5 -20.5zM1041 100q13 0 21.5 -8t8.5 -22v-40q0 -14 -8.5 -22t-21.5 -8h-274q-107 -7 -176.5 -66t-69.5 -128q0 -78 50.5 -108t137.5 -10v-84q-26 -12 -62 -16
t-75.5 5t-73 29.5t-55.5 62t-22 98.5q0 134 125 217h-347q-13 0 -21.5 8t-8.5 22v40q0 14 8.5 22t21.5 8h396v780h-346q-13 0 -21.5 8t-8.5 22v40q0 14 8.5 22t21.5 8h418q13 0 21.5 -8t8.5 -22v-850h344z" />
    <glyph glyph-name="Idotaccent" unicode="&#x130;" 
d="M615 1696q-28 0 -48.5 20.5t-20.5 47.5q0 26 20.5 46t48.5 20t48.5 -20t20.5 -46q0 -27 -20.5 -47.5t-48.5 -20.5zM1065 1298h-397v-1196h397q13 0 21.5 -8t8.5 -22v-42q0 -14 -8.5 -22t-21.5 -8h-900q-13 0 -21.5 8t-8.5 22v42q0 14 8.5 22t21.5 8h397v1196h-397
q-13 0 -21.5 8t-8.5 22v42q0 14 8.5 22t21.5 8h900q13 0 21.5 -8t8.5 -22v-42q0 -14 -8.5 -22t-21.5 -8z" />
    <glyph glyph-name="dotlessi" unicode="&#x131;" 
d="M1041 100q13 0 21.5 -8t8.5 -22v-40q0 -14 -8.5 -22t-21.5 -8h-842q-13 0 -21.5 8t-8.5 22v40q0 14 8.5 22t21.5 8h396v780h-346q-13 0 -21.5 8t-8.5 22v40q0 14 8.5 22t21.5 8h418q13 0 21.5 -8t8.5 -22v-850h344z" />
    <glyph glyph-name="IJ" unicode="&#x132;" 
d="M201 1400q13 0 21.5 -8t8.5 -22v-1340q0 -14 -8.5 -22t-21.5 -8h-46q-13 0 -21.5 8t-8.5 22v1340q0 14 8.5 22t21.5 8h46zM1075 1400q13 0 21.5 -8t8.5 -22v-908q0 -118 -38 -212t-103 -151t-145.5 -87t-169.5 -30q-141 0 -226 41q-12 5 -15 16.5t3 22.5l20 36
q13 26 38 17q81 -31 166 -31q71 0 135 24t116 69t82.5 119t30.5 166v836h-537q-14 0 -22 8t-8 22v42q0 14 8 22t22 8h613z" />
    <glyph glyph-name="ij" unicode="&#x133;" 
d="M220 1234q-32 0 -53.5 21.5t-21.5 53.5t21.5 53.5t53.5 21.5t53.5 -21.5t21.5 -53.5t-21.5 -53.5t-53.5 -21.5zM1016 1234q-32 0 -53.5 21.5t-21.5 53.5t21.5 53.5t53.5 21.5t53.5 -21.5t21.5 -53.5t-21.5 -53.5t-53.5 -21.5zM249 980q13 0 21.5 -8t8.5 -22v-920
q0 -14 -8.5 -22t-21.5 -8h-42q-13 0 -21.5 8t-8.5 22v920q0 14 8.5 22t21.5 8h42zM1064 980q14 0 22 -8t8 -22v-930q0 -97 -22 -170.5t-57.5 -117.5t-88 -71.5t-105.5 -37t-117 -9.5q-60 0 -116 12.5t-94.5 30.5t-66.5 38.5t-40 37.5t-7 25l23 40q5 10 19.5 12.5t26.5 -6.5
q71 -54 135 -74q57 -18 117 -18q43 0 79 5.5t77 23.5t69 49t47 86t19 130v874h-493q-13 0 -21.5 8t-8.5 22v40q0 14 8.5 22t21.5 8h565z" />
    <glyph glyph-name="Kcommaaccent" unicode="&#x136;" 
d="M1111 36q11 -15 5.5 -25.5t-23.5 -10.5h-62q-23 0 -36 18l-523 684l-209 -226v-446q0 -14 -8.5 -22t-21.5 -8h-46q-13 0 -21.5 8t-8.5 22v1340q0 14 8.5 22t21.5 8h46q13 0 21.5 -8t8.5 -22v-748l696 762q13 16 36 16h71q20 0 24.5 -11t-8.5 -25l-543 -589zM762 -159
q13 0 21.5 -8t8.5 -21v-12q0 -108 -19 -228t-46 -193q-8 -24 -35 -24h-14q-31 0 -25 34q13 74 21 180t7 178h-235q-13 0 -21 8t-8 21v36q0 13 8 21t21 8h316z" />
    <glyph glyph-name="kcommaaccent" unicode="&#x137;" 
d="M1071 36q12 -15 6 -25.5t-24 -10.5h-67q-19 0 -36 18l-390 456l-247 -255v-189q0 -14 -8.5 -22t-21.5 -8h-42q-13 0 -21.5 8t-8.5 22v1400q0 14 8.5 22t21.5 8h42q13 0 21.5 -8t8.5 -22v-1072l579 606q17 16 39 16h69q20 0 25.5 -10t-9.5 -26l-385 -397zM762 -159
q13 0 21.5 -8t8.5 -21v-12q0 -108 -19 -228t-46 -193q-8 -24 -35 -24h-14q-31 0 -25 34q13 74 21 180t7 178h-235q-13 0 -21 8t-8 21v36q0 13 8 21t21 8h316z" />
    <glyph glyph-name="Lacute" unicode="&#x139;" 
d="M219 1484q-17 0 -24 9t0 25l120 252q11 24 34 24h18q17 0 24 -9t0 -25l-120 -252q-11 -24 -34 -24h-18zM1046 102q14 0 22 -8t8 -22v-42q0 -14 -8 -22t-22 -8h-779h-6h-6h-46q-13 0 -21.5 8t-8.5 22v1340q0 14 8.5 22t21.5 8h46q13 0 21.5 -8t8.5 -22v-1268h761z" />
    <glyph glyph-name="lacute" unicode="&#x13a;" 
d="M610 1502q-17 0 -24 9t0 25l120 252q11 24 34 24h18q17 0 24 -9t0 -25l-120 -252q-11 -24 -34 -24h-18zM1041 100q13 0 21.5 -8t8.5 -22v-40q0 -14 -8.5 -22t-21.5 -8h-852q-13 0 -21.5 8t-8.5 22v40q0 14 8.5 22t21.5 8h396v1200h-378q-13 0 -21.5 8t-8.5 22v40
q0 14 8.5 22t21.5 8h450q13 0 21.5 -8t8.5 -22v-1270h354z" />
    <glyph glyph-name="Lcommaaccent" unicode="&#x13b;" 
d="M1046 102q14 0 22 -8t8 -22v-42q0 -14 -8 -22t-22 -8h-779h-6h-6h-46q-13 0 -21.5 8t-8.5 22v1340q0 14 8.5 22t21.5 8h46q13 0 21.5 -8t8.5 -22v-1268h761zM762 -159q13 0 21.5 -8t8.5 -21v-12q0 -108 -19 -228t-46 -193q-8 -24 -35 -24h-14q-31 0 -25 34q13 74 21 180
t7 178h-235q-13 0 -21 8t-8 21v36q0 13 8 21t21 8h316z" />
    <glyph glyph-name="lcommaaccent" unicode="&#x13c;" 
d="M1041 100q13 0 21.5 -8t8.5 -22v-40q0 -14 -8.5 -22t-21.5 -8h-852q-13 0 -21.5 8t-8.5 22v40q0 14 8.5 22t21.5 8h396v1200h-378q-13 0 -21.5 8t-8.5 22v40q0 14 8.5 22t21.5 8h450q13 0 21.5 -8t8.5 -22v-1270h354zM762 -159q13 0 21.5 -8t8.5 -21v-12q0 -108 -19 -228
t-46 -193q-8 -24 -35 -24h-14q-31 0 -25 34q13 74 21 180t7 178h-235q-13 0 -21 8t-8 21v36q0 13 8 21t21 8h316z" />
    <glyph glyph-name="Lcaron" unicode="&#x13d;" 
d="M1046 102q14 0 22 -8t8 -22v-42q0 -14 -8 -22t-22 -8h-779h-6h-6h-46q-13 0 -21.5 8t-8.5 22v1340q0 14 8.5 22t21.5 8h46q13 0 21.5 -8t8.5 -22v-1268h761zM509 1303q-13 0 -21.5 8.5t-8.5 21.5v37q0 14 8.5 22t21.5 8h326q13 0 21.5 -8t8.5 -22v-12q0 -112 -19 -235.5
t-47 -198.5q-9 -25 -37 -25h-14q-32 0 -26 35q13 75 22 184.5t7 184.5h-242z" />
    <glyph glyph-name="lcaron" unicode="&#x13e;" 
d="M1003 100q13 0 21.5 -8t8.5 -22v-40q0 -14 -8.5 -22t-21.5 -8h-852q-13 0 -21.5 8t-8.5 22v40q0 14 8.5 22t21.5 8h396v1200h-378q-13 0 -21.5 8t-8.5 22v40q0 14 8.5 22t21.5 8h450q13 0 21.5 -8t8.5 -22v-1270h354zM1091 1400q14 0 22.5 -8t8.5 -22v-12
q0 -112 -19.5 -235.5t-48.5 -198.5q-9 -25 -39 -25h-14q-33 0 -27 35q14 76 22.5 185.5t7.5 183.5h-251q-14 0 -22.5 8t-8.5 22v37q0 14 8.5 22t22.5 8h338z" />
    <glyph glyph-name="Ldot" unicode="&#x13f;" 
d="M1046 102q14 0 22 -8t8 -22v-42q0 -14 -8 -22t-22 -8h-779h-6h-6h-46q-13 0 -21.5 8t-8.5 22v1340q0 14 8.5 22t21.5 8h46q13 0 21.5 -8t8.5 -22v-1268h761zM646 670q-42 0 -69.5 27.5t-27.5 69.5t27.5 70.5t69.5 28.5t69.5 -28.5t27.5 -70.5t-27.5 -69.5t-69.5 -27.5z
" />
    <glyph glyph-name="ldot" unicode="&#x140;" 
d="M1041 100q13 0 21.5 -8t8.5 -22v-40q0 -14 -8.5 -22t-21.5 -8h-852q-13 0 -21.5 8t-8.5 22v40q0 14 8.5 22t21.5 8h396v1200h-378q-13 0 -21.5 8t-8.5 22v40q0 14 8.5 22t21.5 8h450q13 0 21.5 -8t8.5 -22v-1270h354zM839 666q-42 0 -69.5 27.5t-27.5 69.5t27.5 70.5
t69.5 28.5t69.5 -28.5t27.5 -70.5t-27.5 -69.5t-69.5 -27.5z" />
    <glyph glyph-name="Lslash" unicode="&#x141;" 
d="M1001 102q13 0 21.5 -8t8.5 -22v-42q0 -14 -8.5 -22t-21.5 -8h-752q-13 0 -21.5 8t-8.5 22v487l-100 -97q-15 -14 -25.5 -9t-10.5 25v66q0 22 16 38l120 116v714q0 14 8.5 22t21.5 8h46q13 0 21.5 -8t8.5 -22v-612l205 198q15 14 25.5 9t10.5 -25v-64q0 -22 -16 -38
l-225 -218v-518h676z" />
    <glyph glyph-name="lslash" unicode="&#x142;" 
d="M1077 100q13 0 21.5 -8t8.5 -22v-40q0 -14 -8.5 -22t-21.5 -8h-852q-13 0 -21.5 8t-8.5 22v40q0 14 8.5 22t21.5 8h396v520l-222 -240v120l222 238v562h-378q-13 0 -21.5 8t-8.5 22v40q0 14 8.5 22t21.5 8h450q13 0 21.5 -8t8.5 -22v-522l175 188l-1 -118l-174 -188v-630
h354z" />
    <glyph glyph-name="Nacute" unicode="&#x143;" 
d="M610 1510q-17 0 -24 9t0 25l120 252q11 24 34 24h18q17 0 24 -9t0 -25l-120 -252q-11 -24 -34 -24h-18zM1047 1400q13 0 21.5 -8t8.5 -22v-1340q0 -14 -8.5 -22t-21.5 -8h-96q-25 0 -36 20l-656 1264v-1254q0 -14 -8.5 -22t-21.5 -8h-46q-13 0 -21.5 8t-8.5 22v1340
q0 14 8.5 22t21.5 8h98q26 0 36 -20l654 -1259v1249q0 14 8.5 22t21.5 8h46z" />
    <glyph glyph-name="nacute" unicode="&#x144;" 
d="M610 1090q-17 0 -24 9t0 25l120 252q11 24 34 24h18q17 0 24 -9t0 -25l-120 -252q-11 -24 -34 -24h-18zM681 1002q362 0 362 -380v-592q0 -14 -8.5 -22t-21.5 -8h-42q-13 0 -21.5 8t-8.5 22v598q0 282 -279 282q-85 0 -160.5 -32.5t-119 -76t-68.5 -81t-25 -54.5v-636
q0 -14 -8.5 -22t-21.5 -8h-42q-13 0 -21.5 8t-8.5 22v920q0 14 8.5 22t21.5 8h34q27 0 30 -30l8 -142h19q44 80 144.5 137t228.5 57z" />
    <glyph glyph-name="Ncommaaccent" unicode="&#x145;" 
d="M1047 1400q13 0 21.5 -8t8.5 -22v-1340q0 -14 -8.5 -22t-21.5 -8h-96q-25 0 -36 20l-656 1264v-1254q0 -14 -8.5 -22t-21.5 -8h-46q-13 0 -21.5 8t-8.5 22v1340q0 14 8.5 22t21.5 8h98q26 0 36 -20l654 -1259v1249q0 14 8.5 22t21.5 8h46zM762 -159q13 0 21.5 -8t8.5 -21
v-12q0 -108 -19 -228t-46 -193q-8 -24 -35 -24h-14q-31 0 -25 34q13 74 21 180t7 178h-235q-13 0 -21 8t-8 21v36q0 13 8 21t21 8h316z" />
    <glyph glyph-name="ncommaaccent" unicode="&#x146;" 
d="M681 1002q362 0 362 -380v-592q0 -14 -8.5 -22t-21.5 -8h-42q-13 0 -21.5 8t-8.5 22v598q0 282 -279 282q-85 0 -160.5 -32.5t-119 -76t-68.5 -81t-25 -54.5v-636q0 -14 -8.5 -22t-21.5 -8h-42q-13 0 -21.5 8t-8.5 22v920q0 14 8.5 22t21.5 8h34q27 0 30 -30l8 -142h19
q44 80 144.5 137t228.5 57zM762 -159q13 0 21.5 -8t8.5 -21v-12q0 -108 -19 -228t-46 -193q-8 -24 -35 -24h-14q-31 0 -25 34q13 74 21 180t7 178h-235q-13 0 -21 8t-8 21v36q0 13 8 21t21 8h316z" />
    <glyph glyph-name="Ncaron" unicode="&#x147;" 
d="M541 1574l-224 246q-12 13 -8 24.5t23 11.5h51q15 0 36 -16l196 -192l196 192q21 16 36 16h51q19 0 23 -11.5t-8 -24.5l-224 -246q-13 -16 -36 -16h-76q-23 0 -36 16zM1047 1400q13 0 21.5 -8t8.5 -22v-1340q0 -14 -8.5 -22t-21.5 -8h-96q-25 0 -36 20l-656 1264v-1254
q0 -14 -8.5 -22t-21.5 -8h-46q-13 0 -21.5 8t-8.5 22v1340q0 14 8.5 22t21.5 8h98q26 0 36 -20l654 -1259v1249q0 14 8.5 22t21.5 8h46z" />
    <glyph glyph-name="ncaron" unicode="&#x148;" 
d="M541 1154l-224 246q-12 13 -8 24.5t23 11.5h51q15 0 36 -16l196 -192l196 192q21 16 36 16h51q19 0 23 -11.5t-8 -24.5l-224 -246q-13 -16 -36 -16h-76q-23 0 -36 16zM681 1002q362 0 362 -380v-592q0 -14 -8.5 -22t-21.5 -8h-42q-13 0 -21.5 8t-8.5 22v598
q0 282 -279 282q-85 0 -160.5 -32.5t-119 -76t-68.5 -81t-25 -54.5v-636q0 -14 -8.5 -22t-21.5 -8h-42q-13 0 -21.5 8t-8.5 22v920q0 14 8.5 22t21.5 8h34q27 0 30 -30l8 -142h19q44 80 144.5 137t228.5 57z" />
    <glyph glyph-name="Eng" unicode="&#x14a;" 
d="M1047 1400q13 0 21.5 -8t8.5 -22v-1370q0 -406 -463 -406v104q178 0 264 74.5t86 227.5h-13q-25 0 -36 20l-656 1264v-1254q0 -14 -8.5 -22t-21.5 -8h-46q-13 0 -21.5 8t-8.5 22v1340q0 14 8.5 22t21.5 8h98q26 0 36 -20l647 -1245v847h7v388q0 14 8.5 22t21.5 8h46z" />
    <glyph glyph-name="eng" unicode="&#x14b;" 
d="M681 1002q362 0 362 -380v-616q0 -201 -75.5 -301.5t-216.5 -100.5q-18 0 -22 19l-10 46q-3 9 1.5 15.5t15.5 6.5q113 0 159 76t46 233v628q0 282 -279 282q-85 0 -160.5 -32.5t-119 -76t-68.5 -81t-25 -54.5v-636q0 -14 -8.5 -22t-21.5 -8h-42q-13 0 -21.5 8t-8.5 22
v920q0 14 8.5 22t21.5 8h34q27 0 30 -30l8 -142h19q44 80 144.5 137t228.5 57z" />
    <glyph glyph-name="Omacron" unicode="&#x14c;" 
d="M857 1816q13 0 21.5 -8t8.5 -22v-30q0 -14 -8.5 -22t-21.5 -8h-484q-13 0 -21.5 8t-8.5 22v30q0 14 8.5 22t21.5 8h484zM615 1420q128 0 213.5 -28.5t148.5 -102t91.5 -204.5t28.5 -332v-117q0 -161 -19.5 -276.5t-56 -191t-97 -119.5t-134 -61.5t-175.5 -17.5
t-175.5 17.5t-134 61.5t-97 119.5t-56 191t-19.5 276.5v117q0 201 28.5 332t91.5 204.5t148.5 102t213.5 28.5zM615 1318q-68 0 -115.5 -7.5t-92.5 -29t-74 -60.5t-51.5 -101t-32.5 -152.5t-10 -213.5v-118q0 -123 10 -213.5t32.5 -152.5t51.5 -101t74 -60.5t92.5 -29
t115.5 -7.5t115.5 7.5t92.5 29t74 60.5t51.5 101t32.5 152.5t10 213.5v118q0 123 -10 213.5t-32.5 152.5t-51.5 101t-74 60.5t-92.5 29t-115.5 7.5z" />
    <glyph glyph-name="omacron" unicode="&#x14d;" 
d="M857 1396q13 0 21.5 -8t8.5 -22v-30q0 -14 -8.5 -22t-21.5 -8h-484q-13 0 -21.5 8t-8.5 22v30q0 14 8.5 22t21.5 8h484zM615 -26q-212 0 -351.5 147t-139.5 367t139.5 367t351.5 147t351.5 -147t139.5 -367t-139.5 -367t-351.5 -147zM615 64q171 0 282 119.5t111 304.5
t-111 304.5t-282 119.5t-282 -119.5t-111 -304.5t111 -304.5t282 -119.5z" />
    <glyph glyph-name="Ohungarumlaut" unicode="&#x150;" 
d="M597 1820q17 0 24 -9t0 -25l-120 -252q-11 -24 -34 -24h-18q-17 0 -24 9t0 25l120 252q11 24 34 24h18zM855 1820q17 0 24 -9t0 -25l-120 -252q-11 -24 -34 -24h-18q-17 0 -24 9t0 25l120 252q11 24 34 24h18zM615 1420q128 0 213.5 -28.5t148.5 -102t91.5 -204.5
t28.5 -332v-117q0 -161 -19.5 -276.5t-56 -191t-97 -119.5t-134 -61.5t-175.5 -17.5t-175.5 17.5t-134 61.5t-97 119.5t-56 191t-19.5 276.5v117q0 201 28.5 332t91.5 204.5t148.5 102t213.5 28.5zM615 1318q-68 0 -115.5 -7.5t-92.5 -29t-74 -60.5t-51.5 -101t-32.5 -152.5
t-10 -213.5v-118q0 -123 10 -213.5t32.5 -152.5t51.5 -101t74 -60.5t92.5 -29t115.5 -7.5t115.5 7.5t92.5 29t74 60.5t51.5 101t32.5 152.5t10 213.5v118q0 123 -10 213.5t-32.5 152.5t-51.5 101t-74 60.5t-92.5 29t-115.5 7.5z" />
    <glyph glyph-name="ohungarumlaut" unicode="&#x151;" 
d="M597 1400q17 0 24 -9t0 -25l-120 -252q-11 -24 -34 -24h-18q-17 0 -24 9t0 25l120 252q11 24 34 24h18zM855 1400q17 0 24 -9t0 -25l-120 -252q-11 -24 -34 -24h-18q-17 0 -24 9t0 25l120 252q11 24 34 24h18zM615 -26q-212 0 -351.5 147t-139.5 367t139.5 367t351.5 147
t351.5 -147t139.5 -367t-139.5 -367t-351.5 -147zM615 64q171 0 282 119.5t111 304.5t-111 304.5t-282 119.5t-282 -119.5t-111 -304.5t111 -304.5t282 -119.5z" />
    <glyph glyph-name="OE" unicode="&#x152;" 
d="M1087 102q13 0 21.5 -8t8.5 -22v-42q0 -14 -8.5 -22t-21.5 -8h-492q-73 0 -129 7.5t-108 25.5t-89 49t-68 79t-49.5 115t-28.5 156.5t-10 203.5v117q0 133 12.5 233.5t40.5 172t65.5 118.5t94.5 74t120 38t149 11h490q13 0 21.5 -8t8.5 -22v-42q0 -14 -8.5 -22t-21.5 -8
h-384v-496h328q13 0 21.5 -8t8.5 -22v-42q0 -14 -8.5 -22t-21.5 -8h-328v-598h386zM595 103v1194q-52 0 -88.5 -3t-75.5 -12t-65.5 -26t-52.5 -44.5t-42 -68t-29 -96t-18.5 -128.5t-5.5 -165v-118q0 -92 5.5 -165t18.5 -127.5t29 -94t42.5 -66t52 -42.5t65.5 -24.5t76 -11
t88 -2.5z" />
    <glyph glyph-name="oe" unicode="&#x153;" 
d="M912 72q71 0 113 27.5t85 83.5l55 -65q-39 -66 -104 -105t-143 -39q-204 0 -291 183q-77 -183 -263 -183q-315 0 -315 514t315 514q185 0 262 -182q84 182 264 182q70 0 122.5 -26.5t84 -69t51 -106t26.5 -128.5t7 -144q0 -51 -10 -71.5t-43 -20.5h-448q2 -364 232 -364z
M364 73q193 0 204 378q-1 12 -1 37t1 38q-11 378 -204 378q-56 0 -96.5 -31.5t-63.5 -89.5t-34 -130.5t-11 -163.5t11 -164t34 -131t63.5 -89.5t96.5 -31.5zM890 904q-53 0 -93 -30t-64 -83t-37 -118t-15 -142h407q2 77 -7 140.5t-30.5 117.5t-62.5 84.5t-98 30.5z" />
    <glyph glyph-name="Racute" unicode="&#x154;" 
d="M610 1510q-17 0 -24 9t0 25l120 252q11 24 34 24h18q17 0 24 -9t0 -25l-120 -252q-11 -24 -34 -24h-18zM776 567l268 -532q8 -16 2 -25.5t-23 -9.5h-55q-25 0 -35 22l-270 538h-4h-376v-530q0 -14 -8.5 -22t-21.5 -8h-46q-13 0 -21.5 8t-8.5 22v1340q0 14 8.5 22t21.5 8
h452q122 0 204.5 -25.5t131 -80t68.5 -130t20 -184.5q0 -191 -68.5 -290.5t-238.5 -122.5zM283 1298v-636h376q74 0 121 6.5t88 25t63 54t34 92t12 140.5t-12 140.5t-34 92t-63 54t-88 25t-121 6.5h-376z" />
    <glyph glyph-name="racute" unicode="&#x155;" 
d="M630 1090q-17 0 -24 9t0 25l120 252q11 24 34 24h18q17 0 24 -9t0 -25l-120 -252q-11 -24 -34 -24h-18zM714 1002q179 0 280.5 -84.5t101.5 -256.5q0 -30 -31 -32l-43 -1q-27 -3 -27 25q-1 125 -72.5 190t-203.5 65q-76 0 -144.5 -24t-115 -60.5t-80.5 -79.5t-50 -80.5
t-16 -63.5v-570q0 -14 -8.5 -22t-21.5 -8h-42q-13 0 -21.5 8t-8.5 22v920q0 14 8.5 22t21.5 8h34q27 0 30 -30l8 -142h23q53 80 154.5 137t223.5 57z" />
    <glyph glyph-name="Rcommaaccent" unicode="&#x156;" 
d="M776 567l268 -532q8 -16 2 -25.5t-23 -9.5h-55q-25 0 -35 22l-270 538h-4h-376v-530q0 -14 -8.5 -22t-21.5 -8h-46q-13 0 -21.5 8t-8.5 22v1340q0 14 8.5 22t21.5 8h452q122 0 204.5 -25.5t131 -80t68.5 -130t20 -184.5q0 -191 -68.5 -290.5t-238.5 -122.5zM283 1298
v-636h376q74 0 121 6.5t88 25t63 54t34 92t12 140.5t-12 140.5t-34 92t-63 54t-88 25t-121 6.5h-376zM762 -159q13 0 21.5 -8t8.5 -21v-12q0 -108 -19 -228t-46 -193q-8 -24 -35 -24h-14q-31 0 -25 34q13 74 21 180t7 178h-235q-13 0 -21 8t-8 21v36q0 13 8 21t21 8h316z
" />
    <glyph glyph-name="rcommaaccent" unicode="&#x157;" 
d="M714 1002q179 0 280.5 -84.5t101.5 -256.5q0 -30 -31 -32l-43 -1q-27 -3 -27 25q-1 125 -72.5 190t-203.5 65q-76 0 -144.5 -24t-115 -60.5t-80.5 -79.5t-50 -80.5t-16 -63.5v-570q0 -14 -8.5 -22t-21.5 -8h-42q-13 0 -21.5 8t-8.5 22v920q0 14 8.5 22t21.5 8h34
q27 0 30 -30l8 -142h23q53 80 154.5 137t223.5 57zM378 -159q13 0 21.5 -8t8.5 -21v-12q0 -108 -19 -228t-46 -193q-8 -24 -35 -24h-14q-31 0 -25 34q13 74 21 180t7 178h-235q-13 0 -21 8t-8 21v36q0 13 8 21t21 8h316z" />
    <glyph glyph-name="Rcaron" unicode="&#x158;" 
d="M541 1574l-224 246q-12 13 -8 24.5t23 11.5h51q15 0 36 -16l196 -192l196 192q21 16 36 16h51q19 0 23 -11.5t-8 -24.5l-224 -246q-13 -16 -36 -16h-76q-23 0 -36 16zM776 567l268 -532q8 -16 2 -25.5t-23 -9.5h-55q-25 0 -35 22l-270 538h-4h-376v-530q0 -14 -8.5 -22
t-21.5 -8h-46q-13 0 -21.5 8t-8.5 22v1340q0 14 8.5 22t21.5 8h452q122 0 204.5 -25.5t131 -80t68.5 -130t20 -184.5q0 -191 -68.5 -290.5t-238.5 -122.5zM283 1298v-636h376q74 0 121 6.5t88 25t63 54t34 92t12 140.5t-12 140.5t-34 92t-63 54t-88 25t-121 6.5h-376z" />
    <glyph glyph-name="rcaron" unicode="&#x159;" 
d="M561 1154l-224 246q-12 13 -8 24.5t23 11.5h51q15 0 36 -16l196 -192l196 192q21 16 36 16h51q19 0 23 -11.5t-8 -24.5l-224 -246q-13 -16 -36 -16h-76q-23 0 -36 16zM714 1002q179 0 280.5 -84.5t101.5 -256.5q0 -30 -31 -32l-43 -1q-27 -3 -27 25q-1 125 -72.5 190
t-203.5 65q-76 0 -144.5 -24t-115 -60.5t-80.5 -79.5t-50 -80.5t-16 -63.5v-570q0 -14 -8.5 -22t-21.5 -8h-42q-13 0 -21.5 8t-8.5 22v920q0 14 8.5 22t21.5 8h34q27 0 30 -30l8 -142h23q53 80 154.5 137t223.5 57z" />
    <glyph glyph-name="Sacute" unicode="&#x15a;" 
d="M758 1820q17 0 24 -9t0 -25l-120 -252q-11 -24 -34 -24h-18q-17 0 -24 9t0 25l120 252q11 24 34 24h18zM618 770q68 -15 116.5 -27.5t105 -32t96 -41t78.5 -53.5t62 -69.5t37.5 -88.5t14.5 -112q0 -79 -29.5 -145.5t-89 -119t-158.5 -82t-228 -29.5q-219 0 -353 82
t-147 230q-2 15 6.5 26.5t21.5 11.5h52q13 0 21 -9.5t9 -22.5q9 -100 113.5 -160t276.5 -60q399 0 399 281q0 63 -19.5 110t-49 76t-82 52.5t-99.5 37t-120 31.5q-11 2 -18.5 4t-15.5 4q-88 22 -147.5 41.5t-123 52.5t-101 73t-61.5 100.5t-24 137.5q0 161 115 256t331 95
q212 0 337 -81.5t141 -230.5q1 -14 -6.5 -20.5t-21.5 -6.5h-48q-29 0 -30 21q-10 98 -110.5 160t-262.5 62q-157 0 -250.5 -65t-93.5 -190q0 -66 25.5 -116t75.5 -84.5t110.5 -57t144.5 -41.5z" />
    <glyph glyph-name="sacute" unicode="&#x15b;" 
d="M758 1400q17 0 24 -9t0 -25l-120 -252q-11 -24 -34 -24h-18q-17 0 -24 9t0 25l120 252q11 24 34 24h18zM618 536q65 -9 104.5 -15t91.5 -18t83.5 -24.5t65.5 -33.5t52 -47t30 -62t12 -81q0 -129 -107.5 -205t-335.5 -76q-190 0 -306.5 65.5t-131.5 210.5q-3 30 27 30h46
q28 0 31 -26q21 -186 337 -186q163 0 251 46.5t88 134.5q0 34 -10.5 61t-33.5 46t-49.5 32t-69.5 23.5t-80 16.5t-95 13q-83 10 -139.5 21.5t-114 32.5t-91.5 50t-55 74.5t-21 106.5q0 126 97.5 201t306.5 75q90 0 163 -15t132 -46.5t94.5 -86t43.5 -128.5q3 -30 -27 -30
h-44q-28 0 -31 25q-23 187 -333 187q-146 0 -224.5 -45.5t-78.5 -135.5q0 -40 15.5 -69.5t40 -48.5t68.5 -33.5t87.5 -22.5t110.5 -17z" />
    <glyph glyph-name="Scedilla" unicode="&#x15e;" 
d="M1128 346q0 -158 -117.5 -262.5t-351.5 -112.5l-48 -52q66 -6 110 -46.5t44 -104.5q0 -75 -44.5 -122.5t-107 -61t-130.5 -1.5q-18 3 -18 22v41q0 10 6 15.5t16 4.5q83 -12 133 13.5t50 79.5q0 52 -55 74t-126 -7q-11 -4 -17.5 -0.5t-6.5 14.5v34q0 9 10 24l68 75
q-185 14 -296.5 94.5t-123.5 214.5q-2 15 6.5 26.5t21.5 11.5h52q13 0 21 -9.5t9 -22.5q9 -100 113.5 -160t276.5 -60q399 0 399 281q0 63 -19.5 110t-49 76t-82 52.5t-99.5 37t-120 31.5q-11 2 -18.5 4t-15.5 4q-88 22 -147.5 41.5t-123 52.5t-101 73t-61.5 100.5
t-24 137.5q0 161 115 256t331 95q212 0 337 -81.5t141 -230.5q1 -14 -6.5 -20.5t-21.5 -6.5h-48q-29 0 -30 21q-10 98 -110.5 160t-262.5 62q-157 0 -250.5 -65t-93.5 -190q0 -66 25.5 -116t75.5 -84.5t110.5 -57t144.5 -41.5q68 -15 116.5 -27.5t105 -32t96 -41t78.5 -53.5
t62 -69.5t37.5 -88.5t14.5 -112z" />
    <glyph glyph-name="scedilla" unicode="&#x15f;" 
d="M1057 255q0 -122 -95.5 -196.5t-298.5 -83.5l-52 -56q66 -6 110 -46.5t44 -104.5q0 -75 -44.5 -122.5t-107 -61t-130.5 -1.5q-18 3 -18 22v41q0 10 6 15.5t16 4.5q83 -12 133 13.5t50 79.5q0 52 -55 74t-126 -7q-11 -4 -17.5 -0.5t-6.5 14.5v34q0 9 10 24l71 78
q-344 24 -370 274q-3 30 27 30h46q28 0 31 -26q21 -186 337 -186q163 0 251 46.5t88 134.5q0 34 -10.5 61t-33.5 46t-49.5 32t-69.5 23.5t-80 16.5t-95 13q-83 10 -139.5 21.5t-114 32.5t-91.5 50t-55 74.5t-21 106.5q0 126 97.5 201t306.5 75q90 0 163 -15t132 -46.5
t94.5 -86t43.5 -128.5q3 -30 -27 -30h-44q-28 0 -31 25q-23 187 -333 187q-146 0 -224.5 -45.5t-78.5 -135.5q0 -40 15.5 -69.5t40 -48.5t68.5 -33.5t87.5 -22.5t110.5 -17q65 -9 104.5 -15t91.5 -18t83.5 -24.5t65.5 -33.5t52 -47t30 -62t12 -81z" />
    <glyph glyph-name="Scaron" unicode="&#x160;" 
d="M653 1558h-76q-23 0 -36 16l-224 246q-12 13 -8 24.5t23 11.5h51q15 0 36 -16l196 -192l196 192q21 16 36 16h51q19 0 23 -11.5t-8 -24.5l-224 -246q-13 -16 -36 -16zM618 770q68 -15 116.5 -27.5t105 -32t96 -41t78.5 -53.5t62 -69.5t37.5 -88.5t14.5 -112
q0 -79 -29.5 -145.5t-89 -119t-158.5 -82t-228 -29.5q-219 0 -353 82t-147 230q-2 15 6.5 26.5t21.5 11.5h52q13 0 21 -9.5t9 -22.5q9 -100 113.5 -160t276.5 -60q399 0 399 281q0 63 -19.5 110t-49 76t-82 52.5t-99.5 37t-120 31.5q-11 2 -18.5 4t-15.5 4
q-88 22 -147.5 41.5t-123 52.5t-101 73t-61.5 100.5t-24 137.5q0 161 115 256t331 95q212 0 337 -81.5t141 -230.5q1 -14 -6.5 -20.5t-21.5 -6.5h-48q-29 0 -30 21q-10 98 -110.5 160t-262.5 62q-157 0 -250.5 -65t-93.5 -190q0 -66 25.5 -116t75.5 -84.5t110.5 -57
t144.5 -41.5z" />
    <glyph glyph-name="scaron" unicode="&#x161;" 
d="M653 1138h-76q-23 0 -36 16l-224 246q-12 13 -8 24.5t23 11.5h51q15 0 36 -16l196 -192l196 192q21 16 36 16h51q19 0 23 -11.5t-8 -24.5l-224 -246q-13 -16 -36 -16zM618 536q65 -9 104.5 -15t91.5 -18t83.5 -24.5t65.5 -33.5t52 -47t30 -62t12 -81q0 -129 -107.5 -205
t-335.5 -76q-190 0 -306.5 65.5t-131.5 210.5q-3 30 27 30h46q28 0 31 -26q21 -186 337 -186q163 0 251 46.5t88 134.5q0 34 -10.5 61t-33.5 46t-49.5 32t-69.5 23.5t-80 16.5t-95 13q-83 10 -139.5 21.5t-114 32.5t-91.5 50t-55 74.5t-21 106.5q0 126 97.5 201t306.5 75
q90 0 163 -15t132 -46.5t94.5 -86t43.5 -128.5q3 -30 -27 -30h-44q-28 0 -31 25q-23 187 -333 187q-146 0 -224.5 -45.5t-78.5 -135.5q0 -40 15.5 -69.5t40 -48.5t68.5 -33.5t87.5 -22.5t110.5 -17z" />
    <glyph glyph-name="uni0162" unicode="&#x162;" 
d="M1100 1400q14 0 22 -8t8 -22v-42q0 -14 -8 -22t-22 -8h-432v-1268q0 -14 -8 -22t-22 -8h48l-75 -81q66 -6 110 -46.5t44 -104.5q0 -75 -44.5 -122.5t-107 -61t-130.5 -1.5q-18 3 -18 22v41q0 10 6 15.5t16 4.5q83 -12 133 13.5t50 79.5q0 52 -55 74t-126 -7
q-11 -4 -17.5 -0.5t-6.5 14.5v34q0 9 10 24l92 102h25q-14 0 -22 8t-8 22v1268h-432q-14 0 -22 8t-8 22v42q0 14 8 22t22 8h970z" />
    <glyph glyph-name="uni0163" unicode="&#x163;" 
d="M1092 142q19 -21 -1 -39q-47 -46 -129 -82.5t-187 -36.5q-49 0 -96 9l-68 -74q66 -6 110 -46.5t44 -104.5q0 -75 -44.5 -122.5t-107 -61t-130.5 -1.5q-18 3 -18 22v41q0 10 6 15.5t16 4.5q83 -12 133 13.5t50 79.5q0 52 -55 74t-126 -7q-11 -4 -17.5 -0.5t-6.5 14.5v34
q0 9 10 24l92 102h82q-109 30 -173.5 121t-64.5 255v504h-287q-14 0 -22 8t-8 22v40q0 14 8 22t22 8h287v260q0 14 8.5 22t21.5 8h42q13 0 21.5 -8t8.5 -22v-260h462q13 0 21.5 -8t8.5 -22v-40q0 -14 -8.5 -22t-21.5 -8h-462v-510q0 -80 21.5 -138t60 -90t84.5 -46.5
t102 -14.5q136 0 242 93q21 22 42 -2z" />
    <glyph glyph-name="Tcaron" unicode="&#x164;" 
d="M653 1558h-76q-23 0 -36 16l-224 246q-12 13 -8 24.5t23 11.5h51q15 0 36 -16l196 -192l196 192q21 16 36 16h51q19 0 23 -11.5t-8 -24.5l-224 -246q-13 -16 -36 -16zM1100 1400q14 0 22 -8t8 -22v-42q0 -14 -8 -22t-22 -8h-432v-1268q0 -14 -8 -22t-22 -8h-46
q-14 0 -22 8t-8 22v1268h-432q-14 0 -22 8t-8 22v42q0 14 8 22t22 8h970z" />
    <glyph glyph-name="tcaron" unicode="&#x165;" 
d="M1110 1614q17 0 24 -9t0 -25l-120 -252q-11 -24 -34 -24h-18q-17 0 -24 9t0 25l120 252q11 24 34 24h18zM1065 172l27 -30q19 -21 -1 -39q-47 -46 -129 -82.5t-187 -36.5q-74 0 -136 19.5t-115 62.5t-83 122t-30 188v504h-287q-14 0 -22 8t-8 22v40q0 14 8 22t22 8h287
v260q0 14 8.5 22t21.5 8h42q13 0 21.5 -8t8.5 -22v-260h462q13 0 21.5 -8t8.5 -22v-40q0 -14 -8.5 -22t-21.5 -8h-462v-510q0 -80 21.5 -138t60 -90t84.5 -46.5t102 -14.5q136 0 242 93q21 22 42 -2z" />
    <glyph glyph-name="Tbar" unicode="&#x166;" 
d="M1100 1400q14 0 22 -8t8 -22v-42q0 -14 -8 -22t-22 -8h-432v-318h189q13 0 21.5 -8t8.5 -22v-30q0 -14 -8.5 -22t-21.5 -8h-189v-860q0 -14 -8 -22t-22 -8h-46q-14 0 -22 8t-8 22v860h-189q-13 0 -21.5 8t-8.5 22v30q0 14 8.5 22t21.5 8h189v318h-432q-14 0 -22 8t-8 22
v42q0 14 8 22t22 8h970z" />
    <glyph glyph-name="tbar" unicode="&#x167;" 
d="M1092 142q19 -21 -1 -39q-47 -46 -129 -82.5t-187 -36.5q-74 0 -136 19.5t-115 62.5t-83 122t-30 188v260h-262q-13 0 -21.5 8t-8.5 22v32q0 14 8.5 22t21.5 8h262v152h-287q-14 0 -22 8t-8 22v40q0 14 8 22t22 8h287v260q0 14 8.5 22t21.5 8h42q13 0 21.5 -8t8.5 -22
v-260h462q13 0 21.5 -8t8.5 -22v-40q0 -14 -8.5 -22t-21.5 -8h-462v-152h462q13 0 21.5 -8t8.5 -22v-32q0 -14 -8.5 -22t-21.5 -8h-462v-266q0 -80 21.5 -138t60 -90t84.5 -46.5t102 -14.5q136 0 242 93q21 22 42 -2z" />
    <glyph glyph-name="Umacron" unicode="&#x16a;" 
d="M857 1816q13 0 21.5 -8t8.5 -22v-30q0 -14 -8.5 -22t-21.5 -8h-484q-13 0 -21.5 8t-8.5 22v30q0 14 8.5 22t21.5 8h484zM1047 1400q13 0 21.5 -8t8.5 -22v-856q0 -147 -30.5 -252.5t-91.5 -169.5t-144.5 -93t-195.5 -29t-195.5 29t-144.5 93t-91.5 169.5t-30.5 252.5v856
q0 14 8.5 22t21.5 8h46q13 0 21.5 -8t8.5 -22v-851q0 -168 41 -268.5t117 -142t198 -41.5q183 0 269.5 102.5t86.5 349.5v851q0 14 8.5 22t21.5 8h46z" />
    <glyph glyph-name="umacron" unicode="&#x16b;" 
d="M373 1306q-13 0 -21.5 8t-8.5 22v30q0 14 8.5 22t21.5 8h484q13 0 21.5 -8t8.5 -22v-30q0 -14 -8.5 -22t-21.5 -8h-484zM1013 980q13 0 21.5 -8t8.5 -22v-920q0 -14 -8.5 -22t-21.5 -8h-34q-28 0 -30 30l-8 142h-19q-44 -80 -144.5 -137t-228.5 -57q-362 0 -362 380v592
q0 14 8.5 22t21.5 8h42q13 0 21.5 -8t8.5 -22v-598q0 -282 279 -282q85 0 160.5 32.5t119 76t68.5 81t25 54.5v636q0 14 8.5 22t21.5 8h42z" />
    <glyph glyph-name="Ubreve" unicode="&#x16c;" 
d="M791 1798q6 27 32 27h27q30 0 27 -29q-10 -104 -80 -169.5t-182 -65.5t-182 65.5t-80 169.5q-3 29 27 29h27q26 0 32 -27q14 -65 59.5 -104.5t116.5 -39.5t116.5 39.5t59.5 104.5zM1047 1400q13 0 21.5 -8t8.5 -22v-856q0 -147 -30.5 -252.5t-91.5 -169.5t-144.5 -93
t-195.5 -29t-195.5 29t-144.5 93t-91.5 169.5t-30.5 252.5v856q0 14 8.5 22t21.5 8h46q13 0 21.5 -8t8.5 -22v-851q0 -168 41 -268.5t117 -142t198 -41.5q183 0 269.5 102.5t86.5 349.5v851q0 14 8.5 22t21.5 8h46z" />
    <glyph glyph-name="ubreve" unicode="&#x16d;" 
d="M615 1141q-112 0 -182 65.5t-80 169.5q-3 29 27 29h27q26 0 32 -27q14 -65 59.5 -104.5t116.5 -39.5t116.5 39.5t59.5 104.5q6 27 32 27h27q30 0 27 -29q-10 -104 -80 -169.5t-182 -65.5zM1013 980q13 0 21.5 -8t8.5 -22v-920q0 -14 -8.5 -22t-21.5 -8h-34q-28 0 -30 30
l-8 142h-19q-44 -80 -144.5 -137t-228.5 -57q-362 0 -362 380v592q0 14 8.5 22t21.5 8h42q13 0 21.5 -8t8.5 -22v-598q0 -282 279 -282q85 0 160.5 32.5t119 76t68.5 81t25 54.5v636q0 14 8.5 22t21.5 8h42z" />
    <glyph glyph-name="Uring" unicode="&#x16e;" 
d="M615 1864q70 0 118 -48.5t48 -114.5q0 -68 -48 -116t-118 -48q-69 0 -117 48.5t-48 115.5q0 66 48 114.5t117 48.5zM615 1620q34 0 58.5 23.5t23.5 56.5q1 33 -23.5 56.5t-58.5 23.5q-33 0 -57 -23.5t-24 -56.5t24 -56.5t57 -23.5zM1047 1400q13 0 21.5 -8t8.5 -22v-856
q0 -147 -30.5 -252.5t-91.5 -169.5t-144.5 -93t-195.5 -29t-195.5 29t-144.5 93t-91.5 169.5t-30.5 252.5v856q0 14 8.5 22t21.5 8h46q13 0 21.5 -8t8.5 -22v-851q0 -168 41 -268.5t117 -142t198 -41.5q183 0 269.5 102.5t86.5 349.5v851q0 14 8.5 22t21.5 8h46z" />
    <glyph glyph-name="uring" unicode="&#x16f;" 
d="M615 1117q-69 0 -117 48.5t-48 115.5q0 66 48 114.5t117 48.5q70 0 118 -48.5t48 -114.5q0 -68 -48 -116t-118 -48zM615 1360q-33 0 -57 -23.5t-24 -56.5t24 -56.5t57 -23.5q34 0 58.5 23.5t23.5 56.5q1 33 -23.5 56.5t-58.5 23.5zM1013 980q13 0 21.5 -8t8.5 -22v-920
q0 -14 -8.5 -22t-21.5 -8h-34q-28 0 -30 30l-8 142h-19q-44 -80 -144.5 -137t-228.5 -57q-362 0 -362 380v592q0 14 8.5 22t21.5 8h42q13 0 21.5 -8t8.5 -22v-598q0 -282 279 -282q85 0 160.5 32.5t119 76t68.5 81t25 54.5v636q0 14 8.5 22t21.5 8h42z" />
    <glyph glyph-name="Uhungarumlaut" unicode="&#x170;" 
d="M597 1820q17 0 24 -9t0 -25l-120 -252q-11 -24 -34 -24h-18q-17 0 -24 9t0 25l120 252q11 24 34 24h18zM855 1820q17 0 24 -9t0 -25l-120 -252q-11 -24 -34 -24h-18q-17 0 -24 9t0 25l120 252q11 24 34 24h18zM1047 1400q13 0 21.5 -8t8.5 -22v-856q0 -147 -30.5 -252.5
t-91.5 -169.5t-144.5 -93t-195.5 -29t-195.5 29t-144.5 93t-91.5 169.5t-30.5 252.5v856q0 14 8.5 22t21.5 8h46q13 0 21.5 -8t8.5 -22v-851q0 -168 41 -268.5t117 -142t198 -41.5q183 0 269.5 102.5t86.5 349.5v851q0 14 8.5 22t21.5 8h46z" />
    <glyph glyph-name="uhungarumlaut" unicode="&#x171;" 
d="M449 1090q-17 0 -24 9t0 25l120 252q11 24 34 24h18q17 0 24 -9t0 -25l-120 -252q-11 -24 -34 -24h-18zM707 1090q-17 0 -24 9t0 25l120 252q11 24 34 24h18q17 0 24 -9t0 -25l-120 -252q-11 -24 -34 -24h-18zM1013 980q13 0 21.5 -8t8.5 -22v-920q0 -14 -8.5 -22
t-21.5 -8h-34q-28 0 -30 30l-8 142h-19q-44 -80 -144.5 -137t-228.5 -57q-362 0 -362 380v592q0 14 8.5 22t21.5 8h42q13 0 21.5 -8t8.5 -22v-598q0 -282 279 -282q85 0 160.5 32.5t119 76t68.5 81t25 54.5v636q0 14 8.5 22t21.5 8h42z" />
    <glyph glyph-name="Uogonek" unicode="&#x172;" 
d="M1047 1400q13 0 21.5 -8t8.5 -22v-856q0 -165 -39 -277.5t-111 -172.5t-180 -82q-152 -75 -152 -184q0 -72 51 -101t137 -9v-84q-26 -12 -62 -16t-75.5 5t-73 29.5t-55.5 62t-22 98.5q0 107 91 188q-214 7 -323.5 135t-109.5 408v856q0 14 8.5 22t21.5 8h46q13 0 21.5 -8
t8.5 -22v-851q0 -168 41 -268.5t117 -142t198 -41.5q183 0 269.5 102.5t86.5 349.5v851q0 14 8.5 22t21.5 8h46z" />
    <glyph glyph-name="uogonek" unicode="&#x173;" 
d="M1013 980q13 0 21.5 -8t8.5 -22v-920q0 -13 -8 -21.5t-21 -8.5q-113 0 -179.5 -60.5t-66.5 -133.5q0 -78 50.5 -108t137.5 -10v-84q-26 -12 -62 -16t-75.5 5t-73 29.5t-55.5 62t-22 98.5t25.5 106.5t67 84t89 58t97.5 35.5l-6 105h-19q-44 -80 -144.5 -137t-228.5 -57
q-362 0 -362 380v592q0 14 8.5 22t21.5 8h42q13 0 21.5 -8t8.5 -22v-598q0 -282 279 -282q85 0 160.5 32.5t119 76t68.5 81t25 54.5v636q0 14 8.5 22t21.5 8h42z" />
    <glyph glyph-name="Wcircumflex" unicode="&#x174;" 
d="M332 1558q-19 0 -23 11t8 25l224 246q15 16 36 16h76q21 0 36 -16l224 -246q12 -14 8 -25t-23 -11h-51q-17 0 -36 16l-196 192l-196 -192q-19 -16 -36 -16h-51zM1125 1400q27 0 24 -34l-200 -1342q-3 -24 -35 -24h-77q-31 0 -37 24l-185 1094l-185 -1094q-6 -24 -37 -24
h-77q-32 0 -35 24l-200 1342q-3 34 24 34h47q31 0 34 -24l170 -1257l207 1257q5 24 34 24h36q29 0 34 -24l207 -1257l170 1257q3 24 34 24h47z" />
    <glyph glyph-name="wcircumflex" unicode="&#x175;" 
d="M333 1138q-19 0 -23 11t8 25l224 246q15 16 36 16h76q21 0 36 -16l224 -246q12 -14 8 -25t-23 -11h-51q-17 0 -36 16l-196 192l-196 -192q-19 -16 -36 -16h-51zM1128 980q30 0 24 -34l-209 -922q-7 -24 -36 -24h-72q-29 0 -36 24l-185 745l-185 -745q-7 -24 -36 -24h-72
q-29 0 -36 24l-209 922q-6 34 24 34h52q28 0 36 -24l171 -849l199 849q4 17 24 22q6 2 12 2h40q6 0 12 -2q20 -5 24 -22l199 -849l171 849q8 24 36 24h52z" />
    <glyph glyph-name="Ycircumflex" unicode="&#x176;" 
d="M332 1558q-19 0 -23 11t8 25l224 246q15 16 36 16h76q21 0 36 -16l224 -246q12 -14 8 -25t-23 -11h-51q-17 0 -36 16l-196 192l-196 -192q-19 -16 -36 -16h-51zM1121 1400q18 0 23.5 -11t-3.5 -25l-473 -813v-521q0 -14 -8 -22t-22 -8h-46q-14 0 -22 8t-8 22v520
l-473 814q-9 14 -3.5 25t23.5 11h47q23 0 36 -20l423 -730l423 730q13 20 36 20h47z" />
    <glyph glyph-name="ycircumflex" unicode="&#x177;" 
d="M653 1436q21 0 36 -16l224 -246q12 -14 8 -25t-23 -11h-51q-17 0 -36 16l-196 192l-196 -192q-19 -16 -36 -16h-51q-19 0 -23 11t8 25l224 246q15 16 36 16h76zM1072 980q17 0 24 -9t0 -25l-586 -1302q-11 -24 -36 -24h-43q-17 0 -24 9t0 25l153 346l-426 946q-7 16 0 25
t24 9h43q25 0 36 -24l378 -847l378 847q11 24 36 24h43z" />
    <glyph glyph-name="Ydieresis" unicode="&#x178;" 
d="M447 1706q-28 0 -48 20.5t-20 47.5q0 26 20.5 46t47.5 20q28 0 48.5 -20t20.5 -46q0 -27 -20.5 -47.5t-48.5 -20.5zM785 1706q-28 0 -48 20.5t-20 47.5q0 26 20.5 46t47.5 20q28 0 48.5 -20t20.5 -46q0 -27 -20.5 -47.5t-48.5 -20.5zM1121 1400q18 0 23.5 -11t-3.5 -25
l-473 -813v-521q0 -14 -8 -22t-22 -8h-46q-14 0 -22 8t-8 22v520l-473 814q-9 14 -3.5 25t23.5 11h47q23 0 36 -20l423 -730l423 730q13 20 36 20h47z" />
    <glyph glyph-name="Zacute" unicode="&#x179;" 
d="M758 1820q17 0 24 -9t0 -25l-120 -252q-11 -24 -34 -24h-18q-17 0 -24 9t0 25l120 252q11 24 34 24h18zM1061 102q13 0 21.5 -8t8.5 -22v-42q0 -14 -8.5 -22t-21.5 -8h-892q-13 0 -21.5 8t-8.5 22v52q0 18 12 36l795 1180h-757q-13 0 -21.5 8t-8.5 22v42q0 14 8.5 22
t21.5 8h852q13 0 21.5 -8t8.5 -22v-52q0 -18 -12 -36l-795 -1180h797z" />
    <glyph glyph-name="zacute" unicode="&#x17a;" 
d="M758 1400q17 0 24 -9t0 -25l-120 -252q-11 -24 -34 -24h-18q-17 0 -24 9t0 25l120 252q11 24 34 24h18zM1027 950v-39q0 -24 -14 -38l-690 -782h674q13 0 21.5 -8.5t8.5 -21.5v-31q0 -14 -8.5 -22t-21.5 -8h-764q-13 0 -21.5 8t-8.5 22v39q0 24 14 38l690 782h-674
q-13 0 -21.5 8.5t-8.5 21.5v31q0 14 8.5 22t21.5 8h764q13 0 21.5 -8t8.5 -22z" />
    <glyph glyph-name="Zdotaccent" unicode="&#x17b;" 
d="M615 1696q-28 0 -48.5 20.5t-20.5 47.5q0 26 20.5 46t48.5 20t48.5 -20t20.5 -46q0 -27 -20.5 -47.5t-48.5 -20.5zM1061 102q13 0 21.5 -8t8.5 -22v-42q0 -14 -8.5 -22t-21.5 -8h-892q-13 0 -21.5 8t-8.5 22v52q0 18 12 36l795 1180h-757q-13 0 -21.5 8t-8.5 22v42
q0 14 8.5 22t21.5 8h852q13 0 21.5 -8t8.5 -22v-52q0 -18 -12 -36l-795 -1180h797z" />
    <glyph glyph-name="zdotaccent" unicode="&#x17c;" 
d="M615 1276q-28 0 -48.5 20.5t-20.5 47.5q0 26 20.5 46t48.5 20t48.5 -20t20.5 -46q0 -27 -20.5 -47.5t-48.5 -20.5zM1027 950v-39q0 -24 -14 -38l-690 -782h674q13 0 21.5 -8.5t8.5 -21.5v-31q0 -14 -8.5 -22t-21.5 -8h-764q-13 0 -21.5 8t-8.5 22v39q0 24 14 38l690 782
h-674q-13 0 -21.5 8.5t-8.5 21.5v31q0 14 8.5 22t21.5 8h764q13 0 21.5 -8t8.5 -22z" />
    <glyph glyph-name="Zcaron" unicode="&#x17d;" 
d="M653 1558h-76q-23 0 -36 16l-224 246q-12 13 -8 24.5t23 11.5h51q15 0 36 -16l196 -192l196 192q21 16 36 16h51q19 0 23 -11.5t-8 -24.5l-224 -246q-13 -16 -36 -16zM1061 102q13 0 21.5 -8t8.5 -22v-42q0 -14 -8.5 -22t-21.5 -8h-892q-13 0 -21.5 8t-8.5 22v52
q0 18 12 36l795 1180h-757q-13 0 -21.5 8t-8.5 22v42q0 14 8.5 22t21.5 8h852q13 0 21.5 -8t8.5 -22v-52q0 -18 -12 -36l-795 -1180h797z" />
    <glyph glyph-name="zcaron" unicode="&#x17e;" 
d="M653 1138h-76q-23 0 -36 16l-224 246q-12 13 -8 24.5t23 11.5h51q15 0 36 -16l196 -192l196 192q21 16 36 16h51q19 0 23 -11.5t-8 -24.5l-224 -246q-13 -16 -36 -16zM1027 950v-39q0 -24 -14 -38l-690 -782h674q13 0 21.5 -8.5t8.5 -21.5v-31q0 -14 -8.5 -22t-21.5 -8
h-764q-13 0 -21.5 8t-8.5 22v39q0 24 14 38l690 782h-674q-13 0 -21.5 8.5t-8.5 21.5v31q0 14 8.5 22t21.5 8h764q13 0 21.5 -8t8.5 -22z" />
    <glyph glyph-name="florin" unicode="&#x192;" 
d="M893 1472q79 0 161.5 -18.5t82.5 -44.5v-35q0 -15 -10 -23t-26 -5q-4 1 -32.5 10t-69.5 16.5t-90 7.5q-65 0 -105.5 -9.5t-74 -37.5t-48 -84.5t-14.5 -145.5v-123h425q14 0 22 -8t8 -22v-31q0 -13 -8 -21.5t-22 -8.5h-425v-519q0 -93 -14.5 -160.5t-40 -109.5t-67.5 -67
t-90 -34t-115 -9q-79 0 -161.5 18.5t-82.5 44.5v35q0 15 10 23t26 5q4 -1 32.5 -10t69.5 -16.5t90 -7.5q65 0 105 9.5t73.5 37.5t48 84.5t14.5 145.5v530h-456q-13 0 -21.5 8.5t-8.5 21.5v31q0 14 8.5 22t21.5 8h456v112q0 93 14.5 160.5t40 109.5t67.5 67t90.5 34t115.5 9z
" />
    <glyph glyph-name="uni01CD" unicode="&#x1cd;" 
d="M541 1574l-224 246q-12 13 -8 24.5t23 11.5h51q15 0 36 -16l196 -192l196 192q21 16 36 16h51q19 0 23 -11.5t-8 -24.5l-224 -246q-13 -16 -36 -16h-76q-23 0 -36 16zM1154 34q10 -34 -24 -34h-42q-27 0 -34 24l-102 313h-674l-102 -313q-7 -24 -34 -24h-42q-34 0 -24 34
l437 1342q9 24 37 24h130q28 0 37 -24zM311 438h608l-277 854h-54z" />
    <glyph glyph-name="uni01CE" unicode="&#x1ce;" 
d="M541 1154l-224 246q-12 13 -8 24.5t23 11.5h51q15 0 36 -16l196 -192l196 192q21 16 36 16h51q19 0 23 -11.5t-8 -24.5l-224 -246q-13 -16 -36 -16h-76q-23 0 -36 16zM1103 84q32 -2 32 -38v-16q0 -13 -1.5 -19t-11.5 -12t-29 -7q-172 -13 -176 147q-181 -163 -458 -163
q-168 0 -244 75t-76 200q0 243 295 286l368 56q67 10 90 18.5t27 25.5v11q0 138 -72.5 199t-223.5 61q-299 0 -322 -189q-3 -25 -31 -25h-44q-30 0 -27 30q29 278 422 278q400 0 400 -340v-500q0 -73 82 -78zM245 253q0 -180 225 -180q267 0 449 177v282q-2 -12 -18 -18.5
t-61 -13.5l-357 -53q-137 -21 -187.5 -67t-50.5 -127z" />
    <glyph glyph-name="uni01CF" unicode="&#x1cf;" 
d="M653 1558h-76q-23 0 -36 16l-224 246q-12 13 -8 24.5t23 11.5h51q15 0 36 -16l196 -192l196 192q21 16 36 16h51q19 0 23 -11.5t-8 -24.5l-224 -246q-13 -16 -36 -16zM1065 1298h-397v-1196h397q13 0 21.5 -8t8.5 -22v-42q0 -14 -8.5 -22t-21.5 -8h-900q-13 0 -21.5 8
t-8.5 22v42q0 14 8.5 22t21.5 8h397v1196h-397q-13 0 -21.5 8t-8.5 22v42q0 14 8.5 22t21.5 8h900q13 0 21.5 -8t8.5 -22v-42q0 -14 -8.5 -22t-21.5 -8z" />
    <glyph glyph-name="uni01D0" unicode="&#x1d0;" 
d="M541 1154l-224 246q-12 13 -8 24.5t23 11.5h51q15 0 36 -16l196 -192l196 192q21 16 36 16h51q19 0 23 -11.5t-8 -24.5l-224 -246q-13 -16 -36 -16h-76q-23 0 -36 16zM1041 100q13 0 21.5 -8t8.5 -22v-40q0 -14 -8.5 -22t-21.5 -8h-842q-13 0 -21.5 8t-8.5 22v40
q0 14 8.5 22t21.5 8h396v780h-346q-13 0 -21.5 8t-8.5 22v40q0 14 8.5 22t21.5 8h418q13 0 21.5 -8t8.5 -22v-850h344z" />
    <glyph glyph-name="uni01D1" unicode="&#x1d1;" 
d="M653 1558h-76q-23 0 -36 16l-224 246q-12 13 -8 24.5t23 11.5h51q15 0 36 -16l196 -192l196 192q21 16 36 16h51q19 0 23 -11.5t-8 -24.5l-224 -246q-13 -16 -36 -16zM615 1420q128 0 213.5 -28.5t148.5 -102t91.5 -204.5t28.5 -332v-117q0 -161 -19.5 -276.5t-56 -191
t-97 -119.5t-134 -61.5t-175.5 -17.5t-175.5 17.5t-134 61.5t-97 119.5t-56 191t-19.5 276.5v117q0 201 28.5 332t91.5 204.5t148.5 102t213.5 28.5zM615 1318q-68 0 -115.5 -7.5t-92.5 -29t-74 -60.5t-51.5 -101t-32.5 -152.5t-10 -213.5v-118q0 -123 10 -213.5
t32.5 -152.5t51.5 -101t74 -60.5t92.5 -29t115.5 -7.5t115.5 7.5t92.5 29t74 60.5t51.5 101t32.5 152.5t10 213.5v118q0 123 -10 213.5t-32.5 152.5t-51.5 101t-74 60.5t-92.5 29t-115.5 7.5z" />
    <glyph glyph-name="uni01D2" unicode="&#x1d2;" 
d="M653 1138h-76q-23 0 -36 16l-224 246q-12 13 -8 24.5t23 11.5h51q15 0 36 -16l196 -192l196 192q21 16 36 16h51q19 0 23 -11.5t-8 -24.5l-224 -246q-13 -16 -36 -16zM615 -26q-212 0 -351.5 147t-139.5 367t139.5 367t351.5 147t351.5 -147t139.5 -367t-139.5 -367
t-351.5 -147zM615 64q171 0 282 119.5t111 304.5t-111 304.5t-282 119.5t-282 -119.5t-111 -304.5t111 -304.5t282 -119.5z" />
    <glyph glyph-name="uni01D3" unicode="&#x1d3;" 
d="M653 1558h-76q-23 0 -36 16l-224 246q-12 13 -8 24.5t23 11.5h51q15 0 36 -16l196 -192l196 192q21 16 36 16h51q19 0 23 -11.5t-8 -24.5l-224 -246q-13 -16 -36 -16zM1047 1400q13 0 21.5 -8t8.5 -22v-856q0 -147 -30.5 -252.5t-91.5 -169.5t-144.5 -93t-195.5 -29
t-195.5 29t-144.5 93t-91.5 169.5t-30.5 252.5v856q0 14 8.5 22t21.5 8h46q13 0 21.5 -8t8.5 -22v-851q0 -168 41 -268.5t117 -142t198 -41.5q183 0 269.5 102.5t86.5 349.5v851q0 14 8.5 22t21.5 8h46z" />
    <glyph glyph-name="uni01D4" unicode="&#x1d4;" 
d="M541 1154l-224 246q-12 13 -8 24.5t23 11.5h51q15 0 36 -16l196 -192l196 192q21 16 36 16h51q19 0 23 -11.5t-8 -24.5l-224 -246q-13 -16 -36 -16h-76q-23 0 -36 16zM1013 980q13 0 21.5 -8t8.5 -22v-920q0 -14 -8.5 -22t-21.5 -8h-34q-28 0 -30 30l-8 142h-19
q-44 -80 -144.5 -137t-228.5 -57q-362 0 -362 380v592q0 14 8.5 22t21.5 8h42q13 0 21.5 -8t8.5 -22v-598q0 -282 279 -282q85 0 160.5 32.5t119 76t68.5 81t25 54.5v636q0 14 8.5 22t21.5 8h42z" />
    <glyph glyph-name="uni01EA" unicode="&#x1ea;" 
d="M615 1420q128 0 213.5 -28.5t148.5 -102t91.5 -204.5t28.5 -332v-117q0 -178 -22.5 -300t-71 -198t-116.5 -113.5t-166 -48.5q-73 -24 -117 -74t-44 -104q0 -78 50.5 -108t137.5 -10v-84q-26 -12 -62 -16t-75.5 5t-73 29.5t-55.5 62t-22 98.5q0 116 97 196
q-89 5 -154.5 27t-118 68.5t-85 121.5t-49.5 186t-17 262v117q0 201 28.5 332t91.5 204.5t148.5 102t213.5 28.5zM991 636v118q0 123 -10 213.5t-32.5 152.5t-51.5 101t-74 60.5t-92.5 29t-115.5 7.5t-115.5 -7.5t-92.5 -29t-74 -60.5t-51.5 -101t-32.5 -152.5t-10 -213.5
v-118q0 -123 10 -213.5t32.5 -152.5t51.5 -101t74 -60.5t92.5 -29t115.5 -7.5t115.5 7.5t92.5 29t74 60.5t51.5 101t32.5 152.5t10 213.5z" />
    <glyph glyph-name="uni01EB" unicode="&#x1eb;" 
d="M1106 488q0 -175 -90.5 -307t-241.5 -182q-216 -81 -216 -201q0 -72 51 -101t137 -9v-84q-26 -12 -61.5 -16t-75 5t-73 29.5t-55.5 62t-22 98.5q0 112 98 194q-190 21 -311.5 164t-121.5 347q0 220 139.5 367t351.5 147t351.5 -147t139.5 -367zM615 64q171 0 282 119.5
t111 304.5t-111 304.5t-282 119.5t-282 -119.5t-111 -304.5t111 -304.5t282 -119.5z" />
    <glyph glyph-name="Scommaaccent" unicode="&#x218;" 
d="M618 770q68 -15 116.5 -27.5t105 -32t96 -41t78.5 -53.5t62 -69.5t37.5 -88.5t14.5 -112q0 -79 -29.5 -145.5t-89 -119t-158.5 -82t-228 -29.5q-219 0 -353 82t-147 230q-2 15 6.5 26.5t21.5 11.5h52q13 0 21 -9.5t9 -22.5q9 -100 113.5 -160t276.5 -60q399 0 399 281
q0 63 -19.5 110t-49 76t-82 52.5t-99.5 37t-120 31.5q-11 2 -18.5 4t-15.5 4q-88 22 -147.5 41.5t-123 52.5t-101 73t-61.5 100.5t-24 137.5q0 161 115 256t331 95q212 0 337 -81.5t141 -230.5q1 -14 -6.5 -20.5t-21.5 -6.5h-48q-29 0 -30 21q-10 98 -110.5 160t-262.5 62
q-157 0 -250.5 -65t-93.5 -190q0 -66 25.5 -116t75.5 -84.5t110.5 -57t144.5 -41.5zM762 -159q13 0 21.5 -8t8.5 -21v-12q0 -108 -19 -228t-46 -193q-8 -24 -35 -24h-14q-31 0 -25 34q13 74 21 180t7 178h-235q-13 0 -21 8t-8 21v36q0 13 8 21t21 8h316z" />
    <glyph glyph-name="scommaaccent" unicode="&#x219;" 
d="M618 536q65 -9 104.5 -15t91.5 -18t83.5 -24.5t65.5 -33.5t52 -47t30 -62t12 -81q0 -129 -107.5 -205t-335.5 -76q-190 0 -306.5 65.5t-131.5 210.5q-3 30 27 30h46q28 0 31 -26q21 -186 337 -186q163 0 251 46.5t88 134.5q0 34 -10.5 61t-33.5 46t-49.5 32t-69.5 23.5
t-80 16.5t-95 13q-83 10 -139.5 21.5t-114 32.5t-91.5 50t-55 74.5t-21 106.5q0 126 97.5 201t306.5 75q90 0 163 -15t132 -46.5t94.5 -86t43.5 -128.5q3 -30 -27 -30h-44q-28 0 -31 25q-23 187 -333 187q-146 0 -224.5 -45.5t-78.5 -135.5q0 -40 15.5 -69.5t40 -48.5
t68.5 -33.5t87.5 -22.5t110.5 -17zM762 -159q13 0 21.5 -8t8.5 -21v-12q0 -108 -19 -228t-46 -193q-8 -24 -35 -24h-14q-31 0 -25 34q13 74 21 180t7 178h-235q-13 0 -21 8t-8 21v36q0 13 8 21t21 8h316z" />
    <glyph glyph-name="uni021A" unicode="&#x21a;" 
d="M1100 1400q14 0 22 -8t8 -22v-42q0 -14 -8 -22t-22 -8h-432v-1268q0 -14 -8 -22t-22 -8h-46q-14 0 -22 8t-8 22v1268h-432q-14 0 -22 8t-8 22v42q0 14 8 22t22 8h970zM762 -159q13 0 21.5 -8t8.5 -21v-12q0 -108 -19 -228t-46 -193q-8 -24 -35 -24h-14q-31 0 -25 34
q13 74 21 180t7 178h-235q-13 0 -21 8t-8 21v36q0 13 8 21t21 8h316z" />
    <glyph glyph-name="uni021B" unicode="&#x21b;" 
d="M1092 142q19 -21 -1 -39q-47 -46 -129 -82.5t-187 -36.5q-74 0 -136 19.5t-115 62.5t-83 122t-30 188v504h-287q-14 0 -22 8t-8 22v40q0 14 8 22t22 8h287v260q0 14 8.5 22t21.5 8h42q13 0 21.5 -8t8.5 -22v-260h462q13 0 21.5 -8t8.5 -22v-40q0 -14 -8.5 -22t-21.5 -8
h-462v-510q0 -80 21.5 -138t60 -90t84.5 -46.5t102 -14.5q136 0 242 93q21 22 42 -2zM762 -159q13 0 21.5 -8t8.5 -21v-12q0 -108 -19 -228t-46 -193q-8 -24 -35 -24h-14q-31 0 -25 34q13 74 21 180t7 178h-235q-13 0 -21 8t-8 21v36q0 13 8 21t21 8h316z" />
    <glyph glyph-name="uni0237" unicode="&#x237;" 
d="M830 980q14 0 22 -8t8 -22v-930q0 -97 -22 -170.5t-57.5 -117.5t-88 -71.5t-105.5 -37t-117 -9.5q-60 0 -116 12.5t-94.5 30.5t-66.5 38.5t-40 37.5t-7 25l23 40q5 10 19.5 12.5t26.5 -6.5q71 -54 135 -74q57 -18 117 -18q43 0 79 5.5t77 23.5t69 49t47 86t19 130v874
h-493q-13 0 -21.5 8t-8.5 22v40q0 14 8.5 22t21.5 8h565z" />
    <glyph glyph-name="circumflex" unicode="&#x2c6;" 
d="M653 1440q21 0 36 -16l224 -246q12 -14 8 -25t-23 -11h-51q-17 0 -36 16l-196 192l-196 -192q-19 -16 -36 -16h-51q-19 0 -23 11t8 25l224 246q15 16 36 16h76z" />
    <glyph glyph-name="caron" unicode="&#x2c7;" 
d="M653 1142h-76q-23 0 -36 16l-224 246q-12 13 -8 24.5t23 11.5h51q15 0 36 -16l196 -192l196 192q21 16 36 16h51q19 0 23 -11.5t-8 -24.5l-224 -246q-13 -16 -36 -16z" />
    <glyph glyph-name="breve" unicode="&#x2d8;" 
d="M791 1380q6 27 32 27h27q30 0 27 -29q-10 -104 -80 -169.5t-182 -65.5t-182 65.5t-80 169.5q-3 29 27 29h27q26 0 32 -27q14 -65 59.5 -104.5t116.5 -39.5t116.5 39.5t59.5 104.5z" />
    <glyph glyph-name="dotaccent" unicode="&#x2d9;" 
d="M615 1276q-28 0 -48.5 20.5t-20.5 47.5q0 26 20.5 46t48.5 20t48.5 -20t20.5 -46q0 -27 -20.5 -47.5t-48.5 -20.5z" />
    <glyph glyph-name="ring" unicode="&#x2da;" 
d="M614 1444q70 0 118 -48.5t48 -114.5q0 -68 -48 -116t-118 -48q-69 0 -117 48.5t-48 115.5q0 66 48 114.5t117 48.5zM614 1200q34 0 58.5 23.5t23.5 56.5q1 33 -23.5 56.5t-58.5 23.5q-33 0 -57 -23.5t-24 -56.5t24 -56.5t57 -23.5z" />
    <glyph glyph-name="ogonek" unicode="&#x2db;" 
d="M789 0q-107 -7 -176.5 -66t-69.5 -128q0 -78 50.5 -108t137.5 -10v-84q-26 -12 -62 -16t-75.5 5t-73 29.5t-55.5 62t-22 98.5t24 105.5t61 81t84.5 56.5t91.5 36t85 15v-77z" />
    <glyph glyph-name="tilde" unicode="&#x2dc;" 
d="M478 1441q46 0 86.5 -21.5t64.5 -47t56 -47t63 -21.5q62 0 83 64q6 19 22 19h42q10 0 16 -5.5t4 -14.5q-35 -139 -160 -139q-47 0 -88 21.5t-65.5 47.5t-56 47.5t-60.5 21.5q-68 0 -89 -65q-6 -19 -22 -19h-42q-20 0 -17 24q8 63 50 99t113 36z" />
    <glyph glyph-name="hungarumlaut" unicode="&#x2dd;" 
d="M559 1460q17 0 24 -9t0 -25l-120 -252q-11 -24 -34 -24h-18q-17 0 -24 9t0 25l120 252q11 24 34 24h18zM817 1460q17 0 24 -9t0 -25l-120 -252q-11 -24 -34 -24h-18q-17 0 -24 9t0 25l120 252q11 24 34 24h18z" />
    <glyph glyph-name="uni0326" unicode="&#x326;" horiz-adv-x="0" 
d="M-468 -159q13 0 21.5 -8t8.5 -21v-12q0 -108 -19 -228t-46 -193q-8 -24 -35 -24h-14q-31 0 -25 34q13 74 21 180t7 178h-235q-13 0 -21 8t-8 21v36q0 13 8 21t21 8h316z" />
    <glyph glyph-name="uni0394" unicode="&#x394;" 
d="M1154 34q10 -32 -21 -34h-1033q-34 0 -24 34l437 1342q9 24 37 24h130q28 0 37 -24zM588 1292l-390 -1201h834l-390 1201h-54z" />
    <glyph glyph-name="uni03A9" unicode="&#x3a9;" 
d="M934 172v-81h231v-91h-337v222q235 100 235 529q0 278 -115 423.5t-333 145.5t-333 -145.5t-115 -423.5q0 -429 235 -529v-222h-337v91h231v81q-116 66 -171.5 207.5t-55.5 371.5q0 317 140.5 491t405.5 174t405.5 -174t140.5 -491q0 -230 -55.5 -371.5t-171.5 -207.5z
" />
    <glyph glyph-name="uni03BC" unicode="&#x3bc;" 
d="M1013 980q13 0 21.5 -8t8.5 -22v-920q0 -14 -8.5 -22t-21.5 -8h-34q-28 0 -30 30l-8 142h-19q-44 -80 -144.5 -137t-228.5 -57q-171 0 -260 85v-413q0 -14 -8.5 -22t-21.5 -8h-42q-13 0 -21.5 8t-8.5 22v1300q0 14 8.5 22t21.5 8h42q13 0 21.5 -8t8.5 -22v-598
q0 -282 279 -282q85 0 160.5 32.5t119 76t68.5 81t25 54.5v636q0 14 8.5 22t21.5 8h42z" />
    <glyph glyph-name="pi" unicode="&#x3c0;" 
d="M1145 980q13 0 21.5 -8t8.5 -22v-31q0 -13 -8.5 -21.5t-21.5 -8.5h-188v-724q0 -43 20.5 -64.5t57.5 -21.5q55 0 79 4q16 3 26 -5t10 -23v-19q0 -26 -40.5 -38t-88.5 -12q-87 0 -126.5 44.5t-39.5 139.5v719h-466v-859q0 -14 -8.5 -22t-21.5 -8h-42q-13 0 -21.5 8
t-8.5 22v859h-188q-13 0 -21.5 8.5t-8.5 21.5v31q0 14 8.5 22t21.5 8h1046z" />
    <glyph glyph-name="uni0401" unicode="&#x401;" 
d="M447 1706q-28 0 -48 20.5t-20 47.5q0 26 20.5 46t47.5 20q28 0 48.5 -20t20.5 -46q0 -27 -20.5 -47.5t-48.5 -20.5zM785 1706q-28 0 -48 20.5t-20 47.5q0 26 20.5 46t47.5 20q28 0 48.5 -20t20.5 -46q0 -27 -20.5 -47.5t-48.5 -20.5zM1041 102q13 0 21.5 -8t8.5 -22v-42
q0 -14 -8.5 -22t-21.5 -8h-842q-13 0 -21.5 8t-8.5 22v1340q0 14 8.5 22t21.5 8h840q13 0 21.5 -8t8.5 -22v-42q0 -14 -8.5 -22t-21.5 -8h-764v-502h708q13 0 21.5 -8t8.5 -22v-42q0 -14 -8.5 -22t-21.5 -8h-708v-592h766z" />
    <glyph glyph-name="uni0403" unicode="&#x403;" 
d="M610 1510q-17 0 -24 9t0 25l120 252q11 24 34 24h18q17 0 24 -9t0 -25l-120 -252q-11 -24 -34 -24h-18zM1041 1400q13 0 21.5 -8t8.5 -22v-42q0 -14 -8.5 -22t-21.5 -8h-756v-1268q0 -14 -8.5 -22t-21.5 -8h-46q-13 0 -21.5 8t-8.5 22v1340q0 14 8.5 22t21.5 8h46h6h6
h774z" />
    <glyph glyph-name="uni0404" unicode="&#x404;" 
d="M1054 307q31 0 25 -35q-35 -168 -138 -235t-311 -67q-105 0 -180 17.5t-135.5 61.5t-97 120t-55.5 191.5t-19 276.5v116q0 161 19 276.5t55.5 191.5t97 120t135.5 61.5t180 17.5q208 0 311 -67t138 -235q6 -35 -25 -35h-49q-30 0 -34 26q-20 124 -98.5 166.5t-245.5 42.5
q-82 0 -135.5 -10.5t-103.5 -44t-78 -95t-44.5 -164t-16.5 -250.5v-3h527q14 0 22 -8.5t8 -21.5v-42q0 -13 -8 -21.5t-22 -8.5h-527v-13q0 -148 16.5 -250.5t44.5 -164t78 -95t103.5 -44t135.5 -10.5q165 0 244.5 43t99.5 166q4 26 34 26h49z" />
    <glyph glyph-name="uni0406" unicode="&#x406;" 
d="M1065 1298h-397v-1196h397q13 0 21.5 -8t8.5 -22v-42q0 -14 -8.5 -22t-21.5 -8h-900q-13 0 -21.5 8t-8.5 22v42q0 14 8.5 22t21.5 8h397v1196h-397q-13 0 -21.5 8t-8.5 22v42q0 14 8.5 22t21.5 8h900q13 0 21.5 -8t8.5 -22v-42q0 -14 -8.5 -22t-21.5 -8z" />
    <glyph glyph-name="uni0407" unicode="&#x407;" 
d="M447 1706q-28 0 -48 20.5t-20 47.5q0 26 20.5 46t47.5 20q28 0 48.5 -20t20.5 -46q0 -27 -20.5 -47.5t-48.5 -20.5zM785 1706q-28 0 -48 20.5t-20 47.5q0 26 20.5 46t47.5 20q28 0 48.5 -20t20.5 -46q0 -27 -20.5 -47.5t-48.5 -20.5zM1065 1298h-397v-1196h397
q13 0 21.5 -8t8.5 -22v-42q0 -14 -8.5 -22t-21.5 -8h-900q-13 0 -21.5 8t-8.5 22v42q0 14 8.5 22t21.5 8h397v1196h-397q-13 0 -21.5 8t-8.5 22v42q0 14 8.5 22t21.5 8h900q13 0 21.5 -8t8.5 -22v-42q0 -14 -8.5 -22t-21.5 -8z" />
    <glyph glyph-name="uni0410" unicode="&#x410;" 
d="M1154 34q10 -34 -24 -34h-42q-27 0 -34 24l-102 313h-674l-102 -313q-7 -24 -34 -24h-42q-34 0 -24 34l437 1342q9 24 37 24h130q28 0 37 -24zM311 438h608l-277 854h-54z" />
    <glyph glyph-name="uni0411" unicode="&#x411;" 
d="M659 840q122 0 204.5 -25.5t131 -80t68.5 -130t20 -184.5t-20 -184.5t-68.5 -130t-131 -80t-204.5 -25.5h-452q-13 0 -21.5 8t-8.5 22v1340q0 14 8.5 22t21.5 8h632q13 0 21.5 -8t8.5 -22v-42q0 -14 -8.5 -22t-21.5 -8h-556v-458h376zM659 102q74 0 121 6.5t88 25t63 54
t34 92t12 140.5t-12 140.5t-34 92t-63 54t-88 25t-121 6.5h-376v-636h376z" />
    <glyph glyph-name="uni0412" unicode="&#x412;" 
d="M823 761q274 -69 274 -379q0 -196 -112 -289t-352 -93h-460q-13 0 -21.5 8t-8.5 22v1340q0 14 8.5 22t21.5 8h468q90 0 159.5 -19.5t111.5 -51t69 -75.5t37 -87.5t10 -91.5q0 -247 -205 -314zM920 1074q0 114 -71.5 169t-216.5 55h-383v-496h383q141 0 214.5 73t73.5 199
zM621 102q194 0 279 61t85 213q0 73 -19.5 131t-61.5 103.5t-113.5 70t-169.5 24.5h-372v-603h372z" />
    <glyph glyph-name="uni0413" unicode="&#x413;" 
d="M1041 1400q13 0 21.5 -8t8.5 -22v-42q0 -14 -8.5 -22t-21.5 -8h-756v-1268q0 -14 -8.5 -22t-21.5 -8h-46q-13 0 -21.5 8t-8.5 22v1340q0 14 8.5 22t21.5 8h46h6h6h774z" />
    <glyph glyph-name="uni0414" unicode="&#x414;" 
d="M1165 102q13 0 21.5 -8t8.5 -22v-180q0 -14 -8.5 -22t-21.5 -8h-43q-14 0 -22 8t-8 22v108h-954v-108q0 -14 -8 -22t-22 -8h-43q-13 0 -21.5 8t-8.5 22v180q0 14 8.5 22t21.5 8q114 0 153.5 63.5t39.5 220.5v984q0 14 8 22t22 8h715q13 0 21.5 -8t8.5 -22v-1268h132z
M365 372q0 -179 -68 -270h630v1196h-562v-926z" />
    <glyph glyph-name="uni0415" unicode="&#x415;" 
d="M1041 102q13 0 21.5 -8t8.5 -22v-42q0 -14 -8.5 -22t-21.5 -8h-842q-13 0 -21.5 8t-8.5 22v1340q0 14 8.5 22t21.5 8h840q13 0 21.5 -8t8.5 -22v-42q0 -14 -8.5 -22t-21.5 -8h-764v-502h708q13 0 21.5 -8t8.5 -22v-42q0 -14 -8.5 -22t-21.5 -8h-708v-592h766z" />
    <glyph glyph-name="uni0416" unicode="&#x416;" 
d="M1161 36q14 -36 -18 -36h-48q-28 0 -36 18l-300 679l-99 -180v-487q0 -14 -8 -22t-22 -8h-33q-13 0 -21.5 8t-8.5 22v487l-99 180l-300 -679q-8 -18 -36 -18h-48q-32 0 -18 36l340 774l-305 554q-18 36 16 36h43q27 0 36 -16l371 -679v665q0 14 8.5 22t21.5 8h33
q14 0 22 -8t8 -22v-665l371 679q9 16 36 16h43q34 0 16 -36l-305 -554z" />
    <glyph glyph-name="uni0417" unicode="&#x417;" 
d="M784 755q59 -16 112 -46.5t96.5 -75.5t69.5 -109t26 -138q0 -189 -132 -300.5t-349 -111.5q-224 0 -342 96t-118 256q0 29 31 32l40 3q29 3 29 -28q-5 -109 87 -188t268 -79q175 0 284.5 89t109.5 229q0 152 -127 238t-334 86q-30 0 -30 30v31q0 14 7.5 23.5t21.5 9.5
q193 0 298 77.5t105 198.5q0 111 -89.5 180t-244.5 69q-162 0 -249 -79.5t-82 -187.5q1 -15 -7 -22.5t-22 -5.5l-40 2q-31 3 -31 32q0 157 115 253.5t316 96.5q197 0 312.5 -96t115.5 -246q0 -115 -71 -198.5t-176 -120.5z" />
    <glyph glyph-name="uni0418" unicode="&#x418;" 
d="M1047 1400q13 0 21.5 -8t8.5 -22v-1340q0 -14 -8.5 -22t-21.5 -8h-46q-13 0 -21.5 8t-8.5 22v1254l-656 -1264q-11 -20 -36 -20h-96q-13 0 -21.5 8t-8.5 22v1340q0 14 8.5 22t21.5 8h46q13 0 21.5 -8t8.5 -22v-1249l654 1259q10 20 36 20h98z" />
    <glyph glyph-name="uni0419" unicode="&#x419;" 
d="M615 1561q-112 0 -182 65.5t-80 169.5q-3 29 27 29h27q26 0 32 -27q14 -65 59.5 -104.5t116.5 -39.5t116.5 39.5t59.5 104.5q6 27 32 27h27q30 0 27 -29q-10 -104 -80 -169.5t-182 -65.5zM1047 1400q13 0 21.5 -8t8.5 -22v-1340q0 -14 -8.5 -22t-21.5 -8h-46
q-13 0 -21.5 8t-8.5 22v1254l-656 -1264q-11 -20 -36 -20h-96q-13 0 -21.5 8t-8.5 22v1340q0 14 8.5 22t21.5 8h46q13 0 21.5 -8t8.5 -22v-1249l654 1259q10 20 36 20h98z" />
    <glyph glyph-name="uni041A" unicode="&#x41a;" 
d="M1111 36q11 -15 5.5 -25.5t-23.5 -10.5h-62q-23 0 -36 18l-523 684l-209 -226v-446q0 -14 -8.5 -22t-21.5 -8h-46q-13 0 -21.5 8t-8.5 22v1340q0 14 8.5 22t21.5 8h46q13 0 21.5 -8t8.5 -22v-748l696 762q13 16 36 16h71q20 0 24.5 -11t-8.5 -25l-543 -589z" />
    <glyph glyph-name="uni041B" unicode="&#x41b;" 
d="M1051 1400q13 0 21.5 -8t8.5 -22v-1340q0 -14 -8.5 -22t-21.5 -8h-46q-13 0 -21.5 8t-8.5 22v1268h-609v-938q0 -108 -21 -183t-62.5 -117t-94.5 -60t-126 -18q-16 0 -21 18l-10 53q-5 21 17 22q118 8 165 70.5t47 212.5v1012q0 14 8 22t22 8h761z" />
    <glyph glyph-name="uni041C" unicode="&#x41c;" 
d="M178 0q-14 0 -22 8t-8 22v1340q0 14 8 22t22 8h93q32 0 36 -20l304 -1278h8l304 1278q4 20 36 20h93q14 0 22 -8t8 -22v-1340q0 -14 -8 -22t-22 -8h-46q-14 0 -22 8t-8 22v1132h-11l-279 -1141q-7 -21 -33 -21h-76q-26 0 -33 21l-279 1141h-11v-1132q0 -14 -8 -22t-22 -8
h-46z" />
    <glyph glyph-name="uni041D" unicode="&#x41d;" 
d="M1037 1400q13 0 21.5 -8t8.5 -22v-1340q0 -14 -8.5 -22t-21.5 -8h-46q-13 0 -21.5 8t-8.5 22v638h-692v-638q0 -14 -8.5 -22t-21.5 -8h-46q-13 0 -21.5 8t-8.5 22v1340q0 14 8.5 22t21.5 8h46q13 0 21.5 -8t8.5 -22v-600h692v600q0 14 8.5 22t21.5 8h46z" />
    <glyph glyph-name="uni041E" unicode="&#x41e;" 
d="M615 1420q128 0 213.5 -28.5t148.5 -102t91.5 -204.5t28.5 -332v-117q0 -161 -19.5 -276.5t-56 -191t-97 -119.5t-134 -61.5t-175.5 -17.5t-175.5 17.5t-134 61.5t-97 119.5t-56 191t-19.5 276.5v117q0 201 28.5 332t91.5 204.5t148.5 102t213.5 28.5zM615 1318
q-68 0 -115.5 -7.5t-92.5 -29t-74 -60.5t-51.5 -101t-32.5 -152.5t-10 -213.5v-118q0 -123 10 -213.5t32.5 -152.5t51.5 -101t74 -60.5t92.5 -29t115.5 -7.5t115.5 7.5t92.5 29t74 60.5t51.5 101t32.5 152.5t10 213.5v118q0 123 -10 213.5t-32.5 152.5t-51.5 101t-74 60.5
t-92.5 29t-115.5 7.5z" />
    <glyph glyph-name="uni041F" unicode="&#x41f;" 
d="M1031 1400q13 0 21.5 -8t8.5 -22v-1340q0 -14 -8.5 -22t-21.5 -8h-46q-13 0 -21.5 8t-8.5 22v1268h-680v-1268q0 -14 -8.5 -22t-21.5 -8h-46q-13 0 -21.5 8t-8.5 22v1340q0 14 8.5 22t21.5 8h832z" />
    <glyph glyph-name="uni0420" unicode="&#x420;" 
d="M659 1400q122 0 204.5 -25.5t131 -80t68.5 -130t20 -184.5t-20 -184.5t-68.5 -130t-131 -80t-204.5 -25.5h-376v-530q0 -14 -8.5 -22t-21.5 -8h-46q-13 0 -21.5 8t-8.5 22v1340q0 14 8.5 22t21.5 8h452zM659 662q74 0 121 6.5t88 25t63 54t34 92t12 140.5t-12 140.5
t-34 92t-63 54t-88 25t-121 6.5h-376v-636h376z" />
    <glyph glyph-name="uni0421" unicode="&#x421;" 
d="M634 72q165 0 244.5 43t99.5 166q4 26 34 26h49q31 0 25 -35q-35 -168 -138 -235t-311 -67q-105 0 -180 17.5t-135.5 61.5t-97 120t-55.5 191.5t-19 276.5v116q0 161 19 276.5t55.5 191.5t97 120t135.5 61.5t180 17.5q208 0 311 -67t138 -235q6 -35 -25 -35h-49
q-30 0 -34 26q-20 124 -98.5 166.5t-245.5 42.5q-82 0 -135.5 -10.5t-103.5 -44t-78 -95t-44.5 -164t-16.5 -250.5v-118q0 -148 16.5 -250.5t44.5 -164t78 -95t103.5 -44t135.5 -10.5z" />
    <glyph glyph-name="uni0422" unicode="&#x422;" 
d="M1100 1400q14 0 22 -8t8 -22v-42q0 -14 -8 -22t-22 -8h-432v-1268q0 -14 -8 -22t-22 -8h-46q-14 0 -22 8t-8 22v1268h-432q-14 0 -22 8t-8 22v42q0 14 8 22t22 8h970z" />
    <glyph glyph-name="uni0423" unicode="&#x423;" 
d="M1131 1400q18 0 24 -10.5t-4 -25.5l-753 -1344q-11 -20 -36 -20h-50q-18 0 -24 10t4 26l269 479l-472 849q-8 15 -2.5 25.5t22.5 10.5h48q23 0 36 -20l420 -770l432 770q11 20 36 20h50z" />
    <glyph glyph-name="uni0424" unicode="&#x424;" 
d="M681 1268q488 0 488 -568t-488 -568h-13v-102q0 -14 -8 -22t-22 -8h-46q-14 0 -22 8t-8 22v102h-13q-488 0 -488 568t488 568h13v102q0 14 8 22t22 8h46q14 0 22 -8t8 -22v-102h13zM549 234h13v932h-13q-110 0 -185 -30.5t-117.5 -92.5t-60.5 -144.5t-18 -198.5
t18 -198.5t60.5 -144.5t117.5 -92.5t185 -30.5zM681 234q110 0 185 30.5t117.5 92.5t60.5 144.5t18 198.5t-18 198.5t-60.5 144.5t-117.5 92.5t-185 30.5h-13v-932h13z" />
    <glyph glyph-name="uni0425" unicode="&#x425;" 
d="M1135 36q9 -14 3.5 -25t-23.5 -11h-50q-25 0 -36 20l-414 611l-414 -611q-11 -20 -36 -20h-50q-18 0 -23.5 11t3.5 25l462 681l-439 647q-9 14 -3.5 25t23.5 11h50q25 0 36 -20l391 -577l391 577q11 20 36 20h50q18 0 23.5 -11t-3.5 -25l-439 -647z" />
    <glyph glyph-name="uni0426" unicode="&#x426;" 
d="M1137 102q13 0 21.5 -8t8.5 -22v-180q0 -14 -8.5 -22t-21.5 -8h-49q-14 0 -22 8t-8 22v108h-831q-13 0 -21.5 8t-8.5 22v1340q0 14 8.5 22t21.5 8h46q13 0 21.5 -8t8.5 -22v-1268h640v1268q0 14 8.5 22t21.5 8h46q13 0 21.5 -8t8.5 -22v-1268h88z" />
    <glyph glyph-name="uni0427" unicode="&#x427;" 
d="M1054 1400q14 0 22 -8t8 -22v-1340q0 -14 -8 -22t-22 -8h-46q-14 0 -22 8t-8 22v542q-165 -198 -449 -198q-180 0 -286.5 101.5t-106.5 300.5v594q0 14 8 22t22 8h46q14 0 22 -8t8 -22v-596q0 -299 308 -299q103 0 188.5 31.5t135.5 78t77 94.5t27 87v604q0 14 8 22t22 8
h46z" />
    <glyph glyph-name="uni0428" unicode="&#x428;" 
d="M1067 1400q13 0 21.5 -8t8.5 -22v-1340q0 -14 -8.5 -22t-21.5 -8h-904q-13 0 -21.5 8t-8.5 22v1340q0 14 8.5 22t21.5 8h51q14 0 22 -8t8 -22v-1268h315v1268q0 14 8.5 22t21.5 8h52q13 0 21.5 -8t8.5 -22v-1268h315v1268q0 14 8 22t22 8h51z" />
    <glyph glyph-name="uni0429" unicode="&#x429;" 
d="M1137 102q13 0 21.5 -8t8.5 -22v-180q0 -14 -8.5 -22t-21.5 -8h-49q-14 0 -22 8t-8 22v108h-895q-13 0 -21.5 8t-8.5 22v1340q0 14 8.5 22t21.5 8h51q14 0 22 -8t8 -22v-1268h295v1268q0 14 8.5 22t21.5 8h52q13 0 21.5 -8t8.5 -22v-1268h295v1268q0 14 8 22t22 8h51
q13 0 21.5 -8t8.5 -22v-1268h80z" />
    <glyph glyph-name="uni042A" unicode="&#x42a;" 
d="M691 840q123 0 209.5 -29.5t136.5 -86.5t72 -131t22 -173t-22 -173t-72 -131t-136.5 -86.5t-209.5 -29.5h-406q-13 0 -21.5 8t-8.5 22v1277q-7 -9 -22 -9h-134q-13 0 -21.5 8t-8.5 22v42q0 14 8.5 22t21.5 8h134q18 0 26 -14q8 14 26 14h47q14 0 22 -8t8 -22v-530h329z
M691 102q91 0 151 14.5t102.5 50t61.5 97.5t19 156t-19 156t-61.5 97.5t-102.5 50t-151 14.5h-329v-636h329z" />
    <glyph glyph-name="uni042B" unicode="&#x42b;" 
d="M457 0h-340q-13 0 -21.5 8t-8.5 22v1340q0 14 8.5 22t21.5 8h48q13 0 21.5 -8t8.5 -22v-530h262q123 0 206 -29t128 -87t63 -130.5t18 -173.5t-18 -173.5t-63 -130.5t-128 -87t-206 -29zM1113 0h-48q-13 0 -21.5 8t-8.5 22v1340q0 14 8.5 22t21.5 8h48q13 0 21.5 -8
t8.5 -22v-1340q0 -14 -8.5 -22t-21.5 -8zM457 738h-262v-636h262q90 0 147 14t95 50.5t53 97t15 156.5t-15 156.5t-53 97t-95 50.5t-147 14z" />
    <glyph glyph-name="uni042C" unicode="&#x42c;" 
d="M659 0h-452q-13 0 -21.5 8t-8.5 22v1340q0 14 8.5 22t21.5 8h46q13 0 21.5 -8t8.5 -22v-530h376q122 0 204.5 -25.5t131 -80t68.5 -130t20 -184.5t-20 -184.5t-68.5 -130t-131 -80t-204.5 -25.5zM659 738h-376v-636h376q74 0 121 6.5t88 25t63 54t34 92t12 140.5
t-12 140.5t-34 92t-63 54t-88 25t-121 6.5z" />
    <glyph glyph-name="uni042D" unicode="&#x42d;" 
d="M600 1420q105 0 180 -17.5t135.5 -61.5t97 -120t55.5 -191.5t19 -276.5v-116q0 -161 -19 -276.5t-55.5 -191.5t-97 -120t-135.5 -61.5t-180 -17.5q-208 0 -311 67t-138 235q-6 35 25 35h49q30 0 34 -26q20 -123 99.5 -166t244.5 -43q82 0 135.5 10.5t103.5 44t78 95
t44.5 164t16.5 250.5v13h-527q-14 0 -22 8.5t-8 21.5v42q0 13 8 21.5t22 8.5h527v3q0 148 -16.5 250.5t-44.5 164t-78 95t-103.5 44t-135.5 10.5q-167 0 -245.5 -42.5t-98.5 -166.5q-4 -26 -34 -26h-49q-31 0 -25 35q35 168 138 235t311 67z" />
    <glyph glyph-name="uni042E" unicode="&#x42e;" 
d="M736 1416q79 0 139 -16.5t113.5 -61t88 -117.5t54.5 -189.5t20 -274.5v-125q0 -157 -20 -273.5t-54.5 -189.5t-88 -117.5t-113.5 -61t-139 -16.5q-78 0 -137.5 17t-113.5 61t-89 117t-55 189.5t-20 273.5v17h-134v-619q0 -14 -8.5 -22t-21.5 -8h-44q-14 0 -24 8.5
t-10 21.5v1340q0 13 10 21.5t24 8.5h44q13 0 21.5 -8t8.5 -22v-619h134v6q0 157 20 274t55 189.5t89 117t113.5 61.5t137.5 17zM1047 632v126q0 142 -16.5 245t-43 162t-69 93t-84 44.5t-98.5 10.5t-98 -10.5t-83 -44.5t-67.5 -93t-42 -161.5t-16.5 -245.5v-126
q0 -143 16.5 -246t42 -162t67.5 -93t83 -44t98 -10t98.5 10t84 44t69 93t43 162t16.5 246z" />
    <glyph glyph-name="uni042F" unicode="&#x42f;" 
d="M1023 1400q13 0 21.5 -8t8.5 -22v-1340q0 -14 -8.5 -22t-21.5 -8h-46q-13 0 -21.5 8t-8.5 22v530h-376h-4l-270 -538q-10 -22 -35 -22h-55q-17 0 -23 9.5t2 25.5l268 532q-170 23 -238.5 122.5t-68.5 290.5q0 109 20 184.5t68.5 130t131 80t204.5 25.5h452zM947 662v636
h-376q-74 0 -121 -6.5t-88 -25t-63 -54t-34 -92t-12 -140.5t12 -140.5t34 -92t63 -54t88 -25t121 -6.5h376z" />
    <glyph glyph-name="uni0430" unicode="&#x430;" 
d="M1103 84q32 -2 32 -38v-16q0 -13 -1.5 -19t-11.5 -12t-29 -7q-172 -13 -176 147q-181 -163 -458 -163q-168 0 -244 75t-76 200q0 243 295 286l368 56q67 10 90 18.5t27 25.5v11q0 138 -72.5 199t-223.5 61q-299 0 -322 -189q-3 -25 -31 -25h-44q-30 0 -27 30
q29 278 422 278q400 0 400 -340v-500q0 -73 82 -78zM245 253q0 -180 225 -180q267 0 449 177v282q-2 -12 -18 -18.5t-61 -13.5l-357 -53q-137 -21 -187.5 -67t-50.5 -127z" />
    <glyph glyph-name="uni0431" unicode="&#x431;" 
d="M615 999q218 0 341 -141.5t123 -369.5q0 -225 -127 -368t-337 -143q-250 0 -371 193l-10 -140q-3 -30 -30 -30h-39q-13 0 -21.5 8t-8.5 22v1026q0 182 72 263t251 81h253q43 0 73 6.5t42 13.5t29 20h115q-24 -83 -82 -109t-175 -26h-246q-117 0 -168.5 -52.5
t-51.5 -172.5l-1 -292h7q43 93 136.5 152t225.5 59zM604 69q178 0 277.5 116t99.5 305t-99 303t-278 114q-134 0 -231 -77.5t-131 -209.5l-4 -132l2 -122q33 -135 131 -216t233 -81z" />
    <glyph glyph-name="uni0432" unicode="&#x432;" 
d="M847 536q119 -16 184 -88.5t65 -165.5q0 -282 -409 -282h-439v2q-8 -2 -13 -2h-42q-13 0 -21.5 8t-8.5 22v920q0 14 8.5 22t21.5 8h42q5 0 13 -2v2h439q165 0 245.5 -63t80.5 -161q0 -83 -43.5 -139.5t-122.5 -80.5zM691 889h-426v-307h398q252 0 252 157q0 33 -8.5 57.5
t-31.5 47t-69 34t-115 11.5zM691 91q71 0 126 11t89 28.5t55.5 42.5t30 51t8.5 56q0 40 -15 74.5t-50 66t-104.5 50t-167.5 18.5h-398v-398h426z" />
    <glyph glyph-name="uni0433" unicode="&#x433;" 
d="M1009 980q13 0 21.5 -8t8.5 -22v-31q0 -13 -8.5 -21.5t-21.5 -8.5h-696v-859q0 -14 -8.5 -22t-21.5 -8h-42q-13 0 -21.5 8t-8.5 22v920q0 14 8.5 22t21.5 8h42q5 0 8 -1q2 1 7 1h711z" />
    <glyph glyph-name="uni0434" unicode="&#x434;" 
d="M1141 91q13 0 21.5 -8.5t8.5 -21.5v-165q0 -14 -8.5 -22t-21.5 -8h-42q-13 0 -21.5 8t-8.5 22v104h-868q-17 -6 -40 -9v-95q0 -14 -8.5 -22t-21.5 -8h-42q-13 0 -21.5 8t-8.5 22v160q0 14 5 19.5t19 6.5q114 0 157 72t43 232v564q0 14 8.5 22t21.5 8h726q13 0 21.5 -8
t8.5 -22v-859h72zM383 889v-517q0 -192 -58 -281h644v798h-586z" />
    <glyph glyph-name="uni0435" unicode="&#x435;" 
d="M616 1002q138 0 244 -68t159.5 -175t53.5 -231q0 -51 -10 -71.5t-43 -20.5h-782q19 -159 128.5 -263t275.5 -104q168 0 291 119q21 21 38 4l21 -21q26 -25 4 -47q-150 -150 -366 -150q-146 0 -259 68.5t-173.5 185t-60.5 260.5q0 219 134.5 366.5t344.5 147.5zM615 908
q-154 0 -258.5 -107.5t-119.5 -266.5h746q-2 154 -106 264t-262 110z" />
    <glyph glyph-name="uni0436" unicode="&#x436;" 
d="M1152 36q16 -36 -15 -36h-47q-28 0 -36 16l-253 452l-139 -204v-234q0 -14 -8 -22t-22 -8h-34q-14 0 -22 8t-8 22v234l-139 204l-253 -452q-8 -16 -36 -16h-47q-31 0 -15 36l287 526l-261 382q-24 36 13 36h50q27 0 38 -16l363 -532v518q0 14 8 22t22 8h34q14 0 22 -8
t8 -22v-518l363 532q11 16 38 16h50q37 0 13 -36l-261 -382z" />
    <glyph glyph-name="uni0437" unicode="&#x437;" 
d="M874 527q93 -29 150 -94t57 -157q0 -133 -122 -217.5t-360 -84.5q-152 0 -269.5 38t-166.5 98q-13 15 -12 27t18 27l15 12q23 23 54 -9q34 -38 129.5 -69.5t250.5 -31.5q189 0 276 57.5t87 154.5q0 67 -44.5 109t-156 65t-297.5 23q-21 0 -34.5 12t-13.5 29v7
q0 21 13.5 33.5t34.5 12.5q173 0 276 21.5t143 59t40 97.5q0 74 -80 118t-241 44q-125 0 -218 -27.5t-144 -70.5q-28 -28 -55 -2l-14 9q-25 23 1 52q54 58 162 95t251 37q212 0 324 -75t112 -181q0 -75 -45.5 -131t-120.5 -88z" />
    <glyph glyph-name="uni0438" unicode="&#x438;" 
d="M989 980q13 0 21.5 -8t8.5 -22v-920q0 -14 -8.5 -22t-21.5 -8h-42q-13 0 -21.5 8t-8.5 22v837l-537 -847q-13 -20 -38 -20h-101q-13 0 -21.5 8t-8.5 22v920q0 14 8.5 22t21.5 8h42q13 0 21.5 -8t8.5 -22v-837l537 847q13 20 38 20h101z" />
    <glyph glyph-name="uni0439" unicode="&#x439;" 
d="M615 1141q-112 0 -182 65.5t-80 169.5q-3 29 27 29h27q26 0 32 -27q14 -65 59.5 -104.5t116.5 -39.5t116.5 39.5t59.5 104.5q6 27 32 27h27q30 0 27 -29q-10 -104 -80 -169.5t-182 -65.5zM989 980q13 0 21.5 -8t8.5 -22v-920q0 -14 -8.5 -22t-21.5 -8h-42q-13 0 -21.5 8
t-8.5 22v837l-537 -847q-13 -20 -38 -20h-101q-13 0 -21.5 8t-8.5 22v920q0 14 8.5 22t21.5 8h42q13 0 21.5 -8t8.5 -22v-837l537 847q13 20 38 20h101z" />
    <glyph glyph-name="uni043A" unicode="&#x43a;" 
d="M1109 36q12 -15 8 -25.5t-23 -10.5h-64q-23 0 -36 16l-415 475l-314 -304v-157q0 -14 -8.5 -22t-21.5 -8h-42q-13 0 -21.5 8t-8.5 22v920q0 14 8.5 22t21.5 8h42q13 0 21.5 -8t8.5 -22v-640l666 654q17 16 38 16h65q20 0 24 -10.5t-11 -25.5l-398 -385z" />
    <glyph glyph-name="uni043B" unicode="&#x43b;" 
d="M1077 980q13 0 21.5 -8t8.5 -22v-920q0 -14 -8.5 -22t-21.5 -8h-42q-13 0 -21.5 8t-8.5 22v859h-654v-497q0 -201 -76 -301.5t-217 -100.5q-19 0 -21 19l-10 46q-3 9 1.5 15.5t15.5 6.5q113 0 159 76t46 233v564q0 14 8.5 22t21.5 8h748v-1q3 1 8 1h42z" />
    <glyph glyph-name="uni043C" unicode="&#x43c;" 
d="M1037 980q13 0 21.5 -8t8.5 -22v-920q0 -14 -8.5 -22t-21.5 -8h-40q-13 0 -21.5 8t-8.5 22v799l-288 -807q-6 -22 -34 -22h-60q-28 0 -34 22l-288 807v-799q0 -14 -8.5 -22t-21.5 -8h-40q-13 0 -21.5 8t-8.5 22v920q0 14 8.5 22t21.5 8h102q28 0 34 -22l286 -833l286 833
q6 22 34 22h102z" />
    <glyph glyph-name="uni043D" unicode="&#x43d;" 
d="M989 980q13 0 21.5 -8t8.5 -22v-920q0 -14 -8.5 -22t-21.5 -8h-42q-13 0 -21.5 8t-8.5 22v414h-604v-414q0 -14 -8.5 -22t-21.5 -8h-42q-13 0 -21.5 8t-8.5 22v920q0 14 8.5 22t21.5 8h42q13 0 21.5 -8t8.5 -22v-414h604v414q0 14 8.5 22t21.5 8h42z" />
    <glyph glyph-name="uni043E" unicode="&#x43e;" 
d="M615 -26q-212 0 -351.5 147t-139.5 367t139.5 367t351.5 147t351.5 -147t139.5 -367t-139.5 -367t-351.5 -147zM615 64q171 0 282 119.5t111 304.5t-111 304.5t-282 119.5t-282 -119.5t-111 -304.5t111 -304.5t282 -119.5z" />
    <glyph glyph-name="uni043F" unicode="&#x43f;" 
d="M1003 977q16 -6 16 -27v-920q0 -14 -8.5 -22t-21.5 -8h-42q-13 0 -21.5 8t-8.5 22v859h-604v-859q0 -14 -8.5 -22t-21.5 -8h-42q-13 0 -21.5 8t-8.5 22v920q0 21 16 27v3h776v-3z" />
    <glyph glyph-name="uni0440" unicode="&#x440;" 
d="M615 999q218 0 341 -141.5t123 -369.5q0 -225 -127 -368t-337 -143q-128 0 -224.5 53.5t-153.5 150.5v-531q0 -14 -8.5 -22t-21.5 -8h-42q-13 0 -21.5 8t-8.5 22v1300q0 14 8.5 22t21.5 8h42q13 0 21.5 -8t8.5 -22v-162h16q43 93 136.5 152t225.5 59zM607 69
q176 0 275 116t99 305q0 188 -98.5 302.5t-275.5 114.5q-168 0 -274.5 -116.5t-106.5 -300.5q0 -185 106.5 -303t274.5 -118z" />
    <glyph glyph-name="uni0441" unicode="&#x441;" 
d="M658 64q213 0 337 169q16 22 40 7l27 -18q26 -17 9 -42q-69 -98 -176 -152t-238 -54q-217 0 -359.5 146.5t-142.5 367.5t142.5 367.5t359.5 146.5q131 0 238 -54t176 -152q17 -25 -9 -42l-27 -18q-24 -15 -40 7q-124 169 -337 169q-175 0 -290 -119.5t-115 -304.5
t115 -304.5t290 -119.5z" />
    <glyph glyph-name="uni0442" unicode="&#x442;" 
d="M1101 980q13 0 21.5 -8t8.5 -22v-31q0 -13 -8.5 -21.5t-21.5 -8.5h-433v-859q0 -14 -8 -22t-22 -8h-42q-14 0 -22 8t-8 22v859h-437q-13 0 -21.5 8.5t-8.5 21.5v31q0 14 8.5 22t21.5 8h972z" />
    <glyph glyph-name="uni0443" unicode="&#x443;" 
d="M1072 980q17 0 24 -9t0 -25l-586 -1302q-11 -24 -36 -24h-43q-17 0 -24 9t0 25l153 346l-426 946q-7 16 0 25t24 9h43q25 0 36 -24l378 -847l378 847q11 24 36 24h43z" />
    <glyph glyph-name="uni0444" unicode="&#x444;" 
d="M1121 488q0 -237 -115 -368t-339 -144v-326q0 -14 -8.5 -22t-21.5 -8h-44q-13 0 -21.5 8t-8.5 22v326q-224 13 -339 144t-115 368t115 368t339 144v369q0 13 8.5 21.5t21.5 8.5h44q13 0 21.5 -8.5t8.5 -21.5v-369q224 -13 339 -144t115 -368zM209 488q0 -201 87 -305
t267 -116v842q-180 -12 -267 -116t-87 -305zM667 67q180 12 267 116t87 305t-87 305t-267 116v-842z" />
    <glyph glyph-name="uni0445" unicode="&#x445;" 
d="M1119 36q12 -13 7 -24.5t-25 -11.5h-66q-22 0 -36 15l-384 417l-384 -417q-14 -15 -36 -15h-66q-20 0 -24 11.5t9 24.5l435 464l-414 444q-12 13 -6.5 24.5t24.5 11.5h65q22 0 36 -15l361 -401l361 401q14 15 36 15h65q20 0 25.5 -10.5t-7.5 -25.5l-412 -444z" />
    <glyph glyph-name="uni0446" unicode="&#x446;" 
d="M1137 91q13 0 21.5 -8.5t8.5 -21.5v-177q0 -14 -8.5 -22t-21.5 -8h-32q-13 0 -21.5 8t-8.5 22v116h-71v3h-1v-3h-776v3q-16 6 -16 27v920q0 14 8.5 22t21.5 8h42q13 0 21.5 -8t8.5 -22v-859h604v859q0 14 8.5 22t21.5 8h42q13 0 21.5 -8t8.5 -22v-859h118z" />
    <glyph glyph-name="uni0447" unicode="&#x447;" 
d="M215 980q13 0 21.5 -8t8.5 -22v-375q0 -74 20 -125t58 -77.5t82 -37.5t104 -11q73 0 142 24t119 62t85 77t55 76v-128q-39 -77 -157 -149t-263 -72q-45 0 -87.5 8t-91.5 31t-84.5 60t-59.5 101.5t-24 148.5v387q0 14 8.5 22t21.5 8h42zM989 980q13 0 21.5 -8t8.5 -22
v-920q0 -14 -8.5 -22t-21.5 -8h-42q-13 0 -21.5 8t-8.5 22v920q0 14 8.5 22t21.5 8h42z" />
    <glyph glyph-name="uni0448" unicode="&#x448;" 
d="M1051 980q13 0 21.5 -8t8.5 -22v-920q0 -21 -16 -27v-3h-900v3q-16 6 -16 27v920q0 14 8.5 22t21.5 8h44q13 0 21.5 -8t8.5 -22v-859h310v859q0 14 8.5 22t21.5 8h44q13 0 21.5 -8t8.5 -22v-859h310v859q0 14 8.5 22t21.5 8h44z" />
    <glyph glyph-name="uni0449" unicode="&#x449;" 
d="M1137 91q13 0 21.5 -8.5t8.5 -21.5v-177q0 -14 -8.5 -22t-21.5 -8h-32q-13 0 -21.5 8t-8.5 22v116h-910v3q-16 6 -16 27v920q0 14 8.5 22t21.5 8h44q13 0 21.5 -8t8.5 -22v-859h310v859q0 14 8.5 22t21.5 8h44q13 0 21.5 -8t8.5 -22v-859h310v859q0 14 8.5 22t21.5 8h44
q13 0 21.5 -8t8.5 -22v-859h56z" />
    <glyph glyph-name="uni044A" unicode="&#x44a;" 
d="M717 664q101 0 173 -24.5t112 -71t57.5 -104t17.5 -132.5t-17.5 -132.5t-57.5 -104t-112 -71t-173 -24.5h-432q-13 0 -21.5 8t-8.5 22v859h-126q-13 0 -21.5 8.5t-8.5 21.5v31q0 14 8.5 22t21.5 8h198q13 0 21.5 -8t8.5 -22v-286h360zM721 102q79 0 131 15t79.5 47
t37.5 71t10 97t-10 97t-37.5 71t-79.5 47t-131 15h-364v-460h364z" />
    <glyph glyph-name="uni044B" unicode="&#x44b;" 
d="M511 664q102 0 171.5 -23.5t106.5 -70t51.5 -103.5t14.5 -135t-14.5 -135t-51.5 -103.5t-106.5 -70t-171.5 -23.5h-358q-13 0 -21.5 8t-8.5 22v920q0 14 8.5 22t21.5 8h42q13 0 21.5 -8t8.5 -22v-286h286zM1077 980q13 0 21.5 -8t8.5 -22v-920q0 -14 -8.5 -22t-21.5 -8
h-42q-13 0 -21.5 8t-8.5 22v920q0 14 8.5 22t21.5 8h42zM515 102q55 0 95 6.5t66 21.5t42 32.5t24 46.5t10.5 55.5t2.5 67.5t-2.5 67.5t-10.5 55.5t-24 46.5t-42 32.5t-66 21.5t-95 6.5h-290v-460h290z" />
    <glyph glyph-name="uni044C" unicode="&#x44c;" 
d="M717 664q101 0 173 -24.5t112 -71t57.5 -104t17.5 -132.5t-17.5 -132.5t-57.5 -104t-112 -71t-173 -24.5h-476q-13 0 -21.5 8t-8.5 22v920q0 14 8.5 22t21.5 8h42q13 0 21.5 -8t8.5 -22v-286h404zM721 102q79 0 131 15t79.5 47t37.5 71t10 97t-10 97t-37.5 71t-79.5 47
t-131 15h-408v-460h408z" />
    <glyph glyph-name="uni044D" unicode="&#x44d;" 
d="M574 1002q217 0 359.5 -146.5t142.5 -367.5t-142.5 -367.5t-359.5 -146.5q-131 0 -238 54t-176 152q-17 25 9 42l27 18q24 15 40 -7q124 -169 337 -169q164 0 276.5 105.5t126.5 273.5h-407q-13 0 -21.5 8.5t-8.5 21.5v30q0 13 8.5 21.5t21.5 8.5h407
q-14 168 -126.5 273.5t-276.5 105.5q-213 0 -337 -169q-16 -22 -40 -7l-27 18q-26 17 -9 42q69 98 176 152t238 54z" />
    <glyph glyph-name="uni044E" unicode="&#x44e;" 
d="M884 1002q108 0 190 -38.5t132 -109t75 -162.5t25 -204t-25 -204t-75 -162.5t-132 -109t-190 -38.5q-102 0 -181.5 35t-130 99t-77.5 148.5t-32 188.5h-202v-415q0 -14 -8.5 -22t-21.5 -8h-42q-13 0 -21.5 8t-8.5 22v920q0 14 8.5 22t21.5 8h42q13 0 21.5 -8t8.5 -22
v-416h202q5 103 32.5 187t78 147.5t129.5 98.5t181 35zM884 64q163 0 242.5 114t79.5 310t-79.5 310t-242.5 114t-242.5 -114t-79.5 -310t79.5 -310t242.5 -114z" />
    <glyph glyph-name="uni044F" unicode="&#x44f;" 
d="M989 980q13 0 21.5 -8t8.5 -22v-920q0 -14 -8.5 -22t-21.5 -8h-42q-13 0 -21.5 8t-8.5 22v298h-332l-281 -312q-13 -16 -36 -16h-60q-20 0 -25 11t9 25l268 297q-82 10 -139.5 37.5t-89.5 70.5t-46 94.5t-14 118.5q0 76 18.5 132.5t61 101.5t120 68.5t188.5 23.5h430z
M555 430h362v448h-362q-164 0 -225 -48.5t-61 -175.5t61 -175.5t225 -48.5z" />
    <glyph glyph-name="uni0451" unicode="&#x451;" 
d="M428 1346q-28 0 -48 20.5t-20 47.5q0 26 20.5 46t47.5 20q28 0 48.5 -20t20.5 -46q0 -27 -20.5 -47.5t-48.5 -20.5zM766 1346q-28 0 -48 20.5t-20 47.5q0 26 20.5 46t47.5 20q28 0 48.5 -20t20.5 -46q0 -27 -20.5 -47.5t-48.5 -20.5zM616 1002q138 0 244 -68t159.5 -175
t53.5 -231q0 -51 -10 -71.5t-43 -20.5h-782q19 -159 128.5 -263t275.5 -104q168 0 291 119q21 21 38 4l21 -21q26 -25 4 -47q-150 -150 -366 -150q-146 0 -259 68.5t-173.5 185t-60.5 260.5q0 219 134.5 366.5t344.5 147.5zM615 908q-154 0 -258.5 -107.5t-119.5 -266.5h746
q-2 154 -106 264t-262 110z" />
    <glyph glyph-name="uni0453" unicode="&#x453;" 
d="M610 1090q-17 0 -24 9t0 25l120 252q11 24 34 24h18q17 0 24 -9t0 -25l-120 -252q-11 -24 -34 -24h-18zM1009 980q13 0 21.5 -8t8.5 -22v-31q0 -13 -8.5 -21.5t-21.5 -8.5h-696v-859q0 -14 -8.5 -22t-21.5 -8h-42q-13 0 -21.5 8t-8.5 22v920q0 14 8.5 22t21.5 8h42
q5 0 8 -1q2 1 7 1h711z" />
    <glyph glyph-name="uni0454" unicode="&#x454;" 
d="M1062 222q26 -17 9 -42q-69 -98 -176 -152t-238 -54q-217 0 -359.5 146.5t-142.5 367.5t142.5 367.5t359.5 146.5q131 0 238 -54t176 -152q17 -25 -9 -42l-27 -18q-24 -15 -40 7q-124 169 -337 169q-164 0 -276.5 -105.5t-126.5 -273.5h407q14 0 22 -8.5t8 -21.5v-30
q0 -13 -8 -21.5t-22 -8.5h-407q14 -168 126.5 -273.5t276.5 -105.5q213 0 337 169q16 22 40 7z" />
    <glyph glyph-name="uni0457" unicode="&#x457;" 
d="M447 1286q-28 0 -48 20.5t-20 47.5q0 26 20.5 46t47.5 20q28 0 48.5 -20t20.5 -46q0 -27 -20.5 -47.5t-48.5 -20.5zM785 1286q-28 0 -48 20.5t-20 47.5q0 26 20.5 46t47.5 20q28 0 48.5 -20t20.5 -46q0 -27 -20.5 -47.5t-48.5 -20.5zM1041 100q13 0 21.5 -8t8.5 -22v-40
q0 -14 -8.5 -22t-21.5 -8h-842q-13 0 -21.5 8t-8.5 22v40q0 14 8.5 22t21.5 8h396v780h-346q-13 0 -21.5 8t-8.5 22v40q0 14 8.5 22t21.5 8h418q13 0 21.5 -8t8.5 -22v-850h344z" />
    <glyph glyph-name="uni0490" unicode="&#x490;" 
d="M1041 1502q13 0 21.5 -8t8.5 -22v-146q-2 -28 -30 -28h-756v-1268q0 -14 -8.5 -22t-21.5 -8h-46q-13 0 -21.5 8t-8.5 22v1340q0 14 8.5 22t21.5 8h46h6h6h702v72q0 14 8.5 22t21.5 8h42z" />
    <glyph glyph-name="uni0491" unicode="&#x491;" 
d="M1009 1104q13 0 21.5 -8t8.5 -22v-155q0 -13 -8.5 -21.5t-21.5 -8.5h-696v-859q0 -14 -8.5 -22t-21.5 -8h-42q-13 0 -21.5 8t-8.5 22v920q0 14 8.5 22t21.5 8h42q5 0 8 -1q2 1 7 1h639v94q0 14 8.5 22t21.5 8h42z" />
    <glyph glyph-name="Wgrave" unicode="&#x1e80;" 
d="M564 1534l-120 252q-7 16 0 25t24 9h18q23 0 34 -24l120 -252q7 -16 0 -25t-24 -9h-18q-23 0 -34 24zM1125 1400q27 0 24 -34l-200 -1342q-3 -24 -35 -24h-77q-31 0 -37 24l-185 1094l-185 -1094q-6 -24 -37 -24h-77q-32 0 -35 24l-200 1342q-3 34 24 34h47q31 0 34 -24
l170 -1257l207 1257q5 24 34 24h36q29 0 34 -24l207 -1257l170 1257q3 24 34 24h47z" />
    <glyph glyph-name="wgrave" unicode="&#x1e81;" 
d="M565 1114l-120 252q-7 16 0 25t24 9h18q23 0 34 -24l120 -252q7 -16 0 -25t-24 -9h-18q-23 0 -34 24zM1128 980q30 0 24 -34l-209 -922q-7 -24 -36 -24h-72q-29 0 -36 24l-185 745l-185 -745q-7 -24 -36 -24h-72q-29 0 -36 24l-209 922q-6 34 24 34h52q28 0 36 -24
l171 -849l199 849q4 17 24 22q6 2 12 2h40q6 0 12 -2q20 -5 24 -22l199 -849l171 849q8 24 36 24h52z" />
    <glyph glyph-name="Wacute" unicode="&#x1e82;" 
d="M610 1510q-17 0 -24 9t0 25l120 252q11 24 34 24h18q17 0 24 -9t0 -25l-120 -252q-11 -24 -34 -24h-18zM1125 1400q27 0 24 -34l-200 -1342q-3 -24 -35 -24h-77q-31 0 -37 24l-185 1094l-185 -1094q-6 -24 -37 -24h-77q-32 0 -35 24l-200 1342q-3 34 24 34h47
q31 0 34 -24l170 -1257l207 1257q5 24 34 24h36q29 0 34 -24l207 -1257l170 1257q3 24 34 24h47z" />
    <glyph glyph-name="wacute" unicode="&#x1e83;" 
d="M611 1090q-17 0 -24 9t0 25l120 252q11 24 34 24h18q17 0 24 -9t0 -25l-120 -252q-11 -24 -34 -24h-18zM1128 980q30 0 24 -34l-209 -922q-7 -24 -36 -24h-72q-29 0 -36 24l-185 745l-185 -745q-7 -24 -36 -24h-72q-29 0 -36 24l-209 922q-6 34 24 34h52q28 0 36 -24
l171 -849l199 849q4 17 24 22q6 2 12 2h40q6 0 12 -2q20 -5 24 -22l199 -849l171 849q8 24 36 24h52z" />
    <glyph glyph-name="Wdieresis" unicode="&#x1e84;" 
d="M447 1706q-28 0 -48 20.5t-20 47.5q0 26 20.5 46t47.5 20q28 0 48.5 -20t20.5 -46q0 -27 -20.5 -47.5t-48.5 -20.5zM785 1706q-28 0 -48 20.5t-20 47.5q0 26 20.5 46t47.5 20q28 0 48.5 -20t20.5 -46q0 -27 -20.5 -47.5t-48.5 -20.5zM1125 1400q27 0 24 -34l-200 -1342
q-3 -24 -35 -24h-77q-31 0 -37 24l-185 1094l-185 -1094q-6 -24 -37 -24h-77q-32 0 -35 24l-200 1342q-3 34 24 34h47q31 0 34 -24l170 -1257l207 1257q5 24 34 24h36q29 0 34 -24l207 -1257l170 1257q3 24 34 24h47z" />
    <glyph glyph-name="wdieresis" unicode="&#x1e85;" 
d="M448 1286q-28 0 -48 20.5t-20 47.5q0 26 20.5 46t47.5 20q28 0 48.5 -20t20.5 -46q0 -27 -20.5 -47.5t-48.5 -20.5zM786 1286q-28 0 -48 20.5t-20 47.5q0 26 20.5 46t47.5 20q28 0 48.5 -20t20.5 -46q0 -27 -20.5 -47.5t-48.5 -20.5zM1128 980q30 0 24 -34l-209 -922
q-7 -24 -36 -24h-72q-29 0 -36 24l-185 745l-185 -745q-7 -24 -36 -24h-72q-29 0 -36 24l-209 922q-6 34 24 34h52q28 0 36 -24l171 -849l199 849q4 17 24 22q6 2 12 2h40q6 0 12 -2q20 -5 24 -22l199 -849l171 849q8 24 36 24h52z" />
    <glyph glyph-name="uni1E9E" unicode="&#x1e9e;" 
d="M647 817q241 -14 373.5 -122t132.5 -307q0 -197 -116.5 -305.5t-304.5 -108.5q-182 0 -296.5 89t-114.5 246q0 31 28 31h40q29 0 29 -29q4 -105 87.5 -173.5t225.5 -68.5q148 0 236 85.5t88 234.5q0 170 -131 255t-366 85q-30 0 -30 30v59l375 490h-418q-154 0 -213 -67
t-59 -192v-1019q0 -14 -8.5 -22t-21.5 -8h-46q-13 0 -21.5 8t-8.5 22v1025q0 82 17.5 143.5t58.5 111t115.5 75t180.5 25.5h569q19 0 24.5 -11t-5.5 -26z" />
    <glyph glyph-name="Ygrave" unicode="&#x1ef2;" 
d="M564 1534l-120 252q-7 16 0 25t24 9h18q23 0 34 -24l120 -252q7 -16 0 -25t-24 -9h-18q-23 0 -34 24zM1121 1400q18 0 23.5 -11t-3.5 -25l-473 -813v-521q0 -14 -8 -22t-22 -8h-46q-14 0 -22 8t-8 22v520l-473 814q-9 14 -3.5 25t23.5 11h47q23 0 36 -20l423 -730
l423 730q13 20 36 20h47z" />
    <glyph glyph-name="ygrave" unicode="&#x1ef3;" 
d="M468 1400h18q23 0 34 -24l120 -252q7 -16 0 -25t-24 -9h-18q-23 0 -34 24l-120 252q-7 16 0 25t24 9zM1072 980q17 0 24 -9t0 -25l-586 -1302q-11 -24 -36 -24h-43q-17 0 -24 9t0 25l153 346l-426 946q-7 16 0 25t24 9h43q25 0 36 -24l378 -847l378 847q11 24 36 24h43z
" />
    <glyph glyph-name="endash" unicode="&#x2013;" 
d="M1085 616q13 0 21.5 -8t8.5 -22v-34q0 -14 -8.5 -22t-21.5 -8h-940q-13 0 -21.5 8t-8.5 22v34q0 14 8.5 22t21.5 8h940z" />
    <glyph glyph-name="emdash" unicode="&#x2014;" 
d="M1085 616q13 0 21.5 -8t8.5 -22v-34q0 -14 -8.5 -22t-21.5 -8h-940q-13 0 -21.5 8t-8.5 22v34q0 14 8.5 22t21.5 8h940z" />
    <glyph glyph-name="quoteleft" unicode="&#x2018;" 
d="M462 991q-14 0 -22 8.5t-8 21.5v12q0 112 19 235.5t47 198.5q9 25 37 25h14q32 0 26 -35q-13 -75 -22 -184.5t-7 -184.5h242q14 0 22 -8t8 -22v-37q0 -13 -8 -21.5t-22 -8.5h-326z" />
    <glyph glyph-name="quoteright" unicode="&#x2019;" 
d="M768 1406q14 0 22 -8t8 -22v-12q0 -112 -19 -235.5t-47 -198.5q-9 -25 -37 -25h-14q-32 0 -26 35q13 75 22 184.5t7 184.5h-242q-14 0 -22 8.5t-8 21.5v37q0 14 8 22t22 8h326z" />
    <glyph glyph-name="quotesinglbase" unicode="&#x201a;" 
d="M768 97q14 0 22 -8.5t8 -21.5v-12q0 -112 -19 -235.5t-47 -198.5q-9 -25 -37 -25h-14q-32 0 -26 35q13 75 22 184.5t7 184.5h-242q-14 0 -22 8t-8 22v37q0 13 8 21.5t22 8.5h326z" />
    <glyph glyph-name="quotedblleft" unicode="&#x201c;" 
d="M219 963q-13 0 -20.5 9t-7.5 23v13q0 120 17.5 251.5t43.5 212.5q10 27 35 27h13q30 0 24 -37q-13 -80 -21 -197.5t-6 -197.5h226q13 0 20.5 -9t7.5 -23v-40q0 -14 -7.5 -23t-20.5 -9h-304zM708 963q-13 0 -20.5 9t-7.5 23v13q0 120 17.5 251.5t43.5 212.5q10 27 35 27
h13q30 0 24 -37q-13 -80 -21 -197.5t-6 -197.5h226q13 0 20.5 -9t7.5 -23v-40q0 -14 -7.5 -23t-20.5 -9h-304z" />
    <glyph glyph-name="quotedblright" unicode="&#x201d;" 
d="M522 1406q13 0 20.5 -9t7.5 -23v-13q0 -120 -17.5 -251.5t-43.5 -212.5q-10 -27 -35 -27h-13q-30 0 -24 37q13 80 21 197.5t6 197.5h-226q-13 0 -20.5 9t-7.5 23v40q0 14 7.5 23t20.5 9h304zM1011 1406q13 0 20.5 -9t7.5 -23v-13q0 -120 -17.5 -251.5t-43.5 -212.5
q-10 -27 -35 -27h-13q-30 0 -24 37q13 80 21 197.5t6 197.5h-226q-13 0 -20.5 9t-7.5 23v40q0 14 7.5 23t20.5 9h304z" />
    <glyph glyph-name="quotedblbase" unicode="&#x201e;" 
d="M522 104q13 0 20.5 -9t7.5 -23v-13q0 -120 -17.5 -251.5t-43.5 -212.5q-10 -27 -35 -27h-13q-30 0 -24 37q13 80 21 197.5t6 197.5h-226q-13 0 -20.5 9t-7.5 23v40q0 14 7.5 23t20.5 9h304zM1011 104q13 0 20.5 -9t7.5 -23v-13q0 -120 -17.5 -251.5t-43.5 -212.5
q-10 -27 -35 -27h-13q-30 0 -24 37q13 80 21 197.5t6 197.5h-226q-13 0 -20.5 9t-7.5 23v40q0 14 7.5 23t20.5 9h304z" />
    <glyph glyph-name="dagger" unicode="&#x2020;" 
d="M955 1168q13 0 21.5 -8t8.5 -22v-39q0 -13 -8.5 -21.5t-21.5 -8.5h-290v-291q0 -14 -8.5 -22t-21.5 -8h-40q-13 0 -21.5 8t-8.5 22v291h-290q-13 0 -21.5 8.5t-8.5 21.5v39q0 14 8.5 22t21.5 8h290v290q0 14 8.5 22t21.5 8h40q13 0 21.5 -8t8.5 -22v-290h290z" />
    <glyph glyph-name="daggerdbl" unicode="&#x2021;" 
d="M665 511h290q13 0 21.5 -8.5t8.5 -21.5v-39q0 -14 -8.5 -22t-21.5 -8h-290v-291q0 -13 -8.5 -21.5t-21.5 -8.5h-40q-13 0 -21.5 8.5t-8.5 21.5v291h-290q-13 0 -21.5 8t-8.5 22v39q0 13 8.5 21.5t21.5 8.5h290v558h-290q-13 0 -21.5 8.5t-8.5 21.5v39q0 14 8.5 22t21.5 8
h290v290q0 14 8.5 22t21.5 8h40q13 0 21.5 -8t8.5 -22v-290h290q13 0 21.5 -8t8.5 -22v-39q0 -13 -8.5 -21.5t-21.5 -8.5h-290v-558z" />
    <glyph glyph-name="bullet" unicode="&#x2022;" 
d="M618 403q-63 0 -106.5 42.5t-43.5 104.5t43.5 104.5t106.5 42.5q61 0 104 -42.5t43 -104.5t-43 -104.5t-104 -42.5z" />
    <glyph glyph-name="ellipsis" unicode="&#x2026;" 
d="M239 -26q-42 0 -69 27.5t-27 68.5t27.5 69.5t68.5 28.5t68 -28.5t27 -69.5t-27 -68.5t-68 -27.5zM619 -26q-42 0 -69 27.5t-27 68.5t27.5 69.5t68.5 28.5t68 -28.5t27 -69.5t-27 -68.5t-68 -27.5zM995 -26q-42 0 -69 27.5t-27 68.5t27.5 69.5t68.5 28.5t68 -28.5
t27 -69.5t-27 -68.5t-68 -27.5z" />
    <glyph glyph-name="perthousand" unicode="&#x2030;" 
d="M246 1410q94 0 140.5 -65t46.5 -201q0 -268 -187 -268t-187 268q0 136 46.5 201t140.5 65zM246 1314q-58 0 -80.5 -38t-22.5 -132q0 -96 22.5 -134t80.5 -38t80.5 38t22.5 134q0 94 -22.5 132t-80.5 38zM752 1176q20 -24 6 -42l-647 -929q-18 -24 -38 -6l-26 27
q-23 20 -6 42l644 929q20 25 38 6zM814 524q94 0 140.5 -65t46.5 -201q0 -268 -187 -268q-95 0 -143 78q-55 -78 -147 -78q-184 0 -184 268q0 136 45.5 201t138.5 65q92 0 147 -78q48 78 143 78zM524 86q59 0 80.5 37.5t21.5 134.5q0 95 -21.5 132.5t-80.5 37.5
q-58 0 -79 -37.5t-21 -132.5q0 -97 21 -134.5t79 -37.5zM814 86q58 0 80 38t22 134q0 94 -22.5 132t-79.5 38q-58 0 -80.5 -37.5t-22.5 -132.5q0 -96 22.5 -134t80.5 -38z" />
    <glyph glyph-name="guilsinglleft" unicode="&#x2039;" 
d="M800 944l-256 -382l256 -382q11 -16 5 -26t-25 -10h-60q-22 0 -36 20l-254 378q-14 20 0 40l254 378q14 20 36 20h60q19 0 25 -10t-5 -26z" />
    <glyph glyph-name="guilsinglright" unicode="&#x203a;" 
d="M430 944q-11 16 -5 26t25 10h60q22 0 36 -20l254 -378q14 -20 0 -40l-254 -378q-14 -20 -36 -20h-60q-19 0 -25 10t5 26l256 382z" />
    <glyph glyph-name="fraction" unicode="&#x2044;" 
d="M1019 1400q16 0 22.5 -11t-0.5 -25l-756 -1340q-12 -24 -36 -24h-36q-18 0 -25 9t1 25l758 1344q10 22 36 22h36z" />
    <glyph glyph-name="Euro" unicode="&#x20ac;" 
d="M1053 307q30 0 24 -35q-32 -168 -130.5 -235t-296.5 -67q-118 0 -197.5 25t-139 89t-89.5 176t-36 284h-71q-13 0 -21.5 8t-8.5 22v39q0 13 8.5 21.5t21.5 8.5h69v88h-69q-13 0 -21.5 8.5t-8.5 21.5v39q0 14 8.5 22t21.5 8h70q5 176 34.5 291.5t89.5 181.5t140 91.5
t199 25.5q198 0 296.5 -67t130.5 -235q6 -35 -24 -35h-46q-29 0 -33 26q-19 124 -93.5 166.5t-233.5 42.5q-52 0 -90 -4.5t-76 -17t-65 -35t-51 -59t-39.5 -88t-25 -122.5t-12.5 -162h296q14 0 22 -8t8 -22v-39q0 -13 -8 -21.5t-22 -8.5h-297v-88h297q14 0 22 -8.5t8 -21.5
v-39q0 -14 -8 -22t-22 -8h-295q4 -103 16 -179t35 -128t50.5 -84.5t69.5 -50.5t84.5 -24t102.5 -6q157 0 232.5 43t94.5 166q4 26 33 26h46z" />
    <glyph glyph-name="uni2116" unicode="&#x2116;" 
d="M966 1410q107 0 165 -68.5t58 -191.5q0 -122 -58 -191t-165 -69t-165.5 69t-58.5 191q0 123 58.5 191.5t165.5 68.5zM631 1400q13 0 21.5 -8t8.5 -22v-1340q0 -14 -8.5 -22t-21.5 -8h-82q-29 0 -36 20l-376 1202l3 -113v-1079q0 -14 -8 -22t-22 -8h-39q-13 0 -21.5 8
t-8.5 22v1340q0 14 8.5 22t21.5 8h84q30 0 36 -20l373 -1208l-2 109v1089q0 14 8 22t22 8h39zM966 977q69 0 101 41.5t32 131.5t-32 132t-101 42t-101.5 -42t-32.5 -132t32.5 -131.5t101.5 -41.5zM1155 787q13 0 21.5 -8.5t8.5 -21.5v-34q0 -13 -8.5 -21.5t-21.5 -8.5h-378
q-13 0 -21.5 8.5t-8.5 21.5v34q0 13 8.5 21.5t21.5 8.5h378z" />
    <glyph glyph-name="trademark" unicode="&#x2122;" 
d="M528 1400q10 0 10 -10v-54q0 -10 -10 -10h-141v-416q0 -10 -10 -10h-58q-10 0 -10 10v416h-140q-10 0 -10 10v54q0 10 10 10h359zM1061 1400q10 0 10 -10v-480q0 -10 -10 -10h-62q-10 0 -10 10v385l-94 -386q-5 -9 -12 -9h-83q-10 0 -14 9l-92 386v-385q0 -10 -10 -10
h-62q-10 0 -10 10v480q0 10 10 10h101q7 0 12 -9l106 -410l108 410q5 9 12 9h100z" />
    <glyph glyph-name="oneeighth" unicode="&#x215b;" 
d="M199 737q-30 0 -30 26v28q0 11 8.5 18.5t21.5 7.5h396v683q-83 -66 -170.5 -96t-163.5 -30q-30 0 -30 27v33q0 26 30 26q71 0 158.5 35.5t175.5 103.5h72q30 0 30 -26v-756h342q13 0 21.5 -7.5t8.5 -18.5v-28q0 -26 -30 -26h-840zM1185 656q13 0 21.5 -8t8.5 -22v-28
q0 -14 -8.5 -22t-21.5 -8h-1140q-13 0 -21.5 8t-8.5 22v28q0 14 8.5 22t21.5 8h1140zM859 119q237 -62 237 -242q0 -268 -478 -268t-478 268q0 180 237 242q-173 36 -173 167q0 107 105 162.5t309 55.5t309 -55.5t105 -162.5q0 -131 -173 -167zM298 289q0 -65 78.5 -94
t241.5 -29t241.5 29t78.5 94q0 71 -76.5 101.5t-243.5 30.5t-243.5 -30.5t-76.5 -101.5zM618 -306q71 0 125.5 4.5t104 16t81.5 31t51 51.5t19 75q0 200 -381 200t-381 -200q0 -43 19 -75t51 -51.5t81.5 -31t104 -16t125.5 -4.5z" />
    <glyph glyph-name="threeeighths" unicode="&#x215c;" 
d="M824 1165q58 -9 101 -22t84 -36.5t62.5 -63t21.5 -93.5q0 -68 -36 -115.5t-104 -73t-150 -36t-190 -10.5q-237 0 -349.5 58t-112.5 195q0 26 31 29l40 2q29 3 29 -24q-3 -100 83 -138.5t271 -38.5q59 0 102.5 1.5t92.5 6.5t82.5 15.5t62.5 26.5t43 41t14 58
q0 44 -20.5 75t-56.5 50t-96.5 30t-127.5 15t-162 4q-30 0 -30 26v33q0 28 29 28q212 0 318.5 45t106.5 124q0 82 -85.5 116.5t-261.5 34.5q-181 0 -262 -44.5t-78 -145.5q1 -13 -7 -19.5t-22 -4.5l-40 1q-31 3 -31 28q0 138 112 202t331 64q438 0 438 -229
q0 -57 -36.5 -102.5t-85 -70.5t-111.5 -42zM1185 656q13 0 21.5 -8t8.5 -22v-28q0 -14 -8.5 -22t-21.5 -8h-1140q-13 0 -21.5 8t-8.5 22v28q0 14 8.5 22t21.5 8h1140zM859 119q237 -62 237 -242q0 -268 -478 -268t-478 268q0 180 237 242q-173 36 -173 167q0 107 105 162.5
t309 55.5t309 -55.5t105 -162.5q0 -131 -173 -167zM298 289q0 -65 78.5 -94t241.5 -29t241.5 29t78.5 94q0 71 -76.5 101.5t-243.5 30.5t-243.5 -30.5t-76.5 -101.5zM618 -306q71 0 125.5 4.5t104 16t81.5 31t51 51.5t19 75q0 200 -381 200t-381 -200q0 -43 19 -75t51 -51.5
t81.5 -31t104 -16t125.5 -4.5z" />
    <glyph glyph-name="fiveeighths" unicode="&#x215d;" 
d="M217 994q23 0 26 -26q17 -83 106 -117t268 -34q172 0 269.5 55t97.5 168q0 228 -370 228q-214 0 -351 -94q-27 -18 -45 -9l-28 19q-29 15 -21 34l123 358q6 22 32 22h614q30 0 30 -26v-33q0 -12 -8.5 -19.5t-21.5 -7.5h-571l-76 -227q112 69 334 69q215 0 334 -82
t119 -232q0 -145 -123 -227t-340 -82q-228 0 -339 56.5t-125 177.5q-3 29 28 29h38zM1185 656q13 0 21.5 -8t8.5 -22v-28q0 -14 -8.5 -22t-21.5 -8h-1140q-13 0 -21.5 8t-8.5 22v28q0 14 8.5 22t21.5 8h1140zM856 119q237 -62 237 -242q0 -268 -478 -268t-478 268
q0 180 237 242q-173 36 -173 167q0 107 105 162.5t309 55.5t309 -55.5t105 -162.5q0 -131 -173 -167zM295 289q0 -65 78.5 -94t241.5 -29t241.5 29t78.5 94q0 71 -76.5 101.5t-243.5 30.5t-243.5 -30.5t-76.5 -101.5zM615 -306q71 0 125.5 4.5t104 16t81.5 31t51 51.5t19 75
q0 200 -381 200t-381 -200q0 -43 19 -75t51 -51.5t81.5 -31t104 -16t125.5 -4.5z" />
    <glyph glyph-name="seveneighths" unicode="&#x215e;" 
d="M179 1514q-13 0 -21.5 7.5t-8.5 18.5v32q0 26 30 26h872q30 0 30 -26v-40q0 -21 -8 -34l-601 -737q-2 -2 -5.5 -6t-5 -5.5l-4.5 -4.5t-5 -4l-5 -2.5t-6 -2t-7 -0.5h-57q-15 0 -22.5 7t0.5 18l622 753h-798zM1185 656q13 0 21.5 -8t8.5 -22v-28q0 -14 -8.5 -22t-21.5 -8
h-1140q-13 0 -21.5 8t-8.5 22v28q0 14 8.5 22t21.5 8h1140zM856 119q237 -62 237 -242q0 -268 -478 -268t-478 268q0 180 237 242q-173 36 -173 167q0 107 105 162.5t309 55.5t309 -55.5t105 -162.5q0 -131 -173 -167zM295 289q0 -65 78.5 -94t241.5 -29t241.5 29t78.5 94
q0 71 -76.5 101.5t-243.5 30.5t-243.5 -30.5t-76.5 -101.5zM615 -306q71 0 125.5 4.5t104 16t81.5 31t51 51.5t19 75q0 200 -381 200t-381 -200q0 -43 19 -75t51 -51.5t81.5 -31t104 -16t125.5 -4.5z" />
    <glyph glyph-name="partialdiff" unicode="&#x2202;" 
d="M619 833q115 0 226 -47t151 -128v272q0 99 -22.5 172t-57 115.5t-86.5 67.5t-102 33t-112 8q-157 0 -244 -70.5t-94 -192.5q0 -15 -9 -24t-22 -7l-34 7q-30 3 -30 31q0 162 124 254t310 92q235 0 355 -115.5t121 -374.5l1 -482q1 -231 -127 -351t-342 -120
q-211 0 -339.5 115t-128.5 326q0 199 127.5 309t334.5 110zM625 69q168 0 269.5 87t101.5 258q0 160 -101.5 242.5t-269.5 82.5t-269.5 -82.5t-101.5 -242.5q0 -171 101.5 -258t269.5 -87z" />
    <glyph glyph-name="product" unicode="&#x220f;" 
d="M171 1570q0 14 8.5 22t21.5 8h828q13 0 21.5 -8t8.5 -22v-1920q0 -14 -8.5 -22t-21.5 -8h-58q-13 0 -21.5 8t-8.5 22v1848h-652v-1848q0 -14 -8.5 -22t-21.5 -8h-58q-13 0 -21.5 8t-8.5 22v1920z" />
    <glyph glyph-name="summation" unicode="&#x2211;" 
d="M1085 1600q13 0 21.5 -8t8.5 -22v-42q0 -14 -8.5 -22t-21.5 -8h-840l536 -869q11 -19 0 -38l-536 -869h840q13 0 21.5 -8t8.5 -22v-42q0 -14 -8.5 -22t-21.5 -8h-940q-13 0 -21.5 8t-8.5 22v52q0 18 12 36l538 872l-538 872q-12 18 -12 36v52q0 14 8.5 22t21.5 8h940z
" />
    <glyph glyph-name="minus" unicode="&#x2212;" 
d="M955 617q13 0 21.5 -8.5t8.5 -21.5v-39q0 -14 -8.5 -22t-21.5 -8h-680q-13 0 -21.5 8t-8.5 22v39q0 13 8.5 21.5t21.5 8.5h680z" />
    <glyph glyph-name="radical" unicode="&#x221a;" 
d="M1142 1600q15 0 22 -9.5t4 -24.5l-461 -1920q-7 -26 -32 -26h-106q-25 0 -34 27l-253 883h-193q-13 0 -21.5 8t-8.5 22v42q0 14 8.5 22t21.5 8h246q28 0 34 -26l248 -895l448 1863q7 26 32 26h45z" />
    <glyph glyph-name="infinity" unicode="&#x221e;" 
d="M935 845q118 0 184 -83.5t66 -240.5t-66 -240.5t-184 -83.5q-43 0 -81 14t-66 33.5t-61.5 59t-54.5 70t-58 87.5q-32 -49 -49 -74t-44.5 -61.5t-48.5 -55t-49.5 -38t-59.5 -27.5t-66 -8q-119 0 -185.5 83.5t-66.5 240.5t66.5 240.5t185.5 83.5q35 0 66 -8t59.5 -27.5
t49.5 -37.5t49 -55t44.5 -61.5t48.5 -73.5q37 57 58 87t54.5 69.5t61.5 59t66 33.5t81 14zM305 267q16 0 32 4t29 9.5t28.5 17.5t26 21t26.5 28t24.5 29t25.5 34.5t24.5 35t25.5 38.5t25 38q-86 133 -124 175q-70 78 -143 78q-93 0 -140 -67t-47 -186q0 -116 47 -185.5
t140 -69.5zM925 267q93 0 140 69.5t47 185.5q0 119 -47 186t-140 67q-26 0 -50.5 -8t-49.5 -29t-42.5 -38t-44 -54.5t-40 -57.5t-43.5 -66q86 -129 119 -167q77 -87 151 -88z" />
    <glyph glyph-name="integral" unicode="&#x222b;" 
d="M893 1472q79 0 161.5 -18.5t82.5 -44.5v-35q0 -15 -10 -23t-26 -5q-4 1 -32.5 10t-69.5 16.5t-90 7.5q-65 0 -105.5 -9.5t-74 -37.5t-48 -84.5t-14.5 -145.5v-1113q0 -116 -21 -192t-66.5 -116.5t-102 -56t-140.5 -15.5q-79 0 -161.5 18.5t-82.5 44.5v35q0 15 10 23t26 5
q4 -1 32.5 -10t69.5 -16.5t90 -7.5q65 0 105.5 9.5t74.5 37.5t49 84.5t15 145.5v1113q0 93 14.5 160.5t40 109.5t67.5 67t90.5 34t115.5 9z" />
    <glyph glyph-name="approxequal" unicode="&#x2248;" 
d="M407 859q54 0 101.5 -20.5t81.5 -49.5t66 -58.5t70.5 -50t79.5 -20.5q59 0 95.5 31t41.5 66q2 13 7.5 17t19.5 4h49q33 0 25 -25q-15 -83 -76.5 -135.5t-161.5 -52.5q-51 0 -97 20.5t-79.5 49.5t-65.5 58.5t-68.5 50t-75.5 20.5q-96 0 -134 -94q-5 -13 -10.5 -18.5
t-15.5 -5.5h-52q-25 0 -22 31q7 73 67.5 127.5t153.5 54.5zM407 543q54 0 101.5 -20.5t81.5 -49.5t66 -58.5t70.5 -50t79.5 -20.5q59 0 95.5 31t41.5 66q2 13 7.5 17t19.5 4h49q33 0 25 -25q-15 -83 -76.5 -135.5t-161.5 -52.5q-51 0 -97 20.5t-79.5 49.5t-65.5 58.5
t-68.5 50t-75.5 20.5q-96 0 -134 -94q-5 -13 -10.5 -18.5t-15.5 -5.5h-52q-25 0 -22 31q7 73 67.5 127.5t153.5 54.5z" />
    <glyph glyph-name="notequal" unicode="&#x2260;" 
d="M955 648h-262l-62 -158h324q13 0 21.5 -8t8.5 -22v-40q0 -14 -8.5 -22t-21.5 -8h-362l-142 -366q-9 -24 -36 -24h-22q-36 0 -24 34l138 356h-232q-13 0 -21.5 8t-8.5 22v40q0 14 8.5 22t21.5 8h271l61 158h-332q-13 0 -21.5 8t-8.5 22v39q0 13 8.5 21.5t21.5 8.5h370
l136 351q9 24 36 24h22q36 0 24 -34l-132 -341h224q13 0 21.5 -8.5t8.5 -21.5v-39q0 -14 -8.5 -22t-21.5 -8z" />
    <glyph glyph-name="lessequal" unicode="&#x2264;" 
d="M936 1056q16 -27 -11 -41l-546 -321l546 -321q11 -6 14.5 -18t-3.5 -23l-28 -44q-14 -28 -37 -12l-560 338q-21 15 -21 38v83q0 23 21 38l560 339q23 15 37 -13zM955 99q13 0 21.5 -8.5t8.5 -21.5v-39q0 -14 -8.5 -22t-21.5 -8h-680q-13 0 -21.5 8t-8.5 22v39
q0 13 8.5 21.5t21.5 8.5h680z" />
    <glyph glyph-name="greaterequal" unicode="&#x2265;" 
d="M294 1056l28 43q14 28 37 13l560 -339q21 -15 21 -38v-83q0 -23 -21 -38l-560 -338q-23 -16 -37 12l-28 44q-7 11 -3.5 23t14.5 18l546 321l-546 321q-27 14 -11 41zM275 99h680q13 0 21.5 -8.5t8.5 -21.5v-39q0 -14 -8.5 -22t-21.5 -8h-680q-13 0 -21.5 8t-8.5 22v39
q0 13 8.5 21.5t21.5 8.5z" />
    <glyph glyph-name="lozenge" unicode="&#x25ca;" 
d="M668 1400q23 0 34 -22l337 -658q10 -20 0 -40l-337 -658q-11 -22 -34 -22h-106q-23 0 -34 22l-337 658q-10 20 0 40l337 658q11 22 34 22h106zM615 72l322 628l-322 628l-322 -628z" />
    <glyph glyph-name="i.loclTRK" 
d="M615 1276q-28 0 -48.5 20.5t-20.5 47.5q0 26 20.5 46t48.5 20t48.5 -20t20.5 -46q0 -27 -20.5 -47.5t-48.5 -20.5zM1041 100q13 0 21.5 -8t8.5 -22v-40q0 -14 -8.5 -22t-21.5 -8h-842q-13 0 -21.5 8t-8.5 22v40q0 14 8.5 22t21.5 8h396v780h-346q-13 0 -21.5 8t-8.5 22
v40q0 14 8.5 22t21.5 8h418q13 0 21.5 -8t8.5 -22v-850h344z" />
    <glyph glyph-name="g.ss01" 
d="M1091 980q13 0 21.5 -8t8.5 -22v-33q0 -26 -30 -28l-205 5q131 -91 131 -261q0 -169 -92 -244t-306 -75h-216q-88 0 -123 -24.5t-35 -85.5q0 -62 35 -90.5t119 -28.5h426q137 0 199.5 -49.5t62.5 -172.5q0 -94 -46.5 -149t-155.5 -81.5t-298 -26.5q-184 0 -287.5 27
t-141.5 76t-38 133q0 129 127 181q-35 23 -53.5 42t-31 54t-12.5 89q0 78 33.5 118t113.5 61q-68 27 -101.5 97.5t-33.5 153.5q0 173 100.5 257.5t328.5 84.5h500zM591 406q185 0 257.5 48t72.5 187q0 138 -75 192t-255 54t-255 -54t-75 -192q0 -139 72.5 -187t257.5 -48z
M861 -7h-578q-21 -13 -39.5 -45t-18.5 -85q0 -60 24.5 -92.5t105 -51.5t232.5 -19q162 0 250.5 19t120 54t31.5 97q0 65 -31 94t-97 29z" />
    <glyph glyph-name="gbreve.ss01" 
d="M791 1378q6 27 32 27h27q30 0 27 -29q-10 -104 -80 -169.5t-182 -65.5t-182 65.5t-80 169.5q-3 29 27 29h27q26 0 32 -27q14 -65 59.5 -104.5t116.5 -39.5t116.5 39.5t59.5 104.5zM1091 980q13 0 21.5 -8t8.5 -22v-33q0 -26 -30 -28l-205 5q131 -91 131 -261
q0 -169 -92 -244t-306 -75h-216q-88 0 -123 -24.5t-35 -85.5q0 -62 35 -90.5t119 -28.5h426q137 0 199.5 -49.5t62.5 -172.5q0 -94 -46.5 -149t-155.5 -81.5t-298 -26.5q-184 0 -287.5 27t-141.5 76t-38 133q0 129 127 181q-35 23 -53.5 42t-31 54t-12.5 89q0 78 33.5 118
t113.5 61q-68 27 -101.5 97.5t-33.5 153.5q0 173 100.5 257.5t328.5 84.5h500zM591 406q185 0 257.5 48t72.5 187q0 138 -75 192t-255 54t-255 -54t-75 -192q0 -139 72.5 -187t257.5 -48zM861 -7h-578q-21 -13 -39.5 -45t-18.5 -85q0 -60 24.5 -92.5t105 -51.5t232.5 -19
q162 0 250.5 19t120 54t31.5 97q0 65 -31 94t-97 29z" />
    <glyph glyph-name="gcommaaccent.ss01" 
d="M475 1193q-13 0 -21.5 8t-8.5 21v12q0 108 19 228t46 193q8 24 35 24h14q31 0 25 -34q-13 -74 -21 -180t-7 -178h235q13 0 21 -8t8 -21v-36q0 -13 -8 -21t-21 -8h-316zM1091 980q13 0 21.5 -8t8.5 -22v-33q0 -26 -30 -28l-205 5q131 -91 131 -261q0 -169 -92 -244
t-306 -75h-216q-88 0 -123 -24.5t-35 -85.5q0 -62 35 -90.5t119 -28.5h426q137 0 199.5 -49.5t62.5 -172.5q0 -94 -46.5 -149t-155.5 -81.5t-298 -26.5q-184 0 -287.5 27t-141.5 76t-38 133q0 129 127 181q-35 23 -53.5 42t-31 54t-12.5 89q0 78 33.5 118t113.5 61
q-68 27 -101.5 97.5t-33.5 153.5q0 173 100.5 257.5t328.5 84.5h500zM591 406q185 0 257.5 48t72.5 187q0 138 -75 192t-255 54t-255 -54t-75 -192q0 -139 72.5 -187t257.5 -48zM861 -7h-578q-21 -13 -39.5 -45t-18.5 -85q0 -60 24.5 -92.5t105 -51.5t232.5 -19
q162 0 250.5 19t120 54t31.5 97q0 65 -31 94t-97 29z" />
    <glyph glyph-name="gdotaccent.ss01" 
d="M615 1276q-28 0 -48.5 20.5t-20.5 47.5q0 26 20.5 46t48.5 20t48.5 -20t20.5 -46q0 -27 -20.5 -47.5t-48.5 -20.5zM1091 980q13 0 21.5 -8t8.5 -22v-33q0 -26 -30 -28l-205 5q131 -91 131 -261q0 -169 -92 -244t-306 -75h-216q-88 0 -123 -24.5t-35 -85.5q0 -62 35 -90.5
t119 -28.5h426q137 0 199.5 -49.5t62.5 -172.5q0 -94 -46.5 -149t-155.5 -81.5t-298 -26.5q-184 0 -287.5 27t-141.5 76t-38 133q0 129 127 181q-35 23 -53.5 42t-31 54t-12.5 89q0 78 33.5 118t113.5 61q-68 27 -101.5 97.5t-33.5 153.5q0 173 100.5 257.5t328.5 84.5h500z
M591 406q185 0 257.5 48t72.5 187q0 138 -75 192t-255 54t-255 -54t-75 -192q0 -139 72.5 -187t257.5 -48zM861 -7h-578q-21 -13 -39.5 -45t-18.5 -85q0 -60 24.5 -92.5t105 -51.5t232.5 -19q162 0 250.5 19t120 54t31.5 97q0 65 -31 94t-97 29z" />
    <glyph glyph-name="zero.dnom" 
d="M615 992q259 0 377.5 -107t118.5 -356v-93q0 -249 -118.5 -355.5t-377.5 -106.5t-377.5 106.5t-118.5 355.5v93q0 249 118.5 356t377.5 107zM615 894q-115 0 -194 -25t-122.5 -74t-61.5 -111.5t-18 -147.5v-106q0 -85 18 -147.5t61.5 -111.5t122.5 -74t194 -25t194 25
t122.5 74t61.5 111.5t18 147.5v106q0 85 -18 147.5t-61.5 111.5t-122.5 74t-194 25z" />
    <glyph glyph-name="one.dnom" 
d="M1035 91q13 0 21.5 -8.5t8.5 -21.5v-31q0 -14 -8.5 -22t-21.5 -8h-840q-13 0 -21.5 8t-8.5 22v31q0 13 8.5 21.5t21.5 8.5h396v776q-83 -75 -170.5 -109t-163.5 -34q-30 0 -30 31v37q0 29 30 29q71 0 158.5 40.5t175.5 118.5h72q13 0 21.5 -8t8.5 -22v-859h342z" />
    <glyph glyph-name="two.dnom" 
d="M1010 100q14 0 22 -8t8 -22v-40q0 -14 -8 -22t-22 -8h-791q-13 0 -21.5 8t-8.5 22v86q0 82 42 144.5t108.5 100.5t147.5 68t162 54.5t147.5 50.5t108.5 65t42 91q0 106 -76 155.5t-246 49.5q-177 0 -262 -54t-80 -147q1 -15 -7 -22.5t-21 -5.5l-39 2q-31 3 -31 32
q0 290 431 290q222 0 325.5 -75.5t103.5 -224.5q0 -74 -41.5 -129.5t-108.5 -89.5t-147.5 -61.5t-161 -54t-147.5 -57.5t-108.5 -81t-41.5 -117h721z" />
    <glyph glyph-name="three.dnom" 
d="M820 485q46 -8 81 -18t72 -29t61 -44t39.5 -64t15.5 -89q0 -77 -36 -131t-104 -83t-150 -41t-190 -12q-237 0 -349.5 66t-112.5 222q0 29 31 32l40 3q29 3 29 -28q-3 -113 83 -157t271 -44q59 0 102.5 2t92.5 7.5t82.5 17.5t62.5 30t43 46.5t14 66.5q0 42 -13.5 73
t-42 52.5t-65.5 36t-92 22t-113 10.5t-137 3q-30 0 -30 30v37q0 32 29 32q212 0 318.5 51t106.5 141q0 94 -85.5 133t-261.5 39q-181 0 -262 -50.5t-78 -165.5q1 -15 -7 -22.5t-22 -5.5l-40 2q-31 3 -31 32q0 157 112 229.5t331 72.5q438 0 438 -261q0 -49 -20 -90.5
t-55 -70.5t-73.5 -49t-84.5 -34z" />
    <glyph glyph-name="four.dnom" 
d="M898 980q14 0 22 -8t8 -22v-461h141q13 0 21.5 -8.5t8.5 -21.5v-34q0 -13 -8.5 -21.5t-21.5 -8.5h-141v-365q0 -14 -8 -22t-22 -8h-42q-14 0 -22 8t-8 22v365h-655q-13 0 -21.5 8.5t-8.5 21.5v525q0 14 8.5 22t21.5 8h42q13 0 21.5 -8t8.5 -22v-461h583v461q0 14 8 22
t22 8h42z" />
    <glyph glyph-name="five.dnom" 
d="M232 293q23 0 26 -29q17 -94 106 -133t268 -39q172 0 269.5 62.5t97.5 191.5q0 258 -370 258q-214 0 -351 -106q-27 -21 -45 -10l-28 21q-29 17 -21 39l123 406q7 26 32 26h614q13 0 21.5 -8t8.5 -22v-38q0 -14 -8.5 -22t-21.5 -8h-571l-76 -258q111 78 334 78
q215 0 334 -93t119 -263q0 -165 -123 -258.5t-340 -93.5q-228 0 -339 64t-125 202q-3 33 28 33h38z" />
    <glyph glyph-name="six.dnom" 
d="M631 578q462 0 462 -289q0 -84 -35.5 -145.5t-100 -98t-147 -54t-185.5 -17.5q-108 0 -191 18t-147 58.5t-97.5 111.5t-33.5 171l1 270q1 208 118.5 299t357.5 91q118 0 213.5 -28t154 -85t58.5 -134q0 -15 -8 -24.5t-22 -11.5l-34 -6q-13 -1 -22.5 9.5t-8.5 25.5
q-2 72 -90.5 118t-239.5 46q-43 0 -77.5 -2.5t-75.5 -10t-72 -20t-61.5 -35t-50 -53t-31.5 -75t-12 -100.5v-157q16 38 57 65t98 40t110.5 18t111.5 5zM625 68q66 0 118 5.5t101 20.5t81.5 39t51.5 62.5t19 90.5q0 51 -19.5 87.5t-51 57.5t-82 33t-100 16t-118.5 4
q-70 0 -133.5 -10t-118 -31t-87 -57.5t-32.5 -85.5q0 -67 28 -114t81 -72t116 -35.5t146 -10.5z" />
    <glyph glyph-name="seven.dnom" 
d="M1061 980q13 0 21.5 -8t8.5 -22v-46q0 -24 -8 -38l-601 -837q-1 -2 -5 -7t-5.5 -6.5t-4.5 -5t-5 -4.5t-5 -3t-6 -2.5t-7 -0.5h-57q-15 0 -22.5 8t0.5 21l622 855h-798q-13 0 -21.5 8t-8.5 22v36q0 14 8.5 22t21.5 8h872z" />
    <glyph glyph-name="eight.dnom" 
d="M856 552q237 -70 237 -275q0 -304 -478 -304t-478 304q0 205 237 275q-173 41 -173 190q0 122 105 185t309 63t309 -63t105 -185q0 -149 -173 -190zM295 745q0 -74 78.5 -107t241.5 -33t241.5 33t78.5 107q0 81 -76.5 115.5t-243.5 34.5t-243.5 -34.5t-76.5 -115.5z
M615 69q71 0 125.5 5t104 18t81.5 35.5t51 58.5t19 85q0 228 -381 228t-381 -228q0 -49 19 -85t51 -58.5t81.5 -35.5t104 -18t125.5 -5z" />
    <glyph glyph-name="nine.dnom" 
d="M599 388q-462 0 -462 290q0 84 35.5 145.5t100 98t147 54t185.5 17.5q108 0 191 -18t147 -58.5t97.5 -111.5t33.5 -171l-1 -270q-1 -208 -118.5 -299t-357.5 -91q-195 0 -320.5 65.5t-125.5 181.5q0 32 30 35l34 7q13 1 22.5 -9.5t8.5 -25.5q1 -73 93 -118.5t257 -45.5
q43 0 77.5 2.5t75.5 10t72 20t61.5 35t50 53t31.5 75t12 100.5v157q-30 -72 -138 -100.5t-239 -28.5zM605 899q-66 0 -118 -5.5t-101 -20.5t-81.5 -39t-51.5 -62.5t-19 -90.5q0 -51 19.5 -88t51 -58t82 -33t100 -16t118.5 -4q96 0 176 17t137.5 60.5t57.5 107.5q0 54 -19 95
t-51.5 66.5t-81 42t-101.5 22.5t-118 6z" />
    <glyph glyph-name="zero.numr" 
d="M615 1201q259 0 377.5 -107t118.5 -356v-93q0 -249 -118.5 -355.5t-377.5 -106.5t-377.5 106.5t-118.5 355.5v93q0 249 118.5 356t377.5 107zM615 1103q-115 0 -194 -25t-122.5 -74t-61.5 -111.5t-18 -147.5v-106q0 -85 18 -147.5t61.5 -111.5t122.5 -74t194 -25t194 25
t122.5 74t61.5 111.5t18 147.5v106q0 85 -18 147.5t-61.5 111.5t-122.5 74t-194 25z" />
    <glyph glyph-name="one.numr" 
d="M1035 301q13 0 21.5 -8.5t8.5 -21.5v-31q0 -14 -8.5 -22t-21.5 -8h-840q-13 0 -21.5 8t-8.5 22v31q0 13 8.5 21.5t21.5 8.5h396v776q-83 -75 -170.5 -109t-163.5 -34q-30 0 -30 31v37q0 29 30 29q71 0 158.5 40.5t175.5 118.5h72q13 0 21.5 -8t8.5 -22v-859h342z" />
    <glyph glyph-name="two.numr" 
d="M1010 310q14 0 22 -8t8 -22v-40q0 -14 -8 -22t-22 -8h-791q-13 0 -21.5 8t-8.5 22v86q0 82 42 144.5t108.5 100.5t147.5 68t162 54.5t147.5 50.5t108.5 65t42 91q0 106 -76 155.5t-246 49.5q-177 0 -262 -54t-80 -147q1 -15 -7 -22.5t-21 -5.5l-39 2q-31 3 -31 32
q0 290 431 290q222 0 325.5 -75.5t103.5 -224.5q0 -74 -41.5 -129.5t-108.5 -89.5t-147.5 -61.5t-161 -54t-147.5 -57.5t-108.5 -81t-41.5 -117h721z" />
    <glyph glyph-name="three.numr" 
d="M820 695q46 -8 81 -18t72 -29t61 -44t39.5 -64t15.5 -89q0 -77 -36 -131t-104 -83t-150 -41t-190 -12q-237 0 -349.5 66t-112.5 222q0 29 31 32l40 3q29 3 29 -28q-3 -113 83 -157t271 -44q59 0 102.5 2t92.5 7.5t82.5 17.5t62.5 30t43 46.5t14 66.5q0 42 -13.5 73
t-42 52.5t-65.5 36t-92 22t-113 10.5t-137 3q-30 0 -30 30v37q0 32 29 32q212 0 318.5 51t106.5 141q0 94 -85.5 133t-261.5 39q-181 0 -262 -50.5t-78 -165.5q1 -15 -7 -22.5t-22 -5.5l-40 2q-31 3 -31 32q0 157 112 229.5t331 72.5q438 0 438 -261q0 -49 -20 -90.5
t-55 -70.5t-73.5 -49t-84.5 -34z" />
    <glyph glyph-name="four.numr" 
d="M898 1190q14 0 22 -8t8 -22v-461h141q13 0 21.5 -8.5t8.5 -21.5v-34q0 -13 -8.5 -21.5t-21.5 -8.5h-141v-365q0 -14 -8 -22t-22 -8h-42q-14 0 -22 8t-8 22v365h-655q-13 0 -21.5 8.5t-8.5 21.5v525q0 14 8.5 22t21.5 8h42q13 0 21.5 -8t8.5 -22v-461h583v461q0 14 8 22
t22 8h42z" />
    <glyph glyph-name="five.numr" 
d="M232 503q23 0 26 -29q17 -94 106 -133t268 -39q172 0 269.5 62.5t97.5 191.5q0 258 -370 258q-214 0 -351 -106q-27 -21 -45 -10l-28 21q-29 17 -21 39l123 406q7 26 32 26h614q13 0 21.5 -8t8.5 -22v-38q0 -14 -8.5 -22t-21.5 -8h-571l-76 -258q111 78 334 78
q215 0 334 -93t119 -263q0 -165 -123 -258.5t-340 -93.5q-228 0 -339 64t-125 202q-3 33 28 33h38z" />
    <glyph glyph-name="six.numr" 
d="M631 787q462 0 462 -289q0 -84 -35.5 -145.5t-100 -98t-147 -54t-185.5 -17.5q-108 0 -191 18t-147 58.5t-97.5 111.5t-33.5 171l1 270q1 208 118.5 299t357.5 91q118 0 213.5 -28t154 -85t58.5 -134q0 -15 -8 -24.5t-22 -11.5l-34 -6q-13 -1 -22.5 9.5t-8.5 25.5
q-2 72 -90.5 118t-239.5 46q-43 0 -77.5 -2.5t-75.5 -10t-72 -20t-61.5 -35t-50 -53t-31.5 -75t-12 -100.5v-157q16 38 57 65t98 40t110.5 18t111.5 5zM625 277q66 0 118 5.5t101 20.5t81.5 39t51.5 62.5t19 90.5q0 51 -19.5 87.5t-51 57.5t-82 33t-100 16t-118.5 4
q-70 0 -133.5 -10t-118 -31t-87 -57.5t-32.5 -85.5q0 -67 28 -114t81 -72t116 -35.5t146 -10.5z" />
    <glyph glyph-name="seven.numr" 
d="M1061 1190q13 0 21.5 -8t8.5 -22v-46q0 -24 -8 -38l-601 -837q-1 -2 -5 -7t-5.5 -6.5t-4.5 -5t-5 -4.5t-5 -3t-6 -2.5t-7 -0.5h-57q-15 0 -22.5 8t0.5 21l622 855h-798q-13 0 -21.5 8t-8.5 22v36q0 14 8.5 22t21.5 8h872z" />
    <glyph glyph-name="eight.numr" 
d="M856 762q237 -70 237 -275q0 -304 -478 -304t-478 304q0 205 237 275q-173 41 -173 190q0 122 105 185t309 63t309 -63t105 -185q0 -149 -173 -190zM295 955q0 -74 78.5 -107t241.5 -33t241.5 33t78.5 107q0 81 -76.5 115.5t-243.5 34.5t-243.5 -34.5t-76.5 -115.5z
M615 279q71 0 125.5 5t104 18t81.5 35.5t51 58.5t19 85q0 228 -381 228t-381 -228q0 -49 19 -85t51 -58.5t81.5 -35.5t104 -18t125.5 -5z" />
    <glyph glyph-name="nine.numr" 
d="M599 597q-462 0 -462 290q0 84 35.5 145.5t100 98t147 54t185.5 17.5q108 0 191 -18t147 -58.5t97.5 -111.5t33.5 -171l-1 -270q-1 -208 -118.5 -299t-357.5 -91q-195 0 -320.5 65.5t-125.5 181.5q0 32 30 35l34 7q13 1 22.5 -9.5t8.5 -25.5q1 -73 93 -118.5t257 -45.5
q43 0 77.5 2.5t75.5 10t72 20t61.5 35t50 53t31.5 75t12 100.5v157q-30 -72 -138 -100.5t-239 -28.5zM605 1108q-66 0 -118 -5.5t-101 -20.5t-81.5 -39t-51.5 -62.5t-19 -90.5q0 -51 19.5 -88t51 -58t82 -33t100 -16t118.5 -4q96 0 176 17t137.5 60.5t57.5 107.5
q0 54 -19 95t-51.5 66.5t-81 42t-101.5 22.5t-118 6z" />
    <glyph glyph-name="section.ss01" 
d="M562 326q46 -5 69.5 -7.5t64.5 -8t63.5 -10.5t56.5 -13.5t53 -18.5t43.5 -23.5t38 -30.5t26.5 -37.5t18.5 -46.5t5.5 -57q0 -125 -99 -196t-315 -71q-99 0 -176.5 12.5t-142 41.5t-102 81.5t-45.5 126.5q-3 30 27 30h44q28 0 31 -26q6 -51 36 -86t82 -53t111.5 -25.5
t137.5 -7.5q154 0 233 39.5t79 127.5q0 37 -14 63.5t-37 42t-61 25.5t-77.5 15.5t-93.5 11.5q-12 1 -19 1.5t-18 2t-20 2.5q-76 9 -132.5 20.5t-113.5 32.5t-93.5 50t-59 74t-22.5 103q0 132 139 194q-144 63 -159 213q-3 30 27 30h44q28 0 31 -26q6 -51 36 -86t82 -53
t111.5 -25.5t137.5 -7.5q154 0 233 39.5t79 127.5q0 37 -14 63.5t-37 42t-61 25.5t-77.5 15.5t-93.5 11.5q-37 4 -57 6q-76 9 -132.5 20.5t-113.5 32.5t-93.5 50t-59 74t-22.5 103q0 106 98.5 172.5t305.5 66.5q91 0 163 -12.5t131.5 -41.5t95 -81.5t43.5 -126.5
q3 -30 -27 -30h-44q-28 0 -31 25q-6 51 -34 86t-75 53.5t-100.5 26t-123.5 7.5q-145 0 -224 -35.5t-79 -101.5q0 -50 22 -85t67.5 -56t99.5 -32.5t133 -19.5q46 -5 69.5 -7.5t64.5 -8t63.5 -10.5t56.5 -13.5t53 -18.5t43.5 -23.5t38 -30.5t26.5 -37.5t18.5 -46.5t5.5 -57
q0 -165 -160 -228q123 -65 137 -207q3 -30 -27 -30h-44q-28 0 -31 25q-6 51 -34 86t-75 53.5t-100.5 26t-123.5 7.5q-145 0 -224 -35.5t-79 -101.5q0 -50 22 -85t67.5 -56t99.5 -32.5t133 -19.5z" />
  </font>
</defs>
</svg>
