<?xml version="1.0" standalone="no"?>
<!DOCTYPE svg PUBLIC "-//W3C//DTD SVG 1.1//EN" "http://www.w3.org/Graphics/SVG/1.1/DTD/svg11.dtd" >
<svg xmlns="http://www.w3.org/2000/svg" xmlns:xlink="http://www.w3.org/1999/xlink" version="1.1">
<metadata>
Created by FontForge 20170731 at Sat Sep 24 15:58:15 2016
 By Aleksey,,,
(c) 2016 Connary Fagen
</metadata>
<defs>
<font id="CartographSansCF-ExtraBoldItalic" horiz-adv-x="1275" >
  <font-face 
    font-family="Cartograph Sans CF Extra Bold"
    font-weight="800"
    font-style="italic"
    font-stretch="normal"
    units-per-em="2000"
    panose-1="0 0 9 0 0 0 0 0 0 0"
    ascent="1600"
    descent="-400"
    x-height="980"
    cap-height="1400"
    bbox="-590.714 -756 2088.88 1903"
    underline-thickness="50"
    underline-position="-200"
    slope="-8"
    unicode-range="U+0020-25CA"
  />
<missing-glyph horiz-adv-x="990" 
d="M812 1600v-1980h-628v1980h628zM659 1467h-326v-65h128v-73h-130v-66h328v66h-130v73h130v65zM529 1212h-198v-206h328v67h-130v139zM461 1145v-72h-65v72h65zM659 953h-328v-66h130v-73h-130v-65h198v138h130v66zM659 834h-65v-131h-263v-67h328v198zM659 592h-198v-111
h68v46h65v-93h-198v158h-65v-224h328v224zM659 250h-328v-224h328v224zM594 184v-93h-198v93h198zM659 -20h-328v-65h138l-138 -93v-65h328v65h-202l139 93h63v65z" />
    <glyph glyph-name=".notdef" horiz-adv-x="990" 
d="M812 1600v-1980h-628v1980h628zM659 1467h-326v-65h128v-73h-130v-66h328v66h-130v73h130v65zM529 1212h-198v-206h328v67h-130v139zM461 1145v-72h-65v72h65zM659 953h-328v-66h130v-73h-130v-65h198v138h130v66zM659 834h-65v-131h-263v-67h328v198zM659 592h-198v-111
h68v46h65v-93h-198v158h-65v-224h328v224zM659 250h-328v-224h328v224zM594 184v-93h-198v93h198zM659 -20h-328v-65h138l-138 -93v-65h328v65h-202l139 93h63v65z" />
    <glyph glyph-name=".null" horiz-adv-x="0" 
 />
    <glyph glyph-name="nonmarkingreturn" horiz-adv-x="666" 
 />
    <glyph glyph-name="space" unicode=" " horiz-adv-x="800" 
 />
    <glyph glyph-name="exclam" unicode="!" horiz-adv-x="771" 
d="M487 1416q79 0 130.5 -64.5t27.5 -161.5l-173 -705q-8 -26 -34 -26h-136q-14 0 -22.5 8.5t-7.5 22.5l24 717q4 96 62 152.5t129 56.5zM341 -26q-83 0 -141 58t-58 141q0 82 58.5 140t140.5 58t140.5 -58t58.5 -140t-58.5 -140.5t-140.5 -58.5z" />
    <glyph glyph-name="quotedbl" unicode="&#x22;" horiz-adv-x="1027" 
d="M516 1400q14 0 24.5 -12.5t7.5 -25.5l-79 -391q-3 -13 -8.5 -17.5t-19.5 -4.5h-144q-13 0 -22.5 12t-7.5 26l33 391q1 13 6.5 17.5t19.5 4.5h190zM942 1400q14 0 24.5 -12.5t7.5 -25.5l-79 -391q-3 -13 -8.5 -17.5t-19.5 -4.5h-144q-13 0 -22.5 12t-7.5 26l33 391
q1 13 6.5 17.5t19.5 4.5h190z" />
    <glyph glyph-name="numbersign" unicode="#" horiz-adv-x="1342" 
d="M1224 1135q34 0 28 -32l-21 -147q-3 -28 -32 -28h-120l-42 -296h118q34 0 28 -32l-21 -147q-3 -28 -32 -28h-122l-33 -235q-3 -28 -32 -28h-200q-35 0 -28 32l33 231h-172l-33 -235q-3 -28 -32 -28h-200q-31 0 -28 32l33 231h-116q-31 0 -28 32l21 147q3 28 32 28h120
l41 296h-117q-31 0 -28 32l21 147q3 28 32 28h122l33 237q3 28 32 28h200q31 0 28 -32l-33 -233h172l33 237q3 28 32 28h200q34 0 28 -32l-33 -233h116zM777 632l41 296h-171l-42 -296h172z" />
    <glyph glyph-name="dollar" unicode="$" horiz-adv-x="1298" 
d="M1218 1029q2 -15 -5.5 -23.5t-22.5 -8.5h-200q-20 0 -34 23q-32 61 -118 87l-42 -296q80 -20 142 -48t115 -70t81.5 -104t28.5 -140q0 -191 -126 -290t-349 -114l-28 -197q-4 -28 -32 -28h-130q-32 0 -28 32l28 195q-169 19 -270 99t-118 226q-5 31 28 31h205
q24 0 33 -26q25 -67 157 -80l46 324q-359 97 -359 365q0 169 127 269t337 113l26 184q4 28 32 28h130q32 0 28 -32l-27 -189q144 -25 233.5 -109t111.5 -221zM500 969q0 -39 23 -68.5t88 -49.5l37 262q-148 -26 -148 -144zM881 454q0 45 -26.5 74t-91.5 50l-39 -277
q80 12 118.5 47.5t38.5 105.5z" />
    <glyph glyph-name="percent" unicode="%" horiz-adv-x="1377" 
d="M519 1410q232 0 232 -225q0 -159 -71.5 -249t-216.5 -90q-230 0 -230 225q0 159 70.5 249t215.5 90zM1200 1159q25 -19 4 -44l-829 -941q-20 -23 -42 -4l-95 73q-23 21 -4 44l827 941q20 23 42 4zM495 1230q-93 0 -84 -148q2 -30 17 -43t52 -13q97 0 89 148
q-2 31 -18 43.5t-56 12.5zM969 554q234 0 234 -225q0 -157 -72 -248t-215 -91q-231 0 -231 223q0 162 69 251.5t215 89.5zM950 374q-92 0 -85 -148q2 -30 17.5 -43t52.5 -13q53 0 72.5 42.5t15.5 105.5q-2 31 -17.5 43.5t-55.5 12.5z" />
    <glyph glyph-name="ampersand" unicode="&#x26;" horiz-adv-x="1393" 
d="M1202 147q24 -28 7 -42l-135 -116q-19 -17 -40 8l-105 139q-200 -154 -389 -154q-210 0 -323.5 108.5t-86.5 297.5q9 64 37.5 120.5t76 103.5t94 81.5t111.5 74.5q-63 85 -93.5 166t-16.5 180q18 134 124.5 218t263.5 84q173 0 268.5 -98t72.5 -257q-8 -59 -34.5 -111.5
t-68.5 -96.5t-85.5 -77.5t-101.5 -70.5l185 -243q43 40 109 107l140 -172q-77 -77 -114 -113zM582 1060q-6 -44 9.5 -84t51.5 -92q78 51 122.5 99t50.5 105q6 40 -20 66.5t-79 26.5q-55 0 -91 -34.5t-44 -86.5zM570 241q102 0 221 78l-203 269q-77 -51 -120.5 -99
t-50.5 -104q-9 -65 30 -104.5t123 -39.5z" />
    <glyph glyph-name="quotesingle" unicode="'" horiz-adv-x="601" 
d="M516 1400q14 0 24.5 -12.5t7.5 -25.5l-79 -391q-3 -13 -8.5 -17.5t-19.5 -4.5h-144q-13 0 -22.5 12t-7.5 26l33 391q1 13 6.5 17.5t19.5 4.5h190z" />
    <glyph glyph-name="parenleft" unicode="(" horiz-adv-x="996" 
d="M951 1206q-100 0 -176.5 -28t-129.5 -77t-91 -127t-61 -166.5t-40 -208.5q-22 -134 -19.5 -240.5t32.5 -181t106 -114t200 -39.5l-27 -284q-105 0 -191 18.5t-148 49.5t-109 79t-76.5 99t-47 117.5t-24.5 127.5t-6 135.5t6.5 134.5t15.5 132q13 91 27.5 163.5t44 165
t67.5 163t100.5 142.5t140.5 118t189 75.5t245 29.5z" />
    <glyph glyph-name="parenright" unicode=")" horiz-adv-x="998" 
d="M259 1206l27 284q134 0 237.5 -30t169.5 -79t109.5 -122.5t63 -147.5t23.5 -169t-2 -172.5t-19 -170.5q-10 -70 -20.5 -126t-29.5 -128.5t-42 -130.5t-58.5 -122.5t-78 -113.5t-102 -95.5t-129 -76.5t-160.5 -48t-196 -18l28 284q100 0 177 28t130 77.5t91.5 127.5
t61.5 167.5t40 208.5q22 135 19 241t-33.5 180t-106.5 113t-200 39z" />
    <glyph glyph-name="asterisk" unicode="*" horiz-adv-x="989" 
d="M923 1066q3 -26 -22 -31l-188 -42l98 -164q7 -11 9 -15.5t1 -12t-10 -12.5l-127 -76q-23 -14 -40 16l-84 153l-136 -166q-12 -13 -36 3l-105 73q-32 22 -13 44l145 157l-161 48q-36 11 -24 42l50 127q11 24 38 16l186 -54l18 206q2 22 28 22h131q13 0 22.5 -12t7.5 -26
l-29 -190l190 56q15 4 26 -5t13 -25z" />
    <glyph glyph-name="plus" unicode="+" horiz-adv-x="1239" 
d="M1057 674q35 0 28 -32l-21 -147q-3 -28 -32 -28h-311l-44 -314q-3 -28 -32 -28h-147q-31 0 -28 32l44 310h-309q-31 0 -28 32l21 147q3 28 32 28h313l44 313q3 28 32 28h147q31 0 28 -32l-44 -309h307z" />
    <glyph glyph-name="comma" unicode="," horiz-adv-x="821" 
d="M109 0q-33 0 -28 32l24 171q4 28 32 28h490q33 0 28 -32l-15 -104q-38 -283 -135 -461q-21 -38 -68 -38h-108q-18 0 -27 13.5t-2 33.5q26 72 48.5 176.5t30.5 180.5h-270z" />
    <glyph glyph-name="hyphen" unicode="-" horiz-adv-x="1322" 
d="M1138 667q33 0 28 -32l-23 -169q-3 -28 -32 -28h-910q-33 0 -28 32l24 169q2 28 32 28h909z" />
    <glyph glyph-name="period" unicode="." horiz-adv-x="671" 
d="M301 -26q-83 0 -141 58t-58 141q0 82 58.5 140t140.5 58t140.5 -58t58.5 -140t-58.5 -140.5t-140.5 -58.5z" />
    <glyph glyph-name="slash" unicode="/" horiz-adv-x="1261" 
d="M49 -260q-18 0 -24 10t3 26l922 1600q16 24 46 24h238q18 0 24 -10t-3 -26l-923 -1598q-15 -26 -47 -26h-236z" />
    <glyph glyph-name="zero" unicode="0" horiz-adv-x="1284" 
d="M760 1416q112 0 190 -21.5t133.5 -69.5t80 -125.5t30 -189.5t-15.5 -262l-15 -120q-23 -189 -66 -314.5t-114.5 -201t-167 -107t-232.5 -31.5q-141 0 -229.5 34t-141 112.5t-61 207t12.5 316.5l15 121q23 188 66 312.5t115 200t167.5 107t232.5 31.5zM910 623l22 160
q14 94 15 157.5t-8.5 106.5t-36.5 66t-64.5 32.5t-96.5 9.5q-99 0 -157 -33t-94.5 -116t-59.5 -239l-22 -160q-13 -94 -14 -157.5t9 -106.5t37.5 -66t65 -32.5t96.5 -9.5q99 0 156.5 33t93.5 116t58 239zM511 436q-17 0 -23 10t3 26l254 460q12 22 36 22h53q17 0 23 -10
t-3 -26l-254 -460q-12 -22 -36 -22h-53z" />
    <glyph glyph-name="one" unicode="1" horiz-adv-x="1189" 
d="M744 229h255q32 0 28 -32l-23 -169q-4 -28 -32 -28h-878q-32 0 -28 32l23 169q4 28 32 28h341l132 896q-60 -52 -132.5 -74.5t-177.5 -26.5q-33 0 -30 32l19 190q3 27 30 30q190 14 320 124h254q32 0 27 -32z" />
    <glyph glyph-name="two" unicode="2" horiz-adv-x="1246" 
d="M389 228l649 9q35 0 28 -32l-25 -177q-3 -28 -32 -28h-906q-31 0 -28 32l21 148q13 96 48 176t83.5 136t107 102t120.5 79t124 62.5t118 57t100 57t73 69t36 86.5q11 73 -33.5 114.5t-138.5 41.5q-214 0 -262 -208q-6 -16 -36 -13l-199 27q-14 2 -20.5 15t-3.5 32
q28 192 167.5 297t362.5 105q234 0 346.5 -112.5t80.5 -328.5q-13 -91 -60.5 -165t-114 -123t-144.5 -91t-155 -78.5t-142.5 -75.5t-110.5 -93.5t-54 -120.5z" />
    <glyph glyph-name="three" unicode="3" horiz-adv-x="1317" 
d="M947 731q212 -97 212 -302q0 -142 -81.5 -247t-214 -156.5t-297.5 -51.5q-232 0 -357 115t-96 317q4 24 30 27l207 16q16 1 25.5 -12t8.5 -34q-3 -91 54 -131.5t156 -40.5q117 0 192 62.5t75 165.5q0 144 -273 153q-35 0 -32 32l14 154q3 28 32 28q148 5 234 55.5
t86 148.5q0 65 -51.5 97t-130.5 32q-93 0 -166 -51.5t-97 -152.5q-5 -20 -39 -15l-200 27q-35 5 -28 47q27 192 173 297t369 105q199 0 323 -89.5t124 -246.5q0 -119 -62.5 -203t-189.5 -146z" />
    <glyph glyph-name="four" unicode="4" horiz-adv-x="1341" 
d="M1043 522h125q29 0 28 -32l-23 -169q-3 -28 -32 -28h-129l-37 -265q-3 -28 -32 -28h-222q-31 0 -28 32l37 261h-599q-31 0 -28 32l25 186q4 30 23 51l702 809q23 29 56 29h221q13 0 22.5 -12t7.5 -26zM761 522l65 444l-389 -444h324z" />
    <glyph glyph-name="five" unicode="5" horiz-adv-x="1289" 
d="M721 947q224 0 339.5 -134.5t82.5 -367.5q-32 -224 -183.5 -347.5t-400.5 -123.5q-216 0 -336.5 96.5t-111.5 282.5q0 30 33 30h181q31 0 41 -42q22 -72 72 -99.5t130 -27.5q130 0 209 71t97 193q16 109 -37 169t-175 60q-123 0 -227 -77q-32 -22 -55 -15l-172 59
q-13 4 -19 17t-1 27l218 658q8 24 34 24h683q32 0 26 -32l-28 -177q-1 -28 -32 -28h-498l-91 -265q69 49 221 49z" />
    <glyph glyph-name="six" unicode="6" horiz-adv-x="1308" 
d="M716 881q217 0 331.5 -103t114.5 -279q0 -244 -154 -383.5t-414 -139.5q-241 0 -365.5 122t-94.5 339l68 497q36 258 178.5 370t398.5 112q221 0 330.5 -97t86.5 -266q-4 -21 -32 -21l-175 -7q-36 0 -45 41q-32 101 -187 101q-125 0 -193 -54t-90 -191l-19 -116
q30 35 111 55t150 20zM619 216q133 0 201.5 72.5t68.5 202.5q0 79 -57.5 120t-159.5 41q-131 0 -201.5 -74.5t-70.5 -203.5q0 -158 219 -158z" />
    <glyph glyph-name="seven" unicode="7" horiz-adv-x="1203" 
d="M249 1372q3 28 32 28h892q31 0 28 -32l-27 -194q-4 -28 -16 -48l-697 -1106q-11 -20 -36 -20h-227q-18 0 -23.5 10.5t3.5 25.5l710 1127h-636q-31 0 -28 32z" />
    <glyph glyph-name="eight" unicode="8" horiz-adv-x="1335" 
d="M1019 771q164 -93 164 -287q0 -240 -156.5 -374t-420.5 -134q-237 0 -355 102t-118 282q0 152 64 256.5t198 171.5q-103 69 -103 213q0 199 132.5 307t358.5 108q209 0 311.5 -85t102.5 -231q0 -224 -178 -329zM544 990q0 -58 45 -88t123 -30q110 0 168 50t58 149
q0 58 -45 88t-122 30q-110 0 -168.5 -52.5t-58.5 -146.5zM625 216q138 0 213.5 70.5t75.5 193.5q0 89 -55.5 127.5t-169.5 38.5q-141 0 -212.5 -70.5t-71.5 -195.5q0 -88 54.5 -126t165.5 -38z" />
    <glyph glyph-name="nine" unicode="9" horiz-adv-x="1318" 
d="M659 509q-217 0 -331.5 103t-114.5 279q0 244 154 383.5t414 139.5q241 0 365.5 -122t94.5 -339l-68 -497q-36 -258 -178.5 -370t-398.5 -112q-221 0 -330.5 97t-86.5 266q4 21 32 21l175 7q36 0 45 -41q32 -101 187 -101q125 0 193 54t90 191l19 116q-30 -35 -111 -55
t-150 -20zM756 1174q-133 0 -201.5 -72.5t-68.5 -202.5q0 -79 57.5 -120t159.5 -41q131 0 201.5 74.5t70.5 203.5q0 158 -219 158z" />
    <glyph glyph-name="colon" unicode=":" horiz-adv-x="742" 
d="M415 603q-82 0 -140.5 58t-58.5 140q0 83 58 141t141 58t141 -58t58 -141q0 -82 -58.5 -140t-140.5 -58zM327 -26q-83 0 -141 58t-58 141q0 82 58.5 140t140.5 58t140.5 -58t58.5 -140q0 -83 -58 -141t-141 -58z" />
    <glyph glyph-name="semicolon" unicode=";" horiz-adv-x="821" 
d="M472 603q-82 0 -140.5 58.5t-58.5 140.5t58.5 140t140.5 58t140.5 -58t58.5 -140t-58.5 -140.5t-140.5 -58.5zM109 0q-33 0 -28 32l24 171q4 28 32 28h490q33 0 28 -32l-15 -104q-38 -283 -135 -461q-21 -38 -68 -38h-108q-18 0 -27 13.5t-2 33.5q26 72 48.5 176.5
t30.5 180.5h-270z" />
    <glyph glyph-name="less" unicode="&#x3c;" horiz-adv-x="1117" 
d="M969 741q11 -30 -12 -40l-497 -203l429 -209q12 -7 17 -19t-1 -25l-87 -143q-5 -7 -11.5 -8.5t-10.5 0t-14 6.5l-592 290q-11 5 -17 16.5t-5 23.5l20 153q3 23 20 29l674 290q12 6 22.5 -2.5t15.5 -22.5z" />
    <glyph glyph-name="equal" unicode="=" horiz-adv-x="1239" 
d="M1086 879q34 0 28 -32l-21 -147q-3 -28 -32 -28h-828q-31 0 -28 32l21 147q3 28 32 28h828zM1029 469q34 0 28 -32l-21 -148q-3 -28 -32 -28h-828q-31 0 -28 32l21 148q3 28 32 28h828z" />
    <glyph glyph-name="greater" unicode="&#x3e;" horiz-adv-x="1118" 
d="M214 754l87 138q5 7 12 8.5t10.5 0t15.5 -6.5l592 -288q10 -5 17 -17t6 -23l-23 -153q-3 -22 -20 -29l-674 -290q-12 -6 -22.5 2t-14.5 23l-48 138q-10 29 10 38l499 203l-428 209q-13 6 -19.5 20t0.5 27z" />
    <glyph glyph-name="question" unicode="?" horiz-adv-x="1315" 
d="M523 465q-32 0 -27 34q16 89 48 153.5t70.5 99.5t81.5 58.5t84 39t75.5 32.5t58.5 47t31 76q10 73 -34.5 114.5t-139.5 41.5q-99 0 -169 -49.5t-95 -154.5q-5 -21 -42 -17l-192 25q-14 2 -21 14.5t-3 30.5q27 196 164.5 301t364.5 105q232 0 347 -113t83 -328
q-10 -71 -36.5 -123.5t-61 -83t-75 -53t-80.5 -41t-75 -39.5t-62.5 -56.5t-38.5 -85.5q-6 -28 -32 -28h-224zM613 -26q-82 0 -140 58.5t-58 140.5t58 140t140 58t140.5 -58t58.5 -140q0 -83 -58 -141t-141 -58z" />
    <glyph glyph-name="at" unicode="@" horiz-adv-x="1328" 
d="M741 1058q205 0 336 -122.5t131 -333.5q0 -102 -31 -188t-95 -141t-149 -55q-101 0 -135 59q-65 -59 -156 -59q-111 0 -175.5 65t-64.5 177q0 140 86.5 231.5t207.5 91.5q100 0 155 -64l32 32h79l-71 -313q-9 -40 -2.5 -56t33.5 -16q37 0 64.5 43t39 98t11.5 108
q0 136 -79 206.5t-214 70.5q-201 0 -322 -128.5t-121 -318.5q0 -158 93.5 -241t233.5 -83q77 0 159 37l118 -108q-111 -96 -292 -96q-101 0 -188.5 32t-154.5 93t-105.5 158t-38.5 219q0 125 46 236t126 191.5t195 127.5t248 47zM639 363q63 0 100 51t37 122q0 100 -81 100
q-70 0 -107 -50.5t-37 -123.5q0 -99 88 -99z" />
    <glyph glyph-name="A" unicode="A" horiz-adv-x="1431" 
d="M1274 34q6 -34 -26 -34h-230q-26 0 -35 32l-43 223h-507l-108 -228q-13 -27 -38 -27h-242q-17 0 -25 13.5t-1 28.5l671 1334q13 24 43 24h210q13 0 23 -9t13 -23zM550 503h342l-99 516z" />
    <glyph glyph-name="B" unicode="B" horiz-adv-x="1287" 
d="M941 745q115 -23 177 -99t62 -193q0 -238 -145.5 -345.5t-417.5 -107.5h-489q-32 0 -27 32l188 1340q4 28 32 28h501q189 0 282.5 -86t93.5 -225q0 -130 -66.5 -220t-190.5 -124zM549 1142l-40 -289h207q101 0 152.5 48.5t51.5 137.5q0 60 -33.5 81.5t-115.5 21.5h-222z
M650 258q117 0 180.5 57.5t63.5 159.5q0 74 -43 105.5t-140 31.5h-236l-50 -354h225z" />
    <glyph glyph-name="C" unicode="C" horiz-adv-x="1489" 
d="M1190 363l118 -148q27 -35 -4 -61q-103 -83 -234 -131.5t-269 -48.5q-136 0 -255 48.5t-203 132t-132 200.5t-48 250q0 159 67 309t177.5 259.5t260.5 176t310 66.5q148 0 267.5 -56.5t196.5 -154.5q25 -31 1 -51l-142 -129q-22 -22 -51 4q-126 101 -287 101
q-133 0 -248.5 -71.5t-183 -191t-67.5 -254.5q0 -154 97.5 -253.5t252.5 -99.5q179 0 319 107q15 12 30.5 11t26.5 -15z" />
    <glyph glyph-name="D" unicode="D" horiz-adv-x="1456" 
d="M722 1400q158 0 282.5 -45.5t204 -126t121 -188.5t41.5 -237q0 -233 -106 -416.5t-295.5 -285t-430.5 -101.5h-407q-13 0 -22.5 12t-7.5 26l188 1340q1 13 6.5 17.5t19.5 4.5h406zM562 258q243 0 379.5 153t136.5 400q0 162 -94.5 246.5t-284.5 84.5h-150l-123 -884h136z
" />
    <glyph glyph-name="E" unicode="E" horiz-adv-x="1243" 
d="M1022 258q31 0 28 -32l-27 -198q-3 -28 -32 -28h-862q-31 0 -28 32l188 1340q3 28 32 28h860q31 0 28 -32l-27 -198q-3 -28 -32 -28h-600l-42 -295h546q31 0 28 -32l-30 -198q-3 -28 -32 -28h-550l-45 -331h597z" />
    <glyph glyph-name="F" unicode="F" horiz-adv-x="1260" 
d="M1201 1400q32 0 27 -32l-27 -198q-4 -28 -32 -28h-620l-44 -315h569q32 0 27 -32l-27 -198q-4 -28 -32 -28h-574l-76 -541q-4 -28 -32 -28h-232q-32 0 -27 32l188 1340q4 28 32 28h880z" />
    <glyph glyph-name="G" unicode="G" horiz-adv-x="1643" 
d="M1497 790q19 0 29.5 -13t7.5 -33l-15 -96q-47 -308 -236.5 -491t-478.5 -183q-184 0 -330.5 83t-228 228.5t-81.5 325.5q0 162 67.5 311.5t178.5 257t260 172t307 64.5q148 0 267.5 -56.5t196.5 -154.5q25 -31 1 -51l-143 -129q-20 -22 -50 4q-126 101 -291 101
q-132 0 -246.5 -71t-181.5 -189.5t-67 -252.5q0 -157 98.5 -257t259.5 -100q162 0 269 84t130 205h-332q-14 0 -22.5 9.5t-7.5 22.5l25 181q3 28 30 28h584z" />
    <glyph glyph-name="H" unicode="H" horiz-adv-x="1489" 
d="M1420 1400q32 0 27 -32l-188 -1340q-4 -28 -32 -28h-232q-32 0 -27 32l77 546h-576l-77 -550q-4 -28 -32 -28h-232q-32 0 -27 32l188 1340q4 28 32 28h232q32 0 27 -32l-75 -532h576l75 536q4 28 32 28h232z" />
    <glyph glyph-name="I" unicode="I" horiz-adv-x="1322" 
d="M1262 1170q-4 -28 -32 -28h-331l-124 -884h327q32 0 27 -32l-27 -198q-4 -28 -32 -28h-952q-32 0 -27 32l27 198q4 28 32 28h332l124 884h-328q-32 0 -26 32l27 198q4 28 32 28h952q32 0 27 -32z" />
    <glyph glyph-name="J" unicode="J" horiz-adv-x="1357" 
d="M1281 1400q34 0 29 -32l-116 -818q-82 -580 -579 -580q-243 0 -363.5 133.5t-88.5 404.5q3 29 32 29h220q31 0 28 -33q-13 -145 35 -208t150 -63q108 0 180 82t96 252l81 575h-524q-32 0 -27 32l27 198q4 28 32 28h788z" />
    <glyph glyph-name="K" unicode="K" horiz-adv-x="1335" 
d="M1320 1400q20 0 24.5 -11.5t-9.5 -25.5l-565 -571l409 -756q8 -16 2 -26t-23 -10h-256q-24 0 -36 21l-305 560l-107 -108l-62 -445q-4 -28 -32 -28h-232q-32 0 -27 32l188 1340q4 28 32 28h232q32 0 27 -32l-70 -500l495 516q15 16 37 16h278z" />
    <glyph glyph-name="L" unicode="L" horiz-adv-x="1162" 
d="M425 258h606q32 0 28 -32l-27 -198q-4 -28 -32 -28h-871q-31 0 -28 32l188 1340q3 28 32 28h232q31 0 28 -32z" />
    <glyph glyph-name="M" unicode="M" horiz-adv-x="1800" 
d="M1727 1400q15 0 24 -11t6 -27l-188 -1340q-2 -22 -28 -22h-232q-13 0 -23 12t-8 26l104 733l-407 -755q-8 -16 -34 -16h-210q-11 0 -21 10t-13 23l-198 756l-108 -767q-1 -13 -7 -17.5t-20 -4.5h-233q-13 0 -22.5 12t-7.5 26l188 1329q3 33 32 33h256q29 0 38 -39
l259 -1024l548 1039q15 24 43 24h262z" />
    <glyph glyph-name="N" unicode="N" horiz-adv-x="1469" 
d="M1393 1400q13 0 24 -12t9 -26l-188 -1340q-2 -22 -28 -22h-264q-23 0 -34 26l-390 916l-129 -920q-2 -22 -28 -22h-233q-13 0 -22.5 12t-7.5 26l186 1329q4 33 32 33h260q23 0 34 -26l392 -918l127 911q6 33 35 33h225z" />
    <glyph glyph-name="O" unicode="O" horiz-adv-x="1727" 
d="M800 -26q-148 0 -275.5 58t-212 156.5t-123.5 235.5t-18 287q28 193 146 355.5t293.5 256t366.5 93.5q149 0 276.5 -58t212.5 -156.5t124 -236t18 -288.5q-28 -192 -146 -354t-294 -255.5t-368 -93.5zM823 256q121 0 230 60.5t180 165t86 229.5q22 179 -83.5 301
t-280.5 122q-121 0 -229.5 -60.5t-179.5 -165.5t-86 -231q-22 -178 83.5 -299.5t279.5 -121.5z" />
    <glyph glyph-name="P" unicode="P" horiz-adv-x="1364" 
d="M811 1400q270 0 387.5 -90t117.5 -275q0 -303 -152 -434t-472 -131h-237l-63 -442q-4 -28 -32 -28h-232q-32 0 -27 32l188 1340q4 28 32 28h490zM737 728q148 0 223 64.5t75 205.5q0 85 -54 114.5t-173 29.5h-259l-58 -414h246z" />
    <glyph glyph-name="Q" unicode="Q" horiz-adv-x="1727" 
d="M800 -26q-148 0 -275.5 58t-212 156.5t-123.5 235.5t-18 287q28 193 146 355.5t293.5 256t366.5 93.5q149 0 276.5 -58t212.5 -156.5t124 -236t18 -288.5q-28 -192 -146 -354t-294 -255.5t-368 -93.5zM823 256q121 0 230 60.5t180 165t86 229.5q22 179 -83.5 301
t-280.5 122q-121 0 -229.5 -60.5t-179.5 -165.5t-86 -231q-22 -178 83.5 -299.5t279.5 -121.5zM1130 -160q32 0 32 -28v-167q0 -32 -30 -32q-59 -2 -109.5 6.5t-88.5 23l-76 29t-88.5 23.5t-108.5 7q-32 0 -32 28v167q0 32 32 32q71 0 133 -14t101.5 -30.5t101.5 -30.5
t133 -14z" />
    <glyph glyph-name="R" unicode="R" horiz-adv-x="1404" 
d="M1003 512l182 -482q12 -30 -23 -30h-218q-25 0 -37 30l-167 441q-16 -1 -48 -1h-237l-63 -442q-4 -28 -32 -28h-232q-32 0 -27 32l188 1340q4 28 32 28h490q270 0 387.5 -90t117.5 -275q0 -217 -77.5 -344t-235.5 -179zM549 1142l-58 -414h246q148 0 223 64.5t75 205.5
q0 85 -54 114.5t-173 29.5h-259z" />
    <glyph glyph-name="S" unicode="S" horiz-adv-x="1293" 
d="M664 830q61 -14 105 -25.5t99 -30.5t93 -39.5t77 -50.5t62.5 -65t38.5 -82t15 -103q0 -117 -40.5 -205.5t-117 -144t-182 -83t-238.5 -27.5q-249 0 -368.5 90t-103.5 274q3 32 32 32h206q28 0 31 -39q5 -42 62 -69t156 -27q145 0 211 45.5t66 139.5q0 68 -45 102t-170 63
q-78 18 -137 37t-119.5 51t-98.5 71t-62.5 97.5t-24.5 130.5q0 216 139.5 330t382.5 114q237 0 355.5 -86t112.5 -265q-3 -37 -48 -37h-171q-40 0 -50 39q-30 88 -203 88q-238 0 -238 -170q0 -62 34.5 -96.5t138.5 -58.5z" />
    <glyph glyph-name="T" unicode="T" horiz-adv-x="1342" 
d="M1313 1400q32 0 27 -32l-27 -198q-4 -28 -32 -28h-377l-157 -1114q-4 -28 -32 -28h-232q-32 0 -27 32l155 1110h-373q-31 0 -26 32l27 198q4 28 32 28h1042z" />
    <glyph glyph-name="U" unicode="U" horiz-adv-x="1506" 
d="M1431 1400q33 0 28 -32l-114 -809q-21 -150 -78.5 -263.5t-144.5 -184t-196 -105.5t-239 -35q-274 0 -415 154.5t-100 450.5l112 796q4 28 32 28h232q34 0 29 -32l-115 -809q-21 -148 42.5 -228t196.5 -80q144 0 238 87t116 238l112 796q4 28 32 28h232z" />
    <glyph glyph-name="V" unicode="V" horiz-adv-x="1431" 
d="M1164 1378q10 22 35 22h239q19 0 27.5 -14t-0.5 -33l-671 -1331q-11 -22 -40 -22h-209q-29 0 -36 32l-297 1342q-6 26 22 26h239q25 0 32 -32l190 -987z" />
    <glyph glyph-name="W" unicode="W" horiz-adv-x="2079" 
d="M1411 386l374 990q8 24 34 24h243q17 0 23.5 -9.5t0.5 -25.5l-544 -1342q-9 -23 -34 -23h-256q-28 0 -32 28l-136 883l-390 -888q-11 -23 -35 -23h-254q-28 0 -31 28l-164 1340q-3 32 28 32h240q29 0 32 -29l87 -985l405 991q9 23 35 23h220q29 0 32 -28z" />
    <glyph glyph-name="X" unicode="X" horiz-adv-x="1349" 
d="M1325 1400q18 0 26.5 -13.5t-1.5 -28.5l-485 -652l311 -674q5 -14 -1.5 -23t-21.5 -9h-238q-22 0 -34 24l-201 434l-327 -440q-15 -18 -40 -18h-245q-18 0 -25 13.5t3 28.5l510 686l-294 636q-7 16 -2 26t22 10h235q26 0 40 -28l183 -396l300 404q15 20 38 20h247z" />
    <glyph glyph-name="Y" unicode="Y" horiz-adv-x="1477" 
d="M1492 1400q19 0 24 -11t-6 -26l-626 -826l-71 -509q-4 -28 -32 -28h-232q-32 0 -27 32l72 517l-390 816q-7 16 -1 25.5t23 9.5h260q25 0 35 -22l255 -545l415 549q13 18 37 18h264z" />
    <glyph glyph-name="Z" unicode="Z" horiz-adv-x="1293" 
d="M889 1142h-589q-31 0 -28 32l27 198q3 28 32 28h882q31 0 28 -32l-31 -215q-4 -26 -16 -38l-753 -857h632q29 0 28 -32l-28 -198q-3 -28 -32 -28h-922q-31 0 -28 32l29 215q4 26 16 38z" />
    <glyph glyph-name="bracketleft" unicode="[" horiz-adv-x="1022" 
d="M282 1462q3 28 32 28h670q31 0 28 -32l-23 -169q-3 -28 -32 -28h-410l-181 -1292h405q31 0 28 -32l-25 -169q-3 -28 -32 -28h-670q-34 0 -28 32z" />
    <glyph glyph-name="backslash" unicode="\" horiz-adv-x="1246" 
d="M274 1400h239q23 0 32 -33l472 -1595q9 -32 -29 -32h-228q-27 0 -39 32l-469 1596q-9 32 22 32z" />
    <glyph glyph-name="bracketright" unicode="]" horiz-adv-x="997" 
d="M960 1490q31 0 28 -32l-238 -1690q-3 -28 -32 -28h-646q-31 0 -28 32l25 169q3 28 32 28h386l181 1292h-381q-34 0 -28 32l23 169q3 28 32 28h646z" />
    <glyph glyph-name="asciicircum" unicode="^" horiz-adv-x="1262" 
d="M883 474q-13 -6 -24 2.5t-16 23.5l-141 456l-276 -470q-4 -7 -7 -10t-9 -1.5l-8 2t-12 5.5l-132 66q-13 6 -18 19.5t2 25.5l380 629q9 16 31 16h153q11 0 21 -9.5t13 -20.5l201 -630q11 -29 -7 -38z" />
    <glyph glyph-name="underscore" unicode="_" horiz-adv-x="1290" 
d="M1044 0q15 0 22.5 -8.5t5.5 -23.5l-25 -169q-4 -28 -32 -28h-938q-31 0 -28 32l25 169q3 28 32 28h938z" />
    <glyph glyph-name="grave" unicode="`" horiz-adv-x="629" 
d="M598 1184q10 -34 -24 -34h-196q-26 0 -34 24l-84 252q-10 34 24 34h194q26 0 34 -24z" />
    <glyph glyph-name="a" unicode="a" horiz-adv-x="1323" 
d="M1186 948l-96 -666q-11 -76 39 -79q33 -2 28 -41l-17 -106q-5 -31 -43 -50.5t-95 -19.5q-63 0 -99 40.5t-42 107.5h-14q-37 -66 -114 -113t-184 -47q-88 0 -164.5 30t-135 87t-92 146t-33.5 200q0 162 69.5 292.5t185.5 201.5t253 71q98 0 169.5 -39.5t100.5 -100.5h17
l28 94q7 24 34 24h177q15 0 22.5 -8.5t5.5 -23.5zM609 235q113 0 182.5 84t69.5 195q0 114 -61 170.5t-153 56.5q-106 0 -178.5 -75.5t-72.5 -208.5q0 -111 60 -166.5t153 -55.5z" />
    <glyph glyph-name="b" unicode="b" horiz-adv-x="1289" 
d="M799 1002q166 0 265 -121t99 -308q0 -159 -61.5 -295t-178.5 -220t-266 -84q-182 0 -285 130l-11 -76q-3 -28 -32 -28h-220q-34 0 -28 32l192 1340q3 28 32 28h220q31 0 28 -32l-71 -499h26q113 133 291 133zM619 231q126 0 200 92t74 220q0 97 -50.5 149.5t-137.5 52.5
t-151 -48t-93 -117t-29 -146q0 -98 49.5 -150.5t137.5 -52.5z" />
    <glyph glyph-name="c" unicode="c" horiz-adv-x="1193" 
d="M1042 267q26 -17 10 -42q-75 -117 -195.5 -184t-267.5 -67q-202 0 -333.5 134.5t-131.5 336.5q0 114 45 218t120.5 178t177.5 117.5t212 43.5q142 0 253 -68.5t167 -185.5q11 -28 -15 -40l-186 -90q-25 -12 -40 13q-31 51 -82 80.5t-115 29.5q-112 0 -188.5 -81.5
t-76.5 -203.5q0 -98 60 -159.5t153 -61.5q146 0 232 119q17 24 41 9z" />
    <glyph glyph-name="d" unicode="d" horiz-adv-x="1307" 
d="M1230 1368l-156 -1086q-7 -45 6 -62t33 -17q33 -2 28 -41l-17 -106q-5 -31 -43 -50.5t-95 -19.5q-65 0 -100 42t-41 112h-23q-29 -73 -100 -119.5t-175 -46.5q-185 0 -304.5 120t-119.5 332q0 166 72.5 299t191 205t256.5 72q94 0 156.5 -36.5t86.5 -103.5h11l3 156
l50 354q3 28 32 28h220q31 0 28 -32zM597 235q75 0 133 42.5t86.5 107.5t28.5 140q0 109 -53.5 162.5t-143.5 53.5q-106 0 -181 -77t-75 -212q0 -106 62 -161.5t143 -55.5z" />
    <glyph glyph-name="e" unicode="e" 
d="M1155 618q0 -53 -13 -92.5t-47 -73.5t-100 -52t-163 -18h-451q2 -87 73 -134t195 -47q143 0 245 64q30 18 53 -9l80 -95q26 -31 -3 -54q-155 -133 -409 -133q-227 0 -360.5 126t-133.5 322q0 157 78.5 290.5t214.5 211.5t299 78q207 0 324.5 -109.5t117.5 -274.5z
M415 573h321q103 0 137 12t33 51q-2 53 -58 90.5t-146 37.5q-102 0 -178 -49.5t-109 -141.5z" />
    <glyph glyph-name="f" unicode="f" horiz-adv-x="1274" 
d="M1046 1472q105 0 200.5 -21t90.5 -54l-25 -162q-2 -15 -11.5 -22.5t-22.5 -3.5q-96 27 -185 27q-281 0 -310 -213l-6 -43h386q15 0 22.5 -8.5t5.5 -23.5l-25 -169q-4 -28 -32 -28h-389l-103 -728q-56 -413 -470 -413q-65 0 -126 14.5t-103.5 36t-72.5 46.5t-40.5 47
t-0.5 36l84 114q19 27 47 5q90 -63 179 -63q38 0 73.5 12t68 38t56 73t32.5 110l93 672h-230q-31 0 -28 32l25 169q3 28 32 28h233l14 99q16 111 68.5 191t130 122.5t160.5 61t179 18.5z" />
    <glyph glyph-name="g" unicode="g" horiz-adv-x="1259" 
d="M1135 980q31 0 28 -32l-132 -928q-14 -96 -49 -170t-82 -119.5t-108.5 -74.5t-123 -40.5t-131.5 -11.5q-115 0 -219.5 37.5t-170.5 97.5q-25 23 -13 42l93 134q15 24 42 7q136 -85 284 -85q96 0 152 43t71 140l13 84q-22 -58 -86 -94t-156 -36q-185 0 -304.5 120
t-119.5 332q0 124 42 233t112.5 183.5t163 117t191.5 42.5q95 0 163.5 -36.5t97.5 -103.5h14l17 94q4 24 34 24h177zM597 235q75 0 133 42.5t86.5 107.5t28.5 140q0 109 -53.5 162.5t-143.5 53.5q-106 0 -181 -77t-75 -212q0 -106 62 -161.5t143 -55.5z" />
    <glyph glyph-name="h" unicode="h" horiz-adv-x="1278" 
d="M1084 203q33 -2 28 -41l-17 -106q-5 -31 -43 -50.5t-95 -19.5q-111 0 -163.5 63t-39.5 157l46 332q15 109 -31.5 156t-120.5 47q-73 0 -123.5 -33t-77.5 -81l-86 -599q-3 -28 -32 -28h-220q-34 0 -28 32l192 1340q3 28 32 28h220q31 0 28 -32l-78 -542h9q33 80 109.5 128
t182.5 48q79 0 143.5 -29.5t108 -83t61 -135t2.5 -179.5l-46 -293q-7 -45 6 -62t33 -17z" />
    <glyph glyph-name="i" unicode="i" horiz-adv-x="1232" 
d="M662 1159q-64 0 -108.5 44.5t-44.5 108.5t44.5 108.5t108.5 44.5t108.5 -44.5t44.5 -108.5t-44.5 -108.5t-108.5 -44.5zM1103 157q10 -23 -6 -42q-44 -50 -134.5 -92.5t-199.5 -42.5q-56 0 -106.5 9t-98.5 30t-83 54.5t-60.5 81.5t-30.5 112.5t7 146.5l58 337h-305
q-15 0 -22.5 8.5t-5.5 23.5l25 169q4 28 32 28h557q32 0 27 -32l-81 -511q-8 -65 -2 -107t29 -66.5t48.5 -34t56.5 -9.5q91 0 180 75q12 13 31.5 10.5t27.5 -22.5z" />
    <glyph glyph-name="j" unicode="j" horiz-adv-x="1027" 
d="M828 1159q-64 0 -108.5 44.5t-44.5 108.5t44.5 108.5t108.5 44.5t108.5 -44.5t44.5 -108.5t-44.5 -108.5t-108.5 -44.5zM895 980q13 0 23.5 -12t8.5 -26l-128 -909q-13 -96 -47 -170t-79.5 -119.5t-105 -74.5t-119.5 -40.5t-128 -11.5q-64 0 -126 14t-106 35.5t-76.5 46
t-44.5 46.5t-3 36l90 132q23 30 57 4q82 -65 201 -65q78 0 136 51t76 172l94 662h-402q-34 0 -28 32l23 169q3 28 32 28h652z" />
    <glyph glyph-name="k" unicode="k" horiz-adv-x="1216" 
d="M1121 979q20 0 29 -15t-4 -27l-424 -377l344 -531q9 -15 7 -22.5t-19 -7.5h-246q-17 0 -34 25l-236 371l-142 -126l-35 -241q-3 -28 -32 -28h-220q-34 0 -28 32l192 1340q3 28 32 28h220q31 0 28 -32l-107 -749l381 351q3 3 6 5.5t7 3t6 0.5h7h7h261z" />
    <glyph glyph-name="l" unicode="l" horiz-adv-x="1255" 
d="M1135 159q12 -25 -7 -45q-48 -51 -146 -92.5t-225 -41.5q-67 0 -126 13.5t-113.5 44.5t-87.5 81t-49 123t2 172l122 757h-321q-32 0 -28 32l23 169q4 28 32 28h571q15 0 22.5 -8.5t5.5 -23.5l-143 -932q-19 -118 29 -167t128 -49q101 0 201 80q13 11 28 6t23 -23z" />
    <glyph glyph-name="m" unicode="m" horiz-adv-x="1517" 
d="M1283 282q-10 -77 40 -79q33 -2 28 -41l-17 -106q-5 -31 -43.5 -50.5t-96.5 -19.5q-110 0 -152.5 61t-27.5 159l63 441q9 68 -7.5 91.5t-59.5 23.5q-53 0 -85.5 -28.5t-44.5 -66.5l-90 -639q-4 -28 -32 -28h-195q-33 0 -28 32l87 615q9 68 -7.5 91.5t-60.5 23.5
q-52 0 -84.5 -28.5t-44.5 -66.5l-90 -639q-4 -28 -32 -28h-200q-32 0 -27 32l129 920q4 28 32 28h192q31 0 28 -32l-7 -60h20q66 114 219 114q69 0 121 -29.5t70 -84.5h19q73 114 215 114q128 0 187.5 -91t32.5 -281z" />
    <glyph glyph-name="n" unicode="n" horiz-adv-x="1284" 
d="M1090 203q33 -2 28 -41l-17 -106q-5 -31 -43 -50.5t-95 -19.5q-111 0 -163.5 63t-39.5 157l46 332q15 109 -31.5 156t-120.5 47q-87 0 -142 -45t-75 -103l-81 -565q-3 -28 -32 -28h-220q-34 0 -28 32l132 920q3 28 32 28h208q13 0 22.5 -12t7.5 -26l-8 -116h20
q33 80 109.5 128t182.5 48q79 0 143.5 -29.5t108 -83t61 -135t2.5 -179.5l-46 -293q-7 -45 6 -62t33 -17zM428 552l4 27q-4 -15 -4 -27z" />
    <glyph glyph-name="o" unicode="o" 
d="M589 -26q-202 0 -333.5 134.5t-131.5 336.5q0 114 45 218t120.5 178t177.5 117.5t212 43.5q202 0 334.5 -133t132.5 -334q0 -150 -73.5 -279t-202.5 -205.5t-281 -76.5zM609 235q111 0 187 77.5t76 207.5q0 98 -59 159.5t-152 61.5q-112 0 -188.5 -81.5t-76.5 -203.5
q0 -98 60 -159.5t153 -61.5z" />
    <glyph glyph-name="p" unicode="p" horiz-adv-x="1284" 
d="M794 1002q166 0 265 -121t99 -308q0 -159 -61.5 -295t-178.5 -220t-266 -84q-181 0 -286 125l-64 -451q-4 -28 -32 -28h-220q-32 0 -28 32l186 1300q4 28 32 28h208q13 0 22 -12t8 -26l-5 -73h24q113 133 297 133zM614 231q126 0 200 92t74 220q0 97 -50.5 149.5
t-137.5 52.5q-89 0 -154.5 -48t-95 -117t-29.5 -146q0 -98 50.5 -150.5t142.5 -52.5z" />
    <glyph glyph-name="q" unicode="q" horiz-adv-x="1290" 
d="M1162 980q13 0 23.5 -12t8.5 -26l-184 -1300q-1 -13 -6.5 -17.5t-19.5 -4.5h-222q-14 0 -23.5 12.5t-6.5 25.5l57 423q-83 -107 -242 -107q-185 0 -304.5 120t-119.5 332q0 166 72.5 299t191 205t256.5 72q94 0 156.5 -36.5t86.5 -103.5h15l13 96q1 13 6.5 17.5t19.5 4.5
h222zM597 235q75 0 133 42.5t86.5 107.5t28.5 140q0 109 -53.5 162.5t-143.5 53.5q-106 0 -181 -77t-75 -212q0 -106 62 -161.5t143 -55.5z" />
    <glyph glyph-name="r" unicode="r" horiz-adv-x="1192" 
d="M804 1002q170 0 257 -114t57 -313q-4 -33 -43 -37l-204 -26q-19 -2 -28.5 6.5t-6.5 28.5q18 105 -27.5 149t-122.5 44q-48 0 -89 -13.5t-67.5 -32.5t-47.5 -45.5t-31.5 -47t-18.5 -42.5l-76 -531q-4 -28 -32 -28h-220q-32 0 -28 32l132 920q4 28 32 28h208q13 0 22 -12
t8 -26l-8 -116v-2h21q81 178 313 178z" />
    <glyph glyph-name="s" unicode="s" horiz-adv-x="1187" 
d="M616 585q50 -6 82 -10.5t82 -15t83 -22.5t71.5 -33.5t61 -48t38 -65t15.5 -84.5q0 -154 -131.5 -244t-369.5 -90q-109 0 -192.5 18t-146 56t-93 103t-26.5 154q2 31 28 31h206q26 0 28 -30q7 -103 204 -103q97 0 157 26t60 78q0 29 -25 47t-55 25t-80 15l-21 3
q-15 2 -46 7q-35 5 -53.5 8t-53.5 9t-55 12t-50.5 15.5t-49 20.5t-41.5 26t-37 33.5t-27 41t-18.5 50.5t-5.5 60q0 144 122.5 234t350.5 90q209 0 321.5 -79t109.5 -247q0 -31 -32 -31h-191q-35 0 -38 30q-10 98 -177 98q-88 0 -139 -26.5t-51 -73.5q0 -42 42.5 -59
t142.5 -29z" />
    <glyph glyph-name="t" unicode="t" horiz-adv-x="1214" 
d="M1090 980q15 0 22.5 -8.5t5.5 -23.5l-26 -169q-4 -28 -32 -28h-384l-47 -314q-7 -65 -0.5 -107t31.5 -66.5t52.5 -34t63.5 -9.5q94 0 185 76q13 11 33 7t27 -22l54 -123q10 -24 -6 -44q-42 -49 -137.5 -91.5t-208.5 -42.5q-70 0 -129.5 13.5t-114 44.5t-87.5 81t-49 123
t1 172l50 337h-250q-15 0 -22.5 8.5t-5.5 23.5l25 169q4 28 32 28h256l39 262q6 28 33 28h221q15 0 22.5 -8.5t5.5 -23.5l-39 -258h379z" />
    <glyph glyph-name="u" unicode="u" horiz-adv-x="1249" 
d="M1112 948l-96 -666q-7 -45 6 -62t33 -17q33 -2 28 -41l-17 -106q-5 -31 -43 -50.5t-95 -19.5q-97 0 -139 49t-39 130h-19q-34 -83 -110.5 -133.5t-184.5 -50.5q-160 0 -250 117.5t-62 314.5l76 539q3 28 32 28h220q34 0 28 -32l-69 -498q-15 -109 30 -158.5t114 -49.5
q117 0 195 138l82 576q3 24 34 24h218q31 0 28 -32z" />
    <glyph glyph-name="v" unicode="v" horiz-adv-x="1238" 
d="M898 954q4 26 31 26h247q15 0 22.5 -9t3.5 -25q-19 -91 -49 -183t-74.5 -188.5t-98 -183t-123.5 -163.5t-148 -133t-173.5 -88.5t-198.5 -32.5h-53q-87 0 -127 53.5t-29 133.5l84 590h-68q-34 0 -28 32l25 169q4 28 32 28h319q13 0 22.5 -12t7.5 -26l-103 -707
q102 0 205 111t175 275t99 333z" />
    <glyph glyph-name="w" unicode="w" horiz-adv-x="1427" 
d="M1292 980q30 0 30 -30q0 -147 -15 -283t-50 -263.5t-87.5 -222t-132 -151t-178.5 -56.5q-151 0 -212 121q-88 -122 -247 -122q-152 0 -220 98t-45 249l63 431h-54q-34 0 -28 32l25 169q4 28 32 28h291q13 0 22.5 -12t7.5 -26l-89 -603q-14 -100 69 -100q79 0 95 101
l90 612q3 28 32 28h181q31 0 28 -32l-83 -614q-14 -95 52 -95q58 0 101.5 107t64 266t19.5 338q0 30 30 30h208z" />
    <glyph glyph-name="x" unicode="x" horiz-adv-x="1305" 
d="M1122 36q10 -16 4 -26t-24 -10h-248q-25 0 -36 20l-187 292l-272 -296q-13 -16 -36 -16h-255q-19 0 -23.5 11t9.5 25l444 473l-283 435q-10 16 -4 26t24 10h246q25 0 36 -20l160 -255l242 259q13 16 36 16h253q19 0 23.5 -11t-9.5 -25l-410 -435z" />
    <glyph glyph-name="y" unicode="y" horiz-adv-x="1240" 
d="M1116 980q31 0 28 -32l-126 -868q-68 -470 -538 -470q-207 0 -319.5 75.5t-116.5 226.5q0 30 30 30h202q23 0 33 -25q17 -44 61.5 -60t112.5 -16q114 0 175.5 56t79.5 183l16 109q-76 -163 -288 -163q-165 0 -253 107.5t-58 309.5l76 509q3 28 32 28h220q31 0 28 -32
l-67 -468q-27 -193 131 -193q131 0 213 142l76 527q3 24 34 24h218z" />
    <glyph glyph-name="z" unicode="z" horiz-adv-x="1182" 
d="M1092 942l-25 -178q-3 -24 -14 -35l-605 -500h530q34 0 28 -32l-24 -169q-3 -28 -32 -28h-837q-13 0 -24 12t-9 26l26 178q4 26 13 35l605 500h-529q-34 0 -28 32l23 169q3 28 32 28h838q13 0 23.5 -12t8.5 -26z" />
    <glyph glyph-name="braceleft" unicode="{" horiz-adv-x="1140" 
d="M705 868q-3 -23 -12 -33l-247 -221l172 -233q15 -18 12 -38l-44 -319q-4 -31 9 -43t46 -12h249q31 0 28 -32l-26 -169q-3 -28 -32 -28h-401q-36 0 -68.5 11t-61 34t-41.5 66t-5 100l53 389q1 4 3.5 13.5t2 12t-3.5 10.5l-169 214q-15 22 2 42l225 232q16 16 20 41l55 391
q8 57 31.5 97.5t56.5 60t65.5 28t68.5 8.5h409q34 0 28 -32l-23 -169q-3 -28 -32 -28h-240q-32 0 -57 -20.5t-29 -51.5z" />
    <glyph glyph-name="bar" unicode="|" horiz-adv-x="622" 
d="M317 1572q3 28 32 28h232q31 0 28 -32l-270 -1920q-3 -28 -32 -28h-232q-31 0 -28 32z" />
    <glyph glyph-name="braceright" unicode="}" horiz-adv-x="1138" 
d="M546 885l45 321q4 30 -9.5 42.5t-46.5 12.5h-248q-31 0 -28 32l23 169q3 28 32 28h401q35 0 68 -11t62 -34t43 -66t6 -100l-56 -391q-1 -4 -4 -12.5t-2.5 -11.5t4.5 -12l167 -218q15 -22 -2 -42l-223 -228q-16 -16 -20 -41l-53 -389q-8 -57 -31.5 -97.5t-56.5 -60
t-65.5 -28t-69.5 -8.5h-410q-31 0 -28 32l25 169q3 28 32 28h240q32 0 57 20.5t29 51.5l45 319q0 3 1 9.5t1.5 10t2 7.5t5.5 6l244 221l-169 233q-14 17 -11 38z" />
    <glyph glyph-name="asciitilde" unicode="~" horiz-adv-x="1273" 
d="M475 743q55 0 101 -17.5t77.5 -43t59.5 -51t61 -43t69 -17.5q51 0 83.5 21.5t46.5 46.5q11 20 34 20h84q32 0 25 -39q-15 -107 -95 -164.5t-191 -57.5q-57 0 -104.5 17.5t-79.5 43t-60.5 51t-61.5 43t-69 17.5q-91 0 -134 -68q-14 -20 -37 -20h-75q-18 0 -25 12.5
t-4 29.5q28 108 106 163.5t189 55.5z" />
    <glyph glyph-name="exclamdown" unicode="&#xa1;" horiz-adv-x="772" 
d="M439 1066q83 0 141 -58t58 -141q0 -82 -58.5 -140t-140.5 -58t-140.5 58t-58.5 140t58.5 140.5t140.5 58.5zM293 -376q-79 0 -130.5 64.5t-27.5 161.5l173 705q8 26 34 26h136q14 0 22.5 -8.5t7.5 -22.5l-24 -717q-4 -96 -62 -152.5t-129 -56.5z" />
    <glyph glyph-name="cent" unicode="&#xa2;" horiz-adv-x="1193" 
d="M1119 883q10 -27 -15 -39l-186 -88q-25 -12 -40 12q-37 61 -104 90l-66 -468q93 25 153 107q17 24 41 9l160 -94q27 -17 10 -41q-67 -102 -170.5 -166t-230.5 -77l-25 -180q-4 -28 -32 -28h-126q-32 0 -28 32l26 187q-154 38 -248 160t-94 287q0 137 65 255.5t175 193
t242 92.5l34 245q4 28 32 28h126q32 0 28 -32l-35 -248q103 -22 183 -84t125 -153zM416 597q0 -65 29 -115t79 -77l64 454q-78 -29 -125 -99.5t-47 -162.5z" />
    <glyph glyph-name="sterling" unicode="&#xa3;" horiz-adv-x="1338" 
d="M1267 1043q0 -54 -10 -66q-8 -10 -24 -10l-207 -7q-30 0 -31 30q-3 171 -196 171q-115 0 -175.5 -62.5t-60.5 -163.5q0 -63 36 -131h453q31 0 28 -32l-30 -197q-3 -28 -32 -28h-350q-15 -167 -152 -289h607q31 0 28 -32l-27 -198q-3 -28 -32 -28h-952q-31 0 -28 32
l28 202q3 22 26 34q94 45 160 120t78 159h-185q-31 0 -28 32l30 197q3 28 32 28h69q-21 63 -21 139q0 227 140 350t383 123q201 0 322 -98.5t121 -274.5z" />
    <glyph glyph-name="currency" unicode="&#xa4;" horiz-adv-x="1421" 
d="M1191 1162q31 -76 31 -161q0 -145 -81 -267l77 -86l-165 -146l-69 78q-124 -76 -261 -76q-144 0 -250 81l-93 -83l-132 146l105 95q-31 76 -31 160q0 150 87 276l-75 86l163 146l74 -81q121 70 253 70q140 0 247 -80l100 91l134 -146zM513 917q0 -38 13 -75.5t38.5 -71
t71 -54.5t103.5 -21q56 0 105 19.5t83 51t58.5 70.5t36 78t11.5 73q0 37 -13 74.5t-38.5 71t-71 55t-103.5 21.5q-70 0 -128.5 -30t-93 -75.5t-53.5 -94.5t-19 -92z" />
    <glyph glyph-name="yen" unicode="&#xa5;" horiz-adv-x="1477" 
d="M1492 1400q19 0 24 -11t-6 -26l-536 -708h193q32 0 28 -32l-21 -147q-4 -28 -32 -28h-270l-11 -81h265q32 0 28 -32l-21 -148q-4 -28 -32 -28h-270l-18 -131q-4 -28 -32 -28h-232q-32 0 -27 32l18 127h-267q-32 0 -28 32l21 148q4 28 32 28h271l11 81h-266q-32 0 -28 32
l21 147q4 28 32 28h205l-340 710q-7 16 -1 25.5t23 9.5h260q25 0 35 -22l255 -545l415 549q13 18 37 18h264z" />
    <glyph glyph-name="brokenbar" unicode="&#xa6;" horiz-adv-x="623" 
d="M582 1600q31 0 28 -32l-80 -560q-3 -28 -32 -28h-232q-31 0 -28 32l80 560q3 28 32 28h232zM390 240q31 0 28 -32l-78 -560q-3 -28 -32 -28h-232q-31 0 -28 32l78 560q3 28 32 28h232z" />
    <glyph glyph-name="section" unicode="&#xa7;" horiz-adv-x="1368" 
d="M800 1600q228 0 344.5 -94t107.5 -286q-1 -26 -32 -26h-174q-16 0 -25 7t-11 13t-7 24q-14 50 -63 75.5t-147 25.5q-105 0 -164.5 -53t-59.5 -139q0 -55 29.5 -85t120.5 -49q83 -15 148.5 -33t137.5 -50.5t120 -73.5t79 -104.5t31 -141.5q0 -100 -35.5 -187t-103.5 -148
q26 -61 26 -137q0 -221 -151.5 -340t-407.5 -119q-249 0 -364 94.5t-105 296.5q1 23 27 23h201q17 0 24.5 -10t11.5 -31q15 -58 65.5 -84t151.5 -26q120 0 191 48.5t71 141.5q0 58 -39.5 89t-156.5 57q-76 15 -137 34t-124 52t-105.5 75t-69.5 105t-27 140q0 204 136 325
q-25 63 -25 140q0 207 140.5 329t370.5 122zM709 766q-111 21 -189 54q-66 -49 -66 -144q0 -55 43.5 -91.5t152.5 -59.5q140 -24 232 -62q75 51 75 141q0 63 -56.5 97.5t-191.5 64.5z" />
    <glyph glyph-name="dieresis" unicode="&#xa8;" horiz-adv-x="978" 
d="M378 1136q-58 0 -99.5 41.5t-41.5 101.5q0 59 41.5 100t99.5 41t99.5 -41t41.5 -100q0 -60 -41.5 -101.5t-99.5 -41.5zM821 1136q-58 0 -99.5 41.5t-41.5 101.5q0 59 41.5 100t99.5 41t99.5 -41t41.5 -100q0 -60 -41.5 -101.5t-99.5 -41.5z" />
    <glyph glyph-name="copyright" unicode="&#xa9;" horiz-adv-x="1438" 
d="M677 112q-220 0 -366.5 145.5t-146.5 361.5q0 170 87 317t236.5 233.5t324.5 86.5q220 0 365.5 -146.5t145.5 -362.5q0 -167 -85.5 -313t-235 -234t-325.5 -88zM685 274q195 0 331 141t136 341q0 146 -98 242t-252 96q-126 0 -233 -60.5t-170.5 -167.5t-63.5 -237
q0 -158 97.5 -256.5t252.5 -98.5zM886 446q-72 -55 -163 -55q-108 0 -180 69.5t-72 183.5q0 132 92.5 225.5t218.5 93.5q92 0 168 -63l-96 -99q-28 17 -75 17q-70 0 -116.5 -46t-46.5 -124q0 -51 36.5 -82t85.5 -31q42 0 82 20z" />
    <glyph glyph-name="ordfeminine" unicode="&#xaa;" horiz-adv-x="1070" 
d="M844 1400h179l-102 -718h-175l-8 46q-80 -46 -158 -46q-142 0 -235.5 94t-93.5 233q0 162 122.5 281.5t283.5 119.5q91 0 164 -58zM590 880q79 0 138 57.5t59 137.5q0 60 -40.5 99.5t-102.5 39.5q-78 0 -136.5 -59t-58.5 -140q0 -59 40 -97t101 -38z" />
    <glyph glyph-name="guillemotleft" unicode="&#xab;" horiz-adv-x="1400" 
d="M767 980q18 0 24 -10.5t-6 -25.5l-314 -382l204 -382q7 -15 1 -25.5t-23 -10.5h-222q-26 0 -37 22l-204 374q-12 20 4 42l310 380q15 18 36 18h227zM1295 980q18 0 24 -10.5t-6 -25.5l-315 -382l205 -382q7 -15 1 -25.5t-23 -10.5h-223q-25 0 -36 22l-204 374
q-12 20 4 42l310 380q15 18 36 18h227z" />
    <glyph glyph-name="logicalnot" unicode="&#xac;" horiz-adv-x="1312" 
d="M160 598q3 28 32 28h960q31 0 28 -32l-42 -313q-3 -28 -32 -28h-229q-31 0 -28 32l15 112h-699q-31 0 -28 32z" />
    <glyph glyph-name="uni00AD" unicode="&#xad;" horiz-adv-x="1322" 
d="M1138 667q33 0 28 -32l-23 -169q-3 -28 -32 -28h-910q-33 0 -28 32l24 169q2 28 32 28h909z" />
    <glyph glyph-name="registered" unicode="&#xae;" horiz-adv-x="1438" 
d="M812 1256q220 0 365.5 -146.5t145.5 -362.5q0 -167 -85.5 -313t-235 -234t-325.5 -88q-220 0 -366.5 145.5t-146.5 361.5q0 170 87 317t236.5 233.5t324.5 86.5zM685 274q195 0 331 141t136 341q0 146 -98 242t-252 96q-126 0 -233 -60.5t-170.5 -167.5t-63.5 -237
q0 -158 97.5 -256.5t252.5 -98.5zM827 938q100 0 157.5 -47.5t43.5 -145.5q-19 -130 -168 -157l121 -143q6 -7 1 -11t-15 -4h-113q-16 0 -33 20l-107 131h-76l-18 -131q-2 -20 -20 -20h-105q-10 0 -14.5 7.5t-2.5 16.5l68 477q9 7 11 7h270zM884 763q4 31 -10.5 44t-48.5 13
h-153l-18 -126h139q34 0 60.5 19t30.5 50z" />
    <glyph glyph-name="macron" unicode="&#xaf;" horiz-adv-x="856" 
d="M826 1400q31 0 28 -32l-23 -159q-3 -28 -32 -28h-544q-31 0 -28 32l23 159q3 28 32 28h544z" />
    <glyph glyph-name="degree" unicode="&#xb0;" horiz-adv-x="975" 
d="M605 1410q124 0 203 -77.5t79 -199.5q0 -148 -102 -247.5t-243 -99.5q-124 0 -203.5 77.5t-79.5 198.5q0 148 101.5 248t244.5 100zM594 1231q-74 0 -114 -50t-40 -113q0 -42 27 -73t85 -31q73 0 112.5 49.5t39.5 115.5q0 40 -28 71t-82 31z" />
    <glyph glyph-name="plusminus" unicode="&#xb1;" horiz-adv-x="1241" 
d="M1087 886q35 0 28 -32l-21 -147q-3 -28 -32 -28h-311l-44 -314q-3 -28 -32 -28h-147q-31 0 -28 32l44 310h-309q-31 0 -28 32l21 147q3 28 32 28h313l44 313q3 28 32 28h147q31 0 28 -32l-44 -309h307zM993 207q35 0 28 -32l-21 -147q-3 -28 -32 -28h-827q-31 0 -28 32
l21 147q3 28 32 28h827z" />
    <glyph glyph-name="uni00B2" unicode="&#xb2;" horiz-adv-x="1269" 
d="M1082 422q31 0 28 -32l-21 -152q-3 -28 -32 -28h-907q-31 0 -28 32l14 101q12 90 59.5 158t114 106.5t144 65.5t153.5 44t140 34t106 43.5t47 64.5q6 53 -36.5 76t-132.5 23q-230 0 -273 -143q-12 -30 -34 -24l-201 34q-29 7 -25 36q68 339 529 339q218 0 341 -95
t101 -259q-9 -68 -50.5 -119t-100.5 -81.5t-129 -52.5t-138.5 -38t-125.5 -32.5t-95 -41.5t-43 -59h595z" />
    <glyph glyph-name="uni00B3" unicode="&#xb3;" horiz-adv-x="1336" 
d="M986 710q114 -30 165 -88t36 -160q-20 -147 -162 -212.5t-399 -65.5q-94 0 -165.5 7.5t-135.5 27t-104.5 52t-61.5 85t-15 123.5q0 13 8 21.5t22 8.5l218 6q27 0 31 -26q10 -44 59.5 -57t156.5 -13q125 0 185 26t68 79q4 30 -14.5 47t-85.5 28.5t-193 12.5q-35 0 -32 32
l8 108q3 28 33 28q131 1 200.5 11t96 29t30.5 53q12 91 -192 91q-97 0 -163.5 -25t-92.5 -92q-10 -31 -36 -24l-212 36q-29 6 -25 34q18 88 63.5 149t117.5 95t157.5 48.5t196.5 14.5q151 0 258 -30.5t164 -97.5t43 -167q-23 -156 -228 -195z" />
    <glyph glyph-name="acute" unicode="&#xb4;" horiz-adv-x="637" 
d="M246 1150q-18 0 -23.5 10.5t3.5 25.5l160 254q11 20 36 20h198q18 0 23.5 -10.5t-3.5 -25.5l-158 -254q-11 -20 -36 -20h-200z" />
    <glyph glyph-name="uni00B5" unicode="&#xb5;" horiz-adv-x="1249" 
d="M1112 948l-96 -666q-7 -45 6 -62t33 -17q33 -2 28 -41l-17 -106q-5 -31 -43 -50.5t-95 -19.5q-97 0 -139 49t-39 130h-19q-34 -83 -110.5 -133.5t-184.5 -50.5q-48 0 -92 12l-49 -351q-4 -22 -32 -22h-220q-13 0 -19.5 12t-4.5 26l101 723q2 22 4 32l76 539q3 28 32 28
h220q34 0 28 -32l-69 -498q-15 -109 30 -158.5t114 -49.5q117 0 195 138l82 576q3 24 34 24h218q31 0 28 -32z" />
    <glyph glyph-name="paragraph" unicode="&#xb6;" horiz-adv-x="1405" 
d="M210 952q16 114 45 193.5t81.5 139t134.5 87.5t197 28h294q31 0 28 -32l-188 -1340q-3 -28 -32 -28h-212q-31 0 -28 32l61 438h-41q-153 0 -237 56.5t-104 163.5t1 262zM1112 1372q3 28 32 28h211q31 0 28 -32l-188 -1340q-3 -28 -32 -28h-211q-31 0 -28 32z" />
    <glyph glyph-name="periodcentered" unicode="&#xb7;" horiz-adv-x="752" 
d="M392 406q-82 0 -140.5 58t-58.5 141q0 82 58.5 140t140.5 58t140.5 -58t58.5 -140t-58.5 -140.5t-140.5 -58.5z" />
    <glyph glyph-name="cedilla" unicode="&#xb8;" horiz-adv-x="647" 
d="M238 -66q73 -7 126.5 -50.5t53.5 -115.5q0 -65 -31 -111.5t-81.5 -68t-114.5 -29t-130 5.5q-18 3 -18 22v98q0 9 6 15t16 5q78 -12 121.5 3t43.5 48q0 18 -22 32t-58 16t-83 -17q-11 -4 -17.5 -0.5t-6.5 14.5v103q0 14 10 24l77 72h183z" />
    <glyph glyph-name="uni00B9" unicode="&#xb9;" horiz-adv-x="1151" 
d="M986 439q31 0 28 -32l-23 -169q-3 -28 -32 -28h-840q-31 0 -28 32l23 169q3 28 32 28h325l70 474q-106 -93 -307 -99q-33 0 -30 32l16 190q3 28 35 29q174 10 317 125h252q31 0 28 -32l-100 -719h234z" />
    <glyph glyph-name="ordmasculine" unicode="&#xba;" horiz-adv-x="1078" 
d="M580 682q-142 0 -235.5 94t-93.5 233q0 162 122.5 281.5t283.5 119.5q142 0 234 -93.5t92 -233.5q0 -162 -121 -281.5t-282 -119.5zM594 880q78 0 135.5 56.5t57.5 134.5q0 61 -42 102t-105 41q-77 0 -133 -58.5t-56 -138.5q0 -60 40.5 -98.5t102.5 -38.5z" />
    <glyph glyph-name="guillemotright" unicode="&#xbb;" horiz-adv-x="1400" 
d="M217 944q-7 15 -1 25.5t23 10.5h221q25 0 36 -22l206 -374q12 -20 -4 -42l-312 -380q-15 -18 -36 -18h-225q-18 0 -24 10.5t6 25.5l314 382zM745 944q-7 15 -1 25.5t23 10.5h220q25 0 36 -22l207 -374q12 -20 -4 -42l-312 -380q-15 -18 -36 -18h-225q-18 0 -24 10.5
t6 25.5l314 382z" />
    <glyph glyph-name="onequarter" unicode="&#xbc;" horiz-adv-x="1394" 
d="M302 798q-31 0 -28 26l23 138q3 23 32 23h325l70 388q-105 -75 -307 -81q-33 0 -30 27l16 155q3 23 35 24q177 8 317 102h252q31 0 28 -26l-100 -589h234q31 0 28 -26l-23 -138q-3 -23 -32 -23h-840zM1264 707q31 0 28 -32l-18 -130q-3 -28 -32 -28h-1080q-31 0 -28 32
l18 130q3 28 32 28h1080zM1186 71q31 0 28 -28l-23 -146q-3 -24 -32 -24h-141l-36 -229q-3 -24 -32 -24h-222q-31 0 -28 28l36 225h-595q-31 0 -28 28l87 541q3 25 32 25h222q31 0 28 -28l-60 -368h347l59 371q3 25 32 25h222q31 0 28 -28l-59 -368h135z" />
    <glyph glyph-name="onehalf" unicode="&#xbd;" horiz-adv-x="1391" 
d="M302 798q-31 0 -28 26l23 138q3 23 32 23h325l70 388q-105 -75 -307 -81q-33 0 -30 27l16 155q3 23 35 24q177 8 317 102h252q31 0 28 -26l-100 -589h234q31 0 28 -26l-23 -138q-3 -23 -32 -23h-840zM1264 707q31 0 28 -32l-18 -130q-3 -28 -32 -28h-1080q-31 0 -28 32
l18 130q3 28 32 28h1080zM696 430q218 0 341 -78t101 -211q-11 -64 -65 -110.5t-127 -70t-157 -43.5t-155.5 -32.5t-121.5 -35.5t-56 -55h595q31 0 28 -27l-21 -124q-3 -23 -32 -23h-907q-31 0 -28 26l14 83q12 74 59.5 129.5t114 87t144 53.5t153.5 36t140 28t106 35.5
t47 52.5q6 44 -36.5 62.5t-132.5 18.5q-230 0 -273 -117q-12 -24 -34 -19l-201 27q-29 7 -25 30q68 277 529 277z" />
    <glyph glyph-name="threequarters" unicode="&#xbe;" horiz-adv-x="1418" 
d="M1108 1209q114 -24 165 -72t36 -131q-20 -120 -162 -173.5t-399 -53.5q-94 0 -165.5 6t-136 22t-104.5 42.5t-61 69.5t-15 101q0 25 30 25l218 5q27 0 31 -22q10 -36 59.5 -46.5t156.5 -10.5q125 0 185 21t68 65q4 24 -14 38t-85.5 23.5t-193.5 10.5q-35 0 -32 26l8 89
q3 23 33 23q131 0 200.5 8.5t96 23.5t30.5 44q12 74 -192 74q-98 0 -164 -20t-92 -76q-11 -25 -36 -19l-212 29q-29 5 -25 28q18 72 63.5 122t117.5 77.5t157.5 39.5t196.5 12q151 0 258 -24.5t164 -79.5t43 -137q-23 -128 -228 -160zM1264 707q31 0 28 -32l-18 -130
q-3 -28 -32 -28h-1080q-31 0 -28 32l18 130q3 28 32 28h1080zM1073 71h135q31 0 28 -28l-23 -146q-3 -24 -32 -24h-141l-36 -229q-3 -24 -32 -24h-222q-31 0 -28 28l36 225h-595q-31 0 -28 28l87 541q3 25 32 25h222q31 0 28 -28l-60 -368h347l59 371q3 25 32 25h222
q31 0 28 -28z" />
    <glyph glyph-name="questiondown" unicode="&#xbf;" horiz-adv-x="1315" 
d="M711 1066q82 0 140 -58.5t58 -140.5t-58 -140t-140 -58t-140.5 58t-58.5 140q0 83 58 141t141 58zM801 575q32 0 27 -34q-16 -89 -48 -153.5t-70.5 -99.5t-81.5 -58.5t-84 -39t-75.5 -32.5t-58.5 -47t-31 -76q-10 -73 34.5 -114.5t139.5 -41.5q99 0 169 49.5t95 154.5
q5 21 42 17l192 -25q14 -2 21 -14.5t3 -30.5q-27 -196 -164.5 -301t-364.5 -105q-232 0 -347 113t-83 328q10 71 36.5 123.5t61 83t75 53t80.5 41t75 39.5t62.5 56.5t38.5 85.5q6 28 32 28h224z" />
    <glyph glyph-name="Agrave" unicode="&#xc0;" horiz-adv-x="1431" 
d="M734 1534l-84 252q-10 34 24 34h194q26 0 34 -24l86 -252q10 -34 -24 -34h-196q-26 0 -34 24zM1274 34q6 -34 -26 -34h-230q-26 0 -35 32l-43 223h-507l-108 -228q-13 -27 -38 -27h-242q-17 0 -25 13.5t-1 28.5l671 1334q13 24 43 24h210q13 0 23 -9t13 -23zM550 503h342
l-99 516z" />
    <glyph glyph-name="Aacute" unicode="&#xc1;" horiz-adv-x="1431" 
d="M774 1510q-18 0 -23.5 10.5t3.5 25.5l160 254q11 20 36 20h198q18 0 23.5 -10.5t-3.5 -25.5l-158 -254q-11 -20 -36 -20h-200zM1274 34q6 -34 -26 -34h-230q-26 0 -35 32l-43 223h-507l-108 -228q-13 -27 -38 -27h-242q-17 0 -25 13.5t-1 28.5l671 1334q13 24 43 24h210
q13 0 23 -9t13 -23zM550 503h342l-99 516z" />
    <glyph glyph-name="Acircumflex" unicode="&#xc2;" horiz-adv-x="1431" 
d="M1291 1573q11 -15 5.5 -25.5t-23.5 -10.5h-221q-21 0 -36 18l-117 145l-164 -149q-14 -14 -38 -14h-225q-20 0 -24.5 10.5t10.5 25.5l268 267q16 16 38 16h303q24 0 36 -18zM979 1368l295 -1334q6 -34 -26 -34h-230q-26 0 -35 32l-43 223h-507l-108 -228q-13 -27 -38 -27
h-242q-17 0 -25 13.5t-1 28.5l671 1334q13 24 43 24h210q13 0 23 -9t13 -23zM550 503h342l-99 516z" />
    <glyph glyph-name="Atilde" unicode="&#xc3;" horiz-adv-x="1431" 
d="M542 1629q-9 0 -15.5 7.5t-5.5 19.5q12 101 71 152.5t149 51.5q54 0 103 -22t79 -48t70 -48t78 -22q69 0 93 55q6 16 22 16h65q20 0 20 -20q1 -102 -62.5 -156.5t-157.5 -54.5q-53 0 -102 22t-79.5 48.5t-70.5 48.5t-78 22q-68 0 -92 -56q-6 -16 -22 -16h-65zM1274 34
q6 -34 -26 -34h-230q-26 0 -35 32l-43 223h-507l-108 -228q-13 -27 -38 -27h-242q-17 0 -25 13.5t-1 28.5l671 1334q13 24 43 24h210q13 0 23 -9t13 -23zM550 503h342l-99 516z" />
    <glyph glyph-name="Adieresis" unicode="&#xc4;" horiz-adv-x="1431" 
d="M676 1556q-58 0 -99.5 41.5t-41.5 101.5q0 59 41.5 100t99.5 41t99.5 -41t41.5 -100q0 -60 -41.5 -101.5t-99.5 -41.5zM1119 1556q-58 0 -99.5 41.5t-41.5 101.5q0 59 41.5 100t99.5 41t99.5 -41t41.5 -100q0 -60 -41.5 -101.5t-99.5 -41.5zM1274 34q6 -34 -26 -34h-230
q-26 0 -35 32l-43 223h-507l-108 -228q-13 -27 -38 -27h-242q-17 0 -25 13.5t-1 28.5l671 1334q13 24 43 24h210q13 0 23 -9t13 -23zM550 503h342l-99 516z" />
    <glyph glyph-name="Aring" unicode="&#xc5;" horiz-adv-x="1431" 
d="M893 1495q-87 0 -147 59.5t-60 143.5t60 144.5t147 60.5q85 0 144.5 -60.5t59.5 -144.5q0 -83 -59.5 -143t-144.5 -60zM893 1759q-27 0 -44 -16.5t-17 -42.5t17 -42.5t44 -16.5q26 0 44 17t16 42q-1 26 -18 42.5t-42 16.5zM1274 34q6 -34 -26 -34h-230q-26 0 -35 32
l-43 223h-507l-108 -228q-13 -27 -38 -27h-242q-17 0 -25 13.5t-1 28.5l671 1334q13 24 43 24h210q13 0 23 -9t13 -23zM550 503h342l-99 516z" />
    <glyph glyph-name="AE" unicode="&#xc6;" horiz-adv-x="1393" 
d="M1332 1400q32 0 27 -32l-28 -198q-4 -28 -32 -28h-281l-41 -295h238q32 0 27 -32l-28 -198q-4 -28 -32 -28h-242l-46 -331h279q32 0 27 -32l-27 -198q-4 -28 -32 -28h-534q-32 0 -27 32l18 128h-239l-64 -138q-10 -22 -35 -22h-220q-17 0 -23 9.5t1 25.5l667 1343
q10 22 35 22h612zM474 408h159l69 493z" />
    <glyph glyph-name="Ccedilla" unicode="&#xc7;" horiz-adv-x="1489" 
d="M1442 1205q25 -31 1 -51l-142 -129q-22 -22 -51 4q-126 101 -287 101q-133 0 -248.5 -71.5t-183 -191t-67.5 -254.5q0 -154 97.5 -253.5t252.5 -99.5q179 0 319 107q15 12 30.5 11t26.5 -15l118 -148q27 -35 -4 -61q-103 -83 -234 -131.5t-269 -48.5q-20 0 -56 2l-48 -42
q73 -7 126.5 -50.5t53.5 -115.5q0 -65 -31 -111.5t-81.5 -68t-114.5 -29t-130 5.5q-18 3 -18 22v98q0 9 6 15t16 5q78 -12 121.5 3t43.5 48q0 18 -22 32t-58 16t-83 -17q-10 -4 -17 -0.5t-7 14.5v103q0 14 10 24l77 72h21q-202 57 -324.5 221.5t-122.5 383.5q0 159 67 309
t177.5 259.5t260.5 176t310 66.5q148 0 267.5 -56.5t196.5 -154.5z" />
    <glyph glyph-name="Egrave" unicode="&#xc8;" horiz-adv-x="1243" 
d="M889 1544q10 -34 -24 -34h-196q-26 0 -34 24l-84 252q-10 34 24 34h194q26 0 34 -24zM1022 258q31 0 28 -32l-27 -198q-3 -28 -32 -28h-862q-31 0 -28 32l188 1340q3 28 32 28h860q31 0 28 -32l-27 -198q-3 -28 -32 -28h-600l-42 -295h546q31 0 28 -32l-30 -198
q-3 -28 -32 -28h-550l-45 -331h597z" />
    <glyph glyph-name="Eacute" unicode="&#xc9;" horiz-adv-x="1243" 
d="M675 1510q-18 0 -23.5 10.5t3.5 25.5l160 254q11 20 36 20h198q18 0 23.5 -10.5t-3.5 -25.5l-158 -254q-11 -20 -36 -20h-200zM1022 258q31 0 28 -32l-27 -198q-3 -28 -32 -28h-862q-31 0 -28 32l188 1340q3 28 32 28h860q31 0 28 -32l-27 -198q-3 -28 -32 -28h-600
l-42 -295h546q31 0 28 -32l-30 -198q-3 -28 -32 -28h-550l-45 -331h597z" />
    <glyph glyph-name="Ecircumflex" unicode="&#xca;" horiz-adv-x="1243" 
d="M800 1700l-164 -149q-14 -14 -38 -14h-225q-20 0 -24.5 10.5t10.5 25.5l268 267q16 16 38 16h303q24 0 36 -18l188 -265q10 -15 5 -25.5t-23 -10.5h-221q-21 0 -36 18zM1022 258q31 0 28 -32l-27 -198q-3 -28 -32 -28h-862q-31 0 -28 32l188 1340q3 28 32 28h860
q31 0 28 -32l-27 -198q-3 -28 -32 -28h-600l-42 -295h546q31 0 28 -32l-30 -198q-3 -28 -32 -28h-550l-45 -331h597z" />
    <glyph glyph-name="Edieresis" unicode="&#xcb;" horiz-adv-x="1243" 
d="M577 1556q-58 0 -99.5 41.5t-41.5 101.5q0 59 41.5 100t99.5 41t99.5 -41t41.5 -100q0 -60 -41.5 -101.5t-99.5 -41.5zM1020 1556q-58 0 -99.5 41.5t-41.5 101.5q0 59 41.5 100t99.5 41t99.5 -41t41.5 -100q0 -60 -41.5 -101.5t-99.5 -41.5zM1022 258q31 0 28 -32
l-27 -198q-3 -28 -32 -28h-862q-31 0 -28 32l188 1340q3 28 32 28h860q31 0 28 -32l-27 -198q-3 -28 -32 -28h-600l-42 -295h546q31 0 28 -32l-30 -198q-3 -28 -32 -28h-550l-45 -331h597z" />
    <glyph glyph-name="Igrave" unicode="&#xcc;" horiz-adv-x="1322" 
d="M923 1544q10 -34 -24 -34h-196q-26 0 -34 24l-84 252q-10 34 24 34h194q26 0 34 -24zM1262 1170q-4 -28 -32 -28h-331l-124 -884h327q32 0 27 -32l-27 -198q-4 -28 -32 -28h-952q-32 0 -27 32l27 198q4 28 32 28h332l124 884h-328q-32 0 -26 32l27 198q4 28 32 28h952
q32 0 27 -32z" />
    <glyph glyph-name="Iacute" unicode="&#xcd;" horiz-adv-x="1322" 
d="M709 1510q-18 0 -23.5 10.5t3.5 25.5l160 254q11 20 36 20h198q18 0 23.5 -10.5t-3.5 -25.5l-158 -254q-11 -20 -36 -20h-200zM1262 1170q-4 -28 -32 -28h-331l-124 -884h327q32 0 27 -32l-27 -198q-4 -28 -32 -28h-952q-32 0 -27 32l27 198q4 28 32 28h332l124 884h-328
q-32 0 -26 32l27 198q4 28 32 28h952q32 0 27 -32z" />
    <glyph glyph-name="Icircumflex" unicode="&#xce;" horiz-adv-x="1322" 
d="M834 1700l-164 -149q-14 -14 -38 -14h-225q-20 0 -24.5 10.5t10.5 25.5l268 267q16 16 38 16h303q24 0 36 -18l188 -265q10 -15 5 -25.5t-23 -10.5h-221q-21 0 -36 18zM1262 1170q-4 -28 -32 -28h-331l-124 -884h327q32 0 27 -32l-27 -198q-4 -28 -32 -28h-952
q-32 0 -27 32l27 198q4 28 32 28h332l124 884h-328q-32 0 -26 32l27 198q4 28 32 28h952q32 0 27 -32z" />
    <glyph glyph-name="Idieresis" unicode="&#xcf;" horiz-adv-x="1322" 
d="M611 1556q-58 0 -99.5 41.5t-41.5 101.5q0 59 41.5 100t99.5 41t99.5 -41t41.5 -100q0 -60 -41.5 -101.5t-99.5 -41.5zM1054 1556q-58 0 -99.5 41.5t-41.5 101.5q0 59 41.5 100t99.5 41t99.5 -41t41.5 -100q0 -60 -41.5 -101.5t-99.5 -41.5zM1262 1170q-4 -28 -32 -28
h-331l-124 -884h327q32 0 27 -32l-27 -198q-4 -28 -32 -28h-952q-32 0 -27 32l27 198q4 28 32 28h332l124 884h-328q-32 0 -26 32l27 198q4 28 32 28h952q32 0 27 -32z" />
    <glyph glyph-name="Eth" unicode="&#xd0;" horiz-adv-x="1300" 
d="M725 1400q158 0 282.5 -45.5t204 -126t121 -188.5t41.5 -237q0 -233 -106 -416.5t-295.5 -285t-430.5 -101.5h-407q-13 0 -22.5 12t-7.5 26l76 540h-174q-31 0 -28 32l23 159q3 28 32 28h177l82 581q1 13 6.5 17.5t19.5 4.5h406zM565 258q243 0 379.5 153t136.5 400
q0 162 -94.5 246.5t-284.5 84.5h-150l-48 -345h74q31 0 28 -32l-23 -159q-3 -28 -32 -28h-77l-45 -320h136z" />
    <glyph glyph-name="Ntilde" unicode="&#xd1;" horiz-adv-x="1469" 
d="M750 1860q54 0 103 -22t79 -48t70 -48t78 -22q69 0 93 55q6 16 22 16h65q20 0 20 -20q1 -102 -62.5 -156.5t-157.5 -54.5q-53 0 -102 22t-79.5 48.5t-70.5 48.5t-78 22q-68 0 -92 -56q-6 -16 -22 -16h-65q-9 0 -15.5 7.5t-5.5 19.5q12 101 71 152.5t149 51.5zM1393 1400
q13 0 24 -12t9 -26l-188 -1340q-2 -22 -28 -22h-264q-23 0 -34 26l-390 916l-129 -920q-2 -22 -28 -22h-233q-13 0 -22.5 12t-7.5 26l186 1329q4 33 32 33h260q23 0 34 -26l392 -918l127 911q6 33 35 33h225z" />
    <glyph glyph-name="Ograve" unicode="&#xd2;" horiz-adv-x="1727" 
d="M1124 1544q10 -34 -24 -34h-196q-26 0 -34 24l-84 252q-10 34 24 34h194q26 0 34 -24zM800 -26q-148 0 -275.5 58t-212 156.5t-123.5 235.5t-18 287q28 193 146 355.5t293.5 256t366.5 93.5q149 0 276.5 -58t212.5 -156.5t124 -236t18 -288.5q-28 -192 -146 -354
t-294 -255.5t-368 -93.5zM823 256q121 0 230 60.5t180 165t86 229.5q22 179 -83.5 301t-280.5 122q-121 0 -229.5 -60.5t-179.5 -165.5t-86 -231q-22 -178 83.5 -299.5t279.5 -121.5z" />
    <glyph glyph-name="Oacute" unicode="&#xd3;" horiz-adv-x="1727" 
d="M910 1510q-18 0 -23.5 10.5t3.5 25.5l160 254q11 20 36 20h198q18 0 23.5 -10.5t-3.5 -25.5l-158 -254q-11 -20 -36 -20h-200zM800 -26q-148 0 -275.5 58t-212 156.5t-123.5 235.5t-18 287q28 193 146 355.5t293.5 256t366.5 93.5q149 0 276.5 -58t212.5 -156.5t124 -236
t18 -288.5q-28 -192 -146 -354t-294 -255.5t-368 -93.5zM823 256q121 0 230 60.5t180 165t86 229.5q22 179 -83.5 301t-280.5 122q-121 0 -229.5 -60.5t-179.5 -165.5t-86 -231q-22 -178 83.5 -299.5t279.5 -121.5z" />
    <glyph glyph-name="Ocircumflex" unicode="&#xd4;" horiz-adv-x="1727" 
d="M1035 1700l-164 -149q-14 -14 -38 -14h-225q-20 0 -24.5 10.5t10.5 25.5l268 267q16 16 38 16h303q24 0 36 -18l188 -265q11 -15 5.5 -25.5t-23.5 -10.5h-221q-21 0 -36 18zM800 -26q-148 0 -275.5 58t-212 156.5t-123.5 235.5t-18 287q28 193 146 355.5t293.5 256
t366.5 93.5q149 0 276.5 -58t212.5 -156.5t124 -236t18 -288.5q-28 -192 -146 -354t-294 -255.5t-368 -93.5zM823 256q121 0 230 60.5t180 165t86 229.5q22 179 -83.5 301t-280.5 122q-121 0 -229.5 -60.5t-179.5 -165.5t-86 -231q-22 -178 83.5 -299.5t279.5 -121.5z" />
    <glyph glyph-name="Otilde" unicode="&#xd5;" horiz-adv-x="1727" 
d="M877 1860q54 0 103 -22t79 -48t70 -48t78 -22q69 0 93 55q6 16 22 16h65q20 0 20 -20q1 -102 -62.5 -156.5t-157.5 -54.5q-53 0 -102 22t-79.5 48.5t-70.5 48.5t-78 22q-68 0 -92 -56q-6 -16 -22 -16h-65q-9 0 -15.5 7.5t-5.5 19.5q12 101 71 152.5t149 51.5zM800 -26
q-148 0 -275.5 58t-212 156.5t-123.5 235.5t-18 287q28 193 146 355.5t293.5 256t366.5 93.5q149 0 276.5 -58t212.5 -156.5t124 -236t18 -288.5q-28 -192 -146 -354t-294 -255.5t-368 -93.5zM823 256q121 0 230 60.5t180 165t86 229.5q22 179 -83.5 301t-280.5 122
q-121 0 -229.5 -60.5t-179.5 -165.5t-86 -231q-22 -178 83.5 -299.5t279.5 -121.5z" />
    <glyph glyph-name="Odieresis" unicode="&#xd6;" horiz-adv-x="1727" 
d="M812 1556q-58 0 -99.5 41.5t-41.5 101.5q0 59 41.5 100t99.5 41t99.5 -41t41.5 -100q0 -60 -41.5 -101.5t-99.5 -41.5zM1255 1556q-58 0 -99.5 41.5t-41.5 101.5q0 59 41.5 100t99.5 41t99.5 -41t41.5 -100q0 -60 -41.5 -101.5t-99.5 -41.5zM800 -26q-148 0 -275.5 58
t-212 156.5t-123.5 235.5t-18 287q28 193 146 355.5t293.5 256t366.5 93.5q149 0 276.5 -58t212.5 -156.5t124 -236t18 -288.5q-28 -192 -146 -354t-294 -255.5t-368 -93.5zM823 256q121 0 230 60.5t180 165t86 229.5q22 179 -83.5 301t-280.5 122q-121 0 -229.5 -60.5
t-179.5 -165.5t-86 -231q-22 -178 83.5 -299.5t279.5 -121.5z" />
    <glyph glyph-name="multiply" unicode="&#xd7;" horiz-adv-x="1105" 
d="M961 828q23 -27 7 -44l-258 -225l185 -215q21 -25 4 -42l-120 -105q-21 -16 -40 13l-184 214l-260 -227q-12 -7 -21.5 -2.5t-15.5 15.5l-93 103q-19 27 -4 44l257 225l-185 215q-23 23 -4 42l120 103q17 17 40 -11l184 -214l258 225q21 18 40 -11z" />
    <glyph glyph-name="Oslash" unicode="&#xd8;" horiz-adv-x="1727" 
d="M1326 1320q156 -96 233.5 -267.5t48.5 -375.5q-28 -192 -146 -354t-294 -255.5t-368 -93.5q-54 0 -100 7l-27 -59q-9 -22 -34 -22h-215q-17 0 -23 10t1 26l60 128q-161 96 -240.5 268.5t-50.5 378.5q28 193 146 355.5t293.5 256t366.5 93.5q57 0 111 -9l28 61q9 22 34 22
h216q17 0 23 -10t-1 -26zM460 677q-13 -105 21.5 -194.5t106.5 -147.5l372 799h-5q-121 0 -229.5 -60.5t-179.5 -165.5t-86 -231zM1319 711q13 103 -19.5 191t-100.5 146l-370 -792q120 1 227.5 62t177.5 165t85 228z" />
    <glyph glyph-name="Ugrave" unicode="&#xd9;" horiz-adv-x="1506" 
d="M1010 1544q10 -34 -24 -34h-196q-26 0 -34 24l-84 252q-10 34 24 34h194q26 0 34 -24zM1431 1400q33 0 28 -32l-114 -809q-21 -150 -78.5 -263.5t-144.5 -184t-196 -105.5t-239 -35q-274 0 -415 154.5t-100 450.5l112 796q4 28 32 28h232q34 0 29 -32l-115 -809
q-21 -148 42.5 -228t196.5 -80q144 0 238 87t116 238l112 796q4 28 32 28h232z" />
    <glyph glyph-name="Uacute" unicode="&#xda;" horiz-adv-x="1506" 
d="M796 1510q-18 0 -23.5 10.5t3.5 25.5l160 254q11 20 36 20h198q18 0 23.5 -10.5t-3.5 -25.5l-158 -254q-11 -20 -36 -20h-200zM1431 1400q33 0 28 -32l-114 -809q-21 -150 -78.5 -263.5t-144.5 -184t-196 -105.5t-239 -35q-274 0 -415 154.5t-100 450.5l112 796
q4 28 32 28h232q34 0 29 -32l-115 -809q-21 -148 42.5 -228t196.5 -80q144 0 238 87t116 238l112 796q4 28 32 28h232z" />
    <glyph glyph-name="Ucircumflex" unicode="&#xdb;" horiz-adv-x="1506" 
d="M921 1700l-164 -149q-14 -14 -38 -14h-225q-20 0 -24.5 10.5t10.5 25.5l268 267q16 16 38 16h303q24 0 36 -18l188 -265q11 -15 5.5 -25.5t-23.5 -10.5h-221q-21 0 -36 18zM1431 1400q33 0 28 -32l-114 -809q-21 -150 -78.5 -263.5t-144.5 -184t-196 -105.5t-239 -35
q-274 0 -415 154.5t-100 450.5l112 796q4 28 32 28h232q34 0 29 -32l-115 -809q-21 -148 42.5 -228t196.5 -80q144 0 238 87t116 238l112 796q4 28 32 28h232z" />
    <glyph glyph-name="Udieresis" unicode="&#xdc;" horiz-adv-x="1506" 
d="M698 1556q-58 0 -99.5 41.5t-41.5 101.5q0 59 41.5 100t99.5 41t99.5 -41t41.5 -100q0 -60 -41.5 -101.5t-99.5 -41.5zM1141 1556q-58 0 -99.5 41.5t-41.5 101.5q0 59 41.5 100t99.5 41t99.5 -41t41.5 -100q0 -60 -41.5 -101.5t-99.5 -41.5zM1431 1400q33 0 28 -32
l-114 -809q-21 -150 -78.5 -263.5t-144.5 -184t-196 -105.5t-239 -35q-274 0 -415 154.5t-100 450.5l112 796q4 28 32 28h232q34 0 29 -32l-115 -809q-21 -148 42.5 -228t196.5 -80q144 0 238 87t116 238l112 796q4 28 32 28h232z" />
    <glyph glyph-name="Yacute" unicode="&#xdd;" horiz-adv-x="1477" 
d="M780 1510q-18 0 -23.5 10.5t3.5 25.5l160 254q11 20 36 20h198q18 0 23.5 -10.5t-3.5 -25.5l-158 -254q-11 -20 -36 -20h-200zM1492 1400q19 0 24 -11t-6 -26l-626 -826l-71 -509q-4 -28 -32 -28h-232q-32 0 -27 32l72 517l-390 816q-7 16 -1 25.5t23 9.5h260
q25 0 35 -22l255 -545l415 549q13 18 37 18h264z" />
    <glyph glyph-name="Thorn" unicode="&#xde;" horiz-adv-x="1296" 
d="M724 1160q248 0 367 -125.5t87 -350.5q-30 -214 -177 -329t-395 -115h-183l-29 -208q-7 -32 -43 -32h-217q-16 0 -25 11t-6 27l186 1332q5 30 36 30h224q16 0 25.5 -11.5t7.5 -27.5l-28 -201h170zM903 716q15 108 -41.5 147t-182.5 39h-162l-57 -404h150q125 0 200 49.5
t93 168.5z" />
    <glyph glyph-name="germandbls" unicode="&#xdf;" horiz-adv-x="1299" 
d="M883 723q114 -13 192 -92t78 -217q0 -93 -29 -164.5t-80 -118t-126.5 -76.5t-163 -42.5t-194.5 -12.5h-91q-31 0 -28 32l21 158q3 28 32 28h82q309 0 309 216q0 89 -66 119t-207 30h-63q-31 0 -28 32l24 158q3 28 32 28h53q120 0 189.5 61t69.5 154q0 69 -41 99t-135 30
q-102 0 -154 -41t-65 -135l-131 -941q-3 -28 -32 -28h-222q-31 0 -28 32l133 954q30 207 171 310.5t353 103.5q194 0 309.5 -89.5t115.5 -262.5q0 -125 -79 -218.5t-201 -106.5z" />
    <glyph glyph-name="agrave" unicode="&#xe0;" horiz-adv-x="1323" 
d="M604 1114l-84 252q-10 34 24 34h194q26 0 34 -24l86 -252q10 -34 -24 -34h-196q-26 0 -34 24zM1186 948l-96 -666q-11 -76 39 -79q33 -2 28 -41l-17 -106q-5 -31 -43 -50.5t-95 -19.5q-63 0 -99 40.5t-42 107.5h-14q-37 -66 -114 -113t-184 -47q-88 0 -164.5 30t-135 87
t-92 146t-33.5 200q0 162 69.5 292.5t185.5 201.5t253 71q98 0 169.5 -39.5t100.5 -100.5h17l28 94q7 24 34 24h177q15 0 22.5 -8.5t5.5 -23.5zM609 235q113 0 182.5 84t69.5 195q0 114 -61 170.5t-153 56.5q-106 0 -178.5 -75.5t-72.5 -208.5q0 -111 60 -166.5t153 -55.5z
" />
    <glyph glyph-name="aacute" unicode="&#xe1;" horiz-adv-x="1323" 
d="M644 1090q-18 0 -23.5 10.5t3.5 25.5l160 254q11 20 36 20h198q18 0 23.5 -10.5t-3.5 -25.5l-158 -254q-11 -20 -36 -20h-200zM1186 948l-96 -666q-11 -76 39 -79q33 -2 28 -41l-17 -106q-5 -31 -43 -50.5t-95 -19.5q-63 0 -99 40.5t-42 107.5h-14q-37 -66 -114 -113
t-184 -47q-88 0 -164.5 30t-135 87t-92 146t-33.5 200q0 162 69.5 292.5t185.5 201.5t253 71q98 0 169.5 -39.5t100.5 -100.5h17l28 94q7 24 34 24h177q15 0 22.5 -8.5t5.5 -23.5zM609 235q113 0 182.5 84t69.5 195q0 114 -61 170.5t-153 56.5q-106 0 -178.5 -75.5
t-72.5 -208.5q0 -111 60 -166.5t153 -55.5z" />
    <glyph glyph-name="acircumflex" unicode="&#xe2;" horiz-adv-x="1323" 
d="M342 1117q-20 0 -24.5 10.5t10.5 25.5l268 267q16 16 38 16h303q24 0 36 -18l188 -265q11 -15 5.5 -25.5t-23.5 -10.5h-221q-21 0 -36 18l-117 145l-164 -149q-14 -14 -38 -14h-225zM1186 948l-96 -666q-11 -76 39 -79q33 -2 28 -41l-17 -106q-5 -31 -43 -50.5t-95 -19.5
q-63 0 -99 40.5t-42 107.5h-14q-37 -66 -114 -113t-184 -47q-88 0 -164.5 30t-135 87t-92 146t-33.5 200q0 162 69.5 292.5t185.5 201.5t253 71q98 0 169.5 -39.5t100.5 -100.5h17l28 94q7 24 34 24h177q15 0 22.5 -8.5t5.5 -23.5zM609 235q113 0 182.5 84t69.5 195
q0 114 -61 170.5t-153 56.5q-106 0 -178.5 -75.5t-72.5 -208.5q0 -111 60 -166.5t153 -55.5z" />
    <glyph glyph-name="atilde" unicode="&#xe3;" horiz-adv-x="1323" 
d="M412 1209q-9 0 -15.5 7.5t-5.5 19.5q12 101 71 152.5t149 51.5q54 0 103 -22t79 -48t70 -48t78 -22q69 0 93 55q6 16 22 16h65q20 0 20 -20q1 -102 -62.5 -156.5t-157.5 -54.5q-53 0 -102 22t-79.5 48.5t-70.5 48.5t-78 22q-68 0 -92 -56q-6 -16 -22 -16h-65zM1186 948
l-96 -666q-11 -76 39 -79q33 -2 28 -41l-17 -106q-5 -31 -43 -50.5t-95 -19.5q-63 0 -99 40.5t-42 107.5h-14q-37 -66 -114 -113t-184 -47q-88 0 -164.5 30t-135 87t-92 146t-33.5 200q0 162 69.5 292.5t185.5 201.5t253 71q98 0 169.5 -39.5t100.5 -100.5h17l28 94
q7 24 34 24h177q15 0 22.5 -8.5t5.5 -23.5zM609 235q113 0 182.5 84t69.5 195q0 114 -61 170.5t-153 56.5q-106 0 -178.5 -75.5t-72.5 -208.5q0 -111 60 -166.5t153 -55.5z" />
    <glyph glyph-name="adieresis" unicode="&#xe4;" horiz-adv-x="1323" 
d="M546 1136q-58 0 -99.5 41.5t-41.5 101.5q0 59 41.5 100t99.5 41t99.5 -41t41.5 -100q0 -60 -41.5 -101.5t-99.5 -41.5zM989 1136q-58 0 -99.5 41.5t-41.5 101.5q0 59 41.5 100t99.5 41t99.5 -41t41.5 -100q0 -60 -41.5 -101.5t-99.5 -41.5zM1186 948l-96 -666
q-11 -76 39 -79q33 -2 28 -41l-17 -106q-5 -31 -43 -50.5t-95 -19.5q-63 0 -99 40.5t-42 107.5h-14q-37 -66 -114 -113t-184 -47q-88 0 -164.5 30t-135 87t-92 146t-33.5 200q0 162 69.5 292.5t185.5 201.5t253 71q98 0 169.5 -39.5t100.5 -100.5h17l28 94q7 24 34 24h177
q15 0 22.5 -8.5t5.5 -23.5zM609 235q113 0 182.5 84t69.5 195q0 114 -61 170.5t-153 56.5q-106 0 -178.5 -75.5t-72.5 -208.5q0 -111 60 -166.5t153 -55.5z" />
    <glyph glyph-name="aring" unicode="&#xe5;" horiz-adv-x="1323" 
d="M763 1075q-87 0 -147 59.5t-60 143.5t60 144.5t147 60.5q85 0 144.5 -60.5t59.5 -144.5q0 -83 -59.5 -143t-144.5 -60zM763 1339q-27 0 -44 -16.5t-17 -42.5t17 -42.5t44 -16.5q26 0 44 17t16 42q-1 26 -18 42.5t-42 16.5zM1186 948l-96 -666q-11 -76 39 -79
q33 -2 28 -41l-17 -106q-5 -31 -43 -50.5t-95 -19.5q-63 0 -99 40.5t-42 107.5h-14q-37 -66 -114 -113t-184 -47q-88 0 -164.5 30t-135 87t-92 146t-33.5 200q0 162 69.5 292.5t185.5 201.5t253 71q98 0 169.5 -39.5t100.5 -100.5h17l28 94q7 24 34 24h177q15 0 22.5 -8.5
t5.5 -23.5zM609 235q113 0 182.5 84t69.5 195q0 114 -61 170.5t-153 56.5q-106 0 -178.5 -75.5t-72.5 -208.5q0 -111 60 -166.5t153 -55.5z" />
    <glyph glyph-name="ae" unicode="&#xe6;" horiz-adv-x="1937" 
d="M1816 618q0 -53 -13 -92.5t-47 -73.5t-100 -52t-163 -18h-451q2 -87 73 -134t195 -47q143 0 245 64q30 18 53 -9l80 -95q26 -31 -3 -54q-155 -133 -409 -133q-145 0 -254 53t-170 148q-91 -98 -214 -148.5t-232 -50.5q-162 0 -246.5 79.5t-65.5 217.5q19 134 114 200
t280 94l159 24q132 20 163 56q4 69 -29.5 94.5t-101.5 25.5q-177 0 -210 -120q-4 -4 -24 -4h-209q-15 0 -25.5 13t-6.5 32q43 172 166 243t322 71q227 0 327 -115q157 115 355 115q207 0 324.5 -109.5t117.5 -274.5zM1076 573h321q103 0 137 12t33 51q-2 53 -58 90.5
t-146 37.5q-102 0 -178 -49.5t-109 -141.5zM472 211q186 0 316 135q-6 38 -6 76q0 24 1 36q-18 -20 -127 -39l-7.5 -1.5t-6.5 -1t-7 -1.5l-127 -21q-56 -10 -91 -40t-41 -71q-5 -35 18.5 -53.5t77.5 -18.5z" />
    <glyph glyph-name="ccedilla" unicode="&#xe7;" horiz-adv-x="1213" 
d="M1099 748q11 -28 -15 -40l-186 -90q-25 -12 -40 13q-31 51 -82 80.5t-115 29.5q-112 0 -188.5 -81.5t-76.5 -203.5q0 -98 60 -159.5t153 -61.5q146 0 232 119q17 24 41 9l160 -96q26 -17 10 -42q-75 -117 -195.5 -184t-267.5 -67q-202 0 -333.5 134.5t-131.5 336.5
q0 114 45 218t120.5 178t177.5 117.5t212 43.5q142 0 253 -68.5t167 -185.5zM213 -66q73 -7 126.5 -50.5t53.5 -115.5q0 -65 -31 -111.5t-81.5 -68t-114.5 -29t-130 5.5q-18 3 -18 22v98q0 9 6 15t16 5q78 -12 121.5 3t43.5 48q0 18 -22 32t-58 16t-83 -17q-10 -4 -17 -0.5
t-7 14.5v103q0 14 10 24l77 72h183z" />
    <glyph glyph-name="egrave" unicode="&#xe8;" 
d="M581 1114l-84 252q-10 34 24 34h194q26 0 34 -24l86 -252q10 -34 -24 -34h-196q-26 0 -34 24zM1155 618q0 -53 -13 -92.5t-47 -73.5t-100 -52t-163 -18h-451q2 -87 73 -134t195 -47q143 0 245 64q30 18 53 -9l80 -95q26 -31 -3 -54q-155 -133 -409 -133
q-227 0 -360.5 126t-133.5 322q0 157 78.5 290.5t214.5 211.5t299 78q207 0 324.5 -109.5t117.5 -274.5zM415 573h321q103 0 137 12t33 51q-2 53 -58 90.5t-146 37.5q-102 0 -178 -49.5t-109 -141.5z" />
    <glyph glyph-name="eacute" unicode="&#xe9;" 
d="M621 1090q-18 0 -23.5 10.5t3.5 25.5l160 254q11 20 36 20h198q18 0 23.5 -10.5t-3.5 -25.5l-158 -254q-11 -20 -36 -20h-200zM1155 618q0 -53 -13 -92.5t-47 -73.5t-100 -52t-163 -18h-451q2 -87 73 -134t195 -47q143 0 245 64q30 18 53 -9l80 -95q26 -31 -3 -54
q-155 -133 -409 -133q-227 0 -360.5 126t-133.5 322q0 157 78.5 290.5t214.5 211.5t299 78q207 0 324.5 -109.5t117.5 -274.5zM415 573h321q103 0 137 12t33 51q-2 53 -58 90.5t-146 37.5q-102 0 -178 -49.5t-109 -141.5z" />
    <glyph glyph-name="ecircumflex" unicode="&#xea;" 
d="M319 1117q-20 0 -24.5 10.5t10.5 25.5l268 267q16 16 38 16h303q24 0 36 -18l188 -265q10 -15 5 -25.5t-23 -10.5h-221q-21 0 -36 18l-117 145l-164 -149q-14 -14 -38 -14h-225zM1155 618q0 -53 -13 -92.5t-47 -73.5t-100 -52t-163 -18h-451q2 -87 73 -134t195 -47
q143 0 245 64q30 18 53 -9l80 -95q26 -31 -3 -54q-155 -133 -409 -133q-227 0 -360.5 126t-133.5 322q0 157 78.5 290.5t214.5 211.5t299 78q207 0 324.5 -109.5t117.5 -274.5zM415 573h321q103 0 137 12t33 51q-2 53 -58 90.5t-146 37.5q-102 0 -178 -49.5t-109 -141.5z
" />
    <glyph glyph-name="edieresis" unicode="&#xeb;" 
d="M523 1136q-58 0 -99.5 41.5t-41.5 101.5q0 59 41.5 100t99.5 41t99.5 -41t41.5 -100q0 -60 -41.5 -101.5t-99.5 -41.5zM966 1136q-58 0 -99.5 41.5t-41.5 101.5q0 59 41.5 100t99.5 41t99.5 -41t41.5 -100q0 -60 -41.5 -101.5t-99.5 -41.5zM1155 618q0 -53 -13 -92.5
t-47 -73.5t-100 -52t-163 -18h-451q2 -87 73 -134t195 -47q143 0 245 64q30 18 53 -9l80 -95q26 -31 -3 -54q-155 -133 -409 -133q-227 0 -360.5 126t-133.5 322q0 157 78.5 290.5t214.5 211.5t299 78q207 0 324.5 -109.5t117.5 -274.5zM415 573h321q103 0 137 12t33 51
q-2 53 -58 90.5t-146 37.5q-102 0 -178 -49.5t-109 -141.5z" />
    <glyph glyph-name="igrave" unicode="&#xec;" horiz-adv-x="1232" 
d="M819 1124q10 -34 -24 -34h-196q-26 0 -34 24l-84 252q-10 34 24 34h194q26 0 34 -24zM1103 157q10 -23 -6 -42q-44 -50 -134.5 -92.5t-199.5 -42.5q-56 0 -106.5 9t-98.5 30t-83 54.5t-60.5 81.5t-30.5 112.5t7 146.5l58 337h-305q-15 0 -22.5 8.5t-5.5 23.5l25 169
q4 28 32 28h557q32 0 27 -32l-81 -511q-8 -65 -2 -107t29 -66.5t48.5 -34t56.5 -9.5q91 0 180 75q12 13 31.5 10.5t27.5 -22.5z" />
    <glyph glyph-name="iacute" unicode="&#xed;" horiz-adv-x="1232" 
d="M605 1090q-18 0 -23.5 10.5t3.5 25.5l160 254q11 20 36 20h198q18 0 23.5 -10.5t-3.5 -25.5l-158 -254q-11 -20 -36 -20h-200zM1103 157q10 -23 -6 -42q-44 -50 -134.5 -92.5t-199.5 -42.5q-56 0 -106.5 9t-98.5 30t-83 54.5t-60.5 81.5t-30.5 112.5t7 146.5l58 337h-305
q-15 0 -22.5 8.5t-5.5 23.5l25 169q4 28 32 28h557q32 0 27 -32l-81 -511q-8 -65 -2 -107t29 -66.5t48.5 -34t56.5 -9.5q91 0 180 75q12 13 31.5 10.5t27.5 -22.5z" />
    <glyph glyph-name="icircumflex" unicode="&#xee;" horiz-adv-x="1232" 
d="M730 1280l-164 -149q-14 -14 -38 -14h-225q-20 0 -24.5 10.5t10.5 25.5l268 267q16 16 38 16h303q24 0 36 -18l188 -265q10 -15 5 -25.5t-23 -10.5h-221q-21 0 -36 18zM1103 157q10 -23 -6 -42q-44 -50 -134.5 -92.5t-199.5 -42.5q-56 0 -106.5 9t-98.5 30t-83 54.5
t-60.5 81.5t-30.5 112.5t7 146.5l58 337h-305q-15 0 -22.5 8.5t-5.5 23.5l25 169q4 28 32 28h557q32 0 27 -32l-81 -511q-8 -65 -2 -107t29 -66.5t48.5 -34t56.5 -9.5q91 0 180 75q12 13 31.5 10.5t27.5 -22.5z" />
    <glyph glyph-name="idieresis" unicode="&#xef;" horiz-adv-x="1232" 
d="M507 1136q-58 0 -99.5 41.5t-41.5 101.5q0 59 41.5 100t99.5 41t99.5 -41t41.5 -100q0 -60 -41.5 -101.5t-99.5 -41.5zM950 1136q-58 0 -99.5 41.5t-41.5 101.5q0 59 41.5 100t99.5 41t99.5 -41t41.5 -100q0 -60 -41.5 -101.5t-99.5 -41.5zM1103 157q10 -23 -6 -42
q-44 -50 -134.5 -92.5t-199.5 -42.5q-56 0 -106.5 9t-98.5 30t-83 54.5t-60.5 81.5t-30.5 112.5t7 146.5l58 337h-305q-15 0 -22.5 8.5t-5.5 23.5l25 169q4 28 32 28h557q32 0 27 -32l-81 -511q-8 -65 -2 -107t29 -66.5t48.5 -34t56.5 -9.5q91 0 180 75q12 13 31.5 10.5
t27.5 -22.5z" />
    <glyph glyph-name="eth" unicode="&#xf0;" horiz-adv-x="1300" 
d="M1202 1400q31 0 28 -32l-30 -209v-20q0 -13 -6 -20l-120 -837q-7 -45 6 -62t33 -17q33 -2 28 -41l-17 -106q-5 -31 -43 -50.5t-95 -19.5q-65 0 -100 42t-41 112h-23q-29 -73 -100 -119.5t-175 -46.5q-185 0 -304.5 120t-119.5 332q0 166 72.5 299t191 205t256.5 72
q94 0 156.5 -36.5t86.5 -103.5h11l3 156l8 57l-184 -22q-32 -3 -32 28v139q0 30 28 32l217 26l13 94q3 28 32 28h220zM597 235q75 0 133 42.5t86.5 107.5t28.5 140q0 109 -53.5 162.5t-143.5 53.5q-106 0 -181 -77t-75 -212q0 -106 62 -161.5t143 -55.5z" />
    <glyph glyph-name="ntilde" unicode="&#xf1;" horiz-adv-x="1284" 
d="M400 1209q-9 0 -15.5 7.5t-5.5 19.5q12 101 71 152.5t149 51.5q54 0 103 -22t79 -48t70 -48t78 -22q69 0 93 55q6 16 22 16h65q20 0 20 -20q1 -102 -62.5 -156.5t-157.5 -54.5q-53 0 -102 22t-79.5 48.5t-70.5 48.5t-78 22q-68 0 -92 -56q-6 -16 -22 -16h-65zM1090 203
q33 -2 28 -41l-17 -106q-5 -31 -43 -50.5t-95 -19.5q-111 0 -163.5 63t-39.5 157l46 332q15 109 -31.5 156t-120.5 47q-87 0 -142 -45t-75 -103l-81 -565q-3 -28 -32 -28h-220q-34 0 -28 32l132 920q3 28 32 28h208q13 0 22.5 -12t7.5 -26l-8 -116h20q33 80 109.5 128
t182.5 48q79 0 143.5 -29.5t108 -83t61 -135t2.5 -179.5l-46 -293q-7 -45 6 -62t33 -17zM428 552l4 27q-4 -15 -4 -27z" />
    <glyph glyph-name="ograve" unicode="&#xf2;" 
d="M838 1124q10 -34 -24 -34h-196q-26 0 -34 24l-84 252q-10 34 24 34h194q26 0 34 -24zM589 -26q-202 0 -333.5 134.5t-131.5 336.5q0 114 45 218t120.5 178t177.5 117.5t212 43.5q202 0 334.5 -133t132.5 -334q0 -150 -73.5 -279t-202.5 -205.5t-281 -76.5zM609 235
q111 0 187 77.5t76 207.5q0 98 -59 159.5t-152 61.5q-112 0 -188.5 -81.5t-76.5 -203.5q0 -98 60 -159.5t153 -61.5z" />
    <glyph glyph-name="oacute" unicode="&#xf3;" 
d="M624 1090q-18 0 -23.5 10.5t3.5 25.5l160 254q11 20 36 20h198q18 0 23.5 -10.5t-3.5 -25.5l-158 -254q-11 -20 -36 -20h-200zM589 -26q-202 0 -333.5 134.5t-131.5 336.5q0 114 45 218t120.5 178t177.5 117.5t212 43.5q202 0 334.5 -133t132.5 -334q0 -150 -73.5 -279
t-202.5 -205.5t-281 -76.5zM609 235q111 0 187 77.5t76 207.5q0 98 -59 159.5t-152 61.5q-112 0 -188.5 -81.5t-76.5 -203.5q0 -98 60 -159.5t153 -61.5z" />
    <glyph glyph-name="ocircumflex" unicode="&#xf4;" 
d="M749 1280l-164 -149q-14 -14 -38 -14h-225q-20 0 -24.5 10.5t10.5 25.5l268 267q16 16 38 16h303q24 0 36 -18l188 -265q11 -15 5.5 -25.5t-23.5 -10.5h-221q-21 0 -36 18zM589 -26q-202 0 -333.5 134.5t-131.5 336.5q0 114 45 218t120.5 178t177.5 117.5t212 43.5
q202 0 334.5 -133t132.5 -334q0 -150 -73.5 -279t-202.5 -205.5t-281 -76.5zM609 235q111 0 187 77.5t76 207.5q0 98 -59 159.5t-152 61.5q-112 0 -188.5 -81.5t-76.5 -203.5q0 -98 60 -159.5t153 -61.5z" />
    <glyph glyph-name="otilde" unicode="&#xf5;" 
d="M591 1440q54 0 103 -22t79 -48t70 -48t78 -22q69 0 93 55q6 16 22 16h65q20 0 20 -20q1 -102 -62.5 -156.5t-157.5 -54.5q-53 0 -102 22t-79.5 48.5t-70.5 48.5t-78 22q-68 0 -92 -56q-6 -16 -22 -16h-65q-9 0 -15.5 7.5t-5.5 19.5q12 101 71 152.5t149 51.5zM589 -26
q-202 0 -333.5 134.5t-131.5 336.5q0 114 45 218t120.5 178t177.5 117.5t212 43.5q202 0 334.5 -133t132.5 -334q0 -150 -73.5 -279t-202.5 -205.5t-281 -76.5zM609 235q111 0 187 77.5t76 207.5q0 98 -59 159.5t-152 61.5q-112 0 -188.5 -81.5t-76.5 -203.5
q0 -98 60 -159.5t153 -61.5z" />
    <glyph glyph-name="odieresis" unicode="&#xf6;" 
d="M526 1136q-58 0 -99.5 41.5t-41.5 101.5q0 59 41.5 100t99.5 41t99.5 -41t41.5 -100q0 -60 -41.5 -101.5t-99.5 -41.5zM969 1136q-58 0 -99.5 41.5t-41.5 101.5q0 59 41.5 100t99.5 41t99.5 -41t41.5 -100q0 -60 -41.5 -101.5t-99.5 -41.5zM589 -26q-202 0 -333.5 134.5
t-131.5 336.5q0 114 45 218t120.5 178t177.5 117.5t212 43.5q202 0 334.5 -133t132.5 -334q0 -150 -73.5 -279t-202.5 -205.5t-281 -76.5zM609 235q111 0 187 77.5t76 207.5q0 98 -59 159.5t-152 61.5q-112 0 -188.5 -81.5t-76.5 -203.5q0 -98 60 -159.5t153 -61.5z" />
    <glyph glyph-name="divide" unicode="&#xf7;" horiz-adv-x="1260" 
d="M691 741q-83 0 -141 58.5t-58 140.5t58.5 140t140.5 58t140.5 -58t58.5 -140t-58.5 -140.5t-140.5 -58.5zM1056 674q14 0 22 -8t8 -22v-147q0 -13 -8 -21.5t-22 -8.5h-829q-13 0 -21.5 8.5t-8.5 21.5v147q0 14 8.5 22t21.5 8h829zM589 2q-82 0 -140.5 58.5t-58.5 140.5
t58.5 140.5t140.5 58.5q83 0 141 -58t58 -141t-58 -141t-141 -58z" />
    <glyph glyph-name="oslash" unicode="&#xf8;" 
d="M942 927q96 -62 150 -164.5t54 -227.5q0 -150 -73.5 -279t-202.5 -205.5t-281 -76.5q-33 0 -71 5l-43 -97q-10 -22 -34 -22h-171q-17 0 -23 10t1 26l71 159q-92 64 -143.5 165.5t-51.5 224.5q0 114 45 218t120.5 178t177.5 117.5t212 43.5q34 0 61 -4l43 96q10 22 34 22
h171q17 0 23 -10t-1 -26zM396 456q0 -79 41 -137l187 419q-99 -14 -163.5 -92.5t-64.5 -189.5zM633 236q103 9 171 85t68 199q0 86 -47 146z" />
    <glyph glyph-name="ugrave" unicode="&#xf9;" horiz-adv-x="1249" 
d="M574 1114l-84 252q-10 34 24 34h194q26 0 34 -24l86 -252q10 -34 -24 -34h-196q-26 0 -34 24zM1112 948l-96 -666q-7 -45 6 -62t33 -17q33 -2 28 -41l-17 -106q-5 -31 -43 -50.5t-95 -19.5q-97 0 -139 49t-39 130h-19q-34 -83 -110.5 -133.5t-184.5 -50.5
q-160 0 -250 117.5t-62 314.5l76 539q3 28 32 28h220q34 0 28 -32l-69 -498q-15 -109 30 -158.5t114 -49.5q117 0 195 138l82 576q3 24 34 24h218q31 0 28 -32z" />
    <glyph glyph-name="uacute" unicode="&#xfa;" horiz-adv-x="1249" 
d="M614 1090q-18 0 -23.5 10.5t3.5 25.5l160 254q11 20 36 20h198q18 0 23.5 -10.5t-3.5 -25.5l-158 -254q-11 -20 -36 -20h-200zM1112 948l-96 -666q-7 -45 6 -62t33 -17q33 -2 28 -41l-17 -106q-5 -31 -43 -50.5t-95 -19.5q-97 0 -139 49t-39 130h-19
q-34 -83 -110.5 -133.5t-184.5 -50.5q-160 0 -250 117.5t-62 314.5l76 539q3 28 32 28h220q34 0 28 -32l-69 -498q-15 -109 30 -158.5t114 -49.5q117 0 195 138l82 576q3 24 34 24h218q31 0 28 -32z" />
    <glyph glyph-name="ucircumflex" unicode="&#xfb;" horiz-adv-x="1249" 
d="M1131 1153q11 -15 5.5 -25.5t-23.5 -10.5h-221q-21 0 -36 18l-117 145l-164 -149q-14 -14 -38 -14h-225q-20 0 -24.5 10.5t10.5 25.5l268 267q16 16 38 16h303q24 0 36 -18zM1084 980q31 0 28 -32l-96 -666q-7 -45 6 -62t33 -17q33 -2 28 -41l-17 -106q-5 -31 -43 -50.5
t-95 -19.5q-97 0 -139 49t-39 130h-19q-34 -83 -110.5 -133.5t-184.5 -50.5q-160 0 -250 117.5t-62 314.5l76 539q3 28 32 28h220q34 0 28 -32l-69 -498q-15 -109 30 -158.5t114 -49.5q117 0 195 138l82 576q3 24 34 24h218z" />
    <glyph glyph-name="udieresis" unicode="&#xfc;" horiz-adv-x="1249" 
d="M516 1136q-58 0 -99.5 41.5t-41.5 101.5q0 59 41.5 100t99.5 41t99.5 -41t41.5 -100q0 -60 -41.5 -101.5t-99.5 -41.5zM959 1136q-58 0 -99.5 41.5t-41.5 101.5q0 59 41.5 100t99.5 41t99.5 -41t41.5 -100q0 -60 -41.5 -101.5t-99.5 -41.5zM1112 948l-96 -666
q-7 -45 6 -62t33 -17q33 -2 28 -41l-17 -106q-5 -31 -43 -50.5t-95 -19.5q-97 0 -139 49t-39 130h-19q-34 -83 -110.5 -133.5t-184.5 -50.5q-160 0 -250 117.5t-62 314.5l76 539q3 28 32 28h220q34 0 28 -32l-69 -498q-15 -109 30 -158.5t114 -49.5q117 0 195 138l82 576
q3 24 34 24h218q31 0 28 -32z" />
    <glyph glyph-name="yacute" unicode="&#xfd;" horiz-adv-x="1240" 
d="M609 1090q-18 0 -23.5 10.5t3.5 25.5l160 254q11 20 36 20h198q18 0 23.5 -10.5t-3.5 -25.5l-158 -254q-11 -20 -36 -20h-200zM1116 980q31 0 28 -32l-126 -868q-68 -470 -538 -470q-207 0 -319.5 75.5t-116.5 226.5q0 30 30 30h202q23 0 33 -25q17 -44 61.5 -60
t112.5 -16q114 0 175.5 56t79.5 183l16 109q-76 -163 -288 -163q-165 0 -253 107.5t-58 309.5l76 509q3 28 32 28h220q31 0 28 -32l-67 -468q-27 -193 131 -193q131 0 213 142l76 527q3 24 34 24h218z" />
    <glyph glyph-name="thorn" unicode="&#xfe;" horiz-adv-x="1289" 
d="M799 1002q166 0 265 -121t99 -308q0 -159 -61.5 -295t-178.5 -220t-266 -84h-3h-2q-178 0 -281 125l-64 -451q-4 -28 -32 -28h-220q-32 0 -28 32l51 359q-5 8 -2 21l192 1340q3 28 32 28h220q31 0 28 -32l-69 -480l-1 -19h24q58 69 137 103q71 30 155 30h2h3zM487 273
q50 -42 129 -42q125 1 198.5 92.5t73.5 219.5q0 97 -50 149t-136 53q-135 -1 -214 -109q-61 -86 -61 -202q0 -107 60 -161z" />
    <glyph glyph-name="ydieresis" unicode="&#xff;" horiz-adv-x="1240" 
d="M511 1136q-58 0 -99.5 41.5t-41.5 101.5q0 59 41.5 100t99.5 41t99.5 -41t41.5 -100q0 -60 -41.5 -101.5t-99.5 -41.5zM954 1136q-58 0 -99.5 41.5t-41.5 101.5q0 59 41.5 100t99.5 41t99.5 -41t41.5 -100q0 -60 -41.5 -101.5t-99.5 -41.5zM1116 980q31 0 28 -32
l-126 -868q-68 -470 -538 -470q-207 0 -319.5 75.5t-116.5 226.5q0 30 30 30h202q23 0 33 -25q17 -44 61.5 -60t112.5 -16q114 0 175.5 56t79.5 183l16 109q-76 -163 -288 -163q-165 0 -253 107.5t-58 309.5l76 509q3 28 32 28h220q31 0 28 -32l-67 -468q-27 -193 131 -193
q131 0 213 142l76 527q3 24 34 24h218z" />
    <glyph glyph-name="Amacron" unicode="&#x100;" horiz-adv-x="1431" 
d="M612 1597q-31 0 -28 32l23 159q3 28 32 28h544q31 0 28 -32l-23 -159q-3 -28 -32 -28h-544zM1274 34q6 -34 -26 -34h-230q-26 0 -35 32l-43 223h-507l-108 -228q-13 -27 -38 -27h-242q-17 0 -25 13.5t-1 28.5l671 1334q13 24 43 24h210q13 0 23 -9t13 -23zM550 503h342
l-99 516z" />
    <glyph glyph-name="amacron" unicode="&#x101;" horiz-adv-x="1323" 
d="M482 1177q-31 0 -28 32l23 159q3 28 32 28h544q31 0 28 -32l-23 -159q-3 -28 -32 -28h-544zM1186 948l-96 -666q-11 -76 39 -79q33 -2 28 -41l-17 -106q-5 -31 -43 -50.5t-95 -19.5q-63 0 -99 40.5t-42 107.5h-14q-37 -66 -114 -113t-184 -47q-88 0 -164.5 30t-135 87
t-92 146t-33.5 200q0 162 69.5 292.5t185.5 201.5t253 71q98 0 169.5 -39.5t100.5 -100.5h17l28 94q7 24 34 24h177q15 0 22.5 -8.5t5.5 -23.5zM609 235q113 0 182.5 84t69.5 195q0 114 -61 170.5t-153 56.5q-106 0 -178.5 -75.5t-72.5 -208.5q0 -111 60 -166.5t153 -55.5z
" />
    <glyph glyph-name="Abreve" unicode="&#x102;" horiz-adv-x="1431" 
d="M882 1513q-150 0 -231.5 85t-75.5 202q2 19 7.5 28t20.5 9h118q29 0 32 -38q5 -50 40 -79.5t97 -29.5q68 0 113 36t61 84q9 27 37 27h120q16 0 22.5 -13.5t1.5 -35.5q-29 -121 -125 -198t-238 -77zM1274 34q6 -34 -26 -34h-230q-26 0 -35 32l-43 223h-507l-108 -228
q-13 -27 -38 -27h-242q-17 0 -25 13.5t-1 28.5l671 1334q13 24 43 24h210q13 0 23 -9t13 -23zM550 503h342l-99 516z" />
    <glyph glyph-name="abreve" unicode="&#x103;" horiz-adv-x="1323" 
d="M752 1093q-150 0 -231.5 85t-75.5 202q2 19 7.5 28t20.5 9h118q29 0 32 -38q5 -50 40 -79.5t97 -29.5q68 0 113 36t61 84q9 27 37 27h120q16 0 22.5 -13.5t1.5 -35.5q-29 -121 -125 -198t-238 -77zM1186 948l-96 -666q-11 -76 39 -79q33 -2 28 -41l-17 -106
q-5 -31 -43 -50.5t-95 -19.5q-63 0 -99 40.5t-42 107.5h-14q-37 -66 -114 -113t-184 -47q-88 0 -164.5 30t-135 87t-92 146t-33.5 200q0 162 69.5 292.5t185.5 201.5t253 71q98 0 169.5 -39.5t100.5 -100.5h17l28 94q7 24 34 24h177q15 0 22.5 -8.5t5.5 -23.5zM609 235
q113 0 182.5 84t69.5 195q0 114 -61 170.5t-153 56.5q-106 0 -178.5 -75.5t-72.5 -208.5q0 -111 60 -166.5t153 -55.5z" />
    <glyph glyph-name="Aogonek" unicode="&#x104;" horiz-adv-x="1431" 
d="M1274 34q6 -34 -26 -34h-2q-84 -7 -130.5 -51t-46.5 -98q0 -40 31.5 -63.5t96.5 -9.5v-174q-36 -16 -82 -20.5t-94 5.5t-88.5 33t-66.5 68t-26 105q0 138 146 228l-3 9l-43 223h-507l-108 -228q-13 -27 -38 -27h-242q-17 0 -25 13.5t-1 28.5l671 1334q13 24 43 24h210
q13 0 23 -9t13 -23zM550 503h342l-99 516z" />
    <glyph glyph-name="aogonek" unicode="&#x105;" horiz-adv-x="1323" 
d="M1186 948l-96 -666q-11 -76 39 -79q33 -2 28 -41l-17 -106q-4 -26 -32 -44.5t-72 -23.5q-80 -19 -137 -63.5t-57 -97.5q0 -37 34 -50.5t80 -4.5l-12 -179q-58 -24 -118 -20.5t-108.5 25t-79.5 66t-31 101.5q0 55 22 102.5t62 83t86.5 61.5t103.5 46q-16 34 -20 76h-14
q-37 -66 -114 -113t-184 -47q-88 0 -164.5 30t-135 87t-92 146t-33.5 200q0 162 69.5 292.5t185.5 201.5t253 71q98 0 169.5 -39.5t100.5 -100.5h17l28 94q7 24 34 24h177q15 0 22.5 -8.5t5.5 -23.5zM609 235q113 0 182.5 84t69.5 195q0 114 -61 170.5t-153 56.5
q-106 0 -178.5 -75.5t-72.5 -208.5q0 -111 60 -166.5t153 -55.5z" />
    <glyph glyph-name="Cacute" unicode="&#x106;" horiz-adv-x="1489" 
d="M791 1510q-18 0 -23.5 10.5t3.5 25.5l160 254q11 20 36 20h198q18 0 23.5 -10.5t-3.5 -25.5l-158 -254q-11 -20 -36 -20h-200zM1190 363l118 -148q27 -35 -4 -61q-103 -83 -234 -131.5t-269 -48.5q-136 0 -255 48.5t-203 132t-132 200.5t-48 250q0 159 67 309
t177.5 259.5t260.5 176t310 66.5q148 0 267.5 -56.5t196.5 -154.5q25 -31 1 -51l-142 -129q-22 -22 -51 4q-126 101 -287 101q-133 0 -248.5 -71.5t-183 -191t-67.5 -254.5q0 -154 97.5 -253.5t252.5 -99.5q179 0 319 107q15 12 30.5 11t26.5 -15z" />
    <glyph glyph-name="cacute" unicode="&#x107;" horiz-adv-x="1213" 
d="M283 1090q-18 0 -23.5 10.5t3.5 25.5l160 254q11 20 36 20h198q18 0 23.5 -10.5t-3.5 -25.5l-158 -254q-11 -20 -36 -20h-200zM1042 267q26 -17 10 -42q-75 -117 -195.5 -184t-267.5 -67q-202 0 -333.5 134.5t-131.5 336.5q0 114 45 218t120.5 178t177.5 117.5t212 43.5
q142 0 253 -68.5t167 -185.5q11 -28 -15 -40l-186 -90q-25 -12 -40 13q-31 51 -82 80.5t-115 29.5q-112 0 -188.5 -81.5t-76.5 -203.5q0 -98 60 -159.5t153 -61.5q146 0 232 119q17 24 41 9z" />
    <glyph glyph-name="Cdotaccent" unicode="&#x10a;" horiz-adv-x="1489" 
d="M912 1546q-58 0 -99.5 41.5t-41.5 101.5q0 59 41.5 100t99.5 41t99.5 -41t41.5 -100q0 -60 -41.5 -101.5t-99.5 -41.5zM1190 363l118 -148q27 -35 -4 -61q-103 -83 -234 -131.5t-269 -48.5q-136 0 -255 48.5t-203 132t-132 200.5t-48 250q0 159 67 309t177.5 259.5
t260.5 176t310 66.5q148 0 267.5 -56.5t196.5 -154.5q25 -31 1 -51l-142 -129q-22 -22 -51 4q-126 101 -287 101q-133 0 -248.5 -71.5t-183 -191t-67.5 -254.5q0 -154 97.5 -253.5t252.5 -99.5q179 0 319 107q15 12 30.5 11t26.5 -15z" />
    <glyph glyph-name="cdotaccent" unicode="&#x10b;" horiz-adv-x="1213" 
d="M342 1126q-58 0 -99.5 41.5t-41.5 101.5q0 59 41.5 100t99.5 41t99.5 -41t41.5 -100q0 -60 -41.5 -101.5t-99.5 -41.5zM1042 267q26 -17 10 -42q-75 -117 -195.5 -184t-267.5 -67q-202 0 -333.5 134.5t-131.5 336.5q0 114 45 218t120.5 178t177.5 117.5t212 43.5
q142 0 253 -68.5t167 -185.5q11 -28 -15 -40l-186 -90q-25 -12 -40 13q-31 51 -82 80.5t-115 29.5q-112 0 -188.5 -81.5t-76.5 -203.5q0 -98 60 -159.5t153 -61.5q146 0 232 119q17 24 41 9z" />
    <glyph glyph-name="Ccaron" unicode="&#x10c;" horiz-adv-x="1489" 
d="M907 1693l165 149q14 14 38 14h223q19 0 24 -11t-8 -25l-266 -267q-16 -16 -38 -16h-303q-26 0 -36 18l-192 265q-10 15 -4 25.5t24 10.5h220q21 0 36 -18zM1190 363l118 -148q27 -35 -4 -61q-103 -83 -234 -131.5t-269 -48.5q-136 0 -255 48.5t-203 132t-132 200.5
t-48 250q0 159 67 309t177.5 259.5t260.5 176t310 66.5q148 0 267.5 -56.5t196.5 -154.5q25 -31 1 -51l-142 -129q-22 -22 -51 4q-126 101 -287 101q-133 0 -248.5 -71.5t-183 -191t-67.5 -254.5q0 -154 97.5 -253.5t252.5 -99.5q179 0 319 107q15 12 30.5 11t26.5 -15z" />
    <glyph glyph-name="ccaron" unicode="&#x10d;" horiz-adv-x="1213" 
d="M620 1273l165 149q14 14 38 14h223q20 0 25 -11t-9 -25l-266 -267q-16 -16 -38 -16h-303q-25 0 -36 18l-192 265q-10 15 -4 25.5t24 10.5h220q21 0 36 -18zM1042 267q26 -17 10 -42q-75 -117 -195.5 -184t-267.5 -67q-202 0 -333.5 134.5t-131.5 336.5q0 114 45 218
t120.5 178t177.5 117.5t212 43.5q142 0 253 -68.5t167 -185.5q11 -28 -15 -40l-186 -90q-25 -12 -40 13q-31 51 -82 80.5t-115 29.5q-112 0 -188.5 -81.5t-76.5 -203.5q0 -98 60 -159.5t153 -61.5q146 0 232 119q17 24 41 9z" />
    <glyph glyph-name="Dcaron" unicode="&#x10e;" horiz-adv-x="1441" 
d="M741 1693l165 149q14 14 38 14h223q19 0 24 -11t-8 -25l-266 -267q-16 -16 -38 -16h-303q-26 0 -36 18l-192 265q-10 15 -4 25.5t24 10.5h220q21 0 36 -18zM722 1400q158 0 282.5 -45.5t204 -126t121 -188.5t41.5 -237q0 -233 -106 -416.5t-295.5 -285t-430.5 -101.5
h-407q-13 0 -22.5 12t-7.5 26l188 1340q1 13 6.5 17.5t19.5 4.5h406zM562 258q243 0 379.5 153t136.5 400q0 162 -94.5 246.5t-284.5 84.5h-150l-123 -884h136z" />
    <glyph glyph-name="dcaron" unicode="&#x10f;" horiz-adv-x="1300" 
d="M1422 1614q18 0 23.5 -10.5t-3.5 -25.5l-158 -254q-11 -20 -36 -20h-27l-147 -1022q-7 -45 6 -62t33 -17q33 -2 28 -41l-17 -106q-5 -31 -43 -50.5t-95 -19.5q-65 0 -100 42t-41 112h-23q-29 -73 -100 -119.5t-175 -46.5q-185 0 -304.5 120t-119.5 332q0 166 72.5 299
t191 205t256.5 72q94 0 156.5 -36.5t86.5 -103.5h11l3 156l50 354q3 28 32 28h84l122 194q11 20 36 20h198zM597 235q75 0 133 42.5t86.5 107.5t28.5 140q0 109 -53.5 162.5t-143.5 53.5q-106 0 -181 -77t-75 -212q0 -106 62 -161.5t143 -55.5z" />
    <glyph glyph-name="Dcroat" unicode="&#x110;" horiz-adv-x="1300" 
d="M725 1400q158 0 282.5 -45.5t204 -126t121 -188.5t41.5 -237q0 -233 -106 -416.5t-295.5 -285t-430.5 -101.5h-407q-13 0 -22.5 12t-7.5 26l76 540h-174q-31 0 -28 32l23 159q3 28 32 28h177l82 581q1 13 6.5 17.5t19.5 4.5h406zM565 258q243 0 379.5 153t136.5 400
q0 162 -94.5 246.5t-284.5 84.5h-150l-48 -345h74q31 0 28 -32l-23 -159q-3 -28 -32 -28h-77l-45 -320h136z" />
    <glyph glyph-name="dcroat" unicode="&#x111;" horiz-adv-x="1300" 
d="M1230 1368l-156 -1086q-7 -45 6 -62t33 -17q33 -2 28 -41l-17 -106q-5 -31 -43 -50.5t-95 -19.5q-65 0 -100 42t-41 112h-23q-29 -73 -100 -119.5t-175 -46.5q-185 0 -304.5 120t-119.5 332q0 166 72.5 299t191 205t256.5 72q94 0 156.5 -36.5t86.5 -103.5h11l3 156l8 57
h-395q-31 0 -28 32l23 159q3 28 32 28h399l11 78q3 28 32 28h220q31 0 28 -32zM597 235q75 0 133 42.5t86.5 107.5t28.5 140q0 109 -53.5 162.5t-143.5 53.5q-106 0 -181 -77t-75 -212q0 -106 62 -161.5t143 -55.5z" />
    <glyph glyph-name="Emacron" unicode="&#x112;" horiz-adv-x="1243" 
d="M1084 1816q31 0 28 -32l-23 -159q-3 -28 -32 -28h-544q-31 0 -28 32l23 159q3 28 32 28h544zM1022 258q31 0 28 -32l-27 -198q-3 -28 -32 -28h-862q-31 0 -28 32l188 1340q3 28 32 28h860q31 0 28 -32l-27 -198q-3 -28 -32 -28h-600l-42 -295h546q31 0 28 -32l-30 -198
q-3 -28 -32 -28h-550l-45 -331h597z" />
    <glyph glyph-name="emacron" unicode="&#x113;" 
d="M459 1177q-31 0 -28 32l23 159q3 28 32 28h544q31 0 28 -32l-23 -159q-3 -28 -32 -28h-544zM1155 618q0 -53 -13 -92.5t-47 -73.5t-100 -52t-163 -18h-451q2 -87 73 -134t195 -47q143 0 245 64q30 18 53 -9l80 -95q26 -31 -3 -54q-155 -133 -409 -133q-227 0 -360.5 126
t-133.5 322q0 157 78.5 290.5t214.5 211.5t299 78q207 0 324.5 -109.5t117.5 -274.5zM415 573h321q103 0 137 12t33 51q-2 53 -58 90.5t-146 37.5q-102 0 -178 -49.5t-109 -141.5z" />
    <glyph glyph-name="Edotaccent" unicode="&#x116;" horiz-adv-x="1243" 
d="M796 1546q-58 0 -99.5 41.5t-41.5 101.5q0 59 41.5 100t99.5 41t99.5 -41t41.5 -100q0 -60 -41.5 -101.5t-99.5 -41.5zM1022 258q31 0 28 -32l-27 -198q-3 -28 -32 -28h-862q-31 0 -28 32l188 1340q3 28 32 28h860q31 0 28 -32l-27 -198q-3 -28 -32 -28h-600l-42 -295
h546q31 0 28 -32l-30 -198q-3 -28 -32 -28h-550l-45 -331h597z" />
    <glyph glyph-name="edotaccent" unicode="&#x117;" 
d="M742 1126q-58 0 -99.5 41.5t-41.5 101.5q0 59 41.5 100t99.5 41t99.5 -41t41.5 -100q0 -60 -41.5 -101.5t-99.5 -41.5zM1155 618q0 -53 -13 -92.5t-47 -73.5t-100 -52t-163 -18h-451q2 -87 73 -134t195 -47q143 0 245 64q30 18 53 -9l80 -95q26 -31 -3 -54
q-155 -133 -409 -133q-227 0 -360.5 126t-133.5 322q0 157 78.5 290.5t214.5 211.5t299 78q207 0 324.5 -109.5t117.5 -274.5zM415 573h321q103 0 137 12t33 51q-2 53 -58 90.5t-146 37.5q-102 0 -178 -49.5t-109 -141.5z" />
    <glyph glyph-name="Eogonek" unicode="&#x118;" horiz-adv-x="1300" 
d="M1181 1400q31 0 28 -32l-27 -198q-3 -28 -32 -28h-600l-42 -295h546q31 0 28 -32l-30 -198q-3 -28 -32 -28h-550l-45 -331h597q31 0 28 -32l-27 -198q-3 -28 -32 -28h-318q-84 -7 -130.5 -51t-46.5 -98q0 -40 31.5 -63.5t96.5 -9.5v-174q-36 -16 -82 -20.5t-94 5.5
t-88.5 33t-66.5 68t-26 105q0 121 112 205h-250q-31 0 -28 32l188 1340q3 28 32 28h860z" />
    <glyph glyph-name="eogonek" unicode="&#x119;" 
d="M1155 618q0 -53 -13 -92.5t-47 -73.5t-100 -52t-163 -18h-451q2 -87 73 -134t195 -47q143 0 245 64q30 18 53 -9l80 -95q26 -31 -3 -54q-76 -65 -178 -99v-8q-186 -52 -186 -158q0 -41 31.5 -64.5t96.5 -9.5v-174q-45 -20 -105 -21t-116.5 17.5t-95.5 69t-39 125.5
q0 112 101 194q-192 23 -302 144.5t-110 298.5q0 157 78.5 290.5t214.5 211.5t299 78q207 0 324.5 -109.5t117.5 -274.5zM415 573h321q103 0 137 12t33 51q-2 53 -58 90.5t-146 37.5q-102 0 -178 -49.5t-109 -141.5z" />
    <glyph glyph-name="Ecaron" unicode="&#x11a;" horiz-adv-x="1243" 
d="M791 1693l165 149q14 14 38 14h223q19 0 24 -11t-8 -25l-266 -267q-16 -16 -38 -16h-303q-26 0 -36 18l-192 265q-10 15 -4 25.5t24 10.5h220q21 0 36 -18zM1022 258q31 0 28 -32l-27 -198q-3 -28 -32 -28h-862q-31 0 -28 32l188 1340q3 28 32 28h860q31 0 28 -32
l-27 -198q-3 -28 -32 -28h-600l-42 -295h546q31 0 28 -32l-30 -198q-3 -28 -32 -28h-550l-45 -331h597z" />
    <glyph glyph-name="ecaron" unicode="&#x11b;" 
d="M1163 1436q19 0 24 -11t-8 -25l-266 -267q-16 -16 -38 -16h-303q-26 0 -36 18l-192 265q-10 15 -4 25.5t24 10.5h220q21 0 36 -18l117 -145l165 149q14 14 38 14h223zM713 1002q207 0 324.5 -109.5t117.5 -274.5q0 -53 -13 -92.5t-47 -73.5t-100 -52t-163 -18h-451
q2 -87 73 -134t195 -47q143 0 245 64q30 18 53 -9l80 -95q26 -31 -3 -54q-155 -133 -409 -133q-227 0 -360.5 126t-133.5 322q0 157 78.5 290.5t214.5 211.5t299 78zM736 573q103 0 137 12t33 51q-2 53 -58 90.5t-146 37.5q-102 0 -178 -49.5t-109 -141.5h321z" />
    <glyph glyph-name="Gbreve" unicode="&#x11e;" horiz-adv-x="1643" 
d="M1148 1810q9 27 37 27h120q16 0 22.5 -13.5t1.5 -35.5q-29 -121 -125 -198t-238 -77q-150 0 -231.5 85t-75.5 202q2 19 7.5 28t20.5 9h118q29 0 32 -38q5 -50 40 -79.5t97 -29.5q68 0 113 36t61 84zM1497 790q19 0 29.5 -13t7.5 -33l-15 -96q-47 -308 -236.5 -491
t-478.5 -183q-184 0 -330.5 83t-228 228.5t-81.5 325.5q0 162 67.5 311.5t178.5 257t260 172t307 64.5q148 0 267.5 -56.5t196.5 -154.5q25 -31 1 -51l-143 -129q-20 -22 -50 4q-126 101 -291 101q-132 0 -246.5 -71t-181.5 -189.5t-67 -252.5q0 -157 98.5 -257t259.5 -100
q162 0 269 84t130 205h-332q-14 0 -22.5 9.5t-7.5 22.5l25 181q3 28 30 28h584z" />
    <glyph glyph-name="gbreve" unicode="&#x11f;" horiz-adv-x="1259" 
d="M727 1093q-150 0 -231.5 85t-75.5 202q2 19 7.5 28t20.5 9h118q29 0 32 -38q5 -50 40 -79.5t97 -29.5q68 0 113 36t61 84q9 27 37 27h120q16 0 22.5 -13.5t1.5 -35.5q-29 -121 -125 -198t-238 -77zM1135 980q31 0 28 -32l-132 -928q-14 -96 -49 -170t-82 -119.5
t-108.5 -74.5t-123 -40.5t-131.5 -11.5q-115 0 -219.5 37.5t-170.5 97.5q-25 23 -13 42l93 134q15 24 42 7q136 -85 284 -85q96 0 152 43t71 140l13 84q-22 -58 -86 -94t-156 -36q-185 0 -304.5 120t-119.5 332q0 124 42 233t112.5 183.5t163 117t191.5 42.5
q95 0 163.5 -36.5t97.5 -103.5h14l17 94q4 24 34 24h177zM597 235q75 0 133 42.5t86.5 107.5t28.5 140q0 109 -53.5 162.5t-143.5 53.5q-106 0 -181 -77t-75 -212q0 -106 62 -161.5t143 -55.5z" />
    <glyph glyph-name="Gdotaccent" unicode="&#x120;" horiz-adv-x="1643" 
d="M979 1546q-58 0 -99.5 41.5t-41.5 101.5q0 59 41.5 100t99.5 41t99.5 -41t41.5 -100q0 -60 -41.5 -101.5t-99.5 -41.5zM1497 790q19 0 29.5 -13t7.5 -33l-15 -96q-47 -308 -236.5 -491t-478.5 -183q-184 0 -330.5 83t-228 228.5t-81.5 325.5q0 162 67.5 311.5t178.5 257
t260 172t307 64.5q148 0 267.5 -56.5t196.5 -154.5q25 -31 1 -51l-143 -129q-20 -22 -50 4q-126 101 -291 101q-132 0 -246.5 -71t-181.5 -189.5t-67 -252.5q0 -157 98.5 -257t259.5 -100q162 0 269 84t130 205h-332q-14 0 -22.5 9.5t-7.5 22.5l25 181q3 28 30 28h584z" />
    <glyph glyph-name="gdotaccent" unicode="&#x121;" horiz-adv-x="1259" 
d="M740 1126q-58 0 -99.5 41.5t-41.5 101.5q0 59 41.5 100t99.5 41t99.5 -41t41.5 -100q0 -60 -41.5 -101.5t-99.5 -41.5zM1135 980q31 0 28 -32l-132 -928q-14 -96 -49 -170t-82 -119.5t-108.5 -74.5t-123 -40.5t-131.5 -11.5q-115 0 -219.5 37.5t-170.5 97.5
q-25 23 -13 42l93 134q15 24 42 7q136 -85 284 -85q96 0 152 43t71 140l13 84q-22 -58 -86 -94t-156 -36q-185 0 -304.5 120t-119.5 332q0 124 42 233t112.5 183.5t163 117t191.5 42.5q95 0 163.5 -36.5t97.5 -103.5h14l17 94q4 24 34 24h177zM597 235q75 0 133 42.5
t86.5 107.5t28.5 140q0 109 -53.5 162.5t-143.5 53.5q-106 0 -181 -77t-75 -212q0 -106 62 -161.5t143 -55.5z" />
    <glyph glyph-name="Gcommaaccent" unicode="&#x122;" horiz-adv-x="1643" 
d="M1497 790q19 0 29.5 -13t7.5 -33l-15 -96q-47 -308 -236.5 -491t-478.5 -183q-184 0 -330.5 83t-228 228.5t-81.5 325.5q0 162 67.5 311.5t178.5 257t260 172t307 64.5q148 0 267.5 -56.5t196.5 -154.5q25 -31 1 -51l-143 -129q-20 -22 -50 4q-126 101 -291 101
q-132 0 -246.5 -71t-181.5 -189.5t-67 -252.5q0 -157 98.5 -257t259.5 -100q162 0 269 84t130 205h-332q-14 0 -22.5 9.5t-7.5 22.5l25 181q3 28 30 28h584zM513 -391q-30 0 -25 29l22 154q3 25 29 25h442q29 0 25 -28l-13 -94q-35 -254 -122 -416q-20 -35 -62 -35h-97
q-17 0 -25 12.5t-1 30.5q23 65 43.5 159.5t27.5 162.5h-244z" />
    <glyph glyph-name="gcommaaccent" unicode="&#x123;" horiz-adv-x="1259" 
d="M377 1204q-29 0 -25 28l13 94q35 254 122 416q20 35 62 35h97q17 0 25 -12.5t1 -30.5q-23 -65 -43.5 -159.5t-27.5 -162.5h244q30 0 25 -29l-22 -154q-3 -25 -29 -25h-442zM1135 980q31 0 28 -32l-132 -928q-14 -96 -49 -170t-82 -119.5t-108.5 -74.5t-123 -40.5
t-131.5 -11.5q-115 0 -219.5 37.5t-170.5 97.5q-25 23 -13 42l93 134q15 24 42 7q136 -85 284 -85q96 0 152 43t71 140l13 84q-22 -58 -86 -94t-156 -36q-185 0 -304.5 120t-119.5 332q0 124 42 233t112.5 183.5t163 117t191.5 42.5q95 0 163.5 -36.5t97.5 -103.5h14l17 94
q4 24 34 24h177zM597 235q75 0 133 42.5t86.5 107.5t28.5 140q0 109 -53.5 162.5t-143.5 53.5q-106 0 -181 -77t-75 -212q0 -106 62 -161.5t143 -55.5z" />
    <glyph glyph-name="Hbar" unicode="&#x126;" horiz-adv-x="1489" 
d="M1420 1400q32 0 27 -32l-188 -1340q-4 -28 -32 -28h-232q-32 0 -27 32l77 546h-576l-77 -550q-4 -28 -32 -28h-232q-32 0 -27 32l188 1340q4 28 32 28h232q32 0 27 -32l-27 -195h575l28 199q4 28 32 28h232zM505 836h576l14 102h-575z" />
    <glyph glyph-name="hbar" unicode="&#x127;" horiz-adv-x="1278" 
d="M1084 203q33 -2 28 -41l-17 -106q-5 -31 -43 -50.5t-95 -19.5q-111 0 -163.5 63t-39.5 157l46 332q15 109 -31.5 156t-120.5 47q-73 0 -123.5 -33t-77.5 -81l-86 -599q-3 -28 -32 -28h-220q-34 0 -28 32l146 1019h-90q-31 0 -28 32l23 159q3 28 32 28h94l15 102
q3 28 32 28h220q31 0 28 -32l-14 -98h169q31 0 28 -32l-23 -159q-3 -28 -32 -28h-173l-33 -225h9q33 80 109.5 128t182.5 48q79 0 143.5 -29.5t108 -83t61 -135t2.5 -179.5l-46 -293q-7 -45 6 -62t33 -17z" />
    <glyph glyph-name="Imacron" unicode="&#x12a;" horiz-adv-x="1322" 
d="M1118 1816q31 0 28 -32l-23 -159q-3 -28 -32 -28h-544q-31 0 -28 32l23 159q3 28 32 28h544zM1262 1170q-4 -28 -32 -28h-331l-124 -884h327q32 0 27 -32l-27 -198q-4 -28 -32 -28h-952q-32 0 -27 32l27 198q4 28 32 28h332l124 884h-328q-32 0 -26 32l27 198q4 28 32 28
h952q32 0 27 -32z" />
    <glyph glyph-name="imacron" unicode="&#x12b;" horiz-adv-x="1232" 
d="M1014 1396q31 0 28 -32l-23 -159q-3 -28 -32 -28h-544q-31 0 -28 32l23 159q3 28 32 28h544zM1103 157q10 -23 -6 -42q-44 -50 -134.5 -92.5t-199.5 -42.5q-56 0 -106.5 9t-98.5 30t-83 54.5t-60.5 81.5t-30.5 112.5t7 146.5l58 337h-305q-15 0 -22.5 8.5t-5.5 23.5
l25 169q4 28 32 28h557q32 0 27 -32l-81 -511q-8 -65 -2 -107t29 -66.5t48.5 -34t56.5 -9.5q91 0 180 75q12 13 31.5 10.5t27.5 -22.5z" />
    <glyph glyph-name="iogonek" unicode="&#x12f;" horiz-adv-x="1300" 
d="M726 1126q-58 0 -99.5 41.5t-41.5 101.5q0 59 41.5 100t99.5 41t99.5 -41t41.5 -100q0 -60 -41.5 -101.5t-99.5 -41.5zM1103 157q10 -23 -6 -42q-37 -43 -112.5 -82.5t-167.5 -49.5q-49 -19 -75.5 -55.5t-26.5 -76.5t31.5 -63.5t96.5 -9.5v-174q-36 -16 -82 -20.5
t-94 5.5t-88.5 33t-66.5 68t-26 105q0 121 115 208q-57 18 -100 49t-75.5 81.5t-40 119t5.5 161.5l58 337h-305q-15 0 -22.5 8.5t-5.5 23.5l25 169q4 28 32 28h557q32 0 27 -32l-81 -511q-8 -65 -2 -107t29 -66.5t48.5 -34t56.5 -9.5q91 0 180 75q12 13 31.5 10.5
t27.5 -22.5z" />
    <glyph glyph-name="Idotaccent" unicode="&#x130;" horiz-adv-x="1322" 
d="M830 1546q-58 0 -99.5 41.5t-41.5 101.5q0 59 41.5 100t99.5 41t99.5 -41t41.5 -100q0 -60 -41.5 -101.5t-99.5 -41.5zM1262 1170q-4 -28 -32 -28h-331l-124 -884h327q32 0 27 -32l-27 -198q-4 -28 -32 -28h-952q-32 0 -27 32l27 198q4 28 32 28h332l124 884h-328
q-32 0 -26 32l27 198q4 28 32 28h952q32 0 27 -32z" />
    <glyph glyph-name="dotlessi" unicode="&#x131;" horiz-adv-x="1232" 
d="M1103 157q10 -23 -6 -42q-44 -50 -134.5 -92.5t-199.5 -42.5q-56 0 -106.5 9t-98.5 30t-83 54.5t-60.5 81.5t-30.5 112.5t7 146.5l58 337h-305q-15 0 -22.5 8.5t-5.5 23.5l25 169q4 28 32 28h557q32 0 27 -32l-81 -511q-8 -65 -2 -107t29 -66.5t48.5 -34t56.5 -9.5
q91 0 180 75q12 13 31.5 10.5t27.5 -22.5z" />
    <glyph glyph-name="IJ" unicode="&#x132;" horiz-adv-x="1461" 
d="M289 1372q3 28 32 28h232q31 0 28 -32l-188 -1340q-3 -28 -32 -28h-232q-31 0 -28 32zM705 1142q-31 0 -28 32l27 198q3 28 32 28h655q31 0 28 -32l-115 -818q-17 -122 -56 -218.5t-92.5 -161.5t-122 -107.5t-142.5 -61.5t-157 -19q-133 0 -226 68q-28 21 -12 46l90 154
q14 22 41 14q45 -15 100 -15q106 0 184.5 76.5t102.5 241.5l81 575h-390z" />
    <glyph glyph-name="ij" unicode="&#x133;" horiz-adv-x="1511" 
d="M410 1159q-63 0 -108 44.5t-45 108.5t45 108.5t108 44.5q64 0 109 -44.5t45 -108.5t-45 -108.5t-109 -44.5zM1312 1159q-64 0 -108.5 44.5t-44.5 108.5t44.5 108.5t108.5 44.5t108.5 -44.5t44.5 -108.5t-44.5 -108.5t-108.5 -44.5zM488 980q33 0 28 -32l-128 -920
q-4 -28 -32 -28h-222q-33 0 -28 32l127 920q6 28 33 28h222zM1379 980q13 0 23.5 -12t8.5 -26l-128 -909q-13 -96 -47 -170t-79.5 -119.5t-105 -74.5t-119.5 -40.5t-128 -11.5q-64 0 -126 14t-106 35.5t-76.5 46t-44.5 46.5t-3 36l90 132q23 30 57 4q82 -65 201 -65
q78 0 136 51t76 172l94 662h-402q-34 0 -28 32l23 169q3 28 32 28h652z" />
    <glyph glyph-name="Kcommaaccent" unicode="&#x136;" horiz-adv-x="1335" 
d="M1320 1400q20 0 24.5 -11.5t-9.5 -25.5l-565 -571l409 -756q8 -16 2 -26t-23 -10h-256q-24 0 -36 21l-305 560l-107 -108l-62 -445q-4 -28 -32 -28h-232q-32 0 -27 32l188 1340q4 28 32 28h232q32 0 27 -32l-70 -500l495 516q15 16 37 16h278zM853 -183q29 0 25 -28
l-13 -94q-35 -254 -122 -416q-20 -35 -62 -35h-97q-17 0 -25 12.5t-1 30.5q23 65 43.5 159.5t27.5 162.5h-244q-30 0 -25 29l22 154q3 25 29 25h442z" />
    <glyph glyph-name="kcommaaccent" unicode="&#x137;" horiz-adv-x="1243" 
d="M1121 979q20 0 29 -15t-4 -27l-424 -377l344 -531q9 -15 7 -22.5t-19 -7.5h-246q-17 0 -34 25l-236 371l-142 -126l-35 -241q-3 -28 -32 -28h-220q-34 0 -28 32l192 1340q3 28 32 28h220q31 0 28 -32l-107 -749l381 351q3 3 6 5.5t7 3t6 0.5h7h7h261zM862 -183
q29 0 25 -28l-13 -94q-35 -254 -122 -416q-20 -35 -62 -35h-97q-17 0 -25 12.5t-1 30.5q23 65 43.5 159.5t27.5 162.5h-244q-30 0 -25 29l22 154q3 25 29 25h442z" />
    <glyph glyph-name="Lacute" unicode="&#x139;" horiz-adv-x="1162" 
d="M333 1484q-18 0 -23.5 10.5t3.5 25.5l160 254q11 20 36 20h198q18 0 23.5 -10.5t-3.5 -25.5l-158 -254q-11 -20 -36 -20h-200zM425 258h606q32 0 28 -32l-27 -198q-4 -28 -32 -28h-871q-31 0 -28 32l188 1340q3 28 32 28h232q31 0 28 -32z" />
    <glyph glyph-name="lacute" unicode="&#x13a;" horiz-adv-x="1202" 
d="M274 1532q-18 0 -23.5 10.5t3.5 25.5l160 254q11 20 36 20h198q18 0 23.5 -10.5t-3.5 -25.5l-158 -254q-11 -20 -36 -20h-200zM1135 159q12 -25 -7 -45q-48 -51 -146 -92.5t-225 -41.5q-67 0 -126 13.5t-113.5 44.5t-87.5 81t-49 123t2 172l122 757h-321q-32 0 -28 32
l23 169q4 28 32 28h571q15 0 22.5 -8.5t5.5 -23.5l-143 -932q-19 -118 29 -167t128 -49q101 0 201 80q13 11 28 6t23 -23z" />
    <glyph glyph-name="Lcommaaccent" unicode="&#x13b;" horiz-adv-x="1162" 
d="M425 258h606q32 0 28 -32l-27 -198q-4 -28 -32 -28h-871q-31 0 -28 32l188 1340q3 28 32 28h232q31 0 28 -32zM299 -391q-30 0 -25 29l22 154q3 25 29 25h442q29 0 25 -28l-13 -94q-35 -254 -122 -416q-20 -35 -62 -35h-97q-17 0 -25 12.5t-1 30.5q23 65 43.5 159.5
t27.5 162.5h-244z" />
    <glyph glyph-name="lcommaaccent" unicode="&#x13c;" horiz-adv-x="1202" 
d="M1135 159q12 -25 -7 -45q-48 -51 -146 -92.5t-225 -41.5q-67 0 -126 13.5t-113.5 44.5t-87.5 81t-49 123t2 172l122 757h-321q-32 0 -28 32l23 169q4 28 32 28h571q15 0 22.5 -8.5t5.5 -23.5l-143 -932q-19 -118 29 -167t128 -49q101 0 201 80q13 11 28 6t23 -23z
M378 -391q-30 0 -25 29l22 154q3 25 29 25h442q29 0 25 -28l-13 -94q-35 -254 -122 -416q-20 -35 -62 -35h-97q-17 0 -25 12.5t-1 30.5q23 65 43.5 159.5t27.5 162.5h-244z" />
    <glyph glyph-name="Lcaron" unicode="&#x13d;" horiz-adv-x="1162" 
d="M425 258h606q32 0 28 -32l-27 -198q-4 -28 -32 -28h-871q-31 0 -28 32l188 1340q3 28 32 28h232q31 0 28 -32zM677 1169q-33 0 -28 32l24 171q4 28 32 28h490q33 0 28 -32l-15 -104q-38 -283 -135 -461q-21 -38 -68 -38h-108q-18 0 -27 13.5t-2 33.5q26 72 48.5 176.5
t30.5 180.5h-270z" />
    <glyph glyph-name="lcaron" unicode="&#x13e;" horiz-adv-x="1326" 
d="M1135 159q12 -25 -7 -45q-48 -51 -146 -92.5t-225 -41.5q-67 0 -126 13.5t-113.5 44.5t-87.5 81t-49 123t2 172l122 757h-321q-32 0 -28 32l23 169q4 28 32 28h571q15 0 22.5 -8.5t5.5 -23.5l-143 -932q-19 -118 29 -167t128 -49q101 0 201 80q13 11 28 6t23 -23z
M912 1169q-33 0 -28 32l24 171q4 28 32 28h490q33 0 28 -32l-15 -104q-38 -283 -135 -461q-21 -38 -68 -38h-108q-18 0 -27 13.5t-2 33.5q26 72 48.5 176.5t30.5 180.5h-270z" />
    <glyph glyph-name="Ldot" unicode="&#x13f;" horiz-adv-x="1162" 
d="M425 258h606q32 0 28 -32l-27 -198q-4 -28 -32 -28h-871q-31 0 -28 32l188 1340q3 28 32 28h232q31 0 28 -32zM943 580q-83 0 -141 58t-58 141q0 82 58.5 140t140.5 58t140.5 -58t58.5 -140t-58.5 -140.5t-140.5 -58.5z" />
    <glyph glyph-name="ldot" unicode="&#x140;" horiz-adv-x="1327" 
d="M1135 159q12 -25 -7 -45q-48 -51 -146 -92.5t-225 -41.5q-67 0 -126 13.5t-113.5 44.5t-87.5 81t-49 123t2 172l122 757h-321q-32 0 -28 32l23 169q4 28 32 28h571q15 0 22.5 -8.5t5.5 -23.5l-143 -932q-19 -118 29 -167t128 -49q101 0 201 80q13 11 28 6t23 -23z
M1055 576q-83 0 -141 58t-58 141q0 82 58.5 140t140.5 58t140.5 -58t58.5 -140t-58.5 -140.5t-140.5 -58.5z" />
    <glyph glyph-name="Lslash" unicode="&#x141;" horiz-adv-x="1235" 
d="M1104 258q32 0 28 -32l-27 -198q-4 -28 -32 -28h-871q-31 0 -28 32l53 376l-80 -78q-15 -14 -25.5 -9t-10.5 25v186q0 22 16 38l142 139l93 663q3 28 32 28h232q31 0 28 -32l-46 -327l97 95q15 14 25.5 9t10.5 -25v-184q0 -22 -16 -38l-159 -156l-68 -484h606z" />
    <glyph glyph-name="lslash" unicode="&#x142;" horiz-adv-x="1255" 
d="M1135 159q12 -25 -7 -45q-48 -51 -146 -92.5t-225 -41.5q-67 0 -126 13.5t-113.5 44.5t-87.5 81t-49 123t2 172l9 58l-106 -92v240l151 131l68 420h-321q-32 0 -28 32l23 169q4 28 32 28h571q15 0 22.5 -8.5t5.5 -23.5l-52 -341l114 99l2 -238l-159 -137l-48 -315
q-19 -118 29 -167t128 -49q101 0 201 80q13 11 28 6t23 -23z" />
    <glyph glyph-name="Nacute" unicode="&#x143;" horiz-adv-x="1469" 
d="M783 1510q-18 0 -23.5 10.5t3.5 25.5l160 254q11 20 36 20h198q18 0 23.5 -10.5t-3.5 -25.5l-158 -254q-11 -20 -36 -20h-200zM1393 1400q13 0 24 -12t9 -26l-188 -1340q-2 -22 -28 -22h-264q-23 0 -34 26l-390 916l-129 -920q-2 -22 -28 -22h-233q-13 0 -22.5 12
t-7.5 26l186 1329q4 33 32 33h260q23 0 34 -26l392 -918l127 911q6 33 35 33h225z" />
    <glyph glyph-name="nacute" unicode="&#x144;" horiz-adv-x="1284" 
d="M632 1090q-18 0 -23.5 10.5t3.5 25.5l160 254q11 20 36 20h198q18 0 23.5 -10.5t-3.5 -25.5l-158 -254q-11 -20 -36 -20h-200zM1090 203q33 -2 28 -41l-17 -106q-5 -31 -43 -50.5t-95 -19.5q-111 0 -163.5 63t-39.5 157l46 332q15 109 -31.5 156t-120.5 47
q-87 0 -142 -45t-75 -103l-81 -565q-3 -28 -32 -28h-220q-34 0 -28 32l132 920q3 28 32 28h208q13 0 22.5 -12t7.5 -26l-8 -116h20q33 80 109.5 128t182.5 48q79 0 143.5 -29.5t108 -83t61 -135t2.5 -179.5l-46 -293q-7 -45 6 -62t33 -17zM428 552l4 27q-4 -15 -4 -27z" />
    <glyph glyph-name="Ncommaaccent" unicode="&#x145;" horiz-adv-x="1469" 
d="M1393 1400q13 0 24 -12t9 -26l-188 -1340q-2 -22 -28 -22h-264q-23 0 -34 26l-390 916l-129 -920q-2 -22 -28 -22h-233q-13 0 -22.5 12t-7.5 26l186 1329q4 33 32 33h260q23 0 34 -26l392 -918l127 911q6 33 35 33h225zM438 -391q-30 0 -25 29l22 154q3 25 29 25h442
q29 0 25 -28l-13 -94q-35 -254 -122 -416q-20 -35 -62 -35h-97q-17 0 -25 12.5t-1 30.5q23 65 43.5 159.5t27.5 162.5h-244z" />
    <glyph glyph-name="ncommaaccent" unicode="&#x146;" horiz-adv-x="1284" 
d="M1090 203q33 -2 28 -41l-17 -106q-5 -31 -43 -50.5t-95 -19.5q-111 0 -163.5 63t-39.5 157l46 332q15 109 -31.5 156t-120.5 47q-87 0 -142 -45t-75 -103l-81 -565q-3 -28 -32 -28h-220q-34 0 -28 32l132 920q3 28 32 28h208q13 0 22.5 -12t7.5 -26l-8 -116h20
q33 80 109.5 128t182.5 48q79 0 143.5 -29.5t108 -83t61 -135t2.5 -179.5l-46 -293q-7 -45 6 -62t33 -17zM428 552l4 27q-4 -15 -4 -27zM814 -183q29 0 25 -28l-13 -94q-35 -254 -122 -416q-20 -35 -62 -35h-97q-17 0 -25 12.5t-1 30.5q23 65 43.5 159.5t27.5 162.5h-244
q-30 0 -25 29l22 154q3 25 29 25h442z" />
    <glyph glyph-name="Ncaron" unicode="&#x147;" horiz-adv-x="1469" 
d="M899 1693l165 149q14 14 38 14h223q19 0 24 -11t-8 -25l-266 -267q-16 -16 -38 -16h-303q-26 0 -36 18l-192 265q-10 15 -4 25.5t24 10.5h220q21 0 36 -18zM1393 1400q13 0 24 -12t9 -26l-188 -1340q-2 -22 -28 -22h-264q-23 0 -34 26l-390 916l-129 -920q-2 -22 -28 -22
h-233q-13 0 -22.5 12t-7.5 26l186 1329q4 33 32 33h260q23 0 34 -26l392 -918l127 911q6 33 35 33h225z" />
    <glyph glyph-name="ncaron" unicode="&#x148;" horiz-adv-x="1284" 
d="M1174 1436q20 0 25 -11t-9 -25l-266 -267q-16 -16 -38 -16h-303q-25 0 -36 18l-192 265q-10 15 -4 25.5t24 10.5h220q21 0 36 -18l117 -145l165 149q14 14 38 14h223zM1090 203q33 -2 28 -41l-17 -106q-5 -31 -43 -50.5t-95 -19.5q-111 0 -163.5 63t-39.5 157l46 332
q15 109 -31.5 156t-120.5 47q-87 0 -142 -45t-75 -103l-81 -565q-3 -28 -32 -28h-220q-34 0 -28 32l132 920q3 28 32 28h208q13 0 22.5 -12t7.5 -26l-8 -116h20q33 80 109.5 128t182.5 48q79 0 143.5 -29.5t108 -83t61 -135t2.5 -179.5l-46 -293q-7 -45 6 -62t33 -17z
M428 552l4 27q-4 -15 -4 -27z" />
    <glyph glyph-name="Eng" unicode="&#x14a;" horiz-adv-x="1468" 
d="M1393 1400q13 0 24 -12t9 -26l-194 -1370q-17 -118 -62 -197.5t-123 -125.5t-177.5 -65t-238.5 -19l24 263q226 0 293 94l-426 1000l-129 -920q-2 -22 -28 -22h-233q-13 0 -22.5 12t-7.5 26l186 1329q4 33 32 33h260q23 0 34 -26l392 -918l127 911q4 33 35 33h225z" />
    <glyph glyph-name="eng" unicode="&#x14b;" horiz-adv-x="1205" 
d="M1007 -12q-29 -190 -148.5 -287t-298.5 -97q-12 0 -20.5 7.5t-10.5 16.5l-40 226q-1 14 1 14q88 0 162 56.5t90 158.5l64 455q8 57 -2.5 98.5t-34.5 63.5t-52 31.5t-61 9.5q-48 0 -88.5 -17t-66.5 -44t-42 -52.5t-25 -51.5l-78 -548q-3 -28 -32 -28h-220q-34 0 -28 32
l132 920q3 28 32 28h208q13 0 22.5 -12t7.5 -26l-8 -116h20q33 80 109.5 128t182.5 48q162 0 253 -115.5t62 -311.5z" />
    <glyph glyph-name="Omacron" unicode="&#x14c;" horiz-adv-x="1727" 
d="M1319 1816q31 0 28 -32l-23 -159q-3 -28 -32 -28h-544q-31 0 -28 32l23 159q3 28 32 28h544zM800 -26q-148 0 -275.5 58t-212 156.5t-123.5 235.5t-18 287q28 193 146 355.5t293.5 256t366.5 93.5q149 0 276.5 -58t212.5 -156.5t124 -236t18 -288.5q-28 -192 -146 -354
t-294 -255.5t-368 -93.5zM823 256q121 0 230 60.5t180 165t86 229.5q22 179 -83.5 301t-280.5 122q-121 0 -229.5 -60.5t-179.5 -165.5t-86 -231q-22 -178 83.5 -299.5t279.5 -121.5z" />
    <glyph glyph-name="omacron" unicode="&#x14d;" 
d="M1033 1396q31 0 28 -32l-23 -159q-3 -28 -32 -28h-544q-31 0 -28 32l23 159q3 28 32 28h544zM589 -26q-202 0 -333.5 134.5t-131.5 336.5q0 114 45 218t120.5 178t177.5 117.5t212 43.5q202 0 334.5 -133t132.5 -334q0 -150 -73.5 -279t-202.5 -205.5t-281 -76.5z
M609 235q111 0 187 77.5t76 207.5q0 98 -59 159.5t-152 61.5q-112 0 -188.5 -81.5t-76.5 -203.5q0 -98 60 -159.5t153 -61.5z" />
    <glyph glyph-name="Ohungarumlaut" unicode="&#x150;" horiz-adv-x="1727" 
d="M721 1510q-18 0 -23.5 10.5t3.5 25.5l160 254q11 20 36 20h198q18 0 23.5 -10.5t-3.5 -25.5l-158 -254q-11 -20 -36 -20h-200zM1099 1510q-18 0 -23.5 10.5t3.5 25.5l160 254q11 20 36 20h198q18 0 23.5 -10.5t-3.5 -25.5l-158 -254q-11 -20 -36 -20h-200zM800 -26
q-148 0 -275.5 58t-212 156.5t-123.5 235.5t-18 287q28 193 146 355.5t293.5 256t366.5 93.5q149 0 276.5 -58t212.5 -156.5t124 -236t18 -288.5q-28 -192 -146 -354t-294 -255.5t-368 -93.5zM823 256q121 0 230 60.5t180 165t86 229.5q22 179 -83.5 301t-280.5 122
q-121 0 -229.5 -60.5t-179.5 -165.5t-86 -231q-22 -178 83.5 -299.5t279.5 -121.5z" />
    <glyph glyph-name="ohungarumlaut" unicode="&#x151;" 
d="M435 1090q-18 0 -23.5 10.5t3.5 25.5l160 254q11 20 36 20h198q18 0 23.5 -10.5t-3.5 -25.5l-158 -254q-11 -20 -36 -20h-200zM813 1090q-18 0 -23.5 10.5t3.5 25.5l160 254q11 20 36 20h198q18 0 23.5 -10.5t-3.5 -25.5l-158 -254q-11 -20 -36 -20h-200zM589 -26
q-202 0 -333.5 134.5t-131.5 336.5q0 114 45 218t120.5 178t177.5 117.5t212 43.5q202 0 334.5 -133t132.5 -334q0 -150 -73.5 -279t-202.5 -205.5t-281 -76.5zM609 235q111 0 187 77.5t76 207.5q0 98 -59 159.5t-152 61.5q-112 0 -188.5 -81.5t-76.5 -203.5
q0 -98 60 -159.5t153 -61.5z" />
    <glyph glyph-name="OE" unicode="&#x152;" horiz-adv-x="1359" 
d="M1294 1142h-258l-41 -295h208l-36 -258h-208l-47 -331h260l-37 -258h-545q-96 -1 -166 12t-125 43t-87.5 78t-49.5 120.5t-16.5 168t17.5 222.5l16 121q25 189 68 310.5t117 195t173.5 102t247.5 27.5h545zM448 628q-9 -62 -13.5 -108t-3 -82t5.5 -60.5t16.5 -42
t25.5 -27t37.5 -14.5t47 -6.5t59.5 -1.5l117 828q-66 0 -105.5 -12.5t-74 -51.5t-56 -111.5t-39.5 -192.5z" />
    <glyph glyph-name="oe" unicode="&#x153;" horiz-adv-x="2022" 
d="M1902 618q0 -53 -13 -92.5t-47 -73.5t-100 -52t-163 -18h-451q2 -87 73 -134t195 -47q143 0 245 64q30 18 53 -9l80 -95q26 -31 -3 -54q-155 -133 -409 -133q-253 0 -389 155q-163 -155 -384 -155q-202 0 -333.5 134.5t-131.5 336.5q0 114 45 218t120.5 178t177.5 117.5
t212 43.5q112 0 206.5 -44t158.5 -123q81 79 188 123t228 44q207 0 324.5 -109.5t117.5 -274.5zM1162 573h321q103 0 137 12t33 51q-2 53 -58 90.5t-146 37.5q-102 0 -178 -49.5t-109 -141.5zM609 235q111 0 187 77.5t76 207.5q0 98 -59 159.5t-152 61.5
q-112 0 -188.5 -81.5t-76.5 -203.5q0 -98 60 -159.5t153 -61.5z" />
    <glyph glyph-name="Racute" unicode="&#x154;" horiz-adv-x="1404" 
d="M583 1510q-18 0 -23.5 10.5t3.5 25.5l160 254q11 20 36 20h198q18 0 23.5 -10.5t-3.5 -25.5l-158 -254q-11 -20 -36 -20h-200zM1003 512l182 -482q12 -30 -23 -30h-218q-25 0 -37 30l-167 441q-16 -1 -48 -1h-237l-63 -442q-4 -28 -32 -28h-232q-32 0 -27 32l188 1340
q4 28 32 28h490q270 0 387.5 -90t117.5 -275q0 -217 -77.5 -344t-235.5 -179zM549 1142l-58 -414h246q148 0 223 64.5t75 205.5q0 85 -54 114.5t-173 29.5h-259z" />
    <glyph glyph-name="racute" unicode="&#x155;" horiz-adv-x="1192" 
d="M585 1090q-18 0 -23.5 10.5t3.5 25.5l160 254q11 20 36 20h198q18 0 23.5 -10.5t-3.5 -25.5l-158 -254q-11 -20 -36 -20h-200zM804 1002q170 0 257 -114t57 -313q-4 -33 -43 -37l-204 -26q-19 -2 -28.5 6.5t-6.5 28.5q18 105 -27.5 149t-122.5 44q-48 0 -89 -13.5
t-67.5 -32.5t-47.5 -45.5t-31.5 -47t-18.5 -42.5l-76 -531q-4 -28 -32 -28h-220q-32 0 -28 32l132 920q4 28 32 28h208q13 0 22 -12t8 -26l-8 -116v-2h21q81 178 313 178z" />
    <glyph glyph-name="Rcommaaccent" unicode="&#x156;" horiz-adv-x="1404" 
d="M1003 512l182 -482q12 -30 -23 -30h-218q-25 0 -37 30l-167 441q-16 -1 -48 -1h-237l-63 -442q-4 -28 -32 -28h-232q-32 0 -27 32l188 1340q4 28 32 28h490q270 0 387.5 -90t117.5 -275q0 -217 -77.5 -344t-235.5 -179zM549 1142l-58 -414h246q148 0 223 64.5t75 205.5
q0 85 -54 114.5t-173 29.5h-259zM903 -183q29 0 25 -28l-13 -94q-35 -254 -122 -416q-20 -35 -62 -35h-97q-17 0 -25 12.5t-1 30.5q23 65 43.5 159.5t27.5 162.5h-244q-30 0 -25 29l22 154q3 25 29 25h442z" />
    <glyph glyph-name="rcommaaccent" unicode="&#x157;" horiz-adv-x="1192" 
d="M804 1002q170 0 257 -114t57 -313q-4 -33 -43 -37l-204 -26q-19 -2 -28.5 6.5t-6.5 28.5q18 105 -27.5 149t-122.5 44q-48 0 -89 -13.5t-67.5 -32.5t-47.5 -45.5t-31.5 -47t-18.5 -42.5l-76 -531q-4 -28 -32 -28h-220q-32 0 -28 32l132 920q4 28 32 28h208q13 0 22 -12
t8 -26l-8 -116v-2h21q81 178 313 178zM767 -183q29 0 25 -28l-13 -94q-35 -254 -122 -416q-20 -35 -62 -35h-97q-17 0 -25 12.5t-1 30.5q23 65 43.5 159.5t27.5 162.5h-244q-30 0 -25 29l22 154q3 25 29 25h442z" />
    <glyph glyph-name="Rcaron" unicode="&#x158;" horiz-adv-x="1404" 
d="M498 1555l-192 265q-10 15 -4 25.5t24 10.5h220q21 0 36 -18l117 -145l165 149q14 14 38 14h223q19 0 24 -11t-8 -25l-266 -267q-16 -16 -38 -16h-303q-26 0 -36 18zM1003 512l182 -482q12 -30 -23 -30h-218q-25 0 -37 30l-167 441q-16 -1 -48 -1h-237l-63 -442
q-4 -28 -32 -28h-232q-32 0 -27 32l188 1340q4 28 32 28h490q270 0 387.5 -90t117.5 -275q0 -217 -77.5 -344t-235.5 -179zM549 1142l-58 -414h246q148 0 223 64.5t75 205.5q0 85 -54 114.5t-173 29.5h-259z" />
    <glyph glyph-name="rcaron" unicode="&#x159;" horiz-adv-x="1192" 
d="M1127 1436q19 0 24 -11t-8 -25l-266 -267q-16 -16 -38 -16h-303q-26 0 -36 18l-192 265q-10 15 -4 25.5t24 10.5h220q21 0 36 -18l117 -145l165 149q14 14 38 14h223zM804 1002q170 0 257 -114t57 -313q-4 -33 -43 -37l-204 -26q-19 -2 -28.5 6.5t-6.5 28.5
q18 105 -27.5 149t-122.5 44q-48 0 -89 -13.5t-67.5 -32.5t-47.5 -45.5t-31.5 -47t-18.5 -42.5l-76 -531q-4 -28 -32 -28h-220q-32 0 -28 32l132 920q4 28 32 28h208q13 0 22 -12t8 -26l-8 -116v-2h21q81 178 313 178z" />
    <glyph glyph-name="Sacute" unicode="&#x15a;" horiz-adv-x="1293" 
d="M695 1510q-18 0 -23.5 10.5t3.5 25.5l160 254q11 20 36 20h198q18 0 23.5 -10.5t-3.5 -25.5l-158 -254q-11 -20 -36 -20h-200zM664 830q61 -14 105 -25.5t99 -30.5t93 -39.5t77 -50.5t62.5 -65t38.5 -82t15 -103q0 -117 -40.5 -205.5t-117 -144t-182 -83t-238.5 -27.5
q-249 0 -368.5 90t-103.5 274q3 32 32 32h206q28 0 31 -39q5 -42 62 -69t156 -27q145 0 211 45.5t66 139.5q0 68 -45 102t-170 63q-78 18 -137 37t-119.5 51t-98.5 71t-62.5 97.5t-24.5 130.5q0 216 139.5 330t382.5 114q237 0 355.5 -86t112.5 -265q-3 -37 -48 -37h-171
q-40 0 -50 39q-30 88 -203 88q-238 0 -238 -170q0 -62 34.5 -96.5t138.5 -58.5z" />
    <glyph glyph-name="sacute" unicode="&#x15b;" horiz-adv-x="1187" 
d="M583 1090q-18 0 -23.5 10.5t3.5 25.5l160 254q11 20 36 20h198q18 0 23.5 -10.5t-3.5 -25.5l-158 -254q-11 -20 -36 -20h-200zM616 585q50 -6 82 -10.5t82 -15t83 -22.5t71.5 -33.5t61 -48t38 -65t15.5 -84.5q0 -154 -131.5 -244t-369.5 -90q-109 0 -192.5 18t-146 56
t-93 103t-26.5 154q2 31 28 31h206q26 0 28 -30q7 -103 204 -103q97 0 157 26t60 78q0 29 -25 47t-55 25t-80 15l-21 3q-15 2 -46 7q-35 5 -53.5 8t-53.5 9t-55 12t-50.5 15.5t-49 20.5t-41.5 26t-37 33.5t-27 41t-18.5 50.5t-5.5 60q0 144 122.5 234t350.5 90
q209 0 321.5 -79t109.5 -247q0 -31 -32 -31h-191q-35 0 -38 30q-10 98 -177 98q-88 0 -139 -26.5t-51 -73.5q0 -42 42.5 -59t142.5 -29z" />
    <glyph glyph-name="Scedilla" unicode="&#x15e;" horiz-adv-x="1293" 
d="M733 1416q237 0 355.5 -86t112.5 -265q-3 -37 -48 -37h-171q-40 0 -50 39q-30 88 -203 88q-238 0 -238 -170q0 -62 34.5 -96.5t138.5 -58.5q61 -14 105 -25.5t99 -30.5t93 -39.5t77 -50.5t62.5 -65t38.5 -82t15 -103q0 -215 -133 -329t-372 -129l-48 -42
q73 -7 126.5 -50.5t53.5 -115.5q0 -65 -31 -111.5t-81.5 -68t-114.5 -29t-130 5.5q-18 3 -18 22v98q0 9 6 15t16 5q78 -12 121.5 3t43.5 48q0 18 -22 32t-58 16t-83 -17q-10 -4 -17 -0.5t-7 14.5v103q0 14 10 24l54 51q-195 17 -287.5 106.5t-78.5 252.5q3 32 32 32h206
q28 0 31 -39q5 -42 62 -69t156 -27q145 0 211 45.5t66 139.5q0 68 -45 102t-170 63q-78 18 -137 37t-119.5 51t-98.5 71t-62.5 97.5t-24.5 130.5q0 216 139.5 330t382.5 114z" />
    <glyph glyph-name="scedilla" unicode="&#x15f;" horiz-adv-x="1187" 
d="M628 1002q209 0 321.5 -79t109.5 -247q0 -31 -32 -31h-191q-35 0 -38 30q-10 98 -177 98q-88 0 -139 -26.5t-51 -73.5q0 -42 42.5 -59t142.5 -29q50 -6 82 -10.5t82 -15t83 -22.5t71.5 -33.5t61 -48t38 -65t15.5 -84.5q0 -147 -119.5 -236t-337.5 -97l-44 -39
q73 -7 126.5 -50.5t53.5 -115.5q0 -65 -31 -111.5t-81.5 -68t-114.5 -29t-130 5.5q-18 3 -18 22v98q0 9 6 15t16 5q78 -12 121.5 3t43.5 48q0 18 -22 32t-58 16t-83 -17q-11 -4 -17.5 -0.5t-6.5 14.5v103q0 14 10 24l55 51q-164 20 -249.5 98.5t-78.5 225.5q2 31 28 31h206
q26 0 28 -30q7 -103 204 -103q97 0 157 26t60 78q0 29 -25 47t-55 25t-80 15l-21 3q-15 2 -46 7q-35 5 -53.5 8t-53.5 9t-55 12t-50.5 15.5t-49 20.5t-41.5 26t-37 33.5t-27 41t-18.5 50.5t-5.5 60q0 144 122.5 234t350.5 90z" />
    <glyph glyph-name="Scaron" unicode="&#x160;" horiz-adv-x="1293" 
d="M811 1693l165 149q14 14 38 14h223q19 0 24 -11t-8 -25l-266 -267q-16 -16 -38 -16h-303q-26 0 -36 18l-192 265q-10 15 -4 25.5t24 10.5h220q21 0 36 -18zM664 830q61 -14 105 -25.5t99 -30.5t93 -39.5t77 -50.5t62.5 -65t38.5 -82t15 -103q0 -117 -40.5 -205.5
t-117 -144t-182 -83t-238.5 -27.5q-249 0 -368.5 90t-103.5 274q3 32 32 32h206q28 0 31 -39q5 -42 62 -69t156 -27q145 0 211 45.5t66 139.5q0 68 -45 102t-170 63q-78 18 -137 37t-119.5 51t-98.5 71t-62.5 97.5t-24.5 130.5q0 216 139.5 330t382.5 114q237 0 355.5 -86
t112.5 -265q-3 -37 -48 -37h-171q-40 0 -50 39q-30 88 -203 88q-238 0 -238 -170q0 -62 34.5 -96.5t138.5 -58.5z" />
    <glyph glyph-name="scaron" unicode="&#x161;" horiz-adv-x="1187" 
d="M699 1273l165 149q14 14 38 14h223q19 0 24 -11t-8 -25l-266 -267q-16 -16 -38 -16h-303q-26 0 -36 18l-192 265q-10 15 -4 25.5t24 10.5h220q21 0 36 -18zM616 585q50 -6 82 -10.5t82 -15t83 -22.5t71.5 -33.5t61 -48t38 -65t15.5 -84.5q0 -154 -131.5 -244t-369.5 -90
q-109 0 -192.5 18t-146 56t-93 103t-26.5 154q2 31 28 31h206q26 0 28 -30q7 -103 204 -103q97 0 157 26t60 78q0 29 -25 47t-55 25t-80 15l-21 3q-15 2 -46 7q-35 5 -53.5 8t-53.5 9t-55 12t-50.5 15.5t-49 20.5t-41.5 26t-37 33.5t-27 41t-18.5 50.5t-5.5 60
q0 144 122.5 234t350.5 90q209 0 321.5 -79t109.5 -247q0 -31 -32 -31h-191q-35 0 -38 30q-10 98 -177 98q-88 0 -139 -26.5t-51 -73.5q0 -42 42.5 -59t142.5 -29z" />
    <glyph glyph-name="uni0162" unicode="&#x162;" horiz-adv-x="1342" 
d="M1313 1400q32 0 27 -32l-27 -198q-4 -28 -32 -28h-377l-157 -1114q-4 -28 -32 -28h-20l-75 -66q73 -7 126.5 -50.5t53.5 -115.5q0 -65 -31 -111.5t-81.5 -68t-114.5 -29t-130 5.5q-18 3 -18 22v98q0 9 6 15t16 5q78 -12 121.5 3t43.5 48q0 18 -22 32t-58 16t-83 -17
q-11 -4 -17.5 -0.5t-6.5 14.5v103q0 14 10 24l77 72h-29q-32 0 -27 32l155 1110h-373q-31 0 -26 32l27 198q4 28 32 28h1042z" />
    <glyph glyph-name="uni0163" unicode="&#x163;" horiz-adv-x="1214" 
d="M1090 980q15 0 22.5 -8.5t5.5 -23.5l-26 -169q-4 -28 -32 -28h-384l-47 -314q-7 -65 -0.5 -107t31.5 -66.5t52.5 -34t63.5 -9.5q94 0 185 76q13 11 33 7t27 -22l54 -123q10 -24 -6 -44q-40 -46 -127.5 -87t-192.5 -46l-53 -47q73 -7 126.5 -50.5t53.5 -115.5
q0 -65 -31 -111.5t-81.5 -68t-114.5 -29t-130 5.5q-18 3 -18 22v98q0 9 6 15t16 5q78 -12 121.5 3t43.5 48q0 18 -22 32t-58 16t-83 -17q-11 -4 -17.5 -0.5t-6.5 14.5v103q0 14 10 24l73 68q-63 16 -110.5 46t-84 81t-47 122t1.5 169l50 337h-250q-15 0 -22.5 8.5t-5.5 23.5
l25 169q4 28 32 28h256l39 262q6 28 33 28h221q15 0 22.5 -8.5t5.5 -23.5l-39 -258h379z" />
    <glyph glyph-name="Tcaron" unicode="&#x164;" horiz-adv-x="1342" 
d="M830 1693l165 149q14 14 38 14h223q20 0 25 -11t-9 -25l-266 -267q-16 -16 -38 -16h-303q-25 0 -36 18l-192 265q-10 15 -4 25.5t24 10.5h220q21 0 36 -18zM1313 1400q32 0 27 -32l-27 -198q-4 -28 -32 -28h-377l-157 -1114q-4 -28 -32 -28h-232q-32 0 -27 32l155 1110
h-373q-31 0 -26 32l27 198q4 28 32 28h1042z" />
    <glyph glyph-name="tcaron" unicode="&#x165;" horiz-adv-x="1214" 
d="M528 1304q-18 0 -23.5 10.5t3.5 25.5l160 254q11 20 36 20h198q18 0 23.5 -10.5t-3.5 -25.5l-158 -254q-11 -20 -36 -20h-200zM1090 980q15 0 22.5 -8.5t5.5 -23.5l-26 -169q-4 -28 -32 -28h-384l-47 -314q-7 -65 -0.5 -107t31.5 -66.5t52.5 -34t63.5 -9.5q94 0 185 76
q13 11 33 7t27 -22l54 -123q10 -24 -6 -44q-42 -49 -137.5 -91.5t-208.5 -42.5q-70 0 -129.5 13.5t-114 44.5t-87.5 81t-49 123t1 172l50 337h-250q-15 0 -22.5 8.5t-5.5 23.5l25 169q4 28 32 28h256l39 262q6 28 33 28h221q15 0 22.5 -8.5t5.5 -23.5l-39 -258h379z" />
    <glyph glyph-name="Tbar" unicode="&#x166;" horiz-adv-x="1342" 
d="M1313 1400q32 0 27 -32l-27 -198q-4 -28 -32 -28h-377l-23 -162h124q31 0 28 -32l-23 -159q-3 -28 -32 -28h-128l-103 -733q-4 -28 -32 -28h-232q-32 0 -27 32l102 729h-124q-31 0 -28 32l23 159q3 28 32 28h127l23 162h-373q-31 0 -26 32l27 198q4 28 32 28h1042z" />
    <glyph glyph-name="tbar" unicode="&#x167;" horiz-adv-x="1214" 
d="M1090 980q15 0 22.5 -8.5t5.5 -23.5l-26 -169q-4 -28 -32 -28h-384l-13 -89h334q13 0 21.5 -8t8.5 -22v-170q0 -14 -8.5 -22t-21.5 -8h-369q-16 -116 28 -164t120 -48q94 0 185 76q13 11 33 7t27 -22l54 -123q10 -24 -6 -44q-42 -49 -137.5 -91.5t-208.5 -42.5
q-70 0 -129.5 13.5t-114 44.5t-87.5 81t-49 123t1 172l3 18h-212q-13 0 -21.5 8t-8.5 22v170q0 14 8.5 22t21.5 8h246l13 89h-250q-15 0 -22.5 8.5t-5.5 23.5l25 169q4 28 32 28h256l39 262q6 28 33 28h221q15 0 22.5 -8.5t5.5 -23.5l-39 -258h379z" />
    <glyph glyph-name="Umacron" unicode="&#x16a;" horiz-adv-x="1506" 
d="M1205 1816q31 0 28 -32l-23 -159q-3 -28 -32 -28h-544q-31 0 -28 32l23 159q3 28 32 28h544zM1431 1400q33 0 28 -32l-114 -809q-21 -150 -78.5 -263.5t-144.5 -184t-196 -105.5t-239 -35q-274 0 -415 154.5t-100 450.5l112 796q4 28 32 28h232q34 0 29 -32l-115 -809
q-21 -148 42.5 -228t196.5 -80q144 0 238 87t116 238l112 796q4 28 32 28h232z" />
    <glyph glyph-name="umacron" unicode="&#x16b;" horiz-adv-x="1249" 
d="M452 1177q-31 0 -28 32l23 159q3 28 32 28h544q31 0 28 -32l-23 -159q-3 -28 -32 -28h-544zM1112 948l-96 -666q-7 -45 6 -62t33 -17q33 -2 28 -41l-17 -106q-5 -31 -43 -50.5t-95 -19.5q-97 0 -139 49t-39 130h-19q-34 -83 -110.5 -133.5t-184.5 -50.5
q-160 0 -250 117.5t-62 314.5l76 539q3 28 32 28h220q34 0 28 -32l-69 -498q-15 -109 30 -158.5t114 -49.5q117 0 195 138l82 576q3 24 34 24h218q31 0 28 -32z" />
    <glyph glyph-name="Ubreve" unicode="&#x16c;" horiz-adv-x="1506" 
d="M1086 1810q9 27 37 27h120q16 0 22.5 -13.5t1.5 -35.5q-29 -121 -125 -198t-238 -77q-150 0 -231.5 85t-75.5 202q2 19 7.5 28t20.5 9h118q29 0 32 -38q5 -50 40 -79.5t97 -29.5q68 0 113 36t61 84zM1431 1400q33 0 28 -32l-114 -809q-21 -150 -78.5 -263.5t-144.5 -184
t-196 -105.5t-239 -35q-274 0 -415 154.5t-100 450.5l112 796q4 28 32 28h232q34 0 29 -32l-115 -809q-21 -148 42.5 -228t196.5 -80q144 0 238 87t116 238l112 796q4 28 32 28h232z" />
    <glyph glyph-name="ubreve" unicode="&#x16d;" horiz-adv-x="1249" 
d="M722 1093q-150 0 -231.5 85t-75.5 202q2 19 7.5 28t20.5 9h118q29 0 32 -38q5 -50 40 -79.5t97 -29.5q68 0 113 36t61 84q9 27 37 27h120q16 0 22.5 -13.5t1.5 -35.5q-29 -121 -125 -198t-238 -77zM1112 948l-96 -666q-7 -45 6 -62t33 -17q33 -2 28 -41l-17 -106
q-5 -31 -43 -50.5t-95 -19.5q-97 0 -139 49t-39 130h-19q-34 -83 -110.5 -133.5t-184.5 -50.5q-160 0 -250 117.5t-62 314.5l76 539q3 28 32 28h220q34 0 28 -32l-69 -498q-15 -109 30 -158.5t114 -49.5q117 0 195 138l82 576q3 24 34 24h218q31 0 28 -32z" />
    <glyph glyph-name="Uring" unicode="&#x16e;" horiz-adv-x="1506" 
d="M915 1903q85 0 144.5 -60.5t59.5 -144.5q0 -83 -59.5 -143t-144.5 -60q-87 0 -147 59.5t-60 143.5t60 144.5t147 60.5zM915 1641q26 0 44 17t16 42q-1 26 -18 42.5t-42 16.5q-27 0 -44 -16.5t-17 -42.5t17 -42.5t44 -16.5zM1431 1400q33 0 28 -32l-114 -809
q-21 -150 -78.5 -263.5t-144.5 -184t-196 -105.5t-239 -35q-274 0 -415 154.5t-100 450.5l112 796q4 28 32 28h232q34 0 29 -32l-115 -809q-21 -148 42.5 -228t196.5 -80q144 0 238 87t116 238l112 796q4 28 32 28h232z" />
    <glyph glyph-name="uring" unicode="&#x16f;" horiz-adv-x="1249" 
d="M733 1075q-87 0 -147 59.5t-60 143.5t60 144.5t147 60.5q85 0 144.5 -60.5t59.5 -144.5q0 -83 -59.5 -143t-144.5 -60zM733 1339q-27 0 -44 -16.5t-17 -42.5t17 -42.5t44 -16.5q26 0 44 17t16 42q-1 26 -18 42.5t-42 16.5zM1112 948l-96 -666q-7 -45 6 -62t33 -17
q33 -2 28 -41l-17 -106q-5 -31 -43 -50.5t-95 -19.5q-97 0 -139 49t-39 130h-19q-34 -83 -110.5 -133.5t-184.5 -50.5q-160 0 -250 117.5t-62 314.5l76 539q3 28 32 28h220q34 0 28 -32l-69 -498q-15 -109 30 -158.5t114 -49.5q117 0 195 138l82 576q3 24 34 24h218
q31 0 28 -32z" />
    <glyph glyph-name="Uhungarumlaut" unicode="&#x170;" horiz-adv-x="1506" 
d="M607 1510q-18 0 -23.5 10.5t3.5 25.5l160 254q11 20 36 20h198q18 0 23.5 -10.5t-3.5 -25.5l-158 -254q-11 -20 -36 -20h-200zM985 1510q-18 0 -23.5 10.5t3.5 25.5l160 254q11 20 36 20h198q18 0 23.5 -10.5t-3.5 -25.5l-158 -254q-11 -20 -36 -20h-200zM1431 1400
q33 0 28 -32l-114 -809q-21 -150 -78.5 -263.5t-144.5 -184t-196 -105.5t-239 -35q-274 0 -415 154.5t-100 450.5l112 796q4 28 32 28h232q34 0 29 -32l-115 -809q-21 -148 42.5 -228t196.5 -80q144 0 238 87t116 238l112 796q4 28 32 28h232z" />
    <glyph glyph-name="uhungarumlaut" unicode="&#x171;" horiz-adv-x="1249" 
d="M425 1090q-18 0 -23.5 10.5t3.5 25.5l160 254q11 20 36 20h198q18 0 23.5 -10.5t-3.5 -25.5l-158 -254q-11 -20 -36 -20h-200zM1177 1400q18 0 23.5 -10.5t-3.5 -25.5l-158 -254q-11 -20 -36 -20h-200q-18 0 -23.5 10.5t3.5 25.5l160 254q11 20 36 20h198zM1084 980
q31 0 28 -32l-96 -666q-7 -45 6 -62t33 -17q33 -2 28 -41l-17 -106q-5 -31 -43 -50.5t-95 -19.5q-97 0 -139 49t-39 130h-19q-34 -83 -110.5 -133.5t-184.5 -50.5q-160 0 -250 117.5t-62 314.5l76 539q3 28 32 28h220q34 0 28 -32l-69 -498q-15 -109 30 -158.5t114 -49.5
q117 0 195 138l82 576q3 24 34 24h218z" />
    <glyph glyph-name="Uogonek" unicode="&#x172;" horiz-adv-x="1506" 
d="M1431 1400q33 0 28 -32l-114 -809q-33 -232 -149 -372t-298 -190q-166 -63 -180 -161q-4 -35 21 -52.5t92 -3.5l-12 -179q-38 -16 -85.5 -19.5t-95 8.5t-85 37t-57.5 73t-11 110q14 95 101 167q-226 27 -338.5 179.5t-75.5 419.5l112 796q4 28 32 28h232q34 0 29 -32
l-115 -809q-21 -148 42.5 -228t196.5 -80q144 0 238 87t116 238l112 796q4 28 32 28h232z" />
    <glyph glyph-name="uogonek" unicode="&#x173;" horiz-adv-x="1249" 
d="M1112 948l-96 -666q-7 -45 6 -62t33 -17q33 -2 28 -41l-17 -106q-4 -27 -33.5 -45.5t-76.5 -23.5q-55 -9 -91.5 -48.5t-36.5 -87.5q0 -40 31.5 -63.5t96.5 -9.5v-174q-46 -20 -105.5 -21t-116.5 17.5t-96 69t-39 125.5q0 155 182 249q-34 46 -31 121h-19
q-34 -83 -110.5 -133.5t-184.5 -50.5q-160 0 -250 117.5t-62 314.5l76 539q3 28 32 28h220q34 0 28 -32l-69 -498q-15 -109 30 -158.5t114 -49.5q117 0 195 138l82 576q3 24 34 24h218q31 0 28 -32z" />
    <glyph glyph-name="Wcircumflex" unicode="&#x174;" horiz-adv-x="2079" 
d="M1197 1700l-164 -149q-14 -14 -38 -14h-225q-20 0 -24.5 10.5t10.5 25.5l268 267q16 16 38 16h303q24 0 36 -18l188 -265q11 -15 5.5 -25.5t-23.5 -10.5h-221q-21 0 -36 18zM1411 386l374 990q8 24 34 24h243q17 0 23.5 -9.5t0.5 -25.5l-544 -1342q-9 -23 -34 -23h-256
q-28 0 -32 28l-136 883l-390 -888q-11 -23 -35 -23h-254q-28 0 -31 28l-164 1340q-3 32 28 32h240q29 0 32 -29l87 -985l405 991q9 23 35 23h220q29 0 32 -28z" />
    <glyph glyph-name="wcircumflex" unicode="&#x175;" horiz-adv-x="1427" 
d="M828 1280l-164 -149q-14 -14 -38 -14h-225q-20 0 -24.5 10.5t10.5 25.5l268 267q16 16 38 16h303q24 0 36 -18l188 -265q10 -15 5 -25.5t-23 -10.5h-221q-21 0 -36 18zM1292 980q30 0 30 -30q0 -147 -15 -283t-50 -263.5t-87.5 -222t-132 -151t-178.5 -56.5
q-151 0 -212 121q-88 -122 -247 -122q-152 0 -220 98t-45 249l63 431h-54q-34 0 -28 32l25 169q4 28 32 28h291q13 0 22.5 -12t7.5 -26l-89 -603q-14 -100 69 -100q79 0 95 101l90 612q3 28 32 28h181q31 0 28 -32l-83 -614q-14 -95 52 -95q58 0 101.5 107t64 266t19.5 338
q0 30 30 30h208z" />
    <glyph glyph-name="Ycircumflex" unicode="&#x176;" horiz-adv-x="1477" 
d="M478 1537q-20 0 -24.5 10.5t10.5 25.5l268 267q16 16 38 16h303q24 0 36 -18l188 -265q11 -15 5.5 -25.5t-23.5 -10.5h-221q-21 0 -36 18l-117 145l-164 -149q-14 -14 -38 -14h-225zM1492 1400q19 0 24 -11t-6 -26l-626 -826l-71 -509q-4 -28 -32 -28h-232q-32 0 -27 32
l72 517l-390 816q-7 16 -1 25.5t23 9.5h260q25 0 35 -22l255 -545l415 549q13 18 37 18h264z" />
    <glyph glyph-name="ycircumflex" unicode="&#x177;" horiz-adv-x="1240" 
d="M307 1117q-20 0 -24.5 10.5t10.5 25.5l268 267q16 16 38 16h303q24 0 36 -18l188 -265q10 -15 5 -25.5t-23 -10.5h-221q-21 0 -36 18l-117 145l-164 -149q-14 -14 -38 -14h-225zM1116 980q31 0 28 -32l-126 -868q-68 -470 -538 -470q-207 0 -319.5 75.5t-116.5 226.5
q0 30 30 30h202q23 0 33 -25q17 -44 61.5 -60t112.5 -16q114 0 175.5 56t79.5 183l16 109q-76 -163 -288 -163q-165 0 -253 107.5t-58 309.5l76 509q3 28 32 28h220q31 0 28 -32l-67 -468q-27 -193 131 -193q131 0 213 142l76 527q3 24 34 24h218z" />
    <glyph glyph-name="Ydieresis" unicode="&#x178;" horiz-adv-x="1477" 
d="M682 1556q-58 0 -99.5 41.5t-41.5 101.5q0 59 41.5 100t99.5 41t99.5 -41t41.5 -100q0 -60 -41.5 -101.5t-99.5 -41.5zM1125 1556q-58 0 -99.5 41.5t-41.5 101.5q0 59 41.5 100t99.5 41t99.5 -41t41.5 -100q0 -60 -41.5 -101.5t-99.5 -41.5zM1492 1400q19 0 24 -11
t-6 -26l-626 -826l-71 -509q-4 -28 -32 -28h-232q-32 0 -27 32l72 517l-390 816q-7 16 -1 25.5t23 9.5h260q25 0 35 -22l255 -545l415 549q13 18 37 18h264z" />
    <glyph glyph-name="Zacute" unicode="&#x179;" horiz-adv-x="1293" 
d="M695 1510q-18 0 -23.5 10.5t3.5 25.5l160 254q11 20 36 20h198q18 0 23.5 -10.5t-3.5 -25.5l-158 -254q-11 -20 -36 -20h-200zM889 1142h-589q-31 0 -28 32l27 198q3 28 32 28h882q31 0 28 -32l-31 -215q-4 -26 -16 -38l-753 -857h632q29 0 28 -32l-28 -198
q-3 -28 -32 -28h-922q-31 0 -28 32l29 215q4 26 16 38z" />
    <glyph glyph-name="zacute" unicode="&#x17a;" horiz-adv-x="1182" 
d="M575 1090q-18 0 -23.5 10.5t3.5 25.5l160 254q11 20 36 20h198q18 0 23.5 -10.5t-3.5 -25.5l-158 -254q-11 -20 -36 -20h-200zM1092 942l-25 -178q-3 -24 -14 -35l-605 -500h530q34 0 28 -32l-24 -169q-3 -28 -32 -28h-837q-13 0 -24 12t-9 26l26 178q4 26 13 35l605 500
h-529q-34 0 -28 32l23 169q3 28 32 28h838q13 0 23.5 -12t8.5 -26z" />
    <glyph glyph-name="Zdotaccent" unicode="&#x17b;" horiz-adv-x="1293" 
d="M816 1546q-58 0 -99.5 41.5t-41.5 101.5q0 59 41.5 100t99.5 41t99.5 -41t41.5 -100q0 -60 -41.5 -101.5t-99.5 -41.5zM889 1142h-589q-31 0 -28 32l27 198q3 28 32 28h882q31 0 28 -32l-31 -215q-4 -26 -16 -38l-753 -857h632q29 0 28 -32l-28 -198q-3 -28 -32 -28h-922
q-31 0 -28 32l29 215q4 26 16 38z" />
    <glyph glyph-name="zdotaccent" unicode="&#x17c;" horiz-adv-x="1182" 
d="M696 1126q-58 0 -99.5 41.5t-41.5 101.5q0 59 41.5 100t99.5 41t99.5 -41t41.5 -100q0 -60 -41.5 -101.5t-99.5 -41.5zM1092 942l-25 -178q-3 -24 -14 -35l-605 -500h530q34 0 28 -32l-24 -169q-3 -28 -32 -28h-837q-13 0 -24 12t-9 26l26 178q4 26 13 35l605 500h-529
q-34 0 -28 32l23 169q3 28 32 28h838q13 0 23.5 -12t8.5 -26z" />
    <glyph glyph-name="Zcaron" unicode="&#x17d;" horiz-adv-x="1293" 
d="M811 1693l165 149q14 14 38 14h223q19 0 24 -11t-8 -25l-266 -267q-16 -16 -38 -16h-303q-26 0 -36 18l-192 265q-10 15 -4 25.5t24 10.5h220q21 0 36 -18zM889 1142h-589q-31 0 -28 32l27 198q3 28 32 28h882q31 0 28 -32l-31 -215q-4 -26 -16 -38l-753 -857h632
q29 0 28 -32l-28 -198q-3 -28 -32 -28h-922q-31 0 -28 32l29 215q4 26 16 38z" />
    <glyph glyph-name="zcaron" unicode="&#x17e;" horiz-adv-x="1182" 
d="M691 1273l165 149q14 14 38 14h223q19 0 24 -11t-8 -25l-266 -267q-16 -16 -38 -16h-303q-26 0 -36 18l-192 265q-10 15 -4 25.5t24 10.5h220q21 0 36 -18zM1092 942l-25 -178q-3 -24 -14 -35l-605 -500h530q34 0 28 -32l-24 -169q-3 -28 -32 -28h-837q-13 0 -24 12
t-9 26l26 178q4 26 13 35l605 500h-529q-34 0 -28 32l23 169q3 28 32 28h838q13 0 23.5 -12t8.5 -26z" />
    <glyph glyph-name="florin" unicode="&#x192;" horiz-adv-x="1094" 
d="M874 1472q104 0 195.5 -21t87.5 -54l-23 -158q-3 -27 -32 -20q-91 17 -156 17q-102 0 -169 -51t-82 -162l-6 -43h328q31 0 28 -32l-23 -169q-3 -28 -32 -28h-334l-53 -368q-15 -112 -58.5 -191.5t-108 -122t-134.5 -61t-154 -18.5q-103 0 -196 21t-87 54l23 151
q6 30 32 24q75 -14 169 -14t160 51.5t81 161.5l43 312h-340q-29 0 -28 32l24 169q3 28 32 28h344l14 99q13 90 45 159.5t74.5 113t99 71t114 38.5t122.5 11z" />
    <glyph glyph-name="uni01CD" unicode="&#x1cd;" horiz-adv-x="1431" 
d="M1316 1856q20 0 25 -11t-9 -25l-266 -267q-16 -16 -38 -16h-303q-25 0 -36 18l-192 265q-10 15 -4 25.5t24 10.5h220q21 0 36 -18l117 -145l165 149q14 14 38 14h223zM979 1368l295 -1334q6 -34 -26 -34h-230q-26 0 -35 32l-43 223h-507l-108 -228q-13 -27 -38 -27h-242
q-17 0 -25 13.5t-1 28.5l671 1334q13 24 43 24h210q13 0 23 -9t13 -23zM550 503h342l-99 516z" />
    <glyph glyph-name="uni01CE" unicode="&#x1ce;" horiz-adv-x="1323" 
d="M1186 1436q20 0 25 -11t-9 -25l-266 -267q-16 -16 -38 -16h-303q-25 0 -36 18l-192 265q-10 15 -4 25.5t24 10.5h220q21 0 36 -18l117 -145l165 149q14 14 38 14h223zM1158 980q15 0 22.5 -8.5t5.5 -23.5l-96 -666q-11 -76 39 -79q33 -2 28 -41l-17 -106
q-5 -31 -43 -50.5t-95 -19.5q-63 0 -99 40.5t-42 107.5h-14q-37 -66 -114 -113t-184 -47q-88 0 -164.5 30t-135 87t-92 146t-33.5 200q0 162 69.5 292.5t185.5 201.5t253 71q98 0 169.5 -39.5t100.5 -100.5h17l28 94q7 24 34 24h177zM609 235q113 0 182.5 84t69.5 195
q0 114 -61 170.5t-153 56.5q-106 0 -178.5 -75.5t-72.5 -208.5q0 -111 60 -166.5t153 -55.5z" />
    <glyph glyph-name="uni01CF" unicode="&#x1cf;" horiz-adv-x="1322" 
d="M825 1693l165 149q14 14 38 14h223q19 0 24 -11t-8 -25l-266 -267q-16 -16 -38 -16h-303q-26 0 -36 18l-192 265q-10 15 -4 25.5t24 10.5h220q21 0 36 -18zM1262 1170q-4 -28 -32 -28h-331l-124 -884h327q32 0 27 -32l-27 -198q-4 -28 -32 -28h-952q-32 0 -27 32l27 198
q4 28 32 28h332l124 884h-328q-32 0 -26 32l27 198q4 28 32 28h952q32 0 27 -32z" />
    <glyph glyph-name="uni01D0" unicode="&#x1d0;" horiz-adv-x="1232" 
d="M721 1273l165 149q14 14 38 14h223q19 0 24 -11t-8 -25l-266 -267q-16 -16 -38 -16h-303q-26 0 -36 18l-192 265q-10 15 -4 25.5t24 10.5h220q21 0 36 -18zM1103 157q10 -23 -6 -42q-44 -50 -134.5 -92.5t-199.5 -42.5q-56 0 -106.5 9t-98.5 30t-83 54.5t-60.5 81.5
t-30.5 112.5t7 146.5l58 337h-305q-15 0 -22.5 8.5t-5.5 23.5l25 169q4 28 32 28h557q32 0 27 -32l-81 -511q-8 -65 -2 -107t29 -66.5t48.5 -34t56.5 -9.5q91 0 180 75q12 13 31.5 10.5t27.5 -22.5z" />
    <glyph glyph-name="uni01D1" unicode="&#x1d1;" horiz-adv-x="1727" 
d="M1026 1693l165 149q14 14 38 14h223q20 0 25 -11t-9 -25l-266 -267q-16 -16 -38 -16h-303q-25 0 -36 18l-192 265q-10 15 -4 25.5t24 10.5h220q21 0 36 -18zM800 -26q-148 0 -275.5 58t-212 156.5t-123.5 235.5t-18 287q28 193 146 355.5t293.5 256t366.5 93.5
q149 0 276.5 -58t212.5 -156.5t124 -236t18 -288.5q-28 -192 -146 -354t-294 -255.5t-368 -93.5zM823 256q121 0 230 60.5t180 165t86 229.5q22 179 -83.5 301t-280.5 122q-121 0 -229.5 -60.5t-179.5 -165.5t-86 -231q-22 -178 83.5 -299.5t279.5 -121.5z" />
    <glyph glyph-name="uni01D2" unicode="&#x1d2;" 
d="M740 1273l165 149q14 14 38 14h223q20 0 25 -11t-9 -25l-266 -267q-16 -16 -38 -16h-303q-25 0 -36 18l-192 265q-10 15 -4 25.5t24 10.5h220q21 0 36 -18zM589 -26q-202 0 -333.5 134.5t-131.5 336.5q0 114 45 218t120.5 178t177.5 117.5t212 43.5q202 0 334.5 -133
t132.5 -334q0 -150 -73.5 -279t-202.5 -205.5t-281 -76.5zM609 235q111 0 187 77.5t76 207.5q0 98 -59 159.5t-152 61.5q-112 0 -188.5 -81.5t-76.5 -203.5q0 -98 60 -159.5t153 -61.5z" />
    <glyph glyph-name="uni01D3" unicode="&#x1d3;" horiz-adv-x="1506" 
d="M912 1693l165 149q14 14 38 14h223q20 0 25 -11t-9 -25l-266 -267q-16 -16 -38 -16h-303q-25 0 -36 18l-192 265q-10 15 -4 25.5t24 10.5h220q21 0 36 -18zM1431 1400q33 0 28 -32l-114 -809q-21 -150 -78.5 -263.5t-144.5 -184t-196 -105.5t-239 -35q-274 0 -415 154.5
t-100 450.5l112 796q4 28 32 28h232q34 0 29 -32l-115 -809q-21 -148 42.5 -228t196.5 -80q144 0 238 87t116 238l112 796q4 28 32 28h232z" />
    <glyph glyph-name="uni01D4" unicode="&#x1d4;" horiz-adv-x="1249" 
d="M1156 1436q20 0 25 -11t-9 -25l-266 -267q-16 -16 -38 -16h-303q-25 0 -36 18l-192 265q-10 15 -4 25.5t24 10.5h220q21 0 36 -18l117 -145l165 149q14 14 38 14h223zM1084 980q31 0 28 -32l-96 -666q-7 -45 6 -62t33 -17q33 -2 28 -41l-17 -106q-5 -31 -43 -50.5
t-95 -19.5q-97 0 -139 49t-39 130h-19q-34 -83 -110.5 -133.5t-184.5 -50.5q-160 0 -250 117.5t-62 314.5l76 539q3 28 32 28h220q34 0 28 -32l-69 -498q-15 -109 30 -158.5t114 -49.5q117 0 195 138l82 576q3 24 34 24h218z" />
    <glyph glyph-name="uni01EA" unicode="&#x1ea;" horiz-adv-x="1727" 
d="M977 1416q149 0 276.5 -58t212.5 -156.5t124 -236t18 -288.5q-34 -241 -206 -428t-407 -249v-2q-2 0 -6 -0.5t-6 -0.5q-32 -8 -48 -11q-56 -18 -86.5 -56t-30.5 -81q0 -40 31.5 -63.5t96.5 -9.5v-174q-36 -16 -82 -20.5t-94 5.5t-88.5 33t-66.5 68t-26 105q0 109 94 191
q-168 28 -294 130t-185 259t-33 338q28 193 146 355.5t293.5 256t366.5 93.5zM1319 711q22 179 -83.5 301t-280.5 122q-121 0 -229.5 -60.5t-179.5 -165.5t-86 -231q-22 -178 83.5 -299.5t279.5 -121.5q121 0 230 60.5t180 165t86 229.5z" />
    <glyph glyph-name="uni01EB" unicode="&#x1eb;" 
d="M1146 535q0 -157 -81 -290.5t-216 -205.5v-22q-97 -38 -141.5 -77t-44.5 -88q0 -41 31.5 -64.5t96.5 -9.5v-174q-45 -20 -105 -21t-116.5 17.5t-95.5 69t-39 125.5q0 105 88 183q-176 23 -287.5 153t-111.5 314q0 114 45 218t120.5 178t177.5 117.5t212 43.5
q202 0 334.5 -133t132.5 -334zM609 235q111 0 187 77.5t76 207.5q0 98 -59 159.5t-152 61.5q-112 0 -188.5 -81.5t-76.5 -203.5q0 -98 60 -159.5t153 -61.5z" />
    <glyph glyph-name="Scommaaccent" unicode="&#x218;" horiz-adv-x="1293" 
d="M664 830q61 -14 105 -25.5t99 -30.5t93 -39.5t77 -50.5t62.5 -65t38.5 -82t15 -103q0 -117 -40.5 -205.5t-117 -144t-182 -83t-238.5 -27.5q-249 0 -368.5 90t-103.5 274q3 32 32 32h206q28 0 31 -39q5 -42 62 -69t156 -27q145 0 211 45.5t66 139.5q0 68 -45 102t-170 63
q-78 18 -137 37t-119.5 51t-98.5 71t-62.5 97.5t-24.5 130.5q0 216 139.5 330t382.5 114q237 0 355.5 -86t112.5 -265q-3 -37 -48 -37h-171q-40 0 -50 39q-30 88 -203 88q-238 0 -238 -170q0 -62 34.5 -96.5t138.5 -58.5zM350 -391q-30 0 -25 29l22 154q3 25 29 25h442
q29 0 25 -28l-13 -94q-35 -254 -122 -416q-20 -35 -62 -35h-97q-17 0 -25 12.5t-1 30.5q23 65 43.5 159.5t27.5 162.5h-244z" />
    <glyph glyph-name="scommaaccent" unicode="&#x219;" horiz-adv-x="1187" 
d="M616 585q50 -6 82 -10.5t82 -15t83 -22.5t71.5 -33.5t61 -48t38 -65t15.5 -84.5q0 -154 -131.5 -244t-369.5 -90q-109 0 -192.5 18t-146 56t-93 103t-26.5 154q2 31 28 31h206q26 0 28 -30q7 -103 204 -103q97 0 157 26t60 78q0 29 -25 47t-55 25t-80 15l-21 3
q-15 2 -46 7q-35 5 -53.5 8t-53.5 9t-55 12t-50.5 15.5t-49 20.5t-41.5 26t-37 33.5t-27 41t-18.5 50.5t-5.5 60q0 144 122.5 234t350.5 90q209 0 321.5 -79t109.5 -247q0 -31 -32 -31h-191q-35 0 -38 30q-10 98 -177 98q-88 0 -139 -26.5t-51 -73.5q0 -42 42.5 -59
t142.5 -29zM297 -391q-30 0 -25 29l22 154q3 25 29 25h442q29 0 25 -28l-13 -94q-35 -254 -122 -416q-20 -35 -62 -35h-97q-17 0 -25 12.5t-1 30.5q23 65 43.5 159.5t27.5 162.5h-244z" />
    <glyph glyph-name="uni021A" unicode="&#x21a;" horiz-adv-x="1342" 
d="M1313 1400q32 0 27 -32l-27 -198q-4 -28 -32 -28h-377l-157 -1114q-4 -28 -32 -28h-232q-32 0 -27 32l155 1110h-373q-31 0 -26 32l27 198q4 28 32 28h1042zM369 -391q-30 0 -25 29l22 154q3 25 29 25h442q29 0 25 -28l-13 -94q-35 -254 -122 -416q-20 -35 -62 -35h-97
q-17 0 -25 12.5t-1 30.5q23 65 43.5 159.5t27.5 162.5h-244z" />
    <glyph glyph-name="uni021B" unicode="&#x21b;" horiz-adv-x="1214" 
d="M1090 980q15 0 22.5 -8.5t5.5 -23.5l-26 -169q-4 -28 -32 -28h-384l-47 -314q-7 -65 -0.5 -107t31.5 -66.5t52.5 -34t63.5 -9.5q94 0 185 76q13 11 33 7t27 -22l54 -123q10 -24 -6 -44q-42 -49 -137.5 -91.5t-208.5 -42.5q-70 0 -129.5 13.5t-114 44.5t-87.5 81t-49 123
t1 172l50 337h-250q-15 0 -22.5 8.5t-5.5 23.5l25 169q4 28 32 28h256l39 262q6 28 33 28h221q15 0 22.5 -8.5t5.5 -23.5l-39 -258h379zM913 -183q29 0 25 -28l-13 -94q-35 -254 -122 -416q-20 -35 -62 -35h-97q-17 0 -25 12.5t-1 30.5q23 65 43.5 159.5t27.5 162.5h-244
q-30 0 -25 29l22 154q3 25 29 25h442z" />
    <glyph glyph-name="uni0237" unicode="&#x237;" horiz-adv-x="1023" 
d="M895 980q13 0 23.5 -12t8.5 -26l-128 -909q-13 -96 -47 -170t-79.5 -119.5t-105 -74.5t-119.5 -40.5t-128 -11.5q-64 0 -126 14t-106 35.5t-76.5 46t-44.5 46.5t-3 36l90 132q23 30 57 4q82 -65 201 -65q78 0 136 51t76 172l94 662h-402q-34 0 -28 32l23 169q3 28 32 28
h652z" />
    <glyph glyph-name="circumflex" unicode="&#x2c6;" horiz-adv-x="1101" 
d="M668 1284l-164 -149q-14 -14 -38 -14h-225q-20 0 -24.5 10.5t10.5 25.5l268 267q16 16 38 16h303q24 0 36 -18l188 -265q10 -15 5 -25.5t-23 -10.5h-221q-21 0 -36 18z" />
    <glyph glyph-name="caron" unicode="&#x2c7;" horiz-adv-x="1101" 
d="M655 1277l165 149q14 14 38 14h223q19 0 24 -11t-8 -25l-266 -267q-16 -16 -38 -16h-303q-26 0 -36 18l-192 265q-10 15 -4 25.5t24 10.5h220q21 0 36 -18z" />
    <glyph glyph-name="breve" unicode="&#x2d8;" horiz-adv-x="923" 
d="M740 1392q9 27 37 27h120q16 0 22.5 -13.5t1.5 -35.5q-29 -121 -125 -198t-238 -77q-150 0 -231.5 85t-75.5 202q2 19 7.5 28t20.5 9h118q29 0 32 -38q5 -50 40 -79.5t97 -29.5q68 0 113 36t61 84z" />
    <glyph glyph-name="dotaccent" unicode="&#x2d9;" horiz-adv-x="535" 
d="M377 1126q-58 0 -99.5 41.5t-41.5 101.5q0 59 41.5 100t99.5 41t99.5 -41t41.5 -100q0 -60 -41.5 -101.5t-99.5 -41.5z" />
    <glyph glyph-name="ring" unicode="&#x2da;" horiz-adv-x="665" 
d="M445 1483q85 0 144.5 -60.5t59.5 -144.5q0 -83 -59.5 -143t-144.5 -60q-87 0 -147 59.5t-60 143.5t60 144.5t147 60.5zM445 1221q26 0 44 17t16 42q-1 26 -18 42.5t-42 16.5q-27 0 -44 -16.5t-17 -42.5t17 -42.5t44 -16.5z" />
    <glyph glyph-name="ogonek" unicode="&#x2db;" horiz-adv-x="637" 
d="M436 0q-84 -7 -130.5 -51t-46.5 -98q0 -40 31.5 -63.5t96.5 -9.5v-174q-36 -16 -82 -20.5t-94 5.5t-88.5 33t-66.5 68t-26 105q0 61 30 113.5t75.5 87t102 60.5t106.5 38.5t92 15.5v-110z" />
    <glyph glyph-name="tilde" unicode="&#x2dc;" horiz-adv-x="987" 
d="M450 1444q54 0 103 -22t79 -48t70 -48t78 -22q69 0 93 55q6 16 22 16h65q20 0 20 -20q1 -102 -62.5 -156.5t-157.5 -54.5q-53 0 -102 22t-79.5 48.5t-70.5 48.5t-78 22q-68 0 -92 -56q-6 -16 -22 -16h-65q-9 0 -15.5 7.5t-5.5 19.5q12 101 71 152.5t149 51.5z" />
    <glyph glyph-name="hungarumlaut" unicode="&#x2dd;" horiz-adv-x="1015" 
d="M246 1150q-18 0 -23.5 10.5t3.5 25.5l160 254q11 20 36 20h198q18 0 23.5 -10.5t-3.5 -25.5l-158 -254q-11 -20 -36 -20h-200zM624 1150q-18 0 -23.5 10.5t3.5 25.5l160 254q11 20 36 20h198q18 0 23.5 -10.5t-3.5 -25.5l-158 -254q-11 -20 -36 -20h-200z" />
    <glyph glyph-name="uni0326" unicode="&#x326;" horiz-adv-x="0" 
d="M-565 -391q-30 0 -25 29l22 154q3 25 29 25h442q29 0 25 -28l-13 -94q-35 -254 -122 -416q-20 -35 -62 -35h-97q-17 0 -25 12.5t-1 30.5q23 65 43.5 159.5t27.5 162.5h-244z" />
    <glyph glyph-name="uni0394" unicode="&#x394;" horiz-adv-x="1431" 
d="M1273 26q7 -26 -22 -26h-1204q-19 0 -27.5 14t0.5 33l671 1331q11 22 40 22h209q29 0 36 -32zM790 1019l-372 -790h524z" />
    <glyph glyph-name="uni03A9" unicode="&#x3a9;" horiz-adv-x="1372" 
d="M1281 732q-24 -170 -94 -304t-182 -199h194l-32 -229h-505l40 321q111 28 187.5 139.5t102.5 303.5q17 122 10.5 204.5t-57.5 124t-156 41.5q-84 0 -143 -25.5t-97.5 -79.5t-60 -124t-36.5 -173q-49 -362 160 -411l-40 -321h-505l32 229h211l8 1q-102 63 -141.5 206.5
t-13.5 327.5q45 320 205 486t436 166q284 0 403.5 -176.5t73.5 -507.5z" />
    <glyph glyph-name="uni03BC" unicode="&#x3bc;" horiz-adv-x="1249" 
d="M1112 948l-96 -666q-7 -45 6 -62t33 -17q33 -2 28 -41l-17 -106q-5 -31 -43 -50.5t-95 -19.5q-97 0 -139 49t-39 130h-19q-34 -83 -110.5 -133.5t-184.5 -50.5q-48 0 -92 12l-49 -351q-4 -22 -32 -22h-220q-13 0 -19.5 12t-4.5 26l101 723q2 22 4 32l76 539q3 28 32 28
h220q34 0 28 -32l-69 -498q-15 -109 30 -158.5t114 -49.5q117 0 195 138l82 576q3 24 34 24h218q31 0 28 -32z" />
    <glyph glyph-name="pi" unicode="&#x3c0;" horiz-adv-x="1413" 
d="M1305 980q33 0 28 -32l-23 -169q-3 -28 -32 -28h-136l-62 -433q-11 -77 55 -77q11 0 36.5 4t33.5 4q23 1 34 -5t11 -16t-1 -20l-25 -172q-8 -50 -173 -50q-59 0 -109 16.5t-88.5 50.5t-55 93t-5.5 137l67 468h-231l-102 -723q-4 -28 -32 -28h-222q-33 0 -28 32l102 719
h-153q-32 0 -27 32l23 169q3 28 32 28h1083z" />
    <glyph glyph-name="uni0401" unicode="&#x401;" horiz-adv-x="1243" 
d="M577 1556q-58 0 -99.5 41.5t-41.5 101.5q0 59 41.5 100t99.5 41t99.5 -41t41.5 -100q0 -60 -41.5 -101.5t-99.5 -41.5zM1020 1556q-58 0 -99.5 41.5t-41.5 101.5q0 59 41.5 100t99.5 41t99.5 -41t41.5 -100q0 -60 -41.5 -101.5t-99.5 -41.5zM1022 258q31 0 28 -32
l-27 -198q-3 -28 -32 -28h-862q-31 0 -28 32l188 1340q3 28 32 28h860q31 0 28 -32l-27 -198q-3 -28 -32 -28h-600l-42 -295h546q31 0 28 -32l-30 -198q-3 -28 -32 -28h-550l-45 -331h597z" />
    <glyph glyph-name="uni0403" unicode="&#x403;" horiz-adv-x="1213" 
d="M655 1510q-18 0 -23.5 10.5t3.5 25.5l160 254q11 20 36 20h198q18 0 23.5 -10.5t-3.5 -25.5l-158 -254q-11 -20 -36 -20h-200zM1183 1400q31 0 28 -32l-27 -198q-3 -28 -32 -28h-603l-156 -1114q-3 -28 -32 -28h-232q-31 0 -28 32l188 1340q3 28 32 28h862z" />
    <glyph glyph-name="uni0404" unicode="&#x404;" horiz-adv-x="1489" 
d="M1442 1205q25 -31 1 -51l-142 -129q-22 -22 -51 4q-126 101 -287 101q-144 0 -266.5 -84t-184.5 -217h367q13 0 21.5 -8.5t8.5 -21.5v-198q0 -13 -8.5 -21.5t-21.5 -8.5h-413q14 -138 109 -224.5t239 -86.5q179 0 319 107q15 12 30.5 11t26.5 -15l118 -148q27 -35 -4 -61
q-103 -83 -234 -131.5t-269 -48.5q-136 0 -255 48.5t-203 132t-132 200.5t-48 250q0 159 67 309t177.5 259.5t260.5 176t310 66.5q148 0 267.5 -56.5t196.5 -154.5z" />
    <glyph glyph-name="uni0406" unicode="&#x406;" horiz-adv-x="1322" 
d="M1262 1170q-4 -28 -32 -28h-331l-124 -884h327q32 0 27 -32l-27 -198q-4 -28 -32 -28h-952q-32 0 -27 32l27 198q4 28 32 28h332l124 884h-328q-32 0 -26 32l27 198q4 28 32 28h952q32 0 27 -32z" />
    <glyph glyph-name="uni0407" unicode="&#x407;" horiz-adv-x="1322" 
d="M611 1556q-58 0 -99.5 41.5t-41.5 101.5q0 59 41.5 100t99.5 41t99.5 -41t41.5 -100q0 -60 -41.5 -101.5t-99.5 -41.5zM1054 1556q-58 0 -99.5 41.5t-41.5 101.5q0 59 41.5 100t99.5 41t99.5 -41t41.5 -100q0 -60 -41.5 -101.5t-99.5 -41.5zM1262 1170q-4 -28 -32 -28
h-331l-124 -884h327q32 0 27 -32l-27 -198q-4 -28 -32 -28h-952q-32 0 -27 32l27 198q4 28 32 28h332l124 884h-328q-32 0 -26 32l27 198q4 28 32 28h952q32 0 27 -32z" />
    <glyph glyph-name="uni0410" unicode="&#x410;" horiz-adv-x="1431" 
d="M1274 34q6 -34 -26 -34h-230q-26 0 -35 32l-43 223h-507l-108 -228q-13 -27 -38 -27h-242q-17 0 -25 13.5t-1 28.5l671 1334q13 24 43 24h210q13 0 23 -9t13 -23zM550 503h342l-99 516z" />
    <glyph glyph-name="uni0411" unicode="&#x411;" 
d="M736 930q137 0 228 -32t136.5 -93.5t59 -151t-5.5 -204.5q-16 -114 -49.5 -194t-94.5 -139t-158 -87.5t-235 -28.5h-488q-31 0 -28 32l188 1340q3 28 32 28h742q32 0 28 -32l-27 -198q-4 -28 -32 -28h-483l-30 -212h217zM879 481q5 38 5.5 66t-3.5 48.5t-14.5 34.5
t-23 22.5t-34.5 12.5t-43 5.5t-54 1.5h-229l-58 -414h216q56 0 92 8t67.5 31.5t50 68t28.5 115.5z" />
    <glyph glyph-name="uni0412" unicode="&#x412;" horiz-adv-x="1287" 
d="M941 745q115 -23 177 -99t62 -193q0 -238 -145.5 -345.5t-417.5 -107.5h-489q-32 0 -27 32l188 1340q4 28 32 28h501q189 0 282.5 -86t93.5 -225q0 -130 -66.5 -220t-190.5 -124zM549 1142l-40 -289h207q101 0 152.5 48.5t51.5 137.5q0 60 -33.5 81.5t-115.5 21.5h-222z
M650 258q117 0 180.5 57.5t63.5 159.5q0 74 -43 105.5t-140 31.5h-236l-50 -354h225z" />
    <glyph glyph-name="uni0413" unicode="&#x413;" horiz-adv-x="1213" 
d="M1183 1400q31 0 28 -32l-27 -198q-3 -28 -32 -28h-603l-156 -1114q-3 -28 -32 -28h-232q-31 0 -28 32l188 1340q3 28 32 28h862z" />
    <glyph glyph-name="uni0414" unicode="&#x414;" horiz-adv-x="1321" 
d="M1184 1400q31 0 28 -32l-157 -1110h116q31 0 28 -32l-48 -336q-3 -28 -32 -28h-211q-31 0 -28 32l15 106h-618l-15 -110q-3 -28 -32 -28h-211q-31 0 -28 32l47 336q3 28 32 28h13q76 0 138 54t77 157l127 903q3 28 32 28h727zM507 258h256l124 884h-202l-97 -688
q-17 -120 -81 -196z" />
    <glyph glyph-name="uni0415" unicode="&#x415;" horiz-adv-x="1243" 
d="M1022 258q31 0 28 -32l-27 -198q-3 -28 -32 -28h-862q-31 0 -28 32l188 1340q3 28 32 28h860q31 0 28 -32l-27 -198q-3 -28 -32 -28h-600l-42 -295h546q31 0 28 -32l-30 -198q-3 -28 -32 -28h-550l-45 -331h597z" />
    <glyph glyph-name="uni0416" unicode="&#x416;" horiz-adv-x="1329" 
d="M1320 1400q18 0 23.5 -10.5t-3.5 -25.5l-368 -597l204 -733q9 -34 -24 -34h-205q-25 0 -32 26l-111 460l-9 -15l-62 -443q-4 -28 -32 -28h-217q-32 0 -28 32l60 430l-229 -440q-11 -22 -36 -22h-205q-17 0 -23.5 10t1.5 26l408 731l-195 599q-10 34 24 34h210
q26 0 31 -26l90 -373l52 371q4 28 32 28h217q32 0 28 -32l-53 -375l203 385q11 22 36 22h213z" />
    <glyph glyph-name="uni0417" unicode="&#x417;" horiz-adv-x="1318" 
d="M954 731q98 -42 152 -118.5t54 -182.5q0 -141 -81 -246t-214.5 -157.5t-298.5 -52.5q-228 0 -356.5 117t-96.5 310q3 27 33 30l205 18q21 2 28 -12.5t6 -32.5q-1 -90 56 -131.5t160 -41.5q128 0 194.5 58.5t66.5 146.5q0 39 -12.5 68t-43.5 53.5t-89 38t-142 16.5
q-33 0 -30 32l14 154q3 28 31 28q150 5 242 56t92 142q0 67 -52.5 101t-129.5 34q-94 0 -166.5 -50.5t-96.5 -150.5q-8 -24 -39 -20l-202 30q-32 5 -26 45q27 192 174.5 297.5t371.5 105.5q196 0 320 -88.5t124 -252.5q0 -113 -64.5 -201t-183.5 -143z" />
    <glyph glyph-name="uni0418" unicode="&#x418;" horiz-adv-x="1335" 
d="M973 1380q11 20 36 20h256q31 0 28 -32l-188 -1340q-3 -28 -32 -28h-200q-31 0 -28 32l129 903l-552 -915q-11 -20 -36 -20h-257q-31 0 -28 32l188 1340q3 28 32 28h200q31 0 28 -32l-130 -904z" />
    <glyph glyph-name="uni0419" unicode="&#x419;" horiz-adv-x="1335" 
d="M934 1810q9 27 37 27h120q16 0 22.5 -13.5t1.5 -35.5q-29 -121 -125 -198t-238 -77q-150 0 -231.5 85t-75.5 202q2 19 7.5 28t20.5 9h118q29 0 32 -38q5 -50 40 -79.5t97 -29.5q68 0 113 36t61 84zM973 1380q11 20 36 20h256q31 0 28 -32l-188 -1340q-3 -28 -32 -28h-200
q-31 0 -28 32l129 903l-552 -915q-11 -20 -36 -20h-257q-31 0 -28 32l188 1340q3 28 32 28h200q31 0 28 -32l-130 -904z" />
    <glyph glyph-name="uni041A" unicode="&#x41a;" horiz-adv-x="1335" 
d="M1320 1400q20 0 24.5 -11.5t-9.5 -25.5l-565 -571l409 -756q8 -16 2 -26t-23 -10h-256q-24 0 -36 21l-305 560l-107 -108l-62 -445q-4 -28 -32 -28h-232q-32 0 -27 32l188 1340q4 28 32 28h232q32 0 27 -32l-70 -500l495 516q15 16 37 16h278z" />
    <glyph glyph-name="uni041B" unicode="&#x41b;" horiz-adv-x="1339" 
d="M1269 1400q32 0 28 -32l-188 -1340q-4 -28 -32 -28h-232q-32 0 -28 32l155 1110h-325l-105 -743q-29 -203 -149 -306t-308 -103q-33 0 -37 24l-33 210q-2 15 5.5 23t20.5 8q81 0 142.5 54.5t76.5 159.5l127 903q3 28 32 28h850z" />
    <glyph glyph-name="uni041C" unicode="&#x41c;" horiz-adv-x="1800" 
d="M1727 1400q15 0 24 -11t6 -27l-188 -1340q-2 -22 -28 -22h-232q-13 0 -23 12t-8 26l104 733l-407 -755q-8 -16 -34 -16h-210q-11 0 -21 10t-13 23l-198 756l-108 -767q-1 -13 -7 -17.5t-20 -4.5h-233q-13 0 -22.5 12t-7.5 26l188 1329q3 33 32 33h256q29 0 38 -39
l259 -1024l548 1039q15 24 43 24h262z" />
    <glyph glyph-name="uni041D" unicode="&#x41d;" horiz-adv-x="1489" 
d="M1420 1400q32 0 27 -32l-188 -1340q-4 -28 -32 -28h-232q-32 0 -27 32l77 546h-576l-77 -550q-4 -28 -32 -28h-232q-32 0 -27 32l188 1340q4 28 32 28h232q32 0 27 -32l-75 -532h576l75 536q4 28 32 28h232z" />
    <glyph glyph-name="uni041E" unicode="&#x41e;" horiz-adv-x="1727" 
d="M800 -26q-148 0 -275.5 58t-212 156.5t-123.5 235.5t-18 287q28 193 146 355.5t293.5 256t366.5 93.5q149 0 276.5 -58t212.5 -156.5t124 -236t18 -288.5q-28 -192 -146 -354t-294 -255.5t-368 -93.5zM823 256q121 0 230 60.5t180 165t86 229.5q22 179 -83.5 301
t-280.5 122q-121 0 -229.5 -60.5t-179.5 -165.5t-86 -231q-22 -178 83.5 -299.5t279.5 -121.5z" />
    <glyph glyph-name="uni041F" unicode="&#x41f;" horiz-adv-x="1303" 
d="M1233 1400q32 0 28 -32l-188 -1340q-4 -28 -32 -28h-232q-32 0 -28 32l155 1110h-387l-156 -1114q-3 -28 -32 -28h-232q-31 0 -28 32l188 1340q3 28 32 28h912z" />
    <glyph glyph-name="uni0420" unicode="&#x420;" horiz-adv-x="1364" 
d="M811 1400q270 0 387.5 -90t117.5 -275q0 -303 -152 -434t-472 -131h-237l-63 -442q-4 -28 -32 -28h-232q-32 0 -27 32l188 1340q4 28 32 28h490zM737 728q148 0 223 64.5t75 205.5q0 85 -54 114.5t-173 29.5h-259l-58 -414h246z" />
    <glyph glyph-name="uni0421" unicode="&#x421;" horiz-adv-x="1489" 
d="M1190 363l118 -148q27 -35 -4 -61q-103 -83 -234 -131.5t-269 -48.5q-136 0 -255 48.5t-203 132t-132 200.5t-48 250q0 159 67 309t177.5 259.5t260.5 176t310 66.5q148 0 267.5 -56.5t196.5 -154.5q25 -31 1 -51l-142 -129q-22 -22 -51 4q-126 101 -287 101
q-133 0 -248.5 -71.5t-183 -191t-67.5 -254.5q0 -154 97.5 -253.5t252.5 -99.5q179 0 319 107q15 12 30.5 11t26.5 -15z" />
    <glyph glyph-name="uni0422" unicode="&#x422;" horiz-adv-x="1342" 
d="M1313 1400q32 0 27 -32l-27 -198q-4 -28 -32 -28h-377l-157 -1114q-4 -28 -32 -28h-232q-32 0 -27 32l155 1110h-373q-31 0 -26 32l27 198q4 28 32 28h1042z" />
    <glyph glyph-name="uni0423" unicode="&#x423;" horiz-adv-x="1294" 
d="M1027 1380q13 20 36 20h245q18 0 24 -10.5t-4 -25.5l-856 -1344q-13 -20 -36 -20h-247q-18 0 -24 10.5t4 25.5l312 487l-279 843q-5 15 1.5 24.5t22.5 9.5h239q26 0 34 -24l173 -553z" />
    <glyph glyph-name="uni0424" unicode="&#x424;" horiz-adv-x="1368" 
d="M919 1259q91 -1 159 -31t108 -82.5t63 -124.5t23 -157t-12 -180q-13 -94 -36.5 -172.5t-63.5 -148.5t-93.5 -118t-129.5 -76t-168 -28h-7l-16 -113q-3 -28 -32 -28h-202q-31 0 -28 32l15 109q-113 1 -190.5 47t-113.5 124t-47 182t9 222q76 543 491 543h8l16 113
q3 28 32 28h202q31 0 28 -32zM990 716q14 96 14.5 159.5t-26 94.5t-88.5 31h-7l-85 -602q87 2 127.5 77t64.5 240zM528 399h7l85 602q-87 -2 -128.5 -77t-64.5 -240q-13 -96 -13.5 -159.5t26 -94.5t88.5 -31z" />
    <glyph glyph-name="uni0425" unicode="&#x425;" horiz-adv-x="1349" 
d="M1325 1400q18 0 26.5 -13.5t-1.5 -28.5l-485 -652l311 -674q5 -14 -1.5 -23t-21.5 -9h-238q-22 0 -34 24l-201 434l-327 -440q-15 -18 -40 -18h-245q-18 0 -25 13.5t3 28.5l510 686l-294 636q-7 16 -2 26t22 10h235q26 0 40 -28l183 -396l300 404q15 20 38 20h247z" />
    <glyph glyph-name="uni0426" unicode="&#x426;" horiz-adv-x="1346" 
d="M1196 258q32 0 28 -32l-48 -336q-4 -28 -32 -28h-211q-15 0 -22.5 8.5t-5.5 23.5l15 106h-791q-31 0 -28 32l188 1340q3 28 32 28h232q31 0 28 -32l-156 -1110h347l157 1114q4 28 32 28h232q32 0 28 -32l-157 -1110h132z" />
    <glyph glyph-name="uni0427" unicode="&#x427;" horiz-adv-x="1369" 
d="M1299 1400q31 0 28 -32l-188 -1340q-3 -28 -32 -28h-232q-31 0 -28 32l71 508q-73 -81 -171.5 -128t-212.5 -47q-169 0 -275 128.5t-79 320.5l79 558q3 28 32 28h232q31 0 28 -32l-73 -516q-8 -57 4.5 -98.5t41 -62.5t58.5 -30t64 -9q57 0 115.5 21t99.5 50.5t68 60
t30 50.5h1l75 538q3 28 32 28h232z" />
    <glyph glyph-name="uni0428" unicode="&#x428;" horiz-adv-x="1455" 
d="M1385 1400q32 0 28 -32l-188 -1340q-4 -28 -32 -28h-1064q-32 0 -28 32l188 1340q4 28 32 28h189q32 0 28 -32l-156 -1110h188l156 1114q3 28 32 28h190q31 0 28 -32l-157 -1110h188l157 1114q4 28 32 28h189z" />
    <glyph glyph-name="uni0429" unicode="&#x429;" horiz-adv-x="1586" 
d="M1435 258q32 0 28 -32l-47 -336q-4 -28 -32 -28h-211q-15 0 -22.5 8.5t-5.5 23.5l15 106h-1031q-32 0 -28 32l188 1340q4 28 32 28h189q32 0 28 -32l-156 -1110h188l156 1114q3 28 32 28h190q31 0 28 -32l-157 -1110h188l157 1114q4 28 32 28h189q32 0 28 -32l-156 -1110
h178z" />
    <glyph glyph-name="uni042A" unicode="&#x42a;" horiz-adv-x="1314" 
d="M744 930q137 0 228 -32t136.5 -93.5t59 -151t-4.5 -205.5q-16 -114 -49 -193.5t-94 -138.5t-158 -87.5t-235 -28.5h-490q-32 0 -28 32l156 1110h-65q-31 0 -28 32l29 198q3 28 32 28h328q31 0 28 -32l-63 -438h218zM888 482q5 38 5.5 66t-3.5 48.5t-14.5 34t-23 22
t-34.5 12.5t-43 5.5t-54 1.5h-230l-58 -414h217q56 0 92 8t67.5 31.5t50 68.5t28.5 116z" />
    <glyph glyph-name="uni042B" unicode="&#x42b;" horiz-adv-x="1548" 
d="M569 930q129 0 212.5 -31.5t124 -93t50.5 -151t-8 -205.5q-17 -116 -47 -195t-86 -138.5t-145.5 -87.5t-218.5 -28h-322q-31 0 -28 32l188 1340q3 28 32 28h222q31 0 28 -32l-63 -438h61zM1064 0q-32 0 -28 32l188 1340q4 28 32 28h222q32 0 28 -32l-188 -1340
q-4 -28 -32 -28h-222zM545 672h-73l-58 -414h61q63 0 98 15t60.5 64t38.5 144q8 54 7.5 88.5t-7 55.5t-26 31t-41 13t-60.5 3z" />
    <glyph glyph-name="uni042C" unicode="&#x42c;" horiz-adv-x="1276" 
d="M736 930q137 0 228 -32t136.5 -93.5t59 -151t-4.5 -205.5q-16 -114 -49 -193.5t-94 -138.5t-158 -87.5t-235 -28.5h-490q-32 0 -28 32l188 1340q4 28 32 28h232q31 0 28 -32l-63 -438h218zM713 672h-230l-58 -414h217q56 0 92 8t67.5 31.5t50 68.5t28.5 116q5 38 5.5 66
t-3.5 48.5t-14.5 34t-23 22t-34.5 12.5t-43 5.5t-54 1.5z" />
    <glyph glyph-name="uni042D" unicode="&#x42d;" horiz-adv-x="1482" 
d="M733 1416q201 0 355.5 -98t229 -268t45.5 -373q-27 -194 -144 -355.5t-293 -254.5t-370 -93q-146 0 -265 57t-199 155q-17 23 6 46l138 133q22 22 49 -2q113 -103 288 -103q144 0 268.5 86t186.5 225h-439q-14 0 -22.5 9.5t-7.5 22.5l28 198q3 28 32 28h451
q-18 135 -113 218t-236 83q-179 0 -322 -120q-13 -9 -27.5 -4t-22.5 17l-123 154q-8 10 -5.5 25.5t15.5 25.5q229 188 497 188z" />
    <glyph glyph-name="uni042E" unicode="&#x42e;" horiz-adv-x="2175" 
d="M1425 1416q149 0 276.5 -58t212.5 -156.5t124 -236t18 -288.5q-28 -192 -146 -354t-294 -255.5t-368 -93.5q-175 0 -317.5 78t-226.5 214t-92 305h-142l-76 -539q-7 -32 -43 -32h-217q-16 0 -25 11t-6 27l186 1332q5 30 36 30h224q16 0 25.5 -11.5t7.5 -27.5l-75 -532
h139q78 253 298.5 420t480.5 167zM1767 711q22 179 -83.5 301t-280.5 122q-121 0 -229.5 -60.5t-179.5 -165.5t-86 -231q-22 -178 83.5 -299.5t279.5 -121.5q121 0 230 60.5t180 165t86 229.5z" />
    <glyph glyph-name="uni042F" unicode="&#x42f;" horiz-adv-x="1262" 
d="M1192 1400q31 0 28 -32l-188 -1340q-3 -28 -32 -28h-232q-31 0 -28 32l61 438h-105l-355 -452q-14 -18 -36 -18h-248q-18 0 -24 10.5t6 25.5l357 454q-105 26 -163 88t-71.5 155.5t3.5 217.5q16 114 49.5 194t94.5 139t158 87.5t235 28.5h490zM837 728l58 414h-217
q-56 0 -92 -8t-67.5 -31.5t-50 -68t-28.5 -115.5q-5 -38 -5.5 -66t3.5 -48.5t14.5 -34.5t23 -22.5t34.5 -12.5t43 -5.5t54 -1.5h230z" />
    <glyph glyph-name="uni0430" unicode="&#x430;" horiz-adv-x="1323" 
d="M1186 948l-96 -666q-11 -76 39 -79q33 -2 28 -41l-17 -106q-5 -31 -43 -50.5t-95 -19.5q-63 0 -99 40.5t-42 107.5h-14q-37 -66 -114 -113t-184 -47q-88 0 -164.5 30t-135 87t-92 146t-33.5 200q0 162 69.5 292.5t185.5 201.5t253 71q98 0 169.5 -39.5t100.5 -100.5h17
l28 94q7 24 34 24h177q15 0 22.5 -8.5t5.5 -23.5zM609 235q113 0 182.5 84t69.5 195q0 114 -61 170.5t-153 56.5q-106 0 -178.5 -75.5t-72.5 -208.5q0 -111 60 -166.5t153 -55.5z" />
    <glyph glyph-name="uni0431" unicode="&#x431;" horiz-adv-x="1279" 
d="M768 1002q138 0 232 -71.5t131 -191t16 -267.5q-31 -216 -165.5 -357t-332.5 -141q-186 0 -290 136l-19 -84q-3 -14 -9.5 -20t-20.5 -6h-201q-31 0 -28 32l142 1011q26 186 116.5 271.5t253.5 85.5h213q70 0 103 9.5t56 35.5h219q-12 -88 -47 -147.5t-91.5 -90.5
t-119.5 -43t-147 -12h-136q-128 0 -148 -140l-18 -144l22 1q111 133 269 133zM880 506q16 114 -29 176.5t-155 62.5t-181 -73t-89 -198q-16 -113 28 -178t144 -65q119 0 191 74t91 201z" />
    <glyph glyph-name="uni0432" unicode="&#x432;" horiz-adv-x="1297" 
d="M969 510q80 -19 129 -76t49 -133q0 -83 -39 -143t-108.5 -93.5t-153 -49t-184.5 -15.5h-557q-31 0 -28 32l128 920q3 28 32 28h551q153 0 249 -67t96 -184q0 -157 -164 -219zM757 751h-297l-22 -154h287q91 0 121.5 24.5t30.5 69.5q0 30 -24.5 45t-95.5 15zM678 229
q108 0 158.5 22t50.5 80q0 38 -36.5 54.5t-139.5 16.5h-300l-25 -173h292z" />
    <glyph glyph-name="uni0433" unicode="&#x433;" horiz-adv-x="1209" 
d="M205 952q3 28 32 28h888q31 0 28 -32l-23 -169q-3 -28 -32 -28h-638l-101 -723q-3 -28 -32 -28h-222q-31 0 -28 32z" />
    <glyph glyph-name="uni0434" unicode="&#x434;" horiz-adv-x="1301" 
d="M1062 229h85q32 0 28 -32l-45 -314q-4 -28 -32 -28h-201q-15 0 -22.5 8.5t-5.5 23.5l19 113h-619l-18 -117q-6 -28 -32 -28h-201q-15 0 -22.5 8.5t-5.5 23.5l50 338q4 26 32 31q83 10 147.5 64.5t77.5 148.5l67 483q4 28 32 28h739q31 0 28 -32zM566 454
q-20 -150 -126 -225h351l73 522h-256z" />
    <glyph glyph-name="uni0435" unicode="&#x435;" 
d="M1155 618q0 -53 -13 -92.5t-47 -73.5t-100 -52t-163 -18h-451q2 -87 73 -134t195 -47q143 0 245 64q30 18 53 -9l80 -95q26 -31 -3 -54q-155 -133 -409 -133q-227 0 -360.5 126t-133.5 322q0 157 78.5 290.5t214.5 211.5t299 78q207 0 324.5 -109.5t117.5 -274.5z
M415 573h321q103 0 137 12t33 51q-2 53 -58 90.5t-146 37.5q-102 0 -178 -49.5t-109 -141.5z" />
    <glyph glyph-name="uni0436" unicode="&#x436;" horiz-adv-x="1289" 
d="M1225 980q18 0 24 -10.5t-6 -25.5l-327 -403l218 -505q7 -15 0.5 -25.5t-22.5 -10.5h-187q-25 0 -36 24l-132 320l-5 -5l-43 -311q-4 -28 -32 -28h-191q-32 0 -28 32l43 311l-1 2l-222 -325q-13 -20 -38 -20h-196q-18 0 -23 10.5t5 25.5l365 516l-207 392q-7 15 -1 25.5
t23 10.5h205q24 0 34 -22l107 -247l34 241q4 28 32 28h191q32 0 28 -32l-32 -231l173 245q12 18 36 18h211z" />
    <glyph glyph-name="uni0437" unicode="&#x437;" horiz-adv-x="1212" 
d="M900 508q71 -31 111.5 -86t40.5 -122q0 -82 -42.5 -146t-115.5 -102.5t-163.5 -58t-193.5 -19.5q-182 0 -294.5 41.5t-153.5 107.5q-24 40 2 63l97 84q22 21 59 -3q88 -60 271 -60q51 0 101.5 7.5t93.5 21.5t69.5 38t26.5 54q0 27 -24 43.5t-96 28t-197 12.5
q-35 0 -32 30l9 126q3 28 33 28q323 6 323 104q0 36 -42.5 53.5t-144.5 17.5q-168 0 -286 -62q-20 -10 -40.5 -6t-32.5 21l-68 96q-11 15 -8 34.5t19 32.5q59 47 173 81t275 34q194 0 304.5 -68t110.5 -185q0 -80 -47 -138t-138 -103z" />
    <glyph glyph-name="uni0438" unicode="&#x438;" horiz-adv-x="1205" 
d="M832 962q13 18 36 18h237q31 0 28 -32l-128 -920q-3 -28 -32 -28h-222q-31 0 -28 32l78 542l-423 -556q-12 -18 -36 -18h-237q-31 0 -28 32l128 920q3 28 32 28h222q31 0 28 -32l-78 -542z" />
    <glyph glyph-name="uni0439" unicode="&#x439;" horiz-adv-x="1205" 
d="M884 1390q9 27 37 27h120q16 0 22.5 -13.5t1.5 -35.5q-29 -121 -125 -198t-238 -77q-150 0 -231.5 85t-75.5 202q2 19 7.5 28t20.5 9h118q29 0 32 -38q5 -50 40 -79.5t97 -29.5q68 0 113 36t61 84zM832 962q13 18 36 18h237q31 0 28 -32l-128 -920q-3 -28 -32 -28h-222
q-31 0 -28 32l78 542l-423 -556q-12 -18 -36 -18h-237q-31 0 -28 32l128 920q3 28 32 28h222q31 0 28 -32l-78 -542z" />
    <glyph glyph-name="uni043A" unicode="&#x43a;" horiz-adv-x="1236" 
d="M1154 980q20 0 24.5 -11t-10.5 -25l-436 -392l381 -516q11 -15 5.5 -25.5t-23.5 -10.5h-265q-23 0 -36 18l-262 354l-143 -128l-30 -216q-3 -28 -32 -28h-222q-31 0 -28 32l128 920q3 28 32 28h222q31 0 28 -32l-49 -356l412 374q17 14 38 14h266z" />
    <glyph glyph-name="uni043B" unicode="&#x43b;" horiz-adv-x="1290" 
d="M1205 980q31 0 28 -32l-128 -920q-3 -28 -32 -28h-222q-31 0 -28 32l101 719h-325l-50 -352q-27 -194 -141 -297t-289 -112q-28 0 -34 26l-45 206q-6 31 26 34q77 11 138 66t73 147l67 483q3 28 32 28h829z" />
    <glyph glyph-name="uni043C" unicode="&#x43c;" horiz-adv-x="1236" 
d="M589 272l303 686q8 22 34 22h215q31 0 28 -32l-128 -920q-3 -28 -32 -28h-211q-31 0 -28 32l56 387l-164 -395q-9 -24 -37 -24h-139q-29 0 -32 28l-50 391l-56 -391q-3 -28 -32 -28h-211q-31 0 -28 32l128 920q3 28 32 28h216q30 0 31 -28z" />
    <glyph glyph-name="uni043D" unicode="&#x43d;" horiz-adv-x="1200" 
d="M1105 980q31 0 28 -32l-128 -920q-3 -28 -32 -28h-222q-31 0 -28 32l48 343h-364l-48 -347q-3 -28 -32 -28h-222q-31 0 -28 32l128 920q3 28 32 28h222q31 0 28 -32l-48 -343h364l48 347q3 28 32 28h222z" />
    <glyph glyph-name="uni043E" unicode="&#x43e;" 
d="M589 -26q-202 0 -333.5 134.5t-131.5 336.5q0 114 45 218t120.5 178t177.5 117.5t212 43.5q202 0 334.5 -133t132.5 -334q0 -150 -73.5 -279t-202.5 -205.5t-281 -76.5zM609 235q111 0 187 77.5t76 207.5q0 98 -59 159.5t-152 61.5q-112 0 -188.5 -81.5t-76.5 -203.5
q0 -98 60 -159.5t153 -61.5z" />
    <glyph glyph-name="uni043F" unicode="&#x43f;" horiz-adv-x="1200" 
d="M1105 980q31 0 28 -32l-128 -920q-3 -28 -32 -28h-222q-31 0 -28 32l101 719h-364l-101 -723q-3 -28 -32 -28h-222q-31 0 -28 32l128 920q3 28 32 28h868z" />
    <glyph glyph-name="uni0440" unicode="&#x440;" horiz-adv-x="1284" 
d="M794 1002q166 0 265 -121t99 -308q0 -159 -61.5 -295t-178.5 -220t-266 -84q-181 0 -286 125l-64 -451q-4 -28 -32 -28h-220q-32 0 -28 32l186 1300q4 28 32 28h208q13 0 22 -12t8 -26l-5 -73h24q113 133 297 133zM614 231q126 0 200 92t74 220q0 97 -50.5 149.5
t-137.5 52.5q-89 0 -154.5 -48t-95 -117t-29.5 -146q0 -98 50.5 -150.5t142.5 -52.5z" />
    <glyph glyph-name="uni0441" unicode="&#x441;" horiz-adv-x="1193" 
d="M1042 267q26 -17 10 -42q-75 -117 -195.5 -184t-267.5 -67q-202 0 -333.5 134.5t-131.5 336.5q0 114 45 218t120.5 178t177.5 117.5t212 43.5q142 0 253 -68.5t167 -185.5q11 -28 -15 -40l-186 -90q-25 -12 -40 13q-31 51 -82 80.5t-115 29.5q-112 0 -188.5 -81.5
t-76.5 -203.5q0 -98 60 -159.5t153 -61.5q146 0 232 119q17 24 41 9z" />
    <glyph glyph-name="uni0442" unicode="&#x442;" horiz-adv-x="1213" 
d="M1174 980q31 0 28 -32l-23 -169q-3 -28 -32 -28h-363l-101 -723q-3 -28 -32 -28h-222q-31 0 -28 32l101 719h-357q-31 0 -28 32l23 169q3 28 32 28h1002z" />
    <glyph glyph-name="uni0443" unicode="&#x443;" horiz-adv-x="1240" 
d="M1116 980q31 0 28 -32l-126 -868q-68 -470 -538 -470q-207 0 -319.5 75.5t-116.5 226.5q0 30 30 30h202q23 0 33 -25q17 -44 61.5 -60t112.5 -16q114 0 175.5 56t79.5 183l16 109q-76 -163 -288 -163q-165 0 -253 107.5t-58 309.5l76 509q3 28 32 28h220q31 0 28 -32
l-67 -468q-27 -193 131 -193q131 0 213 142l76 527q3 24 34 24h218z" />
    <glyph glyph-name="uni0444" unicode="&#x444;" horiz-adv-x="1297" 
d="M853 988q181 -37 261.5 -169.5t50.5 -346.5q-30 -210 -146 -334.5t-308 -154.5l-47 -335q-3 -28 -32 -28h-212q-31 0 -28 32l47 336q-181 37 -261.5 169.5t-50.5 346.5q29 210 145.5 334.5t308.5 154.5l53 379q3 28 32 28h212q31 0 28 -32zM373 472q-13 -99 11 -151
t92 -72l67 479q-77 -21 -115.5 -81t-54.5 -175zM919 504q13 99 -11 151t-92 72l-68 -479q77 21 116 81t55 175z" />
    <glyph glyph-name="uni0445" unicode="&#x445;" horiz-adv-x="1305" 
d="M1122 36q10 -16 4 -26t-24 -10h-248q-25 0 -36 20l-187 292l-272 -296q-13 -16 -36 -16h-255q-19 0 -23.5 11t9.5 25l444 473l-283 435q-10 16 -4 26t24 10h246q25 0 36 -20l160 -255l242 259q13 16 36 16h253q19 0 23.5 -11t-9.5 -25l-410 -435z" />
    <glyph glyph-name="uni0446" unicode="&#x446;" horiz-adv-x="1267" 
d="M1123 229q15 0 22.5 -8.5t5.5 -23.5l-45 -314q-4 -28 -32 -28h-212q-15 0 -22.5 8.5t-5.5 23.5l18 113h-757q-31 0 -28 32l128 920q3 28 32 28h222q31 0 28 -32l-101 -719h364l101 723q3 28 32 28h222q31 0 28 -32l-100 -719h100z" />
    <glyph glyph-name="uni0447" unicode="&#x447;" horiz-adv-x="1233" 
d="M1138 980q31 0 28 -32l-128 -920q-3 -28 -32 -28h-222q-31 0 -28 32l37 266q-118 -84 -265 -84q-71 0 -132 16.5t-111 50t-82 85t-44.5 122.5t0.5 162l41 302q3 28 32 28h222q31 0 28 -32l-44 -318q-14 -97 21 -156.5t131 -59.5q121 0 234 108l60 430q3 28 32 28h222z
" />
    <glyph glyph-name="uni0448" unicode="&#x448;" horiz-adv-x="1358" 
d="M1263 980q32 0 28 -32l-128 -920q-4 -28 -32 -28h-1026q-32 0 -28 32l128 920q4 28 32 28h200q32 0 28 -32l-100 -719h164l101 723q3 28 32 28h176q31 0 28 -32l-100 -719h164l101 723q4 28 32 28h200z" />
    <glyph glyph-name="uni0449" unicode="&#x449;" horiz-adv-x="1447" 
d="M1303 229q15 0 22.5 -8.5t5.5 -23.5l-45 -314q-4 -28 -32 -28h-212q-15 0 -22.5 8.5t-5.5 23.5l18 113h-927q-32 0 -28 32l128 920q4 28 32 28h200q32 0 28 -32l-100 -719h164l101 723q3 28 32 28h176q31 0 28 -32l-100 -719h164l101 723q4 28 32 28h200q32 0 28 -32
l-100 -719h112z" />
    <glyph glyph-name="uni044A" unicode="&#x44a;" horiz-adv-x="1317" 
d="M808 694q214 0 304 -84t63 -279q-26 -184 -132 -257.5t-320 -73.5h-518q-31 0 -28 32l100 719h-117q-32 0 -28 32l23 169q4 28 32 28h372q31 0 28 -32l-35 -254h256zM908 363q10 76 -12.5 100t-100.5 24h-272l-39 -280h259q78 0 115 34.5t50 121.5z" />
    <glyph glyph-name="uni044B" unicode="&#x44b;" horiz-adv-x="1358" 
d="M506 694q211 0 281 -80.5t43 -282.5q-27 -190 -112.5 -260.5t-296.5 -70.5h-316q-31 0 -28 32l128 920q3 28 32 28h201q31 0 28 -32l-36 -254h76zM1273 980q32 0 28 -32l-128 -920q-4 -28 -32 -28h-201q-32 0 -28 32l128 920q4 28 32 28h201zM442 207q62 0 96 35.5
t46 120.5q10 75 -9 99.5t-81 24.5h-93l-39 -280h80z" />
    <glyph glyph-name="uni044C" unicode="&#x44c;" horiz-adv-x="1227" 
d="M708 694q214 0 304 -84t63 -279q-26 -184 -132 -257.5t-320 -73.5h-518q-31 0 -28 32l128 920q3 28 32 28h222q31 0 28 -32l-35 -254h256zM808 363q10 76 -12.5 100t-100.5 24h-272l-39 -280h259q78 0 115 34.5t50 121.5z" />
    <glyph glyph-name="uni044D" unicode="&#x44d;" horiz-adv-x="1210" 
d="M616 1002q151 0 264 -70t165.5 -191.5t32.5 -268.5q-30 -213 -192 -355.5t-378 -142.5q-145 0 -251 64t-148 164q-9 21 -3.5 33t26.5 24l131 70q28 16 55 -16q70 -78 186 -78q81 0 152.5 41t112.5 110h-237q-31 0 -28 32l21 144q3 28 32 28h252q-16 70 -72.5 110.5
t-138.5 40.5q-134 0 -217 -97q-23 -30 -59 -2l-137 96q-35 24 -11 58q77 95 193 150.5t249 55.5z" />
    <glyph glyph-name="uni044E" unicode="&#x44e;" horiz-adv-x="1669" 
d="M1073 1002q202 0 334.5 -133t132.5 -334q0 -150 -73.5 -279t-202.5 -205.5t-281 -76.5q-182 0 -309.5 112t-150.5 287h-137l-48 -345q-3 -28 -32 -28h-201q-31 0 -28 32l128 920q3 28 32 28h201q31 0 28 -32l-48 -345h123q52 175 200.5 287t331.5 112zM1003 235
q111 0 187 77.5t76 207.5q0 98 -59 159.5t-152 61.5q-112 0 -188.5 -81.5t-76.5 -203.5q0 -98 60 -159.5t153 -61.5z" />
    <glyph glyph-name="uni044F" unicode="&#x44f;" horiz-adv-x="1210" 
d="M1120 980q31 0 28 -32l-128 -920q-3 -28 -32 -28h-222q-31 0 -28 32l42 296h-106l-321 -312q-16 -16 -38 -16h-242q-20 0 -24.5 10.5t10.5 25.5l319 301q-122 19 -181 82.5t-59 181.5q0 205 112.5 292t339.5 87h530zM570 773q-84 0 -123 -38.5t-39 -103.5
q0 -53 27.5 -74.5t85.5 -21.5h288l33 238h-272z" />
    <glyph glyph-name="uni0451" unicode="&#x451;" 
d="M418 1196q-58 0 -99.5 41.5t-41.5 101.5q0 59 41.5 100t99.5 41t99.5 -41t41.5 -100q0 -60 -41.5 -101.5t-99.5 -41.5zM861 1196q-58 0 -99.5 41.5t-41.5 101.5q0 59 41.5 100t99.5 41t99.5 -41t41.5 -100q0 -60 -41.5 -101.5t-99.5 -41.5zM1155 618q0 -53 -13 -92.5
t-47 -73.5t-100 -52t-163 -18h-451q2 -87 73 -134t195 -47q143 0 245 64q30 18 53 -9l80 -95q26 -31 -3 -54q-155 -133 -409 -133q-227 0 -360.5 126t-133.5 322q0 157 78.5 290.5t214.5 211.5t299 78q207 0 324.5 -109.5t117.5 -274.5zM415 573h321q103 0 137 12t33 51
q-2 53 -58 90.5t-146 37.5q-102 0 -178 -49.5t-109 -141.5z" />
    <glyph glyph-name="uni0453" unicode="&#x453;" horiz-adv-x="1209" 
d="M599 1090q-18 0 -23.5 10.5t3.5 25.5l160 254q11 20 36 20h198q18 0 23.5 -10.5t-3.5 -25.5l-158 -254q-11 -20 -36 -20h-200zM205 952q3 28 32 28h888q31 0 28 -32l-23 -169q-3 -28 -32 -28h-638l-101 -723q-3 -28 -32 -28h-222q-31 0 -28 32z" />
    <glyph glyph-name="uni0454" unicode="&#x454;" horiz-adv-x="1193" 
d="M1099 748q11 -28 -15 -40l-186 -90q-25 -12 -40 13q-31 51 -82 80.5t-115 29.5q-77 0 -140 -41t-96 -110h300q15 0 22.5 -8.5t5.5 -23.5l-21 -144q-4 -28 -32 -28h-295q20 -69 74.5 -110t129.5 -41q146 0 232 119q17 24 41 9l160 -96q26 -17 10 -42q-75 -117 -195.5 -184
t-267.5 -67q-202 0 -333.5 134.5t-131.5 336.5q0 114 45 218t120.5 178t177.5 117.5t212 43.5q142 0 253 -68.5t167 -185.5z" />
    <glyph glyph-name="uni0457" unicode="&#x457;" horiz-adv-x="1232" 
d="M507 1136q-58 0 -99.5 41.5t-41.5 101.5q0 59 41.5 100t99.5 41t99.5 -41t41.5 -100q0 -60 -41.5 -101.5t-99.5 -41.5zM950 1136q-58 0 -99.5 41.5t-41.5 101.5q0 59 41.5 100t99.5 41t99.5 -41t41.5 -100q0 -60 -41.5 -101.5t-99.5 -41.5zM1103 157q10 -23 -6 -42
q-44 -50 -134.5 -92.5t-199.5 -42.5q-56 0 -106.5 9t-98.5 30t-83 54.5t-60.5 81.5t-30.5 112.5t7 146.5l58 337h-305q-15 0 -22.5 8.5t-5.5 23.5l25 169q4 28 32 28h557q32 0 27 -32l-81 -511q-8 -65 -2 -107t29 -66.5t48.5 -34t56.5 -9.5q91 0 180 75q12 13 31.5 10.5
t27.5 -22.5z" />
    <glyph glyph-name="uni0490" unicode="&#x490;" horiz-adv-x="1213" 
d="M1197 1502q32 0 28 -32l-14 -100v-2l-27 -198q-3 -28 -32 -28h-603l-156 -1114q-3 -28 -32 -28h-232q-31 0 -28 32l188 1340q3 28 32 28h636l10 74q4 28 32 28h198z" />
    <glyph glyph-name="uni0491" unicode="&#x491;" horiz-adv-x="1209" 
d="M1138 1104q32 0 28 -32l-15 -105q3 -8 2 -19l-23 -169q-3 -28 -32 -28h-638l-101 -723q-3 -28 -32 -28h-222q-31 0 -28 32l128 920q3 28 32 28h633l14 96q4 28 32 28h222z" />
    <glyph glyph-name="Wgrave" unicode="&#x1e80;" horiz-adv-x="2079" 
d="M1286 1544q10 -34 -24 -34h-196q-26 0 -34 24l-84 252q-10 34 24 34h194q26 0 34 -24zM1411 386l374 990q8 24 34 24h243q17 0 23.5 -9.5t0.5 -25.5l-544 -1342q-9 -23 -34 -23h-256q-28 0 -32 28l-136 883l-390 -888q-11 -23 -35 -23h-254q-28 0 -31 28l-164 1340
q-3 32 28 32h240q29 0 32 -29l87 -985l405 991q9 23 35 23h220q29 0 32 -28z" />
    <glyph glyph-name="wgrave" unicode="&#x1e81;" horiz-adv-x="1427" 
d="M917 1124q10 -34 -24 -34h-196q-26 0 -34 24l-84 252q-10 34 24 34h194q26 0 34 -24zM1292 980q30 0 30 -30q0 -147 -15 -283t-50 -263.5t-87.5 -222t-132 -151t-178.5 -56.5q-151 0 -212 121q-88 -122 -247 -122q-152 0 -220 98t-45 249l63 431h-54q-34 0 -28 32l25 169
q4 28 32 28h291q13 0 22.5 -12t7.5 -26l-89 -603q-14 -100 69 -100q79 0 95 101l90 612q3 28 32 28h181q31 0 28 -32l-83 -614q-14 -95 52 -95q58 0 101.5 107t64 266t19.5 338q0 30 30 30h208z" />
    <glyph glyph-name="Wacute" unicode="&#x1e82;" horiz-adv-x="2079" 
d="M1072 1510q-18 0 -23.5 10.5t3.5 25.5l160 254q11 20 36 20h198q18 0 23.5 -10.5t-3.5 -25.5l-158 -254q-11 -20 -36 -20h-200zM1411 386l374 990q8 24 34 24h243q17 0 23.5 -9.5t0.5 -25.5l-544 -1342q-9 -23 -34 -23h-256q-28 0 -32 28l-136 883l-390 -888
q-11 -23 -35 -23h-254q-28 0 -31 28l-164 1340q-3 32 28 32h240q29 0 32 -29l87 -985l405 991q9 23 35 23h220q29 0 32 -28z" />
    <glyph glyph-name="wacute" unicode="&#x1e83;" horiz-adv-x="1427" 
d="M703 1090q-18 0 -23.5 10.5t3.5 25.5l160 254q11 20 36 20h198q18 0 23.5 -10.5t-3.5 -25.5l-158 -254q-11 -20 -36 -20h-200zM1292 980q30 0 30 -30q0 -147 -15 -283t-50 -263.5t-87.5 -222t-132 -151t-178.5 -56.5q-151 0 -212 121q-88 -122 -247 -122q-152 0 -220 98
t-45 249l63 431h-54q-34 0 -28 32l25 169q4 28 32 28h291q13 0 22.5 -12t7.5 -26l-89 -603q-14 -100 69 -100q79 0 95 101l90 612q3 28 32 28h181q31 0 28 -32l-83 -614q-14 -95 52 -95q58 0 101.5 107t64 266t19.5 338q0 30 30 30h208z" />
    <glyph glyph-name="Wdieresis" unicode="&#x1e84;" horiz-adv-x="2079" 
d="M974 1556q-58 0 -99.5 41.5t-41.5 101.5q0 59 41.5 100t99.5 41t99.5 -41t41.5 -100q0 -60 -41.5 -101.5t-99.5 -41.5zM1417 1556q-58 0 -99.5 41.5t-41.5 101.5q0 59 41.5 100t99.5 41t99.5 -41t41.5 -100q0 -60 -41.5 -101.5t-99.5 -41.5zM1411 386l374 990q8 24 34 24
h243q17 0 23.5 -9.5t0.5 -25.5l-544 -1342q-9 -23 -34 -23h-256q-28 0 -32 28l-136 883l-390 -888q-11 -23 -35 -23h-254q-28 0 -31 28l-164 1340q-3 32 28 32h240q29 0 32 -29l87 -985l405 991q9 23 35 23h220q29 0 32 -28z" />
    <glyph glyph-name="wdieresis" unicode="&#x1e85;" horiz-adv-x="1427" 
d="M605 1136q-58 0 -99.5 41.5t-41.5 101.5q0 59 41.5 100t99.5 41t99.5 -41t41.5 -100q0 -60 -41.5 -101.5t-99.5 -41.5zM1048 1136q-58 0 -99.5 41.5t-41.5 101.5q0 59 41.5 100t99.5 41t99.5 -41t41.5 -100q0 -60 -41.5 -101.5t-99.5 -41.5zM1292 980q30 0 30 -30
q0 -147 -15 -283t-50 -263.5t-87.5 -222t-132 -151t-178.5 -56.5q-151 0 -212 121q-88 -122 -247 -122q-152 0 -220 98t-45 249l63 431h-54q-34 0 -28 32l25 169q4 28 32 28h291q13 0 22.5 -12t7.5 -26l-89 -603q-14 -100 69 -100q79 0 95 101l90 612q3 28 32 28h181
q31 0 28 -32l-83 -614q-14 -95 52 -95q58 0 101.5 107t64 266t19.5 338q0 30 30 30h208z" />
    <glyph glyph-name="uni1E9E" unicode="&#x1e9e;" horiz-adv-x="1475" 
d="M950 818q403 -64 403 -382q0 -217 -135 -339.5t-360 -122.5q-204 0 -294.5 99t-81.5 273q1 28 31 28h191q29 0 29 -32q0 -111 135 -111q85 0 138.5 54t53.5 136q0 189 -360 189q-18 0 -29 12t-9 27l24 186l260 317h-263q-83 0 -123.5 -41.5t-54.5 -141.5l-133 -941
q-4 -28 -32 -28h-232q-33 0 -28 32l138 975q17 117 50 194t90.5 123.5t135.5 66t191 19.5h702q19 0 24 -11t-7 -26z" />
    <glyph glyph-name="Ygrave" unicode="&#x1ef2;" horiz-adv-x="1477" 
d="M740 1534l-84 252q-10 34 24 34h194q26 0 34 -24l86 -252q10 -34 -24 -34h-196q-26 0 -34 24zM1492 1400q19 0 24 -11t-6 -26l-626 -826l-71 -509q-4 -28 -32 -28h-232q-32 0 -27 32l72 517l-390 816q-7 16 -1 25.5t23 9.5h260q25 0 35 -22l255 -545l415 549q13 18 37 18
h264z" />
    <glyph glyph-name="ygrave" unicode="&#x1ef3;" horiz-adv-x="1240" 
d="M569 1114l-84 252q-10 34 24 34h194q26 0 34 -24l86 -252q10 -34 -24 -34h-196q-26 0 -34 24zM1116 980q31 0 28 -32l-126 -868q-68 -470 -538 -470q-207 0 -319.5 75.5t-116.5 226.5q0 30 30 30h202q23 0 33 -25q17 -44 61.5 -60t112.5 -16q114 0 175.5 56t79.5 183
l16 109q-76 -163 -288 -163q-165 0 -253 107.5t-58 309.5l76 509q3 28 32 28h220q31 0 28 -32l-67 -468q-27 -193 131 -193q131 0 213 142l76 527q3 24 34 24h218z" />
    <glyph glyph-name="endash" unicode="&#x2013;" horiz-adv-x="1459" 
d="M1276 670q34 0 29 -32l-24 -169q-3 -28 -32 -28l-1048 -3q-33 0 -28 32l24 169q2 28 32 28z" />
    <glyph glyph-name="emdash" unicode="&#x2014;" horiz-adv-x="1802" 
d="M1619 667q33 0 28 -32l-24 -169q-2 -28 -32 -28h-1390q-33 0 -28 32l24 169q2 28 32 28h1390z" />
    <glyph glyph-name="quoteleft" unicode="&#x2018;" horiz-adv-x="790" 
d="M709 996q33 0 28 -32l-24 -171q-4 -28 -32 -28h-490q-33 0 -28 32l15 104q38 283 135 461q21 38 68 38h108q18 0 27 -13.5t2 -33.5q-26 -72 -48.5 -176.5t-30.5 -180.5h270z" />
    <glyph glyph-name="quoteright" unicode="&#x2019;" horiz-adv-x="781" 
d="M238 1169q-33 0 -28 32l24 171q4 28 32 28h490q33 0 28 -32l-15 -104q-38 -283 -135 -461q-21 -38 -68 -38h-108q-18 0 -27 13.5t-2 33.5q26 72 48.5 176.5t30.5 180.5h-270z" />
    <glyph glyph-name="quotesinglbase" unicode="&#x201a;" horiz-adv-x="821" 
d="M109 0q-33 0 -28 32l24 171q4 28 32 28h490q33 0 28 -32l-15 -104q-38 -283 -135 -461q-21 -38 -68 -38h-108q-18 0 -27 13.5t-2 33.5q26 72 48.5 176.5t30.5 180.5h-270z" />
    <glyph glyph-name="quotedblleft" unicode="&#x201c;" horiz-adv-x="1481" 
d="M709 996q33 0 28 -32l-24 -171q-4 -28 -32 -28h-490q-33 0 -28 32l15 104q38 283 135 461q21 38 68 38h108q18 0 27 -13.5t2 -33.5q-26 -72 -48.5 -176.5t-30.5 -180.5h270zM1400 996q33 0 28 -32l-24 -171q-4 -28 -32 -28h-490q-33 0 -28 32l15 104q38 283 135 461
q21 38 68 38h108q18 0 27 -13.5t2 -33.5q-26 -72 -48.5 -176.5t-30.5 -180.5h270z" />
    <glyph glyph-name="quotedblright" unicode="&#x201d;" horiz-adv-x="1482" 
d="M248 1169q-33 0 -28 32l24 171q4 28 32 28h490q33 0 28 -32l-15 -104q-38 -283 -135 -461q-21 -38 -68 -38h-108q-18 0 -27 13.5t-2 33.5q26 72 48.5 176.5t30.5 180.5h-270zM939 1169q-33 0 -28 32l24 171q4 28 32 28h490q33 0 28 -32l-15 -104q-38 -283 -135 -461
q-21 -38 -68 -38h-108q-18 0 -27 13.5t-2 33.5q26 72 48.5 176.5t30.5 180.5h-270z" />
    <glyph glyph-name="quotedblbase" unicode="&#x201e;" horiz-adv-x="1513" 
d="M110 8q-33 0 -28 32l24 171q4 28 32 28h490q33 0 28 -32l-15 -104q-38 -283 -135 -461q-21 -38 -68 -38h-108q-18 0 -27 13.5t-2 33.5q26 72 48.5 176.5t30.5 180.5h-270zM801 8q-33 0 -28 32l24 171q4 28 32 28h490q33 0 28 -32l-15 -104q-38 -283 -135 -461
q-21 -38 -68 -38h-108q-18 0 -27 13.5t-2 33.5q26 72 48.5 176.5t30.5 180.5h-270z" />
    <glyph glyph-name="dagger" unicode="&#x2020;" horiz-adv-x="1239" 
d="M1123 1147q35 0 28 -32l-21 -147q-3 -28 -32 -28h-311l-44 -314q-3 -28 -32 -28h-147q-31 0 -28 32l44 310h-309q-31 0 -28 32l21 147q3 28 32 28h313l44 313q3 28 32 28h147q31 0 28 -32l-44 -309h307z" />
    <glyph glyph-name="daggerdbl" unicode="&#x2021;" horiz-adv-x="1239" 
d="M1123 1147q35 0 28 -32l-21 -147q-3 -28 -32 -28h-311l-43 -305v-7l-44 -309h307q35 0 28 -32l-21 -147q-3 -28 -32 -28h-311l-44 -314q-3 -28 -32 -28h-147q-31 0 -28 32l44 310h-309q-31 0 -28 32l21 147q3 28 32 28h313l43 304v7l44 310h-309q-31 0 -28 32l21 147
q3 28 32 28h313l44 313q3 28 32 28h147q31 0 28 -32l-44 -309h307z" />
    <glyph glyph-name="bullet" unicode="&#x2022;" horiz-adv-x="1204" 
d="M610 276q-112 0 -193 81t-81 193q0 113 80.5 194t193.5 81t194 -81t81 -194t-81 -193.5t-194 -80.5z" />
    <glyph glyph-name="ellipsis" unicode="&#x2026;" horiz-adv-x="1467" 
d="M268 -28q-70 0 -120 50t-50 120t50 119.5t120 49.5t120 -49.5t50 -119.5t-50 -120t-120 -50zM693 -28q-71 0 -120.5 50t-49.5 120t50 119.5t120 49.5t120 -49.5t50 -119.5t-49.5 -120t-120.5 -50zM1120 -28q-70 0 -120 50t-50 120t50 119.5t120 49.5t120 -49.5t50 -119.5
t-50 -120t-120 -50z" />
    <glyph glyph-name="perthousand" unicode="&#x2030;" horiz-adv-x="1338" 
d="M474 1410q111 0 157.5 -76.5t26.5 -221.5q-37 -266 -239 -266q-111 0 -156.5 77.5t-25.5 222.5q37 264 237 264zM470 1230q-34 0 -48.5 -28.5t-23.5 -89.5q-8 -40 -3.5 -63t28.5 -23q35 0 50.5 30t23.5 90q7 40 2 62t-29 22zM990 1139q21 -19 4 -42l-721 -901
q-21 -24 -44 -4l-82 71q-21 19 -4 42l721 901q21 24 44 4zM974 554q111 0 158.5 -77t27.5 -221q-40 -266 -239 -266q-84 0 -128 42q-50 -42 -132 -42q-112 0 -159 78t-26 222q37 264 238 264q84 0 127 -39q55 39 133 39zM665 170q33 0 49.5 30.5t24.5 89.5q7 40 1 62t-30 22
q-33 0 -48.5 -29.5t-23.5 -88.5q-8 -40 -2.5 -63t29.5 -23zM925 170q35 0 50 30t24 90q7 40 2 62t-31 22q-33 0 -47 -28.5t-23 -89.5q-8 -40 -3.5 -63t28.5 -23z" />
    <glyph glyph-name="guilsinglleft" unicode="&#x2039;" horiz-adv-x="872" 
d="M767 980q18 0 24 -10.5t-6 -25.5l-314 -382l204 -382q7 -15 1 -25.5t-23 -10.5h-223q-25 0 -36 22l-204 374q-12 20 4 42l310 380q15 18 36 18h227z" />
    <glyph glyph-name="guilsinglright" unicode="&#x203a;" horiz-adv-x="872" 
d="M217 944q-7 15 -1 25.5t23 10.5h221q25 0 36 -22l206 -374q12 -20 -4 -42l-312 -380q-15 -18 -36 -18h-225q-18 0 -24 10.5t6 25.5l314 382z" />
    <glyph glyph-name="fraction" unicode="&#x2044;" horiz-adv-x="1369" 
d="M135 0q-18 0 -24 10t4 26l903 1344q13 20 36 20h239q18 0 24 -10t-4 -26l-900 -1344q-13 -20 -36 -20h-242z" />
    <glyph glyph-name="Euro" unicode="&#x20ac;" horiz-adv-x="1575" 
d="M1521 1205q25 -30 1 -51l-135 -129q-20 -22 -48 4q-121 101 -274 101q-107 0 -203 -52.5t-164 -142.5h147q32 0 28 -32l-21 -147q-4 -28 -32 -28h-217q-9 -41 -12 -82h213q32 0 28 -32l-21 -147q-4 -28 -32 -28h-151q41 -84 118 -131.5t177 -47.5q171 0 304 107
q14 12 29 11t25 -15l113 -148q25 -35 -4 -61q-98 -83 -223 -131.5t-256 -48.5q-219 0 -379 128.5t-210 336.5h-157q-32 0 -28 32l21 147q4 28 32 28h114q4 54 9 82h-107q-32 0 -28 32l21 147q4 28 32 28h144q96 212 288.5 346.5t415.5 134.5q141 0 255 -56.5t187 -154.5z
" />
    <glyph glyph-name="uni2116" unicode="&#x2116;" horiz-adv-x="1742" 
d="M1348 773q-124 0 -204.5 82.5t-80.5 205.5q0 143 105 246t244 103q123 0 204 -82t81 -203q0 -145 -104 -248.5t-245 -103.5zM679 632l106 740q4 28 32 28h185q32 0 27 -32l-188 -1340q-4 -28 -32 -28h-244q-28 0 -31 28l-79 773l-110 -773q-4 -28 -32 -28h-185
q-32 0 -27 32l188 1340q4 28 32 28h242q28 0 31 -28zM1397 1216q-58 0 -98.5 -43t-40.5 -102q0 -45 28 -73.5t74 -28.5q59 0 100.5 42t41.5 101q0 45 -29.5 74.5t-75.5 29.5zM1013 449q-32 0 -27 32l23 165q4 28 32 28h556q32 0 27 -32l-23 -165q-4 -28 -32 -28h-556z" />
    <glyph glyph-name="trademark" unicode="&#x2122;" horiz-adv-x="1233" 
d="M291 1302q-32 0 -27 32l5 38q4 28 32 28h331q32 0 27 -32l-6 -38q-4 -28 -32 -28h-113l-52 -374q-4 -28 -32 -28h-48q-33 0 -28 32l52 370h-109zM1076 1377q11 23 35 23h72q33 0 28 -32l-62 -440q-4 -28 -32 -28h-37q-32 0 -27 32l40 285l-122 -294q-9 -23 -36 -23h-40
q-28 0 -32 28l-47 289l-41 -289q-4 -28 -32 -28h-37q-33 0 -28 32l62 440q4 28 32 28h68q28 0 32 -28l53 -328z" />
    <glyph glyph-name="oneeighth" unicode="&#x215b;" horiz-adv-x="1391" 
d="M312 798q-31 0 -28 26l23 138q3 23 32 23h325l70 388q-105 -75 -307 -81q-33 0 -30 27l16 155q3 23 35 24q177 8 317 102h252q31 0 28 -26l-100 -589h234q31 0 28 -26l-23 -138q-3 -23 -32 -23h-840zM1264 707q31 0 28 -32l-18 -130q-3 -28 -32 -28h-1080q-31 0 -28 32
l18 130q3 28 32 28h1080zM973 60q102 -34 144 -85t29 -134q-36 -231 -550 -231q-270 0 -392 65.5t-100 191.5q13 77 67.5 121t177.5 81q-55 11 -87 60t-21 109q15 94 132 148t340 54q231 0 336 -62t87 -166q-8 -53 -52 -95t-111 -57zM487 179q-2 -29 38 -42.5t145 -13.5
q118 0 160 17.5t48 55.5q4 30 -35.5 44.5t-136.5 14.5q-118 0 -166.5 -20t-52.5 -56zM880 -112q3 25 -21.5 39.5t-76 21t-136.5 6.5q-136 0 -197.5 -20t-69.5 -64q-6 -36 48.5 -50t191.5 -14q138 0 196.5 19.5t64.5 61.5z" />
    <glyph glyph-name="threeeighths" unicode="&#x215c;" horiz-adv-x="1391" 
d="M1108 1209q114 -24 165 -72t36 -131q-20 -120 -162 -173.5t-399 -53.5q-94 0 -165.5 6t-136 22t-104.5 42.5t-61 69.5t-15 101q0 25 30 25l218 5q27 0 31 -22q10 -36 59.5 -46.5t156.5 -10.5q125 0 185 21t68 65q4 24 -14 38t-85.5 23.5t-193.5 10.5q-35 0 -32 26l8 89
q3 23 33 23q131 0 200.5 8.5t96 23.5t30.5 44q12 74 -192 74q-98 0 -164 -20t-92 -76q-11 -25 -36 -19l-212 29q-29 5 -25 28q18 72 63.5 122t117.5 77.5t157.5 39.5t196.5 12q151 0 258 -24.5t164 -79.5t43 -137q-23 -128 -228 -160zM1264 707q31 0 28 -32l-18 -130
q-3 -28 -32 -28h-1080q-31 0 -28 32l18 130q3 28 32 28h1080zM973 60q102 -34 144 -85t29 -134q-36 -231 -550 -231q-270 0 -392 65.5t-100 191.5q13 77 67.5 121t177.5 81q-55 11 -87 60t-21 109q15 94 132 148t340 54q231 0 336 -62t87 -166q-8 -53 -52 -95t-111 -57z
M487 179q-2 -29 38 -42.5t145 -13.5q118 0 160 17.5t48 55.5q4 30 -35.5 44.5t-136.5 14.5q-118 0 -166.5 -20t-52.5 -56zM619 -193q138 0 196.5 19.5t64.5 61.5q3 25 -21.5 39.5t-76 21t-136.5 6.5q-136 0 -197.5 -20t-69.5 -64q-6 -36 48.5 -50t191.5 -14z" />
    <glyph glyph-name="fiveeighths" unicode="&#x215d;" horiz-adv-x="1391" 
d="M844 1348q244 0 356 -69.5t87 -215.5q-24 -139 -159 -204.5t-392 -65.5q-225 0 -348 60.5t-122 198.5q0 20 24 20h195q21 0 37 -29q21 -43 76.5 -57.5t147.5 -14.5q142 0 212 28t81 85q9 54 -49.5 78.5t-178.5 24.5q-147 0 -242 -49q-29 -17 -61 -9l-167 45q-31 7 -19 30
l185 376q9 20 36 20h687q31 0 28 -26l-21 -124q-3 -23 -32 -23h-531l-54 -104q120 25 224 25zM1264 707q31 0 28 -32l-18 -130q-3 -28 -32 -28h-1080q-31 0 -28 32l18 130q3 28 32 28h1080zM982 60q102 -34 144 -85t29 -134q-36 -231 -550 -231q-270 0 -392 65.5t-100 191.5
q13 77 67.5 121t177.5 81q-55 11 -87 60t-21 109q15 94 132 148t340 54q231 0 336 -62t87 -166q-8 -53 -52 -95t-111 -57zM496 179q-2 -29 38 -42.5t145 -13.5q118 0 160 17.5t48 55.5q4 30 -35.5 44.5t-136.5 14.5q-118 0 -166.5 -20t-52.5 -56zM628 -193q138 0 196.5 19.5
t64.5 61.5q3 25 -21.5 39.5t-76 21t-136.5 6.5q-136 0 -197.5 -20t-69.5 -64q-6 -36 48.5 -50t191.5 -14z" />
    <glyph glyph-name="seveneighths" unicode="&#x215e;" horiz-adv-x="1391" 
d="M333 1406q-15 0 -22.5 6.5t-5.5 19.5l25 145q4 23 32 23h898q31 0 28 -26l-26 -158q-3 -18 -16 -30l-642 -575q-13 -13 -36 -13h-245q-19 0 -24.5 9t8.5 20l648 579h-622zM1264 707q31 0 28 -32l-18 -130q-3 -28 -32 -28h-1080q-31 0 -28 32l18 130q3 28 32 28h1080z
M982 60q102 -34 144 -85t29 -134q-36 -231 -550 -231q-270 0 -392 65.5t-100 191.5q13 77 67.5 121t177.5 81q-55 11 -87 60t-21 109q15 94 132 148t340 54q231 0 336 -62t87 -166q-8 -53 -52 -95t-111 -57zM496 179q-2 -29 38 -42.5t145 -13.5q118 0 160 17.5t48 55.5
q4 30 -35.5 44.5t-136.5 14.5q-118 0 -166.5 -20t-52.5 -56zM628 -193q138 0 196.5 19.5t64.5 61.5q3 25 -21.5 39.5t-76 21t-136.5 6.5q-136 0 -197.5 -20t-69.5 -64q-6 -36 48.5 -50t191.5 -14z" />
    <glyph glyph-name="partialdiff" unicode="&#x2202;" horiz-adv-x="1306" 
d="M674 881q74 0 155.5 -25.5t102.5 -62.5l22 145q5 48 6 83.5t-10 61t-25.5 42t-40.5 26t-54.5 13t-66.5 3.5q-39 0 -74.5 -6t-70.5 -19.5t-60 -40.5t-34 -64q-1 -4 -3 -7t-3.5 -4.5t-5.5 -2t-5.5 -0.5h-7h-7.5l-190 13q-13 1 -22 15.5t-6 35.5q23 156 149.5 242.5
t339.5 86.5q261 0 380.5 -120t82.5 -378l-72 -497q-31 -209 -172.5 -327t-387.5 -118q-257 0 -374 128t-86 348q28 197 168 313t372 116zM602 216q251 0 285 236q28 200 -198 200q-120 0 -194.5 -60t-90.5 -173q-15 -109 34 -156t164 -47z" />
    <glyph glyph-name="product" unicode="&#x220f;" horiz-adv-x="1338" 
d="M75 -380q-31 0 -28 32l270 1920q3 28 32 28h948q31 0 28 -32l-270 -1920q-3 -28 -32 -28h-199q-31 0 -28 32l238 1690h-489l-239 -1694q-3 -28 -32 -28h-199z" />
    <glyph glyph-name="summation" unicode="&#x2211;" horiz-adv-x="1311" 
d="M1280 1600q31 0 28 -32l-29 -201q-3 -28 -32 -28h-633l435 -713q18 -28 -4 -51l-630 -694h623q31 0 28 -32l-28 -201q-3 -28 -32 -28h-930q-31 0 -28 32l32 217q4 28 9 34l643 707l-433 720q-12 24 -10 38l29 204q3 28 32 28h930z" />
    <glyph glyph-name="minus" unicode="&#x2212;" horiz-adv-x="1239" 
d="M1057 674q35 0 28 -32l-21 -147q-3 -28 -32 -28h-827q-31 0 -28 32l21 147q3 28 32 28h827z" />
    <glyph glyph-name="radical" unicode="&#x221a;" horiz-adv-x="1406" 
d="M1386 1600q15 0 22.5 -13t1.5 -29l-651 -1912q-7 -26 -33 -26h-239q-12 0 -21.5 9t-10.5 23l-103 839h-174q-31 0 -28 32l29 201q3 28 32 28h317q12 0 21 -10t11 -24l77 -794l536 1644q10 32 39 32h174z" />
    <glyph glyph-name="infinity" unicode="&#x221e;" horiz-adv-x="1424" 
d="M1050 857q95 0 153.5 -44.5t77 -118t3.5 -170.5q-42 -339 -303 -339q-51 0 -92.5 15t-75 46t-57.5 64.5t-53 83.5q-40 -51 -72 -85t-71 -64.5t-81.5 -45t-90.5 -14.5q-143 0 -203 93.5t-35 245.5q22 160 97 246.5t208 86.5q50 0 91 -15t74 -46t56.5 -63t52.5 -82
q85 103 157 154.5t164 51.5zM417 375q49 0 114 58q24 21 96 91q-48 81 -78 112t-65 31q-64 0 -98 -42t-44 -101q-4 -46 -3 -79t19.5 -51.5t58.5 -18.5zM1092 524q4 41 3 73t-20.5 51t-60.5 19q-37 0 -73 -25.5t-110 -93.5q-5 -5 -8.5 -8t-8.5 -7.5t-9 -8.5q50 -87 78.5 -118
t63.5 -31q121 0 145 149z" />
    <glyph glyph-name="integral" unicode="&#x222b;" horiz-adv-x="1094" 
d="M874 1472q104 0 195.5 -21t87.5 -54l-23 -158q-3 -27 -32 -20q-91 17 -156 17q-102 0 -169.5 -51t-82.5 -162l-143 -1010q-13 -90 -44.5 -159.5t-74.5 -113t-99 -71t-113.5 -38.5t-123.5 -11q-103 0 -196 21t-87 54l23 151q6 31 32 25q53 -15 169 -15q94 0 160 51.5
t81 161.5l141 1010q13 90 45 159.5t74.5 113t99 71t114 38.5t122.5 11z" />
    <glyph glyph-name="approxequal" unicode="&#x2248;" 
d="M503 922q55 0 101 -17.5t77.5 -43t59.5 -51t61 -43t69 -17.5q51 0 83.5 21.5t46.5 46.5q11 20 34 20h84q32 0 25 -39q-15 -107 -95 -164.5t-191 -57.5q-57 0 -104.5 17.5t-79.5 43t-60.5 51t-61.5 43t-69 17.5q-91 0 -134 -68q-14 -20 -37 -20h-75q-18 0 -25 12.5
t-4 29.5q28 108 106 163.5t189 55.5zM444 516q55 0 101 -17.5t77.5 -43t59.5 -51t61 -43t69 -17.5q51 0 83.5 21.5t46.5 46.5q11 20 34 20h84q32 0 25 -39q-15 -107 -95 -164.5t-191 -57.5q-57 0 -104.5 17.5t-79.5 43t-60.5 51t-61.5 43t-69 17.5q-91 0 -134 -68
q-14 -20 -37 -20h-75q-18 0 -25 12.5t-4 29.5q28 108 106 163.5t189 55.5z" />
    <glyph glyph-name="notequal" unicode="&#x2260;" horiz-adv-x="1239" 
d="M1086 879q34 0 28 -32l-21 -147q-3 -28 -32 -28h-280l-79 -203h327q34 0 28 -32l-21 -148q-3 -28 -32 -28h-382l-92 -237q-9 -24 -36 -24h-172q-36 0 -24 34l88 227h-210q-31 0 -28 32l21 148q3 28 32 28h265l79 203h-312q-31 0 -28 32l21 147q3 28 32 28h367l85 219
q9 24 36 24h172q36 0 24 -34l-81 -209h225z" />
    <glyph glyph-name="lessequal" unicode="&#x2264;" horiz-adv-x="1243" 
d="M1081 989q13 -27 -13 -36l-544 -182l470 -188q12 -6 18 -17t-1 -22l-95 -128q-11 -15 -39 -2l-648 260q-11 4 -18.5 14.5t-5.5 21.5l22 137q3 21 22 26l737 261q13 5 24.5 -2.5t17.5 -20.5zM996 207q35 0 28 -32l-21 -147q-3 -28 -32 -28h-827q-31 0 -28 32l21 147
q3 28 32 28h827z" />
    <glyph glyph-name="greaterequal" unicode="&#x2265;" horiz-adv-x="1239" 
d="M267 987l87 139q10 15 38 1l593 -287q9 -5 16 -17t6 -23l-23 -153q-3 -23 -20 -30l-673 -289q-13 -6 -23 1.5t-15 22.5l-48 139q-5 13 -3.5 23t13.5 15l499 203l-428 209q-13 6 -19.5 20t0.5 26zM992 207q34 0 28 -32l-21 -147q-3 -28 -32 -28h-828q-34 0 -28 32l21 147
q3 28 32 28h828z" />
    <glyph glyph-name="lozenge" unicode="&#x25ca;" horiz-adv-x="1359" 
d="M947 1400q21 0 32 -30l225 -656q11 -28 2 -42l-411 -656q-5 -8 -9.5 -11.5t-8.5 -4t-13 -0.5h-293q-21 0 -32 30l-227 656q-10 26 0 42l411 656q5 8 9.5 11.5t8.5 4t14 0.5h292zM638 228l292 472l-150 472l-292 -472z" />
    <glyph glyph-name="i.loclTRK" horiz-adv-x="1232" 
d="M726 1126q-58 0 -99.5 41.5t-41.5 101.5q0 59 41.5 100t99.5 41t99.5 -41t41.5 -100q0 -60 -41.5 -101.5t-99.5 -41.5zM1103 157q10 -23 -6 -42q-44 -50 -134.5 -92.5t-199.5 -42.5q-56 0 -106.5 9t-98.5 30t-83 54.5t-60.5 81.5t-30.5 112.5t7 146.5l58 337h-305
q-15 0 -22.5 8.5t-5.5 23.5l25 169q4 28 32 28h557q32 0 27 -32l-81 -511q-8 -65 -2 -107t29 -66.5t48.5 -34t56.5 -9.5q91 0 180 75q12 13 31.5 10.5t27.5 -22.5z" />
    <glyph glyph-name="s.ss01" horiz-adv-x="1357" 
d="M960 974q95 -102 156.5 -200t86.5 -181t26.5 -159.5t-22 -138t-62 -114t-90 -91t-109 -66t-117 -41t-115.5 -13.5q-267 0 -419 129l-80 -102q-20 -24 -43 -1l-134 135q-20 20 -1 43l647 805q13 16 37 16h201q18 0 38 -21zM691 211q70 0 129.5 33.5t90 89.5t35 122
t-36 139.5t-121.5 132.5l-340 -434q102 -83 243 -83z" />
    <glyph glyph-name="sacute.ss01" horiz-adv-x="1357" 
d="M668 1090q-18 0 -23.5 10.5t3.5 25.5l160 254q11 20 36 20h198q18 0 23.5 -10.5t-3.5 -25.5l-158 -254q-11 -20 -36 -20h-200zM960 974q95 -102 156.5 -200t86.5 -181t26.5 -159.5t-22 -138t-62 -114t-90 -91t-109 -66t-117 -41t-115.5 -13.5q-267 0 -419 129l-80 -102
q-20 -24 -43 -1l-134 135q-20 20 -1 43l647 805q13 16 37 16h201q18 0 38 -21zM691 211q70 0 129.5 33.5t90 89.5t35 122t-36 139.5t-121.5 132.5l-340 -434q102 -83 243 -83z" />
    <glyph glyph-name="scaron.ss01" horiz-adv-x="1357" 
d="M583 1135l-192 265q-10 15 -4 25.5t24 10.5h220q21 0 36 -18l117 -145l165 149q14 14 38 14h223q20 0 25 -11t-9 -25l-266 -267q-16 -16 -38 -16h-303q-25 0 -36 18zM922 995q18 0 38 -21q95 -102 156.5 -200t86.5 -181t26.5 -159.5t-22 -138t-62 -114t-90 -91t-109 -66
t-117 -41t-115.5 -13.5q-267 0 -419 129l-80 -102q-20 -24 -43 -1l-134 135q-20 20 -1 43l647 805q13 16 37 16h201zM691 211q70 0 129.5 33.5t90 89.5t35 122t-36 139.5t-121.5 132.5l-340 -434q102 -83 243 -83z" />
    <glyph glyph-name="scedilla.ss01" horiz-adv-x="1357" 
d="M714 -30q-26 0 -39 1l-42 -37q73 -7 126.5 -50.5t53.5 -115.5q0 -65 -31 -111.5t-81.5 -68t-114.5 -29t-130 5.5q-18 3 -18 22v98q0 9 6 15t16 5q78 -12 121.5 3t43.5 48q0 18 -22 32t-58 16t-83 -17q-10 -4 -17 -0.5t-7 14.5v103q0 14 10 24l68 64q-129 31 -221 107
l-80 -102q-20 -24 -43 -1l-134 135q-20 20 -1 43l647 805q13 16 37 16h201q18 0 38 -21q95 -102 156.5 -200t86.5 -181t26.5 -159.5t-22 -138t-62 -114t-90 -91t-109 -66t-117 -41t-115.5 -13.5zM788 728l-340 -434q102 -83 243 -83q70 0 129.5 33.5t90 89.5t35 122
t-36 139.5t-121.5 132.5z" />
    <glyph glyph-name="scommaaccent.ss01" horiz-adv-x="1357" 
d="M960 974q95 -102 156.5 -200t86.5 -181t26.5 -159.5t-22 -138t-62 -114t-90 -91t-109 -66t-117 -41t-115.5 -13.5q-267 0 -419 129l-80 -102q-20 -24 -43 -1l-134 135q-20 20 -1 43l647 805q13 16 37 16h201q18 0 38 -21zM691 211q70 0 129.5 33.5t90 89.5t35 122
t-36 139.5t-121.5 132.5l-340 -434q102 -83 243 -83zM850 -183q29 0 25 -28l-13 -94q-35 -254 -122 -416q-20 -35 -62 -35h-97q-17 0 -25 12.5t-1 30.5q23 65 43.5 159.5t27.5 162.5h-244q-30 0 -25 29l22 154q3 25 29 25h442z" />
    <glyph glyph-name="zero.dnom" horiz-adv-x="1312" 
d="M714 992q278 0 384 -122t70 -376l-6 -36q-36 -255 -165.5 -369.5t-399.5 -114.5q-279 0 -385 122.5t-70 377.5l6 37q36 253 166 367t400 114zM704 744q-150 0 -220 -56.5t-86 -174.5l-11 -76q-15 -117 31 -166t188 -49q150 0 220 56.5t86 174.5l11 76q15 117 -31 166
t-188 49z" />
    <glyph glyph-name="one.dnom" horiz-adv-x="1151" 
d="M956 229q31 0 28 -32l-23 -169q-3 -28 -32 -28h-840q-31 0 -28 32l23 169q3 28 32 28h325l70 474q-106 -93 -307 -99q-33 0 -30 32l16 190q3 28 35 29q174 10 317 125h252q31 0 28 -32l-100 -719h234z" />
    <glyph glyph-name="two.dnom" horiz-adv-x="1269" 
d="M1052 212q31 0 28 -32l-21 -152q-3 -28 -32 -28h-907q-31 0 -28 32l14 101q12 90 59.5 158t114 106.5t144 65.5t153.5 44t140 34t106 43.5t47 64.5q6 53 -36.5 76t-132.5 23q-230 0 -273 -143q-12 -30 -34 -24l-201 34q-29 7 -25 36q68 339 529 339q218 0 341 -95
t101 -259q-9 -68 -50.5 -119t-100.5 -81.5t-129 -52.5t-138.5 -38t-125.5 -32.5t-95 -41.5t-43 -59h595z" />
    <glyph glyph-name="three.dnom" horiz-adv-x="1336" 
d="M956 500q114 -30 165 -88t36 -160q-20 -147 -162 -212.5t-399 -65.5q-94 0 -165.5 7.5t-135.5 27t-104.5 52t-61.5 85t-15 123.5q0 13 8 21.5t22 8.5l218 6q27 0 31 -26q10 -44 59.5 -57t156.5 -13q125 0 185 26t68 79q4 30 -14.5 47t-85.5 28.5t-193 12.5q-35 0 -32 32
l8 108q3 28 33 28q131 1 200.5 11t96 29t30.5 53q12 91 -192 91q-97 0 -163.5 -25t-92.5 -92q-10 -31 -36 -24l-212 36q-29 6 -25 34q18 88 63.5 149t117.5 95t157.5 48.5t196.5 14.5q151 0 258 -30.5t164 -97.5t43 -167q-23 -156 -228 -195z" />
    <glyph glyph-name="four.dnom" horiz-adv-x="1350" 
d="M1061 522h135q31 0 28 -32l-23 -169q-3 -28 -32 -28h-141l-36 -265q-3 -28 -32 -28h-222q-31 0 -28 32l36 261h-595q-31 0 -28 32l87 627q3 28 32 28h222q31 0 28 -32l-60 -426h347l59 430q3 28 32 28h222q31 0 28 -32z" />
    <glyph glyph-name="five.dnom" horiz-adv-x="1309" 
d="M698 672q244 0 356 -84.5t87 -263.5q-24 -170 -159 -250t-392 -80q-109 0 -192.5 16.5t-147.5 52.5t-97 98.5t-33 149.5q0 24 24 24h195q14 0 21.5 -8.5t15.5 -27.5q21 -52 76.5 -69.5t147.5 -17.5q142 0 212 34t81 104q9 66 -49.5 95.5t-178.5 29.5q-149 0 -242 -60
q-29 -21 -61 -11l-167 55q-30 8 -19 37l185 460q9 24 36 24h687q31 0 28 -32l-21 -152q-3 -28 -32 -28h-531l-54 -127q106 31 224 31z" />
    <glyph glyph-name="six.dnom" horiz-adv-x="1317" 
d="M681 599q262 0 373 -81.5t88 -242.5q-22 -150 -150.5 -225.5t-391.5 -75.5q-268 0 -384 83.5t-96 235.5l44 330q51 367 561 367q225 0 340.5 -75.5t108.5 -209.5q0 -28 -30 -28l-201 -2q-22 0 -34 26q-37 70 -199 70q-135 0 -199.5 -39.5t-76.5 -121.5l-9 -57
q36 23 112.5 34.5t143.5 11.5zM606 203q138 0 199 25.5t69 87.5q6 48 -45.5 66t-169.5 18q-139 0 -199.5 -24t-65.5 -82q-5 -49 46.5 -70t165.5 -21z" />
    <glyph glyph-name="seven.dnom" horiz-adv-x="1211" 
d="M193 743q-32 0 -28 32l25 177q4 28 32 28h898q31 0 28 -32l-26 -193q-3 -21 -16 -36l-642 -703q-13 -16 -36 -16h-245q-19 0 -24 11t8 25l648 707h-622z" />
    <glyph glyph-name="eight.dnom" horiz-adv-x="1336" 
d="M986 525q102 -41 144 -103.5t29 -163.5q-18 -141 -153 -211.5t-397 -70.5q-270 0 -392 80t-100 233q13 94 67.5 148t177.5 99q-55 14 -87 74t-21 133q15 115 132 181t340 66q231 0 336 -76t87 -203q-8 -64 -52 -116t-111 -70zM500 671q-2 -35 38 -52t145 -17q81 0 127 12
t61.5 30t19.5 48q4 36 -35.5 53.5t-136.5 17.5q-118 0 -166.5 -23.5t-52.5 -68.5zM632 216q138 0 196.5 24t64.5 75q4 45 -51.5 63.5t-182.5 18.5q-136 0 -197.5 -24.5t-69.5 -78.5q-6 -43 48.5 -60.5t191.5 -17.5z" />
    <glyph glyph-name="nine.dnom" horiz-adv-x="1317" 
d="M634 364q-262 0 -373 81.5t-88 242.5q14 99 72.5 165t175.5 101.5t295 35.5q268 0 383.5 -83.5t95.5 -235.5l-44 -330q-26 -190 -168 -278.5t-392 -88.5q-225 0 -340.5 75t-109.5 210q0 28 30 28l201 2q22 0 34 -26q37 -70 200 -70q133 0 198 39.5t78 120.5l9 58
q-37 -23 -113 -35t-144 -12zM709 761q-138 0 -199 -25.5t-69 -87.5q-6 -48 46.5 -66.5t169.5 -18.5q138 0 198.5 24.5t65.5 82.5q5 49 -46.5 70t-165.5 21z" />
    <glyph glyph-name="zero.numr" horiz-adv-x="1312" 
d="M743 1201q278 0 384 -122t70 -376l-6 -36q-36 -255 -165.5 -369.5t-399.5 -114.5q-279 0 -385 122.5t-70 377.5l6 37q36 253 166 367t400 114zM733 953q-150 0 -220 -56.5t-86 -174.5l-11 -76q-15 -117 31 -166t188 -49q150 0 220 56.5t86 174.5l11 76q15 117 -31 166
t-188 49z" />
    <glyph glyph-name="one.numr" horiz-adv-x="1151" 
d="M986 439q31 0 28 -32l-23 -169q-3 -28 -32 -28h-840q-31 0 -28 32l23 169q3 28 32 28h325l70 474q-106 -93 -307 -99q-33 0 -30 32l16 190q3 28 35 29q174 10 317 125h252q31 0 28 -32l-100 -719h234z" />
    <glyph glyph-name="two.numr" horiz-adv-x="1269" 
d="M1082 422q31 0 28 -32l-21 -152q-3 -28 -32 -28h-907q-31 0 -28 32l14 101q12 90 59.5 158t114 106.5t144 65.5t153.5 44t140 34t106 43.5t47 64.5q6 53 -36.5 76t-132.5 23q-230 0 -273 -143q-12 -30 -34 -24l-201 34q-29 7 -25 36q68 339 529 339q218 0 341 -95
t101 -259q-9 -68 -50.5 -119t-100.5 -81.5t-129 -52.5t-138.5 -38t-125.5 -32.5t-95 -41.5t-43 -59h595z" />
    <glyph glyph-name="three.numr" horiz-adv-x="1336" 
d="M986 710q114 -30 165 -88t36 -160q-20 -147 -162 -212.5t-399 -65.5q-94 0 -165.5 7.5t-135.5 27t-104.5 52t-61.5 85t-15 123.5q0 13 8 21.5t22 8.5l218 6q27 0 31 -26q10 -44 59.5 -57t156.5 -13q125 0 185 26t68 79q4 30 -14.5 47t-85.5 28.5t-193 12.5q-35 0 -32 32
l8 108q3 28 33 28q131 1 200.5 11t96 29t30.5 53q12 91 -192 91q-97 0 -163.5 -25t-92.5 -92q-10 -31 -36 -24l-212 36q-29 6 -25 34q18 88 63.5 149t117.5 95t157.5 48.5t196.5 14.5q151 0 258 -30.5t164 -97.5t43 -167q-23 -156 -228 -195z" />
    <glyph glyph-name="four.numr" horiz-adv-x="1350" 
d="M1091 732h135q31 0 28 -32l-23 -169q-3 -28 -32 -28h-141l-36 -265q-3 -28 -32 -28h-222q-31 0 -28 32l36 261h-595q-31 0 -28 32l87 627q3 28 32 28h222q31 0 28 -32l-60 -426h347l59 430q3 28 32 28h222q31 0 28 -32z" />
    <glyph glyph-name="five.numr" horiz-adv-x="1309" 
d="M728 882q244 0 356 -84.5t87 -263.5q-24 -170 -159 -250t-392 -80q-109 0 -192.5 16.5t-147.5 52.5t-97 98.5t-33 149.5q0 24 24 24h195q14 0 21.5 -8.5t15.5 -27.5q21 -52 76.5 -69.5t147.5 -17.5q142 0 212 34t81 104q9 66 -49.5 95.5t-178.5 29.5q-149 0 -242 -60
q-29 -21 -61 -11l-167 55q-30 8 -19 37l185 460q9 24 36 24h687q31 0 28 -32l-21 -152q-3 -28 -32 -28h-531l-54 -127q106 31 224 31z" />
    <glyph glyph-name="six.numr" horiz-adv-x="1317" 
d="M711 809q262 0 373 -81.5t88 -242.5q-22 -150 -150.5 -225.5t-391.5 -75.5q-268 0 -384 83.5t-96 235.5l44 330q51 367 561 367q225 0 340.5 -75.5t108.5 -209.5q0 -28 -30 -28l-201 -2q-22 0 -34 26q-37 70 -199 70q-135 0 -199.5 -39.5t-76.5 -121.5l-9 -57
q36 23 112.5 34.5t143.5 11.5zM636 413q138 0 199 25.5t69 87.5q6 48 -45.5 66t-169.5 18q-139 0 -199.5 -24t-65.5 -82q-5 -49 46.5 -70t165.5 -21z" />
    <glyph glyph-name="seven.numr" horiz-adv-x="1211" 
d="M223 953q-32 0 -28 32l25 177q4 28 32 28h898q31 0 28 -32l-26 -193q-3 -21 -16 -36l-642 -703q-13 -16 -36 -16h-245q-19 0 -24 11t8 25l648 707h-622z" />
    <glyph glyph-name="eight.numr" horiz-adv-x="1336" 
d="M1016 735q102 -41 144 -103.5t29 -163.5q-18 -141 -153 -211.5t-397 -70.5q-270 0 -392 80t-100 233q13 94 67.5 148t177.5 99q-55 14 -87 74t-21 133q15 115 132 181t340 66q231 0 336 -76t87 -203q-8 -64 -52 -116t-111 -70zM530 881q-2 -35 38 -52t145 -17
q81 0 127 12t61.5 30t19.5 48q4 36 -35.5 53.5t-136.5 17.5q-118 0 -166.5 -23.5t-52.5 -68.5zM662 426q138 0 196.5 24t64.5 75q4 45 -51.5 63.5t-182.5 18.5q-136 0 -197.5 -24.5t-69.5 -78.5q-6 -43 48.5 -60.5t191.5 -17.5z" />
    <glyph glyph-name="nine.numr" horiz-adv-x="1317" 
d="M664 574q-262 0 -373 81.5t-88 242.5q14 99 72.5 165t175.5 101.5t295 35.5q268 0 383.5 -83.5t95.5 -235.5l-44 -330q-26 -190 -168 -278.5t-392 -88.5q-225 0 -340.5 75t-109.5 210q0 28 30 28l201 2q22 0 34 -26q37 -70 200 -70q133 0 198 39.5t78 120.5l9 58
q-37 -23 -113 -35t-144 -12zM739 971q-138 0 -199 -25.5t-69 -87.5q-6 -48 46.5 -66.5t169.5 -18.5q138 0 198.5 24.5t65.5 82.5q5 49 -46.5 70t-165.5 21z" />
    </font>
</defs>
</svg>
