<?xml version="1.0" standalone="no"?>
<!DOCTYPE svg PUBLIC "-//W3C//DTD SVG 1.1//EN" "http://www.w3.org/Graphics/SVG/1.1/DTD/svg11.dtd" >
<svg xmlns="http://www.w3.org/2000/svg" xmlns:xlink="http://www.w3.org/1999/xlink" version="1.1">
<metadata>
Created by FontForge 20170731 at Sat Sep 24 15:58:44 2016
 By Aleksey,,,
(c) 2016 Connary Fagen
</metadata>
<defs>
<font id="CartographMonoCF-DemiBoldItalic" horiz-adv-x="1230" >
  <font-face 
    font-family="Cartograph Mono CF Demi Bold"
    font-weight="600"
    font-style="italic"
    font-stretch="normal"
    units-per-em="2000"
    panose-1="0 0 7 9 0 0 0 0 0 0"
    ascent="1600"
    descent="-400"
    x-height="980"
    cap-height="1400"
    bbox="-900.485 -716 1721.59 1888"
    underline-thickness="50"
    underline-position="-200"
    slope="-8"
    unicode-range="U+0020-25CA"
  />
<missing-glyph horiz-adv-x="990" 
d="M812 1600v-1980h-628v1980h628zM659 1467h-326v-65h128v-73h-130v-66h328v66h-130v73h130v65zM529 1212h-198v-206h328v67h-130v139zM461 1145v-72h-65v72h65zM659 953h-328v-66h130v-73h-130v-65h198v138h130v66zM659 834h-65v-131h-263v-67h328v198zM659 592h-198v-111
h68v46h65v-93h-198v158h-65v-224h328v224zM659 250h-328v-224h328v224zM594 184v-93h-198v93h198zM659 -20h-328v-65h138l-138 -93v-65h328v65h-202l139 93h63v65z" />
    <glyph glyph-name=".notdef" horiz-adv-x="990" 
d="M812 1600v-1980h-628v1980h628zM659 1467h-326v-65h128v-73h-130v-66h328v66h-130v73h130v65zM529 1212h-198v-206h328v67h-130v139zM461 1145v-72h-65v72h65zM659 953h-328v-66h130v-73h-130v-65h198v138h130v66zM659 834h-65v-131h-263v-67h328v198zM659 592h-198v-111
h68v46h65v-93h-198v158h-65v-224h328v224zM659 250h-328v-224h328v224zM594 184v-93h-198v93h198zM659 -20h-328v-65h138l-138 -93v-65h328v65h-202l139 93h63v65z" />
    <glyph glyph-name=".null" horiz-adv-x="0" 
 />
    <glyph glyph-name="nonmarkingreturn" horiz-adv-x="666" 
 />
    <glyph glyph-name="space" unicode=" " 
 />
    <glyph glyph-name="exclam" unicode="!" 
d="M725 1416q65 0 104 -49t22 -121l-175 -800q-6 -26 -33 -26h-90q-31 0 -29 31l52 807q4 72 48 115t101 43zM566 -26q-67 0 -114.5 47t-47.5 114q0 68 47.5 115.5t114.5 47.5t114 -47.5t47 -115.5q0 -67 -47 -114t-114 -47z" />
    <glyph glyph-name="quotedbl" unicode="&#x22;" 
d="M607 1400q14 0 24 -11.5t7 -24.5l-72 -386q-4 -23 -29 -23h-100q-13 0 -22.5 11t-7.5 25l38 385q1 13 7 18.5t20 5.5h135zM1001 1400q14 0 24 -11.5t7 -24.5l-72 -386q-4 -23 -29 -23h-100q-13 0 -22.5 11t-7.5 25l38 385q1 13 7 18.5t20 5.5h135z" />
    <glyph glyph-name="numbersign" unicode="#" 
d="M1134 1128q32 0 28 -32l-15 -108q-3 -28 -32 -28h-126l-51 -360h122q34 0 28 -32l-15 -108q-3 -28 -32 -28h-127l-34 -242q-3 -28 -32 -28h-143q-32 0 -28 32l34 238h-208l-34 -242q-3 -28 -32 -28h-143q-31 0 -28 32l34 238h-123q-32 0 -28 32l15 108q3 28 32 28h127
l51 360h-123q-32 0 -28 32l15 108q3 28 32 28h128l34 244q3 28 32 28h143q31 0 28 -32l-34 -240h208l34 244q3 28 32 28h143q32 0 28 -32l-34 -240h122zM734 600l51 360h-207l-51 -360h207z" />
    <glyph glyph-name="dollar" unicode="$" 
d="M1171 1056q2 -15 -6 -23.5t-23 -8.5h-140q-23 0 -34 24q-39 91 -175 116l-53 -377q84 -20 147 -46.5t118 -67.5t84 -101t29 -138q0 -186 -130 -284t-354 -111l-27 -191q-4 -28 -32 -28h-96q-32 0 -28 32l27 188q-358 30 -392 301q-5 31 28 31h145q25 0 33 -26
q33 -98 213 -112l57 404q-79 21 -140.5 49t-113 69.5t-79.5 101.5t-28 135q0 166 126.5 263t336.5 108l27 188q4 28 32 28h96q32 0 28 -32l-27 -190q146 -21 238.5 -98.5t112.5 -203.5zM415 982q0 -58 41 -98t132 -64l49 348q-222 -23 -222 -186zM901 438q0 68 -44 104.5
t-143 61.5l-52 -368q239 24 239 202z" />
    <glyph glyph-name="percent" unicode="%" 
d="M452 1410q112 0 166.5 -56.5t54.5 -161.5q0 -153 -70.5 -244t-208.5 -91q-217 0 -217 220q0 153 69 243t206 90zM438 1261q-120 0 -116 -179q2 -38 21 -57t63 -19q65 0 93 50.5t25 127.5q-1 39 -20.5 58t-65.5 19zM1117 1165q25 -20 4 -44l-835 -935q-19 -22 -42 -3
l-70 55q-24 19 -4 43l835 935q19 22 42 3zM891 543q112 0 167 -56.5t55 -161.5q0 -152 -71 -243.5t-208 -91.5q-109 0 -163 56.5t-54 161.5q0 153 68.5 244t205.5 91zM879 394q-64 0 -90.5 -49.5t-24.5 -129.5q1 -38 20 -57t63 -19q65 0 93 50.5t26 127.5q-1 38 -21 57.5
t-66 19.5z" />
    <glyph glyph-name="ampersand" unicode="&#x26;" 
d="M1109 119q20 -26 3 -41l-98 -83q-22 -19 -40 7l-108 149q-213 -169 -423 -169q-197 0 -303.5 106t-81.5 289q9 66 40.5 125t84.5 110t102.5 88t121.5 82q-68 93 -101 175t-20 177q17 123 115 202.5t248 79.5q161 0 247.5 -91t65.5 -236q-8 -56 -34.5 -106.5t-70.5 -95.5
t-88 -79.5t-105 -75.5l230 -317q19 17 109 105l114 -139q-13 -12 -54 -51.5t-63 -60.5zM478 1094q-7 -51 15 -101.5t67 -114.5q93 61 145 115.5t60 117.5q8 58 -25 89t-98 31q-66 0 -111 -37t-53 -100zM466 182q138 0 293 117l-243 336q-108 -72 -169 -133.5t-71 -134.5
q-11 -84 40.5 -134.5t149.5 -50.5z" />
    <glyph glyph-name="quotesingle" unicode="'" 
d="M804 1400q14 0 24 -11.5t7 -24.5l-72 -386q-4 -23 -29 -23h-100q-13 0 -22.5 11t-7.5 25l38 385q1 13 7 18.5t20 5.5h135z" />
    <glyph glyph-name="parenleft" unicode="(" 
d="M1061 1272q-80 0 -146 -15.5t-117 -43t-91 -72.5t-69 -97t-51.5 -124t-38 -146t-28.5 -170q-25 -154 -23.5 -274.5t33 -203t114.5 -125.5t222 -43l-20 -218q-100 0 -181.5 17t-141 45.5t-104.5 73t-73.5 93.5t-45.5 113t-23 125t-4.5 137t8 140.5t17.5 143.5
q11 78 22 139.5t30 136.5t41 133t56 121t75 110t97.5 90.5t123 71t152.5 44t186 16.5z" />
    <glyph glyph-name="parenright" unicode=")" 
d="M398 1272l21 218q100 0 181.5 -17t141 -45.5t104.5 -73t73.5 -93t45.5 -112.5t23.5 -125t4.5 -136.5t-8 -140t-17 -143.5q-11 -78 -22.5 -140t-30.5 -137t-41.5 -133t-56.5 -121.5t-75 -110t-97.5 -90.5t-123 -71.5t-152.5 -44t-186 -16.5l20 218q112 0 196.5 30.5
t141 83t97.5 139.5t64.5 184t43.5 233q25 154 23.5 273.5t-34 202t-115.5 125.5t-222 43z" />
    <glyph glyph-name="asterisk" unicode="*" 
d="M1019 1119q3 -26 -22 -33l-202 -48l103 -170q18 -28 -2 -40l-80 -47q-23 -13 -39 15l-91 163l-137 -173q-14 -16 -37 0l-65 45q-29 22 -10 44l147 164l-174 52q-14 4 -20.5 15t-0.5 25l29 77q11 25 38 16l190 -57l22 209q3 24 29 24h80q13 0 22.5 -11t7.5 -25l-32 -197
l199 60q14 4 24.5 -4.5t12.5 -24.5z" />
    <glyph glyph-name="plus" unicode="+" 
d="M1023 653q32 0 28 -32l-16 -108q-3 -28 -32 -28h-304l-43 -305q-3 -28 -32 -28h-108q-31 0 -28 32l43 301h-302q-31 0 -28 32l16 108q3 28 32 28h306l43 306q3 28 32 28h107q31 0 28 -32l-42 -302h300z" />
    <glyph glyph-name="comma" unicode="," 
d="M333 0q-32 0 -27 32l17 122q4 28 32 28h430q32 0 27 -32l-10 -71q-40 -289 -132 -454q-17 -29 -54 -29h-78q-17 0 -24.5 12.5t-0.5 32.5q27 75 50 178.5t30 180.5h-260z" />
    <glyph glyph-name="hyphen" unicode="-" 
d="M1095 649q31 0 28 -32l-16 -120q-3 -28 -32 -28h-920q-31 0 -28 32l16 120q3 28 32 28h920z" />
    <glyph glyph-name="period" unicode="." 
d="M565 -26q-67 0 -114.5 47t-47.5 114q0 68 47.5 115.5t114.5 47.5t114 -47.5t47 -115.5q0 -67 -47 -114t-114 -47z" />
    <glyph glyph-name="slash" unicode="/" 
d="M57 -260q-18 0 -23 10t4 26l947 1602q14 22 43 22h167q18 0 23.5 -10t-4.5 -26l-948 -1601q-13 -23 -43 -23h-166z" />
    <glyph glyph-name="zero" unicode="0" 
d="M735 1416q92 0 160.5 -13.5t122 -45.5t86 -82t49.5 -125t16 -173.5t-18 -227.5l-15 -119q-26 -193 -70 -319.5t-116.5 -201.5t-166.5 -105t-231 -30q-92 0 -160 13.5t-121.5 45.5t-86 82.5t-49.5 125t-16 173.5t18 228l15 119q26 193 70 319.5t116.5 201t166.5 104.5
t230 30zM939 627l21 149q15 107 16.5 180t-11 125.5t-44.5 81t-79.5 41.5t-119.5 13q-122 0 -193.5 -41.5t-113 -137.5t-67.5 -275l-21 -149q-15 -107 -16 -180t11.5 -125.5t44.5 -81t79.5 -41.5t119.5 -13q122 0 193.5 41.5t113 137.5t66.5 275zM486 436q-17 0 -23 10t3 26
l254 460q12 22 36 22h48q17 0 23 -10t-3 -26l-254 -460q-12 -22 -36 -22h-48z" />
    <glyph glyph-name="one" unicode="1" 
d="M721 179h292q32 0 28 -32l-16 -119q-4 -28 -32 -28h-888q-32 0 -28 32l16 119q4 28 32 28h380l144 1006q-67 -56 -143 -82.5t-180 -33.5q-15 -1 -23 7t-7 24l13 134q3 27 30 30q185 17 334 136h187q32 0 27 -32z" />
    <glyph glyph-name="two" unicode="2" 
d="M321 182l674 6q32 0 28 -32l-17 -128q-3 -28 -32 -28h-864q-31 0 -28 32l17 125q17 125 70.5 223.5t125.5 160t156 110t166 86t151 75.5t116 91t56 120q12 91 -42 144.5t-174 53.5q-125 0 -204.5 -58t-100.5 -172q-4 -20 -35 -17l-140 19q-30 3 -24 42
q26 184 159.5 282.5t349.5 98.5q226 0 333 -109.5t79 -305.5q-10 -74 -43 -136t-80 -106.5t-105.5 -82t-121.5 -69t-125.5 -62t-120.5 -66t-104.5 -76t-78.5 -97t-41 -124.5z" />
    <glyph glyph-name="three" unicode="3" 
d="M882 739q109 -41 171 -118.5t62 -190.5q0 -140 -79.5 -245t-209.5 -158t-289 -53q-225 0 -342.5 108.5t-91.5 296.5q3 24 29 27l147 11q16 1 25.5 -10t7.5 -31q-8 -97 56 -151t188 -54q143 0 240.5 77t97.5 200q0 88 -78 141t-245 58q-34 0 -31 32l11 110q3 28 32 28
q160 5 261 68.5t101 176.5q0 76 -60 117t-161 41q-122 0 -204 -60t-103 -167q-4 -24 -39 -19l-140 17q-31 5 -25 44q25 178 164 279.5t356 101.5q192 0 307 -87.5t115 -236.5q0 -236 -273 -353z" />
    <glyph glyph-name="four" unicode="4" 
d="M972 510h121q32 0 28 -32l-18 -119q-4 -28 -32 -28h-124l-42 -303q-3 -28 -32 -28h-156q-31 0 -28 32l42 299h-617q-32 0 -28 32l18 133q4 29 19 46l734 835q19 23 48 23h159q13 0 21.5 -11t6.5 -25zM756 510l80 554l-493 -554h413z" />
    <glyph glyph-name="five" unicode="5" 
d="M705 931q217 0 329.5 -131.5t80.5 -359.5q-31 -221 -179 -343.5t-382 -122.5q-214 0 -330 95.5t-107 278.5q0 28 30 28h131q27 0 34 -40q18 -92 78 -133.5t170 -41.5q144 0 236 79.5t113 224.5q19 136 -45 207.5t-199 71.5q-172 0 -288 -104q-24 -20 -51 -8l-116 44
q-29 12 -19 42l218 658q8 24 34 24h653q33 0 27 -32l-19 -126q-4 -28 -32 -28h-519l-118 -350q101 67 270 67z" />
    <glyph glyph-name="six" unicode="6" 
d="M672 864q206 0 320.5 -99t114.5 -271q0 -242 -151.5 -380.5t-404.5 -138.5q-235 0 -352.5 124t-86.5 342l68 491q36 258 174.5 371t386.5 113q212 0 321.5 -95t87.5 -263q-3 -24 -31 -24l-126 -5q-32 0 -38 38q-9 81 -70 120t-157 39q-70 0 -122 -12.5t-98 -45
t-76.5 -93.5t-44.5 -151l-26 -171q38 52 132 81.5t179 29.5zM569 162q157 0 243.5 85.5t86.5 237.5q0 98 -69.5 148.5t-189.5 50.5q-154 0 -241 -86t-87 -234q0 -103 68 -152.5t189 -49.5z" />
    <glyph glyph-name="seven" unicode="7" 
d="M284 1372q3 28 32 28h881q31 0 28 -32l-20 -140q-4 -27 -16 -46l-727 -1162q-11 -20 -36 -20h-164q-18 0 -23.5 10.5t3.5 25.5l741 1178h-689q-31 0 -28 32z" />
    <glyph glyph-name="eight" unicode="8" 
d="M939 766q174 -90 174 -292q0 -233 -153.5 -366t-408.5 -133q-223 0 -339.5 98t-116.5 274q0 305 274 432q-118 75 -118 228q0 194 131.5 301.5t351.5 107.5q198 0 300.5 -83t102.5 -223q0 -113 -50 -201.5t-148 -142.5zM445 999q0 -75 56 -113t158 -38q131 0 205 62
t74 178q0 74 -55.5 112t-158.5 38q-132 0 -205.5 -62.5t-73.5 -176.5zM566 162q160 0 250 82.5t90 225.5q0 199 -264 199q-161 0 -250 -82.5t-89 -227.5q0 -197 263 -197z" />
    <glyph glyph-name="nine" unicode="9" 
d="M616 528q-207 0 -321 98.5t-114 271.5q0 242 151 380t404 138q235 0 352.5 -124t87.5 -342l-68 -491q-36 -258 -175 -371t-387 -113q-212 0 -321.5 95.5t-87.5 263.5q4 23 31 23l126 5q32 0 38 -38q9 -81 70 -120t157 -39q70 0 122 12.5t98 45t76.5 93.5t44.5 151l26 171
q-38 -52 -131 -81t-179 -29zM718 1229q-157 0 -243.5 -85t-86.5 -237q0 -99 69.5 -149.5t189.5 -50.5q154 0 241.5 86t87.5 234q0 103 -68.5 152.5t-189.5 49.5z" />
    <glyph glyph-name="colon" unicode=":" 
d="M687 676q-67 0 -114.5 47t-47.5 114q0 68 47.5 115.5t114.5 47.5t114 -47.5t47 -115.5q0 -67 -47 -114t-114 -47zM543 -26q-67 0 -114.5 47t-47.5 114q0 68 47.5 115.5t114.5 47.5t114 -47.5t47 -115.5q0 -67 -47 -114t-114 -47z" />
    <glyph glyph-name="semicolon" unicode=";" 
d="M687 676q-67 0 -114.5 47t-47.5 114q0 68 47.5 115.5t114.5 47.5t114 -47.5t47 -115.5q0 -67 -47 -114t-114 -47zM333 0q-32 0 -27 32l17 122q4 28 32 28h430q32 0 27 -32l-10 -71q-40 -289 -132 -454q-17 -29 -54 -29h-78q-17 0 -24.5 12.5t-0.5 32.5q27 75 50 178.5
t30 180.5h-260z" />
    <glyph glyph-name="less" unicode="&#x3c;" 
d="M1020 779q12 -28 -12 -39l-548 -242l470 -247q12 -7 17 -18.5t-2 -24.5l-69 -106q-12 -19 -38 -4l-580 304q-24 13 -21 39l17 126q3 22 22 32l665 303q26 12 38 -21z" />
    <glyph glyph-name="equal" unicode="=" 
d="M1047 830q34 0 28 -32l-15 -107q-3 -28 -32 -28h-773q-31 0 -28 32l15 107q3 28 32 28h773zM997 476q34 0 28 -32l-15 -107q-3 -28 -32 -28h-773q-31 0 -28 32l15 107q3 28 32 28h773z" />
    <glyph glyph-name="greater" unicode="&#x3e;" 
d="M287 789l70 103q8 12 16 12t22 -8l580 -302q24 -13 21 -39l-18 -126q-3 -24 -21 -32l-666 -303q-25 -12 -38 21l-39 104q-11 28 10 38l550 241l-471 247q-12 6 -17.5 19t1.5 25z" />
    <glyph glyph-name="question" unicode="?" 
d="M488 406q-32 0 -26 34q17 99 51.5 170.5t76 110t88 65t91.5 45t83 39.5t65 59t35 94q13 91 -41 144.5t-177 53.5q-127 0 -207.5 -57t-101.5 -169q-4 -25 -40 -21l-137 17q-29 3 -23 40q26 187 158.5 286t354.5 99q227 0 335.5 -110t79.5 -305q-11 -78 -40 -134t-67 -87.5
t-82 -55t-89 -45t-84 -49.5t-70 -77.5t-45 -118.5q-5 -28 -32 -28h-156zM542 -26q-67 0 -114.5 47t-47.5 114q0 68 47.5 115.5t114.5 47.5t114 -47.5t47 -115.5q0 -67 -47 -114t-114 -47z" />
    <glyph glyph-name="at" unicode="@" 
d="M697 1058q206 0 335 -122t129 -336q0 -103 -29 -190t-92 -144t-150 -57q-102 0 -133 66q-74 -66 -173 -66q-112 0 -177.5 67.5t-65.5 182.5q0 140 88 234t217 94q110 0 169 -75l38 45h73l-78 -343q-10 -41 -2 -60.5t40 -19.5q45 0 76.5 47.5t43.5 107t12 121.5
q0 156 -87.5 231t-234.5 75q-210 0 -339.5 -138t-129.5 -338q0 -88 28.5 -156t77 -108t108.5 -60.5t129 -20.5q101 0 186 41l97 -96q-116 -86 -292 -86q-102 0 -189.5 31.5t-153.5 91.5t-103.5 154.5t-37.5 212.5q0 170 77.5 309.5t220 222t322.5 82.5zM585 335
q73 0 118.5 58t45.5 144q0 60 -27.5 91t-78.5 31q-79 0 -124 -58.5t-45 -138.5q0 -127 111 -127z" />
    <glyph glyph-name="A" unicode="A" 
d="M1099 32q3 -32 -28 -32h-166q-27 0 -32 28l-31 245h-510l-102 -249q-10 -24 -35 -24h-170q-17 0 -23.5 9.5t0.5 25.5l563 1342q9 23 34 23h282q28 0 32 -28zM410 466h407l-89 703h-31z" />
    <glyph glyph-name="B" unicode="B" 
d="M878 751q229 -53 229 -291q0 -241 -138 -350.5t-404 -109.5h-478q-32 0 -27 32l188 1340q4 28 32 28h488q97 0 168.5 -23t112 -64.5t59.5 -93t19 -113.5q0 -270 -249 -355zM448 1199l-51 -364h271q116 0 180.5 64t64.5 171q0 71 -42.5 100t-141.5 29h-281zM585 201
q150 0 225 67t75 207q0 85 -53.5 128t-174.5 43h-287l-63 -445h278z" />
    <glyph glyph-name="C" unicode="C" 
d="M576 185q137 0 205.5 40.5t100.5 152.5q7 28 36 28h154q15 0 22 -12t3 -29q-51 -218 -177.5 -306.5t-359.5 -88.5q-92 0 -161 14t-123 45.5t-87.5 82.5t-51 126t-16 174.5t19.5 228.5l17 120q27 194 72 321t118 202t166.5 105.5t229.5 30.5q238 0 344 -93.5t97 -311.5
q0 -28 -30 -28h-146q-30 0 -32 41q-5 107 -57.5 141.5t-179.5 34.5q-63 0 -108.5 -10t-88.5 -38.5t-73 -78.5t-55 -131.5t-41 -197.5l-17 -118q-12 -83 -15 -147.5t1.5 -111.5t18.5 -80t32.5 -53.5t48 -32.5t60 -16t73.5 -4z" />
    <glyph glyph-name="D" unicode="D" 
d="M664 1400q140 0 239 -34t157 -100.5t84 -155t26 -206.5q0 -212 -39.5 -376t-121.5 -283.5t-216 -182t-315 -62.5h-380q-31 0 -28 32l188 1340q3 28 32 28h374zM496 201q100 0 177.5 35t128.5 96.5t83.5 152.5t46.5 195.5t14 232.5q0 146 -66.5 216t-232.5 70h-188
l-141 -998h178z" />
    <glyph glyph-name="E" unicode="E" 
d="M998 201q31 0 28 -32l-19 -141q-3 -28 -32 -28h-851q-31 0 -28 32l188 1340q3 28 32 28h849q31 0 28 -32l-20 -141q-3 -28 -32 -28h-657l-52 -368h601q31 0 28 -32l-21 -142q-3 -28 -32 -28h-605l-60 -428h655z" />
    <glyph glyph-name="F" unicode="F" 
d="M1191 1400q32 0 27 -32l-19 -141q-4 -28 -32 -28h-688l-55 -388h638q32 0 27 -32l-19 -142q-4 -28 -32 -28h-642l-82 -581q-4 -28 -32 -28h-164q-32 0 -27 32l188 1340q4 28 32 28h880z" />
    <glyph glyph-name="G" unicode="G" 
d="M744 1420q238 0 344 -93.5t97 -311.5q0 -28 -30 -28h-146q-30 0 -32 41q-5 107 -57.5 141.5t-179.5 34.5q-63 0 -108.5 -10t-88.5 -38.5t-73 -78.5t-55 -131.5t-41 -197.5l-17 -118q-14 -97 -16.5 -168.5t8 -120.5t28 -80t49.5 -47.5t66.5 -22.5t85.5 -6q161 0 237.5 74
t104.5 259h-315q-15 0 -22.5 8.5t-5.5 23.5l20 133q4 28 32 28h497q33 0 28 -32l-24 -162q-42 -292 -172.5 -419t-394.5 -128q-93 0 -162.5 14t-124 45.5t-88 82.5t-51 126t-16 174.5t19.5 228.5l17 120q27 194 72 321t118 202t166.5 105.5t229.5 30.5z" />
    <glyph glyph-name="H" unicode="H" 
d="M1182 1400q32 0 27 -32l-188 -1340q-4 -28 -32 -28h-164q-32 0 -27 32l81 579h-494l-82 -583q-4 -28 -32 -28h-164q-32 0 -27 32l188 1340q4 28 32 28h164q32 0 27 -32l-78 -556h494l79 560q4 28 32 28h164z" />
    <glyph glyph-name="I" unicode="I" 
d="M1197 1227q-3 -28 -32 -28h-338l-140 -998h334q34 0 28 -32l-20 -141q-3 -28 -32 -28h-898q-31 0 -28 32l20 141q3 28 32 28h340l140 998h-336q-31 0 -28 32l20 141q3 28 32 28h898q34 0 28 -32z" />
    <glyph glyph-name="J" unicode="J" 
d="M1192 1400q33 0 28 -32l-120 -851q-39 -277 -186.5 -412t-374.5 -135q-226 0 -344.5 128t-90.5 381q3 29 32 29h157q31 0 28 -33q-23 -301 227 -301q127 0 215.5 90t113.5 265l95 670h-554q-32 0 -27 32l19 141q4 28 32 28h750z" />
    <glyph glyph-name="K" unicode="K" 
d="M1082 30q7 -12 2.5 -21t-19.5 -9h-181q-32 0 -46 25l-353 597l-152 -147l-63 -447q-3 -28 -32 -28h-164q-32 0 -28 32l187 1340q3 28 32 28h165q33 0 28 -32l-87 -594l604 607q19 19 52 19h199q19 0 24 -14t-9 -27l-596 -580z" />
    <glyph glyph-name="L" unicode="L" 
d="M353 201h664q32 0 28 -32l-19 -141q-4 -28 -32 -28h-860q-31 0 -28 32l188 1340q3 28 32 28h164q31 0 28 -32z" />
    <glyph glyph-name="M" unicode="M" 
d="M92 0q-32 0 -27 32l188 1340q4 28 32 28h185q28 0 30 -29l73 -1126h13l391 1130q9 25 35 25h185q32 0 27 -32l-188 -1340q-4 -28 -32 -28h-129q-32 0 -27 32l126 902h-12l-324 -910q-8 -24 -34 -24h-111q-29 0 -31 29l-68 905h-14l-127 -906q-4 -28 -32 -28h-129z" />
    <glyph glyph-name="N" unicode="N" 
d="M1013 1372q4 28 32 28h146q32 0 28 -32l-188 -1340q-4 -28 -32 -28h-199q-26 0 -34 24l-345 1036l-145 -1032q-4 -28 -32 -28h-146q-32 0 -28 32l188 1340q4 28 32 28h199q26 0 34 -24l344 -1034z" />
    <glyph glyph-name="O" unicode="O" 
d="M736 1420q93 0 161.5 -13.5t122.5 -45.5t87 -82.5t49.5 -125.5t15 -174.5t-19.5 -229.5l-17 -119q-27 -195 -71.5 -322t-116.5 -202.5t-165.5 -105.5t-229.5 -30q-93 0 -161.5 13.5t-122.5 45.5t-87 83t-49.5 126t-15 174.5t19.5 229.5l16 119q27 195 71.5 321.5t117 202
t166 105.5t229.5 30zM725 1205q-65 0 -110 -10t-86.5 -37.5t-70 -78.5t-51.5 -132.5t-39 -198.5l-17 -118q-16 -118 -16.5 -197.5t11.5 -129t44 -75.5t70.5 -34.5t101.5 -8.5q65 0 110 10t86.5 37.5t70 78.5t51.5 132.5t40 198.5l16 118q16 118 17 197.5t-11 129t-44 75.5
t-71 34.5t-102 8.5z" />
    <glyph glyph-name="P" unicode="P" 
d="M776 1400q222 0 315.5 -81.5t93.5 -248.5q0 -290 -125 -428.5t-400 -138.5h-286l-66 -475q-4 -28 -32 -28h-164q-32 0 -27 32l188 1340q4 28 32 28h471zM679 704q164 0 227.5 84t63.5 266q0 91 -46.5 118t-165.5 27h-286l-69 -495h276z" />
    <glyph glyph-name="Q" unicode="Q" 
d="M736 1420q93 0 161.5 -13.5t122.5 -45.5t87 -82.5t49.5 -125.5t15 -174.5t-19.5 -229.5l-17 -119q-27 -195 -71.5 -322t-116.5 -202.5t-165.5 -105.5t-229.5 -30q-93 0 -161.5 13.5t-122.5 45.5t-87 83t-49.5 126t-15 174.5t19.5 229.5l16 119q27 195 71.5 321.5t117 202
t166 105.5t229.5 30zM725 1205q-65 0 -110 -10t-86.5 -37.5t-70 -78.5t-51.5 -132.5t-39 -198.5l-17 -118q-16 -118 -16.5 -197.5t11.5 -129t44 -75.5t70.5 -34.5t101.5 -8.5q65 0 110 10t86.5 37.5t70 78.5t51.5 132.5t40 198.5l16 118q16 118 17 197.5t-11 129t-44 75.5
t-71 34.5t-102 8.5zM1028 -173q32 0 32 -28v-127q0 -32 -30 -32q-56 -1 -102 8.5t-79 24t-66.5 29t-79.5 25t-101 10.5q-42 0 -56 6t-14 22v126q0 32 32 32q67 1 129 -14t103 -33.5t103 -34t129 -14.5z" />
    <glyph glyph-name="R" unicode="R" 
d="M850 524l224 -488q16 -36 -20 -36h-160q-27 0 -36 20l-218 483h-266l-66 -475q-4 -28 -32 -28h-164q-32 0 -27 32l188 1340q4 28 32 28h471q222 0 315.5 -81.5t93.5 -248.5q0 -234 -81 -368.5t-254 -177.5zM472 1199l-69 -495h276q164 0 227.5 84t63.5 266
q0 91 -46.5 118t-165.5 27h-286z" />
    <glyph glyph-name="S" unicode="S" 
d="M645 807q60 -14 104 -25.5t96.5 -30t90 -38.5t74.5 -49t60 -62.5t37 -79t14 -98.5q0 -224 -152 -337t-415 -113q-238 0 -359 85.5t-109 258.5q2 30 30 30h149q26 0 28 -34q3 -65 74.5 -102t197.5 -37q336 0 336 235q0 47 -15 79.5t-51.5 55.5t-80 37t-117.5 31
q-77 18 -134 37t-116 50t-96 69.5t-60.5 96t-23.5 128.5q0 204 137 313t375 109q226 0 344.5 -83t111.5 -251q-1 -31 -37 -31h-130q-34 0 -39 33q-7 63 -74.5 97.5t-180.5 34.5q-144 0 -218 -54t-74 -160q0 -79 51 -123t172 -72z" />
    <glyph glyph-name="T" unicode="T" 
d="M1220 1400q32 0 28 -32l-20 -141q-3 -28 -32 -28h-369l-164 -1171q-3 -28 -32 -28h-164q-31 0 -28 32l164 1167h-366q-31 0 -28 32l20 141q3 28 32 28h959z" />
    <glyph glyph-name="U" unicode="U" 
d="M1192 1400q31 0 28 -32l-120 -854q-40 -280 -175 -412t-373 -132q-492 0 -413 557l119 845q3 28 32 28h164q31 0 28 -32l-120 -854q-25 -171 24 -251t176 -80q136 0 213.5 85.5t101.5 258.5l119 845q3 28 32 28h164z" />
    <glyph glyph-name="V" unicode="V" 
d="M1060 1376q8 24 34 24h171q17 0 23 -9.5t-1 -25.5l-563 -1342q-9 -23 -34 -23h-282q-28 0 -32 28l-185 1340q-5 32 28 32h165q27 0 32 -28l145 -1140h32z" />
    <glyph glyph-name="W" unicode="W" 
d="M1073 1374q6 26 33 26h149q16 0 23 -9t3 -24l-352 -1341q-6 -26 -33 -26h-199q-30 0 -30 30l1 830l-234 -834q-8 -26 -34 -26h-199q-30 0 -30 30l25 1341q1 29 31 29h147q29 0 29 -31l-45 -1081l303 1086q8 26 34 26h90q30 0 30 -30l-2 -1082z" />
    <glyph glyph-name="X" unicode="X" 
d="M1231 1400q18 0 23 -10t-5 -26l-483 -661l309 -668q7 -16 0.5 -25.5t-23.5 -9.5h-172q-26 0 -36 23l-223 482l-356 -487q-11 -18 -37 -18h-185q-18 0 -23 10.5t6 25.5l497 680l-301 649q-7 16 0 25.5t24 9.5h171q26 0 36 -23l215 -463l342 468q12 18 37 18h184z" />
    <glyph glyph-name="Y" unicode="Y" 
d="M1261 1400q18 0 23.5 -10t-4.5 -26l-544 -811l-74 -525q-3 -28 -32 -28h-164q-31 0 -28 32l75 527l-316 807q-6 16 0.5 25t23.5 9h171q27 0 35 -24l223 -608l402 612q12 20 37 20h172z" />
    <glyph glyph-name="Z" unicode="Z" 
d="M930 1199h-648q-31 0 -28 32l20 141q3 28 32 28h870q33 0 28 -32l-23 -155q-3 -24 -16 -38l-828 -974h690q32 0 28 -32l-19 -141q-3 -28 -32 -28h-910q-31 0 -28 32l21 155q4 26 16 38z" />
    <glyph glyph-name="bracketleft" unicode="[" 
d="M420 1462q3 28 32 28h604q31 0 28 -32l-17 -119q-3 -28 -32 -28h-411l-196 -1392h408q31 0 28 -32l-18 -119q-3 -28 -32 -28h-604q-34 0 -28 32z" />
    <glyph glyph-name="backslash" unicode="\" 
d="M291 1400h166q24 0 32 -29l495 -1600q8 -31 -26 -31h-159q-26 0 -35 30l-495 1598q-9 32 22 32z" />
    <glyph glyph-name="bracketright" unicode="]" 
d="M1044 1490q31 0 28 -32l-238 -1690q-3 -28 -32 -28h-592q-33 0 -28 32l18 119q3 28 32 28h399l196 1392h-396q-34 0 -28 32l17 119q3 28 32 28h592z" />
    <glyph glyph-name="asciicircum" unicode="^" 
d="M907 498q-13 -6 -23.5 1t-15.5 21l-172 504l-319 -515q-12 -20 -37 -5l-98 53q-13 7 -17 18.5t3 24.5l391 621q11 17 35 17h126q23 0 33 -28l217 -621q10 -28 -10 -38z" />
    <glyph glyph-name="underscore" unicode="_" 
d="M1003 0q33 0 28 -32l-19 -120q-3 -28 -32 -28h-917q-15 0 -22.5 8.5t-5.5 23.5l19 120q4 28 32 28h917z" />
    <glyph glyph-name="grave" unicode="`" 
d="M865 1184q10 -34 -24 -34h-130q-26 0 -34 24l-84 252q-10 34 24 34h129q26 0 34 -24z" />
    <glyph glyph-name="a" unicode="a" 
d="M1154 948l-107 -734q-4 -34 8 -48t34 -12q15 2 23.5 -8.5t5.5 -29.5l-11 -70q-5 -27 -36 -43.5t-79 -16.5q-64 0 -94.5 42.5t-28.5 112.5h-15q-44 -73 -127.5 -120t-193.5 -47q-189 0 -307 122.5t-118 334.5q0 163 69.5 294.5t187 204t257.5 72.5q107 0 186 -41.5
t116 -109.5h16l34 104q8 25 34 25h118q33 0 28 -32zM572 173q94 0 167.5 52t111.5 134t38 176q0 132 -71.5 200t-181.5 68q-139 0 -229.5 -100t-90.5 -261q0 -128 70 -198.5t186 -70.5z" />
    <glyph glyph-name="b" unicode="b" 
d="M789 1001q175 0 275.5 -117.5t100.5 -305.5q0 -120 -37.5 -229.5t-103.5 -192.5t-164 -132t-212 -49q-208 0 -314 160l-15 -107q-3 -28 -32 -28h-154q-34 0 -28 32l191 1340q3 28 32 28h155q31 0 28 -32l-76 -527h25q120 160 329 160zM619 171q103 0 182 54.5t118.5 142
t39.5 191.5q0 116 -60.5 181t-169.5 65q-103 0 -183 -55t-120.5 -141t-40.5 -186q0 -117 62.5 -184.5t171.5 -67.5z" />
    <glyph glyph-name="c" unicode="c" 
d="M1041 256q27 -18 9 -42q-75 -112 -193 -176t-259 -64q-201 0 -330 132.5t-129 333.5q0 155 75.5 284.5t202 203.5t274.5 74q138 0 245.5 -64.5t163.5 -176.5q12 -27 -14 -40l-128 -64q-25 -13 -40 13q-36 62 -98 97.5t-140 35.5q-141 0 -237 -101t-96 -258
q0 -121 73.5 -196t188.5 -75q178 0 282 143q17 23 41 8z" />
    <glyph glyph-name="d" unicode="d" 
d="M1203 1368l-167 -1154q-5 -34 7 -48t35 -12q15 2 23.5 -8.5t5.5 -29.5l-11 -70q-5 -27 -36 -43.5t-79 -16.5q-64 0 -94 42t-28 113h-20q-37 -75 -117.5 -121t-186.5 -46q-191 0 -310 121.5t-119 329.5q0 164 71.5 297t192 206.5t263.5 73.5q100 0 173.5 -40t106.5 -111
h15l1 114l59 407q3 28 32 28h155q31 0 28 -32zM573 173q90 0 161 54t107.5 137t36.5 177q0 129 -66.5 195.5t-173.5 66.5q-139 0 -231.5 -101.5t-92.5 -261.5q0 -126 72 -196.5t187 -70.5z" />
    <glyph glyph-name="e" unicode="e" 
d="M774 402h-473q-2 -115 80 -182t227 -67q159 0 271 85q27 18 49 -6l58 -67q26 -28 0 -52q-151 -139 -405 -139q-222 0 -351.5 125.5t-129.5 321.5q0 116 45.5 223t122.5 185.5t185.5 125.5t228.5 47q105 0 189.5 -30.5t136.5 -82t79 -115.5t27 -135q0 -121 -75 -179
t-265 -58zM675 817q-123 0 -217.5 -70.5t-130.5 -188.5h381q124 0 170 16.5t45 74.5q-1 68 -66.5 118t-181.5 50z" />
    <glyph glyph-name="f" unicode="f" 
d="M972 1473q65 0 131.5 -9t112.5 -26t42 -37l-20 -118q-6 -31 -33 -24q-3 1 -18.5 5.5t-25 6.5t-29 6t-37 6.5t-43 4t-52.5 1.5q-67 0 -120 -11t-99.5 -36.5t-76.5 -73.5t-39 -117l-10 -71h412q33 0 28 -32l-17 -119q-4 -28 -32 -28h-417l-111 -783q-14 -96 -46 -169.5
t-73.5 -118t-97.5 -72t-111 -38t-119 -10.5q-60 0 -117 13.5t-97.5 34.5t-70 44t-40.5 43.5t-2 31.5l63 85q18 25 42 7q102 -76 206 -76q40 0 77 11.5t74 38.5t64 80t37 127l105 751h-246q-31 0 -28 32l17 119q3 28 32 28h250l15 105q55 388 520 388z" />
    <glyph glyph-name="g" unicode="g" 
d="M1097 980q31 0 28 -32l-132 -919q-14 -98 -50 -173.5t-84.5 -122.5t-111.5 -76.5t-125.5 -41t-133.5 -11.5q-226 0 -378 118q-25 19 -11 42l68 100q14 22 40 5q125 -82 297 -82q258 0 294 242l15 100q-30 -70 -105.5 -112.5t-177.5 -42.5q-192 0 -310.5 121.5
t-118.5 329.5q0 123 42 231t112.5 183.5t166 119t200.5 43.5q101 0 176 -40t107 -111h18l22 104q6 25 34 25h118zM568 173q90 0 161 54t107.5 137t36.5 177q0 129 -67 195.5t-173 66.5q-140 0 -232.5 -101.5t-92.5 -261.5q0 -126 72.5 -196.5t187.5 -70.5z" />
    <glyph glyph-name="h" unicode="h" 
d="M1078 154q15 2 23.5 -8.5t5.5 -29.5l-11 -70q-5 -27 -36 -43.5t-79 -16.5q-91 0 -133.5 53t-31.5 132l56 400q17 119 -36 175.5t-148 56.5q-101 0 -174 -51.5t-109 -120.5l-86 -603q-3 -28 -32 -28h-154q-34 0 -28 32l191 1340q3 28 32 28h155q31 0 28 -32l-78 -544h12
q43 78 128.5 128t197.5 50q168 0 260 -109t62 -302l-57 -377q-5 -34 7 -48t35 -12z" />
    <glyph glyph-name="i" unicode="i" 
d="M672 1187q-52 0 -88.5 36t-36.5 88t36.5 88.5t88.5 36.5t88.5 -36.5t36.5 -88.5t-36.5 -88t-88.5 -36zM1106 151q10 -21 -6 -40q-45 -49 -134.5 -90t-197.5 -41q-51 0 -95.5 8.5t-89 28t-76 51t-55 79t-27.5 111t7 146.5l63 395h-369q-15 0 -22.5 8.5t-5.5 23.5l17 121
q4 28 32 28h557q32 0 27 -32l-83 -537q-6 -52 -5 -90t13.5 -65t27.5 -44.5t37 -27.5t41.5 -13.5t41.5 -3.5q104 0 208 85q12 11 26.5 9.5t22.5 -17.5z" />
    <glyph glyph-name="j" unicode="j" 
d="M897 1187q-52 0 -88 36t-36 88t36 88.5t88 36.5q53 0 89 -36t36 -89q0 -52 -36.5 -88t-88.5 -36zM938 980q13 0 22.5 -11t7.5 -25l-129 -916q-57 -412 -461 -412q-59 0 -117 13.5t-99.5 33.5t-72.5 43t-43.5 42.5t-4.5 30.5l70 100q20 28 51 4q97 -73 218 -73
q40 0 75.5 10.5t72 36t63 77.5t36.5 126l104 739h-425q-32 0 -28 32l17 121q4 28 32 28h611z" />
    <glyph glyph-name="k" unicode="k" 
d="M1111 983q20 0 27.5 -14t-7.5 -27l-432 -381l354 -527q20 -31 -15 -31h-180q-18 0 -33 23l-271 408l-203 -179l-32 -227q-3 -28 -32 -28h-154q-34 0 -28 32l191 1340q3 28 32 28h155q31 0 28 -32l-120 -839l493 443q11 11 37 11h190z" />
    <glyph glyph-name="l" unicode="l" 
d="M1122 149q11 -20 -6 -37q-50 -50 -147 -91t-219 -41q-52 0 -98 8.5t-90.5 28t-76.5 51.5t-56 79t-28 111t6 147l127 814h-345q-32 0 -28 32l18 121q4 28 32 28h529q33 0 28 -32l-145 -956q-37 -245 173 -245q117 0 233 89q28 21 45 -11z" />
    <glyph glyph-name="m" unicode="m" 
d="M1108 154q15 2 23.5 -8.5t5.5 -29.5l-12 -70q-5 -27 -35.5 -43.5t-79.5 -16.5q-90 0 -125.5 51.5t-24.5 133.5l70 470q14 96 -2.5 135.5t-69.5 39.5q-46 0 -79 -29t-46.5 -64.5t-19.5 -77.5l-86 -617q-4 -28 -32 -28h-136q-32 0 -28 32l86 609q13 97 -3 136t-70 39
q-113 0 -139 -171l-87 -617q-4 -28 -32 -28h-142q-33 0 -28 32l130 924q4 24 28 24h135q13 0 21.5 -11t7.5 -25l-7 -73h13q61 131 192 131q74 0 117.5 -31.5t60.5 -99.5h15q70 131 204 131q121 0 172.5 -94.5t22.5 -284.5l-62 -409q-5 -34 7 -48t35 -12z" />
    <glyph glyph-name="n" unicode="n" 
d="M1078 154q15 2 23.5 -8.5t5.5 -29.5l-11 -70q-5 -27 -36 -43.5t-79 -16.5q-91 0 -133.5 53t-31.5 132l56 400q17 119 -36 175.5t-148 56.5q-113 0 -190.5 -63.5t-102.5 -136.5l-82 -575q-3 -28 -32 -28h-154q-34 0 -28 32l131 920q3 28 32 28h144q13 0 22 -11t7 -25
l-9 -120h19q43 78 128.5 128t197.5 50q168 0 260 -109t62 -302l-57 -377q-5 -34 7 -48t35 -12zM387 564l4 28q-4 -13 -4 -28z" />
    <glyph glyph-name="o" unicode="o" 
d="M568 -26q-201 0 -330 132.5t-129 333.5q0 155 75.5 284.5t202 203.5t274.5 74q201 0 330.5 -131.5t129.5 -331.5q0 -154 -74 -284t-201 -205.5t-278 -75.5zM579 173q140 0 236.5 99.5t96.5 259.5q0 121 -73.5 196t-188.5 75q-141 0 -237 -101t-96 -258q0 -121 73.5 -196
t188.5 -75z" />
    <glyph glyph-name="p" unicode="p" 
d="M789 1001q175 0 275.5 -117.5t100.5 -305.5q0 -120 -37.5 -229.5t-103.5 -192.5t-164 -132t-212 -49q-210 0 -315 152l-68 -479q-4 -28 -32 -28h-154q-32 0 -28 32l185 1300q4 28 32 28h143q13 0 22 -11t8 -25l-7 -103h18q120 160 337 160zM619 171q103 0 182 54.5
t118.5 142t39.5 191.5q0 116 -60.5 181t-169.5 65q-106 0 -188 -55t-123 -141t-41 -186q0 -118 64 -185t178 -67z" />
    <glyph glyph-name="q" unicode="q" 
d="M1125 980q13 0 23 -11t8 -25l-184 -1300q-1 -13 -7 -18.5t-20 -5.5h-156q-13 0 -22.5 11t-7.5 25l62 454q-43 -63 -117 -99.5t-169 -36.5q-191 0 -310 121.5t-119 329.5q0 164 71.5 297t192 206.5t263.5 73.5q100 0 173.5 -40t106.5 -111h15l14 105q1 13 7 18.5t20 5.5
h156zM573 173q90 0 161 54t107.5 137t36.5 177q0 129 -66.5 195.5t-173.5 66.5q-139 0 -231.5 -101.5t-92.5 -261.5q0 -126 72 -196.5t187 -70.5z" />
    <glyph glyph-name="r" unicode="r" 
d="M822 1002q176 0 270 -108.5t63 -301.5q-3 -28 -39 -31l-145 -18q-17 -2 -25.5 6t-6.5 26q16 119 -38.5 174t-158.5 55q-69 0 -128.5 -23t-97 -59t-60 -68t-33.5 -61l-80 -565q-4 -28 -32 -28h-154q-32 0 -28 32l131 920q4 28 32 28h144q13 0 21.5 -11t7.5 -25l-9 -120v-1
h18q47 79 136.5 129t211.5 50z" />
    <glyph glyph-name="s" unicode="s" 
d="M643 568q52 -6 87 -11.5t85 -16t83 -23t70 -33.5t58.5 -46.5t36 -62t14.5 -81.5q0 -152 -134.5 -237t-356.5 -85q-218 0 -337.5 74.5t-112.5 239.5q1 28 28 28h148q26 0 28 -32q6 -130 253 -130q75 0 135 14t99.5 46t39.5 78q0 16 -4 29.5t-15 24t-20.5 18t-30.5 14.5
t-34 11.5t-42 9.5l-43.5 7.5t-48.5 7.5q-174 25 -245 50q-166 59 -177 204q-1 11 -1 23q0 144 123.5 228.5t338.5 84.5q204 0 315 -74.5t108 -235.5q0 -29 -31 -29h-140q-28 0 -30 31q-5 70 -63.5 99.5t-163.5 29.5q-109 0 -178 -34t-69 -100q0 -57 56 -82t171 -39z" />
    <glyph glyph-name="t" unicode="t" 
d="M1147 980q31 0 28 -32l-18 -121q-3 -28 -32 -28h-469l-58 -388q-37 -244 169 -244q108 0 221 86q12 9 27 6.5t22 -16.5l45 -96q8 -18 -7 -35q-45 -48 -140 -90t-207 -42q-81 0 -146.5 20.5t-119 66.5t-76 132t-4.5 205l58 395h-300q-31 0 -28 32l18 121q3 28 32 28h305
l38 262q4 28 32 28h157q33 0 28 -32l-39 -258h464z" />
    <glyph glyph-name="u" unicode="u" 
d="M1118 948l-106 -734q-5 -34 7 -48t35 -12q15 2 23.5 -8.5t5.5 -29.5l-12 -70q-5 -27 -35.5 -43.5t-79.5 -16.5q-89 0 -122 51.5t-21 133.5h-16q-39 -83 -126.5 -136.5t-204.5 -53.5q-162 0 -253 111t-63 305l79 555q3 28 32 28h155q33 0 28 -32l-76 -531
q-16 -119 35 -177t140 -58q97 0 166 57t112 141l82 575q3 25 34 25h153q33 0 28 -32z" />
    <glyph glyph-name="v" unicode="v" 
d="M958 954q6 26 33 26h173q34 0 26 -34q-33 -142 -94 -282t-147 -264t-185.5 -219.5t-216.5 -151t-233 -55.5h-35q-73 0 -109 45.5t-26 114.5l95 667h-83q-15 0 -22.5 8.5t-5.5 23.5l17 119q3 28 32 28h270q13 0 22 -11t7 -25l-113 -770q76 0 168.5 66t176.5 172
t152.5 250.5t97.5 291.5z" />
    <glyph glyph-name="w" unicode="w" 
d="M1176 980q30 0 30 -30q-1 -153 -17 -292.5t-50 -265.5t-83.5 -218t-122.5 -146t-162 -54q-138 0 -188 114q-87 -115 -229 -115q-125 0 -188 82.5t-40 240.5l73 505h-59q-31 0 -28 32l17 119q3 28 32 28h238q13 0 22 -11t7 -25l-94 -633q-22 -134 72 -134q98 0 119 129
l93 646q3 28 32 28h128q31 0 28 -32l-87 -647q-9 -61 1 -92.5t47 -31.5q67 0 121.5 110.5t83.5 287t29 375.5q0 30 30 30h145z" />
    <glyph glyph-name="x" unicode="x" 
d="M1073 36q10 -16 4.5 -26t-23.5 -10h-183q-24 0 -36 19l-235 337l-337 -341q-14 -15 -37 -15h-183q-20 0 -24.5 11t9.5 25l466 469l-309 439q-10 16 -4.5 26t23.5 10h181q24 0 36 -19l214 -307l306 310q15 16 37 16h182q20 0 24.5 -11t-9.5 -25l-433 -439z" />
    <glyph glyph-name="y" unicode="y" 
d="M1112 980q33 0 28 -32l-127 -868q-17 -116 -58.5 -203t-93 -137t-120.5 -80.5t-130.5 -40t-133.5 -9.5q-188 0 -301 71.5t-115 217.5q0 30 30 30h144q23 0 32 -27q17 -62 73.5 -86.5t148.5 -24.5q131 0 209.5 65.5t100.5 223.5l18 125h-3q-42 -82 -125.5 -130.5
t-202.5 -48.5q-169 0 -258 101t-60 300l77 525q4 28 32 28h154q33 0 28 -32l-71 -501q-9 -65 0.5 -110t36.5 -68t58.5 -32.5t73.5 -9.5q106 0 178 57.5t114 140.5l76 530q3 25 34 25h153zM887 533q1 1 1 4z" />
    <glyph glyph-name="z" unicode="z" 
d="M1110 944l-18 -127q-4 -26 -15 -37l-678 -601h600q34 0 28 -32l-17 -119q-3 -28 -32 -28h-828q-13 0 -22.5 11t-7.5 25l18 127q4 26 15 37l678 601h-600q-34 0 -28 32l17 119q3 28 32 28h828q13 0 22.5 -11t7.5 -25z" />
    <glyph glyph-name="braceleft" unicode="{" 
d="M629 866q-4 -29 -12 -36l-233 -218l162 -225q14 -17 11 -38l-53 -369q-9 -61 57 -61h269q31 0 28 -32l-17 -119q-3 -28 -32 -28h-385q-71 0 -118 47.5t-34 135.5l57 416q1 4 3.5 13.5t2 12.5t-3.5 11l-164 214q-15 21 3 42l220 230q16 16 19 39l59 419q13 87 67 128.5
t125 41.5h391q32 0 28 -32l-17 -119q-3 -28 -32 -28h-264q-32 0 -56.5 -21t-28.5 -52z" />
    <glyph glyph-name="bar" unicode="|" 
d="M655 1572q3 28 32 28h164q31 0 28 -32l-270 -1920q-3 -28 -32 -28h-164q-31 0 -28 32z" />
    <glyph glyph-name="braceright" unicode="}" 
d="M711 879l52 371q9 61 -57 61h-269q-32 0 -28 32l17 119q3 28 32 28h383q71 0 118.5 -48t34.5 -135l-58 -418q0 -3 -2.5 -11.5t-2.5 -14t5 -11.5l162 -218q15 -21 -3 -42l-219 -226q-16 -16 -19 -39l-58 -417q-12 -87 -66.5 -128.5t-127.5 -41.5h-389q-33 0 -28 32l17 119
q3 28 32 28h264q32 0 56.5 21t28.5 52l52 370q1 4 1 10t0.5 9.5t2.5 8t6 8.5l231 214l-160 229q-11 15 -8 38z" />
    <glyph glyph-name="asciitilde" unicode="~" 
d="M447 737q55 0 101 -18.5t77 -45.5t59 -54t61.5 -45.5t71.5 -18.5q55 0 89.5 24t50.5 55q11 20 33 20h73q29 0 21 -36q-19 -98 -94.5 -153t-181.5 -55q-55 0 -101.5 18.5t-77.5 45.5t-59.5 54t-61.5 45.5t-70 18.5q-96 0 -142 -80q-11 -19 -33 -19h-68q-15 0 -21.5 11
t-2.5 29q25 95 98.5 149.5t177.5 54.5z" />
    <glyph glyph-name="exclamdown" unicode="&#xa1;" 
d="M684 1066q67 0 114.5 -47t47.5 -114q0 -68 -47.5 -115.5t-114.5 -47.5t-114 47.5t-47 115.5q0 67 47 114t114 47zM525 -376q-65 0 -104 49t-22 121l175 800q6 26 33 26h90q31 0 29 -31l-52 -807q-4 -72 -48 -115t-101 -43z" />
    <glyph glyph-name="cent" unicode="&#xa2;" 
d="M1120 896q12 -27 -14 -39l-128 -63q-25 -13 -40 13q-55 94 -163 121l-85 -603q136 20 221 135q17 22 41 8l109 -67q27 -19 9 -41q-69 -101 -174.5 -162t-233.5 -71l-25 -179q-4 -28 -32 -28h-91q-32 0 -28 32l26 184q-159 33 -256 155t-97 290q0 214 143 369.5t350 178.5
l34 243q4 28 32 28h91q32 0 28 -32l-34 -244q106 -19 188.5 -78.5t128.5 -149.5zM367 585q0 -93 47 -159.5t126 -92.5l84 595q-113 -25 -185 -118.5t-72 -224.5z" />
    <glyph glyph-name="sterling" unicode="&#xa3;" 
d="M1181 1069q0 -21 -0.5 -29.5t-3.5 -21.5t-10 -18t-20 -5l-147 -4q-30 0 -29 30q2 102 -60 151t-177 49q-134 0 -208 -73.5t-74 -197.5q0 -19 2.5 -38t5 -31t10 -33t9.5 -27t13 -31t12 -28h467q31 0 28 -32l-21 -138q-3 -28 -32 -28h-399q-3 -220 -168 -363h646
q32 0 28 -32l-20 -141q-3 -28 -32 -28h-911q-31 0 -28 32l20 146q3 21 25 34q108 58 172.5 150.5t64.5 201.5h-169q-31 0 -28 32l21 138q3 28 32 28h89q-40 103 -40 196q0 220 135.5 339t370.5 119q198 0 312 -89.5t114 -257.5z" />
    <glyph glyph-name="currency" unicode="&#xa4;" 
d="M1083 1194q45 -87 45 -189q0 -166 -107 -302l79 -89l-125 -111l-76 86q-130 -85 -274 -85q-151 0 -259 89l-100 -90l-101 111l107 96q-45 87 -45 189q0 171 111 308l-77 87l125 112l77 -87q125 81 268 81q150 0 258 -89l105 95l102 -112zM370 912q0 -106 74 -185.5
t195 -79.5q96 0 177.5 52.5t126 131.5t44.5 160q0 105 -74.5 185.5t-194.5 80.5q-97 0 -178.5 -53.5t-125.5 -132t-44 -159.5z" />
    <glyph glyph-name="yen" unicode="&#xa5;" 
d="M1261 1400q18 0 23.5 -10t-4.5 -26l-487 -727h255q34 0 28 -32l-15 -108q-3 -28 -32 -28h-305l-11 -84h300q34 0 28 -32l-16 -107q-3 -28 -32 -28h-304l-27 -190q-3 -28 -32 -28h-164q-31 0 -28 32l26 186h-298q-34 0 -28 32l16 107q3 28 32 28h302l12 84h-298
q-34 0 -28 32l15 108q3 28 32 28h261l-285 729q-6 16 0.5 25t23.5 9h171q27 0 35 -24l223 -608l402 612q12 20 37 20h172z" />
    <glyph glyph-name="brokenbar" unicode="&#xa6;" 
d="M851 1600q32 0 28 -32l-80 -560q-3 -28 -32 -28h-164q-32 0 -28 32l80 560q3 28 32 28h164zM659 240q32 0 28 -32l-78 -560q-3 -28 -32 -28h-164q-32 0 -28 32l78 560q3 28 32 28h164z" />
    <glyph glyph-name="section" unicode="&#xa7;" 
d="M733 1600q223 0 338.5 -90t107.5 -268q-1 -24 -29 -24h-130q-31 0 -36 38q-8 67 -72.5 105.5t-184.5 38.5q-127 0 -202 -63t-75 -173q0 -71 45 -110.5t157 -63.5q60 -12 107 -23.5t101.5 -30t96 -39t81.5 -50.5t65.5 -64.5t41 -81t15.5 -100.5q0 -96 -39 -186t-111 -150
q33 -63 33 -144q0 -212 -150 -327t-399 -115q-239 0 -357 90.5t-110 273.5q1 27 26 27h150q27 0 31 -40q17 -149 268 -149q149 0 235.5 59t86.5 175q0 74 -55 110t-195 70q-78 17 -137 36t-122.5 51.5t-104.5 73t-67.5 102t-26.5 137.5q0 202 148 325q-28 62 -28 140
q0 205 136 322.5t361 117.5zM644 795q-141 30 -227 74q-88 -63 -88 -180q0 -81 60.5 -124.5t191.5 -74.5q168 -33 264 -79q100 68 100 184q0 36 -15 63.5t-37 46t-65 36t-81 28.5t-103 26z" />
    <glyph glyph-name="dieresis" unicode="&#xa8;" 
d="M528 1191q-47 0 -80.5 34t-33.5 82q0 46 33.5 79.5t80.5 33.5t80.5 -33.5t33.5 -79.5q0 -48 -33.5 -82t-80.5 -34zM932 1191q-47 0 -80.5 34t-33.5 82q0 46 33.5 79.5t80.5 33.5t81 -33.5t34 -79.5q0 -49 -33.5 -82.5t-81.5 -33.5z" />
    <glyph glyph-name="copyright" unicode="&#xa9;" 
d="M572 112q-144 0 -260.5 66t-182 181.5t-65.5 255.5q0 169 88 317t238 236t323 88q219 0 363 -144.5t144 -358.5q0 -125 -51.5 -243t-138 -205.5t-207 -140t-251.5 -52.5zM580 251q133 0 247 69t180.5 185.5t66.5 251.5q0 155 -104 257.5t-266 102.5q-131 0 -245 -66.5
t-182 -180.5t-68 -246q0 -164 104 -268.5t267 -104.5zM797 433q-79 -60 -180 -60q-118 0 -195 75.5t-77 194.5q0 143 102 244.5t238 101.5q105 0 179 -67l-85 -84q-43 25 -95 25q-88 0 -149.5 -61t-61.5 -156q0 -65 44 -107t109 -42q54 0 106 30z" />
    <glyph glyph-name="ordfeminine" unicode="&#xaa;" 
d="M965 1400h138l-102 -718h-135l-8 70q-87 -70 -202 -70q-141 0 -233 92.5t-92 229.5q0 164 123 285t285 121q123 0 198 -80zM665 837q97 0 171 72t74 171q0 76 -51 126t-129 50q-97 0 -170.5 -73t-73.5 -173q0 -75 50.5 -124t128.5 -49z" />
    <glyph glyph-name="guillemotleft" unicode="&#xab;" 
d="M656 980q18 0 24 -10.5t-6 -25.5l-312 -382l203 -382q7 -15 1 -25.5t-23 -10.5h-163q-25 0 -36 22l-202 374q-12 21 4 42l310 380q15 18 36 18h164zM1142 980q18 0 24 -10.5t-6 -25.5l-307 -382l198 -382q7 -15 1 -25.5t-23 -10.5h-163q-25 0 -36 22l-202 374
q-12 21 4 42l310 380q15 18 36 18h164z" />
    <glyph glyph-name="logicalnot" unicode="&#xac;" 
d="M118 587q3 28 32 28h960q31 0 28 -32l-39 -285q-3 -28 -32 -28h-159q-31 0 -28 32l18 134h-768q-31 0 -28 32z" />
    <glyph glyph-name="uni00AD" unicode="&#xad;" 
d="M1095 649q31 0 28 -32l-16 -120q-3 -28 -32 -28h-920q-31 0 -28 32l16 120q3 28 32 28h920z" />
    <glyph glyph-name="registered" unicode="&#xae;" 
d="M713 1256q219 0 363 -144.5t144 -358.5q0 -125 -51.5 -243t-138 -205.5t-207 -140t-251.5 -52.5q-144 0 -260.5 66t-182 181.5t-65.5 255.5q0 169 88 317t238 236t323 88zM580 251q133 0 247 69t180.5 185.5t66.5 251.5q0 155 -104 257.5t-266 102.5q-131 0 -245 -66.5
t-182 -180.5t-68 -246q0 -164 104 -268.5t267 -104.5zM723 959q107 0 163.5 -50.5t42.5 -146.5q-21 -144 -189 -169l134 -165q6 -8 2 -13t-15 -5h-95q-13 0 -29 18l-126 160h-101l-22 -158q-3 -20 -20 -20h-87q-8 0 -12.5 7.5t-2.5 15.5l72 515q2 11 14 11h271zM807 779
q5 36 -16.5 54t-71.5 18h-172l-22 -158h162q50 0 82.5 24t37.5 62z" />
    <glyph glyph-name="macron" unicode="&#xaf;" 
d="M1002 1400q31 0 28 -32l-17 -111q-3 -28 -32 -28h-522q-31 0 -28 32l17 111q3 28 32 28h522z" />
    <glyph glyph-name="degree" unicode="&#xb0;" 
d="M735 1410q124 0 202 -76t78 -196q0 -151 -102.5 -251.5t-246.5 -100.5q-123 0 -201.5 76.5t-78.5 197.5q0 149 103 249.5t246 100.5zM728 1268q-86 0 -142 -59t-56 -143q0 -60 38 -98.5t107 -38.5q85 0 140 59.5t55 146.5q0 57 -38.5 95t-103.5 38z" />
    <glyph glyph-name="plusminus" unicode="&#xb1;" 
d="M1042 788q32 0 28 -32l-16 -108q-3 -28 -32 -28h-304l-43 -305q-3 -28 -32 -28h-108q-31 0 -28 32l43 301h-302q-31 0 -28 32l16 108q3 28 32 28h306l43 306q3 28 32 28h107q31 0 28 -32l-42 -302h300zM955 168q32 0 28 -32l-16 -108q-3 -28 -32 -28h-774q-31 0 -28 32
l16 108q3 28 32 28h774z" />
    <glyph glyph-name="uni00B2" unicode="&#xb2;" 
d="M1024 380q31 0 28 -32l-15 -110q-3 -28 -32 -28l-866 -2q-31 0 -28 32l14 98q12 87 60.5 153t117 104t149 66.5t159.5 48t145 40t110 52t50 74.5q10 71 -42.5 103.5t-172.5 32.5q-263 0 -308 -168q-8 -28 -34 -24l-141 23q-30 5 -25 35q65 322 505 322q220 0 333.5 -88.5
t91.5 -247.5q-10 -70 -54.5 -123t-108 -84t-138.5 -55.5t-149.5 -44t-136.5 -41.5t-104 -56t-49 -80h641z" />
    <glyph glyph-name="uni00B3" unicode="&#xb3;" 
d="M910 704q55 -13 95 -31.5t71 -47t43 -71t4 -98.5q-11 -75 -53.5 -128.5t-115 -84.5t-164.5 -45t-212 -14q-92 0 -162.5 8t-130.5 28t-97.5 52.5t-56 83t-13.5 118.5q2 30 31 30l152 4q27 0 30 -29q4 -67 63.5 -89t191.5 -22q72 0 125 6t95.5 20.5t66.5 40.5t30 63
q10 69 -64 96.5t-281 29.5q-34 0 -31 32l7 83q3 28 32 28q200 2 283 34t92 99q9 63 -54 90t-187 27q-123 0 -197.5 -34t-99.5 -118q-9 -28 -36 -24l-148 24q-29 6 -25 34q34 164 162.5 232.5t348.5 68.5q229 0 347.5 -71t98.5 -213q-11 -82 -74 -135.5t-167 -76.5z" />
    <glyph glyph-name="acute" unicode="&#xb4;" 
d="M576 1150q-18 0 -23.5 10.5t3.5 25.5l159 254q11 20 36 20h131q18 0 23.5 -10.5t-3.5 -25.5l-158 -254q-11 -20 -36 -20h-132z" />
    <glyph glyph-name="uni00B5" unicode="&#xb5;" 
d="M1118 948l-106 -734q-5 -34 7 -48t35 -12q15 2 23.5 -8.5t5.5 -29.5l-12 -70q-5 -27 -35.5 -43.5t-79.5 -16.5q-89 0 -122 51.5t-21 133.5h-16q-39 -83 -126.5 -136.5t-204.5 -53.5q-88 0 -155 33l-52 -370q-3 -24 -32 -24h-155q-13 0 -20 11t-5 25l98 693q1 13 5 48
l79 555q3 28 32 28h155q33 0 28 -32l-76 -531q-16 -119 35 -177t140 -58q97 0 166 57t112 141l82 575q3 25 34 25h153q33 0 28 -32z" />
    <glyph glyph-name="paragraph" unicode="&#xb6;" 
d="M132 964q13 90 32 155.5t53 121t83 89t120.5 52t166.5 18.5h265q31 0 28 -32l-188 -1340q-3 -28 -32 -28h-149q-31 0 -28 32l66 471h-78q-157 0 -240 53t-101 155.5t2 252.5zM1011 1372q3 28 32 28h149q31 0 28 -32l-188 -1340q-3 -28 -32 -28h-149q-31 0 -28 32z" />
    <glyph glyph-name="periodcentered" unicode="&#xb7;" 
d="M581 439q-67 0 -114.5 47t-47.5 114q0 68 47.5 115.5t114.5 47.5t114 -47.5t47 -115.5q0 -67 -47 -114t-114 -47z" />
    <glyph glyph-name="cedilla" unicode="&#xb8;" 
d="M571 -72q71 -6 121 -48.5t50 -111.5q0 -82 -50.5 -132.5t-123 -64.5t-156.5 0q-18 3 -18 22v77q0 10 6 15.5t16 4.5q80 -11 125.5 7.5t45.5 59.5q0 24 -23 41t-60.5 20t-85.5 -16q-10 -4 -17 -0.5t-7 14.5v77q0 14 10 24l83 83h159z" />
    <glyph glyph-name="uni00B9" unicode="&#xb9;" 
d="M1019 389q31 0 28 -32l-17 -119q-3 -28 -32 -28h-839q-31 0 -28 32l17 119q3 28 32 28h350l86 584q-127 -107 -324 -115q-33 0 -30 32l13 134q3 28 30 29q173 8 335 137h186q31 0 28 -32l-108 -769h273z" />
    <glyph glyph-name="ordmasculine" unicode="&#xba;" 
d="M652 682q-141 0 -233 92.5t-92 229.5q0 164 123 285t285 121q141 0 232.5 -92t91.5 -230q0 -164 -122.5 -285t-284.5 -121zM665 837q96 0 168.5 71t72.5 168q0 77 -52.5 128.5t-131.5 51.5q-97 0 -168 -72t-71 -171q0 -76 52 -126t130 -50z" />
    <glyph glyph-name="guillemotright" unicode="&#xbb;" 
d="M199 944q-7 15 -1 25.5t23 10.5h162q25 0 36 -22l203 -374q12 -21 -4 -42l-311 -380q-15 -18 -36 -18h-163q-18 0 -24 10.5t6 25.5l312 382zM685 944q-7 15 -1 25.5t23 10.5h162q25 0 36 -22l203 -374q12 -21 -4 -42l-311 -380q-15 -18 -36 -18h-163q-18 0 -24 10.5
t6 25.5l312 382z" />
    <glyph glyph-name="onequarter" unicode="&#xbc;" 
d="M248 776q-31 0 -28 27l17 100q3 23 32 23h350l86 491q-126 -90 -324 -96q-33 0 -30 27l13 112q3 24 30 25q172 7 335 115h186q31 0 28 -27l-108 -647h273q31 0 28 -27l-17 -100q-3 -23 -32 -23h-839zM1181 689q32 0 28 -32l-14 -94q-3 -28 -32 -28h-1080q-32 0 -28 32
l14 94q3 28 32 28h1080zM1042 61q32 0 28 -28l-17 -103q-3 -24 -32 -24h-141l-42 -262q-3 -24 -32 -24h-156q-31 0 -28 28l42 258h-617q-31 0 -28 28l82 508q3 25 32 25h156q31 0 28 -28l-61 -378h433l61 381q3 25 32 25h156q31 0 28 -28l-61 -378h137z" />
    <glyph glyph-name="onehalf" unicode="&#xbd;" 
d="M248 776q-31 0 -28 27l17 100q3 23 32 23h350l86 491q-126 -90 -324 -96q-33 0 -30 27l13 112q3 24 30 25q172 7 335 115h186q31 0 28 -27l-108 -647h273q31 0 28 -27l-17 -100q-3 -23 -32 -23h-839zM1181 689q32 0 28 -32l-14 -94q-3 -28 -32 -28h-1080q-32 0 -28 32
l14 94q3 28 32 28h1080zM618 453q219 0 333 -74.5t92 -208.5q-10 -59 -54.5 -103t-108 -70.5t-138.5 -47t-149.5 -37t-136.5 -35t-104 -47t-49 -67.5h641q31 0 28 -27l-15 -92q-3 -24 -32 -24l-866 -2q-31 0 -28 27l14 83q12 73 60.5 128.5t117 87.5t149 56t159.5 40.5
t145 33.5t110 43.5t50 62.5q10 60 -42.5 87.5t-172.5 27.5q-263 0 -308 -142q-8 -23 -34 -20l-141 19q-29 5 -25 30q65 271 505 271z" />
    <glyph glyph-name="threequarters" unicode="&#xbe;" 
d="M976 1193q115 -22 171.5 -70t41.5 -138q-11 -64 -53.5 -109t-115 -71t-164.5 -37.5t-212 -11.5q-116 0 -199 11t-146.5 37.5t-92.5 75.5t-22 120q2 25 31 25l152 3q27 0 30 -24q4 -56 63.5 -74.5t191.5 -18.5q148 0 227 24t90 85q10 58 -64 81t-281 25q-34 0 -31 27l7 70
q3 23 32 23q200 2 283 29t92 83q9 53 -54 75.5t-187 22.5q-123 0 -197.5 -28t-99.5 -99q-9 -24 -36 -21l-148 21q-29 5 -25 28q34 138 162.5 195.5t348.5 57.5q229 0 347.5 -59t98.5 -179q-11 -69 -74 -114.5t-167 -64.5zM1181 689q32 0 28 -32l-14 -94q-3 -28 -32 -28
h-1080q-32 0 -28 32l14 94q3 28 32 28h1080zM926 61h137q32 0 28 -28l-17 -103q-3 -24 -32 -24h-141l-42 -262q-3 -24 -32 -24h-156q-31 0 -28 28l42 258h-617q-31 0 -28 28l82 508q3 25 32 25h156q31 0 28 -28l-61 -378h433l61 381q3 25 32 25h156q31 0 28 -28z" />
    <glyph glyph-name="questiondown" unicode="&#xbf;" 
d="M697 1066q67 0 114.5 -47t47.5 -114q0 -68 -47.5 -115.5t-114.5 -47.5t-114 47.5t-47 115.5q0 67 47 114t114 47zM751 634q32 0 26 -34q-17 -99 -51.5 -170.5t-76 -110t-88 -65t-91.5 -45t-83 -39.5t-65 -59t-35 -94q-13 -91 41 -144.5t177 -53.5q127 0 207.5 57
t101.5 169q4 25 40 21l137 -17q29 -3 23 -40q-26 -187 -158.5 -286t-354.5 -99q-227 0 -335.5 110t-79.5 305q11 78 40 134t67 87.5t82 55t89 45t84 49.5t70 77.5t45 118.5q5 28 32 28h156z" />
    <glyph glyph-name="Agrave" unicode="&#xc0;" 
d="M656 1534l-84 252q-10 34 24 34h129q26 0 34 -24l85 -252q10 -34 -24 -34h-130q-26 0 -34 24zM1099 32q3 -32 -28 -32h-166q-27 0 -32 28l-31 245h-510l-102 -249q-10 -24 -35 -24h-170q-17 0 -23.5 9.5t0.5 25.5l563 1342q9 23 34 23h282q28 0 32 -28zM410 466h407
l-89 703h-31z" />
    <glyph glyph-name="Aacute" unicode="&#xc1;" 
d="M697 1510q-18 0 -23.5 10.5t3.5 25.5l159 254q11 20 36 20h131q18 0 23.5 -10.5t-3.5 -25.5l-158 -254q-11 -20 -36 -20h-132zM1099 32q3 -32 -28 -32h-166q-27 0 -32 28l-31 245h-510l-102 -249q-10 -24 -35 -24h-170q-17 0 -23.5 9.5t0.5 25.5l563 1342q9 23 34 23h282
q28 0 32 -28zM410 466h407l-89 703h-31z" />
    <glyph glyph-name="Acircumflex" unicode="&#xc2;" 
d="M1141 1580q11 -15 5.5 -25.5t-23.5 -10.5h-164q-21 0 -36 18l-132 162l-183 -166q-14 -14 -38 -14h-165q-20 0 -25 10.5t10 25.5l267 261q15 15 38 15h220q24 0 36 -18zM913 1372l186 -1340q3 -32 -28 -32h-166q-27 0 -32 28l-31 245h-510l-102 -249q-10 -24 -35 -24
h-170q-17 0 -23.5 9.5t0.5 25.5l563 1342q9 23 34 23h282q28 0 32 -28zM410 466h407l-89 703h-31z" />
    <glyph glyph-name="Atilde" unicode="&#xc3;" 
d="M1116 1796q9 0 15 -5.5t5 -14.5q-5 -89 -60 -137t-138 -48q-42 0 -79 14.5t-64.5 35t-53 40.5t-54 34.5t-57.5 14.5q-68 0 -91 -58q-6 -17 -22 -17h-57q-22 0 -19 25q11 88 63.5 133.5t135.5 45.5q42 0 79.5 -14.5t64.5 -35t52.5 -40.5t54 -34.5t57.5 -14.5q65 0 90 59
q6 17 22 17h56zM913 1372l186 -1340q3 -32 -28 -32h-166q-27 0 -32 28l-31 245h-510l-102 -249q-10 -24 -35 -24h-170q-17 0 -23.5 9.5t0.5 25.5l563 1342q9 23 34 23h282q28 0 32 -28zM410 466h407l-89 703h-31z" />
    <glyph glyph-name="Adieresis" unicode="&#xc4;" 
d="M588 1611q-47 0 -80.5 34t-33.5 82q0 46 33.5 79.5t80.5 33.5t80.5 -33.5t33.5 -79.5q0 -48 -33.5 -82t-80.5 -34zM992 1611q-47 0 -80.5 34t-33.5 82q0 46 33.5 79.5t80.5 33.5t81 -33.5t34 -79.5q0 -49 -33.5 -82.5t-81.5 -33.5zM913 1372l186 -1340q3 -32 -28 -32
h-166q-27 0 -32 28l-31 245h-510l-102 -249q-10 -24 -35 -24h-170q-17 0 -23.5 9.5t0.5 25.5l563 1342q9 23 34 23h282q28 0 32 -28zM410 466h407l-89 703h-31z" />
    <glyph glyph-name="Aring" unicode="&#xc5;" 
d="M783 1511q-81 0 -136 55.5t-55 132.5q0 78 55 133.5t136 55.5q80 0 135 -55.5t55 -133.5q0 -77 -55 -132.5t-135 -55.5zM783 1766q-29 0 -48.5 -18.5t-19.5 -47.5t19.5 -47.5t48.5 -18.5t49 18.5t19 47.5t-20 47.5t-48 18.5zM1099 32q3 -32 -28 -32h-166q-27 0 -32 28
l-31 245h-510l-102 -249q-10 -24 -35 -24h-170q-17 0 -23.5 9.5t0.5 25.5l563 1342q9 23 34 23h282q28 0 32 -28zM410 466h407l-89 703h-31z" />
    <glyph glyph-name="AE" unicode="&#xc6;" 
d="M1283 1400q33 0 28 -32l-20 -141q-4 -28 -32 -28h-328l-51 -368h282q32 0 27 -32l-20 -142q-4 -28 -32 -28h-286l-60 -428h326q32 0 27 -32l-20 -141q-4 -28 -32 -28h-513q-33 0 -28 32l23 160h-299l-83 -170q-11 -22 -35 -22h-156q-17 0 -23.5 10t1.5 25l689 1343
q12 22 35 22h580zM370 385h231l93 661z" />
    <glyph glyph-name="Ccedilla" unicode="&#xc7;" 
d="M744 1420q238 0 344 -93.5t97 -311.5q0 -28 -30 -28h-146q-30 0 -32 41q-5 107 -57.5 141.5t-179.5 34.5q-63 0 -108.5 -10t-88.5 -38.5t-73 -78.5t-55 -131.5t-41 -197.5l-17 -118q-12 -83 -15 -147.5t1.5 -111.5t18.5 -80t32.5 -53.5t48 -32.5t60 -16t73.5 -4
q137 0 205.5 40.5t100.5 152.5q7 28 36 28h154q15 0 22 -12t3 -29q-49 -208 -166 -297.5t-327 -96.5l-45 -43q71 -6 121 -48.5t50 -111.5q0 -82 -50.5 -132.5t-123 -64.5t-156.5 0q-18 3 -18 22v77q0 10 6 15.5t16 4.5q80 -11 125.5 7.5t45.5 59.5q0 24 -23 41t-60.5 20
t-85.5 -16q-10 -4 -17 -0.5t-7 14.5v77q0 14 10 24l59 59q-106 12 -174.5 52.5t-109 119.5t-44.5 200t18 293l17 120q27 194 72 321t118 202t166.5 105.5t229.5 30.5z" />
    <glyph glyph-name="Egrave" unicode="&#xc8;" 
d="M844 1544q10 -34 -24 -34h-130q-26 0 -34 24l-84 252q-10 34 24 34h129q26 0 34 -24zM998 201q31 0 28 -32l-19 -141q-3 -28 -32 -28h-851q-31 0 -28 32l188 1340q3 28 32 28h849q31 0 28 -32l-20 -141q-3 -28 -32 -28h-657l-52 -368h601q31 0 28 -32l-21 -142
q-3 -28 -32 -28h-605l-60 -428h655z" />
    <glyph glyph-name="Eacute" unicode="&#xc9;" 
d="M697 1510q-18 0 -23.5 10.5t3.5 25.5l159 254q11 20 36 20h131q18 0 23.5 -10.5t-3.5 -25.5l-158 -254q-11 -20 -36 -20h-132zM998 201q31 0 28 -32l-19 -141q-3 -28 -32 -28h-851q-31 0 -28 32l188 1340q3 28 32 28h849q31 0 28 -32l-20 -141q-3 -28 -32 -28h-657
l-52 -368h601q31 0 28 -32l-21 -142q-3 -28 -32 -28h-605l-60 -428h655z" />
    <glyph glyph-name="Ecircumflex" unicode="&#xca;" 
d="M791 1724l-183 -166q-14 -14 -38 -14h-165q-20 0 -25 10.5t10 25.5l267 261q15 15 38 15h220q24 0 36 -18l190 -258q11 -15 5.5 -25.5t-23.5 -10.5h-164q-21 0 -36 18zM998 201q31 0 28 -32l-19 -141q-3 -28 -32 -28h-851q-31 0 -28 32l188 1340q3 28 32 28h849
q31 0 28 -32l-20 -141q-3 -28 -32 -28h-657l-52 -368h601q31 0 28 -32l-21 -142q-3 -28 -32 -28h-605l-60 -428h655z" />
    <glyph glyph-name="Edieresis" unicode="&#xcb;" 
d="M588 1611q-47 0 -80.5 34t-33.5 82q0 46 33.5 79.5t80.5 33.5t80.5 -33.5t33.5 -79.5q0 -48 -33.5 -82t-80.5 -34zM992 1611q-47 0 -80.5 34t-33.5 82q0 46 33.5 79.5t80.5 33.5t81 -33.5t34 -79.5q0 -49 -33.5 -82.5t-81.5 -33.5zM998 201q31 0 28 -32l-19 -141
q-3 -28 -32 -28h-851q-31 0 -28 32l188 1340q3 28 32 28h849q31 0 28 -32l-20 -141q-3 -28 -32 -28h-657l-52 -368h601q31 0 28 -32l-21 -142q-3 -28 -32 -28h-605l-60 -428h655z" />
    <glyph glyph-name="Igrave" unicode="&#xcc;" 
d="M844 1544q10 -34 -24 -34h-130q-26 0 -34 24l-84 252q-10 34 24 34h129q26 0 34 -24zM1197 1227q-3 -28 -32 -28h-338l-140 -998h334q34 0 28 -32l-20 -141q-3 -28 -32 -28h-898q-31 0 -28 32l20 141q3 28 32 28h340l140 998h-336q-31 0 -28 32l20 141q3 28 32 28h898
q34 0 28 -32z" />
    <glyph glyph-name="Iacute" unicode="&#xcd;" 
d="M697 1510q-18 0 -23.5 10.5t3.5 25.5l159 254q11 20 36 20h131q18 0 23.5 -10.5t-3.5 -25.5l-158 -254q-11 -20 -36 -20h-132zM1197 1227q-3 -28 -32 -28h-338l-140 -998h334q34 0 28 -32l-20 -141q-3 -28 -32 -28h-898q-31 0 -28 32l20 141q3 28 32 28h340l140 998h-336
q-31 0 -28 32l20 141q3 28 32 28h898q34 0 28 -32z" />
    <glyph glyph-name="Icircumflex" unicode="&#xce;" 
d="M791 1724l-183 -166q-14 -14 -38 -14h-165q-20 0 -25 10.5t10 25.5l267 261q15 15 38 15h220q24 0 36 -18l190 -258q11 -15 5.5 -25.5t-23.5 -10.5h-164q-21 0 -36 18zM1197 1227q-3 -28 -32 -28h-338l-140 -998h334q34 0 28 -32l-20 -141q-3 -28 -32 -28h-898
q-31 0 -28 32l20 141q3 28 32 28h340l140 998h-336q-31 0 -28 32l20 141q3 28 32 28h898q34 0 28 -32z" />
    <glyph glyph-name="Idieresis" unicode="&#xcf;" 
d="M588 1611q-47 0 -80.5 34t-33.5 82q0 46 33.5 79.5t80.5 33.5t80.5 -33.5t33.5 -79.5q0 -48 -33.5 -82t-80.5 -34zM992 1611q-47 0 -80.5 34t-33.5 82q0 46 33.5 79.5t80.5 33.5t81 -33.5t34 -79.5q0 -49 -33.5 -82.5t-81.5 -33.5zM1197 1227q-3 -28 -32 -28h-338
l-140 -998h334q34 0 28 -32l-20 -141q-3 -28 -32 -28h-898q-31 0 -28 32l20 141q3 28 32 28h340l140 998h-336q-31 0 -28 32l20 141q3 28 32 28h898q34 0 28 -32z" />
    <glyph glyph-name="Eth" unicode="&#xd0;" 
d="M664 1400q140 0 239 -34t157 -100.5t84 -155t26 -206.5q0 -212 -39.5 -376t-121.5 -283.5t-216 -182t-315 -62.5h-380q-31 0 -28 32l188 1340q3 28 32 28h374zM496 201q100 0 177.5 35t128.5 96.5t83.5 152.5t46.5 195.5t14 232.5q0 146 -66.5 216t-232.5 70h-188
l-59 -419h387q31 0 28 -32l-17 -111q-3 -28 -32 -28h-390l-58 -408h178z" />
    <glyph glyph-name="Ntilde" unicode="&#xd1;" 
d="M640 1859q42 0 79.5 -14.5t64.5 -35t52.5 -40.5t54 -34.5t57.5 -14.5q65 0 90 59q6 17 22 17h56q9 0 15 -5.5t5 -14.5q-5 -89 -60 -137t-138 -48q-42 0 -79 14.5t-64.5 35t-53 40.5t-54 34.5t-57.5 14.5q-68 0 -91 -58q-6 -17 -22 -17h-57q-22 0 -19 25q11 88 63.5 133.5
t135.5 45.5zM1013 1372q4 28 32 28h146q32 0 28 -32l-188 -1340q-4 -28 -32 -28h-199q-26 0 -34 24l-345 1036l-145 -1032q-4 -28 -32 -28h-146q-32 0 -28 32l188 1340q4 28 32 28h199q26 0 34 -24l344 -1034z" />
    <glyph glyph-name="Ograve" unicode="&#xd2;" 
d="M844 1544q10 -34 -24 -34h-130q-26 0 -34 24l-84 252q-10 34 24 34h129q26 0 34 -24zM736 1420q93 0 161.5 -13.5t122.5 -45.5t87 -82.5t49.5 -125.5t15 -174.5t-19.5 -229.5l-17 -119q-27 -195 -71.5 -322t-116.5 -202.5t-165.5 -105.5t-229.5 -30q-93 0 -161.5 13.5
t-122.5 45.5t-87 83t-49.5 126t-15 174.5t19.5 229.5l16 119q27 195 71.5 321.5t117 202t166 105.5t229.5 30zM725 1205q-65 0 -110 -10t-86.5 -37.5t-70 -78.5t-51.5 -132.5t-39 -198.5l-17 -118q-16 -118 -16.5 -197.5t11.5 -129t44 -75.5t70.5 -34.5t101.5 -8.5
q65 0 110 10t86.5 37.5t70 78.5t51.5 132.5t40 198.5l16 118q16 118 17 197.5t-11 129t-44 75.5t-71 34.5t-102 8.5z" />
    <glyph glyph-name="Oacute" unicode="&#xd3;" 
d="M697 1510q-18 0 -23.5 10.5t3.5 25.5l159 254q11 20 36 20h131q18 0 23.5 -10.5t-3.5 -25.5l-158 -254q-11 -20 -36 -20h-132zM736 1420q93 0 161.5 -13.5t122.5 -45.5t87 -82.5t49.5 -125.5t15 -174.5t-19.5 -229.5l-17 -119q-27 -195 -71.5 -322t-116.5 -202.5
t-165.5 -105.5t-229.5 -30q-93 0 -161.5 13.5t-122.5 45.5t-87 83t-49.5 126t-15 174.5t19.5 229.5l16 119q27 195 71.5 321.5t117 202t166 105.5t229.5 30zM725 1205q-65 0 -110 -10t-86.5 -37.5t-70 -78.5t-51.5 -132.5t-39 -198.5l-17 -118q-16 -118 -16.5 -197.5
t11.5 -129t44 -75.5t70.5 -34.5t101.5 -8.5q65 0 110 10t86.5 37.5t70 78.5t51.5 132.5t40 198.5l16 118q16 118 17 197.5t-11 129t-44 75.5t-71 34.5t-102 8.5z" />
    <glyph glyph-name="Ocircumflex" unicode="&#xd4;" 
d="M791 1724l-183 -166q-14 -14 -38 -14h-165q-20 0 -25 10.5t10 25.5l267 261q15 15 38 15h220q24 0 36 -18l190 -258q11 -15 5.5 -25.5t-23.5 -10.5h-164q-21 0 -36 18zM736 1420q93 0 161.5 -13.5t122.5 -45.5t87 -82.5t49.5 -125.5t15 -174.5t-19.5 -229.5l-17 -119
q-27 -195 -71.5 -322t-116.5 -202.5t-165.5 -105.5t-229.5 -30q-93 0 -161.5 13.5t-122.5 45.5t-87 83t-49.5 126t-15 174.5t19.5 229.5l16 119q27 195 71.5 321.5t117 202t166 105.5t229.5 30zM725 1205q-65 0 -110 -10t-86.5 -37.5t-70 -78.5t-51.5 -132.5t-39 -198.5
l-17 -118q-16 -118 -16.5 -197.5t11.5 -129t44 -75.5t70.5 -34.5t101.5 -8.5q65 0 110 10t86.5 37.5t70 78.5t51.5 132.5t40 198.5l16 118q16 118 17 197.5t-11 129t-44 75.5t-71 34.5t-102 8.5z" />
    <glyph glyph-name="Otilde" unicode="&#xd5;" 
d="M640 1859q42 0 79.5 -14.5t64.5 -35t52.5 -40.5t54 -34.5t57.5 -14.5q65 0 90 59q6 17 22 17h56q9 0 15 -5.5t5 -14.5q-5 -89 -60 -137t-138 -48q-42 0 -79 14.5t-64.5 35t-53 40.5t-54 34.5t-57.5 14.5q-68 0 -91 -58q-6 -17 -22 -17h-57q-22 0 -19 25q11 88 63.5 133.5
t135.5 45.5zM736 1420q93 0 161.5 -13.5t122.5 -45.5t87 -82.5t49.5 -125.5t15 -174.5t-19.5 -229.5l-17 -119q-27 -195 -71.5 -322t-116.5 -202.5t-165.5 -105.5t-229.5 -30q-93 0 -161.5 13.5t-122.5 45.5t-87 83t-49.5 126t-15 174.5t19.5 229.5l16 119
q27 195 71.5 321.5t117 202t166 105.5t229.5 30zM725 1205q-65 0 -110 -10t-86.5 -37.5t-70 -78.5t-51.5 -132.5t-39 -198.5l-17 -118q-16 -118 -16.5 -197.5t11.5 -129t44 -75.5t70.5 -34.5t101.5 -8.5q65 0 110 10t86.5 37.5t70 78.5t51.5 132.5t40 198.5l16 118
q16 118 17 197.5t-11 129t-44 75.5t-71 34.5t-102 8.5z" />
    <glyph glyph-name="Odieresis" unicode="&#xd6;" 
d="M588 1611q-47 0 -80.5 34t-33.5 82q0 46 33.5 79.5t80.5 33.5t80.5 -33.5t33.5 -79.5q0 -48 -33.5 -82t-80.5 -34zM992 1611q-47 0 -80.5 34t-33.5 82q0 46 33.5 79.5t80.5 33.5t81 -33.5t34 -79.5q0 -49 -33.5 -82.5t-81.5 -33.5zM736 1420q93 0 161.5 -13.5
t122.5 -45.5t87 -82.5t49.5 -125.5t15 -174.5t-19.5 -229.5l-17 -119q-27 -195 -71.5 -322t-116.5 -202.5t-165.5 -105.5t-229.5 -30q-93 0 -161.5 13.5t-122.5 45.5t-87 83t-49.5 126t-15 174.5t19.5 229.5l16 119q27 195 71.5 321.5t117 202t166 105.5t229.5 30zM725 1205
q-65 0 -110 -10t-86.5 -37.5t-70 -78.5t-51.5 -132.5t-39 -198.5l-17 -118q-16 -118 -16.5 -197.5t11.5 -129t44 -75.5t70.5 -34.5t101.5 -8.5q65 0 110 10t86.5 37.5t70 78.5t51.5 132.5t40 198.5l16 118q16 118 17 197.5t-11 129t-44 75.5t-71 34.5t-102 8.5z" />
    <glyph glyph-name="multiply" unicode="&#xd7;" 
d="M991 826q22 -26 3 -43l-250 -218l182 -211q19 -25 2 -43l-88 -76q-23 -17 -40 9l-182 211l-251 -220q-20 -17 -39 9l-67 75q-20 25 -2 44l250 218l-182 211q-21 23 -2 42l88 76q19 17 40 -8l182 -211l250 219q21 18 40 -8z" />
    <glyph glyph-name="Oslash" unicode="&#xd8;" 
d="M1048 1342q88 -68 113 -210t-9 -383l-17 -119q-27 -195 -71.5 -322t-116.5 -202.5t-165.5 -105.5t-229.5 -30q-68 0 -130 8l-26 -56q-9 -22 -34 -22h-150q-17 0 -23 10t1 26l51 111q-88 68 -113.5 211t8.5 384l16 119q27 195 71.5 321.5t117 202t166 105.5t229.5 30
q68 0 130 -8l26 56q9 22 34 22h151q17 0 23 -10t-1 -26zM351 630q-35 -244 0 -342l420 916q-15 1 -46 1q-65 0 -110 -10t-86.5 -37.5t-70 -78.5t-51.5 -132.5t-39 -198.5zM936 760q35 244 1 341l-420 -915q14 -1 45 -1q65 0 110 10t86.5 37.5t70 78.5t51.5 132.5t40 198.5z
" />
    <glyph glyph-name="Ugrave" unicode="&#xd9;" 
d="M844 1544q10 -34 -24 -34h-130q-26 0 -34 24l-84 252q-10 34 24 34h129q26 0 34 -24zM1192 1400q31 0 28 -32l-120 -854q-40 -280 -175 -412t-373 -132q-492 0 -413 557l119 845q3 28 32 28h164q31 0 28 -32l-120 -854q-25 -171 24 -251t176 -80q136 0 213.5 85.5
t101.5 258.5l119 845q3 28 32 28h164z" />
    <glyph glyph-name="Uacute" unicode="&#xda;" 
d="M697 1510q-18 0 -23.5 10.5t3.5 25.5l159 254q11 20 36 20h131q18 0 23.5 -10.5t-3.5 -25.5l-158 -254q-11 -20 -36 -20h-132zM1192 1400q31 0 28 -32l-120 -854q-40 -280 -175 -412t-373 -132q-492 0 -413 557l119 845q3 28 32 28h164q31 0 28 -32l-120 -854
q-25 -171 24 -251t176 -80q136 0 213.5 85.5t101.5 258.5l119 845q3 28 32 28h164z" />
    <glyph glyph-name="Ucircumflex" unicode="&#xdb;" 
d="M791 1724l-183 -166q-14 -14 -38 -14h-165q-20 0 -25 10.5t10 25.5l267 261q15 15 38 15h220q24 0 36 -18l190 -258q11 -15 5.5 -25.5t-23.5 -10.5h-164q-21 0 -36 18zM1192 1400q31 0 28 -32l-120 -854q-40 -280 -175 -412t-373 -132q-492 0 -413 557l119 845
q3 28 32 28h164q31 0 28 -32l-120 -854q-25 -171 24 -251t176 -80q136 0 213.5 85.5t101.5 258.5l119 845q3 28 32 28h164z" />
    <glyph glyph-name="Udieresis" unicode="&#xdc;" 
d="M588 1611q-47 0 -80.5 34t-33.5 82q0 46 33.5 79.5t80.5 33.5t80.5 -33.5t33.5 -79.5q0 -48 -33.5 -82t-80.5 -34zM992 1611q-47 0 -80.5 34t-33.5 82q0 46 33.5 79.5t80.5 33.5t81 -33.5t34 -79.5q0 -49 -33.5 -82.5t-81.5 -33.5zM1192 1400q31 0 28 -32l-120 -854
q-40 -280 -175 -412t-373 -132q-492 0 -413 557l119 845q3 28 32 28h164q31 0 28 -32l-120 -854q-25 -171 24 -251t176 -80q136 0 213.5 85.5t101.5 258.5l119 845q3 28 32 28h164z" />
    <glyph glyph-name="Yacute" unicode="&#xdd;" 
d="M698 1510q-18 0 -23.5 10.5t3.5 25.5l159 254q11 20 36 20h131q18 0 23.5 -10.5t-3.5 -25.5l-158 -254q-11 -20 -36 -20h-132zM1261 1400q18 0 23.5 -10t-4.5 -26l-544 -811l-74 -525q-3 -28 -32 -28h-164q-31 0 -28 32l75 527l-316 807q-6 16 0.5 25t23.5 9h171
q27 0 35 -24l223 -608l402 612q12 20 37 20h172z" />
    <glyph glyph-name="Thorn" unicode="&#xde;" 
d="M707 1147q235 0 346.5 -123.5t82.5 -335.5q-28 -203 -168.5 -319t-375.5 -116h-278l-32 -225q-3 -28 -32 -28h-164q-31 0 -28 32l188 1340q3 28 32 28h164q31 0 28 -32l-31 -221h268zM923 712q18 128 -48 181t-203 53h-261l-69 -492h251q295 0 330 258z" />
    <glyph glyph-name="germandbls" unicode="&#xdf;" 
d="M841 740q123 -21 196.5 -100t73.5 -215q0 -96 -29.5 -169.5t-81 -121.5t-129.5 -78.5t-168 -43t-202 -12.5h-106q-31 0 -28 32l15 113q3 28 32 28h102q188 0 289.5 59t101.5 202q0 111 -82 155t-249 44h-94q-31 0 -28 32l17 113q3 28 32 28h89q149 0 235.5 65t86.5 179
q0 83 -54 120t-180 37q-129 0 -191.5 -52.5t-76.5 -157.5l-136 -969q-3 -28 -32 -28h-156q-31 0 -28 32l137 978q27 192 155.5 291t348.5 99q202 0 311.5 -84t109.5 -247q0 -127 -75 -215.5t-206 -113.5z" />
    <glyph glyph-name="agrave" unicode="&#xe0;" 
d="M601 1114l-84 252q-10 34 24 34h129q26 0 34 -24l85 -252q10 -34 -24 -34h-130q-26 0 -34 24zM1154 948l-107 -734q-4 -34 8 -48t34 -12q15 2 23.5 -8.5t5.5 -29.5l-11 -70q-5 -27 -36 -43.5t-79 -16.5q-64 0 -94.5 42.5t-28.5 112.5h-15q-44 -73 -127.5 -120t-193.5 -47
q-189 0 -307 122.5t-118 334.5q0 163 69.5 294.5t187 204t257.5 72.5q107 0 186 -41.5t116 -109.5h16l34 104q8 25 34 25h118q33 0 28 -32zM572 173q94 0 167.5 52t111.5 134t38 176q0 132 -71.5 200t-181.5 68q-139 0 -229.5 -100t-90.5 -261q0 -128 70 -198.5t186 -70.5z
" />
    <glyph glyph-name="aacute" unicode="&#xe1;" 
d="M642 1090q-18 0 -23.5 10.5t3.5 25.5l159 254q11 20 36 20h131q18 0 23.5 -10.5t-3.5 -25.5l-158 -254q-11 -20 -36 -20h-132zM1154 948l-107 -734q-4 -34 8 -48t34 -12q15 2 23.5 -8.5t5.5 -29.5l-11 -70q-5 -27 -36 -43.5t-79 -16.5q-64 0 -94.5 42.5t-28.5 112.5h-15
q-44 -73 -127.5 -120t-193.5 -47q-189 0 -307 122.5t-118 334.5q0 163 69.5 294.5t187 204t257.5 72.5q107 0 186 -41.5t116 -109.5h16l34 104q8 25 34 25h118q33 0 28 -32zM572 173q94 0 167.5 52t111.5 134t38 176q0 132 -71.5 200t-181.5 68q-139 0 -229.5 -100
t-90.5 -261q0 -128 70 -198.5t186 -70.5z" />
    <glyph glyph-name="acircumflex" unicode="&#xe2;" 
d="M350 1124q-20 0 -25 10.5t10 25.5l267 261q15 15 38 15h220q24 0 36 -18l190 -258q10 -15 5 -25.5t-23 -10.5h-164q-21 0 -36 18l-132 162l-183 -166q-14 -14 -38 -14h-165zM1154 948l-107 -734q-4 -34 8 -48t34 -12q15 2 23.5 -8.5t5.5 -29.5l-11 -70q-5 -27 -36 -43.5
t-79 -16.5q-64 0 -94.5 42.5t-28.5 112.5h-15q-44 -73 -127.5 -120t-193.5 -47q-189 0 -307 122.5t-118 334.5q0 163 69.5 294.5t187 204t257.5 72.5q107 0 186 -41.5t116 -109.5h16l34 104q8 25 34 25h118q33 0 28 -32zM572 173q94 0 167.5 52t111.5 134t38 176
q0 132 -71.5 200t-181.5 68q-139 0 -229.5 -100t-90.5 -261q0 -128 70 -198.5t186 -70.5z" />
    <glyph glyph-name="atilde" unicode="&#xe3;" 
d="M405 1235q-22 0 -19 25q11 88 63.5 133.5t135.5 45.5q42 0 79.5 -14.5t64.5 -35t52.5 -40.5t54 -34.5t57.5 -14.5q65 0 90 59q6 17 22 17h56q9 0 15 -5.5t5 -14.5q-5 -89 -60 -137t-138 -48q-42 0 -79 14.5t-64.5 35t-53 40.5t-54 34.5t-57.5 14.5q-68 0 -91 -58
q-6 -17 -22 -17h-57zM1154 948l-107 -734q-4 -34 8 -48t34 -12q15 2 23.5 -8.5t5.5 -29.5l-11 -70q-5 -27 -36 -43.5t-79 -16.5q-64 0 -94.5 42.5t-28.5 112.5h-15q-44 -73 -127.5 -120t-193.5 -47q-189 0 -307 122.5t-118 334.5q0 163 69.5 294.5t187 204t257.5 72.5
q107 0 186 -41.5t116 -109.5h16l34 104q8 25 34 25h118q33 0 28 -32zM572 173q94 0 167.5 52t111.5 134t38 176q0 132 -71.5 200t-181.5 68q-139 0 -229.5 -100t-90.5 -261q0 -128 70 -198.5t186 -70.5z" />
    <glyph glyph-name="adieresis" unicode="&#xe4;" 
d="M533 1191q-47 0 -80.5 34t-33.5 82q0 46 33.5 79.5t80.5 33.5t80.5 -33.5t33.5 -79.5q0 -48 -33.5 -82t-80.5 -34zM937 1191q-47 0 -80.5 34t-33.5 82q0 46 33.5 79.5t80.5 33.5t81 -33.5t34 -79.5q0 -49 -34 -82.5t-81 -33.5zM1154 948l-107 -734q-4 -34 8 -48t34 -12
q15 2 23.5 -8.5t5.5 -29.5l-11 -70q-5 -27 -36 -43.5t-79 -16.5q-64 0 -94.5 42.5t-28.5 112.5h-15q-44 -73 -127.5 -120t-193.5 -47q-189 0 -307 122.5t-118 334.5q0 163 69.5 294.5t187 204t257.5 72.5q107 0 186 -41.5t116 -109.5h16l34 104q8 25 34 25h118q33 0 28 -32z
M572 173q94 0 167.5 52t111.5 134t38 176q0 132 -71.5 200t-181.5 68q-139 0 -229.5 -100t-90.5 -261q0 -128 70 -198.5t186 -70.5z" />
    <glyph glyph-name="aring" unicode="&#xe5;" 
d="M728 1091q-81 0 -136 55.5t-55 132.5q0 78 55 133.5t136 55.5q80 0 135 -55.5t55 -133.5q0 -77 -55 -132.5t-135 -55.5zM728 1346q-29 0 -48.5 -18.5t-19.5 -47.5t19.5 -47.5t48.5 -18.5t49 18.5t19 47.5t-20 47.5t-48 18.5zM1154 948l-107 -734q-4 -34 8 -48t34 -12
q15 2 23.5 -8.5t5.5 -29.5l-11 -70q-5 -27 -36 -43.5t-79 -16.5q-64 0 -94.5 42.5t-28.5 112.5h-15q-44 -73 -127.5 -120t-193.5 -47q-189 0 -307 122.5t-118 334.5q0 163 69.5 294.5t187 204t257.5 72.5q107 0 186 -41.5t116 -109.5h16l34 104q8 25 34 25h118q33 0 28 -32z
M572 173q94 0 167.5 52t111.5 134t38 176q0 132 -71.5 200t-181.5 68q-139 0 -229.5 -100t-90.5 -261q0 -128 70 -198.5t186 -70.5z" />
    <glyph glyph-name="ae" unicode="&#xe6;" 
d="M1093 402h-410l-5 -58q-8 -92 34.5 -144t131.5 -52q62 0 107 21.5t91 64.5l82 -117q-117 -143 -293 -143q-189 0 -260 151q-139 -151 -315 -151q-116 0 -181 67t-65 187q0 146 98 236.5t266 91.5l174 1q16 140 -5.5 203.5t-95.5 63.5q-130 0 -171 -137q-8 -25 -32 -25
h-102q-16 0 -24 12t-4 31q67 297 345 297q89 0 142 -29.5t82 -92.5q90 122 244 122q272 0 272 -342q0 -55 -3.5 -94.5t-13.5 -80t-32.5 -62t-56.5 -21.5zM922 824q-158 0 -215 -267h325q46 267 -110 267zM290 148q136 0 216 127l18 127h-157q-95 0 -139 -43t-44 -107
q0 -47 26.5 -75.5t79.5 -28.5z" />
    <glyph glyph-name="ccedilla" unicode="&#xe7;" 
d="M1100 761q12 -27 -14 -40l-128 -64q-25 -13 -40 13q-36 62 -98 97.5t-140 35.5q-141 0 -237 -101t-96 -258q0 -121 73.5 -196t188.5 -75q178 0 282 143q17 23 41 8l109 -68q27 -18 9 -42q-68 -101 -172 -164t-230 -74l-50 -48q71 -6 121 -48.5t50 -111.5
q0 -82 -50.5 -132.5t-123 -64.5t-156.5 0q-18 3 -18 22v77q0 10 6 15.5t16 4.5q80 -11 125.5 7.5t45.5 59.5q0 24 -23 41t-60.5 20t-85.5 -16q-11 -4 -17.5 -0.5t-6.5 14.5v77q0 14 10 24l67 67q-162 32 -260.5 157t-98.5 299q0 155 75.5 284.5t202 203.5t274.5 74
q138 0 245.5 -64.5t163.5 -176.5z" />
    <glyph glyph-name="egrave" unicode="&#xe8;" 
d="M589 1114l-84 252q-10 34 24 34h129q26 0 34 -24l85 -252q10 -34 -24 -34h-130q-26 0 -34 24zM774 402h-473q-2 -115 80 -182t227 -67q159 0 271 85q27 18 49 -6l58 -67q26 -28 0 -52q-151 -139 -405 -139q-222 0 -351.5 125.5t-129.5 321.5q0 116 45.5 223t122.5 185.5
t185.5 125.5t228.5 47q105 0 189.5 -30.5t136.5 -82t79 -115.5t27 -135q0 -121 -75 -179t-265 -58zM675 817q-123 0 -217.5 -70.5t-130.5 -188.5h381q124 0 170 16.5t45 74.5q-1 68 -66.5 118t-181.5 50z" />
    <glyph glyph-name="eacute" unicode="&#xe9;" 
d="M630 1090q-18 0 -23.5 10.5t3.5 25.5l159 254q11 20 36 20h131q18 0 23.5 -10.5t-3.5 -25.5l-158 -254q-11 -20 -36 -20h-132zM774 402h-473q-2 -115 80 -182t227 -67q159 0 271 85q27 18 49 -6l58 -67q26 -28 0 -52q-151 -139 -405 -139q-222 0 -351.5 125.5
t-129.5 321.5q0 116 45.5 223t122.5 185.5t185.5 125.5t228.5 47q105 0 189.5 -30.5t136.5 -82t79 -115.5t27 -135q0 -121 -75 -179t-265 -58zM675 817q-123 0 -217.5 -70.5t-130.5 -188.5h381q124 0 170 16.5t45 74.5q-1 68 -66.5 118t-181.5 50z" />
    <glyph glyph-name="ecircumflex" unicode="&#xea;" 
d="M338 1124q-20 0 -25 10.5t10 25.5l267 261q15 15 38 15h220q24 0 36 -18l190 -258q10 -15 5 -25.5t-23 -10.5h-164q-21 0 -36 18l-132 162l-183 -166q-14 -14 -38 -14h-165zM774 402h-473q-2 -115 80 -182t227 -67q159 0 271 85q27 18 49 -6l58 -67q26 -28 0 -52
q-151 -139 -405 -139q-222 0 -351.5 125.5t-129.5 321.5q0 116 45.5 223t122.5 185.5t185.5 125.5t228.5 47q105 0 189.5 -30.5t136.5 -82t79 -115.5t27 -135q0 -121 -75 -179t-265 -58zM675 817q-123 0 -217.5 -70.5t-130.5 -188.5h381q124 0 170 16.5t45 74.5
q-1 68 -66.5 118t-181.5 50z" />
    <glyph glyph-name="edieresis" unicode="&#xeb;" 
d="M521 1191q-47 0 -80.5 34t-33.5 82q0 46 33.5 79.5t80.5 33.5t80.5 -33.5t33.5 -79.5q0 -48 -33.5 -82t-80.5 -34zM925 1191q-47 0 -80.5 34t-33.5 82q0 46 33.5 79.5t80.5 33.5t81 -33.5t34 -79.5q0 -49 -34 -82.5t-81 -33.5zM774 402h-473q-2 -115 80 -182t227 -67
q159 0 271 85q27 18 49 -6l58 -67q26 -28 0 -52q-151 -139 -405 -139q-222 0 -351.5 125.5t-129.5 321.5q0 116 45.5 223t122.5 185.5t185.5 125.5t228.5 47q105 0 189.5 -30.5t136.5 -82t79 -115.5t27 -135q0 -121 -75 -179t-265 -58zM675 817q-123 0 -217.5 -70.5
t-130.5 -188.5h381q124 0 170 16.5t45 74.5q-1 68 -66.5 118t-181.5 50z" />
    <glyph glyph-name="igrave" unicode="&#xec;" 
d="M785 1124q10 -34 -24 -34h-130q-26 0 -34 24l-84 252q-10 34 24 34h129q26 0 34 -24zM1106 151q10 -21 -6 -40q-45 -49 -134.5 -90t-197.5 -41q-51 0 -95.5 8.5t-89 28t-76 51t-55 79t-27.5 111t7 146.5l63 395h-369q-15 0 -22.5 8.5t-5.5 23.5l17 121q4 28 32 28h557
q32 0 27 -32l-83 -537q-6 -52 -5 -90t13.5 -65t27.5 -44.5t37 -27.5t41.5 -13.5t41.5 -3.5q104 0 208 85q12 11 26.5 9.5t22.5 -17.5z" />
    <glyph glyph-name="iacute" unicode="&#xed;" 
d="M638 1090q-18 0 -23.5 10.5t3.5 25.5l159 254q11 20 36 20h131q18 0 23.5 -10.5t-3.5 -25.5l-158 -254q-11 -20 -36 -20h-132zM1106 151q10 -21 -6 -40q-45 -49 -134.5 -90t-197.5 -41q-51 0 -95.5 8.5t-89 28t-76 51t-55 79t-27.5 111t7 146.5l63 395h-369
q-15 0 -22.5 8.5t-5.5 23.5l17 121q4 28 32 28h557q32 0 27 -32l-83 -537q-6 -52 -5 -90t13.5 -65t27.5 -44.5t37 -27.5t41.5 -13.5t41.5 -3.5q104 0 208 85q12 11 26.5 9.5t22.5 -17.5z" />
    <glyph glyph-name="icircumflex" unicode="&#xee;" 
d="M732 1304l-183 -166q-14 -14 -38 -14h-165q-20 0 -25 10.5t10 25.5l267 261q15 15 38 15h220q24 0 36 -18l190 -258q10 -15 5 -25.5t-23 -10.5h-164q-21 0 -36 18zM1106 151q10 -21 -6 -40q-45 -49 -134.5 -90t-197.5 -41q-51 0 -95.5 8.5t-89 28t-76 51t-55 79
t-27.5 111t7 146.5l63 395h-369q-15 0 -22.5 8.5t-5.5 23.5l17 121q4 28 32 28h557q32 0 27 -32l-83 -537q-6 -52 -5 -90t13.5 -65t27.5 -44.5t37 -27.5t41.5 -13.5t41.5 -3.5q104 0 208 85q12 11 26.5 9.5t22.5 -17.5z" />
    <glyph glyph-name="idieresis" unicode="&#xef;" 
d="M529 1191q-47 0 -80.5 34t-33.5 82q0 46 33.5 79.5t80.5 33.5t80.5 -33.5t33.5 -79.5q0 -48 -33.5 -82t-80.5 -34zM933 1191q-47 0 -80.5 34t-33.5 82q0 46 33.5 79.5t80.5 33.5t81 -33.5t34 -79.5q0 -49 -34 -82.5t-81 -33.5zM1106 151q10 -21 -6 -40
q-45 -49 -134.5 -90t-197.5 -41q-51 0 -95.5 8.5t-89 28t-76 51t-55 79t-27.5 111t7 146.5l63 395h-369q-15 0 -22.5 8.5t-5.5 23.5l17 121q4 28 32 28h557q32 0 27 -32l-83 -537q-6 -52 -5 -90t13.5 -65t27.5 -44.5t37 -27.5t41.5 -13.5t41.5 -3.5q104 0 208 85
q12 11 26.5 9.5t22.5 -17.5z" />
    <glyph glyph-name="eth" unicode="&#xf0;" 
d="M1242 1282q32 3 32 -28v-98q0 -29 -28 -32l-80 -10l-130 -900q-5 -34 7 -48t35 -12q15 2 23.5 -8.5t5.5 -29.5l-11 -70q-5 -27 -36 -43.5t-79 -16.5q-64 0 -94 42t-28 113h-20q-37 -75 -117.5 -121t-186.5 -46q-191 0 -310 121.5t-119 329.5q0 164 71.5 297t192 206.5
t263.5 73.5q100 0 173.5 -40t106.5 -111h15l1 114l17 120l-115 -15q-32 -3 -32 28v98q0 29 28 32l143 19l18 125q3 28 32 28h155q31 0 28 -32l-13 -93zM573 173q90 0 161 54t107.5 137t36.5 177q0 129 -66.5 195.5t-173.5 66.5q-139 0 -231.5 -101.5t-92.5 -261.5
q0 -126 72 -196.5t187 -70.5z" />
    <glyph glyph-name="ntilde" unicode="&#xf1;" 
d="M400 1235q-22 0 -19 25q11 88 63.5 133.5t135.5 45.5q42 0 79.5 -14.5t64.5 -35t52.5 -40.5t54 -34.5t57.5 -14.5q65 0 90 59q6 17 22 17h56q9 0 15 -5.5t5 -14.5q-5 -89 -60 -137t-138 -48q-42 0 -79 14.5t-64.5 35t-53 40.5t-54 34.5t-57.5 14.5q-68 0 -91 -58
q-6 -17 -22 -17h-57zM1078 154q15 2 23.5 -8.5t5.5 -29.5l-11 -70q-5 -27 -36 -43.5t-79 -16.5q-91 0 -133.5 53t-31.5 132l56 400q17 119 -36 175.5t-148 56.5q-113 0 -190.5 -63.5t-102.5 -136.5l-82 -575q-3 -28 -32 -28h-154q-34 0 -28 32l131 920q3 28 32 28h144
q13 0 22 -11t7 -25l-9 -120h19q43 78 128.5 128t197.5 50q168 0 260 -109t62 -302l-57 -377q-5 -34 7 -48t35 -12zM387 564l4 28q-4 -13 -4 -28z" />
    <glyph glyph-name="ograve" unicode="&#xf2;" 
d="M784 1124q10 -34 -24 -34h-130q-26 0 -34 24l-84 252q-10 34 24 34h129q26 0 34 -24zM568 -26q-201 0 -330 132.5t-129 333.5q0 155 75.5 284.5t202 203.5t274.5 74q201 0 330.5 -131.5t129.5 -331.5q0 -154 -74 -284t-201 -205.5t-278 -75.5zM579 173q140 0 236.5 99.5
t96.5 259.5q0 121 -73.5 196t-188.5 75q-141 0 -237 -101t-96 -258q0 -121 73.5 -196t188.5 -75z" />
    <glyph glyph-name="oacute" unicode="&#xf3;" 
d="M637 1090q-18 0 -23.5 10.5t3.5 25.5l159 254q11 20 36 20h131q18 0 23.5 -10.5t-3.5 -25.5l-158 -254q-11 -20 -36 -20h-132zM568 -26q-201 0 -330 132.5t-129 333.5q0 155 75.5 284.5t202 203.5t274.5 74q201 0 330.5 -131.5t129.5 -331.5q0 -154 -74 -284t-201 -205.5
t-278 -75.5zM579 173q140 0 236.5 99.5t96.5 259.5q0 121 -73.5 196t-188.5 75q-141 0 -237 -101t-96 -258q0 -121 73.5 -196t188.5 -75z" />
    <glyph glyph-name="ocircumflex" unicode="&#xf4;" 
d="M731 1304l-183 -166q-14 -14 -38 -14h-165q-20 0 -25 10.5t10 25.5l267 261q15 15 38 15h220q24 0 36 -18l190 -258q11 -15 5.5 -25.5t-23.5 -10.5h-164q-21 0 -36 18zM568 -26q-201 0 -330 132.5t-129 333.5q0 155 75.5 284.5t202 203.5t274.5 74q201 0 330.5 -131.5
t129.5 -331.5q0 -154 -74 -284t-201 -205.5t-278 -75.5zM579 173q140 0 236.5 99.5t96.5 259.5q0 121 -73.5 196t-188.5 75q-141 0 -237 -101t-96 -258q0 -121 73.5 -196t188.5 -75z" />
    <glyph glyph-name="otilde" unicode="&#xf5;" 
d="M580 1439q42 0 79.5 -14.5t64.5 -35t52.5 -40.5t54 -34.5t57.5 -14.5q65 0 90 59q6 17 22 17h56q9 0 15 -5.5t5 -14.5q-5 -89 -60 -137t-138 -48q-42 0 -79 14.5t-64.5 35t-53 40.5t-54 34.5t-57.5 14.5q-68 0 -91 -58q-6 -17 -22 -17h-57q-22 0 -19 25q11 88 63.5 133.5
t135.5 45.5zM568 -26q-201 0 -330 132.5t-129 333.5q0 155 75.5 284.5t202 203.5t274.5 74q201 0 330.5 -131.5t129.5 -331.5q0 -154 -74 -284t-201 -205.5t-278 -75.5zM579 173q140 0 236.5 99.5t96.5 259.5q0 121 -73.5 196t-188.5 75q-141 0 -237 -101t-96 -258
q0 -121 73.5 -196t188.5 -75z" />
    <glyph glyph-name="odieresis" unicode="&#xf6;" 
d="M528 1191q-47 0 -80.5 34t-33.5 82q0 46 33.5 79.5t80.5 33.5t80.5 -33.5t33.5 -79.5q0 -48 -33.5 -82t-80.5 -34zM932 1191q-47 0 -80.5 34t-33.5 82q0 46 33.5 79.5t80.5 33.5t81 -33.5t34 -79.5q0 -49 -33.5 -82.5t-81.5 -33.5zM568 -26q-201 0 -330 132.5t-129 333.5
q0 155 75.5 284.5t202 203.5t274.5 74q201 0 330.5 -131.5t129.5 -331.5q0 -154 -74 -284t-201 -205.5t-278 -75.5zM579 173q140 0 236.5 99.5t96.5 259.5q0 121 -73.5 196t-188.5 75q-141 0 -237 -101t-96 -258q0 -121 73.5 -196t188.5 -75z" />
    <glyph glyph-name="divide" unicode="&#xf7;" 
d="M667 736q-67 0 -114 47t-47 115t47 115t114 47t114 -47t47 -115t-47 -115t-114 -47zM1016 653q14 0 22 -8.5t8 -21.5v-108q0 -13 -8 -21.5t-22 -8.5h-779q-13 0 -21.5 8.5t-8.5 21.5v108q0 13 8.5 21.5t21.5 8.5h779zM574 78q-67 0 -114 47t-47 115q0 67 47 114.5
t114 47.5t114.5 -47.5t47.5 -114.5q0 -68 -47 -115t-115 -47z" />
    <glyph glyph-name="oslash" unicode="&#xf8;" 
d="M909 936q99 -61 155.5 -165t56.5 -232q0 -154 -74 -284t-201 -205.5t-278 -75.5q-44 0 -89 8l-45 -100q-9 -22 -34 -22h-122q-17 0 -23 10t1 26l65 144q-99 61 -155.5 166t-56.5 234q0 155 75.5 284.5t202 203.5t274.5 74q44 0 90 -8l45 100q9 22 34 22h122q17 0 23 -10
t-1 -26zM317 444q0 -135 91 -212l257 571h-15q-141 0 -237 -101t-96 -258zM579 173q140 0 236.5 99.5t96.5 259.5q0 135 -90 211l-257 -570h14z" />
    <glyph glyph-name="ugrave" unicode="&#xf9;" 
d="M562 1114l-84 252q-10 34 24 34h129q26 0 34 -24l85 -252q10 -34 -24 -34h-130q-26 0 -34 24zM1118 948l-106 -734q-5 -34 7 -48t35 -12q15 2 23.5 -8.5t5.5 -29.5l-12 -70q-5 -27 -35.5 -43.5t-79.5 -16.5q-89 0 -122 51.5t-21 133.5h-16q-39 -83 -126.5 -136.5
t-204.5 -53.5q-162 0 -253 111t-63 305l79 555q3 28 32 28h155q33 0 28 -32l-76 -531q-16 -119 35 -177t140 -58q97 0 166 57t112 141l82 575q3 25 34 25h153q33 0 28 -32z" />
    <glyph glyph-name="uacute" unicode="&#xfa;" 
d="M603 1090q-18 0 -23.5 10.5t3.5 25.5l159 254q11 20 36 20h131q18 0 23.5 -10.5t-3.5 -25.5l-158 -254q-11 -20 -36 -20h-132zM1118 948l-106 -734q-5 -34 7 -48t35 -12q15 2 23.5 -8.5t5.5 -29.5l-12 -70q-5 -27 -35.5 -43.5t-79.5 -16.5q-89 0 -122 51.5t-21 133.5h-16
q-39 -83 -126.5 -136.5t-204.5 -53.5q-162 0 -253 111t-63 305l79 555q3 28 32 28h155q33 0 28 -32l-76 -531q-16 -119 35 -177t140 -58q97 0 166 57t112 141l82 575q3 25 34 25h153q33 0 28 -32z" />
    <glyph glyph-name="ucircumflex" unicode="&#xfb;" 
d="M311 1124q-20 0 -25 10.5t10 25.5l267 261q15 15 38 15h220q24 0 36 -18l190 -258q11 -15 5.5 -25.5t-23.5 -10.5h-164q-21 0 -36 18l-132 162l-183 -166q-14 -14 -38 -14h-165zM1118 948l-106 -734q-5 -34 7 -48t35 -12q15 2 23.5 -8.5t5.5 -29.5l-12 -70
q-5 -27 -35.5 -43.5t-79.5 -16.5q-89 0 -122 51.5t-21 133.5h-16q-39 -83 -126.5 -136.5t-204.5 -53.5q-162 0 -253 111t-63 305l79 555q3 28 32 28h155q33 0 28 -32l-76 -531q-16 -119 35 -177t140 -58q97 0 166 57t112 141l82 575q3 25 34 25h153q33 0 28 -32z" />
    <glyph glyph-name="udieresis" unicode="&#xfc;" 
d="M494 1191q-47 0 -80.5 34t-33.5 82q0 46 33.5 79.5t80.5 33.5t80.5 -33.5t33.5 -79.5q0 -48 -33.5 -82t-80.5 -34zM898 1191q-47 0 -80.5 34t-33.5 82q0 46 33.5 79.5t80.5 33.5t81 -33.5t34 -79.5q0 -49 -33.5 -82.5t-81.5 -33.5zM1118 948l-106 -734q-5 -34 7 -48
t35 -12q15 2 23.5 -8.5t5.5 -29.5l-12 -70q-5 -27 -35.5 -43.5t-79.5 -16.5q-89 0 -122 51.5t-21 133.5h-16q-39 -83 -126.5 -136.5t-204.5 -53.5q-162 0 -253 111t-63 305l79 555q3 28 32 28h155q33 0 28 -32l-76 -531q-16 -119 35 -177t140 -58q97 0 166 57t112 141
l82 575q3 25 34 25h153q33 0 28 -32z" />
    <glyph glyph-name="yacute" unicode="&#xfd;" 
d="M637 1090q-18 0 -23.5 10.5t3.5 25.5l159 254q11 20 36 20h131q18 0 23.5 -10.5t-3.5 -25.5l-158 -254q-11 -20 -36 -20h-132zM1112 980q33 0 28 -32l-127 -868q-17 -116 -58.5 -203t-93 -137t-120.5 -80.5t-130.5 -40t-133.5 -9.5q-188 0 -301 71.5t-115 217.5
q0 30 30 30h144q23 0 32 -27q17 -62 73.5 -86.5t148.5 -24.5q131 0 209.5 65.5t100.5 223.5l18 125h-3q-42 -82 -125.5 -130.5t-202.5 -48.5q-169 0 -258 101t-60 300l77 525q4 28 32 28h154q33 0 28 -32l-71 -501q-9 -65 0.5 -110t36.5 -68t58.5 -32.5t73.5 -9.5
q106 0 178 57.5t114 140.5l76 530q3 25 34 25h153zM887 533q1 1 1 4z" />
    <glyph glyph-name="thorn" unicode="&#xfe;" 
d="M791 1001q175 0 275.5 -117.5t100.5 -305.5q0 -120 -37.5 -229.5t-103.5 -192.5t-164 -132t-212 -49q-208 0 -315 151l-14 -98q0 -4 -2 -8l-52 -372q-4 -28 -32 -28h-154q-32 0 -28 32l53 375v2q1 2 1 3l48 335l83 585q0 2 1 4l59 416q3 28 32 28h155q31 0 28 -32
l-76 -527h17q120 160 337 160zM621 171q103 0 182 54.5t118.5 142t39.5 191.5q0 116 -60.5 181t-169.5 65q-103 0 -183 -55t-120.5 -141t-40.5 -186q0 -117 62.5 -184.5t171.5 -67.5z" />
    <glyph glyph-name="ydieresis" unicode="&#xff;" 
d="M528 1191q-47 0 -80.5 34t-33.5 82q0 46 33.5 79.5t80.5 33.5t80.5 -33.5t33.5 -79.5q0 -48 -33.5 -82t-80.5 -34zM932 1191q-47 0 -80.5 34t-33.5 82q0 46 33.5 79.5t80.5 33.5t81 -33.5t34 -79.5q0 -49 -33.5 -82.5t-81.5 -33.5zM1112 980q33 0 28 -32l-127 -868
q-17 -116 -58.5 -203t-93 -137t-120.5 -80.5t-130.5 -40t-133.5 -9.5q-188 0 -301 71.5t-115 217.5q0 30 30 30h144q23 0 32 -27q17 -62 73.5 -86.5t148.5 -24.5q131 0 209.5 65.5t100.5 223.5l18 125h-3q-42 -82 -125.5 -130.5t-202.5 -48.5q-169 0 -258 101t-60 300
l77 525q4 28 32 28h154q33 0 28 -32l-71 -501q-9 -65 0.5 -110t36.5 -68t58.5 -32.5t73.5 -9.5q106 0 178 57.5t114 140.5l76 530q3 25 34 25h153zM887 533q1 1 1 4z" />
    <glyph glyph-name="Amacron" unicode="&#x100;" 
d="M518 1645q-31 0 -28 32l17 111q3 28 32 28h522q31 0 28 -32l-17 -111q-3 -28 -32 -28h-522zM1099 32q3 -32 -28 -32h-166q-27 0 -32 28l-31 245h-510l-102 -249q-10 -24 -35 -24h-170q-17 0 -23.5 9.5t0.5 25.5l563 1342q9 23 34 23h282q28 0 32 -28zM410 466h407
l-89 703h-31z" />
    <glyph glyph-name="amacron" unicode="&#x101;" 
d="M463 1225q-31 0 -28 32l17 111q3 28 32 28h522q31 0 28 -32l-17 -111q-3 -28 -32 -28h-522zM1154 948l-107 -734q-4 -34 8 -48t34 -12q15 2 23.5 -8.5t5.5 -29.5l-11 -70q-5 -27 -36 -43.5t-79 -16.5q-64 0 -94.5 42.5t-28.5 112.5h-15q-44 -73 -127.5 -120t-193.5 -47
q-189 0 -307 122.5t-118 334.5q0 163 69.5 294.5t187 204t257.5 72.5q107 0 186 -41.5t116 -109.5h16l34 104q8 25 34 25h118q33 0 28 -32zM572 173q94 0 167.5 52t111.5 134t38 176q0 132 -71.5 200t-181.5 68q-139 0 -229.5 -100t-90.5 -261q0 -128 70 -198.5t186 -70.5z
" />
    <glyph glyph-name="Abreve" unicode="&#x102;" 
d="M1082 1832q16 0 22.5 -12t2.5 -31q-28 -114 -117 -186.5t-219 -72.5q-137 0 -212.5 78.5t-68.5 192.5q3 31 29 31h86q27 0 30 -37q5 -54 41 -86t101 -32q69 0 117 38t67 94q9 23 35 23h86zM913 1372l186 -1340q3 -32 -28 -32h-166q-27 0 -32 28l-31 245h-510l-102 -249
q-10 -24 -35 -24h-170q-17 0 -23.5 9.5t0.5 25.5l563 1342q9 23 34 23h282q28 0 32 -28zM410 466h407l-89 703h-31z" />
    <glyph glyph-name="abreve" unicode="&#x103;" 
d="M716 1110q-137 0 -212.5 78.5t-68.5 192.5q3 31 29 31h86q27 0 30 -37q5 -54 41 -86t101 -32q69 0 117 38t67 94q9 23 35 23h86q16 0 22.5 -12t2.5 -31q-28 -114 -117 -186.5t-219 -72.5zM1154 948l-107 -734q-4 -34 8 -48t34 -12q15 2 23.5 -8.5t5.5 -29.5l-11 -70
q-5 -27 -36 -43.5t-79 -16.5q-64 0 -94.5 42.5t-28.5 112.5h-15q-44 -73 -127.5 -120t-193.5 -47q-189 0 -307 122.5t-118 334.5q0 163 69.5 294.5t187 204t257.5 72.5q107 0 186 -41.5t116 -109.5h16l34 104q8 25 34 25h118q33 0 28 -32zM572 173q94 0 167.5 52t111.5 134
t38 176q0 132 -71.5 200t-181.5 68q-139 0 -229.5 -100t-90.5 -261q0 -128 70 -198.5t186 -70.5z" />
    <glyph glyph-name="Aogonek" unicode="&#x104;" 
d="M1099 32q3 -32 -28 -32h-55q-92 -7 -147 -56.5t-55 -109.5q0 -54 38.5 -79.5t111.5 -9.5v-141q-41 -18 -96 -18.5t-108.5 16.5t-90.5 66t-37 122q0 98 68 167t168 107l-26 209h-510l-102 -249q-10 -24 -35 -24h-170q-17 0 -23.5 9.5t0.5 25.5l563 1342q9 23 34 23h282
q28 0 32 -28zM410 466h407l-89 703h-31z" />
    <glyph glyph-name="aogonek" unicode="&#x105;" 
d="M1154 948l-107 -734q-4 -34 8 -48t34 -12q15 2 23.5 -8.5t5.5 -29.5l-11 -70q-5 -26 -33.5 -42.5t-74.5 -17.5q-88 -17 -135.5 -61t-47.5 -99q0 -54 38.5 -79.5t111.5 -9.5v-141q-41 -18 -96 -18.5t-108 16.5t-90 66t-37 122q0 100 70.5 167t178.5 104q-17 38 -15 88h-15
q-44 -73 -127.5 -120t-193.5 -47q-189 0 -307 122.5t-118 334.5q0 163 69.5 294.5t187 204t257.5 72.5q107 0 186 -41.5t116 -109.5h16l34 104q8 25 34 25h118q33 0 28 -32zM572 173q94 0 167.5 52t111.5 134t38 176q0 132 -71.5 200t-181.5 68q-139 0 -229.5 -100
t-90.5 -261q0 -128 70 -198.5t186 -70.5z" />
    <glyph glyph-name="Cacute" unicode="&#x106;" 
d="M697 1510q-18 0 -23.5 10.5t3.5 25.5l159 254q11 20 36 20h131q18 0 23.5 -10.5t-3.5 -25.5l-158 -254q-11 -20 -36 -20h-132zM576 185q137 0 205.5 40.5t100.5 152.5q7 28 36 28h154q15 0 22 -12t3 -29q-51 -218 -177.5 -306.5t-359.5 -88.5q-92 0 -161 14t-123 45.5
t-87.5 82.5t-51 126t-16 174.5t19.5 228.5l17 120q27 194 72 321t118 202t166.5 105.5t229.5 30.5q238 0 344 -93.5t97 -311.5q0 -28 -30 -28h-146q-30 0 -32 41q-5 107 -57.5 141.5t-179.5 34.5q-63 0 -108.5 -10t-88.5 -38.5t-73 -78.5t-55 -131.5t-41 -197.5l-17 -118
q-12 -83 -15 -147.5t1.5 -111.5t18.5 -80t32.5 -53.5t48 -32.5t60 -16t73.5 -4z" />
    <glyph glyph-name="cacute" unicode="&#x107;" 
d="M667 1090q-18 0 -23.5 10.5t3.5 25.5l159 254q11 20 36 20h131q18 0 23.5 -10.5t-3.5 -25.5l-158 -254q-11 -20 -36 -20h-132zM1041 256q27 -18 9 -42q-75 -112 -193 -176t-259 -64q-201 0 -330 132.5t-129 333.5q0 155 75.5 284.5t202 203.5t274.5 74q138 0 245.5 -64.5
t163.5 -176.5q12 -27 -14 -40l-128 -64q-25 -13 -40 13q-36 62 -98 97.5t-140 35.5q-141 0 -237 -101t-96 -258q0 -121 73.5 -196t188.5 -75q178 0 282 143q17 23 41 8z" />
    <glyph glyph-name="Cdotaccent" unicode="&#x10a;" 
d="M789 1601q-47 0 -81 33.5t-34 82.5q0 46 34 79.5t81 33.5t80.5 -33.5t33.5 -79.5q0 -48 -33.5 -82t-80.5 -34zM576 185q137 0 205.5 40.5t100.5 152.5q7 28 36 28h154q15 0 22 -12t3 -29q-51 -218 -177.5 -306.5t-359.5 -88.5q-92 0 -161 14t-123 45.5t-87.5 82.5
t-51 126t-16 174.5t19.5 228.5l17 120q27 194 72 321t118 202t166.5 105.5t229.5 30.5q238 0 344 -93.5t97 -311.5q0 -28 -30 -28h-146q-30 0 -32 41q-5 107 -57.5 141.5t-179.5 34.5q-63 0 -108.5 -10t-88.5 -38.5t-73 -78.5t-55 -131.5t-41 -197.5l-17 -118
q-12 -83 -15 -147.5t1.5 -111.5t18.5 -80t32.5 -53.5t48 -32.5t60 -16t73.5 -4z" />
    <glyph glyph-name="cdotaccent" unicode="&#x10b;" 
d="M749 1181q-47 0 -81 33.5t-34 82.5q0 46 34 79.5t81 33.5t80.5 -33.5t33.5 -79.5q0 -48 -33.5 -82t-80.5 -34zM1041 256q27 -18 9 -42q-75 -112 -193 -176t-259 -64q-201 0 -330 132.5t-129 333.5q0 155 75.5 284.5t202 203.5t274.5 74q138 0 245.5 -64.5t163.5 -176.5
q12 -27 -14 -40l-128 -64q-25 -13 -40 13q-36 62 -98 97.5t-140 35.5q-141 0 -237 -101t-96 -258q0 -121 73.5 -196t188.5 -75q178 0 282 143q17 23 41 8z" />
    <glyph glyph-name="Ccaron" unicode="&#x10c;" 
d="M778 1677l183 165q14 14 38 14h163q20 0 25 -11t-9 -25l-265 -261q-15 -15 -38 -15h-220q-24 0 -36 18l-193 258q-11 15 -5 25.5t24 10.5h165q21 0 36 -18zM576 185q137 0 205.5 40.5t100.5 152.5q7 28 36 28h154q15 0 22 -12t3 -29q-51 -218 -177.5 -306.5t-359.5 -88.5
q-92 0 -161 14t-123 45.5t-87.5 82.5t-51 126t-16 174.5t19.5 228.5l17 120q27 194 72 321t118 202t166.5 105.5t229.5 30.5q238 0 344 -93.5t97 -311.5q0 -28 -30 -28h-146q-30 0 -32 41q-5 107 -57.5 141.5t-179.5 34.5q-63 0 -108.5 -10t-88.5 -38.5t-73 -78.5
t-55 -131.5t-41 -197.5l-17 -118q-12 -83 -15 -147.5t1.5 -111.5t18.5 -80t32.5 -53.5t48 -32.5t60 -16t73.5 -4z" />
    <glyph glyph-name="ccaron" unicode="&#x10d;" 
d="M740 1257l183 165q14 14 38 14h163q20 0 25 -11t-9 -25l-265 -261q-15 -15 -38 -15h-220q-24 0 -36 18l-193 258q-11 15 -5 25.5t24 10.5h165q21 0 36 -18zM1041 256q27 -18 9 -42q-75 -112 -193 -176t-259 -64q-201 0 -330 132.5t-129 333.5q0 155 75.5 284.5t202 203.5
t274.5 74q138 0 245.5 -64.5t163.5 -176.5q12 -27 -14 -40l-128 -64q-25 -13 -40 13q-36 62 -98 97.5t-140 35.5q-141 0 -237 -101t-96 -258q0 -121 73.5 -196t188.5 -75q178 0 282 143q17 23 41 8z" />
    <glyph glyph-name="Dcaron" unicode="&#x10e;" 
d="M778 1677l183 165q14 14 38 14h163q20 0 25 -11t-9 -25l-265 -261q-15 -15 -38 -15h-220q-24 0 -36 18l-193 258q-11 15 -5 25.5t24 10.5h165q21 0 36 -18zM664 1400q140 0 239 -34t157 -100.5t84 -155t26 -206.5q0 -212 -39.5 -376t-121.5 -283.5t-216 -182t-315 -62.5
h-380q-31 0 -28 32l188 1340q3 28 32 28h374zM496 201q100 0 177.5 35t128.5 96.5t83.5 152.5t46.5 195.5t14 232.5q0 146 -66.5 216t-232.5 70h-188l-141 -998h178z" />
    <glyph glyph-name="dcaron" unicode="&#x10f;" 
d="M1696 1614q18 0 23.5 -10.5t-3.5 -25.5l-158 -254q-11 -20 -36 -20h-132q-18 0 -23.5 10.5t3.5 25.5l159 254q11 20 36 20h131zM1175 1400q31 0 28 -32l-167 -1154q-5 -34 7 -48t35 -12q15 2 23.5 -8.5t5.5 -29.5l-11 -70q-5 -27 -36 -43.5t-79 -16.5q-64 0 -94 42
t-28 113h-20q-37 -75 -117.5 -121t-186.5 -46q-191 0 -310 121.5t-119 329.5q0 164 71.5 297t192 206.5t263.5 73.5q100 0 173.5 -40t106.5 -111h15l1 114l59 407q3 28 32 28h155zM573 173q90 0 161 54t107.5 137t36.5 177q0 129 -66.5 195.5t-173.5 66.5
q-139 0 -231.5 -101.5t-92.5 -261.5q0 -126 72 -196.5t187 -70.5z" />
    <glyph glyph-name="Dcroat" unicode="&#x110;" 
d="M664 1400q140 0 239 -34t157 -100.5t84 -155t26 -206.5q0 -212 -39.5 -376t-121.5 -283.5t-216 -182t-315 -62.5h-380q-31 0 -28 32l188 1340q3 28 32 28h374zM496 201q100 0 177.5 35t128.5 96.5t83.5 152.5t46.5 195.5t14 232.5q0 146 -66.5 216t-232.5 70h-188
l-59 -419h387q31 0 28 -32l-17 -111q-3 -28 -32 -28h-390l-58 -408h178z" />
    <glyph glyph-name="dcroat" unicode="&#x111;" 
d="M1279 1283q31 0 28 -32l-17 -111q-3 -28 -32 -28h-92l-130 -898q-5 -34 7 -48t35 -12q15 2 23.5 -8.5t5.5 -29.5l-11 -70q-5 -27 -36 -43.5t-79 -16.5q-64 0 -94 42t-28 113h-20q-37 -75 -117.5 -121t-186.5 -46q-191 0 -310 121.5t-119 329.5q0 164 71.5 297t192 206.5
t263.5 73.5q100 0 173.5 -40t106.5 -111h15l1 114l21 147h-214q-31 0 -28 32l17 111q3 28 32 28h218l13 89q3 28 32 28h155q31 0 28 -32l-12 -85h88zM573 173q90 0 161 54t107.5 137t36.5 177q0 129 -66.5 195.5t-173.5 66.5q-139 0 -231.5 -101.5t-92.5 -261.5
q0 -126 72 -196.5t187 -70.5z" />
    <glyph glyph-name="Emacron" unicode="&#x112;" 
d="M1061 1816q31 0 28 -32l-17 -111q-3 -28 -32 -28h-522q-31 0 -28 32l17 111q3 28 32 28h522zM998 201q31 0 28 -32l-19 -141q-3 -28 -32 -28h-851q-31 0 -28 32l188 1340q3 28 32 28h849q31 0 28 -32l-20 -141q-3 -28 -32 -28h-657l-52 -368h601q31 0 28 -32l-21 -142
q-3 -28 -32 -28h-605l-60 -428h655z" />
    <glyph glyph-name="emacron" unicode="&#x113;" 
d="M451 1225q-31 0 -28 32l17 111q3 28 32 28h522q31 0 28 -32l-17 -111q-3 -28 -32 -28h-522zM774 402h-473q-2 -115 80 -182t227 -67q159 0 271 85q27 18 49 -6l58 -67q26 -28 0 -52q-151 -139 -405 -139q-222 0 -351.5 125.5t-129.5 321.5q0 116 45.5 223t122.5 185.5
t185.5 125.5t228.5 47q105 0 189.5 -30.5t136.5 -82t79 -115.5t27 -135q0 -121 -75 -179t-265 -58zM675 817q-123 0 -217.5 -70.5t-130.5 -188.5h381q124 0 170 16.5t45 74.5q-1 68 -66.5 118t-181.5 50z" />
    <glyph glyph-name="Edotaccent" unicode="&#x116;" 
d="M789 1601q-47 0 -81 33.5t-34 82.5q0 46 34 79.5t81 33.5t80.5 -33.5t33.5 -79.5q0 -48 -33.5 -82t-80.5 -34zM998 201q31 0 28 -32l-19 -141q-3 -28 -32 -28h-851q-31 0 -28 32l188 1340q3 28 32 28h849q31 0 28 -32l-20 -141q-3 -28 -32 -28h-657l-52 -368h601
q31 0 28 -32l-21 -142q-3 -28 -32 -28h-605l-60 -428h655z" />
    <glyph glyph-name="edotaccent" unicode="&#x117;" 
d="M722 1181q-48 0 -81.5 33.5t-33.5 82.5q0 46 34 79.5t81 33.5t80.5 -33.5t33.5 -79.5q0 -48 -33.5 -82t-80.5 -34zM774 402h-473q-2 -115 80 -182t227 -67q159 0 271 85q27 18 49 -6l58 -67q26 -28 0 -52q-151 -139 -405 -139q-222 0 -351.5 125.5t-129.5 321.5
q0 116 45.5 223t122.5 185.5t185.5 125.5t228.5 47q105 0 189.5 -30.5t136.5 -82t79 -115.5t27 -135q0 -121 -75 -179t-265 -58zM675 817q-123 0 -217.5 -70.5t-130.5 -188.5h381q124 0 170 16.5t45 74.5q-1 68 -66.5 118t-181.5 50z" />
    <glyph glyph-name="Eogonek" unicode="&#x118;" 
d="M1165 1400q31 0 28 -32l-20 -141q-3 -28 -32 -28h-657l-52 -368h601q31 0 28 -32l-21 -142q-3 -28 -32 -28h-605l-60 -428h655q31 0 28 -32l-19 -141q-3 -28 -32 -28h-10q-92 -7 -147 -56.5t-55 -109.5q0 -54 38.5 -79.5t111.5 -9.5v-141q-41 -18 -96 -18.5t-108.5 16.5
t-90.5 66t-37 122q0 124 117 210h-574q-31 0 -28 32l188 1340q3 28 32 28h849z" />
    <glyph glyph-name="eogonek" unicode="&#x119;" 
d="M774 402h-473q-2 -115 80 -182t227 -67q159 0 271 85q27 18 49 -6l58 -67q26 -28 0 -52q-93 -85 -223 -118q-85 -25 -132.5 -71.5t-47.5 -101.5q0 -52 38.5 -77.5t111.5 -9.5v-141q-41 -18 -96 -18.5t-108.5 16.5t-90.5 66t-37 122q0 115 105 198q-189 21 -297.5 143
t-108.5 300q0 116 45.5 223t122.5 185.5t185.5 125.5t228.5 47q105 0 189.5 -30.5t136.5 -82t79 -115.5t27 -135q0 -121 -75 -179t-265 -58zM675 817q-123 0 -217.5 -70.5t-130.5 -188.5h381q124 0 170 16.5t45 74.5q-1 68 -66.5 118t-181.5 50z" />
    <glyph glyph-name="Ecaron" unicode="&#x11a;" 
d="M778 1677l183 165q14 14 38 14h163q20 0 25 -11t-9 -25l-265 -261q-15 -15 -38 -15h-220q-24 0 -36 18l-193 258q-11 15 -5 25.5t24 10.5h165q21 0 36 -18zM998 201q31 0 28 -32l-19 -141q-3 -28 -32 -28h-851q-31 0 -28 32l188 1340q3 28 32 28h849q31 0 28 -32
l-20 -141q-3 -28 -32 -28h-657l-52 -368h601q31 0 28 -32l-21 -142q-3 -28 -32 -28h-605l-60 -428h655z" />
    <glyph glyph-name="ecaron" unicode="&#x11b;" 
d="M552 1142l-193 258q-11 15 -5 25.5t24 10.5h165q21 0 36 -18l132 -161l183 165q14 14 38 14h163q20 0 25 -11t-9 -25l-265 -261q-15 -15 -38 -15h-220q-24 0 -36 18zM682 1002q105 0 189.5 -30.5t136.5 -82t79 -115.5t27 -135q0 -121 -75 -179t-265 -58h-473
q-2 -115 80 -182t227 -67q159 0 271 85q27 18 49 -6l58 -67q26 -28 0 -52q-151 -139 -405 -139q-222 0 -351.5 125.5t-129.5 321.5q0 116 45.5 223t122.5 185.5t185.5 125.5t228.5 47zM708 558q124 0 170 16.5t45 74.5q-1 68 -66.5 118t-181.5 50q-123 0 -217.5 -70.5
t-130.5 -188.5h381z" />
    <glyph glyph-name="Gbreve" unicode="&#x11e;" 
d="M963 1809q9 23 35 23h86q16 0 22.5 -12t2.5 -31q-28 -114 -117 -186.5t-219 -72.5q-137 0 -212.5 78.5t-68.5 192.5q3 31 29 31h86q27 0 30 -37q5 -54 41 -86t101 -32q69 0 117 38t67 94zM744 1420q238 0 344 -93.5t97 -311.5q0 -28 -30 -28h-146q-30 0 -32 41
q-5 107 -57.5 141.5t-179.5 34.5q-63 0 -108.5 -10t-88.5 -38.5t-73 -78.5t-55 -131.5t-41 -197.5l-17 -118q-14 -97 -16.5 -168.5t8 -120.5t28 -80t49.5 -47.5t66.5 -22.5t85.5 -6q161 0 237.5 74t104.5 259h-315q-15 0 -22.5 8.5t-5.5 23.5l20 133q4 28 32 28h497
q33 0 28 -32l-24 -162q-42 -292 -172.5 -419t-394.5 -128q-93 0 -162.5 14t-124 45.5t-88 82.5t-51 126t-16 174.5t19.5 228.5l17 120q27 194 72 321t118 202t166.5 105.5t229.5 30.5z" />
    <glyph glyph-name="gbreve" unicode="&#x11f;" 
d="M711 1110q-137 0 -212.5 78.5t-68.5 192.5q3 31 29 31h86q27 0 30 -37q5 -54 41 -86t101 -32q69 0 117 38t67 94q9 23 35 23h86q16 0 22.5 -12t2.5 -31q-28 -114 -117 -186.5t-219 -72.5zM1097 980q31 0 28 -32l-132 -919q-14 -98 -50 -173.5t-84.5 -122.5t-111.5 -76.5
t-125.5 -41t-133.5 -11.5q-226 0 -378 118q-25 19 -11 42l68 100q14 22 40 5q125 -82 297 -82q258 0 294 242l15 100q-30 -70 -105.5 -112.5t-177.5 -42.5q-192 0 -310.5 121.5t-118.5 329.5q0 123 42 231t112.5 183.5t166 119t200.5 43.5q101 0 176 -40t107 -111h18l22 104
q6 25 34 25h118zM568 173q90 0 161 54t107.5 137t36.5 177q0 129 -67 195.5t-173 66.5q-140 0 -232.5 -101.5t-92.5 -261.5q0 -126 72.5 -196.5t187.5 -70.5z" />
    <glyph glyph-name="Gdotaccent" unicode="&#x120;" 
d="M791 1601q-47 0 -81 33.5t-34 82.5q0 46 34 79.5t81 33.5t80.5 -33.5t33.5 -79.5q0 -48 -33.5 -82t-80.5 -34zM744 1420q238 0 344 -93.5t97 -311.5q0 -28 -30 -28h-146q-30 0 -32 41q-5 107 -57.5 141.5t-179.5 34.5q-63 0 -108.5 -10t-88.5 -38.5t-73 -78.5t-55 -131.5
t-41 -197.5l-17 -118q-14 -97 -16.5 -168.5t8 -120.5t28 -80t49.5 -47.5t66.5 -22.5t85.5 -6q161 0 237.5 74t104.5 259h-315q-15 0 -22.5 8.5t-5.5 23.5l20 133q4 28 32 28h497q33 0 28 -32l-24 -162q-42 -292 -172.5 -419t-394.5 -128q-93 0 -162.5 14t-124 45.5t-88 82.5
t-51 126t-16 174.5t19.5 228.5l17 120q27 194 72 321t118 202t166.5 105.5t229.5 30.5z" />
    <glyph glyph-name="gdotaccent" unicode="&#x121;" 
d="M729 1181q-47 0 -81 33.5t-34 82.5q0 46 34 79.5t81 33.5t80.5 -33.5t33.5 -79.5q0 -48 -33.5 -82t-80.5 -34zM1097 980q31 0 28 -32l-132 -919q-14 -98 -50 -173.5t-84.5 -122.5t-111.5 -76.5t-125.5 -41t-133.5 -11.5q-226 0 -378 118q-25 19 -11 42l68 100q14 22 40 5
q125 -82 297 -82q258 0 294 242l15 100q-30 -70 -105.5 -112.5t-177.5 -42.5q-192 0 -310.5 121.5t-118.5 329.5q0 123 42 231t112.5 183.5t166 119t200.5 43.5q101 0 176 -40t107 -111h18l22 104q6 25 34 25h118zM568 173q90 0 161 54t107.5 137t36.5 177q0 129 -67 195.5
t-173 66.5q-140 0 -232.5 -101.5t-92.5 -261.5q0 -126 72.5 -196.5t187.5 -70.5z" />
    <glyph glyph-name="Gcommaaccent" unicode="&#x122;" 
d="M744 1420q238 0 344 -93.5t97 -311.5q0 -28 -30 -28h-146q-30 0 -32 41q-5 107 -57.5 141.5t-179.5 34.5q-63 0 -108.5 -10t-88.5 -38.5t-73 -78.5t-55 -131.5t-41 -197.5l-17 -118q-14 -97 -16.5 -168.5t8 -120.5t28 -80t49.5 -47.5t66.5 -22.5t85.5 -6q161 0 237.5 74
t104.5 259h-315q-15 0 -22.5 8.5t-5.5 23.5l20 133q4 28 32 28h497q33 0 28 -32l-24 -162q-42 -292 -172.5 -419t-394.5 -128q-93 0 -162.5 14t-124 45.5t-88 82.5t-51 126t-16 174.5t19.5 228.5l17 120q27 194 72 321t118 202t166.5 105.5t229.5 30.5zM302 -341
q-29 0 -25 30l16 113q3 26 29 26h399q30 0 25 -30l-9 -66q-36 -268 -123 -421q-16 -27 -50 -27h-72q-16 0 -23 12t0 30q25 71 46.5 166.5t27.5 166.5h-241z" />
    <glyph glyph-name="gcommaaccent" unicode="&#x123;" 
d="M466 1199q-30 0 -25 30l9 66q36 268 123 421q16 27 50 27h72q16 0 23 -12t0 -30q-25 -71 -46.5 -166.5t-27.5 -166.5h241q29 0 25 -30l-16 -113q-3 -26 -29 -26h-399zM1097 980q31 0 28 -32l-132 -919q-14 -98 -50 -173.5t-84.5 -122.5t-111.5 -76.5t-125.5 -41
t-133.5 -11.5q-226 0 -378 118q-25 19 -11 42l68 100q14 22 40 5q125 -82 297 -82q258 0 294 242l15 100q-30 -70 -105.5 -112.5t-177.5 -42.5q-192 0 -310.5 121.5t-118.5 329.5q0 123 42 231t112.5 183.5t166 119t200.5 43.5q101 0 176 -40t107 -111h18l22 104q6 25 34 25
h118zM568 173q90 0 161 54t107.5 137t36.5 177q0 129 -67 195.5t-173 66.5q-140 0 -232.5 -101.5t-92.5 -261.5q0 -126 72.5 -196.5t187.5 -70.5z" />
    <glyph glyph-name="Hbar" unicode="&#x126;" 
d="M1182 1400q32 0 27 -32l-188 -1340q-4 -28 -32 -28h-164q-32 0 -27 32l81 579h-494l-82 -583q-4 -28 -32 -28h-164q-32 0 -27 32l188 1340q4 28 32 28h164q32 0 27 -32l-33 -233h495l33 237q4 28 32 28h164zM413 812h494l20 137h-495z" />
    <glyph glyph-name="hbar" unicode="&#x127;" 
d="M1078 154q15 2 23.5 -8.5t5.5 -29.5l-11 -70q-5 -27 -36 -43.5t-79 -16.5q-91 0 -133.5 53t-31.5 132l56 400q17 119 -36 175.5t-148 56.5q-101 0 -174 -51.5t-109 -120.5l-86 -603q-3 -28 -32 -28h-154q-34 0 -28 32l152 1067h-76q-31 0 -28 32l17 111q3 28 32 28h79
l15 102q3 28 32 28h155q31 0 28 -32l-14 -98h227q31 0 28 -32l-17 -111q-3 -28 -32 -28h-231l-39 -275h12q43 78 128.5 128t197.5 50q168 0 260 -109t62 -302l-57 -377q-5 -34 7 -48t35 -12z" />
    <glyph glyph-name="Imacron" unicode="&#x12a;" 
d="M1061 1816q31 0 28 -32l-17 -111q-3 -28 -32 -28h-522q-31 0 -28 32l17 111q3 28 32 28h522zM1197 1227q-3 -28 -32 -28h-338l-140 -998h334q34 0 28 -32l-20 -141q-3 -28 -32 -28h-898q-31 0 -28 32l20 141q3 28 32 28h340l140 998h-336q-31 0 -28 32l20 141q3 28 32 28
h898q34 0 28 -32z" />
    <glyph glyph-name="imacron" unicode="&#x12b;" 
d="M1002 1396q31 0 28 -32l-17 -111q-3 -28 -32 -28h-522q-31 0 -28 32l17 111q3 28 32 28h522zM1106 151q10 -21 -6 -40q-45 -49 -134.5 -90t-197.5 -41q-51 0 -95.5 8.5t-89 28t-76 51t-55 79t-27.5 111t7 146.5l63 395h-369q-15 0 -22.5 8.5t-5.5 23.5l17 121q4 28 32 28
h557q32 0 27 -32l-83 -537q-6 -52 -5 -90t13.5 -65t27.5 -44.5t37 -27.5t41.5 -13.5t41.5 -3.5q104 0 208 85q12 11 26.5 9.5t22.5 -17.5z" />
    <glyph glyph-name="iogonek" unicode="&#x12f;" 
d="M730 1181q-48 0 -81.5 33.5t-33.5 82.5q0 46 34 79.5t81 33.5t80.5 -33.5t33.5 -79.5q0 -48 -33.5 -82t-80.5 -34zM1106 151q10 -21 -6 -40q-40 -44 -119.5 -83t-174.5 -47q-56 -22 -87.5 -62.5t-31.5 -84.5q0 -54 38.5 -79.5t111.5 -9.5v-141q-41 -18 -96 -18.5
t-108.5 16.5t-90.5 66t-37 122q0 126 118 211q-70 22 -117.5 67.5t-70 131.5t-3.5 204l63 395h-369q-15 0 -22.5 8.5t-5.5 23.5l17 121q4 28 32 28h557q32 0 27 -32l-83 -537q-6 -52 -5 -90t13.5 -65t27.5 -44.5t37 -27.5t41.5 -13.5t41.5 -3.5q104 0 208 85q12 11 26.5 9.5
t22.5 -17.5z" />
    <glyph glyph-name="Idotaccent" unicode="&#x130;" 
d="M789 1601q-47 0 -81 33.5t-34 82.5q0 46 34 79.5t81 33.5t80.5 -33.5t33.5 -79.5q0 -48 -33.5 -82t-80.5 -34zM1197 1227q-3 -28 -32 -28h-338l-140 -998h334q34 0 28 -32l-20 -141q-3 -28 -32 -28h-898q-31 0 -28 32l20 141q3 28 32 28h340l140 998h-336q-31 0 -28 32
l20 141q3 28 32 28h898q34 0 28 -32z" />
    <glyph glyph-name="dotlessi" unicode="&#x131;" 
d="M1106 151q10 -21 -6 -40q-45 -49 -134.5 -90t-197.5 -41q-51 0 -95.5 8.5t-89 28t-76 51t-55 79t-27.5 111t7 146.5l63 395h-369q-15 0 -22.5 8.5t-5.5 23.5l17 121q4 28 32 28h557q32 0 27 -32l-83 -537q-6 -52 -5 -90t13.5 -65t27.5 -44.5t37 -27.5t41.5 -13.5
t41.5 -3.5q104 0 208 85q12 11 26.5 9.5t22.5 -17.5z" />
    <glyph glyph-name="IJ" unicode="&#x132;" 
d="M202 1372q3 28 32 28h164q31 0 28 -32l-188 -1340q-3 -28 -32 -28h-164q-32 0 -28 32zM585 1199q-31 0 -28 32l20 141q3 28 32 28h640q31 0 28 -32l-120 -851q-16 -112 -54 -202.5t-90 -151.5t-118.5 -102.5t-138.5 -60t-150 -18.5q-136 0 -224 59q-26 18 -10 44l64 110
q14 22 38 13q51 -19 123 -19q123 0 218 85t119 255l95 670h-444z" />
    <glyph glyph-name="ij" unicode="&#x133;" 
d="M319 1187q-52 0 -88 36t-36 88t36 88.5t88 36.5q53 0 89 -36t36 -89q0 -52 -36.5 -88t-88.5 -36zM1122 1187q-52 0 -88 36t-36 88t36 88.5t88 36.5t88.5 -36t36.5 -89q0 -52 -36.5 -88t-88.5 -36zM368 980q33 0 28 -32l-128 -920q-4 -28 -32 -28h-156q-33 0 -28 32
l128 920q4 28 32 28h156zM1163 980q13 0 22.5 -11t7.5 -25l-129 -916q-57 -412 -461 -412q-59 0 -117 13.5t-99.5 33.5t-72.5 43t-43.5 42.5t-4.5 30.5l70 100q20 28 51 4q97 -73 218 -73q40 0 75.5 10.5t72 36t63 77.5t36.5 126l104 739h-425q-32 0 -28 32l17 121
q4 28 32 28h611z" />
    <glyph glyph-name="Kcommaaccent" unicode="&#x136;" 
d="M1082 30q7 -12 2.5 -21t-19.5 -9h-181q-32 0 -46 25l-353 597l-152 -147l-63 -447q-3 -28 -32 -28h-164q-32 0 -28 32l187 1340q3 28 32 28h165q33 0 28 -32l-87 -594l604 607q19 19 52 19h199q19 0 24 -14t-9 -27l-596 -580zM287 -341q-29 0 -25 30l16 113q3 26 29 26
h399q30 0 25 -30l-9 -66q-36 -268 -123 -421q-16 -27 -50 -27h-72q-16 0 -23 12t0 30q25 71 46.5 166.5t27.5 166.5h-241z" />
    <glyph glyph-name="kcommaaccent" unicode="&#x137;" 
d="M1111 983q20 0 27.5 -14t-7.5 -27l-432 -381l354 -527q20 -31 -15 -31h-180q-18 0 -33 23l-271 408l-203 -179l-32 -227q-3 -28 -32 -28h-154q-34 0 -28 32l191 1340q3 28 32 28h155q31 0 28 -32l-120 -839l493 443q11 11 37 11h190zM706 -172q30 0 25 -30l-9 -66
q-36 -268 -123 -421q-16 -27 -50 -27h-72q-16 0 -23 12t0 30q25 71 46.5 166.5t27.5 166.5h-241q-29 0 -25 30l16 113q3 26 29 26h399z" />
    <glyph glyph-name="Lacute" unicode="&#x139;" 
d="M447 1489q-18 0 -23.5 10.5t3.5 25.5l159 254q11 20 36 20h131q18 0 23.5 -10.5t-3.5 -25.5l-158 -254q-11 -20 -36 -20h-132zM353 201h664q32 0 28 -32l-19 -141q-4 -28 -32 -28h-860q-31 0 -28 32l188 1340q3 28 32 28h164q31 0 28 -32z" />
    <glyph glyph-name="lacute" unicode="&#x13a;" 
d="M1122 149q11 -20 -6 -37q-50 -50 -147 -91t-219 -41q-52 0 -98 8.5t-90.5 28t-76.5 51.5t-56 79t-28 111t6 147l127 814h-345q-32 0 -28 32l18 121q4 28 32 28h529q33 0 28 -32l-145 -956q-37 -245 173 -245q117 0 233 89q28 21 45 -11zM919 1090q-18 0 -23.5 10.5
t3.5 25.5l159 254q11 20 36 20h131q18 0 23.5 -10.5t-3.5 -25.5l-158 -254q-11 -20 -36 -20h-132z" />
    <glyph glyph-name="Lcommaaccent" unicode="&#x13b;" 
d="M353 201h664q32 0 28 -32l-19 -141q-4 -28 -32 -28h-860q-31 0 -28 32l188 1340q3 28 32 28h164q31 0 28 -32zM287 -341q-29 0 -25 30l16 113q3 26 29 26h399q30 0 25 -30l-9 -66q-36 -268 -123 -421q-16 -27 -50 -27h-72q-16 0 -23 12t0 30q25 71 46.5 166.5t27.5 166.5
h-241z" />
    <glyph glyph-name="lcommaaccent" unicode="&#x13c;" 
d="M1122 149q11 -20 -6 -37q-50 -50 -147 -91t-219 -41q-52 0 -98 8.5t-90.5 28t-76.5 51.5t-56 79t-28 111t6 147l127 814h-345q-32 0 -28 32l18 121q4 28 32 28h529q33 0 28 -32l-145 -956q-37 -245 173 -245q117 0 233 89q28 21 45 -11zM292 -341q-30 0 -25 30l16 113
q3 26 29 26h399q29 0 25 -30l-9 -66q-36 -268 -123 -421q-16 -27 -50 -27h-72q-16 0 -23 12t0 30q25 71 46.5 166.5t27.5 166.5h-241z" />
    <glyph glyph-name="Lcaron" unicode="&#x13d;" 
d="M353 201h664q32 0 28 -32l-19 -141q-4 -28 -32 -28h-860q-31 0 -28 32l188 1340q3 28 32 28h164q31 0 28 -32zM633 1218q-32 0 -27 32l17 122q4 28 32 28h430q32 0 27 -32l-10 -71q-40 -289 -132 -454q-17 -29 -54 -29h-78q-17 0 -24.5 12.5t-0.5 32.5q27 75 50 178.5
t30 180.5h-260z" />
    <glyph glyph-name="lcaron" unicode="&#x13e;" 
d="M1100 149q11 -20 -6 -37q-50 -50 -147 -91t-219 -41q-52 0 -98 8.5t-90.5 28t-76.5 51.5t-56 79t-28 111t6 147l127 814h-345q-32 0 -28 32l18 121q4 28 32 28h529q33 0 28 -32l-145 -956q-37 -245 173 -245q117 0 233 89q28 21 45 -11zM810 1218q-31 0 -26 32l16 122
q4 28 32 28h418q31 0 26 -32l-9 -71q-40 -290 -129 -454q-17 -29 -52 -29h-76q-17 0 -24.5 12.5t-0.5 32.5q26 75 48.5 178.5t29.5 180.5h-253z" />
    <glyph glyph-name="Ldot" unicode="&#x13f;" 
d="M353 201h664q32 0 28 -32l-19 -141q-4 -28 -32 -28h-860q-31 0 -28 32l188 1340q3 28 32 28h164q31 0 28 -32zM751 594q-67 0 -114.5 47t-47.5 114q0 68 47.5 115.5t114.5 47.5t114 -47.5t47 -115.5q0 -67 -47 -114t-114 -47z" />
    <glyph glyph-name="ldot" unicode="&#x140;" 
d="M1122 149q11 -20 -6 -37q-50 -50 -147 -91t-219 -41q-52 0 -98 8.5t-90.5 28t-76.5 51.5t-56 79t-28 111t6 147l127 814h-345q-32 0 -28 32l18 121q4 28 32 28h529q33 0 28 -32l-145 -956q-37 -245 173 -245q117 0 233 89q28 21 45 -11zM910 609q-67 0 -114.5 47
t-47.5 114q0 68 47.5 115.5t114.5 47.5t114 -47.5t47 -115.5q0 -67 -47 -114t-114 -47z" />
    <glyph glyph-name="Lslash" unicode="&#x141;" 
d="M1007 201q32 0 28 -32l-19 -141q-3 -28 -32 -28h-850q-31 0 -28 32l54 385l-55 -54q-15 -15 -25.5 -9.5t-10.5 25.5v142q0 22 16 38l110 107l99 706q3 28 32 28h164q31 0 28 -32l-63 -449l154 151q15 14 25.5 9t10.5 -25v-140q0 -22 -16 -38l-210 -205l-66 -470h654z" />
    <glyph glyph-name="lslash" unicode="&#x142;" 
d="M1122 149q11 -20 -6 -37q-50 -50 -147 -91t-219 -41q-52 0 -98 8.5t-90.5 28t-76.5 51.5t-56 79t-28 111t6 147l17 111l-161 -136v196l196 165l75 478h-345q-32 0 -28 32l18 121q4 28 32 28h529q33 0 28 -32l-64 -420l173 145l1 -194l-208 -175l-47 -312
q-37 -245 173 -245q117 0 233 89q28 21 45 -11z" />
    <glyph glyph-name="Nacute" unicode="&#x143;" 
d="M697 1510q-18 0 -23.5 10.5t3.5 25.5l159 254q11 20 36 20h131q18 0 23.5 -10.5t-3.5 -25.5l-158 -254q-11 -20 -36 -20h-132zM1013 1372q4 28 32 28h146q32 0 28 -32l-188 -1340q-4 -28 -32 -28h-199q-26 0 -34 24l-345 1036l-145 -1032q-4 -28 -32 -28h-146
q-32 0 -28 32l188 1340q4 28 32 28h199q26 0 34 -24l344 -1034z" />
    <glyph glyph-name="nacute" unicode="&#x144;" 
d="M637 1090q-18 0 -23.5 10.5t3.5 25.5l159 254q11 20 36 20h131q18 0 23.5 -10.5t-3.5 -25.5l-158 -254q-11 -20 -36 -20h-132zM1078 154q15 2 23.5 -8.5t5.5 -29.5l-11 -70q-5 -27 -36 -43.5t-79 -16.5q-91 0 -133.5 53t-31.5 132l56 400q17 119 -36 175.5t-148 56.5
q-113 0 -190.5 -63.5t-102.5 -136.5l-82 -575q-3 -28 -32 -28h-154q-34 0 -28 32l131 920q3 28 32 28h144q13 0 22 -11t7 -25l-9 -120h19q43 78 128.5 128t197.5 50q168 0 260 -109t62 -302l-57 -377q-5 -34 7 -48t35 -12zM387 564l4 28q-4 -13 -4 -28z" />
    <glyph glyph-name="Ncommaaccent" unicode="&#x145;" 
d="M1013 1372q4 28 32 28h146q32 0 28 -32l-188 -1340q-4 -28 -32 -28h-199q-26 0 -34 24l-345 1036l-145 -1032q-4 -28 -32 -28h-146q-32 0 -28 32l188 1340q4 28 32 28h199q26 0 34 -24l344 -1034zM287 -341q-29 0 -25 30l16 113q3 26 29 26h399q30 0 25 -30l-9 -66
q-36 -268 -123 -421q-16 -27 -50 -27h-72q-16 0 -23 12t0 30q25 71 46.5 166.5t27.5 166.5h-241z" />
    <glyph glyph-name="ncommaaccent" unicode="&#x146;" 
d="M1078 154q15 2 23.5 -8.5t5.5 -29.5l-11 -70q-5 -27 -36 -43.5t-79 -16.5q-91 0 -133.5 53t-31.5 132l56 400q17 119 -36 175.5t-148 56.5q-113 0 -190.5 -63.5t-102.5 -136.5l-82 -575q-3 -28 -32 -28h-154q-34 0 -28 32l131 920q3 28 32 28h144q13 0 22 -11t7 -25
l-9 -120h19q43 78 128.5 128t197.5 50q168 0 260 -109t62 -302l-57 -377q-5 -34 7 -48t35 -12zM387 564l4 28q-4 -13 -4 -28zM706 -172q30 0 25 -30l-9 -66q-36 -268 -123 -421q-16 -27 -50 -27h-72q-16 0 -23 12t0 30q25 71 46.5 166.5t27.5 166.5h-241q-29 0 -25 30
l16 113q3 26 29 26h399z" />
    <glyph glyph-name="Ncaron" unicode="&#x147;" 
d="M778 1677l183 165q14 14 38 14h163q20 0 25 -11t-9 -25l-265 -261q-15 -15 -38 -15h-220q-24 0 -36 18l-193 258q-11 15 -5 25.5t24 10.5h165q21 0 36 -18zM1013 1372q4 28 32 28h146q32 0 28 -32l-188 -1340q-4 -28 -32 -28h-199q-26 0 -34 24l-345 1036l-145 -1032
q-4 -28 -32 -28h-146q-32 0 -28 32l188 1340q4 28 32 28h199q26 0 34 -24l344 -1034z" />
    <glyph glyph-name="ncaron" unicode="&#x148;" 
d="M1102 1436q20 0 25 -11t-9 -25l-265 -261q-15 -15 -38 -15h-220q-24 0 -36 18l-193 258q-11 15 -5 25.5t24 10.5h165q21 0 36 -18l132 -161l183 165q14 14 38 14h163zM1078 154q15 2 23.5 -8.5t5.5 -29.5l-11 -70q-5 -27 -36 -43.5t-79 -16.5q-91 0 -133.5 53t-31.5 132
l56 400q17 119 -36 175.5t-148 56.5q-113 0 -190.5 -63.5t-102.5 -136.5l-82 -575q-3 -28 -32 -28h-154q-34 0 -28 32l131 920q3 28 32 28h144q13 0 22 -11t7 -25l-9 -120h19q43 78 128.5 128t197.5 50q168 0 260 -109t62 -302l-57 -377q-5 -34 7 -48t35 -12zM387 564l4 28
q-4 -13 -4 -28z" />
    <glyph glyph-name="Eng" unicode="&#x14a;" 
d="M1191 1400q32 0 28 -32l-188 -1340q0 -1 -0.5 -2.5t-0.5 -2.5l-4 -29q-31 -219 -168.5 -312t-400.5 -93l18 204q314 0 346 207h-21q-26 0 -34 24l-345 1036l-145 -1032q-4 -28 -32 -28h-146q-32 0 -28 32l188 1340q4 28 32 28h199q26 0 34 -24l344 -1034l146 1030
q4 28 32 28h146z" />
    <glyph glyph-name="eng" unicode="&#x14b;" 
d="M1003 -13q-28 -190 -136.5 -286.5t-272.5 -96.5q-22 0 -27 23l-27 160q-2 9 -1 12.5t7 3.5q97 0 167 65.5t87 185.5l73 517q17 119 -36.5 175.5t-147.5 56.5q-63 0 -117 -22.5t-89.5 -58t-58 -70t-32.5 -67.5l-79 -557q-3 -28 -32 -28h-154q-34 0 -28 32l131 920
q3 28 32 28h144q13 0 22 -11t7 -25l-9 -120h19q43 78 128.5 128t197.5 50q168 0 260 -109t63 -302z" />
    <glyph glyph-name="Omacron" unicode="&#x14c;" 
d="M1061 1816q31 0 28 -32l-17 -111q-3 -28 -32 -28h-522q-31 0 -28 32l17 111q3 28 32 28h522zM736 1420q93 0 161.5 -13.5t122.5 -45.5t87 -82.5t49.5 -125.5t15 -174.5t-19.5 -229.5l-17 -119q-27 -195 -71.5 -322t-116.5 -202.5t-165.5 -105.5t-229.5 -30
q-93 0 -161.5 13.5t-122.5 45.5t-87 83t-49.5 126t-15 174.5t19.5 229.5l16 119q27 195 71.5 321.5t117 202t166 105.5t229.5 30zM725 1205q-65 0 -110 -10t-86.5 -37.5t-70 -78.5t-51.5 -132.5t-39 -198.5l-17 -118q-16 -118 -16.5 -197.5t11.5 -129t44 -75.5t70.5 -34.5
t101.5 -8.5q65 0 110 10t86.5 37.5t70 78.5t51.5 132.5t40 198.5l16 118q16 118 17 197.5t-11 129t-44 75.5t-71 34.5t-102 8.5z" />
    <glyph glyph-name="omacron" unicode="&#x14d;" 
d="M1001 1396q31 0 28 -32l-17 -111q-3 -28 -32 -28h-522q-31 0 -28 32l17 111q3 28 32 28h522zM568 -26q-201 0 -330 132.5t-129 333.5q0 155 75.5 284.5t202 203.5t274.5 74q201 0 330.5 -131.5t129.5 -331.5q0 -154 -74 -284t-201 -205.5t-278 -75.5zM579 173
q140 0 236.5 99.5t96.5 259.5q0 121 -73.5 196t-188.5 75q-141 0 -237 -101t-96 -258q0 -121 73.5 -196t188.5 -75z" />
    <glyph glyph-name="Ohungarumlaut" unicode="&#x150;" 
d="M526 1510q-18 0 -23.5 10.5t3.5 25.5l159 254q11 20 36 20h131q18 0 23.5 -10.5t-3.5 -25.5l-158 -254q-11 -20 -36 -20h-132zM860 1510q-18 0 -23.5 10.5t3.5 25.5l159 254q11 20 36 20h131q18 0 23.5 -10.5t-3.5 -25.5l-158 -254q-11 -20 -36 -20h-132zM736 1420
q93 0 161.5 -13.5t122.5 -45.5t87 -82.5t49.5 -125.5t15 -174.5t-19.5 -229.5l-17 -119q-27 -195 -71.5 -322t-116.5 -202.5t-165.5 -105.5t-229.5 -30q-93 0 -161.5 13.5t-122.5 45.5t-87 83t-49.5 126t-15 174.5t19.5 229.5l16 119q27 195 71.5 321.5t117 202t166 105.5
t229.5 30zM725 1205q-65 0 -110 -10t-86.5 -37.5t-70 -78.5t-51.5 -132.5t-39 -198.5l-17 -118q-16 -118 -16.5 -197.5t11.5 -129t44 -75.5t70.5 -34.5t101.5 -8.5q65 0 110 10t86.5 37.5t70 78.5t51.5 132.5t40 198.5l16 118q16 118 17 197.5t-11 129t-44 75.5t-71 34.5
t-102 8.5z" />
    <glyph glyph-name="ohungarumlaut" unicode="&#x151;" 
d="M466 1090q-18 0 -23.5 10.5t3.5 25.5l159 254q11 20 36 20h131q18 0 23.5 -10.5t-3.5 -25.5l-158 -254q-11 -20 -36 -20h-132zM800 1090q-18 0 -23.5 10.5t3.5 25.5l159 254q11 20 36 20h131q18 0 23.5 -10.5t-3.5 -25.5l-158 -254q-11 -20 -36 -20h-132zM568 -26
q-201 0 -330 132.5t-129 333.5q0 155 75.5 284.5t202 203.5t274.5 74q201 0 330.5 -131.5t129.5 -331.5q0 -154 -74 -284t-201 -205.5t-278 -75.5zM579 173q140 0 236.5 99.5t96.5 259.5q0 121 -73.5 196t-188.5 75q-141 0 -237 -101t-96 -258q0 -121 73.5 -196t188.5 -75z
" />
    <glyph glyph-name="OE" unicode="&#x152;" 
d="M1227 1400q13 0 22.5 -11t7.5 -25l-20 -141q-4 -24 -28 -24h-289l-53 -368h228q14 0 23 -12t6 -25l-19 -141q-3 -24 -28 -24h-238l-60 -428h282q14 0 23 -11.5t6 -24.5l-20 -141q-3 -24 -28 -24h-511q-92 0 -159.5 11.5t-122 40t-87 76t-50 119.5t-16 169t19.5 226
l16 119q22 155 55 264t79 182.5t113 116t147.5 59.5t191.5 17l-11 -113l16 113h504zM335 630q-9 -65 -13 -116.5t-4.5 -92t6 -71t14.5 -52t25 -36t33 -23.5t43 -13t51.5 -5.5t61.5 -1.5l-12 -128l152 1090q-64 0 -105 -8.5t-81.5 -33.5t-67 -72.5t-49 -125.5t-38.5 -193z
" />
    <glyph glyph-name="oe" unicode="&#x153;" 
d="M852 148q60 0 104.5 21.5t90.5 64.5l83 -117q-118 -143 -290 -143q-195 0 -263 142q-102 -142 -266 -142q-142 0 -210.5 97.5t-68.5 271.5q0 129 24.5 244.5t72 209.5t126.5 149.5t180 55.5q181 0 233 -158q52 79 122 118.5t145 39.5q269 0 269 -342q0 -61 -5.5 -106.5
t-18 -82t-35.5 -55t-57 -18.5l-393 -2q-10 -121 25.5 -184.5t131.5 -63.5zM928 824q-83 0 -137.5 -74.5t-75.5 -198.5l324 4q51 269 -111 269zM316 151q61 0 109 45t75 116.5t41 149t14 153.5q0 208 -125 208q-49 0 -90 -30.5t-68 -78t-45.5 -109t-26.5 -121.5t-8 -116
q0 -112 30.5 -164.5t93.5 -52.5z" />
    <glyph glyph-name="Racute" unicode="&#x154;" 
d="M697 1510q-18 0 -23.5 10.5t3.5 25.5l159 254q11 20 36 20h131q18 0 23.5 -10.5t-3.5 -25.5l-158 -254q-11 -20 -36 -20h-132zM850 524l224 -488q16 -36 -20 -36h-160q-27 0 -36 20l-218 483h-266l-66 -475q-4 -28 -32 -28h-164q-32 0 -27 32l188 1340q4 28 32 28h471
q222 0 315.5 -81.5t93.5 -248.5q0 -234 -81 -368.5t-254 -177.5zM472 1199l-69 -495h276q164 0 227.5 84t63.5 266q0 91 -46.5 118t-165.5 27h-286z" />
    <glyph glyph-name="racute" unicode="&#x155;" 
d="M637 1090q-18 0 -23.5 10.5t3.5 25.5l159 254q11 20 36 20h131q18 0 23.5 -10.5t-3.5 -25.5l-158 -254q-11 -20 -36 -20h-132zM822 1002q176 0 270 -108.5t63 -301.5q-3 -28 -39 -31l-145 -18q-17 -2 -25.5 6t-6.5 26q16 119 -38.5 174t-158.5 55q-69 0 -128.5 -23
t-97 -59t-60 -68t-33.5 -61l-80 -565q-4 -28 -32 -28h-154q-32 0 -28 32l131 920q4 28 32 28h144q13 0 21.5 -11t7.5 -25l-9 -120v-1h18q47 79 136.5 129t211.5 50z" />
    <glyph glyph-name="Rcommaaccent" unicode="&#x156;" 
d="M850 524l224 -488q16 -36 -20 -36h-160q-27 0 -36 20l-218 483h-266l-66 -475q-4 -28 -32 -28h-164q-32 0 -27 32l188 1340q4 28 32 28h471q222 0 315.5 -81.5t93.5 -248.5q0 -234 -81 -368.5t-254 -177.5zM472 1199l-69 -495h276q164 0 227.5 84t63.5 266
q0 91 -46.5 118t-165.5 27h-286zM706 -172q30 0 25 -30l-9 -66q-36 -268 -123 -421q-16 -27 -50 -27h-72q-16 0 -23 12t0 30q25 71 46.5 166.5t27.5 166.5h-241q-29 0 -25 30l16 113q3 26 29 26h399z" />
    <glyph glyph-name="rcommaaccent" unicode="&#x157;" 
d="M822 1002q176 0 270 -108.5t63 -301.5q-3 -28 -39 -31l-145 -18q-17 -2 -25.5 6t-6.5 26q16 119 -38.5 174t-158.5 55q-69 0 -128.5 -23t-97 -59t-60 -68t-33.5 -61l-80 -565q-4 -28 -32 -28h-154q-32 0 -28 32l131 920q4 28 32 28h144q13 0 21.5 -11t7.5 -25l-9 -120v-1
h18q47 79 136.5 129t211.5 50zM706 -172q30 0 25 -30l-9 -66q-36 -268 -123 -421q-16 -27 -50 -27h-72q-16 0 -23 12t0 30q25 71 46.5 166.5t27.5 166.5h-241q-29 0 -25 30l16 113q3 26 29 26h399z" />
    <glyph glyph-name="Rcaron" unicode="&#x158;" 
d="M619 1562l-193 258q-11 15 -5 25.5t24 10.5h165q21 0 36 -18l132 -161l183 165q14 14 38 14h163q20 0 25 -11t-9 -25l-265 -261q-15 -15 -38 -15h-220q-24 0 -36 18zM1185 1070q0 -234 -81 -368.5t-254 -177.5l224 -488q16 -36 -20 -36h-160q-27 0 -36 20l-218 483h-266
l-66 -475q-4 -28 -32 -28h-164q-32 0 -27 32l188 1340q4 28 32 28h471q222 0 315.5 -81.5t93.5 -248.5zM679 704q164 0 227.5 84t63.5 266q0 91 -46.5 118t-165.5 27h-286l-69 -495h276z" />
    <glyph glyph-name="rcaron" unicode="&#x159;" 
d="M559 1142l-193 258q-11 15 -5 25.5t24 10.5h165q21 0 36 -18l132 -161l183 165q14 14 38 14h163q20 0 25 -11t-9 -25l-265 -261q-15 -15 -38 -15h-220q-24 0 -36 18zM822 1002q176 0 270 -108.5t63 -301.5q-3 -28 -39 -31l-145 -18q-17 -2 -25.5 6t-6.5 26
q16 119 -38.5 174t-158.5 55q-69 0 -128.5 -23t-97 -59t-60 -68t-33.5 -61l-80 -565q-4 -28 -32 -28h-154q-32 0 -28 32l131 920q4 28 32 28h144q13 0 21.5 -11t7.5 -25l-9 -120v-1h18q47 79 136.5 129t211.5 50z" />
    <glyph glyph-name="Sacute" unicode="&#x15a;" 
d="M700 1510q-18 0 -23.5 10.5t3.5 25.5l159 254q11 20 36 20h131q18 0 23.5 -10.5t-3.5 -25.5l-158 -254q-11 -20 -36 -20h-132zM645 807q60 -14 104 -25.5t96.5 -30t90 -38.5t74.5 -49t60 -62.5t37 -79t14 -98.5q0 -224 -152 -337t-415 -113q-238 0 -359 85.5t-109 258.5
q2 30 30 30h149q26 0 28 -34q3 -65 74.5 -102t197.5 -37q336 0 336 235q0 47 -15 79.5t-51.5 55.5t-80 37t-117.5 31q-77 18 -134 37t-116 50t-96 69.5t-60.5 96t-23.5 128.5q0 204 137 313t375 109q226 0 344.5 -83t111.5 -251q-1 -31 -37 -31h-130q-34 0 -39 33
q-7 63 -74.5 97.5t-180.5 34.5q-144 0 -218 -54t-74 -160q0 -79 51 -123t172 -72z" />
    <glyph glyph-name="sacute" unicode="&#x15b;" 
d="M637 1090q-18 0 -23.5 10.5t3.5 25.5l159 254q11 20 36 20h131q18 0 23.5 -10.5t-3.5 -25.5l-158 -254q-11 -20 -36 -20h-132zM643 568q52 -6 87 -11.5t85 -16t83 -23t70 -33.5t58.5 -46.5t36 -62t14.5 -81.5q0 -152 -134.5 -237t-356.5 -85q-218 0 -337.5 74.5
t-112.5 239.5q1 28 28 28h148q26 0 28 -32q6 -130 253 -130q75 0 135 14t99.5 46t39.5 78q0 16 -4 29.5t-15 24t-20.5 18t-30.5 14.5t-34 11.5t-42 9.5l-43.5 7.5t-48.5 7.5q-174 25 -245 50q-166 59 -177 204q-1 11 -1 23q0 144 123.5 228.5t338.5 84.5q204 0 315 -74.5
t108 -235.5q0 -29 -31 -29h-140q-28 0 -30 31q-5 70 -63.5 99.5t-163.5 29.5q-109 0 -178 -34t-69 -100q0 -57 56 -82t171 -39z" />
    <glyph glyph-name="Scedilla" unicode="&#x15e;" 
d="M719 1416q226 0 344.5 -83t111.5 -251q-1 -31 -37 -31h-130q-34 0 -39 33q-7 63 -74.5 97.5t-180.5 34.5q-144 0 -218 -54t-74 -160q0 -79 51 -123t172 -72q60 -14 104 -25.5t96.5 -30t90 -38.5t74.5 -49t60 -62.5t37 -79t14 -98.5q0 -211 -135.5 -324t-373.5 -125
l-49 -47q71 -6 121 -48.5t50 -111.5q0 -82 -50.5 -132.5t-123 -64.5t-156.5 0q-18 3 -18 22v77q0 10 6 15.5t16 4.5q80 -11 125.5 7.5t45.5 59.5q0 24 -23 41t-60.5 20t-85.5 -16q-10 -4 -17 -0.5t-7 14.5v77q0 14 10 24l61 61q-190 16 -285.5 101t-85.5 239q2 30 30 30h149
q26 0 28 -34q3 -65 74.5 -102t197.5 -37q336 0 336 235q0 47 -15 79.5t-51.5 55.5t-80 37t-117.5 31q-77 18 -134 37t-116 50t-96 69.5t-60.5 96t-23.5 128.5q0 204 137 313t375 109z" />
    <glyph glyph-name="scedilla" unicode="&#x15f;" 
d="M668 1002q204 0 315 -74.5t108 -235.5q0 -29 -31 -29h-140q-28 0 -30 31q-5 70 -63.5 99.5t-163.5 29.5q-109 0 -178 -34t-69 -100q0 -57 56 -82t171 -39q52 -6 87 -11.5t85 -16t83 -23t70 -33.5t58.5 -46.5t36 -62t14.5 -81.5q0 -148 -129 -233t-342 -89l-46 -44
q71 -6 121 -48.5t50 -111.5q0 -82 -50.5 -132.5t-123 -64.5t-156.5 0q-18 3 -18 22v77q0 10 6 15.5t16 4.5q80 -11 125.5 7.5t45.5 59.5q0 24 -23 41t-60.5 20t-85.5 -16q-11 -4 -17.5 -0.5t-6.5 14.5v77q0 14 10 24l62 62q-158 20 -241.5 94.5t-77.5 212.5q1 28 28 28h148
q26 0 28 -32q6 -130 253 -130q75 0 135 14t99.5 46t39.5 78q0 16 -4 29.5t-15 24t-20.5 18t-30.5 14.5t-34 11.5t-42 9.5l-43.5 7.5t-48.5 7.5q-174 25 -245 50q-166 59 -177 204q-1 11 -1 23q0 144 123.5 228.5t338.5 84.5z" />
    <glyph glyph-name="Scaron" unicode="&#x160;" 
d="M781 1677l183 165q14 14 38 14h163q20 0 25 -11t-9 -25l-265 -261q-15 -15 -38 -15h-220q-24 0 -36 18l-193 258q-11 15 -5 25.5t24 10.5h165q21 0 36 -18zM645 807q60 -14 104 -25.5t96.5 -30t90 -38.5t74.5 -49t60 -62.5t37 -79t14 -98.5q0 -224 -152 -337t-415 -113
q-238 0 -359 85.5t-109 258.5q2 30 30 30h149q26 0 28 -34q3 -65 74.5 -102t197.5 -37q336 0 336 235q0 47 -15 79.5t-51.5 55.5t-80 37t-117.5 31q-77 18 -134 37t-116 50t-96 69.5t-60.5 96t-23.5 128.5q0 204 137 313t375 109q226 0 344.5 -83t111.5 -251q-1 -31 -37 -31
h-130q-34 0 -39 33q-7 63 -74.5 97.5t-180.5 34.5q-144 0 -218 -54t-74 -160q0 -79 51 -123t172 -72z" />
    <glyph glyph-name="scaron" unicode="&#x161;" 
d="M718 1257l183 165q14 14 38 14h163q20 0 25 -11t-9 -25l-265 -261q-15 -15 -38 -15h-220q-24 0 -36 18l-193 258q-11 15 -5 25.5t24 10.5h165q21 0 36 -18zM643 568q52 -6 87 -11.5t85 -16t83 -23t70 -33.5t58.5 -46.5t36 -62t14.5 -81.5q0 -152 -134.5 -237t-356.5 -85
q-218 0 -337.5 74.5t-112.5 239.5q1 28 28 28h148q26 0 28 -32q6 -130 253 -130q75 0 135 14t99.5 46t39.5 78q0 16 -4 29.5t-15 24t-20.5 18t-30.5 14.5t-34 11.5t-42 9.5l-43.5 7.5t-48.5 7.5q-174 25 -245 50q-166 59 -177 204q-1 11 -1 23q0 144 123.5 228.5t338.5 84.5
q204 0 315 -74.5t108 -235.5q0 -29 -31 -29h-140q-28 0 -30 31q-5 70 -63.5 99.5t-163.5 29.5q-109 0 -178 -34t-69 -100q0 -57 56 -82t171 -39z" />
    <glyph glyph-name="uni0162" unicode="&#x162;" 
d="M1220 1400q32 0 28 -32l-20 -141q-3 -28 -32 -28h-369l-164 -1171q-3 -28 -32 -28h4l-75 -72q71 -6 121 -48.5t50 -111.5q0 -82 -50.5 -132.5t-123 -64.5t-156.5 0q-18 3 -18 22v77q0 10 6 15.5t16 4.5q80 -11 125.5 7.5t45.5 59.5q0 24 -23 41t-60.5 20t-85.5 -16
q-11 -4 -17.5 -0.5t-6.5 14.5v77q0 14 10 24l83 83h-9q-31 0 -28 32l164 1167h-366q-31 0 -28 32l20 141q3 28 32 28h959z" />
    <glyph glyph-name="uni0163" unicode="&#x163;" 
d="M1147 980q31 0 28 -32l-18 -121q-3 -28 -32 -28h-469l-58 -388q-37 -244 169 -244q108 0 221 86q12 9 27 6.5t22 -16.5l45 -96q8 -18 -7 -35q-45 -48 -140 -90t-207 -42h-5l-54 -52q71 -6 121 -48.5t50 -111.5q0 -82 -50.5 -132.5t-123 -64.5t-156.5 0q-18 3 -18 22v77
q0 10 6 15.5t16 4.5q80 -11 125.5 7.5t45.5 59.5q0 24 -23 41t-60.5 20t-85.5 -16q-10 -4 -17 -0.5t-7 14.5v77q0 14 10 24l82 82q-54 17 -94.5 46t-71.5 78.5t-39 118t3 162.5l58 395h-300q-31 0 -28 32l18 121q3 28 32 28h305l38 262q4 28 32 28h157q33 0 28 -32l-39 -258
h464z" />
    <glyph glyph-name="Tcaron" unicode="&#x164;" 
d="M778 1677l183 165q14 14 38 14h163q20 0 25 -11t-9 -25l-265 -261q-15 -15 -38 -15h-220q-24 0 -36 18l-193 258q-11 15 -5 25.5t24 10.5h165q21 0 36 -18zM1220 1400q32 0 28 -32l-20 -141q-3 -28 -32 -28h-369l-164 -1171q-3 -28 -32 -28h-164q-31 0 -28 32l164 1167
h-366q-31 0 -28 32l20 141q3 28 32 28h959z" />
    <glyph glyph-name="tcaron" unicode="&#x165;" 
d="M1300 1600q18 0 23.5 -10.5t-3.5 -25.5l-158 -254q-11 -20 -36 -20h-132q-18 0 -23.5 10.5t3.5 25.5l159 254q11 20 36 20h131zM1147 980q31 0 28 -32l-18 -121q-3 -28 -32 -28h-469l-58 -388q-37 -244 169 -244q108 0 221 86q12 9 27 6.5t22 -16.5l45 -96q8 -18 -7 -35
q-45 -48 -140 -90t-207 -42q-81 0 -146.5 20.5t-119 66.5t-76 132t-4.5 205l58 395h-300q-31 0 -28 32l18 121q3 28 32 28h305l38 262q4 28 32 28h157q33 0 28 -32l-39 -258h464z" />
    <glyph glyph-name="Tbar" unicode="&#x166;" 
d="M1220 1400q32 0 28 -32l-20 -141q-3 -28 -32 -28h-369l-31 -219h148q31 0 28 -32l-17 -111q-3 -28 -32 -28h-151l-109 -781q-3 -28 -32 -28h-164q-31 0 -28 32l109 777h-147q-31 0 -28 32l17 111q3 28 32 28h150l31 219h-366q-31 0 -28 32l20 141q3 28 32 28h959z" />
    <glyph glyph-name="tbar" unicode="&#x167;" 
d="M1147 980q31 0 28 -32l-18 -121q-3 -28 -32 -28h-469l-16 -110h467q31 0 28 -32l-17 -118q-3 -28 -32 -28h-473l-15 -100q-37 -244 169 -244q108 0 221 86q12 9 27 6.5t22 -16.5l45 -96q8 -18 -7 -35q-45 -48 -140 -90t-207 -42q-81 0 -146.5 20.5t-119 66.5t-76 132
t-4.5 205l16 107h-291q-31 0 -28 32l16 118q3 28 32 28h297l16 110h-300q-31 0 -28 32l18 121q3 28 32 28h305l38 262q4 28 32 28h157q33 0 28 -32l-39 -258h464z" />
    <glyph glyph-name="Umacron" unicode="&#x16a;" 
d="M1061 1816q31 0 28 -32l-17 -111q-3 -28 -32 -28h-522q-31 0 -28 32l17 111q3 28 32 28h522zM1192 1400q31 0 28 -32l-120 -854q-40 -280 -175 -412t-373 -132q-492 0 -413 557l119 845q3 28 32 28h164q31 0 28 -32l-120 -854q-25 -171 24 -251t176 -80q136 0 213.5 85.5
t101.5 258.5l119 845q3 28 32 28h164z" />
    <glyph glyph-name="umacron" unicode="&#x16b;" 
d="M424 1225q-31 0 -28 32l17 111q3 28 32 28h522q31 0 28 -32l-17 -111q-3 -28 -32 -28h-522zM1118 948l-106 -734q-5 -34 7 -48t35 -12q15 2 23.5 -8.5t5.5 -29.5l-12 -70q-5 -27 -35.5 -43.5t-79.5 -16.5q-89 0 -122 51.5t-21 133.5h-16q-39 -83 -126.5 -136.5
t-204.5 -53.5q-162 0 -253 111t-63 305l79 555q3 28 32 28h155q33 0 28 -32l-76 -531q-16 -119 35 -177t140 -58q97 0 166 57t112 141l82 575q3 25 34 25h153q33 0 28 -32z" />
    <glyph glyph-name="Ubreve" unicode="&#x16c;" 
d="M961 1809q9 23 35 23h86q16 0 22.5 -12t2.5 -31q-28 -114 -117 -186.5t-219 -72.5q-137 0 -212.5 78.5t-68.5 192.5q3 31 29 31h86q27 0 30 -37q5 -54 41 -86t101 -32q69 0 117 38t67 94zM1192 1400q31 0 28 -32l-120 -854q-40 -280 -175 -412t-373 -132q-492 0 -413 557
l119 845q3 28 32 28h164q31 0 28 -32l-120 -854q-25 -171 24 -251t176 -80q136 0 213.5 85.5t101.5 258.5l119 845q3 28 32 28h164z" />
    <glyph glyph-name="ubreve" unicode="&#x16d;" 
d="M677 1110q-137 0 -212.5 78.5t-68.5 192.5q3 31 29 31h86q27 0 30 -37q5 -54 41 -86t101 -32q69 0 117 38t67 94q9 23 35 23h86q16 0 22.5 -12t2.5 -31q-28 -114 -117 -186.5t-219 -72.5zM1118 948l-106 -734q-5 -34 7 -48t35 -12q15 2 23.5 -8.5t5.5 -29.5l-12 -70
q-5 -27 -35.5 -43.5t-79.5 -16.5q-89 0 -122 51.5t-21 133.5h-16q-39 -83 -126.5 -136.5t-204.5 -53.5q-162 0 -253 111t-63 305l79 555q3 28 32 28h155q33 0 28 -32l-76 -531q-16 -119 35 -177t140 -58q97 0 166 57t112 141l82 575q3 25 34 25h153q33 0 28 -32z" />
    <glyph glyph-name="Uring" unicode="&#x16e;" 
d="M783 1888q80 0 135 -55.5t55 -133.5q0 -77 -55 -132.5t-135 -55.5q-81 0 -136 55.5t-55 132.5q0 78 55 133.5t136 55.5zM783 1634q29 0 49 18.5t19 47.5t-20 47.5t-48 18.5t-48.5 -18.5t-19.5 -47.5t19.5 -47.5t48.5 -18.5zM1192 1400q31 0 28 -32l-120 -854
q-40 -280 -175 -412t-373 -132q-492 0 -413 557l119 845q3 28 32 28h164q31 0 28 -32l-120 -854q-25 -171 24 -251t176 -80q136 0 213.5 85.5t101.5 258.5l119 845q3 28 32 28h164z" />
    <glyph glyph-name="uring" unicode="&#x16f;" 
d="M689 1091q-81 0 -136 55.5t-55 132.5q0 78 55 133.5t136 55.5q80 0 135 -55.5t55 -133.5q0 -77 -55 -132.5t-135 -55.5zM689 1346q-29 0 -48.5 -18.5t-19.5 -47.5t19.5 -47.5t48.5 -18.5t49 18.5t19 47.5t-20 47.5t-48 18.5zM1118 948l-106 -734q-5 -34 7 -48t35 -12
q15 2 23.5 -8.5t5.5 -29.5l-12 -70q-5 -27 -35.5 -43.5t-79.5 -16.5q-89 0 -122 51.5t-21 133.5h-16q-39 -83 -126.5 -136.5t-204.5 -53.5q-162 0 -253 111t-63 305l79 555q3 28 32 28h155q33 0 28 -32l-76 -531q-16 -119 35 -177t140 -58q97 0 166 57t112 141l82 575
q3 25 34 25h153q33 0 28 -32z" />
    <glyph glyph-name="Uhungarumlaut" unicode="&#x170;" 
d="M526 1510q-18 0 -23.5 10.5t3.5 25.5l159 254q11 20 36 20h131q18 0 23.5 -10.5t-3.5 -25.5l-158 -254q-11 -20 -36 -20h-132zM860 1510q-18 0 -23.5 10.5t3.5 25.5l159 254q11 20 36 20h131q18 0 23.5 -10.5t-3.5 -25.5l-158 -254q-11 -20 -36 -20h-132zM1192 1400
q31 0 28 -32l-120 -854q-40 -280 -175 -412t-373 -132q-492 0 -413 557l119 845q3 28 32 28h164q31 0 28 -32l-120 -854q-25 -171 24 -251t176 -80q136 0 213.5 85.5t101.5 258.5l119 845q3 28 32 28h164z" />
    <glyph glyph-name="uhungarumlaut" unicode="&#x171;" 
d="M432 1090q-18 0 -23.5 10.5t3.5 25.5l159 254q11 20 36 20h131q18 0 23.5 -10.5t-3.5 -25.5l-158 -254q-11 -20 -36 -20h-132zM766 1090q-18 0 -23.5 10.5t3.5 25.5l159 254q11 20 36 20h131q18 0 23.5 -10.5t-3.5 -25.5l-158 -254q-11 -20 -36 -20h-132zM1118 948
l-106 -734q-5 -34 7 -48t35 -12q15 2 23.5 -8.5t5.5 -29.5l-12 -70q-5 -27 -35.5 -43.5t-79.5 -16.5q-89 0 -122 51.5t-21 133.5h-16q-39 -83 -126.5 -136.5t-204.5 -53.5q-162 0 -253 111t-63 305l79 555q3 28 32 28h155q33 0 28 -32l-76 -531q-16 -119 35 -177t140 -58
q97 0 166 57t112 141l82 575q3 25 34 25h153q33 0 28 -32z" />
    <glyph glyph-name="Uogonek" unicode="&#x172;" 
d="M1192 1400q31 0 28 -32l-120 -854q-63 -441 -374 -523q-144 -65 -144 -159q0 -52 38.5 -77.5t111.5 -9.5v-141q-41 -18 -96 -18.5t-108 16.5t-90 66t-37 122q0 103 87 183q-422 35 -349 554l119 845q3 28 32 28h164q31 0 28 -32l-120 -854q-25 -171 24 -251t176 -80
q136 0 213.5 85.5t101.5 258.5l119 845q3 28 32 28h164z" />
    <glyph glyph-name="uogonek" unicode="&#x173;" 
d="M1118 948l-106 -734q-5 -34 7 -48t35 -12q15 2 23.5 -8.5t5.5 -29.5l-12 -70q-6 -37 -58 -53h-3q-14 -4 -22 -5q-78 -18 -122 -59.5t-44 -94.5q0 -54 38.5 -79.5t111.5 -9.5v-141q-41 -18 -96 -18.5t-108 16.5t-90 66t-37 122q0 85 53 148.5t137 103.5q-30 46 -18 129
h-16q-39 -83 -126.5 -136.5t-204.5 -53.5q-162 0 -253 111t-63 305l79 555q3 28 32 28h155q33 0 28 -32l-76 -531q-16 -119 35 -177t140 -58q97 0 166 57t112 141l82 575q3 25 34 25h153q33 0 28 -32z" />
    <glyph glyph-name="Wcircumflex" unicode="&#x174;" 
d="M791 1724l-183 -166q-14 -14 -38 -14h-165q-20 0 -25 10.5t10 25.5l267 261q15 15 38 15h220q24 0 36 -18l190 -258q11 -15 5.5 -25.5t-23.5 -10.5h-164q-21 0 -36 18zM1073 1374q6 26 33 26h149q16 0 23 -9t3 -24l-352 -1341q-6 -26 -33 -26h-199q-30 0 -30 30l1 830
l-234 -834q-8 -26 -34 -26h-199q-30 0 -30 30l25 1341q1 29 31 29h147q29 0 29 -31l-45 -1081l303 1086q8 26 34 26h90q30 0 30 -30l-2 -1082z" />
    <glyph glyph-name="wcircumflex" unicode="&#x175;" 
d="M731 1304l-183 -166q-14 -14 -38 -14h-165q-20 0 -25 10.5t10 25.5l267 261q15 15 38 15h220q24 0 36 -18l190 -258q11 -15 5.5 -25.5t-23.5 -10.5h-164q-21 0 -36 18zM1176 980q30 0 30 -30q-1 -153 -17 -292.5t-50 -265.5t-83.5 -218t-122.5 -146t-162 -54
q-138 0 -188 114q-87 -115 -229 -115q-125 0 -188 82.5t-40 240.5l73 505h-59q-31 0 -28 32l17 119q3 28 32 28h238q13 0 22 -11t7 -25l-94 -633q-22 -134 72 -134q98 0 119 129l93 646q3 28 32 28h128q31 0 28 -32l-87 -647q-9 -61 1 -92.5t47 -31.5q67 0 121.5 110.5
t83.5 287t29 375.5q0 30 30 30h145z" />
    <glyph glyph-name="Ycircumflex" unicode="&#x176;" 
d="M406 1544q-20 0 -25 10.5t10 25.5l267 261q15 15 38 15h220q24 0 36 -18l190 -258q10 -15 5 -25.5t-23 -10.5h-164q-21 0 -36 18l-132 162l-183 -166q-14 -14 -38 -14h-165zM1261 1400q18 0 23.5 -10t-4.5 -26l-544 -811l-74 -525q-3 -28 -32 -28h-164q-31 0 -28 32
l75 527l-316 807q-6 16 0.5 25t23.5 9h171q27 0 35 -24l223 -608l402 612q12 20 37 20h172z" />
    <glyph glyph-name="ycircumflex" unicode="&#x177;" 
d="M345 1124q-20 0 -25 10.5t10 25.5l267 261q15 15 38 15h220q24 0 36 -18l190 -258q11 -15 5.5 -25.5t-23.5 -10.5h-164q-21 0 -36 18l-132 162l-183 -166q-14 -14 -38 -14h-165zM1112 980q33 0 28 -32l-127 -868q-17 -116 -58.5 -203t-93 -137t-120.5 -80.5t-130.5 -40
t-133.5 -9.5q-188 0 -301 71.5t-115 217.5q0 30 30 30h144q23 0 32 -27q17 -62 73.5 -86.5t148.5 -24.5q131 0 209.5 65.5t100.5 223.5l18 125h-3q-42 -82 -125.5 -130.5t-202.5 -48.5q-169 0 -258 101t-60 300l77 525q4 28 32 28h154q33 0 28 -32l-71 -501q-9 -65 0.5 -110
t36.5 -68t58.5 -32.5t73.5 -9.5q106 0 178 57.5t114 140.5l76 530q3 25 34 25h153zM887 533q1 1 1 4z" />
    <glyph glyph-name="Ydieresis" unicode="&#x178;" 
d="M589 1611q-47 0 -80.5 34t-33.5 82q0 46 33.5 79.5t80.5 33.5t80.5 -33.5t33.5 -79.5q0 -48 -33.5 -82t-80.5 -34zM993 1611q-47 0 -80.5 34t-33.5 82q0 46 33.5 79.5t80.5 33.5t81 -33.5t34 -79.5q0 -49 -34 -82.5t-81 -33.5zM1261 1400q18 0 23.5 -10t-4.5 -26
l-544 -811l-74 -525q-3 -28 -32 -28h-164q-31 0 -28 32l75 527l-316 807q-6 16 0.5 25t23.5 9h171q27 0 35 -24l223 -608l402 612q12 20 37 20h172z" />
    <glyph glyph-name="Zacute" unicode="&#x179;" 
d="M697 1510q-18 0 -23.5 10.5t3.5 25.5l159 254q11 20 36 20h131q18 0 23.5 -10.5t-3.5 -25.5l-158 -254q-11 -20 -36 -20h-132zM930 1199h-648q-31 0 -28 32l20 141q3 28 32 28h870q33 0 28 -32l-23 -155q-3 -24 -16 -38l-828 -974h690q32 0 28 -32l-19 -141
q-3 -28 -32 -28h-910q-31 0 -28 32l21 155q4 26 16 38z" />
    <glyph glyph-name="zacute" unicode="&#x17a;" 
d="M637 1090q-18 0 -23.5 10.5t3.5 25.5l159 254q11 20 36 20h131q18 0 23.5 -10.5t-3.5 -25.5l-158 -254q-11 -20 -36 -20h-132zM1110 944l-18 -127q-4 -26 -15 -37l-678 -601h600q34 0 28 -32l-17 -119q-3 -28 -32 -28h-828q-13 0 -22.5 11t-7.5 25l18 127q4 26 15 37
l678 601h-600q-34 0 -28 32l17 119q3 28 32 28h828q13 0 22.5 -11t7.5 -25z" />
    <glyph glyph-name="Zdotaccent" unicode="&#x17b;" 
d="M789 1601q-47 0 -81 33.5t-34 82.5q0 46 34 79.5t81 33.5t80.5 -33.5t33.5 -79.5q0 -48 -33.5 -82t-80.5 -34zM930 1199h-648q-31 0 -28 32l20 141q3 28 32 28h870q33 0 28 -32l-23 -155q-3 -24 -16 -38l-828 -974h690q32 0 28 -32l-19 -141q-3 -28 -32 -28h-910
q-31 0 -28 32l21 155q4 26 16 38z" />
    <glyph glyph-name="zdotaccent" unicode="&#x17c;" 
d="M729 1181q-47 0 -81 33.5t-34 82.5q0 46 34 79.5t81 33.5t80.5 -33.5t33.5 -79.5q0 -48 -33.5 -82t-80.5 -34zM1110 944l-18 -127q-4 -26 -15 -37l-678 -601h600q34 0 28 -32l-17 -119q-3 -28 -32 -28h-828q-13 0 -22.5 11t-7.5 25l18 127q4 26 15 37l678 601h-600
q-34 0 -28 32l17 119q3 28 32 28h828q13 0 22.5 -11t7.5 -25z" />
    <glyph glyph-name="Zcaron" unicode="&#x17d;" 
d="M778 1677l183 165q14 14 38 14h163q20 0 25 -11t-9 -25l-265 -261q-15 -15 -38 -15h-220q-24 0 -36 18l-193 258q-11 15 -5 25.5t24 10.5h165q21 0 36 -18zM930 1199h-648q-31 0 -28 32l20 141q3 28 32 28h870q33 0 28 -32l-23 -155q-3 -24 -16 -38l-828 -974h690
q32 0 28 -32l-19 -141q-3 -28 -32 -28h-910q-31 0 -28 32l21 155q4 26 16 38z" />
    <glyph glyph-name="zcaron" unicode="&#x17e;" 
d="M718 1257l183 165q14 14 38 14h163q20 0 25 -11t-9 -25l-265 -261q-15 -15 -38 -15h-220q-24 0 -36 18l-193 258q-11 15 -5 25.5t24 10.5h165q21 0 36 -18zM1110 944l-18 -127q-4 -26 -15 -37l-678 -601h600q34 0 28 -32l-17 -119q-3 -28 -32 -28h-828q-13 0 -22.5 11
t-7.5 25l18 127q4 26 15 37l678 601h-600q-34 0 -28 32l17 119q3 28 32 28h828q13 0 22.5 -11t7.5 -25z" />
    <glyph glyph-name="florin" unicode="&#x192;" 
d="M1017 1472q95 0 183 -20.5t84 -50.5l-17 -113q-3 -27 -32 -21q-5 1 -25.5 5.5t-35.5 7.5t-44.5 6t-61.5 3q-113 0 -180 -52.5t-85 -185.5l-10 -71h363q31 0 28 -32l-17 -119q-3 -28 -32 -28h-367l-60 -423q-16 -113 -55 -191.5t-98 -120t-124.5 -59t-149.5 -17.5
q-93 0 -181 20.5t-84 50.5l16 110q4 29 32 23q3 -1 25.5 -6t37.5 -7.5t46.5 -5t65.5 -2.5q108 0 173.5 53t83.5 185l55 390h-381q-32 0 -28 32l17 119q3 28 32 28h385l15 105q16 113 55 191t98 119.5t124.5 59t148.5 17.5z" />
    <glyph glyph-name="uni01CD" unicode="&#x1cd;" 
d="M1162 1856q20 0 25 -11t-9 -25l-265 -261q-15 -15 -38 -15h-220q-24 0 -36 18l-193 258q-11 15 -5 25.5t24 10.5h165q21 0 36 -18l132 -161l183 165q14 14 38 14h163zM913 1372l186 -1340q3 -32 -28 -32h-166q-27 0 -32 28l-31 245h-510l-102 -249q-10 -24 -35 -24h-170
q-17 0 -23.5 9.5t0.5 25.5l563 1342q9 23 34 23h282q28 0 32 -28zM410 466h407l-89 703h-31z" />
    <glyph glyph-name="uni01CE" unicode="&#x1ce;" 
d="M564 1142l-193 258q-11 15 -5 25.5t24 10.5h165q21 0 36 -18l132 -161l183 165q14 14 38 14h163q20 0 25 -11t-9 -25l-265 -261q-15 -15 -38 -15h-220q-24 0 -36 18zM1154 948l-107 -734q-4 -34 8 -48t34 -12q15 2 23.5 -8.5t5.5 -29.5l-11 -70q-5 -27 -36 -43.5
t-79 -16.5q-64 0 -94.5 42.5t-28.5 112.5h-15q-44 -73 -127.5 -120t-193.5 -47q-189 0 -307 122.5t-118 334.5q0 163 69.5 294.5t187 204t257.5 72.5q107 0 186 -41.5t116 -109.5h16l34 104q8 25 34 25h118q33 0 28 -32zM572 173q94 0 167.5 52t111.5 134t38 176
q0 132 -71.5 200t-181.5 68q-139 0 -229.5 -100t-90.5 -261q0 -128 70 -198.5t186 -70.5z" />
    <glyph glyph-name="uni01CF" unicode="&#x1cf;" 
d="M778 1677l183 165q14 14 38 14h163q20 0 25 -11t-9 -25l-265 -261q-15 -15 -38 -15h-220q-24 0 -36 18l-193 258q-11 15 -5 25.5t24 10.5h165q21 0 36 -18zM1197 1227q-3 -28 -32 -28h-338l-140 -998h334q34 0 28 -32l-20 -141q-3 -28 -32 -28h-898q-31 0 -28 32l20 141
q3 28 32 28h340l140 998h-336q-31 0 -28 32l20 141q3 28 32 28h898q34 0 28 -32z" />
    <glyph glyph-name="uni01D0" unicode="&#x1d0;" 
d="M719 1257l183 165q14 14 38 14h163q20 0 25 -11t-9 -25l-265 -261q-15 -15 -38 -15h-220q-24 0 -36 18l-193 258q-11 15 -5 25.5t24 10.5h165q21 0 36 -18zM1106 151q10 -21 -6 -40q-45 -49 -134.5 -90t-197.5 -41q-51 0 -95.5 8.5t-89 28t-76 51t-55 79t-27.5 111
t7 146.5l63 395h-369q-15 0 -22.5 8.5t-5.5 23.5l17 121q4 28 32 28h557q32 0 27 -32l-83 -537q-6 -52 -5 -90t13.5 -65t27.5 -44.5t37 -27.5t41.5 -13.5t41.5 -3.5q104 0 208 85q12 11 26.5 9.5t22.5 -17.5z" />
    <glyph glyph-name="uni01D1" unicode="&#x1d1;" 
d="M778 1677l183 165q14 14 38 14h163q20 0 25 -11t-9 -25l-265 -261q-15 -15 -38 -15h-220q-24 0 -36 18l-193 258q-11 15 -5 25.5t24 10.5h165q21 0 36 -18zM736 1420q93 0 161.5 -13.5t122.5 -45.5t87 -82.5t49.5 -125.5t15 -174.5t-19.5 -229.5l-17 -119
q-27 -195 -71.5 -322t-116.5 -202.5t-165.5 -105.5t-229.5 -30q-93 0 -161.5 13.5t-122.5 45.5t-87 83t-49.5 126t-15 174.5t19.5 229.5l16 119q27 195 71.5 321.5t117 202t166 105.5t229.5 30zM725 1205q-65 0 -110 -10t-86.5 -37.5t-70 -78.5t-51.5 -132.5t-39 -198.5
l-17 -118q-16 -118 -16.5 -197.5t11.5 -129t44 -75.5t70.5 -34.5t101.5 -8.5q65 0 110 10t86.5 37.5t70 78.5t51.5 132.5t40 198.5l16 118q16 118 17 197.5t-11 129t-44 75.5t-71 34.5t-102 8.5z" />
    <glyph glyph-name="uni01D2" unicode="&#x1d2;" 
d="M718 1257l183 165q14 14 38 14h163q20 0 25 -11t-9 -25l-265 -261q-15 -15 -38 -15h-220q-24 0 -36 18l-193 258q-11 15 -5 25.5t24 10.5h165q21 0 36 -18zM568 -26q-201 0 -330 132.5t-129 333.5q0 155 75.5 284.5t202 203.5t274.5 74q201 0 330.5 -131.5t129.5 -331.5
q0 -154 -74 -284t-201 -205.5t-278 -75.5zM579 173q140 0 236.5 99.5t96.5 259.5q0 121 -73.5 196t-188.5 75q-141 0 -237 -101t-96 -258q0 -121 73.5 -196t188.5 -75z" />
    <glyph glyph-name="uni01D3" unicode="&#x1d3;" 
d="M778 1677l183 165q14 14 38 14h163q20 0 25 -11t-9 -25l-265 -261q-15 -15 -38 -15h-220q-24 0 -36 18l-193 258q-11 15 -5 25.5t24 10.5h165q21 0 36 -18zM1192 1400q31 0 28 -32l-120 -854q-40 -280 -175 -412t-373 -132q-492 0 -413 557l119 845q3 28 32 28h164
q31 0 28 -32l-120 -854q-25 -171 24 -251t176 -80q136 0 213.5 85.5t101.5 258.5l119 845q3 28 32 28h164z" />
    <glyph glyph-name="uni01D4" unicode="&#x1d4;" 
d="M525 1142l-193 258q-11 15 -5 25.5t24 10.5h165q21 0 36 -18l132 -161l183 165q14 14 38 14h163q20 0 25 -11t-9 -25l-265 -261q-15 -15 -38 -15h-220q-24 0 -36 18zM1118 948l-106 -734q-5 -34 7 -48t35 -12q15 2 23.5 -8.5t5.5 -29.5l-12 -70q-5 -27 -35.5 -43.5
t-79.5 -16.5q-89 0 -122 51.5t-21 133.5h-16q-39 -83 -126.5 -136.5t-204.5 -53.5q-162 0 -253 111t-63 305l79 555q3 28 32 28h155q33 0 28 -32l-76 -531q-16 -119 35 -177t140 -58q97 0 166 57t112 141l82 575q3 25 34 25h153q33 0 28 -32z" />
    <glyph glyph-name="uni01EA" unicode="&#x1ea;" 
d="M736 1420q93 0 161.5 -13.5t122.5 -45.5t87 -82.5t49.5 -125.5t15 -174.5t-19.5 -229.5l-17 -119q-33 -240 -96.5 -380.5t-161.5 -204t-252 -73.5q-50 -23 -78.5 -61.5t-28.5 -80.5q0 -54 38.5 -79.5t111.5 -9.5v-141q-41 -18 -96 -18.5t-108.5 16.5t-90.5 66t-37 122
q0 110 93 191q-136 18 -208.5 87.5t-96 211.5t11.5 366l16 119q27 195 71.5 321.5t117 202t166 105.5t229.5 30zM936 760q16 118 17 197.5t-11 129t-44 75.5t-71 34.5t-102 8.5q-65 0 -110 -10t-86.5 -37.5t-70 -78.5t-51.5 -132.5t-39 -198.5l-17 -118
q-16 -118 -16.5 -197.5t11.5 -129t44 -75.5t70.5 -34.5t101.5 -8.5q65 0 110 10t86.5 37.5t70 78.5t51.5 132.5t40 198.5z" />
    <glyph glyph-name="uni01EB" unicode="&#x1eb;" 
d="M744 3q-88 -36 -132.5 -77t-44.5 -94q0 -52 38.5 -77.5t111.5 -9.5v-141q-41 -18 -96 -18.5t-108.5 16.5t-90.5 66t-37 122q0 110 96 191q-167 29 -269.5 155t-102.5 304q0 155 75.5 284.5t202 203.5t274.5 74q201 0 330.5 -131.5t129.5 -331.5q0 -185 -105 -332
t-272 -204zM317 444q0 -121 73.5 -196t188.5 -75q140 0 236.5 99.5t96.5 259.5q0 121 -73.5 196t-188.5 75q-141 0 -237 -101t-96 -258z" />
    <glyph glyph-name="Scommaaccent" unicode="&#x218;" 
d="M645 807q60 -14 104 -25.5t96.5 -30t90 -38.5t74.5 -49t60 -62.5t37 -79t14 -98.5q0 -224 -152 -337t-415 -113q-238 0 -359 85.5t-109 258.5q2 30 30 30h149q26 0 28 -34q3 -65 74.5 -102t197.5 -37q336 0 336 235q0 47 -15 79.5t-51.5 55.5t-80 37t-117.5 31
q-77 18 -134 37t-116 50t-96 69.5t-60.5 96t-23.5 128.5q0 204 137 313t375 109q226 0 344.5 -83t111.5 -251q-1 -31 -37 -31h-130q-34 0 -39 33q-7 63 -74.5 97.5t-180.5 34.5q-144 0 -218 -54t-74 -160q0 -79 51 -123t172 -72zM290 -341q-29 0 -25 30l16 113q3 26 29 26
h399q30 0 25 -30l-9 -66q-36 -268 -123 -421q-16 -27 -50 -27h-72q-16 0 -23 12t0 30q25 71 46.5 166.5t27.5 166.5h-241z" />
    <glyph glyph-name="scommaaccent" unicode="&#x219;" 
d="M643 568q52 -6 87 -11.5t85 -16t83 -23t70 -33.5t58.5 -46.5t36 -62t14.5 -81.5q0 -152 -134.5 -237t-356.5 -85q-218 0 -337.5 74.5t-112.5 239.5q1 28 28 28h148q26 0 28 -32q6 -130 253 -130q75 0 135 14t99.5 46t39.5 78q0 16 -4 29.5t-15 24t-20.5 18t-30.5 14.5
t-34 11.5t-42 9.5l-43.5 7.5t-48.5 7.5q-174 25 -245 50q-166 59 -177 204q-1 11 -1 23q0 144 123.5 228.5t338.5 84.5q204 0 315 -74.5t108 -235.5q0 -29 -31 -29h-140q-28 0 -30 31q-5 70 -63.5 99.5t-163.5 29.5q-109 0 -178 -34t-69 -100q0 -57 56 -82t171 -39z
M287 -341q-29 0 -25 30l16 113q3 26 29 26h399q30 0 25 -30l-9 -66q-36 -268 -123 -421q-16 -27 -50 -27h-72q-16 0 -23 12t0 30q25 71 46.5 166.5t27.5 166.5h-241z" />
    <glyph glyph-name="uni021A" unicode="&#x21a;" 
d="M1220 1400q32 0 28 -32l-20 -141q-3 -28 -32 -28h-369l-164 -1171q-3 -28 -32 -28h-164q-31 0 -28 32l164 1167h-366q-31 0 -28 32l20 141q3 28 32 28h959zM287 -341q-29 0 -25 30l16 113q3 26 29 26h399q30 0 25 -30l-9 -66q-36 -268 -123 -421q-16 -27 -50 -27h-72
q-16 0 -23 12t0 30q25 71 46.5 166.5t27.5 166.5h-241z" />
    <glyph glyph-name="uni021B" unicode="&#x21b;" 
d="M1147 980q31 0 28 -32l-18 -121q-3 -28 -32 -28h-469l-58 -388q-37 -244 169 -244q108 0 221 86q12 9 27 6.5t22 -16.5l45 -96q8 -18 -7 -35q-45 -48 -140 -90t-207 -42q-81 0 -146.5 20.5t-119 66.5t-76 132t-4.5 205l58 395h-300q-31 0 -28 32l18 121q3 28 32 28h305
l38 262q4 28 32 28h157q33 0 28 -32l-39 -258h464zM850 -172q30 0 25 -30l-9 -66q-36 -268 -123 -421q-16 -27 -50 -27h-72q-16 0 -23 12t0 30q25 71 46.5 166.5t27.5 166.5h-241q-29 0 -25 30l16 113q3 26 29 26h399z" />
    <glyph glyph-name="uni0237" unicode="&#x237;" 
d="M938 980q13 0 22.5 -11t7.5 -25l-129 -916q-57 -412 -461 -412q-59 0 -117 13.5t-99.5 33.5t-72.5 43t-43.5 42.5t-4.5 30.5l70 100q20 28 51 4q97 -73 218 -73q40 0 75.5 10.5t72 36t63 77.5t36.5 126l104 739h-425q-32 0 -28 32l17 121q4 28 32 28h611z" />
    <glyph glyph-name="circumflex" unicode="&#x2c6;" 
d="M733 1308l-183 -166q-14 -14 -38 -14h-165q-20 0 -25 10.5t10 25.5l267 261q15 15 38 15h220q24 0 36 -18l190 -258q11 -15 5.5 -25.5t-23.5 -10.5h-164q-21 0 -36 18z" />
    <glyph glyph-name="caron" unicode="&#x2c7;" 
d="M720 1261l183 165q14 14 38 14h163q20 0 25 -11t-9 -25l-265 -261q-15 -15 -38 -15h-220q-24 0 -36 18l-193 258q-11 15 -5 25.5t24 10.5h165q21 0 36 -18z" />
    <glyph glyph-name="breve" unicode="&#x2d8;" 
d="M903 1391q9 23 35 23h86q16 0 22.5 -12t2.5 -31q-28 -114 -117 -186.5t-219 -72.5q-137 0 -212.5 78.5t-68.5 192.5q3 31 29 31h86q27 0 30 -37q5 -54 41 -86t101 -32q69 0 117 38t67 94z" />
    <glyph glyph-name="dotaccent" unicode="&#x2d9;" 
d="M729 1181q-47 0 -81 33.5t-34 82.5q0 46 34 79.5t81 33.5t80.5 -33.5t33.5 -79.5q0 -48 -33.5 -82t-80.5 -34z" />
    <glyph glyph-name="ring" unicode="&#x2da;" 
d="M725 1468q80 0 135 -55.5t55 -133.5q0 -77 -55 -132.5t-135 -55.5q-81 0 -136 55.5t-55 132.5q0 78 55 133.5t136 55.5zM725 1214q29 0 49 18.5t19 47.5t-20 47.5t-48 18.5t-48.5 -18.5t-19.5 -47.5t19.5 -47.5t48.5 -18.5z" />
    <glyph glyph-name="ogonek" unicode="&#x2db;" 
d="M722 0q-92 -7 -147 -56.5t-55 -109.5q0 -54 38.5 -79.5t111.5 -9.5v-141q-41 -18 -96 -18.5t-108.5 16.5t-90.5 66t-37 122q0 50 19.5 94t52 76t72 58t83.5 42.5t83.5 25.5t73.5 12v-98z" />
    <glyph glyph-name="tilde" unicode="&#x2dc;" 
d="M580 1443q42 0 79.5 -14.5t64.5 -35t52.5 -40.5t54 -34.5t57.5 -14.5q65 0 90 59q6 17 22 17h56q9 0 15 -5.5t5 -14.5q-5 -89 -60 -137t-138 -48q-42 0 -79 14.5t-64.5 35t-53 40.5t-54 34.5t-57.5 14.5q-68 0 -91 -58q-6 -17 -22 -17h-57q-22 0 -19 25q11 88 63.5 133.5
t135.5 45.5z" />
    <glyph glyph-name="hungarumlaut" unicode="&#x2dd;" 
d="M408 1150q-18 0 -23.5 10.5t3.5 25.5l159 254q11 20 36 20h131q18 0 23.5 -10.5t-3.5 -25.5l-158 -254q-11 -20 -36 -20h-132zM742 1150q-18 0 -23.5 10.5t3.5 25.5l159 254q11 20 36 20h131q18 0 23.5 -10.5t-3.5 -25.5l-158 -254q-11 -20 -36 -20h-132z" />
    <glyph glyph-name="uni0326" unicode="&#x326;" horiz-adv-x="0" 
d="M-875 -341q-29 0 -25 30l16 113q3 26 29 26h399q30 0 25 -30l-9 -66q-36 -268 -123 -421q-16 -27 -50 -27h-72q-16 0 -23 12t0 30q25 71 46.5 166.5t27.5 166.5h-241z" />
    <glyph glyph-name="uni0394" unicode="&#x394;" 
d="M1098 32q5 -32 -28 -32h-1046q-17 0 -23 9.5t1 25.5l563 1342q9 23 34 23h282q28 0 32 -28zM696 1168l-404 -989h562l-126 989h-32z" />
    <glyph glyph-name="uni03A9" unicode="&#x3a9;" 
d="M909 203l-7 -24h219l-25 -179h-444l36 284q115 36 192.5 153.5t106.5 323.5q32 225 -27 333t-235 108q-184 0 -280.5 -115.5t-129.5 -349.5q-53 -387 160 -453l-35 -284h-444l25 179h218l10 30q-104 64 -142 207.5t-9 344.5q44 318 205.5 486.5t431.5 168.5
q278 0 397 -176t73 -503q-27 -195 -101 -332.5t-195 -201.5z" />
    <glyph glyph-name="uni03BC" unicode="&#x3bc;" 
d="M1118 948l-106 -734q-5 -34 7 -48t35 -12q15 2 23.5 -8.5t5.5 -29.5l-12 -70q-5 -27 -35.5 -43.5t-79.5 -16.5q-89 0 -122 51.5t-21 133.5h-16q-39 -83 -126.5 -136.5t-204.5 -53.5q-88 0 -155 33l-52 -370q-3 -24 -32 -24h-155q-13 0 -20 11t-5 25l98 693q1 13 5 48
l79 555q3 28 32 28h155q33 0 28 -32l-76 -531q-16 -119 35 -177t140 -58q97 0 166 57t112 141l82 575q3 25 34 25h153q33 0 28 -32z" />
    <glyph glyph-name="pi" unicode="&#x3c0;" 
d="M1186 980q33 0 28 -32l-17 -119q-3 -28 -32 -28h-142l-76 -540q-11 -80 57 -80q20 0 73 8q19 2 31.5 -10t10.5 -28l-17 -116q-8 -49 -158 -49q-112 0 -173 63.5t-42 193.5l78 558h-318l-108 -773q-4 -28 -32 -28h-156q-33 0 -28 32l108 769h-138q-32 0 -27 32l17 119
q3 28 32 28h1029z" />
    <glyph glyph-name="uni0401" unicode="&#x401;" 
d="M588 1611q-47 0 -80.5 34t-33.5 82q0 46 33.5 79.5t80.5 33.5t80.5 -33.5t33.5 -79.5q0 -48 -33.5 -82t-80.5 -34zM992 1611q-47 0 -80.5 34t-33.5 82q0 46 33.5 79.5t80.5 33.5t81 -33.5t34 -79.5q0 -49 -33.5 -82.5t-81.5 -33.5zM998 201q31 0 28 -32l-19 -141
q-3 -28 -32 -28h-851q-31 0 -28 32l188 1340q3 28 32 28h849q31 0 28 -32l-20 -141q-3 -28 -32 -28h-657l-52 -368h601q31 0 28 -32l-21 -142q-3 -28 -32 -28h-605l-60 -428h655z" />
    <glyph glyph-name="uni0403" unicode="&#x403;" 
d="M697 1510q-18 0 -23.5 10.5t3.5 25.5l159 254q11 20 36 20h131q18 0 23.5 -10.5t-3.5 -25.5l-158 -254q-11 -20 -36 -20h-132zM1177 1400q31 0 28 -32l-20 -141q-3 -28 -32 -28h-659l-164 -1171q-3 -28 -32 -28h-164q-31 0 -28 32l188 1340q3 28 32 28h851z" />
    <glyph glyph-name="uni0404" unicode="&#x404;" 
d="M1183 1030q1 -40 -38 -40h-140q-13 0 -22 10t-8 27q-7 45 -21.5 76t-34 49.5t-51 28.5t-64.5 13t-82 3q-75 0 -123.5 -14t-92 -55.5t-72.5 -121t-49 -205.5h495l-28 -202h-495q-11 -86 -13 -150t7 -109t24.5 -73.5t44 -45t61.5 -22.5t80 -6q128 0 200 36.5t116 141.5
q11 29 42 29h147q17 0 24 -12.5t2 -32.5q-65 -210 -191 -295t-344 -86q-90 0 -158 13.5t-121.5 45t-86.5 82t-50 125t-16.5 173.5t17.5 228l16 120q25 192 70.5 319t118 201.5t166 104.5t226.5 30q223 -1 330.5 -90.5t113.5 -295.5z" />
    <glyph glyph-name="uni0406" unicode="&#x406;" 
d="M1197 1227q-3 -28 -32 -28h-338l-140 -998h334q34 0 28 -32l-20 -141q-3 -28 -32 -28h-898q-31 0 -28 32l20 141q3 28 32 28h340l140 998h-336q-31 0 -28 32l20 141q3 28 32 28h898q34 0 28 -32z" />
    <glyph glyph-name="uni0407" unicode="&#x407;" 
d="M588 1611q-47 0 -80.5 34t-33.5 82q0 46 33.5 79.5t80.5 33.5t80.5 -33.5t33.5 -79.5q0 -48 -33.5 -82t-80.5 -34zM992 1611q-47 0 -80.5 34t-33.5 82q0 46 33.5 79.5t80.5 33.5t81 -33.5t34 -79.5q0 -49 -33.5 -82.5t-81.5 -33.5zM1197 1227q-3 -28 -32 -28h-338
l-140 -998h334q34 0 28 -32l-20 -141q-3 -28 -32 -28h-898q-31 0 -28 32l20 141q3 28 32 28h340l140 998h-336q-31 0 -28 32l20 141q3 28 32 28h898q34 0 28 -32z" />
    <glyph glyph-name="uni0410" unicode="&#x410;" 
d="M1099 32q3 -32 -28 -32h-166q-27 0 -32 28l-31 245h-510l-102 -249q-10 -24 -35 -24h-170q-17 0 -23.5 9.5t0.5 25.5l563 1342q9 23 34 23h282q28 0 32 -28zM410 466h407l-89 703h-31z" />
    <glyph glyph-name="uni0411" unicode="&#x411;" 
d="M705 897q130 0 216 -30t130.5 -88.5t57 -144t-4.5 -197.5q-16 -112 -49 -190t-92 -135.5t-151.5 -84.5t-222.5 -27h-476q-31 0 -28 32l188 1340q3 28 32 28h702q31 0 28 -32l-20 -141q-4 -28 -32 -28h-510l-43 -302h275zM891 460q6 46 6.5 80.5t-4.5 60t-18.5 42.5
t-29 27.5t-41.5 16t-52 7.5t-65 2h-286l-69 -495h276q67 0 110 9t80 36t59 79t34 135z" />
    <glyph glyph-name="uni0412" unicode="&#x412;" 
d="M878 751q229 -53 229 -291q0 -241 -138 -350.5t-404 -109.5h-478q-32 0 -27 32l188 1340q4 28 32 28h488q97 0 168.5 -23t112 -64.5t59.5 -93t19 -113.5q0 -270 -249 -355zM448 1199l-51 -364h271q116 0 180.5 64t64.5 171q0 71 -42.5 100t-141.5 29h-281zM585 201
q150 0 225 67t75 207q0 85 -53.5 128t-174.5 43h-287l-63 -445h278z" />
    <glyph glyph-name="uni0413" unicode="&#x413;" 
d="M1177 1400q31 0 28 -32l-20 -141q-3 -28 -32 -28h-659l-164 -1171q-3 -28 -32 -28h-164q-31 0 -28 32l188 1340q3 28 32 28h851z" />
    <glyph glyph-name="uni0414" unicode="&#x414;" 
d="M1138 1400q31 0 28 -32l-165 -1167h121q31 0 28 -32l-40 -279q-3 -28 -32 -28h-149q-15 0 -22.5 8.5t-5.5 23.5l15 106h-740l-15 -110q-3 -28 -32 -28h-150q-31 0 -28 32l40 279q3 28 32 28h10q88 0 145.5 59t74.5 180l131 932q3 28 32 28h722zM385 201h392l140 998h-333
l-109 -776q-19 -136 -90 -222z" />
    <glyph glyph-name="uni0415" unicode="&#x415;" 
d="M998 201q31 0 28 -32l-19 -141q-3 -28 -32 -28h-851q-31 0 -28 32l188 1340q3 28 32 28h849q31 0 28 -32l-20 -141q-3 -28 -32 -28h-657l-52 -368h601q31 0 28 -32l-21 -142q-3 -28 -32 -28h-605l-60 -428h655z" />
    <glyph glyph-name="uni0416" unicode="&#x416;" 
d="M1258 1400q18 0 24 -10t-4 -26l-373 -581l212 -749q9 -34 -25 -34h-145q-27 0 -33 26l-144 538l-52 -83l-64 -453q-4 -28 -32 -28h-149q-32 0 -28 32l66 472l-21 60l-300 -543q-10 -21 -36 -21h-146q-18 0 -24.5 10t2.5 26l424 747l-206 583q-11 34 24 34h146
q26 0 33 -25l155 -510l71 507q4 28 32 28h149q32 0 28 -32l-70 -501l300 512q11 21 36 21h150z" />
    <glyph glyph-name="uni0417" unicode="&#x417;" 
d="M895 738q100 -40 160 -118.5t60 -189.5q0 -139 -78 -244t-207 -158.5t-288 -53.5q-221 0 -343 105.5t-97 295.5q4 26 32 29l149 12q16 2 23 -10.5t6 -29.5q-6 -102 61 -153.5t189 -51.5q150 0 240.5 74t90.5 191q0 200 -335 211q-33 0 -30 32l12 110q3 28 31 28
q177 6 276 73t99 169q0 76 -62.5 118.5t-163.5 42.5q-121 0 -201.5 -61t-100.5 -166q-8 -24 -36 -20l-144 19q-31 3 -25 43q25 178 165 279.5t355 101.5q189 0 306 -86.5t117 -237.5q0 -118 -70.5 -209t-190.5 -145z" />
    <glyph glyph-name="uni0418" unicode="&#x418;" 
d="M965 1380q13 20 36 20h201q31 0 28 -32l-188 -1340q-3 -28 -32 -28h-146q-31 0 -28 32l146 1028l-659 -1040q-13 -20 -36 -20h-199q-31 0 -28 32l188 1340q3 28 32 28h146q31 0 28 -32l-147 -1026z" />
    <glyph glyph-name="uni0419" unicode="&#x419;" 
d="M959 1809q9 23 35 23h86q16 0 22.5 -12t2.5 -31q-28 -114 -117 -186.5t-219 -72.5q-137 0 -212.5 78.5t-68.5 192.5q3 31 29 31h86q27 0 30 -37q5 -54 41 -86t101 -32q69 0 117 38t67 94zM965 1380q13 20 36 20h201q31 0 28 -32l-188 -1340q-3 -28 -32 -28h-146
q-31 0 -28 32l146 1028l-659 -1040q-13 -20 -36 -20h-199q-31 0 -28 32l188 1340q3 28 32 28h146q31 0 28 -32l-147 -1026z" />
    <glyph glyph-name="uni041A" unicode="&#x41a;" 
d="M1082 30q7 -12 2.5 -21t-19.5 -9h-181q-32 0 -46 25l-353 597l-152 -147l-63 -447q-3 -28 -32 -28h-164q-32 0 -28 32l187 1340q3 28 32 28h165q33 0 28 -32l-87 -594l604 607q19 19 52 19h199q19 0 24 -14t-9 -27l-596 -580z" />
    <glyph glyph-name="uni041B" unicode="&#x41b;" 
d="M1182 1400q31 0 28 -32l-188 -1340q-3 -28 -32 -28h-164q-31 0 -28 32l164 1167h-398l-113 -804q-29 -202 -135.5 -303.5t-275.5 -101.5q-28 0 -32 23l-26 154q-4 28 22 28q93 0 152.5 62.5t75.5 182.5l132 932q3 28 32 28h786z" />
    <glyph glyph-name="uni041C" unicode="&#x41c;" 
d="M92 0q-32 0 -27 32l188 1340q4 28 32 28h185q28 0 30 -29l73 -1126h13l391 1130q9 25 35 25h185q32 0 27 -32l-188 -1340q-4 -28 -32 -28h-129q-32 0 -27 32l126 902h-12l-324 -910q-8 -24 -34 -24h-111q-29 0 -31 29l-68 905h-14l-127 -906q-4 -28 -32 -28h-129z" />
    <glyph glyph-name="uni041D" unicode="&#x41d;" 
d="M1182 1400q32 0 27 -32l-188 -1340q-4 -28 -32 -28h-164q-32 0 -27 32l81 579h-494l-82 -583q-4 -28 -32 -28h-164q-32 0 -27 32l188 1340q4 28 32 28h164q32 0 27 -32l-78 -556h494l79 560q4 28 32 28h164z" />
    <glyph glyph-name="uni041E" unicode="&#x41e;" 
d="M736 1420q93 0 161.5 -13.5t122.5 -45.5t87 -82.5t49.5 -125.5t15 -174.5t-19.5 -229.5l-17 -119q-27 -195 -71.5 -322t-116.5 -202.5t-165.5 -105.5t-229.5 -30q-93 0 -161.5 13.5t-122.5 45.5t-87 83t-49.5 126t-15 174.5t19.5 229.5l16 119q27 195 71.5 321.5t117 202
t166 105.5t229.5 30zM725 1205q-65 0 -110 -10t-86.5 -37.5t-70 -78.5t-51.5 -132.5t-39 -198.5l-17 -118q-16 -118 -16.5 -197.5t11.5 -129t44 -75.5t70.5 -34.5t101.5 -8.5q65 0 110 10t86.5 37.5t70 78.5t51.5 132.5t40 198.5l16 118q16 118 17 197.5t-11 129t-44 75.5
t-71 34.5t-102 8.5z" />
    <glyph glyph-name="uni041F" unicode="&#x41f;" 
d="M1167 1400q31 0 28 -32l-188 -1340q-3 -28 -32 -28h-165q-31 0 -28 32l164 1167h-463l-163 -1171q-3 -28 -32 -28h-164q-31 0 -28 32l188 1340q3 28 32 28h851z" />
    <glyph glyph-name="uni0420" unicode="&#x420;" 
d="M776 1400q222 0 315.5 -81.5t93.5 -248.5q0 -290 -125 -428.5t-400 -138.5h-286l-66 -475q-4 -28 -32 -28h-164q-32 0 -27 32l188 1340q4 28 32 28h471zM679 704q164 0 227.5 84t63.5 266q0 91 -46.5 118t-165.5 27h-286l-69 -495h276z" />
    <glyph glyph-name="uni0421" unicode="&#x421;" 
d="M576 185q137 0 205.5 40.5t100.5 152.5q7 28 36 28h154q15 0 22 -12t3 -29q-51 -218 -177.5 -306.5t-359.5 -88.5q-92 0 -161 14t-123 45.5t-87.5 82.5t-51 126t-16 174.5t19.5 228.5l17 120q27 194 72 321t118 202t166.5 105.5t229.5 30.5q238 0 344 -93.5t97 -311.5
q0 -28 -30 -28h-146q-30 0 -32 41q-5 107 -57.5 141.5t-179.5 34.5q-63 0 -108.5 -10t-88.5 -38.5t-73 -78.5t-55 -131.5t-41 -197.5l-17 -118q-12 -83 -15 -147.5t1.5 -111.5t18.5 -80t32.5 -53.5t48 -32.5t60 -16t73.5 -4z" />
    <glyph glyph-name="uni0422" unicode="&#x422;" 
d="M1220 1400q32 0 28 -32l-20 -141q-3 -28 -32 -28h-369l-164 -1171q-3 -28 -32 -28h-164q-31 0 -28 32l164 1167h-366q-31 0 -28 32l20 141q3 28 32 28h959z" />
    <glyph glyph-name="uni0423" unicode="&#x423;" 
d="M1066 1380q12 20 37 20h172q18 0 24 -10t-4 -26l-888 -1344q-14 -20 -37 -20h-174q-18 0 -24 10t4 26l321 483l-305 847q-11 34 24 34h167q27 0 35 -24l223 -634z" />
    <glyph glyph-name="uni0424" unicode="&#x424;" 
d="M827 1263q98 0 171 -29t116 -81t68 -124t25.5 -158t-11.5 -183q-17 -122 -51.5 -217.5t-94 -173t-153.5 -119t-218 -41.5h-10l-15 -109q-3 -28 -32 -28h-146q-31 0 -28 32l15 105h-1q-98 0 -171.5 29t-116.5 81t-67.5 124t-25 158t11.5 183q75 551 517 551h11l15 109
q3 28 32 28h146q31 0 28 -32zM481 339h10l102 723h-1q-134 0 -198.5 -91t-91.5 -283q-15 -115 -9 -192.5t51 -117t137 -39.5zM987 712q16 115 10 192.5t-51 117.5t-137 40h-10l-101 -723q133 0 197.5 90.5t91.5 282.5z" />
    <glyph glyph-name="uni0425" unicode="&#x425;" 
d="M1231 1400q18 0 23 -10t-5 -26l-483 -661l309 -668q7 -16 0.5 -25.5t-23.5 -9.5h-172q-26 0 -36 23l-223 482l-356 -487q-11 -18 -37 -18h-185q-18 0 -23 10.5t6 25.5l497 680l-301 649q-7 16 0 25.5t24 9.5h171q26 0 36 -23l215 -463l342 468q12 18 37 18h184z" />
    <glyph glyph-name="uni0426" unicode="&#x426;" 
d="M1135 1400q31 0 28 -32l-165 -1167h115q31 0 28 -32l-40 -279q-3 -28 -32 -28h-151q-15 0 -22.5 8.5t-5.5 23.5l15 106h-772q-31 0 -28 32l188 1340q3 28 32 28h164q31 0 28 -32l-165 -1167h422l164 1171q4 28 32 28h165z" />
    <glyph glyph-name="uni0427" unicode="&#x427;" 
d="M1213 1400q31 0 28 -32l-188 -1340q-3 -28 -32 -28h-164q-31 0 -28 32l73 519q-170 -182 -411 -182q-176 0 -278.5 119.5t-75.5 312.5l80 571q3 28 32 28h164q31 0 28 -32l-77 -547q-17 -119 42.5 -176.5t166.5 -57.5q72 0 140.5 25t115 60.5t76 73t33.5 64.5l79 562
q3 28 32 28h164z" />
    <glyph glyph-name="uni0428" unicode="&#x428;" 
d="M1212 1400q31 0 28 -32l-188 -1340q-3 -28 -32 -28h-942q-31 0 -28 32l188 1340q3 28 32 28h139q31 0 28 -32l-165 -1167h203l165 1171q3 28 32 28h138q31 0 28 -32l-164 -1167h203l164 1171q3 28 32 28h139z" />
    <glyph glyph-name="uni0429" unicode="&#x429;" 
d="M1171 1400q32 0 28 -32l-164 -1167h78q31 0 28 -32l-40 -279q-3 -28 -32 -28h-151q-15 0 -22.5 8.5t-5.5 23.5l15 106h-827q-31 0 -28 32l188 1340q3 28 32 28h139q31 0 28 -32l-165 -1167h183l165 1171q3 28 32 28h138q31 0 28 -32l-164 -1167h182l165 1171q3 28 32 28
h138z" />
    <glyph glyph-name="uni042A" unicode="&#x42a;" 
d="M705 897q130 0 216.5 -30t130.5 -88.5t56.5 -144.5t-4.5 -198q-15 -111 -47.5 -189.5t-92 -135.5t-152 -84t-222.5 -27h-477q-32 0 -28 32l164 1167h-77q-31 0 -28 32l21 141q3 28 32 28h272q31 0 28 -32l-68 -471h276zM892 461q6 46 6 80.5t-4.5 59.5t-18 42t-29 27.5
t-42 16t-52.5 7.5t-65 2h-286l-69 -495h276q67 0 110 9t80.5 36.5t59.5 79.5t34 135z" />
    <glyph glyph-name="uni042B" unicode="&#x42b;" horiz-adv-x="1382" 
d="M543 897q127 0 209 -31t121 -90.5t49 -145t-8 -193.5q-12 -88 -32.5 -153t-57 -120.5t-89 -90t-130 -54t-179.5 -19.5h-328q-31 0 -28 32l188 1340q3 28 32 28h158q31 0 28 -32l-67 -471h134zM993 0q-31 0 -28 32l188 1340q3 28 32 28h158q31 0 28 -32l-188 -1340
q-3 -28 -32 -28h-158zM524 696h-143l-70 -495h134q63 0 103.5 10t72.5 38.5t50.5 79t29.5 131.5q7 52 8 88.5t-6 63.5t-19.5 43t-36.5 25.5t-52 12.5t-71 3z" />
    <glyph glyph-name="uni042C" unicode="&#x42c;" 
d="M705 897q130 0 216.5 -30t130.5 -88.5t56.5 -144.5t-4.5 -198q-15 -111 -47.5 -189.5t-92 -135.5t-152 -84t-222.5 -27h-477q-32 0 -28 32l188 1340q4 28 32 28h164q31 0 28 -32l-68 -471h276zM687 696h-286l-69 -495h276q67 0 110 9t80.5 36.5t59.5 79.5t34 135
q6 46 6 80.5t-4.5 59.5t-18 42t-29 27.5t-42 16t-52.5 7.5t-65 2z" />
    <glyph glyph-name="uni042D" unicode="&#x42d;" 
d="M732 1416q90 0 157.5 -13.5t121 -45t86.5 -82.5t50.5 -125t17 -173.5t-17.5 -227.5l-16 -120q-20 -154 -54 -265.5t-81.5 -187t-114.5 -120.5t-146.5 -63.5t-185.5 -18.5q-223 1 -330 91.5t-113 301.5q0 33 31 33h144q28 0 33 -38q7 -45 21.5 -75.5t34 -49t51.5 -28.5
t64.5 -13t81.5 -3q75 0 124.5 14.5t93.5 57t72.5 124t48.5 210.5h-470q-31 0 -28 32l20 142q3 28 32 28h473q9 75 11 132.5t-2 99.5t-17 71t-29.5 47.5t-43.5 28.5t-55.5 13.5t-68.5 3.5q-128 0 -200 -36.5t-115 -140.5q-10 -30 -44 -30h-147q-17 0 -24.5 12.5t-0.5 32.5
q66 210 191.5 295t343.5 86z" />
    <glyph glyph-name="uni042E" unicode="&#x42e;" 
d="M873 1416q71 0 124.5 -14t97 -45.5t70.5 -82.5t41 -125.5t11 -175.5t-21 -230l-15 -108q-27 -193 -69.5 -322t-105 -203.5t-137.5 -105t-179 -30.5q-84 0 -144.5 18.5t-106.5 62.5t-67 115.5t-26.5 178t14.5 250.5h-85l-80 -571q-4 -28 -32 -28h-130q-33 0 -28 32
l189 1340q4 28 32 28h130q32 0 27 -32l-80 -567h86q28 180 69.5 299.5t102.5 189t135 98t177 28.5zM1001 755q16 113 17.5 194t-8 128.5t-32.5 75t-50 36t-66 8.5q-42 0 -74 -10t-65 -39t-58 -78.5t-48 -131.5t-39 -196l-15 -107q-16 -113 -17.5 -194t8 -129t32.5 -75
t49.5 -35.5t65.5 -8.5q42 0 74.5 10t65.5 39t58.5 78.5t48 132t38.5 195.5z" />
    <glyph glyph-name="uni042F" unicode="&#x42f;" horiz-adv-x="1203" 
d="M1164 1400q31 0 28 -32l-188 -1340q-3 -28 -32 -28h-164q-31 0 -28 32l65 471h-163l-386 -485q-15 -18 -36 -18h-183q-18 0 -24 10.5t6 25.5l382 476q-176 27 -236.5 138t-33.5 313q16 112 49 190t92 135.5t151.5 84.5t222.5 27h478zM874 704l70 495h-277q-67 0 -110 -9
t-80 -36t-59 -79t-34 -135q-6 -46 -6.5 -80.5t4.5 -59.5t18 -42.5t29 -28t42 -16t52.5 -7.5t64.5 -2h286z" />
    <glyph glyph-name="uni0430" unicode="&#x430;" 
d="M1154 948l-107 -734q-4 -34 8 -48t34 -12q15 2 23.5 -8.5t5.5 -29.5l-11 -70q-5 -27 -36 -43.5t-79 -16.5q-64 0 -94.5 42.5t-28.5 112.5h-15q-44 -73 -127.5 -120t-193.5 -47q-189 0 -307 122.5t-118 334.5q0 163 69.5 294.5t187 204t257.5 72.5q107 0 186 -41.5
t116 -109.5h16l34 104q8 25 34 25h118q33 0 28 -32zM572 173q94 0 167.5 52t111.5 134t38 176q0 132 -71.5 200t-181.5 68q-139 0 -229.5 -100t-90.5 -261q0 -128 70 -198.5t186 -70.5z" />
    <glyph glyph-name="uni0431" unicode="&#x431;" 
d="M730 1001q141 0 236.5 -70t132.5 -188t16 -267q-31 -218 -169.5 -359.5t-339.5 -141.5q-207 0 -312 157l-23 -105q-3 -15 -9.5 -21t-21.5 -6h-141q-31 0 -28 32l142 1017q26 184 114 267.5t256 83.5h228q69 0 100.5 9.5t55.5 32.5h181q-11 -58 -34.5 -100t-54.5 -67.5
t-74.5 -40.5t-88.5 -20.5t-104 -5.5h-177q-86 0 -130.5 -43t-56.5 -129l-26 -196l16 1q116 160 312 160zM911 502q20 141 -38.5 222t-192.5 81q-132 0 -223 -90t-111 -237q-20 -139 40.5 -223t184.5 -84q141 0 229.5 90.5t110.5 240.5z" />
    <glyph glyph-name="uni0432" unicode="&#x432;" 
d="M922 519q88 -17 139.5 -77t51.5 -140t-37 -139.5t-102.5 -94t-148.5 -51.5t-183 -17h-534q-31 0 -28 32l128 920q3 28 32 28h530q153 0 240.5 -63t87.5 -171q0 -83 -45.5 -141t-130.5 -86zM749 801h-345l-30 -209h327q111 0 155 33.5t44 91.5q0 41 -32.5 62.5
t-118.5 21.5zM655 179q259 0 259 146q0 52 -49 80.5t-176 28.5h-337l-36 -255h339z" />
    <glyph glyph-name="uni0433" unicode="&#x433;" 
d="M237 952q3 28 32 28h844q31 0 28 -32l-17 -119q-3 -28 -32 -28h-659l-108 -773q-3 -28 -32 -28h-156q-31 0 -28 32z" />
    <glyph glyph-name="uni0434" unicode="&#x434;" 
d="M1025 179h79q33 0 28 -32l-37 -260q-4 -28 -32 -28h-143q-15 0 -22.5 8.5t-5.5 23.5l17 109h-724l-17 -113q-4 -28 -32 -28h-143q-31 0 -28 32l40 272q5 27 32 29q94 9 154.5 71.5t75.5 176.5l72 512q3 28 32 28h733q32 0 28 -32zM474 423q-25 -171 -124 -244h466l87 622
h-376z" />
    <glyph glyph-name="uni0435" unicode="&#x435;" 
d="M774 402h-473q-2 -115 80 -182t227 -67q159 0 271 85q27 18 49 -6l58 -67q26 -28 0 -52q-151 -139 -405 -139q-222 0 -351.5 125.5t-129.5 321.5q0 116 45.5 223t122.5 185.5t185.5 125.5t228.5 47q105 0 189.5 -30.5t136.5 -82t79 -115.5t27 -135q0 -121 -75 -179
t-265 -58zM675 817q-123 0 -217.5 -70.5t-130.5 -188.5h381q124 0 170 16.5t45 74.5q-1 68 -66.5 118t-181.5 50z" />
    <glyph glyph-name="uni0436" unicode="&#x436;" 
d="M1186 980q18 0 24 -10.5t-6 -25.5l-323 -397l218 -512q7 -16 0.5 -25.5t-23.5 -9.5h-135q-25 0 -36 24l-152 366l-65 -79l-39 -283q-4 -28 -32 -28h-133q-32 0 -28 32l39 281l-42 79l-253 -373q-13 -19 -38 -19h-142q-18 0 -23 10.5t5 25.5l364 521l-206 387
q-8 15 -2 25.5t23 10.5h146q24 0 35 -22l173 -361l49 355q4 28 32 28h133q32 0 28 -32l-47 -338l268 352q15 18 36 18h152z" />
    <glyph glyph-name="uni0437" unicode="&#x437;" 
d="M893 514q80 -29 124.5 -84t44.5 -130q0 -81 -42 -145t-115 -102.5t-164 -58.5t-195 -20q-170 0 -283.5 41t-154.5 105q-24 35 1 56l71 60q23 19 55 -7q98 -73 300 -73q88 0 162 16.5t124.5 54t50.5 90.5q0 40 -29.5 64t-111.5 38t-227 16q-35 0 -32 30l7 93q3 28 33 28
q81 1 143.5 7.5t119 21t87 41.5t30.5 66q0 99 -228 99q-189 0 -318 -73q-18 -11 -37 -9t-31 17l-47 66q-26 33 7 60q62 51 178 85.5t273 34.5q191 0 297 -67.5t106 -179.5q0 -157 -199 -241z" />
    <glyph glyph-name="uni0438" unicode="&#x438;" 
d="M871 962q14 18 36 18h186q31 0 28 -32l-128 -920q-3 -28 -32 -28h-156q-31 0 -28 32l93 650l-511 -664q-14 -18 -36 -18h-186q-31 0 -28 32l128 920q3 28 32 28h156q31 0 28 -32l-93 -650z" />
    <glyph glyph-name="uni0439" unicode="&#x439;" 
d="M902 1389q9 23 35 23h86q16 0 22.5 -12t2.5 -31q-28 -114 -117 -186.5t-219 -72.5q-137 0 -212.5 78.5t-68.5 192.5q3 31 29 31h86q27 0 30 -37q5 -54 41 -86t101 -32q69 0 117 38t67 94zM871 962q14 18 36 18h186q31 0 28 -32l-128 -920q-3 -28 -32 -28h-156
q-31 0 -28 32l93 650l-511 -664q-14 -18 -36 -18h-186q-31 0 -28 32l128 920q3 28 32 28h156q31 0 28 -32l-93 -650z" />
    <glyph glyph-name="uni043A" unicode="&#x43a;" 
d="M1129 980q20 0 24.5 -11t-10.5 -25l-442 -389l382 -519q11 -15 5.5 -25.5t-23.5 -10.5h-192q-23 0 -36 18l-293 399l-221 -195l-27 -194q-3 -28 -32 -28h-156q-31 0 -28 32l128 920q3 28 32 28h156q31 0 28 -32l-64 -459l541 477q17 14 38 14h190z" />
    <glyph glyph-name="uni043B" unicode="&#x43b;" 
d="M1162 980q31 0 28 -32l-128 -920q-3 -28 -32 -28h-156q-31 0 -28 32l108 769h-442l-57 -406q-27 -194 -129.5 -297t-259.5 -108q-28 0 -33 27l-29 140q-5 31 26 34q83 9 141.5 73.5t73.5 175.5l72 512q3 28 32 28h813z" />
    <glyph glyph-name="uni043C" unicode="&#x43c;" 
d="M574 218l339 740q9 22 34 22h175q31 0 28 -32l-128 -920q-3 -28 -32 -28h-149q-31 0 -28 32l78 546l-252 -555q-9 -23 -35 -23h-110q-29 0 -33 27l-94 551l-78 -550q-3 -28 -32 -28h-149q-31 0 -28 32l128 920q3 28 32 28h174q29 0 33 -27z" />
    <glyph glyph-name="uni043D" unicode="&#x43d;" 
d="M1093 980q31 0 28 -32l-128 -920q-3 -28 -32 -28h-156q-31 0 -28 32l51 369h-451l-52 -373q-3 -28 -32 -28h-156q-31 0 -28 32l128 920q3 28 32 28h156q31 0 28 -32l-51 -369h451l52 373q3 28 32 28h156z" />
    <glyph glyph-name="uni043E" unicode="&#x43e;" 
d="M568 -26q-201 0 -330 132.5t-129 333.5q0 155 75.5 284.5t202 203.5t274.5 74q201 0 330.5 -131.5t129.5 -331.5q0 -154 -74 -284t-201 -205.5t-278 -75.5zM579 173q140 0 236.5 99.5t96.5 259.5q0 121 -73.5 196t-188.5 75q-141 0 -237 -101t-96 -258q0 -121 73.5 -196
t188.5 -75z" />
    <glyph glyph-name="uni043F" unicode="&#x43f;" 
d="M1093 980q31 0 28 -32l-128 -920q-3 -28 -32 -28h-156q-31 0 -28 32l108 769h-452l-108 -773q-3 -28 -32 -28h-156q-31 0 -28 32l128 920q3 28 32 28h824z" />
    <glyph glyph-name="uni0440" unicode="&#x440;" 
d="M789 1001q175 0 275.5 -117.5t100.5 -305.5q0 -120 -37.5 -229.5t-103.5 -192.5t-164 -132t-212 -49q-210 0 -315 152l-68 -479q-4 -28 -32 -28h-154q-32 0 -28 32l185 1300q4 28 32 28h143q13 0 22 -11t8 -25l-7 -103h18q120 160 337 160zM619 171q103 0 182 54.5
t118.5 142t39.5 191.5q0 116 -60.5 181t-169.5 65q-106 0 -188 -55t-123 -141t-41 -186q0 -118 64 -185t178 -67z" />
    <glyph glyph-name="uni0441" unicode="&#x441;" 
d="M1041 256q27 -18 9 -42q-75 -112 -193 -176t-259 -64q-201 0 -330 132.5t-129 333.5q0 155 75.5 284.5t202 203.5t274.5 74q138 0 245.5 -64.5t163.5 -176.5q12 -27 -14 -40l-128 -64q-25 -13 -40 13q-36 62 -98 97.5t-140 35.5q-141 0 -237 -101t-96 -258
q0 -121 73.5 -196t188.5 -75q178 0 282 143q17 23 41 8z" />
    <glyph glyph-name="uni0442" unicode="&#x442;" 
d="M1177 980q31 0 28 -32l-17 -119q-3 -28 -32 -28h-389l-108 -773q-3 -28 -32 -28h-156q-31 0 -28 32l108 769h-385q-32 0 -28 32l16 119q4 28 32 28h991z" />
    <glyph glyph-name="uni0443" unicode="&#x443;" 
d="M1112 980q33 0 28 -32l-127 -868q-17 -116 -58.5 -203t-93 -137t-120.5 -80.5t-130.5 -40t-133.5 -9.5q-188 0 -301 71.5t-115 217.5q0 30 30 30h144q23 0 32 -27q17 -62 73.5 -86.5t148.5 -24.5q131 0 209.5 65.5t100.5 223.5l18 125h-3q-42 -82 -125.5 -130.5
t-202.5 -48.5q-169 0 -258 101t-60 300l77 525q4 28 32 28h154q33 0 28 -32l-71 -501q-9 -65 0.5 -110t36.5 -68t58.5 -32.5t73.5 -9.5q106 0 178 57.5t114 140.5l76 530q3 25 34 25h153zM887 533q1 1 1 4z" />
    <glyph glyph-name="uni0444" unicode="&#x444;" 
d="M791 994q195 -29 282 -162t56 -356q-31 -220 -153.5 -346.5t-326.5 -150.5l-47 -331q-3 -28 -32 -28h-150q-31 0 -28 32l46 330q-195 29 -281.5 162t-55.5 356q31 220 153.5 346.5t326.5 150.5l53 375q3 28 32 28h150q31 0 28 -32zM937 500q19 137 -22 207t-151 89
l-87 -616q117 21 178.5 97t81.5 223zM293 476q-19 -138 22 -207.5t151 -88.5l87 616q-118 -21 -179 -97t-81 -223z" />
    <glyph glyph-name="uni0445" unicode="&#x445;" 
d="M1073 36q10 -16 4.5 -26t-23.5 -10h-183q-24 0 -36 19l-235 337l-337 -341q-14 -15 -37 -15h-183q-20 0 -24.5 11t9.5 25l466 469l-309 439q-10 16 -4.5 26t23.5 10h181q24 0 36 -19l214 -307l306 310q15 16 37 16h182q20 0 24.5 -11t-9.5 -25l-433 -439z" />
    <glyph glyph-name="uni0446" unicode="&#x446;" 
d="M1110 179q31 0 28 -32l-38 -260q-3 -28 -32 -28h-146q-31 0 -28 32l17 109h-774q-31 0 -28 32l128 920q3 28 32 28h156q31 0 28 -32l-108 -769h452l108 773q3 28 32 28h156q31 0 28 -32l-107 -769h96z" />
    <glyph glyph-name="uni0447" unicode="&#x447;" 
d="M1093 980q31 0 28 -32l-128 -920q-3 -28 -32 -28h-156q-31 0 -28 32l43 309q-148 -127 -333 -127q-78 0 -144 22t-118 67.5t-75 126.5t-8 189l46 333q3 28 32 28h156q31 0 28 -32l-47 -339q-32 -228 178 -228q168 0 312 157l58 414q3 28 32 28h156z" />
    <glyph glyph-name="uni0448" unicode="&#x448;" 
d="M1127 980q31 0 28 -32l-128 -920q-3 -28 -32 -28h-891q-31 0 -28 32l128 920q3 28 32 28h143q31 0 28 -32l-108 -769h178l108 773q3 28 32 28h128q31 0 28 -32l-108 -769h178l108 773q3 28 32 28h144z" />
    <glyph glyph-name="uni0449" unicode="&#x449;" 
d="M1127 980q31 0 28 -32l-107 -769h62q31 0 28 -32l-38 -260q-3 -28 -32 -28h-146q-31 0 -28 32l17 109h-807q-31 0 -28 32l128 920q3 28 32 28h143q31 0 28 -32l-108 -769h178l108 773q3 28 32 28h128q31 0 28 -32l-108 -769h178l108 773q3 28 32 28h144z" />
    <glyph glyph-name="uni044A" unicode="&#x44a;" 
d="M725 683q207 0 290.5 -86t58.5 -267q-24 -173 -126 -251.5t-309 -78.5h-502q-31 0 -28 32l107 769h-86q-32 0 -28 32l17 119q4 28 32 28h274q31 0 28 -32l-37 -265h309zM869 353q13 91 -17.5 126.5t-135.5 35.5h-323l-48 -346h312q105 0 151.5 43t60.5 141z" />
    <glyph glyph-name="uni044B" unicode="&#x44b;" 
d="M486 683q106 0 173.5 -21.5t102.5 -65t43 -110t-5 -156.5q-17 -121 -55.5 -189.5t-121.5 -104.5t-223 -36h-332q-31 0 -28 32l128 920q3 28 32 28h142q31 0 28 -32l-37 -265h153zM1162 980q31 0 28 -32l-128 -920q-3 -28 -32 -28h-142q-31 0 -28 32l128 920q3 28 32 28
h142zM417 169q96 0 136.5 42t54.5 142q9 58 2.5 94t-38 52t-96.5 16h-167l-48 -346h156z" />
    <glyph glyph-name="uni044C" unicode="&#x44c;" 
d="M725 683q207 0 290.5 -86t58.5 -267q-24 -173 -126 -251.5t-309 -78.5h-502q-31 0 -28 32l128 920q3 28 32 28h156q31 0 28 -32l-37 -265h309zM869 353q13 91 -17.5 126.5t-135.5 35.5h-323l-48 -346h312q105 0 151.5 43t60.5 141z" />
    <glyph glyph-name="uni044D" unicode="&#x44d;" 
d="M644 1002q225 0 354 -151t98 -375q-31 -215 -192.5 -358.5t-377.5 -143.5q-141 0 -244 61t-151 162q-16 31 16 47l96 53q27 16 50 -16q82 -108 230 -108q114 0 207 64t136 170h-292q-31 0 -28 32l14 102q3 28 32 28h302q-7 106 -78.5 170t-184.5 64q-164 0 -270 -125
q-20 -24 -51 -2l-100 71q-29 20 -6 51q77 96 192 150t248 54z" />
    <glyph glyph-name="uni044E" unicode="&#x44e;" 
d="M872 1002q403 0 330 -526q-16 -112 -47 -199.5t-83.5 -157.5t-134 -107.5t-189.5 -37.5q-364 0 -340 426h-116l-52 -372q-3 -28 -32 -28h-142q-31 0 -28 32l128 920q3 28 32 28h142q31 0 28 -32l-52 -371h115q86 425 441 425zM1010 500q21 147 -10 225t-136 78
q-113 0 -172.5 -85.5t-81.5 -241.5q-11 -91 -6.5 -158.5t42 -106t109.5 -38.5q209 0 255 327z" />
    <glyph glyph-name="uni044F" unicode="&#x44f;" 
d="M1093 980q31 0 28 -32l-128 -920q-3 -28 -32 -28h-156q-31 0 -28 32l42 296h-188l-323 -313q-15 -15 -38 -15h-174q-20 0 -25 10.5t10 25.5l316 300q-126 19 -184.5 82.5t-58.5 176.5q0 206 107.5 295.5t328.5 89.5h503zM527 497h315l44 315h-314q-114 0 -162.5 -47.5
t-48.5 -151.5q0 -65 38 -90.5t128 -25.5z" />
    <glyph glyph-name="uni0451" unicode="&#x451;" 
d="M441 1251q-47 0 -80.5 34t-33.5 82q0 46 33.5 79.5t80.5 33.5t80.5 -33.5t33.5 -79.5q0 -48 -33.5 -82t-80.5 -34zM845 1251q-47 0 -80.5 34t-33.5 82q0 46 33.5 79.5t80.5 33.5t81 -33.5t34 -79.5q0 -49 -34 -82.5t-81 -33.5zM774 402h-473q-2 -115 80 -182t227 -67
q159 0 271 85q27 18 49 -6l58 -67q26 -28 0 -52q-151 -139 -405 -139q-222 0 -351.5 125.5t-129.5 321.5q0 116 45.5 223t122.5 185.5t185.5 125.5t228.5 47q105 0 189.5 -30.5t136.5 -82t79 -115.5t27 -135q0 -121 -75 -179t-265 -58zM675 817q-123 0 -217.5 -70.5
t-130.5 -188.5h381q124 0 170 16.5t45 74.5q-1 68 -66.5 118t-181.5 50z" />
    <glyph glyph-name="uni0453" unicode="&#x453;" 
d="M638 1090q-18 0 -23.5 10.5t3.5 25.5l159 254q11 20 36 20h131q18 0 23.5 -10.5t-3.5 -25.5l-158 -254q-11 -20 -36 -20h-132zM237 952q3 28 32 28h844q31 0 28 -32l-17 -119q-3 -28 -32 -28h-659l-108 -773q-3 -28 -32 -28h-156q-31 0 -28 32z" />
    <glyph glyph-name="uni0454" unicode="&#x454;" 
d="M1100 761q12 -27 -14 -40l-128 -64q-25 -13 -40 13q-36 62 -98 97.5t-140 35.5q-110 0 -195 -63.5t-119 -170.5h305q33 0 28 -32l-15 -102q-4 -28 -32 -28h-303q11 -105 83 -169.5t177 -64.5q178 0 282 143q17 23 41 8l109 -68q27 -18 9 -42q-75 -112 -193 -176t-259 -64
q-201 0 -330 132.5t-129 333.5q0 155 75.5 284.5t202 203.5t274.5 74q138 0 245.5 -64.5t163.5 -176.5z" />
    <glyph glyph-name="uni0457" unicode="&#x457;" 
d="M529 1191q-47 0 -80.5 34t-33.5 82q0 46 33.5 79.5t80.5 33.5t80.5 -33.5t33.5 -79.5q0 -48 -33.5 -82t-80.5 -34zM933 1191q-47 0 -80.5 34t-33.5 82q0 46 33.5 79.5t80.5 33.5t81 -33.5t34 -79.5q0 -49 -34 -82.5t-81 -33.5zM1106 151q10 -21 -6 -40
q-45 -49 -134.5 -90t-197.5 -41q-51 0 -95.5 8.5t-89 28t-76 51t-55 79t-27.5 111t7 146.5l63 395h-369q-15 0 -22.5 8.5t-5.5 23.5l17 121q4 28 32 28h557q32 0 27 -32l-83 -537q-6 -52 -5 -90t13.5 -65t27.5 -44.5t37 -27.5t41.5 -13.5t41.5 -3.5q104 0 208 85
q12 11 26.5 9.5t22.5 -17.5z" />
    <glyph glyph-name="uni0490" unicode="&#x490;" 
d="M1191 1502q31 0 28 -32l-14 -97v-5l-20 -141q-3 -28 -32 -28h-659l-164 -1171q-3 -28 -32 -28h-164q-31 0 -28 32l188 1340q3 28 32 28h681l10 74q3 28 32 28h142z" />
    <glyph glyph-name="uni0491" unicode="&#x491;" 
d="M1131 1104q31 0 28 -32l-27 -189l-8 -54q-3 -28 -32 -28h-659l-108 -773q-3 -28 -32 -28h-156q-31 0 -28 32l128 920q3 28 32 28h661l13 96q3 28 32 28h156z" />
    <glyph glyph-name="Wgrave" unicode="&#x1e80;" 
d="M844 1544q10 -34 -24 -34h-130q-26 0 -34 24l-84 252q-10 34 24 34h129q26 0 34 -24zM1073 1374q6 26 33 26h149q16 0 23 -9t3 -24l-352 -1341q-6 -26 -33 -26h-199q-30 0 -30 30l1 830l-234 -834q-8 -26 -34 -26h-199q-30 0 -30 30l25 1341q1 29 31 29h147q29 0 29 -31
l-45 -1081l303 1086q8 26 34 26h90q30 0 30 -30l-2 -1082z" />
    <glyph glyph-name="wgrave" unicode="&#x1e81;" 
d="M784 1124q10 -34 -24 -34h-130q-26 0 -34 24l-84 252q-10 34 24 34h129q26 0 34 -24zM1176 980q30 0 30 -30q-1 -153 -17 -292.5t-50 -265.5t-83.5 -218t-122.5 -146t-162 -54q-138 0 -188 114q-87 -115 -229 -115q-125 0 -188 82.5t-40 240.5l73 505h-59q-31 0 -28 32
l17 119q3 28 32 28h238q13 0 22 -11t7 -25l-94 -633q-22 -134 72 -134q98 0 119 129l93 646q3 28 32 28h128q31 0 28 -32l-87 -647q-9 -61 1 -92.5t47 -31.5q67 0 121.5 110.5t83.5 287t29 375.5q0 30 30 30h145z" />
    <glyph glyph-name="Wacute" unicode="&#x1e82;" 
d="M697 1510q-18 0 -23.5 10.5t3.5 25.5l159 254q11 20 36 20h131q18 0 23.5 -10.5t-3.5 -25.5l-158 -254q-11 -20 -36 -20h-132zM1073 1374q6 26 33 26h149q16 0 23 -9t3 -24l-352 -1341q-6 -26 -33 -26h-199q-30 0 -30 30l1 830l-234 -834q-8 -26 -34 -26h-199
q-30 0 -30 30l25 1341q1 29 31 29h147q29 0 29 -31l-45 -1081l303 1086q8 26 34 26h90q30 0 30 -30l-2 -1082z" />
    <glyph glyph-name="wacute" unicode="&#x1e83;" 
d="M637 1090q-18 0 -23.5 10.5t3.5 25.5l159 254q11 20 36 20h131q18 0 23.5 -10.5t-3.5 -25.5l-158 -254q-11 -20 -36 -20h-132zM1176 980q30 0 30 -30q-1 -153 -17 -292.5t-50 -265.5t-83.5 -218t-122.5 -146t-162 -54q-138 0 -188 114q-87 -115 -229 -115
q-125 0 -188 82.5t-40 240.5l73 505h-59q-31 0 -28 32l17 119q3 28 32 28h238q13 0 22 -11t7 -25l-94 -633q-22 -134 72 -134q98 0 119 129l93 646q3 28 32 28h128q31 0 28 -32l-87 -647q-9 -61 1 -92.5t47 -31.5q67 0 121.5 110.5t83.5 287t29 375.5q0 30 30 30h145z" />
    <glyph glyph-name="Wdieresis" unicode="&#x1e84;" 
d="M588 1611q-47 0 -80.5 34t-33.5 82q0 46 33.5 79.5t80.5 33.5t80.5 -33.5t33.5 -79.5q0 -48 -33.5 -82t-80.5 -34zM992 1611q-47 0 -80.5 34t-33.5 82q0 46 33.5 79.5t80.5 33.5t81 -33.5t34 -79.5q0 -49 -33.5 -82.5t-81.5 -33.5zM1073 1374q6 26 33 26h149q16 0 23 -9
t3 -24l-352 -1341q-6 -26 -33 -26h-199q-30 0 -30 30l1 830l-234 -834q-8 -26 -34 -26h-199q-30 0 -30 30l25 1341q1 29 31 29h147q29 0 29 -31l-45 -1081l303 1086q8 26 34 26h90q30 0 30 -30l-2 -1082z" />
    <glyph glyph-name="wdieresis" unicode="&#x1e85;" 
d="M528 1191q-47 0 -80.5 34t-33.5 82q0 46 33.5 79.5t80.5 33.5t80.5 -33.5t33.5 -79.5q0 -48 -33.5 -82t-80.5 -34zM932 1191q-47 0 -80.5 34t-33.5 82q0 46 33.5 79.5t80.5 33.5t81 -33.5t34 -79.5q0 -49 -33.5 -82.5t-81.5 -33.5zM1176 980q30 0 30 -30
q-1 -153 -17 -292.5t-50 -265.5t-83.5 -218t-122.5 -146t-162 -54q-138 0 -188 114q-87 -115 -229 -115q-125 0 -188 82.5t-40 240.5l73 505h-59q-31 0 -28 32l17 119q3 28 32 28h238q13 0 22 -11t7 -25l-94 -633q-22 -134 72 -134q98 0 119 129l93 646q3 28 32 28h128
q31 0 28 -32l-87 -647q-9 -61 1 -92.5t47 -31.5q67 0 121.5 110.5t83.5 287t29 375.5q0 30 30 30h145z" />
    <glyph glyph-name="uni1E9E" unicode="&#x1e9e;" 
d="M751 822q194 -25 299.5 -119.5t105.5 -252.5q0 -215 -127 -345.5t-341 -130.5q-195 0 -280.5 92t-68.5 261q3 28 32 28h134q30 0 28 -32q-2 -73 39.5 -112.5t127.5 -39.5q108 0 171.5 76.5t63.5 191.5q0 215 -374 215q-18 0 -27.5 11t-7.5 25l18 140l318 379h-276
q-109 0 -160.5 -51.5t-66.5 -160.5l-136 -969q-4 -28 -32 -28h-164q-33 0 -28 32l140 993q29 206 130.5 295.5t318.5 89.5h610q19 0 24 -11t-7 -26z" />
    <glyph glyph-name="Ygrave" unicode="&#x1ef2;" 
d="M657 1534l-84 252q-10 34 24 34h129q26 0 34 -24l85 -252q10 -34 -24 -34h-130q-26 0 -34 24zM1261 1400q18 0 23.5 -10t-4.5 -26l-544 -811l-74 -525q-3 -28 -32 -28h-164q-31 0 -28 32l75 527l-316 807q-6 16 0.5 25t23.5 9h171q27 0 35 -24l223 -608l402 612
q12 20 37 20h172z" />
    <glyph glyph-name="ygrave" unicode="&#x1ef3;" 
d="M596 1114l-84 252q-10 34 24 34h129q26 0 34 -24l85 -252q10 -34 -24 -34h-130q-26 0 -34 24zM1112 980q33 0 28 -32l-127 -868q-17 -116 -58.5 -203t-93 -137t-120.5 -80.5t-130.5 -40t-133.5 -9.5q-188 0 -301 71.5t-115 217.5q0 30 30 30h144q23 0 32 -27
q17 -62 73.5 -86.5t148.5 -24.5q131 0 209.5 65.5t100.5 223.5l18 125h-3q-42 -82 -125.5 -130.5t-202.5 -48.5q-169 0 -258 101t-60 300l77 525q4 28 32 28h154q33 0 28 -32l-71 -501q-9 -65 0.5 -110t36.5 -68t58.5 -32.5t73.5 -9.5q106 0 178 57.5t114 140.5l76 530
q3 25 34 25h153zM887 533q1 1 1 4z" />
    <glyph glyph-name="endash" unicode="&#x2013;" 
d="M1095 649q31 0 28 -32l-16 -120q-3 -28 -32 -28h-920q-31 0 -28 32l16 120q3 28 32 28h920z" />
    <glyph glyph-name="emdash" unicode="&#x2014;" 
d="M1095 649q31 0 28 -32l-16 -120q-3 -28 -32 -28h-920q-31 0 -28 32l16 120q3 28 32 28h920z" />
    <glyph glyph-name="quoteleft" unicode="&#x2018;" 
d="M912 1088q32 0 27 -32l-17 -122q-4 -28 -32 -28h-430q-32 0 -27 32l10 71q40 289 132 454q17 29 54 29h78q17 0 24.5 -12.5t0.5 -32.5q-27 -75 -50 -178.5t-30 -180.5h260z" />
    <glyph glyph-name="quoteright" unicode="&#x2019;" 
d="M505 1221q-32 0 -27 32l17 122q4 28 32 28h430q32 0 27 -32l-10 -71q-40 -289 -132 -454q-17 -29 -54 -29h-78q-17 0 -24.5 12.5t-0.5 32.5q27 75 50 178.5t30 180.5h-260z" />
    <glyph glyph-name="quotesinglbase" unicode="&#x201a;" 
d="M333 0q-32 0 -27 32l17 122q4 28 32 28h430q32 0 27 -32l-10 -71q-40 -289 -132 -454q-17 -29 -54 -29h-78q-17 0 -24.5 12.5t-0.5 32.5q27 75 50 178.5t30 180.5h-260z" />
    <glyph glyph-name="quotedblleft" unicode="&#x201c;" 
d="M600 1074q30 0 25 -34l-16 -128q-3 -29 -29 -29h-393q-29 0 -25 34l9 74q37 306 121 477q16 30 49 30h72q15 0 22.5 -13.5t0.5 -33.5q-25 -77 -46 -185.5t-28 -191.5h238zM1180 1074q30 0 25 -34l-16 -128q-3 -29 -29 -29h-393q-29 0 -25 34l9 74q37 306 121 477
q16 30 49 30h72q15 0 22.5 -13.5t0.5 -33.5q-25 -77 -46 -185.5t-28 -191.5h238z" />
    <glyph glyph-name="quotedblright" unicode="&#x201d;" 
d="M234 1214q-30 0 -25 34l16 128q3 29 29 29h393q29 0 25 -34l-9 -74q-37 -306 -121 -477q-16 -30 -49 -30h-72q-15 0 -22.5 13.5t-0.5 33.5q25 77 46 185.5t28 191.5h-238zM814 1214q-30 0 -25 34l16 128q3 29 29 29h393q29 0 25 -34l-9 -74q-37 -306 -121 -477
q-16 -30 -49 -30h-72q-15 0 -22.5 13.5t-0.5 33.5q25 77 46 185.5t28 191.5h-238z" />
    <glyph glyph-name="quotedblbase" unicode="&#x201e;" 
d="M64 0q-30 0 -25 34l16 128q3 29 29 29h393q29 0 25 -34l-9 -74q-37 -306 -121 -477q-16 -30 -49 -30h-72q-15 0 -22.5 13.5t-0.5 33.5q25 77 46 185.5t28 191.5h-238zM644 0q-30 0 -25 34l16 128q3 29 29 29h393q29 0 25 -34l-9 -74q-37 -306 -121 -477q-16 -30 -49 -30
h-72q-15 0 -22.5 13.5t-0.5 33.5q25 77 46 185.5t28 191.5h-238z" />
    <glyph glyph-name="dagger" unicode="&#x2020;" 
d="M1094 1154q32 0 28 -32l-16 -108q-3 -28 -32 -28h-304l-43 -305q-3 -28 -32 -28h-108q-31 0 -28 32l43 301h-302q-31 0 -28 32l16 108q3 28 32 28h306l43 306q3 28 32 28h107q31 0 28 -32l-42 -302h300z" />
    <glyph glyph-name="daggerdbl" unicode="&#x2021;" 
d="M1095 1154q32 0 28 -32l-16 -108q-3 -28 -32 -28h-304l-43 -305l-3 -13l-39 -278h300q32 0 28 -32l-16 -108q-3 -28 -32 -28h-304l-43 -305q-3 -28 -32 -28h-108q-31 0 -28 32l43 301h-302q-31 0 -28 32l16 108q3 28 32 28h306l43 306q0 3 2 9l40 281h-302q-31 0 -28 32
l16 108q3 28 32 28h306l43 306q3 28 32 28h107q31 0 28 -32l-42 -302h300z" />
    <glyph glyph-name="bullet" unicode="&#x2022;" 
d="M624 322q-95 0 -162 67t-67 161t67 161t162 67q94 0 161 -67t67 -161t-67 -161t-161 -67z" />
    <glyph glyph-name="ellipsis" unicode="&#x2026;" 
d="M115 -27q-61 0 -104 42.5t-43 102.5q0 61 43 104t104 43q60 0 102.5 -43t42.5 -104q0 -60 -42.5 -102.5t-102.5 -42.5zM517 -27q-61 0 -104 42.5t-43 102.5q0 61 43 104t104 43q60 0 102.5 -43t42.5 -104q0 -60 -42.5 -102.5t-102.5 -42.5zM921 -27q-61 0 -104 42.5
t-43 102.5q0 61 43 104t104 43q60 0 102.5 -43t42.5 -104q0 -60 -42.5 -102.5t-102.5 -42.5z" />
    <glyph glyph-name="perthousand" unicode="&#x2030;" 
d="M433 1410q213 0 173 -288q-36 -265 -231 -265q-106 0 -149 74t-23 216q37 263 230 263zM430 1261q-44 0 -64.5 -33.5t-30.5 -105.5q-10 -59 -1 -87.5t44 -28.5q43 0 64 33.5t32 107.5q10 59 1 86.5t-45 27.5zM927 1145q21 -19 4 -42l-726 -895q-20 -25 -43 -3l-59 53
q-22 18 -4 42l725 894q20 25 43 3zM912 543q106 0 150 -73t24 -215q-38 -265 -231 -265q-87 0 -130 55q-56 -55 -141 -55q-105 0 -148.5 74.5t-23.5 215.5q36 263 229 263q90 0 132 -54q55 54 139 54zM588 139q43 0 64.5 34t31.5 107q8 63 -0.5 88.5t-45.5 25.5
q-43 0 -63.5 -33.5t-30.5 -105.5q-10 -59 -1 -87.5t45 -28.5zM859 139q43 0 64.5 34t31.5 107q8 63 -0.5 88.5t-45.5 25.5q-43 0 -63.5 -33.5t-30.5 -105.5q-10 -59 -1 -87.5t45 -28.5z" />
    <glyph glyph-name="guilsinglleft" unicode="&#x2039;" 
d="M900 980q18 0 24 -10.5t-6 -25.5l-312 -382l203 -382q7 -15 1 -25.5t-23 -10.5h-164q-25 0 -36 22l-202 374q-12 20 4 42l310 380q15 18 36 18h165z" />
    <glyph glyph-name="guilsinglright" unicode="&#x203a;" 
d="M442 944q-7 15 -1 25.5t23 10.5h162q25 0 36 -22l203 -374q12 -21 -4 -42l-311 -380q-15 -18 -36 -18h-163q-18 0 -24 10.5t6 25.5l312 382z" />
    <glyph glyph-name="fraction" unicode="&#x2044;" 
d="M94 0q-18 0 -24 10t4 26l921 1345q13 19 37 19h165q18 0 23.5 -10t-4.5 -26l-920 -1345q-13 -19 -37 -19h-165z" />
    <glyph glyph-name="Euro" unicode="&#x20ac;" 
d="M766 1420q227 0 327.5 -93.5t92.5 -311.5q0 -28 -29 -28h-139q-29 0 -31 41q-4 107 -54 141.5t-171 34.5q-65 0 -110.5 -12t-87.5 -44t-72.5 -94t-52.5 -157h265q32 0 28 -32l-16 -108q-3 -28 -32 -28h-274l-11 -84h269q34 0 28 -32l-15 -107q-3 -28 -32 -28h-266
q-4 -93 8 -152t43.5 -89.5t70.5 -41t101 -10.5q130 0 195.5 40.5t95.5 152.5q7 28 34 28h147q14 0 21 -12t3 -29q-49 -218 -169.5 -306.5t-342.5 -88.5q-117 0 -196 25t-132.5 84t-74 157t-12.5 242h-86q-32 0 -28 32l16 107q3 28 32 28h83l11 84h-78q-34 0 -28 32l15 108
q3 28 32 28h85q29 152 73.5 253t111.5 161t151 84.5t201 24.5z" />
    <glyph glyph-name="uni2116" unicode="&#x2116;" 
d="M1008 790q-105 0 -161 61.5t-56 179.5q0 106 29.5 190t95.5 136.5t159 52.5q105 0 161 -61.5t56 -178.5q0 -166 -72.5 -273t-211.5 -107zM465 462l129 910q4 28 32 28h117q32 0 27 -32l-188 -1340q-4 -28 -32 -28h-171q-29 0 -31 29l-77 927l-132 -928q-4 -28 -32 -28
h-117q-32 0 -27 32l188 1340q4 28 32 28h172q29 0 32 -29zM1063 1260q-66 0 -96.5 -62.5t-30.5 -155.5q0 -54 20 -77t64 -23q66 0 97 61.5t31 153.5q0 54 -20.5 78.5t-64.5 24.5zM749 518q-32 0 -27 32l16 119q4 28 32 28h426q32 0 27 -32l-16 -119q-4 -28 -32 -28h-426z
" />
    <glyph glyph-name="trademark" unicode="&#x2122;" 
d="M296 1311q-32 0 -27 32l4 29q4 28 32 28h327q32 0 27 -32l-4 -29q-4 -28 -32 -28h-117l-53 -383q-3 -28 -32 -28h-37q-33 0 -28 32l53 379h-113zM1073 1377q11 23 35 23h69q33 0 28 -32l-62 -440q-4 -28 -32 -28h-32q-32 0 -27 32l45 313l-131 -322q-9 -23 -35 -23h-43
q-28 0 -32 28l-43 317l-45 -317q-4 -28 -32 -28h-32q-33 0 -28 32l62 440q4 28 32 28h67q28 0 32 -28l50 -351z" />
    <glyph glyph-name="oneeighth" unicode="&#x215b;" 
d="M248 776q-31 0 -28 27l17 100q3 23 32 23h350l86 491q-126 -90 -324 -96q-33 0 -30 27l13 112q3 24 30 25q172 7 335 115h186q31 0 28 -27l-108 -647h273q31 0 28 -27l-17 -100q-3 -23 -32 -23h-839zM1181 689q32 0 28 -32l-14 -94q-3 -28 -32 -28h-1080q-32 0 -28 32
l14 94q3 28 32 28h1080zM844 81q105 -33 150 -88t32 -141q-38 -242 -537 -242q-256 0 -375 66t-97 198q13 80 73 129.5t182 83.5q-64 13 -98 61.5t-24 108.5q16 98 131 152.5t330 54.5q222 0 325 -60.5t85 -165.5q-9 -55 -55 -98t-122 -59zM823 230q7 44 -43 64t-174 20
q-137 0 -197.5 -23.5t-68.5 -72.5q-6 -42 45.5 -61t177.5 -19q135 0 193.5 22.5t66.5 69.5zM822 -117q9 61 -59.5 87.5t-213.5 26.5q-153 0 -233 -29.5t-91 -96.5q-9 -57 58.5 -80.5t219.5 -23.5q155 0 232 27t87 89z" />
    <glyph glyph-name="threeeighths" unicode="&#x215c;" 
d="M976 1193q115 -22 171.5 -70t41.5 -138q-11 -64 -53.5 -109t-115 -71t-164.5 -37.5t-212 -11.5q-116 0 -199 11t-146.5 37.5t-92.5 75.5t-22 120q2 25 31 25l152 3q27 0 30 -24q4 -56 63.5 -74.5t191.5 -18.5q148 0 227 24t90 85q10 58 -64 81t-281 25q-34 0 -31 27l7 70
q3 23 32 23q200 2 283 29t92 83q9 53 -54 75.5t-187 22.5q-123 0 -197.5 -28t-99.5 -99q-9 -24 -36 -21l-148 21q-29 5 -25 28q34 138 162.5 195.5t348.5 57.5q229 0 347.5 -59t98.5 -179q-11 -69 -74 -114.5t-167 -64.5zM1181 689q32 0 28 -32l-14 -94q-3 -28 -32 -28
h-1080q-32 0 -28 32l14 94q3 28 32 28h1080zM844 81q105 -33 150 -88t32 -141q-38 -242 -537 -242q-256 0 -375 66t-97 198q13 80 73 129.5t182 83.5q-64 13 -98 61.5t-24 108.5q16 98 131 152.5t330 54.5q222 0 325 -60.5t85 -165.5q-9 -55 -55 -98t-122 -59zM340 218
q-6 -42 45.5 -61t177.5 -19q135 0 193.5 22.5t66.5 69.5q7 44 -43 64t-174 20q-137 0 -197.5 -23.5t-68.5 -72.5zM503 -233q155 0 232 27t87 89q9 61 -59.5 87.5t-213.5 26.5q-153 0 -233 -29.5t-91 -96.5q-9 -57 58.5 -80.5t219.5 -23.5z" />
    <glyph glyph-name="fiveeighths" unicode="&#x215d;" 
d="M755 1350q234 0 344.5 -74.5t85.5 -222.5q-48 -282 -545 -282q-219 0 -333.5 60t-111.5 193q2 20 26 20h137q21 0 32 -30q16 -56 80.5 -76.5t186.5 -20.5q312 0 337 154q12 75 -55 110t-202 35q-183 0 -296 -67q-25 -15 -57 -7l-115 35q-29 10 -17 33l183 371q9 19 35 19
h659q31 0 28 -27l-15 -92q-3 -24 -32 -24h-547l-75 -146q93 39 267 39zM1181 689q32 0 28 -32l-14 -94q-3 -28 -32 -28h-1080q-32 0 -28 32l14 94q3 28 32 28h1080zM848 81q105 -33 150 -88t32 -141q-38 -242 -537 -242q-256 0 -375 66t-97 198q13 80 73 129.5t182 83.5
q-64 13 -98 61.5t-24 108.5q16 98 131 152.5t330 54.5q222 0 325 -60.5t85 -165.5q-9 -55 -55 -98t-122 -59zM344 218q-6 -42 45.5 -61t177.5 -19q135 0 193.5 22.5t66.5 69.5q7 44 -43 64t-174 20q-137 0 -197.5 -23.5t-68.5 -72.5zM507 -233q155 0 232 27t87 89
q9 61 -59.5 87.5t-213.5 26.5q-153 0 -233 -29.5t-91 -96.5q-9 -57 58.5 -80.5t219.5 -23.5z" />
    <glyph glyph-name="seveneighths" unicode="&#x215e;" 
d="M309 1444q-15 0 -22.5 6.5t-5.5 19.5l18 106q3 24 32 24h888q16 0 23 -6.5t5 -20.5l-18 -119q-2 -16 -16 -31l-672 -634q-13 -13 -36 -13h-174q-19 0 -24 9.5t8 20.5l680 638h-686zM1181 689q32 0 28 -32l-14 -94q-3 -28 -32 -28h-1080q-32 0 -28 32l14 94q3 28 32 28
h1080zM848 81q105 -33 150 -88t32 -141q-38 -242 -537 -242q-256 0 -375 66t-97 198q13 80 73 129.5t182 83.5q-64 13 -98 61.5t-24 108.5q16 98 131 152.5t330 54.5q222 0 325 -60.5t85 -165.5q-9 -55 -55 -98t-122 -59zM344 218q-6 -42 45.5 -61t177.5 -19
q135 0 193.5 22.5t66.5 69.5q7 44 -43 64t-174 20q-137 0 -197.5 -23.5t-68.5 -72.5zM507 -233q155 0 232 27t87 89q9 61 -59.5 87.5t-213.5 26.5q-153 0 -233 -29.5t-91 -96.5q-9 -57 58.5 -80.5t219.5 -23.5z" />
    <glyph glyph-name="partialdiff" unicode="&#x2202;" 
d="M641 864q89 0 179.5 -34t114.5 -87l29 193q10 53 7 94t-10 71.5t-25 52.5t-37.5 36t-49 22t-58.5 11t-66 3q-110 0 -191 -46.5t-99 -135.5q-5 -20 -32 -17l-133 10q-13 1 -22 13.5t-6 31.5q21 158 151.5 246t332.5 88q253 0 367.5 -118.5t77.5 -377.5l-70 -492
q-31 -217 -173 -335t-376 -118q-240 0 -355 123.5t-86 341.5q27 197 167.5 310.5t362.5 113.5zM559 162q140 0 228.5 69t107.5 209q17 121 -47.5 182.5t-196.5 61.5q-138 0 -227.5 -69t-107.5 -200q-35 -253 243 -253z" />
    <glyph glyph-name="product" unicode="&#x220f;" 
d="M43 -380q-31 0 -28 32l270 1920q3 28 32 28h904q31 0 28 -32l-270 -1920q-3 -28 -32 -28h-148q-31 0 -28 32l247 1747h-549l-246 -1751q-3 -28 -32 -28h-148z" />
    <glyph glyph-name="summation" unicode="&#x2211;" 
d="M1229 1600q31 0 28 -32l-21 -142q-3 -28 -32 -28h-706l428 -772q13 -26 -4 -46l-640 -758h697q31 0 28 -32l-20 -142q-3 -28 -32 -28h-930q-31 0 -28 32l23 156q3 23 12 35l649 767l-426 777q-11 22 -9 37l21 148q3 28 32 28h930z" />
    <glyph glyph-name="minus" unicode="&#x2212;" 
d="M1023 653q32 0 28 -32l-16 -108q-3 -28 -32 -28h-774q-31 0 -28 32l16 108q3 28 32 28h774z" />
    <glyph glyph-name="radical" unicode="&#x221a;" 
d="M1306 1600q15 0 23 -12t2 -28l-680 -1912q-10 -28 -35 -28h-190q-12 0 -21 9t-10 22l-112 855h-171q-31 0 -28 32l21 142q3 28 32 28h279q13 0 21.5 -9t10.5 -23l94 -830l600 1723q10 31 36 31h128z" />
    <glyph glyph-name="infinity" unicode="&#x221e;" 
d="M963 852q132 0 190 -89t35 -240q-21 -162 -96 -247.5t-202 -85.5q-42 0 -78 12t-62.5 30.5t-53 50.5t-45 61t-43.5 74q-60 -77 -102.5 -121t-101.5 -75.5t-124 -31.5q-135 0 -193.5 90t-34.5 243q21 159 97 244t204 85q51 0 91.5 -16t74.5 -51t56.5 -68.5t54.5 -89.5
q92 115 165 170t168 55zM302 336q13 0 25.5 2.5t26.5 9.5l24 12t26 19t24.5 21t28 27t27.5 28.5t31 33.5t32 34q-54 100 -89.5 141.5t-83.5 41.5q-76 0 -118.5 -51.5t-55.5 -131.5q-11 -92 10.5 -139.5t91.5 -47.5zM1040 523q11 89 -10.5 136t-92.5 47q-34 0 -73.5 -24
t-65 -48.5t-83.5 -85.5q-16 -16 -24 -25q56 -103 91 -145t83 -42q77 0 119.5 52t55.5 135z" />
    <glyph glyph-name="integral" unicode="&#x222b;" 
d="M1017 1472q95 0 183 -20.5t84 -50.5l-17 -113q-3 -27 -32 -21q-5 1 -25.5 5.5t-35.5 7.5t-44.5 6t-61.5 3q-113 0 -180 -52.5t-85 -185.5l-149 -1044q-16 -113 -55 -191.5t-97.5 -120t-124 -59t-149.5 -17.5q-93 0 -181.5 20.5t-84.5 50.5l16 110q4 29 32 23
q93 -21 175 -21q108 0 173.5 52.5t84.5 185.5l148 1045q16 113 55.5 191t98 119.5t124 59t148.5 17.5z" />
    <glyph glyph-name="approxequal" unicode="&#x2248;" 
d="M469 900q55 0 101 -18.5t77 -45.5t59 -54t61.5 -45.5t71.5 -18.5q55 0 89.5 24t50.5 55q11 20 33 20h73q29 0 21 -36q-19 -98 -94.5 -153t-181.5 -55q-55 0 -101.5 18.5t-77.5 45.5t-59.5 54t-61.5 45.5t-70 18.5q-96 0 -142 -80q-11 -19 -33 -19h-68q-15 0 -21.5 11
t-2.5 29q25 95 98.5 149.5t177.5 54.5zM417 526q55 0 101 -18.5t77 -45.5t59 -54t61.5 -45.5t71.5 -18.5q55 0 89.5 24t50.5 55q11 20 33 20h73q29 0 21 -36q-19 -98 -94.5 -153t-181.5 -55q-55 0 -101.5 18.5t-77.5 45.5t-59.5 54t-61.5 45.5t-70 18.5q-96 0 -142 -80
q-11 -19 -33 -19h-68q-15 0 -21.5 11t-2.5 29q25 95 98.5 149.5t177.5 54.5z" />
    <glyph glyph-name="notequal" unicode="&#x2260;" 
d="M1047 830q34 0 28 -32l-15 -107q-3 -28 -32 -28h-282l-72 -187h323q34 0 28 -32l-15 -107q-3 -28 -32 -28h-369l-110 -285q-9 -24 -36 -24h-117q-36 0 -24 34l106 275h-223q-31 0 -28 32l15 107q3 28 32 28h269l73 187h-311q-31 0 -28 32l15 107q3 28 32 28h356l104 268
q9 24 36 24h117q36 0 24 -34l-100 -258h236z" />
    <glyph glyph-name="lessequal" unicode="&#x2264;" 
d="M1039 1009q12 -26 -12 -37l-566 -229l485 -235q12 -6 17.5 -17t-1.5 -24l-72 -100q-13 -19 -39 -4l-599 288q-24 13 -21 37l17 120q3 22 23 30l686 288q27 11 40 -20zM955 168q32 0 28 -32l-16 -108q-3 -28 -32 -28h-774q-31 0 -28 32l16 108q3 28 32 28h774z" />
    <glyph glyph-name="greaterequal" unicode="&#x2265;" 
d="M289 1014l69 103q8 12 16 12t22 -8l580 -302q24 -13 21 -39l-18 -127q-3 -23 -21 -31l-666 -303q-25 -11 -38 21l-39 103q-11 27 11 38l549 242l-471 246q-12 6 -17 19.5t2 25.5zM954 168q34 0 28 -32l-15 -108q-3 -28 -32 -28h-773q-34 0 -28 32l15 108q3 28 32 28h773z
" />
    <glyph glyph-name="lozenge" unicode="&#x25ca;" 
d="M850 1400q22 0 32 -28l232 -657q10 -27 1 -41l-418 -657q-11 -17 -34 -17h-224q-21 0 -31 28l-233 657q-9 25 1 41l417 657q7 11 13.5 14t19.5 3h224zM567 171l337 529l-182 529l-335 -529z" />
    <glyph glyph-name="i.loclTRK" 
d="M730 1181q-48 0 -81.5 33.5t-33.5 82.5q0 46 34 79.5t81 33.5t80.5 -33.5t33.5 -79.5q0 -48 -33.5 -82t-80.5 -34zM1106 151q10 -21 -6 -40q-45 -49 -134.5 -90t-197.5 -41q-51 0 -95.5 8.5t-89 28t-76 51t-55 79t-27.5 111t7 146.5l63 395h-369q-15 0 -22.5 8.5
t-5.5 23.5l17 121q4 28 32 28h557q32 0 27 -32l-83 -537q-6 -52 -5 -90t13.5 -65t27.5 -44.5t37 -27.5t41.5 -13.5t41.5 -3.5q104 0 208 85q12 11 26.5 9.5t22.5 -17.5z" />
    <glyph glyph-name="f.alt" 
d="M972 1473q65 0 131.5 -9t112.5 -26t42 -37l-20 -118q-6 -31 -33 -24q-3 1 -18.5 5.5t-25 6.5t-29 6t-37 6.5t-43 4t-52.5 1.5q-67 0 -120 -11t-99.5 -36.5t-76.5 -73.5t-39 -117l-10 -71h412q33 0 28 -32l-17 -119q-4 -28 -32 -28h-417l-111 -783q-14 -97 -45.5 -170
t-72.5 -117.5t-95.5 -72.5t-108 -38t-116.5 -10q-83 0 -147 26q-23 8 -20 36l15 119q5 31 36 22q52 -16 97 -16q40 0 76 11t72 37t62 78.5t36 126.5l105 751h-246q-31 0 -28 32l17 119q3 28 32 28h250l15 105q55 388 520 388z" />
    <glyph glyph-name="s.ss01" 
d="M876 975q93 -101 155 -198t88 -179.5t29.5 -159t-18 -138.5t-58 -115.5t-87 -92.5t-107 -66.5t-116 -41.5t-117.5 -14q-259 0 -418 150l-96 -123q-19 -24 -43 -1l-97 92q-20 20 -2 43l672 848q13 16 37 16h140q19 0 38 -20zM631 158q64 0 122.5 25t101 68t62.5 104
t13.5 128.5t-53 147.5t-130.5 156l-403 -516q58 -52 124 -82.5t163 -30.5z" />
    <glyph glyph-name="sacute.ss01" 
d="M611 1090q-18 0 -23.5 10.5t3.5 25.5l159 254q11 20 36 20h131q18 0 23.5 -10.5t-3.5 -25.5l-158 -254q-11 -20 -36 -20h-132zM876 975q93 -101 155 -198t88 -179.5t29.5 -159t-18 -138.5t-58 -115.5t-87 -92.5t-107 -66.5t-116 -41.5t-117.5 -14q-259 0 -418 150
l-96 -123q-19 -24 -43 -1l-97 92q-20 20 -2 43l672 848q13 16 37 16h140q19 0 38 -20zM631 158q64 0 122.5 25t101 68t62.5 104t13.5 128.5t-53 147.5t-130.5 156l-403 -516q58 -52 124 -82.5t163 -30.5z" />
    <glyph glyph-name="scaron.ss01" 
d="M533 1142l-193 258q-11 15 -5 25.5t24 10.5h165q21 0 36 -18l132 -161l183 165q14 14 38 14h163q20 0 25 -11t-9 -25l-265 -261q-15 -15 -38 -15h-220q-24 0 -36 18zM876 975q93 -101 155 -198t88 -179.5t29.5 -159t-18 -138.5t-58 -115.5t-87 -92.5t-107 -66.5
t-116 -41.5t-117.5 -14q-259 0 -418 150l-96 -123q-19 -24 -43 -1l-97 92q-20 20 -2 43l672 848q13 16 37 16h140q19 0 38 -20zM631 158q64 0 122.5 25t101 68t62.5 104t13.5 128.5t-53 147.5t-130.5 156l-403 -516q58 -52 124 -82.5t163 -30.5z" />
    <glyph glyph-name="scedilla.ss01" 
d="M645 -30q-33 0 -65 3l-46 -45q71 -6 121 -48.5t50 -111.5q0 -82 -50.5 -132.5t-123 -64.5t-156.5 0q-18 3 -18 22v77q0 10 6 15.5t16 4.5q80 -11 125.5 7.5t45.5 59.5q0 24 -23 41t-60.5 20t-85.5 -16q-11 -4 -17.5 -0.5t-6.5 14.5v77q0 14 10 24l80 80q-128 37 -220 123
l-96 -123q-19 -24 -43 -1l-97 92q-20 20 -2 43l672 848q13 16 37 16h140q19 0 38 -20q93 -101 155 -198t88 -179.5t29.5 -159t-18 -138.5t-58 -115.5t-87 -92.5t-107 -66.5t-116 -41.5t-117.5 -14zM747 787l-403 -516q58 -52 124 -82.5t163 -30.5q64 0 122.5 25t101 68
t62.5 104t13.5 128.5t-53 147.5t-130.5 156z" />
    <glyph glyph-name="scommaaccent.ss01" 
d="M876 975q93 -101 155 -198t88 -179.5t29.5 -159t-18 -138.5t-58 -115.5t-87 -92.5t-107 -66.5t-116 -41.5t-117.5 -14q-259 0 -418 150l-96 -123q-19 -24 -43 -1l-97 92q-20 20 -2 43l672 848q13 16 37 16h140q19 0 38 -20zM631 158q64 0 122.5 25t101 68t62.5 104
t13.5 128.5t-53 147.5t-130.5 156l-403 -516q58 -52 124 -82.5t163 -30.5zM680 -172q30 0 25 -30l-9 -66q-36 -268 -123 -421q-16 -27 -50 -27h-72q-16 0 -23 12t0 30q25 71 46.5 166.5t27.5 166.5h-241q-29 0 -25 30l16 113q3 26 29 26h399z" />
    <glyph glyph-name="zero.dnom" 
d="M675 992q272 0 378 -117t70 -369l-8 -57q-35 -252 -166 -363.5t-396 -111.5q-272 0 -378 117t-70 370l8 57q35 252 166 363t396 111zM668 799q-91 0 -156.5 -18.5t-107 -56t-64 -87t-32.5 -117.5l-11 -87q-20 -139 36 -202.5t227 -63.5q91 0 156.5 18.5t107 56t64 87
t32.5 117.5l12 87q19 139 -37 202.5t-227 63.5z" />
    <glyph glyph-name="one.dnom" 
d="M989 179q31 0 28 -32l-17 -119q-3 -28 -32 -28h-839q-31 0 -28 32l17 119q3 28 32 28h350l86 584q-127 -107 -324 -115q-33 0 -30 32l13 134q3 28 30 29q173 8 335 137h186q31 0 28 -32l-108 -769h273z" />
    <glyph glyph-name="two.dnom" 
d="M994 170q31 0 28 -32l-15 -110q-3 -28 -32 -28l-866 -2q-31 0 -28 32l14 98q12 87 60.5 153t117 104t149 66.5t159.5 48t145 40t110 52t50 74.5q10 71 -42.5 103.5t-172.5 32.5q-263 0 -308 -168q-8 -28 -34 -24l-141 23q-30 5 -25 35q65 322 505 322q220 0 333.5 -88.5
t91.5 -247.5q-10 -70 -54.5 -123t-108 -84t-138.5 -55.5t-149.5 -44t-136.5 -41.5t-104 -56t-49 -80h641z" />
    <glyph glyph-name="three.dnom" 
d="M880 494q55 -13 95 -31.5t71 -47t43 -71t4 -98.5q-11 -75 -53.5 -128.5t-115 -84.5t-164.5 -45t-212 -14q-92 0 -162.5 8t-130.5 28t-97.5 52.5t-56 83t-13.5 118.5q2 30 31 30l152 4q27 0 30 -29q4 -67 63.5 -89t191.5 -22q72 0 125 6t95.5 20.5t66.5 40.5t30 63
q10 69 -64 96.5t-281 29.5q-34 0 -31 32l7 83q3 28 32 28q200 2 283 34t92 99q9 63 -54 90t-187 27q-123 0 -197.5 -34t-99.5 -118q-9 -28 -36 -24l-148 24q-29 6 -25 34q34 164 162.5 232.5t348.5 68.5q229 0 347.5 -71t98.5 -213q-11 -82 -74 -135.5t-167 -76.5z" />
    <glyph glyph-name="four.dnom" 
d="M971 510h137q32 0 28 -32l-17 -119q-3 -28 -32 -28h-141l-42 -303q-3 -28 -32 -28h-156q-31 0 -28 32l42 299h-617q-31 0 -28 32l82 589q3 28 32 28h156q31 0 28 -32l-61 -438h433l61 442q3 28 32 28h156q31 0 28 -32z" />
    <glyph glyph-name="five.dnom" 
d="M669 683q234 0 344.5 -88.5t85.5 -264.5q-48 -336 -545 -336q-219 0 -333.5 71.5t-111.5 229.5q1 24 26 24h137q22 0 32 -36q16 -66 80.5 -90.5t186.5 -24.5q312 0 337 183q12 90 -55 131t-202 41q-185 0 -296 -79q-26 -18 -57 -8l-115 41q-29 11 -17 39l183 441
q9 23 35 23h659q31 0 28 -32l-15 -110q-3 -28 -32 -28h-547l-75 -174q92 47 267 47z" />
    <glyph glyph-name="six.dnom" 
d="M648 592q242 0 354.5 -76.5t90.5 -236.5q-44 -305 -530 -305q-253 0 -367.5 83.5t-91.5 251.5l43 308q27 196 164 285t383 89q206 0 320 -70.5t110 -198.5q0 -28 -30 -28l-140 -2q-24 0 -34 28q-31 100 -236 100q-146 0 -230 -47.5t-101 -164.5l-14 -92q38 39 128.5 57.5
t180.5 18.5zM568 154q152 0 230 34t89 119q5 38 -9.5 63.5t-51.5 38t-83 17.5t-116 5q-298 0 -316 -138q-10 -78 55 -108.5t202 -30.5z" />
    <glyph glyph-name="seven.dnom" 
d="M225 794q-32 0 -28 32l18 126q3 28 32 28h888q32 0 28 -32l-18 -142q-2 -18 -16 -36l-672 -754q-13 -16 -36 -16h-174q-19 0 -24 11t8 25l680 758h-686z" />
    <glyph glyph-name="eight.dnom" 
d="M908 535q105 -39 150 -104t32 -168q-38 -288 -537 -288q-256 0 -375 78.5t-97 235.5q13 95 72.5 153.5t182.5 99.5q-64 15 -98 73t-24 129q16 117 131 181.5t330 64.5q222 0 325 -72t85 -197q-9 -66 -55 -116.5t-122 -69.5zM404 698q-6 -50 45.5 -72.5t177.5 -22.5
q135 0 193.5 26.5t66.5 82.5q7 53 -43 76.5t-174 23.5q-137 0 -197.5 -28t-68.5 -86zM567 162q155 0 232 31.5t87 105.5q9 73 -59.5 104.5t-213.5 31.5q-152 0 -232.5 -35.5t-91.5 -114.5q-9 -68 58.5 -95.5t219.5 -27.5z" />
    <glyph glyph-name="nine.dnom" 
d="M576 373q-242 0 -354.5 76.5t-89.5 236.5q43 305 529 305q504 0 459 -335l-42 -308q-28 -196 -165 -285t-383 -89q-206 0 -320 70.5t-110 198.5q0 28 30 28l140 2q24 0 34 -27q31 -101 236 -101q145 0 229.5 47.5t101.5 164.5l15 92q-39 -39 -129.5 -57.5t-180.5 -18.5z
M656 811q-152 0 -230.5 -34t-89.5 -119q-4 -31 5.5 -53t30 -36t56 -21.5t75 -10.5t94.5 -3q298 0 316 138q10 78 -55 108.5t-202 30.5z" />
    <glyph glyph-name="zero.numr" 
d="M704 1201q272 0 378 -117t70 -369l-8 -57q-35 -252 -166 -363.5t-396 -111.5q-272 0 -378 117t-70 370l8 57q35 252 166 363t396 111zM697 1008q-91 0 -156.5 -18.5t-107 -56t-64 -87t-32.5 -117.5l-11 -87q-20 -139 36 -202.5t227 -63.5q91 0 156.5 18.5t107 56t64 87
t32.5 117.5l12 87q19 139 -37 202.5t-227 63.5z" />
    <glyph glyph-name="one.numr" 
d="M1019 389q31 0 28 -32l-17 -119q-3 -28 -32 -28h-839q-31 0 -28 32l17 119q3 28 32 28h350l86 584q-127 -107 -324 -115q-33 0 -30 32l13 134q3 28 30 29q173 8 335 137h186q31 0 28 -32l-108 -769h273z" />
    <glyph glyph-name="two.numr" 
d="M1024 380q31 0 28 -32l-15 -110q-3 -28 -32 -28l-866 -2q-31 0 -28 32l14 98q12 87 60.5 153t117 104t149 66.5t159.5 48t145 40t110 52t50 74.5q10 71 -42.5 103.5t-172.5 32.5q-263 0 -308 -168q-8 -28 -34 -24l-141 23q-30 5 -25 35q65 322 505 322q220 0 333.5 -88.5
t91.5 -247.5q-10 -70 -54.5 -123t-108 -84t-138.5 -55.5t-149.5 -44t-136.5 -41.5t-104 -56t-49 -80h641z" />
    <glyph glyph-name="three.numr" 
d="M910 704q55 -13 95 -31.5t71 -47t43 -71t4 -98.5q-11 -75 -53.5 -128.5t-115 -84.5t-164.5 -45t-212 -14q-92 0 -162.5 8t-130.5 28t-97.5 52.5t-56 83t-13.5 118.5q2 30 31 30l152 4q27 0 30 -29q4 -67 63.5 -89t191.5 -22q72 0 125 6t95.5 20.5t66.5 40.5t30 63
q10 69 -64 96.5t-281 29.5q-34 0 -31 32l7 83q3 28 32 28q200 2 283 34t92 99q9 63 -54 90t-187 27q-123 0 -197.5 -34t-99.5 -118q-9 -28 -36 -24l-148 24q-29 6 -25 34q34 164 162.5 232.5t348.5 68.5q229 0 347.5 -71t98.5 -213q-11 -82 -74 -135.5t-167 -76.5z" />
    <glyph glyph-name="four.numr" 
d="M1001 720h137q32 0 28 -32l-17 -119q-3 -28 -32 -28h-141l-42 -303q-3 -28 -32 -28h-156q-31 0 -28 32l42 299h-617q-31 0 -28 32l82 589q3 28 32 28h156q31 0 28 -32l-61 -438h433l61 442q3 28 32 28h156q31 0 28 -32z" />
    <glyph glyph-name="five.numr" 
d="M699 893q234 0 344.5 -88.5t85.5 -264.5q-48 -336 -545 -336q-219 0 -333.5 71.5t-111.5 229.5q1 24 26 24h137q22 0 32 -36q16 -66 80.5 -90.5t186.5 -24.5q312 0 337 183q12 90 -55 131t-202 41q-185 0 -296 -79q-26 -18 -57 -8l-115 41q-29 11 -17 39l183 441
q9 23 35 23h659q31 0 28 -32l-15 -110q-3 -28 -32 -28h-547l-75 -174q92 47 267 47z" />
    <glyph glyph-name="six.numr" 
d="M678 802q242 0 354.5 -76.5t90.5 -236.5q-44 -305 -530 -305q-253 0 -367.5 83.5t-91.5 251.5l43 308q27 196 164 285t383 89q206 0 320 -70.5t110 -198.5q0 -28 -30 -28l-140 -2q-24 0 -34 28q-31 100 -236 100q-146 0 -230 -47.5t-101 -164.5l-14 -92q38 39 128.5 57.5
t180.5 18.5zM598 364q152 0 230 34t89 119q5 38 -9.5 63.5t-51.5 38t-83 17.5t-116 5q-298 0 -316 -138q-10 -78 55 -108.5t202 -30.5z" />
    <glyph glyph-name="seven.numr" 
d="M255 1004q-32 0 -28 32l18 126q3 28 32 28h888q32 0 28 -32l-18 -142q-2 -18 -16 -36l-672 -754q-13 -16 -36 -16h-174q-19 0 -24 11t8 25l680 758h-686z" />
    <glyph glyph-name="eight.numr" 
d="M938 745q105 -39 150 -104t32 -168q-38 -288 -537 -288q-256 0 -375 78.5t-97 235.5q13 95 72.5 153.5t182.5 99.5q-64 15 -98 73t-24 129q16 117 131 181.5t330 64.5q222 0 325 -72t85 -197q-9 -66 -55 -116.5t-122 -69.5zM434 908q-6 -50 45.5 -72.5t177.5 -22.5
q135 0 193.5 26.5t66.5 82.5q7 53 -43 76.5t-174 23.5q-137 0 -197.5 -28t-68.5 -86zM597 372q155 0 232 31.5t87 105.5q9 73 -59.5 104.5t-213.5 31.5q-152 0 -232.5 -35.5t-91.5 -114.5q-9 -68 58.5 -95.5t219.5 -27.5z" />
    <glyph glyph-name="nine.numr" 
d="M606 583q-242 0 -354.5 76.5t-89.5 236.5q43 305 529 305q504 0 459 -335l-42 -308q-28 -196 -165 -285t-383 -89q-206 0 -320 70.5t-110 198.5q0 28 30 28l140 2q24 0 34 -27q31 -101 236 -101q145 0 229.5 47.5t101.5 164.5l15 92q-39 -39 -129.5 -57.5t-180.5 -18.5z
M686 1021q-152 0 -230.5 -34t-89.5 -119q-4 -31 5.5 -53t30 -36t56 -21.5t75 -10.5t94.5 -3q298 0 316 138q10 78 -55 108.5t-202 30.5z" />
    <glyph glyph-name="section.ss01" 
d="M746 1600q202 0 308.5 -73t106.5 -244q0 -17 -26 -17h-149q-26 0 -28 33q-1 68 -56.5 95t-157.5 27q-106 0 -170 -31.5t-72 -91.5q-8 -57 41.5 -81t159.5 -37q70 -8 107.5 -13.5t100 -18.5t96.5 -33t69.5 -50t47 -76t3.5 -105q-20 -144 -151 -218q63 -74 69 -204
q1 -10 -5.5 -14t-20.5 -4h-149q-13 0 -20.5 9.5t-7.5 23.5q0 68 -55.5 95t-157.5 27q-107 0 -170 -31t-72 -92q-8 -56 41.5 -80.5t158.5 -36.5q184 -21 261 -48q172 -61 166 -217q-1 -15 -3 -31q-19 -133 -137 -209.5t-331 -76.5q-210 0 -315.5 72.5t-123.5 245.5
q-1 10 5 14t20 4h149q26 0 28 -33q1 -68 61.5 -95.5t176.5 -27.5q243 0 260 134q3 24 -6.5 42t-25 28.5t-47.5 18.5t-58 11.5t-73 9.5q-6 1 -9 1q-78 9 -126.5 17.5t-113.5 29.5t-99.5 50.5t-56 81.5t-11.5 121q17 122 123 195q-82 76 -82 220q0 17 26 17h149q26 0 28 -33
q1 -68 61.5 -95t176.5 -27q239 0 259 134q9 60 -64 84q-36 12 -155 26q-54 6 -90 11.5t-85.5 16.5t-82 25t-67 36.5t-52.5 51t-27 69.5t-2 91q18 127 134 201.5t318 74.5z" />
    </font>
</defs>
</svg>
