<?xml version="1.0" standalone="no"?>
<!DOCTYPE svg PUBLIC "-//W3C//DTD SVG 1.1//EN" "http://www.w3.org/Graphics/SVG/1.1/DTD/svg11.dtd" >
<svg xmlns="http://www.w3.org/2000/svg">
<metadata>
Created by FontPrep 20130207 at Thu Aug  4 12:51:48 2016
 By Olivia Cheng
Copyright (c) 2013 Schick Toikka. All rights reserved. Noe Display is a trademark of Schick Toikka. Unauthorised copying or modification of any of its data is illegal.
</metadata>
<defs>
<font id="bee97428c63ec0fa0d3530ffe306b80b" horiz-adv-x='1024' >
  <font-face 
    font-family="NoeDisplay-Medium"
    font-weight="500"
    font-stretch="normal"
    units-per-em="2048"
    panose-1="2 10 6 0 9 4 0 0 0 2"
    ascent="1536"
    descent="-512"
    x-height="1004"
    cap-height="1440"
    bbox="-463 -516 2456 2005"
    underline-thickness="36"
    underline-position="-168"
    unicode-range="U+0020-FB02"
  />
<missing-glyph horiz-adv-x="1228" 
d="M616 469l-440 -944h877zM178 1499l438 -946l439 946h-877zM635 512l440 -946v1894zM596 512l-442 956v-1910zM1114 -512h-999v2048h999v-2048z" />
    <glyph glyph-name="fi" unicode="fi" horiz-adv-x="1255" 
d="M1094 1004v-867q0 -29 20 -45l121 -88v-4h-543v4l121 88q23 16 23 45v797q0 20 -6 26t-21 7h-371v-824q0 -29 27 -45l153 -94v-4h-579v4l121 88q20 14 20 45v830h-127v37h127q8 224 135 340t349 116q176 0 356 -59l-117 -277h-4l-125 271q-12 27 -36 29t-64 1
q-236 0 -236 -338v-83h656z" />
    <glyph glyph-name="fl" unicode="fl" horiz-adv-x="1257" 
d="M1098 137q0 -29 22 -45l121 -88v-4h-543v4l121 88q20 14 21 45v1194q0 27 -23 41q-78 49 -168 49q-211 0 -211 -313v-104h277v-37h-277v-820q0 -18 6 -26t25 -19l170 -98v-4h-600v4l121 88q20 14 20 45v830h-127v37h127q4 229 124 343t321 113q115 0 221 -57l252 84
v-1350z" />
    <glyph glyph-name="f_b" unicode="fb" horiz-adv-x="1806" 
d="M1252 891q-104 0 -185 -115v-649q55 -61 154 -61q252 0 252 434q0 195 -58 293q-59 98 -163 98zM809 -16v1343q0 31 -23 45q-78 49 -164 49q-184 0 -184 -313v-104h277v-37h-277v-820q0 -18 5 -25t26 -20l170 -98v-4h-600v4l121 88q20 14 20 45v830h-127v37h127
q4 229 120 343t310 113q102 0 205 -57l252 84v-688q104 221 311 221q172 0 270 -136t99 -368q0 -232 -116 -382t-302 -150t-266 120l-250 -120h-4z" />
    <glyph glyph-name="f_h" unicode="fh" horiz-adv-x="1851" 
d="M1282 879q-115 0 -186 -121v-621q0 -29 22 -45l121 -88v-4h-543v4l121 88q20 16 21 45v1190q0 31 -23 45q-78 49 -164 49q-213 0 -213 -313v-104h277v-37h-277v-820q0 -18 5 -25t26 -20l170 -98v-4h-600v4l121 88q20 14 20 45v830h-127v37h127q4 229 124 343t319 113
q119 0 223 -57l250 84v-711q78 244 313 244q299 0 299 -418q0 -137 -4 -465q0 -27 22 -45l121 -88v-4h-542v4l114 88q25 16 25 43l6 410q0 170 -39 252t-129 82z" />
    <glyph glyph-name="f_j" unicode="fj" horiz-adv-x="1208" 
d="M795 967h-357v-824q0 -29 27 -45l153 -94v-4h-579v4l121 88q20 14 20 45v830h-127v37h127q8 224 132 340t345 116q172 0 357 -59l-117 -277h-4l-127 271q-10 23 -43 27t-57 3q-227 0 -228 -338v-83h641v-947q1 -229 -111 -366t-325 -140q-27 0 -63 5v4q121 16 181 115
t60 302v957q0 20 -5 26t-21 7z" />
    <glyph glyph-name="f_k" unicode="fk" horiz-adv-x="1775" 
d="M1798 0h-371l-247 496q-14 28 -40 28t-44 -12v-375q0 -29 22 -45l121 -88v-4h-543v4l121 88q20 16 21 45v1194q0 27 -23 41q-72 49 -164 49q-213 0 -213 -313v-104h277v-37h-277v-820q0 -18 5 -25t26 -20l170 -98v-4h-600v4l121 88q20 14 20 45v830h-127v37h127
q4 231 124 344t321 112q119 0 219 -57l252 84v-957l366 279q18 16 4 35l-147 155v5h450v-5l-387 -292q-23 -16 -12 -35l279 -529q18 -37 47 -59l102 -80v-4z" />
    <glyph glyph-name=".notdef" horiz-adv-x="1228" 
d="M616 469l-440 -944h877zM178 1499l438 -946l439 946h-877zM635 512l440 -946v1894zM596 512l-442 956v-1910zM1114 -512h-999v2048h999v-2048z" />
    <glyph glyph-name=".null" horiz-adv-x="0" 
 />
    <glyph glyph-name="nonmarkingreturn" horiz-adv-x="681" 
 />
    <glyph glyph-name="space" unicode=" " horiz-adv-x="407" 
 />
    <glyph glyph-name="exclam" unicode="!" horiz-adv-x="557" 
d="M133 124q0 60 42 102t102 42q61 0 103 -41t42 -102t-42 -101t-102 -40t-103 40q-42 40 -42 100zM461 1440l-185 -998h-4l-176 998h365z" />
    <glyph glyph-name="quotedbl" unicode="&#x22;" horiz-adv-x="727" 
d="M424 1352q0 42 28 75t82 33t81 -33q28 -33 28 -71t-12 -80l-96 -315h-5l-96 315q-10 34 -10 76zM84 1352q0 42 28 75t82 33t82 -33t27 -75q0 -42 -10 -76l-98 -315h-5l-96 315q-10 34 -10 76z" />
    <glyph glyph-name="numbersign" unicode="#" horiz-adv-x="1204" 
d="M502 895l-121 -416h315l119 416h-313zM1006 442h-281l-113 -389l-34 10l108 379h-315l-113 -389l-35 10l109 379h-260v37h270l119 416h-260v37h270l117 405l39 -10l-115 -395h313l117 405l39 -10l-115 -395h267v-37h-277l-121 -416h271v-37z" />
    <glyph glyph-name="dollar" unicode="$" horiz-adv-x="1114" 
d="M313 1174q1 -102 59 -162q58 -61 169 -113v522q-104 -13 -166 -79t-62 -168zM809 266q0 100 -55 160t-176 121v-529q104 18 168 82q64 66 63 166zM520 -20q-209 0 -397 55v457h4l223 -433q18 -33 45 -36q70 -8 105 -9h41v551q-33 18 -127 62q-326 152 -326 426
q0 173 124 285t329 122v164h37v-164q164 0 364 -47v-440h-4l-231 413q-17 35 -47 37t-70 2h-12v-542l116 -56q176 -84 264 -172t89 -233q0 -182 -127 -304t-342 -136v-195h-37v193h-21z" />
    <glyph glyph-name="percent" unicode="%" horiz-adv-x="1349" 
d="M1204 1436l-1030 -1456l-33 26l1030 1454zM949 590q134 0 203 -82t69 -222t-69 -222t-203 -82t-203 82q-68 82 -68 220q0 140 68 223q69 83 203 83zM948 561q-60 0 -80 -62t-20 -213t19 -213q19 -63 81 -63t80 62q20 62 21 213q0 152 -20 214t-81 62zM394 1460
q134 0 203 -82t69 -222t-69 -222t-203 -82t-203 82t-68 221q0 139 68 222q69 83 203 83zM393 1432q-61 0 -81 -62t-19 -214q0 -151 19 -213q18 -62 80 -62t82 61q19 61 20 213q0 153 -20 215t-81 62z" />
    <glyph glyph-name="ampersand" unicode="&#x26;" horiz-adv-x="1550" 
d="M453 1215q0 -95 41 -177t135 -184q170 135 170 328q0 123 -47 185q-47 63 -125 63t-126 -60t-48 -155zM295 427q0 -155 93 -247q92 -92 198 -92t164 25t116 80q-39 38 -94 104l-344 403q-133 -119 -133 -273zM1351 193q67 0 123 50t68 144h4q4 -25 4 -63q0 -158 -87 -251
t-222 -93q-94 0 -176 46t-176 144q-195 -190 -416 -190q-186 0 -295 94t-108 243q0 250 348 398q-92 106 -136 195t-44 192q0 160 108 259q109 99 281 99t271 -72t99 -201q0 -130 -93 -208t-263 -139l350 -402q25 -31 49 -55q94 123 142 229q12 27 -21 70l-164 182v4h488v-4
l-213 -196q-31 -29 -76 -110t-131 -200q95 -96 157 -130t129 -35z" />
    <glyph glyph-name="quotesingle" unicode="'" horiz-adv-x="387" 
d="M194 1460q54 0 82 -33t27 -75q0 -42 -10 -76l-98 -315h-5l-96 315q-10 34 -10 76t28 75t82 33z" />
    <glyph glyph-name="parenleft" unicode="(" horiz-adv-x="671" 
d="M111 598q0 512 299 774q100 92 237 139l4 -4q-102 -86 -166 -204q-155 -283 -155 -705t155 -704q63 -119 166 -205l-4 -4q-137 47 -237 139q-299 262 -299 774z" />
    <glyph glyph-name="parenright" unicode=")" horiz-adv-x="671" 
d="M563 598q0 -510 -301 -774q-100 -92 -237 -139l-5 4q100 84 168 205q154 284 154 704t-154 705q-68 121 -168 204l5 4q137 -47 237 -139q301 -264 301 -774z" />
    <glyph glyph-name="asterisk" unicode="*" horiz-adv-x="780" 
d="M723 1116l-328 8l264 -188l-180 -131l-92 315l-96 -313l-180 131l268 186l-322 -8l70 213l256 -196l-104 307h223l-111 -307l262 192z" />
    <glyph glyph-name="plus" unicode="+" horiz-adv-x="1105" 
d="M102 643v37h433v432h38v-432h431v-37h-431v-432h-38v432h-433z" />
    <glyph glyph-name="comma" unicode="," horiz-adv-x="481" 
d="M383 102q0 -124 -85 -234t-210 -140l-2 4q74 40 114 112t40 138q0 25 -25 26q-49 6 -82 44t-33 93t38 95t101 39q63 1 103 -45t41 -132z" />
    <glyph glyph-name="hyphen" unicode="-" horiz-adv-x="718" 
d="M94 481v39h533v-39h-533z" />
    <glyph glyph-name="period" unicode="." horiz-adv-x="481" 
d="M96 124q0 60 42 102t102 42t103 -41q42 -41 42 -102t-42 -101t-102 -40t-103 40q-42 40 -42 100z" />
    <glyph glyph-name="slash" unicode="/" horiz-adv-x="778" 
d="M713 1499l-609 -1812l-38 12l610 1812z" />
    <glyph glyph-name="zero" unicode="0" horiz-adv-x="1333" 
d="M667 1460q275 0 426 -185t151 -554t-152 -555q-150 -186 -425 -186t-425 187t-150 555t150 553t425 185zM666 18q88 0 148 60t98 219q38 160 38 423t-38 424t-98 219t-148 58q-135 1 -209 -157t-74 -543t74 -544t209 -159z" />
    <glyph glyph-name="one" unicode="1" horiz-adv-x="817" 
d="M565 172q0 -27 27 -45l186 -123v-4h-684v4l189 123q25 18 24 45v1016q0 35 -24 43l-213 61v4l495 172v-1296z" />
    <glyph glyph-name="two" unicode="2" horiz-adv-x="1114" 
d="M39 0v4l242 275q292 332 375 529q52 124 53 267q0 348 -236 348q-45 0 -71 -5t-37 -36l-152 -360h-4l-133 334q213 104 443 104q231 0 357 -106t126 -302t-187 -387q-98 -101 -192 -179t-258 -197l-95 -70h510q46 0 58 5t34 32l142 170h4l-53 -426h-926z" />
    <glyph glyph-name="three" unicode="3" horiz-adv-x="1130" 
d="M1051 406q0 -193 -154 -310t-430 -116q-219 0 -412 69l146 373h4l123 -365q10 -31 34 -34q53 -8 87 -9q145 0 228 106t83 263q0 158 -88 251t-271 101v4q307 66 308 381q1 137 -63 220t-177 83q-41 0 -66 -4t-38 -37l-152 -358h-4l-131 334q205 102 430 102t354 -92
t129 -252q0 -268 -327 -350v-4q174 -16 280 -112t107 -244z" />
    <glyph glyph-name="four" unicode="4" horiz-adv-x="1191" 
d="M590 406v874l-508 -874h508zM848 172q0 -29 24 -47l156 -121v-4h-627v4l164 121q25 20 25 47v195h-576v4l619 1069h215v-1034h59q33 0 51 28l201 344h4l-33 -411h-282v-195z" />
    <glyph glyph-name="five" unicode="5" horiz-adv-x="1144" 
d="M1073 442q1 -221 -155 -342q-156 -120 -406 -120t-430 69l141 371h4l125 -363q8 -20 16 -26q8 -5 51 -11q42 -6 60 -6q141 0 222 109t81 280t-88 266t-252 95q-125 0 -254 -78l-4 2l25 754l379 -12q55 -2 143 -3q147 0 203 54l59 57h4l-24 -176q-15 -98 -67 -132
t-145 -34t-188 4l-335 12l-13 -469q185 127 395 127t332 -120t121 -308z" />
    <glyph glyph-name="six" unicode="6" horiz-adv-x="1232" 
d="M887 423q0 396 -257 396q-132 0 -253 -127q2 -346 74 -512t192 -166q100 0 172 109t72 300zM754 899q180 -1 290 -113t111 -324q0 -212 -142 -347t-368 -135q-266 0 -409 194q-144 194 -144 548q0 353 157 546t472 192q174 0 381 -65l-129 -332h-4l-166 332
q-13 25 -39 27t-55 3q-176 0 -254 -170t-78 -536q145 180 377 180z" />
    <glyph glyph-name="seven" unicode="7" horiz-adv-x="1028" 
d="M238 1219q-27 1 -38 -5t-30 -26l-117 -144h-4l45 396h946v-4l-129 -179q-61 -83 -130 -345q-114 -426 -208 -912h-331q131 336 310 689t294 530h-608z" />
    <glyph glyph-name="eight" unicode="8" horiz-adv-x="1183" 
d="M590 1423q-106 1 -175 -63t-69 -160t53 -163t172 -134l134 -76q129 98 129 291q0 141 -69 223t-175 82zM291 338q0 -135 91 -228q91 -94 218 -94t207 68t80 170t-54 163t-171 124l-211 116q-160 -98 -160 -319zM596 -20q-234 0 -373 101t-139 243t89 221q89 78 261 123
l-41 22q-264 145 -264 383q0 175 130 281q129 106 323 106t323 -92t129 -228t-85 -214q-85 -76 -226 -107l96 -51q156 -82 228 -170t71 -217q0 -165 -144 -283t-378 -118z" />
    <glyph glyph-name="nine" unicode="9" horiz-adv-x="1232" 
d="M348 1016q0 -396 258 -395q129 0 250 127q-6 678 -266 677q-100 1 -171 -107t-71 -302zM494 545q-170 -1 -292 115t-122 325t142 342t370 133q270 0 410 -190t140 -542t-159 -550q-160 -199 -455 -198q-203 0 -397 69l135 350h4l152 -354q10 -25 47 -27q18 -4 59 -4
q172 0 250 171t78 532v4q-145 -176 -362 -176z" />
    <glyph glyph-name="colon" unicode=":" horiz-adv-x="481" 
d="M96 799q0 61 42 102t102 41t103 -41q42 -41 42 -102t-42 -101t-102 -41q-60 0 -103 40q-42 41 -42 102zM96 124q0 60 42 102t102 42t103 -41q42 -41 42 -102t-42 -101t-102 -40t-103 40q-42 40 -42 100z" />
    <glyph glyph-name="semicolon" unicode=";" horiz-adv-x="481" 
d="M96 799q0 61 42 102t102 41t103 -41q42 -41 42 -102t-42 -101t-102 -41q-60 0 -103 40q-42 41 -42 102zM240 -18q0 25 -25 26q-49 6 -82 44t-33 93t38 95t101 39q63 1 103 -45t41 -132q0 -123 -85 -233t-210 -141l-2 4q74 40 114 112t40 138z" />
    <glyph glyph-name="less" unicode="&#x3c;" horiz-adv-x="1105" 
d="M133 664l799 366l14 -35l-727 -333l727 -334l-14 -35l-799 366v5z" />
    <glyph glyph-name="equal" unicode="=" horiz-adv-x="1105" 
d="M1004 461h-902v37h902v-37zM1004 827h-902v37h902v-37z" />
    <glyph glyph-name="greater" unicode="&#x3e;" horiz-adv-x="1105" 
d="M973 664v-5l-799 -366l-14 35l727 334l-727 333l14 35z" />
    <glyph glyph-name="question" unicode="?" horiz-adv-x="907" 
d="M268 124q0 60 42 102t102 42t103 -41q42 -41 42 -102t-42 -101t-102 -40t-103 40q-42 40 -42 100zM289 639q-1 89 105 197t136 145q98 111 98 216t-58 165q-60 60 -150 61q-31 0 -65 -5t-46 -34l-153 -362h-4l-132 334q214 104 428 104t330 -84t115 -234
q0 -150 -154 -278l-198 -170q-106 -86 -107 -194q0 -14 4 -47l-2 -2q-147 61 -147 188z" />
    <glyph glyph-name="at" unicode="@" horiz-adv-x="2060" 
d="M1163 948q-117 0 -207 -151q-61 -101 -101 -245t-40 -273q0 -158 86 -158q93 -1 193 237q23 56 86 262t80 281q-25 47 -97 47zM1343 221q0 -188 142 -188q164 0 299 183t135 458q0 322 -222 526t-577 205q-422 0 -700 -286t-279 -726q0 -387 250 -605t621 -218
q242 0 512 158l16 -33q-260 -162 -519 -162t-461 93t-330 292t-128 475q0 457 291 753t731 296q369 0 601 -217q233 -217 233 -531t-154 -513q-154 -198 -374 -197q-139 0 -228 72q-88 73 -88 212q0 55 10 99h-4q-133 -383 -336 -383q-96 0 -158 78t-63 231q0 275 159 501
t363 226q141 0 185 -105l256 107l4 -4l-156 -594q-31 -121 -31 -203z" />
    <glyph glyph-name="A" unicode="A" horiz-adv-x="1304" 
d="M549 1217l-225 -674h444zM1309 0h-553v4l123 123q18 18 8 53l-107 324h-469l-78 -236q-6 -22 -4 -32t21 -29l186 -203v-4h-471v4l178 195q39 43 52 80l315 952q10 31 7 42t-21 32l-117 131v4h391l408 -1245q16 -49 45 -82l86 -109v-4z" />
    <glyph glyph-name="B" unicode="B" horiz-adv-x="1312" 
d="M500 1358v-592h112q127 0 201 83t74 239t-71 234t-195 79h-84q-23 0 -30 -8t-7 -35zM614 729h-114v-645q0 -31 10 -38t51 -7h55q319 0 320 348q0 170 -77 256t-245 86zM35 1440h651q240 0 371 -87t131 -255q0 -140 -106 -230t-273 -106v-6q193 -8 313 -102t119 -246
q0 -192 -143 -300t-385 -108h-678v4l158 111q23 16 22 45v1120q0 29 -22 45l-158 111v4z" />
    <glyph glyph-name="C" unicode="C" horiz-adv-x="1253" 
d="M63 714q-1 342 179 544t501 202q211 0 406 -43v-463h-4l-254 430q-14 23 -31 32t-94 9q-377 1 -377 -705t385 -706q37 0 51 2q43 4 64 35l256 445h4v-482q-174 -35 -385 -34q-352 0 -526 196t-175 538z" />
    <glyph glyph-name="D" unicode="D" horiz-adv-x="1421" 
d="M549 39h43q221 0 333 165t111 523q0 674 -413 674h-91q-18 0 -25 -7t-7 -32v-1278q0 -31 8 -38t41 -7zM35 0v4l158 111q23 16 22 45v1120q0 29 -22 45l-158 111v4h635q338 0 514 -184t176 -522t-184 -536t-525 -198h-616z" />
    <glyph glyph-name="E" unicode="E" horiz-adv-x="1226" 
d="M1124 0h-1089v4l158 111q23 16 22 45v1120q0 29 -22 45l-158 111v4h1071v-467h-4l-215 393q-18 35 -58 35h-297q-20 0 -26 -8t-6 -35v-610h200q31 2 56 34l155 197h4v-500h-4l-155 199q-27 33 -58 33h-198v-629q0 -27 6 -35t26 -8h308q49 0 65 27l215 401h4v-467z" />
    <glyph glyph-name="F" unicode="F" horiz-adv-x="1161" 
d="M739 0h-704v4l158 111q23 16 22 45v1120q0 29 -22 45l-158 111v4h1071v-467h-4l-215 393q-18 35 -58 35h-294q-19 0 -27 -8t-8 -35v-610h200q31 2 56 34l155 197h4v-500h-4l-155 199q-27 33 -58 33h-198v-539q0 -27 24 -43l215 -125v-4z" />
    <glyph glyph-name="G" unicode="G" horiz-adv-x="1363" 
d="M700 -20q-309 0 -473 198t-164 536q-1 338 181 542t501 204q229 0 429 -45v-465h-5l-256 432q-14 25 -26 34t-105 9q-391 0 -391 -696q0 -365 85 -538t265 -173q68 0 136 25q25 10 24 39v385q0 33 -20 51l-140 115v4h607v-4l-140 -113q-23 -18 -22 -53v-487l-248 47
q-123 -47 -238 -47z" />
    <glyph glyph-name="H" unicode="H" horiz-adv-x="1550" 
d="M1335 1280v-1120q0 -29 25 -45l158 -111v-4h-648v4l158 111q23 18 23 45v559h-551v-559q0 -29 24 -45l158 -111v-4h-647v4l158 111q23 16 22 45v1120q0 29 -22 45l-158 111v4h647v-4l-158 -111q-25 -18 -24 -45v-522h551v522q0 29 -23 45l-158 111v4h648v-4l-158 -111
q-25 -18 -25 -45z" />
    <glyph glyph-name="I" unicode="I" horiz-adv-x="716" 
d="M500 1280v-1120q0 -29 24 -45l158 -111v-4h-647v4l158 111q23 16 22 45v1120q0 29 -22 45l-158 111v4h647v-4l-158 -111q-24 -18 -24 -45z" />
    <glyph glyph-name="J" unicode="J" horiz-adv-x="655" 
d="M186 82v1198q0 29 -24 45l-158 111v4h647v-4l-157 -111q-25 -18 -25 -45v-1141q0 -254 -143 -401t-396 -170l-2 4q258 129 258 510z" />
    <glyph glyph-name="K" unicode="K" horiz-adv-x="1382" 
d="M1409 0h-405l-486 713l483 508q16 20 15 28q-2 8 -21 27l-166 160v4h580v-4l-276 -164q-60 -35 -95 -70l-301 -313l477 -701q31 -45 62 -69l133 -115v-4zM500 1280v-1120q0 -29 24 -45l158 -111v-4h-647v4l158 111q23 16 22 45v1120q0 29 -22 45l-158 111v4h647v-4
l-158 -111q-24 -18 -24 -45z" />
    <glyph glyph-name="L" unicode="L" horiz-adv-x="1161" 
d="M1100 0h-1065v4l158 111q23 16 22 45v1120q0 29 -22 45l-158 111v4h647v-4l-158 -111q-25 -18 -24 -45v-1198q0 -27 6 -35t26 -8h265q51 0 65 27l234 426h4v-492z" />
    <glyph glyph-name="M" unicode="M" horiz-adv-x="1783" 
d="M1567 160q0 -29 24 -45l158 -111v-4h-647v4l158 111q25 16 24 45v911q0 70 6 131l-481 -1214h-4l-477 1097q-18 39 -45 115v-932q0 -25 5 -34t25 -29l199 -201v-4h-500v4l201 201q29 31 29 63v953q0 37 -21 55l-172 160v4h434l447 -1034l411 1034h408v-4l-158 -121
q-25 -16 -24 -45v-1110z" />
    <glyph glyph-name="N" unicode="N" horiz-adv-x="1419" 
d="M37 1440h414l716 -1147v878q0 35 -28 64l-201 201v4h500v-4l-199 -201q-31 -33 -31 -64v-1171h-190l-731 1167v-899q0 -35 30 -63l201 -201v-4h-502v4l201 201q29 29 29 63v920q0 43 -23 67l-186 181v4z" />
    <glyph glyph-name="O" unicode="O" horiz-adv-x="1449" 
d="M727 1460q313 0 485 -194t172 -546q0 -353 -172 -547q-172 -193 -485 -193t-487 194t-174 546t174 546t487 194zM1061 720q0 706 -334 705q-336 1 -336 -703t336 -708q334 0 334 706z" />
    <glyph glyph-name="P" unicode="P" horiz-adv-x="1263" 
d="M500 1360v-772h118q131 0 215 103q83 103 83 304t-78 303t-209 103h-90q-23 0 -31 -8t-8 -33zM655 549h-155v-369q0 -43 22 -57l228 -119v-4h-715v4l158 111q23 16 22 45v1120q0 29 -22 45l-158 111v4h659q232 0 378 -106t146 -328q0 -221 -156 -339q-157 -118 -407 -118
z" />
    <glyph glyph-name="Q" unicode="Q" horiz-adv-x="1452" 
d="M1061 720q0 706 -334 705q-336 1 -336 -703t336 -708q334 0 334 706zM1061 -483q-137 0 -281 51l-420 145q-72 25 -118 25t-74 -4l-2 2l321 278q-205 66 -313 246t-108 461q0 352 174 546q174 193 487 193t485 -194t172 -546q0 -353 -172 -547t-485 -193q-96 0 -201 24
l-102 -92l455 -143q129 -41 269 -41t238 71l74 56l4 -2l-94 -164q-98 -172 -309 -172z" />
    <glyph glyph-name="R" unicode="R" horiz-adv-x="1359" 
d="M500 1360v-660h102q295 0 295 342q0 193 -72 276t-207 83h-79q-23 0 -31 -8t-8 -33zM588 662h-88v-504q0 -29 24 -45l162 -109v-4h-651v4l158 111q23 16 22 45v1120q0 29 -22 45l-158 111v4h696q209 0 342 -95t133 -286q0 -145 -103 -245t-282 -130v-4l152 -80l252 -434
q23 -41 61 -76l98 -86v-4h-393l-350 631q-18 31 -53 31z" />
    <glyph glyph-name="S" unicode="S" horiz-adv-x="1101" 
d="M534 -20q-224 0 -411 55v457h4l223 -433q18 -33 45 -36q70 -8 105 -9q137 0 223 67t86 179q1 112 -63 174t-207 133l-125 60q-326 152 -326 426q0 182 133 295q133 112 331 112t390 -47v-440h-4l-231 413q-18 35 -44 37t-73 2q-125 1 -201 -69t-76 -176q1 -106 59 -167
q58 -60 171 -114l151 -72q176 -84 264 -172t89 -233q-1 -194 -145 -318t-368 -124z" />
    <glyph glyph-name="T" unicode="T" horiz-adv-x="1263" 
d="M774 166q0 -29 23 -45l172 -117v-4h-674v4l170 117q25 16 24 45v1235h-180q-25 0 -34 -6t-19 -31l-213 -430h-4v506h1184v-506h-4l-211 430q-10 25 -20 31t-34 6h-180v-1235z" />
    <glyph glyph-name="U" unicode="U" horiz-adv-x="1355" 
d="M700 -20q-276 0 -398 118t-122 353v825q0 27 -24 45l-144 115v4h629v-4l-154 -115q-23 -16 -22 -45v-791q0 -440 330 -440q155 0 241 120t86 347v659q0 37 -30 64l-199 201v4h498v-4l-199 -201q-29 -27 -29 -64v-657q0 -534 -463 -534z" />
    <glyph glyph-name="V" unicode="V" horiz-adv-x="1253" 
d="M-20 1440h555v-4l-125 -123q-16 -18 -7 -51l349 -1043l301 944q6 27 3 39t-24 35l-182 199v4h473v-4l-174 -191q-41 -43 -53 -84l-371 -1161h-197l-417 1245q-16 49 -45 82l-86 109v4z" />
    <glyph glyph-name="W" unicode="W" horiz-adv-x="2017" 
d="M-20 1440h552v-4l-122 -123q-18 -18 -9 -51l340 -1045l244 756l-86 272q-10 37 -41 80l-78 111v4h543v-4l-123 -123q-18 -18 -8 -49l326 -1041l301 940q6 29 2 39t-25 35l-180 199v4h471v-4l-172 -191q-41 -43 -53 -84l-371 -1161h-197l-288 907l-291 -907h-197
l-407 1245q-16 49 -45 82l-86 109v4z" />
    <glyph glyph-name="X" unicode="X" horiz-adv-x="1392" 
d="M1407 0h-616v4l108 102q27 25 6 54l-291 456l-264 -376q-27 -35 -4 -58l176 -178v-4h-534v4l231 166q59 41 92 86l279 397l-381 600q-20 31 -64 70l-125 113v4h619v-4l-111 -103q-16 -14 -16 -24t12 -29l254 -401l226 321q27 35 4 57l-177 179v4h535v-4l-231 -166
q-59 -41 -93 -86l-239 -342l418 -656q20 -30 63 -69l123 -113v-4z" />
    <glyph glyph-name="Y" unicode="Y" horiz-adv-x="1261" 
d="M782 569v-403q0 -20 4 -28t21 -17l170 -117v-4h-674v4l172 117q23 16 23 45v375q0 33 -15 57l-350 649q-18 35 -55 76l-105 113v4h602v-4l-126 -121q-20 -20 -9 -43l322 -610l268 524q16 31 -6 55l-176 195v4h487v-4l-205 -191q-39 -35 -63 -78l-268 -522
q-17 -31 -17 -76z" />
    <glyph glyph-name="Z" unicode="Z" horiz-adv-x="1226" 
d="M1128 504v-504h-1101v4l817 1397h-418q-47 0 -64 -27l-243 -444h-4v510h1065v-4l-820 -1397h451q49 0 63 27l250 438h4z" />
    <glyph glyph-name="bracketleft" unicode="[" horiz-adv-x="718" 
d="M352 1321v-1444q0 -31 25 -39l321 -96v-4l-534 -29v1780l534 -29v-4l-321 -96q-25 -6 -25 -39z" />
    <glyph glyph-name="backslash" unicode="\" horiz-adv-x="778" 
d="M674 -313l-608 1812l36 12l611 -1812z" />
    <glyph glyph-name="bracketright" unicode="]" horiz-adv-x="718" 
d="M367 -123v1444q0 31 -25 39l-322 96v4l535 29v-1780l-535 29v4l322 96q25 8 25 39z" />
    <glyph glyph-name="asciicircum" unicode="^" horiz-adv-x="1105" 
d="M553 1460l367 -798l-33 -17l-336 729l-334 -729l-35 17l367 798h4z" />
    <glyph glyph-name="underscore" unicode="_" horiz-adv-x="1024" 
d="M1014 -186h-1004v36h1004v-36z" />
    <glyph glyph-name="grave" unicode="`" horiz-adv-x="661" 
d="M102 1440h285l172 -334l-4 -4l-453 334v4z" />
    <glyph glyph-name="a" unicode="a" horiz-adv-x="997" 
d="M508 506q-92 0 -146 -62t-53 -148q0 -87 40 -134t102 -47q94 0 153 96l4 278q-43 17 -100 17zM612 731q0 117 -47 185t-141 69q-33 0 -42 -4t-20 -23l-143 -288h-4l-109 278q182 72 379 72t283 -84q96 -100 96 -330v-37l-12 -325q-6 -129 68 -129q45 0 61 49h4
q2 -33 -16 -76q-19 -43 -65 -74q-46 -30 -118 -30t-126 53q-52 53 -54 156q-31 -96 -105 -153q-75 -56 -181 -56t-186 74q-79 74 -79 209q-1 136 101 217t236 81t216 -61l4 219v8z" />
    <glyph glyph-name="b" unicode="b" horiz-adv-x="1112" 
d="M556 891q-106 0 -183 -115v-649q55 -61 151 -61q252 0 252 434q0 195 -57 293t-163 98zM684 1020q170 0 268 -136t98 -368t-115 -382q-116 -150 -303 -150t-263 120l-250 -120h-4v1316q0 31 -23 48l-121 88v4l402 47v-688q100 221 311 221z" />
    <glyph glyph-name="c" unicode="c" horiz-adv-x="929" 
d="M569 987q-245 -1 -245 -427q0 -214 80 -319t206 -106q180 0 273 203h4q-29 -164 -127 -259t-273 -95t-305 130q-129 130 -129 389q1 259 149 388t359 129q158 0 320 -57l-111 -324h-4l-137 322q-14 27 -39 26h-21z" />
    <glyph glyph-name="d" unicode="d" horiz-adv-x="1155" 
d="M560 109q97 0 177 110v608q-68 95 -169 95t-168 -100q-66 -100 -66 -307q0 -206 64 -306t162 -100zM995 154q0 -31 21 -48l123 -102v-4h-402v201q-86 -217 -297 -217q-170 0 -276 139t-106 374t118 379q119 144 300 144t261 -172v452q0 31 -20 48l-121 88v4l399 47v-1333
z" />
    <glyph glyph-name="e" unicode="e" horiz-adv-x="995" 
d="M520 987q-184 0 -201 -381h367q2 16 2 39q0 342 -168 342zM319 569v-32q0 -197 83 -300t212 -104q221 0 318 223h4q-70 -373 -422 -372q-195 0 -327 130t-132 393t142 388t322 125q179 0 299 -98t120 -301q0 -19 -4 -52h-615z" />
    <glyph glyph-name="f" unicode="f" horiz-adv-x="679" 
d="M53 967v37h127v40q0 220 89 318t252 98t306 -49l-114 -276h-4l-119 266q-10 18 -16 22t-27 4q-109 0 -109 -217v-206h277v-37h-277v-820q0 -20 5 -27t26 -18l170 -98v-4h-600v4l121 88q20 12 20 45v830h-127z" />
    <glyph glyph-name="g" unicode="g" horiz-adv-x="1026" 
d="M338 688q0 -301 158 -301t157 301q1 301 -157 301t-158 -301zM205 -215q0 -109 94 -169t221 -60t216 56t89 159q0 154 -227 161l-238 9l-51 4q-104 -51 -104 -160zM82 686q0 160 115 247t279 87t265 -62q20 -12 39 9l205 247h4v-309h-190q111 -89 111 -237t-118 -231
t-298 -83q-78 0 -138 15q-96 -27 -96 -95q0 -42 49 -68t142 -26h176q176 0 271 -72t95 -208q0 -176 -152 -280q-153 -103 -374 -103q-168 0 -293 59t-125 168q1 74 61 128t177 77q-93 19 -143 73t-50 131t62 137t172 87q-113 33 -180 110q-66 78 -66 199z" />
    <glyph glyph-name="h" unicode="h" horiz-adv-x="1173" 
d="M592 879q-102 0 -176 -125v-617q0 -27 22 -45l121 -88v-4h-543v4l121 88q20 16 21 45v1163q0 31 -21 48l-121 88v4l400 47v-717q76 250 313 250q299 0 299 -418q0 -137 -4 -465q0 -27 23 -45l122 -88v-4h-544v4l116 88q23 18 23 43l6 410q0 172 -38 253t-140 81z" />
    <glyph glyph-name="i" unicode="i" horiz-adv-x="606" 
d="M45 1004h399v-867q0 -27 23 -45l121 -88v-4h-543v4l121 88q20 16 20 45v713q0 31 -20 47l-121 102v5zM305 1139q-59 0 -100 39t-41 98t41 99t101 40t102 -40t41 -99t-43 -98t-101 -39z" />
    <glyph glyph-name="j" unicode="j" horiz-adv-x="559" 
d="M150 1276q0 59 40 99q42 40 102 40t100 -40t40 -99t-41 -98t-100 -39t-101 39q-40 39 -40 98zM31 1004h399v-947q0 -229 -114 -367t-330 -139q-18 0 -56 5v4q121 16 182 115q60 99 60 302v873q0 31 -20 47l-121 102v5z" />
    <glyph glyph-name="k" unicode="k" horiz-adv-x="1095" 
d="M1118 0h-370l-248 496q-28 54 -84 16v-375q0 -27 22 -45l121 -88v-4h-543v4l121 88q20 16 21 45v1163q0 31 -21 48l-121 88v4l400 47v-957l368 279q20 14 2 35l-147 155v5h453v-5l-390 -292q-23 -16 -12 -35l279 -529q18 -37 47 -59l102 -80v-4z" />
    <glyph glyph-name="l" unicode="l" horiz-adv-x="575" 
d="M416 137q0 -27 22 -45l121 -88v-4h-543v4l121 88q20 16 21 45v1163q0 31 -21 48l-121 88v4l400 47v-1350z" />
    <glyph glyph-name="m" unicode="m" horiz-adv-x="1810" 
d="M1239 879q-117 0 -197 -119q15 -66 15 -180t-4 -443q0 -27 22 -45l121 -88v-4h-543v4l115 88q25 16 25 43l6 410q0 172 -38 253q-39 81 -141 81t-176 -125v-617q0 -27 23 -45l121 -88v-4h-543v4l121 88q20 16 20 45v713q0 31 -20 47l-121 102v5h399v-234q76 250 308 250
t288 -248q37 116 123 182t217 66t208 -104t77 -314q0 -137 -4 -465q0 -27 22 -45l121 -88v-4h-542v4l114 88q25 16 25 43l6 406q0 172 -38 255t-130 83z" />
    <glyph glyph-name="n" unicode="n" horiz-adv-x="1202" 
d="M620 879q-102 0 -176 -125v-617q0 -27 23 -45l121 -88v-4h-543v4l121 88q20 16 20 45v713q0 31 -20 47l-121 102v5h399v-234q76 250 314 250q299 0 299 -418q0 -137 -4 -465q0 -27 22 -45l121 -88v-4h-543v4l115 88q25 16 25 43l6 410q0 172 -38 253q-39 81 -141 81z" />
    <glyph glyph-name="o" unicode="o" horiz-adv-x="1097" 
d="M549 -16q-227 0 -361 135q-133 135 -133 384t133 383q134 134 362 134t360 -134t132 -383t-133 -384t-360 -135zM549 987q-98 0 -150 -108q-51 -109 -51 -376t51 -377t149 -110t151 110q52 110 53 376q0 266 -52 376t-151 109z" />
    <glyph glyph-name="p" unicode="p" horiz-adv-x="1155" 
d="M598 891q-106 0 -182 -131v-602q64 -76 170 -76t170 109q63 109 63 305t-57 296q-58 99 -164 99zM158 -330v1180q0 31 -21 47l-121 102v5h400v-224q100 240 313 240q168 0 267 -134q100 -134 100 -370t-114 -384t-306 -148t-260 159v-460q0 -31 30 -48l170 -98v-4h-600v4
l121 88q21 16 21 45z" />
    <glyph glyph-name="q" unicode="q" horiz-adv-x="1110" 
d="M560 113q101 0 179 114v643q-77 64 -171 64t-164 -104t-70 -304q0 -198 62 -306q63 -107 164 -107zM739 -317v526q-90 -225 -307 -225q-154 0 -264 139t-109 375q0 236 119 380q119 142 296 142t265 -131l258 131v-1350q0 -29 21 -45l106 -88v-4h-583v4l170 98
q28 17 28 48z" />
    <glyph glyph-name="r" unicode="r" horiz-adv-x="843" 
d="M444 154q0 -31 29 -48l211 -102v-4h-639v4l121 88q20 16 20 45v713q0 31 -20 47l-121 102v5h399v-289q27 123 104 214t193 91q70 0 119 -43l-108 -311h-4l-130 211q-10 12 -36 2q-26 -9 -56 -47q-31 -38 -41 -58l-41 -82v-538z" />
    <glyph glyph-name="s" unicode="s" horiz-adv-x="888" 
d="M829 307q1 -155 -117 -239t-300 -84t-349 63l99 299h4l137 -299q14 -28 108 -30q93 -1 146 49t53 120t-44 108t-148 85l-131 59q-197 90 -197 281q0 137 108 219t274 82t327 -51l-94 -279h-5l-143 266q-16 31 -63 31h-25q-76 0 -126 -43t-50 -115q0 -71 43 -111t129 -77
l135 -57q111 -47 170 -109t59 -168z" />
    <glyph glyph-name="t" unicode="t" horiz-adv-x="659" 
d="M397 967v-707q0 -70 30 -108t80 -37t88 29t56 71l4 -2q-16 -98 -85 -164t-191 -65q-240 0 -240 254v729h-129v37h105q33 0 55 26l223 311h4v-337h273v-37h-273z" />
    <glyph glyph-name="u" unicode="u" horiz-adv-x="1157" 
d="M568 125q95 0 169 125v600q0 31 -20 47l-121 102v5h401v-850q0 -31 21 -48l121 -102v-4h-402v227q-86 -244 -303 -243q-293 0 -293 415q0 123 4 451q0 31 -20 49l-123 100v5h401l-4 -543q0 -170 37 -253t132 -83z" />
    <glyph glyph-name="v" unicode="v" horiz-adv-x="925" 
d="M-23 1004h457v-5l-84 -102q-16 -23 -8 -51l227 -633l189 530q12 33 -10 70l-119 186v5h334v-5l-129 -184q-23 -33 -39 -76l-260 -739h-156l-301 821q-16 47 -37 80l-64 98v5z" />
    <glyph glyph-name="w" unicode="w" horiz-adv-x="1503" 
d="M-23 1004h455v-5l-86 -102q-16 -18 -6 -51l221 -637l160 442l-59 170q-16 51 -35 80l-64 98v5h453v-5l-84 -102q-18 -25 -8 -51l223 -635l186 532q14 37 -8 70l-119 186v5h334v-5l-129 -184q-25 -37 -39 -76l-260 -739h-158l-213 596l-215 -596h-157l-293 821
q-14 45 -35 80l-64 98v5z" />
    <glyph glyph-name="x" unicode="x" horiz-adv-x="1001" 
d="M-23 1004h523v-5l-103 -84q-20 -16 0 -47l172 -254l150 195q14 21 15 29t-13 26l-111 135v5h394v-5l-191 -149q-39 -29 -74 -74l-149 -192l291 -426q25 -35 63 -74l82 -80v-4h-522v4l104 86q20 16 -2 47l-178 262l-156 -202q-16 -19 -16 -29t14 -29l111 -135v-4h-393v4
l190 150q33 27 74 75l156 201l-283 416q-29 43 -66 78l-82 75v5z" />
    <glyph glyph-name="y" unicode="y" horiz-adv-x="929" 
d="M115 -483q-47 0 -92 20l73 332h4l156 -203q14 -20 26 -20t25 20q55 76 129 244l-368 940q-10 27 -37 70l-51 79v5h460v-5l-90 -100q-18 -20 -6 -49l227 -606l195 495q14 37 -4 66l-123 194v5h332v-5l-123 -180q-25 -37 -45 -86l-307 -788q-57 -145 -138 -271
q-98 -157 -243 -157z" />
    <glyph glyph-name="z" unicode="z" horiz-adv-x="925" 
d="M29 0v4l569 965h-248q-27 0 -34 -4t-21 -27l-211 -324h-6v390h815v-5l-563 -962h248q27 0 35 4t22 27l225 342h6l-30 -410h-807z" />
    <glyph glyph-name="braceleft" unicode="{" horiz-adv-x="720" 
d="M567 1491q63 0 133 -16v-5q-156 8 -228 -88t-60 -208l32 -355q8 -82 -43 -140t-133 -77v-4q82 -18 133 -78t43 -139l-32 -356q-10 -113 62 -208t226 -87v-4q-70 -16 -133 -17q-151 -1 -263 99t-95 268l35 358q6 64 -42 110t-130 54v4q84 10 131 55t41 109l-35 358
q-16 168 96 268q113 99 262 99z" />
    <glyph glyph-name="bar" unicode="|" horiz-adv-x="448" 
d="M244 -512h-39v2048h39v-2048z" />
    <glyph glyph-name="braceright" unicode="}" horiz-adv-x="720" 
d="M152 1491q152 -1 264 -101t96 -266l-35 -358q-6 -62 41 -108t131 -56v-4q-82 -8 -130 -54t-42 -110l35 -358q16 -168 -96 -267t-264 -100q-61 0 -132 17v4q156 -8 228 87t61 208l-33 356q-8 80 43 139t134 78v4q-85 18 -135 76t-42 141l33 355q11 112 -61 208t-228 88v5
q70 16 132 16z" />
    <glyph glyph-name="asciitilde" unicode="~" horiz-adv-x="1028" 
d="M745 567q-94 0 -238 68t-226 67q-123 0 -197 -120l-33 20q82 137 230 137q94 1 238 -67t226 -68q127 0 201 119l31 -18q-82 -138 -232 -138z" />
    <glyph glyph-name="uni00A0" unicode="&#xa0;" horiz-adv-x="407" 
 />
    <glyph glyph-name="exclamdown" unicode="&#xa1;" horiz-adv-x="557" 
d="M277 1018q61 0 103 -40t42 -101t-42 -103t-102 -41t-103 43q-42 42 -42 102t42 100t102 40zM96 -438l176 997h4l185 -997h-365z" />
    <glyph glyph-name="cent" unicode="&#xa2;" horiz-adv-x="940" 
d="M307 570q-1 -181 59 -284t156 -136v833q-98 -14 -156 -123t-59 -290zM557 -215h-35v199h-26q-193 0 -318 130t-125 385t134 384t335 137v219h35v-219q176 -4 330 -51v-4l-125 -328h-4l-133 326q-5 14 -17 18t-51 4v-844q29 -6 57 -6q186 0 269 203h4q-23 -148 -105 -242
t-225 -110v-201z" />
    <glyph glyph-name="sterling" unicode="&#xa3;" horiz-adv-x="1132" 
d="M858 606h-348q12 -55 12 -110q0 -215 -229 -275v-2h506q53 0 70 6t42 35l138 166h4l-47 -426h-955v4l170 193q96 104 96 235q0 57 -45 174h-204v37h188q-4 10 -41 94t-46 116t-21 76t-13 105q0 199 121 313q121 113 345 113t409 -55l-72 -371h-4l-195 357q-14 31 -53 30
h-57q-125 0 -180 -90q-114 -186 11 -553q30 -88 42 -135h356v-37z" />
    <glyph glyph-name="currency" unicode="&#xa4;" horiz-adv-x="1359" 
d="M680 283q190 -1 319 119t129 318t-129 320t-319 121q-190 0 -318 -122q-128 -121 -129 -319q0 -198 128 -318q129 -119 319 -119zM680 246q-197 0 -330 116l-231 -229l-25 25l228 229q-127 131 -127 333t129 335l-230 231l25 27l231 -232q136 117 328 117t332 -117
l231 232l27 -27l-232 -231q131 -131 131 -332t-131 -336l230 -227l-25 -27l-229 229q-135 -116 -332 -116z" />
    <glyph glyph-name="yen" unicode="&#xa5;" horiz-adv-x="1277" 
d="M786 334v-168q0 -20 4 -28t21 -17l170 -117v-4h-674v4l172 117q23 16 23 45v168h-301v37h301v176h-301v37h295l-359 663q-18 35 -55 76l-105 113v4h603v-4l-127 -121q-20 -20 -9 -43l322 -610l268 524q16 31 -6 55l-176 195v4h487v-4l-204 -191q-39 -35 -64 -78
l-268 -522q-16 -31 -17 -61h308v-37h-308v-176h308v-37h-308z" />
    <glyph glyph-name="brokenbar" unicode="&#xa6;" horiz-adv-x="448" 
d="M244 659h-39v877h39v-877zM244 -512h-39v897h39v-897z" />
    <glyph glyph-name="section" unicode="&#xa7;" horiz-adv-x="1044" 
d="M768 438q0 119 -164 232l-233 161q-35 -16 -62 -64t-26 -95q0 -117 161 -230l234 -163q33 18 61 66q29 48 29 93zM944 548q0 -108 -76 -178t-174 -104q176 -133 176 -307q0 -143 -110 -225t-274 -82q-162 0 -302 35l74 395h4l160 -363q18 -37 55 -36h27q86 0 138 54
t52 128q0 131 -219 272l-94 62q-154 100 -215 178t-62 184q0 106 77 179t173 104q-176 137 -176 309q0 143 111 225t269 82t306 -35l-73 -395h-5l-159 361q-9 23 -19 31t-33 8h-30q-86 0 -138 -54t-53 -131q0 -131 219 -272l95 -62q154 -100 215 -178q61 -77 61 -185z" />
    <glyph glyph-name="dieresis" unicode="&#xa8;" horiz-adv-x="817" 
d="M471 1275q0 50 35 86t86 36t87 -36t36 -86t-37 -85t-87 -35t-85 35t-35 85zM102 1275q0 50 36 86t86 36t86 -36t36 -86t-36 -85t-86 -35t-86 35t-36 85z" />
    <glyph glyph-name="copyright" unicode="&#xa9;" horiz-adv-x="1665" 
d="M676 716q0 -184 55 -286t152 -102q43 0 55 20l170 240h2v-273q-94 -20 -236 -20q-204 0 -314 116t-110 307t114 310t298 119q141 0 248 -25v-262h-2l-174 234q-14 23 -64 22q-90 0 -142 -108t-52 -292zM131 718q0 -314 202 -508q201 -194 499 -194t500 194t202 508
t-203 510t-500 196t-499 -196t-201 -510zM92 718q0 330 213 536t526 206t527 -206t215 -536q0 -330 -214 -535q-213 -203 -527 -203t-527 204t-213 534z" />
    <glyph glyph-name="ordfeminine" unicode="&#xaa;" horiz-adv-x="823" 
d="M394 1102q-50 0 -86 -41t-36 -99t27 -90q27 -30 77 -30t97 61l2 187q-31 12 -81 12zM690 838q27 0 41 34h4q0 -29 -10 -51q-33 -74 -121 -73q-53 0 -90 34t-41 99q-23 -61 -74 -97t-121 -36t-125 51t-55 144t70 149t160 57q90 0 147 -43l4 151q4 168 -139 168
q-27 0 -37 -18l-94 -195h-2l-74 199q129 49 261 49t198 -66t59 -243l-8 -225q-4 -88 47 -88z" />
    <glyph glyph-name="guillemotleft" unicode="&#xab;" horiz-adv-x="919" 
d="M422 516l434 436l2 -2l-196 -436l196 -436l-2 -2l-434 436v4zM59 516l435 436l2 -2l-197 -436l197 -436l-2 -2l-435 436v4z" />
    <glyph glyph-name="logicalnot" unicode="&#xac;" horiz-adv-x="1105" 
d="M1024 223h-39v424h-905v37h944v-461z" />
    <glyph glyph-name="uni00AD" unicode="&#xad;" horiz-adv-x="718" 
d="M94 481v39h533v-39h-533z" />
    <glyph glyph-name="registered" unicode="&#xae;" horiz-adv-x="1665" 
d="M758 1061v-336h57q145 0 145 179t-133 179h-45q-24 1 -24 -22zM575 422v608q0 16 -14 27l-88 57v4h426q115 0 187 -51t71 -143q0 -92 -56 -148q-56 -55 -157 -69v-5l86 -43l139 -233q20 -33 35 -43l58 -45v-4h-246l-182 340q-10 16 -31 16h-45v-268q0 -16 14 -27l86 -57
v-4h-385v4l88 57q14 10 14 27zM131 718q0 -314 202 -508q201 -194 499 -194t500 194t202 508t-203 510t-500 196t-499 -196t-201 -510zM92 718q0 330 213 536t526 206t527 -206t215 -536q0 -330 -214 -535q-213 -203 -527 -203t-527 204t-213 534z" />
    <glyph glyph-name="macron" unicode="&#xaf;" horiz-adv-x="741" 
d="M639 1212h-537v37h537v-37z" />
    <glyph glyph-name="degree" unicode="&#xb0;" horiz-adv-x="663" 
d="M111 1207q1 -91 67 -149t155 -58t155 58t65 149q0 91 -66 151q-67 60 -155 61q-88 0 -155 -60q-66 -61 -66 -152zM72 1207q0 109 76 179t184 70t184 -70t76 -180t-76 -176q-76 -68 -184 -68t-185 68q-75 67 -75 177z" />
    <glyph glyph-name="plusminus" unicode="&#xb1;" horiz-adv-x="1105" 
d="M102 215v37h902v-37h-902zM102 748v36h433v330h38v-330h431v-36h-431v-332h-38v332h-433z" />
    <glyph glyph-name="twosuperior" unicode="&#xb2;" 
d="M29 860v4q111 98 196 185q150 145 150 251q0 129 -111 130h-24q-18 0 -25 -17l-84 -188h-4l-82 190q121 45 242 45t189 -44t67 -130q0 -86 -79 -149t-267 -150v-4h215q43 0 59 16l74 70h4l-29 -209h-491z" />
    <glyph glyph-name="threesuperior" unicode="&#xb3;" 
d="M559 1022q0 -70 -75 -120t-210 -50t-237 37l102 198h4l58 -186q6 -14 20 -16t58 -2t80 38t36 105q0 129 -168 137v4q150 25 150 154q0 109 -94 109h-37q-18 0 -25 -17l-84 -184h-4l-82 186q115 45 246 45q240 0 240 -143q0 -109 -162 -141v-5q88 -4 136 -42
q48 -37 48 -107z" />
    <glyph glyph-name="acute" unicode="&#xb4;" horiz-adv-x="661" 
d="M559 1440v-4l-453 -334l-4 4l174 334h283z" />
    <glyph glyph-name="mu" unicode="&#xb5;" horiz-adv-x="1169" 
d="M1010 147q0 -33 20 -49l121 -94v-4h-401v229q-33 -105 -107 -169t-168 -64q-31 0 -63 8v-315q0 -33 28 -49l170 -103v-4h-600v4l125 88q20 14 21 45v1188q0 31 -21 47l-121 94v5h398v-584q0 -166 37 -233t122 -66q106 0 179 129v606q0 31 -21 49l-121 94v5h402v-857z" />
    <glyph glyph-name="paragraph" unicode="&#xb6;" horiz-adv-x="1239" 
d="M717 33h147v1370h-147v-1370zM903 -512h-39v512h-141q-240 0 -402 147q-85 79 -133 221t-49 339q0 197 48 343q47 146 133 228q169 162 403 162h362v-37h-182v-1370h182v-33h-182v-512z" />
    <glyph glyph-name="periodcentered" unicode="&#xb7;" horiz-adv-x="481" 
d="M96 869q0 61 42 103t102 42t103 -41q42 -41 42 -103t-42 -102q-42 -41 -102 -41t-103 41q-42 41 -42 101z" />
    <glyph glyph-name="cedilla" unicode="&#xb8;" horiz-adv-x="743" 
d="M590 -291q0 -84 -62 -138t-164 -54t-170 52t-73 130l4 2q16 -55 64 -85q47 -30 101 -30t93 32t39 86t-38 86t-89 32t-84 -12l-2 4l143 184h4l-18 -125q102 20 177 -30t75 -134z" />
    <glyph glyph-name="onesuperior" unicode="&#xb9;" horiz-adv-x="516" 
d="M352 950q0 -16 15 -22l133 -66v-2h-453v2l133 66q14 6 15 22v381q0 14 -15 19l-145 45v4l317 67v-516z" />
    <glyph glyph-name="ordmasculine" unicode="&#xba;" horiz-adv-x="839" 
d="M420 748q-156 0 -247 93t-91 264t91 263t248 92t247 -92t90 -263t-91 -264t-247 -93zM420 1427q-68 1 -104 -71t-36 -251t36 -251t104 -72t104 72t35 251q1 179 -35 251t-104 71z" />
    <glyph glyph-name="guillemotright" unicode="&#xbb;" horiz-adv-x="919" 
d="M858 512l-434 -436l-2 2l194 436l-194 436l2 2l434 -436v-4zM496 512l-435 -436l-2 2l195 436l-195 436l2 2l435 -436v-4z" />
    <glyph glyph-name="onequarter" unicode="&#xbc;" horiz-adv-x="993" 
d="M731 860h-452v2l133 66q14 6 14 22v381q0 14 -14 19l-146 45v4l318 67v-516q0 -16 14 -22l133 -66v-2zM481 178v316l-231 -316h231zM377 0v2l92 55q12 8 12 23v67h-293v5l324 440h119v-414h31q20 0 30 17l96 167h5l-15 -215h-147v-67q0 -12 14 -23l86 -55v-2h-354z
M123 737h747v-37h-747v37z" />
    <glyph glyph-name="onehalf" unicode="&#xbd;" horiz-adv-x="993" 
d="M229 0v4q111 98 197 184q150 145 149 252q0 129 -110 129h-25q-18 0 -24 -16l-84 -188h-4l-82 190q122 45 242 45t188 -44t68 -130t-79 -150q-79 -63 -268 -149v-4h215q43 0 60 16l73 70h5l-29 -209h-492zM731 860h-452v2l133 66q14 6 14 22v381q0 14 -14 19l-146 45v4
l318 67v-516q0 -16 14 -22l133 -66v-2zM870 737v-37h-747v37h747z" />
    <glyph glyph-name="threequarters" unicode="&#xbe;" horiz-adv-x="993" 
d="M758 1022q0 -70 -75 -120t-211 -50t-236 37l102 198h4l57 -186q5 -12 19 -15t59 -3t81 38t36 105q0 129 -168 137v4q150 25 149 154q0 109 -94 109h-37q-16 -2 -24 -17l-84 -184h-4l-82 186q115 45 246 45q240 0 239 -143q0 -109 -162 -141v-5q89 -4 137 -42
q48 -37 48 -107zM481 178v316l-231 -316h231zM631 80q0 -12 14 -23l86 -55v-2h-354v2l92 55q12 8 12 23v67h-293v5l324 440h119v-414h31q20 0 30 17l96 167h5l-15 -215h-147v-67zM123 700v37h747v-37h-747z" />
    <glyph glyph-name="questiondown" unicode="&#xbf;" horiz-adv-x="837" 
d="M639 878q0 -60 -42 -102t-102 -43q-60 0 -103 41q-42 40 -42 102t42 102t102 40t103 -40q42 -40 42 -100zM618 362q0 -71 -62 -147q-22 -27 -62 -72q-86 -86 -117 -123q-98 -104 -98 -212t59 -169t143 -61t96 9q13 9 21 30l154 363h4l131 -334q-213 -104 -427 -104
t-330 83t-116 227t154 285q12 10 100 86t99 84q107 104 107 173q0 36 -5 69l2 2q147 -61 147 -189z" />
    <glyph glyph-name="Agrave" unicode="&#xc0;" horiz-adv-x="1304" 
d="M297 1874h285l172 -334l-4 -4l-453 334v4zM549 1217l-225 -674h444zM1309 0h-553v4l123 123q18 18 8 53l-107 324h-469l-78 -236q-6 -22 -4 -32t21 -29l186 -203v-4h-471v4l178 195q39 43 52 80l315 952q10 31 7 42t-21 32l-117 131v4h391l408 -1245q16 -49 45 -82
l86 -109v-4z" />
    <glyph glyph-name="Aacute" unicode="&#xc1;" horiz-adv-x="1304" 
d="M948 1874v-4l-452 -334l-4 4l174 334h282zM549 1217l-225 -674h444zM1309 0h-553v4l123 123q18 18 8 53l-107 324h-469l-78 -236q-6 -22 -4 -32t21 -29l186 -203v-4h-471v4l178 195q39 43 52 80l315 952q10 31 7 42t-21 32l-117 131v4h391l408 -1245q16 -49 45 -82
l86 -109v-4z" />
    <glyph glyph-name="Acircumflex" unicode="&#xc2;" horiz-adv-x="1304" 
d="M932 1536l-2 -4l-309 147l-310 -147l-2 4l309 354h5zM549 1217l-225 -674h444zM1309 0h-553v4l123 123q18 18 8 53l-107 324h-469l-78 -236q-6 -22 -4 -32t21 -29l186 -203v-4h-471v4l178 195q39 43 52 80l315 952q10 31 7 42t-21 32l-117 131v4h391l408 -1245
q16 -49 45 -82l86 -109v-4z" />
    <glyph glyph-name="Atilde" unicode="&#xc3;" horiz-adv-x="1304" 
d="M909 1825q1 -130 -47 -185t-106 -55t-150 48q-94 48 -137 48q-88 0 -127 -98h-4q0 130 48 186t106 56t149 -49q92 -49 135 -50q92 0 129 99h4zM549 1217l-225 -674h444zM1309 0h-553v4l123 123q18 18 8 53l-107 324h-469l-78 -236q-6 -22 -4 -32t21 -29l186 -203v-4h-471
v4l178 195q39 43 52 80l315 952q10 31 7 42t-21 32l-117 131v4h391l408 -1245q16 -49 45 -82l86 -109v-4z" />
    <glyph glyph-name="Adieresis" unicode="&#xc4;" horiz-adv-x="1304" 
d="M684 1709q0 50 35 86t86 36t87 -36t36 -86t-37 -85t-87 -35t-85 35t-35 85zM315 1709q0 50 36 86t86 36t86 -36t36 -86t-36 -85t-86 -35t-86 35t-36 85zM549 1217l-225 -674h444zM1309 0h-553v4l123 123q18 18 8 53l-107 324h-469l-78 -236q-6 -22 -4 -32t21 -29
l186 -203v-4h-471v4l178 195q39 43 52 80l315 952q10 31 7 42t-21 32l-117 131v4h391l408 -1245q16 -49 45 -82l86 -109v-4z" />
    <glyph glyph-name="Aring" unicode="&#xc5;" horiz-adv-x="1304" 
d="M762 1716q0 60 -40 100t-99 40t-99 -40q-39 -40 -39 -98t40 -99q41 -40 99 -40t98 39t40 98zM803 1716q0 -76 -52 -126t-127 -50t-127 51q-53 51 -53 126t52 126t127 51q76 0 128 -51t52 -127zM549 1217l-225 -674h444zM1309 0h-553v4l123 123q18 18 8 53l-107 324h-469
l-78 -236q-6 -22 -4 -32t21 -29l186 -203v-4h-471v4l178 195q39 43 52 80l315 952q10 31 7 42t-21 32l-117 131v4h391l408 -1245q16 -49 45 -82l86 -109v-4z" />
    <glyph glyph-name="AE" unicode="&#xc6;" horiz-adv-x="1898" 
d="M887 541v747l-457 -747h457zM1587 979v-500h-4l-158 199q-27 33 -55 33h-201v-629q1 -27 7 -35t28 -8h305q49 0 66 27l215 401h6v-467h-1091v4l157 111q25 16 25 45v342h-481l-136 -223q-20 -33 -20 -47t20 -39l158 -189v-4h-481v4l188 176q68 63 82 86l590 967
q16 31 15 40t-17 27l-133 136v4h1104v-467h-4l-216 393q-18 35 -57 35h-295q-22 0 -28 -8t-7 -35v-610h201q31 2 55 34l158 197h4z" />
    <glyph glyph-name="Ccedilla" unicode="&#xc7;" horiz-adv-x="1253" 
d="M961 -291q1 -84 -61 -138t-164 -54t-171 52q-68 52 -73 130l4 2q16 -55 64 -85t101 -30t93 32q39 32 39 86t-38 86q-37 32 -89 32t-84 -12l-2 4l129 168q-326 14 -486 210t-160 529q-1 335 179 537t501 202q211 0 406 -43v-463h-4l-254 430q-14 23 -31 32t-94 9
q-377 1 -377 -705t385 -706q37 0 51 2q43 4 64 35l256 445h4v-482q-174 -35 -385 -34l-39 2l-16 -109q102 20 177 -30t75 -134z" />
    <glyph glyph-name="Egrave" unicode="&#xc8;" horiz-adv-x="1226" 
d="M317 1874h285l172 -334l-4 -4l-453 334v4zM1124 0h-1089v4l158 111q23 16 22 45v1120q0 29 -22 45l-158 111v4h1071v-467h-4l-215 393q-18 35 -58 35h-297q-20 0 -26 -8t-6 -35v-610h200q31 2 56 34l155 197h4v-500h-4l-155 199q-27 33 -58 33h-198v-629q0 -27 6 -35
t26 -8h308q49 0 65 27l215 401h4v-467z" />
    <glyph glyph-name="Eacute" unicode="&#xc9;" horiz-adv-x="1226" 
d="M1124 0h-1089v4l158 111q23 16 22 45v1120q0 29 -22 45l-158 111v4h1071v-467h-4l-215 393q-18 35 -58 35h-297q-20 0 -26 -8t-6 -35v-610h200q31 2 56 34l155 197h4v-500h-4l-155 199q-27 33 -58 33h-198v-629q0 -27 6 -35t26 -8h308q49 0 65 27l215 401h4v-467z
M969 1874v-4l-453 -334l-4 4l174 334h283z" />
    <glyph glyph-name="Ecircumflex" unicode="&#xca;" horiz-adv-x="1226" 
d="M1124 0h-1089v4l158 111q23 16 22 45v1120q0 29 -22 45l-158 111v4h1071v-467h-4l-215 393q-18 35 -58 35h-297q-20 0 -26 -8t-6 -35v-610h200q31 2 56 34l155 197h4v-500h-4l-155 199q-27 33 -58 33h-198v-629q0 -27 6 -35t26 -8h308q49 0 65 27l215 401h4v-467z
M952 1536l-2 -4l-309 147l-309 -147l-2 4l309 354h4z" />
    <glyph glyph-name="Edieresis" unicode="&#xcb;" horiz-adv-x="1226" 
d="M1124 0h-1089v4l158 111q23 16 22 45v1120q0 29 -22 45l-158 111v4h1071v-467h-4l-215 393q-18 35 -58 35h-297q-20 0 -26 -8t-6 -35v-610h200q31 2 56 34l155 197h4v-500h-4l-155 199q-27 33 -58 33h-198v-629q0 -27 6 -35t26 -8h308q49 0 65 27l215 401h4v-467z
M702 1709q0 50 35 86t86 36t87 -36t36 -86t-37 -85t-87 -35t-85 35t-35 85zM334 1709q0 50 36 86t86 36t86 -36t36 -86t-36 -85t-86 -35t-86 35t-36 85z" />
    <glyph glyph-name="Igrave" unicode="&#xcc;" horiz-adv-x="716" 
d="M35 1874h284l173 -334l-5 -4l-452 334v4zM500 1280v-1120q0 -29 24 -45l158 -111v-4h-647v4l158 111q23 16 22 45v1120q0 29 -22 45l-158 111v4h647v-4l-158 -111q-24 -18 -24 -45z" />
    <glyph glyph-name="Iacute" unicode="&#xcd;" horiz-adv-x="716" 
d="M684 1874v-4l-453 -334l-4 4l174 334h283zM500 1280v-1120q0 -29 24 -45l158 -111v-4h-647v4l158 111q23 16 22 45v1120q0 29 -22 45l-158 111v4h647v-4l-158 -111q-24 -18 -24 -45z" />
    <glyph glyph-name="Icircumflex" unicode="&#xce;" horiz-adv-x="716" 
d="M670 1536l-2 -4l-310 147l-309 -147l-2 4l309 354h4zM500 1280v-1120q0 -29 24 -45l158 -111v-4h-647v4l158 111q23 16 22 45v1120q0 29 -22 45l-158 111v4h647v-4l-158 -111q-24 -18 -24 -45z" />
    <glyph glyph-name="Idieresis" unicode="&#xcf;" horiz-adv-x="716" 
d="M420 1709q0 50 35 86t86 36t87 -36t36 -86t-37 -85t-87 -35t-85 35t-35 85zM51 1709q0 50 36 86t86 36t86 -36t36 -86t-36 -85t-86 -35t-86 35t-36 85zM500 1280v-1120q0 -29 24 -45l158 -111v-4h-647v4l158 111q23 16 22 45v1120q0 29 -22 45l-158 111v4h647v-4
l-158 -111q-24 -18 -24 -45z" />
    <glyph glyph-name="Eth" unicode="&#xd0;" horiz-adv-x="1437" 
d="M637 1401h-84q-21 0 -29 -7t-8 -32v-612h240v-37h-240v-629q0 -31 8 -38t41 -7h43q442 0 442 681t-413 681zM49 713v37h182v524q0 37 -22 53l-162 109v4h639q340 0 515 -184t175 -518t-184 -536t-524 -202h-621v4l162 109q23 16 22 55v545h-182z" />
    <glyph glyph-name="Ntilde" unicode="&#xd1;" horiz-adv-x="1419" 
d="M1006 1825q0 -129 -48 -184q-48 -56 -106 -56t-150 48q-94 48 -137 48q-88 0 -127 -98h-4q0 130 48 186t106 56t149 -49q92 -49 135 -50q92 0 129 99h5zM37 1440h414l716 -1147v878q0 35 -28 64l-201 201v4h500v-4l-199 -201q-31 -33 -31 -64v-1171h-190l-731 1167v-899
q0 -35 30 -63l201 -201v-4h-502v4l201 201q29 29 29 63v920q0 43 -23 67l-186 181v4z" />
    <glyph glyph-name="Ograve" unicode="&#xd2;" horiz-adv-x="1449" 
d="M401 1874h285l172 -334l-4 -4l-453 334v4zM727 1460q313 0 485 -194t172 -546q0 -353 -172 -547q-172 -193 -485 -193t-487 194t-174 546t174 546t487 194zM1061 720q0 706 -334 705q-336 1 -336 -703t336 -708q334 0 334 706z" />
    <glyph glyph-name="Oacute" unicode="&#xd3;" horiz-adv-x="1449" 
d="M727 1460q313 0 485 -194t172 -546q0 -353 -172 -547q-172 -193 -485 -193t-487 194t-174 546t174 546t487 194zM1061 720q0 706 -334 705q-336 1 -336 -703t336 -708q334 0 334 706zM1051 1874v-4l-453 -334l-4 4l174 334h283z" />
    <glyph glyph-name="Ocircumflex" unicode="&#xd4;" horiz-adv-x="1449" 
d="M727 1460q313 0 485 -194t172 -546q0 -353 -172 -547q-172 -193 -485 -193t-487 194t-174 546t174 546t487 194zM1061 720q0 706 -334 705q-336 1 -336 -703t336 -708q334 0 334 706zM1036 1536l-2 -4l-309 147l-309 -147l-2 4l309 354h4z" />
    <glyph glyph-name="Otilde" unicode="&#xd5;" horiz-adv-x="1449" 
d="M1012 1825q0 -130 -48 -185t-106 -55t-150 48q-93 48 -137 48q-88 0 -127 -98h-4q0 130 48 186t106 56q57 0 149 -49t136 -50q92 0 129 99h4zM727 1460q313 0 485 -194t172 -546q0 -353 -172 -547q-172 -193 -485 -193t-487 194t-174 546t174 546t487 194zM1061 720
q0 706 -334 705q-336 1 -336 -703t336 -708q334 0 334 706z" />
    <glyph glyph-name="Odieresis" unicode="&#xd6;" horiz-adv-x="1449" 
d="M727 1460q313 0 485 -194t172 -546q0 -353 -172 -547q-172 -193 -485 -193t-487 194t-174 546t174 546t487 194zM1061 720q0 706 -334 705q-336 1 -336 -703t336 -708q334 0 334 706zM786 1709q0 50 35 86t86 36t87 -36t36 -86t-37 -85t-87 -35t-85 35t-35 85zM418 1709
q0 50 36 86t86 36t86 -36t36 -86t-36 -85t-86 -35t-86 35t-36 85z" />
    <glyph glyph-name="multiply" unicode="&#xd7;" horiz-adv-x="1105" 
d="M248 330l-27 26l305 306l-305 305l27 26l305 -305l305 305l27 -26l-305 -305l305 -306l-27 -26l-305 305z" />
    <glyph glyph-name="Oslash" unicode="&#xd8;" horiz-adv-x="1449" 
d="M727 14q334 0 334 707q0 328 -76 508l-481 -1088q82 -127 223 -127zM391 721q0 -362 90 -539l482 1092q-86 152 -236 151q-336 1 -336 -704zM727 1460q166 0 293 -55l86 192l35 -16l-86 -192q330 -172 329 -668q0 -354 -172 -548t-485 -193q-150 0 -272 47l-86 -195
l-35 16l84 193q-352 162 -352 680q0 351 174 545t487 194z" />
    <glyph glyph-name="Ugrave" unicode="&#xd9;" horiz-adv-x="1355" 
d="M430 1874h285l172 -334l-4 -4l-453 334v4zM700 -20q-276 0 -398 118t-122 353v825q0 27 -24 45l-144 115v4h629v-4l-154 -115q-23 -16 -22 -45v-791q0 -440 330 -440q155 0 241 120t86 347v659q0 37 -30 64l-199 201v4h498v-4l-199 -201q-29 -27 -29 -64v-657
q0 -534 -463 -534z" />
    <glyph glyph-name="Uacute" unicode="&#xda;" horiz-adv-x="1355" 
d="M700 -20q-276 0 -398 118t-122 353v825q0 27 -24 45l-144 115v4h629v-4l-154 -115q-23 -16 -22 -45v-791q0 -440 330 -440q155 0 241 120t86 347v659q0 37 -30 64l-199 201v4h498v-4l-199 -201q-29 -27 -29 -64v-657q0 -534 -463 -534zM1079 1874v-4l-452 -334l-4 4
l174 334h282z" />
    <glyph glyph-name="Ucircumflex" unicode="&#xdb;" horiz-adv-x="1355" 
d="M700 -20q-276 0 -398 118t-122 353v825q0 27 -24 45l-144 115v4h629v-4l-154 -115q-23 -16 -22 -45v-791q0 -440 330 -440q155 0 241 120t86 347v659q0 37 -30 64l-199 201v4h498v-4l-199 -201q-29 -27 -29 -64v-657q0 -534 -463 -534zM1065 1536l-2 -4l-309 147
l-310 -147l-2 4l310 354h4z" />
    <glyph glyph-name="Udieresis" unicode="&#xdc;" horiz-adv-x="1355" 
d="M700 -20q-276 0 -398 118t-122 353v825q0 27 -24 45l-144 115v4h629v-4l-154 -115q-23 -16 -22 -45v-791q0 -440 330 -440q155 0 241 120t86 347v659q0 37 -30 64l-199 201v4h498v-4l-199 -201q-29 -27 -29 -64v-657q0 -534 -463 -534zM815 1709q0 50 35 86t86 36t87 -36
t36 -86t-37 -85t-87 -35t-85 35t-35 85zM446 1709q0 50 36 86t86 36t86 -36t36 -86t-36 -85t-86 -35t-86 35t-36 85z" />
    <glyph glyph-name="Yacute" unicode="&#xdd;" horiz-adv-x="1261" 
d="M1020 1874v-4l-453 -334l-4 4l174 334h283zM782 569v-403q0 -20 4 -28t21 -17l170 -117v-4h-674v4l172 117q23 16 23 45v375q0 33 -15 57l-350 649q-18 35 -55 76l-105 113v4h602v-4l-126 -121q-20 -20 -9 -43l322 -610l268 524q16 31 -6 55l-176 195v4h487v-4l-205 -191
q-39 -35 -63 -78l-268 -522q-17 -31 -17 -76z" />
    <glyph glyph-name="Thorn" unicode="&#xde;" horiz-adv-x="1261" 
d="M500 350h123q129 0 213 102t84 303q0 200 -80 302t-215 102h-125v-809zM694 1198q233 0 379 -106t146 -326q0 -219 -157 -337t-405 -118h-157v-141q0 -31 24 -47l205 -119v-4h-694v4l158 111q23 16 22 47v1118q0 29 -22 45l-158 111v4h465v-242h194z" />
    <glyph glyph-name="germandbls" unicode="&#xdf;" horiz-adv-x="1245" 
d="M1221 305q0 -153 -113 -237t-287 -84t-332 69l113 287h4l121 -293q7 -19 33 -25t90 -6t108 52t46 120q0 66 -38 106t-110 79l-151 78q-176 90 -177 221q0 63 31 107t105 104l79 67q102 84 103 258q0 96 -56 158t-151 61q-201 0 -201 -313v-1114h-399v4l121 88
q20 14 20 45v830h-133v37h133q2 252 116 354t339 102q161 0 277 -66t116 -182q0 -115 -149 -211q-31 -16 -109 -73q-66 -51 -65 -111q0 -86 151 -160l158 -77q100 -47 154 -112t53 -163z" />
    <glyph glyph-name="agrave" unicode="&#xe0;" horiz-adv-x="997" 
d="M162 1440h284l172 -334l-4 -4l-452 334v4zM508 506q-92 0 -146 -62t-53 -148q0 -87 40 -134t102 -47q94 0 153 96l4 278q-43 17 -100 17zM612 731q0 117 -47 185t-141 69q-33 0 -42 -4t-20 -23l-143 -288h-4l-109 278q182 72 379 72t283 -84q96 -100 96 -330v-37
l-12 -325q-6 -129 68 -129q45 0 61 49h4q2 -33 -16 -76q-19 -43 -65 -74q-46 -30 -118 -30t-126 53q-52 53 -54 156q-31 -96 -105 -153q-75 -56 -181 -56t-186 74q-79 74 -79 209q-1 136 101 217t236 81t216 -61l4 219v8z" />
    <glyph glyph-name="aacute" unicode="&#xe1;" horiz-adv-x="997" 
d="M813 1440v-4l-453 -334l-4 4l174 334h283zM508 506q-92 0 -146 -62t-53 -148q0 -87 40 -134t102 -47q94 0 153 96l4 278q-43 17 -100 17zM612 731q0 117 -47 185t-141 69q-33 0 -42 -4t-20 -23l-143 -288h-4l-109 278q182 72 379 72t283 -84q96 -100 96 -330v-37
l-12 -325q-6 -129 68 -129q45 0 61 49h4q2 -33 -16 -76q-19 -43 -65 -74q-46 -30 -118 -30t-126 53q-52 53 -54 156q-31 -96 -105 -153q-75 -56 -181 -56t-186 74q-79 74 -79 209q-1 136 101 217t236 81t216 -61l4 219v8z" />
    <glyph glyph-name="acircumflex" unicode="&#xe2;" horiz-adv-x="997" 
d="M797 1102l-2 -4l-310 147l-309 -147l-2 4l309 354h4zM508 506q-92 0 -146 -62t-53 -148q0 -87 40 -134t102 -47q94 0 153 96l4 278q-43 17 -100 17zM612 731q0 117 -47 185t-141 69q-33 0 -42 -4t-20 -23l-143 -288h-4l-109 278q182 72 379 72t283 -84q96 -100 96 -330
v-37l-12 -325q-6 -129 68 -129q45 0 61 49h4q2 -33 -16 -76q-19 -43 -65 -74q-46 -30 -118 -30t-126 53q-52 53 -54 156q-31 -96 -105 -153q-75 -56 -181 -56t-186 74q-79 74 -79 209q-1 136 101 217t236 81t216 -61l4 219v8z" />
    <glyph glyph-name="atilde" unicode="&#xe3;" horiz-adv-x="997" 
d="M620 1151q-58 0 -150 48q-93 48 -136 48q-88 0 -127 -98h-4q0 129 48 185q47 56 105 56t150 -48q92 -50 135 -50q92 0 129 99h4q0 -130 -48 -185t-106 -55zM508 506q-92 0 -146 -62t-53 -148q0 -87 40 -134t102 -47q94 0 153 96l4 278q-43 17 -100 17zM612 731
q0 117 -47 185t-141 69q-33 0 -42 -4t-20 -23l-143 -288h-4l-109 278q182 72 379 72t283 -84q96 -100 96 -330v-37l-12 -325q-6 -129 68 -129q45 0 61 49h4q2 -33 -16 -76q-19 -43 -65 -74q-46 -30 -118 -30t-126 53q-52 53 -54 156q-31 -96 -105 -153q-75 -56 -181 -56
t-186 74q-79 74 -79 209q-1 136 101 217t236 81t216 -61l4 219v8z" />
    <glyph glyph-name="adieresis" unicode="&#xe4;" horiz-adv-x="997" 
d="M547 1275q0 50 35 86t86 36t87 -36t36 -86t-37 -85t-87 -35t-85 35t-35 85zM178 1275q0 50 36 86t86 36t86 -36t36 -86t-36 -85t-86 -35t-86 35t-36 85zM508 506q-92 0 -146 -62t-53 -148q0 -87 40 -134t102 -47q94 0 153 96l4 278q-43 17 -100 17zM612 731
q0 117 -47 185t-141 69q-33 0 -42 -4t-20 -23l-143 -288h-4l-109 278q182 72 379 72t283 -84q96 -100 96 -330v-37l-12 -325q-6 -129 68 -129q45 0 61 49h4q2 -33 -16 -76q-19 -43 -65 -74q-46 -30 -118 -30t-126 53q-52 53 -54 156q-31 -96 -105 -153q-75 -56 -181 -56
t-186 74q-79 74 -79 209q-1 136 101 217t236 81t216 -61l4 219v8z" />
    <glyph glyph-name="aring" unicode="&#xe5;" horiz-adv-x="997" 
d="M625 1282q0 59 -40 99q-39 40 -99 40t-99 -40t-39 -98t40 -98t98 -40t99 39q40 39 40 98zM666 1282q0 -76 -52 -126t-128 -50q-75 0 -127 51t-52 126t51 126t127 51q77 0 129 -51t52 -127zM508 506q-92 0 -146 -62t-53 -148q0 -87 40 -134t102 -47q94 0 153 96l4 278
q-43 17 -100 17zM612 731q0 117 -47 185t-141 69q-33 0 -42 -4t-20 -23l-143 -288h-4l-109 278q182 72 379 72t283 -84q96 -100 96 -330v-37l-12 -325q-6 -129 68 -129q45 0 61 49h4q2 -33 -16 -76q-19 -43 -65 -74q-46 -30 -118 -30t-126 53q-52 53 -54 156
q-31 -96 -105 -153q-75 -56 -181 -56t-186 74q-79 74 -79 209q-1 136 101 217t236 81t216 -61l4 219v8z" />
    <glyph glyph-name="ae" unicode="&#xe6;" horiz-adv-x="1548" 
d="M471 113q121 0 195 106q-57 111 -58 270q-53 16 -98 17q-94 0 -148 -60t-53 -146q0 -87 44 -137t118 -50zM1073 987q-188 0 -203 -381h369q2 201 -38 291t-128 90zM422 983q-31 0 -41 -5t-19 -22l-143 -284h-4l-115 284q184 64 370 64t271 -84l31 -39q123 123 301 123
t298 -98t120 -301q0 -31 -2 -52h-619v-34q0 -195 84 -298t213 -104q221 0 318 223h4q-70 -373 -422 -372q-125 0 -229 56t-166 167q-29 -94 -115 -159q-86 -64 -211 -64t-208 76t-83 211q-1 136 101 215t232 79t220 -61l4 223q0 119 -48 187t-142 69z" />
    <glyph glyph-name="ccedilla" unicode="&#xe7;" horiz-adv-x="929" 
d="M569 987q-245 -1 -245 -427q0 -214 80 -320t206 -105q180 0 273 203h4q-29 -164 -127 -259t-264 -95h-4l-17 -111q102 20 177 -30t75 -134t-61 -138q-62 -54 -164 -54t-170 52t-74 130l4 2q16 -55 64 -85t102 -30q53 0 92 32t39 86t-38 86t-89 32t-84 -12l-2 4l131 170
q-180 6 -302 135t-122 386q1 257 149 386t359 129q158 0 320 -57l-111 -324h-4l-137 322q-14 27 -39 26h-21z" />
    <glyph glyph-name="egrave" unicode="&#xe8;" horiz-adv-x="995" 
d="M203 1440h284l172 -334l-4 -4l-452 334v4zM520 987q-184 0 -201 -381h367q2 16 2 39q0 342 -168 342zM319 569v-32q0 -197 83 -300t212 -104q221 0 318 223h4q-70 -373 -422 -372q-195 0 -327 130t-132 393t142 388t322 125q179 0 299 -98t120 -301q0 -19 -4 -52h-615z
" />
    <glyph glyph-name="eacute" unicode="&#xe9;" horiz-adv-x="995" 
d="M520 987q-184 0 -201 -381h367q2 16 2 39q0 342 -168 342zM319 569v-32q0 -197 83 -300t212 -104q221 0 318 223h4q-70 -373 -422 -372q-195 0 -327 130t-132 393t142 388t322 125q179 0 299 -98t120 -301q0 -19 -4 -52h-615zM854 1440v-4l-453 -334l-4 4l174 334h283z
" />
    <glyph glyph-name="ecircumflex" unicode="&#xea;" horiz-adv-x="995" 
d="M520 987q-184 0 -201 -381h367q2 16 2 39q0 342 -168 342zM319 569v-32q0 -197 83 -300t212 -104q221 0 318 223h4q-70 -373 -422 -372q-195 0 -327 130t-132 393t142 388t322 125q179 0 299 -98t120 -301q0 -19 -4 -52h-615zM838 1102l-2 -4l-310 147l-309 -147l-2 4
l309 354h4z" />
    <glyph glyph-name="edieresis" unicode="&#xeb;" horiz-adv-x="995" 
d="M520 987q-184 0 -201 -381h367q2 16 2 39q0 342 -168 342zM319 569v-32q0 -197 83 -300t212 -104q221 0 318 223h4q-70 -373 -422 -372q-195 0 -327 130t-132 393t142 388t322 125q179 0 299 -98t120 -301q0 -19 -4 -52h-615zM588 1275q0 50 35 86t86 36t87 -36t36 -86
t-38 -85q-36 -35 -86 -35t-85 35t-35 85zM219 1275q0 50 36 86t86 36t86 -36t36 -86t-36 -85t-86 -35t-86 35t-36 85z" />
    <glyph glyph-name="igrave" unicode="&#xec;" horiz-adv-x="608" 
d="M-16 1440h284l172 -334l-4 -4l-452 334v4zM446 1004v-867q0 -29 23 -45l121 -88v-4h-543v4l121 88q20 14 20 45v713q0 31 -20 47l-121 102v5h399z" />
    <glyph glyph-name="iacute" unicode="&#xed;" horiz-adv-x="608" 
d="M446 1004v-867q0 -29 23 -45l121 -88v-4h-543v4l121 88q20 14 20 45v713q0 31 -20 47l-121 102v5h399zM633 1440v-4l-453 -334l-4 4l174 334h283z" />
    <glyph glyph-name="icircumflex" unicode="&#xee;" horiz-adv-x="608" 
d="M446 1004v-867q0 -29 23 -45l121 -88v-4h-543v4l121 88q20 14 20 45v713q0 31 -20 47l-121 102v5h399zM598 1102l-2 -4l-309 147l-310 -147l-2 4l310 354h4z" />
    <glyph glyph-name="idieresis" unicode="&#xef;" horiz-adv-x="608" 
d="M446 1004v-867q0 -29 23 -45l121 -88v-4h-543v4l121 88q20 14 20 45v713q0 31 -20 47l-121 102v5h399zM350 1275q0 50 35 86t86 36t87 -36t36 -86t-37 -85t-87 -35t-85 35t-35 85zM-18 1275q0 50 35 86q36 36 86 36t86 -36t36 -86t-36 -85t-86 -35t-86 35q-35 35 -35 85z
" />
    <glyph glyph-name="eth" unicode="&#xf0;" horiz-adv-x="1081" 
d="M752 545q0 162 -25 297q-70 88 -172 88q-103 0 -157 -130t-54 -330t50 -326t141 -126q217 1 217 527zM258 1460q8 0 37 -4q205 -27 360 -127l242 137l16 -32l-223 -127q164 -119 248 -312t84 -420q0 -592 -494 -591q-203 0 -337 136t-134 370t122 375t292 141t250 -129
q-45 217 -156 360l-252 -143l-16 32l246 140q-111 127 -285 190v4z" />
    <glyph glyph-name="ntilde" unicode="&#xf1;" horiz-adv-x="1202" 
d="M744 1151q-58 0 -151 48t-136 48q-88 0 -127 -98h-4q0 129 48 185t105 56t149 -48q92 -50 136 -50q92 0 129 99h4q0 -130 -48 -185q-47 -55 -105 -55zM620 879q-102 0 -176 -125v-617q0 -27 23 -45l121 -88v-4h-543v4l121 88q20 16 20 45v713q0 31 -20 47l-121 102v5h399
v-234q76 250 314 250q299 0 299 -418q0 -137 -4 -465q0 -27 22 -45l121 -88v-4h-543v4l115 88q25 16 25 43l6 410q0 172 -38 253q-39 81 -141 81z" />
    <glyph glyph-name="ograve" unicode="&#xf2;" horiz-adv-x="1097" 
d="M223 1440h285l172 -334l-4 -4l-453 334v4zM549 -16q-227 0 -361 135q-133 135 -133 384t133 383q134 134 362 134t360 -134t132 -383t-133 -384t-360 -135zM549 987q-98 0 -150 -108q-51 -109 -51 -376t51 -377t149 -110t151 110q52 110 53 376q0 266 -52 376t-151 109z
" />
    <glyph glyph-name="oacute" unicode="&#xf3;" horiz-adv-x="1097" 
d="M549 -16q-227 0 -361 135q-133 135 -133 384t133 383q134 134 362 134t360 -134t132 -383t-133 -384t-360 -135zM549 987q-98 0 -150 -108q-51 -109 -51 -376t51 -377t149 -110t151 110q52 110 53 376q0 266 -52 376t-151 109zM874 1440v-4l-452 -334l-4 4l174 334h282z
" />
    <glyph glyph-name="ocircumflex" unicode="&#xf4;" horiz-adv-x="1097" 
d="M549 -16q-227 0 -361 135q-133 135 -133 384t133 383q134 134 362 134t360 -134t132 -383t-133 -384t-360 -135zM549 987q-98 0 -150 -108q-51 -109 -51 -376t51 -377t149 -110t151 110q52 110 53 376q0 266 -52 376t-151 109zM858 1102l-2 -4l-309 147l-309 -147l-2 4
l309 354h4z" />
    <glyph glyph-name="otilde" unicode="&#xf5;" horiz-adv-x="1097" 
d="M836 1391q0 -129 -48 -184q-48 -56 -106 -56t-150 48q-94 48 -137 48q-88 0 -127 -98h-4q0 129 48 185t106 56t149 -48q92 -50 135 -50q92 0 129 99h5zM549 -16q-227 0 -361 135q-133 135 -133 384t133 383q134 134 362 134t360 -134t132 -383t-133 -384t-360 -135z
M549 987q-98 0 -150 -108q-51 -109 -51 -376t51 -377t149 -110t151 110q52 110 53 376q0 266 -52 376t-151 109z" />
    <glyph glyph-name="odieresis" unicode="&#xf6;" horiz-adv-x="1097" 
d="M549 -16q-227 0 -361 135q-133 135 -133 384t133 383q134 134 362 134t360 -134t132 -383t-133 -384t-360 -135zM549 987q-98 0 -150 -108q-51 -109 -51 -376t51 -377t149 -110t151 110q52 110 53 376q0 266 -52 376t-151 109zM610 1275q0 50 35 86t86 36t87 -36t36 -86
t-37 -85t-87 -35t-85 35t-35 85zM242 1275q0 50 36 86t86 36t86 -36t36 -86t-36 -85t-86 -35t-86 35t-36 85z" />
    <glyph glyph-name="divide" unicode="&#xf7;" horiz-adv-x="1105" 
d="M414 314q0 58 40 96t98 39q58 0 97 -38q39 -39 39 -97t-39 -96t-97 -38t-98 38t-40 96zM688 970q0 -58 -39 -96t-97 -38t-98 38t-40 96t40 96t98 38t97 -38t39 -96zM102 629v37h902v-37h-902z" />
    <glyph glyph-name="oslash" unicode="&#xf8;" horiz-adv-x="1097" 
d="M750 472q0 238 -33 357l-316 -712q47 -99 147 -99t152 108q50 108 50 346zM548 987q-99 0 -150 -107q-50 -108 -50 -354t33 -354l315 713q-49 102 -148 102zM1044 502q0 -256 -132 -387t-363 -131q-102 0 -193 28l-80 -180l-36 18l77 177q-262 111 -262 477
q0 256 132 386t362 130q104 0 194 -29l72 160l37 -14l-72 -160q264 -113 264 -475z" />
    <glyph glyph-name="ugrave" unicode="&#xf9;" horiz-adv-x="1157" 
d="M223 1440h285l172 -334l-4 -4l-453 334v4zM568 125q95 0 169 125v600q0 31 -20 47l-121 102v5h401v-850q0 -31 21 -48l121 -102v-4h-402v227q-86 -244 -303 -243q-293 0 -293 415q0 123 4 451q0 31 -20 49l-123 100v5h401l-4 -543q0 -170 37 -253t132 -83z" />
    <glyph glyph-name="uacute" unicode="&#xfa;" horiz-adv-x="1157" 
d="M568 125q95 0 169 125v600q0 31 -20 47l-121 102v5h401v-850q0 -31 21 -48l121 -102v-4h-402v227q-86 -244 -303 -243q-293 0 -293 415q0 123 4 451q0 31 -20 49l-123 100v5h401l-4 -543q0 -170 37 -253t132 -83zM874 1440v-4l-452 -334l-4 4l174 334h282z" />
    <glyph glyph-name="ucircumflex" unicode="&#xfb;" horiz-adv-x="1157" 
d="M568 125q95 0 169 125v600q0 31 -20 47l-121 102v5h401v-850q0 -31 21 -48l121 -102v-4h-402v227q-86 -244 -303 -243q-293 0 -293 415q0 123 4 451q0 31 -20 49l-123 100v5h401l-4 -543q0 -170 37 -253t132 -83zM858 1102l-2 -4l-309 147l-309 -147l-2 4l309 354h4z" />
    <glyph glyph-name="udieresis" unicode="&#xfc;" horiz-adv-x="1157" 
d="M568 125q95 0 169 125v600q0 31 -20 47l-121 102v5h401v-850q0 -31 21 -48l121 -102v-4h-402v227q-86 -244 -303 -243q-293 0 -293 415q0 123 4 451q0 31 -20 49l-123 100v5h401l-4 -543q0 -170 37 -253t132 -83zM608 1275q0 50 35 86t86 36t87 -36t36 -86t-37 -85
t-87 -35t-85 35t-35 85zM240 1275q0 50 35 86q36 36 86 36t86 -36t36 -86t-36 -85t-86 -35t-86 35q-35 35 -35 85z" />
    <glyph glyph-name="yacute" unicode="&#xfd;" horiz-adv-x="929" 
d="M844 1440v-4l-453 -334l-4 4l174 334h283zM115 -483q-47 0 -92 20l73 332h4l156 -203q14 -20 26 -20t25 20q55 76 129 244l-368 940q-10 27 -37 70l-51 79v5h460v-5l-90 -100q-18 -20 -6 -49l227 -606l195 495q14 37 -4 66l-123 194v5h332v-5l-123 -180q-25 -37 -45 -86
l-307 -788q-57 -145 -138 -271q-98 -157 -243 -157z" />
    <glyph glyph-name="thorn" unicode="&#xfe;" horiz-adv-x="1128" 
d="M572 879q-112 0 -183 -123v-578q57 -94 167 -94t172 110t62 314t-52 287q-54 84 -166 84zM700 1020q170 0 268 -131t99 -369q0 -238 -109 -388t-305 -148q-196 0 -264 174v-469q0 -33 29 -49l170 -103v-4h-600v4l121 88q23 14 22 45v1616q0 29 -22 47l-121 103v4l401 18
v-682q90 244 311 244z" />
    <glyph glyph-name="ydieresis" unicode="&#xff;" horiz-adv-x="929" 
d="M580 1275q0 50 34 86q35 36 86 36t87 -36t36 -86t-37 -85t-87 -35t-85 35q-34 35 -34 85zM211 1275q0 50 36 86t86 36t86 -36t36 -86t-36 -85t-86 -35t-86 35t-36 85zM115 -483q-47 0 -92 20l73 332h4l156 -203q14 -20 26 -20t25 20q55 76 129 244l-368 940
q-10 27 -37 70l-51 79v5h460v-5l-90 -100q-18 -20 -6 -49l227 -606l195 495q14 37 -4 66l-123 194v5h332v-5l-123 -180q-25 -37 -45 -86l-307 -788q-57 -145 -138 -271q-98 -157 -243 -157z" />
    <glyph glyph-name="Amacron" unicode="&#x100;" horiz-adv-x="1304" 
d="M885 1647h-537v36h537v-36zM549 1217l-225 -674h444zM1309 0h-553v4l123 123q18 18 8 53l-107 324h-469l-78 -236q-6 -22 -4 -32t21 -29l186 -203v-4h-471v4l178 195q39 43 52 80l315 952q10 31 7 42t-21 32l-117 131v4h391l408 -1245q16 -49 45 -82l86 -109v-4z" />
    <glyph glyph-name="amacron" unicode="&#x101;" horiz-adv-x="997" 
d="M750 1212h-537v37h537v-37zM508 506q-92 0 -146 -62t-53 -148q0 -87 40 -134t102 -47q94 0 153 96l4 278q-43 17 -100 17zM612 731q0 117 -47 185t-141 69q-33 0 -42 -4t-20 -23l-143 -288h-4l-109 278q182 72 379 72t283 -84q96 -100 96 -330v-37l-12 -325
q-6 -129 68 -129q45 0 61 49h4q2 -33 -16 -76q-19 -43 -65 -74q-46 -30 -118 -30t-126 53q-52 53 -54 156q-31 -96 -105 -153q-75 -56 -181 -56t-186 74q-79 74 -79 209q-1 136 101 217t236 81t216 -61l4 219v8z" />
    <glyph glyph-name="Abreve" unicode="&#x102;" horiz-adv-x="1304" 
d="M868 1798q0 -128 -74 -192t-180 -64t-181 65t-75 191q0 41 9 82h4q5 -94 71 -146t170 -52t172 52t72 146h4q8 -41 8 -82zM549 1217l-225 -674h444zM1309 0h-553v4l123 123q18 18 8 53l-107 324h-469l-78 -236q-6 -22 -4 -32t21 -29l186 -203v-4h-471v4l178 195
q39 43 52 80l315 952q10 31 7 42t-21 32l-117 131v4h391l408 -1245q16 -49 45 -82l86 -109v-4z" />
    <glyph glyph-name="abreve" unicode="&#x103;" horiz-adv-x="997" 
d="M733 1364q0 -127 -75 -192q-75 -64 -180 -64t-180 64t-75 192q0 41 8 82h5q4 -94 70 -147q67 -52 171 -52t172 52t72 147h4q8 -41 8 -82zM508 506q-92 0 -146 -62t-53 -148q0 -87 40 -134t102 -47q94 0 153 96l4 278q-43 17 -100 17zM612 731q0 117 -47 185t-141 69
q-33 0 -42 -4t-20 -23l-143 -288h-4l-109 278q182 72 379 72t283 -84q96 -100 96 -330v-37l-12 -325q-6 -129 68 -129q45 0 61 49h4q2 -33 -16 -76q-19 -43 -65 -74q-46 -30 -118 -30t-126 53q-52 53 -54 156q-31 -96 -105 -153q-75 -56 -181 -56t-186 74q-79 74 -79 209
q-1 136 101 217t236 81t216 -61l4 219v8z" />
    <glyph glyph-name="Aogonek" unicode="&#x104;" horiz-adv-x="1304" 
d="M549 1217l-225 -674h444zM1309 0h-527q-139 -74 -139 -217q0 -76 43 -117t109 -41q96 0 155 82l4 -2q-72 -188 -241 -188q-84 0 -149 56q-64 55 -64 147t70 170t186 114l123 123q18 18 8 53l-107 324h-469l-78 -236q-10 -33 17 -61l186 -203v-4h-471v4l178 195
q39 43 52 80l315 952q10 31 7 42t-21 32l-117 131v4h391l408 -1245q16 -49 45 -82l86 -109v-4z" />
    <glyph glyph-name="aogonek" unicode="&#x105;" horiz-adv-x="997" 
d="M508 506q-92 0 -146 -62t-53 -148q0 -87 40 -134t102 -47q94 0 153 96l4 278q-43 17 -100 17zM692 -217q0 -76 43 -117t109 -41q98 0 153 82l4 -2q-68 -188 -239 -188q-84 0 -149 56q-65 55 -65 147t70 160q68 68 187 104h-10q-82 0 -135 53q-52 53 -54 156
q-31 -96 -105 -153q-75 -56 -181 -56t-186 74q-79 74 -79 209q-1 136 101 217t236 81t216 -61l4 219v8q0 117 -47 185t-141 69q-33 0 -42 -4t-20 -23l-143 -288h-4l-109 278q182 72 379 72t283 -84q96 -100 96 -330v-37l-12 -325q-6 -129 68 -129q45 0 61 49h4
q2 -33 -14 -70q-40 -94 -144 -108q-135 -66 -135 -203z" />
    <glyph glyph-name="Cacute" unicode="&#x106;" horiz-adv-x="1253" 
d="M63 714q-1 342 179 544t501 202q211 0 406 -43v-463h-4l-254 430q-14 23 -31 32t-94 9q-377 1 -377 -705t385 -706q37 0 51 2q43 4 64 35l256 445h4v-482q-174 -35 -385 -34q-352 0 -526 196t-175 538zM1067 1874v-4l-453 -334l-4 4l174 334h283z" />
    <glyph glyph-name="cacute" unicode="&#x107;" horiz-adv-x="929" 
d="M569 987q-245 -1 -245 -427q0 -214 80 -319t206 -106q180 0 273 203h4q-29 -164 -127 -259t-273 -95t-305 130q-129 130 -129 389q1 259 149 388t359 129q158 0 320 -57l-111 -324h-4l-137 322q-14 27 -39 26h-21zM870 1440v-4l-452 -334l-4 4l174 334h282z" />
    <glyph glyph-name="Ccircumflex" unicode="&#x108;" horiz-adv-x="1253" 
d="M63 714q-1 342 179 544t501 202q211 0 406 -43v-463h-4l-254 430q-14 23 -31 32t-94 9q-377 1 -377 -705t385 -706q37 0 51 2q43 4 64 35l256 445h4v-482q-174 -35 -385 -34q-352 0 -526 196t-175 538zM1051 1536l-2 -4l-310 147l-309 -147l-2 4l309 354h4z" />
    <glyph glyph-name="ccircumflex" unicode="&#x109;" horiz-adv-x="929" 
d="M569 987q-245 -1 -245 -427q0 -214 80 -319t206 -106q180 0 273 203h4q-29 -164 -127 -259t-273 -95t-305 130q-129 130 -129 389q1 259 149 388t359 129q158 0 320 -57l-111 -324h-4l-137 322q-14 27 -39 26h-21zM856 1102l-2 -4l-309 147l-309 -147l-3 4l310 354h4z
" />
    <glyph glyph-name="Cdotaccent" unicode="&#x10a;" horiz-adv-x="1253" 
d="M602 1703q0 58 40 96t98 38t98 -38t39 -96q0 -58 -39 -96q-40 -38 -98 -38t-98 38t-40 96zM63 714q-1 342 179 544t501 202q211 0 406 -43v-463h-4l-254 430q-14 23 -31 32t-94 9q-377 1 -377 -705t385 -706q37 0 51 2q43 4 64 35l256 445h4v-482q-174 -35 -385 -34
q-352 0 -526 196t-175 538z" />
    <glyph glyph-name="cdotaccent" unicode="&#x10b;" horiz-adv-x="929" 
d="M406 1269q0 58 39 96q41 38 99 38t97 -38t39 -96q0 -59 -39 -97t-97 -38t-99 38q-39 39 -39 97zM569 987q-245 -1 -245 -427q0 -214 80 -319t206 -106q180 0 273 203h4q-29 -164 -127 -259t-273 -95t-305 130q-129 130 -129 389q1 259 149 388t359 129q158 0 320 -57
l-111 -324h-4l-137 322q-14 27 -39 26h-21z" />
    <glyph glyph-name="Ccaron" unicode="&#x10c;" horiz-adv-x="1253" 
d="M63 714q-1 342 179 544t501 202q211 0 406 -43v-463h-4l-254 430q-14 23 -31 32t-94 9q-377 1 -377 -705t385 -706q37 0 51 2q43 4 64 35l256 445h4v-482q-174 -35 -385 -34q-352 0 -526 196t-175 538zM739 1731l310 147l2 -2l-310 -356h-4l-309 356l2 2z" />
    <glyph glyph-name="ccaron" unicode="&#x10d;" horiz-adv-x="929" 
d="M569 987q-245 -1 -245 -427q0 -214 80 -319t206 -106q180 0 273 203h4q-29 -164 -127 -259t-273 -95t-305 130q-129 130 -129 389q1 259 149 388t359 129q158 0 320 -57l-111 -324h-4l-137 322q-14 27 -39 26h-21zM545 1298l309 148l2 -2l-309 -357h-4l-310 357l3 2z" />
    <glyph glyph-name="Dcaron" unicode="&#x10e;" horiz-adv-x="1421" 
d="M549 39h43q221 0 333 165t111 523q0 674 -413 674h-91q-18 0 -25 -7t-7 -32v-1278q0 -31 8 -38t41 -7zM35 0v4l158 111q23 16 22 45v1120q0 29 -22 45l-158 111v4h635q338 0 514 -184t176 -522t-184 -536t-525 -198h-616zM668 1731l309 147l2 -2l-309 -356h-4l-310 356
l2 2z" />
    <glyph glyph-name="dcaron" unicode="&#x10f;" horiz-adv-x="1193" 
d="M560 109q97 0 177 110v608q-68 95 -169 95t-168 -100q-66 -100 -66 -307q0 -206 64 -306t162 -100zM995 154q0 -31 21 -48l123 -102v-4h-402v201q-86 -217 -297 -217q-170 0 -276 139t-106 374t118 379q119 144 300 144t261 -172v452q0 31 -20 48l-121 88v4l399 47v-1333
zM1102 1044l18 396h209l-223 -396h-4z" />
    <glyph glyph-name="Dcroat" unicode="&#x110;" horiz-adv-x="1433" 
d="M635 1401h-84q-21 0 -29 -7t-8 -32v-612h240v-37h-240v-629q0 -31 8 -38t41 -7h43q442 0 442 681t-413 681zM47 713v37h182v524q0 37 -22 53l-162 109v4h639q340 0 515 -184t175 -518t-184 -536t-524 -202h-621v4l162 109q23 16 22 55v545h-182z" />
    <glyph glyph-name="dcroat" unicode="&#x111;" horiz-adv-x="1161" 
d="M560 109q97 0 177 110v608q-68 95 -169 95t-168 -100q-66 -100 -66 -307q0 -206 64 -306t162 -100zM995 1190h150v-35h-150v-1001q0 -31 21 -48l123 -102v-4h-402v201q-86 -217 -297 -217q-170 0 -276 139t-106 374t118 379q119 144 300 144t261 -172v307h-266v35h266
v110q0 31 -20 48l-121 88v4l399 47v-297z" />
    <glyph glyph-name="Emacron" unicode="&#x112;" horiz-adv-x="1226" 
d="M905 1647h-536v36h536v-36zM1124 0h-1089v4l158 111q23 16 22 45v1120q0 29 -22 45l-158 111v4h1071v-467h-4l-215 393q-18 35 -58 35h-297q-20 0 -26 -8t-6 -35v-610h200q31 2 56 34l155 197h4v-500h-4l-155 199q-27 33 -58 33h-198v-629q0 -27 6 -35t26 -8h308
q49 0 65 27l215 401h4v-467z" />
    <glyph glyph-name="emacron" unicode="&#x113;" horiz-adv-x="995" 
d="M791 1212h-537v37h537v-37zM520 987q-184 0 -201 -381h367q2 16 2 39q0 342 -168 342zM319 569v-32q0 -197 83 -300t212 -104q221 0 318 223h4q-70 -373 -422 -372q-195 0 -327 130t-132 393t142 388t322 125q179 0 299 -98t120 -301q0 -19 -4 -52h-615z" />
    <glyph glyph-name="Ebreve" unicode="&#x114;" horiz-adv-x="1226" 
d="M889 1798q0 -128 -75 -192t-180 -64t-180 65t-75 191q0 41 8 82h4q4 -94 71 -146t171 -52t172 52t72 146h4q8 -41 8 -82zM1124 0h-1089v4l158 111q23 16 22 45v1120q0 29 -22 45l-158 111v4h1071v-467h-4l-215 393q-18 35 -58 35h-297q-20 0 -26 -8t-6 -35v-610h200
q31 2 56 34l155 197h4v-500h-4l-155 199q-27 33 -58 33h-198v-629q0 -27 6 -35t26 -8h308q49 0 65 27l215 401h4v-467z" />
    <glyph glyph-name="ebreve" unicode="&#x115;" horiz-adv-x="995" 
d="M774 1364q0 -127 -75 -192q-75 -64 -180 -64t-180 64t-75 192q0 41 8 82h4q4 -94 71 -146t171 -53q104 0 172 52t72 147h4q8 -41 8 -82zM520 987q-184 0 -201 -381h367q2 16 2 39q0 342 -168 342zM319 569v-32q0 -197 83 -300t212 -104q221 0 318 223h4
q-70 -373 -422 -372q-195 0 -327 130t-132 393t142 388t322 125q179 0 299 -98t120 -301q0 -19 -4 -52h-615z" />
    <glyph glyph-name="Edotaccent" unicode="&#x116;" horiz-adv-x="1226" 
d="M504 1703q0 58 40 96t98 38t97 -38t39 -96t-39 -96t-97 -38t-98 38t-40 96zM1124 0h-1089v4l158 111q23 16 22 45v1120q0 29 -22 45l-158 111v4h1071v-467h-4l-215 393q-18 35 -58 35h-297q-20 0 -26 -8t-6 -35v-610h200q31 2 56 34l155 197h4v-500h-4l-155 199
q-27 33 -58 33h-198v-629q0 -27 6 -35t26 -8h308q49 0 65 27l215 401h4v-467z" />
    <glyph glyph-name="edotaccent" unicode="&#x117;" horiz-adv-x="995" 
d="M527 1403q57 0 97 -38t40 -96q0 -59 -39 -97t-97 -38t-99 39q-40 38 -40 96t40 96t98 38zM520 987q-184 0 -201 -381h367q2 16 2 39q0 342 -168 342zM319 569v-32q0 -197 83 -300t212 -104q221 0 318 223h4q-70 -373 -422 -372q-195 0 -327 130t-132 393t142 388t322 125
q179 0 299 -98t120 -301q0 -19 -4 -52h-615z" />
    <glyph glyph-name="Eogonek" unicode="&#x118;" horiz-adv-x="1226" 
d="M829 -483q-85 0 -149 56q-64 55 -64 149t74 168t201 110h-856v4l158 111q23 16 22 45v1120q0 29 -22 45l-158 111v4h1071v-467h-4l-215 393q-18 35 -58 35h-297q-20 0 -26 -8t-6 -35v-610h200q31 2 56 34l155 197h4v-500h-4l-155 199q-27 33 -58 33h-198v-629
q0 -27 6 -35t26 -8h308q49 0 65 27l215 401h4v-467h-217q-147 -72 -147 -217q0 -76 43 -117t108 -41q98 0 154 82l4 -2q-72 -188 -240 -188z" />
    <glyph glyph-name="eogonek" unicode="&#x119;" horiz-adv-x="995" 
d="M520 987q-184 0 -201 -381h367q2 16 2 39q0 342 -168 342zM539 -483q-84 0 -149 56q-64 55 -64 147t68 164t184 104q-41 -4 -64 -4q-195 0 -327 130t-132 393t142 388t322 125q179 0 299 -98t120 -301q0 -23 -2 -52h-617v-32q0 -197 83 -300t212 -104q221 0 318 223h4
q-57 -311 -315 -362q-72 -27 -112 -84t-40 -130t42 -114t107 -41q96 0 156 82l4 -2q-71 -188 -239 -188z" />
    <glyph glyph-name="Ecaron" unicode="&#x11a;" horiz-adv-x="1226" 
d="M1124 0h-1089v4l158 111q23 16 22 45v1120q0 29 -22 45l-158 111v4h1071v-467h-4l-215 393q-18 35 -58 35h-297q-20 0 -26 -8t-6 -35v-610h200q31 2 56 34l155 197h4v-500h-4l-155 199q-27 33 -58 33h-198v-629q0 -27 6 -35t26 -8h308q49 0 65 27l215 401h4v-467z
M641 1731l309 147l2 -2l-309 -356h-4l-309 356l2 2z" />
    <glyph glyph-name="ecaron" unicode="&#x11b;" horiz-adv-x="995" 
d="M520 987q-184 0 -201 -381h367q2 16 2 39q0 342 -168 342zM319 569v-32q0 -197 83 -300t212 -104q221 0 318 223h4q-70 -373 -422 -372q-195 0 -327 130t-132 393t142 388t322 125q179 0 299 -98t120 -301q0 -19 -4 -52h-615zM526 1298l310 148l2 -2l-310 -357h-4
l-309 357l2 2z" />
    <glyph glyph-name="Gcircumflex" unicode="&#x11c;" horiz-adv-x="1363" 
d="M700 -20q-309 0 -473 198t-164 536q-1 338 181 542t501 204q229 0 429 -45v-465h-5l-256 432q-14 25 -26 34t-105 9q-391 0 -391 -696q0 -365 85 -538t265 -173q68 0 136 25q25 10 24 39v385q0 33 -20 51l-140 115v4h607v-4l-140 -113q-23 -18 -22 -53v-487l-248 47
q-123 -47 -238 -47zM1042 1536l-2 -4l-309 147l-309 -147l-2 4l309 354h4z" />
    <glyph glyph-name="gcircumflex" unicode="&#x11d;" horiz-adv-x="1026" 
d="M338 688q0 -301 158 -301t157 301q1 301 -157 301t-158 -301zM205 -215q0 -109 94 -169t221 -60t216 56t89 159q0 154 -227 161l-238 9l-51 4q-104 -51 -104 -160zM82 686q0 160 115 247t279 87t265 -62q20 -12 39 9l205 247h4v-309h-190q111 -89 111 -237t-118 -231
t-298 -83q-78 0 -138 15q-96 -27 -96 -95q0 -42 49 -68t142 -26h176q176 0 271 -72t95 -208q0 -176 -152 -280q-153 -103 -374 -103q-168 0 -293 59t-125 168q1 74 61 128t177 77q-93 19 -143 73t-50 131t62 137t172 87q-113 33 -180 110q-66 78 -66 199zM811 1102l-2 -4
l-309 147l-310 -147l-2 4l310 354h4z" />
    <glyph glyph-name="Gbreve" unicode="&#x11e;" horiz-adv-x="1363" 
d="M979 1798q0 -128 -75 -192t-180 -64t-180 65t-75 191q0 41 8 82h4q4 -94 71 -146t171 -52t172 52t72 146h4q8 -41 8 -82zM700 -20q-309 0 -473 198t-164 536q-1 338 181 542t501 204q229 0 429 -45v-465h-5l-256 432q-14 25 -26 34t-105 9q-391 0 -391 -696
q0 -365 85 -538t265 -173q68 0 136 25q25 10 24 39v385q0 33 -20 51l-140 115v4h607v-4l-140 -113q-23 -18 -22 -53v-487l-248 47q-123 -47 -238 -47z" />
    <glyph glyph-name="gbreve" unicode="&#x11f;" horiz-adv-x="1026" 
d="M748 1364q0 -127 -75 -192q-75 -64 -180 -64t-181 64q-75 65 -74 192q0 41 8 82h4q4 -94 71 -146t171 -53q104 0 172 52t71 147h4q9 -41 9 -82zM338 688q0 -301 158 -301t157 301q1 301 -157 301t-158 -301zM205 -215q0 -109 94 -169t221 -60t216 56t89 159
q0 154 -227 161l-238 9l-51 4q-104 -51 -104 -160zM82 686q0 160 115 247t279 87t265 -62q20 -12 39 9l205 247h4v-309h-190q111 -89 111 -237t-118 -231t-298 -83q-78 0 -138 15q-96 -27 -96 -95q0 -42 49 -68t142 -26h176q176 0 271 -72t95 -208q0 -176 -152 -280
q-153 -103 -374 -103q-168 0 -293 59t-125 168q1 74 61 128t177 77q-93 19 -143 73t-50 131t62 137t172 87q-113 33 -180 110q-66 78 -66 199z" />
    <glyph glyph-name="Gdotaccent" unicode="&#x120;" horiz-adv-x="1363" 
d="M594 1703q0 58 40 96t98 38t97 -38t39 -96t-39 -96t-97 -38t-98 38t-40 96zM700 -20q-309 0 -473 198t-164 536q-1 338 181 542t501 204q229 0 429 -45v-465h-5l-256 432q-14 25 -26 34t-105 9q-391 0 -391 -696q0 -365 85 -538t265 -173q68 0 136 25q25 10 24 39v385
q0 33 -20 51l-140 115v4h607v-4l-140 -113q-23 -18 -22 -53v-487l-248 47q-123 -47 -238 -47z" />
    <glyph glyph-name="gdotaccent" unicode="&#x121;" horiz-adv-x="1026" 
d="M362 1269q0 58 40 96t98 38t98 -38q39 -38 39 -96q0 -59 -39 -97t-97 -38t-99 38q-40 39 -40 97zM338 688q0 -301 158 -301t157 301q1 301 -157 301t-158 -301zM205 -215q0 -109 94 -169t221 -60t216 56t89 159q0 154 -227 161l-238 9l-51 4q-104 -51 -104 -160zM82 686
q0 160 115 247t279 87t265 -62q20 -12 39 9l205 247h4v-309h-190q111 -89 111 -237t-118 -231t-298 -83q-78 0 -138 15q-96 -27 -96 -95q0 -42 49 -68t142 -26h176q176 0 271 -72t95 -208q0 -176 -152 -280q-153 -103 -374 -103q-168 0 -293 59t-125 168q1 74 61 128t177 77
q-93 19 -143 73t-50 131t62 137t172 87q-113 33 -180 110q-66 78 -66 199z" />
    <glyph glyph-name="Gcommaaccent" unicode="&#x122;" horiz-adv-x="1363" 
d="M700 -20q-309 0 -473 198t-164 536q-1 338 181 542t501 204q229 0 429 -45v-465h-5l-256 432q-14 25 -26 34t-105 9q-391 0 -391 -696q0 -365 85 -538t265 -173q68 0 136 25q25 10 24 39v385q0 33 -20 51l-140 115v4h607v-4l-140 -113q-23 -18 -22 -53v-487l-248 47
q-123 -47 -238 -47zM606 -190q0 49 34 84q34 34 87 34t88 -39t35 -119t-69 -163q-69 -82 -169 -109l-2 4q106 68 113 170q0 20 -18 21q-43 0 -71 34t-28 83z" />
    <glyph glyph-name="gcommaaccent" unicode="&#x123;" horiz-adv-x="1026" 
d="M633 1229q0 -49 -34 -84t-87 -35t-89 39t-36 119t69 163q69 82 169 109l2 -4q-98 -63 -111 -170q-2 -16 19 -20q45 -6 71 -37t27 -80zM338 688q0 -301 158 -301t157 301q1 301 -157 301t-158 -301zM205 -215q0 -109 94 -169t221 -60t216 56t89 159q0 154 -227 161l-238 9
l-51 4q-104 -51 -104 -160zM82 686q0 160 115 247t279 87t265 -62q20 -12 39 9l205 247h4v-309h-190q111 -89 111 -237t-118 -231t-298 -83q-78 0 -138 15q-96 -27 -96 -95q0 -42 49 -68t142 -26h176q176 0 271 -72t95 -208q0 -176 -152 -280q-153 -103 -374 -103
q-168 0 -293 59t-125 168q1 74 61 128t177 77q-93 19 -143 73t-50 131t62 137t172 87q-113 33 -180 110q-66 78 -66 199z" />
    <glyph glyph-name="Hcircumflex" unicode="&#x124;" horiz-adv-x="1550" 
d="M1335 1280v-1120q0 -29 25 -45l158 -111v-4h-648v4l158 111q23 18 23 45v559h-551v-559q0 -29 24 -45l158 -111v-4h-647v4l158 111q23 16 22 45v1120q0 29 -22 45l-158 111v4h647v-4l-158 -111q-25 -18 -24 -45v-522h551v522q0 29 -23 45l-158 111v4h648v-4l-158 -111
q-25 -18 -25 -45zM1085 1536l-2 -4l-309 147l-309 -147l-2 4l309 354h4z" />
    <glyph glyph-name="hcircumflex" unicode="&#x125;" horiz-adv-x="1171" 
d="M592 879q-102 0 -176 -125v-617q0 -27 22 -45l121 -88v-4h-543v4l121 88q20 16 21 45v1163q0 31 -21 48l-121 88v4l400 47v-717q76 250 313 250q299 0 299 -418q0 -137 -4 -465q0 -27 23 -45l122 -88v-4h-544v4l116 88q23 18 23 43l6 410q0 172 -38 253t-140 81z
M598 1536l-2 -4l-309 147l-310 -147l-2 4l310 354h4z" />
    <glyph glyph-name="Hbar" unicode="&#x126;" horiz-adv-x="1550" 
d="M500 975v-318h551v318h-551zM215 975h-170v37h170v268q0 33 -22 47l-162 109v4h655v-4l-162 -109q-25 -16 -24 -47v-268h551v268q0 31 -23 47l-164 109v4h658v-4l-162 -109q-25 -16 -25 -47v-268h170v-37h-170v-815q0 -31 25 -47l162 -109v-4h-658v4l164 109q23 16 23 47
v456h-551v-456q0 -31 24 -47l162 -109v-4h-655v4l162 109q23 16 22 47v815z" />
    <glyph glyph-name="hbar" unicode="&#x127;" horiz-adv-x="1171" 
d="M592 879q-102 0 -176 -125v-617q0 -27 22 -45l121 -88v-4h-543v4l121 88q20 16 21 45v1018h-146v35h146v110q0 31 -21 48l-121 88v4l400 47v-297h276v-35h-276v-385q76 250 313 250q299 0 299 -418q0 -137 -4 -465q0 -27 23 -45l122 -88v-4h-544v4l116 88q23 18 23 43
l6 410q0 172 -38 253t-140 81z" />
    <glyph glyph-name="Itilde" unicode="&#x128;" horiz-adv-x="716" 
d="M494 1585q-58 0 -151 48t-136 48q-88 0 -127 -98h-4q0 130 48 186t106 56t149 -49q92 -49 135 -50q92 0 129 99h4q0 -130 -48 -185q-47 -55 -105 -55zM500 1280v-1120q0 -29 24 -45l158 -111v-4h-647v4l158 111q23 16 22 45v1120q0 29 -22 45l-158 111v4h647v-4
l-158 -111q-24 -18 -24 -45z" />
    <glyph glyph-name="itilde" unicode="&#x129;" horiz-adv-x="608" 
d="M575 1391q1 -130 -47 -185t-106 -55t-150 48q-94 48 -137 48q-88 0 -127 -98h-4q0 129 48 185t106 56t149 -48q92 -50 135 -50q92 0 129 99h4zM446 1004v-867q0 -29 23 -45l121 -88v-4h-543v4l121 88q20 14 20 45v713q0 31 -20 47l-121 102v5h399z" />
    <glyph glyph-name="Imacron" unicode="&#x12a;" horiz-adv-x="716" 
d="M623 1647h-537v36h537v-36zM500 1280v-1120q0 -29 24 -45l158 -111v-4h-647v4l158 111q23 16 22 45v1120q0 29 -22 45l-158 111v4h647v-4l-158 -111q-24 -18 -24 -45z" />
    <glyph glyph-name="imacron" unicode="&#x12b;" horiz-adv-x="608" 
d="M549 1212h-537v37h537v-37zM446 1004v-867q0 -29 23 -45l121 -88v-4h-543v4l121 88q20 14 20 45v713q0 31 -20 47l-121 102v5h399z" />
    <glyph glyph-name="Ibreve" unicode="&#x12c;" horiz-adv-x="716" 
d="M606 1798q0 -128 -75 -192t-180 -64t-180 65t-75 191q0 41 8 82h5q5 -94 71 -146t170 -52t172 52t72 146h4q8 -41 8 -82zM500 1280v-1120q0 -29 24 -45l158 -111v-4h-647v4l158 111q23 16 22 45v1120q0 29 -22 45l-158 111v4h647v-4l-158 -111q-24 -18 -24 -45z" />
    <glyph glyph-name="ibreve" unicode="&#x12d;" horiz-adv-x="608" 
d="M535 1364q0 -127 -75 -192q-75 -64 -180 -64t-181 64q-75 65 -74 192q0 41 8 82h4q4 -94 71 -146t171 -53q104 0 172 52t71 147h4q9 -41 9 -82zM446 1004v-867q0 -29 23 -45l121 -88v-4h-543v4l121 88q20 14 20 45v713q0 31 -20 47l-121 102v5h399z" />
    <glyph glyph-name="Iogonek" unicode="&#x12e;" horiz-adv-x="716" 
d="M356 -483q-84 0 -148 56q-64 57 -65 151q0 94 73 170t196 106h-377v4l158 111q23 16 22 45v1120q0 29 -22 45l-158 111v4h647v-4l-158 -111q-25 -18 -24 -45v-1120q0 -29 24 -45l158 -111v-4h-250q-145 -63 -145 -217q0 -76 42 -117t107 -41q96 0 156 82l4 -2
q-72 -188 -240 -188z" />
    <glyph glyph-name="iogonek" unicode="&#x12f;" horiz-adv-x="608" 
d="M305 1139q-59 0 -100 39t-41 98t41 99t101 40t102 -40t41 -99t-43 -98t-101 -39zM319 -483q-85 0 -149 56q-64 57 -64 151t73 170t196 106h-330v4l121 88q20 16 20 45v713q0 31 -20 47l-121 102v5h399v-867q0 -27 23 -45l121 -88v-4h-193q-145 -63 -145 -217
q0 -76 42 -117t107 -41q96 0 156 82l4 -2q-72 -188 -240 -188z" />
    <glyph glyph-name="Idotaccent" unicode="&#x130;" horiz-adv-x="716" 
d="M217 1703q0 58 40 96t98 38q57 0 97 -38t40 -96t-39 -96t-97 -38t-99 38q-40 38 -40 96zM500 1280v-1120q0 -29 24 -45l158 -111v-4h-647v4l158 111q23 16 22 45v1120q0 29 -22 45l-158 111v4h647v-4l-158 -111q-24 -18 -24 -45z" />
    <glyph glyph-name="dotlessi" unicode="&#x131;" horiz-adv-x="608" 
d="M446 1004v-867q0 -29 23 -45l121 -88v-4h-543v4l121 88q20 14 20 45v713q0 31 -20 47l-121 102v5h399z" />
    <glyph glyph-name="IJ" unicode="&#x132;" horiz-adv-x="1372" 
d="M901 82v1198q0 29 -24 45l-158 111v4h647v-4l-158 -111q-25 -18 -24 -45v-1141q0 -254 -144 -401t-395 -170l-2 4q258 129 258 510zM500 1280v-1120q0 -29 24 -45l158 -111v-4h-647v4l158 111q23 16 22 45v1120q0 29 -22 45l-158 111v4h647v-4l-158 -111q-24 -18 -24 -45
z" />
    <glyph glyph-name="ij" unicode="&#x133;" horiz-adv-x="1167" 
d="M758 1276q0 59 41 99t101 40t100 -40t40 -99t-41 -98t-100 -39t-100 39t-41 98zM639 1004h399v-947q0 -229 -114 -367t-330 -139q-18 0 -55 5v4q121 16 181 115t60 302v873q0 31 -20 47l-121 102v5zM45 1004h399v-867q0 -27 23 -45l121 -88v-4h-543v4l121 88q20 16 20 45
v713q0 31 -20 47l-121 102v5zM305 1139q-59 0 -100 39t-41 98t41 99t101 40t102 -40t41 -99t-43 -98t-101 -39z" />
    <glyph glyph-name="Jcircumflex" unicode="&#x134;" horiz-adv-x="655" 
d="M186 82v1198q0 29 -24 45l-158 111v4h647v-4l-157 -111q-25 -18 -25 -45v-1141q0 -254 -143 -401t-396 -170l-2 4q258 129 258 510zM641 1536l-2 -4l-309 147l-310 -147l-2 4l310 354h4z" />
    <glyph glyph-name="jcircumflex" unicode="&#x135;" horiz-adv-x="559" 
d="M592 1102l-2 -4l-309 147l-310 -147l-2 4l310 354h4zM-10 -449q-39 0 -60 5v4q121 16 182 115q60 99 60 302v873q0 29 -20 47l-121 102v5h399v-947q0 -229 -112 -367t-328 -139z" />
    <glyph glyph-name="Kcommaaccent" unicode="&#x136;" horiz-adv-x="1382" 
d="M1409 0h-405l-486 713l483 508q16 20 15 28q-2 8 -21 27l-166 160v4h580v-4l-276 -164q-60 -35 -95 -70l-301 -313l477 -701q31 -45 62 -69l133 -115v-4zM500 1280v-1120q0 -29 24 -45l158 -111v-4h-647v4l158 111q23 16 22 45v1120q0 29 -22 45l-158 111v4h647v-4
l-158 -111q-24 -18 -24 -45zM649 -190q0 49 34 84q34 34 87 34t88 -39t35 -119t-69 -163q-69 -82 -169 -109l-2 4q106 68 113 170q0 20 -18 21q-43 0 -71 34t-28 83z" />
    <glyph glyph-name="kcommaaccent" unicode="&#x137;" horiz-adv-x="1095" 
d="M1118 0h-370l-248 496q-28 54 -84 16v-375q0 -27 22 -45l121 -88v-4h-543v4l121 88q20 16 21 45v1163q0 31 -21 48l-121 88v4l400 47v-957l368 279q20 14 2 35l-147 155v5h453v-5l-390 -292q-23 -16 -12 -35l279 -529q18 -37 47 -59l102 -80v-4zM481 -190q0 49 34 84
q34 34 87 34t88 -39t35 -119t-69 -163q-69 -82 -169 -109l-2 4q106 68 113 170q0 20 -18 21q-43 0 -71 34t-28 83z" />
    <glyph glyph-name="kgreenlandic" unicode="&#x138;" horiz-adv-x="1124" 
d="M1147 0h-371l-248 496q-26 51 -84 16v-375q0 -27 23 -45l121 -88v-4h-543v4l121 88q20 16 20 45v713q0 31 -20 47l-121 102v5h399v-474l369 279q20 14 2 35l-147 155v5h452v-5l-389 -292q-23 -16 -12 -35l278 -529q18 -37 47 -59l103 -80v-4z" />
    <glyph glyph-name="Lacute" unicode="&#x139;" horiz-adv-x="1161" 
d="M1100 0h-1065v4l158 111q23 16 22 45v1120q0 29 -22 45l-158 111v4h647v-4l-158 -111q-25 -18 -24 -45v-1198q0 -27 6 -35t26 -8h265q51 0 65 27l234 426h4v-492zM684 1874v-4l-453 -334l-4 4l174 334h283z" />
    <glyph glyph-name="lacute" unicode="&#x13a;" horiz-adv-x="575" 
d="M416 137q0 -27 22 -45l121 -88v-4h-543v4l121 88q20 16 21 45v1163q0 31 -21 48l-121 88v4l400 47v-1350zM614 1874v-4l-452 -334l-4 4l174 334h282z" />
    <glyph glyph-name="Lcommaaccent" unicode="&#x13b;" horiz-adv-x="1161" 
d="M1100 0h-1065v4l158 111q23 16 22 45v1120q0 29 -22 45l-158 111v4h647v-4l-158 -111q-25 -18 -24 -45v-1198q0 -27 6 -35t26 -8h265q51 0 65 27l234 426h4v-492zM510 -190q0 49 34 84q34 34 87 34t88 -39t35 -119t-69 -163q-69 -82 -169 -109l-2 4q106 68 113 170
q0 20 -19 21q-42 0 -70 34t-28 83z" />
    <glyph glyph-name="lcommaaccent" unicode="&#x13c;" horiz-adv-x="575" 
d="M416 137q0 -27 22 -45l121 -88v-4h-543v4l121 88q20 16 21 45v1163q0 31 -21 48l-121 88v4l400 47v-1350zM170 -190q0 49 34 84q34 34 87 34t88 -39t35 -119t-69 -163q-69 -82 -169 -109l-2 4q106 68 113 170q0 20 -19 21q-42 0 -70 34t-28 83z" />
    <glyph glyph-name="Lcaron" unicode="&#x13d;" horiz-adv-x="1157" 
d="M1100 0h-1065v4l158 111q23 16 22 45v1120q0 29 -22 45l-158 111v4h647v-4l-158 -111q-25 -18 -24 -45v-1198q0 -27 6 -35t26 -8h265q51 0 65 27l234 426h4v-492zM799 1044l18 396h209l-223 -396h-4z" />
    <glyph glyph-name="lcaron" unicode="&#x13e;" horiz-adv-x="616" 
d="M416 137q0 -27 22 -45l121 -88v-4h-543v4l121 88q20 16 21 45v1163q0 31 -21 48l-121 88v4l400 47v-1350zM524 1044l19 396h209l-224 -396h-4z" />
    <glyph glyph-name="Ldot" unicode="&#x13f;" horiz-adv-x="1171" 
d="M739 792q0 58 40 96q41 38 99 38t97 -38t39 -96t-39 -96t-97 -39q-58 0 -99 38q-40 39 -40 97zM1102 0h-1065v4l158 111q23 16 22 45v1120q0 29 -22 45l-158 111v4h647v-4l-158 -111q-25 -18 -24 -45v-1198q0 -27 6 -35t27 -8h264q51 0 65 27l234 426h4v-492z" />
    <glyph glyph-name="ldot" unicode="&#x140;" horiz-adv-x="784" 
d="M512 728q0 58 40 96t98 38t98 -38t38 -96q0 -58 -38 -96t-98 -38q-58 0 -98 38t-40 96zM416 137q0 -27 22 -45l121 -88v-4h-543v4l121 88q20 16 21 45v1163q0 31 -21 48l-121 88v4l400 47v-1350z" />
    <glyph glyph-name="Lslash" unicode="&#x141;" horiz-adv-x="1173" 
d="M512 78q0 -27 7 -33t30 -6h260q51 0 65 27l234 426h4v-492h-1065v4l158 111q23 16 22 45v444l-164 -67l-14 32l178 74v637q0 29 -22 45l-158 111v4h647v-4l-157 -111q-25 -18 -25 -45v-518l258 108l14 -34l-272 -115v-643z" />
    <glyph glyph-name="lslash" unicode="&#x142;" horiz-adv-x="634" 
d="M442 137q0 -27 23 -45l121 -88v-4h-543v4l121 88q20 16 20 45v479l-192 -79l-15 32l207 86v645q0 31 -20 48l-121 88v4l399 47v-723l222 92l14 -33l-236 -98v-588z" />
    <glyph glyph-name="Nacute" unicode="&#x143;" horiz-adv-x="1419" 
d="M37 1440h414l716 -1147v878q0 35 -28 64l-201 201v4h500v-4l-199 -201q-31 -33 -31 -64v-1171h-190l-731 1167v-899q0 -35 30 -63l201 -201v-4h-502v4l201 201q29 29 29 63v920q0 43 -23 67l-186 181v4zM1044 1874v-4l-452 -334l-4 4l174 334h282z" />
    <glyph glyph-name="nacute" unicode="&#x144;" horiz-adv-x="1202" 
d="M620 879q-102 0 -176 -125v-617q0 -27 23 -45l121 -88v-4h-543v4l121 88q20 16 20 45v713q0 31 -20 47l-121 102v5h399v-234q76 250 314 250q299 0 299 -418q0 -137 -4 -465q0 -27 22 -45l121 -88v-4h-543v4l115 88q25 16 25 43l6 410q0 172 -38 253q-39 81 -141 81z
M936 1440v-4l-453 -334l-4 4l174 334h283z" />
    <glyph glyph-name="Ncommaaccent" unicode="&#x145;" horiz-adv-x="1419" 
d="M37 1440h414l716 -1147v878q0 35 -28 64l-201 201v4h500v-4l-199 -201q-31 -33 -31 -64v-1171h-190l-731 1167v-899q0 -35 30 -63l201 -201v-4h-502v4l201 201q29 29 29 63v920q0 43 -23 67l-186 181v4zM602 -190q0 49 34 84q34 34 87 34t88 -39t35 -119t-69 -163
q-69 -82 -169 -109l-2 4q106 68 113 170q0 20 -19 21q-42 0 -70 34t-28 83z" />
    <glyph glyph-name="ncommaaccent" unicode="&#x146;" horiz-adv-x="1202" 
d="M620 879q-102 0 -176 -125v-617q0 -27 23 -45l121 -88v-4h-543v4l121 88q20 16 20 45v713q0 31 -20 47l-121 102v5h399v-234q76 250 314 250q299 0 299 -418q0 -137 -4 -465q0 -27 22 -45l121 -88v-4h-543v4l115 88q25 16 25 43l6 410q0 172 -38 253q-39 81 -141 81z
M748 -230q0 -80 -69 -163q-69 -82 -169 -109l-2 4q106 68 113 170q0 20 -19 21q-43 0 -71 34t-27 83q0 49 34 84q34 34 87 34t88 -39t35 -119z" />
    <glyph glyph-name="Ncaron" unicode="&#x147;" horiz-adv-x="1419" 
d="M37 1440h414l716 -1147v878q0 35 -28 64l-201 201v4h500v-4l-199 -201q-31 -33 -31 -64v-1171h-190l-731 1167v-899q0 -35 30 -63l201 -201v-4h-502v4l201 201q29 29 29 63v920q0 43 -23 67l-186 181v4zM717 1731l309 147l2 -2l-309 -356h-4l-309 356l2 2z" />
    <glyph glyph-name="ncaron" unicode="&#x148;" horiz-adv-x="1202" 
d="M620 879q-102 0 -176 -125v-617q0 -27 23 -45l121 -88v-4h-543v4l121 88q20 16 20 45v713q0 31 -20 47l-121 102v5h399v-234q76 250 314 250q299 0 299 -418q0 -137 -4 -465q0 -27 22 -45l121 -88v-4h-543v4l115 88q25 16 25 43l6 410q0 172 -38 253q-39 81 -141 81z
M608 1298l310 148l2 -2l-310 -357h-4l-309 357l2 2z" />
    <glyph glyph-name="napostrophe" unicode="&#x149;" horiz-adv-x="1290" 
d="M708 879q-102 0 -176 -125v-617q0 -27 23 -45l121 -88v-4h-543v4l121 88q20 16 20 45v713q0 31 -20 47l-121 102v5h399v-234q76 250 314 250q299 0 299 -418q0 -137 -4 -465q0 -27 22 -45l121 -88v-4h-543v4l115 88q25 16 25 43l6 410q0 172 -38 253q-39 81 -141 81z
M59 1413q53 0 88 -39q35 -40 35 -120t-68 -162t-169 -109l-2 4q106 68 112 170q0 20 -18 21q-43 0 -71 34t-27 82q0 49 33 84q34 35 87 35z" />
    <glyph glyph-name="Eng" unicode="&#x14a;" horiz-adv-x="1353" 
d="M1251 1038v-923q0 -253 -136 -395t-370 -142v4q236 53 236 404v1009q0 322 -248 322q-63 0 -133 -37t-100 -90v-1030q0 -29 24 -45l158 -111v-4h-647v4l158 111q23 16 22 45v1120q0 29 -22 45l-158 111v4h465v-234q37 119 136 186t224 66q172 0 282 -108
q109 -109 109 -312z" />
    <glyph glyph-name="eng" unicode="&#x14b;" horiz-adv-x="1171" 
d="M799 -37v582q0 172 -38 253q-39 81 -141 81t-176 -125v-617q0 -27 23 -45l121 -88v-4h-543v4l121 88q20 16 20 45v713q0 31 -20 47l-121 102v5h399v-234q76 250 314 250q299 0 299 -418v-510q0 -254 -133 -395t-367 -141v4q242 55 242 403z" />
    <glyph glyph-name="Omacron" unicode="&#x14c;" horiz-adv-x="1449" 
d="M727 1460q313 0 485 -194t172 -546q0 -353 -172 -547q-172 -193 -485 -193t-487 194t-174 546t174 546t487 194zM1061 720q0 706 -334 705q-336 1 -336 -703t336 -708q334 0 334 706zM987 1647h-536v36h536v-36z" />
    <glyph glyph-name="omacron" unicode="&#x14d;" horiz-adv-x="1097" 
d="M549 -16q-227 0 -361 135q-133 135 -133 384t133 383q134 134 362 134t360 -134t132 -383t-133 -384t-360 -135zM549 987q-98 0 -150 -108q-51 -109 -51 -376t51 -377t149 -110t151 110q52 110 53 376q0 266 -52 376t-151 109zM811 1212h-537v37h537v-37z" />
    <glyph glyph-name="Obreve" unicode="&#x14e;" horiz-adv-x="1449" 
d="M971 1798q0 -128 -75 -192t-180 -64t-180 65t-75 191q0 41 8 82h4q4 -94 71 -146t171 -52t172 52t71 146h5q8 -41 8 -82zM727 1460q313 0 485 -194t172 -546q0 -353 -172 -547q-172 -193 -485 -193t-487 194t-174 546t174 546t487 194zM1061 720q0 706 -334 705
q-336 1 -336 -703t336 -708q334 0 334 706z" />
    <glyph glyph-name="obreve" unicode="&#x14f;" horiz-adv-x="1097" 
d="M795 1364q0 -127 -75 -192q-75 -64 -180 -64t-181 64q-75 65 -74 192q0 41 8 82h4q4 -94 71 -146t171 -53q104 0 172 52t71 147h4q9 -41 9 -82zM549 -16q-227 0 -361 135q-133 135 -133 384t133 383q134 134 362 134t360 -134t132 -383t-133 -384t-360 -135zM549 987
q-98 0 -150 -108q-51 -109 -51 -376t51 -377t149 -110t151 110q52 110 53 376q0 266 -52 376t-151 109z" />
    <glyph glyph-name="Ohungarumlaut" unicode="&#x150;" horiz-adv-x="1449" 
d="M727 1460q313 0 485 -194t172 -546q0 -353 -172 -547q-172 -193 -485 -193t-487 194t-174 546t174 546t487 194zM1061 720q0 706 -334 705q-336 1 -336 -703t336 -708q334 0 334 706zM1174 1874v-4l-355 -348h-4l125 352h234zM866 1874v-4l-356 -348h-4l125 352h235z" />
    <glyph glyph-name="ohungarumlaut" unicode="&#x151;" horiz-adv-x="1097" 
d="M549 -16q-227 0 -361 135q-133 135 -133 384t133 383q134 134 362 134t360 -134t132 -383t-133 -384t-360 -135zM549 987q-98 0 -150 -108q-51 -109 -51 -376t51 -377t149 -110t151 110q52 110 53 376q0 266 -52 376t-151 109zM997 1440v-4l-354 -349h-4l125 353h233z
M690 1440v-4l-356 -349h-4l125 353h235z" />
    <glyph glyph-name="OE" unicode="&#x152;" horiz-adv-x="1996" 
d="M983 147v1137q0 55 -33 80q-86 61 -196 61q-362 0 -363 -702q0 -353 91 -531t290 -178q104 0 180 64q31 28 31 69zM1481 707h-213v-623q0 -31 8 -38t47 -7h285q51 0 65 27l215 387h6v-453h-864q-125 -20 -258 -20q-350 0 -528 196t-178 541q0 344 182 544t506 199
q156 0 268 -20h842v-453h-4l-218 379q-20 35 -59 35h-283q-20 0 -26 -8t-6 -35v-615h215q33 2 55 35l141 197h4v-498h-4l-141 197q-23 33 -57 33z" />
    <glyph glyph-name="oe" unicode="&#x153;" horiz-adv-x="1710" 
d="M1403 606v6q0 199 -40 287t-126 88q-187 0 -201 -381h367zM549 987q-98 0 -150 -108q-51 -109 -51 -375t51 -376t149 -110t151 109q52 109 53 375q0 266 -52 376t-151 109zM552 -16q-230 0 -364 135q-133 135 -133 384t133 383t367 134t352 -154q119 154 334 154
q172 0 292 -98t120 -301q0 -29 -2 -52h-617v-55q0 -184 84 -282t211 -99q221 0 320 223h4q-70 -373 -424 -372q-213 0 -326 151q-121 -151 -351 -151z" />
    <glyph glyph-name="Racute" unicode="&#x154;" horiz-adv-x="1359" 
d="M500 1360v-660h102q295 0 295 342q0 193 -72 276t-207 83h-79q-23 0 -31 -8t-8 -33zM588 662h-88v-504q0 -29 24 -45l162 -109v-4h-651v4l158 111q23 16 22 45v1120q0 29 -22 45l-158 111v4h696q209 0 342 -95t133 -286q0 -145 -103 -245t-282 -130v-4l152 -80l252 -434
q23 -41 61 -76l98 -86v-4h-393l-350 631q-18 31 -53 31zM971 1874v-4l-453 -334l-4 4l174 334h283z" />
    <glyph glyph-name="racute" unicode="&#x155;" horiz-adv-x="843" 
d="M444 154q0 -31 29 -48l211 -102v-4h-639v4l121 88q20 16 20 45v713q0 31 -20 47l-121 102v5h399v-289q27 123 104 214t193 91q70 0 119 -43l-108 -311h-4l-130 211q-10 12 -36 2q-26 -9 -56 -47q-31 -38 -41 -58l-41 -82v-538zM784 1440v-4l-452 -334l-4 4l174 334h282z
" />
    <glyph glyph-name="Rcommaaccent" unicode="&#x156;" horiz-adv-x="1359" 
d="M500 1360v-660h102q295 0 295 342q0 193 -72 276t-207 83h-79q-23 0 -31 -8t-8 -33zM588 662h-88v-504q0 -29 24 -45l162 -109v-4h-651v4l158 111q23 16 22 45v1120q0 29 -22 45l-158 111v4h696q209 0 342 -95t133 -286q0 -145 -103 -245t-282 -130v-4l152 -80l252 -434
q23 -41 61 -76l98 -86v-4h-393l-350 631q-18 31 -53 31zM637 -502l-2 4q106 68 113 170q0 20 -19 21q-43 0 -71 34t-27 83q0 49 34 84q34 34 87 34t88 -39q34 -39 34 -119t-68 -163q-68 -82 -169 -109z" />
    <glyph glyph-name="rcommaaccent" unicode="&#x157;" horiz-adv-x="843" 
d="M444 154q0 -31 29 -48l211 -102v-4h-639v4l121 88q20 16 20 45v713q0 31 -20 47l-121 102v5h399v-289q27 123 104 214t193 91q70 0 119 -43l-108 -311h-4l-130 211q-10 12 -36 2q-26 -9 -56 -47q-31 -38 -41 -58l-41 -82v-538zM203 -502l-2 4q106 68 112 170q0 20 -18 21
q-43 0 -71 34t-27 83q0 49 33 84q34 34 87 34t89 -39t34 -119q0 -80 -68 -163q-68 -82 -169 -109z" />
    <glyph glyph-name="Rcaron" unicode="&#x158;" horiz-adv-x="1359" 
d="M500 1360v-660h102q295 0 295 342q0 193 -72 276t-207 83h-79q-23 0 -31 -8t-8 -33zM588 662h-88v-504q0 -29 24 -45l162 -109v-4h-651v4l158 111q23 16 22 45v1120q0 29 -22 45l-158 111v4h696q209 0 342 -95t133 -286q0 -145 -103 -245t-282 -130v-4l152 -80l252 -434
q23 -41 61 -76l98 -86v-4h-393l-350 631q-18 31 -53 31zM645 1731l309 147l2 -2l-309 -356h-4l-309 356l2 2z" />
    <glyph glyph-name="rcaron" unicode="&#x159;" horiz-adv-x="843" 
d="M444 154q0 -31 29 -48l211 -102v-4h-639v4l121 88q20 16 20 45v713q0 31 -20 47l-121 102v5h399v-289q27 123 104 214t193 91q70 0 119 -43l-108 -311h-4l-130 211q-10 12 -36 2q-26 -9 -56 -47q-31 -38 -41 -58l-41 -82v-538zM457 1298l309 148l2 -2l-309 -357h-4
l-310 357l2 2z" />
    <glyph glyph-name="Sacute" unicode="&#x15a;" horiz-adv-x="1101" 
d="M534 -20q-224 0 -411 55v457h4l223 -433q18 -33 45 -36q70 -8 105 -9q137 0 223 67t86 179q1 112 -63 174t-207 133l-125 60q-326 152 -326 426q0 182 133 295q133 112 331 112t390 -47v-440h-4l-231 413q-18 35 -44 37t-73 2q-125 1 -201 -69t-76 -176q1 -106 59 -167
q58 -60 171 -114l151 -72q176 -84 264 -172t89 -233q-1 -194 -145 -318t-368 -124zM879 1874v-4l-453 -334l-4 4l174 334h283z" />
    <glyph glyph-name="sacute" unicode="&#x15b;" horiz-adv-x="888" 
d="M829 307q1 -155 -117 -239t-300 -84t-349 63l99 299h4l137 -299q14 -28 108 -30q93 -1 146 49t53 120t-44 108t-148 85l-131 59q-197 90 -197 281q0 137 108 219t274 82t327 -51l-94 -279h-5l-143 266q-16 31 -63 31h-25q-76 0 -126 -43t-50 -115q0 -71 43 -111t129 -77
l135 -57q111 -47 170 -109t59 -168zM782 1440v-4l-452 -334l-4 4l174 334h282z" />
    <glyph glyph-name="Scircumflex" unicode="&#x15c;" horiz-adv-x="1101" 
d="M534 -20q-224 0 -411 55v457h4l223 -433q18 -33 45 -36q70 -8 105 -9q137 0 223 67t86 179q1 112 -63 174t-207 133l-125 60q-326 152 -326 426q0 182 133 295q133 112 331 112t390 -47v-440h-4l-231 413q-18 35 -44 37t-73 2q-125 1 -201 -69t-76 -176q1 -106 59 -167
q58 -60 171 -114l151 -72q176 -84 264 -172t89 -233q-1 -194 -145 -318t-368 -124zM862 1536l-2 -4l-309 147l-309 -147l-2 4l309 354h4z" />
    <glyph glyph-name="scircumflex" unicode="&#x15d;" horiz-adv-x="888" 
d="M829 307q1 -155 -117 -239t-300 -84t-349 63l99 299h4l137 -299q14 -28 108 -30q93 -1 146 49t53 120t-44 108t-148 85l-131 59q-197 90 -197 281q0 137 108 219t274 82t327 -51l-94 -279h-5l-143 266q-16 31 -63 31h-25q-76 0 -126 -43t-50 -115q0 -71 43 -111t129 -77
l135 -57q111 -47 170 -109t59 -168zM768 1102l-2 -4l-309 147l-310 -147l-2 4l310 354h4z" />
    <glyph glyph-name="Scedilla" unicode="&#x15e;" horiz-adv-x="1101" 
d="M556 -483q-102 0 -171 52q-68 52 -76 130l4 2q17 -55 65 -85t102 -30t92 32t38 85t-36 86q-64 58 -173 21l-2 4l136 166h-15q-209 0 -397 55v457h4l223 -433q18 -33 45 -36q70 -8 105 -9q137 0 223 67t86 179q1 112 -63 174t-207 133l-125 60q-326 152 -326 426
q0 182 133 295q133 112 331 112t390 -47v-440h-4l-231 413q-17 35 -47 37t-70 2q-125 1 -201 -69t-76 -176q1 -106 59 -167q58 -60 171 -114l151 -72q176 -84 264 -172t89 -233q1 -188 -137 -311t-367 -131l-15 -107q102 20 178 -30t74 -134q0 -84 -61 -138t-163 -54z" />
    <glyph glyph-name="scedilla" unicode="&#x15f;" horiz-adv-x="888" 
d="M649 -291q1 -84 -61 -138t-164 -54t-170 52t-74 130l4 2q16 -55 64 -85t102 -30q53 0 92 32t39 86t-38 86t-89 32t-84 -12l-2 4l131 170q-186 4 -336 63l99 299h4l137 -299q14 -28 108 -30q93 -1 146 49t53 120t-44 108t-148 85l-131 59q-197 90 -197 281q0 137 108 219
t274 82t327 -51l-94 -279h-5l-143 266q-16 31 -63 31h-25q-76 0 -126 -43t-50 -115q0 -71 43 -111t129 -77l135 -57q111 -46 170 -108t59 -169q1 -153 -117 -237t-298 -86l-17 -111q102 20 177 -30t75 -134z" />
    <glyph glyph-name="Scaron" unicode="&#x160;" horiz-adv-x="1101" 
d="M534 -20q-224 0 -411 55v457h4l223 -433q18 -33 45 -36q70 -8 105 -9q137 0 223 67t86 179q1 112 -63 174t-207 133l-125 60q-326 152 -326 426q0 182 133 295q133 112 331 112t390 -47v-440h-4l-231 413q-18 35 -44 37t-73 2q-125 1 -201 -69t-76 -176q1 -106 59 -167
q58 -60 171 -114l151 -72q176 -84 264 -172t89 -233q-1 -194 -145 -318t-368 -124zM551 1731l309 147l2 -2l-309 -356h-4l-309 356l2 2z" />
    <glyph glyph-name="scaron" unicode="&#x161;" horiz-adv-x="888" 
d="M829 307q1 -155 -117 -239t-300 -84t-349 63l99 299h4l137 -299q14 -28 108 -30q93 -1 146 49t53 120t-44 108t-148 85l-131 59q-197 90 -197 281q0 137 108 219t274 82t327 -51l-94 -279h-5l-143 266q-16 31 -63 31h-25q-76 0 -126 -43t-50 -115q0 -71 43 -111t129 -77
l135 -57q111 -47 170 -109t59 -168zM457 1298l309 148l2 -2l-309 -357h-4l-310 357l2 2z" />
    <glyph glyph-name="Tcommaaccent" unicode="&#x162;" horiz-adv-x="1263" 
d="M774 166q0 -29 23 -45l172 -117v-4h-674v4l170 117q25 16 24 45v1235h-180q-25 0 -34 -6t-19 -31l-213 -430h-4v506h1184v-506h-4l-211 430q-10 25 -20 31t-34 6h-180v-1235zM606 -322q-42 0 -70 34t-28 83t34 84t87 35t88 -39t35 -119t-69 -163q-69 -82 -169 -109l-2 4
q106 68 113 170q0 20 -19 20z" />
    <glyph glyph-name="tcommaaccent" unicode="&#x163;" horiz-adv-x="659" 
d="M397 967v-707q0 -70 30 -108t80 -37t88 29t56 71l4 -2q-16 -98 -85 -164t-191 -65q-240 0 -240 254v729h-129v37h105q33 0 55 26l223 311h4v-337h273v-37h-273zM254 -190q0 49 34 84q34 34 87 34t88 -39t35 -119t-69 -163q-69 -82 -169 -109l-2 4q106 68 113 170
q0 20 -19 21q-42 0 -70 34t-28 83z" />
    <glyph glyph-name="Tcaron" unicode="&#x164;" horiz-adv-x="1263" 
d="M774 166q0 -29 23 -45l172 -117v-4h-674v4l170 117q25 16 24 45v1235h-180q-25 0 -34 -6t-19 -31l-213 -430h-4v506h1184v-506h-4l-211 430q-10 25 -20 31t-34 6h-180v-1235zM631 1731l309 147l2 -2l-309 -356h-4l-310 356l3 2z" />
    <glyph glyph-name="tcaron" unicode="&#x165;" horiz-adv-x="659" 
d="M397 967v-707q0 -70 30 -108t80 -37t88 29t56 71l4 -2q-16 -98 -85 -164t-191 -65q-240 0 -240 254v729h-129v37h105q33 0 55 26l223 311h4v-337h273v-37h-273zM487 1044l19 396h209l-223 -396h-5z" />
    <glyph glyph-name="Tbar" unicode="&#x166;" horiz-adv-x="1271" 
d="M1057 684h-279v-518q0 -29 23 -45l172 -117v-4h-674v4l170 117q25 16 25 45v518h-279v37h279v680h-181q-25 0 -33 -6t-20 -31l-213 -430h-4v506h1184v-506h-4l-211 430q-10 25 -20 31t-34 6h-180v-680h279v-37z" />
    <glyph glyph-name="tbar" unicode="&#x167;" horiz-adv-x="681" 
d="M20 682v37h130v248h-130v37h105q33 0 55 26l223 311h5v-337h272v-37h-272v-248h272v-37h-272v-422q0 -70 30 -108t79 -37q50 1 88 29t57 71l4 -2q-16 -98 -85 -164t-192 -65q-240 0 -239 254v444h-130z" />
    <glyph glyph-name="Utilde" unicode="&#x168;" horiz-adv-x="1355" 
d="M1042 1825q0 -130 -48 -185t-104 -55q-58 0 -152 48t-136 48q-88 0 -127 -98h-4q0 130 48 186q47 56 105 56t150 -49t135 -50q92 0 129 99h4zM700 -20q-276 0 -398 118t-122 353v825q0 27 -24 45l-144 115v4h629v-4l-154 -115q-23 -16 -22 -45v-791q0 -440 330 -440
q155 0 241 120t86 347v659q0 37 -30 64l-199 201v4h498v-4l-199 -201q-29 -27 -29 -64v-657q0 -534 -463 -534z" />
    <glyph glyph-name="utilde" unicode="&#x169;" horiz-adv-x="1157" 
d="M836 1391q0 -129 -48 -184q-48 -56 -106 -56t-150 48q-94 48 -137 48q-88 0 -127 -98h-4q0 129 48 185t106 56t149 -48q92 -50 135 -50q92 0 129 99h5zM568 125q95 0 169 125v600q0 31 -20 47l-121 102v5h401v-850q0 -31 21 -48l121 -102v-4h-402v227q-86 -244 -303 -243
q-293 0 -293 415q0 123 4 451q0 31 -20 49l-123 100v5h401l-4 -543q0 -170 37 -253t132 -83z" />
    <glyph glyph-name="Umacron" unicode="&#x16a;" horiz-adv-x="1355" 
d="M1018 1647h-537v36h537v-36zM700 -20q-276 0 -398 118t-122 353v825q0 27 -24 45l-144 115v4h629v-4l-154 -115q-23 -16 -22 -45v-791q0 -440 330 -440q155 0 241 120t86 347v659q0 37 -30 64l-199 201v4h498v-4l-199 -201q-29 -27 -29 -64v-657q0 -534 -463 -534z" />
    <glyph glyph-name="umacron" unicode="&#x16b;" horiz-adv-x="1157" 
d="M811 1212h-537v37h537v-37zM568 125q95 0 169 125v600q0 31 -20 47l-121 102v5h401v-850q0 -31 21 -48l121 -102v-4h-402v227q-86 -244 -303 -243q-293 0 -293 415q0 123 4 451q0 31 -20 49l-123 100v5h401l-4 -543q0 -170 37 -253t132 -83z" />
    <glyph glyph-name="Ubreve" unicode="&#x16c;" horiz-adv-x="1355" 
d="M1001 1798q-1 -128 -75 -192t-180 -64t-180 65q-75 65 -74 191q0 41 8 82h4q4 -94 70 -146t171 -52t173 52t71 146h4q8 -41 8 -82zM700 -20q-276 0 -398 118t-122 353v825q0 27 -24 45l-144 115v4h629v-4l-154 -115q-23 -16 -22 -45v-791q0 -440 330 -440q155 0 241 120
t86 347v659q0 37 -30 64l-199 201v4h498v-4l-199 -201q-29 -27 -29 -64v-657q0 -534 -463 -534z" />
    <glyph glyph-name="ubreve" unicode="&#x16d;" horiz-adv-x="1157" 
d="M795 1364q0 -127 -75 -192q-75 -64 -180 -64t-181 64q-75 65 -74 192q0 41 8 82h4q4 -94 71 -146t171 -53q104 0 172 52t71 147h4q9 -41 9 -82zM568 125q95 0 169 125v600q0 31 -20 47l-121 102v5h401v-850q0 -31 21 -48l121 -102v-4h-402v227q-86 -244 -303 -243
q-293 0 -293 415q0 123 4 451q0 31 -20 49l-123 100v5h401l-4 -543q0 -170 37 -253t132 -83z" />
    <glyph glyph-name="Uring" unicode="&#x16e;" horiz-adv-x="1355" 
d="M700 -20q-276 0 -398 118t-122 353v825q0 27 -24 45l-144 115v4h629v-4l-154 -115q-23 -16 -22 -45v-791q0 -440 330 -440q155 0 241 120t86 347v659q0 37 -30 64l-199 201v4h498v-4l-199 -201q-29 -27 -29 -64v-657q0 -534 -463 -534zM893 1716q0 60 -40 100t-99 40
t-99 -40q-39 -40 -39 -98t40 -99q40 -40 98 -40t99 39q40 39 40 98zM934 1716q0 -76 -52 -126t-127 -50t-127 51t-52 126t50 126q52 51 128 51t128 -51t52 -127z" />
    <glyph glyph-name="uring" unicode="&#x16f;" horiz-adv-x="1157" 
d="M568 125q95 0 169 125v600q0 31 -20 47l-121 102v5h401v-850q0 -31 21 -48l121 -102v-4h-402v227q-86 -244 -303 -243q-293 0 -293 415q0 123 4 451q0 31 -20 49l-123 100v5h401l-4 -543q0 -170 37 -253t132 -83zM686 1282q0 59 -40 99t-99 40t-98 -40t-39 -98t40 -98
t98 -40t98 39t40 98zM727 1282q0 -76 -52 -126t-127 -50t-127 51t-52 126t51 126t127 51t128 -51t52 -127z" />
    <glyph glyph-name="Uhungarumlaut" unicode="&#x170;" horiz-adv-x="1355" 
d="M1204 1874v-4l-354 -348h-4l125 352h233zM897 1874v-4l-356 -348h-4l125 352h235zM700 -20q-276 0 -398 118t-122 353v825q0 27 -24 45l-144 115v4h629v-4l-154 -115q-23 -16 -22 -45v-791q0 -440 330 -440q155 0 241 120t86 347v659q0 37 -30 64l-199 201v4h498v-4
l-199 -201q-29 -27 -29 -64v-657q0 -534 -463 -534z" />
    <glyph glyph-name="uhungarumlaut" unicode="&#x171;" horiz-adv-x="1157" 
d="M997 1440v-4l-354 -349h-4l125 353h233zM690 1440v-4l-356 -349h-4l125 353h235zM568 125q95 0 169 125v600q0 31 -20 47l-121 102v5h401v-850q0 -31 21 -48l121 -102v-4h-402v227q-86 -244 -303 -243q-293 0 -293 415q0 123 4 451q0 31 -20 49l-123 100v5h401l-4 -543
q0 -170 37 -253t132 -83z" />
    <glyph glyph-name="Uogonek" unicode="&#x172;" horiz-adv-x="1355" 
d="M666 -483q-84 0 -149 55q-65 54 -65 144t62 158q61 68 168 106q-266 4 -384 122t-118 349v825q0 27 -24 45l-144 115v4h629v-4l-154 -115q-23 -16 -22 -45v-791q0 -440 330 -440q155 0 241 120t86 347v659q0 37 -30 64l-199 201v4h498v-4l-199 -201q-29 -27 -29 -64v-657
q0 -526 -450 -534q-117 -70 -117 -197q0 -76 42 -117t107 -41q96 0 156 82l4 -2q-71 -188 -239 -188z" />
    <glyph glyph-name="uogonek" unicode="&#x173;" horiz-adv-x="1157" 
d="M568 125q95 0 169 125v600q0 31 -20 47l-121 102v5h401v-850q0 -31 21 -48l121 -102v-4h-375q-129 -57 -129 -217q0 -76 43 -117t108 -41q96 0 156 82l4 -2q-72 -188 -239 -188q-86 0 -151 56q-64 57 -64 151t68 172q69 78 177 104v227q-86 -244 -303 -243
q-293 0 -293 415q0 123 4 451q0 31 -20 49l-123 100v5h401l-4 -543q0 -170 37 -253t132 -83z" />
    <glyph glyph-name="Wcircumflex" unicode="&#x174;" horiz-adv-x="2017" 
d="M-20 1440h552v-4l-122 -123q-18 -18 -9 -51l340 -1045l244 756l-86 272q-10 37 -41 80l-78 111v4h543v-4l-123 -123q-18 -18 -8 -49l326 -1041l301 940q6 29 2 39t-25 35l-180 199v4h471v-4l-172 -191q-41 -43 -53 -84l-371 -1161h-197l-288 907l-291 -907h-197
l-407 1245q-16 49 -45 82l-86 109v4zM1354 1536l-2 -4l-310 147l-309 -147l-2 4l309 354h4z" />
    <glyph glyph-name="wcircumflex" unicode="&#x175;" horiz-adv-x="1503" 
d="M-23 1004h455v-5l-86 -102q-16 -18 -6 -51l221 -637l160 442l-59 170q-16 51 -35 80l-64 98v5h453v-5l-84 -102q-18 -25 -8 -51l223 -635l186 532q14 37 -8 70l-119 186v5h334v-5l-129 -184q-25 -37 -39 -76l-260 -739h-158l-213 596l-215 -596h-157l-293 821
q-14 45 -35 80l-64 98v5zM1100 1102l-2 -4l-310 147l-309 -147l-2 4l309 354h5z" />
    <glyph glyph-name="Ycircumflex" unicode="&#x176;" horiz-adv-x="1261" 
d="M1006 1536l-2 -4l-310 147l-309 -147l-2 4l309 354h4zM782 569v-403q0 -20 4 -28t21 -17l170 -117v-4h-674v4l172 117q23 16 23 45v375q0 33 -15 57l-350 649q-18 35 -55 76l-105 113v4h602v-4l-126 -121q-20 -20 -9 -43l322 -610l268 524q16 31 -6 55l-176 195v4h487v-4
l-205 -191q-39 -35 -63 -78l-268 -522q-17 -31 -17 -76z" />
    <glyph glyph-name="ycircumflex" unicode="&#x177;" horiz-adv-x="929" 
d="M827 1102l-2 -4l-309 147l-309 -147l-2 4l309 354h4zM115 -483q-47 0 -92 20l73 332h4l156 -203q14 -20 26 -20t25 20q55 76 129 244l-368 940q-10 27 -37 70l-51 79v5h460v-5l-90 -100q-18 -20 -6 -49l227 -606l195 495q14 37 -4 66l-123 194v5h332v-5l-123 -180
q-25 -37 -45 -86l-307 -788q-57 -145 -138 -271q-98 -157 -243 -157z" />
    <glyph glyph-name="Ydieresis" unicode="&#x178;" horiz-adv-x="1261" 
d="M876 1831q50 0 88 -36q36 -36 36 -86t-38 -85q-36 -35 -86 -35t-86 35q-34 35 -34 85t35 86t85 36zM387 1709q0 50 36 86t86 36t86 -36t36 -86t-36 -85t-86 -35t-86 35t-36 85zM782 569v-403q0 -20 4 -28t21 -17l170 -117v-4h-674v4l172 117q23 16 23 45v375q0 33 -15 57
l-350 649q-18 35 -55 76l-105 113v4h602v-4l-126 -121q-20 -20 -9 -43l322 -610l268 524q16 31 -6 55l-176 195v4h487v-4l-205 -191q-39 -35 -63 -78l-268 -522q-17 -31 -17 -76z" />
    <glyph glyph-name="Zacute" unicode="&#x179;" horiz-adv-x="1226" 
d="M1128 504v-504h-1101v4l817 1397h-418q-47 0 -64 -27l-243 -444h-4v510h1065v-4l-820 -1397h451q49 0 63 27l250 438h4zM956 1874v-4l-452 -334l-4 4l174 334h282z" />
    <glyph glyph-name="zacute" unicode="&#x17a;" horiz-adv-x="925" 
d="M29 0v4l569 965h-248q-27 0 -34 -4t-21 -27l-211 -324h-6v390h815v-5l-563 -962h248q27 0 35 4t22 27l225 342h6l-30 -410h-807zM811 1440v-4l-453 -334l-4 4l174 334h283z" />
    <glyph glyph-name="Zdotaccent" unicode="&#x17b;" horiz-adv-x="1226" 
d="M492 1703q0 58 39 96q41 38 99 38t97 -38t39 -96t-39 -96t-97 -38t-99 38q-39 38 -39 96zM1128 504v-504h-1101v4l817 1397h-418q-47 0 -64 -27l-243 -444h-4v510h1065v-4l-820 -1397h451q49 0 63 27l250 438h4z" />
    <glyph glyph-name="zdotaccent" unicode="&#x17c;" horiz-adv-x="925" 
d="M484 1403q58 0 98 -38t39 -96q0 -59 -39 -97q-40 -38 -98 -38t-98 39q-40 38 -40 96t40 96t98 38zM29 0v4l569 965h-248q-27 0 -34 -4t-21 -27l-211 -324h-6v390h815v-5l-563 -962h248q27 0 35 4t22 27l225 342h6l-30 -410h-807z" />
    <glyph glyph-name="Zcaron" unicode="&#x17d;" horiz-adv-x="1226" 
d="M1128 504v-504h-1101v4l817 1397h-418q-47 0 -64 -27l-243 -444h-4v510h1065v-4l-820 -1397h451q49 0 63 27l250 438h4zM629 1731l309 147l2 -2l-309 -356h-4l-310 356l2 2z" />
    <glyph glyph-name="zcaron" unicode="&#x17e;" horiz-adv-x="925" 
d="M29 0v4l569 965h-248q-27 0 -34 -4t-21 -27l-211 -324h-6v390h815v-5l-563 -962h248q27 0 35 4t22 27l225 342h6l-30 -410h-807zM483 1298l310 148l2 -2l-310 -357h-4l-309 357l2 2z" />
    <glyph glyph-name="florin" unicode="&#x192;" horiz-adv-x="901" 
d="M307 1042q0 418 341 418q163 0 306 -49l-114 -276h-4l-121 266q-9 18 -15 22t-28 4q-57 0 -82 -51t-25 -162v-579h221v-37h-221v-594q0 -254 -88 -371t-264 -116q-143 0 -295 49l115 276h4l119 -264q12 -31 47 -31q35 1 57 15q46 30 47 194v842h-192v37h192v407z" />
    <glyph glyph-name="uni01B5" unicode="&#x1b5;" horiz-adv-x="1226" 
d="M1057 709h-303l-394 -670h451q49 0 63 27l250 438h4v-504h-1101v4l411 705h-301v36h324l383 656h-418q-47 0 -64 -27l-243 -444h-4v510h1065v-4l-406 -691h283v-36z" />
    <glyph glyph-name="uni01B6" unicode="&#x1b6;" horiz-adv-x="931" 
d="M106 496v36h236l258 437h-248q-27 0 -34 -4t-21 -27l-211 -324h-6v390h815v-5l-272 -467h211v-36h-234l-268 -459h248q26 0 34 4t23 27l225 342h6l-30 -410h-807v4l288 492h-213z" />
    <glyph glyph-name="Aringacute" unicode="&#x1fa;" horiz-adv-x="1304" 
d="M549 1217l-225 -674h444zM1309 0h-553v4l123 123q18 18 8 53l-107 324h-469l-78 -236q-10 -33 17 -61l186 -203v-4h-471v4l178 195q39 43 52 80l315 952q10 31 7 42t-21 32l-117 131v4h391l408 -1245q16 -49 45 -82l86 -109v-4zM758 1649q0 47 -40 73t-97 25
q-57 0 -99 -27q-42 -28 -41 -72q0 -44 42 -71q43 -27 99 -27t96 26t40 73zM883 2005v-4l-312 -199q-76 -49 -90 -71q57 53 134 53t130 -37t53 -99t-52 -98t-124 -37q-72 0 -127 37q-55 36 -55 84t25 90l147 281h271z" />
    <glyph glyph-name="aringacute" unicode="&#x1fb;" horiz-adv-x="997" 
d="M508 506q-92 0 -146 -62t-53 -148q0 -87 40 -134t102 -47q94 0 153 96l4 278q-43 17 -100 17zM612 731q0 117 -47 185t-141 69q-33 0 -42 -4t-20 -23l-143 -288h-4l-109 278q182 72 379 72t283 -84q96 -100 96 -330v-37l-12 -325q-4 -129 68 -129q45 0 61 49h4
q2 -33 -16 -76q-19 -43 -65 -74q-46 -30 -118 -30t-127 54q-53 54 -55 155q-31 -96 -104 -153q-74 -56 -180 -56t-186 74q-79 74 -79 209q-1 136 101 217t236 81t216 -61l4 219v8zM623 1208q0 47 -41 73q-40 26 -98 26t-98 -27t-40 -72q0 -46 41 -72t97 -26t98 26t41 72z
M748 1565v-4l-312 -199q-70 -41 -92 -72q57 53 135 53q78 -1 131 -37q54 -36 54 -98t-54 -98q-54 -37 -125 -37q-72 0 -126 38t-54 97q0 31 23 76l149 281h271z" />
    <glyph glyph-name="AEacute" unicode="&#x1fc;" horiz-adv-x="1898" 
d="M887 541v747l-457 -747h457zM1587 979v-500h-4l-158 199q-27 33 -55 33h-201v-629q1 -27 7 -35t28 -8h305q49 0 66 27l215 401h6v-467h-1091v4l157 111q25 16 25 45v342h-481l-136 -223q-20 -33 -20 -47t20 -39l158 -189v-4h-481v4l188 176q68 63 82 86l590 967
q16 31 15 40t-17 27l-133 136v4h1104v-467h-4l-216 393q-18 35 -57 35h-295q-22 0 -28 -8t-7 -35v-610h201q31 2 55 34l158 197h4zM1520 1878v-4l-453 -334l-4 4l174 334h283z" />
    <glyph glyph-name="aeacute" unicode="&#x1fd;" horiz-adv-x="1548" 
d="M471 113q121 0 195 106q-57 111 -58 270q-53 16 -98 17q-94 0 -148 -60t-53 -146q0 -87 44 -137t118 -50zM1073 987q-188 0 -203 -381h369q2 201 -38 291t-128 90zM422 983q-31 0 -41 -5t-19 -22l-143 -284h-4l-115 284q184 64 370 64t271 -84l31 -39q123 123 301 123
t298 -98t120 -301q0 -31 -2 -52h-619v-34q0 -195 84 -298t213 -104q221 0 318 223h4q-70 -373 -422 -372q-125 0 -229 56t-166 167q-29 -94 -115 -159q-86 -64 -211 -64t-208 76t-83 211q-1 136 101 215t232 79t220 -61l4 223q0 119 -48 187t-142 69zM1139 1440v-4
l-453 -334l-4 4l174 334h283z" />
    <glyph glyph-name="Oslashacute" unicode="&#x1fe;" horiz-adv-x="1449" 
d="M1092 1874v-4l-453 -334l-4 4l174 334h283zM727 14q334 0 334 707q0 328 -76 508l-481 -1088q82 -127 223 -127zM391 721q0 -362 90 -539l482 1092q-86 152 -236 151q-336 1 -336 -704zM727 1460q166 0 293 -55l86 192l35 -16l-86 -192q330 -172 329 -668
q0 -354 -172 -548t-485 -193q-150 0 -272 47l-86 -195l-35 16l84 193q-352 162 -352 680q0 351 174 545t487 194z" />
    <glyph glyph-name="oslashacute" unicode="&#x1ff;" horiz-adv-x="1097" 
d="M874 1440v-4l-452 -334l-4 4l174 334h282zM750 472q0 238 -33 357l-316 -712q47 -99 147 -99t152 108q50 108 50 346zM548 987q-99 0 -150 -107q-50 -108 -50 -354t33 -354l315 713q-49 102 -148 102zM1044 502q0 -256 -132 -387t-363 -131q-102 0 -193 28l-80 -180
l-36 18l77 177q-262 111 -262 477q0 256 132 386t362 130q104 0 194 -29l72 160l37 -14l-72 -160q264 -113 264 -475z" />
    <glyph glyph-name="Scommaaccent" unicode="&#x218;" horiz-adv-x="1101" 
d="M534 -20q-224 0 -411 55v457h4l223 -433q18 -33 45 -36q70 -8 105 -9q137 0 223 67t86 179q1 112 -63 174t-207 133l-125 60q-326 152 -326 426q0 182 133 295q133 112 331 112t390 -47v-440h-4l-231 413q-18 35 -44 37t-73 2q-125 1 -201 -69t-76 -176q1 -106 59 -167
q58 -60 171 -114l151 -72q176 -84 264 -172t89 -233q-1 -194 -145 -318t-368 -124zM426 -190q0 49 34 84q34 34 87 34t88 -39t35 -119t-69 -163q-69 -82 -169 -109l-2 4q106 68 113 170q0 20 -19 21q-42 0 -70 34t-28 83z" />
    <glyph glyph-name="scommaaccent" unicode="&#x219;" horiz-adv-x="888" 
d="M829 307q1 -155 -117 -239t-300 -84t-349 63l99 299h4l137 -299q14 -28 108 -30q93 -1 146 49t53 120t-44 108t-148 85l-131 59q-197 90 -197 281q0 137 108 219t274 82t327 -51l-94 -279h-5l-143 266q-16 31 -63 31h-25q-76 0 -126 -43t-50 -115q0 -71 43 -111t129 -77
l135 -57q111 -47 170 -109t59 -168zM432 -322q-43 0 -71 34t-27 83q0 49 34 84t87 35t88 -39t35 -119t-69 -163q-69 -82 -169 -109l-2 4q106 68 113 170q0 20 -19 20z" />
    <glyph glyph-name="uni021A" unicode="&#x21a;" horiz-adv-x="1263" 
d="M774 166q0 -29 23 -45l172 -117v-4h-674v4l170 117q25 16 24 45v1235h-180q-25 0 -34 -6t-19 -31l-213 -430h-4v506h1184v-506h-4l-211 430q-10 25 -20 31t-34 6h-180v-1235zM606 -322q-42 0 -70 34t-28 83t34 84t87 35t88 -39t35 -119t-69 -163q-69 -82 -169 -109l-2 4
q106 68 113 170q0 20 -19 20z" />
    <glyph glyph-name="uni021B" unicode="&#x21b;" horiz-adv-x="659" 
d="M397 967v-707q0 -70 30 -108t80 -37t88 29t56 71l4 -2q-16 -98 -85 -164t-191 -65q-240 0 -240 254v729h-129v37h105q33 0 55 26l223 311h4v-337h273v-37h-273zM254 -190q0 49 34 84q34 34 87 34t88 -39t35 -119t-69 -163q-69 -82 -169 -109l-2 4q106 68 113 170
q0 20 -19 21q-42 0 -70 34t-28 83z" />
    <glyph glyph-name="dotlessj" unicode="&#x237;" horiz-adv-x="557" 
d="M-10 -449q-39 0 -60 5v4q121 16 182 115q60 99 60 302v873q0 29 -20 47l-121 102v5h399v-947q0 -229 -112 -367t-328 -139z" />
    <glyph glyph-name="circumflex" unicode="&#x2c6;" horiz-adv-x="827" 
d="M725 1102l-2 -4l-309 147l-310 -147l-2 4l310 354h4z" />
    <glyph glyph-name="caron" unicode="&#x2c7;" horiz-adv-x="827" 
d="M414 1309l309 147l2 -2l-309 -356h-4l-310 356l2 2z" />
    <glyph glyph-name="uni02C9" unicode="&#x2c9;" horiz-adv-x="761" 
d="M643 1212h-534v37h534v-37z" />
    <glyph glyph-name="breve" unicode="&#x2d8;" horiz-adv-x="714" 
d="M612 1364q0 -127 -74 -192q-74 -64 -180 -64t-181 64t-75 192q0 41 9 82h4q4 -94 70 -147q67 -52 171 -52t172 52t72 147h4q8 -41 8 -82z" />
    <glyph glyph-name="dotaccent" unicode="&#x2d9;" horiz-adv-x="479" 
d="M102 1269q0 58 40 96t98 38t98 -38q39 -38 39 -96q0 -59 -39 -97t-97 -38t-99 38q-40 39 -40 97z" />
    <glyph glyph-name="ring" unicode="&#x2da;" horiz-adv-x="563" 
d="M420 1282q0 59 -40 99t-99 40t-99 -40t-39 -98q0 -58 40 -98q41 -40 99 -40t98 39t40 98zM461 1282q0 -76 -52 -126t-127 -50t-127 51q-53 51 -53 126t52 126t127 51q76 0 128 -51t52 -127z" />
    <glyph glyph-name="ogonek" unicode="&#x2db;" horiz-adv-x="657" 
d="M315 -483q-85 0 -149 56q-64 55 -64 149t78 170t209 110l4 -2q-147 -72 -147 -217q0 -76 43 -117t108 -41q99 0 154 82l4 -2q-72 -188 -240 -188z" />
    <glyph glyph-name="tilde" unicode="&#x2dc;" horiz-adv-x="776" 
d="M674 1391q0 -130 -48 -185t-106 -55t-150 48q-93 48 -137 48q-88 0 -127 -98h-4q0 129 48 185t106 56t150 -48q92 -50 135 -50q92 0 129 99h4z" />
    <glyph glyph-name="hungarumlaut" unicode="&#x2dd;" horiz-adv-x="872" 
d="M770 1440v-4l-354 -349h-4l125 353h233zM463 1440v-4l-357 -349h-4l125 353h236z" />
    <glyph glyph-name="uni0394" unicode="&#x394;" horiz-adv-x="1335" 
d="M989 39l-409 1171l-461 -1171h870zM408 1440h393l497 -1440h-1237l480 1225q12 33 9 49t-26 41l-116 121v4z" />
    <glyph glyph-name="uni03A9" unicode="&#x3a9;" horiz-adv-x="1478" 
d="M739 1425q-157 -1 -247 -159t-91 -488q0 -485 273 -579v-199h-590l-16 444h4l223 -374q13 -20 27 -26t49 -5h264v131q-239 41 -399 214q-160 172 -160 444t174 452t489 180t489 -180t175 -452q0 -272 -161 -444q-161 -173 -398 -214v-131h264q37 0 50 4t26 27l223 374h4
l-16 -444h-590v199q272 96 272 579q0 330 -90 488t-248 159z" />
    <glyph glyph-name="uni03BC" unicode="&#x3bc;" horiz-adv-x="1159" 
d="M999 147q0 -33 21 -49l121 -94v-4h-402v229q-33 -106 -106 -170q-74 -63 -168 -63q-31 0 -64 8v-315q0 -33 29 -49l170 -103v-4h-600v4l125 88q20 14 20 45v1188q0 31 -20 47l-121 94v5h397v-584q0 -166 37 -233t123 -66q106 0 178 129v606q0 31 -20 49l-121 94v5h401
v-857z" />
    <glyph glyph-name="pi" unicode="&#x3c0;" horiz-adv-x="1241" 
d="M1053 850v-713q0 -31 20 -45l123 -88v-4h-543v4l119 88q23 16 23 45v830h-351v-830q0 -27 23 -45l121 -88v-4h-543v4l121 88q20 16 20 45v713q0 31 -20 47l-121 102v5h1151v-5l-123 -102q-20 -16 -20 -47z" />
    <glyph glyph-name="Wgrave" unicode="&#x1e80;" horiz-adv-x="2017" 
d="M719 1874h285l172 -334l-5 -4l-452 334v4zM-20 1440h552v-4l-122 -123q-18 -18 -9 -51l340 -1045l244 756l-86 272q-10 37 -41 80l-78 111v4h543v-4l-123 -123q-18 -18 -8 -49l326 -1041l301 940q6 29 2 39t-25 35l-180 199v4h471v-4l-172 -191q-41 -43 -53 -84
l-371 -1161h-197l-288 907l-291 -907h-197l-407 1245q-16 49 -45 82l-86 109v4z" />
    <glyph glyph-name="wgrave" unicode="&#x1e81;" horiz-adv-x="1503" 
d="M465 1440h285l172 -334l-4 -4l-453 334v4zM-23 1004h455v-5l-86 -102q-16 -18 -6 -51l221 -637l160 442l-59 170q-16 51 -35 80l-64 98v5h453v-5l-84 -102q-18 -25 -8 -51l223 -635l186 532q14 37 -8 70l-119 186v5h334v-5l-129 -184q-25 -37 -39 -76l-260 -739h-158
l-213 596l-215 -596h-157l-293 821q-14 45 -35 80l-64 98v5z" />
    <glyph glyph-name="Wacute" unicode="&#x1e82;" horiz-adv-x="2017" 
d="M-20 1440h552v-4l-122 -123q-18 -18 -9 -51l340 -1045l244 756l-86 272q-10 37 -41 80l-78 111v4h543v-4l-123 -123q-18 -18 -8 -49l326 -1041l301 940q6 29 2 39t-25 35l-180 199v4h471v-4l-172 -191q-41 -43 -53 -84l-371 -1161h-197l-288 907l-291 -907h-197
l-407 1245q-16 49 -45 82l-86 109v4zM1370 1874v-4l-452 -334l-5 4l174 334h283z" />
    <glyph glyph-name="wacute" unicode="&#x1e83;" horiz-adv-x="1503" 
d="M-23 1004h455v-5l-86 -102q-16 -18 -6 -51l221 -637l160 442l-59 170q-16 51 -35 80l-64 98v5h453v-5l-84 -102q-18 -25 -8 -51l223 -635l186 532q14 37 -8 70l-119 186v5h334v-5l-129 -184q-25 -37 -39 -76l-260 -739h-158l-213 596l-215 -596h-157l-293 821
q-14 45 -35 80l-64 98v5zM1116 1440v-4l-452 -334l-5 4l175 334h282z" />
    <glyph glyph-name="Wdieresis" unicode="&#x1e84;" horiz-adv-x="2017" 
d="M-20 1440h552v-4l-122 -123q-18 -18 -9 -51l340 -1045l244 756l-86 272q-10 37 -41 80l-78 111v4h543v-4l-123 -123q-18 -18 -8 -49l326 -1041l301 940q6 29 2 39t-25 35l-180 199v4h471v-4l-172 -191q-41 -43 -53 -84l-371 -1161h-197l-288 907l-291 -907h-197
l-407 1245q-16 49 -45 82l-86 109v4zM1106 1709q0 50 35 86t86 36t87 -36t36 -86t-37 -85t-87 -35t-85 35t-35 85zM737 1709q0 50 36 86t86 36t86 -36t36 -86t-36 -85t-86 -35t-86 35t-36 85z" />
    <glyph glyph-name="wdieresis" unicode="&#x1e85;" horiz-adv-x="1503" 
d="M-23 1004h455v-5l-86 -102q-16 -18 -6 -51l221 -637l160 442l-59 170q-16 51 -35 80l-64 98v5h453v-5l-84 -102q-18 -25 -8 -51l223 -635l186 532q14 37 -8 70l-119 186v5h334v-5l-129 -184q-25 -37 -39 -76l-260 -739h-158l-213 596l-215 -596h-157l-293 821
q-14 45 -35 80l-64 98v5zM852 1275q0 50 35 86t86 36t87 -36t36 -86t-37 -85t-87 -35t-85 35t-35 85zM483 1275q0 50 36 86t86 36t86 -36t36 -86t-36 -85t-86 -35t-86 35t-36 85z" />
    <glyph glyph-name="uni1E8A" unicode="&#x1e8a;" horiz-adv-x="1392" 
d="M614 1703q0 58 40 96t98 38t98 -38q39 -38 39 -96t-39 -96t-97 -38t-99 38q-40 38 -40 96zM1407 0h-616v4l108 102q27 25 6 54l-291 456l-264 -376q-27 -35 -4 -58l176 -178v-4h-534v4l231 166q59 41 92 86l279 397l-381 600q-20 31 -64 70l-125 113v4h619v-4l-111 -103
q-16 -14 -16 -24t12 -29l254 -401l226 321q27 35 4 57l-177 179v4h535v-4l-231 -166q-59 -41 -93 -86l-239 -342l418 -656q20 -30 63 -69l123 -113v-4z" />
    <glyph glyph-name="uni1E8B" unicode="&#x1e8b;" horiz-adv-x="1001" 
d="M401 1269q0 58 40 96q41 38 99 38t97 -38t39 -96q0 -59 -39 -97t-97 -38t-99 38q-40 39 -40 97zM-23 1004h523v-5l-103 -84q-20 -16 0 -47l172 -254l150 195q14 21 15 29t-13 26l-111 135v5h394v-5l-191 -149q-39 -29 -74 -74l-149 -192l291 -426q25 -35 63 -74l82 -80
v-4h-522v4l104 86q20 16 -2 47l-178 262l-156 -202q-16 -19 -16 -29t14 -29l111 -135v-4h-393v4l190 150q33 27 74 75l156 201l-283 416q-29 43 -66 78l-82 75v5z" />
    <glyph glyph-name="Ygrave" unicode="&#x1ef2;" horiz-adv-x="1261" 
d="M371 1874h284l172 -334l-4 -4l-452 334v4zM782 569v-403q0 -20 4 -28t21 -17l170 -117v-4h-674v4l172 117q23 16 23 45v375q0 33 -15 57l-350 649q-18 35 -55 76l-105 113v4h602v-4l-126 -121q-20 -20 -9 -43l322 -610l268 524q16 31 -6 55l-176 195v4h487v-4l-205 -191
q-39 -35 -63 -78l-268 -522q-17 -31 -17 -76z" />
    <glyph glyph-name="ygrave" unicode="&#x1ef3;" horiz-adv-x="929" 
d="M193 1440h284l172 -334l-4 -4l-452 334v4zM115 -483q-47 0 -92 20l73 332h4l156 -203q14 -20 26 -20t25 20q55 76 129 244l-368 940q-10 27 -37 70l-51 79v5h460v-5l-90 -100q-18 -20 -6 -49l227 -606l195 495q14 37 -4 66l-123 194v5h332v-5l-123 -180q-25 -37 -45 -86
l-307 -788q-57 -145 -138 -271q-98 -157 -243 -157z" />
    <glyph glyph-name="endash" unicode="&#x2013;" horiz-adv-x="1024" 
d="M1014 481h-1004v37h1004v-37z" />
    <glyph glyph-name="emdash" unicode="&#x2014;" horiz-adv-x="2048" 
d="M2038 481h-2028v37h2028v-37z" />
    <glyph glyph-name="quoteleft" unicode="&#x2018;" horiz-adv-x="415" 
d="M219 1255q0 -20 34 -24q33 -4 63 -40t30 -87t-37 -88t-94 -37t-97 41t-40 110q0 112 74 212t192 131l2 -5q-57 -33 -92 -92t-35 -121z" />
    <glyph glyph-name="quoteright" unicode="&#x2019;" horiz-adv-x="415" 
d="M203 1184q0 16 -35 23t-65 41q-29 34 -29 85t37 89t95 38t97 -41t39 -110q0 -111 -74 -211t-190 -131l-2 4q57 33 92 91t35 122z" />
    <glyph glyph-name="quotesinglbase" unicode="&#x201a;" horiz-adv-x="415" 
d="M203 4q0 20 -35 24t-65 41q-29 36 -29 87t37 88t95 37t97 -41t39 -111q0 -111 -74 -211t-192 -131l-2 4q57 33 93 92t36 121z" />
    <glyph glyph-name="quotedblleft" unicode="&#x201c;" horiz-adv-x="768" 
d="M219 1255q0 -20 34 -24q33 -4 63 -40t30 -87t-37 -88t-94 -37t-97 41t-40 110q0 112 74 212t192 131l2 -5q-57 -33 -92 -92t-35 -121zM571 1255q0 -20 34 -24t64 -40q29 -36 29 -87t-36 -88t-94 -37t-97 41t-39 110q0 112 74 212t190 131l2 -5q-57 -33 -92 -92t-35 -121z
" />
    <glyph glyph-name="quotedblright" unicode="&#x201d;" horiz-adv-x="770" 
d="M555 1184q0 18 -35 25q-36 7 -64 40t-28 84t37 89t94 38t97 -41t40 -110q0 -111 -74 -211t-192 -131l-2 4q57 33 92 91t35 122zM203 1184q0 16 -36 24t-65 41q-28 33 -28 84t37 89t95 38t97 -41t39 -110q0 -111 -74 -211t-190 -131l-2 4q57 33 92 91t35 122z" />
    <glyph glyph-name="quotedblbase" unicode="&#x201e;" horiz-adv-x="768" 
d="M203 4q0 20 -35 24t-65 41q-29 36 -29 87t37 88t95 37t97 -41t39 -111q0 -111 -74 -211t-192 -131l-2 4q57 33 93 92t36 121zM555 4q0 20 -35 24q-34 4 -64 41q-30 36 -30 87t37 88t95 37t97 -41t39 -111q0 -111 -74 -211t-192 -131l-2 4q57 33 93 92t36 121z" />
    <glyph glyph-name="dagger" unicode="&#x2020;" horiz-adv-x="880" 
d="M768 1053h-309v-787h-39v787h-307v37h307v350h39v-350h309v-37z" />
    <glyph glyph-name="daggerdbl" unicode="&#x2021;" horiz-adv-x="880" 
d="M113 1053v37h307v350h39v-350h309v-37h-309v-400h309v-37h-309v-350h-39v350h-307v37h307v400h-307z" />
    <glyph glyph-name="bullet" unicode="&#x2022;" horiz-adv-x="708" 
d="M143 726q-1 89 61 147q62 59 150 59t150 -58t61 -148q0 -89 -60 -144q-59 -56 -149 -56t-152 56t-61 144z" />
    <glyph glyph-name="ellipsis" unicode="&#x2026;" horiz-adv-x="1333" 
d="M948 124q0 60 41 101t103 41t102 -41q41 -41 41 -101t-42 -101t-101 -41t-102 41q-42 41 -42 101zM522 124q0 60 42 101t102 41t103 -41q42 -41 42 -101t-42 -101t-102 -41t-103 41q-42 41 -42 101zM98 124q0 60 41 101t103 41t103 -41q42 -41 42 -101t-42 -101t-102 -41
t-103 41q-42 41 -42 101z" />
    <glyph glyph-name="perthousand" unicode="&#x2030;" horiz-adv-x="1912" 
d="M1204 1436l-1030 -1456l-33 26l1030 1454zM949 590q134 0 203 -82t69 -222t-69 -222t-203 -82t-203 82q-68 82 -68 220q0 140 68 223q69 83 203 83zM948 561q-60 0 -80 -62t-20 -213t19 -213q19 -63 81 -63t80 62q20 62 21 213q0 152 -20 214t-81 62zM394 1460
q134 0 203 -82t69 -222t-69 -222t-203 -82t-203 82t-68 221q0 139 68 222q69 83 203 83zM393 1432q-61 0 -81 -62t-19 -214q0 -151 19 -213q18 -62 80 -62t82 61q19 61 20 213q0 153 -20 215t-81 62zM1862 286q0 -140 -69 -222t-203 -82t-202 82t-69 220q1 140 69 223
t202 83t203 -82t69 -222zM1589 561q-61 0 -81 -62t-19 -213q0 -151 19 -213q18 -63 80 -63t82 62t20 213q0 152 -20 214t-81 62z" />
    <glyph glyph-name="guilsinglleft" unicode="&#x2039;" horiz-adv-x="555" 
d="M59 516l435 436l2 -2l-197 -436l197 -436l-2 -2l-435 436v4z" />
    <glyph glyph-name="guilsinglright" unicode="&#x203a;" horiz-adv-x="555" 
d="M496 512l-435 -436l-2 2l195 436l-195 436l2 2l435 -436v-4z" />
    <glyph glyph-name="fraction" unicode="&#x2044;" horiz-adv-x="98" 
d="M600 1436l-1030 -1456l-33 26l1030 1454z" />
    <glyph glyph-name="Euro" unicode="&#x20ac;" horiz-adv-x="1392" 
d="M975 580h-443q35 -565 381 -566q27 0 61 4t52 33l256 445h4v-482q-174 -35 -385 -34q-315 0 -487 158t-205 442h-146v36h144q-4 61 -4 113t4 84h-144v37h148q35 282 209 446t463 164q211 0 403 -43v-463h-4l-254 432q-12 20 -32 30t-103 9q-326 0 -361 -575h443v-37h-445
q-2 -31 -2 -97t2 -100h445v-36z" />
    <glyph glyph-name="trademark" unicode="&#x2122;" horiz-adv-x="1699" 
d="M459 827q0 -16 10 -24l76 -55v-5h-340v5l78 55q12 8 12 24v578h-82q-18 0 -29 -19l-112 -192h-4l14 246h590l12 -246h-4l-111 192q-12 18 -30 19h-80v-578zM885 877q0 -31 20 -48l92 -81v-5h-260v5l94 81q16 14 17 48v469q0 18 -10 28l-80 62v4h248l190 -445l178 445h244
v-4l-80 -56q-12 -8 -12 -22v-537q0 -12 14 -22l78 -51v-5h-344v5l78 51q12 8 12 22v441q0 45 2 65l-231 -592h-2l-226 518l-22 62v-438z" />
    <glyph glyph-name="Omega" unicode="&#x2126;" horiz-adv-x="1478" 
d="M739 1425q-157 -1 -247 -159t-91 -488q0 -485 273 -579v-199h-590l-16 444h4l223 -374q13 -20 27 -26t49 -5h264v131q-239 41 -399 214q-160 172 -160 444t174 452t489 180t489 -180t175 -452q0 -272 -161 -444q-161 -173 -398 -214v-131h264q37 0 50 4t26 27l223 374h4
l-16 -444h-590v199q272 96 272 579q0 330 -90 488t-248 159z" />
    <glyph glyph-name="estimated" unicode="&#x212e;" horiz-adv-x="1359" 
d="M684 983q-205 0 -347 -128t-151 -335h998q-8 207 -152 335t-348 128zM1227 481h-1041q6 -207 148 -335t350 -128q166 0 295 88t178 238l43 -14q-53 -162 -193 -256t-323 -94q-229 0 -385 143t-156 378t155 377t386 142t387 -142t156 -378v-19z" />
    <glyph glyph-name="uni2153" unicode="&#x2153;" horiz-adv-x="993" 
d="M758 162q0 -70 -75 -120t-211 -50t-236 37l102 198h4l57 -186q5 -14 21 -16t59 -2q43 -1 79 37t36 106q0 129 -168 137v4q150 25 149 154q0 109 -94 108h-37q-14 0 -24 -16l-84 -184h-4l-82 186q115 45 246 45q240 0 239 -143q0 -109 -162 -142v-4q89 -4 137 -42
q48 -37 48 -107zM584 950q0 -16 14 -22l133 -66v-2h-452v2l133 66q14 6 14 22v381q0 14 -14 19l-146 45v4l318 67v-516zM123 702v37h747v-37h-747z" />
    <glyph glyph-name="uni2154" unicode="&#x2154;" horiz-adv-x="993" 
d="M229 860v4q111 98 197 185q150 145 149 251q0 129 -110 130h-25q-18 0 -24 -17l-84 -188h-4l-82 190q122 45 242 45t188 -44t68 -130t-80 -149q-78 -63 -267 -150v-4h215q43 0 60 16l73 70h5l-29 -209h-492zM758 162q0 -70 -75 -120t-211 -50t-236 37l102 198h4l57 -186
q5 -14 21 -16t59 -2q43 -1 79 37t36 106q0 129 -168 137v4q150 25 149 154q0 109 -94 108h-37q-14 0 -24 -16l-84 -184h-4l-82 186q115 45 246 45q240 0 239 -143q0 -109 -162 -142v-4q89 -4 137 -42q48 -37 48 -107zM123 702v37h747v-37h-747z" />
    <glyph glyph-name="uni2155" unicode="&#x2155;" horiz-adv-x="993" 
d="M752 188q0 -197 -275 -196q-145 0 -241 39l102 192h2l57 -178q9 -20 27 -22q18 -3 58 -3t75 41t35 107t-41 103q-41 38 -115 38t-141 -30l-4 2l16 313q154 -6 211 -6q56 0 112 3t77 25l14 17h4l-8 -78q-8 -88 -94 -88h-109q-78 0 -182 6l-10 -158q104 57 207 57t163 -52
t60 -132zM584 950q0 -16 14 -22l133 -66v-2h-452v2l133 66q14 6 14 22v381q0 14 -14 19l-146 45v4l318 67v-516zM123 702v37h747v-37h-747z" />
    <glyph glyph-name="uni2156" unicode="&#x2156;" horiz-adv-x="993" 
d="M229 860v4q111 98 197 185q150 145 149 251q0 129 -110 130h-25q-18 0 -24 -17l-84 -188h-4l-82 190q122 45 242 45t188 -44t68 -130t-80 -149q-78 -63 -267 -150v-4h215q43 0 60 16l73 70h5l-29 -209h-492zM752 188q0 -197 -275 -196q-145 0 -241 39l102 192h2l57 -178
q9 -20 27 -22q18 -3 58 -3t75 41t35 107t-41 103q-41 38 -115 38t-141 -30l-4 2l16 313q100 -6 184 -6q83 0 139 3t77 25l14 17h4l-8 -78q-8 -88 -94 -88h-109q-78 0 -182 6l-10 -158q104 57 207 57t163 -52t60 -132zM123 739h747v-37h-747v37z" />
    <glyph glyph-name="uni2157" unicode="&#x2157;" horiz-adv-x="993" 
d="M758 1022q0 -70 -75 -120t-211 -50t-236 37l102 198h4l57 -186q5 -14 21 -16t59 -2t79 38t36 105q0 129 -168 137v4q150 25 149 154q0 109 -94 109h-37q-14 0 -24 -17l-84 -184h-4l-82 186q115 45 246 45q240 0 239 -143q0 -109 -162 -141v-5q89 -4 137 -42
q48 -37 48 -107zM752 188q0 -197 -275 -196q-145 0 -241 39l102 192h2l57 -178q9 -20 27 -22q18 -3 58 -3t75 41t35 107t-41 103q-41 38 -115 38t-141 -30l-4 2l16 313q104 -6 186 -6q81 0 137 3t77 25l14 17h4l-8 -78q-8 -88 -94 -88h-109q-78 0 -182 6l-10 -158
q104 57 207 57t163 -52t60 -132zM123 702v37h747v-37h-747z" />
    <glyph glyph-name="uni2158" unicode="&#x2158;" horiz-adv-x="993" 
d="M592 168q0 66 -41 103q-41 38 -115 38t-141 -30l-4 2l16 313q123 -6 195 -6t128 3t77 25l14 17h4l-8 -78q-8 -88 -94 -88h-109q-78 0 -182 6l-10 -158q104 57 207 57t163 -51q60 -52 60 -133q0 -197 -275 -196q-145 0 -241 39l102 192h2l57 -178q9 -20 27 -22
q18 -3 58 -3t75 41t35 107zM481 1038v316l-231 -316h231zM631 1452v-414h31q20 0 30 17l96 168h5l-15 -215h-147v-68q0 -12 14 -22l86 -56v-2h-354v2l92 56q12 8 12 22v68h-293v4l324 440h119zM123 702v37h747v-37h-747z" />
    <glyph glyph-name="uni2159" unicode="&#x2159;" horiz-adv-x="993" 
d="M500 326q-49 0 -103 -47q0 -143 24 -201t87 -58q88 0 88 153t-96 153zM559 373q90 0 144 -49q55 -49 55 -134q0 -86 -68 -142t-196 -56t-198 81q-69 81 -69 222t76 223t203 82t229 -29l-71 -168h-5l-92 154q-10 12 -24 12h-25q-72 -1 -96 -65t-25 -203q72 72 162 72z
M584 950q0 -16 14 -22l133 -66v-2h-452v2l133 66q14 6 14 22v381q0 14 -14 19l-146 45v4l318 67v-516zM123 702v37h747v-37h-747z" />
    <glyph glyph-name="uni215A" unicode="&#x215a;" horiz-adv-x="993" 
d="M500 326q-49 0 -103 -47q0 -143 24 -201t87 -58q88 0 88 153t-96 153zM559 373q90 0 144 -49q55 -49 55 -134q0 -86 -68 -142t-196 -56t-198 81q-69 81 -69 222t76 223t203 82t229 -29l-71 -168h-5l-92 154q-10 12 -24 12h-25q-72 -1 -96 -65t-25 -203q72 72 162 72z
M477 852q-145 0 -241 39l102 192h2l57 -178q9 -20 27 -22t43 -2q55 0 90 41t35 106q0 66 -41 104t-115 38t-141 -31l-4 2l16 313q98 -6 183 -6q84 0 140 3t77 26l14 16h4l-8 -78q-8 -88 -94 -88h-109q-78 0 -182 6l-10 -157q104 57 207 57t163 -52t60 -132
q-1 -197 -275 -197zM123 702v37h747v-37h-747z" />
    <glyph glyph-name="uni215B" unicode="&#x215b;" horiz-adv-x="993" 
d="M731 860h-452v2l133 66q14 6 14 22v381q0 14 -14 19l-146 45v4l318 67v-516q0 -16 14 -22l133 -66v-2zM395 479q0 -63 107 -108l51 -21q47 38 47 96t-30 92t-76 34t-72 -30q-27 -28 -27 -63zM369 158q0 -62 37 -100t96 -38t90 27t31 66q-1 67 -93 102l-118 45
q-43 -40 -43 -102zM500 -8q-118 0 -188 43q-71 43 -70 104q0 98 153 127q-127 49 -127 168q0 72 62 119t162 47q102 0 165 -41t64 -96q0 -102 -152 -119l56 -22q133 -53 133 -154q0 -78 -70 -127t-188 -49zM123 702v37h747v-37h-747z" />
    <glyph glyph-name="uni215C" unicode="&#x215c;" horiz-adv-x="993" 
d="M758 1022q0 -70 -75 -120t-211 -50t-236 37l102 198h4l57 -186q5 -14 21 -16t59 -2t79 38t36 105q0 129 -168 137v4q150 25 149 154q0 109 -94 109h-37q-14 0 -24 -17l-84 -184h-4l-82 186q115 45 246 45q240 0 239 -143q0 -109 -162 -141v-5q89 -4 137 -42
q48 -37 48 -107zM395 479q0 -68 107 -108l51 -21q47 38 47 96t-30 92t-76 34t-72 -30q-27 -28 -27 -63zM369 158q0 -62 37 -100t96 -38t90 27t31 66q-1 67 -93 102l-118 45q-43 -40 -43 -102zM500 -8q-118 0 -188 43q-71 43 -70 104q0 98 153 127q-127 49 -127 168
q0 72 62 119t162 47q102 0 165 -41t64 -96q0 -102 -152 -119l56 -22q133 -53 133 -154q0 -78 -70 -127t-188 -49zM870 739v-37h-747v37h747z" />
    <glyph glyph-name="uni215D" unicode="&#x215d;" horiz-adv-x="993" 
d="M752 1049q0 -197 -275 -197q-145 0 -241 39l102 192h2l57 -178q9 -20 27 -22t43 -2q55 0 90 41t35 106q0 66 -41 104t-115 38t-141 -31l-4 2l16 313q115 -6 191 -6t132 3t77 26l14 16h4l-8 -78q-8 -88 -94 -88h-109q-78 0 -182 6l-10 -157q104 57 207 57t163 -52t60 -132
zM395 479q0 -68 107 -108l51 -21q47 38 47 96t-30 92t-76 34t-72 -30q-27 -28 -27 -63zM369 158q0 -62 37 -100t96 -38t90 27t31 66q-1 65 -93 102l-118 45q-43 -40 -43 -102zM500 -8q-118 0 -188 43q-71 43 -70 104q0 98 153 127q-127 49 -127 168q0 72 62 119t162 47
q102 0 165 -41t64 -96q0 -102 -152 -119l56 -22q133 -51 133 -154q0 -78 -70 -127t-188 -49zM123 702v37h747v-37h-747z" />
    <glyph glyph-name="uni215E" unicode="&#x215e;" horiz-adv-x="993" 
d="M373 1339q-35 0 -54 -18l-53 -55h-2l25 186h510l-70 -80q-53 -53 -180 -512h-201q164 283 326 479h-301zM395 479q0 -68 107 -108l51 -21q47 38 47 96t-30 92t-76 34t-72 -30q-27 -28 -27 -63zM369 158q0 -62 37 -100t96 -38t90 27t31 66q-1 65 -93 102l-118 45
q-43 -40 -43 -102zM500 -8q-118 0 -188 43q-71 43 -70 104q0 98 153 127q-127 49 -127 168q0 72 62 119t162 47q102 0 165 -41t64 -96q0 -102 -152 -119l56 -22q133 -51 133 -154q0 -78 -70 -127t-188 -49zM868 739v-37h-745v37h745z" />
    <glyph glyph-name="uni2190" unicode="&#x2190;" horiz-adv-x="1445" 
d="M1333 494h-1151l469 -469l-24 -29l-514 514l514 514l26 -27l-471 -469h1151v-34z" />
    <glyph glyph-name="uni2191" unicode="&#x2191;" horiz-adv-x="1253" 
d="M643 -100h-37v1151l-467 -471l-26 26l514 514l514 -514l-27 -26l-471 471v-1151z" />
    <glyph glyph-name="uni2192" unicode="&#x2192;" horiz-adv-x="1445" 
d="M113 528h1151l-471 469l26 27l514 -514l-514 -514l-24 29l469 469h-1151v34z" />
    <glyph glyph-name="uni2193" unicode="&#x2193;" horiz-adv-x="1253" 
d="M606 1085h37v-1151l471 472l27 -27l-514 -514l-514 514l26 27l467 -472v1151z" />
    <glyph glyph-name="uni2196" unicode="&#x2196;" horiz-adv-x="1103" 
d="M160 211h-37v729h725v-35h-664l815 -813l-28 -26l-811 811v-666z" />
    <glyph glyph-name="uni2197" unicode="&#x2197;" horiz-adv-x="1103" 
d="M981 211h-37v666l-811 -811l-29 26l816 813h-664v35h725v-729z" />
    <glyph glyph-name="uni2198" unicode="&#x2198;" horiz-adv-x="1103" 
d="M944 793h37v-730h-725v35h664l-816 813l29 27l811 -811v666z" />
    <glyph glyph-name="uni2199" unicode="&#x2199;" horiz-adv-x="1103" 
d="M848 98v-35h-725v730h37v-666l811 811l28 -27l-815 -813h664z" />
    <glyph glyph-name="partialdiff" unicode="&#x2202;" horiz-adv-x="1081" 
d="M752 545q0 162 -25 297q-70 88 -172 88q-103 0 -157 -130t-54 -330t50 -326t141 -126q217 1 217 527zM528 -16q-203 0 -337 136t-134 370t122 375t292 141t250 -129q-92 451 -463 579v4q27 0 37 -4q359 -61 543 -301t184 -580q0 -591 -494 -591z" />
    <glyph glyph-name="Delta" unicode="&#x2206;" horiz-adv-x="1357" 
d="M989 39l-409 1171l-461 -1171h870zM408 1440h393l497 -1440h-1237l480 1225q12 33 9 49t-26 41l-116 121v4z" />
    <glyph glyph-name="product" unicode="&#x220f;" horiz-adv-x="1550" 
d="M1335 1280v-1120q0 -29 25 -45l158 -111v-4h-648v4l158 111q23 16 23 45v1241h-551v-1241q0 -29 24 -45l158 -111v-4h-647v4l158 111q23 16 22 45v1120q0 29 -22 45l-158 111v4h1483v-4l-158 -111q-25 -16 -25 -45z" />
    <glyph glyph-name="summation" unicode="&#x2211;" horiz-adv-x="1224" 
d="M813 1401h-375l387 -674l-708 -688h721q47 0 65 27l215 387h4v-453h-1095v4l583 574l-407 714q-16 27 -53 51l-138 93v4h1078l16 -453h-4l-232 379q-18 35 -57 35z" />
    <glyph glyph-name="minus" unicode="&#x2212;" horiz-adv-x="1105" 
d="M102 643v37h902v-37h-902z" />
    <glyph glyph-name="uni2215" unicode="&#x2215;" horiz-adv-x="98" 
d="M600 1436l-1030 -1456l-33 26l1030 1454z" />
    <glyph glyph-name="uni2219" unicode="&#x2219;" horiz-adv-x="481" 
d="M96 869q0 61 42 103t102 42t103 -41q42 -41 42 -103t-42 -102q-42 -41 -102 -41t-103 41q-42 41 -42 101z" />
    <glyph glyph-name="radical" unicode="&#x221a;" horiz-adv-x="1105" 
d="M991 1536l-538 -1536h-4l-324 909l37 15l289 -813l503 1435z" />
    <glyph glyph-name="infinity" unicode="&#x221e;" horiz-adv-x="1566" 
d="M143 666q0 -100 65 -176t162 -76t154 43q58 43 80 61t78 74q55 56 74 74q-123 123 -149 144t-82 63t-154 44q-98 1 -163 -75t-65 -176zM1359 842q-65 76 -162 76t-171 -55q-43 -32 -67 -51q-25 -20 -77 -74t-73 -72q19 -18 73 -72q68 -69 143 -125q74 -55 171 -55
q98 0 163 76t65 176t-65 176zM104 666q0 112 77 200t186 88t187 -58q46 -34 71 -54t81 -76l76 -76q118 118 150 146t79 60q79 58 187 58q110 0 186 -88t76 -200t-77 -201q-77 -88 -185 -88t-192 62q-83 62 -224 202q-20 -19 -76 -75q-71 -72 -151 -130q-80 -59 -188 -59
q-109 0 -186 88t-77 201z" />
    <glyph glyph-name="integral" unicode="&#x222b;" horiz-adv-x="901" 
d="M307 1042q0 418 341 418q163 0 306 -49l-114 -276h-4l-121 266q-9 18 -15 22t-28 4q-57 0 -82 -51t-25 -162v-1210q0 -254 -88 -371t-264 -116q-143 0 -295 49l115 276h4l119 -264q14 -33 48 -33q34 1 56 15q46 30 47 196v1286z" />
    <glyph glyph-name="approxequal" unicode="&#x2248;" horiz-adv-x="1105" 
d="M784 391q-94 0 -238 68t-227 67q-123 0 -196 -118l-33 18q82 137 229 137q95 1 239 -67t226 -68q127 0 201 121l31 -21q-82 -137 -232 -137zM784 756q-94 0 -238 68t-227 67q-123 0 -196 -119l-33 19q82 137 229 137q95 0 239 -68t226 -67q127 0 201 120l31 -20
q-82 -137 -232 -137z" />
    <glyph glyph-name="notequal" unicode="&#x2260;" horiz-adv-x="1105" 
d="M102 827v37h539l117 209l35 -18l-107 -191h318v-37h-338l-183 -329h521v-37h-541l-121 -217l-35 18l111 199h-316v37h336l183 329h-519z" />
    <glyph glyph-name="lessequal" unicode="&#x2264;" horiz-adv-x="1105" 
d="M145 766l795 262l12 -37l-702 -227l702 -227l-12 -37l-795 262v4zM102 213v37h902v-37h-902z" />
    <glyph glyph-name="greaterequal" unicode="&#x2265;" horiz-adv-x="1105" 
d="M166 1028l795 -262v-4l-795 -262l-12 37l702 227l-702 227zM1004 250v-37h-902v37h902z" />
    <glyph glyph-name="lozenge" unicode="&#x25ca;" horiz-adv-x="1105" 
d="M553 1413l-406 -749l406 -750l405 750zM555 -166h-4l-449 830l449 829h4l449 -829z" />
    <glyph glyph-name="commaaccent" unicode="&#xf6c3;" horiz-adv-x="450" 
d="M203 -322q-43 0 -71 34t-28 83t34 84t87 35t88 -39t35 -119t-68 -164q-69 -81 -169 -108l-2 4q106 68 112 170q0 20 -18 20z" />
    <glyph glyph-name="apple" unicode="&#xf8ff;" horiz-adv-x="2568" 
d="M1364 698q-31 0 -164 7q-111 1 -171 -49t-110 -162t-127 -176q-77 -65 -208 -64l-170 8q-117 0 -190 -62t-72 -155q0 -33 2 -45h-39q-2 14 -2 45q0 111 85 183t218 73l170 -8q209 0 302 225t312 225l164 -6q106 0 170 51t114 161t126 173t206 64l170 -8q117 0 192 64
t75 153q0 33 -2 45h39q2 -14 2 -45q0 -109 -87 -183t-221 -73l-170 8q-112 0 -182 -55t-117 -164q-98 -230 -315 -230z" />
    <glyph glyph-name="Iacute_Jacute" horiz-adv-x="1372" 
d="M901 82v1198q0 29 -24 45l-158 111v4h647v-4l-158 -111q-25 -18 -24 -45v-1141q0 -254 -144 -401t-395 -170l-2 4q258 129 258 510zM1364 1874v-4l-453 -334l-4 4l174 334h283zM684 1874v-4l-453 -334l-4 4l174 334h283zM500 1280v-1120q0 -29 24 -45l158 -111v-4h-647v4
l158 111q23 16 22 45v1120q0 29 -22 45l-158 111v4h647v-4l-158 -111q-24 -18 -24 -45z" />
    <glyph glyph-name="Jacute" horiz-adv-x="655" 
d="M186 82v1198q0 29 -24 45l-158 111v4h647v-4l-157 -111q-25 -18 -25 -45v-1141q0 -254 -143 -401t-396 -170l-2 4q258 129 258 510zM649 1874v-4l-452 -334l-4 4l174 334h282z" />
    <glyph glyph-name="caronslovak" horiz-adv-x="497" 
d="M168 1044l18 396h209l-223 -396h-4z" />
    <glyph glyph-name="commatop" horiz-adv-x="481" 
d="M236 1124q-53 0 -90 39q-36 39 -36 120t69 163q69 81 169 108l2 -4q-98 -63 -110 -170q-2 -16 18 -20q45 -6 72 -37q26 -31 26 -80t-34 -84t-86 -35z" />
    <glyph glyph-name="jacute" horiz-adv-x="559" 
d="M600 1440v-4l-453 -334l-4 4l174 334h283zM-10 -449q-39 0 -60 5v4q121 16 182 115q60 99 60 302v873q0 29 -20 47l-121 102v5h399v-947q0 -229 -112 -367t-328 -139z" />
    <glyph glyph-name="smiley" horiz-adv-x="1675" 
d="M672 1262q28 0 40 -114t11 -263t-19 -208t-32 -59q-53 0 -53 322t53 322zM952 888q0 374 52 374t53 -322q0 -322 -53 -322q-14 0 -33 62t-19 208zM343 600q91 0 112 62h4q2 -86 -70 -101q14 -156 135 -258q120 -102 312 -102t311 101t137 257q-76 14 -70 103h5
q23 -62 88 -62t92 33l4 -2q-20 -78 -86 -74q-13 -170 -145 -281q-132 -110 -334 -110t-335 110q-132 110 -147 281q-66 -4 -86 74l4 2q27 -33 69 -33zM139 719q-1 -301 191 -503t506 -202t506 202q194 202 194 509t-197 504t-495 197t-502 -204q-203 -202 -203 -503z
M846 1460q314 0 520 -206t207 -528q0 -322 -204 -534q-203 -212 -533 -212t-532 212t-202 526q0 316 214 529q216 213 530 213z" />
    <glyph glyph-name="backslash.case" horiz-adv-x="778" 
d="M674 -193l-608 1813l36 12l611 -1812z" />
    <glyph glyph-name="bar.case" horiz-adv-x="448" 
d="M244 -381h-39v2048h39v-2048z" />
    <glyph glyph-name="braceleft.case" horiz-adv-x="720" 
d="M567 -184q-151 0 -263 99t-95 267l35 359q6 63 -42 109t-130 55v4q84 10 131 55t41 108l-35 359q-16 168 96 267q113 99 262 99q63 0 133 -16v-4q-156 8 -228 -88t-60 -209l32 -354q8 -82 -43 -140t-133 -77v-4q82 -18 133 -78t43 -140l-32 -356q-10 -113 62 -208
t226 -87v-4q-70 -16 -133 -16z" />
    <glyph glyph-name="braceright.case" horiz-adv-x="720" 
d="M154 1597q150 0 262 -99t96 -267l-35 -359q-6 -63 41 -108t131 -55v-4q-82 -9 -130 -55t-42 -109l35 -359q16 -168 -96 -267t-262 -99q-63 0 -134 16v4q156 -8 228 87q71 95 61 208l-33 356q-8 79 43 139t134 79v4q-82 18 -134 76q-51 58 -43 141l33 354q10 113 -61 209
q-72 96 -228 88v4q70 16 134 16z" />
    <glyph glyph-name="bracketleft.case" horiz-adv-x="718" 
d="M352 1427v-1443q0 -31 25 -39l321 -97v-4l-534 -28v1779l534 -28v-4l-321 -97q-25 -6 -25 -39z" />
    <glyph glyph-name="bracketright.case" horiz-adv-x="718" 
d="M367 -16v1443q0 31 -25 39l-322 97v4l535 28v-1779l-535 28v4l322 97q25 8 25 39z" />
    <glyph glyph-name="emdash.case" horiz-adv-x="2048" 
d="M2038 686h-2028v37h2028v-37z" />
    <glyph glyph-name="endash.case" horiz-adv-x="1024" 
d="M1014 686h-1004v37h1004v-37z" />
    <glyph glyph-name="exclamdown.case" horiz-adv-x="540" 
d="M269 1456q61 0 103 -40t42 -101t-42 -103t-102 -41t-103 43q-42 42 -42 102t42 100t102 40zM88 0l176 997h4l185 -997h-365z" />
    <glyph glyph-name="guillemotleft.case" horiz-adv-x="917" 
d="M856 260l-434 436v4l434 437l2 -2l-194 -437l194 -436zM494 260l-435 436v4l435 437l2 -2l-195 -437l195 -436z" />
    <glyph glyph-name="guillemotright.case" horiz-adv-x="917" 
d="M858 696l-434 -436l-2 2l194 436l-194 437l2 2l434 -437v-4zM496 696l-435 -436l-2 2l195 436l-195 437l2 2l435 -437v-4z" />
    <glyph glyph-name="guilsinglleft.case" horiz-adv-x="555" 
d="M59 700l435 437l2 -2l-197 -437l197 -436l-2 -2l-435 436v4z" />
    <glyph glyph-name="guilsinglright.case" horiz-adv-x="555" 
d="M496 696l-435 -436l-2 2l195 436l-195 437l2 2l435 -437v-4z" />
    <glyph glyph-name="hyphen.case" horiz-adv-x="718" 
d="M94 686v39h533v-39h-533z" />
    <glyph glyph-name="parenleft.case" horiz-adv-x="671" 
d="M111 705q0 512 299 774q100 92 237 139l4 -4q-102 -86 -166 -205q-155 -283 -155 -705t155 -704q63 -119 166 -205l-4 -4q-137 47 -237 139q-299 263 -299 775z" />
    <glyph glyph-name="parenright.case" horiz-adv-x="671" 
d="M563 705q0 -510 -301 -775q-100 -92 -237 -139l-5 4q100 84 168 205q154 285 154 705t-154 704q-68 121 -168 205l5 4q137 -47 237 -139q301 -264 301 -774z" />
    <glyph glyph-name="questiondown.case" horiz-adv-x="944" 
d="M527 1460q61 0 103 -40t42 -100t-42 -102t-102 -42t-103 41q-42 41 -42 102t42 101t102 40zM651 805q1 -89 -105 -197t-136 -145q-98 -111 -98 -216t58 -165q60 -60 144 -62q84 0 96 10t21 29l153 363h4l132 -334q-214 -104 -428 -104t-330 84t-115 234q0 150 154 278
l198 170q106 86 107 194q0 14 -4 47l2 2q147 -61 147 -188z" />
    <glyph glyph-name="slash.case" horiz-adv-x="778" 
d="M713 1620l-609 -1813l-38 13l610 1812z" />
    <glyph glyph-name="braceleft.salt" horiz-adv-x="501" 
d="M125 1268q0 219 248 219q53 0 108 -12l-6 -35q-55 12 -106 12q-205 0 -205 -182q0 -49 22 -123l90 -318q14 -49 15 -79q0 -127 -125 -150v-2q125 -22 125 -149q0 -31 -15 -80l-90 -318q-20 -68 -20 -123q0 -180 203 -180q51 0 106 12l6 -34q-63 -14 -108 -15
q-113 1 -181 55t-67 164q0 49 25 133l90 306q14 47 14 80q0 133 -182 133v36q182 0 182 132q0 33 -14 79l-90 306q-25 84 -25 133z" />
    <glyph glyph-name="braceright.salt" horiz-adv-x="501" 
d="M211 449q0 127 125 149v2q-125 23 -125 150q0 29 14 79l90 318q23 74 23 123q0 182 -205 182q-51 0 -106 -12l-7 35q55 12 109 12q115 0 181 -53t67 -166q0 -49 -25 -133l-90 -306q-14 -47 -14 -79q0 -131 182 -132v-36q-182 0 -182 -133q0 -33 14 -80l90 -306
q25 -84 25 -133q0 -110 -68 -164t-180 -55q-43 0 -109 15l7 34q55 -12 106 -12q203 0 203 180q0 55 -21 123l-90 318q-14 49 -14 80z" />
    <glyph glyph-name="bracketleft.salt" horiz-adv-x="526" 
d="M506 -246v-37h-342v1760h342v-37h-303v-1686h303z" />
    <glyph glyph-name="bracketright.salt" horiz-adv-x="526" 
d="M20 -283v37h304v1686h-304v37h342v-1760h-342z" />
    <glyph glyph-name="guillemotleft.salt" horiz-adv-x="876" 
d="M387 516l401 436l29 -26l-379 -410l379 -412l-29 -24zM59 516l402 436l28 -26l-378 -410l378 -412l-28 -24z" />
    <glyph glyph-name="guillemotright.salt" horiz-adv-x="876" 
d="M487 516l-401 -436l-29 26l379 410l-379 412l29 24zM815 516l-401 -436l-29 26l379 410l-379 412l29 24z" />
    <glyph glyph-name="guilsinglleft.salt" horiz-adv-x="548" 
d="M59 516l402 436l28 -26l-378 -410l378 -412l-28 -24z" />
    <glyph glyph-name="guilsinglright.salt" horiz-adv-x="548" 
d="M86 952l401 -436l-401 -436l-29 24l379 412l-379 410z" />
    <glyph glyph-name="parenleft.salt" horiz-adv-x="565" 
d="M111 596q0 264 107 517q108 253 308 394l19 -28q-189 -139 -293 -382t-104 -501t102 -501q104 -243 295 -382l-19 -28q-201 141 -308 394t-107 517z" />
    <glyph glyph-name="parenright.salt" horiz-adv-x="565" 
d="M455 596q0 -264 -108 -517t-308 -394l-19 28q190 139 294 382q103 243 104 501q0 258 -104 501q-103 243 -294 382l19 28q201 -141 309 -394t107 -517z" />
    <glyph glyph-name="braceleft.salt.case" horiz-adv-x="501" 
d="M125 1374q0 219 248 219q53 0 108 -12l-6 -35q-55 12 -106 13q-205 0 -205 -183q0 -49 22 -123l90 -317q14 -51 15 -80q0 -127 -125 -149v-2q125 -23 125 -150q0 -31 -15 -80l-90 -317q-20 -68 -20 -123q0 -180 203 -180q51 0 106 12l6 -35q-51 -14 -108 -14
q-113 0 -181 54t-67 165q0 49 25 133l90 305q14 47 14 80q0 133 -182 133v37q182 0 182 131q0 33 -14 80l-90 305q-25 84 -25 133z" />
    <glyph glyph-name="braceright.salt.case" horiz-adv-x="501" 
d="M430 725v-37q-182 0 -182 -133q0 -33 14 -80l90 -305q25 -84 25 -133q0 -111 -68 -165t-180 -54q-57 0 -109 14l7 35q55 -12 106 -12q203 0 203 180q0 55 -21 123l-90 317q-14 49 -14 80q0 127 125 150v2q-125 23 -125 149q0 29 14 80l90 317q23 74 23 123
q0 182 -205 183q-51 0 -106 -13l-7 35q55 12 109 12q115 0 181 -53t67 -166q0 -49 -25 -133l-90 -305q-14 -47 -14 -80q0 -131 182 -131z" />
    <glyph glyph-name="bracketleft.salt.case" horiz-adv-x="526" 
d="M506 -141v-37h-342v1759h342v-37h-303v-1685h303z" />
    <glyph glyph-name="bracketright.salt.case" horiz-adv-x="526" 
d="M20 -178v37h304v1685h-304v37h342v-1759h-342z" />
    <glyph glyph-name="guillemotleft.salt.case" horiz-adv-x="876" 
d="M387 700l401 437l29 -27l-379 -410l379 -411l-29 -25zM59 700l402 437l28 -27l-378 -410l378 -411l-28 -25z" />
    <glyph glyph-name="guillemotright.salt.case" horiz-adv-x="876" 
d="M487 700l-401 -436l-29 27l379 409l-379 412l29 25zM815 700l-401 -436l-29 27l379 409l-379 412l29 25z" />
    <glyph glyph-name="guilsinglleft.salt.case" horiz-adv-x="548" 
d="M59 700l402 437l28 -27l-378 -410l378 -411l-28 -25z" />
    <glyph glyph-name="guilsinglright.salt.case" horiz-adv-x="548" 
d="M86 1137l401 -437l-401 -436l-29 25l379 411l-379 410z" />
    <glyph glyph-name="parenleft.salt.case" horiz-adv-x="565" 
d="M111 702q-1 264 107 518t308 394l19 -29q-189 -139 -293 -382t-104 -501t102 -500q104 -242 295 -382l-19 -29q-201 141 -308 394t-107 517z" />
    <glyph glyph-name="parenright.salt.case" horiz-adv-x="565" 
d="M455 702q0 -264 -108 -517t-308 -394l-19 29q190 139 294 382q104 242 104 500t-104 501q-103 243 -294 382l19 29q201 -140 309 -394t107 -518z" />
    <glyph glyph-name="eight.subs" 
d="M201 479q0 -68 106 -108l51 -21q48 38 48 96t-30 92t-76 34t-73 -29q-26 -29 -26 -64zM174 158q0 -62 37 -100t96 -38t90 27t31 66q0 67 -92 102l-119 45q-43 -40 -43 -102zM563 168q1 -78 -69 -127t-188 -49t-188 43q-71 43 -71 104q0 98 154 127q-127 49 -127 168
q0 72 61 119t163 47t164 -41q64 -41 64 -96q0 -102 -151 -119l55 -22q133 -51 133 -154z" />
    <glyph glyph-name="five.subs" 
d="M553 188q0 -197 -274 -196q-143 0 -242 39l102 192h2l58 -178q8 -20 26 -22q18 -3 58 -3t75 41t35 107t-41 103q-41 38 -115 38t-141 -30l-4 2l17 313q215 -6 241 -6q132 0 158 28l14 17h4l-8 -78q-8 -88 -94 -88h-109q-78 0 -182 6l-10 -158q103 57 207 57t164 -51
q60 -52 59 -133z" />
    <glyph glyph-name="four.subs" 
d="M289 178v316l-232 -316h232zM438 80q0 -12 15 -23l86 -55v-2h-355v2l92 55q12 8 13 23v67h-293v5l323 440h119v-414h31q20 0 31 17l96 167h4l-14 -215h-148v-67z" />
    <glyph glyph-name="nine.subs" 
d="M297 266q51 0 102 43q-2 145 -24 203q-23 57 -84 57q-90 1 -90 -151t96 -152zM238 219q-86 0 -142 49q-55 49 -55 134q0 86 67 142t183 56q279 0 278 -305q-1 -139 -75 -221t-200 -82t-231 26l72 170h4l92 -153q10 -14 29 -15h19q73 0 97 65t23 204q-75 -70 -161 -70z
" />
    <glyph glyph-name="one.subs" horiz-adv-x="516" 
d="M352 90q0 -16 15 -22l133 -66v-2h-453v2l133 66q14 6 15 22v381q0 14 -15 18l-145 46v4l317 67v-516z" />
    <glyph glyph-name="parenleft.subs" horiz-adv-x="393" 
d="M219 300q0 -278 154 -425l-2 -4q-154 53 -232 164t-78 263t78 264q78 110 232 163l2 -2q-154 -145 -154 -423z" />
    <glyph glyph-name="parenright.subs" horiz-adv-x="393" 
d="M174 300q0 278 -154 423l3 2q153 -53 231 -164t78 -263t-78 -264q-78 -110 -231 -163l-3 4q154 147 154 425z" />
    <glyph glyph-name="seven.subs" 
d="M156 479q-35 0 -54 -18l-53 -55h-2l25 186h510l-70 -78q-52 -52 -180 -514h-201q164 283 326 479h-301z" />
    <glyph glyph-name="six.subs" 
d="M307 326q-49 0 -102 -47q0 -143 23 -201q24 -57 87 -58q88 0 88 153t-96 153zM367 373q90 0 144 -49t54 -134t-67 -142q-68 -56 -197 -56t-198 81t-68 222q0 141 76 223t203 82t229 -29l-72 -168h-4l-92 154q-10 12 -25 12h-24q-72 -1 -97 -65t-24 -203q72 72 162 72z
" />
    <glyph glyph-name="three.subs" 
d="M559 162q0 -70 -75 -120t-210 -50t-237 37l102 198h4l58 -186q6 -14 20 -16t58 -2q44 -1 80 37t36 106q0 129 -168 137v4q150 25 150 154q0 109 -94 108h-37q-18 0 -25 -16l-84 -184h-4l-82 186q115 45 246 45q240 0 240 -143q0 -109 -162 -142v-4q88 -4 136 -42
q48 -37 48 -107z" />
    <glyph glyph-name="two.subs" 
d="M29 0v4q111 98 196 184q150 145 150 252q0 129 -111 129h-24q-18 0 -25 -16l-84 -188h-4l-82 190q121 45 242 45t189 -44t67 -130q0 -86 -79 -150t-267 -149v-4h215q43 0 59 16l74 70h4l-29 -209h-491z" />
    <glyph glyph-name="zero.subs" 
d="M302 600q134 0 203 -82t69 -222t-70 -222q-68 -82 -202 -82t-203 82t-68 221q0 139 68 222q69 83 203 83zM301 571q-61 0 -81 -62t-19 -213q0 -151 19 -213q18 -63 80 -63t82 62t19 213q0 152 -19 214q-20 62 -81 62z" />
    <glyph glyph-name="eight.sups" 
d="M201 1339q0 -68 106 -108l51 -21q48 38 48 96t-30 92t-76 34t-72 -29t-27 -64zM174 1019q0 -62 37 -100t96 -38q59 1 90 27t31 65q0 67 -92 102l-119 45q-43 -39 -43 -101zM563 1028q1 -78 -69 -127t-188 -49t-188 43q-71 43 -71 104q0 98 154 127q-127 49 -127 168
q0 72 61 119t163 47t164 -41q64 -41 64 -96q0 -102 -151 -119l55 -22q133 -51 133 -154z" />
    <glyph glyph-name="five.sups" 
d="M330 1233q104 0 164 -52t59 -132q0 -197 -274 -197q-143 0 -242 39l102 192h2l58 -178q8 -20 26 -22t43 -2q55 0 90 41t35 106q0 66 -41 104t-115 38t-141 -31l-4 2l17 313q215 -6 241 -6q132 0 158 29l14 16h4l-8 -78q-8 -88 -94 -88h-109q-78 0 -182 6l-10 -157
q103 57 207 57z" />
    <glyph glyph-name="four.sups" 
d="M287 1038v316l-232 -316h232zM436 940q0 -12 15 -22l86 -56v-2h-355v2l92 56q12 8 13 22v68h-293v4l323 440h119v-414h31q20 0 31 17l96 168h4l-14 -215h-148v-68z" />
    <glyph glyph-name="nine.sups" 
d="M297 1126q51 0 102 43q-2 145 -24 203q-23 57 -84 58q-90 0 -90 -152t96 -152zM238 1079q-86 0 -142 49q-55 48 -55 134t67 142t183 56q279 0 278 -305q-1 -139 -75 -221t-200 -82t-231 27l72 170h4l92 -154q10 -14 29 -14h19q73 1 97 65t23 203q-75 -70 -161 -70z" />
    <glyph glyph-name="one.sups" horiz-adv-x="516" 
d="M352 950q0 -16 15 -22l133 -66v-2h-453v2l133 66q14 6 15 22v381q0 14 -15 19l-145 45v4l317 67v-516z" />
    <glyph glyph-name="parenleft.sups" horiz-adv-x="393" 
d="M219 1146q0 -278 154 -425l-2 -4q-154 53 -232 164t-78 263t78 264q78 110 232 163l2 -2q-154 -145 -154 -423z" />
    <glyph glyph-name="parenright.sups" horiz-adv-x="393" 
d="M174 1146q0 278 -154 423l3 2q153 -53 231 -164t78 -263t-78 -264q-78 -110 -231 -163l-3 4q154 147 154 425z" />
    <glyph glyph-name="seven.sups" 
d="M156 1339q-35 0 -54 -18l-53 -55h-2l25 186h510l-70 -78q-52 -52 -180 -514h-201q164 283 326 479h-301z" />
    <glyph glyph-name="six.sups" 
d="M305 1186q-49 0 -102 -47q0 -143 23 -201q24 -57 87 -57q88 1 88 153t-96 152zM365 1233q90 0 144 -49t54 -134t-67 -142q-68 -56 -197 -56t-198 81t-68 222q0 141 76 223t203 82t229 -28l-72 -168h-4l-92 153q-10 12 -25 13h-24q-72 0 -97 -65t-24 -204q72 72 162 72z
" />
    <glyph glyph-name="three.sups" 
d="M559 1022q0 -70 -75 -120t-210 -50t-237 37l102 198h4l58 -186q6 -14 20 -16t58 -2t80 38t36 105q0 129 -168 137v4q150 25 150 154q0 109 -94 109h-37q-18 0 -25 -17l-84 -184h-4l-82 186q115 45 246 45q240 0 240 -143q0 -109 -162 -141v-5q88 -4 136 -42
q48 -37 48 -107z" />
    <glyph glyph-name="two.sups" 
d="M29 860v4q111 98 196 185q150 145 150 251q0 129 -111 130h-24q-18 0 -25 -17l-84 -188h-4l-82 190q121 45 242 45t189 -44t67 -130q0 -86 -79 -149t-267 -150v-4h215q43 0 59 16l74 70h4l-29 -209h-491z" />
    <glyph glyph-name="zero.sups" 
d="M302 1460q134 0 203 -82t69 -222t-70 -222q-68 -82 -202 -82t-203 82t-68 221q0 139 68 222q69 83 203 83zM301 1432q-61 0 -81 -62t-19 -214q0 -151 19 -213q18 -62 80 -62t82 61q19 61 19 213q1 153 -19 215t-81 62z" />
    <glyph glyph-name="i.trk" horiz-adv-x="606" 
d="M588 0h-543v4l121 88q20 16 20 45v713q0 31 -20 47l-121 102v5h399v-867q0 -27 23 -45l121 -88v-4zM305 1139q-59 0 -100 39t-41 98t41 99t101 40t102 -40t41 -99t-43 -98t-101 -39z" />
    </font>
</defs>
</svg>
