<?xml version="1.0" standalone="no"?>
<!DOCTYPE svg PUBLIC "-//W3C//DTD SVG 1.1//EN" "http://www.w3.org/Graphics/SVG/1.1/DTD/svg11.dtd" >
<svg xmlns="http://www.w3.org/2000/svg" xmlns:xlink="http://www.w3.org/1999/xlink" version="1.1">
<metadata>
Created by FontForge 20170731 at Fri Oct  7 20:19:27 2016
 By Aleksey,,,
(C) 2016 Sharp Type Corporation
</metadata>
<defs>
<font id="SharpGroteskMedium25" horiz-adv-x="1159" >
  <font-face 
    font-family="Sharp Grotesk Medium 25"
    font-weight="500"
    font-stretch="ultra-expanded"
    units-per-em="1000"
    panose-1="2 11 6 7 5 7 2 3 2 4"
    ascent="800"
    descent="-200"
    x-height="574"
    cap-height="713"
    bbox="-153 -356 2114 1270"
    underline-thickness="50"
    underline-position="-175"
    unicode-range="U+0020-3009"
  />
<missing-glyph horiz-adv-x="254" 
 />
    <glyph glyph-name=".notdef" horiz-adv-x="254" 
 />
    <glyph glyph-name=".null" horiz-adv-x="0" 
 />
    <glyph glyph-name="nonmarkingreturn" horiz-adv-x="333" 
 />
    <glyph glyph-name="space" unicode=" " horiz-adv-x="254" 
 />
    <glyph glyph-name="exclam" unicode="!" horiz-adv-x="393" 
d="M94 713h200v-95q0 -114 -15 -217.5t-27 -136.5q-28 4 -58 4q-36 0 -58 -4q-12 30 -27 134t-15 220v95zM191 -17q-62 0 -88 23.5t-26 81.5q0 55 28.5 79.5t85.5 24.5t85 -24.5t28 -79.5q0 -105 -113 -105z" />
    <glyph glyph-name="quotedbl" unicode="&#x22;" horiz-adv-x="526" 
d="M76 448q-9 12 -17 86t-8 161v18h167v-18q0 -84 -8.5 -159t-16.5 -88h-117zM333 448q-9 12 -17 86t-8 161v18h167v-18q0 -84 -8.5 -159t-16.5 -88h-117z" />
    <glyph glyph-name="numbersign" unicode="#" horiz-adv-x="1117" 
d="M643 255l43 198h-220l-43 -198h220zM587 0l25 114h-220l-25 -114h-168l25 114h-188v141h219l43 198h-212v141h243l26 119h168l-26 -119h220l26 119h163l-26 -119h200v-141h-231l-43 -198h226v-141h-256l-25 -114h-164z" />
    <glyph glyph-name="dollar" unicode="$" horiz-adv-x="840" 
d="M502 -133h-163v117q-152 14 -229 78.5t-101 190.5h182q17 -71 80 -100t176 -29q98 0 144 20.5t46 64.5q0 42 -39 57q-38 15 -207 24l-1 1h-1h-1h-1h-1h-1h-1h-1h-1h-1h-1h-1h-1h-1h-1h-1h-1h-1l-1 1h-1h-1h-1h-1h-1h-1h-2h-1q-170 10 -245 57t-75 156q0 93 75.5 154
t220.5 70v126h160v-130q129 -16 203 -75t98 -168h-176q-16 65 -73 87.5t-163 22.5q-175 0 -175 -82q0 -27 15 -41t64 -23.5t149 -13.5q195 -9 279.5 -56.5t85.5 -154.5q2 -101 -75.5 -165t-228.5 -75v-114z" />
    <glyph glyph-name="percent" unicode="%" horiz-adv-x="916" 
d="M209 376q-95 0 -143 45t-48 126q0 76 53.5 125t142.5 49q86 0 138 -48t52 -126q0 -79 -51 -125t-144 -46zM1 0l711 713h198l-701 -713h-208zM209 480q34 0 54 17t20 50q0 65 -73 65q-72 0 -72 -65q0 -67 71 -67zM697 -10q-95 0 -143 45t-48 126q0 76 53.5 125t142.5 49
q86 0 138 -48t52 -126q0 -79 -51 -125t-144 -46zM697 94q34 0 54 17t20 50q0 65 -73 65q-72 0 -72 -65q0 -67 71 -67z" />
    <glyph glyph-name="ampersand" unicode="&#x26;" horiz-adv-x="1015" 
d="M396 501q0 -36 9 -69q112 14 151.5 39t39.5 70q0 32 -23 50t-64 18q-53 0 -83 -30t-30 -78zM297 110q77 0 164 29q-30 28 -47 45q-57 57 -95 123q-93 -14 -129 -40.5t-38 -70.5q0 -86 145 -86zM841 -16q-86 0 -148 15t-124 55q-150 -72 -281 -72q-134 0 -210.5 51
t-76.5 145q0 97 64 154.5t208 80.5q-11 41 -11 78q0 109 72 173t182 64q98 0 156 -53.5t58 -134.5q0 -85 -61.5 -134.5t-207.5 -76.5q21 -28 55 -62q35 -35 73 -65q90 57 161.5 139.5t108.5 174.5h157q-100 -231 -309 -381q61 -21 127 -21q97 0 156 61v-146
q-47 -45 -149 -45z" />
    <glyph glyph-name="quotesingle" unicode="'" horiz-adv-x="269" 
d="M76 448q-9 13 -17 86.5t-8 160.5v18h167v-18q0 -84 -8.5 -159t-16.5 -88h-117z" />
    <glyph glyph-name="parenleft" unicode="(" horiz-adv-x="519" 
d="M488 -193q-83 6 -143.5 20t-117 46.5t-91.5 84t-55.5 134t-20.5 194.5q0 249 107.5 362t320.5 127v-156q-93 -10 -145 -41.5t-78.5 -102t-26.5 -193.5q0 -116 27.5 -182t79 -93.5t143.5 -35.5v-164z" />
    <glyph glyph-name="parenright" unicode=")" horiz-adv-x="519" 
d="M31 -193v163q69 6 113 22t76.5 50.5t46.5 92.5t14 147q0 123 -26.5 193.5t-78.5 102t-145 41.5v156q213 -14 320.5 -127t107.5 -362q0 -112 -20.5 -194.5t-55.5 -134t-91.5 -84t-117 -46.5t-143.5 -20z" />
    <glyph glyph-name="asterisk" unicode="*" horiz-adv-x="573" 
d="M459 375l-144 127l38 -189h-132l38 189l-144 -127l-65 113l181 62l-181 60l65 113l144 -125l-38 188h132l-39 -189l144 127l67 -113l-184 -61l184 -62z" />
    <glyph glyph-name="plus" unicode="+" horiz-adv-x="652" 
d="M618 288h-217v-207h-147v207h-213v150h213v205h147v-205h217v-150z" />
    <glyph glyph-name="comma" unicode="," horiz-adv-x="369" 
d="M97 -187l-3 87q96 13 107 96q-20 -4 -33 -4q-53 0 -73.5 18t-20.5 72q0 52 26.5 74t86.5 22t85.5 -31t25.5 -102q0 -98 -51 -160t-150 -72z" />
    <glyph glyph-name="hyphen" unicode="-" horiz-adv-x="691" 
d="M629 407v-169h-568v169h568z" />
    <glyph glyph-name="period" unicode="." horiz-adv-x="367" 
d="M182 -15q-62 0 -88 23.5t-26 80.5q0 55 28.5 79.5t85.5 24.5t85 -24.5t28 -79.5q0 -104 -113 -104z" />
    <glyph glyph-name="slash" unicode="/" horiz-adv-x="442" 
d="M190 0h-193l255 713h194z" />
    <glyph glyph-name="zero" unicode="0" horiz-adv-x="943" 
d="M471 -20q-200 0 -313 91.5t-113 277.5v5q0 176 118 276.5t307 100.5q190 0 309 -99.5t119 -276.5v-7q0 -180 -116 -274t-311 -94zM470 132q125 0 190 50.5t65 166.5v1q0 121 -65.5 175.5t-188.5 54.5q-253 0 -253 -229v-1q0 -110 65.5 -164t186.5 -54z" />
    <glyph glyph-name="one" unicode="1" horiz-adv-x="645" 
d="M608 0h-564v161h205v293h-130v131q80 4 116.5 35t45.5 93h139v-552h188v-161z" />
    <glyph glyph-name="two" unicode="2" horiz-adv-x="861" 
d="M806 0h-757v115q0 46 11.5 82t36.5 62t53.5 44.5t73 32.5t83.5 23t97 19q134 24 188.5 46.5t54.5 69.5q0 48 -43.5 71.5t-139.5 23.5q-232 0 -232 -157h-172q0 143 102 221t305 78q183 0 266.5 -63.5t83.5 -173.5q0 -100 -77.5 -149.5t-260.5 -84.5q-143 -27 -192.5 -47
t-52.5 -61h572v-152z" />
    <glyph glyph-name="three" unicode="3" horiz-adv-x="851" 
d="M416 -19q-212 0 -299.5 67.5t-87.5 215.5h173q0 -76 50.5 -107t167.5 -31q114 0 164.5 22.5t50.5 66.5q0 47 -41 65.5t-145 18.5h-125v128h120q99 0 139.5 15.5t40.5 55.5q0 91 -193 91q-117 0 -171.5 -33t-55.5 -100h-169q0 137 104 206t293 69q169 0 269 -55t100 -156
q0 -70 -42.5 -104.5t-121.5 -45.5q90 -12 134.5 -50t44.5 -115q0 -110 -104 -167t-296 -57z" />
    <glyph glyph-name="four" unicode="4" horiz-adv-x="850" 
d="M840 162h-145v-162h-174v162h-513v114l540 437h147v-413h145v-138zM521 300v235l-297 -235h297z" />
    <glyph glyph-name="five" unicode="5" horiz-adv-x="858" 
d="M431 -19q-192 0 -284 60t-103 181h184q19 -96 214 -96q107 0 158 26.5t51 84.5q0 111 -181 111q-149 0 -247 -62l-24 -15l-143 49l63 393h662v-6q0 -90 -33 -114.5t-147 -24.5h-357q-23 -141 -29 -183q105 96 291 96q156 0 236 -58t80 -187q0 -127 -101.5 -191
t-289.5 -64z" />
    <glyph glyph-name="six" unicode="6" horiz-adv-x="901" 
d="M866 225q0 -113 -101.5 -179t-287.5 -66q-220 0 -326 90t-106 274q0 387 440 387q319 0 382 -215h-192q-19 36 -61 55.5t-131 19.5q-145 0 -211 -57t-66 -182q0 -25 1 -36q42 60 132 100.5t206 40.5q321 0 321 -232zM475 128q121 0 169 23.5t48 73.5q0 52 -46 74.5
t-157 22.5q-82 0 -152 -26t-110 -70q25 -54 83.5 -76t164.5 -22z" />
    <glyph glyph-name="seven" unicode="7" horiz-adv-x="790" 
d="M341 0h-217q35 115 112.5 232t163.5 201t166 131h-552v149h772v-123q-159 -105 -281 -262.5t-164 -327.5z" />
    <glyph glyph-name="eight" unicode="8" horiz-adv-x="887" 
d="M439 -19q-208 0 -308 44t-100 161q0 128 166 171q-136 37 -136 155q0 105 100 161.5t283 56.5q189 0 288 -55t99 -164q0 -114 -139 -152q161 -37 161 -167q0 -111 -104.5 -161t-309.5 -50zM421 415h43q201 0 201 84q0 94 -220 94q-217 0 -217 -96q0 -43 46.5 -62.5
t146.5 -19.5zM442 124q241 0 241 88q0 46 -50.5 66.5t-159.5 20.5h-59q-207 0 -207 -87q0 -44 51.5 -66t183.5 -22z" />
    <glyph glyph-name="nine" unicode="9" horiz-adv-x="902" 
d="M411 386q178 0 266 85q-23 61 -83 86.5t-168 25.5q-114 0 -163.5 -27.5t-49.5 -80.5t42.5 -71t155.5 -18zM415 -19q-334 0 -378 216h183q33 -76 200 -76q142 0 208.5 56t66.5 179q0 21 -1 31q-50 -63 -140.5 -99.5t-204.5 -36.5q-160 0 -237 51.5t-77 168.5
q0 115 104 187.5t285 72.5q209 0 320.5 -87t111.5 -280q0 -196 -111 -289.5t-330 -93.5z" />
    <glyph glyph-name="colon" unicode=":" horiz-adv-x="376" 
d="M188 382q-65 0 -88 20t-23 79q0 58 24.5 79t86.5 21q61 0 85.5 -21.5t24.5 -78.5t-24.5 -78t-85.5 -21zM188 28q-65 0 -88 19t-23 78q0 58 24.5 79t86.5 21q61 0 85.5 -21t24.5 -79q0 -56 -24.5 -76.5t-85.5 -20.5z" />
    <glyph glyph-name="semicolon" unicode=";" horiz-adv-x="378" 
d="M188 382q-65 0 -88 20t-23 79q0 58 24.5 79t86.5 21q61 0 85.5 -21.5t24.5 -78.5t-24.5 -78t-85.5 -21zM104 -177l-3 77q89 12 100 95q-13 -3 -27 -3q-53 0 -73.5 18t-20.5 72q0 52 26.5 74t86.5 22t85.5 -30.5t25.5 -102.5q0 -97 -50 -154.5t-150 -67.5z" />
    <glyph glyph-name="less" unicode="&#x3c;" horiz-adv-x="700" 
d="M627 64l-558 223v144l558 219v-160l-374 -129l374 -128v-169z" />
    <glyph glyph-name="equal" unicode="=" horiz-adv-x="700" 
d="M630 466h-559v139h559v-139zM630 131h-559v141h559v-141z" />
    <glyph glyph-name="greater" unicode="&#x3e;" horiz-adv-x="700" 
d="M74 64v169l374 128l-374 129v160l558 -219v-144z" />
    <glyph glyph-name="question" unicode="?" horiz-adv-x="880" 
d="M501 225q-21 16 -81 16q-65 0 -83 -16q-2 20 -2 50v11q0 35 14.5 60.5t43.5 42.5t53.5 26.5t63.5 20.5q87 24 108 38q23 16 23 39q0 39 -40.5 57t-151.5 18q-110 0 -162 -29.5t-52 -98.5h-169q0 269 383 269q362 0 362 -211q0 -46 -14 -79t-43 -52.5t-53 -29.5t-64 -20
q-82 -21 -105 -37q-25 -18 -28 -47zM421 -15q-63 0 -88.5 23.5t-25.5 80.5q0 55 28 79.5t85 24.5t85.5 -24.5t28.5 -79.5q0 -104 -113 -104z" />
    <glyph glyph-name="at" unicode="@" horiz-adv-x="974" 
d="M498 -137q-208 0 -331 102.5t-123 301.5q0 186 125 303t334 117q107 0 192 -30.5t135 -81.5t76 -113t26 -130q0 -110 -51 -168t-136 -58q-112 0 -153 72q-36 -78 -145 -78q-87 0 -132.5 50.5t-45.5 121.5q0 75 49 126.5t130 51.5q95 0 136 -63l20 57h88v-128
q0 -54 11.5 -73.5t42.5 -19.5q32 0 44.5 26.5t12.5 82.5q0 47 -15.5 87.5t-48.5 75t-94 54.5t-143 20q-154 0 -242 -83t-88 -219q0 -130 83.5 -208.5t242.5 -78.5q144 0 220 85l129 -64q-119 -138 -349 -138zM483 215q41 0 61 18t20 41q0 26 -21 44t-56 18q-87 0 -87 -64
q0 -25 21.5 -41t61.5 -16z" />
    <glyph glyph-name="A" unicode="A" horiz-adv-x="906" 
d="M583 291l-133 271l-129 -271h262zM727 0l-76 155h-395l-74 -155h-181l361 713h177l367 -713h-179z" />
    <glyph glyph-name="B" unicode="B" horiz-adv-x="870" 
d="M482 0h-402v713h395q183 0 267.5 -42t84.5 -145v-6q0 -68 -35 -103t-112 -49q87 -12 126 -47.5t39 -109.5v-4q0 -113 -89.5 -160t-273.5 -47zM485 581h-242v-150h248q88 0 129.5 13.5t41.5 58.5v4q0 48 -37 61t-140 13zM473 301h-230v-161h218q130 0 171.5 15.5
t41.5 62.5v4q0 50 -40 64.5t-161 14.5z" />
    <glyph glyph-name="C" unicode="C" horiz-adv-x="922" 
d="M899 303q-50 -323 -436 -323q-198 0 -308 90t-110 279v5q0 176 120.5 276.5t314.5 100.5q168 0 277 -75.5t138 -224.5h-181q-29 149 -233 149q-263 0 -263 -227v-2q0 -219 256 -219q115 0 172.5 43t69.5 128h183z" />
    <glyph glyph-name="D" unicode="D" horiz-adv-x="900" 
d="M80 0v713h332q222 0 332.5 -86.5t110.5 -271.5v-5q0 -182 -109 -266t-324 -84h-342zM405 568h-159v-422h167q149 0 210 46.5t61 160.5v3q0 116 -63.5 164t-215.5 48z" />
    <glyph glyph-name="E" unicode="E" horiz-adv-x="819" 
d="M782 146v-146h-702v713h681v-141h-520v-144h440v-141h-440v-141h541z" />
    <glyph glyph-name="F" unicode="F" horiz-adv-x="781" 
d="M727 256h-482v-256h-165v713h661v-148h-496v-160h482v-149z" />
    <glyph glyph-name="G" unicode="G" horiz-adv-x="959" 
d="M755 0l-10 195q-16 -106 -93.5 -160.5t-211.5 -54.5q-183 0 -289 91t-106 276v5q0 176 119 277.5t310 101.5q369 0 415 -268h-192q-24 117 -218 117q-261 0 -261 -231v-1q0 -224 252 -224q230 0 260 122h-279v139h443v-385h-139z" />
    <glyph glyph-name="H" unicode="H" horiz-adv-x="909" 
d="M663 0v276h-415v-276h-168v713h168v-277h415v277h166v-713h-166z" />
    <glyph glyph-name="I" unicode="I" horiz-adv-x="643" 
d="M595 0h-547v156h194v408h-194v149h547v-149h-194v-408h194v-156z" />
    <glyph glyph-name="J" unicode="J" horiz-adv-x="744" 
d="M342 -20q-170 0 -249 80t-79 236v18h175v-15q0 -85 34 -126t120 -41q84 0 122 43.5t38 148.5v389h175v-392q0 -169 -85.5 -255t-250.5 -86z" />
    <glyph glyph-name="K" unicode="K" horiz-adv-x="873" 
d="M678 0l-246 353l-184 -155v-198h-168v713h168v-343l391 343h226l-311 -269l324 -444h-200z" />
    <glyph glyph-name="L" unicode="L" horiz-adv-x="746" 
d="M723 0h-643v713h170v-555h473v-158z" />
    <glyph glyph-name="M" unicode="M" horiz-adv-x="1030" 
d="M503 180l-261 298v-478h-162v713h157l277 -324l290 324h146v-713h-162v481l-273 -301h-12z" />
    <glyph glyph-name="N" unicode="N" horiz-adv-x="928" 
d="M249 489l-7 10v-499h-162v713h168l433 -484l6 -9v493h161v-713h-161z" />
    <glyph glyph-name="O" unicode="O" horiz-adv-x="943" 
d="M471 -20q-200 0 -313 91.5t-113 277.5v5q0 176 118 276.5t307 100.5q190 0 309 -99.5t119 -276.5v-7q0 -180 -116 -274t-311 -94zM470 132q125 0 190 50.5t65 166.5v1q0 121 -65.5 175.5t-188.5 54.5q-253 0 -253 -229v-1q0 -110 65.5 -164t186.5 -54z" />
    <glyph glyph-name="P" unicode="P" horiz-adv-x="848" 
d="M445 572h-199v-210h204q110 0 153 22t43 79q0 69 -44 89t-157 20zM460 221h-214v-221h-166v713h364q200 0 285.5 -59.5t85.5 -191.5q0 -244 -355 -241z" />
    <glyph glyph-name="Q" unicode="Q" horiz-adv-x="943" 
d="M811 -136h-206l-78 118q-36 -2 -56 -2q-200 0 -313 91.5t-113 277.5v5q0 176 118 276.5t307 100.5q190 0 309 -99.5t119 -276.5v-7q0 -120 -53.5 -202.5t-149.5 -124.5zM470 132q125 0 190 50.5t65 166.5v1q0 121 -65.5 175.5t-188.5 54.5q-253 0 -253 -229v-1
q0 -110 65.5 -164t186.5 -54z" />
    <glyph glyph-name="R" unicode="R" horiz-adv-x="857" 
d="M453 571h-206v-198h200q48 0 77.5 2.5t57.5 11.5t41 28t13 50v13q0 57 -41 75t-142 18zM448 230h-201v-230h-167v713h375q187 0 270.5 -53.5t83.5 -171.5q0 -79 -38 -124t-118 -65q79 -18 115 -65.5t36 -140.5v-47q0 -36 17 -46h-175q-20 8 -20 48v44q0 80 -38 109
t-140 29z" />
    <glyph glyph-name="S" unicode="S" horiz-adv-x="840" 
d="M443 -21q-207 0 -306.5 64.5t-127.5 209.5h182q17 -71 79.5 -99.5t176.5 -28.5q99 0 144.5 20t45.5 64q0 42 -39 57q-38 15 -207 24l-1 1h-1h-1h-1h-1h-1h-1h-1h-1h-1h-1h-1h-1h-1h-1h-1h-1h-1l-1 1h-1h-1h-1h-1h-1h-1h-2h-1q-170 10 -245 57t-75 156q0 105 90 165.5
t260 60.5q187 0 287.5 -58.5t125.5 -190.5h-179q-14 64 -71 86.5t-166 22.5q-96 0 -136.5 -20.5t-40.5 -60.5q0 -27 15 -41t64 -23.5t149 -13.5q196 -9 280.5 -56.5t84.5 -154.5q0 -117 -90 -179.5t-273 -62.5z" />
    <glyph glyph-name="T" unicode="T" horiz-adv-x="764" 
d="M730 570h-268v-570h-172v570h-256v143h696v-143z" />
    <glyph glyph-name="U" unicode="U" horiz-adv-x="901" 
d="M451 -20q-194 0 -289.5 97.5t-95.5 316.5v319h176v-314q0 -140 52 -199t159 -59t156.5 57.5t49.5 200.5v314h176v-319q0 -217 -98.5 -315.5t-285.5 -98.5z" />
    <glyph glyph-name="V" unicode="V" horiz-adv-x="837" 
d="M488 0h-171l-317 713h183l226 -529l247 529h181z" />
    <glyph glyph-name="W" unicode="W" horiz-adv-x="1288" 
d="M835 0l-197 504l-236 -504h-167l-232 713h174l162 -515l237 515h133l206 -514l198 514h172l-290 -713h-160z" />
    <glyph glyph-name="X" unicode="X" horiz-adv-x="873" 
d="M668 0l-228 271l-235 -271h-215l342 379l-300 334h209l201 -236l200 236h211l-306 -333l330 -380h-209z" />
    <glyph glyph-name="Y" unicode="Y" horiz-adv-x="816" 
d="M484 0h-175v293l-322 420h206l207 -284l224 284h205l-345 -423v-290z" />
    <glyph glyph-name="Z" unicode="Z" horiz-adv-x="800" 
d="M761 0h-724v139l507 433h-480v141h697v-153l-484 -411h484v-149z" />
    <glyph glyph-name="bracketleft" unicode="[" horiz-adv-x="494" 
d="M462 -58v-131h-375v964h375v-131h-207v-702h207z" />
    <glyph glyph-name="backslash" unicode="\" horiz-adv-x="442" 
d="M-7 713h189l265 -713h-189z" />
    <glyph glyph-name="bracketright" unicode="]" horiz-adv-x="494" 
d="M408 -189h-375v131h207v702h-207v129h375v-962z" />
    <glyph glyph-name="asciicircum" unicode="^" horiz-adv-x="717" 
d="M466 370l-106 207l-107 -207h-146l193 343h120l190 -343h-144z" />
    <glyph glyph-name="uni005F" unicode="_" horiz-adv-x="848" 
d="M824 -74v-173h-800v173h800z" />
    <glyph glyph-name="grave" unicode="`" horiz-adv-x="742" 
d="M419 678l-251 229h187l199 -229h-135z" />
    <glyph glyph-name="a" unicode="a" horiz-adv-x="815" 
d="M331 101q110 0 185 53.5t75 120.5v4q-24 -32 -149 -39q-152 -8 -191 -28q-36 -18 -36 -52v-1q0 -58 116 -58zM614 0l-15 136q-37 -71 -118.5 -113t-200.5 -42q-245 0 -245 163v1q0 103 91 146q45 21 106.5 32t194.5 18q98 5 130 15.5t32 38.5v1q0 33 -38 54.5t-124 21.5
q-107 0 -152 -23t-51 -75h-175q26 220 363 220q176 0 258 -51.5t82 -185.5v-357h-138z" />
    <glyph glyph-name="b" unicode="b" horiz-adv-x="861" 
d="M492 -17q-200 0 -266 110l-10 -93h-148v760h166v-290q78 123 266 123q150 0 234 -80t84 -230q0 -73 -27 -131.5t-72.5 -94.5t-103.5 -55t-123 -19zM436 120q111 0 160 41t49 122q0 88 -50 131.5t-157 43.5q-100 0 -155 -45.5t-55 -129.5q0 -163 208 -163z" />
    <glyph glyph-name="c" unicode="c" horiz-adv-x="839" 
d="M810 253q-10 -127 -107.5 -199.5t-283.5 -72.5q-198 0 -287 77.5t-89 224.5q0 143 103.5 227.5t277.5 84.5q172 0 270.5 -69t115.5 -197h-183q-11 65 -59.5 97t-141.5 32q-210 0 -210 -175q0 -82 50.5 -122.5t157.5 -40.5q97 0 145 33t58 100h183z" />
    <glyph glyph-name="d" unicode="d" horiz-adv-x="866" 
d="M422 120q211 0 211 163q0 84 -55 129.5t-155 45.5q-207 0 -207 -176q0 -84 48.5 -123t157.5 -39zM647 0l-12 109q-66 -126 -264 -126q-148 0 -238 73t-90 226q0 146 90 228.5t245 82.5q173 0 249 -113v280h166v-760h-146z" />
    <glyph glyph-name="e" unicode="e" horiz-adv-x="844" 
d="M797 171q-45 -102 -140 -146t-244 -44q-370 0 -370 295q0 136 100 227.5t283 91.5q178 0 278 -82t100 -226v-61h-600q15 -58 68 -86t155 -28q141 0 183 59h187zM431 465q-185 0 -223 -118h428q-14 62 -63.5 90t-141.5 28z" />
    <glyph glyph-name="f" unicode="f" horiz-adv-x="548" 
d="M528 432h-197l-1 -432h-161v432h-158v142h158v30q0 134 52 184t191 50h116v-135h-100q-59 0 -78 -18t-19 -80v-31h197v-142z" />
    <glyph glyph-name="g" unicode="g" horiz-adv-x="788" 
d="M790 -52q0 -209 -378 -209h-44q-185 0 -265 32.5t-80 100.5q0 58 47 88.5t154 39.5q-107 1 -155.5 23t-48.5 82q0 115 200 123q-87 13 -129.5 49t-42.5 108q0 94 87 147.5t257 53.5h23q92 0 125.5 23t33.5 98v8h188v-7q0 -101 -43 -121.5t-207 -20.5h-4q130 -8 188.5 -52
t58.5 -129q0 -97 -83 -142t-253 -45h-68q-81 0 -121.5 -4.5t-52.5 -12.5t-12 -24q0 -19 38 -26t141 -6h156q155 0 222.5 -38.5t67.5 -133.5v-5zM401 308q99 0 145 19t46 60q0 45 -41.5 64t-139.5 19h-20q-95 0 -134.5 -20.5t-39.5 -66.5q0 -44 41.5 -59.5t142.5 -15.5z
M396 -129h36q111 0 155.5 18t44.5 51v5q0 30 -28.5 42.5t-123.5 12.5h-135q-76 0 -112 -15t-36 -51v-1q0 -35 46.5 -48.5t152.5 -13.5z" />
    <glyph glyph-name="h" unicode="h" horiz-adv-x="826" 
d="M232 256v-256h-164v760h164v-303q71 138 249 138q133 0 207.5 -75.5t74.5 -205.5v-314h-171v264q0 195 -167 195q-193 0 -193 -203z" />
    <glyph glyph-name="i" unicode="i" horiz-adv-x="311" 
d="M159 662q-59 0 -84.5 23t-25.5 80q0 54 27.5 77.5t82.5 23.5t82.5 -23.5t27.5 -77.5q0 -103 -110 -103zM243 0h-175v574h175v-574z" />
    <glyph glyph-name="j" unicode="j" horiz-adv-x="305" 
d="M155 662q-59 0 -84.5 23t-25.5 80q0 54 27.5 77.5t82.5 23.5t82.5 -23.5t27.5 -77.5q0 -103 -110 -103zM-32 -285h-46v154h32q35 0 53 2.5t33.5 9t21 23t8 39t2.5 63.5v568h165v-590q0 -86 -10.5 -135.5t-41.5 -81t-81 -42t-136 -10.5z" />
    <glyph glyph-name="k" unicode="k" horiz-adv-x="795" 
d="M611 0l-209 266l-168 -132v-134h-166v760h166v-468l341 282h230l-273 -223l282 -351h-203z" />
    <glyph glyph-name="l" unicode="l" horiz-adv-x="307" 
d="M239 0h-171v760h171v-760z" />
    <glyph glyph-name="m" unicode="m" horiz-adv-x="1250" 
d="M239 258v-258h-172v574h146l14 -122q30 66 87.5 104.5t139.5 38.5q176 0 231 -150q29 70 90.5 109.5t148.5 39.5q129 0 196 -77.5t67 -210.5v-306h-171v276q0 90 -34 136t-119 46q-75 0 -112 -51t-37 -141v-266h-171v285q0 83 -31.5 128t-115.5 45q-157 0 -157 -200z" />
    <glyph glyph-name="n" unicode="n" horiz-adv-x="834" 
d="M240 254v-254h-173v574h148l14 -125q74 146 258 146q134 0 209 -75.5t75 -205.5v-314h-172v273q0 91 -39 138t-130 47q-98 0 -144 -50.5t-46 -153.5z" />
    <glyph glyph-name="o" unicode="o" horiz-adv-x="849" 
d="M419 -19q-198 0 -287 77.5t-89 224.5q0 143 103.5 227.5t277.5 84.5q177 0 279.5 -82.5t102.5 -229.5q0 -140 -96 -221t-291 -81zM424 120q111 0 160 41t49 122q0 88 -50 131.5t-157 43.5q-210 0 -210 -175q0 -82 50.5 -122.5t157.5 -40.5z" />
    <glyph glyph-name="p" unicode="p" horiz-adv-x="863" 
d="M438 120q111 0 160 41t49 122q0 88 -50 131.5t-157 43.5q-100 0 -155 -45.5t-55 -129.5q0 -163 208 -163zM491 -17q-188 0 -258 103v-292h-166v780h146l12 -105q80 124 271 124q152 0 238 -80t86 -230q0 -144 -95 -222t-234 -78z" />
    <glyph glyph-name="q" unicode="q" horiz-adv-x="863" 
d="M796 -206h-166v294q-72 -105 -259 -105q-146 0 -237 74t-91 226q0 146 89 228t241 82q187 0 265 -122l12 103h146v-780zM425 120q208 0 208 163q0 84 -55 129.5t-155 45.5q-207 0 -207 -175q0 -85 48.5 -124t160.5 -39z" />
    <glyph glyph-name="r" unicode="r" horiz-adv-x="577" 
d="M240 0h-173v574h147l19 -160q49 166 234 166h73v-166h-77q-132 0 -177.5 -48t-45.5 -176v-190z" />
    <glyph glyph-name="s" unicode="s" horiz-adv-x="763" 
d="M398 -19q-176 0 -270.5 51.5t-116.5 157.5h195q14 -43 58.5 -61t142.5 -18q89 0 125 16.5t36 48.5q0 19 -15 28.5t-60.5 15t-143.5 8.5q-170 5 -243.5 44t-73.5 124q0 90 81.5 144.5t239.5 54.5q161 0 252.5 -48.5t122.5 -151.5h-184q-21 77 -193 77q-155 0 -155 -62
q0 -19 12.5 -28.5t57.5 -16t141 -10.5q193 -8 261 -45.5t68 -129.5q0 -89 -88 -144t-250 -55z" />
    <glyph glyph-name="t" unicode="t" horiz-adv-x="606" 
d="M575 147v-147h-133q-156 0 -213.5 62t-57.5 221v147h-160v136q80 0 110 4q26 4 39 16t21 38q11 36 9 107h142v-157h243v-144h-243v-119q0 -39 2 -63.5t9 -44t16.5 -29.5t28.5 -17t41 -8.5t58 -1.5h88z" />
    <glyph glyph-name="u" unicode="u" horiz-adv-x="814" 
d="M601 0l-15 130q-29 -70 -92.5 -109.5t-157.5 -39.5q-132 0 -203 74.5t-71 204.5v314h172v-280q0 -88 40.5 -131t131.5 -43q81 0 124.5 49t43.5 135v270h173v-574h-146z" />
    <glyph glyph-name="v" unicode="v" horiz-adv-x="800" 
d="M472 0h-161l-312 574h188l209 -402l215 402h190z" />
    <glyph glyph-name="w" unicode="w" horiz-adv-x="1110" 
d="M728 0l-179 390l-198 -390h-146l-204 574h176l123 -375l186 375h134l173 -379l146 379h170l-237 -574h-144z" />
    <glyph glyph-name="x" unicode="x" horiz-adv-x="760" 
d="M569 0l-184 204l-190 -204h-213l301 302l-271 272h211l166 -180l167 180h209l-273 -273l288 -301h-211z" />
    <glyph glyph-name="y" unicode="y" horiz-adv-x="796" 
d="M109 -258h-75v147h83q71 0 106 23t70 83l19 34l-313 545h186l209 -377l7 -18l7 16l208 379h183l-349 -609q-44 -76 -73.5 -116.5t-69 -66.5t-82.5 -33t-116 -7z" />
    <glyph glyph-name="z" unicode="z" horiz-adv-x="740" 
d="M26 -1v126l457 323h-435v126h662v-124l-447 -318h450v-132z" />
    <glyph glyph-name="braceleft" unicode="{" horiz-adv-x="525" 
d="M495 -189h-187q-190 0 -190 144q0 40 42.5 114.5t42.5 96.5q0 65 -82 65h-102v145h95q77 0 77 62q0 22 -33.5 87t-33.5 106q0 143 189 143h182v-129h-86q-108 0 -108 -73q0 -18 34 -72.5t34 -89.5q0 -101 -153 -100v-11q83 0 120.5 -29.5t37.5 -75.5q0 -33 -36 -99
t-36 -91q0 -64 105 -64h88v-129z" />
    <glyph glyph-name="bar" unicode="|" horiz-adv-x="352" 
d="M260 -64h-168v853h168v-853z" />
    <glyph glyph-name="braceright" unicode="}" horiz-adv-x="525" 
d="M30 -189v129h86q108 0 108 73q0 18 -34 83.5t-34 100.5q0 101 153 100v11q-151 0 -151 105q0 33 32.5 88t32.5 80q0 64 -105 64h-88v129h187q190 0 190 -144q0 -40 -42.5 -103.5t-42.5 -85.5q0 -65 76 -65h108v-145h-95q-85 0 -85 -62q0 -23 37.5 -99t37.5 -116
q0 -143 -189 -143h-182z" />
    <glyph glyph-name="asciitilde" unicode="~" horiz-adv-x="721" 
d="M87 387q0 191 163 191q41 0 81 -20.5t73.5 -41t59.5 -20.5q30 0 41 17.5t13 58.5h112q0 -92 -37.5 -141.5t-129.5 -49.5q-43 0 -82 20t-71.5 40t-60.5 20q-50 0 -52 -74h-110z" />
    <glyph glyph-name="uni00A0" unicode="&#xa0;" horiz-adv-x="254" 
 />
    <glyph glyph-name="exclamdown" unicode="&#xa1;" horiz-adv-x="393" 
d="M195 592q62 0 88 -23.5t26 -81.5q0 -55 -28.5 -79.5t-85.5 -24.5t-85 24.5t-28 79.5q0 105 113 105zM292 -138h-200v95q0 114 15 217.5t27 136.5q28 -4 58 -4q36 0 58 4q12 -30 27 -134t15 -220v-95z" />
    <glyph glyph-name="cent" unicode="&#xa2;" horiz-adv-x="825" 
d="M805 253q-13 -119 -92 -186t-212 -82v-118h-160v118q-308 28 -308 298q0 125 82.5 206.5t225.5 100.5v105h161v-104q273 -29 303 -262h-177q-13 65 -63 95.5t-140 30.5q-219 0 -219 -169q0 -84 52 -124.5t165 -40.5q93 0 141 30.5t64 101.5h177z" />
    <glyph glyph-name="sterling" unicode="&#xa3;" horiz-adv-x="825" 
d="M607 -15q-44 0 -91.5 14t-78.5 28.5t-77 40.5q-68 -83 -176 -83q-165 0 -165 125q0 51 40 85.5t110 34.5q55 0 122 -23q-3 38 -44 86h-198v120h118q-38 51 -38 113q0 86 76.5 144t208.5 58q139 0 225 -58.5t109 -175.5l-189 -1q-17 88 -141 88q-53 0 -82 -23t-29 -59
q0 -41 30 -86h232v-120h-180q20 -38 20 -88q0 -20 -5 -47q85 -38 143 -38q50 0 68 19.5t18 72.5v14h175v-24q0 -116 -47.5 -166.5t-153.5 -50.5zM187 76q59 0 85 40q-55 26 -94 26q-42 0 -42 -32q0 -14 14 -24t37 -10z" />
    <glyph glyph-name="currency" unicode="&#xa4;" horiz-adv-x="1058" 
d="M534 179q87 0 140.5 46t53.5 128v5q0 82 -54 130.5t-140 48.5q-88 0 -140 -47t-52 -132v-5q0 -82 52.5 -128t139.5 -46zM534 25q-103 0 -182 37l-161 -161l-130 125l160 160q-38 71 -38 169v2q0 93 37 165l-164 154l122 130l168 -158q80 42 188 42q106 0 186 -43l165 163
l128 -124l-166 -164q38 -74 38 -166v-2q0 -90 -36 -160l154 -150l-121 -127l-156 152q-82 -44 -192 -44z" />
    <glyph glyph-name="yen" unicode="&#xa5;" horiz-adv-x="851" 
d="M712 90h-211v-90h-175v90h-203v116h203v63h-200v121h200v5l-320 318h218l195 -205l207 205h218l-343 -321v-2h214v-121h-214v-63h211v-116z" />
    <glyph glyph-name="brokenbar" unicode="&#xa6;" horiz-adv-x="352" 
d="M92 408v381h168v-381h-168zM92 328h168v-392h-168v392z" />
    <glyph glyph-name="section" unicode="&#xa7;" horiz-adv-x="900" 
d="M490 250q40 -7 90 -17q67 4 102.5 29t35.5 60q0 17 -8 30.5t-27.5 24t-37.5 17.5t-52 13t-56.5 10t-66 10t-65.5 9q-43 6 -83 15q-148 -3 -148 -81q0 -14 5 -25.5t17 -20.5t24.5 -16t33.5 -13.5t39 -11t45.5 -9.5t47.5 -8t52 -8t52 -8zM468 -179q-355 0 -387 241h188
q10 -58 59.5 -84.5t148.5 -26.5q161 0 161 79q0 15 -8 27.5t-27.5 21.5t-37.5 16t-51.5 13.5t-56.5 10t-66 9.5t-66 10q-53 8 -93 17t-84 24.5t-71.5 35t-46 50t-18.5 68.5q0 130 188 157q-109 52 -109 155q0 105 85 169t247 64q164 0 254.5 -55.5t120.5 -171.5h-183
q-26 104 -194 104q-163 0 -163 -95q0 -16 8.5 -28.5t27 -22t37.5 -16.5t51.5 -13.5t57 -10.5t65 -10.5t65.5 -10.5q54 -9 93.5 -18t83 -26t71.5 -38.5t46 -54.5t18 -74q0 -120 -175 -149q99 -54 99 -153q0 -98 -86 -156t-252 -58z" />
    <glyph glyph-name="dieresis" unicode="&#xa8;" horiz-adv-x="746" 
d="M239 674q-54 0 -77 21t-23 72q0 49 25 70.5t75 21.5q51 0 75 -21.5t24 -70.5t-24 -71t-75 -22zM506 674q-55 0 -77 20.5t-22 72.5q0 49 24 70.5t75 21.5q50 0 75 -21.5t25 -70.5t-24.5 -71t-75.5 -22z" />
    <glyph glyph-name="copyright" unicode="&#xa9;" horiz-adv-x="934" 
d="M467 -20q-197 0 -315 95.5t-118 282.5q0 173 122.5 281t310.5 108t310.5 -108t122.5 -281q0 -187 -118 -282.5t-315 -95.5zM467 88q149 0 233 69t84 201q0 130 -86.5 206t-230.5 76t-230.5 -76t-86.5 -206q0 -132 84 -201t233 -69zM696 337q-24 -157 -237 -157
q-217 0 -217 181q0 85 60 136t159 51q102 0 163.5 -42t70.5 -119h-118q-6 58 -114 58q-53 0 -81 -21.5t-28 -60.5q0 -81 107 -81q108 0 116 55h119z" />
    <glyph glyph-name="ordfeminine" unicode="&#xaa;" horiz-adv-x="576" 
d="M227 389q71 0 124.5 35t53.5 79q-19 -23 -101 -29q-98 -7 -125 -20q-24 -12 -24 -33q0 -32 72 -32zM422 308l-9 75q-65 -88 -221 -88q-176 0 -176 112v1q0 75 66 106q58 28 214 36q67 4 88 11.5t21 26.5q0 45 -107 45q-74 0 -102.5 -14.5t-33.5 -45.5h-136
q19 156 265 156q126 0 182.5 -39t56.5 -129v-253h-108z" />
    <glyph glyph-name="guillemotleft" unicode="&#xab;" horiz-adv-x="775" 
d="M446 93h-165l-184 213v22l174 214h150l-173 -214zM747 93h-165l-194 217v24l171 208h153l-172 -210z" />
    <glyph glyph-name="logicalnot" unicode="&#xac;" horiz-adv-x="777" 
d="M557 105v304l-8 9h-520v150h689v-463h-161z" />
    <glyph glyph-name="uni00AD" unicode="&#xad;" horiz-adv-x="691" 
d="M629 407v-169h-568v169h568z" />
    <glyph glyph-name="registered" unicode="&#xae;" horiz-adv-x="534" 
d="M269 261q-99 0 -162.5 58t-63.5 164v15q0 103 64 165.5t159 62.5q98 0 160.5 -61t62.5 -163v-17q0 -101 -63 -162.5t-157 -61.5zM269 328q74 0 113 41.5t39 121.5v5q0 79 -41 122t-114 43t-113.5 -44t-40.5 -125v-4q0 -79 41 -119.5t116 -40.5zM266 560h-28v-58h28
q44 0 44 31q0 16 -9.5 21.5t-34.5 5.5zM267 447h-29v-66h-61v232h98q96 0 96 -76q0 -49 -49 -63q41 -11 41 -60v-19q0 -11 4 -14h-61q-5 3 -5 15v18q0 20 -6.5 26.5t-27.5 6.5z" />
    <glyph glyph-name="macron" unicode="&#xaf;" horiz-adv-x="742" 
d="M158 672v122h429v-122h-429z" />
    <glyph glyph-name="degree" unicode="&#xb0;" horiz-adv-x="422" 
d="M209 376q-95 0 -143 45t-48 126q0 76 53.5 125t142.5 49q86 0 138 -48t52 -126q0 -79 -51 -125t-144 -46zM209 480q34 0 54 17t20 50q0 65 -73 65q-72 0 -72 -65q0 -67 71 -67z" />
    <glyph glyph-name="plusminus" unicode="&#xb1;" horiz-adv-x="652" 
d="M580 396h-179v-165h-147v165h-175v149h175v163h147v-163h179v-149zM580 4h-501v148h501v-148z" />
    <glyph glyph-name="twosuperior" unicode="&#xb2;" horiz-adv-x="394" 
d="M372 357h-361v50q0 46 25.5 76t61.5 43t72.5 22t62 20t25.5 29q0 30 -57 30q-68 0 -68 -52h-117q5 145 186 145q87 0 129.5 -33t42.5 -87q0 -40 -26.5 -67t-57.5 -37.5t-76.5 -22.5t-62.5 -19h221v-97z" />
    <glyph glyph-name="threesuperior" unicode="&#xb3;" horiz-adv-x="411" 
d="M197 349q-96 0 -140.5 35t-46.5 106h120q1 -25 19 -37t61 -12q61 0 61 29q0 22 -49 22h-67v84h62q45 0 45 23q0 27 -54 27q-72 0 -72 -44h-118q0 64 49.5 101t142.5 37q83 0 126.5 -28t43.5 -71q0 -37 -21 -54t-61 -22q90 -13 90 -83q0 -113 -191 -113z" />
    <glyph glyph-name="acute" unicode="&#xb4;" horiz-adv-x="742" 
d="M260 678l189 229h186l-241 -229h-134z" />
    <glyph glyph-name="paragraph" unicode="&#xb6;" horiz-adv-x="901" 
d="M386 357h27v221h-22q-109 0 -155.5 -25t-46.5 -88q0 -58 44.5 -83t152.5 -25zM568 0h-155v221h-37q-346 -3 -346 240q0 123 85 187.5t277 64.5h428v-713h-155v578h-97v-578z" />
    <glyph glyph-name="periodcentered" unicode="&#xb7;" horiz-adv-x="367" 
d="M182 211q-62 0 -88 23.5t-26 81.5q0 55 28.5 79.5t85.5 24.5t85 -24.5t28 -79.5q0 -105 -113 -105z" />
    <glyph glyph-name="cedilla" unicode="&#xb8;" horiz-adv-x="742" 
d="M367 -308q-112 0 -165 39.5t-68 113.5h137q4 -29 29.5 -45.5t64.5 -16.5q41 0 63 14.5t22 39.5q0 45 -93 45h-66v142h119v-60q77 -3 116.5 -36.5t39.5 -87.5q0 -69 -52 -108.5t-147 -39.5z" />
    <glyph glyph-name="onesuperior" unicode="&#xb9;" horiz-adv-x="309" 
d="M297 357h-287v104h92v87h-74v85q76 5 89 80h92v-252h88v-104z" />
    <glyph glyph-name="ordmasculine" unicode="&#xba;" horiz-adv-x="608" 
d="M301 304q-267 0 -267 209q0 99 73.5 158t196.5 59q126 0 198 -56.5t72 -158.5q0 -98 -67.5 -154.5t-205.5 -56.5zM304 417q70 0 102.5 24t32.5 74q0 102 -133 102q-66 0 -101 -26.5t-35 -75.5q0 -98 134 -98z" />
    <glyph glyph-name="guillemotright" unicode="&#xbb;" horiz-adv-x="775" 
d="M509 93h-165l198 234l-173 215h149l175 -214v-22zM207 93h-165l207 238l-171 211h152l172 -208v-24z" />
    <glyph glyph-name="onequarter" unicode="&#xbc;" 
d="M681 397l-54 48l257 327l173 -142zM522 360l51 -48l-266 -352l-174 152zM438 357h-287v104h92v87h-74v85q76 5 89 80h92v-252h88v-104zM1011 64h-68v-64h-103v64h-234v78l238 214h99v-204h68v-88zM833 240l-101 -88h108v71l4 31z" />
    <glyph glyph-name="onehalf" unicode="&#xbd;" 
d="M681 397l-54 48l257 327l173 -142zM522 360l51 -48l-266 -352l-174 152zM438 357h-287v104h92v87h-74v85q76 5 89 80h92v-252h88v-104zM1017 0h-361v50q0 46 25.5 76t62 43t72.5 22t61.5 20t25.5 29q0 30 -57 30q-68 0 -68 -52h-117q5 145 186 145q87 0 129.5 -33
t42.5 -87q0 -40 -26.5 -67t-57.5 -37.5t-76.5 -22.5t-62.5 -19h221v-97z" />
    <glyph glyph-name="threequarters" unicode="&#xbe;" 
d="M681 397l-54 48l257 327l173 -142zM522 360l51 -48l-266 -352l-174 152zM287 349q-96 0 -140.5 35t-46.5 106h120q1 -25 19 -37t61 -12q61 0 61 29q0 22 -49 22h-67v84h62q45 0 45 23q0 27 -54 27q-72 0 -72 -44h-118q0 64 49.5 101t142.5 37q83 0 126.5 -28t43.5 -71
q0 -37 -21 -54t-61 -22q90 -13 90 -83q0 -113 -191 -113zM1012 64h-68v-64h-103v64h-234v78l238 214h99v-204h68v-88zM834 240l-101 -88h108v71l4 31z" />
    <glyph glyph-name="questiondown" unicode="&#xbf;" horiz-adv-x="880" 
d="M406 351q21 -16 81 -16q65 0 83 16q2 -20 2 -50v-11q0 -35 -14.5 -60.5t-43.5 -42.5t-53.5 -26.5t-63.5 -20.5q-87 -24 -108 -38q-23 -16 -23 -39q0 -39 40.5 -57t151.5 -18q110 0 162 29.5t52 98.5h169q0 -269 -383 -269q-362 0 -362 211q0 46 14 79t43 52.5t53 29.5
t64 20q82 21 105 37q25 18 28 47zM486 591q63 0 88.5 -23.5t25.5 -80.5q0 -55 -28 -79.5t-85 -24.5t-85.5 24.5t-28.5 79.5q0 104 113 104z" />
    <glyph glyph-name="Agrave" unicode="&#xc0;" horiz-adv-x="906" 
d="M583 291l-133 271l-129 -271h262zM727 0l-76 155h-395l-74 -155h-181l361 713h177l367 -713h-179zM386 797l-251 229h187l199 -229h-135z" />
    <glyph glyph-name="Aacute" unicode="&#xc1;" horiz-adv-x="906" 
d="M583 291l-133 271l-129 -271h262zM727 0l-76 155h-395l-74 -155h-181l361 713h177l367 -713h-179zM384 797l189 229h186l-241 -229h-134z" />
    <glyph glyph-name="Acircumflex" unicode="&#xc2;" horiz-adv-x="906" 
d="M583 291l-133 271l-129 -271h262zM727 0l-76 155h-395l-74 -155h-181l361 713h177l367 -713h-179zM556 783l-106 128l-105 -128h-150l193 229h123l192 -229h-147z" />
    <glyph glyph-name="Atilde" unicode="&#xc3;" horiz-adv-x="906" 
d="M583 291l-133 271l-129 -271h262zM727 0l-76 155h-395l-74 -155h-181l361 713h177l367 -713h-179zM210 779q-1 79 34 127t115 48q37 0 73 -17t67 -34.5t54 -17.5q27 0 38 15.5t13 48.5h100q0 -85 -34 -130t-117 -45q-51 0 -110 33.5t-85 33.5q-46 0 -49 -62h-99z" />
    <glyph glyph-name="Adieresis" unicode="&#xc4;" horiz-adv-x="906" 
d="M583 291l-133 271l-129 -271h262zM727 0l-76 155h-395l-74 -155h-181l361 713h177l367 -713h-179zM318 788q-54 0 -77 21t-23 72q0 49 25 70.5t75 21.5q51 0 75 -21.5t24 -70.5t-24 -71t-75 -22zM585 788q-55 0 -77 20.5t-22 72.5q0 49 24 70.5t75 21.5q50 0 75 -21.5
t25 -70.5t-24.5 -71t-75.5 -22z" />
    <glyph glyph-name="Aring" unicode="&#xc5;" horiz-adv-x="906" 
d="M583 291l-133 271l-129 -271h262zM727 0l-76 155h-395l-74 -155h-181l361 713h177l367 -713h-179zM458 779q-75 0 -116.5 41.5t-41.5 114.5q0 74 43 116t115 42q75 0 117.5 -41.5t42.5 -116.5q0 -70 -43 -113t-117 -43zM458 878q22 0 41 15t19 42q0 30 -16 45.5t-44 15.5
t-44 -16t-16 -45q0 -57 60 -57z" />
    <glyph glyph-name="AE" unicode="&#xc6;" horiz-adv-x="1359" 
d="M631 325l-57 252l-181 -252h238zM704 0l-41 184h-371l-132 -184h-186l241 324v1h1l289 388h794v-141h-572l33 -144h460v-141h-427l32 -141h498v-146h-619z" />
    <glyph glyph-name="Ccedilla" unicode="&#xc7;" horiz-adv-x="922" 
d="M476 -326q-112 0 -165 39.5t-68 113.5h137q4 -29 29.5 -45.5t64.5 -16.5q41 0 63 14.5t22 39.5q0 45 -93 45h-66v118q-169 14 -262 104t-93 263v5q0 176 120.5 276.5t314.5 100.5q168 0 277 -75.5t138 -224.5h-181q-29 149 -233 149q-263 0 -263 -227v-2q0 -219 256 -219
q115 0 172.5 43t69.5 128h183q-47 -298 -380 -321v-36q77 -3 116.5 -36.5t39.5 -87.5q0 -69 -52 -108.5t-147 -39.5z" />
    <glyph glyph-name="Egrave" unicode="&#xc8;" horiz-adv-x="819" 
d="M782 146v-146h-702v713h681v-141h-520v-144h440v-141h-440v-141h541zM360 797l-251 229h187l199 -229h-135z" />
    <glyph glyph-name="Eacute" unicode="&#xc9;" horiz-adv-x="819" 
d="M782 146v-146h-702v713h681v-141h-520v-144h440v-141h-440v-141h541zM358 797l189 229h186l-241 -229h-134z" />
    <glyph glyph-name="Ecircumflex" unicode="&#xca;" horiz-adv-x="819" 
d="M782 146v-146h-702v713h681v-141h-520v-144h440v-141h-440v-141h541zM530 797l-106 128l-105 -128h-150l193 229h123l192 -229h-147z" />
    <glyph glyph-name="Edieresis" unicode="&#xcb;" horiz-adv-x="819" 
d="M782 146v-146h-702v713h681v-141h-520v-144h440v-141h-440v-141h541zM292 793q-54 0 -77 21t-23 72q0 49 25 70.5t75 21.5q51 0 75 -21.5t24 -70.5t-24 -71t-75 -22zM559 793q-55 0 -77 20.5t-22 72.5q0 49 24 70.5t75 21.5q50 0 75 -21.5t25 -70.5t-24.5 -71t-75.5 -22z
" />
    <glyph glyph-name="Igrave" unicode="&#xcc;" horiz-adv-x="643" 
d="M595 0h-547v156h194v408h-194v149h547v-149h-194v-408h194v-156zM262 797l-251 229h187l199 -229h-135z" />
    <glyph glyph-name="Iacute" unicode="&#xcd;" horiz-adv-x="643" 
d="M595 0h-547v156h194v408h-194v149h547v-149h-194v-408h194v-156zM260 797l189 229h186l-241 -229h-134z" />
    <glyph glyph-name="Icircumflex" unicode="&#xce;" horiz-adv-x="643" 
d="M595 0h-547v156h194v408h-194v149h547v-149h-194v-408h194v-156zM432 797l-106 128l-105 -128h-150l193 229h123l192 -229h-147z" />
    <glyph glyph-name="Idieresis" unicode="&#xcf;" horiz-adv-x="643" 
d="M595 0h-547v156h194v408h-194v149h547v-149h-194v-408h194v-156zM194 793q-54 0 -77 21t-23 72q0 49 25 70.5t75 21.5q51 0 75 -21.5t24 -70.5t-24 -71t-75 -22zM461 793q-55 0 -77 20.5t-22 72.5q0 49 24 70.5t75 21.5q50 0 75 -21.5t25 -70.5t-24.5 -71t-75.5 -22z" />
    <glyph glyph-name="Eth" unicode="&#xd0;" horiz-adv-x="936" 
d="M452 0h-342v275h-120v149h120v289h332q222 0 332.5 -86.5t110.5 -271.5v-5q0 -182 -109 -266t-324 -84zM476 275h-200v-129h167q149 0 210 46.5t61 160.5v3q0 116 -63.5 164t-215.5 48h-159v-144h200v-149z" />
    <glyph glyph-name="Ntilde" unicode="&#xd1;" horiz-adv-x="926" 
d="M249 489l-7 10v-499h-162v713h168l433 -484l6 -9v493h161v-713h-161zM222 795q-1 79 34 127t115 48q37 0 73 -17t67 -34.5t54 -17.5q27 0 38 15.5t13 48.5h100q0 -85 -34 -130t-117 -45q-51 0 -110 33.5t-85 33.5q-46 0 -49 -62h-99z" />
    <glyph glyph-name="Ograve" unicode="&#xd2;" horiz-adv-x="943" 
d="M471 -20q-200 0 -313 91.5t-113 277.5v5q0 176 118 276.5t307 100.5q190 0 309 -99.5t119 -276.5v-7q0 -180 -116 -274t-311 -94zM470 132q125 0 190 50.5t65 166.5v1q0 121 -65.5 175.5t-188.5 54.5q-253 0 -253 -229v-1q0 -110 65.5 -164t186.5 -54zM406 812l-251 229
h187l199 -229h-135z" />
    <glyph glyph-name="Oacute" unicode="&#xd3;" horiz-adv-x="943" 
d="M471 -20q-200 0 -313 91.5t-113 277.5v5q0 176 118 276.5t307 100.5q190 0 309 -99.5t119 -276.5v-7q0 -180 -116 -274t-311 -94zM470 132q125 0 190 50.5t65 166.5v1q0 121 -65.5 175.5t-188.5 54.5q-253 0 -253 -229v-1q0 -110 65.5 -164t186.5 -54zM396 807l189 229
h186l-241 -229h-134z" />
    <glyph glyph-name="Ocircumflex" unicode="&#xd4;" horiz-adv-x="943" 
d="M471 -20q-200 0 -313 91.5t-113 277.5v5q0 176 118 276.5t307 100.5q190 0 309 -99.5t119 -276.5v-7q0 -180 -116 -274t-311 -94zM470 132q125 0 190 50.5t65 166.5v1q0 121 -65.5 175.5t-188.5 54.5q-253 0 -253 -229v-1q0 -110 65.5 -164t186.5 -54zM576 812l-106 128
l-105 -128h-150l193 229h123l192 -229h-147z" />
    <glyph glyph-name="Otilde" unicode="&#xd5;" horiz-adv-x="943" 
d="M471 -20q-200 0 -313 91.5t-113 277.5v5q0 176 118 276.5t307 100.5q190 0 309 -99.5t119 -276.5v-7q0 -180 -116 -274t-311 -94zM470 132q125 0 190 50.5t65 166.5v1q0 121 -65.5 175.5t-188.5 54.5q-253 0 -253 -229v-1q0 -110 65.5 -164t186.5 -54zM211 801
q-1 79 34 127t115 48q37 0 73 -17t67 -34.5t54 -17.5q27 0 38 15.5t13 48.5h100q0 -85 -34 -130t-117 -45q-51 0 -110 33.5t-85 33.5q-46 0 -49 -62h-99z" />
    <glyph glyph-name="Odieresis" unicode="&#xd6;" horiz-adv-x="943" 
d="M471 -20q-200 0 -313 91.5t-113 277.5v5q0 176 118 276.5t307 100.5q190 0 309 -99.5t119 -276.5v-7q0 -180 -116 -274t-311 -94zM470 132q125 0 190 50.5t65 166.5v1q0 121 -65.5 175.5t-188.5 54.5q-253 0 -253 -229v-1q0 -110 65.5 -164t186.5 -54zM338 808
q-54 0 -77 21t-23 72q0 49 25 70.5t75 21.5q51 0 75 -21.5t24 -70.5t-24 -71t-75 -22zM605 808q-55 0 -77 20.5t-22 72.5q0 49 24 70.5t75 21.5q50 0 75 -21.5t25 -70.5t-24.5 -71t-75.5 -22z" />
    <glyph glyph-name="multiply" unicode="&#xd7;" horiz-adv-x="637" 
d="M499 90l-182 185l-187 -187l-95 98l187 187l-168 171l96 100l170 -174l175 175l95 -97l-175 -175l180 -185z" />
    <glyph glyph-name="Oslash" unicode="&#xd8;" horiz-adv-x="943" 
d="M218 350q0 -112 69 -167l257 392q-38 5 -73 5q-253 0 -253 -229v-1zM470 132q125 0 190 50.5t65 166.5v1q0 125 -73 182l-260 -393q34 -7 78 -7zM471 -20q-92 0 -170 20l-61 -90h-142l95 137q-148 91 -148 302v5q0 176 118 276.5t307 100.5q86 0 160 -21l54 82h142
l-87 -131q159 -101 159 -306v-7q0 -180 -116 -274t-311 -94z" />
    <glyph glyph-name="Ugrave" unicode="&#xd9;" horiz-adv-x="901" 
d="M451 -20q-194 0 -289.5 97.5t-95.5 316.5v319h176v-314q0 -140 52 -199t159 -59t156.5 57.5t49.5 200.5v314h176v-319q0 -217 -98.5 -315.5t-285.5 -98.5zM404 770l-251 229h187l199 -229h-135z" />
    <glyph glyph-name="Uacute" unicode="&#xda;" horiz-adv-x="901" 
d="M451 -20q-194 0 -289.5 97.5t-95.5 316.5v319h176v-314q0 -140 52 -199t159 -59t156.5 57.5t49.5 200.5v314h176v-319q0 -217 -98.5 -315.5t-285.5 -98.5zM377 787l189 229h186l-241 -229h-134z" />
    <glyph glyph-name="Ucircumflex" unicode="&#xdb;" horiz-adv-x="901" 
d="M451 -20q-194 0 -289.5 97.5t-95.5 316.5v319h176v-314q0 -140 52 -199t159 -59t156.5 57.5t49.5 200.5v314h176v-319q0 -217 -98.5 -315.5t-285.5 -98.5zM567 787l-106 128l-105 -128h-150l193 229h123l192 -229h-147z" />
    <glyph glyph-name="Udieresis" unicode="&#xdc;" horiz-adv-x="901" 
d="M451 -20q-194 0 -289.5 97.5t-95.5 316.5v319h176v-314q0 -140 52 -199t159 -59t156.5 57.5t49.5 200.5v314h176v-319q0 -217 -98.5 -315.5t-285.5 -98.5zM329 783q-54 0 -77 21t-23 72q0 49 25 70.5t75 21.5q51 0 75 -21.5t24 -70.5t-24 -71t-75 -22zM596 783
q-55 0 -77 20.5t-22 72.5q0 49 24 70.5t75 21.5q50 0 75 -21.5t25 -70.5t-24.5 -71t-75.5 -22z" />
    <glyph glyph-name="Yacute" unicode="&#xdd;" horiz-adv-x="816" 
d="M474 0h-175v293l-322 420h206l207 -284l224 284h205l-345 -423v-290zM341 774l189 229h186l-241 -229h-134z" />
    <glyph glyph-name="Thorn" unicode="&#xde;" horiz-adv-x="848" 
d="M445 466h-199v-210h204q110 0 153 22t43 79q0 69 -44 89t-157 20zM460 115h-214v-115h-166v713h166v-106h198q200 0 285.5 -59.5t85.5 -191.5q0 -244 -355 -241z" />
    <glyph glyph-name="germandbls" unicode="&#xdf;" horiz-adv-x="872" 
d="M524 -9q-101 0 -157 14v138q75 -13 127 -13q101 0 136 22.5t35 69.5q0 45 -41.5 66t-144.5 21h-113v128h98q89 0 129.5 16t40.5 52q0 44 -37.5 67t-140.5 23q-121 0 -168 -31.5t-47 -104.5v-459h-172v467q0 128 97.5 196t288.5 68q353 0 353 -203q0 -69 -40.5 -104.5
t-118.5 -47.5q96 -13 144.5 -55.5t48.5 -122.5q0 -110 -74 -158.5t-244 -48.5z" />
    <glyph glyph-name="agrave" unicode="&#xe0;" horiz-adv-x="815" 
d="M331 101q110 0 185 53.5t75 120.5v4q-24 -32 -149 -39q-152 -8 -191 -28q-36 -18 -36 -52v-1q0 -58 116 -58zM614 0l-15 136q-37 -71 -118.5 -113t-200.5 -42q-245 0 -245 163v1q0 103 91 146q45 21 106.5 32t194.5 18q98 5 130 15.5t32 38.5v1q0 33 -38 54.5t-124 21.5
q-107 0 -152 -23t-51 -75h-175q26 220 363 220q176 0 258 -51.5t82 -185.5v-357h-138zM351 679l-251 229h187l199 -229h-135z" />
    <glyph glyph-name="aacute" unicode="&#xe1;" horiz-adv-x="815" 
d="M331 101q110 0 185 53.5t75 120.5v4q-24 -32 -149 -39q-152 -8 -191 -28q-36 -18 -36 -52v-1q0 -58 116 -58zM614 0l-15 136q-37 -71 -118.5 -113t-200.5 -42q-245 0 -245 163v1q0 103 91 146q45 21 106.5 32t194.5 18q98 5 130 15.5t32 38.5v1q0 33 -38 54.5t-124 21.5
q-107 0 -152 -23t-51 -75h-175q26 220 363 220q176 0 258 -51.5t82 -185.5v-357h-138zM349 679l189 229h186l-241 -229h-134z" />
    <glyph glyph-name="acircumflex" unicode="&#xe2;" horiz-adv-x="815" 
d="M331 101q110 0 185 53.5t75 120.5v4q-24 -32 -149 -39q-152 -8 -191 -28q-36 -18 -36 -52v-1q0 -58 116 -58zM614 0l-15 136q-37 -71 -118.5 -113t-200.5 -42q-245 0 -245 163v1q0 103 91 146q45 21 106.5 32t194.5 18q98 5 130 15.5t32 38.5v1q0 33 -38 54.5t-124 21.5
q-107 0 -152 -23t-51 -75h-175q26 220 363 220q176 0 258 -51.5t82 -185.5v-357h-138zM521 679l-106 128l-105 -128h-150l193 229h123l192 -229h-147z" />
    <glyph glyph-name="atilde" unicode="&#xe3;" horiz-adv-x="815" 
d="M331 101q110 0 185 53.5t75 120.5v4q-24 -32 -149 -39q-152 -8 -191 -28q-36 -18 -36 -52v-1q0 -58 116 -58zM614 0l-15 136q-37 -71 -118.5 -113t-200.5 -42q-245 0 -245 163v1q0 103 91 146q45 21 106.5 32t194.5 18q98 5 130 15.5t32 38.5v1q0 33 -38 54.5t-124 21.5
q-107 0 -152 -23t-51 -75h-175q26 220 363 220q176 0 258 -51.5t82 -185.5v-357h-138zM156 668q-1 79 34 127t115 48q37 0 73 -17.5t67 -34.5t54 -17q27 0 38 15.5t13 48.5h100q0 -85 -34 -130t-117 -45q-51 0 -110 33.5t-85 33.5q-46 0 -49 -62h-99z" />
    <glyph glyph-name="adieresis" unicode="&#xe4;" horiz-adv-x="815" 
d="M331 101q110 0 185 53.5t75 120.5v4q-24 -32 -149 -39q-152 -8 -191 -28q-36 -18 -36 -52v-1q0 -58 116 -58zM614 0l-15 136q-37 -71 -118.5 -113t-200.5 -42q-245 0 -245 163v1q0 103 91 146q45 21 106.5 32t194.5 18q98 5 130 15.5t32 38.5v1q0 33 -38 54.5t-124 21.5
q-107 0 -152 -23t-51 -75h-175q26 220 363 220q176 0 258 -51.5t82 -185.5v-357h-138zM283 675q-54 0 -77 21t-23 72q0 49 25 70.5t75 21.5q51 0 75 -21.5t24 -70.5t-24 -71t-75 -22zM550 675q-55 0 -77 20.5t-22 72.5q0 49 24 70.5t75 21.5q50 0 75 -21.5t25 -70.5
t-24.5 -71t-75.5 -22z" />
    <glyph glyph-name="aring" unicode="&#xe5;" horiz-adv-x="815" 
d="M331 101q110 0 185 53.5t75 120.5v4q-24 -32 -149 -39q-152 -8 -191 -28q-36 -18 -36 -52v-1q0 -58 116 -58zM614 0l-15 136q-37 -71 -118.5 -113t-200.5 -42q-245 0 -245 163v1q0 103 91 146q45 21 106.5 32t194.5 18q98 5 130 15.5t32 38.5v1q0 33 -38 54.5t-124 21.5
q-107 0 -152 -23t-51 -75h-175q26 220 363 220q176 0 258 -51.5t82 -185.5v-357h-138zM410 671q-75 0 -116.5 41.5t-41.5 114.5q0 74 43 116t115 42q75 0 117.5 -41.5t42.5 -116.5q0 -70 -43 -113t-117 -43zM410 770q22 0 41 15t19 42q0 30 -16 45.5t-44 15.5t-44 -16
t-16 -45q0 -57 60 -57z" />
    <glyph glyph-name="ae" unicode="&#xe6;" horiz-adv-x="1382" 
d="M1342 173q-45 -107 -140.5 -149.5t-244.5 -42.5q-250 0 -329 144q-41 -67 -130 -105.5t-211 -38.5q-250 0 -250 163v1q0 103 91 146q45 21 106.5 32t194.5 18q98 5 130 15.5t32 38.5v1q0 33 -38 54.5t-124 21.5q-107 0 -152 -23t-51 -75h-175q26 220 363 220
q204 0 279 -84q99 85 277 85t278 -82t100 -226v-61h-602q14 -57 66.5 -84.5t158.5 -27.5q75 0 115.5 13.5t63.5 45.5h192zM975 463q-190 0 -226 -114h432q-14 61 -62.5 87.5t-143.5 26.5zM333 101q110 0 185 53.5t75 120.5v4q-24 -32 -149 -39q-152 -8 -191 -28
q-36 -18 -36 -52v-1q0 -58 116 -58z" />
    <glyph glyph-name="ccedilla" unicode="&#xe7;" horiz-adv-x="839" 
d="M441 -350q-112 0 -165 39.5t-68 113.5h137q4 -29 29.5 -45.5t64.5 -16.5q41 0 63 14.5t22 39.5q0 45 -93 45h-66v142h11q-175 9 -254 85.5t-79 215.5q0 143 103.5 227.5t277.5 84.5q172 0 270.5 -69t115.5 -197h-183q-11 65 -59.5 97t-141.5 32q-210 0 -210 -175
q0 -82 50.5 -122.5t157.5 -40.5q97 0 145 33t58 100h183q-9 -119 -96.5 -191t-253.5 -80h24v-60q77 -3 116.5 -36.5t39.5 -87.5q0 -69 -52 -108.5t-147 -39.5z" />
    <glyph glyph-name="egrave" unicode="&#xe8;" horiz-adv-x="844" 
d="M797 171q-45 -102 -140 -146t-244 -44q-370 0 -370 295q0 136 100 227.5t283 91.5q178 0 278 -82t100 -226v-61h-600q15 -58 68 -86t155 -28q141 0 183 59h187zM431 465q-185 0 -223 -118h428q-14 62 -63.5 90t-141.5 28zM375 680l-251 229h187l199 -229h-135z" />
    <glyph glyph-name="eacute" unicode="&#xe9;" horiz-adv-x="844" 
d="M797 171q-45 -102 -140 -146t-244 -44q-370 0 -370 295q0 136 100 227.5t283 91.5q178 0 278 -82t100 -226v-61h-600q15 -58 68 -86t155 -28q141 0 183 59h187zM431 465q-185 0 -223 -118h428q-14 62 -63.5 90t-141.5 28zM373 680l189 229h186l-241 -229h-134z" />
    <glyph glyph-name="ecircumflex" unicode="&#xea;" horiz-adv-x="844" 
d="M797 171q-45 -102 -140 -146t-244 -44q-370 0 -370 295q0 136 100 227.5t283 91.5q178 0 278 -82t100 -226v-61h-600q15 -58 68 -86t155 -28q141 0 183 59h187zM431 465q-185 0 -223 -118h428q-14 62 -63.5 90t-141.5 28zM545 680l-106 128l-105 -128h-150l193 229h123
l192 -229h-147z" />
    <glyph glyph-name="edieresis" unicode="&#xeb;" horiz-adv-x="844" 
d="M797 171q-45 -102 -140 -146t-244 -44q-370 0 -370 295q0 136 100 227.5t283 91.5q178 0 278 -82t100 -226v-61h-600q15 -58 68 -86t155 -28q141 0 183 59h187zM431 465q-185 0 -223 -118h428q-14 62 -63.5 90t-141.5 28zM307 676q-54 0 -77 21t-23 72q0 49 25 70.5
t75 21.5q51 0 75 -21.5t24 -70.5t-24 -71t-75 -22zM574 676q-55 0 -77 20.5t-22 72.5q0 49 24 70.5t75 21.5q50 0 75 -21.5t25 -70.5t-24.5 -71t-75.5 -22z" />
    <glyph glyph-name="igrave" unicode="&#xec;" horiz-adv-x="317" 
d="M246 0h-175v574h175v-574zM98 658l-251 229h187l199 -229h-135z" />
    <glyph glyph-name="iacute" unicode="&#xed;" horiz-adv-x="317" 
d="M246 0h-175v574h175v-574zM96 658l189 229h186l-241 -229h-134z" />
    <glyph glyph-name="icircumflex" unicode="&#xee;" horiz-adv-x="317" 
d="M246 0h-175v574h175v-574zM268 658l-106 128l-105 -128h-150l193 229h123l192 -229h-147z" />
    <glyph glyph-name="idieresis" unicode="&#xef;" horiz-adv-x="317" 
d="M246 0h-175v574h175v-574zM30 654q-54 0 -77 21t-23 72q0 49 25 70.5t75 21.5q51 0 75 -21.5t24 -70.5t-24 -71t-75 -22zM297 654q-55 0 -77 20.5t-22 72.5q0 49 24 70.5t75 21.5q50 0 75 -21.5t25 -70.5t-24.5 -71t-75.5 -22z" />
    <glyph glyph-name="eth" unicode="&#xf0;" horiz-adv-x="857" 
d="M426 -19q-203 0 -293 69.5t-90 202.5q0 131 85 206t244 75q189 0 259 -117q-45 110 -193 213l-93 -52h-178l188 105q-84 50 -210 109h256q52 -26 76 -41l72 41h177l-168 -95q121 -91 188.5 -203.5t67.5 -219.5q0 -144 -93 -218.5t-295 -74.5zM431 120q117 0 165.5 32
t48.5 104q0 74 -50 108.5t-162 34.5q-110 0 -163 -34.5t-53 -108.5q0 -71 50 -103.5t164 -32.5z" />
    <glyph glyph-name="ntilde" unicode="&#xf1;" horiz-adv-x="834" 
d="M240 254v-254h-173v574h148l14 -125q74 146 258 146q134 0 209 -75.5t75 -205.5v-314h-172v273q0 91 -39 138t-130 47q-98 0 -144 -50.5t-46 -153.5zM154 657q-1 79 34 127t115 48q37 0 73 -17t67 -34.5t54 -17.5q27 0 38 15.5t13 48.5h100q0 -85 -34 -130t-117 -45
q-51 0 -110 33.5t-85 33.5q-46 0 -49 -62h-99z" />
    <glyph glyph-name="ograve" unicode="&#xf2;" horiz-adv-x="849" 
d="M419 -19q-198 0 -287 77.5t-89 224.5q0 143 103.5 227.5t277.5 84.5q177 0 279.5 -82.5t102.5 -229.5q0 -140 -96 -221t-291 -81zM424 120q111 0 160 41t49 122q0 88 -50 131.5t-157 43.5q-210 0 -210 -175q0 -82 50.5 -122.5t157.5 -40.5zM353 679l-251 229h187
l199 -229h-135z" />
    <glyph glyph-name="oacute" unicode="&#xf3;" horiz-adv-x="849" 
d="M419 -19q-198 0 -287 77.5t-89 224.5q0 143 103.5 227.5t277.5 84.5q177 0 279.5 -82.5t102.5 -229.5q0 -140 -96 -221t-291 -81zM424 120q111 0 160 41t49 122q0 88 -50 131.5t-157 43.5q-210 0 -210 -175q0 -82 50.5 -122.5t157.5 -40.5zM355 664l189 229h186
l-241 -229h-134z" />
    <glyph glyph-name="ocircumflex" unicode="&#xf4;" horiz-adv-x="849" 
d="M419 -19q-198 0 -287 77.5t-89 224.5q0 143 103.5 227.5t277.5 84.5q177 0 279.5 -82.5t102.5 -229.5q0 -140 -96 -221t-291 -81zM424 120q111 0 160 41t49 122q0 88 -50 131.5t-157 43.5q-210 0 -210 -175q0 -82 50.5 -122.5t157.5 -40.5zM527 661l-106 128l-105 -128
h-150l193 229h123l192 -229h-147z" />
    <glyph glyph-name="otilde" unicode="&#xf5;" horiz-adv-x="849" 
d="M419 -19q-198 0 -287 77.5t-89 224.5q0 143 103.5 227.5t277.5 84.5q177 0 279.5 -82.5t102.5 -229.5q0 -140 -96 -221t-291 -81zM424 120q111 0 160 41t49 122q0 88 -50 131.5t-157 43.5q-210 0 -210 -175q0 -82 50.5 -122.5t157.5 -40.5zM171 652q-1 79 34 127t115 48
q37 0 73 -17.5t67 -34.5t54 -17q27 0 38 15.5t13 48.5h100q0 -85 -34 -130t-117 -45q-51 0 -110 33.5t-85 33.5q-46 0 -49 -62h-99z" />
    <glyph glyph-name="odieresis" unicode="&#xf6;" horiz-adv-x="849" 
d="M419 -19q-198 0 -287 77.5t-89 224.5q0 143 103.5 227.5t277.5 84.5q177 0 279.5 -82.5t102.5 -229.5q0 -140 -96 -221t-291 -81zM424 120q111 0 160 41t49 122q0 88 -50 131.5t-157 43.5q-210 0 -210 -175q0 -82 50.5 -122.5t157.5 -40.5zM296 660q-54 0 -77 21t-23 72
q0 49 25 70.5t75 21.5q51 0 75 -21.5t24 -70.5t-24 -71t-75 -22zM563 660q-55 0 -77 20.5t-22 72.5q0 49 24 70.5t75 21.5q50 0 75 -21.5t25 -70.5t-24.5 -71t-75.5 -22z" />
    <glyph glyph-name="divide" unicode="&#xf7;" horiz-adv-x="652" 
d="M329 518q-47 0 -66.5 19t-19.5 66q0 45 21.5 64.5t64.5 19.5q84 0 84 -84q0 -44 -20.5 -64.5t-63.5 -20.5zM618 290h-577v148h577v-148zM329 46q-47 0 -66.5 19.5t-19.5 66.5q0 45 21.5 64.5t64.5 19.5q84 0 84 -84q0 -86 -84 -86z" />
    <glyph glyph-name="oslash" unicode="&#xf8;" horiz-adv-x="865" 
d="M215 286q0 -91 61 -132l196 301q-12 1 -37 1q-220 0 -220 -170zM433 120q116 0 167.5 40.5t51.5 125.5q0 89 -59 132l-194 -297q11 -1 34 -1zM428 -19q-60 0 -114 8l-52 -79h-153l79 115q-145 71 -145 258q0 143 106.5 227.5t283.5 84.5q63 0 123 -11l55 82h149l-84 -124
q146 -82 146 -256q0 -142 -97.5 -223.5t-296.5 -81.5z" />
    <glyph glyph-name="ugrave" unicode="&#xf9;" horiz-adv-x="814" 
d="M601 0l-15 130q-29 -70 -92.5 -109.5t-157.5 -39.5q-132 0 -203 74.5t-71 204.5v314h172v-280q0 -88 40.5 -131t131.5 -43q81 0 124.5 49t43.5 135v270h173v-574h-146zM345 642l-251 229h187l199 -229h-135z" />
    <glyph glyph-name="uacute" unicode="&#xfa;" horiz-adv-x="814" 
d="M601 0l-15 130q-29 -70 -92.5 -109.5t-157.5 -39.5q-132 0 -203 74.5t-71 204.5v314h172v-280q0 -88 40.5 -131t131.5 -43q81 0 124.5 49t43.5 135v270h173v-574h-146zM343 642l189 229h186l-241 -229h-134z" />
    <glyph glyph-name="ucircumflex" unicode="&#xfb;" horiz-adv-x="814" 
d="M601 0l-15 130q-29 -70 -92.5 -109.5t-157.5 -39.5q-132 0 -203 74.5t-71 204.5v314h172v-280q0 -88 40.5 -131t131.5 -43q81 0 124.5 49t43.5 135v270h173v-574h-146zM515 642l-106 128l-105 -128h-150l193 229h123l192 -229h-147z" />
    <glyph glyph-name="udieresis" unicode="&#xfc;" horiz-adv-x="814" 
d="M601 0l-15 130q-29 -70 -92.5 -109.5t-157.5 -39.5q-132 0 -203 74.5t-71 204.5v314h172v-280q0 -88 40.5 -131t131.5 -43q81 0 124.5 49t43.5 135v270h173v-574h-146zM277 638q-54 0 -77 21t-23 72q0 49 25 70.5t75 21.5q51 0 75 -21.5t24 -70.5t-24 -71t-75 -22z
M544 638q-55 0 -77 20.5t-22 72.5q0 49 24 70.5t75 21.5q50 0 75 -21.5t25 -70.5t-24.5 -71t-75.5 -22z" />
    <glyph glyph-name="yacute" unicode="&#xfd;" horiz-adv-x="796" 
d="M109 -258h-75v147h83q71 0 106 23t70 83l19 34l-313 545h186l209 -377l7 -18l7 16l208 379h183l-349 -609q-44 -76 -73.5 -116.5t-69 -66.5t-82.5 -33t-116 -7zM334 649l189 229h186l-241 -229h-134z" />
    <glyph glyph-name="thorn" unicode="&#xfe;" horiz-adv-x="866" 
d="M441 120q111 0 160 41t49 122q0 88 -50 131.5t-157 43.5q-100 0 -155 -45.5t-55 -129.5q0 -163 208 -163zM494 -17q-188 0 -258 103v-292h-166v943h166v-269q76 125 263 125q152 0 238 -80t86 -230q0 -144 -95 -222t-234 -78z" />
    <glyph glyph-name="ydieresis" unicode="&#xff;" horiz-adv-x="796" 
d="M109 -258h-75v147h83q71 0 106 23t70 83l19 34l-313 545h186l209 -377l7 -18l7 16l208 379h183l-349 -609q-44 -76 -73.5 -116.5t-69 -66.5t-82.5 -33t-116 -7zM268 645q-54 0 -77 21t-23 72q0 49 25 70.5t75 21.5q51 0 75 -21.5t24 -70.5t-24 -71t-75 -22zM535 645
q-55 0 -77 20.5t-22 72.5q0 49 24 70.5t75 21.5q50 0 75 -21.5t25 -70.5t-24.5 -71t-75.5 -22z" />
    <glyph glyph-name="Amacron" unicode="&#x100;" horiz-adv-x="906" 
d="M583 291l-133 271l-129 -271h262zM727 0l-76 155h-395l-74 -155h-181l361 713h177l367 -713h-179zM241 791v122h429v-122h-429z" />
    <glyph glyph-name="amacron" unicode="&#x101;" horiz-adv-x="815" 
d="M331 101q110 0 185 53.5t75 120.5v4q-24 -32 -149 -39q-152 -8 -191 -28q-36 -18 -36 -52v-1q0 -58 116 -58zM614 0l-15 136q-37 -71 -118.5 -113t-200.5 -42q-245 0 -245 163v1q0 103 91 146q45 21 106.5 32t194.5 18q98 5 130 15.5t32 38.5v1q0 33 -38 54.5t-124 21.5
q-107 0 -152 -23t-51 -75h-175q26 220 363 220q176 0 258 -51.5t82 -185.5v-357h-138zM206 673v122h429v-122h-429z" />
    <glyph glyph-name="Abreve" unicode="&#x102;" horiz-adv-x="906" 
d="M583 291l-133 271l-129 -271h262zM727 0l-76 155h-395l-74 -155h-181l361 713h177l367 -713h-179zM447 794q-147 0 -203 59t-56 180h121q0 -66 32.5 -94.5t106.5 -29.5q74 1 106.5 29.5t32.5 94.5h124q0 -117 -63 -178t-201 -61z" />
    <glyph glyph-name="abreve" unicode="&#x103;" horiz-adv-x="815" 
d="M331 101q110 0 185 53.5t75 120.5v4q-24 -32 -149 -39q-152 -8 -191 -28q-36 -18 -36 -52v-1q0 -58 116 -58zM614 0l-15 136q-37 -71 -118.5 -113t-200.5 -42q-245 0 -245 163v1q0 103 91 146q45 21 106.5 32t194.5 18q98 5 130 15.5t32 38.5v1q0 33 -38 54.5t-124 21.5
q-107 0 -152 -23t-51 -75h-175q26 220 363 220q176 0 258 -51.5t82 -185.5v-357h-138zM412 676q-147 0 -203 59t-56 180h121q0 -66 32.5 -94.5t106.5 -29.5q74 1 106.5 29.5t32.5 94.5h124q0 -117 -63 -178t-201 -61z" />
    <glyph glyph-name="Aogonek" unicode="&#x104;" horiz-adv-x="906" 
d="M583 291l-133 271l-129 -271h262zM1027 -144q-62 -138 -221 -138q-84 0 -131 33.5t-47 96.5q0 43 20.5 80.5t76.5 74.5l-74 152h-395l-74 -155h-181l361 713h177l367 -713q-95 -56 -125.5 -82.5t-30.5 -56.5q0 -22 18 -35t48 -13q23 0 42.5 12.5t29.5 30.5h139z" />
    <glyph glyph-name="aogonek" unicode="&#x105;" horiz-adv-x="815" 
d="M331 101q110 0 185 53.5t75 120.5v4q-24 -32 -149 -39q-152 -8 -191 -28q-36 -18 -36 -52v-1q0 -58 116 -58zM871 -144q-62 -138 -221 -138q-84 0 -131 33.5t-47 96.5q0 51 29 93.5t110 86.5l-12 108q-37 -71 -118.5 -113t-200.5 -42q-245 0 -245 163v1q0 103 91 146
q45 21 106.5 32t194.5 18q98 5 130 15.5t32 38.5v1q0 33 -38 54.5t-124 21.5q-107 0 -152 -23t-51 -75h-175q26 220 363 220q176 0 258 -51.5t82 -185.5v-357h-2q-95 -56 -125.5 -82.5t-30.5 -56.5q0 -22 18 -35t48 -13q23 0 42.5 12.5t29.5 30.5h139z" />
    <glyph glyph-name="Cacute" unicode="&#x106;" horiz-adv-x="922" 
d="M899 303q-50 -323 -436 -323q-198 0 -308 90t-110 279v5q0 176 120.5 276.5t314.5 100.5q168 0 277 -75.5t138 -224.5h-181q-29 149 -233 149q-263 0 -263 -227v-2q0 -219 256 -219q115 0 172.5 43t69.5 128h183zM397 812l189 229h186l-241 -229h-134z" />
    <glyph glyph-name="cacute" unicode="&#x107;" horiz-adv-x="839" 
d="M810 253q-10 -127 -107.5 -199.5t-283.5 -72.5q-198 0 -287 77.5t-89 224.5q0 143 103.5 227.5t277.5 84.5q172 0 270.5 -69t115.5 -197h-183q-11 65 -59.5 97t-141.5 32q-210 0 -210 -175q0 -82 50.5 -122.5t157.5 -40.5q97 0 145 33t58 100h183zM368 679l189 229h186
l-241 -229h-134z" />
    <glyph glyph-name="Ccircumflex" unicode="&#x108;" horiz-adv-x="922" 
d="M899 303q-50 -323 -436 -323q-198 0 -308 90t-110 279v5q0 176 120.5 276.5t314.5 100.5q168 0 277 -75.5t138 -224.5h-181q-29 149 -233 149q-263 0 -263 -227v-2q0 -219 256 -219q115 0 172.5 43t69.5 128h183zM569 812l-106 128l-105 -128h-150l193 229h123l192 -229
h-147z" />
    <glyph glyph-name="ccircumflex" unicode="&#x109;" horiz-adv-x="839" 
d="M810 253q-10 -127 -107.5 -199.5t-283.5 -72.5q-198 0 -287 77.5t-89 224.5q0 143 103.5 227.5t277.5 84.5q172 0 270.5 -69t115.5 -197h-183q-11 65 -59.5 97t-141.5 32q-210 0 -210 -175q0 -82 50.5 -122.5t157.5 -40.5q97 0 145 33t58 100h183zM540 679l-106 128
l-105 -128h-150l193 229h123l192 -229h-147z" />
    <glyph glyph-name="Cdotaccent" unicode="&#x10a;" horiz-adv-x="922" 
d="M899 303q-50 -323 -436 -323q-198 0 -308 90t-110 279v5q0 176 120.5 276.5t314.5 100.5q168 0 277 -75.5t138 -224.5h-181q-29 149 -233 149q-263 0 -263 -227v-2q0 -219 256 -219q115 0 172.5 43t69.5 128h183zM463 807q-60 0 -85 23t-25 80q0 54 27 77.5t83 23.5
t83 -23.5t27 -77.5t-27 -78.5t-83 -24.5z" />
    <glyph glyph-name="cdotaccent" unicode="&#x10b;" horiz-adv-x="839" 
d="M810 253q-10 -127 -107.5 -199.5t-283.5 -72.5q-198 0 -287 77.5t-89 224.5q0 143 103.5 227.5t277.5 84.5q172 0 270.5 -69t115.5 -197h-183q-11 65 -59.5 97t-141.5 32q-210 0 -210 -175q0 -82 50.5 -122.5t157.5 -40.5q97 0 145 33t58 100h183zM434 674q-60 0 -85 23
t-25 80q0 54 27 77.5t83 23.5t83 -23.5t27 -77.5t-27 -78.5t-83 -24.5z" />
    <glyph glyph-name="Ccaron" unicode="&#x10c;" horiz-adv-x="922" 
d="M899 303q-50 -323 -436 -323q-198 0 -308 90t-110 279v5q0 176 120.5 276.5t314.5 100.5q168 0 277 -75.5t138 -224.5h-181q-29 149 -233 149q-263 0 -263 -227v-2q0 -219 256 -219q115 0 172.5 43t69.5 128h183zM522 812h-123l-193 239h149l105 -132l107 132h147z" />
    <glyph glyph-name="ccaron" unicode="&#x10d;" horiz-adv-x="839" 
d="M810 253q-10 -127 -107.5 -199.5t-283.5 -72.5q-198 0 -287 77.5t-89 224.5q0 143 103.5 227.5t277.5 84.5q172 0 270.5 -69t115.5 -197h-183q-11 65 -59.5 97t-141.5 32q-210 0 -210 -175q0 -82 50.5 -122.5t157.5 -40.5q97 0 145 33t58 100h183zM493 679h-123l-193 239
h149l105 -132l107 132h147z" />
    <glyph glyph-name="Dcaron" unicode="&#x10e;" horiz-adv-x="900" 
d="M80 0v713h332q222 0 332.5 -86.5t110.5 -271.5v-5q0 -182 -109 -266t-324 -84h-342zM405 568h-159v-422h167q149 0 210 46.5t61 160.5v3q0 116 -63.5 164t-215.5 48zM514 797h-123l-193 239h149l105 -132l107 132h147z" />
    <glyph glyph-name="dcaron" unicode="&#x10f;" horiz-adv-x="861" 
d="M422 120q211 0 211 163q0 84 -55 129.5t-155 45.5q-207 0 -207 -176q0 -84 48.5 -123t157.5 -39zM647 0l-12 109q-66 -126 -264 -126q-148 0 -238 73t-90 226q0 146 90 228.5t245 82.5q173 0 249 -113v280h166v-760h-146zM865 648l52 209h149l-89 -209h-112z" />
    <glyph glyph-name="Dcroat" unicode="&#x110;" horiz-adv-x="936" 
d="M452 0h-342v275h-120v149h120v289h332q222 0 332.5 -86.5t110.5 -271.5v-5q0 -182 -109 -266t-324 -84zM476 275h-200v-129h167q149 0 210 46.5t61 160.5v3q0 116 -63.5 164t-215.5 48h-159v-144h200v-149z" />
    <glyph glyph-name="dcroat" unicode="&#x111;" horiz-adv-x="866" 
d="M422 120q211 0 211 163q0 84 -55 129.5t-155 45.5q-207 0 -207 -176q0 -84 48.5 -123t157.5 -39zM635 109q-66 -126 -264 -126q-148 0 -238 73t-90 226q0 146 90 228.5t245 82.5q173 0 249 -113v124h-108v81h108v75h166v-75h78v-81h-78v-604h-146z" />
    <glyph glyph-name="Emacron" unicode="&#x112;" horiz-adv-x="819" 
d="M782 146v-146h-702v713h681v-141h-520v-144h440v-141h-440v-141h541zM215 791v122h429v-122h-429z" />
    <glyph glyph-name="emacron" unicode="&#x113;" horiz-adv-x="844" 
d="M797 171q-45 -102 -140 -146t-244 -44q-370 0 -370 295q0 136 100 227.5t283 91.5q178 0 278 -82t100 -226v-61h-600q15 -58 68 -86t155 -28q141 0 183 59h187zM431 465q-185 0 -223 -118h428q-14 62 -63.5 90t-141.5 28zM230 674v122h429v-122h-429z" />
    <glyph glyph-name="Ebreve" unicode="&#x114;" horiz-adv-x="819" 
d="M782 146v-146h-702v713h681v-141h-520v-144h440v-141h-440v-141h541zM421 794q-147 0 -203 59t-56 180h121q0 -66 32.5 -94.5t106.5 -29.5q74 1 106.5 29.5t32.5 94.5h124q0 -117 -63 -178t-201 -61z" />
    <glyph glyph-name="ebreve" unicode="&#x115;" horiz-adv-x="844" 
d="M797 171q-45 -102 -140 -146t-244 -44q-370 0 -370 295q0 136 100 227.5t283 91.5q178 0 278 -82t100 -226v-61h-600q15 -58 68 -86t155 -28q141 0 183 59h187zM431 465q-185 0 -223 -118h428q-14 62 -63.5 90t-141.5 28zM436 677q-147 0 -203 59t-56 180h121
q0 -66 32.5 -94.5t106.5 -29.5q74 1 106.5 29.5t32.5 94.5h124q0 -117 -63 -178t-201 -61z" />
    <glyph glyph-name="Edotaccent" unicode="&#x116;" horiz-adv-x="819" 
d="M782 146v-146h-702v713h681v-141h-520v-144h440v-141h-440v-141h541zM424 792q-60 0 -85 23t-25 80q0 54 27 77.5t83 23.5t83 -23.5t27 -77.5t-27 -78.5t-83 -24.5z" />
    <glyph glyph-name="edotaccent" unicode="&#x117;" horiz-adv-x="844" 
d="M797 171q-45 -102 -140 -146t-244 -44q-370 0 -370 295q0 136 100 227.5t283 91.5q178 0 278 -82t100 -226v-61h-600q15 -58 68 -86t155 -28q141 0 183 59h187zM431 465q-185 0 -223 -118h428q-14 62 -63.5 90t-141.5 28zM439 675q-60 0 -85 23t-25 80q0 54 27 77.5
t83 23.5t83 -23.5t27 -77.5t-27 -78.5t-83 -24.5z" />
    <glyph glyph-name="Eogonek" unicode="&#x118;" horiz-adv-x="819" 
d="M903 -144q-62 -138 -221 -138q-84 0 -131 33.5t-47 96.5q0 43 19.5 79t72.5 73h-516v713h681v-141h-520v-144h440v-141h-440v-141h541v-146q-95 -56 -125.5 -82.5t-30.5 -56.5q0 -22 18 -35t48 -13q23 0 42.5 12.5t29.5 30.5h139z" />
    <glyph glyph-name="eogonek" unicode="&#x119;" horiz-adv-x="844" 
d="M541 -259q-84 0 -131 33.5t-47 96.5q0 65 43 110q-363 3 -363 295q0 136 100 227.5t283 91.5q178 0 278 -82t100 -226v-61h-600q15 -58 68 -86t155 -28q141 0 183 59h187q-53 -120 -180 -162q-79 -48 -105.5 -72t-26.5 -53q0 -22 18 -35t48 -13q23 0 42.5 12.5t29.5 30.5
h139q-62 -138 -221 -138zM431 465q-185 0 -223 -118h428q-14 62 -63.5 90t-141.5 28z" />
    <glyph glyph-name="Ecaron" unicode="&#x11a;" horiz-adv-x="819" 
d="M782 146v-146h-702v713h681v-141h-520v-144h440v-141h-440v-141h541zM483 797h-123l-193 239h149l105 -132l107 132h147z" />
    <glyph glyph-name="ecaron" unicode="&#x11b;" horiz-adv-x="844" 
d="M797 171q-45 -102 -140 -146t-244 -44q-370 0 -370 295q0 136 100 227.5t283 91.5q178 0 278 -82t100 -226v-61h-600q15 -58 68 -86t155 -28q141 0 183 59h187zM431 465q-185 0 -223 -118h428q-14 62 -63.5 90t-141.5 28zM498 680h-123l-193 239h149l105 -132l107 132
h147z" />
    <glyph glyph-name="Gcircumflex" unicode="&#x11c;" horiz-adv-x="959" 
d="M755 0l-10 195q-16 -106 -93.5 -160.5t-211.5 -54.5q-183 0 -289 91t-106 276v5q0 176 119 277.5t310 101.5q369 0 415 -268h-192q-24 117 -218 117q-261 0 -261 -231v-1q0 -224 252 -224q230 0 260 122h-279v139h443v-385h-139zM595 802l-106 128l-105 -128h-150
l193 229h123l192 -229h-147z" />
    <glyph glyph-name="gcircumflex" unicode="&#x11d;" horiz-adv-x="790" 
d="M792 -52q0 -209 -378 -209h-46q-185 0 -265 32.5t-80 100.5q0 58 47 88.5t154 39.5q-107 1 -155.5 23t-48.5 82q0 115 200 123q-87 13 -129.5 49t-42.5 108q0 94 87 147.5t257 53.5h23q61 0 89.5 1t46 6t20.5 11.5t3 22.5v8h188v-7q0 -46 -34 -55t-155 -8q-41 1 -65 1
q130 -8 188.5 -52t58.5 -129q0 -97 -83 -142t-253 -45h-68q-81 0 -121.5 -4.5t-52.5 -12.5t-12 -24q0 -19 38 -26t141 -6h158q155 0 222.5 -38.5t67.5 -133.5v-5zM401 308q99 0 145 19t46 60q0 45 -41.5 64t-139.5 19h-20q-95 0 -134.5 -20.5t-39.5 -66.5q0 -44 41.5 -59.5
t142.5 -15.5zM396 -129h38q111 0 155.5 18t44.5 51v5q0 30 -28.5 42.5t-123.5 12.5h-137q-76 0 -112 -15t-36 -51v-1q0 -35 46.5 -48.5t152.5 -13.5zM509 679l-106 128l-105 -128h-150l193 229h123l192 -229h-147z" />
    <glyph glyph-name="Gbreve" unicode="&#x11e;" horiz-adv-x="959" 
d="M755 0l-10 195q-16 -106 -93.5 -160.5t-211.5 -54.5q-183 0 -289 91t-106 276v5q0 176 119 277.5t310 101.5q369 0 415 -268h-192q-24 117 -218 117q-261 0 -261 -231v-1q0 -224 252 -224q230 0 260 122h-279v139h443v-385h-139zM486 809q-147 0 -203 59t-56 180h121
q0 -66 32.5 -94.5t106.5 -29.5q74 1 106.5 29.5t32.5 94.5h124q0 -117 -63 -178t-201 -61z" />
    <glyph glyph-name="gbreve" unicode="&#x11f;" horiz-adv-x="790" 
d="M792 -52q0 -209 -378 -209h-46q-185 0 -265 32.5t-80 100.5q0 58 47 88.5t154 39.5q-107 1 -155.5 23t-48.5 82q0 115 200 123q-87 13 -129.5 49t-42.5 108q0 94 87 147.5t257 53.5h23q61 0 89.5 1t46 6t20.5 11.5t3 22.5v8h188v-7q0 -46 -34 -55t-155 -8q-41 1 -65 1
q130 -8 188.5 -52t58.5 -129q0 -97 -83 -142t-253 -45h-68q-81 0 -121.5 -4.5t-52.5 -12.5t-12 -24q0 -19 38 -26t141 -6h158q155 0 222.5 -38.5t67.5 -133.5v-5zM401 308q99 0 145 19t46 60q0 45 -41.5 64t-139.5 19h-20q-95 0 -134.5 -20.5t-39.5 -66.5q0 -44 41.5 -59.5
t142.5 -15.5zM396 -129h38q111 0 155.5 18t44.5 51v5q0 30 -28.5 42.5t-123.5 12.5h-137q-76 0 -112 -15t-36 -51v-1q0 -35 46.5 -48.5t152.5 -13.5zM400 676q-147 0 -203 59t-56 180h121q0 -66 32.5 -94.5t106.5 -29.5q74 1 106.5 29.5t32.5 94.5h124q0 -117 -63 -178
t-201 -61z" />
    <glyph glyph-name="Gdotaccent" unicode="&#x120;" horiz-adv-x="959" 
d="M755 0l-10 195q-16 -106 -93.5 -160.5t-211.5 -54.5q-183 0 -289 91t-106 276v5q0 176 119 277.5t310 101.5q369 0 415 -268h-192q-24 117 -218 117q-261 0 -261 -231v-1q0 -224 252 -224q230 0 260 122h-279v139h443v-385h-139zM489 807q-60 0 -85 23t-25 80
q0 54 27 77.5t83 23.5t83 -23.5t27 -77.5t-27 -78.5t-83 -24.5z" />
    <glyph glyph-name="gdotaccent" unicode="&#x121;" horiz-adv-x="790" 
d="M792 -52q0 -209 -378 -209h-46q-185 0 -265 32.5t-80 100.5q0 58 47 88.5t154 39.5q-107 1 -155.5 23t-48.5 82q0 115 200 123q-87 13 -129.5 49t-42.5 108q0 94 87 147.5t257 53.5h23q61 0 89.5 1t46 6t20.5 11.5t3 22.5v8h188v-7q0 -46 -34 -55t-155 -8q-41 1 -65 1
q130 -8 188.5 -52t58.5 -129q0 -97 -83 -142t-253 -45h-68q-81 0 -121.5 -4.5t-52.5 -12.5t-12 -24q0 -19 38 -26t141 -6h158q155 0 222.5 -38.5t67.5 -133.5v-5zM401 308q99 0 145 19t46 60q0 45 -41.5 64t-139.5 19h-20q-95 0 -134.5 -20.5t-39.5 -66.5q0 -44 41.5 -59.5
t142.5 -15.5zM396 -129h38q111 0 155.5 18t44.5 51v5q0 30 -28.5 42.5t-123.5 12.5h-137q-76 0 -112 -15t-36 -51v-1q0 -35 46.5 -48.5t152.5 -13.5zM403 674q-60 0 -85 23t-25 80q0 54 27 77.5t83 23.5t83 -23.5t27 -77.5t-27 -78.5t-83 -24.5z" />
    <glyph glyph-name="uni0122" unicode="&#x122;" horiz-adv-x="959" 
d="M755 0l-10 195q-16 -106 -93.5 -160.5t-211.5 -54.5q-183 0 -289 91t-106 276v5q0 176 119 277.5t310 101.5q369 0 415 -268h-192q-24 117 -218 117q-261 0 -261 -231v-1q0 -224 252 -224q230 0 260 122h-279v139h443v-385h-139zM400 -327v67q111 4 125 57q-23 -6 -46 -6
q-56 0 -77 13.5t-21 55.5q0 40 26.5 56t89.5 16t89 -21.5t26 -76.5q0 -77 -47 -117.5t-165 -43.5z" />
    <glyph glyph-name="uni0123" unicode="&#x123;" horiz-adv-x="790" 
d="M792 -52q0 -209 -378 -209h-46q-185 0 -265 32.5t-80 100.5q0 58 47 88.5t154 39.5q-107 1 -155.5 23t-48.5 82q0 115 200 123q-87 13 -129.5 49t-42.5 108q0 94 87 147.5t257 53.5h23q61 0 89.5 1t46 6t20.5 11.5t3 22.5v8h188v-7q0 -46 -34 -55t-155 -8q-41 1 -65 1
q130 -8 188.5 -52t58.5 -129q0 -97 -83 -142t-253 -45h-68q-81 0 -121.5 -4.5t-52.5 -12.5t-12 -24q0 -19 38 -26t141 -6h158q155 0 222.5 -38.5t67.5 -133.5v-5zM401 308q99 0 145 19t46 60q0 45 -41.5 64t-139.5 19h-20q-95 0 -134.5 -20.5t-39.5 -66.5q0 -44 41.5 -59.5
t142.5 -15.5zM396 -129h38q111 0 155.5 18t44.5 51v5q0 30 -28.5 42.5t-123.5 12.5h-137q-76 0 -112 -15t-36 -51v-1q0 -35 46.5 -48.5t152.5 -13.5zM401 669q-63 0 -89 21.5t-26 76.5q0 77 47 117.5t165 43.5v-67q-111 -4 -125 -57q23 6 46 6q56 0 77 -13.5t21 -55.5
q0 -40 -26.5 -56t-89.5 -16z" />
    <glyph glyph-name="Hcircumflex" unicode="&#x124;" horiz-adv-x="910" 
d="M663 0v276h-415v-276h-168v713h168v-277h415v277h166v-713h-166zM566 773l-106 128l-105 -128h-150l193 229h123l192 -229h-147z" />
    <glyph glyph-name="hcircumflex" unicode="&#x125;" horiz-adv-x="826" 
d="M232 256v-256h-164v760h164v-303q71 138 249 138q133 0 207.5 -75.5t74.5 -205.5v-314h-171v264q0 195 -167 195q-193 0 -193 -203zM257 821l-106 128l-105 -128h-150l193 229h123l192 -229h-147z" />
    <glyph glyph-name="Hbar" unicode="&#x126;" horiz-adv-x="931" 
d="M673 352v108h-414v-108h414zM673 0v216h-414v-216h-168v460h-103v135h103v118h168v-118h414v118h167v-118h104v-135h-104v-460h-167z" />
    <glyph glyph-name="hbar" unicode="&#x127;" horiz-adv-x="826" 
d="M232 256v-256h-164v604h-76v78h76v78h164v-78h136v-78h-136v-147q71 138 249 138q133 0 207.5 -75.5t74.5 -205.5v-314h-171v264q0 195 -167 195q-193 0 -193 -203z" />
    <glyph glyph-name="Itilde" unicode="&#x128;" horiz-adv-x="643" 
d="M595 0h-547v156h194v408h-194v149h547v-149h-194v-408h194v-156zM67 786q-1 79 34 127t115 48q37 0 73 -17.5t67 -34.5t54 -17q27 0 38 15.5t13 48.5h100q0 -85 -34 -130t-117 -45q-51 0 -110 33.5t-85 33.5q-46 0 -49 -62h-99z" />
    <glyph glyph-name="itilde" unicode="&#x129;" horiz-adv-x="317" 
d="M246 0h-175v574h175v-574zM-97 647q-1 79 34 127t115 48q37 0 73 -17t67 -34.5t54 -17.5q27 0 38 15.5t13 48.5h100q0 -85 -34 -130t-117 -45q-51 0 -110 33.5t-85 33.5q-46 0 -49 -62h-99z" />
    <glyph glyph-name="Imacron" unicode="&#x12a;" horiz-adv-x="643" 
d="M595 0h-547v156h194v408h-194v149h547v-149h-194v-408h194v-156zM117 791v122h429v-122h-429z" />
    <glyph glyph-name="imacron" unicode="&#x12b;" horiz-adv-x="317" 
d="M246 0h-175v574h175v-574zM-47 652v122h429v-122h-429z" />
    <glyph glyph-name="Ibreve" unicode="&#x12c;" horiz-adv-x="643" 
d="M595 0h-547v156h194v408h-194v149h547v-149h-194v-408h194v-156zM323 794q-147 0 -203 59t-56 180h121q0 -66 32.5 -94.5t106.5 -29.5q74 1 106.5 29.5t32.5 94.5h124q0 -117 -63 -178t-201 -61z" />
    <glyph glyph-name="ibreve" unicode="&#x12d;" horiz-adv-x="317" 
d="M246 0h-175v574h175v-574zM159 655q-147 0 -203 59t-56 180h121q0 -66 32.5 -94.5t106.5 -29.5q74 1 106.5 29.5t32.5 94.5h124q0 -117 -63 -178t-201 -61z" />
    <glyph glyph-name="Iogonek" unicode="&#x12e;" horiz-adv-x="643" 
d="M714 -144q-62 -138 -221 -138q-84 0 -131 33.5t-47 96.5q0 43 19.5 79t72.5 73h-359v156h194v408h-194v149h547v-149h-194v-408h194v-156h-2q-95 -56 -125.5 -82.5t-30.5 -56.5q0 -22 18 -35t48 -13q23 0 42.5 12.5t29.5 30.5h139z" />
    <glyph glyph-name="iogonek" unicode="&#x12f;" horiz-adv-x="311" 
d="M159 662q-59 0 -84.5 23t-25.5 80q0 54 27.5 77.5t82.5 23.5t82.5 -23.5t27.5 -77.5q0 -103 -110 -103zM144 -282q-84 0 -131 33.5t-47 96.5q0 44 21.5 82t80.5 77v567h175v-573l1 -1q-95 -56 -125.5 -82.5t-30.5 -56.5q0 -22 18 -35t48 -13q23 0 42.5 12.5t29.5 30.5
h139q-62 -138 -221 -138z" />
    <glyph glyph-name="Idotaccent" unicode="&#x130;" horiz-adv-x="643" 
d="M595 0h-547v156h194v408h-194v149h547v-149h-194v-408h194v-156zM326 792q-60 0 -85 23t-25 80q0 54 27 77.5t83 23.5t83 -23.5t27 -77.5t-27 -78.5t-83 -24.5z" />
    <glyph glyph-name="dotlessi" unicode="&#x131;" horiz-adv-x="317" 
d="M246 0h-175v574h175v-574z" />
    <glyph glyph-name="IJ" unicode="&#x132;" horiz-adv-x="1021" 
d="M578 0h-530v156h175v408h-175v149h510v-149h-176v-408h196v-156zM657 0v156h6q30 0 46.5 1t31 7.5t20.5 13t10 26.5t4.5 38.5t0.5 57.5v413h175v-418q0 -70 -3 -112.5t-15 -79t-29.5 -54t-52.5 -30t-77.5 -16t-110.5 -3.5h-6z" />
    <glyph glyph-name="ij" unicode="&#x133;" horiz-adv-x="641" 
d="M480 662q-59 0 -84.5 23t-25.5 80q0 54 27.5 77.5t82.5 23.5t82.5 -23.5t27.5 -77.5q0 -103 -110 -103zM159 662q-59 0 -84.5 23t-25.5 80q0 54 27.5 77.5t82.5 23.5t82.5 -23.5t27.5 -77.5q0 -103 -110 -103zM291 -285h-49v154h31q35 0 53 2.5t33.5 9t21 23t8 39
t2.5 63.5v568h171v-590q0 -86 -10.5 -135.5t-42 -81t-81.5 -42t-137 -10.5zM246 0h-175v574h175v-574z" />
    <glyph glyph-name="Jcircumflex" unicode="&#x134;" horiz-adv-x="744" 
d="M342 -20q-170 0 -249 80t-79 236v18h175v-15q0 -85 34 -126t120 -41q84 0 122 43.5t38 148.5v389h175v-392q0 -169 -85.5 -255t-250.5 -86zM695 785l-106 128l-105 -128h-150l193 229h123l192 -229h-147z" />
    <glyph glyph-name="jcircumflex" unicode="&#x135;" horiz-adv-x="313" 
d="M-78 -285v154h31q35 0 53 2.5t33.5 9t21 23t8 39t2.5 63.5v568h171v-590q0 -86 -10.5 -135.5t-42 -81t-81.5 -42t-137 -10.5h-49zM264 658l-106 128l-105 -128h-150l193 229h123l192 -229h-147z" />
    <glyph glyph-name="uni0136" unicode="&#x136;" horiz-adv-x="873" 
d="M678 0l-246 353l-184 -155v-198h-168v713h168v-343l391 343h226l-311 -269l324 -444h-200zM377 -279v67q111 4 125 57q-22 -6 -46 -6q-56 0 -77 13.5t-21 55.5q0 40 26.5 56t89.5 16t89 -21.5t26 -76.5q0 -77 -47 -117.5t-165 -43.5z" />
    <glyph glyph-name="uni0137" unicode="&#x137;" horiz-adv-x="798" 
d="M611 0l-209 266l-168 -132v-134h-166v760h166v-468l341 282h230l-273 -223l282 -351h-203zM342 -300v67q111 4 125 57q-23 -6 -46 -6q-56 0 -77 13.5t-21 55.5q0 40 26.5 56t89.5 16t89 -21.5t26 -76.5q0 -77 -47 -117.5t-165 -43.5z" />
    <glyph glyph-name="kgreenlandic" unicode="&#x138;" horiz-adv-x="798" 
d="M615 0l-211 265l-167 -131v-134h-164v574h164v-282l341 282h230l-273 -223l282 -351h-202z" />
    <glyph glyph-name="Lacute" unicode="&#x139;" horiz-adv-x="746" 
d="M723 0h-643v713h170v-555h473v-158zM106 797l189 229h186l-241 -229h-134z" />
    <glyph glyph-name="lacute" unicode="&#x13a;" horiz-adv-x="307" 
d="M239 0h-171v760h171v-760zM91 821l189 229h186l-241 -229h-134z" />
    <glyph glyph-name="uni013B" unicode="&#x13b;" horiz-adv-x="746" 
d="M723 0h-643v713h170v-555h473v-158zM309 -324v67q111 4 125 57q-22 -6 -46 -6q-56 0 -77 13.5t-21 55.5q0 40 26.5 56t89.5 16t89 -21.5t26 -76.5q0 -77 -47 -117.5t-165 -43.5z" />
    <glyph glyph-name="uni013C" unicode="&#x13c;" horiz-adv-x="307" 
d="M239 0h-171v760h171v-760zM51 -310v67q111 4 125 57q-22 -6 -46 -6q-56 0 -77 13.5t-21 55.5q0 40 26.5 56t89.5 16t89 -21.5t26 -76.5q0 -77 -47 -117.5t-165 -43.5z" />
    <glyph glyph-name="Lcaron" unicode="&#x13d;" horiz-adv-x="746" 
d="M723 0h-643v713h170v-555h473v-158zM498 545l52 209h149l-89 -209h-112z" />
    <glyph glyph-name="lcaron" unicode="&#x13e;" horiz-adv-x="307" 
d="M239 0h-171v760h171v-760zM321 653l52 209h149l-89 -209h-112z" />
    <glyph glyph-name="Ldot" unicode="&#x13f;" horiz-adv-x="746" 
d="M723 0h-643v713h170v-555h473v-158zM616 281q-60 0 -85 23t-25 80q0 54 27 77.5t83 23.5t83 -23.5t27 -77.5t-27 -78.5t-83 -24.5z" />
    <glyph glyph-name="ldot" unicode="&#x140;" horiz-adv-x="587" 
d="M239 0h-171v760h171v-760zM447 201q-60 0 -85 23t-25 80q0 54 27 77.5t83 23.5t83 -23.5t27 -77.5t-27 -78.5t-83 -24.5z" />
    <glyph glyph-name="Lslash" unicode="&#x141;" horiz-adv-x="773" 
d="M746 0h-643v285l-92 -32l-42 129l134 48v283h170v-223l212 75l51 -127l-263 -93v-187h473v-158z" />
    <glyph glyph-name="lslash" unicode="&#x142;" horiz-adv-x="338" 
d="M250 0h-171v252l-72 -24l-26 82l98 33v417h171v-360l79 27l26 -82l-105 -35v-310z" />
    <glyph glyph-name="Nacute" unicode="&#x143;" horiz-adv-x="926" 
d="M249 489l-7 10v-499h-162v713h168l433 -484l6 -9v493h161v-713h-161zM421 771l189 229h186l-241 -229h-134z" />
    <glyph glyph-name="nacute" unicode="&#x144;" horiz-adv-x="834" 
d="M240 254v-254h-173v574h148l14 -125q74 146 258 146q134 0 209 -75.5t75 -205.5v-314h-172v273q0 91 -39 138t-130 47q-98 0 -144 -50.5t-46 -153.5zM347 668l189 229h186l-241 -229h-134z" />
    <glyph glyph-name="uni0145" unicode="&#x145;" horiz-adv-x="926" 
d="M249 489l-7 10v-499h-162v713h168l433 -484l6 -9v493h161v-713h-161zM379 -292v67q111 4 125 57q-23 -6 -46 -6q-56 0 -77 13.5t-21 55.5q0 40 26.5 56t89.5 16t89 -21.5t26 -76.5q0 -77 -47 -117.5t-165 -43.5z" />
    <glyph glyph-name="uni0146" unicode="&#x146;" horiz-adv-x="834" 
d="M240 254v-254h-173v574h148l14 -125q74 146 258 146q134 0 209 -75.5t75 -205.5v-314h-172v273q0 91 -39 138t-130 47q-98 0 -144 -50.5t-46 -153.5zM345 -304v67q111 4 125 57q-23 -6 -46 -6q-56 0 -77 13.5t-21 55.5q0 40 26.5 56t89.5 16t89 -21.5t26 -76.5
q0 -77 -47 -117.5t-165 -43.5z" />
    <glyph glyph-name="Ncaron" unicode="&#x147;" horiz-adv-x="926" 
d="M249 489l-7 10v-499h-162v713h168l433 -484l6 -9v493h161v-713h-161zM546 771h-123l-193 239h149l105 -132l107 132h147z" />
    <glyph glyph-name="ncaron" unicode="&#x148;" horiz-adv-x="834" 
d="M240 254v-254h-173v574h148l14 -125q74 146 258 146q134 0 209 -75.5t75 -205.5v-314h-172v273q0 91 -39 138t-130 47q-98 0 -144 -50.5t-46 -153.5zM472 668h-123l-193 239h149l105 -132l107 132h147z" />
    <glyph glyph-name="Eng" unicode="&#x14a;" horiz-adv-x="926" 
d="M576 -287h-47v156h31q85 0 105.5 18.5t20.5 97.5v15l-422 471l-23 31v-502h-162v713h168l408 -457l31 -41v498h161v-728q0 -87 -10 -137t-41.5 -82t-81.5 -42.5t-138 -10.5z" />
    <glyph glyph-name="eng" unicode="&#x14b;" horiz-adv-x="837" 
d="M494 -285h-49v154h31q44 0 64.5 3t35.5 18t19 40.5t4 75.5v259q0 194 -168 194q-192 0 -192 -205v-254h-172v574h148l14 -125q74 146 258 146q133 0 208.5 -76.5t75.5 -206.5v-328q0 -85 -11.5 -135t-44.5 -81.5t-83.5 -42t-137.5 -10.5z" />
    <glyph glyph-name="Omacron" unicode="&#x14c;" horiz-adv-x="943" 
d="M471 -20q-200 0 -313 91.5t-113 277.5v5q0 176 118 276.5t307 100.5q190 0 309 -99.5t119 -276.5v-7q0 -180 -116 -274t-311 -94zM470 132q125 0 190 50.5t65 166.5v1q0 121 -65.5 175.5t-188.5 54.5q-253 0 -253 -229v-1q0 -110 65.5 -164t186.5 -54zM261 806v122h429
v-122h-429z" />
    <glyph glyph-name="omacron" unicode="&#x14d;" horiz-adv-x="849" 
d="M419 -19q-198 0 -287 77.5t-89 224.5q0 143 103.5 227.5t277.5 84.5q177 0 279.5 -82.5t102.5 -229.5q0 -140 -96 -221t-291 -81zM424 120q111 0 160 41t49 122q0 88 -50 131.5t-157 43.5q-210 0 -210 -175q0 -82 50.5 -122.5t157.5 -40.5zM212 675v122h429v-122h-429z
" />
    <glyph glyph-name="Obreve" unicode="&#x14e;" horiz-adv-x="943" 
d="M471 -20q-200 0 -313 91.5t-113 277.5v5q0 176 118 276.5t307 100.5q190 0 309 -99.5t119 -276.5v-7q0 -180 -116 -274t-311 -94zM470 132q125 0 190 50.5t65 166.5v1q0 121 -65.5 175.5t-188.5 54.5q-253 0 -253 -229v-1q0 -110 65.5 -164t186.5 -54zM467 809
q-147 0 -203 59t-56 180h121q0 -66 32.5 -94.5t106.5 -29.5q74 1 106.5 29.5t32.5 94.5h124q0 -117 -63 -178t-201 -61z" />
    <glyph glyph-name="obreve" unicode="&#x14f;" horiz-adv-x="849" 
d="M419 -19q-198 0 -287 77.5t-89 224.5q0 143 103.5 227.5t277.5 84.5q177 0 279.5 -82.5t102.5 -229.5q0 -140 -96 -221t-291 -81zM424 120q111 0 160 41t49 122q0 88 -50 131.5t-157 43.5q-210 0 -210 -175q0 -82 50.5 -122.5t157.5 -40.5zM414 660q-147 0 -203 59
t-56 180h121q0 -66 32.5 -94.5t106.5 -29.5q74 1 106.5 29.5t32.5 94.5h124q0 -117 -63 -178t-201 -61z" />
    <glyph glyph-name="Ohungarumlaut" unicode="&#x150;" horiz-adv-x="943" 
d="M471 -20q-200 0 -313 91.5t-113 277.5v5q0 176 118 276.5t307 100.5q190 0 309 -99.5t119 -276.5v-7q0 -180 -116 -274t-311 -94zM470 132q125 0 190 50.5t65 166.5v1q0 121 -65.5 175.5t-188.5 54.5q-253 0 -253 -229v-1q0 -110 65.5 -164t186.5 -54zM909 1041
l-248 -229h-124l197 229h175zM659 1041l-251 -229h-122l197 229h176z" />
    <glyph glyph-name="ohungarumlaut" unicode="&#x151;" horiz-adv-x="849" 
d="M419 -19q-198 0 -287 77.5t-89 224.5q0 143 103.5 227.5t277.5 84.5q177 0 279.5 -82.5t102.5 -229.5q0 -140 -96 -221t-291 -81zM424 120q111 0 160 41t49 122q0 88 -50 131.5t-157 43.5q-210 0 -210 -175q0 -82 50.5 -122.5t157.5 -40.5zM856 902l-248 -229h-124
l197 229h175zM606 902l-251 -229h-122l197 229h176z" />
    <glyph glyph-name="OE" unicode="&#x152;" horiz-adv-x="1434" 
d="M470 132q125 0 190 50.5t65 166.5v1q0 121 -65.5 175.5t-188.5 54.5q-253 0 -253 -229v-1q0 -110 65.5 -164t186.5 -54zM715 0v41q-89 -61 -244 -61q-200 0 -313 91.5t-113 277.5v5q0 176 118 276.5t307 100.5q152 0 245 -67v49h658v-141h-497v-144h417v-141h-417v-141
h521v-146h-682z" />
    <glyph glyph-name="oe" unicode="&#x153;" horiz-adv-x="1446" 
d="M1396 173q-45 -107 -140.5 -149.5t-244.5 -42.5q-200 0 -292 89q-100 -89 -300 -89q-198 0 -287 77.5t-89 224.5q0 143 103.5 227.5t277.5 84.5q197 0 300 -101q103 101 300 101q178 0 278 -82t100 -226v-61h-602q14 -57 66.5 -84.5t158.5 -27.5q75 0 115.5 13.5
t63.5 45.5h192zM1029 463q-190 0 -226 -114h432q-14 61 -62.5 87.5t-143.5 26.5zM424 120q111 0 160 41t49 122q0 88 -50 131.5t-157 43.5q-210 0 -210 -175q0 -82 50.5 -122.5t157.5 -40.5z" />
    <glyph glyph-name="Racute" unicode="&#x154;" horiz-adv-x="857" 
d="M453 571h-206v-198h200q48 0 77.5 2.5t57.5 11.5t41 28t13 50v13q0 57 -41 75t-142 18zM448 230h-201v-230h-167v713h375q187 0 270.5 -53.5t83.5 -171.5q0 -79 -38 -124t-118 -65q79 -18 115 -65.5t36 -140.5v-47q0 -36 17 -46h-175q-20 8 -20 48v44q0 80 -38 109
t-140 29zM365 797l189 229h186l-241 -229h-134z" />
    <glyph glyph-name="racute" unicode="&#x155;" horiz-adv-x="580" 
d="M240 0h-173v574h147l19 -160q49 166 234 166h73v-166h-77q-132 0 -177.5 -48t-45.5 -176v-190zM242 637l189 229h186l-241 -229h-134z" />
    <glyph glyph-name="uni0156" unicode="&#x156;" horiz-adv-x="857" 
d="M453 571h-206v-198h200q48 0 77.5 2.5t57.5 11.5t41 28t13 50v13q0 57 -41 75t-142 18zM448 230h-201v-230h-167v713h375q187 0 270.5 -53.5t83.5 -171.5q0 -79 -38 -124t-118 -65q79 -18 115 -65.5t36 -140.5v-47q0 -36 17 -46h-175q-20 8 -20 48v44q0 80 -38 109
t-140 29zM361 -296v67q111 4 125 57q-22 -6 -46 -6q-56 0 -77 13.5t-21 55.5q0 40 26.5 56t89.5 16t89 -21.5t26 -76.5q0 -77 -47 -117.5t-165 -43.5z" />
    <glyph glyph-name="uni0157" unicode="&#x157;" horiz-adv-x="580" 
d="M240 0h-173v574h147l19 -160q49 166 234 166h73v-166h-77q-132 0 -177.5 -48t-45.5 -176v-190zM61 -312v67q111 4 125 57q-23 -6 -46 -6q-56 0 -77 13.5t-21 55.5q0 40 26.5 56t89.5 16t89 -21.5t26 -76.5q0 -77 -47 -117.5t-165 -43.5z" />
    <glyph glyph-name="Rcaron" unicode="&#x158;" horiz-adv-x="857" 
d="M453 571h-206v-198h200q48 0 77.5 2.5t57.5 11.5t41 28t13 50v13q0 57 -41 75t-142 18zM448 230h-201v-230h-167v713h375q187 0 270.5 -53.5t83.5 -171.5q0 -79 -38 -124t-118 -65q79 -18 115 -65.5t36 -140.5v-47q0 -36 17 -46h-175q-20 8 -20 48v44q0 80 -38 109
t-140 29zM490 797h-123l-193 239h149l105 -132l107 132h147z" />
    <glyph glyph-name="rcaron" unicode="&#x159;" horiz-adv-x="580" 
d="M240 0h-173v574h147l19 -160q49 166 234 166h73v-166h-77q-132 0 -177.5 -48t-45.5 -176v-190zM370 636h-123l-193 239h149l105 -132l107 132h147z" />
    <glyph glyph-name="Sacute" unicode="&#x15a;" horiz-adv-x="840" 
d="M443 -21q-207 0 -306.5 64.5t-127.5 209.5h182q17 -71 79.5 -99.5t176.5 -28.5q99 0 144.5 20t45.5 64q0 42 -39 57q-38 15 -207 24l-1 1h-1h-1h-1h-1h-1h-1h-1h-1h-1h-1h-1h-1h-1h-1h-1h-1h-1l-1 1h-1h-1h-1h-1h-1h-1h-2h-1q-170 10 -245 57t-75 156q0 105 90 165.5
t260 60.5q187 0 287.5 -58.5t125.5 -190.5h-179q-14 64 -71 86.5t-166 22.5q-96 0 -136.5 -20.5t-40.5 -60.5q0 -27 15 -41t64 -23.5t149 -13.5q196 -9 280.5 -56.5t84.5 -154.5q0 -117 -90 -179.5t-273 -62.5zM341 812l189 229h186l-241 -229h-134z" />
    <glyph glyph-name="sacute" unicode="&#x15b;" horiz-adv-x="763" 
d="M398 -19q-176 0 -270.5 51.5t-116.5 157.5h195q14 -43 58.5 -61t142.5 -18q89 0 125 16.5t36 48.5q0 19 -15 28.5t-60.5 15t-143.5 8.5q-170 5 -243.5 44t-73.5 124q0 90 81.5 144.5t239.5 54.5q161 0 252.5 -48.5t122.5 -151.5h-184q-21 77 -193 77q-155 0 -155 -62
q0 -19 12.5 -28.5t57.5 -16t141 -10.5q193 -8 261 -45.5t68 -129.5q0 -89 -88 -144t-250 -55zM308 667l189 229h186l-241 -229h-134z" />
    <glyph glyph-name="Scircumflex" unicode="&#x15c;" horiz-adv-x="840" 
d="M443 -21q-207 0 -306.5 64.5t-127.5 209.5h182q17 -71 79.5 -99.5t176.5 -28.5q99 0 144.5 20t45.5 64q0 42 -39 57q-38 15 -207 24l-1 1h-1h-1h-1h-1h-1h-1h-1h-1h-1h-1h-1h-1h-1h-1h-1h-1h-1l-1 1h-1h-1h-1h-1h-1h-1h-2h-1q-170 10 -245 57t-75 156q0 105 90 165.5
t260 60.5q187 0 287.5 -58.5t125.5 -190.5h-179q-14 64 -71 86.5t-166 22.5q-96 0 -136.5 -20.5t-40.5 -60.5q0 -27 15 -41t64 -23.5t149 -13.5q196 -9 280.5 -56.5t84.5 -154.5q0 -117 -90 -179.5t-273 -62.5zM513 812l-106 128l-105 -128h-150l193 229h123l192 -229h-147z
" />
    <glyph glyph-name="scircumflex" unicode="&#x15d;" horiz-adv-x="763" 
d="M398 -19q-176 0 -270.5 51.5t-116.5 157.5h195q14 -43 58.5 -61t142.5 -18q89 0 125 16.5t36 48.5q0 19 -15 28.5t-60.5 15t-143.5 8.5q-170 5 -243.5 44t-73.5 124q0 90 81.5 144.5t239.5 54.5q161 0 252.5 -48.5t122.5 -151.5h-184q-21 77 -193 77q-155 0 -155 -62
q0 -19 12.5 -28.5t57.5 -16t141 -10.5q193 -8 261 -45.5t68 -129.5q0 -89 -88 -144t-250 -55zM465 679l-106 128l-105 -128h-150l193 229h123l192 -229h-147z" />
    <glyph glyph-name="uni015E" unicode="&#x15e;" horiz-adv-x="840" 
d="M458 -326q-112 0 -165 39.5t-68 113.5h137q4 -29 29.5 -45.5t64.5 -16.5q41 0 63 14.5t22 39.5q0 45 -93 45h-66v116q-175 9 -261 74t-112 199h182q17 -71 79.5 -99.5t176.5 -28.5q99 0 144.5 20t45.5 64q0 42 -39 57q-38 15 -207 24l-1 1h-1h-1h-1h-1h-1h-1h-1h-1h-1h-1
h-1h-1h-1h-1h-1h-1h-1l-1 1h-1h-1h-1h-1h-1h-1h-2h-1q-170 10 -245 57t-75 156q0 105 90 165.5t260 60.5q187 0 287.5 -58.5t125.5 -190.5h-179q-14 64 -71 86.5t-166 22.5q-96 0 -136.5 -20.5t-40.5 -60.5q0 -27 15 -41t64 -23.5t149 -13.5q196 -9 280.5 -56.5t84.5 -154.5
q0 -221 -305 -240v-35q77 -3 116.5 -36.5t39.5 -87.5q0 -69 -52 -108.5t-147 -39.5z" />
    <glyph glyph-name="uni015F" unicode="&#x15f;" horiz-adv-x="763" 
d="M370 -328q-112 0 -165 39.5t-68 113.5h137q4 -29 29.5 -45.5t64.5 -16.5q41 0 63 14.5t22 39.5q0 45 -93 45h-66v124q-248 28 -283 204h195q14 -43 58.5 -61t142.5 -18q89 0 125 16.5t36 48.5q0 19 -15 28.5t-60.5 15t-143.5 8.5q-170 5 -243.5 44t-73.5 124
q0 90 81.5 144.5t239.5 54.5q161 0 252.5 -48.5t122.5 -151.5h-184q-21 77 -193 77q-155 0 -155 -62q0 -19 12.5 -28.5t57.5 -16t141 -10.5q193 -8 261 -45.5t68 -129.5q0 -87 -84 -141.5t-239 -57.5v-37q77 -3 116.5 -36.5t39.5 -87.5q0 -69 -52 -108.5t-147 -39.5z" />
    <glyph glyph-name="Scaron" unicode="&#x160;" horiz-adv-x="840" 
d="M443 -21q-207 0 -306.5 64.5t-127.5 209.5h182q17 -71 79.5 -99.5t176.5 -28.5q99 0 144.5 20t45.5 64q0 42 -39 57q-38 15 -207 24l-1 1h-1h-1h-1h-1h-1h-1h-1h-1h-1h-1h-1h-1h-1h-1h-1h-1h-1l-1 1h-1h-1h-1h-1h-1h-1h-2h-1q-170 10 -245 57t-75 156q0 105 90 165.5
t260 60.5q187 0 287.5 -58.5t125.5 -190.5h-179q-14 64 -71 86.5t-166 22.5q-96 0 -136.5 -20.5t-40.5 -60.5q0 -27 15 -41t64 -23.5t149 -13.5q196 -9 280.5 -56.5t84.5 -154.5q0 -117 -90 -179.5t-273 -62.5zM466 812h-123l-193 239h149l105 -132l107 132h147z" />
    <glyph glyph-name="scaron" unicode="&#x161;" horiz-adv-x="763" 
d="M398 -19q-176 0 -270.5 51.5t-116.5 157.5h195q14 -43 58.5 -61t142.5 -18q89 0 125 16.5t36 48.5q0 19 -15 28.5t-60.5 15t-143.5 8.5q-170 5 -243.5 44t-73.5 124q0 90 81.5 144.5t239.5 54.5q161 0 252.5 -48.5t122.5 -151.5h-184q-21 77 -193 77q-155 0 -155 -62
q0 -19 12.5 -28.5t57.5 -16t141 -10.5q193 -8 261 -45.5t68 -129.5q0 -89 -88 -144t-250 -55zM448 660h-123l-193 239h149l105 -132l107 132h147z" />
    <glyph glyph-name="uni0162" unicode="&#x162;" horiz-adv-x="764" 
d="M730 570h-268v-570h-172v570h-256v143h696v-143zM276 -310v67q111 4 125 57q-23 -6 -46 -6q-56 0 -77 13.5t-21 55.5q0 40 26.5 56t89.5 16t89 -21.5t26 -76.5q0 -77 -47 -117.5t-165 -43.5z" />
    <glyph glyph-name="uni0163" unicode="&#x163;" horiz-adv-x="606" 
d="M575 147v-147h-133q-156 0 -213.5 62t-57.5 221v147h-160v136q80 0 110 4q26 4 39 16t21 38q11 36 9 107h142v-157h243v-144h-243v-119q0 -39 2 -63.5t9 -44t16.5 -29.5t28.5 -17t41 -8.5t58 -1.5h88zM209 -310v67q111 4 125 57q-22 -6 -46 -6q-56 0 -77 13.5t-21 55.5
q0 40 26.5 56t89.5 16t89 -21.5t26 -76.5q0 -77 -47 -117.5t-165 -43.5z" />
    <glyph glyph-name="Tcaron" unicode="&#x164;" horiz-adv-x="764" 
d="M730 570h-268v-570h-172v570h-256v143h696v-143zM440 797h-123l-193 239h149l105 -132l107 132h147z" />
    <glyph glyph-name="tcaron" unicode="&#x165;" horiz-adv-x="606" 
d="M575 147v-147h-133q-156 0 -213.5 62t-57.5 221v147h-160v136q80 0 110 4q26 4 39 16t21 38q11 36 9 107h142v-157h243v-144h-243v-119q0 -39 2 -63.5t9 -44t16.5 -29.5t28.5 -17t41 -8.5t58 -1.5h88zM506 628l52 209h149l-89 -209h-112z" />
    <glyph glyph-name="Tbar" unicode="&#x166;" horiz-adv-x="764" 
d="M624 237h-162v-237h-172v237h-143v134h143v199h-256v143h696v-143h-268v-199h162v-134z" />
    <glyph glyph-name="tbar" unicode="&#x167;" horiz-adv-x="606" 
d="M575 147v-147h-133q-149 0 -206.5 56.5t-62.5 197.5h-129v110h129v66h-162v136q82 0 112 4q26 4 39 16t21 38q11 37 9 113h140v-163h243v-144h-243v-66h169v-110h-167q5 -69 35 -88t118 -19h88z" />
    <glyph glyph-name="Utilde" unicode="&#x168;" horiz-adv-x="901" 
d="M451 -20q-194 0 -289.5 97.5t-95.5 316.5v319h176v-314q0 -140 52 -199t159 -59t156.5 57.5t49.5 200.5v314h176v-319q0 -217 -98.5 -315.5t-285.5 -98.5zM202 776q-1 79 34 127t115 48q37 0 73 -17.5t67 -34.5t54 -17q27 0 38 15.5t13 48.5h100q0 -85 -34 -130t-117 -45
q-51 0 -110 33.5t-85 33.5q-46 0 -49 -62h-99z" />
    <glyph glyph-name="utilde" unicode="&#x169;" horiz-adv-x="814" 
d="M601 0l-15 130q-29 -70 -92.5 -109.5t-157.5 -39.5q-132 0 -203 74.5t-71 204.5v314h172v-280q0 -88 40.5 -131t131.5 -43q81 0 124.5 49t43.5 135v270h173v-574h-146zM150 631q-1 79 34 127t115 48q37 0 73 -17t67 -34.5t54 -17.5q27 0 38 15.5t13 48.5h100
q0 -85 -34 -130t-117 -45q-51 0 -110 33.5t-85 33.5q-46 0 -49 -62h-99z" />
    <glyph glyph-name="Umacron" unicode="&#x16a;" horiz-adv-x="901" 
d="M451 -20q-194 0 -289.5 97.5t-95.5 316.5v319h176v-314q0 -140 52 -199t159 -59t156.5 57.5t49.5 200.5v314h176v-319q0 -217 -98.5 -315.5t-285.5 -98.5zM252 781v122h429v-122h-429z" />
    <glyph glyph-name="umacron" unicode="&#x16b;" horiz-adv-x="814" 
d="M601 0l-15 130q-29 -70 -92.5 -109.5t-157.5 -39.5q-132 0 -203 74.5t-71 204.5v314h172v-280q0 -88 40.5 -131t131.5 -43q81 0 124.5 49t43.5 135v270h173v-574h-146zM200 636v122h429v-122h-429z" />
    <glyph glyph-name="Ubreve" unicode="&#x16c;" horiz-adv-x="901" 
d="M451 -20q-194 0 -289.5 97.5t-95.5 316.5v319h176v-314q0 -140 52 -199t159 -59t156.5 57.5t49.5 200.5v314h176v-319q0 -217 -98.5 -315.5t-285.5 -98.5zM458 784q-147 0 -203 59t-56 180h121q0 -66 32.5 -94.5t106.5 -29.5q74 1 106.5 29.5t32.5 94.5h124
q0 -117 -63 -178t-201 -61z" />
    <glyph glyph-name="ubreve" unicode="&#x16d;" horiz-adv-x="814" 
d="M601 0l-15 130q-29 -70 -92.5 -109.5t-157.5 -39.5q-132 0 -203 74.5t-71 204.5v314h172v-280q0 -88 40.5 -131t131.5 -43q81 0 124.5 49t43.5 135v270h173v-574h-146zM406 639q-147 0 -203 59t-56 180h121q0 -66 32.5 -94.5t106.5 -29.5q74 1 106.5 29.5t32.5 94.5h124
q0 -117 -63 -178t-201 -61z" />
    <glyph glyph-name="Uring" unicode="&#x16e;" horiz-adv-x="901" 
d="M451 -20q-194 0 -289.5 97.5t-95.5 316.5v319h176v-314q0 -140 52 -199t159 -59t156.5 57.5t49.5 200.5v314h176v-319q0 -217 -98.5 -315.5t-285.5 -98.5zM456 779q-75 0 -116.5 41.5t-41.5 114.5q0 74 43 116t115 42q75 0 117.5 -41.5t42.5 -116.5q0 -70 -43 -113
t-117 -43zM456 878q22 0 41 15t19 42q0 30 -16 45.5t-44 15.5t-44 -16t-16 -45q0 -57 60 -57z" />
    <glyph glyph-name="uring" unicode="&#x16f;" horiz-adv-x="814" 
d="M601 0l-15 130q-29 -70 -92.5 -109.5t-157.5 -39.5q-132 0 -203 74.5t-71 204.5v314h172v-280q0 -88 40.5 -131t131.5 -43q81 0 124.5 49t43.5 135v270h173v-574h-146zM404 634q-75 0 -116.5 41.5t-41.5 114.5q0 74 43 116t115 42q75 0 117.5 -41.5t42.5 -116.5
q0 -70 -43 -113t-117 -43zM404 733q22 0 41 15t19 42q0 30 -16 45.5t-44 15.5t-44 -16t-16 -45q0 -57 60 -57z" />
    <glyph glyph-name="Uhungarumlaut" unicode="&#x170;" horiz-adv-x="901" 
d="M451 -20q-194 0 -289.5 97.5t-95.5 316.5v319h176v-314q0 -140 52 -199t159 -59t156.5 57.5t49.5 200.5v314h176v-319q0 -217 -98.5 -315.5t-285.5 -98.5zM900 1016l-248 -229h-124l197 229h175zM650 1016l-251 -229h-122l197 229h176z" />
    <glyph glyph-name="uhungarumlaut" unicode="&#x171;" horiz-adv-x="814" 
d="M601 0l-15 130q-29 -70 -92.5 -109.5t-157.5 -39.5q-132 0 -203 74.5t-71 204.5v314h172v-280q0 -88 40.5 -131t131.5 -43q81 0 124.5 49t43.5 135v270h173v-574h-146zM848 871l-248 -229h-124l197 229h175zM598 871l-251 -229h-122l197 229h176z" />
    <glyph glyph-name="Uogonek" unicode="&#x172;" horiz-adv-x="901" 
d="M552 -263q-84 0 -131 33.5t-47 96.5q0 66 46 114q-178 7 -266 105t-88 308v319h176v-314q0 -140 52 -199t159 -59t156.5 57.5t49.5 200.5v314h176v-319q0 -293 -188 -378q-92 -55 -121.5 -80.5t-29.5 -55.5q0 -22 18 -35t48 -13q23 0 42.5 12.5t29.5 30.5h139
q-62 -138 -221 -138z" />
    <glyph glyph-name="uogonek" unicode="&#x173;" horiz-adv-x="814" 
d="M868 -144q-62 -138 -221 -138q-84 0 -131 33.5t-47 96.5q0 49 27 90.5t102 84.5l-12 107q-29 -70 -92.5 -109.5t-157.5 -39.5q-132 0 -203 74.5t-71 204.5v314h172v-280q0 -88 40.5 -131t131.5 -43q81 0 124.5 49t43.5 135v270h173v-574q-95 -56 -125.5 -82.5
t-30.5 -56.5q0 -22 18 -35t48 -13q23 0 42.5 12.5t29.5 30.5h139z" />
    <glyph glyph-name="Wcircumflex" unicode="&#x174;" horiz-adv-x="1288" 
d="M835 0l-197 504l-236 -504h-167l-232 713h174l162 -515l237 515h133l206 -514l198 514h172l-290 -713h-160zM753 797l-106 128l-105 -128h-150l193 229h123l192 -229h-147z" />
    <glyph glyph-name="wcircumflex" unicode="&#x175;" horiz-adv-x="1110" 
d="M728 0l-179 390l-198 -390h-146l-204 574h176l123 -375l186 375h134l173 -379l146 379h170l-237 -574h-144zM667 658l-106 128l-105 -128h-150l193 229h123l192 -229h-147z" />
    <glyph glyph-name="Ycircumflex" unicode="&#x176;" horiz-adv-x="816" 
d="M474 0h-175v293l-322 420h206l207 -284l224 284h205l-345 -423v-290zM506 784l-106 128l-105 -128h-150l193 229h123l192 -229h-147z" />
    <glyph glyph-name="ycircumflex" unicode="&#x177;" horiz-adv-x="796" 
d="M109 -258h-75v147h83q71 0 106 23t70 83l19 34l-313 545h186l209 -377l7 -18l7 16l208 379h183l-349 -609q-44 -76 -73.5 -116.5t-69 -66.5t-82.5 -33t-116 -7zM506 649l-106 128l-105 -128h-150l193 229h123l192 -229h-147z" />
    <glyph glyph-name="Ydieresis" unicode="&#x178;" horiz-adv-x="816" 
d="M474 0h-175v293l-322 420h206l207 -284l224 284h205l-345 -423v-290zM268 780q-54 0 -77 21t-23 72q0 49 25 70.5t75 21.5q51 0 75 -21.5t24 -70.5t-24 -71t-75 -22zM535 780q-55 0 -77 20.5t-22 72.5q0 49 24 70.5t75 21.5q50 0 75 -21.5t25 -70.5t-24.5 -71t-75.5 -22z
" />
    <glyph glyph-name="Zacute" unicode="&#x179;" horiz-adv-x="800" 
d="M761 0h-724v139l507 433h-480v141h697v-153l-484 -411h484v-149zM350 797l189 229h186l-241 -229h-134z" />
    <glyph glyph-name="zacute" unicode="&#x17a;" horiz-adv-x="740" 
d="M26 -1v126l457 323h-435v126h662v-124l-447 -318h450v-132zM314 658l189 229h186l-241 -229h-134z" />
    <glyph glyph-name="Zdotaccent" unicode="&#x17b;" horiz-adv-x="800" 
d="M761 0h-724v139l507 433h-480v141h697v-153l-484 -411h484v-149zM416 792q-60 0 -85 23t-25 80q0 54 27 77.5t83 23.5t83 -23.5t27 -77.5t-27 -78.5t-83 -24.5z" />
    <glyph glyph-name="zdotaccent" unicode="&#x17c;" horiz-adv-x="740" 
d="M26 -1v126l457 323h-435v126h662v-124l-447 -318h450v-132zM380 653q-60 0 -85 23t-25 80q0 54 27 77.5t83 23.5t83 -23.5t27 -77.5t-27 -78.5t-83 -24.5z" />
    <glyph glyph-name="Zcaron" unicode="&#x17d;" horiz-adv-x="800" 
d="M761 0h-724v139l507 433h-480v141h697v-153l-484 -411h484v-149zM475 797h-123l-193 239h149l105 -132l107 132h147z" />
    <glyph glyph-name="zcaron" unicode="&#x17e;" horiz-adv-x="740" 
d="M26 -1v126l457 323h-435v126h662v-124l-447 -318h450v-132zM439 658h-123l-193 239h149l105 -132l107 132h147z" />
    <glyph glyph-name="uni0192" unicode="&#x192;" horiz-adv-x="517" 
d="M333 101q0 -58 -4 -97.5t-16 -71.5t-30 -50t-49.5 -30.5t-71.5 -17t-98 -4.5h-92v140h77q44 0 64.5 3t36 18t19 40.5t3.5 75.5v215h-170v144h170v183q0 132 59.5 190t189.5 58h92v-135h-69q-72 0 -91 -24t-19 -112v-160h177v-144h-178v-221z" />
    <glyph glyph-name="Aringacute" unicode="&#x1fa;" horiz-adv-x="906" 
d="M395 986l189 229h186l-241 -229h-134zM398 764q0 -38 28 -51h58q34 15 34 51q0 30 -16 45.5t-44 15.5t-44 -16t-16 -45zM583 291l-133 271l-129 -271h262zM256 155l-74 -155h-181l333 658q-34 40 -34 106q0 74 43 116t115 42q75 0 117.5 -41.5t42.5 -116.5
q0 -73 -46 -116l334 -648h-179l-76 155h-395z" />
    <glyph glyph-name="aringacute" unicode="&#x1fb;" horiz-adv-x="815" 
d="M331 101q110 0 185 53.5t75 120.5v4q-24 -32 -149 -39q-152 -8 -191 -28q-36 -18 -36 -52v-1q0 -58 116 -58zM614 0l-15 136q-37 -71 -118.5 -113t-200.5 -42q-245 0 -245 163v1q0 103 91 146q45 21 106.5 32t194.5 18q98 5 130 15.5t32 38.5v1q0 33 -38 54.5t-124 21.5
q-107 0 -152 -23t-51 -75h-175q26 220 363 220q176 0 258 -51.5t82 -185.5v-357h-138zM417 654q-75 0 -116.5 41.5t-41.5 114.5q0 74 43 116t115 42q75 0 117.5 -41.5t42.5 -116.5q0 -70 -43 -113t-117 -43zM417 753q22 0 41 15t19 42q0 30 -16 45.5t-44 15.5t-44 -16
t-16 -45q0 -57 60 -57zM368 1041l189 229h186l-241 -229h-134z" />
    <glyph glyph-name="AEacute" unicode="&#x1fc;" horiz-adv-x="1359" 
d="M631 325l-57 252l-181 -252h238zM704 0l-41 184h-371l-132 -184h-186l241 324v1h1l289 388h794v-141h-572l33 -144h460v-141h-427l32 -141h498v-146h-619zM529 797l189 229h186l-241 -229h-134z" />
    <glyph glyph-name="aeacute" unicode="&#x1fd;" horiz-adv-x="1382" 
d="M1342 173q-45 -107 -140.5 -149.5t-244.5 -42.5q-250 0 -329 144q-41 -67 -130 -105.5t-211 -38.5q-250 0 -250 163v1q0 103 91 146q45 21 106.5 32t194.5 18q98 5 130 15.5t32 38.5v1q0 33 -38 54.5t-124 21.5q-107 0 -152 -23t-51 -75h-175q26 220 363 220
q204 0 279 -84q99 85 277 85t278 -82t100 -226v-61h-602q14 -57 66.5 -84.5t158.5 -27.5q75 0 115.5 13.5t63.5 45.5h192zM975 463q-190 0 -226 -114h432q-14 61 -62.5 87.5t-143.5 26.5zM333 101q110 0 185 53.5t75 120.5v4q-24 -32 -149 -39q-152 -8 -191 -28
q-36 -18 -36 -52v-1q0 -58 116 -58zM653 645l189 229h186l-241 -229h-134z" />
    <glyph glyph-name="Oslashacute" unicode="&#x1fe;" horiz-adv-x="943" 
d="M218 350q0 -112 69 -167l257 392q-38 5 -73 5q-253 0 -253 -229v-1zM470 132q125 0 190 50.5t65 166.5v1q0 125 -73 182l-260 -393q34 -7 78 -7zM471 -20q-92 0 -170 20l-61 -90h-142l95 137q-148 91 -148 302v5q0 176 118 276.5t307 100.5q86 0 160 -21l54 82h142
l-87 -131q159 -101 159 -306v-7q0 -180 -116 -274t-311 -94zM413 823l189 229h186l-241 -229h-134z" />
    <glyph glyph-name="oslashacute" unicode="&#x1ff;" horiz-adv-x="865" 
d="M215 286q0 -91 61 -132l196 301q-12 1 -37 1q-220 0 -220 -170zM433 120q116 0 167.5 40.5t51.5 125.5q0 89 -59 132l-194 -297q11 -1 34 -1zM428 -19q-60 0 -114 8l-52 -79h-153l79 115q-145 71 -145 258q0 143 106.5 227.5t283.5 84.5q63 0 123 -11l55 82h149l-84 -124
q146 -82 146 -256q0 -142 -97.5 -223.5t-296.5 -81.5zM365 667l189 229h186l-241 -229h-134z" />
    <glyph glyph-name="uni0218" unicode="&#x218;" horiz-adv-x="840" 
d="M443 -21q-207 0 -306.5 64.5t-127.5 209.5h182q17 -71 79.5 -99.5t176.5 -28.5q99 0 144.5 20t45.5 64q0 42 -39 57q-38 15 -207 24l-1 1h-1h-1h-1h-1h-1h-1h-1h-1h-1h-1h-1h-1h-1h-1h-1h-1h-1l-1 1h-1h-1h-1h-1h-1h-1h-2h-1q-170 10 -245 57t-75 156q0 105 90 165.5
t260 60.5q187 0 287.5 -58.5t125.5 -190.5h-179q-14 64 -71 86.5t-166 22.5q-96 0 -136.5 -20.5t-40.5 -60.5q0 -27 15 -41t64 -23.5t149 -13.5q196 -9 280.5 -56.5t84.5 -154.5q0 -117 -90 -179.5t-273 -62.5zM362 -328v67q111 4 125 57q-22 -6 -46 -6q-56 0 -77 13.5
t-21 55.5q0 40 26.5 56t89.5 16t89 -21.5t26 -76.5q0 -77 -47 -117.5t-165 -43.5z" />
    <glyph glyph-name="uni0219" unicode="&#x219;" horiz-adv-x="763" 
d="M398 -19q-176 0 -270.5 51.5t-116.5 157.5h195q14 -43 58.5 -61t142.5 -18q89 0 125 16.5t36 48.5q0 19 -15 28.5t-60.5 15t-143.5 8.5q-170 5 -243.5 44t-73.5 124q0 90 81.5 144.5t239.5 54.5q161 0 252.5 -48.5t122.5 -151.5h-184q-21 77 -193 77q-155 0 -155 -62
q0 -19 12.5 -28.5t57.5 -16t141 -10.5q193 -8 261 -45.5t68 -129.5q0 -89 -88 -144t-250 -55zM307 -328v67q111 4 125 57q-23 -6 -46 -6q-56 0 -77 13.5t-21 55.5q0 40 26.5 56t89.5 16t89 -21.5t26 -76.5q0 -77 -47 -117.5t-165 -43.5z" />
    <glyph glyph-name="uni0237" unicode="&#x237;" horiz-adv-x="313" 
d="M-78 -285v154h31q35 0 53 2.5t33.5 9t21 23t8 39t2.5 63.5v568h171v-590q0 -86 -10.5 -135.5t-42 -81t-81.5 -42t-137 -10.5h-49z" />
    <glyph glyph-name="uni0245" unicode="&#x245;" horiz-adv-x="906" 
d="M728 0l-278 564l-269 -564h-180l361 713h177l367 -713h-178z" />
    <glyph glyph-name="circumflex" unicode="&#x2c6;" horiz-adv-x="742" 
d="M478 678l-106 128l-105 -128h-150l193 229h123l192 -229h-147z" />
    <glyph glyph-name="caron" unicode="&#x2c7;" horiz-adv-x="742" 
d="M431 678h-123l-193 239h149l105 -132l107 132h147z" />
    <glyph glyph-name="breve" unicode="&#x2d8;" horiz-adv-x="742" 
d="M367 675q-147 0 -203 59t-56 180h121q0 -66 32.5 -94.5t106.5 -29.5q74 1 106.5 29.5t32.5 94.5h124q0 -117 -63 -178t-201 -61z" />
    <glyph glyph-name="dotaccent" unicode="&#x2d9;" horiz-adv-x="747" 
d="M359 673q-60 0 -85 23t-25 80q0 54 27 77.5t83 23.5t83 -23.5t27 -77.5t-27 -78.5t-83 -24.5z" />
    <glyph glyph-name="ring" unicode="&#x2da;" horiz-adv-x="742" 
d="M367 670q-75 0 -116.5 41.5t-41.5 114.5q0 74 43 116t115 42q75 0 117.5 -41.5t42.5 -116.5q0 -70 -43 -113t-117 -43zM367 769q22 0 41 15t19 42q0 30 -16 45.5t-44 15.5t-44 -16t-16 -45q0 -57 60 -57z" />
    <glyph glyph-name="ogonek" unicode="&#x2db;" horiz-adv-x="742" 
d="M372 -282q-84 0 -131 33.5t-47 96.5q0 56 37 103.5t143 97.5l98 -49q-95 -56 -125.5 -82.5t-30.5 -56.5q0 -22 18 -35t48 -13q23 0 42.5 12.5t29.5 30.5h139q-62 -138 -221 -138z" />
    <glyph glyph-name="tilde" unicode="&#x2dc;" horiz-adv-x="742" 
d="M108 667q-1 79 34 127t115 48q37 0 73 -17t67 -34.5t54 -17.5q27 0 38 15.5t13 48.5h100q0 -85 -34 -130t-117 -45q-51 0 -110 33.5t-85 33.5q-46 0 -49 -62h-99z" />
    <glyph glyph-name="hungarumlaut" unicode="&#x2dd;" horiz-adv-x="742" 
d="M677 907l-248 -229h-124l197 229h175zM427 907l-251 -229h-122l197 229h176z" />
    <glyph glyph-name="uni03BC" unicode="&#x3bc;" horiz-adv-x="811" 
d="M366 -16q-95 0 -145 52v-242h-166v780h170v-247q0 -89 41 -142t128 -53q88 0 131 59.5t43 159.5v223h172v-574h-146l-14 124q-29 -65 -84.5 -102.5t-129.5 -37.5z" />
    <glyph glyph-name="pi" unicode="&#x3c0;" horiz-adv-x="954" 
d="M582 272v281h-222v-553h-169v553h-166v160h904v-160h-179v-259q0 -48 6 -75t24 -41t40.5 -17.5t66.5 -3.5h31v-157h-47q-70 0 -116.5 7t-82 24t-54 49t-27.5 78t-9 114z" />
    <glyph glyph-name="uni0E3F" unicode="&#xe3f;" horiz-adv-x="870" 
d="M514 -114h-124v114h-310v713h310v126h124v-126q162 -4 237.5 -46.5t75.5 -140.5v-6q0 -68 -35 -103t-112 -49q87 -12 126 -47.5t39 -109.5v-4q0 -108 -81.5 -155.5t-249.5 -51.5v-114zM662 507q0 45 -32 59t-116 15v-150q75 1 111.5 15.5t36.5 56.5v4zM243 431h147v150
h-147v-150zM674 222q0 46 -33 61.5t-127 17.5v-160q96 2 128 18.5t32 58.5v4zM243 140h147v161h-147v-161z" />
    <glyph glyph-name="Wgrave" unicode="&#x1e80;" horiz-adv-x="1288" 
d="M835 0l-197 504l-236 -504h-167l-232 713h174l162 -515l237 515h133l206 -514l198 514h172l-290 -713h-160zM583 797l-251 229h187l199 -229h-135z" />
    <glyph glyph-name="wgrave" unicode="&#x1e81;" horiz-adv-x="1110" 
d="M728 0l-179 390l-198 -390h-146l-204 574h176l123 -375l186 375h134l173 -379l146 379h170l-237 -574h-144zM497 658l-251 229h187l199 -229h-135z" />
    <glyph glyph-name="Wacute" unicode="&#x1e82;" horiz-adv-x="1288" 
d="M835 0l-197 504l-236 -504h-167l-232 713h174l162 -515l237 515h133l206 -514l198 514h172l-290 -713h-160zM581 797l189 229h186l-241 -229h-134z" />
    <glyph glyph-name="wacute" unicode="&#x1e83;" horiz-adv-x="1110" 
d="M728 0l-179 390l-198 -390h-146l-204 574h176l123 -375l186 375h134l173 -379l146 379h170l-237 -574h-144zM495 658l189 229h186l-241 -229h-134z" />
    <glyph glyph-name="Wdieresis" unicode="&#x1e84;" horiz-adv-x="1288" 
d="M835 0l-197 504l-236 -504h-167l-232 713h174l162 -515l237 515h133l206 -514l198 514h172l-290 -713h-160zM515 793q-54 0 -77 21t-23 72q0 49 25 70.5t75 21.5q51 0 75 -21.5t24 -70.5t-24 -71t-75 -22zM782 793q-55 0 -77 20.5t-22 72.5q0 49 24 70.5t75 21.5
q50 0 75 -21.5t25 -70.5t-24.5 -71t-75.5 -22z" />
    <glyph glyph-name="wdieresis" unicode="&#x1e85;" horiz-adv-x="1110" 
d="M728 0l-179 390l-198 -390h-146l-204 574h176l123 -375l186 375h134l173 -379l146 379h170l-237 -574h-144zM429 654q-54 0 -77 21t-23 72q0 49 25 70.5t75 21.5q51 0 75 -21.5t24 -70.5t-24 -71t-75 -22zM696 654q-55 0 -77 20.5t-22 72.5q0 49 24 70.5t75 21.5
q50 0 75 -21.5t25 -70.5t-24.5 -71t-75.5 -22z" />
    <glyph glyph-name="Ygrave" unicode="&#x1ef2;" horiz-adv-x="816" 
d="M474 0h-175v293l-322 420h206l207 -284l224 284h205l-345 -423v-290zM361 769l-251 229h187l199 -229h-135z" />
    <glyph glyph-name="ygrave" unicode="&#x1ef3;" horiz-adv-x="796" 
d="M109 -258h-75v147h83q71 0 106 23t70 83l19 34l-313 545h186l209 -377l7 -18l7 16l208 379h183l-349 -609q-44 -76 -73.5 -116.5t-69 -66.5t-82.5 -33t-116 -7zM336 649l-251 229h187l199 -229h-135z" />
    <glyph glyph-name="figuredash" unicode="&#x2012;" horiz-adv-x="796" 
d="M735 407v-169h-674v169h674z" />
    <glyph glyph-name="endash" unicode="&#x2013;" horiz-adv-x="641" 
d="M580 407v-169h-519v169h519z" />
    <glyph glyph-name="emdash" unicode="&#x2014;" horiz-adv-x="911" 
d="M850 407v-169h-789v169h789z" />
    <glyph glyph-name="uni2015" unicode="&#x2015;" horiz-adv-x="1371" 
d="M1310 407v-169h-1249v169h1249z" />
    <glyph glyph-name="uni2016" unicode="&#x2016;" horiz-adv-x="717" 
d="M260 -64h-168v853h168v-853zM625 -64h-168v853h168v-853z" />
    <glyph glyph-name="underscoredbl" unicode="&#x2017;" horiz-adv-x="868" 
d="M844 113v-113h-820v113h820zM844 -68v-113h-820v113h820z" />
    <glyph glyph-name="quoteleft" unicode="&#x2018;" horiz-adv-x="341" 
d="M176 394q-52 0 -74 26t-22 91q0 175 159 207l18 -65q-49 -14 -72 -37t-27 -65q12 4 28 4q47 0 64.5 -15.5t17.5 -62.5q0 -45 -21.5 -64t-70.5 -19z" />
    <glyph glyph-name="quoteright" unicode="&#x2019;" horiz-adv-x="341" 
d="M107 396l-18 65q49 14 72 37t27 65q-12 -4 -28 -4q-47 0 -64.5 15.5t-17.5 62.5q0 45 21.5 64t70.5 19q52 0 74 -26t22 -91q0 -175 -159 -207z" />
    <glyph glyph-name="quotesinglbase" unicode="&#x201a;" horiz-adv-x="376" 
d="M124 -161l-18 64q35 4 58 31t28 69q-5 -1 -15 -1q-47 0 -64.5 15.5t-17.5 62.5q0 45 21.5 64t70.5 19q52 0 74 -26t22 -91q0 -176 -159 -207z" />
    <glyph glyph-name="uni201B" unicode="&#x201b;" horiz-adv-x="341" 
d="M253 460l-18 -64q-78 16 -118 70t-40 140q0 114 95 114q49 0 70.5 -19t21.5 -64q0 -47 -17.5 -62.5t-64.5 -15.5q-10 0 -15 1q5 -42 28 -69t58 -31z" />
    <glyph glyph-name="quotedblleft" unicode="&#x201c;" horiz-adv-x="618" 
d="M176 394q-52 0 -74 26t-22 91q0 175 159 207l18 -65q-49 -14 -72 -37t-27 -65q12 4 28 4q47 0 64.5 -15.5t17.5 -62.5q0 -45 -21.5 -64t-70.5 -19zM453 394q-52 0 -74 26t-22 91q0 175 159 207l18 -65q-49 -14 -72 -37t-27 -65q12 4 28 4q47 0 64.5 -15.5t17.5 -62.5
q0 -45 -21.5 -64t-70.5 -19z" />
    <glyph glyph-name="quotedblright" unicode="&#x201d;" horiz-adv-x="618" 
d="M381 396l-18 65q49 14 72 37t27 65q-12 -4 -28 -4q-47 0 -64.5 15.5t-17.5 62.5q0 45 21.5 64t70.5 19q52 0 74 -26t22 -91q0 -175 -159 -207zM104 396l-18 65q49 14 72 37t27 65q-12 -4 -28 -4q-47 0 -64.5 15.5t-17.5 62.5q0 45 21.5 64t70.5 19q52 0 74 -26t22 -91
q0 -175 -159 -207z" />
    <glyph glyph-name="quotedblbase" unicode="&#x201e;" horiz-adv-x="618" 
d="M377 -161l-18 65q49 14 72 37t27 65q-12 -4 -28 -4q-47 0 -64.5 15.5t-17.5 62.5q0 45 21.5 64t70.5 19q52 0 74 -26t22 -91q0 -176 -159 -207zM100 -161l-18 65q49 14 72 37t27 65q-12 -4 -28 -4q-47 0 -64.5 15.5t-17.5 62.5q0 45 21.5 64t70.5 19q52 0 74 -26t22 -91
q0 -176 -159 -207z" />
    <glyph glyph-name="uni201F" unicode="&#x201f;" horiz-adv-x="618" 
d="M246 460l-18 -64q-154 30 -154 210q0 114 93 114q50 0 72 -19t22 -64q0 -46 -18.5 -62t-65.5 -16q-9 0 -13 1q8 -91 82 -100zM523 460l-18 -64q-154 30 -154 210q0 114 93 114q50 0 72 -19t22 -64q0 -46 -18.5 -62t-65.5 -16q-9 0 -13 1q4 -43 25 -69.5t57 -30.5z" />
    <glyph glyph-name="dagger" unicode="&#x2020;" horiz-adv-x="703" 
d="M636 472h-202v-536h-168v536h-199v159h199v158h168v-158h202v-159z" />
    <glyph glyph-name="daggerdbl" unicode="&#x2021;" horiz-adv-x="703" 
d="M636 80h-204v-144h-168v144h-197v159h197v231h-197v159h197v160h168v-160h204v-159h-204v-231h204v-159z" />
    <glyph glyph-name="bullet" unicode="&#x2022;" horiz-adv-x="407" 
d="M203 161q-69 0 -98.5 29.5t-29.5 98.5q0 68 31.5 98t96.5 30q67 0 98 -29t31 -99q0 -67 -31.5 -97.5t-97.5 -30.5z" />
    <glyph glyph-name="ellipsis" unicode="&#x2026;" horiz-adv-x="962" 
d="M176 -12q-57 0 -79 19.5t-22 77.5q0 56 22.5 76t78.5 20q54 0 75.5 -20t21.5 -76t-21 -76.5t-76 -20.5zM484 -12q-57 0 -79 19.5t-22 77.5q0 56 22.5 76t78.5 20q55 0 77 -20t22 -76t-22 -76.5t-77 -20.5zM789 -12q-57 0 -79 19.5t-22 77.5q0 56 22.5 76t78.5 20
q54 0 75.5 -20t21.5 -76t-21 -76.5t-76 -20.5z" />
    <glyph glyph-name="perthousand" unicode="&#x2030;" horiz-adv-x="1350" 
d="M209 376q-95 0 -143 45t-48 126q0 76 53.5 125t142.5 49q86 0 138 -48t52 -126q0 -79 -51 -125t-144 -46zM1 0l711 713h198l-701 -713h-208zM209 480q34 0 54 17t20 50q0 65 -73 65q-72 0 -72 -65q0 -67 71 -67zM697 -10q-95 0 -143 45t-48 126q0 76 53.5 125t142.5 49
q86 0 138 -48t52 -126q0 -79 -51 -125t-144 -46zM1131 -10q-95 0 -143 45t-48 126q0 76 53.5 125t142.5 49q86 0 138 -48t52 -126q0 -79 -51 -125t-144 -46zM697 94q34 0 54 17t20 50q0 65 -73 65q-72 0 -72 -65q0 -67 71 -67zM1131 94q34 0 54 17t20 50q0 65 -73 65
q-72 0 -72 -65q0 -67 71 -67z" />
    <glyph glyph-name="uni2032" unicode="&#x2032;" horiz-adv-x="196" 
d="M113 505h-105l30 208h151z" />
    <glyph glyph-name="uni2033" unicode="&#x2033;" horiz-adv-x="392" 
d="M114 505h-106l31 208h152zM315 505h-106l25 208h151z" />
    <glyph glyph-name="uni2034" unicode="&#x2034;" horiz-adv-x="783" 
d="M51 713h167v-18q0 -84 -9 -159t-17 -88h-116q-9 12 -17 86t-8 161v18zM308 713h167v-18q0 -84 -9 -159t-17 -88h-116q-9 12 -17 86t-8 161v18zM565 713h167v-18q0 -84 -8.5 -159t-16.5 -88h-116q-9 13 -17.5 87t-8.5 160v18z" />
    <glyph glyph-name="guilsinglleft" unicode="&#x2039;" horiz-adv-x="490" 
d="M446 93h-165l-184 207v24l171 218h157l-174 -223z" />
    <glyph glyph-name="guilsinglright" unicode="&#x203a;" horiz-adv-x="490" 
d="M209 93h-165l195 226l-174 223h157l171 -218v-24z" />
    <glyph glyph-name="exclamdbl" unicode="&#x203c;" horiz-adv-x="725" 
d="M94 713h200v-95q0 -114 -15 -217.5t-27 -136.5q-28 4 -58 4q-36 0 -58 -4q-12 30 -27 134t-15 220v95zM431 713h200v-95q0 -114 -15 -217.5t-27 -136.5q-28 4 -58 4q-36 0 -58 -4q-12 30 -27 134t-15 220v95zM191 -17q-62 0 -88 23.5t-26 81.5q0 55 28.5 79.5t85.5 24.5
t85 -24.5t28 -79.5q0 -105 -113 -105zM528 -17q-62 0 -88 23.5t-26 81.5q0 55 28.5 79.5t85.5 24.5t85 -24.5t28 -79.5q0 -105 -113 -105z" />
    <glyph glyph-name="uni203D" unicode="&#x203d;" horiz-adv-x="880" 
d="M487 236q-45 3 -59 3q-46 0 -62 -3q-3 13 -5 61q-6 136 -6 251v35q-65 -10 -92.5 -39t-27.5 -84h-169q0 267 371 267q183 0 278.5 -53.5t95.5 -157.5q0 -58 -32 -94.5t-78 -51.5t-92 -25.5t-80.5 -29.5t-38.5 -51zM503 548q0 -49 -6 -141q25 19 64.5 33.5t59.5 28
t20 40.5q0 38 -33.5 55.5t-104.5 21.5v-38zM428 -15q-62 0 -88 23.5t-26 80.5q0 55 28.5 79.5t85.5 24.5t85.5 -24.5t28.5 -79.5q0 -104 -114 -104z" />
    <glyph glyph-name="fraction" unicode="&#x2044;" 
d="M685 397l-54 48l257 327l173 -142zM526 360l51 -48l-266 -352l-174 152z" />
    <glyph glyph-name="uni2070" unicode="&#x2070;" horiz-adv-x="432" 
d="M210 347q-99 0 -150.5 50t-51.5 136q0 81 56.5 135t150.5 54q90 0 145 -53t55 -136q0 -84 -54.5 -135t-150.5 -51zM210 457q35 0 56.5 20.5t21.5 55.5t-20.5 54.5t-56.5 19.5q-37 0 -56.5 -19.5t-19.5 -54.5q0 -36 19 -56t56 -20z" />
    <glyph glyph-name="uni2074" unicode="&#x2074;" horiz-adv-x="408" 
d="M407 421h-68v-64h-103v64h-234v78l238 214h99v-204h68v-88zM229 597l-101 -88h108v71l4 31z" />
    <glyph glyph-name="uni2075" unicode="&#x2075;" horiz-adv-x="410" 
d="M208 349q-88 0 -135 28.5t-60 89.5h141q10 -26 59 -26q70 0 70 38q0 41 -61 41q-46 0 -80 -28l-7 -6l-104 15l23 212h317q-1 -53 -25 -71.5t-85 -18.5h-113l-11 -78q45 54 130 54q130 0 130 -118q0 -59 -46.5 -95.5t-142.5 -36.5z" />
    <glyph glyph-name="uni2076" unicode="&#x2076;" horiz-adv-x="435" 
d="M410 477q0 -60 -48.5 -95t-135.5 -35q-207 0 -207 182q0 85 54 139t147 54q77 0 125.5 -30t60.5 -88h-129q-13 25 -58 25q-40 0 -65 -27t-25 -67q0 -12 1 -18q52 67 150 67q130 0 130 -107zM229 442q65 0 65 34q0 32 -56 32q-51 0 -90 -39q24 -27 81 -27z" />
    <glyph glyph-name="uni2077" unicode="&#x2077;" horiz-adv-x="365" 
d="M185 357h-137q28 68 79.5 140t100.5 113h-223v103h350v-94q-109 -109 -170 -262z" />
    <glyph glyph-name="uni2078" unicode="&#x2078;" horiz-adv-x="435" 
d="M210 349q-103 0 -148.5 25.5t-45.5 81.5q0 60 67 83q-50 20 -50 72q0 53 49.5 81t134.5 28q86 0 136.5 -27t50.5 -80q0 -52 -58 -75q65 -22 65 -82q0 -107 -201 -107zM206 571h21q64 0 64 30q0 17 -17 24.5t-57 7.5q-71 0 -71 -32q0 -30 60 -30zM214 435q45 0 64 7.5
t19 25.5t-16.5 25t-53.5 7h-23q-71 0 -71 -32q0 -18 18 -25.5t63 -7.5z" />
    <glyph glyph-name="uni2079" unicode="&#x2079;" horiz-adv-x="415" 
d="M193 554q54 0 87 35q-20 39 -89 39q-68 0 -68 -40q0 -19 16.5 -26.5t53.5 -7.5zM193 346q-79 0 -129.5 28t-62.5 84h134q11 -19 57 -19q98 0 98 91q-44 -53 -134 -53q-150 0 -150 107q0 62 49.5 99.5t133.5 37.5q105 0 156.5 -51t51.5 -139q0 -86 -51.5 -135.5
t-152.5 -49.5z" />
    <glyph glyph-name="uni207A" unicode="&#x207a;" horiz-adv-x="435" 
d="M374 476h-114v-111h-100v111h-111v98h111v109h100v-109h114v-98z" />
    <glyph glyph-name="uni207B" unicode="&#x207b;" horiz-adv-x="435" 
d="M375 474h-327v103h327v-103z" />
    <glyph glyph-name="uni207C" unicode="&#x207c;" horiz-adv-x="435" 
d="M375 560h-327v98h327v-98zM375 396h-327v98h327v-98z" />
    <glyph glyph-name="uni207D" unicode="&#x207d;" horiz-adv-x="325" 
d="M309 220q-140 12 -208.5 85t-68.5 214q0 145 76.5 223.5t200.5 88.5v-115q-149 -19 -149 -197q0 -90 37 -130t112 -49v-120z" />
    <glyph glyph-name="uni207E" unicode="&#x207e;" horiz-adv-x="325" 
d="M7 220v120q75 9 112 49t37 130q0 178 -149 197v115q124 -10 200.5 -88.5t76.5 -223.5q0 -141 -68.5 -214t-208.5 -85z" />
    <glyph glyph-name="uni2080" unicode="&#x2080;" horiz-adv-x="432" 
d="M214 -10q-99 0 -150.5 50t-51.5 136q0 81 56.5 135t150.5 54q90 0 145 -53t55 -136q0 -84 -54.5 -135t-150.5 -51zM214 100q35 0 56.5 20.5t21.5 55.5t-20.5 54.5t-56.5 19.5q-37 0 -56.5 -19.5t-19.5 -54.5q0 -36 19 -56t56 -20z" />
    <glyph glyph-name="uni2081" unicode="&#x2081;" horiz-adv-x="309" 
d="M301 0h-287v104h92v87h-74v85q76 5 89 80h92v-252h88v-104z" />
    <glyph glyph-name="uni2082" unicode="&#x2082;" horiz-adv-x="394" 
d="M376 0h-361v50q0 46 25.5 76t61.5 43t72.5 22t62 20t25.5 29q0 30 -57 30q-68 0 -68 -52h-117q5 145 186 145q87 0 129.5 -33t42.5 -87q0 -40 -26.5 -67t-57.5 -37.5t-76.5 -22.5t-62.5 -19h221v-97z" />
    <glyph glyph-name="uni2083" unicode="&#x2083;" horiz-adv-x="411" 
d="M201 -8q-96 0 -140.5 35t-46.5 106h120q1 -25 19 -37t61 -12q61 0 61 29q0 22 -49 22h-67v84h62q45 0 45 23q0 27 -54 27q-72 0 -72 -44h-118q0 64 49.5 101t142.5 37q83 0 126.5 -28t43.5 -71q0 -37 -21 -54t-61 -22q90 -13 90 -83q0 -113 -191 -113z" />
    <glyph glyph-name="uni2084" unicode="&#x2084;" horiz-adv-x="408" 
d="M411 64h-68v-64h-103v64h-234v78l238 214h99v-204h68v-88zM233 240l-101 -88h108v71l4 31z" />
    <glyph glyph-name="uni2085" unicode="&#x2085;" horiz-adv-x="410" 
d="M212 -8q-88 0 -135 28.5t-60 89.5h141q10 -26 59 -26q70 0 70 38q0 41 -61 41q-46 0 -80 -28l-7 -6l-104 15l23 212h317q-1 -53 -25 -71.5t-85 -18.5h-113l-11 -78q45 54 130 54q130 0 130 -118q0 -59 -46.5 -95.5t-142.5 -36.5z" />
    <glyph glyph-name="uni2086" unicode="&#x2086;" horiz-adv-x="435" 
d="M414 120q0 -60 -48.5 -95t-135.5 -35q-207 0 -207 182q0 85 54 139t147 54q77 0 125.5 -30t60.5 -88h-129q-13 25 -58 25q-40 0 -65 -27t-25 -67q0 -12 1 -18q52 67 150 67q130 0 130 -107zM233 85q65 0 65 34q0 32 -56 32q-51 0 -90 -39q24 -27 81 -27z" />
    <glyph glyph-name="uni2087" unicode="&#x2087;" horiz-adv-x="365" 
d="M189 0h-137q28 68 79.5 140t100.5 113h-223v103h350v-94q-109 -109 -170 -262z" />
    <glyph glyph-name="uni2088" unicode="&#x2088;" horiz-adv-x="435" 
d="M214 -8q-103 0 -148.5 25.5t-45.5 81.5q0 60 67 83q-50 20 -50 72q0 53 49.5 81t134.5 28q86 0 136.5 -27t50.5 -80q0 -52 -58 -75q65 -22 65 -82q0 -107 -201 -107zM210 214h21q64 0 64 30q0 17 -17 24.5t-57 7.5q-71 0 -71 -32q0 -30 60 -30zM218 78q45 0 64 7.5
t19 25.5t-16.5 25t-53.5 7h-23q-71 0 -71 -32q0 -18 18 -25.5t63 -7.5z" />
    <glyph glyph-name="uni2089" unicode="&#x2089;" horiz-adv-x="415" 
d="M197 197q54 0 87 35q-20 39 -89 39q-68 0 -68 -40q0 -19 16.5 -26.5t53.5 -7.5zM197 -11q-79 0 -129.5 28t-62.5 84h134q11 -19 57 -19q98 0 98 91q-44 -53 -134 -53q-150 0 -150 107q0 62 49.5 99.5t133.5 37.5q105 0 156.5 -51t51.5 -139q0 -86 -51.5 -135.5
t-152.5 -49.5z" />
    <glyph glyph-name="uni208A" unicode="&#x208a;" horiz-adv-x="435" 
d="M378 119h-114v-111h-100v111h-111v98h111v109h100v-109h114v-98z" />
    <glyph glyph-name="uni208B" unicode="&#x208b;" horiz-adv-x="435" 
d="M379 117h-327v103h327v-103z" />
    <glyph glyph-name="uni208C" unicode="&#x208c;" horiz-adv-x="435" 
d="M379 203h-327v98h327v-98zM379 39h-327v98h327v-98z" />
    <glyph glyph-name="uni208D" unicode="&#x208d;" horiz-adv-x="325" 
d="M313 -137q-140 12 -208.5 85t-68.5 214q0 145 76.5 223.5t200.5 88.5v-115q-149 -19 -149 -197q0 -90 37 -130t112 -49v-120z" />
    <glyph glyph-name="uni208E" unicode="&#x208e;" horiz-adv-x="325" 
d="M11 -137v120q75 9 112 49t37 130q0 178 -149 197v115q124 -10 200.5 -88.5t76.5 -223.5q0 -141 -68.5 -214t-208.5 -85z" />
    <glyph glyph-name="uni20A1" unicode="&#x20a1;" horiz-adv-x="902" 
d="M407 135l143 436q-27 7 -51 8l-142 -434q17 -4 50 -10zM218 351q0 -106 57 -160l126 384q-183 -28 -183 -222v-2zM323 -106l31 93q-24 3 -48 9l-35 -102h-99l48 133q-175 87 -175 322v5q0 172 113 272t295 105l26 77h94l-26 -82q18 -2 50 -8l30 90h98l-40 -120
q153 -73 187 -257h-177q-12 63 -61 101l-131 -398q172 14 194 169h180q-25 -156 -126 -239.5t-298 -83.5h-4l-28 -86h-98z" />
    <glyph glyph-name="uni20A2" unicode="&#x20a2;" horiz-adv-x="887" 
d="M868 256q-68 -276 -415 -276q-191 0 -299.5 90.5t-108.5 278.5v5q0 176 118 276.5t307 100.5q153 0 254 -62.5t135 -186.5h-185q-43 98 -203 98q-253 0 -253 -227v-2q0 -167 143 -207v295h124l22 -138q13 82 58.5 113.5t122.5 31.5h75v-153h-94q-94 0 -125 -30t-31 -115
v-13q132 14 171 121h184z" />
    <glyph glyph-name="franc" unicode="&#x20a3;" horiz-adv-x="755" 
d="M688 109h-444v-109h-164v713h636v-148h-472v-94h444v-149h-444v-64h444v-149z" />
    <glyph glyph-name="lira" unicode="&#x20a4;" horiz-adv-x="825" 
d="M607 -15q-44 0 -91.5 14t-78.5 28.5t-77 40.5q-68 -83 -176 -83q-165 0 -165 125q0 51 40 85.5t110 34.5q60 0 138 -29q-3 33 -23 64h-236v70h176l-39 42h-137v70h91q-15 35 -15 69q0 87 78 149.5t210 62.5q139 0 226 -58.5t110 -175.5l-189 -1q-17 88 -143 88
q-53 0 -82 -23t-29 -59q0 -25 10 -52h263v-70h-225q12 -19 24 -42h201v-70h-175q6 -27 6 -60q0 -20 -5 -47q85 -38 143 -38q50 0 68 19.5t18 72.5v14h175v-24q0 -116 -47.5 -166.5t-153.5 -50.5zM187 76q60 0 92 37q-61 29 -101 29q-42 0 -42 -32q0 -14 14 -24t37 -10z" />
    <glyph glyph-name="uni20A6" unicode="&#x20a6;" horiz-adv-x="1031" 
d="M287 539v-30h53l-17 24l-41 76zM745 320v89h-197l63 -89h134zM474 320l-63 89h-124v-89h187zM707 184l43 -75l-5 73v37h-63zM700 0l-155 219h-258v-219h-151v219h-109v101h109v89h-109v100h109v204h198l144 -204h267v204h151v-204h108v-100h-108v-89h108v-101h-108v-219
h-196z" />
    <glyph glyph-name="peseta" unicode="&#x20a7;" horiz-adv-x="2142" 
d="M445 572h-199v-210h204q110 0 153 22t43 79q0 69 -44 89t-157 20zM460 221h-214v-221h-166v713h364q156 0 240.5 -35.5t113.5 -111.5q94 0 123 4q26 4 39 16t21 38q11 37 9 113h140v-163h217v-139h-217v-119q0 -41 1 -63.5t6.5 -44t13.5 -30t25.5 -16t38.5 -9t57 -1.5
h511q95 0 129 6.5t34 27.5q0 14 -6.5 21.5t-32 12.5t-65.5 6.5t-115 1.5q-168 0 -242.5 41t-74.5 127q0 90 81.5 144.5t239.5 54.5q161 0 252.5 -48.5t122.5 -151.5h-184q-21 77 -193 77q-155 0 -155 -62q0 -20 11.5 -30.5t59 -17.5t140.5 -7q131 0 203.5 -19.5t99 -56
t26.5 -99.5q0 -180 -338 -180h-549q-80 0 -129.5 14.5t-78 50t-38.5 86t-10 132.5v152h-157q-20 -217 -354 -214z" />
    <glyph glyph-name="uni20A8" unicode="&#x20a8;" horiz-adv-x="1625" 
d="M1259 -19q-101 0 -189.5 18t-132 36t-100.5 47l-39 20q-87 45 -122.5 62t-88 36.5t-95.5 24.5t-104 5h-141v-230h-167v713h375q187 0 270.5 -53.5t83.5 -171.5q0 -85 -43.5 -130.5t-135.5 -62.5q94 -10 224 -71l42 -20q195 -93 372 -93q88 0 124.5 16.5t36.5 48.5
q0 22 -29.5 33t-77 14t-104.5 4t-114 8.5t-104.5 22.5t-77 50t-29.5 88q0 90 81.5 144.5t239.5 54.5q161 0 252.5 -48.5t122.5 -151.5h-184q-21 77 -193 77q-155 0 -155 -62q0 -27 40 -39t100 -12t130 -6t130 -18t100 -51.5t40 -103.5q0 -89 -88 -144t-250 -55zM453 571
h-206v-198h200q48 0 77.5 2.5t57.5 11.5t41 28t13 50v13q0 57 -41 75t-142 18z" />
    <glyph glyph-name="uni20A9" unicode="&#x20a9;" horiz-adv-x="1346" 
d="M687 462l-26 68l-32 -68h58zM1007 323l19 49h-169l20 -49h130zM742 323l-20 49h-135l-23 -49h178zM428 323l23 49h-163l15 -49h125zM943 157l29 75h-59zM868 0l-91 232h-255l-109 -232h-155l-74 232h-157v91h128l-15 49h-113v90h84l-80 251h152l77 -251h232l116 251h113
l100 -251h240l97 251h150l-102 -251h113v-90h-150l-20 -49h170v-91h-207l-94 -232h-150zM353 159l33 73h-55z" />
    <glyph glyph-name="uni20AA" unicode="&#x20aa;" horiz-adv-x="936" 
d="M330 571h-121v-571h-153v713h281q175 0 250 -83.5t75 -251.5q0 -94 -31 -130.5t-123 -36.5v82q0 79 -5.5 125.5t-24 84t-54 53t-94.5 15.5zM544 0h-259v502q44 0 69.5 -6t43.5 -18.5t25.5 -43t10.5 -66.5t3 -102v-121h100q68 0 109 23t64 86t23 172v287h155v-302
q0 -207 -82.5 -309t-261.5 -102z" />
    <glyph glyph-name="Euro" unicode="&#x20ac;" horiz-adv-x="901" 
d="M920 200q-87 -220 -397 -220q-314 0 -387 226h-120v110h100q-1 11 -1 33v5q0 15 1 22h-100v108h119q40 117 148 182t257 65q135 0 234.5 -55t135.5 -154h-209q-39 58 -160 58q-166 0 -223 -96h416l-57 -108h-388q-1 -7 -1 -23v-2q0 -13 2 -35h358l-56 -110h-261
q59 -74 203 -74q131 0 190 68h196z" />
    <glyph glyph-name="uni20AE" unicode="&#x20ae;" horiz-adv-x="784" 
d="M585 225l-114 -42v-183h-172v119l-114 -42v103l114 42v88l-114 -42v102l114 42v156h-263v145h714v-145h-279v-93l114 42v-101l-114 -42v-88l114 42v-103z" />
    <glyph glyph-name="uni20B1" unicode="&#x20b1;" horiz-adv-x="930" 
d="M470 578h-191v-53h369q-44 53 -178 53zM681 413q0 21 -1 30h-401v-51h401q1 7 1 21zM475 256q135 0 177 53h-373v-53h196zM485 121h-206v-121h-164v309h-88v83h88v51h-88v82h88v188h354q142 0 230 -50t122 -138h82v-82h-64q1 -10 1 -31q0 -13 -1 -20h64v-83h-80
q-31 -87 -116.5 -138t-221.5 -50z" />
    <glyph glyph-name="uni2105" unicode="&#x2105;" horiz-adv-x="916" 
d="M1 0l711 713h198l-701 -713h-208zM403 526q-7 -71 -56.5 -110.5t-137.5 -39.5q-95 0 -143 45t-48 126q0 76 53.5 125t142.5 49q82 0 131.5 -41t57.5 -111h-121q-8 43 -72 43q-72 0 -72 -65q0 -67 71 -67q63 0 72 46h122zM697 -10q-95 0 -143 45t-48 126q0 76 53.5 125
t142.5 49q86 0 138 -48t52 -126q0 -79 -51 -125t-144 -46zM697 94q34 0 54 17t20 50q0 65 -73 65q-72 0 -72 -65q0 -67 71 -67z" />
    <glyph glyph-name="uni2116" unicode="&#x2116;" horiz-adv-x="1575" 
d="M1239 304q-267 0 -267 209q0 99 73.5 158t196.5 59q126 0 198 -56.5t72 -158.5q0 -98 -67.5 -154.5t-205.5 -56.5zM1242 417q70 0 102.5 24t32.5 74q0 102 -133 102q-66 0 -101 -26.5t-35 -75.5q0 -98 134 -98zM248 489l-7 10v-499h-162v713h168l433 -484l6 -9v493h161
v-713h-161zM1499 219v-134h-515v134h515z" />
    <glyph glyph-name="uni2117" unicode="&#x2117;" horiz-adv-x="934" 
d="M467 -20q-197 0 -315 95.5t-118 282.5q0 173 122.5 281t310.5 108t310.5 -108t122.5 -281q0 -187 -118 -282.5t-315 -95.5zM467 88q149 0 233 69t84 201q0 130 -86.5 205.5t-230.5 75.5t-230.5 -75.5t-86.5 -205.5q0 -132 84 -201t233 -69zM501 278h-99v-89h-101v340h193
q174 0 174 -126q0 -60 -41.5 -93t-125.5 -32zM494 441h-92v-80h95q43 0 57.5 10t14.5 33q0 19 -15.5 28t-59.5 9z" />
    <glyph glyph-name="uni2120" unicode="&#x2120;" horiz-adv-x="818" 
d="M580 480l-96 109v-180h-94v304h87l106 -124l111 124h84v-304h-93v181l-100 -110h-5zM170 396q-84 0 -123 27t-45 90h98q2 -46 74 -46q71 0 71 32q0 15 -20 20.5t-87 9.5q-72 3 -102.5 26t-30.5 68q0 44 38.5 73.5t118.5 29.5q76 0 114 -24.5t49 -80.5h-97q-7 33 -74 33
q-60 0 -60 -26q0 -9 5.5 -13t29 -8t70.5 -6q72 -3 100.5 -25.5t30.5 -68.5q0 -53 -41.5 -82t-118.5 -29z" />
    <glyph glyph-name="trademark" unicode="&#x2122;" horiz-adv-x="780" 
d="M293 620h-97v-211h-98v211h-95v93h290v-93zM553 480l-96 109v-180h-94v304h87l106 -124l111 124h84v-304h-93v181l-100 -110h-5z" />
    <glyph glyph-name="uni2126" unicode="&#x2126;" horiz-adv-x="991" 
d="M429 124l-51 -124h-373v148h202q-109 101 -109 239q0 65 26 126t73.5 109t122 77t163.5 29q188 0 288.5 -95.5t100.5 -235.5q0 -133 -124 -249h209v-148h-358l-66 124q81 60 121.5 128.5t40.5 130.5q0 84 -52.5 135.5t-159.5 51.5q-101 0 -155 -51.5t-54 -135.5
q0 -64 38 -132t117 -127z" />
    <glyph glyph-name="uni2153" unicode="&#x2153;" 
d="M681 397l-54 48l257 327l173 -142zM522 360l51 -48l-266 -352l-174 152zM438 357h-287v104h92v87h-74v85q76 5 89 80h92v-252h88v-104zM827 -8q-96 0 -140.5 35t-46.5 106h120q1 -25 19 -37t61 -12q61 0 61 29q0 22 -49 22h-67v84h62q45 0 45 23q0 27 -54 27
q-72 0 -72 -44h-118q0 64 49.5 101t142.5 37q83 0 126.5 -28t43.5 -71q0 -37 -21 -54t-61 -22q90 -13 90 -83q0 -113 -191 -113z" />
    <glyph glyph-name="uni2154" unicode="&#x2154;" 
d="M681 397l-54 48l257 327l173 -142zM522 360l51 -48l-266 -352l-174 152zM472 357h-361v50q0 46 25.5 76t61.5 43t72.5 22t62 20t25.5 29q0 30 -57 30q-68 0 -68 -52h-117q5 145 186 145q87 0 129.5 -33t42.5 -87q0 -40 -26.5 -67t-57.5 -37.5t-76.5 -22.5t-62.5 -19h221
v-97zM827 -8q-96 0 -140.5 35t-46.5 106h120q1 -25 19 -37t61 -12q61 0 61 29q0 22 -49 22h-67v84h62q45 0 45 23q0 27 -54 27q-72 0 -72 -44h-118q0 64 49.5 101t142.5 37q83 0 126.5 -28t43.5 -71q0 -37 -21 -54t-61 -22q90 -13 90 -83q0 -113 -191 -113z" />
    <glyph glyph-name="uni2155" unicode="&#x2155;" 
d="M681 397l-54 48l257 327l173 -142zM522 360l51 -48l-266 -352l-174 152zM438 357h-287v104h92v87h-74v85q76 5 89 80h92v-252h88v-104zM841 -8q-88 0 -135 28.5t-60 89.5h141q10 -26 59 -26q70 0 70 38q0 41 -61 41q-46 0 -80 -28l-7 -6l-104 15l23 212h317
q-1 -53 -25 -71.5t-85 -18.5h-113l-11 -78q45 54 130 54q130 0 130 -118q0 -59 -46.5 -95.5t-142.5 -36.5z" />
    <glyph glyph-name="uni2156" unicode="&#x2156;" 
d="M681 397l-54 48l257 327l173 -142zM522 360l51 -48l-266 -352l-174 152zM471 357h-361v50q0 46 25.5 76t61.5 43t72.5 22t62 20t25.5 29q0 30 -57 30q-68 0 -68 -52h-117q5 145 186 145q87 0 129.5 -33t42.5 -87q0 -40 -26.5 -67t-57.5 -37.5t-76.5 -22.5t-62.5 -19h221
v-97zM841 -8q-88 0 -135 28.5t-60 89.5h141q10 -26 59 -26q70 0 70 38q0 41 -61 41q-46 0 -80 -28l-7 -6l-104 15l23 212h317q-1 -53 -25 -71.5t-85 -18.5h-113l-11 -78q45 54 130 54q130 0 130 -118q0 -59 -46.5 -95.5t-142.5 -36.5z" />
    <glyph glyph-name="uni2157" unicode="&#x2157;" 
d="M681 397l-54 48l257 327l173 -142zM522 360l51 -48l-266 -352l-174 152zM285 349q-96 0 -140.5 35t-46.5 106h120q1 -25 19 -37t61 -12q61 0 61 29q0 22 -49 22h-67v84h62q45 0 45 23q0 27 -54 27q-72 0 -72 -44h-118q0 64 49.5 101t142.5 37q83 0 126.5 -28t43.5 -71
q0 -37 -21 -54t-61 -22q90 -13 90 -83q0 -113 -191 -113zM841 -8q-88 0 -135 28.5t-60 89.5h141q10 -26 59 -26q70 0 70 38q0 41 -61 41q-46 0 -80 -28l-7 -6l-104 15l23 212h317q-1 -53 -25 -71.5t-85 -18.5h-113l-11 -78q45 54 130 54q130 0 130 -118q0 -59 -46.5 -95.5
t-142.5 -36.5z" />
    <glyph glyph-name="uni2158" unicode="&#x2158;" 
d="M681 397l-54 48l257 327l173 -142zM522 360l51 -48l-266 -352l-174 152zM507 421h-68v-64h-103v64h-234v78l238 214h99v-204h68v-88zM329 597l-101 -88h108v71l4 31zM841 -8q-88 0 -135 28.5t-60 89.5h141q10 -26 59 -26q70 0 70 38q0 41 -61 41q-46 0 -80 -28l-7 -6
l-104 15l23 212h317q-1 -53 -25 -71.5t-85 -18.5h-113l-11 -78q45 54 130 54q130 0 130 -118q0 -59 -46.5 -95.5t-142.5 -36.5z" />
    <glyph glyph-name="uni2159" unicode="&#x2159;" 
d="M681 397l-54 48l257 327l173 -142zM522 360l51 -48l-266 -352l-174 152zM438 357h-287v104h92v87h-74v85q76 5 89 80h92v-252h88v-104zM1027 120q0 -60 -48.5 -95t-135.5 -35q-207 0 -207 182q0 85 54 139t147 54q77 0 125.5 -30t60.5 -88h-129q-12 25 -58 25
q-40 0 -65 -27t-25 -67q0 -12 1 -18q52 67 150 67q130 0 130 -107zM846 85q65 0 65 34q0 32 -56 32q-51 0 -90 -39q24 -27 81 -27z" />
    <glyph glyph-name="uni215A" unicode="&#x215a;" 
d="M681 397l-54 48l257 327l173 -142zM522 360l51 -48l-266 -352l-174 152zM292 349q-88 0 -135 28.5t-60 89.5h141q10 -26 59 -26q70 0 70 38q0 41 -61 41q-46 0 -80 -28l-7 -6l-104 15l23 212h317q-1 -53 -25 -71.5t-85 -18.5h-113l-11 -78q45 54 130 54q130 0 130 -118
q0 -59 -46.5 -95.5t-142.5 -36.5zM1027 120q0 -60 -48.5 -95t-135.5 -35q-207 0 -207 182q0 85 54 139t147 54q77 0 125.5 -30t60.5 -88h-129q-12 25 -58 25q-40 0 -65 -27t-25 -67q0 -12 1 -18q52 67 150 67q130 0 130 -107zM846 85q65 0 65 34q0 32 -56 32q-51 0 -90 -39
q24 -27 81 -27z" />
    <glyph glyph-name="uni215B" unicode="&#x215b;" 
d="M681 397l-54 48l257 327l173 -142zM522 360l51 -48l-266 -352l-174 152zM437 357h-287v104h92v87h-74v85q76 5 89 80h92v-252h88v-104zM827 -8q-103 0 -148.5 25.5t-45.5 81.5q0 60 67 83q-50 20 -50 72q0 53 49.5 81t134.5 28q86 0 136.5 -27t50.5 -80q0 -52 -58 -75
q65 -22 65 -82q0 -107 -201 -107zM823 214h21q64 0 64 30q0 17 -17 24.5t-57 7.5q-71 0 -71 -32q0 -30 60 -30zM831 78q45 0 64 7.5t19 25.5t-16.5 25t-53.5 7h-23q-71 0 -71 -32q0 -18 18 -25.5t63 -7.5z" />
    <glyph glyph-name="uni215C" unicode="&#x215c;" 
d="M681 397l-54 48l257 327l173 -142zM522 360l51 -48l-266 -352l-174 152zM827 -8q-103 0 -148.5 25.5t-45.5 81.5q0 60 67 83q-50 20 -50 72q0 53 49.5 81t134.5 28q86 0 136.5 -27t50.5 -80q0 -52 -58 -75q65 -22 65 -82q0 -107 -201 -107zM823 214h21q64 0 64 30
q0 17 -17 24.5t-57 7.5q-71 0 -71 -32q0 -30 60 -30zM831 78q45 0 64 7.5t19 25.5t-16.5 25t-53.5 7h-23q-71 0 -71 -32q0 -18 18 -25.5t63 -7.5zM286 349q-96 0 -140.5 35t-46.5 106h120q1 -25 19 -37t61 -12q61 0 61 29q0 22 -49 22h-67v84h62q45 0 45 23q0 27 -54 27
q-72 0 -72 -44h-118q0 64 49.5 101t142.5 37q83 0 126.5 -28t43.5 -71q0 -37 -21 -54t-61 -22q90 -13 90 -83q0 -113 -191 -113z" />
    <glyph glyph-name="uni215D" unicode="&#x215d;" 
d="M681 397l-54 48l257 327l173 -142zM522 360l51 -48l-266 -352l-174 152zM827 -8q-103 0 -148.5 25.5t-45.5 81.5q0 60 67 83q-50 20 -50 72q0 53 49.5 81t134.5 28q86 0 136.5 -27t50.5 -80q0 -52 -58 -75q65 -22 65 -82q0 -107 -201 -107zM823 214h21q64 0 64 30
q0 17 -17 24.5t-57 7.5q-71 0 -71 -32q0 -30 60 -30zM831 78q45 0 64 7.5t19 25.5t-16.5 25t-53.5 7h-23q-71 0 -71 -32q0 -18 18 -25.5t63 -7.5zM292 349q-88 0 -135 28.5t-60 89.5h141q10 -26 59 -26q70 0 70 38q0 41 -61 41q-46 0 -80 -28l-7 -6l-104 15l23 212h317
q-1 -53 -25 -71.5t-85 -18.5h-113l-11 -78q45 54 130 54q130 0 130 -118q0 -59 -46.5 -95.5t-142.5 -36.5z" />
    <glyph glyph-name="uni215E" unicode="&#x215e;" 
d="M681 397l-54 48l257 327l173 -142zM522 360l51 -48l-266 -352l-174 152zM827 -8q-103 0 -148.5 25.5t-45.5 81.5q0 60 67 83q-50 20 -50 72q0 53 49.5 81t134.5 28q86 0 136.5 -27t50.5 -80q0 -52 -58 -75q65 -22 65 -82q0 -107 -201 -107zM823 214h21q64 0 64 30
q0 17 -17 24.5t-57 7.5q-71 0 -71 -32q0 -30 60 -30zM831 78q45 0 64 7.5t19 25.5t-16.5 25t-53.5 7h-23q-71 0 -71 -32q0 -18 18 -25.5t63 -7.5zM354 357h-137q28 68 79.5 140t100.5 113h-223v103h350v-94q-109 -109 -170 -262z" />
    <glyph glyph-name="uni215F" unicode="&#x215f;" 
d="M681 397l-54 48l257 327l173 -142zM522 360l51 -48l-266 -352l-174 152zM438 357h-287v104h92v87h-74v85q76 5 89 80h92v-252h88v-104z" />
    <glyph glyph-name="uni2190" unicode="&#x2190;" horiz-adv-x="986" 
d="M902 292h-594q60 -52 118.5 -128.5t78.5 -136.5h-182q-14 63 -84 149.5t-164 154.5v73q91 64 155.5 150.5t79.5 152.5h183q-20 -61 -71.5 -134.5t-105.5 -122.5h586v-158z" />
    <glyph glyph-name="arrowup" unicode="&#x2191;" horiz-adv-x="986" 
d="M825 358q-60 20 -133.5 71t-123.5 106v-588h-158v589q-51 -55 -127 -108t-137 -73v183q65 15 152.5 80.5t151.5 156.5h73q66 -92 151.5 -156.5t150.5 -78.5v-182z" />
    <glyph glyph-name="uni2192" unicode="&#x2192;" horiz-adv-x="986" 
d="M662 27h-181q20 60 78 136.5t118 128.5h-594v158h586q-53 49 -104.5 122.5t-72.5 134.5h184q14 -66 79 -152.5t156 -150.5v-73q-94 -68 -164 -154.5t-85 -149.5z" />
    <glyph glyph-name="arrowdown" unicode="&#x2193;" horiz-adv-x="986" 
d="M520 -66h-73q-65 92 -151 156.5t-151 78.5v182q60 -20 133.5 -71t123.5 -105v587h159v-588q50 54 126 107t137 73v-183q-65 -15 -152 -80.5t-152 -156.5z" />
    <glyph glyph-name="uni2196" unicode="&#x2196;" horiz-adv-x="986" 
d="M838 127l-113 -112l-416 415q3 -73 -13.5 -164t-45.5 -150l-129 131q35 57 50 159.5t-3 221.5l52 51q119 -16 221.5 -1.5t158.5 50.5l128 -128q-57 -29 -145 -45t-162 -13z" />
    <glyph glyph-name="uni2197" unicode="&#x2197;" horiz-adv-x="986" 
d="M707 122q-29 57 -45 144.5t-13 161.5l-415 -416l-112 113l416 416q-73 -3 -164.5 13.5t-149.5 45.5l130 129q58 -35 160 -50t221 3l52 -52q-17 -120 -2 -221.5t50 -158.5z" />
    <glyph glyph-name="uni2198" unicode="&#x2198;" horiz-adv-x="986" 
d="M739 62q-121 17 -222.5 2t-157.5 -50l-128 128q56 29 144 45t162 13l-416 415l112 112l417 -416q-3 74 13.5 165t45.5 149l129 -130q-36 -57 -51 -159.5t3 -221.5z" />
    <glyph glyph-name="uni2199" unicode="&#x2199;" horiz-adv-x="986" 
d="M603 11q-57 36 -159.5 51t-221.5 -3l-51 51q16 120 1.5 222.5t-50.5 157.5l128 128q29 -57 45 -145t13 -162l415 417l112 -112l-415 -417q73 3 164 -13.5t150 -45.5z" />
    <glyph glyph-name="partialdiff" unicode="&#x2202;" horiz-adv-x="845" 
d="M426 -19q-203 0 -293 69.5t-90 202.5q0 131 85 206t244 75q189 0 259 -117q-39 96 -154 185.5t-332 189.5h256q191 -92 302 -235t111 -283q0 -144 -93 -218.5t-295 -74.5zM431 120q117 0 165.5 32t48.5 104q0 74 -50 108.5t-162 34.5q-110 0 -163 -34.5t-53 -108.5
q0 -71 50 -103.5t164 -32.5z" />
    <glyph glyph-name="uni2206" unicode="&#x2206;" horiz-adv-x="1130" 
d="M1120 0h-1112l557 725zM828 141l-264 353l-270 -353h534z" />
    <glyph glyph-name="product" unicode="&#x220f;" horiz-adv-x="954" 
d="M595 0v553h-235v-553h-169v553h-166v160h904v-160h-165v-553h-169z" />
    <glyph glyph-name="summation" unicode="&#x2211;" horiz-adv-x="704" 
d="M669 148v-148h-633v176l258 182l-250 184v171h597v-142h-390l269 -214l-276 -209h425z" />
    <glyph glyph-name="minus" unicode="&#x2212;" horiz-adv-x="652" 
d="M634 287h-612v151h612v-151z" />
    <glyph glyph-name="radical" unicode="&#x221a;" horiz-adv-x="962" 
d="M494 0h-165l-175 351h-126v153h225l166 -343l336 553h185z" />
    <glyph glyph-name="infinity" unicode="&#x221e;" horiz-adv-x="1010" 
d="M273 145q-101 0 -156.5 58t-55.5 158q0 92 60.5 153t154.5 61q62 0 116.5 -31t113.5 -86q58 55 111 86t114 31q101 0 157 -57t56 -156q0 -97 -56.5 -157t-155.5 -60q-61 0 -114.5 30.5t-111.5 85.5q-126 -116 -233 -116zM275 290q54 0 128 70q-77 71 -128 71
q-30 0 -49 -20t-19 -50t19.5 -50.5t48.5 -20.5zM734 290q28 0 47.5 20.5t19.5 50.5t-18 50t-49 20q-50 0 -129 -70q78 -71 129 -71z" />
    <glyph glyph-name="integral" unicode="&#x222b;" horiz-adv-x="517" 
d="M-28 -170v140h77q44 0 64.5 3t36 18t19 40.5t3.5 75.5v542q0 132 59.5 190t189.5 58h92v-135h-69q-72 0 -91 -24t-19 -112l-1 -525q0 -58 -4 -97.5t-16 -71.5t-30 -50t-49.5 -30.5t-71.5 -17t-98 -4.5h-92z" />
    <glyph glyph-name="approxequal" unicode="&#x2248;" horiz-adv-x="700" 
d="M201 626q50 0 156 -37.5t142 -37.5q83 0 131 65v-157q-16 -25 -53 -41t-78 -16q-60 0 -161 37.5t-136 37.5q-83 0 -131 -65v159q15 25 52 40t78 15zM71 229q15 25 52.5 40.5t78.5 15.5q50 0 155 -37.5t142 -37.5q85 0 131 65v-157q-16 -26 -53.5 -41.5t-77.5 -15.5
q-61 0 -161.5 37.5t-135.5 37.5q-85 0 -131 -66v159z" />
    <glyph glyph-name="notequal" unicode="&#x2260;" horiz-adv-x="700" 
d="M630 129h-304l-39 -145h-96l39 145h-159v143h198l52 192h-250v141h289l33 122h96l-33 -122h174v-141h-213l-52 -192h265v-143z" />
    <glyph glyph-name="equivalence" unicode="&#x2261;" horiz-adv-x="700" 
d="M630 525h-559v141h559v-141zM630 297h-559v142h559v-142zM630 68h-559v143h559v-143z" />
    <glyph glyph-name="lessequal" unicode="&#x2264;" horiz-adv-x="700" 
d="M626 175l-558 233v132l558 229v-154l-382 -139l382 -139v-162zM629 -52h-556v141h556v-141z" />
    <glyph glyph-name="greaterequal" unicode="&#x2265;" horiz-adv-x="700" 
d="M73 175v162l382 139l-382 139v154l558 -229v-132zM627 -52h-557v141h557v-141z" />
    <glyph glyph-name="uni22A0" unicode="&#x22a0;" horiz-adv-x="853" 
d="M73 0v713h707v-713h-707zM202 592v-471h449v471h-449zM536 170l-111 114l-109 -113l-76 74l112 115l-113 116l76 73l111 -113l111 114l75 -73l-113 -117l113 -115z" />
    <glyph glyph-name="house" unicode="&#x2302;" horiz-adv-x="785" 
d="M712 0h-639v398l320 307l319 -307v-398z" />
    <glyph glyph-name="uni25A0" unicode="&#x25a0;" horiz-adv-x="853" 
d="M73 0v713h707v-713h-707z" />
    <glyph glyph-name="uni25A1" unicode="&#x25a1;" horiz-adv-x="853" 
d="M73 0v713h707v-713h-707zM202 592v-471h449v471h-449z" />
    <glyph glyph-name="uni25AA" unicode="&#x25aa;" horiz-adv-x="708" 
d="M73 0v562h562v-562h-562z" />
    <glyph glyph-name="uni25AB" unicode="&#x25ab;" horiz-adv-x="708" 
d="M73 0v562h562v-562h-562zM202 442v-321h306v321h-306z" />
    <glyph glyph-name="triagup" unicode="&#x25b2;" horiz-adv-x="829" 
d="M834 0h-839l421 728z" />
    <glyph glyph-name="triagrt" unicode="&#x25ba;" horiz-adv-x="829" 
d="M73 -55v839l728 -420z" />
    <glyph glyph-name="triagdn" unicode="&#x25bc;" horiz-adv-x="829" 
d="M-5 716h839l-418 -728z" />
    <glyph glyph-name="triaglf" unicode="&#x25c4;" horiz-adv-x="829" 
d="M756 784v-839l-728 419z" />
    <glyph glyph-name="lozenge" unicode="&#x25ca;" horiz-adv-x="985" 
d="M495 -121l-476 476l474 474l475 -476zM226 357l271 -271l263 264l-270 270z" />
    <glyph glyph-name="uni25CB" unicode="&#x25cb;" horiz-adv-x="845" 
d="M421 -10q-157 0 -257.5 101t-100.5 259q0 157 101 259.5t257 102.5q157 0 259 -102t102 -260q0 -156 -101.5 -258t-259.5 -102zM421 118q100 0 166 66.5t66 165.5t-66 167.5t-166 68.5q-97 0 -163 -68t-66 -168q0 -99 66 -165.5t163 -66.5z" />
    <glyph glyph-name="uni25CE" unicode="&#x25ce;" horiz-adv-x="845" 
d="M421 -10q-157 0 -257.5 101t-100.5 259q0 157 101 259.5t257 102.5q157 0 259 -102t102 -260q0 -156 -101.5 -258t-259.5 -102zM421 118q100 0 166 66.5t66 165.5t-66 167.5t-166 68.5q-97 0 -163 -68t-66 -168q0 -99 66 -165.5t163 -66.5zM422 183q-73 0 -120 47
t-47 119t48 120t119 48q72 0 120.5 -48t48.5 -120q0 -71 -48 -118.5t-121 -47.5zM422 293q24 0 39 16t15 40q0 26 -15 42t-39 16q-23 0 -37.5 -16.5t-14.5 -41.5q0 -23 15 -39.5t37 -16.5z" />
    <glyph glyph-name="uni25CF" unicode="&#x25cf;" horiz-adv-x="845" 
d="M421 -10q-157 0 -257.5 101t-100.5 259q0 157 101 259.5t257 102.5q157 0 259 -102t102 -260q0 -156 -101.5 -258t-259.5 -102z" />
    <glyph glyph-name="uni25E2" unicode="&#x25e2;" horiz-adv-x="829" 
d="M830 523l-594 -594l-216 811z" />
    <glyph glyph-name="uni25E3" unicode="&#x25e3;" horiz-adv-x="829" 
d="M595 -71l-594 594l811 217z" />
    <glyph glyph-name="uni25E4" unicode="&#x25e4;" horiz-adv-x="829" 
d="M815 -52l-811 216l594 594z" />
    <glyph glyph-name="uni25E5" unicode="&#x25e5;" horiz-adv-x="829" 
d="M829 159l-810 -215l217 810z" />
    <glyph glyph-name="uni2605" unicode="&#x2605;" horiz-adv-x="832" 
d="M525 297l72 -214l-183 133l-184 -133l72 215l-182 133l223 -1l72 213l69 -213l226 -1z" />
    <glyph glyph-name="uni263C" unicode="&#x263c;" horiz-adv-x="860" 
d="M417 556l-16 140h52l-17 -140h-19zM317 525l-87 112l47 27l53 -129zM522 535l55 129l45 -27l-85 -112zM242 445l-129 55l26 45l113 -85zM602 461l110 84l29 -44l-129 -56zM256 348q0 71 50 121.5t120 50.5t121 -51t51 -121t-51 -120t-121 -50t-120 50t-50 120zM220 341
l-139 -17v52l139 -17v-18zM633 359l140 17v-52l-140 17v18zM612 253l129 -53l-27 -47l-112 87zM252 239l-111 -86l-28 46l129 54zM537 175l85 -113l-45 -26l-55 129zM330 165l-53 -129l-47 26l87 113zM436 144l17 -140h-52l16 140h19z" />
    <glyph glyph-name="uni263E" unicode="&#x263e;" horiz-adv-x="721" 
d="M499 593q-97 0 -166 -72.5t-69 -174.5q0 -101 69 -173t166 -72q30 0 69 12q-79 -57 -174 -57q-120 0 -205 85t-85 205q0 121 84.5 206t205.5 85q96 0 174 -56q-46 12 -69 12z" />
    <glyph glyph-name="spade" unicode="&#x2660;" horiz-adv-x="834" 
d="M448 278q0 -33 6.5 -67t21 -69t23.5 -54.5t26.5 -52.5t18.5 -35h-248q59 112 77 180q14 52 14 98q-20 -56 -61 -93t-103 -37q-67 0 -115.5 45t-48.5 107q0 79 50 144t177 166l134 107l135 -107q123 -99 171 -164.5t48 -145.5q0 -63 -44.5 -107.5t-107.5 -44.5
q-65 0 -108.5 37t-65.5 93z" />
    <glyph glyph-name="club" unicode="&#x2663;" horiz-adv-x="834" 
d="M610 126q-55 0 -97 31.5t-61 82.5q4 -29 12 -58.5t21 -59t21 -47t23 -45.5t16 -30h-248q78 145 89 241q-21 -52 -64 -83.5t-98 -31.5q-70 0 -120 50t-50 121q0 70 49.5 119.5t120.5 49.5q15 0 41 -6q-20 42 -20 84q0 70 50 119t121 49q70 0 119 -49t49 -119
q0 -45 -19 -86q22 8 46 8q70 0 119 -49t49 -120t-49.5 -121t-119.5 -50z" />
    <glyph glyph-name="heart" unicode="&#x2665;" horiz-adv-x="834" 
d="M415 -17l-136 152q-120 133 -169.5 222.5t-49.5 173.5q0 75 51 128t125 53q73 0 122.5 -45t56.5 -113q7 69 55 113.5t121 44.5q74 0 128 -53.5t54 -127.5q0 -83 -51 -172.5t-173 -223.5z" />
    <glyph glyph-name="diamond" unicode="&#x2666;" horiz-adv-x="834" 
d="M103 356l314 364l313 -364l-313 -366z" />
    <glyph glyph-name="uni267B" unicode="&#x267b;" horiz-adv-x="763" 
d="M318 666v1h161q20 -1 29.5 -2.5t22.5 -10t23 -25.5l24 -41l36 21l-52 -140l-142 27l33 20l-59 104q-12 19 -31 30.5t-32 13.5zM148 517l57 99q9 16 27 25q39 19 81 8t56 -37l-96 -167zM651 457l59 -97q7 -16 7 -35q0 -41 -32.5 -72.5t-61.5 -31.5l-96 166zM137 123h-2
l-79 138q-9 17 -13 27t-2.5 25.5t11.5 32.5l24 41l-36 21l146 26l48 -139l-33 21q-59 -100 -61 -104q-10 -19 -11 -41.5t3 -34.5zM700 242l1 -1l-82 -140q-9 -16 -15.5 -24.5t-21 -15.5t-35.5 -7h-47v-40l-93 113l93 113v-42h119q22 0 42.5 11t29.5 22zM353 54h-112
q-18 0 -36 11q-24 14 -38 41t-14 50.5t8 41.5h192v-144z" />
    <glyph glyph-name="uni267C" unicode="&#x267c;" horiz-adv-x="763" 
d="M713 346q0 -137 -96.5 -233t-233.5 -96q-138 0 -236 96t-98 233q0 139 98 236.5t236 97.5q137 0 233.5 -97.5t96.5 -236.5zM326 600v-1q41 -4 60 -37l46 -80l-25 -16l110 -21l39 108l-28 -14l-17 30q-12 20 -25 25.5t-35 5.5h-125zM243 558l-43 -75l97 -55l73 128
q-11 21 -43.5 29.5t-62.5 -6.5q-18 -11 -21 -21zM632 362l-42 76l-97 -57l75 -130q23 0 47.5 26t24.5 58q0 13 -8 27zM190 177h1q-17 37 2 70l46 81l27 -17l-39 107l-110 -19l26 -17l-19 -32l-5.5 -11t-2.5 -10.5t-0.5 -9t1.5 -9.5l2.5 -7.5t4 -9.5t3.5 -9zM626 267l-1 1
q-21 -31 -61 -31h-92v29l-73 -86l73 -87v33h37q15 0 26.5 5.5t16 11t12.5 17.5zM268 126h87v111h-149q-13 -18 -3.5 -53t36.5 -50q13 -8 29 -8z" />
    <glyph glyph-name="uni267D" unicode="&#x267d;" horiz-adv-x="763" 
d="M713 346q0 -137 -96.5 -233t-233.5 -96q-138 0 -236 96t-98 233q0 139 98 236.5t236 97.5q137 0 233.5 -97.5t96.5 -236.5zM697 346q0 132 -92 224.5t-222 92.5q-132 0 -224.5 -92.5t-92.5 -224.5q0 -130 93 -221.5t224 -91.5q130 0 222 91.5t92 221.5zM326 599v1h125
q22 0 35 -5.5t25 -25.5l17 -30l28 14l-39 -108l-110 21l25 16l-46 80q-8 15 -23 24t-26 11zM200 483l43 75q3 10 21 21q30 15 62.5 6.5t43.5 -29.5l-73 -128zM590 438l42 -76q8 -14 8 -27q0 -32 -24.5 -58t-47.5 -26l-75 130zM191 177h-1l-63 107q-1 2 -3.5 8t-3 8t-2.5 7
t-2 8t-0.5 7.5t0.5 8.5t3 9t5 10l19 32l-26 17l110 19l39 -107l-27 17l-46 -81q-8 -15 -8.5 -32.5t3.5 -27.5zM625 268l1 -1l-62 -107q-8 -12 -12.5 -17.5t-16 -11t-26.5 -5.5h-37v-33l-73 87l73 86v-29h92q18 0 33 7.5t21 15.5zM355 126h-87q-16 0 -29 8q-27 15 -36.5 50
t3.5 53h149v-111z" />
    <glyph glyph-name="uni2E18" unicode="&#x2e18;" horiz-adv-x="853" 
d="M431 593q62 0 88 -23.5t26 -80.5q0 -55 -28.5 -79.5t-85.5 -24.5t-85.5 24.5t-28.5 79.5q0 104 114 104zM422 -149q-183 0 -278.5 53.5t-95.5 157.5q0 58 32 94.5t78 51.5t92 25.5t80.5 29.5t38.5 51l3 28q45 -3 59 -3q45 0 62 3q3 -13 5 -61q6 -136 6 -251v-35
q65 10 92.5 39t27.5 84h169q0 -267 -371 -267zM218 69q0 -38 33.5 -55.5t104.5 -21.5v38q0 49 6 141q-25 -19 -64.5 -33.5t-59.5 -28t-20 -40.5z" />
    <glyph glyph-name="uni3008" unicode="&#x3008;" horiz-adv-x="421" 
d="M441 -189h-191l-230 478l218 486h181l-211 -480z" />
    <glyph glyph-name="uni3009" unicode="&#x3009;" horiz-adv-x="421" 
d="M174 -189h-194l233 484l-211 480h184l215 -486z" />
    <glyph glyph-name="Aumlaut" horiz-adv-x="906" 
d="M116 539q-54 0 -77 21t-23 72q0 49 25 70.5t75 21.5q51 0 75 -21.5t24 -70.5t-24 -71t-75 -22zM788 539q-55 0 -77 20.5t-22 72.5q0 49 24 70.5t75 21.5q50 0 75 -21.5t25 -70.5t-24.5 -71t-75.5 -22zM583 291l-133 271l-129 -271h262zM727 0l-76 155h-395l-74 -155h-181
l361 713h177l367 -713h-179z" />
    <glyph glyph-name="Oumlaut" horiz-adv-x="943" 
d="M98 618q-33 0 -46.5 13t-13.5 46q0 56 60 56q32 0 46.5 -13t14.5 -43q0 -27 -17 -43t-44 -16zM850 618q-62 0 -62 59q0 56 62 56t62 -56q0 -59 -62 -59zM471 -20q-200 0 -313 91.5t-113 277.5v5q0 176 118 276.5t307 100.5q190 0 309 -99.5t119 -276.5v-7
q0 -180 -116 -274t-311 -94zM470 132q125 0 190 50.5t65 166.5v1q0 121 -65.5 175.5t-188.5 54.5q-253 0 -253 -229v-1q0 -110 65.5 -164t186.5 -54z" />
    <glyph glyph-name="Uumlaut" horiz-adv-x="901" 
d="M356 524q-40 0 -56.5 22t-16.5 75q0 98 73 98q39 0 56.5 -23t17.5 -75q0 -50 -17.5 -73.5t-56.5 -23.5zM542 524q-41 0 -57.5 22t-16.5 75q0 98 74 98q38 0 56.5 -23t18.5 -75q0 -97 -75 -97zM451 -20q-194 0 -289.5 97.5t-95.5 316.5v319h176v-314q0 -140 52 -199
t159 -59t156.5 57.5t49.5 200.5v314h176v-319q0 -217 -98.5 -315.5t-285.5 -98.5z" />
    <glyph glyph-name="I.alt" horiz-adv-x="330" 
d="M249 0h-168v713h168v-713z" />
    <glyph glyph-name="Iacute.alt" horiz-adv-x="330" 
d="M249 0h-168v713h168v-713zM101 817l189 229h186l-241 -229h-134z" />
    <glyph glyph-name="Ibreve.alt" horiz-adv-x="330" 
d="M249 0h-168v713h168v-713zM164 814q-147 0 -203 59t-56 180h121q0 -66 32.5 -94.5t106.5 -29.5q74 1 106.5 29.5t32.5 94.5h124q0 -117 -63 -178t-201 -61z" />
    <glyph glyph-name="Icircumflex.alt" horiz-adv-x="330" 
d="M249 0h-168v713h168v-713zM273 817l-106 128l-105 -128h-150l193 229h123l192 -229h-147z" />
    <glyph glyph-name="Idieresis.alt" horiz-adv-x="330" 
d="M249 0h-168v713h168v-713zM35 813q-54 0 -77 21t-23 72q0 49 25 70.5t75 21.5q51 0 75 -21.5t24 -70.5t-24 -71t-75 -22zM302 813q-55 0 -77 20.5t-22 72.5q0 49 24 70.5t75 21.5q50 0 75 -21.5t25 -70.5t-24.5 -71t-75.5 -22z" />
    <glyph glyph-name="Idotaccent.alt" horiz-adv-x="330" 
d="M249 0h-168v713h168v-713zM167 812q-60 0 -85 23t-25 80q0 54 27 77.5t83 23.5t83 -23.5t27 -77.5t-27 -78.5t-83 -24.5z" />
    <glyph glyph-name="Igrave.alt" horiz-adv-x="330" 
d="M249 0h-168v713h168v-713zM103 817l-251 229h187l199 -229h-135z" />
    <glyph glyph-name="Imacron.alt" horiz-adv-x="330" 
d="M249 0h-168v713h168v-713zM-42 811v122h429v-122h-429z" />
    <glyph glyph-name="Iogonek.alt" horiz-adv-x="330" 
d="M370 -144q-62 -138 -221 -138q-84 0 -131 33.5t-47 96.5q0 46 23 85t87 79v701h168v-713q-95 -56 -125.5 -82.5t-30.5 -56.5q0 -22 18 -35t48 -13q23 0 42.5 12.5t29.5 30.5h139z" />
    <glyph glyph-name="Itilde.alt" horiz-adv-x="330" 
d="M249 0h-168v713h168v-713zM-92 806q-1 79 34 127t115 48q37 0 73 -17.5t67 -34.5t54 -17q27 0 38 15.5t13 48.5h100q0 -85 -34 -130t-117 -45q-51 0 -110 33.5t-85 33.5q-46 0 -49 -62h-99z" />
    <glyph glyph-name="i.dot" horiz-adv-x="311" 
d="M159 662q-59 0 -84.5 23t-25.5 80q0 54 27.5 77.5t82.5 23.5t82.5 -23.5t27.5 -77.5q0 -103 -110 -103zM243 0h-175v574h175v-574z" />
    <glyph glyph-name="cordinal" horiz-adv-x="608" 
d="M580 488q-20 -184 -279 -184q-267 0 -267 209q0 99 73.5 158t196.5 59q124 0 195.5 -50t79.5 -140h-140q-8 77 -133 77q-66 0 -101 -26.5t-35 -75.5q0 -98 134 -98q125 0 135 71h141z" />
    <glyph glyph-name="g.alt" horiz-adv-x="790" 
d="M792 -52q0 -209 -378 -209h-46q-185 0 -265 32.5t-80 100.5q0 58 47 88.5t154 39.5q-107 1 -155.5 23t-48.5 82q0 115 200 123q-87 13 -129.5 49t-42.5 108q0 94 87 147.5t257 53.5h23q61 0 89.5 1t46 6t20.5 11.5t3 22.5v8h188v-7q0 -46 -34 -55t-155 -8q-41 1 -65 1
q130 -8 188.5 -52t58.5 -129q0 -97 -83 -142t-253 -45h-68q-81 0 -121.5 -4.5t-52.5 -12.5t-12 -24q0 -19 38 -26t141 -6h158q155 0 222.5 -38.5t67.5 -133.5v-5zM401 308q99 0 145 19t46 60q0 45 -41.5 64t-139.5 19h-20q-95 0 -134.5 -20.5t-39.5 -66.5q0 -44 41.5 -59.5
t142.5 -15.5zM396 -129h38q111 0 155.5 18t44.5 51v5q0 30 -28.5 42.5t-123.5 12.5h-137q-76 0 -112 -15t-36 -51v-1q0 -35 46.5 -48.5t152.5 -13.5z" />
    <glyph glyph-name="g.alt2" horiz-adv-x="866" 
d="M425 126q208 0 208 161q0 83 -55 128t-155 45q-207 0 -207 -173q0 -83 48.5 -122t160.5 -39zM412 -244q-176 0 -261.5 51t-100.5 160h187q16 -47 56.5 -66.5t132.5 -19.5q204 0 204 124v92q-71 -101 -259 -101q-70 0 -128 16t-103.5 50t-71 91t-25.5 134
q0 143 89.5 224.5t240.5 81.5q188 0 265 -121l12 102h146v-570q0 -118 -101 -183t-283 -65z" />
    <glyph glyph-name="uni0123.alt" horiz-adv-x="866" 
d="M425 126q208 0 208 161q0 83 -55 128t-155 45q-207 0 -207 -173q0 -83 48.5 -122t160.5 -39zM412 -244q-176 0 -261.5 51t-100.5 160h187q16 -47 56.5 -66.5t132.5 -19.5q204 0 204 124v92q-71 -101 -259 -101q-70 0 -128 16t-103.5 50t-71 91t-25.5 134
q0 143 89.5 224.5t240.5 81.5q188 0 265 -121l12 102h146v-570q0 -118 -101 -183t-283 -65zM431 663q-63 0 -89 21.5t-26 76.5q0 77 47 117.5t165 43.5v-67q-111 -4 -125 -57q23 6 46 6q56 0 77 -13.5t21 -55.5q0 -40 -26.5 -56t-89.5 -16z" />
    <glyph glyph-name="gcircumflex.alt" horiz-adv-x="866" 
d="M425 126q208 0 208 161q0 83 -55 128t-155 45q-207 0 -207 -173q0 -83 48.5 -122t160.5 -39zM412 -244q-176 0 -261.5 51t-100.5 160h187q16 -47 56.5 -66.5t132.5 -19.5q204 0 204 124v92q-71 -101 -259 -101q-70 0 -128 16t-103.5 50t-71 91t-25.5 134
q0 143 89.5 224.5t240.5 81.5q188 0 265 -121l12 102h146v-570q0 -118 -101 -183t-283 -65zM539 673l-106 128l-105 -128h-150l193 229h123l192 -229h-147z" />
    <glyph glyph-name="gdotaccent.alt" horiz-adv-x="866" 
d="M425 126q208 0 208 161q0 83 -55 128t-155 45q-207 0 -207 -173q0 -83 48.5 -122t160.5 -39zM412 -244q-176 0 -261.5 51t-100.5 160h187q16 -47 56.5 -66.5t132.5 -19.5q204 0 204 124v92q-71 -101 -259 -101q-70 0 -128 16t-103.5 50t-71 91t-25.5 134
q0 143 89.5 224.5t240.5 81.5q188 0 265 -121l12 102h146v-570q0 -118 -101 -183t-283 -65zM433 668q-60 0 -85 23t-25 80q0 54 27 77.5t83 23.5t83 -23.5t27 -77.5t-27 -78.5t-83 -24.5z" />
    <glyph glyph-name="gbreve.alt" horiz-adv-x="866" 
d="M425 126q208 0 208 161q0 83 -55 128t-155 45q-207 0 -207 -173q0 -83 48.5 -122t160.5 -39zM412 -244q-176 0 -261.5 51t-100.5 160h187q16 -47 56.5 -66.5t132.5 -19.5q204 0 204 124v92q-71 -101 -259 -101q-70 0 -128 16t-103.5 50t-71 91t-25.5 134
q0 143 89.5 224.5t240.5 81.5q188 0 265 -121l12 102h146v-570q0 -118 -101 -183t-283 -65zM430 670q-147 0 -203 59t-56 180h121q0 -66 32.5 -94.5t106.5 -29.5q74 1 106.5 29.5t32.5 94.5h124q0 -117 -63 -178t-201 -61z" />
    <glyph glyph-name="caronSlovak" horiz-adv-x="742" 
d="M295 708l52 209h149l-89 -209h-112z" />
    <glyph glyph-name="altcedilla" horiz-adv-x="742" 
d="M374 -356q-124 0 -184 44t-76 126h153q4 -32 32 -50.5t73 -18.5q46 0 70 16t24 44q0 27 -23.5 46t-76.5 19h-74v95h106q100 0 149 -44t49 -112q0 -76 -58 -120.5t-164 -44.5z" />
    <glyph glyph-name="uni00200326" horiz-adv-x="747" 
d="M277 -310v67q111 4 125 57q-23 -6 -46 -6q-56 0 -77 13.5t-21 55.5q0 40 26.5 56t89.5 16t89 -21.5t26 -76.5q0 -77 -47 -117.5t-165 -43.5z" />
    <glyph glyph-name="uni00200323" horiz-adv-x="747" 
d="M359 -293q-61 0 -85.5 22.5t-24.5 79.5q0 55 27 78t83 23t82.5 -23t26.5 -78q0 -54 -26.5 -78t-82.5 -24z" />
    <glyph glyph-name="doublegrave" horiz-adv-x="742" 
d="M309 678l-239 229h180l186 -229h-127zM556 678l-242 229h180l189 -229h-127z" />
    <glyph glyph-name="invertedbreve" horiz-adv-x="742" 
d="M371 913q147 0 203 -59t56 -180h-121q0 66 -32.5 94.5t-106.5 29.5q-74 -1 -106.5 -29.5t-32.5 -94.5h-124q0 117 63 178t201 61z" />
    <glyph glyph-name="uni00200326.alt" horiz-adv-x="747" 
d="M361 668q-63 0 -89 21.5t-26 76.5q0 77 47 117.5t165 43.5v-67q-111 -4 -125 -57q22 6 46 6q56 0 77 -13.5t21 -55.5q0 -40 -26.5 -56t-89.5 -16z" />
    <glyph glyph-name="exclamdown.cap" horiz-adv-x="393" 
d="M195 730q62 0 88 -23.5t26 -81.5q0 -55 -28.5 -79.5t-85.5 -24.5t-85 24.5t-28 79.5q0 105 113 105zM292 0h-200v95q0 114 15 217.5t27 136.5q28 -4 58 -4q36 0 58 4q12 -30 27 -134t15 -220v-95z" />
    <glyph glyph-name="questiondown.cap" horiz-adv-x="880" 
d="M406 486q21 -16 81 -16q65 0 83 16q2 -20 2 -50v-11q0 -35 -14.5 -60.5t-43.5 -42.5t-53.5 -26.5t-63.5 -20.5q-87 -24 -108 -38q-23 -16 -23 -39q0 -39 40.5 -57t151.5 -18q110 0 162 29.5t52 98.5h169q0 -269 -383 -269q-362 0 -362 211q0 46 14 79t43 52.5t53 29.5
t64 20q82 21 105 37q25 18 28 47zM486 726q63 0 88.5 -23.5t25.5 -80.5q0 -55 -28 -79.5t-85 -24.5t-85.5 24.5t-28.5 79.5q0 104 113 104z" />
    <glyph glyph-name="uni2E18.cap" horiz-adv-x="853" 
d="M431 720q62 0 88 -23.5t26 -80.5q0 -55 -28.5 -79.5t-85.5 -24.5t-85.5 24.5t-28.5 79.5q0 104 114 104zM422 -22q-183 0 -278.5 53.5t-95.5 157.5q0 58 32 94.5t78 51.5t92 25.5t80.5 29.5t38.5 51l3 28q45 -3 59 -3q45 0 62 3q3 -13 5 -61q6 -136 6 -251v-35
q65 10 92.5 39t27.5 84h169q0 -267 -371 -267zM218 196q0 -38 33.5 -55.5t104.5 -21.5v38q0 49 6 141q-25 -19 -64.5 -33.5t-59.5 -28t-20 -40.5z" />
    <glyph glyph-name="guilsinglleft.cap" horiz-adv-x="520" 
d="M461 131h-165l-184 206v25l171 218h157l-175 -223z" />
    <glyph glyph-name="guilsinglright.cap" horiz-adv-x="520" 
d="M224 131h-165l196 226l-175 223h157l171 -218v-25z" />
    <glyph glyph-name="guillemotleft.cap" horiz-adv-x="805" 
d="M461 131h-165l-184 213v21l174 215h150l-173 -215zM762 131h-165l-194 216v25l171 208h153l-172 -211z" />
    <glyph glyph-name="guillemotright.cap" horiz-adv-x="805" 
d="M524 131h-165l197 234l-172 215h149l175 -215v-21zM222 131h-165l208 238l-172 211h152l172 -208v-25z" />
    <glyph glyph-name="slash.cap" horiz-adv-x="442" 
d="M190 0h-193l255 713h194z" />
    <glyph glyph-name="backslash.cap" horiz-adv-x="442" 
d="M-7 713h189l265 -713h-189z" />
    <glyph glyph-name="bar.cap" horiz-adv-x="352" 
d="M260 -64h-168v853h168v-853z" />
    <glyph glyph-name="uni2016.cap" horiz-adv-x="717" 
d="M260 -64h-168v853h168v-853zM625 -64h-168v853h168v-853z" />
    <glyph glyph-name="brokenbar.cap" horiz-adv-x="352" 
d="M92 408v381h168v-381h-168zM260 328v-392h-168v392h168z" />
    <glyph glyph-name="bullet.cap" horiz-adv-x="407" 
d="M203 100q-69 0 -98.5 29.5t-29.5 98.5q0 68 31.5 98t96.5 30q67 0 98 -29t31 -99q0 -67 -31.5 -97.5t-97.5 -30.5z" />
    <glyph glyph-name="onethirdemdash" horiz-adv-x="531" 
d="M470 407v-169h-409v169h409z" />
    <glyph glyph-name="threequarteremdash" horiz-adv-x="776" 
d="M715 407v-169h-654v169h654z" />
    <glyph glyph-name="periodcentered.cap" horiz-adv-x="367" 
d="M182 253q-62 0 -88 24t-26 81q0 55 28.5 79.5t85.5 24.5t85 -24.5t28 -79.5q0 -105 -113 -105z" />
    <glyph glyph-name="hyphen.cap" horiz-adv-x="691" 
d="M629 449v-168h-568v168h568z" />
    <glyph glyph-name="onethirdemdash.cap" horiz-adv-x="691" 
d="M629 449v-168h-568v168h568z" />
    <glyph glyph-name="endash.cap" horiz-adv-x="531" 
d="M470 449v-168h-409v168h409z" />
    <glyph glyph-name="threequarteremdash.cap" horiz-adv-x="641" 
d="M580 449v-168h-519v168h519z" />
    <glyph glyph-name="emdash.cap" horiz-adv-x="776" 
d="M715 449v-168h-654v168h654z" />
    <glyph glyph-name="figuredash.cap" horiz-adv-x="911" 
d="M850 449v-168h-789v168h789z" />
    <glyph glyph-name="uni2015.cap" horiz-adv-x="796" 
d="M735 449v-168h-674v168h674z" />
    <glyph glyph-name="periodcentered.smcp" horiz-adv-x="1371" 
d="M1310 449v-168h-1249v168h1249z" />
    <glyph glyph-name="parenleft.cap" horiz-adv-x="519" 
d="M488 -135q-83 6 -143.5 20t-117 46.5t-91.5 84t-55.5 134t-20.5 194.5q0 249 107.5 362t320.5 127v-156q-93 -10 -145 -41.5t-78.5 -102t-26.5 -193.5q0 -116 27.5 -182t79 -93.5t143.5 -35.5v-164z" />
    <glyph glyph-name="parenright.cap" horiz-adv-x="519" 
d="M31 -135v163q69 6 113 22t76.5 50.5t46.5 92.5t14 147q0 123 -26.5 193.5t-78.5 102t-145 41.5v156q213 -14 320.5 -127t107.5 -362q0 -112 -20.5 -194.5t-55.5 -134t-91.5 -84t-117 -46.5t-143.5 -20z" />
    <glyph glyph-name="bracketleft.cap" horiz-adv-x="494" 
d="M462 0v-131h-375v964h375v-131h-207v-702h207z" />
    <glyph glyph-name="bracketright.cap" horiz-adv-x="494" 
d="M408 -131h-375v131h207v702h-207v129h375v-962z" />
    <glyph glyph-name="braceleft.cap" horiz-adv-x="525" 
d="M495 -131h-187q-190 0 -190 144q0 40 42.5 114.5t42.5 96.5q0 65 -82 65h-102v145h95q77 0 77 62q0 22 -33.5 87.5t-33.5 105.5q0 143 189 143h182v-129h-86q-108 0 -108 -73q0 -18 34 -72.5t34 -89.5q0 -101 -153 -100v-11q83 0 120.5 -29.5t37.5 -75.5q0 -33 -36 -99
t-36 -91q0 -64 105 -64h88v-129z" />
    <glyph glyph-name="braceright.cap" horiz-adv-x="525" 
d="M30 -131v129h86q108 0 108 73q0 18 -34 83.5t-34 100.5q0 101 153 100v11q-151 0 -151 105q0 33 32.5 88t32.5 80q0 64 -105 64h-88v129h187q190 0 190 -144q0 -40 -42.5 -103.5t-42.5 -85.5q0 -65 76 -65h108v-145h-95q-85 0 -85 -62q0 -23 37.5 -99t37.5 -116
q0 -143 -189 -143h-182z" />
    <glyph glyph-name="anglebracketleft.cap" horiz-adv-x="421" 
d="M441 -131h-191l-230 478l218 486h181l-211 -480z" />
    <glyph glyph-name="anglebracketright.cap" horiz-adv-x="421" 
d="M174 -131h-194l233 484l-211 480h184l215 -486z" />
    <glyph glyph-name="underscore" horiz-adv-x="848" 
d="M824 173v-173h-800v173h800z" />
    <glyph glyph-name="at.cap" horiz-adv-x="974" 
d="M498 -65q-208 0 -331 102.5t-123 301.5q0 186 125 303t334 117q107 0 192 -30.5t135 -81.5t76 -113t26 -130q0 -110 -51 -168t-136 -58q-112 0 -153 72q-36 -78 -145 -78q-87 0 -132.5 50.5t-45.5 121.5q0 75 49 126.5t130 51.5q95 0 136 -63l20 57h88v-128
q0 -54 11.5 -73.5t42.5 -19.5q32 0 44.5 26.5t12.5 82.5q0 47 -15.5 87.5t-48.5 75t-94 54.5t-143 20q-154 0 -242 -83t-88 -219q0 -130 83.5 -208.5t242.5 -78.5q144 0 220 85l129 -64q-119 -138 -349 -138zM483 287q41 0 61 18t20 41q0 26 -21 44t-56 18q-87 0 -87 -64
q0 -25 21.5 -41t61.5 -16z" />
    <glyph glyph-name="registered.cap" horiz-adv-x="934" 
d="M467 -20q-197 0 -315 95.5t-118 282.5q0 173 122.5 281t310.5 108t310.5 -108t122.5 -281q0 -187 -118 -282.5t-315 -95.5zM467 88q149 0 233 69t84 201q0 130 -86.5 205.5t-230.5 75.5t-230.5 -75.5t-86.5 -205.5q0 -132 84 -201t233 -69zM481 446h-92v-80h89
q51 0 69 10t18 33q0 22 -17 29.5t-67 7.5zM471 282h-82v-101h-100v353h193q99 0 143 -29.5t44 -92.5q0 -76 -84 -93q38 -5 52.5 -25.5t14.5 -71.5v-25q0 -11 9 -16h-106q-8 5 -8 18v27q0 37 -15 46.5t-61 9.5z" />
    <glyph glyph-name="zero.inf" horiz-adv-x="432" 
d="M210 -160q-99 0 -150.5 50t-51.5 136q0 81 56.5 135t150.5 54q90 0 145 -53t55 -136q0 -84 -54.5 -135t-150.5 -51zM210 -50q35 0 56.5 20.5t21.5 55.5t-20.5 54.5t-56.5 19.5q-37 0 -56.5 -19.5t-19.5 -54.5q0 -36 19 -56t56 -20z" />
    <glyph glyph-name="one.inf" horiz-adv-x="309" 
d="M297 -150h-287v104h92v87h-74v85q76 5 89 80h92v-252h88v-104z" />
    <glyph glyph-name="two.inf" horiz-adv-x="394" 
d="M372 -150h-361v50q0 46 25.5 76t61.5 43t72.5 22t62 20t25.5 29q0 30 -57 30q-68 0 -68 -52h-117q5 145 186 145q87 0 129.5 -33t42.5 -87q0 -40 -26.5 -67t-57.5 -37.5t-76.5 -22.5t-62.5 -19h221v-97z" />
    <glyph glyph-name="three.inf" horiz-adv-x="411" 
d="M197 -158q-96 0 -140.5 35t-46.5 106h120q1 -25 19 -37t61 -12q61 0 61 29q0 22 -49 22h-67v84h62q45 0 45 23q0 27 -54 27q-72 0 -72 -44h-118q0 64 49.5 101t142.5 37q83 0 126.5 -28t43.5 -71q0 -37 -21 -54t-61 -22q90 -13 90 -83q0 -113 -191 -113z" />
    <glyph glyph-name="four.inf" horiz-adv-x="408" 
d="M407 -86h-68v-64h-103v64h-234v78l238 214h99v-204h68v-88zM229 90l-101 -88h108v71l4 31z" />
    <glyph glyph-name="five.inf" horiz-adv-x="410" 
d="M208 -158q-88 0 -135 28.5t-60 89.5h141q10 -26 59 -26q70 0 70 38q0 41 -61 41q-46 0 -80 -28l-7 -6l-104 15l23 212h317q-1 -53 -25 -71.5t-85 -18.5h-113l-11 -78q45 54 130 54q130 0 130 -118q0 -59 -46.5 -95.5t-142.5 -36.5z" />
    <glyph glyph-name="six.inf" horiz-adv-x="435" 
d="M410 -30q0 -60 -48.5 -95t-135.5 -35q-207 0 -207 182q0 85 54 139t147 54q77 0 125.5 -30t60.5 -88h-129q-13 25 -58 25q-40 0 -65 -27t-25 -67q0 -12 1 -18q52 67 150 67q130 0 130 -107zM229 -65q65 0 65 34q0 32 -56 32q-51 0 -90 -39q24 -27 81 -27z" />
    <glyph glyph-name="seven.inf" horiz-adv-x="365" 
d="M185 -150h-137q28 68 79.5 140t100.5 113h-223v103h350v-94q-109 -109 -170 -262z" />
    <glyph glyph-name="eight.inf" horiz-adv-x="435" 
d="M210 -158q-103 0 -148.5 25.5t-45.5 81.5q0 60 67 83q-50 20 -50 72q0 53 49.5 81t134.5 28q86 0 136.5 -27t50.5 -80q0 -52 -58 -75q65 -22 65 -82q0 -107 -201 -107zM206 64h21q64 0 64 30q0 17 -17 24.5t-57 7.5q-71 0 -71 -32q0 -30 60 -30zM214 -72q45 0 64 7.5
t19 25.5t-16.5 25t-53.5 7h-23q-71 0 -71 -32q0 -18 18 -25.5t63 -7.5z" />
    <glyph glyph-name="nine.inf" horiz-adv-x="415" 
d="M193 47q54 0 87 35q-20 39 -89 39q-68 0 -68 -40q0 -19 16.5 -26.5t53.5 -7.5zM193 -161q-79 0 -129.5 28t-62.5 84h134q11 -19 57 -19q98 0 98 91q-44 -53 -134 -53q-150 0 -150 107q0 62 49.5 99.5t133.5 37.5q105 0 156.5 -51t51.5 -139q0 -86 -51.5 -135.5
t-152.5 -49.5z" />
    <glyph glyph-name="plus.inf" horiz-adv-x="435" 
d="M374 -31h-114v-111h-100v111h-111v98h111v109h100v-109h114v-98z" />
    <glyph glyph-name="minus.inf" horiz-adv-x="435" 
d="M375 -33h-327v103h327v-103z" />
    <glyph glyph-name="equal.inf" horiz-adv-x="435" 
d="M375 53h-327v98h327v-98zM375 -111h-327v98h327v-98z" />
    <glyph glyph-name="parenleft.inf" horiz-adv-x="325" 
d="M309 -287q-140 12 -208.5 85t-68.5 214q0 145 76.5 223.5t200.5 88.5v-115q-149 -19 -149 -197q0 -90 37 -130t112 -49v-120z" />
    <glyph glyph-name="parenright.inf" horiz-adv-x="325" 
d="M7 -287v120q75 9 112 49t37 130q0 178 -149 197v115q124 -10 200.5 -88.5t76.5 -223.5q0 -141 -68.5 -214t-208.5 -85z" />
    <glyph glyph-name="onesixteenth" horiz-adv-x="1548" 
d="M442 357h-287v104h92v87h-74v85q76 5 89 80h92v-252h88v-104zM682 397l-54 48l257 327l173 -142zM523 360l51 -48l-266 -352l-174 152zM962 0h-287v104h92v87h-74v85q76 5 89 80h92v-252h88v-104zM1413 120q0 -60 -48.5 -95t-135.5 -35q-207 0 -207 182q0 85 54 139
t147 54q77 0 125.5 -30t60.5 -88h-129q-12 25 -58 25q-40 0 -65 -27t-25 -67q0 -12 1 -18q52 67 150 67q130 0 130 -107zM1232 85q65 0 65 34q0 32 -56 32q-51 0 -90 -39q24 -27 81 -27z" />
    <glyph glyph-name="threesixteenths" horiz-adv-x="1548" 
d="M681 397l-54 48l257 327l173 -142zM522 360l51 -48l-266 -352l-174 152zM1413 120q0 -60 -48.5 -95t-135.5 -35q-207 0 -207 182q0 85 54 139t147 54q77 0 125.5 -30t60.5 -88h-129q-12 25 -58 25q-40 0 -65 -27t-25 -67q0 -12 1 -18q52 67 150 67q130 0 130 -107z
M1232 85q65 0 65 34q0 32 -56 32q-51 0 -90 -39q24 -27 81 -27zM285 349q-96 0 -140.5 35t-46.5 106h120q1 -25 19 -37t61 -12q61 0 61 29q0 22 -49 22h-67v84h62q45 0 45 23q0 27 -54 27q-72 0 -72 -44h-118q0 64 49.5 101t142.5 37q83 0 126.5 -28t43.5 -71q0 -37 -21 -54
t-61 -22q90 -13 90 -83q0 -113 -191 -113zM961 1h-287v104h92v87h-74v85q76 5 89 80h92v-252h88v-104z" />
    <glyph glyph-name="fivesixteenths" horiz-adv-x="1548" 
d="M681 397l-54 48l257 327l173 -142zM522 360l51 -48l-266 -352l-174 152zM1413 120q0 -60 -48.5 -95t-135.5 -35q-207 0 -207 182q0 85 54 139t147 54q77 0 125.5 -30t60.5 -88h-129q-12 25 -58 25q-40 0 -65 -27t-25 -67q0 -12 1 -18q52 67 150 67q130 0 130 -107z
M1232 85q65 0 65 34q0 32 -56 32q-51 0 -90 -39q24 -27 81 -27zM290 349q-88 0 -135 28.5t-60 89.5h141q10 -26 59 -26q70 0 70 38q0 41 -61 41q-46 0 -80 -28l-7 -6l-104 15l23 212h317q-1 -53 -25 -71.5t-85 -18.5h-113l-11 -78q45 54 130 54q130 0 130 -118
q0 -59 -46.5 -95.5t-142.5 -36.5zM961 1h-287v104h92v87h-74v85q76 5 89 80h92v-252h88v-104z" />
    <glyph glyph-name="sevensixteenths" horiz-adv-x="1548" 
d="M681 397l-54 48l257 327l173 -142zM522 360l51 -48l-266 -352l-174 152zM1413 120q0 -60 -48.5 -95t-135.5 -35q-207 0 -207 182q0 85 54 139t147 54q77 0 125.5 -30t60.5 -88h-129q-12 25 -58 25q-40 0 -65 -27t-25 -67q0 -12 1 -18q52 67 150 67q130 0 130 -107z
M1232 85q65 0 65 34q0 32 -56 32q-51 0 -90 -39q24 -27 81 -27zM362 357h-137q28 68 79.5 140t100.5 113h-223v103h350v-94q-109 -109 -170 -262zM961 1h-287v104h92v87h-74v85q76 5 89 80h92v-252h88v-104z" />
    <glyph glyph-name="ninesixteenths" horiz-adv-x="1548" 
d="M681 397l-54 48l257 327l173 -142zM522 360l51 -48l-266 -352l-174 152zM1413 120q0 -60 -48.5 -95t-135.5 -35q-207 0 -207 182q0 85 54 139t147 54q77 0 125.5 -30t60.5 -88h-129q-12 25 -58 25q-40 0 -65 -27t-25 -67q0 -12 1 -18q52 67 150 67q130 0 130 -107z
M1232 85q65 0 65 34q0 32 -56 32q-51 0 -90 -39q24 -27 81 -27zM316 554q54 0 87 35q-19 39 -89 39q-68 0 -68 -40q0 -19 16.5 -26.5t53.5 -7.5zM316 346q-79 0 -129.5 28t-62.5 84h134q11 -19 57 -19q98 0 98 91q-44 -53 -134 -53q-150 0 -150 107q0 62 49.5 99.5
t133.5 37.5q105 0 156.5 -51t51.5 -139q0 -86 -51.5 -135.5t-152.5 -49.5zM961 1h-287v104h92v87h-74v85q76 5 89 80h92v-252h88v-104z" />
    <glyph glyph-name="elevensixteenths" horiz-adv-x="1904" 
d="M799 358h-287v104h92v87h-74v85q76 5 89 80h92v-252h88v-104zM442 357h-287v104h92v87h-74v85q76 5 89 80h92v-252h88v-104zM1317 0h-287v104h92v87h-74v85q76 5 89 80h92v-252h88v-104zM1768 120q0 -60 -48.5 -95t-135.5 -35q-207 0 -207 182q0 85 54 139t147 54
q77 0 125.5 -30t60.5 -88h-129q-13 25 -58 25q-40 0 -65 -27t-25 -67q0 -12 1 -18q52 67 150 67q130 0 130 -107zM1587 85q65 0 65 34q0 32 -56 32q-51 0 -90 -39q24 -27 81 -27zM1036 397l-54 48l257 327l173 -142zM877 360l51 -48l-266 -352l-174 152z" />
    <glyph glyph-name="thirteensixteenths" horiz-adv-x="1928" 
d="M438 357h-287v104h92v87h-74v85q76 5 89 80h92v-252h88v-104zM1057 397l-54 48l257 327l173 -142zM898 360l51 -48l-266 -352l-174 152zM1792 120q0 -60 -48.5 -95t-135.5 -35q-207 0 -207 182q0 85 54 139t147 54q77 0 125.5 -30t60.5 -88h-129q-13 25 -58 25
q-40 0 -65 -27t-25 -67q0 -12 1 -18q52 67 150 67q130 0 130 -107zM1611 85q65 0 65 34q0 32 -56 32q-51 0 -90 -39q24 -27 81 -27zM685 349q-96 0 -140.5 35t-46.5 106h120q1 -25 19 -37t61 -12q61 0 61 29q0 22 -49 22h-67v84h62q45 0 45 23q0 27 -54 27q-72 0 -72 -44
h-118q0 64 49.5 101t142.5 37q83 0 126.5 -28t43.5 -71q0 -37 -21 -54t-61 -22q90 -13 90 -83q0 -113 -191 -113zM1339 1h-287v104h92v87h-74v85q76 5 89 80h92v-252h88v-104z" />
    <glyph glyph-name="fifteensixteenths" horiz-adv-x="1928" 
d="M438 357h-287v104h92v87h-74v85q76 5 89 80h92v-252h88v-104zM1058 397l-54 48l257 327l173 -142zM899 360l51 -48l-266 -352l-174 152zM1792 120q0 -60 -48.5 -95t-135.5 -35q-207 0 -207 182q0 85 54 139t147 54q77 0 125.5 -30t60.5 -88h-129q-13 25 -58 25
q-40 0 -65 -27t-25 -67q0 -12 1 -18q52 67 150 67q130 0 130 -107zM1611 85q65 0 65 34q0 32 -56 32q-51 0 -90 -39q24 -27 81 -27zM693 349q-88 0 -135 28.5t-60 89.5h141q10 -26 59 -26q70 0 70 38q0 41 -61 41q-46 0 -80 -28l-7 -6l-104 15l23 212h317q-1 -53 -25 -71.5
t-85 -18.5h-113l-11 -78q45 54 130 54q130 0 130 -118q0 -59 -46.5 -95.5t-142.5 -36.5zM1339 1h-287v104h92v87h-74v85q76 5 89 80h92v-252h88v-104z" />
    <glyph glyph-name="mediumwhitecircle" horiz-adv-x="711" 
d="M355 -10q-128 0 -211.5 83.5t-83.5 209.5t85 210t210 84t210.5 -84t85.5 -210q0 -124 -85 -208.5t-211 -84.5zM355 108q73 0 120 49.5t47 125.5q0 78 -47 127t-120 49q-74 0 -119.5 -49t-45.5 -127q0 -77 45.5 -126t119.5 -49z" />
    <glyph glyph-name="mediumblackcircle" horiz-adv-x="711" 
d="M355 -10q-128 0 -211.5 83.5t-83.5 209.5t85 210t210 84t210.5 -84t85.5 -210q0 -124 -85 -208.5t-211 -84.5z" />
    <glyph glyph-name="ballotboxwithx" horiz-adv-x="708" 
d="M73 0v562h562v-562h-562zM202 442v-321h306v321h-306zM418 149l-65 65l-65 -67l-66 65l66 67l-67 67l65 65l67 -66l66 67l65 -66l-66 -67l65 -64z" />
    </font>
</defs>
</svg>
