<?xml version="1.0" standalone="no"?>
<!DOCTYPE svg PUBLIC "-//W3C//DTD SVG 1.1//EN" "http://www.w3.org/Graphics/SVG/1.1/DTD/svg11.dtd" >
<svg xmlns="http://www.w3.org/2000/svg" xmlns:xlink="http://www.w3.org/1999/xlink" version="1.1">
<metadata>
Created by FontForge 20170731 at Fri Oct  7 20:18:56 2016
 By Aleksey,,,
(C) 2016 Sharp Type Corporation
</metadata>
<defs>
<font id="SharpGroteskBold25" horiz-adv-x="601" >
  <font-face 
    font-family="Sharp Grotesk Bold 25"
    font-weight="700"
    font-stretch="ultra-expanded"
    units-per-em="1000"
    panose-1="2 11 8 7 5 7 2 3 2 4"
    ascent="800"
    descent="-200"
    x-height="585"
    cap-height="720"
    bbox="-96 -378 2178 1200"
    underline-thickness="50"
    underline-position="-175"
    unicode-range="U+0020-3009"
  />
<missing-glyph horiz-adv-x="239" 
 />
    <glyph glyph-name=".notdef" horiz-adv-x="239" 
 />
    <glyph glyph-name=".null" horiz-adv-x="0" 
 />
    <glyph glyph-name="nonmarkingreturn" horiz-adv-x="333" 
 />
    <glyph glyph-name="space" unicode=" " horiz-adv-x="239" 
 />
    <glyph glyph-name="exclam" unicode="!" horiz-adv-x="434" 
d="M24 720h386v-57q0 -132 -29 -232t-59 -137q-44 7 -103 7q-70 0 -107 -7q-30 40 -59 137.5t-29 231.5v57zM214 -14q-102 0 -136 26.5t-34 105.5q0 78 37 106t133 28q95 0 132.5 -28.5t37.5 -105.5q0 -78 -36 -105t-134 -27z" />
    <glyph glyph-name="quotedbl" unicode="&#x22;" horiz-adv-x="629" 
d="M65 425q-10 14 -23 104t-13 173v18h259v-18q0 -81 -13.5 -171.5t-22.5 -105.5h-187zM380 425q-10 15 -22.5 104.5t-12.5 172.5v18h259v-18q0 -81 -13.5 -171.5t-22.5 -105.5h-188z" />
    <glyph glyph-name="numbersign" unicode="#" horiz-adv-x="1075" 
d="M599 316l15 83h-136l-15 -83h136zM542 0l14 78h-136l-14 -78h-289l14 78h-109v238h152l15 83h-128v238h171l15 83h289l-15 -83h136l15 83h289l-15 -83h107v-238h-150l-15 -83h126v-238h-169l-14 -78h-289z" />
    <glyph glyph-name="dollar" unicode="$" horiz-adv-x="866" 
d="M578 -154h-288v143q-140 20 -206 81.5t-82 166.5h352q13 -45 119 -45q69 0 69 25q0 16 -36 23t-167 17q-164 11 -241.5 63t-77.5 158q0 101 70.5 167.5t199.5 88.5v158h289v-161q109 -21 175 -80t95 -165h-330q-17 44 -111 44q-71 0 -71 -29q0 -14 34 -20t160 -15
q166 -12 246 -63.5t80 -164.5q0 -98 -68.5 -163.5t-210.5 -86.5v-142z" />
    <glyph glyph-name="percent" unicode="%" horiz-adv-x="1038" 
d="M219 400q-221 0 -221 164q0 75 58.5 121t164.5 46q105 0 163 -46t58 -121q0 -76 -58 -120t-165 -44zM-33 0l745 720h347l-729 -720h-363zM219 526q46 0 46 38q0 41 -46 41q-45 0 -45 -41q0 -38 45 -38zM817 -5q-221 0 -221 164q0 75 58.5 121t164.5 46q105 0 163 -46
t58 -121q0 -76 -58 -120t-165 -44zM817 121q46 0 46 38q0 41 -46 41q-45 0 -45 -41q0 -38 45 -38z" />
    <glyph glyph-name="ampersand" unicode="&#x26;" horiz-adv-x="1052" 
d="M852 -19q-112 0 -230 60q-149 -60 -285 -60q-328 0 -328 202q0 97 59 152t183 82q-9 33 -9 66q0 110 73.5 176t196.5 66t188 -54t65 -146q0 -146 -193 -207q6 -6 10 -9q20 -17 56 -41q103 66 173 179h251q-74 -156 -214 -271q39 -9 70 -9q81 0 129 48v-174
q-56 -60 -195 -60zM462 493q0 -18 5 -34q37 7 52 17.5t15 28.5q0 33 -33 33q-18 0 -28.5 -12.5t-10.5 -32.5zM345 185q38 0 69 4q-39 35 -69 69q-56 -14 -56 -39q0 -34 56 -34z" />
    <glyph glyph-name="quotesingle" unicode="'" horiz-adv-x="318" 
d="M65 425q-10 14 -23 104t-13 173v18h259v-18q0 -81 -13.5 -171.5t-22.5 -105.5h-187z" />
    <glyph glyph-name="parenleft" unicode="(" horiz-adv-x="486" 
d="M471 -170q-250 0 -350 105t-100 353q0 133 29 225t87.5 147t139.5 79t194 24v-268q-80 0 -104.5 -41.5t-24.5 -161.5q0 -107 26.5 -142.5t102.5 -35.5v-284z" />
    <glyph glyph-name="parenright" unicode=")" horiz-adv-x="486" 
d="M15 -170v284q76 0 102.5 35.5t26.5 142.5q0 120 -24.5 161.5t-104.5 41.5v268q113 0 194 -24t139.5 -79t87.5 -147t29 -225q0 -248 -100 -353t-350 -105z" />
    <glyph glyph-name="asterisk" unicode="*" horiz-adv-x="665" 
d="M536 323l-154 164l66 -216h-229l65 213l-152 -164l-115 198l221 52l-221 50l114 197l153 -163l-65 216h229l-66 -214l151 164l116 -198l-220 -52l220 -49z" />
    <glyph glyph-name="plus" unicode="+" horiz-adv-x="763" 
d="M706 240h-193v-187h-263v187h-194v272h194v185h263v-185h193v-272z" />
    <glyph glyph-name="comma" unicode="," horiz-adv-x="427" 
d="M79 -221v129q63 2 92.5 19.5t37.5 63.5q-8 -1 -24 -1q-85 0 -114 26t-29 114q0 84 38 114t135 30q95 0 130.5 -42t35.5 -151q0 -302 -302 -302z" />
    <glyph glyph-name="hyphen" unicode="-" horiz-adv-x="628" 
d="M598 434v-283h-568v283h568z" />
    <glyph glyph-name="period" unicode="." horiz-adv-x="424" 
d="M212 -14q-104 0 -137 27.5t-33 119.5q0 91 36 120t134 29q97 0 133.5 -29t36.5 -120q0 -89 -35.5 -118t-134.5 -29z" />
    <glyph glyph-name="slash" unicode="/" horiz-adv-x="560" 
d="M317 0h-342l268 720h343z" />
    <glyph glyph-name="zero" unicode="0" horiz-adv-x="912" 
d="M456 -19q-211 0 -324 94t-113 283q0 177 120.5 279t322.5 102q196 0 313.5 -102t117.5 -279q0 -188 -114.5 -282.5t-322.5 -94.5zM456 252q52 0 82 28t30 78q0 49 -30.5 78.5t-81.5 29.5t-81.5 -29.5t-30.5 -78.5q0 -50 30 -78t82 -28z" />
    <glyph glyph-name="one" unicode="1" horiz-adv-x="697" 
d="M683 0h-669v278h196v114h-128v204q127 12 175 124h253v-442h173v-278z" />
    <glyph glyph-name="two" unicode="2" horiz-adv-x="820" 
d="M800 0h-781v196q0 50 22 89t53 62.5t79.5 41t87.5 25.5t90 15q12 2 27.5 3.5t26 3t23.5 3t21.5 3t18 3.5t15 4t10.5 4.5t7.5 5.5t2.5 6q0 27 -76 27q-89 0 -92 -47h-312q9 149 110.5 219.5t299.5 70.5q191 0 285 -61.5t94 -172.5q0 -136 -150 -182q-59 -18 -180.5 -33
t-150.5 -29h469v-257z" />
    <glyph glyph-name="three" unicode="3" horiz-adv-x="849" 
d="M420 -19q-101 0 -173.5 12.5t-118.5 35t-73 59.5t-37.5 79.5t-11.5 101.5h319q2 -20 19.5 -28t70.5 -8q87 0 87 31q0 14 -15.5 19t-68.5 5h-76v151h77q74 0 74 27t-83 27q-50 0 -69 -9.5t-20 -29.5h-301q5 153 109.5 217t315.5 64q192 0 283 -56.5t91 -153.5
q0 -115 -148 -149q78 -14 121 -50.5t43 -105.5q0 -113 -103.5 -176t-311.5 -63z" />
    <glyph glyph-name="four" unicode="4" horiz-adv-x="881" 
d="M864 109h-122v-109h-302v109h-423v211l464 400h261v-368h122v-243zM440 352v97l-115 -97h115z" />
    <glyph glyph-name="five" unicode="5" horiz-adv-x="812" 
d="M412 -15q-144 0 -234.5 33t-130 90t-50.5 146h343q7 -28 67 -28q29 0 45.5 10.5t16.5 28.5q0 37 -64 37q-53 0 -83 -26l-301 63l28 381h722q0 -54 -3 -88t-12.5 -63.5t-25 -45t-43.5 -26.5t-64.5 -14.5t-92.5 -3.5h-192l-6 -89q61 60 180 60q139 0 211 -54.5t72 -160.5
q0 -118 -97.5 -184t-285.5 -66z" />
    <glyph glyph-name="six" unicode="6" horiz-adv-x="857" 
d="M845 244q0 -128 -109 -195.5t-292 -67.5q-229 0 -327 92t-98 278q0 188 108 287t310 99q180 0 277 -60t130 -209h-343q-16 25 -67 25q-91 0 -96 -109q87 58 232 58q142 0 208.5 -45.5t66.5 -152.5zM443 240q78 0 78 36q0 30 -51 30q-54 0 -106 -35q26 -31 79 -31z" />
    <glyph glyph-name="seven" unicode="7" horiz-adv-x="779" 
d="M449 0h-397q86 247 310 437h-350v283h763v-242q-131 -117 -201.5 -217t-124.5 -261z" />
    <glyph glyph-name="eight" unicode="8" horiz-adv-x="852" 
d="M426 -15q-217 0 -317 50t-100 159q0 60 38.5 103t111.5 66q-119 36 -119 150q0 112 92 167t297 55q392 0 392 -223q0 -112 -124 -148q70 -22 108 -63.5t38 -96.5q0 -113 -101 -166t-316 -53zM430 421q47 0 68 6t21 21q0 30 -89 30q-88 0 -88 -30q0 -15 20.5 -21t67.5 -6z
M430 242q52 0 73.5 5.5t21.5 22.5q0 31 -95 31t-95 -31q0 -17 21.5 -22.5t73.5 -5.5z" />
    <glyph glyph-name="nine" unicode="9" horiz-adv-x="857" 
d="M391 418q64 0 112 33q-20 39 -84 39q-79 0 -79 -41q0 -31 51 -31zM419 -19q-182 0 -283.5 61t-128.5 211h353q9 -30 65 -30q50 0 71 28t23 84q-82 -56 -229 -56q-274 0 -274 191q0 125 104 196t313 71q405 0 405 -378t-419 -378z" />
    <glyph glyph-name="colon" unicode=":" horiz-adv-x="424" 
d="M211 324q-104 0 -136.5 25.5t-32.5 112.5q0 85 36 112.5t133 27.5t133.5 -27.5t36.5 -112.5q0 -84 -35.5 -111t-134.5 -27zM211 -14q-104 0 -136.5 25.5t-32.5 112.5q0 86 35.5 113t133.5 27q97 0 133.5 -27.5t36.5 -112.5q0 -84 -35.5 -111t-134.5 -27z" />
    <glyph glyph-name="semicolon" unicode=";" horiz-adv-x="427" 
d="M211 324q-102 0 -135.5 27t-33.5 111q0 78 37.5 109t131.5 31t132 -30t38 -110q0 -79 -36.5 -108.5t-133.5 -29.5zM79 -221v129q63 2 92.5 19.5t37.5 63.5q-8 -1 -24 -1q-85 0 -114 24.5t-29 104.5q0 85 38 115t135 30q93 0 129.5 -41.5t36.5 -141.5q0 -302 -302 -302z
" />
    <glyph glyph-name="less" unicode="&#x3c;" horiz-adv-x="724" 
d="M628 -8l-539 227v250l539 233v-279l-214 -76l214 -76v-279z" />
    <glyph glyph-name="equal" unicode="=" horiz-adv-x="763" 
d="M661 413h-560v252h560v-252zM661 80h-560v252h560v-252z" />
    <glyph glyph-name="greater" unicode="&#x3e;" horiz-adv-x="724" 
d="M95 -8v279l214 76l-214 76v279l539 -233v-250z" />
    <glyph glyph-name="question" unicode="?" horiz-adv-x="816" 
d="M521 237q-38 17 -138 17q-93 0 -135 -16q-11 35 -11 63q0 68 35.5 99t119.5 42q44 6 66.5 11.5t29.5 9.5t7 11q0 19 -73 19q-60 0 -82 -12.5t-26 -38.5h-317q15 155 116 225t303 70q389 0 389 -240q0 -73 -37.5 -115t-118.5 -63q-72 -19 -96.5 -34t-31.5 -48zM383 -14
q-114 0 -151 23t-37 93q0 68 40.5 92.5t147.5 24.5q108 0 149 -24.5t41 -92.5q0 -69 -39.5 -92.5t-150.5 -23.5z" />
    <glyph glyph-name="at" unicode="@" horiz-adv-x="905" 
d="M446 -143q-201 0 -317 104t-116 301q0 188 125.5 301.5t327.5 113.5q198 0 312 -101.5t114 -248.5q0 -115 -54.5 -177.5t-152.5 -62.5q-105 0 -148 65q-39 -72 -140 -72q-80 0 -125.5 47t-45.5 140q0 85 47 136t127 51q97 0 127 -63l24 53h116v-160q0 -63 31 -63
q42 0 42 99t-69.5 158t-204.5 59q-145 0 -223.5 -72t-78.5 -199q0 -116 70.5 -194t215.5 -78q126 0 179 67h205q-111 -204 -388 -204zM446 217q23 0 36.5 15t13.5 36q0 23 -13.5 39t-36.5 16q-24 0 -37 -16t-13 -39q0 -21 13 -36t37 -15z" />
    <glyph glyph-name="A" unicode="A" horiz-adv-x="871" 
d="M431 432l-45 -138h103l-44 137l-7 34zM583 0l-29 90h-235l-29 -90h-324l288 720h372l280 -720h-323z" />
    <glyph glyph-name="B" unicode="B" horiz-adv-x="875" 
d="M496 0h-454v720h440q194 0 276.5 -47t82.5 -149q0 -62 -38.5 -98t-113.5 -52q91 -16 132.5 -54.5t41.5 -110.5q0 -209 -367 -209zM449 504h-93v-68h93q60 0 60 35q2 33 -60 33zM444 294h-88v-71h88q44 0 60 9.5t16 27.5q0 34 -76 34z" />
    <glyph glyph-name="C" unicode="C" horiz-adv-x="923" 
d="M910 329q-7 -176 -127.5 -262t-326.5 -86q-437 0 -437 375q0 177 120.5 280t322.5 103q200 0 320.5 -89.5t127.5 -262.5h-342q-3 34 -31 56.5t-75 22.5q-55 0 -86.5 -29.5t-31.5 -78.5q0 -51 30 -78.5t86 -27.5q48 0 76.5 21.5t31.5 55.5h342z" />
    <glyph glyph-name="D" unicode="D" horiz-adv-x="882" 
d="M441 0h-399v720h397q197 0 310.5 -92.5t113.5 -267.5q0 -174 -114 -267t-308 -93zM421 462h-67v-200h67q117 0 117 99q0 54 -26.5 77.5t-90.5 23.5z" />
    <glyph glyph-name="E" unicode="E" horiz-adv-x="778" 
d="M754 242v-242h-712v720h703v-232h-405v-49h387v-144h-387v-53h414z" />
    <glyph glyph-name="F" unicode="F" horiz-adv-x="736" 
d="M713 152h-372v-152h-299v720h671v-263h-372v-63h372v-242z" />
    <glyph glyph-name="G" unicode="G" horiz-adv-x="920" 
d="M604 0l-18 201q-15 -121 -74 -170.5t-179 -49.5q-314 0 -314 354q0 197 115.5 300.5t325.5 103.5q402 0 432 -306h-349q-23 39 -89 39q-56 0 -83 -31t-27 -97q0 -60 24.5 -89t85.5 -29q78 0 103 49h-141v125h475v-400h-287z" />
    <glyph glyph-name="H" unicode="H" horiz-adv-x="894" 
d="M536 0v223h-176v-223h-318v720h318v-228h176v228h316v-720h-316z" />
    <glyph glyph-name="I" unicode="I" horiz-adv-x="691" 
d="M661 0h-631v278h162v163h-162v279h631v-279h-164v-163h164v-278z" />
    <glyph glyph-name="J" unicode="J" horiz-adv-x="807" 
d="M390 -19q-196 0 -287 82t-91 277v46h316v-44q0 -50 14.5 -70t47.5 -20q32 0 47 21t15 75v372h320v-368q0 -191 -96 -281t-286 -90z" />
    <glyph glyph-name="K" unicode="K" horiz-adv-x="917" 
d="M566 0l-148 259l-64 -71v-188h-312v720h312v-222l198 222h373l-265 -283l261 -437h-355z" />
    <glyph glyph-name="L" unicode="L" horiz-adv-x="726" 
d="M705 0h-663v720h329v-429h334v-291z" />
    <glyph glyph-name="M" unicode="M" horiz-adv-x="988" 
d="M481 159l-128 152v-311h-311v720h282l174 -212l169 212h279v-720h-310v313l-134 -154h-21z" />
    <glyph glyph-name="N" unicode="N" horiz-adv-x="934" 
d="M602 0l-258 335v-335h-302v720h299l250 -320v320h301v-720h-290z" />
    <glyph glyph-name="O" unicode="O" horiz-adv-x="912" 
d="M456 -19q-211 0 -324 94t-113 283q0 177 120.5 279t322.5 102q196 0 313.5 -102t117.5 -279q0 -188 -114.5 -282.5t-322.5 -94.5zM456 252q52 0 82 28t30 78q0 49 -30.5 78.5t-81.5 29.5t-81.5 -29.5t-30.5 -78.5q0 -50 30 -78t82 -28z" />
    <glyph glyph-name="P" unicode="P" horiz-adv-x="847" 
d="M447 123h-106v-123h-299v720h403q198 0 292 -77.5t94 -229.5q0 -147 -93.5 -218.5t-290.5 -71.5zM441 467h-100v-111h101q46 0 64 12.5t18 42.5t-18.5 43t-64.5 13z" />
    <glyph glyph-name="Q" unicode="Q" horiz-adv-x="912" 
d="M793 -140h-320l-58 128q-396 17 -396 370q0 177 120.5 279t322.5 102q196 0 313.5 -102t117.5 -279q0 -240 -191 -326zM456 252q52 0 82 28t30 78q0 49 -30.5 78.5t-81.5 29.5t-81.5 -29.5t-30.5 -78.5q0 -50 30 -78t82 -28z" />
    <glyph glyph-name="R" unicode="R" horiz-adv-x="861" 
d="M469 484h-123v-91h123q28 0 44 12.5t16 33.5q0 45 -60 45zM433 177h-87v-177h-304v720h418q213 0 298 -58t85 -187q0 -133 -130 -182q70 -17 93.5 -59.5t23.5 -130.5v-46q0 -42 34 -57h-331q-27 14 -27 48v63q0 39 -15 52.5t-58 13.5z" />
    <glyph glyph-name="S" unicode="S" horiz-adv-x="870" 
d="M444 -21q-152 0 -247 31.5t-138.5 86t-56.5 140.5h352q13 -45 119 -45q69 0 69 25q0 16 -36 23t-167 17q-164 11 -241.5 63t-77.5 158q0 125 106 195.5t292 70.5t289.5 -59.5t141.5 -198.5h-330q-17 44 -111 44q-71 0 -71 -29q0 -14 34 -20t160 -15q166 -12 246 -63.5
t80 -164.5q0 -119 -101.5 -189t-311.5 -70z" />
    <glyph glyph-name="T" unicode="T" horiz-adv-x="786" 
d="M763 443h-212v-443h-320v443h-208v277h740v-277z" />
    <glyph glyph-name="U" unicode="U" horiz-adv-x="878" 
d="M438 -19q-220 0 -311.5 92t-91.5 296v351h325v-351q0 -57 19.5 -81t60.5 -24q39 0 58.5 24.5t19.5 80.5v351h325v-351q0 -201 -102 -294.5t-303 -93.5z" />
    <glyph glyph-name="V" unicode="V" horiz-adv-x="871" 
d="M618 0h-373l-278 720h332l128 -380l7 -41l7 40l131 381h333z" />
    <glyph glyph-name="W" unicode="W" horiz-adv-x="1282" 
d="M742 0l-115 339l-139 -339h-296l-222 720h328l86 -323l127 323h256l111 -323l110 323h324l-271 -720h-299z" />
    <glyph glyph-name="X" unicode="X" horiz-adv-x="821" 
d="M511 0l-100 147l-100 -147h-356l276 371l-252 349h341l90 -136l91 136h340l-248 -337l273 -383h-355z" />
    <glyph glyph-name="Y" unicode="Y" horiz-adv-x="763" 
d="M538 0h-320v280l-271 440h334l101 -174l102 174h332l-278 -439v-281z" />
    <glyph glyph-name="Z" unicode="Z" horiz-adv-x="848" 
d="M816 0h-785v188l344 274h-323v258h762v-206l-313 -253h315v-261z" />
    <glyph glyph-name="bracketleft" unicode="[" horiz-adv-x="520" 
d="M505 67v-227h-469v913h469v-227h-168v-459h168z" />
    <glyph glyph-name="backslash" unicode="\" horiz-adv-x="560" 
d="M-31 720h334l288 -720h-334z" />
    <glyph glyph-name="bracketright" unicode="]" horiz-adv-x="520" 
d="M484 -160h-469v227h167v459h-167v227h469v-913z" />
    <glyph glyph-name="asciicircum" unicode="^" horiz-adv-x="689" 
d="M402 379l-58 154l-64 -154h-204l172 344h195l169 -344h-210z" />
    <glyph glyph-name="uni005F" unicode="_" horiz-adv-x="800" 
d="M790 -107v-247h-780v247h780z" />
    <glyph glyph-name="grave" unicode="`" 
d="M260 663l-192 218h266l111 -218h-185z" />
    <glyph glyph-name="a" unicode="a" horiz-adv-x="835" 
d="M370 158q47 0 87.5 26.5t40.5 61.5v9q-19 -15 -87 -32q-46 -9 -61 -19q-14 -9 -14 -23q0 -23 34 -23zM529 0l-31 96q-68 -115 -264 -115q-221 0 -221 161q0 105 92 150q40 19 86.5 29.5t132.5 19.5q113 11 143.5 17.5t30.5 21.5q0 23 -59 23q-45 0 -67.5 -11.5
t-22.5 -28.5h-317q13 117 116.5 176t283.5 59q191 0 279.5 -65t88.5 -204v-329h-271z" />
    <glyph glyph-name="b" unicode="b" horiz-adv-x="829" 
d="M528 -8q-147 0 -203 92l-15 -84h-274v770h303v-272q57 95 192 95q125 0 203 -80t78 -224q0 -133 -82.5 -215t-201.5 -82zM416 217q38 0 60 18t22 52q0 37 -22 57t-60 20q-39 0 -60 -20t-21 -57q0 -70 81 -70z" />
    <glyph glyph-name="c" unicode="c" horiz-adv-x="822" 
d="M816 266q-8 -134 -112.5 -209.5t-291.5 -75.5q-395 0 -395 305q0 140 105.5 226t291.5 86q181 0 286.5 -78t115.5 -208h-325q-13 52 -79 52q-39 0 -60 -20t-21 -57q0 -70 81 -70q65 0 79 49h325z" />
    <glyph glyph-name="d" unicode="d" horiz-adv-x="829" 
d="M413 217q81 0 81 70q0 37 -21 57t-60 20q-38 0 -60 -20t-22 -57q0 -34 22 -52t60 -18zM519 0l-17 92q-55 -100 -206 -100q-119 0 -199 80t-80 213q0 144 80 226t205 82q136 0 188 -91v268h303v-770h-274z" />
    <glyph glyph-name="e" unicode="e" horiz-adv-x="838" 
d="M820 198q-27 -110 -125 -163.5t-284 -53.5q-394 0 -394 292q0 151 104 238t312 87q202 0 296 -85.5t94 -224.5v-52h-499q15 -59 103 -59q51 0 66 21h327zM422 396q-73 0 -93 -48h185q-8 26 -29.5 37t-62.5 11z" />
    <glyph glyph-name="f" unicode="f" horiz-adv-x="583" 
d="M562 234h-157v-234h-291v234h-102v248h102v41q0 139 67 193t239 54h144v-225h-98q-36 0 -48.5 -14t-12.5 -49h157v-248z" />
    <glyph glyph-name="g" unicode="g" horiz-adv-x="813" 
d="M405 -238h-61q-135 0 -213 14t-105.5 37.5t-27.5 61.5q0 43 50.5 71.5t158.5 30.5q-105 7 -150.5 38t-45.5 87q0 57 42 90t135 45q-92 15 -132.5 52.5t-40.5 108.5q0 200 366 200h42q37 0 47.5 12t10.5 55v55h317v-23q0 -34 -7.5 -55t-20.5 -34.5t-45.5 -19.5t-66 -7.5
t-98.5 -1.5q60 -6 100 -17q70 -20 104.5 -59.5t34.5 -105.5q0 -100 -84 -147t-288 -47h-118q-85 0 -85 -18q0 -10 15 -12t71 -2h209q164 0 233.5 -44t69.5 -138q0 -119 -99.5 -173t-317.5 -54zM411 365q61 0 84.5 5.5t23.5 19.5q0 16 -22.5 22.5t-84.5 6.5h-12
q-52 -1 -73 -7t-21 -22q0 -14 22 -19.5t83 -5.5zM412 -77h26q122 0 122 28v1q0 12 -14.5 17.5t-54.5 5.5h-121q-37 0 -57.5 -3.5t-26.5 -8.5t-6 -13q0 -27 132 -27z" />
    <glyph glyph-name="h" unicode="h" horiz-adv-x="811" 
d="M345 246v-246h-309v770h307v-279q71 107 198 107q115 0 174.5 -63.5t59.5 -184.5v-350h-308v253q0 48 -13 66.5t-48 18.5t-48 -19.5t-13 -72.5z" />
    <glyph glyph-name="i" unicode="i" horiz-adv-x="394" 
d="M197 575q-93 0 -132 24t-39 83q0 58 42 83.5t129 25.5q86 0 128.5 -25.5t42.5 -83.5q0 -57 -41.5 -82t-129.5 -25zM37 0v581q42 -40 159 -40q116 0 161 40v-581h-320z" />
    <glyph glyph-name="j" unicode="j" horiz-adv-x="391" 
d="M196 575q-93 0 -131.5 24t-38.5 83q0 58 41.5 83.5t128.5 25.5q86 0 127 -25t41 -84q0 -57 -40 -82t-128 -25zM-96 -277v229h72q37 0 49.5 14.5t12.5 57.5v557q42 -40 158 -40q113 0 158 40v-626q0 -51 -3.5 -84.5t-14.5 -61.5t-28 -43t-49 -25.5t-72.5 -14t-101.5 -3.5
h-181z" />
    <glyph glyph-name="k" unicode="k" horiz-adv-x="816" 
d="M500 0l-113 204l-46 -51v-153h-305v770h305v-311l-10 -72l27 48l138 150h345l-217 -220l223 -365h-347z" />
    <glyph glyph-name="l" unicode="l" horiz-adv-x="385" 
d="M348 0h-311v770h311v-770z" />
    <glyph glyph-name="m" unicode="m" horiz-adv-x="1219" 
d="M345 219v-219h-309v585h262l31 -124q51 137 216 137q161 0 206 -137q54 137 215 137q218 0 218 -256v-342h-304v227q0 39 -2.5 59t-15.5 35.5t-39 15.5t-39.5 -16.5t-16 -38.5t-2.5 -64v-218h-304v227q0 39 -2.5 59t-15.5 35.5t-39 15.5q-38 0 -48.5 -28t-10.5 -90z" />
    <glyph glyph-name="n" unicode="n" horiz-adv-x="811" 
d="M347 246v-246h-311v585h265l33 -132q47 145 209 145q114 0 173.5 -63.5t59.5 -184.5v-350h-308v253q0 48 -12.5 66.5t-47.5 18.5t-48 -19.5t-13 -72.5z" />
    <glyph glyph-name="o" unicode="o" horiz-adv-x="825" 
d="M412 -19q-395 0 -395 305q0 140 105.5 226t291.5 86t290 -86t104 -226q0 -142 -104 -223.5t-292 -81.5zM412 217q38 0 60 18t22 52q0 37 -22 57t-60 20q-39 0 -60 -20t-21 -57q0 -70 81 -70z" />
    <glyph glyph-name="p" unicode="p" horiz-adv-x="829" 
d="M416 217q82 0 82 70q0 38 -21.5 57.5t-60.5 19.5q-81 0 -81 -77q0 -70 81 -70zM529 -8q-141 0 -189 100v-290h-304v783h257l21 -107q62 115 217 115q125 0 203 -80t78 -224q0 -133 -82 -215t-201 -82z" />
    <glyph glyph-name="q" unicode="q" horiz-adv-x="829" 
d="M793 -198h-304v289q-49 -99 -193 -99q-123 0 -201 77t-78 211q0 145 79 229t203 84q156 0 216 -114l21 106h257v-783zM413 217q81 0 81 70q0 77 -81 77q-39 0 -60.5 -19.5t-21.5 -57.5q0 -70 82 -70z" />
    <glyph glyph-name="r" unicode="r" horiz-adv-x="621" 
d="M365 0h-329v585h259l42 -177q11 102 61 145.5t150 43.5h54v-312h-126q-68 0 -89.5 -22.5t-21.5 -86.5v-176z" />
    <glyph glyph-name="s" unicode="s" horiz-adv-x="775" 
d="M384 -19q-81 0 -144 10t-116.5 33.5t-87 65.5t-44.5 102h316q11 -21 36 -28t77 -7q56 0 56 20t-147 29q-178 11 -247 48.5t-69 128.5q0 104 90 159.5t264 55.5q171 0 266.5 -48.5t133.5 -155.5h-303q-19 35 -106 35q-57 0 -57 -20q0 -22 142 -29q178 -10 251 -49.5
t73 -126.5q0 -223 -384 -223z" />
    <glyph glyph-name="t" unicode="t" horiz-adv-x="623" 
d="M596 242v-242h-193q-162 0 -221.5 66t-59.5 224v46h-110v233q62 4 90 16q45 18 62 62q13 34 19 102h229v-164h185v-249h-185v-29q0 -38 14 -51.5t59 -13.5h111z" />
    <glyph glyph-name="u" unicode="u" horiz-adv-x="799" 
d="M499 0l-33 135q-44 -148 -206 -148q-225 0 -225 248v350h304v-254q0 -49 11 -67t44 -18t45.5 19t12.5 68v252h311v-585h-264z" />
    <glyph glyph-name="v" unicode="v" horiz-adv-x="777" 
d="M543 0h-323l-254 585h329l80 -224l12 -55l11 55l84 224h329z" />
    <glyph glyph-name="w" unicode="w" horiz-adv-x="1106" 
d="M629 0l-88 227l-100 -227h-278l-189 585h300l71 -249l107 249h187l99 -251l92 251h298l-233 -585h-266z" />
    <glyph glyph-name="x" unicode="x" horiz-adv-x="777" 
d="M473 0l-78 104l-77 -104h-359l256 303l-238 283h345l72 -93l71 93h346l-237 -287l246 -299h-347z" />
    <glyph glyph-name="y" unicode="y" horiz-adv-x="782" 
d="M224 -233h-169v233h107q34 0 48 6.5t25 28.5l-269 550h330l89 -224l10 -41l12 41l92 224h317l-274 -573q-41 -86 -68.5 -131t-64.5 -72.5t-76 -34.5t-109 -7z" />
    <glyph glyph-name="z" unicode="z" horiz-adv-x="746" 
d="M725 0h-705v188l289 183h-273v214h688v-205l-264 -163h266z" />
    <glyph glyph-name="braceleft" unicode="{" horiz-adv-x="585" 
d="M570 -160h-268q-111 0 -157 30.5t-46 97.5q0 29 16.5 54t35.5 39t35.5 30.5t16.5 30.5q0 45 -68 45h-113v259h98q37 0 52.5 10.5t15.5 31.5q0 19 -21 39.5t-42.5 47.5t-21.5 62q0 69 46.5 102.5t157.5 33.5h263v-225h-71q-43 0 -60.5 -8t-17.5 -26q0 -10 13.5 -20.5
t29 -19t29 -26.5t13.5 -42q0 -38 -39 -57.5t-139 -18.5v-28q178 1 178 -70q0 -25 -11.5 -44.5t-26 -29.5t-26 -22t-11.5 -23q0 -17 16 -22.5t57 -5.5h66v-225z" />
    <glyph glyph-name="bar" unicode="|" horiz-adv-x="412" 
d="M357 -50h-302v826h302v-826z" />
    <glyph glyph-name="braceright" unicode="}" horiz-adv-x="585" 
d="M15 -160v225h66q41 0 57 5.5t16 22.5q0 11 -11.5 23t-26 22t-26 29.5t-11.5 44.5q0 71 178 70v28q-100 -1 -139 18.5t-39 57.5q0 24 13.5 42t29 26.5t29 19t13.5 20.5q0 18 -17.5 26t-60.5 8h-71v225h263q111 0 157.5 -33.5t46.5 -102.5q0 -35 -21.5 -62t-42.5 -47.5
t-21 -39.5q0 -21 15.5 -31.5t52.5 -10.5h98v-259h-113q-68 0 -68 -45q0 -14 16 -30.5t36 -30.5t36 -39t16 -54q0 -67 -46 -97.5t-157 -30.5h-268z" />
    <glyph glyph-name="asciitilde" unicode="~" horiz-adv-x="717" 
d="M86 376q0 122 37 176t123 54q53 0 118.5 -23.5t78.5 -23.5q20 0 26.5 8t6.5 33h160q0 -124 -36 -176.5t-123 -52.5q-50 0 -115 26t-87 26q-17 0 -23 -10t-6 -37h-160z" />
    <glyph glyph-name="uni00A0" unicode="&#xa0;" horiz-adv-x="239" 
 />
    <glyph glyph-name="exclamdown" unicode="&#xa1;" horiz-adv-x="434" 
d="M220 598q102 0 136 -26.5t34 -105.5q0 -78 -37 -106t-133 -28q-95 0 -132.5 28.5t-37.5 105.5q0 78 36 105t134 27zM410 -136h-386v57q0 132 29 232t59 137q44 -7 103 -7q70 0 107 7q30 -40 59 -137.5t29 -231.5v-57z" />
    <glyph glyph-name="cent" unicode="&#xa2;" horiz-adv-x="812" 
d="M813 266q-12 -107 -77 -175.5t-179 -94.5v-146h-288v142q-260 49 -260 294q0 111 69 190t194 108v133h288v-135q115 -26 179.5 -95t73.5 -175h-328q-7 54 -77 54q-85 0 -85 -77q0 -31 20 -50.5t63 -19.5q64 0 77 47h330z" />
    <glyph glyph-name="sterling" unicode="&#xa3;" horiz-adv-x="849" 
d="M616 -19q-108 0 -260 63q-73 -63 -176 -63q-165 0 -165 124q0 60 40 93.5t111 33.5q49 0 127 -23q-3 29 -29 60h-210v122h108q-59 54 -59 129q0 94 81 155.5t244 61.5q178 0 271 -82.5t111 -223.5h-318q-9 57 -65 57q-52 0 -52 -46q0 -14 21 -51h189v-122h-144
q1 -10 1 -34q0 -34 -10 -72q47 -15 70 -15q38 0 47.5 19t9.5 77h285q0 -152 -48 -207.5t-180 -55.5zM181 86q30 0 55 14q-53 24 -69 24q-21 0 -21 -18q0 -20 35 -20z" />
    <glyph glyph-name="currency" unicode="&#xa4;" horiz-adv-x="842" 
d="M422 268q91 0 91 81v4q0 87 -91 87q-92 0 -92 -87v-4q0 -81 92 -81zM422 99q-64 0 -118 19l-101 -99l-135 130l101 100q-18 45 -18 103q0 59 18 104l-97 94l125 139l105 -102q52 21 120 21q67 0 120 -22l103 101l132 -130l-103 -101q19 -49 19 -105q0 -51 -16 -97l97 -91
l-126 -137l-99 97q-55 -24 -127 -24z" />
    <glyph glyph-name="yen" unicode="&#xa5;" horiz-adv-x="813" 
d="M759 83h-196v-83h-320v83h-190v120h190v36h-190v119h172l-253 362h334l100 -153l102 153h332l-261 -362h180v-119h-196v-36h196v-120z" />
    <glyph glyph-name="brokenbar" unicode="&#xa6;" horiz-adv-x="412" 
d="M55 423v353h302v-353h-302zM55 327h302v-377h-302v377z" />
    <glyph glyph-name="section" unicode="&#xa7;" horiz-adv-x="906" 
d="M584 306h1q21 6 21 26t-41 28t-174 20q-35 3 -54 5h-1q-21 -6 -21 -26t41 -28t174 -20q35 -3 54 -5zM458 -172q-166 0 -274 61.5t-130 181.5h325q20 -35 103 -35q66 0 66 26q0 13 -35.5 18t-194.5 19q-166 14 -234 54.5t-68 129.5q0 63 46.5 102.5t123.5 47.5
q-94 59 -94 158q0 114 89.5 181t281.5 67q317 0 378 -232h-301q-8 37 -101 37q-66 0 -66 -26q0 -7 7.5 -11.5t32 -9.5t67.5 -9.5t119 -10.5q167 -14 236.5 -52.5t69.5 -126.5q0 -60 -40 -96t-110 -46q84 -54 84 -167q0 -115 -95 -188t-286 -73z" />
    <glyph glyph-name="dieresis" unicode="&#xa8;" 
d="M171 661q-68 0 -90 21.5t-22 84.5t24.5 86t87.5 23q64 0 89 -23t25 -86q0 -61 -24.5 -83.5t-89.5 -22.5zM432 661q-67 0 -89.5 21.5t-22.5 84.5q0 64 24 86.5t88 22.5t89 -23t25 -86q0 -61 -24.5 -83.5t-89.5 -22.5z" />
    <glyph glyph-name="copyright" unicode="&#xa9;" horiz-adv-x="912" 
d="M456 -19q-211 0 -324 94t-113 283q0 177 120.5 279t322.5 102q196 0 313.5 -102t117.5 -279q0 -188 -114.5 -282.5t-322.5 -94.5zM456 129q127 0 196.5 57.5t69.5 172.5q0 108 -71.5 170t-190.5 62q-123 0 -196.5 -62t-73.5 -170q0 -115 69 -172.5t197 -57.5zM689 341
q-2 -86 -63 -134.5t-170 -48.5q-230 0 -230 201q0 92 61 148t170 56q105 0 166.5 -50t65.5 -135h-187q-3 32 -46 32q-48 0 -48 -51q0 -46 48 -46q40 0 45 28h188z" />
    <glyph glyph-name="ordfeminine" unicode="&#xaa;" horiz-adv-x="614" 
d="M280 437q32 0 60.5 18t28.5 43v6q-14 -11 -61 -22q-32 -7 -42 -13q-10 -7 -10 -16q0 -16 24 -16zM390 327l-21 67q-49 -80 -184 -80q-177 0 -177 112q0 70 65 102q45 21 175 36q77 7 99 12t22 15q0 16 -41 16q-31 0 -47 -8t-16 -20h-244q18 163 301 163
q147 0 211.5 -45.5t64.5 -141.5v-228h-208z" />
    <glyph glyph-name="guillemotleft" unicode="&#xab;" horiz-adv-x="857" 
d="M468 65h-251l-187 211v25l188 234h248l-192 -243zM825 65h-247l-191 212v27l180 231h245l-187 -235z" />
    <glyph glyph-name="logicalnot" unicode="&#xac;" horiz-adv-x="757" 
d="M716 30h-295v265h-399v273h694v-538z" />
    <glyph glyph-name="uni00AD" unicode="&#xad;" horiz-adv-x="628" 
d="M598 434v-283h-568v283h568z" />
    <glyph glyph-name="registered" unicode="&#xae;" horiz-adv-x="530" 
d="M268 257q-104 0 -165 55t-61 163v25q0 106 61.5 166t161.5 60q99 0 161 -59t62 -164v-28q0 -103 -61.5 -160.5t-158.5 -57.5zM268 333q72 0 107 35t35 113v17q0 157 -145 157q-70 0 -107 -41t-37 -120v-13q0 -78 36 -113t111 -35zM261 552h-15v-50h15q23 0 31 5.5t8 20.5
q0 14 -8 19t-31 5zM259 442h-13v-72h-72v245h101q51 0 74 -20t23 -62q0 -41 -33 -60q24 -16 24 -59v-30q0 -10 5 -14h-74q-4 4 -4 15v24q0 21 -5 27t-26 6z" />
    <glyph glyph-name="macron" unicode="&#xaf;" 
d="M114 678v170h373v-170h-373z" />
    <glyph glyph-name="degree" unicode="&#xb0;" horiz-adv-x="440" 
d="M219 400q-221 0 -221 164q0 75 58.5 121t164.5 46q105 0 163 -46t58 -121q0 -76 -58 -120t-165 -44zM219 526q46 0 46 38q0 41 -46 41q-45 0 -45 -41q0 -38 45 -38z" />
    <glyph glyph-name="plusminus" unicode="&#xb1;" horiz-adv-x="763" 
d="M631 391h-121v-118h-257v118h-122v259h122v116h257v-116h121v-259zM631 -49h-500v264h500v-264z" />
    <glyph glyph-name="twosuperior" unicode="&#xb2;" horiz-adv-x="437" 
d="M409 360h-391v98q0 52 38 80.5t83 33.5t83 8.5t38 11.5q0 11 -33 11q-38 0 -40 -20h-167q9 145 205 145q190 0 190 -117q0 -33 -19 -55t-49.5 -32t-62 -15t-64 -10t-46.5 -12h235v-127z" />
    <glyph glyph-name="threesuperior" unicode="&#xb3;" horiz-adv-x="425" 
d="M209 350q-63 0 -104 9t-63 28.5t-30.5 44t-9.5 61.5h167q2 -9 8.5 -11.5t29.5 -2.5q38 0 38 13q0 10 -36 10h-32v75h31q30 0 30 11t-33 11q-35 0 -37 -14h-159q3 76 55 108t157 32q95 0 141 -28.5t46 -76.5q0 -57 -76 -74q83 -14 83 -78q0 -56 -51.5 -87t-154.5 -31z" />
    <glyph glyph-name="acute" unicode="&#xb4;" 
d="M102 653l139 218h265l-204 -218h-200z" />
    <glyph glyph-name="paragraph" unicode="&#xb6;" horiz-adv-x="1043" 
d="M388 376h25v91h-23q-35 0 -56 -12t-21 -33q0 -22 20.5 -34t54.5 -12zM674 0h-261v123h-35q-374 1 -374 301q0 140 93 218t285 78h619v-720h-261v467h-66v-467z" />
    <glyph glyph-name="periodcentered" unicode="&#xb7;" horiz-adv-x="424" 
d="M212 140q-104 0 -137 27.5t-33 120.5q0 90 36 119.5t134 29.5q97 0 133.5 -29.5t36.5 -119.5t-35.5 -119t-134.5 -29z" />
    <glyph glyph-name="cedilla" unicode="&#xb8;" 
d="M323 -328q-108 0 -173.5 41t-88.5 131h206q7 -20 21 -27t44 -7q54 0 54 33q0 15 -10.5 21t-37.5 6h-116v145h175v-39q87 -3 128 -32.5t41 -101.5q0 -77 -63.5 -123.5t-179.5 -46.5z" />
    <glyph glyph-name="onesuperior" unicode="&#xb9;" horiz-adv-x="372" 
d="M346 360h-325v144h87v39h-66v112q72 3 94 65h133v-216h77v-144z" />
    <glyph glyph-name="ordmasculine" unicode="&#xba;" horiz-adv-x="573" 
d="M287 320q-282 0 -282 209q0 96 75 154.5t209 58.5t208 -58.5t74 -154.5q0 -97 -74 -153t-210 -56zM287 481q59 0 59 48q0 53 -59 53q-58 0 -58 -53q0 -48 58 -48z" />
    <glyph glyph-name="guillemotright" unicode="&#xbb;" horiz-adv-x="857" 
d="M624 65h-251l193 228l-191 242h249l187 -234v-25zM264 65h-248l200 236l-186 234h245l179 -231v-27z" />
    <glyph glyph-name="onequarter" unicode="&#xbc;" horiz-adv-x="1130" 
d="M688 397l-51 47l256 338l191 -173zM527 352l50 -47l-259 -363l-193 180zM458 354h-325v144h87v39h-66v112q72 3 94 65h133v-216h77v-144zM1002 51h-57v-51h-147v51h-209v104l221 205h135v-189h57v-120zM798 171v50l-51 -50h51z" />
    <glyph glyph-name="onehalf" unicode="&#xbd;" horiz-adv-x="1130" 
d="M688 397l-51 47l256 338l191 -173zM527 352l50 -47l-259 -363l-193 180zM458 354h-325v144h87v39h-66v112q72 3 94 65h133v-216h77v-144zM1026 0h-391v98q0 52 38 80.5t83 33.5t83 8.5t38 11.5q0 11 -33 11q-38 0 -40 -20h-167q9 145 205 145q190 0 190 -117
q0 -33 -19 -55t-49.5 -32t-62 -15t-64 -10t-46.5 -12h235v-127z" />
    <glyph glyph-name="threequarters" unicode="&#xbe;" horiz-adv-x="1130" 
d="M688 397l-51 47l256 338l191 -173zM527 352l50 -47l-259 -363l-193 180zM273 344q-63 0 -104 9t-63 28.5t-30.5 44t-9.5 61.5h167q2 -9 8.5 -11.5t29.5 -2.5q38 0 38 13q0 10 -36 10h-32v75h31q30 0 30 11t-33 11q-35 0 -37 -14h-159q3 76 55 108t157 32q95 0 141 -28.5
t46 -76.5q0 -57 -76 -74q83 -14 83 -78q0 -56 -51.5 -87t-154.5 -31zM1002 51h-57v-51h-147v51h-209v104l221 205h135v-189h57v-120zM798 171v50l-51 -50h51z" />
    <glyph glyph-name="questiondown" unicode="&#xbf;" horiz-adv-x="816" 
d="M300 346q38 -17 138 -17q93 0 135 16q11 -35 11 -63q0 -68 -35.5 -99t-119.5 -42q-44 -6 -66.5 -11.5t-29.5 -9.5t-7 -11q0 -19 73 -19q60 0 82 12.5t26 38.5h317q-15 -155 -116 -225t-303 -70q-389 0 -389 240q0 73 37.5 115t118.5 63q72 19 96.5 34t31.5 48zM438 597
q114 0 151 -23t37 -93q0 -68 -40.5 -92.5t-147.5 -24.5q-108 0 -149 24.5t-41 92.5q0 69 39.5 92.5t150.5 23.5z" />
    <glyph glyph-name="Agrave" unicode="&#xc0;" horiz-adv-x="871" 
d="M431 432l-45 -138h103l-44 137l-7 34zM583 0l-29 90h-235l-29 -90h-324l288 720h372l280 -720h-323zM349 758l-192 218h266l111 -218h-185z" />
    <glyph glyph-name="Aacute" unicode="&#xc1;" horiz-adv-x="871" 
d="M431 432l-45 -138h103l-44 137l-7 34zM583 0l-29 90h-235l-29 -90h-324l288 720h372l280 -720h-323zM329 758l139 218h265l-204 -218h-200z" />
    <glyph glyph-name="Acircumflex" unicode="&#xc2;" horiz-adv-x="871" 
d="M431 432l-45 -138h103l-44 137l-7 34zM583 0l-29 90h-235l-29 -90h-324l288 720h372l280 -720h-323zM486 758l-48 100l-51 -100h-189l153 246h176l153 -246h-194z" />
    <glyph glyph-name="Atilde" unicode="&#xc3;" horiz-adv-x="871" 
d="M431 432l-45 -138h103l-44 137l-7 34zM583 0l-29 90h-235l-29 -90h-324l288 720h372l280 -720h-323zM164 762q0 122 37.5 176t123.5 54q53 0 118.5 -23.5t78.5 -23.5q19 0 26 8.5t7 32.5h160q0 -124 -36 -176.5t-123 -52.5q-51 0 -116 26t-86 26q-17 0 -23 -10t-6 -37
h-161z" />
    <glyph glyph-name="Adieresis" unicode="&#xc4;" horiz-adv-x="871" 
d="M431 432l-45 -138h103l-44 137l-7 34zM583 0l-29 90h-235l-29 -90h-324l288 720h372l280 -720h-323zM305 756q-68 0 -90 21.5t-22 84.5t24.5 86t87.5 23q64 0 89 -23t25 -86q0 -61 -24.5 -83.5t-89.5 -22.5zM566 756q-67 0 -89.5 21.5t-22.5 84.5q0 64 24 86.5t88 22.5
t89 -23t25 -86q0 -61 -24.5 -83.5t-89.5 -22.5z" />
    <glyph glyph-name="Aring" unicode="&#xc5;" horiz-adv-x="871" 
d="M431 432l-45 -138h103l-44 137l-7 34zM583 0l-29 90h-235l-29 -90h-324l288 720h372l280 -720h-323zM436 755q-95 0 -149.5 43t-54.5 123q0 83 57.5 128.5t148.5 45.5q93 0 150 -46t57 -125t-56 -124t-153 -45zM439 891q38 0 38 34q0 33 -38 33t-38 -33q0 -34 38 -34z
" />
    <glyph glyph-name="AE" unicode="&#xc6;" horiz-adv-x="1228" 
d="M510 432l-70 -138h114l-30 137l-2 34zM618 0l-20 90h-261l-45 -90h-332l407 720h828v-232h-399l14 -49h367v-144h-328l15 -53h340v-242h-586z" />
    <glyph glyph-name="Ccedilla" unicode="&#xc7;" horiz-adv-x="923" 
d="M477 -347q-108 0 -173.5 41t-88.5 131h206q7 -20 21 -27t44 -7q54 0 54 33q0 15 -10.5 21t-37.5 6h-116v134q-357 33 -357 371q0 177 120.5 280t322.5 103q200 0 320.5 -89.5t127.5 -262.5h-342q-3 34 -31 56.5t-75 22.5q-55 0 -86.5 -29.5t-31.5 -78.5q0 -51 30 -78.5
t86 -27.5q48 0 76.5 21.5t31.5 55.5h342q-6 -155 -100.5 -240t-258.5 -103v-29q87 -3 128 -32.5t41 -101.5q0 -77 -63.5 -123.5t-179.5 -46.5z" />
    <glyph glyph-name="Egrave" unicode="&#xc8;" horiz-adv-x="778" 
d="M754 242v-242h-712v720h703v-232h-405v-49h387v-144h-387v-53h414zM312 758l-192 218h266l111 -218h-185z" />
    <glyph glyph-name="Eacute" unicode="&#xc9;" horiz-adv-x="778" 
d="M754 242v-242h-712v720h703v-232h-405v-49h387v-144h-387v-53h414zM292 758l139 218h265l-204 -218h-200z" />
    <glyph glyph-name="Ecircumflex" unicode="&#xca;" horiz-adv-x="778" 
d="M754 242v-242h-712v720h703v-232h-405v-49h387v-144h-387v-53h414zM449 758l-48 100l-51 -100h-189l153 246h176l153 -246h-194z" />
    <glyph glyph-name="Edieresis" unicode="&#xcb;" horiz-adv-x="778" 
d="M754 242v-242h-712v720h703v-232h-405v-49h387v-144h-387v-53h414zM268 756q-68 0 -90 21.5t-22 84.5t24.5 86t87.5 23q64 0 89 -23t25 -86q0 -61 -24.5 -83.5t-89.5 -22.5zM529 756q-67 0 -89.5 21.5t-22.5 84.5q0 64 24 86.5t88 22.5t89 -23t25 -86q0 -61 -24.5 -83.5
t-89.5 -22.5z" />
    <glyph glyph-name="Igrave" unicode="&#xcc;" horiz-adv-x="691" 
d="M661 0h-631v278h162v163h-162v279h631v-279h-164v-163h164v-278zM259 758l-192 218h266l111 -218h-185z" />
    <glyph glyph-name="Iacute" unicode="&#xcd;" horiz-adv-x="691" 
d="M661 0h-631v278h162v163h-162v279h631v-279h-164v-163h164v-278zM239 758l139 218h265l-204 -218h-200z" />
    <glyph glyph-name="Icircumflex" unicode="&#xce;" horiz-adv-x="691" 
d="M661 0h-631v278h162v163h-162v279h631v-279h-164v-163h164v-278zM396 758l-48 100l-51 -100h-189l153 246h176l153 -246h-194z" />
    <glyph glyph-name="Idieresis" unicode="&#xcf;" horiz-adv-x="691" 
d="M661 0h-631v278h162v163h-162v279h631v-279h-164v-163h164v-278zM215 756q-68 0 -90 21.5t-22 84.5t24.5 86t87.5 23q64 0 89 -23t25 -86q0 -61 -24.5 -83.5t-89.5 -22.5zM476 756q-67 0 -89.5 21.5t-22.5 84.5q0 64 24 86.5t88 22.5t89 -23t25 -86q0 -61 -24.5 -83.5
t-89.5 -22.5z" />
    <glyph glyph-name="Eth" unicode="&#xd0;" horiz-adv-x="901" 
d="M460 0h-399v286h-63v154h63v280h397q197 0 310.5 -92.5t113.5 -267.5q0 -174 -114 -267t-308 -93zM469 286h-96v-44h67q117 0 117 119q0 65 -26.5 93t-90.5 28h-67v-42h96v-154z" />
    <glyph glyph-name="Ntilde" unicode="&#xd1;" horiz-adv-x="934" 
d="M602 0l-258 335v-335h-302v720h299l250 -320v320h301v-720h-290zM211 753q0 122 37.5 176t123.5 54q52 0 118 -23.5t79 -23.5q19 0 26 8.5t7 32.5h160q0 -124 -36 -176.5t-123 -52.5q-51 0 -116 26t-86 26q-17 0 -23 -10t-6 -37h-161z" />
    <glyph glyph-name="Ograve" unicode="&#xd2;" horiz-adv-x="912" 
d="M456 -19q-211 0 -324 94t-113 283q0 177 120.5 279t322.5 102q196 0 313.5 -102t117.5 -279q0 -188 -114.5 -282.5t-322.5 -94.5zM456 252q52 0 82 28t30 78q0 49 -30.5 78.5t-81.5 29.5t-81.5 -29.5t-30.5 -78.5q0 -50 30 -78t82 -28zM374 777l-192 218h266l111 -218
h-185z" />
    <glyph glyph-name="Oacute" unicode="&#xd3;" horiz-adv-x="912" 
d="M456 -19q-211 0 -324 94t-113 283q0 177 120.5 279t322.5 102q196 0 313.5 -102t117.5 -279q0 -188 -114.5 -282.5t-322.5 -94.5zM456 252q52 0 82 28t30 78q0 49 -30.5 78.5t-81.5 29.5t-81.5 -29.5t-30.5 -78.5q0 -50 30 -78t82 -28zM365 779l139 218h265l-204 -218
h-200z" />
    <glyph glyph-name="Ocircumflex" unicode="&#xd4;" horiz-adv-x="912" 
d="M456 -19q-211 0 -324 94t-113 283q0 177 120.5 279t322.5 102q196 0 313.5 -102t117.5 -279q0 -188 -114.5 -282.5t-322.5 -94.5zM456 252q52 0 82 28t30 78q0 49 -30.5 78.5t-81.5 29.5t-81.5 -29.5t-30.5 -78.5q0 -50 30 -78t82 -28zM511 777l-48 100l-51 -100h-189
l153 246h176l153 -246h-194z" />
    <glyph glyph-name="Otilde" unicode="&#xd5;" horiz-adv-x="912" 
d="M456 -19q-211 0 -324 94t-113 283q0 177 120.5 279t322.5 102q196 0 313.5 -102t117.5 -279q0 -188 -114.5 -282.5t-322.5 -94.5zM456 252q52 0 82 28t30 78q0 49 -30.5 78.5t-81.5 29.5t-81.5 -29.5t-30.5 -78.5q0 -50 30 -78t82 -28zM189 781q0 122 37.5 176t123.5 54
q53 0 118.5 -23.5t78.5 -23.5q19 0 26 8.5t7 32.5h160q0 -124 -36 -176.5t-123 -52.5q-51 0 -116 26t-86 26q-17 0 -23 -10t-6 -37h-161z" />
    <glyph glyph-name="Odieresis" unicode="&#xd6;" horiz-adv-x="912" 
d="M456 -19q-211 0 -324 94t-113 283q0 177 120.5 279t322.5 102q196 0 313.5 -102t117.5 -279q0 -188 -114.5 -282.5t-322.5 -94.5zM456 252q52 0 82 28t30 78q0 49 -30.5 78.5t-81.5 29.5t-81.5 -29.5t-30.5 -78.5q0 -50 30 -78t82 -28zM328 764q-68 0 -90 21.5t-22 84.5
t24.5 86t87.5 23q64 0 89 -23t25 -86q0 -61 -24.5 -83.5t-89.5 -22.5zM589 764q-67 0 -89.5 21.5t-22.5 84.5q0 64 24 86.5t88 22.5t89 -23t25 -86q0 -61 -24.5 -83.5t-89.5 -22.5z" />
    <glyph glyph-name="multiply" unicode="&#xd7;" horiz-adv-x="763" 
d="M532 56l-150 148l-151 -151l-170 174l148 148l-142 140l170 177l146 -144l143 142l170 -173l-140 -139l147 -145z" />
    <glyph glyph-name="Oslash" unicode="&#xd8;" horiz-adv-x="912" 
d="M410 -135h-347l86 197q-130 96 -130 296q0 177 120.5 279t322.5 102q23 0 34 -1l39 98h333l-87 -205q112 -103 112 -273q0 -188 -114.5 -282.5t-321.5 -94.5zM456 252q52 0 82 28t30 78q0 49 -30.5 78.5t-81.5 29.5t-81.5 -29.5t-30.5 -78.5q0 -50 30 -78t82 -28z" />
    <glyph glyph-name="Ugrave" unicode="&#xd9;" horiz-adv-x="878" 
d="M438 -19q-220 0 -311.5 92t-91.5 296v351h325v-351q0 -57 19.5 -81t60.5 -24q39 0 58.5 24.5t19.5 80.5v351h325v-351q0 -201 -102 -294.5t-303 -93.5zM352 758l-192 218h266l111 -218h-185z" />
    <glyph glyph-name="Uacute" unicode="&#xda;" horiz-adv-x="878" 
d="M438 -19q-220 0 -311.5 92t-91.5 296v351h325v-351q0 -57 19.5 -81t60.5 -24q39 0 58.5 24.5t19.5 80.5v351h325v-351q0 -201 -102 -294.5t-303 -93.5zM332 758l139 218h265l-204 -218h-200z" />
    <glyph glyph-name="Ucircumflex" unicode="&#xdb;" horiz-adv-x="878" 
d="M438 -19q-220 0 -311.5 92t-91.5 296v351h325v-351q0 -57 19.5 -81t60.5 -24q39 0 58.5 24.5t19.5 80.5v351h325v-351q0 -201 -102 -294.5t-303 -93.5zM489 758l-48 100l-51 -100h-189l153 246h176l153 -246h-194z" />
    <glyph glyph-name="Udieresis" unicode="&#xdc;" horiz-adv-x="878" 
d="M438 -19q-220 0 -311.5 92t-91.5 296v351h325v-351q0 -57 19.5 -81t60.5 -24q39 0 58.5 24.5t19.5 80.5v351h325v-351q0 -201 -102 -294.5t-303 -93.5zM308 756q-68 0 -90 21.5t-22 84.5t24.5 86t87.5 23q64 0 89 -23t25 -86q0 -61 -24.5 -83.5t-89.5 -22.5zM569 756
q-67 0 -89.5 21.5t-22.5 84.5q0 64 24 86.5t88 22.5t89 -23t25 -86q0 -61 -24.5 -83.5t-89.5 -22.5z" />
    <glyph glyph-name="Yacute" unicode="&#xdd;" horiz-adv-x="763" 
d="M538 0h-320v280l-271 440h334l101 -174l102 174h332l-278 -439v-281zM273 758l139 218h265l-204 -218h-200z" />
    <glyph glyph-name="Thorn" unicode="&#xde;" horiz-adv-x="846" 
d="M447 84h-106v-84h-299v720h299v-77h104q201 0 293.5 -69t92.5 -218q0 -145 -92 -208.5t-292 -63.5zM441 400h-100v-91h101q46 0 64 10t18 35q0 27 -17.5 36.5t-65.5 9.5z" />
    <glyph glyph-name="germandbls" unicode="&#xdf;" horiz-adv-x="853" 
d="M533 -5q-73 0 -125 7v231h20q48 0 62.5 10t14.5 34q0 23 -15.5 31t-64.5 8h-17v141h17q68 0 68 36q0 20 -14.5 29t-55.5 9q-71 0 -71 -47v-484h-315v501q0 153 93.5 213.5t310.5 60.5q182 0 275 -56t93 -150q0 -135 -150 -173q183 -33 183 -184q0 -111 -70.5 -164
t-238.5 -53z" />
    <glyph glyph-name="agrave" unicode="&#xe0;" horiz-adv-x="835" 
d="M370 158q47 0 87.5 26.5t40.5 61.5v9q-19 -15 -87 -32q-46 -9 -61 -19q-14 -9 -14 -23q0 -23 34 -23zM529 0l-31 96q-68 -115 -264 -115q-221 0 -221 161q0 105 92 150q40 19 86.5 29.5t132.5 19.5q113 11 143.5 17.5t30.5 21.5q0 23 -59 23q-45 0 -67.5 -11.5
t-22.5 -28.5h-317q13 117 116.5 176t283.5 59q191 0 279.5 -65t88.5 -204v-329h-271zM345 636l-192 218h266l111 -218h-185z" />
    <glyph glyph-name="aacute" unicode="&#xe1;" horiz-adv-x="835" 
d="M370 158q47 0 87.5 26.5t40.5 61.5v9q-19 -15 -87 -32q-46 -9 -61 -19q-14 -9 -14 -23q0 -23 34 -23zM529 0l-31 96q-68 -115 -264 -115q-221 0 -221 161q0 105 92 150q40 19 86.5 29.5t132.5 19.5q113 11 143.5 17.5t30.5 21.5q0 23 -59 23q-45 0 -67.5 -11.5
t-22.5 -28.5h-317q13 117 116.5 176t283.5 59q191 0 279.5 -65t88.5 -204v-329h-271zM325 636l139 218h265l-204 -218h-200z" />
    <glyph glyph-name="acircumflex" unicode="&#xe2;" horiz-adv-x="835" 
d="M370 158q47 0 87.5 26.5t40.5 61.5v9q-19 -15 -87 -32q-46 -9 -61 -19q-14 -9 -14 -23q0 -23 34 -23zM529 0l-31 96q-68 -115 -264 -115q-221 0 -221 161q0 105 92 150q40 19 86.5 29.5t132.5 19.5q113 11 143.5 17.5t30.5 21.5q0 23 -59 23q-45 0 -67.5 -11.5
t-22.5 -28.5h-317q13 117 116.5 176t283.5 59q191 0 279.5 -65t88.5 -204v-329h-271zM482 636l-48 100l-51 -100h-189l153 246h176l153 -246h-194z" />
    <glyph glyph-name="atilde" unicode="&#xe3;" horiz-adv-x="835" 
d="M370 158q47 0 87.5 26.5t40.5 61.5v9q-19 -15 -87 -32q-46 -9 -61 -19q-14 -9 -14 -23q0 -23 34 -23zM529 0l-31 96q-68 -115 -264 -115q-221 0 -221 161q0 105 92 150q40 19 86.5 29.5t132.5 19.5q113 11 143.5 17.5t30.5 21.5q0 23 -59 23q-45 0 -67.5 -11.5
t-22.5 -28.5h-317q13 117 116.5 176t283.5 59q191 0 279.5 -65t88.5 -204v-329h-271zM160 640q0 122 37.5 176t123.5 54q53 0 118 -23.5t79 -23.5q19 0 26 8.5t7 32.5h160q0 -124 -36 -176.5t-123 -52.5q-51 0 -116 26t-86 26q-17 0 -23 -10t-6 -37h-161z" />
    <glyph glyph-name="adieresis" unicode="&#xe4;" horiz-adv-x="835" 
d="M370 158q47 0 87.5 26.5t40.5 61.5v9q-19 -15 -87 -32q-46 -9 -61 -19q-14 -9 -14 -23q0 -23 34 -23zM529 0l-31 96q-68 -115 -264 -115q-221 0 -221 161q0 105 92 150q40 19 86.5 29.5t132.5 19.5q113 11 143.5 17.5t30.5 21.5q0 23 -59 23q-45 0 -67.5 -11.5
t-22.5 -28.5h-317q13 117 116.5 176t283.5 59q191 0 279.5 -65t88.5 -204v-329h-271zM303 625q-68 0 -90 21.5t-22 84.5t24.5 86t87.5 23q64 0 89 -23t25 -86q0 -61 -24.5 -83.5t-89.5 -22.5zM564 625q-67 0 -89.5 21.5t-22.5 84.5q0 64 24 86.5t88 22.5t89 -23t25 -86
q0 -61 -24.5 -83.5t-89.5 -22.5z" />
    <glyph glyph-name="aring" unicode="&#xe5;" horiz-adv-x="835" 
d="M370 158q47 0 87.5 26.5t40.5 61.5v9q-19 -15 -87 -32q-46 -9 -61 -19q-14 -9 -14 -23q0 -23 34 -23zM529 0l-31 96q-68 -115 -264 -115q-221 0 -221 161q0 105 92 150q40 19 86.5 29.5t132.5 19.5q113 11 143.5 17.5t30.5 21.5q0 23 -59 23q-45 0 -67.5 -11.5
t-22.5 -28.5h-317q13 117 116.5 176t283.5 59q191 0 279.5 -65t88.5 -204v-329h-271zM434 639q-95 0 -149.5 43t-54.5 123q0 83 57.5 128.5t148.5 45.5q93 0 150 -46t57 -125t-56 -124t-153 -45zM437 775q38 0 38 34q0 33 -38 33t-38 -33q0 -34 38 -34z" />
    <glyph glyph-name="ae" unicode="&#xe6;" horiz-adv-x="1310" 
d="M1292 198q-27 -110 -125 -163.5t-284 -53.5q-259 0 -347 125q-86 -125 -302 -125q-221 0 -221 161q0 105 92 150q40 19 86.5 29.5t132.5 19.5q113 11 143.5 17.5t30.5 21.5q0 23 -59 23q-45 0 -67.5 -11.5t-22.5 -28.5h-317q13 117 116.5 176t283.5 59q154 0 239 -41
q96 41 234 41q202 0 296 -85.5t94 -224.5v-52h-499q15 -59 103 -59q51 0 66 21h327zM894 396q-73 0 -93 -48h185q-8 26 -29.5 37t-62.5 11zM370 158q47 0 87.5 26.5t40.5 61.5v9q-19 -15 -87 -32q-46 -9 -61 -19q-14 -9 -14 -23q0 -23 34 -23z" />
    <glyph glyph-name="ccedilla" unicode="&#xe7;" horiz-adv-x="822" 
d="M423 -343q-108 0 -173.5 41t-88.5 131h206q7 -20 21 -27t44 -7q54 0 54 33q0 15 -10.5 21t-37.5 6h-116v131q-305 33 -305 300q0 140 105.5 226t291.5 86q181 0 286.5 -78t115.5 -208h-325q-13 52 -79 52q-39 0 -60 -20t-21 -57q0 -70 81 -70q65 0 79 49h325
q-7 -118 -89 -191t-230 -89v-25q87 -3 128 -32.5t41 -101.5q0 -77 -63.5 -123.5t-179.5 -46.5z" />
    <glyph glyph-name="egrave" unicode="&#xe8;" horiz-adv-x="838" 
d="M820 198q-27 -110 -125 -163.5t-284 -53.5q-394 0 -394 292q0 151 104 238t312 87q202 0 296 -85.5t94 -224.5v-52h-499q15 -59 103 -59q51 0 66 21h327zM422 396q-73 0 -93 -48h185q-8 26 -29.5 37t-62.5 11zM345 636l-192 218h266l111 -218h-185z" />
    <glyph glyph-name="eacute" unicode="&#xe9;" horiz-adv-x="838" 
d="M820 198q-27 -110 -125 -163.5t-284 -53.5q-394 0 -394 292q0 151 104 238t312 87q202 0 296 -85.5t94 -224.5v-52h-499q15 -59 103 -59q51 0 66 21h327zM422 396q-73 0 -93 -48h185q-8 26 -29.5 37t-62.5 11zM325 636l139 218h265l-204 -218h-200z" />
    <glyph glyph-name="ecircumflex" unicode="&#xea;" horiz-adv-x="838" 
d="M820 198q-27 -110 -125 -163.5t-284 -53.5q-394 0 -394 292q0 151 104 238t312 87q202 0 296 -85.5t94 -224.5v-52h-499q15 -59 103 -59q51 0 66 21h327zM422 396q-73 0 -93 -48h185q-8 26 -29.5 37t-62.5 11zM482 636l-48 100l-51 -100h-189l153 246h176l153 -246h-194z
" />
    <glyph glyph-name="edieresis" unicode="&#xeb;" horiz-adv-x="838" 
d="M820 198q-27 -110 -125 -163.5t-284 -53.5q-394 0 -394 292q0 151 104 238t312 87q202 0 296 -85.5t94 -224.5v-52h-499q15 -59 103 -59q51 0 66 21h327zM422 396q-73 0 -93 -48h185q-8 26 -29.5 37t-62.5 11zM301 634q-68 0 -90 21.5t-22 84.5t24.5 86t87.5 23
q64 0 89 -23t25 -86q0 -61 -24.5 -83.5t-89.5 -22.5zM562 634q-67 0 -89.5 21.5t-22.5 84.5q0 64 24 86.5t88 22.5t89 -23t25 -86q0 -61 -24.5 -83.5t-89.5 -22.5z" />
    <glyph glyph-name="igrave" unicode="&#xec;" horiz-adv-x="394" 
d="M357 0h-320v585h320v-585zM116 623l-192 218h266l111 -218h-185z" />
    <glyph glyph-name="iacute" unicode="&#xed;" horiz-adv-x="394" 
d="M357 0h-320v585h320v-585zM90 622l139 218h265l-204 -218h-200z" />
    <glyph glyph-name="icircumflex" unicode="&#xee;" horiz-adv-x="394" 
d="M357 0h-320v585h320v-585zM253 623l-48 100l-51 -100h-189l153 246h176l153 -246h-194z" />
    <glyph glyph-name="idieresis" unicode="&#xef;" horiz-adv-x="394" 
d="M357 0h-320v585h320v-585zM72 621q-68 0 -90 21.5t-22 84.5t24.5 86t87.5 23q64 0 89 -23t25 -86q0 -61 -24.5 -83.5t-89.5 -22.5zM333 621q-67 0 -89.5 21.5t-22.5 84.5q0 64 24 86.5t88 22.5t89 -23t25 -86q0 -61 -24.5 -83.5t-89.5 -22.5z" />
    <glyph glyph-name="eth" unicode="&#xf0;" horiz-adv-x="833" 
d="M416 -19q-399 0 -399 295q0 127 83.5 194t211.5 67q129 0 193 -98q-40 82 -141 166l-66 -37h-227l198 112q-60 44 -237 161h403q38 -24 56 -37l65 37h228l-197 -111q229 -198 229 -426q0 -155 -103.5 -239t-296.5 -84zM416 207q86 0 86 70q0 77 -86 77q-85 0 -85 -77
q0 -70 85 -70z" />
    <glyph glyph-name="ntilde" unicode="&#xf1;" horiz-adv-x="811" 
d="M347 246v-246h-311v585h265l33 -132q47 145 209 145q114 0 173.5 -63.5t59.5 -184.5v-350h-308v253q0 48 -12.5 66.5t-47.5 18.5t-48 -19.5t-13 -72.5zM143 632q0 122 37.5 176t123.5 54q52 0 118 -23.5t79 -23.5q19 0 26 8.5t7 32.5h160q0 -124 -36 -176.5t-123 -52.5
q-51 0 -116 26t-86 26q-17 0 -23 -10t-6 -37h-161z" />
    <glyph glyph-name="ograve" unicode="&#xf2;" horiz-adv-x="825" 
d="M412 -19q-395 0 -395 305q0 140 105.5 226t291.5 86t290 -86t104 -226q0 -142 -104 -223.5t-292 -81.5zM412 217q38 0 60 18t22 52q0 37 -22 57t-60 20q-39 0 -60 -20t-21 -57q0 -70 81 -70zM325 636l-192 218h266l111 -218h-185z" />
    <glyph glyph-name="oacute" unicode="&#xf3;" horiz-adv-x="825" 
d="M412 -19q-395 0 -395 305q0 140 105.5 226t291.5 86t290 -86t104 -226q0 -142 -104 -223.5t-292 -81.5zM412 217q38 0 60 18t22 52q0 37 -22 57t-60 20q-39 0 -60 -20t-21 -57q0 -70 81 -70zM305 636l139 218h265l-204 -218h-200z" />
    <glyph glyph-name="ocircumflex" unicode="&#xf4;" horiz-adv-x="825" 
d="M412 -19q-395 0 -395 305q0 140 105.5 226t291.5 86t290 -86t104 -226q0 -142 -104 -223.5t-292 -81.5zM412 217q38 0 60 18t22 52q0 37 -22 57t-60 20q-39 0 -60 -20t-21 -57q0 -70 81 -70zM462 632l-48 100l-51 -100h-189l153 246h176l153 -246h-194z" />
    <glyph glyph-name="otilde" unicode="&#xf5;" horiz-adv-x="825" 
d="M412 -19q-395 0 -395 305q0 140 105.5 226t291.5 86t290 -86t104 -226q0 -142 -104 -223.5t-292 -81.5zM412 217q38 0 60 18t22 52q0 37 -22 57t-60 20q-39 0 -60 -20t-21 -57q0 -70 81 -70zM140 640q0 122 37.5 176t123.5 54q53 0 118 -23.5t79 -23.5q19 0 26 8.5
t7 32.5h160q0 -124 -36 -176.5t-123 -52.5q-51 0 -116 26t-86 26q-17 0 -23 -10t-6 -37h-161z" />
    <glyph glyph-name="odieresis" unicode="&#xf6;" horiz-adv-x="825" 
d="M412 -19q-395 0 -395 305q0 140 105.5 226t291.5 86t290 -86t104 -226q0 -142 -104 -223.5t-292 -81.5zM412 217q38 0 60 18t22 52q0 37 -22 57t-60 20q-39 0 -60 -20t-21 -57q0 -70 81 -70zM289 622q-68 0 -90 21.5t-22 84.5t24.5 86t87.5 23q64 0 89 -23t25 -86
q0 -61 -24.5 -83.5t-89.5 -22.5zM550 622q-67 0 -89.5 21.5t-22.5 84.5q0 64 24 86.5t88 22.5t89 -23t25 -86q0 -61 -24.5 -83.5t-89.5 -22.5z" />
    <glyph glyph-name="divide" unicode="&#xf7;" horiz-adv-x="763" 
d="M381 546q-95 0 -125.5 19.5t-30.5 81.5q0 63 33.5 84t122.5 21q88 0 121.5 -21t33.5 -84q0 -61 -32.5 -81t-122.5 -20zM706 230h-650v277h650v-277zM381 -17q-95 0 -125.5 20t-30.5 84q0 62 33.5 82.5t122.5 20.5q88 0 121.5 -21t33.5 -82t-33 -82.5t-122 -21.5z" />
    <glyph glyph-name="oslash" unicode="&#xf8;" horiz-adv-x="825" 
d="M412 217q38 0 60 18t22 52q0 37 -22 57t-60 20q-39 0 -60 -20t-21 -57q0 -70 81 -70zM412 -19q-24 0 -66 2l-46 -72h-268l90 142q-105 77 -105 233q0 140 105.5 226t291.5 86q43 0 75 -4l41 65h269l-93 -149q102 -84 102 -224q0 -142 -104 -223.5t-292 -81.5z" />
    <glyph glyph-name="ugrave" unicode="&#xf9;" horiz-adv-x="799" 
d="M499 0l-33 135q-44 -148 -206 -148q-225 0 -225 248v350h304v-254q0 -49 11 -67t44 -18t45.5 19t12.5 68v252h311v-585h-264zM311 623l-192 218h266l111 -218h-185z" />
    <glyph glyph-name="uacute" unicode="&#xfa;" horiz-adv-x="799" 
d="M499 0l-33 135q-44 -148 -206 -148q-225 0 -225 248v350h304v-254q0 -49 11 -67t44 -18t45.5 19t12.5 68v252h311v-585h-264zM291 623l139 218h265l-204 -218h-200z" />
    <glyph glyph-name="ucircumflex" unicode="&#xfb;" horiz-adv-x="799" 
d="M499 0l-33 135q-44 -148 -206 -148q-225 0 -225 248v350h304v-254q0 -49 11 -67t44 -18t45.5 19t12.5 68v252h311v-585h-264zM448 623l-48 100l-51 -100h-189l153 246h176l153 -246h-194z" />
    <glyph glyph-name="udieresis" unicode="&#xfc;" horiz-adv-x="799" 
d="M499 0l-33 135q-44 -148 -206 -148q-225 0 -225 248v350h304v-254q0 -49 11 -67t44 -18t45.5 19t12.5 68v252h311v-585h-264zM267 621q-68 0 -90 21.5t-22 84.5t24.5 86t87.5 23q64 0 89 -23t25 -86q0 -61 -24.5 -83.5t-89.5 -22.5zM528 621q-67 0 -89.5 21.5t-22.5 84.5
q0 64 24 86.5t88 22.5t89 -23t25 -86q0 -61 -24.5 -83.5t-89.5 -22.5z" />
    <glyph glyph-name="yacute" unicode="&#xfd;" horiz-adv-x="782" 
d="M224 -233h-169v233h107q34 0 48 6.5t25 28.5l-269 550h330l89 -224l10 -41l12 41l92 224h317l-274 -573q-41 -86 -68.5 -131t-64.5 -72.5t-76 -34.5t-109 -7zM281 623l139 218h265l-204 -218h-200z" />
    <glyph glyph-name="thorn" unicode="&#xfe;" horiz-adv-x="830" 
d="M417 217q82 0 82 70q0 38 -21.5 57.5t-60.5 19.5q-81 0 -81 -77q0 -70 81 -70zM530 -8q-141 0 -189 100v-290h-304v976h304v-289q53 104 198 104q124 0 199 -79.5t75 -224.5q0 -133 -82 -215t-201 -82z" />
    <glyph glyph-name="ydieresis" unicode="&#xff;" horiz-adv-x="782" 
d="M224 -233h-169v233h107q34 0 48 6.5t25 28.5l-269 550h330l89 -224l10 -41l12 41l92 224h317l-274 -573q-41 -86 -68.5 -131t-64.5 -72.5t-76 -34.5t-109 -7zM257 621q-68 0 -90 21.5t-22 84.5t24.5 86t87.5 23q64 0 89 -23t25 -86q0 -61 -24.5 -83.5t-89.5 -22.5z
M518 621q-67 0 -89.5 21.5t-22.5 84.5q0 64 24 86.5t88 22.5t89 -23t25 -86q0 -61 -24.5 -83.5t-89.5 -22.5z" />
    <glyph glyph-name="Amacron" unicode="&#x100;" horiz-adv-x="871" 
d="M431 432l-45 -138h103l-44 137l-7 34zM583 0l-29 90h-235l-29 -90h-324l288 720h372l280 -720h-323zM251 769v170h373v-170h-373z" />
    <glyph glyph-name="amacron" unicode="&#x101;" horiz-adv-x="835" 
d="M370 158q47 0 87.5 26.5t40.5 61.5v9q-19 -15 -87 -32q-46 -9 -61 -19q-14 -9 -14 -23q0 -23 34 -23zM529 0l-31 96q-68 -115 -264 -115q-221 0 -221 161q0 105 92 150q40 19 86.5 29.5t132.5 19.5q113 11 143.5 17.5t30.5 21.5q0 23 -59 23q-45 0 -67.5 -11.5
t-22.5 -28.5h-317q13 117 116.5 176t283.5 59q191 0 279.5 -65t88.5 -204v-329h-271zM247 647v170h373v-170h-373z" />
    <glyph glyph-name="Abreve" unicode="&#x102;" horiz-adv-x="871" 
d="M431 432l-45 -138h103l-44 137l-7 34zM583 0l-29 90h-235l-29 -90h-324l288 720h372l280 -720h-323zM436 756q-236 0 -236 222h174q0 -33 14 -45.5t48 -12.5q33 0 47.5 12.5t14.5 45.5h176q0 -110 -62 -166t-176 -56z" />
    <glyph glyph-name="abreve" unicode="&#x103;" horiz-adv-x="835" 
d="M370 158q47 0 87.5 26.5t40.5 61.5v9q-19 -15 -87 -32q-46 -9 -61 -19q-14 -9 -14 -23q0 -23 34 -23zM529 0l-31 96q-68 -115 -264 -115q-221 0 -221 161q0 105 92 150q40 19 86.5 29.5t132.5 19.5q113 11 143.5 17.5t30.5 21.5q0 23 -59 23q-45 0 -67.5 -11.5
t-22.5 -28.5h-317q13 117 116.5 176t283.5 59q191 0 279.5 -65t88.5 -204v-329h-271zM432 634q-236 0 -236 222h174q0 -33 14 -45.5t48 -12.5q33 0 47.5 12.5t14.5 45.5h176q0 -110 -62 -166t-176 -56z" />
    <glyph glyph-name="Aogonek" unicode="&#x104;" horiz-adv-x="871" 
d="M431 432l-45 -138h103l-44 137l-7 34zM1028 -110q-17 -99 -87.5 -151.5t-187.5 -52.5q-110 0 -167 44.5t-57 122.5q0 82 91 147h-37l-29 90h-235l-29 -90h-324l288 720h372l280 -720q-77 -45 -116.5 -72.5t-47.5 -38.5t-8 -23q0 -26 31 -26q40 0 44 50h219z" />
    <glyph glyph-name="aogonek" unicode="&#x105;" horiz-adv-x="835" 
d="M370 158q47 0 87.5 26.5t40.5 61.5v9q-19 -15 -87 -32q-46 -9 -61 -19q-14 -9 -14 -23q0 -23 34 -23zM921 -110q-17 -99 -87.5 -151.5t-187.5 -52.5q-110 0 -167 44.5t-57 122.5q0 43 22.5 80t81.5 76l-28 87q-68 -115 -264 -115q-221 0 -221 161q0 105 92 150
q40 19 86.5 29.5t132.5 19.5q113 11 143.5 17.5t30.5 21.5q0 23 -59 23q-45 0 -67.5 -11.5t-22.5 -28.5h-317q13 117 116.5 176t283.5 59q191 0 279.5 -65t88.5 -204v-329h-1q-77 -45 -116.5 -72.5t-47.5 -38.5t-8 -23q0 -26 31 -26q40 0 44 50h219z" />
    <glyph glyph-name="Cacute" unicode="&#x106;" horiz-adv-x="923" 
d="M910 329q-7 -176 -127.5 -262t-326.5 -86q-437 0 -437 375q0 177 120.5 280t322.5 103q200 0 320.5 -89.5t127.5 -262.5h-342q-3 34 -31 56.5t-75 22.5q-55 0 -86.5 -29.5t-31.5 -78.5q0 -51 30 -78.5t86 -27.5q48 0 76.5 21.5t31.5 55.5h342zM359 777l139 218h265
l-204 -218h-200z" />
    <glyph glyph-name="cacute" unicode="&#x107;" horiz-adv-x="822" 
d="M816 266q-8 -134 -112.5 -209.5t-291.5 -75.5q-395 0 -395 305q0 140 105.5 226t291.5 86q181 0 286.5 -78t115.5 -208h-325q-13 52 -79 52q-39 0 -60 -20t-21 -57q0 -70 81 -70q65 0 79 49h325zM309 636l139 218h265l-204 -218h-200z" />
    <glyph glyph-name="Ccircumflex" unicode="&#x108;" horiz-adv-x="923" 
d="M910 329q-7 -176 -127.5 -262t-326.5 -86q-437 0 -437 375q0 177 120.5 280t322.5 103q200 0 320.5 -89.5t127.5 -262.5h-342q-3 34 -31 56.5t-75 22.5q-55 0 -86.5 -29.5t-31.5 -78.5q0 -51 30 -78.5t86 -27.5q48 0 76.5 21.5t31.5 55.5h342zM516 777l-48 100l-51 -100
h-189l153 246h176l153 -246h-194z" />
    <glyph glyph-name="ccircumflex" unicode="&#x109;" horiz-adv-x="822" 
d="M816 266q-8 -134 -112.5 -209.5t-291.5 -75.5q-395 0 -395 305q0 140 105.5 226t291.5 86q181 0 286.5 -78t115.5 -208h-325q-13 52 -79 52q-39 0 -60 -20t-21 -57q0 -70 81 -70q65 0 79 49h325zM466 630l-48 100l-51 -100h-189l153 246h176l153 -246h-194z" />
    <glyph glyph-name="Cdotaccent" unicode="&#x10a;" horiz-adv-x="923" 
d="M910 329q-7 -176 -127.5 -262t-326.5 -86q-437 0 -437 375q0 177 120.5 280t322.5 103q200 0 320.5 -89.5t127.5 -262.5h-342q-3 34 -31 56.5t-75 22.5q-55 0 -86.5 -29.5t-31.5 -78.5q0 -51 30 -78.5t86 -27.5q48 0 76.5 21.5t31.5 55.5h342zM467 773q-84 0 -110 23
t-26 101q0 76 28.5 100.5t107.5 24.5t107.5 -24.5t28.5 -100.5q0 -75 -28.5 -99.5t-107.5 -24.5z" />
    <glyph glyph-name="cdotaccent" unicode="&#x10b;" horiz-adv-x="822" 
d="M816 266q-8 -134 -112.5 -209.5t-291.5 -75.5q-395 0 -395 305q0 140 105.5 226t291.5 86q181 0 286.5 -78t115.5 -208h-325q-13 52 -79 52q-39 0 -60 -20t-21 -57q0 -70 81 -70q65 0 79 49h325zM417 632q-84 0 -110 23t-26 101q0 76 28.5 100.5t107.5 24.5t107.5 -24.5
t28.5 -100.5q0 -75 -28.5 -99.5t-107.5 -24.5z" />
    <glyph glyph-name="Ccaron" unicode="&#x10c;" horiz-adv-x="923" 
d="M910 329q-7 -176 -127.5 -262t-326.5 -86q-437 0 -437 375q0 177 120.5 280t322.5 103q200 0 320.5 -89.5t127.5 -262.5h-342q-3 34 -31 56.5t-75 22.5q-55 0 -86.5 -29.5t-31.5 -78.5q0 -51 30 -78.5t86 -27.5q48 0 76.5 21.5t31.5 55.5h342zM556 777h-176l-153 246h193
l49 -100l50 100h189z" />
    <glyph glyph-name="ccaron" unicode="&#x10d;" horiz-adv-x="822" 
d="M816 266q-8 -134 -112.5 -209.5t-291.5 -75.5q-395 0 -395 305q0 140 105.5 226t291.5 86q181 0 286.5 -78t115.5 -208h-325q-13 52 -79 52q-39 0 -60 -20t-21 -57q0 -70 81 -70q65 0 79 49h325zM506 636h-176l-153 246h193l49 -100l50 100h189z" />
    <glyph glyph-name="Dcaron" unicode="&#x10e;" horiz-adv-x="882" 
d="M441 0h-399v720h397q197 0 310.5 -92.5t113.5 -267.5q0 -174 -114 -267t-308 -93zM421 462h-67v-200h67q117 0 117 99q0 54 -26.5 77.5t-90.5 23.5zM519 758h-176l-153 246h193l49 -100l50 100h189z" />
    <glyph glyph-name="dcaron" unicode="&#x10f;" horiz-adv-x="829" 
d="M413 217q81 0 81 70q0 37 -21 57t-60 20q-38 0 -60 -20t-22 -57q0 -34 22 -52t60 -18zM519 0l-17 92q-55 -100 -206 -100q-119 0 -199 80t-80 213q0 144 80 226t205 82q136 0 188 -91v268h303v-770h-274zM822 551l88 218h232l-153 -218h-167z" />
    <glyph glyph-name="Dcroat" unicode="&#x110;" horiz-adv-x="901" 
d="M460 0h-399v286h-63v154h63v280h397q197 0 310.5 -92.5t113.5 -267.5q0 -174 -114 -267t-308 -93zM469 286h-96v-44h67q117 0 117 119q0 65 -26.5 93t-90.5 28h-67v-42h96v-154z" />
    <glyph glyph-name="dcroat" unicode="&#x111;" horiz-adv-x="829" 
d="M413 217q81 0 81 70q0 37 -21 57t-60 20q-38 0 -60 -20t-22 -57q0 -34 22 -52t60 -18zM502 92q-55 -100 -206 -100q-119 0 -199 80t-80 213q0 144 80 226t205 82q136 0 188 -91v105h-73v113h73v50h303v-50h35v-113h-35v-607h-274z" />
    <glyph glyph-name="Emacron" unicode="&#x112;" horiz-adv-x="778" 
d="M754 242v-242h-712v720h703v-232h-405v-49h387v-144h-387v-53h414zM214 769v170h373v-170h-373z" />
    <glyph glyph-name="emacron" unicode="&#x113;" horiz-adv-x="838" 
d="M820 198q-27 -110 -125 -163.5t-284 -53.5q-394 0 -394 292q0 151 104 238t312 87q202 0 296 -85.5t94 -224.5v-52h-499q15 -59 103 -59q51 0 66 21h327zM422 396q-73 0 -93 -48h185q-8 26 -29.5 37t-62.5 11zM247 647v170h373v-170h-373z" />
    <glyph glyph-name="Ebreve" unicode="&#x114;" horiz-adv-x="778" 
d="M754 242v-242h-712v720h703v-232h-405v-49h387v-144h-387v-53h414zM399 756q-236 0 -236 222h174q0 -33 14 -45.5t48 -12.5q33 0 47.5 12.5t14.5 45.5h176q0 -110 -62 -166t-176 -56z" />
    <glyph glyph-name="ebreve" unicode="&#x115;" horiz-adv-x="838" 
d="M820 198q-27 -110 -125 -163.5t-284 -53.5q-394 0 -394 292q0 151 104 238t312 87q202 0 296 -85.5t94 -224.5v-52h-499q15 -59 103 -59q51 0 66 21h327zM422 396q-73 0 -93 -48h185q-8 26 -29.5 37t-62.5 11zM432 634q-236 0 -236 222h174q0 -33 14 -45.5t48 -12.5
q33 0 47.5 12.5t14.5 45.5h176q0 -110 -62 -166t-176 -56z" />
    <glyph glyph-name="Edotaccent" unicode="&#x116;" horiz-adv-x="778" 
d="M754 242v-242h-712v720h703v-232h-405v-49h387v-144h-387v-53h414zM400 754q-84 0 -110 23t-26 101q0 76 28.5 100.5t107.5 24.5t107.5 -24.5t28.5 -100.5q0 -75 -28.5 -99.5t-107.5 -24.5z" />
    <glyph glyph-name="edotaccent" unicode="&#x117;" horiz-adv-x="838" 
d="M820 198q-27 -110 -125 -163.5t-284 -53.5q-394 0 -394 292q0 151 104 238t312 87q202 0 296 -85.5t94 -224.5v-52h-499q15 -59 103 -59q51 0 66 21h327zM422 396q-73 0 -93 -48h185q-8 26 -29.5 37t-62.5 11zM433 632q-84 0 -110 23t-26 101q0 76 28.5 100.5t107.5 24.5
t107.5 -24.5t28.5 -100.5q0 -75 -28.5 -99.5t-107.5 -24.5z" />
    <glyph glyph-name="Eogonek" unicode="&#x118;" horiz-adv-x="778" 
d="M876 -110q-17 -99 -87.5 -151.5t-187.5 -52.5q-110 0 -167 44.5t-57 122.5q0 82 91 147h-426v720h703v-232h-405v-49h387v-144h-387v-53h414v-242q-77 -45 -116.5 -72.5t-47.5 -38.5t-8 -23q0 -26 31 -26q40 0 44 50h219z" />
    <glyph glyph-name="eogonek" unicode="&#x119;" horiz-adv-x="838" 
d="M515 -292q-110 0 -167 44.5t-57 122.5q0 62 46 109q-320 26 -320 289q0 151 104 238t312 87q202 0 296 -85.5t94 -224.5v-52h-499q15 -59 103 -59q51 0 66 21h327q-32 -127 -154 -177q-76 -44 -115 -71.5t-47 -38.5t-8 -23q0 -26 31 -26q40 0 44 50h219
q-17 -99 -87.5 -151.5t-187.5 -52.5zM422 396q-73 0 -93 -48h185q-8 26 -29.5 37t-62.5 11z" />
    <glyph glyph-name="Ecaron" unicode="&#x11a;" horiz-adv-x="778" 
d="M754 242v-242h-712v720h703v-232h-405v-49h387v-144h-387v-53h414zM489 758h-176l-153 246h193l49 -100l50 100h189z" />
    <glyph glyph-name="ecaron" unicode="&#x11b;" horiz-adv-x="838" 
d="M820 198q-27 -110 -125 -163.5t-284 -53.5q-394 0 -394 292q0 151 104 238t312 87q202 0 296 -85.5t94 -224.5v-52h-499q15 -59 103 -59q51 0 66 21h327zM422 396q-73 0 -93 -48h185q-8 26 -29.5 37t-62.5 11zM522 636h-176l-153 246h193l49 -100l50 100h189z" />
    <glyph glyph-name="Gcircumflex" unicode="&#x11c;" horiz-adv-x="920" 
d="M604 0l-18 201q-15 -121 -74 -170.5t-179 -49.5q-314 0 -314 354q0 197 115.5 300.5t325.5 103.5q402 0 432 -306h-349q-23 39 -89 39q-56 0 -83 -31t-27 -97q0 -60 24.5 -89t85.5 -29q78 0 103 49h-141v125h475v-400h-287zM508 777l-48 100l-51 -100h-189l153 246h176
l153 -246h-194z" />
    <glyph glyph-name="gcircumflex" unicode="&#x11d;" horiz-adv-x="813" 
d="M405 -238h-61q-135 0 -213 14t-105.5 37.5t-27.5 61.5q0 43 50.5 71.5t158.5 30.5q-105 7 -150.5 38t-45.5 87q0 57 42 90t135 45q-92 15 -132.5 52.5t-40.5 108.5q0 200 366 200h42q39 0 48.5 8t9.5 49v18h317v-3q0 -23 -1.5 -36t-11.5 -24.5t-22.5 -16.5t-43 -9
t-64.5 -4.5t-95 -0.5q60 -6 100 -17q70 -20 104.5 -59.5t34.5 -105.5q0 -100 -84 -147t-288 -47h-118q-85 0 -85 -18q0 -10 15 -12t71 -2h209q164 0 233.5 -44t69.5 -138q0 -119 -99.5 -173t-317.5 -54zM411 365q61 0 84.5 5.5t23.5 19.5q0 16 -22.5 22.5t-84.5 6.5h-12
q-52 -1 -73 -7t-21 -22q0 -14 22 -19.5t83 -5.5zM412 -77h26q122 0 122 28v1q0 12 -14.5 17.5t-54.5 5.5h-121q-37 0 -57.5 -3.5t-26.5 -8.5t-6 -13q0 -27 132 -27zM472 703l-48 100l-51 -100h-189l153 246h176l153 -246h-194z" />
    <glyph glyph-name="Gbreve" unicode="&#x11e;" horiz-adv-x="920" 
d="M604 0l-18 201q-15 -121 -74 -170.5t-179 -49.5q-314 0 -314 354q0 197 115.5 300.5t325.5 103.5q402 0 432 -306h-349q-23 39 -89 39q-56 0 -83 -31t-27 -97q0 -60 24.5 -89t85.5 -29q78 0 103 49h-141v125h475v-400h-287zM458 775q-236 0 -236 222h174q0 -33 14 -45.5
t48 -12.5q33 0 47.5 12.5t14.5 45.5h176q0 -110 -62 -166t-176 -56z" />
    <glyph glyph-name="gbreve" unicode="&#x11f;" horiz-adv-x="813" 
d="M405 -238h-61q-135 0 -213 14t-105.5 37.5t-27.5 61.5q0 43 50.5 71.5t158.5 30.5q-105 7 -150.5 38t-45.5 87q0 57 42 90t135 45q-92 15 -132.5 52.5t-40.5 108.5q0 200 366 200h42q39 0 48.5 8t9.5 49v18h317v-3q0 -23 -1.5 -36t-11.5 -24.5t-22.5 -16.5t-43 -9
t-64.5 -4.5t-95 -0.5q60 -6 100 -17q70 -20 104.5 -59.5t34.5 -105.5q0 -100 -84 -147t-288 -47h-118q-85 0 -85 -18q0 -10 15 -12t71 -2h209q164 0 233.5 -44t69.5 -138q0 -119 -99.5 -173t-317.5 -54zM411 365q61 0 84.5 5.5t23.5 19.5q0 16 -22.5 22.5t-84.5 6.5h-12
q-52 -1 -73 -7t-21 -22q0 -14 22 -19.5t83 -5.5zM412 -77h26q122 0 122 28v1q0 12 -14.5 17.5t-54.5 5.5h-121q-37 0 -57.5 -3.5t-26.5 -8.5t-6 -13q0 -27 132 -27zM420 691q-236 0 -236 222h174q0 -33 14 -45.5t48 -12.5q33 0 47.5 12.5t14.5 45.5h176q0 -110 -62 -166
t-176 -56z" />
    <glyph glyph-name="Gdotaccent" unicode="&#x120;" horiz-adv-x="920" 
d="M604 0l-18 201q-15 -121 -74 -170.5t-179 -49.5q-314 0 -314 354q0 197 115.5 300.5t325.5 103.5q402 0 432 -306h-349q-23 39 -89 39q-56 0 -83 -31t-27 -97q0 -60 24.5 -89t85.5 -29q78 0 103 49h-141v125h475v-400h-287zM459 773q-84 0 -110 23t-26 101
q0 76 28.5 100.5t107.5 24.5t107.5 -24.5t28.5 -100.5q0 -75 -28.5 -99.5t-107.5 -24.5z" />
    <glyph glyph-name="gdotaccent" unicode="&#x121;" horiz-adv-x="813" 
d="M405 -238h-61q-135 0 -213 14t-105.5 37.5t-27.5 61.5q0 43 50.5 71.5t158.5 30.5q-105 7 -150.5 38t-45.5 87q0 57 42 90t135 45q-92 15 -132.5 52.5t-40.5 108.5q0 200 366 200h42q39 0 48.5 8t9.5 49v18h317v-3q0 -23 -1.5 -36t-11.5 -24.5t-22.5 -16.5t-43 -9
t-64.5 -4.5t-95 -0.5q60 -6 100 -17q70 -20 104.5 -59.5t34.5 -105.5q0 -100 -84 -147t-288 -47h-118q-85 0 -85 -18q0 -10 15 -12t71 -2h209q164 0 233.5 -44t69.5 -138q0 -119 -99.5 -173t-317.5 -54zM411 365q61 0 84.5 5.5t23.5 19.5q0 16 -22.5 22.5t-84.5 6.5h-12
q-52 -1 -73 -7t-21 -22q0 -14 22 -19.5t83 -5.5zM412 -77h26q122 0 122 28v1q0 12 -14.5 17.5t-54.5 5.5h-121q-37 0 -57.5 -3.5t-26.5 -8.5t-6 -13q0 -27 132 -27zM413 686q-84 0 -110 23t-26 101q0 76 28.5 100.5t107.5 24.5t107.5 -24.5t28.5 -100.5q0 -75 -28.5 -99.5
t-107.5 -24.5z" />
    <glyph glyph-name="uni0122" unicode="&#x122;" horiz-adv-x="920" 
d="M604 0l-18 201q-15 -121 -74 -170.5t-179 -49.5q-314 0 -314 354q0 197 115.5 300.5t325.5 103.5q402 0 432 -306h-349q-23 39 -89 39q-56 0 -83 -31t-27 -97q0 -60 24.5 -89t85.5 -29q78 0 103 49h-141v125h475v-400h-287zM349 -372v84q63 0 94.5 12.5t38.5 41.5
q-23 -5 -46 -5q-63 0 -87.5 17.5t-24.5 70.5q0 52 28.5 73t101.5 21q77 0 106 -25.5t29 -96.5q0 -98 -53 -145.5t-187 -47.5z" />
    <glyph glyph-name="uni0123" unicode="&#x123;" horiz-adv-x="813" 
d="M405 -238h-61q-135 0 -213 14t-105.5 37.5t-27.5 61.5q0 43 50.5 71.5t158.5 30.5q-105 7 -150.5 38t-45.5 87q0 57 42 90t135 45q-92 15 -132.5 52.5t-40.5 108.5q0 200 366 200h42q39 0 48.5 8t9.5 49v18h317v-3q0 -23 -1.5 -36t-11.5 -24.5t-22.5 -16.5t-43 -9
t-64.5 -4.5t-95 -0.5q60 -6 100 -17q70 -20 104.5 -59.5t34.5 -105.5q0 -100 -84 -147t-288 -47h-118q-85 0 -85 -18q0 -10 15 -12t71 -2h209q164 0 233.5 -44t69.5 -138q0 -119 -99.5 -173t-317.5 -54zM411 365q61 0 84.5 5.5t23.5 19.5q0 16 -22.5 22.5t-84.5 6.5h-12
q-52 -1 -73 -7t-21 -22q0 -14 22 -19.5t83 -5.5zM412 -77h26q122 0 122 28v1q0 12 -14.5 17.5t-54.5 5.5h-121q-37 0 -57.5 -3.5t-26.5 -8.5t-6 -13q0 -27 132 -27zM406 680q-77 0 -106 25.5t-29 96.5q0 98 53 145.5t187 47.5v-84q-63 0 -94.5 -12.5t-38.5 -41.5q23 5 46 5
q63 0 87.5 -17.5t24.5 -70.5q0 -52 -28.5 -73t-101.5 -21z" />
    <glyph glyph-name="Hcircumflex" unicode="&#x124;" horiz-adv-x="894" 
d="M536 0v223h-176v-223h-318v720h318v-228h176v228h316v-720h-316zM495 758l-48 100l-51 -100h-189l153 246h176l153 -246h-194z" />
    <glyph glyph-name="hcircumflex" unicode="&#x125;" horiz-adv-x="811" 
d="M345 246v-246h-309v770h307v-279q71 107 198 107q115 0 174.5 -63.5t59.5 -184.5v-350h-308v253q0 48 -13 66.5t-48 18.5t-48 -19.5t-13 -72.5zM241 808l-48 100l-51 -100h-189l153 246h176l153 -246h-194z" />
    <glyph glyph-name="Hbar" unicode="&#x126;" horiz-adv-x="947" 
d="M568 353v71h-191v-71h191zM568 0v149h-191v-149h-307v424h-66v211h66v85h307v-85h191v85h305v-85h70v-211h-70v-424h-305z" />
    <glyph glyph-name="hbar" unicode="&#x127;" horiz-adv-x="811" 
d="M345 246v-246h-309v623h-36v85h36v62h307v-62h150v-85h-150v-132q71 107 198 107q115 0 174.5 -63.5t59.5 -184.5v-350h-308v253q0 48 -13 66.5t-48 18.5t-48 -19.5t-13 -72.5z" />
    <glyph glyph-name="Itilde" unicode="&#x128;" horiz-adv-x="691" 
d="M661 0h-631v278h162v163h-162v279h631v-279h-164v-163h164v-278zM74 762q0 122 37.5 176t123.5 54q53 0 118 -23.5t79 -23.5q19 0 26 8.5t7 32.5h160q0 -124 -36 -176.5t-123 -52.5q-51 0 -116 26t-86 26q-17 0 -23 -10t-6 -37h-161z" />
    <glyph glyph-name="itilde" unicode="&#x129;" horiz-adv-x="394" 
d="M357 0h-320v585h320v-585zM-69 627q0 122 37.5 176t123.5 54q53 0 118.5 -23.5t78.5 -23.5q19 0 26 8.5t7 32.5h160q0 -124 -36 -176.5t-123 -52.5q-51 0 -116 26t-86 26q-17 0 -23 -10t-6 -37h-161z" />
    <glyph glyph-name="Imacron" unicode="&#x12a;" horiz-adv-x="691" 
d="M661 0h-631v278h162v163h-162v279h631v-279h-164v-163h164v-278zM161 769v170h373v-170h-373z" />
    <glyph glyph-name="imacron" unicode="&#x12b;" horiz-adv-x="394" 
d="M357 0h-320v585h320v-585zM18 634v170h373v-170h-373z" />
    <glyph glyph-name="Ibreve" unicode="&#x12c;" horiz-adv-x="691" 
d="M661 0h-631v278h162v163h-162v279h631v-279h-164v-163h164v-278zM346 756q-236 0 -236 222h174q0 -33 14 -45.5t48 -12.5q33 0 47.5 12.5t14.5 45.5h176q0 -110 -62 -166t-176 -56z" />
    <glyph glyph-name="ibreve" unicode="&#x12d;" horiz-adv-x="394" 
d="M357 0h-320v585h320v-585zM203 621q-236 0 -236 222h174q0 -33 14 -45.5t48 -12.5q33 0 47.5 12.5t14.5 45.5h176q0 -110 -62 -166t-176 -56z" />
    <glyph glyph-name="Iogonek" unicode="&#x12e;" horiz-adv-x="691" 
d="M782 -110q-17 -99 -87.5 -151.5t-187.5 -52.5q-110 0 -167 44.5t-57 122.5q0 82 91 147h-344v278h162v163h-162v279h631v-279h-164v-163h164v-278h-1q-77 -45 -116.5 -72.5t-47.5 -38.5t-8 -23q0 -26 31 -26q40 0 44 50h219z" />
    <glyph glyph-name="iogonek" unicode="&#x12f;" horiz-adv-x="394" 
d="M197 575q-93 0 -132 24t-39 83q0 58 42 83.5t129 25.5q86 0 128.5 -25.5t42.5 -83.5q0 -57 -41.5 -82t-129.5 -25zM479 -110q-17 -99 -87.5 -151.5t-187.5 -52.5q-110 0 -167 44.5t-57 122.5q0 82 91 147h-34v581q42 -40 159 -40q116 0 161 40v-581q-77 -45 -116.5 -72.5
t-47.5 -38.5t-8 -23q0 -26 31 -26q40 0 44 50h219z" />
    <glyph glyph-name="Idotaccent" unicode="&#x130;" horiz-adv-x="691" 
d="M661 0h-631v278h162v163h-162v279h631v-279h-164v-163h164v-278zM347 754q-84 0 -110 23t-26 101q0 76 28.5 100.5t107.5 24.5t107.5 -24.5t28.5 -100.5q0 -75 -28.5 -99.5t-107.5 -24.5z" />
    <glyph glyph-name="dotlessi" unicode="&#x131;" horiz-adv-x="394" 
d="M357 0h-320v585h320v-585z" />
    <glyph glyph-name="IJ" unicode="&#x132;" horiz-adv-x="1115" 
d="M645 0h-615v278h154v163h-154v279h615v-279h-156v-163h156v-278zM706 0v276h4q38 0 49 14t11 64v366h320v-371q0 -89 -10.5 -147.5t-32 -99.5t-63 -62.5t-96 -30.5t-138.5 -9h-44z" />
    <glyph glyph-name="ij" unicode="&#x133;" horiz-adv-x="811" 
d="M607 575q-94 0 -135.5 24.5t-41.5 82.5t44.5 83.5t132.5 25.5q177 0 177 -109q0 -56 -44 -81.5t-133 -25.5zM202 575q-94 0 -135.5 24.5t-41.5 82.5t44.5 83.5t132.5 25.5q177 0 177 -109q0 -56 -44 -81.5t-133 -25.5zM37 -280v232h343q37 0 49.5 14.5t12.5 57.5v557
q42 -40 165 -40q122 0 167 40v-626q0 -75 -11 -118.5t-44 -71t-85.5 -36.5t-144.5 -9h-452zM37 0v581q42 -40 165 -40q122 0 167 40v-581h-332z" />
    <glyph glyph-name="Jcircumflex" unicode="&#x134;" horiz-adv-x="807" 
d="M390 -19q-196 0 -287 82t-91 277v46h316v-44q0 -50 14.5 -70t47.5 -20q32 0 47 21t15 75v372h320v-368q0 -191 -96 -281t-286 -90zM664 758l-48 100l-51 -100h-189l153 246h176l153 -246h-194z" />
    <glyph glyph-name="jcircumflex" unicode="&#x135;" horiz-adv-x="391" 
d="M-96 -277v229h72q37 0 49.5 14.5t12.5 57.5v561h316v-630q0 -51 -3.5 -84.5t-14.5 -61.5t-28 -43t-49 -25.5t-72.5 -14t-101.5 -3.5h-181zM252 623l-48 100l-51 -100h-189l153 246h176l153 -246h-194z" />
    <glyph glyph-name="uni0136" unicode="&#x136;" horiz-adv-x="917" 
d="M566 0l-148 259l-64 -71v-188h-312v720h312v-222l198 222h373l-265 -283l261 -437h-355zM354 -339v84q63 0 94.5 12.5t38.5 41.5q-23 -5 -46 -5q-63 0 -87.5 17.5t-24.5 70.5q0 52 28.5 73t101.5 21q77 0 106 -25.5t29 -96.5q0 -98 -53 -145.5t-187 -47.5z" />
    <glyph glyph-name="uni0137" unicode="&#x137;" horiz-adv-x="816" 
d="M500 0l-113 204l-46 -51v-153h-305v770h305v-311l-10 -72l27 48l138 150h345l-217 -220l223 -365h-347zM311 -345v84q63 0 94.5 12.5t38.5 41.5q-23 -5 -46 -5q-63 0 -87.5 17.5t-24.5 70.5q0 52 28.5 73t101.5 21q77 0 106 -25.5t29 -96.5q0 -98 -53 -145.5t-187 -47.5z
" />
    <glyph glyph-name="kgreenlandic" unicode="&#x138;" horiz-adv-x="816" 
d="M500 0l-113 204l-46 -51v-153h-305v585h305v-126l-10 -72l27 48l138 150h345l-217 -220l223 -365h-347z" />
    <glyph glyph-name="Lacute" unicode="&#x139;" horiz-adv-x="726" 
d="M705 0h-663v720h329v-429h334v-291zM92 758l139 218h265l-204 -218h-200z" />
    <glyph glyph-name="lacute" unicode="&#x13a;" horiz-adv-x="385" 
d="M348 0h-311v770h311v-770zM87 808l139 218h265l-204 -218h-200z" />
    <glyph glyph-name="uni013B" unicode="&#x13b;" horiz-adv-x="726" 
d="M705 0h-663v720h329v-429h334v-291zM266 -358v84q63 0 94.5 12.5t38.5 41.5q-23 -5 -46 -5q-63 0 -87.5 17.5t-24.5 70.5q0 52 28.5 73t101.5 21q77 0 106 -25.5t29 -96.5q0 -98 -53 -145.5t-187 -47.5z" />
    <glyph glyph-name="uni013C" unicode="&#x13c;" horiz-adv-x="385" 
d="M348 0h-311v770h311v-770zM86 -358v84q63 0 94.5 12.5t38.5 41.5q-23 -5 -46 -5q-63 0 -87.5 17.5t-24.5 70.5q0 52 28.5 73t101.5 21q77 0 106 -25.5t29 -96.5q0 -98 -53 -145.5t-187 -47.5z" />
    <glyph glyph-name="Lcaron" unicode="&#x13d;" horiz-adv-x="726" 
d="M705 0h-663v720h329v-429h334v-291zM420 501l88 218h232l-153 -218h-167z" />
    <glyph glyph-name="lcaron" unicode="&#x13e;" horiz-adv-x="385" 
d="M348 0h-311v770h311v-770zM354 551l88 218h232l-153 -218h-167z" />
    <glyph glyph-name="Ldot" unicode="&#x13f;" horiz-adv-x="686" 
d="M665 0h-623v720h316v-419h307v-301zM539 340q-84 0 -110 23t-26 101q0 76 28.5 100.5t107.5 24.5t107.5 -24.5t28.5 -100.5q0 -75 -28.5 -99.5t-107.5 -24.5z" />
    <glyph glyph-name="ldot" unicode="&#x140;" horiz-adv-x="566" 
d="M348 0h-311v770h311v-770zM474 161q-59 0 -77 26t-18 113q0 85 20 112.5t75 27.5t75 -27.5t20 -112.5q0 -84 -20 -111.5t-75 -27.5z" />
    <glyph glyph-name="Lslash" unicode="&#x141;" horiz-adv-x="753" 
d="M732 0h-663v323l-53 -9l-33 187l86 15v204h329v-147l107 19l33 -187l-140 -24v-90h334v-291z" />
    <glyph glyph-name="lslash" unicode="&#x142;" horiz-adv-x="409" 
d="M360 0h-311v187l-35 -9l-34 139l69 17v436h311v-360l33 8l34 -139l-67 -16v-263z" />
    <glyph glyph-name="Nacute" unicode="&#x143;" horiz-adv-x="934" 
d="M602 0l-258 335v-335h-302v720h299l250 -320v320h301v-720h-290zM359 748l139 218h265l-204 -218h-200z" />
    <glyph glyph-name="nacute" unicode="&#x144;" horiz-adv-x="811" 
d="M347 246v-246h-311v585h265l33 -132q47 145 209 145q114 0 173.5 -63.5t59.5 -184.5v-350h-308v253q0 48 -12.5 66.5t-47.5 18.5t-48 -19.5t-13 -72.5zM310 623l139 218h265l-204 -218h-200z" />
    <glyph glyph-name="uni0145" unicode="&#x145;" horiz-adv-x="934" 
d="M602 0l-258 335v-335h-302v720h299l250 -320v320h301v-720h-290zM372 -342v84q63 0 94.5 12.5t38.5 41.5q-23 -5 -46 -5q-63 0 -87.5 17.5t-24.5 70.5q0 52 28.5 73t101.5 21q77 0 106 -25.5t29 -96.5q0 -98 -53 -145.5t-187 -47.5z" />
    <glyph glyph-name="uni0146" unicode="&#x146;" horiz-adv-x="811" 
d="M347 246v-246h-311v585h265l33 -132q47 145 209 145q114 0 173.5 -63.5t59.5 -184.5v-350h-308v253q0 48 -12.5 66.5t-47.5 18.5t-48 -19.5t-13 -72.5zM302 -349v84q63 0 94.5 12.5t38.5 41.5q-23 -5 -46 -5q-63 0 -87.5 17.5t-24.5 70.5q0 52 28.5 73t101.5 21
q77 0 106 -25.5t29 -96.5q0 -98 -53 -145.5t-187 -47.5z" />
    <glyph glyph-name="Ncaron" unicode="&#x147;" horiz-adv-x="934" 
d="M602 0l-258 335v-335h-302v720h299l250 -320v320h301v-720h-290zM556 748h-176l-153 246h193l49 -100l50 100h189z" />
    <glyph glyph-name="ncaron" unicode="&#x148;" horiz-adv-x="811" 
d="M347 246v-246h-311v585h265l33 -132q47 145 209 145q114 0 173.5 -63.5t59.5 -184.5v-350h-308v253q0 48 -12.5 66.5t-47.5 18.5t-48 -19.5t-13 -72.5zM510 625h-176l-153 246h193l49 -100l50 100h189z" />
    <glyph glyph-name="Eng" unicode="&#x14a;" horiz-adv-x="934" 
d="M537 -296h-80v253h61q45 0 58.5 9.5t15.5 46.5l-248 321v-334h-302v720h299l250 -320v320h301v-696q0 -74 -5 -123t-21.5 -86.5t-39 -58t-66.5 -33t-93.5 -16t-129.5 -3.5z" />
    <glyph glyph-name="eng" unicode="&#x14b;" horiz-adv-x="811" 
d="M482 -286h-135v238h59q37 0 49.5 14.5t12.5 57.5v229q0 48 -12.5 66.5t-47.5 18.5t-48 -19.5t-13 -72.5v-246h-311v585h265l33 -132q47 145 209 145q114 0 173.5 -63.5t59.5 -184.5v-395q0 -141 -64.5 -191t-229.5 -50z" />
    <glyph glyph-name="Omacron" unicode="&#x14c;" horiz-adv-x="912" 
d="M456 -19q-211 0 -324 94t-113 283q0 177 120.5 279t322.5 102q196 0 313.5 -102t117.5 -279q0 -188 -114.5 -282.5t-322.5 -94.5zM456 252q52 0 82 28t30 78q0 49 -30.5 78.5t-81.5 29.5t-81.5 -29.5t-30.5 -78.5q0 -50 30 -78t82 -28zM276 788v170h373v-170h-373z" />
    <glyph glyph-name="omacron" unicode="&#x14d;" horiz-adv-x="825" 
d="M412 -19q-395 0 -395 305q0 140 105.5 226t291.5 86t290 -86t104 -226q0 -142 -104 -223.5t-292 -81.5zM412 217q38 0 60 18t22 52q0 37 -22 57t-60 20q-39 0 -60 -20t-21 -57q0 -70 81 -70zM227 647v170h373v-170h-373z" />
    <glyph glyph-name="Obreve" unicode="&#x14e;" horiz-adv-x="912" 
d="M456 -19q-211 0 -324 94t-113 283q0 177 120.5 279t322.5 102q196 0 313.5 -102t117.5 -279q0 -188 -114.5 -282.5t-322.5 -94.5zM456 252q52 0 82 28t30 78q0 49 -30.5 78.5t-81.5 29.5t-81.5 -29.5t-30.5 -78.5q0 -50 30 -78t82 -28zM461 775q-236 0 -236 222h174
q0 -33 14 -45.5t48 -12.5q33 0 47.5 12.5t14.5 45.5h176q0 -110 -62 -166t-176 -56z" />
    <glyph glyph-name="obreve" unicode="&#x14f;" horiz-adv-x="825" 
d="M412 -19q-395 0 -395 305q0 140 105.5 226t291.5 86t290 -86t104 -226q0 -142 -104 -223.5t-292 -81.5zM412 217q38 0 60 18t22 52q0 37 -22 57t-60 20q-39 0 -60 -20t-21 -57q0 -70 81 -70zM412 634q-236 0 -236 222h174q0 -33 14 -45.5t48 -12.5q33 0 47.5 12.5
t14.5 45.5h176q0 -110 -62 -166t-176 -56z" />
    <glyph glyph-name="Ohungarumlaut" unicode="&#x150;" horiz-adv-x="912" 
d="M456 -19q-211 0 -324 94t-113 283q0 177 120.5 279t322.5 102q196 0 313.5 -102t117.5 -279q0 -188 -114.5 -282.5t-322.5 -94.5zM456 252q52 0 82 28t30 78q0 49 -30.5 78.5t-81.5 29.5t-81.5 -29.5t-30.5 -78.5q0 -50 30 -78t82 -28zM800 991l-150 -218h-153l87 218
h216zM548 991l-133 -218h-145l70 218h208z" />
    <glyph glyph-name="ohungarumlaut" unicode="&#x151;" horiz-adv-x="825" 
d="M412 -19q-395 0 -395 305q0 140 105.5 226t291.5 86t290 -86t104 -226q0 -142 -104 -223.5t-292 -81.5zM412 217q38 0 60 18t22 52q0 37 -22 57t-60 20q-39 0 -60 -20t-21 -57q0 -70 81 -70zM751 854l-150 -218h-153l87 218h216zM499 854l-133 -218h-145l70 218h208z" />
    <glyph glyph-name="OE" unicode="&#x152;" horiz-adv-x="1260" 
d="M1236 0h-622q-64 -19 -158 -19q-211 0 -324 94t-113 283q0 177 120.5 279t322.5 102q83 0 143 -19h622v-232h-405v-49h387v-144h-387v-53h414v-242zM456 252q52 0 82 28t30 78q0 49 -30.5 78.5t-81.5 29.5t-81.5 -29.5t-30.5 -78.5q0 -50 30 -78t82 -28z" />
    <glyph glyph-name="oe" unicode="&#x153;" horiz-adv-x="1317" 
d="M1299 198q-27 -110 -126.5 -163.5t-285.5 -53.5q-170 0 -252 61q-79 -61 -223 -61q-395 0 -395 305q0 140 105.5 226t291.5 86q154 0 233 -73q90 73 261 73q202 0 298 -86t96 -224v-51h-507q17 -63 112 -63q55 0 71 24h321zM897 396q-73 0 -96 -43h190q-15 43 -94 43z
M412 217q82 0 82 70q0 77 -82 77q-81 0 -81 -77q0 -70 81 -70z" />
    <glyph glyph-name="Racute" unicode="&#x154;" horiz-adv-x="861" 
d="M469 484h-123v-91h123q28 0 44 12.5t16 33.5q0 45 -60 45zM433 177h-87v-177h-304v720h418q213 0 298 -58t85 -187q0 -133 -130 -182q70 -17 93.5 -59.5t23.5 -130.5v-46q0 -42 34 -57h-331q-27 14 -27 48v63q0 39 -15 52.5t-58 13.5zM323 758l139 218h265l-204 -218
h-200z" />
    <glyph glyph-name="racute" unicode="&#x155;" horiz-adv-x="621" 
d="M365 0h-329v585h259l42 -177q11 102 61 145.5t150 43.5h54v-312h-126q-68 0 -89.5 -22.5t-21.5 -86.5v-176zM224 623l139 218h265l-204 -218h-200z" />
    <glyph glyph-name="uni0156" unicode="&#x156;" horiz-adv-x="861" 
d="M469 484h-123v-91h123q28 0 44 12.5t16 33.5q0 45 -60 45zM433 177h-87v-177h-304v720h418q213 0 298 -58t85 -187q0 -133 -130 -182q70 -17 93.5 -59.5t23.5 -130.5v-46q0 -42 34 -57h-331q-27 14 -27 48v63q0 39 -15 52.5t-58 13.5zM333 -345v84q63 0 94.5 12.5
t38.5 41.5q-23 -5 -46 -5q-63 0 -87.5 17.5t-24.5 70.5q0 52 28.5 73t101.5 21q77 0 106 -25.5t29 -96.5q0 -98 -53 -145.5t-187 -47.5z" />
    <glyph glyph-name="uni0157" unicode="&#x157;" horiz-adv-x="621" 
d="M365 0h-329v585h259l42 -177q11 102 61 145.5t150 43.5h54v-312h-126q-68 0 -89.5 -22.5t-21.5 -86.5v-176zM100 -358v84q63 0 94.5 12.5t38.5 41.5q-23 -5 -46 -5q-63 0 -87.5 17.5t-24.5 70.5q0 52 28.5 73t101.5 21q77 0 106 -25.5t29 -96.5q0 -98 -53 -145.5
t-187 -47.5z" />
    <glyph glyph-name="Rcaron" unicode="&#x158;" horiz-adv-x="861" 
d="M469 484h-123v-91h123q28 0 44 12.5t16 33.5q0 45 -60 45zM433 177h-87v-177h-304v720h418q213 0 298 -58t85 -187q0 -133 -130 -182q70 -17 93.5 -59.5t23.5 -130.5v-46q0 -42 34 -57h-331q-27 14 -27 48v63q0 39 -15 52.5t-58 13.5zM520 758h-176l-153 246h193l49 -100
l50 100h189z" />
    <glyph glyph-name="rcaron" unicode="&#x159;" horiz-adv-x="621" 
d="M365 0h-329v585h259l42 -177q11 102 61 145.5t150 43.5h54v-312h-126q-68 0 -89.5 -22.5t-21.5 -86.5v-176zM421 623h-176l-153 246h193l49 -100l50 100h189z" />
    <glyph glyph-name="Sacute" unicode="&#x15a;" horiz-adv-x="870" 
d="M444 -21q-152 0 -247 31.5t-138.5 86t-56.5 140.5h352q13 -45 119 -45q69 0 69 25q0 16 -36 23t-167 17q-164 11 -241.5 63t-77.5 158q0 125 106 195.5t292 70.5t289.5 -59.5t141.5 -198.5h-330q-17 44 -111 44q-71 0 -71 -29q0 -14 34 -20t160 -15q166 -12 246 -63.5
t80 -164.5q0 -119 -101.5 -189t-311.5 -70zM312 782l139 218h265l-204 -218h-200z" />
    <glyph glyph-name="sacute" unicode="&#x15b;" horiz-adv-x="775" 
d="M384 -19q-81 0 -144 10t-116.5 33.5t-87 65.5t-44.5 102h316q11 -21 36 -28t77 -7q56 0 56 20t-147 29q-178 11 -247 48.5t-69 128.5q0 104 90 159.5t264 55.5q171 0 266.5 -48.5t133.5 -155.5h-303q-19 35 -106 35q-57 0 -57 -20q0 -22 142 -29q178 -10 251 -49.5
t73 -126.5q0 -223 -384 -223zM276 636l139 218h265l-204 -218h-200z" />
    <glyph glyph-name="Scircumflex" unicode="&#x15c;" horiz-adv-x="870" 
d="M444 -21q-152 0 -247 31.5t-138.5 86t-56.5 140.5h352q13 -45 119 -45q69 0 69 25q0 16 -36 23t-167 17q-164 11 -241.5 63t-77.5 158q0 125 106 195.5t292 70.5t289.5 -59.5t141.5 -198.5h-330q-17 44 -111 44q-71 0 -71 -29q0 -14 34 -20t160 -15q166 -12 246 -63.5
t80 -164.5q0 -119 -101.5 -189t-311.5 -70zM476 778l-48 100l-51 -100h-189l153 246h176l153 -246h-194z" />
    <glyph glyph-name="scircumflex" unicode="&#x15d;" horiz-adv-x="775" 
d="M384 -19q-81 0 -144 10t-116.5 33.5t-87 65.5t-44.5 102h316q11 -21 36 -28t77 -7q56 0 56 20t-147 29q-178 11 -247 48.5t-69 128.5q0 104 90 159.5t264 55.5q171 0 266.5 -48.5t133.5 -155.5h-303q-19 35 -106 35q-57 0 -57 -20q0 -22 142 -29q178 -10 251 -49.5
t73 -126.5q0 -223 -384 -223zM432 630l-48 100l-51 -100h-189l153 246h176l153 -246h-194z" />
    <glyph glyph-name="uni015E" unicode="&#x15e;" horiz-adv-x="870" 
d="M448 -349q-108 0 -173.5 41t-88.5 131h206q7 -20 21 -27t44 -7q54 0 54 33q0 15 -10.5 21t-37.5 6h-116v134q-170 13 -249 75.5t-96 178.5h352q13 -45 119 -45q69 0 69 25q0 16 -36 23t-167 17q-164 11 -241.5 63t-77.5 158q0 125 106 195.5t292 70.5t289.5 -59.5
t141.5 -198.5h-330q-17 44 -111 44q-71 0 -71 -29q0 -14 34 -20t160 -15q166 -12 246 -63.5t80 -164.5q0 -107 -82.5 -175t-252.5 -81v-27q87 -3 128 -32.5t41 -101.5q0 -77 -63.5 -123.5t-179.5 -46.5z" />
    <glyph glyph-name="uni015F" unicode="&#x15f;" horiz-adv-x="775" 
d="M417 -347q-108 0 -173.5 41t-88.5 131h206q7 -20 21 -27t44 -7q54 0 54 33q0 15 -10.5 21t-37.5 6h-116v132q-288 17 -324 209h316q11 -21 36 -28t77 -7q56 0 56 20t-147 29q-178 11 -247 48.5t-69 128.5q0 104 90 159.5t264 55.5q171 0 266.5 -48.5t133.5 -155.5h-303
q-19 35 -106 35q-57 0 -57 -20q0 -22 142 -29q178 -10 251 -49.5t73 -126.5q0 -189 -277 -218v-29q87 -3 128 -32.5t41 -101.5q0 -77 -63.5 -123.5t-179.5 -46.5z" />
    <glyph glyph-name="Scaron" unicode="&#x160;" horiz-adv-x="870" 
d="M444 -21q-152 0 -247 31.5t-138.5 86t-56.5 140.5h352q13 -45 119 -45q69 0 69 25q0 16 -36 23t-167 17q-164 11 -241.5 63t-77.5 158q0 125 106 195.5t292 70.5t289.5 -59.5t141.5 -198.5h-330q-17 44 -111 44q-71 0 -71 -29q0 -14 34 -20t160 -15q166 -12 246 -63.5
t80 -164.5q0 -119 -101.5 -189t-311.5 -70zM509 782h-176l-153 246h193l49 -100l50 100h189z" />
    <glyph glyph-name="scaron" unicode="&#x161;" horiz-adv-x="775" 
d="M384 -19q-81 0 -144 10t-116.5 33.5t-87 65.5t-44.5 102h316q11 -21 36 -28t77 -7q56 0 56 20t-147 29q-178 11 -247 48.5t-69 128.5q0 104 90 159.5t264 55.5q171 0 266.5 -48.5t133.5 -155.5h-303q-19 35 -106 35q-57 0 -57 -20q0 -22 142 -29q178 -10 251 -49.5
t73 -126.5q0 -223 -384 -223zM473 636h-176l-153 246h193l49 -100l50 100h189z" />
    <glyph glyph-name="uni0162" unicode="&#x162;" horiz-adv-x="786" 
d="M763 443h-212v-443h-320v443h-208v277h740v-277zM282 -358v84q63 0 94.5 12.5t38.5 41.5q-23 -5 -46 -5q-63 0 -87.5 17.5t-24.5 70.5q0 52 28.5 73t101.5 21q77 0 106 -25.5t29 -96.5q0 -98 -53 -145.5t-187 -47.5z" />
    <glyph glyph-name="uni0163" unicode="&#x163;" horiz-adv-x="623" 
d="M596 242v-242h-193q-162 0 -221.5 66t-59.5 224v46h-110v233q62 4 90 16q45 18 62 62q13 34 19 102h229v-164h185v-249h-185v-29q0 -38 14 -51.5t59 -13.5h111zM238 -347v84q63 0 94.5 12.5t38.5 41.5q-23 -5 -46 -5q-63 0 -87.5 17.5t-24.5 70.5q0 52 28.5 73t101.5 21
q77 0 106 -25.5t29 -96.5q0 -98 -53 -145.5t-187 -47.5z" />
    <glyph glyph-name="Tcaron" unicode="&#x164;" horiz-adv-x="786" 
d="M763 443h-212v-443h-320v443h-208v277h740v-277zM483 758h-176l-153 246h193l49 -100l50 100h189z" />
    <glyph glyph-name="tcaron" unicode="&#x165;" horiz-adv-x="623" 
d="M596 242v-242h-193q-162 0 -221.5 66t-59.5 224v46h-110v233q62 4 90 16q45 18 62 62q13 34 19 102h229v-164h185v-249h-185v-29q0 -38 14 -51.5t59 -13.5h111zM448 627l88 218h232l-153 -218h-167z" />
    <glyph glyph-name="Tbar" unicode="&#x166;" horiz-adv-x="786" 
d="M662 147h-111v-147h-320v147h-111v221h111v75h-208v277h740v-277h-212v-75h111v-221z" />
    <glyph glyph-name="tbar" unicode="&#x167;" horiz-adv-x="623" 
d="M596 242v-242h-166q-171 0 -241 63.5t-76 204.5h-78v42h77v26h-100v223q51 8 84 30q36 24 58 65q18 34 26 95h222v-164h195v-249h-195v-26h156v-42h-150q12 -26 81 -26h107z" />
    <glyph glyph-name="Utilde" unicode="&#x168;" horiz-adv-x="878" 
d="M438 -19q-220 0 -311.5 92t-91.5 296v351h325v-351q0 -57 19.5 -81t60.5 -24q39 0 58.5 24.5t19.5 80.5v351h325v-351q0 -201 -102 -294.5t-303 -93.5zM167 762q0 122 37.5 176t123.5 54q52 0 118 -23.5t79 -23.5q19 0 26 8.5t7 32.5h160q0 -124 -36 -176.5t-123 -52.5
q-51 0 -116 26t-86 26q-17 0 -23 -10t-6 -37h-161z" />
    <glyph glyph-name="utilde" unicode="&#x169;" horiz-adv-x="803" 
d="M499 0l-33 135q-44 -148 -206 -148q-225 0 -225 248v350h304v-254q0 -49 11 -67t44 -18t45.5 19t12.5 68v252h311v-585h-264zM126 627q0 122 37.5 176t123.5 54q53 0 118.5 -23.5t78.5 -23.5q19 0 26 8.5t7 32.5h160q0 -124 -36 -176.5t-123 -52.5q-51 0 -116 26t-86 26
q-17 0 -23 -10t-6 -37h-161z" />
    <glyph glyph-name="Umacron" unicode="&#x16a;" horiz-adv-x="878" 
d="M438 -19q-220 0 -311.5 92t-91.5 296v351h325v-351q0 -57 19.5 -81t60.5 -24q39 0 58.5 24.5t19.5 80.5v351h325v-351q0 -201 -102 -294.5t-303 -93.5zM254 769v170h373v-170h-373z" />
    <glyph glyph-name="umacron" unicode="&#x16b;" horiz-adv-x="799" 
d="M499 0l-33 135q-44 -148 -206 -148q-225 0 -225 248v350h304v-254q0 -49 11 -67t44 -18t45.5 19t12.5 68v252h311v-585h-264zM213 634v170h373v-170h-373z" />
    <glyph glyph-name="Ubreve" unicode="&#x16c;" horiz-adv-x="878" 
d="M438 -19q-220 0 -311.5 92t-91.5 296v351h325v-351q0 -57 19.5 -81t60.5 -24q39 0 58.5 24.5t19.5 80.5v351h325v-351q0 -201 -102 -294.5t-303 -93.5zM439 756q-236 0 -236 222h174q0 -33 14 -45.5t48 -12.5q33 0 47.5 12.5t14.5 45.5h176q0 -110 -62 -166t-176 -56z
" />
    <glyph glyph-name="ubreve" unicode="&#x16d;" horiz-adv-x="799" 
d="M499 0l-33 135q-44 -148 -206 -148q-225 0 -225 248v350h304v-254q0 -49 11 -67t44 -18t45.5 19t12.5 68v252h311v-585h-264zM398 621q-236 0 -236 222h174q0 -33 14 -45.5t48 -12.5q33 0 47.5 12.5t14.5 45.5h176q0 -110 -62 -166t-176 -56z" />
    <glyph glyph-name="Uring" unicode="&#x16e;" horiz-adv-x="878" 
d="M438 -19q-220 0 -311.5 92t-91.5 296v351h325v-351q0 -57 19.5 -81t60.5 -24q39 0 58.5 24.5t19.5 80.5v351h325v-351q0 -201 -102 -294.5t-303 -93.5zM437 757q-95 0 -149.5 43t-54.5 123q0 83 57.5 128.5t148.5 45.5q93 0 150 -46t57 -125t-56 -124t-153 -45zM440 893
q38 0 38 34q0 33 -38 33t-38 -33q0 -34 38 -34z" />
    <glyph glyph-name="uring" unicode="&#x16f;" horiz-adv-x="803" 
d="M499 0l-33 135q-44 -148 -206 -148q-225 0 -225 248v350h304v-254q0 -49 11 -67t44 -18t45.5 19t12.5 68v252h311v-585h-264zM400 626q-95 0 -149.5 43t-54.5 123q0 83 57.5 128.5t148.5 45.5q93 0 150 -46t57 -125t-56 -124t-153 -45zM403 762q38 0 38 34q0 33 -38 33
t-38 -33q0 -34 38 -34z" />
    <glyph glyph-name="Uhungarumlaut" unicode="&#x170;" horiz-adv-x="878" 
d="M438 -19q-220 0 -311.5 92t-91.5 296v351h325v-351q0 -57 19.5 -81t60.5 -24q39 0 58.5 24.5t19.5 80.5v351h325v-351q0 -201 -102 -294.5t-303 -93.5zM778 976l-150 -218h-153l87 218h216zM526 976l-133 -218h-145l70 218h208z" />
    <glyph glyph-name="uhungarumlaut" unicode="&#x171;" horiz-adv-x="799" 
d="M499 0l-33 135q-44 -148 -206 -148q-225 0 -225 248v350h304v-254q0 -49 11 -67t44 -18t45.5 19t12.5 68v252h311v-585h-264zM737 841l-150 -218h-153l87 218h216zM485 841l-133 -218h-145l70 218h208z" />
    <glyph glyph-name="Uogonek" unicode="&#x172;" horiz-adv-x="878" 
d="M521 -283q-110 0 -167 44.5t-57 122.5q0 58 40 102q-163 20 -232.5 111.5t-69.5 271.5v351h325v-351q0 -57 19.5 -81t60.5 -24q39 0 58.5 24.5t19.5 80.5v351h325v-351q0 -274 -195 -353q-65 -38 -98.5 -62.5t-40.5 -35t-7 -21.5q0 -26 31 -26q40 0 44 50h219
q-17 -99 -87.5 -151.5t-187.5 -52.5z" />
    <glyph glyph-name="uogonek" unicode="&#x173;" horiz-adv-x="799" 
d="M885 -110q-17 -99 -87.5 -151.5t-187.5 -52.5q-110 0 -167 44.5t-57 122.5q0 44 23.5 82t86.5 78l-30 122q-44 -148 -206 -148q-225 0 -225 248v350h304v-254q0 -49 11 -67t44 -18t45.5 19t12.5 68v252h311v-585q-77 -45 -116.5 -72.5t-47.5 -38.5t-8 -23q0 -26 31 -26
q40 0 44 50h219z" />
    <glyph glyph-name="Wcircumflex" unicode="&#x174;" horiz-adv-x="1282" 
d="M742 0l-115 339l-139 -339h-296l-222 720h328l86 -323l127 323h256l111 -323l110 323h324l-271 -720h-299zM696 758l-48 100l-51 -100h-189l153 246h176l153 -246h-194z" />
    <glyph glyph-name="wcircumflex" unicode="&#x175;" horiz-adv-x="1106" 
d="M629 0l-88 227l-100 -227h-278l-189 585h300l71 -249l107 249h187l99 -251l92 251h298l-233 -585h-266zM596 623l-48 100l-51 -100h-189l153 246h176l153 -246h-194z" />
    <glyph glyph-name="Ycircumflex" unicode="&#x176;" horiz-adv-x="763" 
d="M538 0h-320v280l-271 440h334l101 -174l102 174h332l-278 -439v-281zM430 758l-48 100l-51 -100h-189l153 246h176l153 -246h-194z" />
    <glyph glyph-name="ycircumflex" unicode="&#x177;" horiz-adv-x="782" 
d="M224 -233h-169v233h107q34 0 48 6.5t25 28.5l-269 550h330l89 -224l10 -41l12 41l92 224h317l-274 -573q-41 -86 -68.5 -131t-64.5 -72.5t-76 -34.5t-109 -7zM438 623l-48 100l-51 -100h-189l153 246h176l153 -246h-194z" />
    <glyph glyph-name="Ydieresis" unicode="&#x178;" horiz-adv-x="763" 
d="M538 0h-320v280l-271 440h334l101 -174l102 174h332l-278 -439v-281zM249 754q-68 0 -90 21.5t-22 84.5t24.5 86t87.5 23q64 0 89 -23t25 -86q0 -61 -24.5 -83.5t-89.5 -22.5zM510 754q-67 0 -89.5 21.5t-22.5 84.5q0 64 24 86.5t88 22.5t89 -23t25 -86
q0 -61 -24.5 -83.5t-89.5 -22.5z" />
    <glyph glyph-name="Zacute" unicode="&#x179;" horiz-adv-x="848" 
d="M816 0h-785v188l344 274h-323v258h762v-206l-313 -253h315v-261zM339 758l139 218h265l-204 -218h-200z" />
    <glyph glyph-name="zacute" unicode="&#x17a;" horiz-adv-x="746" 
d="M725 0h-705v188l289 183h-273v214h688v-205l-264 -163h266zM273 623l139 218h265l-204 -218h-200z" />
    <glyph glyph-name="Zdotaccent" unicode="&#x17b;" horiz-adv-x="848" 
d="M816 0h-785v188l344 274h-323v258h762v-206l-313 -253h315v-261zM447 754q-84 0 -110 23t-26 101q0 76 28.5 100.5t107.5 24.5t107.5 -24.5t28.5 -100.5q0 -75 -28.5 -99.5t-107.5 -24.5z" />
    <glyph glyph-name="zdotaccent" unicode="&#x17c;" horiz-adv-x="746" 
d="M725 0h-705v188l289 183h-273v214h688v-205l-264 -163h266zM381 619q-84 0 -110 23t-26 101q0 76 28.5 100.5t107.5 24.5t107.5 -24.5t28.5 -100.5q0 -75 -28.5 -99.5t-107.5 -24.5z" />
    <glyph glyph-name="Zcaron" unicode="&#x17d;" horiz-adv-x="848" 
d="M816 0h-785v188l344 274h-323v258h762v-206l-313 -253h315v-261zM536 758h-176l-153 246h193l49 -100l50 100h189z" />
    <glyph glyph-name="zcaron" unicode="&#x17e;" horiz-adv-x="746" 
d="M725 0h-705v188l289 183h-273v214h688v-205l-264 -163h266zM470 623h-176l-153 246h193l49 -100l50 100h189z" />
    <glyph glyph-name="uni0192" unicode="&#x192;" horiz-adv-x="560" 
d="M421 7q0 -138 -73 -200.5t-234 -62.5h-102v238h56q37 0 49.5 14t12.5 58v109h-120v255h122v83q0 138 73 200.5t234 62.5h111v-238h-65q-37 0 -49.5 -14t-12.5 -58v-36h125v-255h-126z" />
    <glyph glyph-name="Aringacute" unicode="&#x1fa;" horiz-adv-x="871" 
d="M341 968l139 218h265l-204 -218h-200zM439 736q38 0 38 34q0 33 -38 33t-38 -33q0 -34 38 -34zM431 432l-45 -138h103l-44 137l-7 34zM319 90l-29 -90h-324l279 697q-13 29 -13 69q0 83 57.5 128.5t148.5 45.5q93 0 150 -46t57 -125q0 -36 -12 -66l273 -703h-323l-29 90
h-235z" />
    <glyph glyph-name="aringacute" unicode="&#x1fb;" horiz-adv-x="835" 
d="M370 158q47 0 87.5 26.5t40.5 61.5v9q-19 -15 -87 -32q-46 -9 -61 -19q-14 -9 -14 -23q0 -23 34 -23zM529 0l-31 96q-68 -115 -264 -115q-221 0 -221 161q0 105 92 150q40 19 86.5 29.5t132.5 19.5q113 11 143.5 17.5t30.5 21.5q0 23 -59 23q-45 0 -67.5 -11.5
t-22.5 -28.5h-317q13 117 116.5 176t283.5 59q191 0 279.5 -65t88.5 -204v-329h-271zM337 982l139 218h265l-204 -218h-200zM428 621q-95 0 -149.5 43t-54.5 123q0 83 57.5 128.5t148.5 45.5q93 0 150 -46t57 -125t-56 -124t-153 -45zM431 757q38 0 38 34q0 33 -38 33
t-38 -33q0 -34 38 -34z" />
    <glyph glyph-name="AEacute" unicode="&#x1fc;" horiz-adv-x="1228" 
d="M510 432l-70 -138h114l-30 137l-2 34zM618 0l-20 90h-261l-45 -90h-332l407 720h828v-232h-399l14 -49h367v-144h-328l15 -53h340v-242h-586zM468 758l139 218h265l-204 -218h-200z" />
    <glyph glyph-name="Oslashacute" unicode="&#x1fe;" horiz-adv-x="912" 
d="M410 -135h-347l86 197q-130 96 -130 296q0 177 120.5 279t322.5 102q23 0 34 -1l39 98h333l-87 -205q112 -103 112 -273q0 -188 -114.5 -282.5t-321.5 -94.5zM456 252q52 0 82 28t30 78q0 49 -30.5 78.5t-81.5 29.5t-81.5 -29.5t-30.5 -78.5q0 -50 30 -78t82 -28z
M262 790l139 218h265l-204 -218h-200z" />
    <glyph glyph-name="oslashacute" unicode="&#x1ff;" horiz-adv-x="825" 
d="M412 217q38 0 60 18t22 52q0 37 -22 57t-60 20q-39 0 -60 -20t-21 -57q0 -70 81 -70zM412 -19q-24 0 -66 2l-46 -72h-268l90 142q-105 77 -105 233q0 140 105.5 226t291.5 86q43 0 75 -4l41 65h269l-93 -149q102 -84 102 -224q0 -142 -104 -223.5t-292 -81.5zM265 648
l139 218h265l-204 -218h-200z" />
    <glyph glyph-name="uni0218" unicode="&#x218;" horiz-adv-x="870" 
d="M444 -21q-152 0 -247 31.5t-138.5 86t-56.5 140.5h352q13 -45 119 -45q69 0 69 25q0 16 -36 23t-167 17q-164 11 -241.5 63t-77.5 158q0 125 106 195.5t292 70.5t289.5 -59.5t141.5 -198.5h-330q-17 44 -111 44q-71 0 -71 -29q0 -14 34 -20t160 -15q166 -12 246 -63.5
t80 -164.5q0 -119 -101.5 -189t-311.5 -70zM341 -378v84q63 0 94.5 12.5t38.5 41.5q-23 -5 -46 -5q-63 0 -87.5 17.5t-24.5 70.5q0 52 28.5 73t101.5 21q77 0 106 -25.5t29 -96.5q0 -98 -53 -145.5t-187 -47.5z" />
    <glyph glyph-name="uni0219" unicode="&#x219;" horiz-adv-x="775" 
d="M384 -19q-81 0 -144 10t-116.5 33.5t-87 65.5t-44.5 102h316q11 -21 36 -28t77 -7q56 0 56 20t-147 29q-178 11 -247 48.5t-69 128.5q0 104 90 159.5t264 55.5q171 0 266.5 -48.5t133.5 -155.5h-303q-19 35 -106 35q-57 0 -57 -20q0 -22 142 -29q178 -10 251 -49.5
t73 -126.5q0 -223 -384 -223zM298 -377v84q63 0 94.5 12.5t38.5 41.5q-23 -5 -46 -5q-63 0 -87.5 17.5t-24.5 70.5q0 52 28.5 73t101.5 21q77 0 106 -25.5t29 -96.5q0 -98 -53 -145.5t-187 -47.5z" />
    <glyph glyph-name="uni0237" unicode="&#x237;" horiz-adv-x="391" 
d="M-96 -277v229h72q37 0 49.5 14.5t12.5 57.5v561h316v-630q0 -51 -3.5 -84.5t-14.5 -61.5t-28 -43t-49 -25.5t-72.5 -14t-101.5 -3.5h-181z" />
    <glyph glyph-name="uni0245" unicode="&#x245;" horiz-adv-x="871" 
d="M431 426l-139 -426h-326l288 720h372l280 -720h-325l-136 425l-7 35z" />
    <glyph glyph-name="circumflex" unicode="&#x2c6;" 
d="M349 663l-48 100l-51 -100h-189l153 246h176l153 -246h-194z" />
    <glyph glyph-name="caron" unicode="&#x2c7;" 
d="M389 663h-176l-153 246h193l49 -100l50 100h189z" />
    <glyph glyph-name="breve" unicode="&#x2d8;" 
d="M298 661q-236 0 -236 222h174q0 -33 14 -45.5t48 -12.5q33 0 47.5 12.5t14.5 45.5h176q0 -110 -62 -166t-176 -56z" />
    <glyph glyph-name="dotaccent" unicode="&#x2d9;" 
d="M298 659q-84 0 -110 23t-26 101q0 76 28.5 100.5t107.5 24.5t107.5 -24.5t28.5 -100.5q0 -75 -28.5 -99.5t-107.5 -24.5z" />
    <glyph glyph-name="ring" unicode="&#x2da;" 
d="M300 656q-95 0 -149.5 43t-54.5 123q0 83 57.5 128.5t148.5 45.5q93 0 150 -46t57 -125t-56 -124t-153 -45zM303 792q38 0 38 34q0 33 -38 33t-38 -33q0 -34 38 -34z" />
    <glyph glyph-name="ogonek" unicode="&#x2db;" 
d="M283 -314q-110 0 -167 44.5t-57 122.5q0 57 43 106t163 106l171 -65q-77 -45 -116.5 -72.5t-47.5 -38.5t-8 -23q0 -26 31 -26q40 0 44 50h219q-17 -99 -87.5 -151.5t-187.5 -52.5z" />
    <glyph glyph-name="tilde" unicode="&#x2dc;" 
d="M38 667q0 122 37.5 176t123.5 54q52 0 117.5 -23.5t79.5 -23.5q19 0 26 8.5t7 32.5h160q0 -124 -36 -176.5t-123 -52.5q-51 0 -116 26t-86 26q-17 0 -23 -10t-6 -37h-161z" />
    <glyph glyph-name="hungarumlaut" unicode="&#x2dd;" 
d="M595 881l-150 -218h-153l87 218h216zM343 881l-133 -218h-145l70 218h208z" />
    <glyph glyph-name="uni03BC" unicode="&#x3bc;" horiz-adv-x="813" 
d="M396 -14q-41 0 -61 23v-224h-302v800h305v-232q0 -56 12 -82.5t49 -26.5q38 0 51 29t13 89v223h311v-585h-268l-21 77q-10 -48 -31.5 -69.5t-57.5 -21.5z" />
    <glyph glyph-name="pi" unicode="&#x3c0;" horiz-adv-x="973" 
d="M545 251v195h-114v-446h-286v446h-122v274h927v-274h-119v-127q0 -43 12.5 -57t49.5 -14h57v-248h-130q-160 0 -217.5 53t-57.5 198z" />
    <glyph glyph-name="uni0E3F" unicode="&#xe3f;" horiz-adv-x="992" 
d="M614 0h-58v-119h-132v119h-382v720h382v113h132v-113h44q194 0 276.5 -47t82.5 -149q0 -62 -38.5 -98t-113.5 -52q91 -16 132.5 -54.5t41.5 -110.5q0 -209 -367 -209zM567 504h-11v-74h11q60 0 60 38q1 15 -13.5 25.5t-46.5 10.5zM356 430h68v74h-68v-74zM562 300h-6v-77
h6q76 0 76 40q0 37 -76 37zM356 223h68v77h-68v-77z" />
    <glyph glyph-name="Wgrave" unicode="&#x1e80;" horiz-adv-x="1282" 
d="M742 0l-115 339l-139 -339h-296l-222 720h328l86 -323l127 323h256l111 -323l110 323h324l-271 -720h-299zM559 758l-192 218h266l111 -218h-185z" />
    <glyph glyph-name="wgrave" unicode="&#x1e81;" horiz-adv-x="1106" 
d="M629 0l-88 227l-100 -227h-278l-189 585h300l71 -249l107 249h187l99 -251l92 251h298l-233 -585h-266zM459 623l-192 218h266l111 -218h-185z" />
    <glyph glyph-name="Wacute" unicode="&#x1e82;" horiz-adv-x="1282" 
d="M742 0l-115 339l-139 -339h-296l-222 720h328l86 -323l127 323h256l111 -323l110 323h324l-271 -720h-299zM539 758l139 218h265l-204 -218h-200z" />
    <glyph glyph-name="wacute" unicode="&#x1e83;" horiz-adv-x="1106" 
d="M629 0l-88 227l-100 -227h-278l-189 585h300l71 -249l107 249h187l99 -251l92 251h298l-233 -585h-266zM439 623l139 218h265l-204 -218h-200z" />
    <glyph glyph-name="Wdieresis" unicode="&#x1e84;" horiz-adv-x="1282" 
d="M742 0l-115 339l-139 -339h-296l-222 720h328l86 -323l127 323h256l111 -323l110 323h324l-271 -720h-299zM515 756q-68 0 -90 21.5t-22 84.5t24.5 86t87.5 23q64 0 89 -23t25 -86q0 -61 -24.5 -83.5t-89.5 -22.5zM776 756q-67 0 -89.5 21.5t-22.5 84.5q0 64 24 86.5
t88 22.5t89 -23t25 -86q0 -61 -24.5 -83.5t-89.5 -22.5z" />
    <glyph glyph-name="wdieresis" unicode="&#x1e85;" horiz-adv-x="1106" 
d="M629 0l-88 227l-100 -227h-278l-189 585h300l71 -249l107 249h187l99 -251l92 251h298l-233 -585h-266zM414 619q-68 0 -90 21.5t-22 84.5t24.5 86t87.5 23q64 0 89 -23t25 -86q0 -61 -24.5 -83.5t-89.5 -22.5zM675 619q-67 0 -89.5 21.5t-22.5 84.5q0 64 24 86.5
t88 22.5t89 -23t25 -86q0 -61 -24.5 -83.5t-89.5 -22.5z" />
    <glyph glyph-name="Ygrave" unicode="&#x1ef2;" horiz-adv-x="763" 
d="M538 0h-320v280l-271 440h334l101 -174l102 174h332l-278 -439v-281zM293 758l-192 218h266l111 -218h-185z" />
    <glyph glyph-name="ygrave" unicode="&#x1ef3;" horiz-adv-x="782" 
d="M224 -233h-169v233h107q34 0 48 6.5t25 28.5l-269 550h330l89 -224l10 -41l12 41l92 224h317l-274 -573q-41 -86 -68.5 -131t-64.5 -72.5t-76 -34.5t-109 -7zM301 623l-192 218h266l111 -218h-185z" />
    <glyph glyph-name="figuredash" unicode="&#x2012;" horiz-adv-x="734" 
d="M704 434v-283h-674v283h674z" />
    <glyph glyph-name="endash" unicode="&#x2013;" horiz-adv-x="579" 
d="M549 434v-283h-519v283h519z" />
    <glyph glyph-name="emdash" unicode="&#x2014;" horiz-adv-x="849" 
d="M819 434v-283h-789v283h789z" />
    <glyph glyph-name="uni2015" unicode="&#x2015;" horiz-adv-x="1309" 
d="M1279 434v-283h-1249v283h1249z" />
    <glyph glyph-name="uni2016" unicode="&#x2016;" horiz-adv-x="727" 
d="M327 -42h-272v818h272v-818zM672 -42h-272v818h272v-818z" />
    <glyph glyph-name="underscoredbl" unicode="&#x2017;" horiz-adv-x="800" 
d="M790 246v-246h-780v246h780zM790 -62v-247h-780v247h780z" />
    <glyph glyph-name="quoteleft" unicode="&#x2018;" horiz-adv-x="358" 
d="M180 309q-77 0 -105.5 35t-28.5 126q0 250 241 250v-113q-48 -1 -69.5 -14.5t-28.5 -49.5h12q69 0 92.5 -21t23.5 -93q0 -69 -30.5 -94.5t-106.5 -25.5z" />
    <glyph glyph-name="quoteright" unicode="&#x2019;" horiz-adv-x="358" 
d="M73 312v112q47 1 69 15t29 49h-12q-69 0 -92.5 21t-23.5 94q0 69 30.5 94.5t106.5 25.5q77 0 105.5 -35t28.5 -126q0 -250 -241 -250z" />
    <glyph glyph-name="quotesinglbase" unicode="&#x201a;" horiz-adv-x="358" 
d="M73 -183v112q47 1 69 15t29 49h-12q-69 0 -92.5 21t-23.5 93q0 69 30.5 94.5t106.5 25.5q77 0 105.5 -35t28.5 -126q0 -249 -241 -249z" />
    <glyph glyph-name="uni201B" unicode="&#x201b;" horiz-adv-x="358" 
d="M285 424v-112q-241 0 -241 250q0 91 28.5 126t105.5 35q76 0 106.5 -25.5t30.5 -94.5q0 -73 -23.5 -94t-92.5 -21h-12q7 -35 29 -49t69 -15z" />
    <glyph glyph-name="quotedblleft" unicode="&#x201c;" horiz-adv-x="681" 
d="M180 309q-77 0 -105.5 35t-28.5 126q0 250 241 250v-112q-47 -1 -69 -15t-29 -49h12q69 0 92.5 -21t23.5 -94q0 -69 -30.5 -94.5t-106.5 -25.5zM502 309q-77 0 -105.5 35t-28.5 126q0 250 242 250v-112q-48 -1 -70 -15t-28 -49h12q69 0 92 -21t23 -94q0 -69 -30 -94.5
t-107 -25.5z" />
    <glyph glyph-name="quotedblright" unicode="&#x201d;" horiz-adv-x="681" 
d="M395 312v112q48 1 70 15t28 49h-12q-69 0 -92 21t-23 94q0 69 30 94.5t107 25.5t105.5 -35t28.5 -126q0 -250 -242 -250zM73 312v112q47 1 69 15t29 49h-12q-69 0 -92.5 21t-23.5 94q0 69 30.5 94.5t106.5 25.5q77 0 105.5 -35t28.5 -126q0 -250 -241 -250z" />
    <glyph glyph-name="quotedblbase" unicode="&#x201e;" horiz-adv-x="681" 
d="M395 -183v112q48 1 70 15t28 49h-12q-69 0 -92 21t-23 93q0 69 30 94.5t107 25.5t105.5 -35t28.5 -126q0 -249 -242 -249zM73 -183v112q47 1 69 15t29 49h-12q-69 0 -92.5 21t-23.5 93q0 69 30.5 94.5t106.5 25.5q77 0 105.5 -35t28.5 -126q0 -249 -241 -249z" />
    <glyph glyph-name="uni201F" unicode="&#x201f;" horiz-adv-x="701" 
d="M285 424v-112q-241 0 -241 250q0 91 28.5 126t105.5 35q76 0 106.5 -25.5t30.5 -94.5q0 -73 -23.5 -94t-92.5 -21h-12q7 -35 29 -49t69 -15zM628 424v-112q-242 0 -242 250q0 91 28.5 126t105.5 35t107 -25.5t30 -94.5q0 -73 -23 -94t-92 -21h-12q6 -35 28 -49t70 -15z
" />
    <glyph glyph-name="dagger" unicode="&#x2020;" horiz-adv-x="828" 
d="M798 382h-232v-546h-302v546h-234v290h234v236h302v-236h232v-290z" />
    <glyph glyph-name="daggerdbl" unicode="&#x2021;" horiz-adv-x="828" 
d="M798 30h-232v-194h-302v194h-234v278h234v119h-234v275h234v206h302v-206h232v-275h-232v-119h232v-278z" />
    <glyph glyph-name="bullet" unicode="&#x2022;" horiz-adv-x="547" 
d="M273 114q-96 0 -134 36t-38 130q0 90 40.5 128.5t131.5 38.5q93 0 133 -36.5t40 -130.5q0 -92 -40.5 -129t-132.5 -37z" />
    <glyph glyph-name="ellipsis" unicode="&#x2026;" horiz-adv-x="1119" 
d="M194 -14q-90 0 -121 28t-31 119t32.5 120t119.5 29q86 0 117.5 -29t31.5 -120q0 -90 -29.5 -118.5t-119.5 -28.5zM564 -14q-90 0 -121 28t-31 119t32.5 120t119.5 29t119.5 -29t32.5 -120q0 -90 -31 -118.5t-121 -28.5zM928 -14q-90 0 -121 28t-31 119t32.5 120t119.5 29
q86 0 117.5 -29t31.5 -120q0 -90 -29.5 -118.5t-119.5 -28.5z" />
    <glyph glyph-name="perthousand" unicode="&#x2030;" horiz-adv-x="1513" 
d="M219 400q-221 0 -221 164q0 75 58.5 121t164.5 46q105 0 163 -46t58 -121q0 -76 -58 -120t-165 -44zM-33 0l745 720h347l-729 -720h-363zM219 526q46 0 46 38q0 41 -46 41q-45 0 -45 -41q0 -38 45 -38zM817 -5q-221 0 -221 164q0 75 58.5 121t164.5 46q105 0 163 -46
t58 -121q0 -76 -58 -120t-165 -44zM1293 -5q-221 0 -221 164q0 75 58.5 121t164.5 46q105 0 163 -46t58 -121q0 -76 -58 -120t-165 -44zM817 121q46 0 46 38q0 41 -46 41q-45 0 -45 -41q0 -38 45 -38zM1293 121q46 0 46 38q0 41 -46 41q-45 0 -45 -41q0 -38 45 -38z" />
    <glyph glyph-name="uni2032" unicode="&#x2032;" horiz-adv-x="296" 
d="M197 432h-176l35 288h240z" />
    <glyph glyph-name="uni2033" unicode="&#x2033;" horiz-adv-x="577" 
d="M197 432h-176l35 288h241zM480 432h-176l31 288h241z" />
    <glyph glyph-name="uni2034" unicode="&#x2034;" horiz-adv-x="944" 
d="M29 720h259v-18q0 -81 -13.5 -171.5t-22.5 -105.5h-187q-10 14 -23 104t-13 173v18zM345 720h259v-18q0 -81 -13.5 -171.5t-22.5 -105.5h-188q-10 15 -22.5 104.5t-12.5 172.5v18zM660 720h259v-18q0 -81 -13.5 -171.5t-22.5 -105.5h-187q-10 14 -23 104t-13 173v18z" />
    <glyph glyph-name="guilsinglleft" unicode="&#x2039;" horiz-adv-x="508" 
d="M498 65h-282l-186 217v25l180 228h268l-185 -229z" />
    <glyph glyph-name="guilsinglright" unicode="&#x203a;" horiz-adv-x="508" 
d="M292 65h-283l205 241l-184 229h267l180 -228v-25z" />
    <glyph glyph-name="exclamdbl" unicode="&#x203c;" horiz-adv-x="846" 
d="M54 720h326v-57q0 -143 -18.5 -238t-41.5 -131q-38 6 -103 6q-75 0 -107 -6q-22 36 -39 129.5t-17 239.5v57zM475 720h326v-57q0 -142 -18 -237.5t-41 -131.5q-37 6 -104 6q-76 0 -106 -6q-23 35 -40 129t-17 240v57zM212 -14q-102 0 -136 26.5t-34 105.5q0 78 37 106
t133 28q95 0 132.5 -28.5t37.5 -105.5q0 -78 -36 -105t-134 -27zM634 -14q-102 0 -136 26.5t-34 105.5q0 78 37 106t133 28q95 0 132 -28.5t37 -105.5q0 -78 -35.5 -105t-133.5 -27z" />
    <glyph glyph-name="uni203D" unicode="&#x203d;" horiz-adv-x="781" 
d="M512 483q0 31 -30 45q-1 -36 -5 -88q4 3 10.5 7.5t9 6.5t6.5 5.5t5.5 6.5t2.5 7.5t1 9.5zM405 254q-53 0 -90 -5q-7 25 -12 76q-4 33 -5 196q-37 -25 -37 -85h-264q6 152 95.5 226.5t298.5 74.5q195 0 287 -52t92 -157q0 -55 -25 -91t-62.5 -52.5t-75.5 -28t-69 -29.5
t-39 -46l-8 -31q-31 4 -86 4zM403 -14q-114 0 -151 23t-37 93q0 68 40.5 92.5t147.5 24.5q108 0 149 -24.5t41 -92.5q0 -69 -39.5 -92.5t-150.5 -23.5z" />
    <glyph glyph-name="fraction" unicode="&#x2044;" horiz-adv-x="1130" 
d="M670 397l-51 47l256 338l191 -173zM509 352l50 -47l-259 -363l-193 180z" />
    <glyph glyph-name="uni2070" unicode="&#x2070;" horiz-adv-x="458" 
d="M227 351q-99 0 -152.5 47t-53.5 141q0 88 57 138.5t152 50.5q92 0 147.5 -50.5t55.5 -138.5q0 -94 -54 -141t-152 -47zM226 497q38 0 38 42q0 43 -38 43q-18 0 -27.5 -12t-9.5 -31q0 -42 37 -42z" />
    <glyph glyph-name="uni2074" unicode="&#x2074;" horiz-adv-x="444" 
d="M426 411h-57v-51h-147v51h-209v104l221 205h135v-189h57v-120zM222 531v50l-51 -50h51z" />
    <glyph glyph-name="uni2075" unicode="&#x2075;" horiz-adv-x="443" 
d="M221 353q-108 0 -155 29t-47 90h183q0 -18 22 -18q20 0 20 18q0 20 -23 20q-17 0 -25 -13l-174 32l42 209h341v-1q0 -76 -24 -100t-102 -24h-76l-8 -32q40 18 94 18q69 0 100.5 -24.5t31.5 -78.5q0 -62 -47 -93.5t-153 -31.5z" />
    <glyph glyph-name="uni2076" unicode="&#x2076;" horiz-adv-x="453" 
d="M430 482q0 -64 -53 -97.5t-144 -33.5q-115 0 -163.5 45.5t-48.5 138.5q0 94 53.5 143.5t154.5 49.5q89 0 137.5 -31.5t63.5 -103.5h-170q-6 13 -32 13q-48 0 -48 -54q45 28 116 28q70 0 102 -22.5t32 -75.5zM232 480q37 0 37 18q0 15 -23 15q-28 0 -53 -18q13 -15 39 -15
z" />
    <glyph glyph-name="uni2077" unicode="&#x2077;" horiz-adv-x="382" 
d="M211 360h-187q59 122 163 223h-179v137h367v-117q-67 -62 -103 -116.5t-61 -126.5z" />
    <glyph glyph-name="uni2078" unicode="&#x2078;" horiz-adv-x="438" 
d="M217 353q-109 0 -158.5 25t-49.5 80q0 62 75 84q-60 18 -60 75q0 56 46 83.5t149 27.5q196 0 196 -111q0 -57 -63 -74q74 -23 74 -80q0 -56 -50.5 -83t-158.5 -27zM219 571q45 0 45 14q0 15 -45 15q-44 0 -44 -15q0 -14 44 -14zM219 482q48 0 48 14q0 15 -48 15
q-47 0 -47 -15q0 -14 47 -14z" />
    <glyph glyph-name="uni2079" unicode="&#x2079;" horiz-adv-x="452" 
d="M205 567q34 0 56 16q-10 20 -42 20q-39 0 -39 -21q0 -15 25 -15zM219 350q-91 0 -141 30t-64 105h176q5 -15 32 -15q47 0 47 56q-40 -28 -114 -28q-137 0 -137 95q0 62 52 97.5t156 35.5q202 0 202 -188t-209 -188z" />
    <glyph glyph-name="uni207A" unicode="&#x207a;" horiz-adv-x="391" 
d="M353 472h-90v-85h-140v85h-90v141h90v85h140v-85h90v-141z" />
    <glyph glyph-name="uni207B" unicode="&#x207b;" horiz-adv-x="391" 
d="M353 466h-320v153h320v-153z" />
    <glyph glyph-name="uni207C" unicode="&#x207c;" horiz-adv-x="393" 
d="M333 567h-277v121h277v-121zM333 403h-277v121h277v-121z" />
    <glyph glyph-name="uni207D" unicode="&#x207d;" horiz-adv-x="332" 
d="M292 207q-64 4 -109.5 20.5t-82 51.5t-55 98t-18.5 154v1q0 170 63.5 238t201.5 79v-171q-53 -9 -73.5 -38t-20.5 -106q0 -78 20.5 -105t73.5 -32v-190z" />
    <glyph glyph-name="uni207E" unicode="&#x207e;" horiz-adv-x="332" 
d="M36 207v190q53 5 73.5 32t20.5 105q0 77 -20.5 106t-73.5 38v171q138 -11 201.5 -79t63.5 -238v-1q0 -91 -18.5 -154t-55 -98t-82 -51.5t-109.5 -20.5z" />
    <glyph glyph-name="uni2080" unicode="&#x2080;" horiz-adv-x="458" 
d="M229 -9q-99 0 -152.5 47t-53.5 141q0 88 57 138.5t152 50.5q92 0 147.5 -50.5t55.5 -138.5q0 -94 -54 -141t-152 -47zM228 137q38 0 38 42q0 43 -38 43q-18 0 -27.5 -12t-9.5 -31q0 -42 37 -42z" />
    <glyph glyph-name="uni2081" unicode="&#x2081;" horiz-adv-x="372" 
d="M348 0h-325v144h87v39h-66v112q72 3 94 65h133v-216h77v-144z" />
    <glyph glyph-name="uni2082" unicode="&#x2082;" horiz-adv-x="436" 
d="M410 0h-391v98q0 52 38 80.5t83 33.5t83 8.5t38 11.5q0 11 -33 11q-38 0 -40 -20h-167q9 145 205 145q190 0 190 -117q0 -33 -19 -55t-49.5 -32t-62 -15t-64 -10t-46.5 -12h235v-127z" />
    <glyph glyph-name="uni2083" unicode="&#x2083;" horiz-adv-x="425" 
d="M211 -10q-63 0 -104 9t-63 28.5t-30.5 44t-9.5 61.5h167q2 -9 8.5 -11.5t29.5 -2.5q38 0 38 13q0 10 -36 10h-32v75h31q30 0 30 11t-33 11q-35 0 -37 -14h-159q3 76 55 108t157 32q95 0 141 -28.5t46 -76.5q0 -57 -76 -74q83 -14 83 -78q0 -56 -51.5 -87t-154.5 -31z" />
    <glyph glyph-name="uni2084" unicode="&#x2084;" horiz-adv-x="444" 
d="M428 51h-57v-51h-147v51h-209v104l221 205h135v-189h57v-120zM224 171v50l-51 -50h51z" />
    <glyph glyph-name="uni2085" unicode="&#x2085;" horiz-adv-x="443" 
d="M223 -7q-108 0 -155 29t-47 90h183q0 -18 22 -18q20 0 20 18q0 20 -23 20q-17 0 -25 -13l-174 32l42 209h341v-1q0 -76 -24 -100t-102 -24h-76l-8 -32q41 18 94 18q69 0 100.5 -24.5t31.5 -78.5q0 -62 -47 -93.5t-153 -31.5z" />
    <glyph glyph-name="uni2086" unicode="&#x2086;" horiz-adv-x="453" 
d="M432 122q0 -64 -53 -97.5t-144 -33.5q-115 0 -163.5 45.5t-48.5 138.5q0 94 53.5 143.5t154.5 49.5q89 0 137.5 -31.5t63.5 -103.5h-170q-6 13 -32 13q-48 0 -48 -54q45 28 116 28q70 0 102 -22.5t32 -75.5zM234 120q37 0 37 18q0 15 -23 15q-28 0 -53 -18q13 -15 39 -15
z" />
    <glyph glyph-name="uni2087" unicode="&#x2087;" horiz-adv-x="382" 
d="M213 0h-187q59 122 163 223h-179v137h367v-117q-67 -62 -103 -116.5t-61 -126.5z" />
    <glyph glyph-name="uni2088" unicode="&#x2088;" horiz-adv-x="438" 
d="M219 -7q-109 0 -158.5 25t-49.5 80q0 62 75 84q-60 18 -60 75q0 56 46 83.5t149 27.5q196 0 196 -111q0 -57 -63 -74q74 -23 74 -80q0 -56 -50.5 -83t-158.5 -27zM221 211q45 0 45 14q0 15 -45 15q-44 0 -44 -15q0 -14 44 -14zM221 122q48 0 48 14q0 15 -48 15
q-47 0 -47 -15q0 -14 47 -14z" />
    <glyph glyph-name="uni2089" unicode="&#x2089;" horiz-adv-x="452" 
d="M207 207q34 0 56 16q-10 20 -42 20q-39 0 -39 -21q0 -15 25 -15zM221 -10q-91 0 -141 30t-64 105h176q4 -15 32 -15q47 0 47 56q-40 -28 -114 -28q-137 0 -137 95q0 62 52 97.5t156 35.5q202 0 202 -188t-209 -188z" />
    <glyph glyph-name="uni208A" unicode="&#x208a;" horiz-adv-x="391" 
d="M355 112h-90v-85h-140v85h-90v141h90v85h140v-85h90v-141z" />
    <glyph glyph-name="uni208B" unicode="&#x208b;" horiz-adv-x="391" 
d="M355 106h-320v153h320v-153z" />
    <glyph glyph-name="uni208C" unicode="&#x208c;" horiz-adv-x="393" 
d="M335 207h-277v121h277v-121zM335 43h-277v121h277v-121z" />
    <glyph glyph-name="uni208D" unicode="&#x208d;" horiz-adv-x="332" 
d="M294 -153q-64 4 -109.5 20.5t-82 51.5t-55 98t-18.5 154v1q0 170 63.5 238t201.5 79v-171q-53 -9 -73.5 -38t-20.5 -106q0 -78 20.5 -105t73.5 -32v-190z" />
    <glyph glyph-name="uni208E" unicode="&#x208e;" horiz-adv-x="332" 
d="M38 -153v190q53 5 73.5 32t20.5 105q0 77 -20.5 106t-73.5 38v171q138 -11 201.5 -79t63.5 -238v-1q0 -91 -18.5 -154t-55 -98t-82 -51.5t-109.5 -20.5z" />
    <glyph glyph-name="uni20A1" unicode="&#x20a1;" horiz-adv-x="929" 
d="M346 -106l30 91q-21 1 -57 7l-34 -98h-169l53 152q-150 90 -150 310q0 170 112 272t302 110l24 70h169l-28 -81q36 -8 54 -13l33 94h170l-61 -167q110 -93 116 -254h-342q-3 34 -31 56.5t-75 22.5q-55 0 -86.5 -29.5t-31.5 -78.5q0 -51 30 -78.5t86 -27.5q48 0 76.5 21.5
t31.5 55.5h342q-6 -156 -102.5 -241.5t-262.5 -102.5l-31 -91h-168z" />
    <glyph glyph-name="uni20A2" unicode="&#x20a2;" horiz-adv-x="808" 
d="M818 247q-49 -265 -387 -265q-215 0 -315 87.5t-100 275.5q0 189 103.5 286t303.5 97q329 0 386 -259h-271q-12 40 -119 40q-154 0 -154 -162q0 -53 12 -83.5t41 -46.5v234h154l22 -88q10 50 44.5 69.5t107.5 19.5h36v-179h-92q-49 0 -62.5 -11.5t-14.5 -54.5
q44 11 52 40h253z" />
    <glyph glyph-name="franc" unicode="&#x20a3;" horiz-adv-x="747" 
d="M673 84h-332v-84h-299v720h671v-243h-372v-51h332v-144h-332v-54h332v-144z" />
    <glyph glyph-name="lira" unicode="&#x20a4;" horiz-adv-x="873" 
d="M632 -19q-110 0 -273 65q-78 -65 -183 -65q-165 0 -165 124q0 60 40 93.5t111 33.5q47 0 136 -24q-1 35 -22 63h-232v58h175q-9 8 -29 24h-146v58h87q-38 50 -38 108q0 42 17.5 79t54.5 69t105 51t159 19q358 0 397 -298h-318q-8 49 -65 49q-52 0 -52 -46q0 -12 7 -31
h250v-58h-225q6 -16 8 -24h217v-58h-203q2 -24 2 -37q0 -32 -10 -69q56 -17 81 -17q38 0 47.5 19t9.5 77h285q0 -152 -48 -207.5t-180 -55.5zM177 86q32 0 58 14q-57 24 -72 24q-21 0 -21 -18q0 -20 35 -20z" />
    <glyph glyph-name="uni20A6" unicode="&#x20a6;" horiz-adv-x="1085" 
d="M673 0l-258 335v-335h-302v157h-108v170h108v52h-108v170h108v171h299l250 -320v320h301v-171h116v-170h-116v-52h116v-170h-116v-157h-290z" />
    <glyph glyph-name="peseta" unicode="&#x20a7;" horiz-adv-x="2214" 
d="M441 467h-100v-111h101q46 0 64 12.5t18 42.5t-18.5 43t-64.5 13zM447 123h-106v-123h-299v720h403q282 0 357 -161q59 10 90 30q36 24 58 65q18 34 26 95h222v-164h195v-249h-195v-81q0 -38 16.5 -51.5t70.5 -13.5h539q63 0 63 14q0 8 -17.5 10t-87.5 3q-10 0 -15.5 0.5
t-15 0.5h-17.5q-76 1 -131 9.5t-89.5 22.5t-54 36t-27 47.5t-7.5 60.5q0 99 88 151.5t254 52.5q173 0 273 -49t138 -155h-303q-19 35 -106 35q-57 0 -57 -20q0 -29 142 -29q126 0 197.5 -19.5t99 -55.5t27.5 -98q0 -104 -89.5 -155.5t-294.5 -51.5h-568q-68 0 -111.5 3
t-82 12t-60 24t-37.5 41.5t-21.5 62t-5.5 87.5v106h-84q-23 -108 -115.5 -160.5t-261.5 -52.5z" />
    <glyph glyph-name="uni20A8" unicode="&#x20a8;" horiz-adv-x="1620" 
d="M1234 -22q-95 0 -183.5 14.5t-131 27.5t-134.5 44q-168 58 -260 80t-179 23v-167h-304v720h408q382 0 382 -241q0 -70 -40.5 -115.5t-128.5 -67.5q22 -3 44.5 -7.5l37.5 -7.5t40.5 -11t36.5 -11.5t44.5 -15t46.5 -15.5q99 -33 176 -43.5t175 -10.5q56 0 56 20
q0 11 -34 16t-85.5 6t-111.5 10t-111.5 25t-85.5 54t-34 94q0 104 90.5 160t262.5 56q171 0 266.5 -48.5t133.5 -155.5h-303q-19 35 -106 35q-57 0 -57 -20q0 -14 34.5 -20t86.5 -6.5t112 -9.5t112 -26t86.5 -59.5t34.5 -106.5q0 -108 -87 -164t-290 -56zM459 484h-113v-91
h113q28 0 44 12.5t16 33.5q0 45 -60 45z" />
    <glyph glyph-name="uni20A9" unicode="&#x20a9;" horiz-adv-x="1448" 
d="M836 0l-115 339l-139 -339h-296l-48 157h-223v170h170l-16 52h-154v170h102l-53 171h328l86 -323l127 323h256l111 -323l110 323h324l-64 -171h92v-170h-156l-20 -52h176v-170h-240l-59 -157h-299z" />
    <glyph glyph-name="uni20AA" unicode="&#x20aa;" horiz-adv-x="1162" 
d="M434 519h-152v-519h-242v720h432q195 0 286.5 -71t91.5 -237q0 -94 -37.5 -127.5t-131.5 -33.5h-59q0 86 -6.5 134t-27.5 80.5t-56.5 43t-97.5 10.5zM741 0h-408v476h72q40 0 63.5 -2t45 -11t31.5 -22.5t17.5 -40.5t9.5 -61t2 -89v-41h116q119 0 162 46t43 179v286h241
v-312q0 -210 -97.5 -309t-297.5 -99z" />
    <glyph glyph-name="Euro" unicode="&#x20ac;" horiz-adv-x="969" 
d="M945 258q-55 -277 -449 -277q-390 0 -432 299h-72v70h67v21h-67v70h75q28 140 143.5 219t291.5 79q380 0 443 -278h-376q-17 25 -77 25q-63 0 -90 -45h415l-37 -70h-396v-21h384l-35 -70h-334q26 -48 101 -48q54 0 71 26h374z" />
    <glyph glyph-name="uni20AE" unicode="&#x20ae;" horiz-adv-x="790" 
d="M652 110l-99 -12v-98h-320v57l-97 -12v124l97 12v54l-97 -12v124l97 12v84h-208v277h740v-277h-212v-43l99 12v-124l-99 -12v-54l99 12v-124z" />
    <glyph glyph-name="uni20B1" unicode="&#x20b1;" horiz-adv-x="901" 
d="M352 0h-299v314h-56v63h56v26h-56v63h56v254h403q171 0 265 -66t115 -188h68v-63h-62v-26h62v-63h-69q-48 -237 -377 -237h-106v-77zM464 497h-112v-31h188q-26 31 -76 31zM565 391q0 8 -1 12h-212v-26h212q1 5 1 14zM465 286q48 0 73 28h-186v-28h113z" />
    <glyph glyph-name="uni2105" unicode="&#x2105;" horiz-adv-x="1038" 
d="M-33 0l745 720h347l-729 -720h-363zM443 550q-2 -67 -63 -108.5t-161 -41.5q-221 0 -221 164q0 75 58.5 121t163.5 46q99 0 159 -41.5t64 -109.5h-180q-4 25 -44 25q-46 0 -46 -41q0 -38 46 -38q38 0 43 24h181zM817 -5q-221 0 -221 164q0 75 58.5 121t164.5 46
q105 0 163 -46t58 -121q0 -76 -58 -120t-165 -44zM817 121q46 0 46 38q0 41 -46 41q-45 0 -45 -41q0 -38 45 -38z" />
    <glyph glyph-name="uni2116" unicode="&#x2116;" horiz-adv-x="1541" 
d="M1228 295q-282 0 -282 222q0 101 74.5 163t208.5 62t208 -61.5t74 -163.5q0 -103 -73.5 -162.5t-209.5 -59.5zM1228 466q58 0 58 51q0 55 -58 55t-58 -55q0 -51 58 -51zM602 0l-258 335v-335h-302v720h299l250 -320v320h301v-720h-290zM1483 247v-247h-513v247h513z" />
    <glyph glyph-name="uni2117" unicode="&#x2117;" horiz-adv-x="912" 
d="M456 -19q-211 0 -324 94t-113 283q0 177 120.5 279t322.5 102q196 0 313.5 -102t117.5 -279q0 -188 -114.5 -282.5t-322.5 -94.5zM456 129q127 0 196.5 57.5t69.5 172.5q0 108 -71.5 170t-190.5 62q-111 0 -182 -51h199q208 0 208 -155q0 -75 -50.5 -111t-156.5 -36h-57
v-62h-149q66 -47 184 -47zM190 359q0 -114 70 -173v340q-70 -62 -70 -167zM475 412h-54v-56h55q24 0 34 6.5t10 21.5q0 28 -45 28z" />
    <glyph glyph-name="uni2120" unicode="&#x2120;" horiz-adv-x="816" 
d="M594 466l-65 80v-130h-133v304h131l75 -102l74 102h129v-304h-132v128l-65 -78h-14zM193 400q-99 0 -145.5 28t-55.5 84h154q7 -19 52 -19q30 0 30 11q0 7 -16.5 10t-71.5 7q-72 5 -106 28t-34 69q0 55 46.5 85.5t127.5 30.5t126.5 -26.5t62.5 -86.5h-145q-6 19 -48 19
q-31 0 -31 -12q0 -6 14.5 -8.5t70.5 -7.5q72 -5 107 -27.5t35 -71.5q0 -113 -173 -113z" />
    <glyph glyph-name="trademark" unicode="&#x2122;" horiz-adv-x="808" 
d="M320 577h-73v-161h-150v161h-73v143h296v-143zM556 466l-65 80v-130h-133v304h131l75 -102l74 102h129v-304h-132v128l-65 -78h-14z" />
    <glyph glyph-name="uni2126" unicode="&#x2126;" horiz-adv-x="1011" 
d="M480 248l-94 -248h-366v263h142q-91 67 -91 186q0 56 25 106.5t74.5 92.5t134.5 66.5t195 24.5q218 0 326.5 -81t107.5 -209q0 -117 -94 -186h140v-263h-349l-110 248q57 44 76.5 69.5t19.5 58.5q0 40 -30.5 65t-86.5 25q-53 0 -83.5 -25t-30.5 -64q0 -34 19.5 -62
t74.5 -67z" />
    <glyph glyph-name="uni2153" unicode="&#x2153;" horiz-adv-x="1130" 
d="M688 397l-51 47l256 338l191 -173zM527 352l50 -47l-259 -363l-193 180zM458 354h-325v144h87v39h-66v112q72 3 94 65h133v-216h77v-144zM812 -10q-63 0 -104 9t-63 28.5t-30.5 44t-9.5 61.5h167q2 -9 8.5 -11.5t29.5 -2.5q38 0 38 13q0 10 -36 10h-32v75h31q30 0 30 11
t-33 11q-35 0 -37 -14h-159q3 76 55 108t157 32q95 0 141 -28.5t46 -76.5q0 -57 -76 -74q83 -14 83 -78q0 -56 -51.5 -87t-154.5 -31z" />
    <glyph glyph-name="uni2154" unicode="&#x2154;" horiz-adv-x="1130" 
d="M688 397l-51 47l256 338l191 -173zM527 352l50 -47l-259 -363l-193 180zM482 354h-391v98q0 52 38 80.5t83 33.5t83 8.5t38 11.5q0 11 -33 11q-38 0 -40 -20h-167q9 145 205 145q190 0 190 -117q0 -33 -19 -55t-49.5 -32t-62 -15t-64 -10t-46.5 -12h235v-127zM812 -10
q-63 0 -104 9t-63 28.5t-30.5 44t-9.5 61.5h167q2 -9 8.5 -11.5t29.5 -2.5q38 0 38 13q0 10 -36 10h-32v75h31q30 0 30 11t-33 11q-35 0 -37 -14h-159q3 76 55 108t157 32q95 0 141 -28.5t46 -76.5q0 -57 -76 -74q83 -14 83 -78q0 -56 -51.5 -87t-154.5 -31z" />
    <glyph glyph-name="uni2155" unicode="&#x2155;" horiz-adv-x="1130" 
d="M688 397l-51 47l256 338l191 -173zM527 352l50 -47l-259 -363l-193 180zM458 354h-325v144h87v39h-66v112q72 3 94 65h133v-216h77v-144zM826 -7q-108 0 -155 29t-47 90h183q0 -18 22 -18q20 0 20 18q0 20 -23 20q-17 0 -25 -13l-174 32l42 209h341v-1q0 -76 -24 -100
t-102 -24h-76l-8 -32q40 18 94 18q69 0 100.5 -24.5t31.5 -78.5q0 -62 -47 -93.5t-153 -31.5z" />
    <glyph glyph-name="uni2156" unicode="&#x2156;" horiz-adv-x="1130" 
d="M688 397l-51 47l256 338l191 -173zM527 352l50 -47l-259 -363l-193 180zM482 354h-391v98q0 52 38 80.5t83 33.5t83 8.5t38 11.5q0 11 -33 11q-38 0 -40 -20h-167q9 145 205 145q190 0 190 -117q0 -33 -19 -55t-49.5 -32t-62 -15t-64 -10t-46.5 -12h235v-127zM826 -7
q-108 0 -155 29t-47 90h183q0 -18 22 -18q20 0 20 18q0 20 -23 20q-17 0 -25 -13l-174 32l42 209h341v-1q0 -76 -24 -100t-102 -24h-76l-8 -32q40 18 94 18q69 0 100.5 -24.5t31.5 -78.5q0 -62 -47 -93.5t-153 -31.5z" />
    <glyph glyph-name="uni2157" unicode="&#x2157;" horiz-adv-x="1130" 
d="M688 397l-51 47l256 338l191 -173zM527 352l50 -47l-259 -363l-193 180zM273 344q-63 0 -104 9t-63 28.5t-30.5 44t-9.5 61.5h167q2 -9 8.5 -11.5t29.5 -2.5q38 0 38 13q0 10 -36 10h-32v75h31q30 0 30 11t-33 11q-35 0 -37 -14h-159q3 76 55 108t157 32q95 0 141 -28.5
t46 -76.5q0 -57 -76 -74q83 -14 83 -78q0 -56 -51.5 -87t-154.5 -31zM826 -7q-108 0 -155 29t-47 90h183q0 -18 22 -18q20 0 20 18q0 20 -23 20q-17 0 -25 -13l-174 32l42 209h341v-1q0 -76 -24 -100t-102 -24h-76l-8 -32q40 18 94 18q69 0 100.5 -24.5t31.5 -78.5
q0 -62 -47 -93.5t-153 -31.5z" />
    <glyph glyph-name="uni2158" unicode="&#x2158;" horiz-adv-x="1130" 
d="M688 397l-51 47l256 338l191 -173zM527 352l50 -47l-259 -363l-193 180zM503 405h-57v-51h-147v51h-209v104l221 205h135v-189h57v-120zM299 525v50l-51 -50h51zM826 -7q-108 0 -155 29t-47 90h183q0 -18 22 -18q20 0 20 18q0 20 -23 20q-17 0 -25 -13l-174 32l42 209
h341v-1q0 -76 -24 -100t-102 -24h-76l-8 -32q40 18 94 18q69 0 100.5 -24.5t31.5 -78.5q0 -62 -47 -93.5t-153 -31.5z" />
    <glyph glyph-name="uni2159" unicode="&#x2159;" horiz-adv-x="1130" 
d="M688 397l-51 47l256 338l191 -173zM527 352l50 -47l-259 -363l-193 180zM458 354h-325v144h87v39h-66v112q72 3 94 65h133v-216h77v-144zM1018 122q0 -64 -53 -97.5t-144 -33.5q-115 0 -163.5 45.5t-48.5 138.5q0 94 53.5 143.5t154.5 49.5q89 0 137.5 -31.5t63.5 -103.5
h-170q-6 13 -32 13q-48 0 -48 -54q45 28 116 28q70 0 102 -22.5t32 -75.5zM820 120q37 0 37 18q0 15 -23 15q-28 0 -53 -18q13 -15 39 -15z" />
    <glyph glyph-name="uni215A" unicode="&#x215a;" horiz-adv-x="1130" 
d="M688 397l-51 47l256 338l191 -173zM527 352l50 -47l-259 -363l-193 180zM280 347q-108 0 -155 29t-47 90h183q0 -18 22 -18q20 0 20 18q0 20 -23 20q-17 0 -25 -13l-174 32l42 209h341v-1q0 -76 -24 -100t-102 -24h-76l-8 -32q41 18 94 18q69 0 100.5 -24.5t31.5 -78.5
q0 -62 -47 -93.5t-153 -31.5zM1018 122q0 -64 -53 -97.5t-144 -33.5q-115 0 -163.5 45.5t-48.5 138.5q0 94 53.5 143.5t154.5 49.5q89 0 137.5 -31.5t63.5 -103.5h-170q-6 13 -32 13q-48 0 -48 -54q45 28 116 28q70 0 102 -22.5t32 -75.5zM820 120q37 0 37 18q0 15 -23 15
q-28 0 -53 -18q13 -15 39 -15z" />
    <glyph glyph-name="uni215B" unicode="&#x215b;" horiz-adv-x="1130" 
d="M688 397l-51 47l256 338l191 -173zM527 352l50 -47l-259 -363l-193 180zM458 354h-325v144h87v39h-66v112q72 3 94 65h133v-216h77v-144zM821 -7q-109 0 -158.5 25t-49.5 80q0 62 75 84q-60 18 -60 75q0 56 46 83.5t149 27.5q196 0 196 -111q0 -57 -63 -74q74 -23 74 -80
q0 -56 -50.5 -83t-158.5 -27zM823 211q45 0 45 14q0 15 -45 15q-44 0 -44 -15q0 -14 44 -14zM823 122q48 0 48 14q0 15 -48 15q-47 0 -47 -15q0 -14 47 -14z" />
    <glyph glyph-name="uni215C" unicode="&#x215c;" horiz-adv-x="1130" 
d="M688 397l-51 47l256 338l191 -173zM527 352l50 -47l-259 -363l-193 180zM821 -7q-109 0 -158.5 25t-49.5 80q0 62 75 84q-60 18 -60 75q0 56 46 83.5t149 27.5q196 0 196 -111q0 -57 -63 -74q74 -23 74 -80q0 -56 -50.5 -83t-158.5 -27zM823 211q45 0 45 14q0 15 -45 15
q-44 0 -44 -15q0 -14 44 -14zM823 122q48 0 48 14q0 15 -48 15q-47 0 -47 -15q0 -14 47 -14zM273 344q-63 0 -104 9t-63 28.5t-30.5 44t-9.5 61.5h167q2 -9 8.5 -11.5t29.5 -2.5q38 0 38 13q0 10 -36 10h-32v75h31q30 0 30 11t-33 11q-35 0 -37 -14h-159q3 76 55 108t157 32
q95 0 141 -28.5t46 -76.5q0 -57 -76 -74q83 -14 83 -78q0 -56 -51.5 -87t-154.5 -31z" />
    <glyph glyph-name="uni215D" unicode="&#x215d;" horiz-adv-x="1130" 
d="M688 397l-51 47l256 338l191 -173zM527 352l50 -47l-259 -363l-193 180zM821 -7q-109 0 -158.5 25t-49.5 80q0 62 75 84q-60 18 -60 75q0 56 46 83.5t149 27.5q196 0 196 -111q0 -57 -63 -74q74 -23 74 -80q0 -56 -50.5 -83t-158.5 -27zM823 211q45 0 45 14q0 15 -45 15
q-44 0 -44 -15q0 -14 44 -14zM823 122q48 0 48 14q0 15 -48 15q-47 0 -47 -15q0 -14 47 -14zM280 347q-108 0 -155 29t-47 90h183q0 -18 22 -18q20 0 20 18q0 20 -23 20q-17 0 -25 -13l-174 32l42 209h341v-1q0 -76 -24 -100t-102 -24h-76l-8 -32q41 18 94 18
q69 0 100.5 -24.5t31.5 -78.5q0 -62 -47 -93.5t-153 -31.5z" />
    <glyph glyph-name="uni215E" unicode="&#x215e;" horiz-adv-x="1130" 
d="M688 397l-51 47l256 338l191 -173zM527 352l50 -47l-259 -363l-193 180zM821 -7q-109 0 -158.5 25t-49.5 80q0 62 75 84q-60 18 -60 75q0 56 46 83.5t149 27.5q196 0 196 -111q0 -57 -63 -74q74 -23 74 -80q0 -56 -50.5 -83t-158.5 -27zM823 211q45 0 45 14q0 15 -45 15
q-44 0 -44 -15q0 -14 44 -14zM823 122q48 0 48 14q0 15 -48 15q-47 0 -47 -15q0 -14 47 -14zM368 354h-187q59 122 163 223h-179v137h367v-117q-67 -62 -103 -116.5t-61 -126.5z" />
    <glyph glyph-name="uni215F" unicode="&#x215f;" horiz-adv-x="1130" 
d="M688 397l-51 47l256 338l191 -173zM527 352l50 -47l-259 -363l-193 180zM458 354h-325v144h87v39h-66v112q72 3 94 65h133v-216h77v-144z" />
    <glyph glyph-name="uni2190" unicode="&#x2190;" horiz-adv-x="1035" 
d="M924 240h-450q52 -46 97 -106t62 -111h-324q-14 62 -79 140t-160 146v110q93 66 156.5 146t78.5 144h312q-18 -51 -56 -109.5t-82 -102.5h445v-257z" />
    <glyph glyph-name="arrowup" unicode="&#x2191;" horiz-adv-x="1035" 
d="M865 248q-126 45 -215 147v-447h-257v447q-90 -105 -212 -147v312q64 14 145 77t146 156h103q66 -93 146.5 -156t143.5 -77v-312z" />
    <glyph glyph-name="uni2192" unicode="&#x2192;" horiz-adv-x="1035" 
d="M726 23h-324q17 51 62 111t97 106h-450v257h445q-44 44 -82 102.5t-56 109.5h312q15 -64 78.5 -144t156.5 -146v-110q-95 -68 -160 -146t-79 -140z" />
    <glyph glyph-name="arrowdown" unicode="&#x2193;" horiz-adv-x="1035" 
d="M572 -72h-103q-65 93 -145.5 156t-144.5 77v312q126 -45 215 -147v447h258v-446q91 105 211 146v-312q-63 -14 -144 -77t-147 -156z" />
    <glyph glyph-name="uni2196" unicode="&#x2196;" horiz-adv-x="1035" 
d="M909 162l-182 -182l-316 315q10 -135 -46 -253l-221 221q35 54 47.5 153.5t-5.5 217.5l72 72q117 -18 216 -6t154 47l222 -222q-126 -57 -258 -46z" />
    <glyph glyph-name="uni2197" unicode="&#x2197;" horiz-adv-x="1035" 
d="M689 40q-57 125 -46 257l-317 -317l-182 183l315 315q-139 -8 -253 47l221 220q55 -35 154 -47t217 6l72 -72q-18 -118 -6 -217t47 -153z" />
    <glyph glyph-name="uni2198" unicode="&#x2198;" horiz-adv-x="1035" 
d="M794 21q-117 18 -216 6t-154 -47l-222 222q126 57 258 46l-317 317l182 182l316 -315q-10 135 46 253l221 -221q-35 -54 -47.5 -153.5t5.5 -217.5z" />
    <glyph glyph-name="uni2199" unicode="&#x2199;" horiz-adv-x="1035" 
d="M627 -20q-54 35 -154 47.5t-218 -5.5l-72 72q18 117 6.5 216t-47.5 154l222 222q57 -122 47 -257l317 316l182 -182l-315 -316q134 10 252 -46z" />
    <glyph glyph-name="partialdiff" unicode="&#x2202;" horiz-adv-x="837" 
d="M418 -19q-399 0 -399 295q0 127 83.5 194t211.5 67q129 0 193 -98q-42 87 -146 171t-327 231h403q169 -104 275 -242t106 -295q0 -155 -103.5 -239t-296.5 -84zM418 207q86 0 86 70q0 77 -86 77q-85 0 -85 -77q0 -70 85 -70z" />
    <glyph glyph-name="uni2206" unicode="&#x2206;" horiz-adv-x="1076" 
d="M1107 0h-1137l570 747zM639 224l-101 132l-101 -132h202z" />
    <glyph glyph-name="product" unicode="&#x220f;" horiz-adv-x="973" 
d="M545 0v446h-114v-446h-286v446h-122v274h926v-274h-118v-446h-286z" />
    <glyph glyph-name="summation" unicode="&#x2211;" horiz-adv-x="747" 
d="M716 265v-265h-692v261l272 107l-259 105v247h668v-251h-216l218 -99l-215 -105h224z" />
    <glyph glyph-name="minus" unicode="&#x2212;" horiz-adv-x="763" 
d="M706 238h-650v276h650v-276z" />
    <glyph glyph-name="radical" unicode="&#x221a;" horiz-adv-x="1000" 
d="M587 0h-305l-114 219h-141v286h301l113 -221l257 436h335z" />
    <glyph glyph-name="infinity" unicode="&#x221e;" horiz-adv-x="1078" 
d="M783 295q29 0 46 17.5t17 44.5t-17 44.5t-46 17.5q-25 0 -47 -14.5t-57 -47.5q34 -33 56 -47.5t48 -14.5zM293 296q44 0 107 61q-64 61 -107 61q-27 0 -44 -17.5t-17 -43.5t17 -43.5t44 -17.5zM283 93q-132 0 -197 70.5t-65 193.5q0 111 74 185t194 74q79 0 128 -27
t121 -94q72 67 121.5 94t127.5 27q115 0 190.5 -74.5t75.5 -184.5q0 -122 -67 -192.5t-195 -70.5q-78 0 -130.5 28.5t-124.5 93.5q-50 -45 -78.5 -66.5t-74.5 -39t-100 -17.5z" />
    <glyph glyph-name="integral" unicode="&#x222b;" horiz-adv-x="560" 
d="M12 -256v238h56q37 0 49.5 14t12.5 58l2 447q0 138 73 200.5t234 62.5h111v-238h-65q-37 0 -49.5 -14t-12.5 -58l-2 -447q0 -138 -73 -200.5t-234 -62.5h-102z" />
    <glyph glyph-name="approxequal" unicode="&#x2248;" horiz-adv-x="724" 
d="M217 685q49 0 151 -35.5t136 -35.5q82 0 127 62v-263q-15 -25 -50.5 -39.5t-76.5 -14.5q-59 0 -156 35.5t-130 35.5q-80 0 -126 -62v265q15 24 50 38t75 14zM92 297q15 24 50.5 38.5t75.5 14.5q49 0 151.5 -35.5t134.5 -35.5q84 0 127 62v-263q-15 -25 -51.5 -40
t-75.5 -15q-58 0 -155 35.5t-131 35.5q-83 0 -126 -62v265z" />
    <glyph glyph-name="notequal" unicode="&#x2260;" horiz-adv-x="763" 
d="M661 77h-309l-37 -103h-172l37 103h-79v256h172l28 79h-200v256h293l31 87h171l-31 -87h96v-256h-188l-29 -79h217v-256z" />
    <glyph glyph-name="equivalence" unicode="&#x2261;" horiz-adv-x="763" 
d="M661 519h-560v197h560v-197zM661 261h-560v196h560v-196zM661 3h-560v197h560v-197z" />
    <glyph glyph-name="lessequal" unicode="&#x2264;" horiz-adv-x="724" 
d="M628 226l-539 197v195l539 203v-224l-255 -74l255 -73v-224zM628 -26h-542v218h542v-218z" />
    <glyph glyph-name="greaterequal" unicode="&#x2265;" horiz-adv-x="724" 
d="M95 226v224l255 73l-255 74v224l539 -203v-195zM637 -26h-542v218h542v-218z" />
    <glyph glyph-name="uni22A0" unicode="&#x22a0;" horiz-adv-x="776" 
d="M28 0v720h720v-720h-720zM265 488v-255h246v255h-246zM450 256l-61 63l-61 -62l-40 40l61 63l-62 63l41 40l61 -62l61 63l41 -40l-63 -64l62 -64z" />
    <glyph glyph-name="house" unicode="&#x2302;" horiz-adv-x="822" 
d="M737 0h-652v406l326 313l326 -313v-406z" />
    <glyph glyph-name="uni25A0" unicode="&#x25a0;" horiz-adv-x="776" 
d="M28 0v720h720v-720h-720z" />
    <glyph glyph-name="uni25A1" unicode="&#x25a1;" horiz-adv-x="776" 
d="M28 0v720h720v-720h-720zM265 488v-255h246v255h-246z" />
    <glyph glyph-name="uni25AA" unicode="&#x25aa;" horiz-adv-x="639" 
d="M27 0v585h585v-585h-585z" />
    <glyph glyph-name="uni25AB" unicode="&#x25ab;" horiz-adv-x="639" 
d="M27 0v585h585v-585h-585zM227 389v-192h185v192h-185z" />
    <glyph glyph-name="triagup" unicode="&#x25b2;" horiz-adv-x="867" 
d="M862 0h-857l429 742z" />
    <glyph glyph-name="triagrt" unicode="&#x25ba;" horiz-adv-x="867" 
d="M85 -57v857l742 -428z" />
    <glyph glyph-name="triagdn" unicode="&#x25bc;" horiz-adv-x="867" 
d="M5 730h857l-428 -742z" />
    <glyph glyph-name="triaglf" unicode="&#x25c4;" horiz-adv-x="867" 
d="M782 800v-857l-742 429z" />
    <glyph glyph-name="lozenge" unicode="&#x25ca;" horiz-adv-x="960" 
d="M483 -129l-480 480l477 477l480 -480zM366 349l115 -114l113 112l-115 116z" />
    <glyph glyph-name="uni25CB" unicode="&#x25cb;" horiz-adv-x="825" 
d="M412 -11q-163 0 -266.5 103.5t-103.5 265.5q0 160 103.5 264.5t266.5 104.5q162 0 266.5 -104t104.5 -265t-104 -265t-267 -104zM412 212q63 0 101.5 41.5t38.5 104.5t-39 105.5t-101 42.5q-63 0 -101.5 -42.5t-38.5 -105.5t38.5 -104.5t101.5 -41.5z" />
    <glyph glyph-name="uni25CE" unicode="&#x25ce;" horiz-adv-x="883" 
d="M441 -10q-161 0 -263.5 103t-102.5 265q0 160 102.5 264t263.5 104q160 0 263.5 -103.5t103.5 -264.5q0 -160 -103 -264t-264 -104zM441 120q102 0 169 68t67 170q0 101 -67.5 170.5t-168.5 69.5q-100 0 -167.5 -69t-67.5 -171t67.5 -170t167.5 -68zM442 187
q-74 0 -122.5 48t-48.5 122q0 73 49.5 121.5t121.5 48.5q73 0 122 -48.5t49 -121.5q0 -72 -49 -121t-122 -49zM442 299q24 0 39 16.5t15 41.5q0 26 -15 42t-39 16t-39 -16t-15 -42q0 -25 15 -41.5t39 -16.5z" />
    <glyph glyph-name="uni25CF" unicode="&#x25cf;" horiz-adv-x="825" 
d="M412 -11q-163 0 -266.5 103.5t-103.5 265.5q0 160 103.5 264.5t266.5 104.5q162 0 266.5 -104t104.5 -265t-104 -265t-267 -104z" />
    <glyph glyph-name="uni25E2" unicode="&#x25e2;" horiz-adv-x="867" 
d="M858 533l-606 -606l-222 828z" />
    <glyph glyph-name="uni25E3" unicode="&#x25e3;" horiz-adv-x="867" 
d="M617 -73l-606 606l828 222z" />
    <glyph glyph-name="uni25E4" unicode="&#x25e4;" horiz-adv-x="867" 
d="M842 -54l-828 222l606 606z" />
    <glyph glyph-name="uni25E5" unicode="&#x25e5;" horiz-adv-x="867" 
d="M857 163l-828 -221l223 828z" />
    <glyph glyph-name="uni2605" unicode="&#x2605;" horiz-adv-x="870" 
d="M547 303l72 -218l-187 135l-186 -135l72 219l-186 135l229 -1l72 218l71 -218l230 -1z" />
    <glyph glyph-name="uni263C" unicode="&#x263c;" horiz-adv-x="898" 
d="M436 568l-17 142h54l-17 -142h-20zM333 535l-87 115l47 28l55 -133zM544 545l55 133l47 -28l-87 -115zM258 455l-133 55l28 47l115 -87zM624 471l113 86l30 -46l-133 -56zM272 356q0 71 51.5 122.5t122.5 51.5t122.5 -51.5t51.5 -122.5t-51.5 -122.5t-122.5 -51.5
t-122.5 51.5t-51.5 122.5zM235 347l-142 -17v54l142 -17v-20zM657 367l142 17v-54l-142 17v20zM634 259l133 -55l-28 -47l-115 87zM268 243l-113 -86l-30 46l133 56zM559 179l87 -115l-47 -28l-55 133zM348 169l-55 -133l-47 28l87 115zM456 146l17 -142h-54l17 142h20z" />
    <glyph glyph-name="uni263E" unicode="&#x263e;" horiz-adv-x="757" 
d="M519 605q-99 0 -169 -73.5t-70 -177.5t70 -177.5t169 -73.5q32 0 71 12q-81 -57 -178 -57q-122 0 -209 87t-87 209t87 209t209 87q97 0 178 -57q-46 12 -71 12z" />
    <glyph glyph-name="spade" unicode="&#x2660;" horiz-adv-x="872" 
d="M468 284q0 -33 7 -68.5t21 -70t24 -56.5t27 -53.5t19 -35.5h-254q93 166 93 284q-20 -57 -62 -95t-104 -38q-68 0 -118 45.5t-50 109.5q0 80 51 146.5t180 169.5l137 109h1l137 -109q125 -100 174 -167t49 -149q0 -64 -45 -109t-109 -45q-67 0 -111.5 37.5t-66.5 94.5z
" />
    <glyph glyph-name="club" unicode="&#x2663;" horiz-adv-x="872" 
d="M632 128q-55 0 -97.5 32t-62.5 85q4 -29 12.5 -59.5t21 -59.5t22 -49t23 -45.5t16.5 -31.5h-254q79 138 91 246q-21 -53 -64.5 -85.5t-99.5 -32.5q-72 0 -123 51.5t-51 123.5t51 122.5t123 50.5q15 0 41 -6q-20 43 -20 85q0 71 51 121t122 50t121.5 -50t50.5 -121
q0 -43 -18 -87q21 8 45 8q72 0 122 -50.5t50 -122.5t-50.5 -123.5t-122.5 -51.5z" />
    <glyph glyph-name="heart" unicode="&#x2665;" horiz-adv-x="872" 
d="M433 -17l-138 154q-122 136 -172.5 227t-50.5 177q0 76 52.5 130.5t127.5 54.5q73 0 123 -44.5t58 -112.5q8 68 57.5 112.5t122.5 44.5q76 0 131 -54.5t55 -130.5q0 -85 -52 -176t-176 -228z" />
    <glyph glyph-name="diamond" unicode="&#x2666;" horiz-adv-x="872" 
d="M115 364l321 370l320 -370l-320 -374z" />
    <glyph glyph-name="uni267B" unicode="&#x267b;" horiz-adv-x="799" 
d="M335 680v1h164q20 -1 30 -2.5t23.5 -10.5t23.5 -27l24 -41l37 21l-53 -142l-145 27l34 20l-61 106q-12 20 -31 32t-33 14zM162 527l57 101q9 16 29 26q39 20 82 8.5t57 -38.5l-98 -170zM675 467l59 -99q8 -14 8 -37q1 -41 -32 -73.5t-63 -32.5l-98 170zM151 125h-2
l-81 142q-9 17 -13 27t-2.5 26t11.5 33l24 42l-36 21l148 26l50 -141l-35 21q-59 -102 -61 -106q-11 -19 -12 -42t4 -36zM724 246l1 -1l-82 -142q-11 -17 -17.5 -24.5t-21 -15t-35.5 -7.5h-49v-42l-95 115l95 115v-42h123q22 0 42.5 11t29.5 22zM371 56h-114q-20 0 -38 11
q-24 14 -38.5 41.5t-14 51.5t8.5 42h196v-146z" />
    <glyph glyph-name="uni267C" unicode="&#x267c;" horiz-adv-x="799" 
d="M738 354q0 -140 -98.5 -238.5t-238.5 -98.5q-141 0 -240.5 98.5t-99.5 238.5q0 141 99.5 240.5t240.5 99.5q140 0 238.5 -99.5t98.5 -240.5zM344 612v-1q41 -4 60 -37l48 -82l-27 -16l113 -21l40 110l-28 -16l-19 32q-12 20 -25 25.5t-35 5.5h-127zM259 570l-45 -77
l99 -57l75 132q-11 20 -44.5 29.5t-63.5 -6.5q-18 -11 -21 -21zM656 370l-44 76l-99 -57l77 -132q23 0 48.5 26t25.5 58q0 15 -8 29zM204 181h1q-17 37 2 71l48 82l27 -17l-39 109l-114 -19l28 -17l-19 -32q-8 -14 -9 -27t1.5 -19t10.5 -22zM650 273l-1 1q-23 -33 -63 -33
h-94v31l-75 -88l75 -89v33h37q24 0 35 8.5t22 27.5zM284 128h89v113h-153q-13 -18 -3 -53.5t38 -51.5q13 -8 29 -8z" />
    <glyph glyph-name="uni267D" unicode="&#x267d;" horiz-adv-x="799" 
d="M738 354q0 -140 -98.5 -238.5t-238.5 -98.5q-141 0 -240.5 98.5t-99.5 238.5q0 141 99.5 240.5t240.5 99.5q140 0 238.5 -99.5t98.5 -240.5zM721 354q0 134 -93.5 228.5t-226.5 94.5q-134 0 -228.5 -94.5t-94.5 -228.5q0 -133 94.5 -227t228.5 -94q133 0 226.5 94
t93.5 227zM344 611v1h127q22 0 35 -5.5t25 -25.5l19 -32l28 16l-40 -110l-113 21l27 16l-48 82q-8 15 -23 24t-26 11zM214 493l45 77q3 10 21 21q30 16 63.5 6.5t44.5 -29.5l-75 -132zM612 446l44 -76q8 -14 8 -29q0 -32 -25.5 -58t-48.5 -26l-77 132zM205 181h-1l-63 109
q-15 31 -12 47q2 10 9 21l19 32l-28 17l114 19l39 -109l-27 17l-48 -82q-8 -15 -8.5 -33t3.5 -28zM649 274l1 -1l-64 -109q-8 -13 -13 -19t-16.5 -11.5t-27.5 -5.5h-37v-33l-75 89l75 88v-31h94q18 0 33.5 8.5t22.5 16.5zM373 128h-89q-16 0 -29 8q-28 16 -38 51.5t3 53.5
h153v-113z" />
    <glyph glyph-name="uni2E18" unicode="&#x2e18;" horiz-adv-x="781" 
d="M378 596q114 0 151 -23t37 -93q0 -68 -40.5 -92.5t-147.5 -24.5q-108 0 -149 24.5t-41 92.5q0 69 39.5 92.5t150.5 23.5zM390 -155q-196 0 -287.5 51t-91.5 155q0 55 25 91.5t62.5 53t75.5 28.5t69 30.5t39 46.5l8 31q31 -4 86 -4q53 0 90 5q7 -25 12 -76q4 -33 5 -196
q37 25 37 85h264q-6 -152 -95.5 -226.5t-298.5 -74.5zM269 99q0 -31 30 -45q1 36 5 88q-4 -3 -10.5 -7.5t-9 -6.5t-6.5 -5.5t-5.5 -6.5t-2.5 -7.5t-1 -9.5z" />
    <glyph glyph-name="uni3008" unicode="&#x3008;" horiz-adv-x="510" 
d="M543 -160h-320l-221 469l234 444h308l-228 -442z" />
    <glyph glyph-name="uni3009" unicode="&#x3009;" horiz-adv-x="510" 
d="M287 -160h-319l227 471l-227 442h307l233 -444z" />
    <glyph glyph-name="Aumlaut" horiz-adv-x="871" 
d="M86 540q-54 0 -72.5 17.5t-18.5 70.5q0 52 20 71t71 19q53 0 75 -19t22 -71q0 -44 -22.5 -66t-74.5 -22zM784 540q-90 0 -90 88q0 53 18.5 71.5t71.5 18.5q54 0 75 -19t21 -71t-20 -70t-76 -18zM431 432l-45 -138h103l-44 137l-7 34zM583 0l-29 90h-235l-29 -90h-324
l288 720h372l280 -720h-323z" />
    <glyph glyph-name="Oumlaut" horiz-adv-x="912" 
d="M64 623q-27 0 -39 8.5t-12 33.5q0 24 13 33t38 9q26 0 38.5 -9t12.5 -33t-12.5 -33t-38.5 -9zM851 623q-26 0 -37.5 8.5t-11.5 33.5q0 24 11.5 33t37.5 9q51 0 51 -42q0 -24 -12.5 -33t-38.5 -9zM456 -19q-211 0 -324 94t-113 283q0 177 120.5 279t322.5 102
q196 0 313.5 -102t117.5 -279q0 -188 -114.5 -282.5t-322.5 -94.5zM456 252q52 0 82 28t30 78q0 49 -30.5 78.5t-81.5 29.5t-81.5 -29.5t-30.5 -78.5q0 -50 30 -78t82 -28z" />
    <glyph glyph-name="Uumlaut" horiz-adv-x="878" 
d="M403 443q-17 0 -23 28t-6 111q0 85 6 114t23 29q16 0 22.5 -30.5t6.5 -112.5q0 -81 -6 -110t-23 -29zM474 443q-18 0 -23.5 27.5t-5.5 111.5t6 113.5t23 29.5t24 -30t7 -113q0 -79 -7 -109t-24 -30zM438 -19q-220 0 -311.5 92t-91.5 296v351h325v-351q0 -57 19.5 -81
t60.5 -24q39 0 58.5 24.5t19.5 80.5v351h325v-351q0 -201 -102 -294.5t-303 -93.5z" />
    <glyph glyph-name="I.alt" horiz-adv-x="409" 
d="M364 0h-319v720h319v-720z" />
    <glyph glyph-name="Iacute.alt" horiz-adv-x="409" 
d="M364 0h-319v720h319v-720zM98 758l139 218h265l-204 -218h-200z" />
    <glyph glyph-name="Ibreve.alt" horiz-adv-x="409" 
d="M364 0h-319v720h319v-720zM205 756q-236 0 -236 222h174q0 -33 14 -45.5t48 -12.5q33 0 47.5 12.5t14.5 45.5h176q0 -110 -62 -166t-176 -56z" />
    <glyph glyph-name="Icircumflex.alt" horiz-adv-x="409" 
d="M364 0h-319v720h319v-720zM255 758l-48 100l-51 -100h-189l153 246h176l153 -246h-194z" />
    <glyph glyph-name="Idieresis.alt" horiz-adv-x="409" 
d="M364 0h-319v720h319v-720zM74 756q-68 0 -90 21.5t-22 84.5t24.5 86t87.5 23q64 0 89 -23t25 -86q0 -61 -24.5 -83.5t-89.5 -22.5zM335 756q-67 0 -89.5 21.5t-22.5 84.5q0 64 24 86.5t88 22.5t89 -23t25 -86q0 -61 -24.5 -83.5t-89.5 -22.5z" />
    <glyph glyph-name="Idotaccent.alt" horiz-adv-x="409" 
d="M364 0h-319v720h319v-720zM206 754q-84 0 -110 23t-26 101q0 76 28.5 100.5t107.5 24.5t107.5 -24.5t28.5 -100.5q0 -75 -28.5 -99.5t-107.5 -24.5z" />
    <glyph glyph-name="Igrave.alt" horiz-adv-x="409" 
d="M364 0h-319v720h319v-720zM118 758l-192 218h266l111 -218h-185z" />
    <glyph glyph-name="Imacron.alt" horiz-adv-x="409" 
d="M364 0h-319v720h319v-720zM20 769v170h373v-170h-373z" />
    <glyph glyph-name="Iogonek.alt" horiz-adv-x="409" 
d="M485 -110q-17 -99 -87.5 -151.5t-187.5 -52.5q-110 0 -167 44.5t-57 122.5q0 82 91 147h-32v720h319v-720h-1q-77 -45 -116.5 -72.5t-47.5 -38.5t-8 -23q0 -26 31 -26q40 0 44 50h219z" />
    <glyph glyph-name="Itilde.alt" horiz-adv-x="409" 
d="M364 0h-319v720h319v-720zM-67 762q0 122 37.5 176t123.5 54q52 0 118 -23.5t79 -23.5q19 0 26 8.5t7 32.5h160q0 -124 -36 -176.5t-123 -52.5q-51 0 -116 26t-86 26q-17 0 -23 -10t-6 -37h-161z" />
    <glyph glyph-name="i.dot" horiz-adv-x="394" 
d="M197 575q-93 0 -132 24t-39 83q0 58 42 83.5t129 25.5q86 0 128.5 -25.5t42.5 -83.5q0 -57 -41.5 -82t-129.5 -25zM37 0v581q42 -40 159 -40q116 0 161 40v-581h-320z" />
    <glyph glyph-name="cordinal" horiz-adv-x="576" 
d="M574 511q-3 -89 -79 -140t-208 -51q-282 0 -282 209q0 96 75 154.5t209 58.5q129 0 204.5 -52t80.5 -141h-230q-4 33 -57 33q-58 0 -58 -53q0 -48 58 -48q50 0 56 30h231z" />
    <glyph glyph-name="g.alt" horiz-adv-x="813" 
d="M405 -238h-61q-135 0 -213 14t-105.5 37.5t-27.5 61.5q0 43 50.5 71.5t158.5 30.5q-105 7 -150.5 38t-45.5 87q0 57 42 90t135 45q-92 15 -132.5 52.5t-40.5 108.5q0 200 366 200h42q39 0 48.5 8t9.5 49v18h317v-3q0 -23 -1.5 -36t-11.5 -24.5t-22.5 -16.5t-43 -9
t-64.5 -4.5t-95 -0.5q60 -6 100 -17q70 -20 104.5 -59.5t34.5 -105.5q0 -100 -84 -147t-288 -47h-118q-85 0 -85 -18q0 -10 15 -12t71 -2h209q164 0 233.5 -44t69.5 -138q0 -119 -99.5 -173t-317.5 -54zM411 365q61 0 84.5 5.5t23.5 19.5q0 16 -22.5 22.5t-84.5 6.5h-12
q-52 -1 -73 -7t-21 -22q0 -14 22 -19.5t83 -5.5zM412 -77h26q122 0 122 28v1q0 12 -14.5 17.5t-54.5 5.5h-121q-37 0 -57.5 -3.5t-26.5 -8.5t-6 -13q0 -27 132 -27z" />
    <glyph glyph-name="g.alt2" horiz-adv-x="829" 
d="M411 237q80 0 80 67q0 72 -80 72q-82 0 -82 -72q0 -67 82 -67zM410 -212q-86 0 -150 9t-106 25.5t-70 44t-42 58.5t-21 75h343q0 -29 57 -29q39 0 52 12t13 34v109q-44 -101 -192 -101q-121 0 -199 73t-78 199q0 138 78.5 217t201.5 79q155 0 215 -108l21 100h260v-551
q0 -126 -89 -186t-294 -60z" />
    <glyph glyph-name="uni0123.alt" horiz-adv-x="829" 
d="M411 237q80 0 80 67q0 72 -80 72q-82 0 -82 -72q0 -67 82 -67zM410 -212q-86 0 -150 9t-106 25.5t-70 44t-42 58.5t-21 75h343q0 -29 57 -29q39 0 52 12t13 34v109q-44 -101 -192 -101q-121 0 -199 73t-78 199q0 138 78.5 217t201.5 79q155 0 215 -108l21 100h260v-551
q0 -126 -89 -186t-294 -60zM425 642q-77 0 -106 25.5t-29 96.5q0 98 53 145.5t187 47.5v-84q-63 0 -94.5 -12.5t-38.5 -41.5q23 5 46 5q63 0 87.5 -17.5t24.5 -70.5q0 -52 -28.5 -73t-101.5 -21z" />
    <glyph glyph-name="gcircumflex.alt" horiz-adv-x="829" 
d="M411 237q80 0 80 67q0 72 -80 72q-82 0 -82 -72q0 -67 82 -67zM410 -212q-86 0 -150 9t-106 25.5t-70 44t-42 58.5t-21 75h343q0 -29 57 -29q39 0 52 12t13 34v109q-44 -101 -192 -101q-121 0 -199 73t-78 199q0 138 78.5 217t201.5 79q155 0 215 -108l21 100h260v-551
q0 -126 -89 -186t-294 -60zM474 623l-48 100l-51 -100h-189l153 246h176l153 -246h-194z" />
    <glyph glyph-name="gdotaccent.alt" horiz-adv-x="829" 
d="M411 237q80 0 80 67q0 72 -80 72q-82 0 -82 -72q0 -67 82 -67zM410 -212q-86 0 -150 9t-106 25.5t-70 44t-42 58.5t-21 75h343q0 -29 57 -29q39 0 52 12t13 34v109q-44 -101 -192 -101q-121 0 -199 73t-78 199q0 138 78.5 217t201.5 79q155 0 215 -108l21 100h260v-551
q0 -126 -89 -186t-294 -60zM425 619q-84 0 -110 23t-26 101q0 76 28.5 100.5t107.5 24.5t107.5 -24.5t28.5 -100.5q0 -75 -28.5 -99.5t-107.5 -24.5z" />
    <glyph glyph-name="gbreve.alt" horiz-adv-x="829" 
d="M411 237q80 0 80 67q0 72 -80 72q-82 0 -82 -72q0 -67 82 -67zM410 -212q-86 0 -150 9t-106 25.5t-70 44t-42 58.5t-21 75h343q0 -29 57 -29q39 0 52 12t13 34v109q-44 -101 -192 -101q-121 0 -199 73t-78 199q0 138 78.5 217t201.5 79q155 0 215 -108l21 100h260v-551
q0 -126 -89 -186t-294 -60zM424 621q-236 0 -236 222h174q0 -33 14 -45.5t48 -12.5q33 0 47.5 12.5t14.5 45.5h176q0 -110 -62 -166t-176 -56z" />
    <glyph glyph-name="caronSlovak" 
d="M151 676l88 218h232l-153 -218h-167z" />
    <glyph glyph-name="altcedilla" 
d="M304 -340q-108 0 -173 41t-88 131h206q7 -20 21 -27t44 -7q54 0 54 33q0 15 -9.5 21t-36.5 6h-100v128h117q209 0 209 -156q0 -78 -64 -124t-180 -46z" />
    <glyph glyph-name="uni00200326" 
d="M187 -358v84q63 0 94.5 12.5t38.5 41.5q-23 -5 -46 -5q-63 0 -87.5 17.5t-24.5 70.5q0 52 28.5 73t101.5 21q77 0 106 -25.5t29 -96.5q0 -98 -53 -145.5t-187 -47.5z" />
    <glyph glyph-name="uni00200323" 
d="M302 -304q-89 0 -117 24.5t-28 107.5q0 81 30.5 107t114.5 26t114.5 -26t30.5 -107q0 -80 -30.5 -106t-114.5 -26z" />
    <glyph glyph-name="doublegrave" 
d="M149 663l-169 218h218l100 -218h-149zM367 663l-127 218h211l66 -218h-150z" />
    <glyph glyph-name="invertedbreve" 
d="M307 884q119 0 181 -56t62 -165h-183q0 34 -14 47t-49 13q-34 0 -49 -13.5t-15 -46.5h-182q0 108 66 164.5t183 56.5z" />
    <glyph glyph-name="uni00200326.alt" 
d="M303 672q-77 0 -106 25.5t-29 96.5q0 98 53 145.5t187 47.5v-84q-63 0 -94.5 -12.5t-38.5 -41.5q23 5 46 5q63 0 87.5 -17.5t24.5 -70.5q0 -52 -28.5 -73t-101.5 -21z" />
    <glyph glyph-name="exclamdown.cap" horiz-adv-x="434" 
d="M220 734q102 0 136 -26.5t34 -105.5q0 -78 -37 -106t-133 -28q-95 0 -132.5 28.5t-37.5 105.5q0 78 36 105t134 27zM410 0h-386v57q0 132 29 232t59 137q44 -7 103 -7q70 0 107 7q30 -40 59 -137.5t29 -231.5v-57z" />
    <glyph glyph-name="questiondown.cap" horiz-adv-x="816" 
d="M300 484q38 -17 138 -17q93 0 135 16q11 -35 11 -63q0 -68 -35.5 -99t-119.5 -42q-44 -6 -66.5 -11.5t-29.5 -9.5t-7 -11q0 -19 73 -19q60 0 82 12.5t26 38.5h317q-15 -155 -116 -225t-303 -70q-389 0 -389 240q0 73 37.5 115t118.5 63q72 19 96.5 34t31.5 48zM438 735
q114 0 151 -23t37 -93q0 -68 -40.5 -92.5t-147.5 -24.5q-108 0 -149 24.5t-41 92.5q0 69 39.5 92.5t150.5 23.5z" />
    <glyph glyph-name="uni2E18.cap" horiz-adv-x="781" 
d="M378 741q114 0 151 -23t37 -93q0 -68 -40.5 -92.5t-147.5 -24.5q-108 0 -149 24.5t-41 92.5q0 69 39.5 92.5t150.5 23.5zM390 -10q-196 0 -287.5 50.5t-91.5 154.5q0 55 25 91.5t62.5 53.5t75.5 29t69 30.5t39 46.5l8 31q31 -4 86 -4q53 0 90 5q7 -25 12 -76
q4 -33 5 -196q37 25 37 85h264q-6 -152 -95.5 -226.5t-298.5 -74.5zM269 244q0 -31 30 -45q1 36 5 88q-4 -3 -10.5 -7.5t-9 -6.5t-6.5 -5.5t-5.5 -6.5t-2.5 -7.5t-1 -9.5z" />
    <glyph glyph-name="guilsinglleft.cap" horiz-adv-x="508" 
d="M498 133h-282l-186 217v24l180 229h268l-185 -229z" />
    <glyph glyph-name="guilsinglright.cap" horiz-adv-x="508" 
d="M292 138h-283l205 241l-184 229h267l180 -229v-24z" />
    <glyph glyph-name="guillemotleft.cap" horiz-adv-x="857" 
d="M468 138h-251l-187 211v24l188 235h248l-192 -243zM825 138h-247l-191 211v28l180 231h245l-187 -235z" />
    <glyph glyph-name="guillemotright.cap" horiz-adv-x="857" 
d="M624 138h-251l193 228l-191 242h249l187 -235v-24zM264 138h-248l200 235l-186 235h245l179 -231v-28z" />
    <glyph glyph-name="slash.cap" horiz-adv-x="560" 
d="M317 0h-342l268 720h343z" />
    <glyph glyph-name="backslash.cap" horiz-adv-x="560" 
d="M-31 720h334l288 -720h-334z" />
    <glyph glyph-name="bar.cap" horiz-adv-x="412" 
d="M357 -164h-302v1072h302v-1072z" />
    <glyph glyph-name="uni2016.cap" horiz-adv-x="727" 
d="M327 -171h-272v1079h272v-1079zM672 -171h-272v1079h272v-1079z" />
    <glyph glyph-name="brokenbar.cap" horiz-adv-x="412" 
d="M55 423v485h302v-485h-302zM357 327v-491h-302v491h302z" />
    <glyph glyph-name="bullet.cap" horiz-adv-x="547" 
d="M273 83q-96 0 -134 36t-38 130q0 90 40.5 128.5t131.5 38.5q93 0 133 -36.5t40 -130.5q0 -92 -40.5 -129t-132.5 -37z" />
    <glyph glyph-name="onethirdemdash" horiz-adv-x="469" 
d="M439 434v-283h-409v283h409z" />
    <glyph glyph-name="threequarteremdash" horiz-adv-x="714" 
d="M684 434v-283h-654v283h654z" />
    <glyph glyph-name="periodcentered.cap" horiz-adv-x="424" 
d="M212 202q-104 0 -137 27.5t-33 119.5q0 91 36 120t134 29q97 0 133.5 -29t36.5 -120q0 -89 -35.5 -118t-134.5 -29z" />
    <glyph glyph-name="hyphen.cap" horiz-adv-x="628" 
d="M598 495v-282h-568v282h568z" />
    <glyph glyph-name="onethirdemdash.cap" horiz-adv-x="628" 
d="M598 495v-282h-568v282h568z" />
    <glyph glyph-name="endash.cap" horiz-adv-x="469" 
d="M439 495v-282h-409v282h409z" />
    <glyph glyph-name="threequarteremdash.cap" horiz-adv-x="579" 
d="M549 495v-282h-519v282h519z" />
    <glyph glyph-name="emdash.cap" horiz-adv-x="714" 
d="M684 495v-282h-654v282h654z" />
    <glyph glyph-name="figuredash.cap" horiz-adv-x="849" 
d="M819 495v-282h-789v282h789z" />
    <glyph glyph-name="uni2015.cap" horiz-adv-x="734" 
d="M704 495v-282h-674v282h674z" />
    <glyph glyph-name="periodcentered.smcp" horiz-adv-x="1309" 
d="M1279 495v-282h-1249v282h1249z" />
    <glyph glyph-name="parenleft.cap" horiz-adv-x="486" 
d="M471 -112q-250 0 -350 105t-100 353q0 133 29 225t87.5 147t139.5 79t194 24v-268q-80 0 -104.5 -41.5t-24.5 -161.5q0 -107 26.5 -142.5t102.5 -35.5v-284z" />
    <glyph glyph-name="parenright.cap" horiz-adv-x="486" 
d="M15 -112v284q76 0 102.5 35.5t26.5 142.5q0 120 -24.5 161.5t-104.5 41.5v268q113 0 194 -24t139.5 -79t87.5 -147t29 -225q0 -248 -100 -353t-350 -105z" />
    <glyph glyph-name="bracketleft.cap" horiz-adv-x="520" 
d="M505 125v-227h-469v913h469v-227h-168v-459h168z" />
    <glyph glyph-name="bracketright.cap" horiz-adv-x="520" 
d="M484 -102h-469v227h167v459h-167v227h469v-913z" />
    <glyph glyph-name="braceleft.cap" horiz-adv-x="585" 
d="M570 -102h-268q-111 0 -157 30.5t-46 97.5q0 29 16.5 54t35.5 39t35.5 30.5t16.5 30.5q0 45 -68 45h-113v259h98q37 0 52.5 10.5t15.5 31.5q0 19 -21 39.5t-42.5 47.5t-21.5 62q0 69 46.5 102.5t157.5 33.5h263v-225h-71q-43 0 -60.5 -8t-17.5 -26q0 -10 13.5 -20.5
t29 -19t29 -26.5t13.5 -42q0 -38 -39 -57.5t-139 -18.5v-28q178 1 178 -70q0 -25 -11.5 -44.5t-26 -29.5t-26 -22t-11.5 -23q0 -17 16 -22.5t57 -5.5h66v-225z" />
    <glyph glyph-name="braceright.cap" horiz-adv-x="585" 
d="M15 -102v225h66q41 0 57 5.5t16 22.5q0 11 -11.5 23t-26 22t-26 29.5t-11.5 44.5q0 71 178 70v28q-100 -1 -139 18.5t-39 57.5q0 24 13.5 42t29 26.5t29 19t13.5 20.5q0 18 -17.5 26t-60.5 8h-71v225h263q111 0 157.5 -33.5t46.5 -102.5q0 -35 -21.5 -62t-42.5 -47.5
t-21 -39.5q0 -21 15.5 -31.5t52.5 -10.5h98v-259h-113q-68 0 -68 -45q0 -14 16 -30.5t36 -30.5t36 -39t16 -54q0 -67 -46 -97.5t-157 -30.5h-268z" />
    <glyph glyph-name="anglebracketleft.cap" horiz-adv-x="510" 
d="M543 -102h-320l-221 469l234 444h308l-228 -442z" />
    <glyph glyph-name="anglebracketright.cap" horiz-adv-x="510" 
d="M287 -102h-319l227 471l-227 442h307l233 -444z" />
    <glyph glyph-name="underscore" horiz-adv-x="800" 
d="M790 246v-246h-780v246h780z" />
    <glyph glyph-name="at.cap" horiz-adv-x="898" 
d="M446 -68q-201 0 -317 104t-116 301q0 188 125.5 301.5t327.5 113.5q198 0 312 -101.5t114 -248.5q0 -115 -54.5 -177.5t-152.5 -62.5q-105 0 -148 65q-39 -72 -140 -72q-80 0 -125.5 47t-45.5 140q0 85 47 136t127 51q97 0 127 -63l24 53h116v-160q0 -63 31 -63
q42 0 42 99t-69.5 158t-204.5 59q-145 0 -223.5 -72t-78.5 -199q0 -116 70.5 -194t215.5 -78q126 0 179 67h205q-109 -204 -388 -204zM446 292q23 0 36.5 15t13.5 36q0 23 -13.5 39t-36.5 16q-24 0 -37 -16t-13 -39q0 -21 13 -36t37 -15z" />
    <glyph glyph-name="registered.cap" horiz-adv-x="912" 
d="M456 -19q-211 0 -324 94t-113 283q0 177 120.5 279t322.5 102q196 0 313.5 -102t117.5 -279q0 -188 -114.5 -282.5t-322.5 -94.5zM652 205q0 -7 2 -17q68 59 68 171q0 108 -71.5 170t-190.5 62q-111 0 -182 -51h197q105 0 148.5 -31t43.5 -96q0 -67 -66 -91
q30 -11 40.5 -32.5t10.5 -61.5v-23zM190 359q0 -115 71 -174v342q-71 -63 -71 -168zM470 421h-56v-46h56q31 0 31 23t-31 23zM456 129q116 0 182 47h-136q-13 6 -13 24v32q0 19 -8 26t-29 7h-38v-89h-142q66 -47 184 -47z" />
    <glyph glyph-name="zero.inf" horiz-adv-x="458" 
d="M227 -174q-99 0 -152.5 47t-53.5 141q0 88 57 138.5t152 50.5q92 0 147.5 -50.5t55.5 -138.5q0 -94 -54 -141t-152 -47zM226 -28q38 0 38 42q0 43 -38 43q-18 0 -27.5 -12t-9.5 -31q0 -42 37 -42z" />
    <glyph glyph-name="one.inf" horiz-adv-x="372" 
d="M346 -165h-325v144h87v39h-66v112q72 3 94 65h133v-216h77v-144z" />
    <glyph glyph-name="two.inf" horiz-adv-x="437" 
d="M409 -165h-391v98q0 52 38 80.5t83 33.5t83 8.5t38 11.5q0 11 -33 11q-38 0 -40 -20h-167q9 145 205 145q190 0 190 -117q0 -33 -19 -55t-49.5 -32t-62 -15t-64 -10t-46.5 -12h235v-127z" />
    <glyph glyph-name="three.inf" horiz-adv-x="425" 
d="M209 -175q-63 0 -104 9t-63 28.5t-30.5 44t-9.5 61.5h167q2 -9 8.5 -11.5t29.5 -2.5q38 0 38 13q0 10 -36 10h-32v75h31q30 0 30 11t-33 11q-35 0 -37 -14h-159q3 76 55 108t157 32q95 0 141 -28.5t46 -76.5q0 -57 -76 -74q83 -14 83 -78q0 -56 -51.5 -87t-154.5 -31z
" />
    <glyph glyph-name="four.inf" horiz-adv-x="444" 
d="M426 -114h-57v-51h-147v51h-209v104l221 205h135v-189h57v-120zM222 6v50l-51 -50h51z" />
    <glyph glyph-name="five.inf" horiz-adv-x="443" 
d="M221 -172q-108 0 -155 29t-47 90h183q0 -18 22 -18q20 0 20 18q0 20 -23 20q-17 0 -25 -13l-174 32l42 209h341v-1q0 -76 -24 -100t-102 -24h-76l-8 -32q41 18 94 18q69 0 100.5 -24.5t31.5 -78.5q0 -62 -47 -93.5t-153 -31.5z" />
    <glyph glyph-name="six.inf" horiz-adv-x="453" 
d="M430 -43q0 -64 -53 -97.5t-144 -33.5q-115 0 -163.5 45.5t-48.5 138.5q0 94 53.5 143.5t154.5 49.5q89 0 137.5 -31.5t63.5 -103.5h-170q-6 13 -32 13q-48 0 -48 -54q45 28 116 28q70 0 102 -22.5t32 -75.5zM232 -45q37 0 37 18q0 15 -23 15q-28 0 -53 -18q13 -15 39 -15
z" />
    <glyph glyph-name="seven.inf" horiz-adv-x="382" 
d="M211 -165h-187q59 122 163 223h-179v137h367v-117q-67 -62 -103 -116.5t-61 -126.5z" />
    <glyph glyph-name="eight.inf" horiz-adv-x="438" 
d="M217 -172q-109 0 -158.5 25t-49.5 80q0 62 75 84q-60 18 -60 75q0 56 46 83.5t149 27.5q196 0 196 -111q0 -57 -63 -74q74 -23 74 -80q0 -56 -50.5 -83t-158.5 -27zM219 46q45 0 45 14q0 15 -45 15q-44 0 -44 -15q0 -14 44 -14zM219 -43q48 0 48 14q0 15 -48 15
q-47 0 -47 -15q0 -14 47 -14z" />
    <glyph glyph-name="nine.inf" horiz-adv-x="452" 
d="M205 42q34 0 56 16q-10 20 -42 20q-39 0 -39 -21q0 -15 25 -15zM219 -175q-91 0 -141 30t-64 105h176q4 -15 32 -15q47 0 47 56q-40 -28 -114 -28q-137 0 -137 95q0 62 52 97.5t156 35.5q202 0 202 -188t-209 -188z" />
    <glyph glyph-name="plus.inf" horiz-adv-x="391" 
d="M353 -53h-90v-85h-140v85h-90v141h90v85h140v-85h90v-141z" />
    <glyph glyph-name="minus.inf" horiz-adv-x="391" 
d="M353 -59h-320v153h320v-153z" />
    <glyph glyph-name="equal.inf" horiz-adv-x="393" 
d="M333 42h-277v121h277v-121zM333 -122h-277v121h277v-121z" />
    <glyph glyph-name="parenleft.inf" horiz-adv-x="332" 
d="M292 -318q-64 4 -109.5 20.5t-82 51.5t-55 98t-18.5 154v1q0 170 63.5 238t201.5 79v-171q-53 -9 -73.5 -38t-20.5 -106q0 -78 20.5 -105t73.5 -32v-190z" />
    <glyph glyph-name="parenright.inf" horiz-adv-x="332" 
d="M36 -318v190q53 5 73.5 32t20.5 105q0 77 -20.5 106t-73.5 38v171q138 -11 201.5 -79t63.5 -238v-1q0 -91 -18.5 -154t-55 -98t-82 -51.5t-109.5 -20.5z" />
    <glyph glyph-name="onesixteenth" horiz-adv-x="1547" 
d="M460 354h-325v144h87v39h-66v112q72 3 94 65h133v-216h77v-144zM987 0h-325v144h87v39h-66v112q72 3 94 65h133v-216h77v-144zM1435 122q0 -64 -53 -97.5t-144 -33.5q-115 0 -163.5 45.5t-48.5 138.5q0 94 53.5 143.5t154.5 49.5q89 0 137.5 -31.5t63.5 -103.5h-170
q-7 13 -32 13q-48 0 -48 -54q45 28 116 28q70 0 102 -22.5t32 -75.5zM1237 120q37 0 37 18q0 15 -23 15q-28 0 -53 -18q13 -15 39 -15zM669 397l-51 47l256 338l191 -173zM508 352l50 -47l-259 -363l-193 180z" />
    <glyph glyph-name="threesixteenths" horiz-adv-x="1547" 
d="M688 397l-51 47l256 338l191 -173zM527 352l50 -47l-259 -363l-193 180zM1435 122q0 -64 -53 -97.5t-144 -33.5q-115 0 -163.5 45.5t-48.5 138.5q0 94 53.5 143.5t154.5 49.5q89 0 137.5 -31.5t63.5 -103.5h-170q-7 13 -32 13q-48 0 -48 -54q45 28 116 28q70 0 102 -22.5
t32 -75.5zM1237 120q37 0 37 18q0 15 -23 15q-28 0 -53 -18q13 -15 39 -15zM273 344q-63 0 -104 9t-63 28.5t-30.5 44t-9.5 61.5h167q2 -9 8.5 -11.5t29.5 -2.5q38 0 38 13q0 10 -36 10h-32v75h31q30 0 30 11t-33 11q-35 0 -37 -14h-159q3 76 55 108t157 32q95 0 141 -28.5
t46 -76.5q0 -57 -76 -74q83 -14 83 -78q0 -56 -51.5 -87t-154.5 -31zM987 1h-325v144h87v39h-66v112q72 3 94 65h133v-216h77v-144z" />
    <glyph glyph-name="fivesixteenths" horiz-adv-x="1547" 
d="M688 397l-51 47l256 338l191 -173zM527 352l50 -47l-259 -363l-193 180zM1435 122q0 -64 -53 -97.5t-144 -33.5q-115 0 -163.5 45.5t-48.5 138.5q0 94 53.5 143.5t154.5 49.5q89 0 137.5 -31.5t63.5 -103.5h-170q-7 13 -32 13q-48 0 -48 -54q45 28 116 28q70 0 102 -22.5
t32 -75.5zM1237 120q37 0 37 18q0 15 -23 15q-28 0 -53 -18q13 -15 39 -15zM280 347q-108 0 -155 29t-47 90h183q0 -18 22 -18q20 0 20 18q0 20 -23 20q-17 0 -25 -13l-174 32l42 209h341v-1q0 -76 -24 -100t-102 -24h-76l-8 -32q41 18 94 18q69 0 100.5 -24.5t31.5 -78.5
q0 -62 -47 -93.5t-153 -31.5zM987 1h-325v144h87v39h-66v112q72 3 94 65h133v-216h77v-144z" />
    <glyph glyph-name="sevensixteenths" horiz-adv-x="1547" 
d="M688 397l-51 47l256 338l191 -173zM527 352l50 -47l-259 -363l-193 180zM1435 122q0 -64 -53 -97.5t-144 -33.5q-115 0 -163.5 45.5t-48.5 138.5q0 94 53.5 143.5t154.5 49.5q89 0 137.5 -31.5t63.5 -103.5h-170q-7 13 -32 13q-48 0 -48 -54q45 28 116 28q70 0 102 -22.5
t32 -75.5zM1237 120q37 0 37 18q0 15 -23 15q-28 0 -53 -18q13 -15 39 -15zM368 354h-187q59 122 163 223h-179v137h367v-117q-67 -62 -103 -116.5t-61 -126.5zM987 1h-325v144h87v39h-66v112q72 3 94 65h133v-216h77v-144z" />
    <glyph glyph-name="ninesixteenths" horiz-adv-x="1547" 
d="M688 397l-51 47l256 338l191 -173zM527 352l50 -47l-259 -363l-193 180zM1435 122q0 -64 -53 -97.5t-144 -33.5q-115 0 -163.5 45.5t-48.5 138.5q0 94 53.5 143.5t154.5 49.5q89 0 137.5 -31.5t63.5 -103.5h-170q-7 13 -32 13q-48 0 -48 -54q45 28 116 28q70 0 102 -22.5
t32 -75.5zM1237 120q37 0 37 18q0 15 -23 15q-28 0 -53 -18q13 -15 39 -15zM307 561q34 0 56 16q-10 20 -42 20q-39 0 -39 -21q0 -15 25 -15zM321 344q-91 0 -141 30t-64 105h176q5 -15 32 -15q47 0 47 56q-40 -28 -114 -28q-137 0 -137 95q0 62 52 97.5t156 35.5
q202 0 202 -188t-209 -188zM987 1h-325v144h87v39h-66v112q72 3 94 65h133v-216h77v-144z" />
    <glyph glyph-name="elevensixteenths" horiz-adv-x="1881" 
d="M822 354h-325v144h87v39h-66v112q72 3 94 65h133v-216h77v-144zM460 354h-325v144h87v39h-66v112q72 3 94 65h133v-216h77v-144zM1030 397l-51 47l256 338l191 -173zM869 352l50 -47l-259 -363l-193 180zM1349 0h-325v144h87v39h-66v112q72 3 94 65h133v-216h77v-144z
M1797 122q0 -64 -53 -97.5t-144 -33.5q-115 0 -163.5 45.5t-48.5 138.5q0 94 53.5 143.5t154.5 49.5q89 0 137.5 -31.5t63.5 -103.5h-170q-7 13 -32 13q-48 0 -48 -54q45 28 116 28q70 0 102 -22.5t32 -75.5zM1599 120q37 0 37 18q0 15 -23 15q-28 0 -53 -18q13 -15 39 -15z
" />
    <glyph glyph-name="thirteensixteenths" horiz-adv-x="1931" 
d="M449 344h-325v144h87v39h-66v112q72 3 94 65h133v-216h77v-144zM1081 397l-51 47l256 338l191 -173zM920 352l50 -47l-259 -363l-193 180zM1822 123q0 -64 -53 -97.5t-144 -33.5q-115 0 -163.5 45.5t-48.5 138.5q0 94 53.5 143.5t154.5 49.5q89 0 137.5 -31.5
t63.5 -103.5h-170q-6 13 -32 13q-48 0 -48 -54q45 28 116 28q70 0 102 -22.5t32 -75.5zM1624 121q37 0 37 18q0 15 -23 15q-28 0 -53 -18q13 -15 39 -15zM679 334q-63 0 -104 9t-63 28.5t-30.5 44t-9.5 61.5h167q2 -9 8.5 -11.5t29.5 -2.5q38 0 38 13q0 10 -36 10h-32v75h31
q30 0 30 11t-33 11q-35 0 -37 -14h-159q3 76 55 108t157 32q95 0 141 -28.5t46 -76.5q0 -57 -76 -74q83 -14 83 -78q0 -56 -51.5 -87t-154.5 -31zM1388 1h-325v144h87v39h-66v112q72 3 94 65h133v-216h77v-144z" />
    <glyph glyph-name="fifteensixteenths" horiz-adv-x="1927" 
d="M449 354h-325v144h87v39h-66v112q72 3 94 65h133v-216h77v-144zM1076 397l-51 47l256 338l191 -173zM915 352l50 -47l-259 -363l-193 180zM1818 123q0 -64 -53 -97.5t-144 -33.5q-115 0 -163.5 45.5t-48.5 138.5q0 94 53.5 143.5t154.5 49.5q89 0 137.5 -31.5
t63.5 -103.5h-170q-6 13 -32 13q-48 0 -48 -54q45 28 116 28q70 0 102 -22.5t32 -75.5zM1620 121q37 0 37 18q0 15 -23 15q-28 0 -53 -18q13 -15 39 -15zM684 347q-108 0 -155 29t-47 90h183q0 -18 22 -18q20 0 20 18q0 20 -23 20q-17 0 -25 -13l-174 32l42 209h341v-1
q0 -76 -24 -100t-102 -24h-76l-8 -32q40 18 94 18q69 0 100.5 -24.5t31.5 -78.5q0 -62 -47 -93.5t-153 -31.5zM1384 1h-325v144h87v39h-66v112q72 3 94 65h133v-216h77v-144z" />
    <glyph glyph-name="mediumwhitecircle" horiz-adv-x="615" 
d="M307 -10q-136 0 -220 84.5t-84 217.5q0 132 84.5 217.5t219.5 85.5t220 -84.5t85 -218.5q0 -132 -84.5 -217t-220.5 -85zM307 193q42 0 67.5 28.5t25.5 70.5q0 43 -25.5 72t-67.5 29q-43 0 -68 -28.5t-25 -72.5q0 -42 25.5 -70.5t67.5 -28.5z" />
    <glyph glyph-name="mediumblackcircle" horiz-adv-x="615" 
d="M307 -10q-136 0 -220 84.5t-84 217.5q0 132 84.5 217.5t219.5 85.5t220 -84.5t85 -218.5q0 -132 -84.5 -217t-220.5 -85z" />
    <glyph glyph-name="ballotboxwithx" horiz-adv-x="639" 
d="M27 0v585h585v-585h-585zM227 389v-192h185v192h-185zM366 215l-46 47l-46 -47l-30 30l46 48l-46 47l30 30l46 -47l46 47l31 -29l-47 -49l46 -47z" />
    </font>
</defs>
</svg>
